G04*
G04 #@! TF.GenerationSoftware,Altium Limited,Altium Designer,21.5.0 (25)*
G04*
G04 Layer_Color=16711935*
%FSLAX25Y25*%
%MOIN*%
G70*
G04*
G04 #@! TF.SameCoordinates,B52814C9-DCD9-4C92-8852-15DF41944D51*
G04*
G04*
G04 #@! TF.FilePolarity,Negative*
G04*
G01*
G75*
%ADD22C,0.09843*%
%ADD23R,0.04534X0.04140*%
%ADD27R,0.06699X0.06699*%
%ADD28C,0.06699*%
%ADD29R,0.06699X0.06699*%
%ADD30C,0.00400*%
%ADD31C,0.02762*%
%ADD32C,0.03550*%
%ADD45R,0.01378X0.03150*%
%ADD47R,0.05727X0.06127*%
%ADD50R,0.03943X0.04337*%
%ADD51R,0.03156X0.03943*%
%ADD52R,0.03943X0.04534*%
%ADD53R,0.06109X0.04534*%
%ADD54R,0.04140X0.04534*%
%ADD55R,0.14967X0.05124*%
%ADD56C,0.04400*%
G36*
X826504Y-488D02*
X826555D01*
X826610Y-498D01*
X826680Y-502D01*
X826749Y-511D01*
X826828Y-525D01*
X826906Y-539D01*
X827077Y-581D01*
X827160Y-609D01*
X827248Y-636D01*
X827331Y-673D01*
X827414Y-715D01*
X827419Y-719D01*
X827433Y-724D01*
X827456Y-738D01*
X827488Y-756D01*
X827520Y-779D01*
X827562Y-807D01*
X827613Y-844D01*
X827659Y-881D01*
X827715Y-927D01*
X827770Y-973D01*
X827826Y-1029D01*
X827881Y-1089D01*
X827936Y-1149D01*
X827987Y-1218D01*
X828038Y-1292D01*
X828084Y-1371D01*
X828089Y-1375D01*
X828093Y-1389D01*
X828107Y-1412D01*
X828121Y-1445D01*
X828140Y-1486D01*
X828163Y-1537D01*
X828186Y-1592D01*
X828209Y-1653D01*
X828232Y-1726D01*
X828255Y-1800D01*
X828274Y-1884D01*
X828297Y-1971D01*
X828311Y-2064D01*
X828324Y-2161D01*
X828338Y-2262D01*
X828343Y-2369D01*
X827682Y-2429D01*
Y-2420D01*
X827678Y-2401D01*
X827673Y-2369D01*
X827668Y-2327D01*
X827659Y-2276D01*
X827650Y-2221D01*
X827631Y-2156D01*
X827618Y-2082D01*
X827567Y-1934D01*
X827539Y-1860D01*
X827502Y-1787D01*
X827465Y-1713D01*
X827419Y-1643D01*
X827368Y-1579D01*
X827313Y-1519D01*
X827308Y-1514D01*
X827299Y-1505D01*
X827280Y-1491D01*
X827253Y-1472D01*
X827225Y-1449D01*
X827183Y-1422D01*
X827137Y-1398D01*
X827086Y-1366D01*
X827026Y-1338D01*
X826962Y-1315D01*
X826888Y-1288D01*
X826809Y-1264D01*
X826721Y-1246D01*
X826633Y-1232D01*
X826532Y-1223D01*
X826430Y-1218D01*
X826375D01*
X826333Y-1223D01*
X826287Y-1228D01*
X826232Y-1232D01*
X826167Y-1241D01*
X826102Y-1251D01*
X825959Y-1283D01*
X825885Y-1301D01*
X825811Y-1329D01*
X825737Y-1362D01*
X825668Y-1394D01*
X825603Y-1435D01*
X825543Y-1482D01*
X825539Y-1486D01*
X825529Y-1496D01*
X825515Y-1509D01*
X825497Y-1528D01*
X825474Y-1556D01*
X825446Y-1583D01*
X825423Y-1620D01*
X825395Y-1662D01*
X825363Y-1708D01*
X825340Y-1759D01*
X825289Y-1874D01*
X825271Y-1939D01*
X825257Y-2008D01*
X825247Y-2078D01*
X825243Y-2156D01*
Y-2161D01*
Y-2175D01*
Y-2193D01*
X825247Y-2221D01*
Y-2253D01*
X825257Y-2290D01*
X825271Y-2373D01*
X825298Y-2470D01*
X825335Y-2567D01*
X825391Y-2664D01*
X825428Y-2706D01*
X825465Y-2747D01*
X825469D01*
X825474Y-2757D01*
X825492Y-2771D01*
X825511Y-2785D01*
X825539Y-2803D01*
X825576Y-2826D01*
X825622Y-2854D01*
X825673Y-2881D01*
X825737Y-2914D01*
X825807Y-2946D01*
X825890Y-2983D01*
X825982Y-3020D01*
X826088Y-3057D01*
X826204Y-3094D01*
X826333Y-3136D01*
X826472Y-3177D01*
X826481D01*
X826504Y-3186D01*
X826546Y-3196D01*
X826597Y-3214D01*
X826657Y-3228D01*
X826731Y-3251D01*
X826809Y-3274D01*
X826892Y-3302D01*
X827068Y-3357D01*
X827248Y-3417D01*
X827331Y-3450D01*
X827410Y-3482D01*
X827479Y-3510D01*
X827544Y-3542D01*
X827548Y-3547D01*
X827567Y-3551D01*
X827590Y-3565D01*
X827622Y-3588D01*
X827659Y-3611D01*
X827705Y-3639D01*
X827756Y-3676D01*
X827812Y-3713D01*
X827923Y-3805D01*
X828043Y-3916D01*
X828154Y-4041D01*
X828209Y-4106D01*
X828255Y-4180D01*
X828260Y-4184D01*
X828264Y-4198D01*
X828278Y-4221D01*
X828292Y-4249D01*
X828311Y-4286D01*
X828334Y-4332D01*
X828357Y-4383D01*
X828380Y-4443D01*
X828398Y-4508D01*
X828421Y-4582D01*
X828444Y-4660D01*
X828463Y-4739D01*
X828477Y-4826D01*
X828491Y-4919D01*
X828495Y-5016D01*
X828500Y-5118D01*
Y-5122D01*
Y-5141D01*
Y-5168D01*
X828495Y-5210D01*
X828491Y-5256D01*
X828486Y-5312D01*
X828477Y-5376D01*
X828468Y-5446D01*
X828454Y-5520D01*
X828440Y-5598D01*
X828394Y-5764D01*
X828366Y-5847D01*
X828329Y-5935D01*
X828292Y-6023D01*
X828246Y-6106D01*
X828241Y-6111D01*
X828232Y-6125D01*
X828218Y-6148D01*
X828200Y-6180D01*
X828172Y-6217D01*
X828144Y-6259D01*
X828107Y-6305D01*
X828066Y-6356D01*
X828015Y-6411D01*
X827964Y-6467D01*
X827909Y-6522D01*
X827849Y-6577D01*
X827779Y-6633D01*
X827710Y-6684D01*
X827631Y-6735D01*
X827553Y-6781D01*
X827548Y-6785D01*
X827534Y-6790D01*
X827507Y-6804D01*
X827474Y-6818D01*
X827433Y-6836D01*
X827382Y-6855D01*
X827326Y-6873D01*
X827257Y-6896D01*
X827188Y-6919D01*
X827105Y-6938D01*
X827022Y-6956D01*
X826929Y-6975D01*
X826828Y-6989D01*
X826726Y-7002D01*
X826615Y-7007D01*
X826504Y-7012D01*
X826463D01*
X826439Y-7007D01*
X826412D01*
X826347Y-7002D01*
X826264Y-6993D01*
X826171Y-6979D01*
X826065Y-6966D01*
X825954Y-6938D01*
X825834Y-6910D01*
X825710Y-6873D01*
X825580Y-6827D01*
X825451Y-6771D01*
X825326Y-6702D01*
X825201Y-6628D01*
X825081Y-6540D01*
X824970Y-6439D01*
X824966Y-6434D01*
X824947Y-6411D01*
X824920Y-6379D01*
X824883Y-6333D01*
X824836Y-6273D01*
X824790Y-6203D01*
X824739Y-6120D01*
X824684Y-6028D01*
X824628Y-5922D01*
X824578Y-5801D01*
X824527Y-5672D01*
X824485Y-5533D01*
X824444Y-5385D01*
X824416Y-5224D01*
X824393Y-5053D01*
X824384Y-4873D01*
X825030Y-4803D01*
Y-4808D01*
X825035Y-4826D01*
Y-4854D01*
X825040Y-4891D01*
X825049Y-4933D01*
X825058Y-4984D01*
X825067Y-5039D01*
X825077Y-5099D01*
X825109Y-5233D01*
X825150Y-5367D01*
X825201Y-5496D01*
X825229Y-5561D01*
X825261Y-5616D01*
Y-5621D01*
X825271Y-5630D01*
X825280Y-5644D01*
X825294Y-5663D01*
X825340Y-5718D01*
X825395Y-5783D01*
X825469Y-5857D01*
X825562Y-5935D01*
X825663Y-6014D01*
X825783Y-6083D01*
X825788D01*
X825797Y-6092D01*
X825816Y-6097D01*
X825844Y-6111D01*
X825876Y-6125D01*
X825913Y-6139D01*
X825959Y-6152D01*
X826010Y-6171D01*
X826061Y-6189D01*
X826121Y-6203D01*
X826250Y-6231D01*
X826393Y-6250D01*
X826550Y-6259D01*
X826610D01*
X826652Y-6254D01*
X826703Y-6250D01*
X826763Y-6245D01*
X826828Y-6236D01*
X826897Y-6222D01*
X827049Y-6185D01*
X827128Y-6162D01*
X827206Y-6134D01*
X827285Y-6102D01*
X827359Y-6060D01*
X827433Y-6014D01*
X827497Y-5963D01*
X827502Y-5958D01*
X827511Y-5949D01*
X827530Y-5931D01*
X827553Y-5908D01*
X827576Y-5880D01*
X827604Y-5843D01*
X827636Y-5801D01*
X827668Y-5755D01*
X827701Y-5700D01*
X827733Y-5640D01*
X827761Y-5580D01*
X827784Y-5510D01*
X827807Y-5436D01*
X827826Y-5358D01*
X827835Y-5275D01*
X827839Y-5187D01*
Y-5182D01*
Y-5173D01*
Y-5159D01*
Y-5141D01*
X827835Y-5090D01*
X827826Y-5021D01*
X827807Y-4947D01*
X827789Y-4863D01*
X827756Y-4780D01*
X827715Y-4702D01*
Y-4697D01*
X827710Y-4693D01*
X827691Y-4665D01*
X827664Y-4628D01*
X827622Y-4582D01*
X827567Y-4526D01*
X827502Y-4471D01*
X827428Y-4411D01*
X827340Y-4360D01*
X827336D01*
X827326Y-4355D01*
X827313Y-4346D01*
X827289Y-4337D01*
X827257Y-4323D01*
X827220Y-4304D01*
X827174Y-4286D01*
X827114Y-4263D01*
X827049Y-4235D01*
X826975Y-4207D01*
X826888Y-4175D01*
X826791Y-4143D01*
X826680Y-4106D01*
X826560Y-4069D01*
X826426Y-4027D01*
X826278Y-3981D01*
X826268Y-3976D01*
X826245Y-3972D01*
X826208Y-3958D01*
X826158Y-3944D01*
X826098Y-3926D01*
X826028Y-3903D01*
X825954Y-3875D01*
X825876Y-3847D01*
X825700Y-3778D01*
X825529Y-3704D01*
X825446Y-3667D01*
X825368Y-3630D01*
X825298Y-3588D01*
X825234Y-3547D01*
X825229Y-3542D01*
X825220Y-3537D01*
X825206Y-3524D01*
X825183Y-3505D01*
X825155Y-3487D01*
X825127Y-3459D01*
X825058Y-3394D01*
X824979Y-3311D01*
X824901Y-3219D01*
X824823Y-3108D01*
X824753Y-2988D01*
Y-2983D01*
X824744Y-2974D01*
X824739Y-2955D01*
X824725Y-2928D01*
X824712Y-2895D01*
X824698Y-2858D01*
X824684Y-2817D01*
X824670Y-2766D01*
X824652Y-2710D01*
X824638Y-2655D01*
X824610Y-2526D01*
X824592Y-2378D01*
X824582Y-2225D01*
Y-2216D01*
Y-2193D01*
X824587Y-2152D01*
X824592Y-2096D01*
X824596Y-2031D01*
X824610Y-1957D01*
X824624Y-1874D01*
X824642Y-1782D01*
X824670Y-1685D01*
X824702Y-1583D01*
X824739Y-1477D01*
X824790Y-1375D01*
X824846Y-1269D01*
X824910Y-1168D01*
X824984Y-1066D01*
X825072Y-973D01*
X825077Y-969D01*
X825095Y-950D01*
X825123Y-927D01*
X825164Y-895D01*
X825210Y-858D01*
X825271Y-816D01*
X825344Y-775D01*
X825423Y-729D01*
X825515Y-682D01*
X825617Y-641D01*
X825723Y-599D01*
X825844Y-562D01*
X825973Y-530D01*
X826107Y-507D01*
X826255Y-488D01*
X826407Y-484D01*
X826463D01*
X826504Y-488D01*
D02*
G37*
G36*
X837990Y-6905D02*
X837393D01*
Y-6337D01*
X837384Y-6346D01*
X837375Y-6365D01*
X837361Y-6388D01*
X837343Y-6416D01*
X837324Y-6448D01*
X837273Y-6522D01*
X837209Y-6601D01*
X837130Y-6688D01*
X837042Y-6767D01*
X836945Y-6841D01*
X836941D01*
X836932Y-6850D01*
X836918Y-6855D01*
X836899Y-6869D01*
X836876Y-6882D01*
X836844Y-6896D01*
X836774Y-6924D01*
X836687Y-6956D01*
X836585Y-6984D01*
X836479Y-7002D01*
X836363Y-7012D01*
X836335D01*
X836298Y-7007D01*
X836252Y-7002D01*
X836197Y-6993D01*
X836128Y-6979D01*
X836054Y-6961D01*
X835970Y-6933D01*
X835887Y-6901D01*
X835795Y-6859D01*
X835698Y-6808D01*
X835601Y-6748D01*
X835504Y-6679D01*
X835407Y-6596D01*
X835310Y-6499D01*
X835217Y-6388D01*
X835213Y-6379D01*
X835199Y-6360D01*
X835171Y-6323D01*
X835143Y-6273D01*
X835107Y-6208D01*
X835065Y-6129D01*
X835023Y-6037D01*
X834977Y-5931D01*
X834931Y-5815D01*
X834889Y-5681D01*
X834848Y-5538D01*
X834811Y-5376D01*
X834783Y-5210D01*
X834760Y-5025D01*
X834742Y-4831D01*
X834737Y-4623D01*
Y-4614D01*
Y-4591D01*
Y-4549D01*
X834742Y-4494D01*
Y-4425D01*
X834746Y-4351D01*
X834756Y-4263D01*
X834765Y-4166D01*
X834774Y-4064D01*
X834788Y-3963D01*
X834825Y-3741D01*
X834880Y-3519D01*
X834912Y-3408D01*
X834949Y-3306D01*
X834954Y-3302D01*
X834959Y-3283D01*
X834973Y-3256D01*
X834986Y-3219D01*
X835010Y-3173D01*
X835037Y-3122D01*
X835065Y-3062D01*
X835102Y-3002D01*
X835185Y-2868D01*
X835282Y-2734D01*
X835393Y-2609D01*
X835458Y-2549D01*
X835522Y-2498D01*
X835527Y-2493D01*
X835541Y-2489D01*
X835559Y-2475D01*
X835587Y-2456D01*
X835619Y-2438D01*
X835661Y-2415D01*
X835707Y-2392D01*
X835758Y-2364D01*
X835813Y-2341D01*
X835874Y-2318D01*
X836012Y-2276D01*
X836081Y-2258D01*
X836160Y-2244D01*
X836238Y-2239D01*
X836317Y-2235D01*
X836349D01*
X836372Y-2239D01*
X836400D01*
X836432Y-2244D01*
X836506Y-2253D01*
X836599Y-2276D01*
X836696Y-2304D01*
X836798Y-2346D01*
X836899Y-2401D01*
X836904D01*
X836913Y-2410D01*
X836927Y-2420D01*
X836945Y-2433D01*
X836992Y-2470D01*
X837056Y-2521D01*
X837125Y-2586D01*
X837199Y-2669D01*
X837278Y-2761D01*
X837347Y-2868D01*
Y-595D01*
X837990D01*
Y-6905D01*
D02*
G37*
G36*
X820507Y-2239D02*
X820554Y-2244D01*
X820609Y-2253D01*
X820665Y-2267D01*
X820729Y-2281D01*
X820794Y-2299D01*
X820863Y-2323D01*
X820937Y-2355D01*
X821006Y-2392D01*
X821076Y-2433D01*
X821145Y-2484D01*
X821210Y-2540D01*
X821270Y-2604D01*
X821274Y-2609D01*
X821284Y-2623D01*
X821297Y-2641D01*
X821321Y-2674D01*
X821344Y-2715D01*
X821371Y-2761D01*
X821399Y-2821D01*
X821427Y-2886D01*
X821455Y-2965D01*
X821487Y-3048D01*
X821510Y-3145D01*
X821533Y-3251D01*
X821556Y-3367D01*
X821570Y-3491D01*
X821579Y-3625D01*
X821584Y-3773D01*
Y-6905D01*
X820951D01*
Y-4027D01*
Y-4023D01*
Y-4004D01*
Y-3981D01*
Y-3949D01*
Y-3907D01*
X820946Y-3861D01*
Y-3810D01*
X820942Y-3755D01*
X820932Y-3644D01*
X820919Y-3528D01*
X820900Y-3422D01*
X820891Y-3376D01*
X820877Y-3334D01*
Y-3330D01*
X820872Y-3325D01*
X820863Y-3302D01*
X820845Y-3260D01*
X820821Y-3214D01*
X820789Y-3163D01*
X820752Y-3112D01*
X820701Y-3062D01*
X820646Y-3015D01*
X820637Y-3011D01*
X820618Y-2997D01*
X820586Y-2978D01*
X820540Y-2955D01*
X820489Y-2937D01*
X820424Y-2918D01*
X820360Y-2905D01*
X820286Y-2900D01*
X820244D01*
X820216Y-2905D01*
X820184Y-2909D01*
X820142Y-2918D01*
X820096Y-2928D01*
X820050Y-2942D01*
X819995Y-2960D01*
X819944Y-2978D01*
X819884Y-3006D01*
X819828Y-3039D01*
X819773Y-3076D01*
X819717Y-3122D01*
X819666Y-3168D01*
X819616Y-3228D01*
X819611Y-3233D01*
X819606Y-3242D01*
X819593Y-3260D01*
X819574Y-3288D01*
X819556Y-3325D01*
X819533Y-3367D01*
X819510Y-3417D01*
X819486Y-3478D01*
X819463Y-3542D01*
X819440Y-3621D01*
X819417Y-3704D01*
X819399Y-3796D01*
X819380Y-3898D01*
X819366Y-4004D01*
X819362Y-4124D01*
X819357Y-4249D01*
Y-6905D01*
X818724D01*
Y-3935D01*
Y-3930D01*
Y-3912D01*
Y-3879D01*
X818719Y-3842D01*
Y-3796D01*
X818715Y-3741D01*
X818710Y-3685D01*
X818701Y-3621D01*
X818682Y-3491D01*
X818650Y-3357D01*
X818632Y-3297D01*
X818609Y-3237D01*
X818581Y-3182D01*
X818548Y-3136D01*
Y-3131D01*
X818539Y-3126D01*
X818516Y-3099D01*
X818479Y-3062D01*
X818424Y-3015D01*
X818355Y-2974D01*
X818271Y-2937D01*
X818174Y-2909D01*
X818124Y-2905D01*
X818068Y-2900D01*
X818026D01*
X817994Y-2905D01*
X817962Y-2909D01*
X817916Y-2918D01*
X817869Y-2928D01*
X817819Y-2942D01*
X817763Y-2960D01*
X817708Y-2988D01*
X817652Y-3015D01*
X817597Y-3048D01*
X817537Y-3089D01*
X817481Y-3136D01*
X817430Y-3191D01*
X817380Y-3251D01*
X817375Y-3256D01*
X817370Y-3270D01*
X817356Y-3288D01*
X817343Y-3320D01*
X817324Y-3362D01*
X817301Y-3413D01*
X817278Y-3473D01*
X817255Y-3542D01*
X817232Y-3625D01*
X817209Y-3718D01*
X817190Y-3824D01*
X817167Y-3940D01*
X817153Y-4069D01*
X817139Y-4212D01*
X817135Y-4369D01*
X817130Y-4535D01*
Y-6905D01*
X816497D01*
Y-2336D01*
X817066D01*
Y-2969D01*
X817075Y-2960D01*
X817084Y-2942D01*
X817098Y-2914D01*
X817116Y-2886D01*
X817139Y-2854D01*
X817195Y-2775D01*
X817264Y-2688D01*
X817347Y-2595D01*
X817440Y-2507D01*
X817546Y-2429D01*
X817551Y-2424D01*
X817560Y-2420D01*
X817578Y-2410D01*
X817597Y-2396D01*
X817624Y-2382D01*
X817661Y-2369D01*
X817698Y-2350D01*
X817740Y-2332D01*
X817837Y-2295D01*
X817948Y-2267D01*
X818068Y-2244D01*
X818197Y-2235D01*
X818234D01*
X818262Y-2239D01*
X818299D01*
X818336Y-2244D01*
X818382Y-2253D01*
X818428Y-2258D01*
X818535Y-2286D01*
X818645Y-2323D01*
X818761Y-2369D01*
X818816Y-2401D01*
X818867Y-2438D01*
X818872D01*
X818881Y-2447D01*
X818895Y-2461D01*
X818913Y-2475D01*
X818932Y-2498D01*
X818960Y-2521D01*
X819020Y-2586D01*
X819080Y-2674D01*
X819145Y-2775D01*
X819205Y-2891D01*
X819255Y-3029D01*
X819260Y-3025D01*
X819265Y-3011D01*
X819279Y-2992D01*
X819297Y-2965D01*
X819315Y-2932D01*
X819343Y-2891D01*
X819403Y-2808D01*
X819482Y-2710D01*
X819569Y-2609D01*
X819666Y-2517D01*
X819717Y-2475D01*
X819773Y-2433D01*
X819777Y-2429D01*
X819787Y-2424D01*
X819800Y-2415D01*
X819824Y-2401D01*
X819851Y-2387D01*
X819884Y-2369D01*
X819921Y-2350D01*
X819962Y-2332D01*
X820059Y-2299D01*
X820170Y-2267D01*
X820290Y-2244D01*
X820355Y-2235D01*
X820470D01*
X820507Y-2239D01*
D02*
G37*
G36*
X844453Y-2239D02*
X844481Y-2244D01*
X844518Y-2248D01*
X844555Y-2253D01*
X844601Y-2267D01*
X844698Y-2295D01*
X844809Y-2341D01*
X844864Y-2369D01*
X844924Y-2401D01*
X844989Y-2438D01*
X845049Y-2484D01*
X844832Y-3205D01*
X844827D01*
X844822Y-3196D01*
X844809Y-3191D01*
X844790Y-3177D01*
X844744Y-3149D01*
X844684Y-3117D01*
X844615Y-3089D01*
X844536Y-3062D01*
X844453Y-3043D01*
X844370Y-3034D01*
X844337D01*
X844296Y-3043D01*
X844245Y-3052D01*
X844189Y-3071D01*
X844125Y-3094D01*
X844060Y-3131D01*
X843995Y-3177D01*
X843986Y-3182D01*
X843968Y-3205D01*
X843940Y-3237D01*
X843903Y-3279D01*
X843866Y-3339D01*
X843829Y-3404D01*
X843792Y-3482D01*
X843764Y-3574D01*
Y-3579D01*
X843760Y-3593D01*
X843755Y-3621D01*
X843746Y-3653D01*
X843737Y-3695D01*
X843727Y-3741D01*
X843714Y-3796D01*
X843704Y-3856D01*
X843695Y-3926D01*
X843681Y-3999D01*
X843672Y-4078D01*
X843663Y-4161D01*
X843649Y-4332D01*
X843644Y-4517D01*
Y-6905D01*
X843011D01*
Y-2336D01*
X843584D01*
Y-3034D01*
X843589Y-3029D01*
X843594Y-3011D01*
X843607Y-2988D01*
X843621Y-2955D01*
X843640Y-2918D01*
X843663Y-2872D01*
X843714Y-2771D01*
X843778Y-2664D01*
X843843Y-2558D01*
X843880Y-2507D01*
X843912Y-2466D01*
X843949Y-2424D01*
X843982Y-2392D01*
X843991Y-2387D01*
X844014Y-2369D01*
X844051Y-2341D01*
X844102Y-2313D01*
X844166Y-2286D01*
X844236Y-2258D01*
X844314Y-2239D01*
X844397Y-2235D01*
X844430D01*
X844453Y-2239D01*
D02*
G37*
G36*
X858840D02*
X858881Y-2244D01*
X858932Y-2248D01*
X858983Y-2253D01*
X859098Y-2272D01*
X859223Y-2299D01*
X859348Y-2336D01*
X859468Y-2387D01*
X859472D01*
X859482Y-2392D01*
X859500Y-2401D01*
X859519Y-2415D01*
X859546Y-2429D01*
X859579Y-2447D01*
X859648Y-2493D01*
X859727Y-2554D01*
X859805Y-2623D01*
X859884Y-2701D01*
X859953Y-2794D01*
Y-2798D01*
X859962Y-2808D01*
X859971Y-2821D01*
X859981Y-2840D01*
X859995Y-2868D01*
X860008Y-2900D01*
X860027Y-2937D01*
X860045Y-2978D01*
X860064Y-3029D01*
X860087Y-3080D01*
X860105Y-3140D01*
X860124Y-3205D01*
X860142Y-3279D01*
X860161Y-3353D01*
X860175Y-3431D01*
X860189Y-3519D01*
X859569Y-3621D01*
Y-3611D01*
X859565Y-3588D01*
X859556Y-3551D01*
X859546Y-3505D01*
X859528Y-3445D01*
X859505Y-3385D01*
X859472Y-3316D01*
X859435Y-3246D01*
X859389Y-3177D01*
X859329Y-3108D01*
X859265Y-3048D01*
X859186Y-2988D01*
X859098Y-2942D01*
X858997Y-2905D01*
X858881Y-2881D01*
X858752Y-2872D01*
X858710D01*
X858682Y-2877D01*
X858650D01*
X858609Y-2881D01*
X858521Y-2891D01*
X858419Y-2914D01*
X858317Y-2942D01*
X858216Y-2983D01*
X858174Y-3011D01*
X858133Y-3039D01*
X858123Y-3048D01*
X858100Y-3066D01*
X858068Y-3103D01*
X858036Y-3154D01*
X857999Y-3214D01*
X857966Y-3288D01*
X857943Y-3371D01*
X857939Y-3417D01*
X857934Y-3464D01*
Y-3468D01*
Y-3473D01*
Y-3487D01*
X857939Y-3505D01*
X857943Y-3551D01*
X857957Y-3607D01*
X857980Y-3672D01*
X858017Y-3736D01*
X858063Y-3801D01*
X858128Y-3861D01*
X858133Y-3866D01*
X858142Y-3870D01*
X858156Y-3879D01*
X858174Y-3889D01*
X858197Y-3898D01*
X858225Y-3912D01*
X858257Y-3926D01*
X858299Y-3944D01*
X858350Y-3967D01*
X858405Y-3990D01*
X858470Y-4013D01*
X858544Y-4041D01*
X858627Y-4069D01*
X858719Y-4101D01*
X858821Y-4134D01*
X858826D01*
X858830Y-4138D01*
X858853Y-4143D01*
X858895Y-4157D01*
X858950Y-4175D01*
X859011Y-4194D01*
X859084Y-4221D01*
X859163Y-4249D01*
X859246Y-4277D01*
X859417Y-4341D01*
X859505Y-4374D01*
X859583Y-4406D01*
X859662Y-4438D01*
X859731Y-4471D01*
X859791Y-4503D01*
X859842Y-4531D01*
X859847D01*
X859851Y-4535D01*
X859879Y-4558D01*
X859921Y-4591D01*
X859976Y-4637D01*
X860032Y-4697D01*
X860091Y-4766D01*
X860152Y-4845D01*
X860202Y-4937D01*
Y-4942D01*
X860207Y-4947D01*
X860216Y-4965D01*
X860221Y-4984D01*
X860235Y-5007D01*
X860244Y-5034D01*
X860267Y-5108D01*
X860290Y-5196D01*
X860313Y-5302D01*
X860327Y-5418D01*
X860332Y-5547D01*
Y-5556D01*
Y-5575D01*
X860327Y-5612D01*
Y-5658D01*
X860318Y-5714D01*
X860309Y-5778D01*
X860295Y-5847D01*
X860281Y-5926D01*
X860258Y-6009D01*
X860230Y-6097D01*
X860198Y-6185D01*
X860156Y-6273D01*
X860110Y-6360D01*
X860055Y-6448D01*
X859990Y-6531D01*
X859916Y-6610D01*
X859911Y-6614D01*
X859898Y-6628D01*
X859874Y-6647D01*
X859842Y-6674D01*
X859796Y-6702D01*
X859745Y-6735D01*
X859685Y-6771D01*
X859620Y-6808D01*
X859542Y-6850D01*
X859454Y-6882D01*
X859362Y-6919D01*
X859260Y-6947D01*
X859154Y-6975D01*
X859034Y-6993D01*
X858913Y-7007D01*
X858780Y-7012D01*
X858747D01*
X858719Y-7007D01*
X858692D01*
X858655Y-7002D01*
X858613Y-6998D01*
X858567Y-6989D01*
X858461Y-6966D01*
X858341Y-6933D01*
X858211Y-6887D01*
X858077Y-6827D01*
X858008Y-6790D01*
X857943Y-6748D01*
X857874Y-6702D01*
X857805Y-6651D01*
X857740Y-6596D01*
X857675Y-6531D01*
X857611Y-6467D01*
X857551Y-6388D01*
X857495Y-6310D01*
X857440Y-6222D01*
X857393Y-6125D01*
X857347Y-6023D01*
X857306Y-5917D01*
X857269Y-5797D01*
X857241Y-5672D01*
X857218Y-5538D01*
X857851Y-5418D01*
Y-5423D01*
X857856Y-5441D01*
Y-5464D01*
X857865Y-5496D01*
X857869Y-5538D01*
X857883Y-5584D01*
X857892Y-5635D01*
X857911Y-5690D01*
X857948Y-5806D01*
X858003Y-5926D01*
X858068Y-6042D01*
X858110Y-6092D01*
X858151Y-6139D01*
X858156Y-6143D01*
X858165Y-6148D01*
X858179Y-6162D01*
X858197Y-6176D01*
X858220Y-6194D01*
X858253Y-6213D01*
X858290Y-6236D01*
X858327Y-6254D01*
X858373Y-6277D01*
X858424Y-6300D01*
X858479Y-6319D01*
X858539Y-6337D01*
X858669Y-6365D01*
X858743Y-6370D01*
X858816Y-6374D01*
X858858D01*
X858886Y-6370D01*
X858918D01*
X858960Y-6365D01*
X859052Y-6346D01*
X859154Y-6323D01*
X859260Y-6286D01*
X859362Y-6236D01*
X859408Y-6208D01*
X859454Y-6171D01*
X859459Y-6166D01*
X859463Y-6162D01*
X859491Y-6134D01*
X859528Y-6088D01*
X859569Y-6028D01*
X859611Y-5954D01*
X859643Y-5866D01*
X859671Y-5764D01*
X859676Y-5709D01*
X859680Y-5654D01*
Y-5649D01*
Y-5640D01*
Y-5626D01*
X859676Y-5607D01*
X859671Y-5561D01*
X859657Y-5496D01*
X859634Y-5432D01*
X859597Y-5362D01*
X859551Y-5293D01*
X859486Y-5233D01*
X859482Y-5228D01*
X859459Y-5215D01*
X859440Y-5205D01*
X859417Y-5192D01*
X859389Y-5178D01*
X859357Y-5159D01*
X859315Y-5141D01*
X859269Y-5122D01*
X859218Y-5104D01*
X859158Y-5081D01*
X859089Y-5053D01*
X859015Y-5030D01*
X858932Y-5002D01*
X858840Y-4974D01*
X858830Y-4970D01*
X858807Y-4965D01*
X858770Y-4951D01*
X858719Y-4937D01*
X858659Y-4919D01*
X858595Y-4896D01*
X858516Y-4868D01*
X858438Y-4840D01*
X858271Y-4780D01*
X858110Y-4716D01*
X858031Y-4683D01*
X857962Y-4651D01*
X857902Y-4623D01*
X857846Y-4591D01*
X857842D01*
X857837Y-4582D01*
X857823Y-4572D01*
X857805Y-4563D01*
X857758Y-4526D01*
X857703Y-4475D01*
X857643Y-4415D01*
X857578Y-4341D01*
X857514Y-4258D01*
X857458Y-4161D01*
Y-4157D01*
X857454Y-4147D01*
X857444Y-4134D01*
X857440Y-4115D01*
X857426Y-4087D01*
X857417Y-4060D01*
X857393Y-3986D01*
X857366Y-3893D01*
X857347Y-3792D01*
X857329Y-3681D01*
X857324Y-3556D01*
Y-3551D01*
Y-3528D01*
X857329Y-3501D01*
Y-3459D01*
X857338Y-3408D01*
X857343Y-3353D01*
X857356Y-3288D01*
X857370Y-3219D01*
X857389Y-3145D01*
X857417Y-3066D01*
X857444Y-2988D01*
X857481Y-2905D01*
X857523Y-2826D01*
X857574Y-2752D01*
X857634Y-2674D01*
X857698Y-2604D01*
X857703Y-2600D01*
X857717Y-2590D01*
X857735Y-2572D01*
X857768Y-2544D01*
X857805Y-2517D01*
X857851Y-2489D01*
X857906Y-2452D01*
X857966Y-2420D01*
X858040Y-2387D01*
X858114Y-2350D01*
X858202Y-2323D01*
X858294Y-2290D01*
X858391Y-2267D01*
X858498Y-2248D01*
X858613Y-2239D01*
X858733Y-2235D01*
X858803D01*
X858840Y-2239D01*
D02*
G37*
G36*
X852432Y-6905D02*
X851771D01*
Y-1625D01*
X850265Y-6905D01*
X849646D01*
X848153Y-1537D01*
Y-6905D01*
X847493D01*
Y-595D01*
X848523D01*
X849747Y-5067D01*
X849992Y-6000D01*
Y-5995D01*
X849997Y-5982D01*
X850002Y-5963D01*
X850011Y-5935D01*
X850020Y-5898D01*
X850029Y-5852D01*
X850048Y-5801D01*
X850062Y-5741D01*
X850080Y-5672D01*
X850099Y-5598D01*
X850122Y-5515D01*
X850149Y-5427D01*
X850177Y-5325D01*
X850205Y-5219D01*
X850237Y-5108D01*
X850269Y-4988D01*
X851508Y-595D01*
X852432D01*
Y-6905D01*
D02*
G37*
G36*
X861727Y-4203D02*
X863229Y-2336D01*
X864051D01*
X862619Y-4036D01*
X864194Y-6905D01*
X863413D01*
X862171Y-4568D01*
X861727Y-5094D01*
Y-6905D01*
X861094D01*
Y-595D01*
X861727D01*
Y-4203D01*
D02*
G37*
G36*
X855134Y-2239D02*
X855185D01*
X855241Y-2244D01*
X855305Y-2253D01*
X855375Y-2262D01*
X855522Y-2290D01*
X855675Y-2327D01*
X855827Y-2382D01*
X855897Y-2420D01*
X855961Y-2456D01*
X855966Y-2461D01*
X855975Y-2466D01*
X855994Y-2479D01*
X856017Y-2498D01*
X856072Y-2544D01*
X856141Y-2609D01*
X856215Y-2687D01*
X856285Y-2780D01*
X856345Y-2886D01*
X856368Y-2946D01*
X856386Y-3006D01*
Y-3011D01*
X856391Y-3020D01*
X856396Y-3039D01*
X856400Y-3066D01*
X856409Y-3103D01*
X856414Y-3145D01*
X856423Y-3191D01*
X856433Y-3246D01*
X856442Y-3311D01*
X856451Y-3385D01*
X856456Y-3464D01*
X856465Y-3547D01*
X856470Y-3639D01*
X856474Y-3741D01*
X856479Y-3847D01*
Y-3963D01*
Y-4993D01*
Y-4997D01*
Y-5007D01*
Y-5020D01*
Y-5039D01*
Y-5067D01*
Y-5094D01*
Y-5168D01*
Y-5252D01*
Y-5353D01*
X856483Y-5459D01*
Y-5570D01*
X856488Y-5806D01*
X856493Y-5917D01*
Y-6028D01*
X856497Y-6129D01*
X856502Y-6222D01*
X856511Y-6300D01*
Y-6333D01*
X856516Y-6360D01*
Y-6365D01*
Y-6374D01*
X856520Y-6388D01*
X856525Y-6407D01*
X856530Y-6434D01*
X856534Y-6462D01*
X856553Y-6536D01*
X856576Y-6619D01*
X856603Y-6707D01*
X856640Y-6808D01*
X856682Y-6905D01*
X856021D01*
Y-6901D01*
X856017Y-6896D01*
X856012Y-6882D01*
X856003Y-6864D01*
X855998Y-6841D01*
X855984Y-6813D01*
X855966Y-6748D01*
X855943Y-6665D01*
X855920Y-6573D01*
X855901Y-6467D01*
X855887Y-6346D01*
X855883Y-6351D01*
X855873Y-6360D01*
X855855Y-6379D01*
X855832Y-6402D01*
X855804Y-6430D01*
X855767Y-6462D01*
X855730Y-6494D01*
X855684Y-6531D01*
X855587Y-6614D01*
X855472Y-6698D01*
X855351Y-6776D01*
X855222Y-6845D01*
X855217D01*
X855208Y-6855D01*
X855190Y-6859D01*
X855162Y-6873D01*
X855130Y-6882D01*
X855093Y-6896D01*
X855051Y-6915D01*
X855005Y-6929D01*
X854894Y-6961D01*
X854774Y-6984D01*
X854645Y-7002D01*
X854506Y-7012D01*
X854478D01*
X854451Y-7007D01*
X854409D01*
X854358Y-7002D01*
X854303Y-6993D01*
X854238Y-6984D01*
X854169Y-6966D01*
X854095Y-6947D01*
X854021Y-6924D01*
X853942Y-6896D01*
X853864Y-6864D01*
X853790Y-6822D01*
X853711Y-6776D01*
X853642Y-6721D01*
X853573Y-6661D01*
X853568Y-6656D01*
X853559Y-6642D01*
X853540Y-6624D01*
X853517Y-6596D01*
X853494Y-6559D01*
X853462Y-6517D01*
X853434Y-6467D01*
X853402Y-6411D01*
X853369Y-6346D01*
X853337Y-6273D01*
X853305Y-6194D01*
X853282Y-6111D01*
X853259Y-6019D01*
X853240Y-5921D01*
X853231Y-5820D01*
X853226Y-5709D01*
Y-5704D01*
Y-5690D01*
Y-5672D01*
X853231Y-5640D01*
Y-5607D01*
X853236Y-5566D01*
X853240Y-5520D01*
X853245Y-5473D01*
X853268Y-5362D01*
X853296Y-5247D01*
X853333Y-5122D01*
X853388Y-5007D01*
Y-5002D01*
X853397Y-4993D01*
X853406Y-4979D01*
X853416Y-4956D01*
X853453Y-4900D01*
X853503Y-4831D01*
X853568Y-4757D01*
X853642Y-4679D01*
X853730Y-4600D01*
X853831Y-4531D01*
X853836D01*
X853845Y-4522D01*
X853864Y-4512D01*
X853887Y-4503D01*
X853915Y-4489D01*
X853952Y-4471D01*
X853998Y-4452D01*
X854049Y-4434D01*
X854104Y-4411D01*
X854169Y-4392D01*
X854238Y-4369D01*
X854317Y-4346D01*
X854400Y-4327D01*
X854492Y-4309D01*
X854589Y-4291D01*
X854695Y-4272D01*
X854705D01*
X854728Y-4267D01*
X854769Y-4263D01*
X854825Y-4254D01*
X854885Y-4240D01*
X854959Y-4231D01*
X855042Y-4212D01*
X855130Y-4198D01*
X855315Y-4157D01*
X855504Y-4110D01*
X855596Y-4087D01*
X855684Y-4060D01*
X855763Y-4032D01*
X855836Y-4004D01*
X855841Y-3810D01*
Y-3805D01*
Y-3792D01*
Y-3764D01*
X855836Y-3732D01*
Y-3695D01*
X855832Y-3653D01*
X855818Y-3551D01*
X855800Y-3441D01*
X855767Y-3334D01*
X855726Y-3233D01*
X855702Y-3186D01*
X855670Y-3149D01*
X855666Y-3145D01*
X855661Y-3136D01*
X855647Y-3122D01*
X855624Y-3108D01*
X855601Y-3085D01*
X855569Y-3062D01*
X855532Y-3039D01*
X855490Y-3011D01*
X855444Y-2983D01*
X855388Y-2960D01*
X855328Y-2937D01*
X855264Y-2914D01*
X855190Y-2900D01*
X855116Y-2886D01*
X855028Y-2877D01*
X854940Y-2872D01*
X854899D01*
X854866Y-2877D01*
X854829D01*
X854788Y-2881D01*
X854691Y-2895D01*
X854585Y-2918D01*
X854474Y-2951D01*
X854367Y-2997D01*
X854321Y-3025D01*
X854275Y-3057D01*
X854270D01*
X854266Y-3066D01*
X854257Y-3076D01*
X854238Y-3094D01*
X854220Y-3117D01*
X854201Y-3140D01*
X854178Y-3173D01*
X854155Y-3214D01*
X854127Y-3256D01*
X854104Y-3306D01*
X854076Y-3362D01*
X854049Y-3427D01*
X854025Y-3496D01*
X853998Y-3570D01*
X853975Y-3653D01*
X853956Y-3745D01*
X853333Y-3644D01*
Y-3635D01*
X853337Y-3611D01*
X853346Y-3574D01*
X853360Y-3524D01*
X853374Y-3464D01*
X853397Y-3394D01*
X853420Y-3316D01*
X853448Y-3233D01*
X853480Y-3149D01*
X853522Y-3057D01*
X853563Y-2969D01*
X853614Y-2881D01*
X853670Y-2794D01*
X853730Y-2715D01*
X853794Y-2641D01*
X853868Y-2572D01*
X853873Y-2567D01*
X853887Y-2558D01*
X853910Y-2540D01*
X853947Y-2521D01*
X853988Y-2493D01*
X854039Y-2466D01*
X854099Y-2433D01*
X854169Y-2401D01*
X854247Y-2373D01*
X854335Y-2341D01*
X854432Y-2313D01*
X854534Y-2286D01*
X854649Y-2267D01*
X854769Y-2248D01*
X854899Y-2239D01*
X855037Y-2235D01*
X855093D01*
X855134Y-2239D01*
D02*
G37*
G36*
X833975Y-6905D02*
X833342D01*
Y-595D01*
X833975D01*
Y-6905D01*
D02*
G37*
G36*
X801718Y-599D02*
X801769D01*
X801824Y-604D01*
X801889Y-609D01*
X801958Y-618D01*
X802110Y-641D01*
X802263Y-673D01*
X802415Y-719D01*
X802489Y-747D01*
X802554Y-779D01*
X802559D01*
X802568Y-789D01*
X802586Y-798D01*
X802610Y-816D01*
X802642Y-835D01*
X802674Y-858D01*
X802753Y-918D01*
X802845Y-1001D01*
X802891Y-1047D01*
X802938Y-1098D01*
X802984Y-1154D01*
X803030Y-1218D01*
X803076Y-1283D01*
X803118Y-1352D01*
X803122Y-1357D01*
X803127Y-1371D01*
X803136Y-1389D01*
X803155Y-1422D01*
X803168Y-1459D01*
X803187Y-1500D01*
X803210Y-1551D01*
X803229Y-1606D01*
X803252Y-1666D01*
X803270Y-1731D01*
X803307Y-1874D01*
X803330Y-2036D01*
X803335Y-2119D01*
X803339Y-2207D01*
Y-2212D01*
Y-2225D01*
Y-2248D01*
X803335Y-2281D01*
Y-2318D01*
X803330Y-2364D01*
X803326Y-2415D01*
X803316Y-2466D01*
X803293Y-2590D01*
X803261Y-2720D01*
X803215Y-2858D01*
X803150Y-2992D01*
Y-2997D01*
X803141Y-3006D01*
X803132Y-3025D01*
X803113Y-3048D01*
X803095Y-3080D01*
X803071Y-3112D01*
X803011Y-3191D01*
X802938Y-3279D01*
X802845Y-3376D01*
X802739Y-3468D01*
X802614Y-3551D01*
X802619D01*
X802633Y-3561D01*
X802656Y-3570D01*
X802688Y-3584D01*
X802725Y-3602D01*
X802771Y-3625D01*
X802822Y-3648D01*
X802873Y-3681D01*
X802928Y-3718D01*
X802988Y-3759D01*
X803044Y-3805D01*
X803104Y-3856D01*
X803164Y-3912D01*
X803219Y-3972D01*
X803275Y-4036D01*
X803326Y-4110D01*
X803330Y-4115D01*
X803335Y-4129D01*
X803349Y-4152D01*
X803367Y-4180D01*
X803386Y-4217D01*
X803409Y-4263D01*
X803432Y-4318D01*
X803460Y-4378D01*
X803483Y-4448D01*
X803506Y-4522D01*
X803529Y-4600D01*
X803547Y-4683D01*
X803566Y-4776D01*
X803580Y-4873D01*
X803584Y-4974D01*
X803589Y-5081D01*
Y-5085D01*
Y-5104D01*
Y-5136D01*
X803584Y-5178D01*
X803580Y-5229D01*
X803575Y-5284D01*
X803570Y-5349D01*
X803561Y-5423D01*
X803547Y-5496D01*
X803533Y-5580D01*
X803492Y-5746D01*
X803464Y-5834D01*
X803432Y-5922D01*
X803395Y-6005D01*
X803353Y-6088D01*
X803349Y-6092D01*
X803344Y-6106D01*
X803330Y-6129D01*
X803312Y-6157D01*
X803289Y-6194D01*
X803256Y-6236D01*
X803224Y-6277D01*
X803187Y-6328D01*
X803095Y-6430D01*
X802988Y-6531D01*
X802864Y-6628D01*
X802799Y-6674D01*
X802725Y-6712D01*
X802720D01*
X802707Y-6721D01*
X802683Y-6730D01*
X802656Y-6744D01*
X802614Y-6758D01*
X802568Y-6771D01*
X802508Y-6790D01*
X802448Y-6808D01*
X802374Y-6827D01*
X802291Y-6845D01*
X802203Y-6859D01*
X802110Y-6873D01*
X802004Y-6887D01*
X801893Y-6896D01*
X801778Y-6901D01*
X801653Y-6905D01*
X799685D01*
Y-595D01*
X801676D01*
X801718Y-599D01*
D02*
G37*
G36*
X811235Y-2336D02*
X811877D01*
Y-2937D01*
X811235D01*
Y-5612D01*
Y-5616D01*
Y-5626D01*
Y-5649D01*
Y-5672D01*
Y-5700D01*
X811240Y-5732D01*
X811244Y-5811D01*
X811249Y-5889D01*
X811258Y-5968D01*
X811272Y-6037D01*
X811281Y-6065D01*
X811290Y-6088D01*
X811295Y-6092D01*
X811304Y-6111D01*
X811327Y-6134D01*
X811360Y-6162D01*
X811401Y-6194D01*
X811452Y-6217D01*
X811517Y-6236D01*
X811595Y-6240D01*
X811637D01*
X811669Y-6236D01*
X811711D01*
X811757Y-6226D01*
X811817Y-6222D01*
X811877Y-6213D01*
X811965Y-6896D01*
X811960D01*
X811951Y-6901D01*
X811937D01*
X811919Y-6905D01*
X811873Y-6919D01*
X811808Y-6929D01*
X811734Y-6943D01*
X811656Y-6956D01*
X811572Y-6961D01*
X811489Y-6966D01*
X811434D01*
X811406Y-6961D01*
X811374Y-6956D01*
X811300Y-6947D01*
X811212Y-6933D01*
X811124Y-6910D01*
X811036Y-6878D01*
X810953Y-6836D01*
X810944Y-6832D01*
X810921Y-6813D01*
X810884Y-6785D01*
X810842Y-6744D01*
X810796Y-6693D01*
X810750Y-6633D01*
X810708Y-6559D01*
X810676Y-6481D01*
Y-6476D01*
X810671Y-6471D01*
Y-6453D01*
X810667Y-6434D01*
X810658Y-6407D01*
X810653Y-6370D01*
X810648Y-6328D01*
X810639Y-6282D01*
X810634Y-6222D01*
X810625Y-6157D01*
X810621Y-6083D01*
X810616Y-6000D01*
X810611Y-5908D01*
X810607Y-5806D01*
X810602Y-5690D01*
Y-5570D01*
Y-2937D01*
X810135D01*
Y-2336D01*
X810602D01*
Y-1204D01*
X811235Y-738D01*
Y-2336D01*
D02*
G37*
G36*
X809225D02*
X809867D01*
Y-2937D01*
X809225D01*
Y-5612D01*
Y-5616D01*
Y-5626D01*
Y-5649D01*
Y-5672D01*
Y-5700D01*
X809230Y-5732D01*
X809235Y-5811D01*
X809239Y-5889D01*
X809248Y-5968D01*
X809262Y-6037D01*
X809272Y-6065D01*
X809281Y-6088D01*
X809285Y-6092D01*
X809295Y-6111D01*
X809318Y-6134D01*
X809350Y-6162D01*
X809392Y-6194D01*
X809443Y-6217D01*
X809507Y-6236D01*
X809586Y-6240D01*
X809627D01*
X809660Y-6236D01*
X809701D01*
X809747Y-6226D01*
X809807Y-6222D01*
X809867Y-6213D01*
X809955Y-6896D01*
X809951D01*
X809941Y-6901D01*
X809928D01*
X809909Y-6905D01*
X809863Y-6919D01*
X809798Y-6929D01*
X809724Y-6943D01*
X809646Y-6956D01*
X809563Y-6961D01*
X809479Y-6966D01*
X809424D01*
X809396Y-6961D01*
X809364Y-6956D01*
X809290Y-6947D01*
X809202Y-6933D01*
X809114Y-6910D01*
X809027Y-6878D01*
X808943Y-6836D01*
X808934Y-6832D01*
X808911Y-6813D01*
X808874Y-6785D01*
X808833Y-6744D01*
X808786Y-6693D01*
X808740Y-6633D01*
X808699Y-6559D01*
X808666Y-6481D01*
Y-6476D01*
X808662Y-6471D01*
Y-6453D01*
X808657Y-6434D01*
X808648Y-6407D01*
X808643Y-6370D01*
X808639Y-6328D01*
X808629Y-6282D01*
X808625Y-6222D01*
X808615Y-6157D01*
X808611Y-6083D01*
X808606Y-6000D01*
X808602Y-5908D01*
X808597Y-5806D01*
X808592Y-5690D01*
Y-5570D01*
Y-2937D01*
X808126D01*
Y-2336D01*
X808592D01*
Y-1204D01*
X809225Y-738D01*
Y-2336D01*
D02*
G37*
G36*
X840595Y-2239D02*
X840646Y-2244D01*
X840711Y-2253D01*
X840780Y-2267D01*
X840863Y-2286D01*
X840951Y-2313D01*
X841043Y-2346D01*
X841140Y-2382D01*
X841242Y-2433D01*
X841344Y-2493D01*
X841445Y-2563D01*
X841547Y-2646D01*
X841644Y-2743D01*
X841736Y-2849D01*
X841741Y-2858D01*
X841759Y-2877D01*
X841782Y-2914D01*
X841810Y-2965D01*
X841847Y-3025D01*
X841889Y-3103D01*
X841935Y-3196D01*
X841981Y-3297D01*
X842023Y-3417D01*
X842069Y-3547D01*
X842111Y-3695D01*
X842148Y-3852D01*
X842175Y-4023D01*
X842203Y-4207D01*
X842217Y-4406D01*
X842221Y-4619D01*
Y-4822D01*
X839426D01*
Y-4831D01*
X839431Y-4854D01*
Y-4896D01*
X839435Y-4947D01*
X839445Y-5011D01*
X839454Y-5085D01*
X839468Y-5168D01*
X839486Y-5256D01*
X839528Y-5446D01*
X839556Y-5543D01*
X839588Y-5640D01*
X839630Y-5732D01*
X839671Y-5824D01*
X839722Y-5908D01*
X839777Y-5986D01*
X839782Y-5991D01*
X839791Y-6005D01*
X839810Y-6023D01*
X839833Y-6046D01*
X839865Y-6074D01*
X839902Y-6111D01*
X839944Y-6143D01*
X839995Y-6180D01*
X840050Y-6217D01*
X840105Y-6250D01*
X840170Y-6282D01*
X840239Y-6314D01*
X840313Y-6337D01*
X840387Y-6356D01*
X840470Y-6370D01*
X840554Y-6374D01*
X840586D01*
X840623Y-6370D01*
X840669Y-6360D01*
X840729Y-6346D01*
X840794Y-6323D01*
X840868Y-6296D01*
X840946Y-6259D01*
X841025Y-6208D01*
X841108Y-6143D01*
X841191Y-6069D01*
X841274Y-5977D01*
X841353Y-5871D01*
X841390Y-5811D01*
X841422Y-5746D01*
X841459Y-5677D01*
X841491Y-5603D01*
X841519Y-5520D01*
X841547Y-5436D01*
X842203Y-5533D01*
Y-5543D01*
X842194Y-5566D01*
X842184Y-5603D01*
X842171Y-5654D01*
X842152Y-5714D01*
X842129Y-5787D01*
X842101Y-5861D01*
X842064Y-5949D01*
X842027Y-6037D01*
X841986Y-6125D01*
X841935Y-6217D01*
X841879Y-6310D01*
X841819Y-6402D01*
X841755Y-6485D01*
X841685Y-6568D01*
X841607Y-6642D01*
X841602Y-6647D01*
X841588Y-6656D01*
X841565Y-6674D01*
X841533Y-6698D01*
X841491Y-6730D01*
X841441Y-6758D01*
X841381Y-6795D01*
X841316Y-6827D01*
X841242Y-6859D01*
X841163Y-6896D01*
X841076Y-6924D01*
X840983Y-6952D01*
X840882Y-6979D01*
X840775Y-6998D01*
X840664Y-7007D01*
X840549Y-7012D01*
X840512D01*
X840470Y-7007D01*
X840415Y-7002D01*
X840350Y-6993D01*
X840272Y-6979D01*
X840184Y-6961D01*
X840092Y-6938D01*
X839990Y-6905D01*
X839884Y-6864D01*
X839777Y-6818D01*
X839671Y-6758D01*
X839565Y-6688D01*
X839459Y-6610D01*
X839357Y-6517D01*
X839260Y-6411D01*
X839255Y-6402D01*
X839237Y-6383D01*
X839214Y-6346D01*
X839181Y-6300D01*
X839145Y-6236D01*
X839103Y-6157D01*
X839061Y-6069D01*
X839015Y-5968D01*
X838969Y-5847D01*
X838927Y-5718D01*
X838886Y-5575D01*
X838849Y-5418D01*
X838816Y-5252D01*
X838793Y-5067D01*
X838775Y-4873D01*
X838770Y-4665D01*
Y-4660D01*
Y-4651D01*
Y-4637D01*
Y-4614D01*
Y-4586D01*
X838775Y-4549D01*
Y-4512D01*
X838780Y-4471D01*
X838784Y-4369D01*
X838798Y-4258D01*
X838812Y-4134D01*
X838830Y-3995D01*
X838858Y-3852D01*
X838890Y-3704D01*
X838932Y-3551D01*
X838978Y-3404D01*
X839034Y-3256D01*
X839103Y-3117D01*
X839177Y-2983D01*
X839265Y-2858D01*
X839269Y-2849D01*
X839288Y-2831D01*
X839315Y-2803D01*
X839352Y-2761D01*
X839403Y-2715D01*
X839463Y-2660D01*
X839532Y-2604D01*
X839611Y-2544D01*
X839694Y-2489D01*
X839791Y-2433D01*
X839898Y-2378D01*
X840008Y-2332D01*
X840129Y-2290D01*
X840253Y-2262D01*
X840387Y-2239D01*
X840526Y-2235D01*
X840558D01*
X840595Y-2239D01*
D02*
G37*
G36*
X830930D02*
X830981Y-2244D01*
X831046Y-2253D01*
X831120Y-2267D01*
X831203Y-2286D01*
X831295Y-2309D01*
X831392Y-2341D01*
X831489Y-2382D01*
X831595Y-2433D01*
X831702Y-2489D01*
X831808Y-2558D01*
X831909Y-2641D01*
X832011Y-2734D01*
X832108Y-2840D01*
X832113Y-2844D01*
X832131Y-2868D01*
X832154Y-2905D01*
X832187Y-2951D01*
X832224Y-3015D01*
X832270Y-3089D01*
X832312Y-3177D01*
X832362Y-3283D01*
X832409Y-3399D01*
X832455Y-3528D01*
X832496Y-3672D01*
X832533Y-3824D01*
X832566Y-3995D01*
X832589Y-4175D01*
X832607Y-4369D01*
X832612Y-4577D01*
Y-4582D01*
Y-4591D01*
Y-4609D01*
Y-4632D01*
Y-4660D01*
X832607Y-4693D01*
Y-4734D01*
X832603Y-4780D01*
X832598Y-4882D01*
X832584Y-4997D01*
X832570Y-5127D01*
X832552Y-5270D01*
X832524Y-5418D01*
X832492Y-5566D01*
X832450Y-5718D01*
X832399Y-5871D01*
X832344Y-6019D01*
X832279Y-6162D01*
X832201Y-6291D01*
X832113Y-6411D01*
X832108Y-6416D01*
X832090Y-6439D01*
X832062Y-6467D01*
X832025Y-6504D01*
X831974Y-6550D01*
X831914Y-6601D01*
X831849Y-6656D01*
X831771Y-6712D01*
X831683Y-6767D01*
X831591Y-6822D01*
X831485Y-6873D01*
X831374Y-6919D01*
X831254Y-6956D01*
X831129Y-6984D01*
X830995Y-7007D01*
X830856Y-7012D01*
X830824D01*
X830782Y-7007D01*
X830731Y-7002D01*
X830667Y-6993D01*
X830593Y-6979D01*
X830510Y-6961D01*
X830417Y-6938D01*
X830320Y-6905D01*
X830219Y-6864D01*
X830112Y-6818D01*
X830011Y-6758D01*
X829904Y-6688D01*
X829798Y-6610D01*
X829697Y-6517D01*
X829599Y-6411D01*
X829595Y-6402D01*
X829576Y-6383D01*
X829553Y-6346D01*
X829521Y-6296D01*
X829484Y-6236D01*
X829443Y-6157D01*
X829396Y-6065D01*
X829350Y-5958D01*
X829304Y-5843D01*
X829258Y-5709D01*
X829216Y-5561D01*
X829179Y-5399D01*
X829147Y-5228D01*
X829124Y-5039D01*
X829105Y-4840D01*
X829101Y-4623D01*
Y-4619D01*
Y-4609D01*
Y-4595D01*
Y-4572D01*
Y-4545D01*
X829105Y-4508D01*
Y-4471D01*
X829110Y-4429D01*
X829114Y-4332D01*
X829128Y-4217D01*
X829142Y-4092D01*
X829161Y-3958D01*
X829188Y-3815D01*
X829221Y-3667D01*
X829262Y-3519D01*
X829309Y-3371D01*
X829364Y-3228D01*
X829433Y-3089D01*
X829507Y-2960D01*
X829595Y-2840D01*
X829599Y-2831D01*
X829618Y-2812D01*
X829646Y-2785D01*
X829683Y-2743D01*
X829733Y-2701D01*
X829794Y-2651D01*
X829863Y-2595D01*
X829941Y-2535D01*
X830025Y-2479D01*
X830122Y-2424D01*
X830228Y-2373D01*
X830339Y-2327D01*
X830459Y-2290D01*
X830584Y-2262D01*
X830718Y-2239D01*
X830856Y-2235D01*
X830888D01*
X830930Y-2239D01*
D02*
G37*
G36*
X814062Y-2239D02*
X814113Y-2244D01*
X814178Y-2253D01*
X814252Y-2267D01*
X814335Y-2286D01*
X814427Y-2309D01*
X814524Y-2341D01*
X814622Y-2382D01*
X814728Y-2433D01*
X814834Y-2489D01*
X814940Y-2558D01*
X815042Y-2641D01*
X815144Y-2734D01*
X815241Y-2840D01*
X815245Y-2844D01*
X815264Y-2868D01*
X815287Y-2905D01*
X815319Y-2951D01*
X815356Y-3015D01*
X815402Y-3089D01*
X815444Y-3177D01*
X815495Y-3283D01*
X815541Y-3399D01*
X815587Y-3528D01*
X815629Y-3672D01*
X815666Y-3824D01*
X815698Y-3995D01*
X815721Y-4175D01*
X815740Y-4369D01*
X815744Y-4577D01*
Y-4582D01*
Y-4591D01*
Y-4609D01*
Y-4632D01*
Y-4660D01*
X815740Y-4693D01*
Y-4734D01*
X815735Y-4780D01*
X815730Y-4882D01*
X815716Y-4997D01*
X815703Y-5127D01*
X815684Y-5270D01*
X815656Y-5418D01*
X815624Y-5566D01*
X815582Y-5718D01*
X815532Y-5871D01*
X815476Y-6019D01*
X815411Y-6162D01*
X815333Y-6291D01*
X815245Y-6411D01*
X815241Y-6416D01*
X815222Y-6439D01*
X815194Y-6467D01*
X815157Y-6504D01*
X815107Y-6550D01*
X815047Y-6601D01*
X814982Y-6656D01*
X814903Y-6712D01*
X814816Y-6767D01*
X814723Y-6822D01*
X814617Y-6873D01*
X814506Y-6919D01*
X814386Y-6956D01*
X814261Y-6984D01*
X814127Y-7007D01*
X813989Y-7012D01*
X813956D01*
X813915Y-7007D01*
X813864Y-7002D01*
X813799Y-6993D01*
X813725Y-6979D01*
X813642Y-6961D01*
X813550Y-6938D01*
X813453Y-6905D01*
X813351Y-6864D01*
X813245Y-6818D01*
X813143Y-6758D01*
X813037Y-6688D01*
X812931Y-6610D01*
X812829Y-6517D01*
X812732Y-6411D01*
X812727Y-6402D01*
X812709Y-6383D01*
X812686Y-6346D01*
X812653Y-6296D01*
X812616Y-6236D01*
X812575Y-6157D01*
X812529Y-6065D01*
X812482Y-5958D01*
X812436Y-5843D01*
X812390Y-5709D01*
X812348Y-5561D01*
X812311Y-5399D01*
X812279Y-5229D01*
X812256Y-5039D01*
X812238Y-4840D01*
X812233Y-4623D01*
Y-4619D01*
Y-4609D01*
Y-4595D01*
Y-4572D01*
Y-4545D01*
X812238Y-4508D01*
Y-4471D01*
X812242Y-4429D01*
X812247Y-4332D01*
X812261Y-4217D01*
X812274Y-4092D01*
X812293Y-3958D01*
X812321Y-3815D01*
X812353Y-3667D01*
X812395Y-3519D01*
X812441Y-3371D01*
X812496Y-3228D01*
X812566Y-3089D01*
X812640Y-2960D01*
X812727Y-2840D01*
X812732Y-2831D01*
X812750Y-2812D01*
X812778Y-2785D01*
X812815Y-2743D01*
X812866Y-2701D01*
X812926Y-2651D01*
X812995Y-2595D01*
X813074Y-2535D01*
X813157Y-2480D01*
X813254Y-2424D01*
X813360Y-2373D01*
X813471Y-2327D01*
X813591Y-2290D01*
X813716Y-2262D01*
X813850Y-2239D01*
X813989Y-2235D01*
X814021D01*
X814062Y-2239D01*
D02*
G37*
G36*
X806024D02*
X806075Y-2244D01*
X806139Y-2253D01*
X806213Y-2267D01*
X806296Y-2286D01*
X806389Y-2309D01*
X806486Y-2341D01*
X806583Y-2382D01*
X806689Y-2433D01*
X806795Y-2489D01*
X806901Y-2558D01*
X807003Y-2641D01*
X807105Y-2734D01*
X807202Y-2840D01*
X807206Y-2844D01*
X807225Y-2868D01*
X807248Y-2905D01*
X807280Y-2951D01*
X807317Y-3015D01*
X807364Y-3089D01*
X807405Y-3177D01*
X807456Y-3283D01*
X807502Y-3399D01*
X807548Y-3528D01*
X807590Y-3672D01*
X807627Y-3824D01*
X807659Y-3995D01*
X807682Y-4175D01*
X807701Y-4369D01*
X807705Y-4577D01*
Y-4582D01*
Y-4591D01*
Y-4609D01*
Y-4632D01*
Y-4660D01*
X807701Y-4693D01*
Y-4734D01*
X807696Y-4780D01*
X807691Y-4882D01*
X807678Y-4997D01*
X807664Y-5127D01*
X807645Y-5270D01*
X807618Y-5418D01*
X807585Y-5566D01*
X807544Y-5718D01*
X807493Y-5871D01*
X807437Y-6019D01*
X807373Y-6162D01*
X807294Y-6291D01*
X807206Y-6411D01*
X807202Y-6416D01*
X807183Y-6439D01*
X807156Y-6467D01*
X807119Y-6504D01*
X807068Y-6550D01*
X807008Y-6601D01*
X806943Y-6656D01*
X806864Y-6712D01*
X806777Y-6767D01*
X806684Y-6822D01*
X806578Y-6873D01*
X806467Y-6919D01*
X806347Y-6956D01*
X806222Y-6984D01*
X806088Y-7007D01*
X805950Y-7012D01*
X805917D01*
X805876Y-7007D01*
X805825Y-7002D01*
X805760Y-6993D01*
X805686Y-6979D01*
X805603Y-6961D01*
X805511Y-6938D01*
X805414Y-6905D01*
X805312Y-6864D01*
X805206Y-6818D01*
X805104Y-6758D01*
X804998Y-6688D01*
X804892Y-6610D01*
X804790Y-6517D01*
X804693Y-6411D01*
X804688Y-6402D01*
X804670Y-6383D01*
X804647Y-6346D01*
X804615Y-6296D01*
X804578Y-6236D01*
X804536Y-6157D01*
X804490Y-6065D01*
X804444Y-5958D01*
X804397Y-5843D01*
X804351Y-5709D01*
X804310Y-5561D01*
X804273Y-5399D01*
X804240Y-5229D01*
X804217Y-5039D01*
X804199Y-4840D01*
X804194Y-4623D01*
Y-4619D01*
Y-4609D01*
Y-4595D01*
Y-4572D01*
Y-4545D01*
X804199Y-4508D01*
Y-4471D01*
X804203Y-4429D01*
X804208Y-4332D01*
X804222Y-4217D01*
X804236Y-4092D01*
X804254Y-3958D01*
X804282Y-3815D01*
X804314Y-3667D01*
X804356Y-3519D01*
X804402Y-3371D01*
X804457Y-3228D01*
X804527Y-3089D01*
X804601Y-2960D01*
X804688Y-2840D01*
X804693Y-2831D01*
X804712Y-2812D01*
X804739Y-2785D01*
X804776Y-2743D01*
X804827Y-2701D01*
X804887Y-2651D01*
X804957Y-2595D01*
X805035Y-2535D01*
X805118Y-2480D01*
X805215Y-2424D01*
X805321Y-2373D01*
X805432Y-2327D01*
X805552Y-2290D01*
X805677Y-2262D01*
X805811Y-2239D01*
X805950Y-2235D01*
X805982D01*
X806024Y-2239D01*
D02*
G37*
G36*
X814312Y-11486D02*
X813679D01*
Y-10595D01*
X814312D01*
Y-11486D01*
D02*
G37*
G36*
X875116Y-10488D02*
X875167D01*
X875222Y-10498D01*
X875291Y-10502D01*
X875361Y-10511D01*
X875439Y-10525D01*
X875518Y-10539D01*
X875689Y-10581D01*
X875772Y-10608D01*
X875860Y-10636D01*
X875943Y-10673D01*
X876026Y-10715D01*
X876031Y-10719D01*
X876044Y-10724D01*
X876068Y-10738D01*
X876100Y-10756D01*
X876132Y-10779D01*
X876174Y-10807D01*
X876225Y-10844D01*
X876271Y-10881D01*
X876326Y-10927D01*
X876382Y-10973D01*
X876437Y-11029D01*
X876493Y-11089D01*
X876548Y-11149D01*
X876599Y-11218D01*
X876650Y-11292D01*
X876696Y-11371D01*
X876700Y-11375D01*
X876705Y-11389D01*
X876719Y-11412D01*
X876733Y-11445D01*
X876751Y-11486D01*
X876774Y-11537D01*
X876797Y-11592D01*
X876821Y-11653D01*
X876844Y-11727D01*
X876867Y-11800D01*
X876885Y-11884D01*
X876908Y-11971D01*
X876922Y-12064D01*
X876936Y-12161D01*
X876950Y-12262D01*
X876954Y-12369D01*
X876294Y-12429D01*
Y-12420D01*
X876289Y-12401D01*
X876285Y-12369D01*
X876280Y-12327D01*
X876271Y-12276D01*
X876262Y-12221D01*
X876243Y-12156D01*
X876229Y-12082D01*
X876178Y-11934D01*
X876151Y-11861D01*
X876114Y-11787D01*
X876077Y-11713D01*
X876031Y-11643D01*
X875980Y-11579D01*
X875924Y-11519D01*
X875920Y-11514D01*
X875910Y-11505D01*
X875892Y-11491D01*
X875864Y-11472D01*
X875836Y-11449D01*
X875795Y-11422D01*
X875749Y-11399D01*
X875698Y-11366D01*
X875638Y-11338D01*
X875573Y-11315D01*
X875499Y-11288D01*
X875421Y-11265D01*
X875333Y-11246D01*
X875245Y-11232D01*
X875144Y-11223D01*
X875042Y-11218D01*
X874986D01*
X874945Y-11223D01*
X874899Y-11227D01*
X874843Y-11232D01*
X874778Y-11241D01*
X874714Y-11251D01*
X874571Y-11283D01*
X874497Y-11301D01*
X874423Y-11329D01*
X874349Y-11361D01*
X874280Y-11394D01*
X874215Y-11435D01*
X874155Y-11482D01*
X874150Y-11486D01*
X874141Y-11496D01*
X874127Y-11509D01*
X874109Y-11528D01*
X874086Y-11556D01*
X874058Y-11583D01*
X874035Y-11620D01*
X874007Y-11662D01*
X873975Y-11708D01*
X873952Y-11759D01*
X873901Y-11874D01*
X873882Y-11939D01*
X873868Y-12008D01*
X873859Y-12078D01*
X873855Y-12156D01*
Y-12161D01*
Y-12175D01*
Y-12193D01*
X873859Y-12221D01*
Y-12253D01*
X873868Y-12290D01*
X873882Y-12373D01*
X873910Y-12470D01*
X873947Y-12567D01*
X874002Y-12664D01*
X874039Y-12706D01*
X874076Y-12747D01*
X874081D01*
X874086Y-12757D01*
X874104Y-12771D01*
X874123Y-12785D01*
X874150Y-12803D01*
X874187Y-12826D01*
X874233Y-12854D01*
X874284Y-12881D01*
X874349Y-12914D01*
X874418Y-12946D01*
X874501Y-12983D01*
X874594Y-13020D01*
X874700Y-13057D01*
X874815Y-13094D01*
X874945Y-13136D01*
X875083Y-13177D01*
X875093D01*
X875116Y-13186D01*
X875157Y-13196D01*
X875208Y-13214D01*
X875268Y-13228D01*
X875342Y-13251D01*
X875421Y-13274D01*
X875504Y-13302D01*
X875679Y-13357D01*
X875860Y-13417D01*
X875943Y-13450D01*
X876021Y-13482D01*
X876091Y-13510D01*
X876155Y-13542D01*
X876160Y-13547D01*
X876178Y-13551D01*
X876202Y-13565D01*
X876234Y-13588D01*
X876271Y-13611D01*
X876317Y-13639D01*
X876368Y-13676D01*
X876423Y-13713D01*
X876534Y-13805D01*
X876654Y-13916D01*
X876765Y-14041D01*
X876821Y-14106D01*
X876867Y-14180D01*
X876871Y-14184D01*
X876876Y-14198D01*
X876890Y-14221D01*
X876904Y-14249D01*
X876922Y-14286D01*
X876945Y-14332D01*
X876968Y-14383D01*
X876991Y-14443D01*
X877010Y-14508D01*
X877033Y-14582D01*
X877056Y-14660D01*
X877075Y-14739D01*
X877089Y-14827D01*
X877102Y-14919D01*
X877107Y-15016D01*
X877112Y-15118D01*
Y-15122D01*
Y-15141D01*
Y-15168D01*
X877107Y-15210D01*
X877102Y-15256D01*
X877098Y-15312D01*
X877089Y-15376D01*
X877079Y-15446D01*
X877065Y-15519D01*
X877052Y-15598D01*
X877005Y-15764D01*
X876978Y-15847D01*
X876941Y-15935D01*
X876904Y-16023D01*
X876857Y-16106D01*
X876853Y-16111D01*
X876844Y-16125D01*
X876830Y-16148D01*
X876811Y-16180D01*
X876784Y-16217D01*
X876756Y-16259D01*
X876719Y-16305D01*
X876677Y-16356D01*
X876626Y-16411D01*
X876576Y-16467D01*
X876520Y-16522D01*
X876460Y-16578D01*
X876391Y-16633D01*
X876322Y-16684D01*
X876243Y-16735D01*
X876165Y-16781D01*
X876160Y-16785D01*
X876146Y-16790D01*
X876118Y-16804D01*
X876086Y-16818D01*
X876044Y-16836D01*
X875994Y-16855D01*
X875938Y-16873D01*
X875869Y-16896D01*
X875799Y-16919D01*
X875716Y-16938D01*
X875633Y-16956D01*
X875541Y-16975D01*
X875439Y-16989D01*
X875338Y-17003D01*
X875227Y-17007D01*
X875116Y-17012D01*
X875074D01*
X875051Y-17007D01*
X875023D01*
X874959Y-17003D01*
X874876Y-16993D01*
X874783Y-16979D01*
X874677Y-16966D01*
X874566Y-16938D01*
X874446Y-16910D01*
X874321Y-16873D01*
X874192Y-16827D01*
X874062Y-16771D01*
X873938Y-16702D01*
X873813Y-16628D01*
X873693Y-16541D01*
X873582Y-16439D01*
X873577Y-16434D01*
X873559Y-16411D01*
X873531Y-16379D01*
X873494Y-16333D01*
X873448Y-16273D01*
X873402Y-16203D01*
X873351Y-16120D01*
X873295Y-16028D01*
X873240Y-15921D01*
X873189Y-15801D01*
X873138Y-15672D01*
X873097Y-15533D01*
X873055Y-15385D01*
X873028Y-15224D01*
X873004Y-15053D01*
X872995Y-14873D01*
X873642Y-14803D01*
Y-14808D01*
X873647Y-14827D01*
Y-14854D01*
X873651Y-14891D01*
X873660Y-14933D01*
X873670Y-14984D01*
X873679Y-15039D01*
X873688Y-15099D01*
X873720Y-15233D01*
X873762Y-15367D01*
X873813Y-15496D01*
X873841Y-15561D01*
X873873Y-15617D01*
Y-15621D01*
X873882Y-15630D01*
X873892Y-15644D01*
X873905Y-15663D01*
X873952Y-15718D01*
X874007Y-15783D01*
X874081Y-15857D01*
X874173Y-15935D01*
X874275Y-16014D01*
X874395Y-16083D01*
X874400D01*
X874409Y-16092D01*
X874427Y-16097D01*
X874455Y-16111D01*
X874487Y-16125D01*
X874524Y-16139D01*
X874571Y-16152D01*
X874621Y-16171D01*
X874672Y-16189D01*
X874732Y-16203D01*
X874862Y-16231D01*
X875005Y-16250D01*
X875162Y-16259D01*
X875222D01*
X875264Y-16254D01*
X875314Y-16250D01*
X875375Y-16245D01*
X875439Y-16236D01*
X875508Y-16222D01*
X875661Y-16185D01*
X875739Y-16162D01*
X875818Y-16134D01*
X875897Y-16102D01*
X875970Y-16060D01*
X876044Y-16014D01*
X876109Y-15963D01*
X876114Y-15958D01*
X876123Y-15949D01*
X876141Y-15931D01*
X876165Y-15908D01*
X876188Y-15880D01*
X876215Y-15843D01*
X876248Y-15801D01*
X876280Y-15755D01*
X876312Y-15700D01*
X876345Y-15640D01*
X876372Y-15580D01*
X876396Y-15510D01*
X876419Y-15436D01*
X876437Y-15358D01*
X876446Y-15275D01*
X876451Y-15187D01*
Y-15182D01*
Y-15173D01*
Y-15159D01*
Y-15141D01*
X876446Y-15090D01*
X876437Y-15021D01*
X876419Y-14947D01*
X876400Y-14863D01*
X876368Y-14780D01*
X876326Y-14702D01*
Y-14697D01*
X876322Y-14693D01*
X876303Y-14665D01*
X876275Y-14628D01*
X876234Y-14582D01*
X876178Y-14526D01*
X876114Y-14471D01*
X876040Y-14411D01*
X875952Y-14360D01*
X875947D01*
X875938Y-14355D01*
X875924Y-14346D01*
X875901Y-14337D01*
X875869Y-14323D01*
X875832Y-14304D01*
X875786Y-14286D01*
X875726Y-14263D01*
X875661Y-14235D01*
X875587Y-14207D01*
X875499Y-14175D01*
X875402Y-14143D01*
X875291Y-14106D01*
X875171Y-14069D01*
X875037Y-14027D01*
X874889Y-13981D01*
X874880Y-13976D01*
X874857Y-13972D01*
X874820Y-13958D01*
X874769Y-13944D01*
X874709Y-13926D01*
X874640Y-13903D01*
X874566Y-13875D01*
X874487Y-13847D01*
X874312Y-13778D01*
X874141Y-13704D01*
X874058Y-13667D01*
X873979Y-13630D01*
X873910Y-13588D01*
X873845Y-13547D01*
X873841Y-13542D01*
X873831Y-13537D01*
X873818Y-13524D01*
X873794Y-13505D01*
X873767Y-13487D01*
X873739Y-13459D01*
X873670Y-13394D01*
X873591Y-13311D01*
X873513Y-13219D01*
X873434Y-13108D01*
X873365Y-12988D01*
Y-12983D01*
X873356Y-12974D01*
X873351Y-12955D01*
X873337Y-12928D01*
X873323Y-12895D01*
X873309Y-12858D01*
X873295Y-12817D01*
X873282Y-12766D01*
X873263Y-12710D01*
X873249Y-12655D01*
X873222Y-12526D01*
X873203Y-12378D01*
X873194Y-12225D01*
Y-12216D01*
Y-12193D01*
X873199Y-12151D01*
X873203Y-12096D01*
X873208Y-12031D01*
X873222Y-11958D01*
X873235Y-11874D01*
X873254Y-11782D01*
X873282Y-11685D01*
X873314Y-11583D01*
X873351Y-11477D01*
X873402Y-11375D01*
X873457Y-11269D01*
X873522Y-11168D01*
X873596Y-11066D01*
X873684Y-10973D01*
X873688Y-10969D01*
X873707Y-10950D01*
X873734Y-10927D01*
X873776Y-10895D01*
X873822Y-10858D01*
X873882Y-10816D01*
X873956Y-10775D01*
X874035Y-10729D01*
X874127Y-10682D01*
X874229Y-10641D01*
X874335Y-10599D01*
X874455Y-10562D01*
X874584Y-10530D01*
X874718Y-10507D01*
X874866Y-10488D01*
X875019Y-10484D01*
X875074D01*
X875116Y-10488D01*
D02*
G37*
G36*
X865312D02*
X865358D01*
X865418Y-10493D01*
X865483Y-10502D01*
X865552Y-10511D01*
X865626Y-10521D01*
X865709Y-10535D01*
X865876Y-10571D01*
X866042Y-10627D01*
X866125Y-10659D01*
X866208Y-10696D01*
X866213Y-10701D01*
X866227Y-10706D01*
X866250Y-10719D01*
X866278Y-10733D01*
X866315Y-10756D01*
X866356Y-10784D01*
X866403Y-10816D01*
X866458Y-10849D01*
X866569Y-10937D01*
X866684Y-11038D01*
X866800Y-11158D01*
X866911Y-11297D01*
X866915Y-11301D01*
X866924Y-11315D01*
X866938Y-11338D01*
X866957Y-11366D01*
X866980Y-11408D01*
X867008Y-11454D01*
X867035Y-11509D01*
X867068Y-11574D01*
X867100Y-11643D01*
X867132Y-11722D01*
X867169Y-11810D01*
X867202Y-11907D01*
X867239Y-12008D01*
X867271Y-12115D01*
X867299Y-12230D01*
X867327Y-12355D01*
X866712Y-12563D01*
Y-12558D01*
X866707Y-12540D01*
X866698Y-12512D01*
X866689Y-12475D01*
X866680Y-12433D01*
X866661Y-12382D01*
X866647Y-12323D01*
X866624Y-12262D01*
X866583Y-12133D01*
X866527Y-12004D01*
X866467Y-11879D01*
X866435Y-11819D01*
X866398Y-11768D01*
Y-11763D01*
X866389Y-11754D01*
X866379Y-11740D01*
X866366Y-11727D01*
X866319Y-11676D01*
X866264Y-11616D01*
X866190Y-11551D01*
X866107Y-11482D01*
X866005Y-11412D01*
X865894Y-11352D01*
X865890D01*
X865880Y-11348D01*
X865862Y-11338D01*
X865839Y-11329D01*
X865811Y-11315D01*
X865774Y-11306D01*
X865737Y-11292D01*
X865691Y-11274D01*
X865589Y-11246D01*
X865469Y-11223D01*
X865340Y-11204D01*
X865201Y-11200D01*
X865146D01*
X865109Y-11204D01*
X865058Y-11209D01*
X865003Y-11214D01*
X864938Y-11223D01*
X864869Y-11232D01*
X864795Y-11251D01*
X864716Y-11269D01*
X864638Y-11288D01*
X864555Y-11315D01*
X864471Y-11348D01*
X864388Y-11385D01*
X864310Y-11426D01*
X864231Y-11477D01*
X864226Y-11482D01*
X864213Y-11491D01*
X864194Y-11505D01*
X864162Y-11528D01*
X864129Y-11556D01*
X864088Y-11592D01*
X864046Y-11634D01*
X863995Y-11685D01*
X863945Y-11740D01*
X863894Y-11805D01*
X863838Y-11874D01*
X863783Y-11948D01*
X863727Y-12036D01*
X863677Y-12124D01*
X863626Y-12221D01*
X863575Y-12327D01*
X863570Y-12332D01*
X863566Y-12355D01*
X863552Y-12387D01*
X863538Y-12429D01*
X863520Y-12484D01*
X863496Y-12553D01*
X863473Y-12632D01*
X863455Y-12720D01*
X863432Y-12817D01*
X863409Y-12923D01*
X863386Y-13039D01*
X863367Y-13163D01*
X863353Y-13293D01*
X863339Y-13436D01*
X863335Y-13579D01*
X863330Y-13732D01*
Y-13736D01*
Y-13745D01*
Y-13764D01*
Y-13787D01*
Y-13815D01*
X863335Y-13852D01*
Y-13893D01*
X863339Y-13939D01*
X863344Y-13990D01*
X863349Y-14046D01*
X863358Y-14166D01*
X863376Y-14300D01*
X863395Y-14443D01*
X863423Y-14595D01*
X863459Y-14753D01*
X863501Y-14910D01*
X863552Y-15067D01*
X863612Y-15219D01*
X863681Y-15367D01*
X863764Y-15506D01*
X863857Y-15630D01*
X863861Y-15635D01*
X863880Y-15658D01*
X863912Y-15690D01*
X863954Y-15727D01*
X864005Y-15778D01*
X864069Y-15829D01*
X864143Y-15885D01*
X864226Y-15945D01*
X864324Y-16005D01*
X864425Y-16060D01*
X864541Y-16111D01*
X864661Y-16162D01*
X864795Y-16199D01*
X864933Y-16231D01*
X865081Y-16250D01*
X865234Y-16259D01*
X865275D01*
X865303Y-16254D01*
X865340D01*
X865386Y-16250D01*
X865432Y-16245D01*
X865488Y-16236D01*
X865548Y-16226D01*
X865612Y-16213D01*
X865756Y-16180D01*
X865903Y-16134D01*
X866061Y-16069D01*
X866065Y-16065D01*
X866079Y-16060D01*
X866102Y-16051D01*
X866130Y-16032D01*
X866167Y-16014D01*
X866208Y-15995D01*
X866255Y-15968D01*
X866305Y-15940D01*
X866412Y-15871D01*
X866527Y-15792D01*
X866638Y-15704D01*
X866740Y-15607D01*
Y-14429D01*
X865220D01*
Y-13685D01*
X867410Y-13681D01*
Y-16028D01*
X867405Y-16032D01*
X867387Y-16051D01*
X867359Y-16074D01*
X867322Y-16106D01*
X867276Y-16148D01*
X867220Y-16194D01*
X867160Y-16250D01*
X867091Y-16305D01*
X867017Y-16360D01*
X866934Y-16425D01*
X866846Y-16485D01*
X866758Y-16545D01*
X866564Y-16665D01*
X866467Y-16716D01*
X866366Y-16767D01*
X866361Y-16771D01*
X866342Y-16776D01*
X866315Y-16790D01*
X866273Y-16804D01*
X866222Y-16822D01*
X866167Y-16845D01*
X866102Y-16869D01*
X866028Y-16887D01*
X865945Y-16910D01*
X865862Y-16933D01*
X865769Y-16956D01*
X865672Y-16975D01*
X865474Y-17003D01*
X865368Y-17007D01*
X865261Y-17012D01*
X865229D01*
X865187Y-17007D01*
X865132D01*
X865067Y-16998D01*
X864989Y-16993D01*
X864906Y-16979D01*
X864809Y-16966D01*
X864707Y-16942D01*
X864596Y-16919D01*
X864485Y-16887D01*
X864370Y-16850D01*
X864254Y-16808D01*
X864139Y-16758D01*
X864023Y-16698D01*
X863908Y-16633D01*
X863903Y-16628D01*
X863880Y-16614D01*
X863852Y-16591D01*
X863811Y-16564D01*
X863760Y-16522D01*
X863704Y-16476D01*
X863640Y-16416D01*
X863570Y-16351D01*
X863496Y-16277D01*
X863418Y-16199D01*
X863339Y-16106D01*
X863261Y-16009D01*
X863187Y-15898D01*
X863108Y-15783D01*
X863039Y-15663D01*
X862970Y-15529D01*
X862965Y-15519D01*
X862956Y-15496D01*
X862938Y-15455D01*
X862914Y-15399D01*
X862891Y-15330D01*
X862859Y-15242D01*
X862831Y-15145D01*
X862799Y-15034D01*
X862766Y-14914D01*
X862734Y-14780D01*
X862702Y-14637D01*
X862679Y-14485D01*
X862656Y-14323D01*
X862637Y-14147D01*
X862628Y-13967D01*
X862623Y-13782D01*
Y-13778D01*
Y-13769D01*
Y-13755D01*
Y-13736D01*
Y-13713D01*
X862628Y-13681D01*
Y-13648D01*
Y-13607D01*
X862632Y-13519D01*
X862642Y-13413D01*
X862651Y-13297D01*
X862665Y-13168D01*
X862683Y-13034D01*
X862706Y-12886D01*
X862734Y-12738D01*
X862771Y-12586D01*
X862808Y-12433D01*
X862854Y-12276D01*
X862910Y-12128D01*
X862970Y-11981D01*
X862974Y-11971D01*
X862984Y-11948D01*
X863007Y-11907D01*
X863035Y-11856D01*
X863067Y-11791D01*
X863108Y-11717D01*
X863159Y-11639D01*
X863215Y-11551D01*
X863275Y-11458D01*
X863344Y-11366D01*
X863418Y-11274D01*
X863501Y-11181D01*
X863589Y-11089D01*
X863681Y-11001D01*
X863778Y-10923D01*
X863880Y-10849D01*
X863885Y-10844D01*
X863908Y-10835D01*
X863935Y-10816D01*
X863982Y-10793D01*
X864032Y-10766D01*
X864097Y-10733D01*
X864176Y-10701D01*
X864259Y-10664D01*
X864351Y-10632D01*
X864453Y-10599D01*
X864564Y-10567D01*
X864679Y-10539D01*
X864804Y-10516D01*
X864938Y-10498D01*
X865072Y-10488D01*
X865215Y-10484D01*
X865271D01*
X865312Y-10488D01*
D02*
G37*
G36*
X846463Y-12239D02*
X846490Y-12244D01*
X846527Y-12248D01*
X846564Y-12253D01*
X846610Y-12267D01*
X846707Y-12295D01*
X846818Y-12341D01*
X846874Y-12369D01*
X846934Y-12401D01*
X846999Y-12438D01*
X847058Y-12484D01*
X846841Y-13205D01*
X846837D01*
X846832Y-13196D01*
X846818Y-13191D01*
X846800Y-13177D01*
X846754Y-13149D01*
X846694Y-13117D01*
X846624Y-13089D01*
X846546Y-13062D01*
X846463Y-13043D01*
X846379Y-13034D01*
X846347D01*
X846305Y-13043D01*
X846255Y-13052D01*
X846199Y-13071D01*
X846134Y-13094D01*
X846070Y-13131D01*
X846005Y-13177D01*
X845996Y-13182D01*
X845977Y-13205D01*
X845950Y-13237D01*
X845913Y-13279D01*
X845876Y-13339D01*
X845839Y-13404D01*
X845802Y-13482D01*
X845774Y-13575D01*
Y-13579D01*
X845770Y-13593D01*
X845765Y-13621D01*
X845756Y-13653D01*
X845746Y-13695D01*
X845737Y-13741D01*
X845723Y-13796D01*
X845714Y-13856D01*
X845705Y-13926D01*
X845691Y-13999D01*
X845682Y-14078D01*
X845673Y-14161D01*
X845659Y-14332D01*
X845654Y-14517D01*
Y-16905D01*
X845021D01*
Y-12336D01*
X845594D01*
Y-13034D01*
X845599Y-13029D01*
X845603Y-13011D01*
X845617Y-12988D01*
X845631Y-12955D01*
X845649Y-12918D01*
X845673Y-12872D01*
X845723Y-12771D01*
X845788Y-12664D01*
X845853Y-12558D01*
X845890Y-12507D01*
X845922Y-12466D01*
X845959Y-12424D01*
X845991Y-12392D01*
X846000Y-12387D01*
X846024Y-12369D01*
X846061Y-12341D01*
X846111Y-12313D01*
X846176Y-12286D01*
X846245Y-12258D01*
X846324Y-12239D01*
X846407Y-12235D01*
X846439D01*
X846463Y-12239D01*
D02*
G37*
G36*
X828782D02*
X828810Y-12244D01*
X828846Y-12248D01*
X828883Y-12253D01*
X828930Y-12267D01*
X829027Y-12295D01*
X829138Y-12341D01*
X829193Y-12369D01*
X829253Y-12401D01*
X829318Y-12438D01*
X829378Y-12484D01*
X829161Y-13205D01*
X829156D01*
X829151Y-13196D01*
X829138Y-13191D01*
X829119Y-13177D01*
X829073Y-13149D01*
X829013Y-13117D01*
X828944Y-13089D01*
X828865Y-13062D01*
X828782Y-13043D01*
X828699Y-13034D01*
X828666D01*
X828625Y-13043D01*
X828574Y-13052D01*
X828518Y-13071D01*
X828454Y-13094D01*
X828389Y-13131D01*
X828324Y-13177D01*
X828315Y-13182D01*
X828297Y-13205D01*
X828269Y-13237D01*
X828232Y-13279D01*
X828195Y-13339D01*
X828158Y-13404D01*
X828121Y-13482D01*
X828093Y-13575D01*
Y-13579D01*
X828089Y-13593D01*
X828084Y-13621D01*
X828075Y-13653D01*
X828066Y-13695D01*
X828057Y-13741D01*
X828043Y-13796D01*
X828033Y-13856D01*
X828024Y-13926D01*
X828010Y-13999D01*
X828001Y-14078D01*
X827992Y-14161D01*
X827978Y-14332D01*
X827973Y-14517D01*
Y-16905D01*
X827340D01*
Y-12336D01*
X827913D01*
Y-13034D01*
X827918Y-13029D01*
X827923Y-13011D01*
X827936Y-12988D01*
X827950Y-12955D01*
X827969Y-12919D01*
X827992Y-12872D01*
X828043Y-12771D01*
X828107Y-12664D01*
X828172Y-12558D01*
X828209Y-12507D01*
X828241Y-12466D01*
X828278Y-12424D01*
X828311Y-12392D01*
X828320Y-12387D01*
X828343Y-12369D01*
X828380Y-12341D01*
X828431Y-12313D01*
X828495Y-12286D01*
X828565Y-12258D01*
X828643Y-12239D01*
X828726Y-12235D01*
X828759D01*
X828782Y-12239D01*
D02*
G37*
G36*
X853577Y-16905D02*
X852894D01*
Y-13930D01*
X850205D01*
Y-16905D01*
X849521D01*
Y-10595D01*
X850205D01*
Y-13186D01*
X852894D01*
Y-10595D01*
X853577D01*
Y-16905D01*
D02*
G37*
G36*
X835384Y-12239D02*
X835435Y-12244D01*
X835490Y-12253D01*
X835555Y-12267D01*
X835629Y-12281D01*
X835703Y-12299D01*
X835781Y-12323D01*
X835864Y-12355D01*
X835947Y-12387D01*
X836031Y-12429D01*
X836109Y-12479D01*
X836188Y-12535D01*
X836266Y-12600D01*
X836271Y-12604D01*
X836285Y-12618D01*
X836303Y-12637D01*
X836331Y-12669D01*
X836363Y-12706D01*
X836400Y-12752D01*
X836437Y-12808D01*
X836479Y-12868D01*
X836525Y-12942D01*
X836567Y-13020D01*
X836608Y-13113D01*
X836650Y-13209D01*
X836691Y-13311D01*
X836724Y-13427D01*
X836756Y-13551D01*
X836779Y-13681D01*
X836165Y-13792D01*
Y-13787D01*
X836160Y-13773D01*
X836155Y-13750D01*
X836146Y-13718D01*
X836137Y-13676D01*
X836123Y-13634D01*
X836109Y-13588D01*
X836091Y-13533D01*
X836044Y-13422D01*
X835989Y-13307D01*
X835924Y-13200D01*
X835887Y-13149D01*
X835846Y-13103D01*
X835841Y-13099D01*
X835837Y-13094D01*
X835823Y-13080D01*
X835804Y-13066D01*
X835758Y-13029D01*
X835698Y-12988D01*
X835619Y-12946D01*
X835527Y-12909D01*
X835425Y-12881D01*
X835370Y-12877D01*
X835310Y-12872D01*
X835291D01*
X835264Y-12877D01*
X835231D01*
X835194Y-12886D01*
X835148Y-12895D01*
X835093Y-12909D01*
X835037Y-12923D01*
X834977Y-12946D01*
X834917Y-12974D01*
X834853Y-13006D01*
X834788Y-13048D01*
X834719Y-13094D01*
X834654Y-13149D01*
X834594Y-13214D01*
X834534Y-13288D01*
X834529Y-13293D01*
X834520Y-13307D01*
X834506Y-13334D01*
X834488Y-13367D01*
X834464Y-13413D01*
X834437Y-13468D01*
X834409Y-13533D01*
X834381Y-13607D01*
X834354Y-13695D01*
X834326Y-13792D01*
X834298Y-13903D01*
X834275Y-14023D01*
X834256Y-14152D01*
X834243Y-14291D01*
X834233Y-14443D01*
X834229Y-14609D01*
Y-14614D01*
Y-14619D01*
Y-14633D01*
Y-14651D01*
Y-14697D01*
X834233Y-14762D01*
X834238Y-14840D01*
X834243Y-14928D01*
X834252Y-15025D01*
X834266Y-15127D01*
X834280Y-15238D01*
X834298Y-15349D01*
X834326Y-15459D01*
X834354Y-15570D01*
X834386Y-15681D01*
X834423Y-15783D01*
X834469Y-15875D01*
X834520Y-15958D01*
X834525Y-15963D01*
X834534Y-15977D01*
X834552Y-15995D01*
X834575Y-16023D01*
X834603Y-16055D01*
X834640Y-16088D01*
X834677Y-16129D01*
X834728Y-16166D01*
X834779Y-16203D01*
X834834Y-16240D01*
X834899Y-16277D01*
X834963Y-16309D01*
X835037Y-16337D01*
X835111Y-16356D01*
X835194Y-16370D01*
X835277Y-16374D01*
X835314D01*
X835338Y-16370D01*
X835370Y-16365D01*
X835407Y-16360D01*
X835490Y-16342D01*
X835587Y-16309D01*
X835638Y-16286D01*
X835689Y-16259D01*
X835740Y-16226D01*
X835795Y-16189D01*
X835841Y-16148D01*
X835892Y-16102D01*
X835897Y-16097D01*
X835901Y-16088D01*
X835915Y-16074D01*
X835934Y-16051D01*
X835952Y-16018D01*
X835980Y-15981D01*
X836003Y-15940D01*
X836031Y-15889D01*
X836058Y-15834D01*
X836086Y-15769D01*
X836114Y-15700D01*
X836141Y-15621D01*
X836165Y-15533D01*
X836188Y-15441D01*
X836206Y-15344D01*
X836220Y-15238D01*
X836844Y-15335D01*
Y-15344D01*
X836839Y-15372D01*
X836830Y-15413D01*
X836821Y-15469D01*
X836807Y-15538D01*
X836784Y-15617D01*
X836761Y-15704D01*
X836733Y-15797D01*
X836701Y-15898D01*
X836664Y-16000D01*
X836617Y-16102D01*
X836567Y-16208D01*
X836511Y-16309D01*
X836446Y-16407D01*
X836377Y-16499D01*
X836298Y-16582D01*
X836294Y-16587D01*
X836280Y-16601D01*
X836257Y-16624D01*
X836220Y-16647D01*
X836178Y-16684D01*
X836132Y-16716D01*
X836072Y-16758D01*
X836007Y-16795D01*
X835938Y-16836D01*
X835855Y-16878D01*
X835772Y-16910D01*
X835680Y-16942D01*
X835582Y-16970D01*
X835481Y-16993D01*
X835375Y-17007D01*
X835264Y-17012D01*
X835231D01*
X835194Y-17007D01*
X835139Y-17003D01*
X835079Y-16993D01*
X835005Y-16979D01*
X834922Y-16961D01*
X834834Y-16938D01*
X834742Y-16905D01*
X834645Y-16864D01*
X834543Y-16818D01*
X834441Y-16758D01*
X834340Y-16688D01*
X834238Y-16610D01*
X834141Y-16517D01*
X834049Y-16411D01*
X834044Y-16402D01*
X834030Y-16383D01*
X834007Y-16346D01*
X833975Y-16296D01*
X833938Y-16236D01*
X833901Y-16157D01*
X833859Y-16065D01*
X833813Y-15958D01*
X833771Y-15843D01*
X833725Y-15709D01*
X833688Y-15561D01*
X833651Y-15399D01*
X833619Y-15228D01*
X833596Y-15039D01*
X833582Y-14840D01*
X833577Y-14623D01*
Y-14619D01*
Y-14609D01*
Y-14591D01*
Y-14572D01*
Y-14545D01*
X833582Y-14508D01*
Y-14471D01*
X833587Y-14429D01*
X833591Y-14327D01*
X833601Y-14217D01*
X833619Y-14087D01*
X833637Y-13953D01*
X833661Y-13810D01*
X833693Y-13662D01*
X833734Y-13514D01*
X833776Y-13367D01*
X833832Y-13223D01*
X833896Y-13085D01*
X833970Y-12955D01*
X834053Y-12835D01*
X834058Y-12831D01*
X834076Y-12808D01*
X834104Y-12780D01*
X834141Y-12743D01*
X834187Y-12697D01*
X834247Y-12646D01*
X834312Y-12590D01*
X834386Y-12535D01*
X834474Y-12479D01*
X834566Y-12424D01*
X834668Y-12373D01*
X834779Y-12327D01*
X834894Y-12290D01*
X835019Y-12262D01*
X835148Y-12239D01*
X835287Y-12235D01*
X835342D01*
X835384Y-12239D01*
D02*
G37*
G36*
X804624Y-16905D02*
X803963D01*
Y-11625D01*
X802457Y-16905D01*
X801838D01*
X800346Y-11537D01*
Y-16905D01*
X799685D01*
Y-10595D01*
X800715D01*
X801940Y-15067D01*
X802184Y-16000D01*
Y-15995D01*
X802189Y-15981D01*
X802194Y-15963D01*
X802203Y-15935D01*
X802212Y-15898D01*
X802221Y-15852D01*
X802240Y-15801D01*
X802254Y-15741D01*
X802272Y-15672D01*
X802291Y-15598D01*
X802314Y-15515D01*
X802341Y-15427D01*
X802369Y-15326D01*
X802397Y-15219D01*
X802429Y-15108D01*
X802462Y-14988D01*
X803700Y-10595D01*
X804624D01*
Y-16905D01*
D02*
G37*
G36*
X870417Y-10599D02*
X870468D01*
X870523Y-10604D01*
X870588Y-10608D01*
X870658Y-10618D01*
X870810Y-10641D01*
X870962Y-10673D01*
X871115Y-10719D01*
X871189Y-10747D01*
X871253Y-10779D01*
X871258D01*
X871267Y-10789D01*
X871286Y-10798D01*
X871309Y-10816D01*
X871341Y-10835D01*
X871374Y-10858D01*
X871452Y-10918D01*
X871544Y-11001D01*
X871591Y-11047D01*
X871637Y-11098D01*
X871683Y-11154D01*
X871729Y-11218D01*
X871776Y-11283D01*
X871817Y-11352D01*
X871822Y-11357D01*
X871826Y-11371D01*
X871836Y-11389D01*
X871854Y-11422D01*
X871868Y-11458D01*
X871886Y-11500D01*
X871910Y-11551D01*
X871928Y-11606D01*
X871951Y-11666D01*
X871970Y-11731D01*
X872007Y-11874D01*
X872030Y-12036D01*
X872034Y-12119D01*
X872039Y-12207D01*
Y-12212D01*
Y-12225D01*
Y-12248D01*
X872034Y-12281D01*
Y-12318D01*
X872030Y-12364D01*
X872025Y-12415D01*
X872016Y-12466D01*
X871993Y-12590D01*
X871960Y-12720D01*
X871914Y-12858D01*
X871849Y-12992D01*
Y-12997D01*
X871840Y-13006D01*
X871831Y-13025D01*
X871813Y-13048D01*
X871794Y-13080D01*
X871771Y-13113D01*
X871711Y-13191D01*
X871637Y-13279D01*
X871544Y-13376D01*
X871438Y-13468D01*
X871313Y-13551D01*
X871318D01*
X871332Y-13561D01*
X871355Y-13570D01*
X871387Y-13584D01*
X871424Y-13602D01*
X871471Y-13625D01*
X871521Y-13648D01*
X871572Y-13681D01*
X871628Y-13718D01*
X871688Y-13759D01*
X871743Y-13805D01*
X871803Y-13856D01*
X871863Y-13912D01*
X871919Y-13972D01*
X871974Y-14037D01*
X872025Y-14110D01*
X872030Y-14115D01*
X872034Y-14129D01*
X872048Y-14152D01*
X872067Y-14180D01*
X872085Y-14217D01*
X872108Y-14263D01*
X872131Y-14318D01*
X872159Y-14378D01*
X872182Y-14448D01*
X872205Y-14522D01*
X872228Y-14600D01*
X872247Y-14683D01*
X872265Y-14776D01*
X872279Y-14873D01*
X872284Y-14974D01*
X872288Y-15081D01*
Y-15085D01*
Y-15104D01*
Y-15136D01*
X872284Y-15178D01*
X872279Y-15228D01*
X872274Y-15284D01*
X872270Y-15349D01*
X872261Y-15423D01*
X872247Y-15496D01*
X872233Y-15580D01*
X872191Y-15746D01*
X872164Y-15834D01*
X872131Y-15921D01*
X872094Y-16005D01*
X872053Y-16088D01*
X872048Y-16092D01*
X872044Y-16106D01*
X872030Y-16129D01*
X872011Y-16157D01*
X871988Y-16194D01*
X871956Y-16236D01*
X871923Y-16277D01*
X871886Y-16328D01*
X871794Y-16430D01*
X871688Y-16531D01*
X871563Y-16628D01*
X871498Y-16675D01*
X871424Y-16712D01*
X871420D01*
X871406Y-16721D01*
X871383Y-16730D01*
X871355Y-16744D01*
X871313Y-16758D01*
X871267Y-16771D01*
X871207Y-16790D01*
X871147Y-16808D01*
X871073Y-16827D01*
X870990Y-16845D01*
X870902Y-16859D01*
X870810Y-16873D01*
X870704Y-16887D01*
X870593Y-16896D01*
X870477Y-16901D01*
X870353Y-16905D01*
X868384D01*
Y-10595D01*
X870376D01*
X870417Y-10599D01*
D02*
G37*
G36*
X861602Y-16905D02*
X860877D01*
Y-16023D01*
X861602D01*
Y-16905D01*
D02*
G37*
G36*
X856340Y-12239D02*
X856391D01*
X856446Y-12244D01*
X856511Y-12253D01*
X856580Y-12262D01*
X856728Y-12290D01*
X856881Y-12327D01*
X857033Y-12382D01*
X857102Y-12420D01*
X857167Y-12456D01*
X857172Y-12461D01*
X857181Y-12466D01*
X857199Y-12479D01*
X857222Y-12498D01*
X857278Y-12544D01*
X857347Y-12609D01*
X857421Y-12687D01*
X857491Y-12780D01*
X857551Y-12886D01*
X857574Y-12946D01*
X857592Y-13006D01*
Y-13011D01*
X857597Y-13020D01*
X857601Y-13039D01*
X857606Y-13066D01*
X857615Y-13103D01*
X857620Y-13145D01*
X857629Y-13191D01*
X857638Y-13247D01*
X857648Y-13311D01*
X857657Y-13385D01*
X857661Y-13464D01*
X857671Y-13547D01*
X857675Y-13639D01*
X857680Y-13741D01*
X857685Y-13847D01*
Y-13963D01*
Y-14993D01*
Y-14997D01*
Y-15007D01*
Y-15021D01*
Y-15039D01*
Y-15067D01*
Y-15094D01*
Y-15168D01*
Y-15251D01*
Y-15353D01*
X857689Y-15459D01*
Y-15570D01*
X857694Y-15806D01*
X857698Y-15917D01*
Y-16028D01*
X857703Y-16129D01*
X857708Y-16222D01*
X857717Y-16300D01*
Y-16333D01*
X857722Y-16360D01*
Y-16365D01*
Y-16374D01*
X857726Y-16388D01*
X857731Y-16407D01*
X857735Y-16434D01*
X857740Y-16462D01*
X857758Y-16536D01*
X857782Y-16619D01*
X857809Y-16707D01*
X857846Y-16808D01*
X857888Y-16905D01*
X857227D01*
Y-16901D01*
X857222Y-16896D01*
X857218Y-16882D01*
X857209Y-16864D01*
X857204Y-16841D01*
X857190Y-16813D01*
X857172Y-16748D01*
X857149Y-16665D01*
X857125Y-16573D01*
X857107Y-16467D01*
X857093Y-16346D01*
X857088Y-16351D01*
X857079Y-16360D01*
X857061Y-16379D01*
X857038Y-16402D01*
X857010Y-16430D01*
X856973Y-16462D01*
X856936Y-16494D01*
X856890Y-16531D01*
X856793Y-16614D01*
X856677Y-16698D01*
X856557Y-16776D01*
X856428Y-16845D01*
X856423D01*
X856414Y-16855D01*
X856396Y-16859D01*
X856368Y-16873D01*
X856336Y-16882D01*
X856299Y-16896D01*
X856257Y-16915D01*
X856211Y-16929D01*
X856100Y-16961D01*
X855980Y-16984D01*
X855850Y-17003D01*
X855712Y-17012D01*
X855684D01*
X855656Y-17007D01*
X855615D01*
X855564Y-17003D01*
X855509Y-16993D01*
X855444Y-16984D01*
X855375Y-16966D01*
X855301Y-16947D01*
X855227Y-16924D01*
X855148Y-16896D01*
X855070Y-16864D01*
X854996Y-16822D01*
X854917Y-16776D01*
X854848Y-16721D01*
X854778Y-16661D01*
X854774Y-16656D01*
X854765Y-16642D01*
X854746Y-16624D01*
X854723Y-16596D01*
X854700Y-16559D01*
X854668Y-16517D01*
X854640Y-16467D01*
X854608Y-16411D01*
X854575Y-16346D01*
X854543Y-16273D01*
X854511Y-16194D01*
X854488Y-16111D01*
X854464Y-16018D01*
X854446Y-15921D01*
X854437Y-15820D01*
X854432Y-15709D01*
Y-15704D01*
Y-15690D01*
Y-15672D01*
X854437Y-15640D01*
Y-15607D01*
X854441Y-15566D01*
X854446Y-15519D01*
X854451Y-15473D01*
X854474Y-15362D01*
X854501Y-15247D01*
X854538Y-15122D01*
X854594Y-15007D01*
Y-15002D01*
X854603Y-14993D01*
X854612Y-14979D01*
X854622Y-14956D01*
X854658Y-14900D01*
X854709Y-14831D01*
X854774Y-14757D01*
X854848Y-14679D01*
X854936Y-14600D01*
X855037Y-14531D01*
X855042D01*
X855051Y-14522D01*
X855070Y-14512D01*
X855093Y-14503D01*
X855120Y-14489D01*
X855157Y-14471D01*
X855204Y-14452D01*
X855254Y-14434D01*
X855310Y-14411D01*
X855375Y-14392D01*
X855444Y-14369D01*
X855522Y-14346D01*
X855606Y-14327D01*
X855698Y-14309D01*
X855795Y-14291D01*
X855901Y-14272D01*
X855910D01*
X855933Y-14267D01*
X855975Y-14263D01*
X856031Y-14254D01*
X856091Y-14240D01*
X856164Y-14231D01*
X856248Y-14212D01*
X856336Y-14198D01*
X856520Y-14157D01*
X856710Y-14110D01*
X856802Y-14087D01*
X856890Y-14060D01*
X856968Y-14032D01*
X857042Y-14004D01*
X857047Y-13810D01*
Y-13805D01*
Y-13792D01*
Y-13764D01*
X857042Y-13732D01*
Y-13695D01*
X857038Y-13653D01*
X857024Y-13551D01*
X857005Y-13441D01*
X856973Y-13334D01*
X856931Y-13233D01*
X856908Y-13186D01*
X856876Y-13149D01*
X856871Y-13145D01*
X856867Y-13136D01*
X856853Y-13122D01*
X856830Y-13108D01*
X856807Y-13085D01*
X856774Y-13062D01*
X856737Y-13039D01*
X856696Y-13011D01*
X856650Y-12983D01*
X856594Y-12960D01*
X856534Y-12937D01*
X856470Y-12914D01*
X856396Y-12900D01*
X856322Y-12886D01*
X856234Y-12877D01*
X856146Y-12872D01*
X856104D01*
X856072Y-12877D01*
X856035D01*
X855994Y-12881D01*
X855897Y-12895D01*
X855790Y-12918D01*
X855679Y-12951D01*
X855573Y-12997D01*
X855527Y-13025D01*
X855481Y-13057D01*
X855476D01*
X855472Y-13066D01*
X855462Y-13076D01*
X855444Y-13094D01*
X855425Y-13117D01*
X855407Y-13140D01*
X855384Y-13172D01*
X855361Y-13214D01*
X855333Y-13256D01*
X855310Y-13307D01*
X855282Y-13362D01*
X855254Y-13427D01*
X855231Y-13496D01*
X855204Y-13570D01*
X855180Y-13653D01*
X855162Y-13745D01*
X854538Y-13644D01*
Y-13634D01*
X854543Y-13611D01*
X854552Y-13575D01*
X854566Y-13524D01*
X854580Y-13464D01*
X854603Y-13394D01*
X854626Y-13316D01*
X854654Y-13233D01*
X854686Y-13149D01*
X854728Y-13057D01*
X854769Y-12969D01*
X854820Y-12881D01*
X854876Y-12794D01*
X854936Y-12715D01*
X855000Y-12641D01*
X855074Y-12572D01*
X855079Y-12567D01*
X855093Y-12558D01*
X855116Y-12540D01*
X855153Y-12521D01*
X855194Y-12493D01*
X855245Y-12466D01*
X855305Y-12433D01*
X855375Y-12401D01*
X855453Y-12373D01*
X855541Y-12341D01*
X855638Y-12313D01*
X855739Y-12286D01*
X855855Y-12267D01*
X855975Y-12248D01*
X856104Y-12239D01*
X856243Y-12235D01*
X856299D01*
X856340Y-12239D01*
D02*
G37*
G36*
X838026Y-14203D02*
X839528Y-12336D01*
X840350D01*
X838918Y-14037D01*
X840493Y-16905D01*
X839713D01*
X838470Y-14568D01*
X838026Y-15094D01*
Y-16905D01*
X837393D01*
Y-10595D01*
X838026D01*
Y-14203D01*
D02*
G37*
G36*
X831434Y-12239D02*
X831485D01*
X831540Y-12244D01*
X831605Y-12253D01*
X831674Y-12262D01*
X831822Y-12290D01*
X831974Y-12327D01*
X832127Y-12382D01*
X832196Y-12420D01*
X832261Y-12456D01*
X832265Y-12461D01*
X832275Y-12466D01*
X832293Y-12479D01*
X832316Y-12498D01*
X832372Y-12544D01*
X832441Y-12609D01*
X832515Y-12687D01*
X832584Y-12780D01*
X832644Y-12886D01*
X832667Y-12946D01*
X832686Y-13006D01*
Y-13011D01*
X832690Y-13020D01*
X832695Y-13039D01*
X832700Y-13066D01*
X832709Y-13103D01*
X832713Y-13145D01*
X832723Y-13191D01*
X832732Y-13247D01*
X832741Y-13311D01*
X832750Y-13385D01*
X832755Y-13464D01*
X832764Y-13547D01*
X832769Y-13639D01*
X832773Y-13741D01*
X832778Y-13847D01*
Y-13963D01*
Y-14993D01*
Y-14997D01*
Y-15007D01*
Y-15021D01*
Y-15039D01*
Y-15067D01*
Y-15094D01*
Y-15168D01*
Y-15251D01*
Y-15353D01*
X832783Y-15459D01*
Y-15570D01*
X832787Y-15806D01*
X832792Y-15917D01*
Y-16028D01*
X832797Y-16129D01*
X832801Y-16222D01*
X832810Y-16300D01*
Y-16333D01*
X832815Y-16360D01*
Y-16365D01*
Y-16374D01*
X832820Y-16388D01*
X832824Y-16407D01*
X832829Y-16434D01*
X832833Y-16462D01*
X832852Y-16536D01*
X832875Y-16619D01*
X832903Y-16707D01*
X832940Y-16808D01*
X832981Y-16905D01*
X832321D01*
Y-16901D01*
X832316Y-16896D01*
X832312Y-16882D01*
X832302Y-16864D01*
X832298Y-16841D01*
X832284Y-16813D01*
X832265Y-16748D01*
X832242Y-16665D01*
X832219Y-16573D01*
X832201Y-16467D01*
X832187Y-16346D01*
X832182Y-16351D01*
X832173Y-16360D01*
X832154Y-16379D01*
X832131Y-16402D01*
X832104Y-16430D01*
X832067Y-16462D01*
X832030Y-16494D01*
X831983Y-16531D01*
X831886Y-16614D01*
X831771Y-16698D01*
X831651Y-16776D01*
X831522Y-16845D01*
X831517D01*
X831508Y-16855D01*
X831489Y-16859D01*
X831461Y-16873D01*
X831429Y-16882D01*
X831392Y-16896D01*
X831351Y-16915D01*
X831304Y-16929D01*
X831193Y-16961D01*
X831073Y-16984D01*
X830944Y-17003D01*
X830805Y-17012D01*
X830778D01*
X830750Y-17007D01*
X830708D01*
X830657Y-17003D01*
X830602Y-16993D01*
X830537Y-16984D01*
X830468Y-16966D01*
X830394Y-16947D01*
X830320Y-16924D01*
X830242Y-16896D01*
X830163Y-16864D01*
X830089Y-16822D01*
X830011Y-16776D01*
X829941Y-16721D01*
X829872Y-16661D01*
X829867Y-16656D01*
X829858Y-16642D01*
X829840Y-16624D01*
X829817Y-16596D01*
X829794Y-16559D01*
X829761Y-16517D01*
X829733Y-16467D01*
X829701Y-16411D01*
X829669Y-16346D01*
X829636Y-16273D01*
X829604Y-16194D01*
X829581Y-16111D01*
X829558Y-16018D01*
X829539Y-15921D01*
X829530Y-15820D01*
X829526Y-15709D01*
Y-15704D01*
Y-15690D01*
Y-15672D01*
X829530Y-15640D01*
Y-15607D01*
X829535Y-15566D01*
X829539Y-15519D01*
X829544Y-15473D01*
X829567Y-15362D01*
X829595Y-15247D01*
X829632Y-15122D01*
X829687Y-15007D01*
Y-15002D01*
X829697Y-14993D01*
X829706Y-14979D01*
X829715Y-14956D01*
X829752Y-14900D01*
X829803Y-14831D01*
X829867Y-14757D01*
X829941Y-14679D01*
X830029Y-14600D01*
X830131Y-14531D01*
X830136D01*
X830145Y-14522D01*
X830163Y-14512D01*
X830186Y-14503D01*
X830214Y-14489D01*
X830251Y-14471D01*
X830297Y-14452D01*
X830348Y-14434D01*
X830403Y-14411D01*
X830468Y-14392D01*
X830537Y-14369D01*
X830616Y-14346D01*
X830699Y-14327D01*
X830791Y-14309D01*
X830888Y-14291D01*
X830995Y-14272D01*
X831004D01*
X831027Y-14267D01*
X831069Y-14263D01*
X831124Y-14254D01*
X831184Y-14240D01*
X831258Y-14231D01*
X831341Y-14212D01*
X831429Y-14198D01*
X831614Y-14157D01*
X831803Y-14110D01*
X831896Y-14087D01*
X831983Y-14060D01*
X832062Y-14032D01*
X832136Y-14004D01*
X832141Y-13810D01*
Y-13805D01*
Y-13792D01*
Y-13764D01*
X832136Y-13732D01*
Y-13695D01*
X832131Y-13653D01*
X832117Y-13551D01*
X832099Y-13441D01*
X832067Y-13334D01*
X832025Y-13233D01*
X832002Y-13186D01*
X831970Y-13149D01*
X831965Y-13145D01*
X831960Y-13136D01*
X831946Y-13122D01*
X831923Y-13108D01*
X831900Y-13085D01*
X831868Y-13062D01*
X831831Y-13039D01*
X831789Y-13011D01*
X831743Y-12983D01*
X831688Y-12960D01*
X831628Y-12937D01*
X831563Y-12914D01*
X831489Y-12900D01*
X831415Y-12886D01*
X831327Y-12877D01*
X831240Y-12872D01*
X831198D01*
X831166Y-12877D01*
X831129D01*
X831087Y-12881D01*
X830990Y-12895D01*
X830884Y-12918D01*
X830773Y-12951D01*
X830667Y-12997D01*
X830621Y-13025D01*
X830574Y-13057D01*
X830570D01*
X830565Y-13066D01*
X830556Y-13076D01*
X830537Y-13094D01*
X830519Y-13117D01*
X830500Y-13140D01*
X830477Y-13172D01*
X830454Y-13214D01*
X830427Y-13256D01*
X830403Y-13307D01*
X830376Y-13362D01*
X830348Y-13427D01*
X830325Y-13496D01*
X830297Y-13570D01*
X830274Y-13653D01*
X830256Y-13745D01*
X829632Y-13644D01*
Y-13634D01*
X829636Y-13611D01*
X829646Y-13575D01*
X829660Y-13524D01*
X829673Y-13464D01*
X829697Y-13394D01*
X829720Y-13316D01*
X829747Y-13233D01*
X829780Y-13149D01*
X829821Y-13057D01*
X829863Y-12969D01*
X829914Y-12881D01*
X829969Y-12794D01*
X830029Y-12715D01*
X830094Y-12641D01*
X830168Y-12572D01*
X830172Y-12567D01*
X830186Y-12558D01*
X830209Y-12540D01*
X830246Y-12521D01*
X830288Y-12493D01*
X830339Y-12466D01*
X830399Y-12433D01*
X830468Y-12401D01*
X830547Y-12373D01*
X830634Y-12341D01*
X830731Y-12313D01*
X830833Y-12286D01*
X830949Y-12267D01*
X831069Y-12248D01*
X831198Y-12239D01*
X831337Y-12235D01*
X831392D01*
X831434Y-12239D01*
D02*
G37*
G36*
X826735Y-11338D02*
X825021D01*
Y-16905D01*
X824337D01*
Y-11338D01*
X822633D01*
Y-10595D01*
X826735D01*
Y-11338D01*
D02*
G37*
G36*
X815897Y-16905D02*
X815264D01*
Y-10595D01*
X815897D01*
Y-16905D01*
D02*
G37*
G36*
X814312D02*
X813679D01*
Y-12336D01*
X814312D01*
Y-16905D01*
D02*
G37*
G36*
X859440Y-12336D02*
X860082D01*
Y-12937D01*
X859440D01*
Y-15612D01*
Y-15617D01*
Y-15626D01*
Y-15649D01*
Y-15672D01*
Y-15700D01*
X859445Y-15732D01*
X859449Y-15811D01*
X859454Y-15889D01*
X859463Y-15968D01*
X859477Y-16037D01*
X859486Y-16065D01*
X859496Y-16088D01*
X859500Y-16092D01*
X859509Y-16111D01*
X859533Y-16134D01*
X859565Y-16162D01*
X859606Y-16194D01*
X859657Y-16217D01*
X859722Y-16236D01*
X859801Y-16240D01*
X859842D01*
X859874Y-16236D01*
X859916D01*
X859962Y-16226D01*
X860022Y-16222D01*
X860082Y-16213D01*
X860170Y-16896D01*
X860166D01*
X860156Y-16901D01*
X860142D01*
X860124Y-16905D01*
X860078Y-16919D01*
X860013Y-16929D01*
X859939Y-16942D01*
X859861Y-16956D01*
X859777Y-16961D01*
X859694Y-16966D01*
X859639D01*
X859611Y-16961D01*
X859579Y-16956D01*
X859505Y-16947D01*
X859417Y-16933D01*
X859329Y-16910D01*
X859241Y-16878D01*
X859158Y-16836D01*
X859149Y-16832D01*
X859126Y-16813D01*
X859089Y-16785D01*
X859047Y-16744D01*
X859001Y-16693D01*
X858955Y-16633D01*
X858913Y-16559D01*
X858881Y-16480D01*
Y-16476D01*
X858877Y-16471D01*
Y-16453D01*
X858872Y-16434D01*
X858863Y-16407D01*
X858858Y-16370D01*
X858853Y-16328D01*
X858844Y-16282D01*
X858840Y-16222D01*
X858830Y-16157D01*
X858826Y-16083D01*
X858821Y-16000D01*
X858816Y-15908D01*
X858812Y-15806D01*
X858807Y-15690D01*
Y-15570D01*
Y-12937D01*
X858341D01*
Y-12336D01*
X858807D01*
Y-11204D01*
X859440Y-10738D01*
Y-12336D01*
D02*
G37*
G36*
X842605Y-12239D02*
X842656Y-12244D01*
X842720Y-12253D01*
X842790Y-12267D01*
X842873Y-12286D01*
X842961Y-12313D01*
X843053Y-12346D01*
X843150Y-12382D01*
X843252Y-12433D01*
X843353Y-12493D01*
X843455Y-12563D01*
X843557Y-12646D01*
X843654Y-12743D01*
X843746Y-12849D01*
X843751Y-12858D01*
X843769Y-12877D01*
X843792Y-12914D01*
X843820Y-12965D01*
X843857Y-13025D01*
X843898Y-13103D01*
X843945Y-13196D01*
X843991Y-13297D01*
X844032Y-13417D01*
X844079Y-13547D01*
X844120Y-13695D01*
X844157Y-13852D01*
X844185Y-14023D01*
X844213Y-14207D01*
X844226Y-14406D01*
X844231Y-14619D01*
Y-14822D01*
X841436D01*
Y-14831D01*
X841441Y-14854D01*
Y-14896D01*
X841445Y-14947D01*
X841455Y-15011D01*
X841464Y-15085D01*
X841478Y-15168D01*
X841496Y-15256D01*
X841538Y-15446D01*
X841565Y-15543D01*
X841598Y-15640D01*
X841639Y-15732D01*
X841681Y-15824D01*
X841732Y-15908D01*
X841787Y-15986D01*
X841792Y-15991D01*
X841801Y-16005D01*
X841819Y-16023D01*
X841842Y-16046D01*
X841875Y-16074D01*
X841912Y-16111D01*
X841953Y-16143D01*
X842004Y-16180D01*
X842060Y-16217D01*
X842115Y-16250D01*
X842180Y-16282D01*
X842249Y-16314D01*
X842323Y-16337D01*
X842397Y-16356D01*
X842480Y-16370D01*
X842563Y-16374D01*
X842596D01*
X842633Y-16370D01*
X842679Y-16360D01*
X842739Y-16346D01*
X842803Y-16323D01*
X842877Y-16296D01*
X842956Y-16259D01*
X843034Y-16208D01*
X843118Y-16143D01*
X843201Y-16069D01*
X843284Y-15977D01*
X843363Y-15871D01*
X843400Y-15811D01*
X843432Y-15746D01*
X843469Y-15677D01*
X843501Y-15603D01*
X843529Y-15519D01*
X843557Y-15436D01*
X844213Y-15533D01*
Y-15543D01*
X844203Y-15566D01*
X844194Y-15603D01*
X844180Y-15653D01*
X844162Y-15713D01*
X844139Y-15788D01*
X844111Y-15861D01*
X844074Y-15949D01*
X844037Y-16037D01*
X843995Y-16125D01*
X843945Y-16217D01*
X843889Y-16309D01*
X843829Y-16402D01*
X843764Y-16485D01*
X843695Y-16568D01*
X843617Y-16642D01*
X843612Y-16647D01*
X843598Y-16656D01*
X843575Y-16675D01*
X843543Y-16698D01*
X843501Y-16730D01*
X843450Y-16758D01*
X843390Y-16795D01*
X843326Y-16827D01*
X843252Y-16859D01*
X843173Y-16896D01*
X843085Y-16924D01*
X842993Y-16952D01*
X842891Y-16979D01*
X842785Y-16998D01*
X842674Y-17007D01*
X842559Y-17012D01*
X842522D01*
X842480Y-17007D01*
X842425Y-17003D01*
X842360Y-16993D01*
X842281Y-16979D01*
X842194Y-16961D01*
X842101Y-16938D01*
X842000Y-16905D01*
X841893Y-16864D01*
X841787Y-16818D01*
X841681Y-16758D01*
X841575Y-16688D01*
X841468Y-16610D01*
X841367Y-16517D01*
X841270Y-16411D01*
X841265Y-16402D01*
X841247Y-16383D01*
X841224Y-16346D01*
X841191Y-16300D01*
X841154Y-16236D01*
X841113Y-16157D01*
X841071Y-16069D01*
X841025Y-15968D01*
X840979Y-15847D01*
X840937Y-15718D01*
X840895Y-15575D01*
X840858Y-15418D01*
X840826Y-15251D01*
X840803Y-15067D01*
X840785Y-14873D01*
X840780Y-14665D01*
Y-14660D01*
Y-14651D01*
Y-14637D01*
Y-14614D01*
Y-14586D01*
X840785Y-14549D01*
Y-14512D01*
X840789Y-14471D01*
X840794Y-14369D01*
X840808Y-14258D01*
X840821Y-14133D01*
X840840Y-13995D01*
X840868Y-13852D01*
X840900Y-13704D01*
X840942Y-13551D01*
X840988Y-13404D01*
X841043Y-13256D01*
X841113Y-13117D01*
X841187Y-12983D01*
X841274Y-12858D01*
X841279Y-12849D01*
X841297Y-12831D01*
X841325Y-12803D01*
X841362Y-12761D01*
X841413Y-12715D01*
X841473Y-12660D01*
X841542Y-12604D01*
X841621Y-12544D01*
X841704Y-12489D01*
X841801Y-12433D01*
X841907Y-12378D01*
X842018Y-12332D01*
X842138Y-12290D01*
X842263Y-12262D01*
X842397Y-12239D01*
X842535Y-12235D01*
X842568D01*
X842605Y-12239D01*
D02*
G37*
G36*
X818498Y-12239D02*
X818548Y-12244D01*
X818613Y-12253D01*
X818682Y-12267D01*
X818766Y-12286D01*
X818853Y-12313D01*
X818946Y-12346D01*
X819043Y-12382D01*
X819145Y-12433D01*
X819246Y-12493D01*
X819348Y-12563D01*
X819449Y-12646D01*
X819546Y-12743D01*
X819639Y-12849D01*
X819643Y-12858D01*
X819662Y-12877D01*
X819685Y-12914D01*
X819713Y-12965D01*
X819750Y-13025D01*
X819791Y-13103D01*
X819837Y-13196D01*
X819884Y-13297D01*
X819925Y-13417D01*
X819971Y-13547D01*
X820013Y-13695D01*
X820050Y-13852D01*
X820078Y-14023D01*
X820105Y-14207D01*
X820119Y-14406D01*
X820124Y-14619D01*
Y-14822D01*
X817329D01*
Y-14831D01*
X817333Y-14854D01*
Y-14896D01*
X817338Y-14947D01*
X817347Y-15011D01*
X817356Y-15085D01*
X817370Y-15168D01*
X817389Y-15256D01*
X817430Y-15446D01*
X817458Y-15543D01*
X817490Y-15640D01*
X817532Y-15732D01*
X817574Y-15824D01*
X817624Y-15908D01*
X817680Y-15986D01*
X817685Y-15991D01*
X817694Y-16005D01*
X817712Y-16023D01*
X817735Y-16046D01*
X817768Y-16074D01*
X817805Y-16111D01*
X817846Y-16143D01*
X817897Y-16180D01*
X817953Y-16217D01*
X818008Y-16250D01*
X818073Y-16282D01*
X818142Y-16314D01*
X818216Y-16337D01*
X818290Y-16356D01*
X818373Y-16370D01*
X818456Y-16374D01*
X818488D01*
X818525Y-16370D01*
X818572Y-16360D01*
X818632Y-16346D01*
X818696Y-16323D01*
X818770Y-16296D01*
X818849Y-16259D01*
X818927Y-16208D01*
X819011Y-16143D01*
X819094Y-16069D01*
X819177Y-15977D01*
X819255Y-15871D01*
X819292Y-15811D01*
X819325Y-15746D01*
X819362Y-15677D01*
X819394Y-15603D01*
X819422Y-15519D01*
X819449Y-15436D01*
X820105Y-15533D01*
Y-15543D01*
X820096Y-15566D01*
X820087Y-15603D01*
X820073Y-15653D01*
X820055Y-15714D01*
X820032Y-15788D01*
X820004Y-15861D01*
X819967Y-15949D01*
X819930Y-16037D01*
X819888Y-16125D01*
X819837Y-16217D01*
X819782Y-16309D01*
X819722Y-16402D01*
X819657Y-16485D01*
X819588Y-16568D01*
X819510Y-16642D01*
X819505Y-16647D01*
X819491Y-16656D01*
X819468Y-16675D01*
X819436Y-16698D01*
X819394Y-16730D01*
X819343Y-16758D01*
X819283Y-16795D01*
X819218Y-16827D01*
X819145Y-16859D01*
X819066Y-16896D01*
X818978Y-16924D01*
X818886Y-16952D01*
X818784Y-16979D01*
X818678Y-16998D01*
X818567Y-17007D01*
X818451Y-17012D01*
X818414D01*
X818373Y-17007D01*
X818318Y-17003D01*
X818253Y-16993D01*
X818174Y-16979D01*
X818087Y-16961D01*
X817994Y-16938D01*
X817892Y-16905D01*
X817786Y-16864D01*
X817680Y-16818D01*
X817574Y-16758D01*
X817467Y-16688D01*
X817361Y-16610D01*
X817260Y-16517D01*
X817163Y-16411D01*
X817158Y-16402D01*
X817139Y-16383D01*
X817116Y-16346D01*
X817084Y-16300D01*
X817047Y-16236D01*
X817005Y-16157D01*
X816964Y-16069D01*
X816918Y-15968D01*
X816871Y-15847D01*
X816830Y-15718D01*
X816788Y-15575D01*
X816751Y-15418D01*
X816719Y-15252D01*
X816696Y-15067D01*
X816677Y-14873D01*
X816673Y-14665D01*
Y-14660D01*
Y-14651D01*
Y-14637D01*
Y-14614D01*
Y-14586D01*
X816677Y-14549D01*
Y-14512D01*
X816682Y-14471D01*
X816687Y-14369D01*
X816700Y-14258D01*
X816714Y-14133D01*
X816733Y-13995D01*
X816761Y-13852D01*
X816793Y-13704D01*
X816835Y-13551D01*
X816881Y-13404D01*
X816936Y-13256D01*
X817005Y-13117D01*
X817079Y-12983D01*
X817167Y-12858D01*
X817172Y-12849D01*
X817190Y-12831D01*
X817218Y-12803D01*
X817255Y-12761D01*
X817306Y-12715D01*
X817366Y-12660D01*
X817435Y-12604D01*
X817514Y-12544D01*
X817597Y-12489D01*
X817694Y-12433D01*
X817800Y-12378D01*
X817911Y-12332D01*
X818031Y-12290D01*
X818156Y-12262D01*
X818290Y-12239D01*
X818428Y-12235D01*
X818461D01*
X818498Y-12239D01*
D02*
G37*
G36*
X810288Y-12854D02*
X810293Y-12849D01*
X810297Y-12840D01*
X810306Y-12826D01*
X810325Y-12803D01*
X810367Y-12747D01*
X810417Y-12678D01*
X810487Y-12604D01*
X810565Y-12530D01*
X810648Y-12456D01*
X810741Y-12392D01*
X810745D01*
X810755Y-12387D01*
X810768Y-12378D01*
X810787Y-12369D01*
X810810Y-12355D01*
X810838Y-12341D01*
X810912Y-12313D01*
X810995Y-12286D01*
X811092Y-12258D01*
X811198Y-12239D01*
X811314Y-12235D01*
X811355D01*
X811388Y-12239D01*
X811425Y-12244D01*
X811471Y-12249D01*
X811522Y-12258D01*
X811577Y-12267D01*
X811702Y-12299D01*
X811766Y-12318D01*
X811836Y-12346D01*
X811905Y-12378D01*
X811974Y-12410D01*
X812039Y-12452D01*
X812108Y-12498D01*
X812113Y-12503D01*
X812122Y-12512D01*
X812145Y-12526D01*
X812168Y-12549D01*
X812201Y-12577D01*
X812233Y-12609D01*
X812274Y-12651D01*
X812316Y-12697D01*
X812362Y-12747D01*
X812409Y-12808D01*
X812455Y-12872D01*
X812506Y-12946D01*
X812552Y-13025D01*
X812598Y-13108D01*
X812644Y-13200D01*
X812686Y-13297D01*
X812690Y-13302D01*
X812695Y-13320D01*
X812704Y-13353D01*
X812718Y-13394D01*
X812737Y-13445D01*
X812755Y-13505D01*
X812774Y-13579D01*
X812797Y-13658D01*
X812815Y-13750D01*
X812834Y-13847D01*
X812852Y-13953D01*
X812871Y-14069D01*
X812884Y-14189D01*
X812894Y-14318D01*
X812903Y-14452D01*
Y-14591D01*
Y-14595D01*
Y-14605D01*
Y-14619D01*
Y-14642D01*
Y-14669D01*
X812898Y-14702D01*
Y-14739D01*
X812894Y-14780D01*
X812889Y-14882D01*
X812875Y-14993D01*
X812861Y-15118D01*
X812843Y-15252D01*
X812815Y-15395D01*
X812783Y-15538D01*
X812746Y-15690D01*
X812695Y-15838D01*
X812640Y-15986D01*
X812575Y-16125D01*
X812501Y-16259D01*
X812413Y-16383D01*
X812409Y-16388D01*
X812390Y-16411D01*
X812362Y-16443D01*
X812325Y-16480D01*
X812279Y-16531D01*
X812224Y-16582D01*
X812164Y-16637D01*
X812090Y-16698D01*
X812011Y-16758D01*
X811923Y-16813D01*
X811831Y-16864D01*
X811729Y-16915D01*
X811623Y-16952D01*
X811512Y-16984D01*
X811397Y-17003D01*
X811277Y-17012D01*
X811244D01*
X811221Y-17007D01*
X811193D01*
X811161Y-17003D01*
X811083Y-16989D01*
X810990Y-16970D01*
X810893Y-16942D01*
X810791Y-16901D01*
X810690Y-16845D01*
X810685D01*
X810681Y-16836D01*
X810667Y-16827D01*
X810648Y-16813D01*
X810598Y-16771D01*
X810537Y-16716D01*
X810468Y-16647D01*
X810390Y-16559D01*
X810316Y-16457D01*
X810242Y-16337D01*
Y-16905D01*
X809650D01*
Y-10595D01*
X810288D01*
Y-12854D01*
D02*
G37*
G36*
X807225Y-12239D02*
X807276Y-12244D01*
X807340Y-12253D01*
X807414Y-12267D01*
X807498Y-12286D01*
X807590Y-12309D01*
X807687Y-12341D01*
X807784Y-12382D01*
X807890Y-12433D01*
X807996Y-12489D01*
X808103Y-12558D01*
X808204Y-12641D01*
X808306Y-12734D01*
X808403Y-12840D01*
X808408Y-12844D01*
X808426Y-12868D01*
X808449Y-12905D01*
X808482Y-12951D01*
X808519Y-13015D01*
X808565Y-13089D01*
X808606Y-13177D01*
X808657Y-13283D01*
X808703Y-13399D01*
X808749Y-13528D01*
X808791Y-13671D01*
X808828Y-13824D01*
X808860Y-13995D01*
X808883Y-14175D01*
X808902Y-14369D01*
X808907Y-14577D01*
Y-14582D01*
Y-14591D01*
Y-14609D01*
Y-14633D01*
Y-14660D01*
X808902Y-14693D01*
Y-14734D01*
X808897Y-14780D01*
X808893Y-14882D01*
X808879Y-14998D01*
X808865Y-15127D01*
X808846Y-15270D01*
X808819Y-15418D01*
X808786Y-15566D01*
X808745Y-15718D01*
X808694Y-15871D01*
X808639Y-16018D01*
X808574Y-16162D01*
X808495Y-16291D01*
X808408Y-16411D01*
X808403Y-16416D01*
X808385Y-16439D01*
X808357Y-16467D01*
X808320Y-16504D01*
X808269Y-16550D01*
X808209Y-16601D01*
X808144Y-16656D01*
X808066Y-16712D01*
X807978Y-16767D01*
X807885Y-16822D01*
X807779Y-16873D01*
X807668Y-16919D01*
X807548Y-16956D01*
X807423Y-16984D01*
X807290Y-17007D01*
X807151Y-17012D01*
X807119D01*
X807077Y-17007D01*
X807026Y-17003D01*
X806962Y-16993D01*
X806888Y-16979D01*
X806804Y-16961D01*
X806712Y-16938D01*
X806615Y-16905D01*
X806513Y-16864D01*
X806407Y-16818D01*
X806306Y-16758D01*
X806199Y-16688D01*
X806093Y-16610D01*
X805991Y-16517D01*
X805894Y-16411D01*
X805890Y-16402D01*
X805871Y-16383D01*
X805848Y-16346D01*
X805816Y-16296D01*
X805779Y-16236D01*
X805737Y-16157D01*
X805691Y-16065D01*
X805645Y-15958D01*
X805599Y-15843D01*
X805552Y-15709D01*
X805511Y-15561D01*
X805474Y-15399D01*
X805442Y-15228D01*
X805418Y-15039D01*
X805400Y-14840D01*
X805395Y-14623D01*
Y-14619D01*
Y-14609D01*
Y-14595D01*
Y-14572D01*
Y-14545D01*
X805400Y-14508D01*
Y-14471D01*
X805405Y-14429D01*
X805409Y-14332D01*
X805423Y-14217D01*
X805437Y-14092D01*
X805455Y-13958D01*
X805483Y-13815D01*
X805515Y-13667D01*
X805557Y-13519D01*
X805603Y-13371D01*
X805659Y-13228D01*
X805728Y-13089D01*
X805802Y-12960D01*
X805890Y-12840D01*
X805894Y-12831D01*
X805913Y-12812D01*
X805941Y-12785D01*
X805978Y-12743D01*
X806028Y-12701D01*
X806088Y-12651D01*
X806158Y-12595D01*
X806236Y-12535D01*
X806319Y-12480D01*
X806416Y-12424D01*
X806523Y-12373D01*
X806633Y-12327D01*
X806754Y-12290D01*
X806878Y-12262D01*
X807012Y-12239D01*
X807151Y-12235D01*
X807183D01*
X807225Y-12239D01*
D02*
G37*
%LPC*%
G36*
X836363Y-2872D02*
X836345D01*
X836326Y-2877D01*
X836294D01*
X836262Y-2886D01*
X836220Y-2895D01*
X836174Y-2909D01*
X836128Y-2923D01*
X836072Y-2946D01*
X836017Y-2974D01*
X835961Y-3011D01*
X835901Y-3052D01*
X835846Y-3099D01*
X835786Y-3159D01*
X835730Y-3223D01*
X835675Y-3297D01*
X835670Y-3302D01*
X835661Y-3316D01*
X835647Y-3343D01*
X835629Y-3376D01*
X835610Y-3422D01*
X835582Y-3478D01*
X835559Y-3547D01*
X835532Y-3621D01*
X835504Y-3709D01*
X835481Y-3810D01*
X835453Y-3916D01*
X835435Y-4036D01*
X835416Y-4171D01*
X835402Y-4309D01*
X835393Y-4462D01*
X835388Y-4628D01*
Y-4632D01*
Y-4637D01*
Y-4651D01*
Y-4665D01*
Y-4711D01*
X835393Y-4771D01*
X835398Y-4845D01*
X835407Y-4933D01*
X835416Y-5025D01*
X835425Y-5127D01*
X835444Y-5228D01*
X835462Y-5339D01*
X835485Y-5450D01*
X835518Y-5556D01*
X835550Y-5663D01*
X835592Y-5764D01*
X835638Y-5857D01*
X835693Y-5945D01*
X835698Y-5949D01*
X835707Y-5963D01*
X835726Y-5986D01*
X835749Y-6009D01*
X835777Y-6046D01*
X835813Y-6078D01*
X835850Y-6120D01*
X835897Y-6157D01*
X835947Y-6199D01*
X836003Y-6240D01*
X836063Y-6273D01*
X836123Y-6305D01*
X836192Y-6333D01*
X836262Y-6356D01*
X836335Y-6370D01*
X836409Y-6374D01*
X836428D01*
X836446Y-6370D01*
X836479D01*
X836511Y-6360D01*
X836553Y-6351D01*
X836599Y-6342D01*
X836650Y-6323D01*
X836701Y-6300D01*
X836756Y-6273D01*
X836816Y-6240D01*
X836871Y-6199D01*
X836932Y-6152D01*
X836992Y-6097D01*
X837052Y-6037D01*
X837107Y-5963D01*
X837112Y-5958D01*
X837121Y-5945D01*
X837135Y-5921D01*
X837153Y-5884D01*
X837176Y-5843D01*
X837204Y-5787D01*
X837227Y-5727D01*
X837259Y-5654D01*
X837287Y-5570D01*
X837310Y-5478D01*
X837338Y-5376D01*
X837361Y-5265D01*
X837380Y-5141D01*
X837393Y-5011D01*
X837403Y-4868D01*
X837407Y-4716D01*
Y-4711D01*
Y-4706D01*
Y-4693D01*
Y-4674D01*
Y-4623D01*
X837403Y-4558D01*
X837398Y-4480D01*
X837393Y-4388D01*
X837384Y-4286D01*
X837370Y-4180D01*
X837352Y-4069D01*
X837333Y-3953D01*
X837310Y-3833D01*
X837283Y-3718D01*
X837246Y-3607D01*
X837204Y-3501D01*
X837158Y-3404D01*
X837107Y-3316D01*
X837102Y-3311D01*
X837093Y-3297D01*
X837075Y-3274D01*
X837056Y-3246D01*
X837024Y-3214D01*
X836992Y-3177D01*
X836950Y-3136D01*
X836904Y-3094D01*
X836853Y-3052D01*
X836798Y-3011D01*
X836733Y-2974D01*
X836668Y-2942D01*
X836599Y-2914D01*
X836525Y-2891D01*
X836446Y-2877D01*
X836363Y-2872D01*
D02*
G37*
G36*
X855836Y-4614D02*
X855832D01*
X855818Y-4623D01*
X855800Y-4632D01*
X855772Y-4642D01*
X855735Y-4660D01*
X855689Y-4674D01*
X855638Y-4697D01*
X855573Y-4716D01*
X855504Y-4739D01*
X855430Y-4762D01*
X855342Y-4785D01*
X855250Y-4813D01*
X855148Y-4836D01*
X855037Y-4859D01*
X854922Y-4882D01*
X854797Y-4905D01*
X854792D01*
X854778Y-4910D01*
X854760D01*
X854732Y-4919D01*
X854700Y-4924D01*
X854663Y-4933D01*
X854575Y-4951D01*
X854483Y-4974D01*
X854391Y-5002D01*
X854303Y-5034D01*
X854266Y-5048D01*
X854233Y-5067D01*
X854229Y-5071D01*
X854206Y-5081D01*
X854178Y-5104D01*
X854146Y-5131D01*
X854104Y-5168D01*
X854062Y-5210D01*
X854025Y-5261D01*
X853988Y-5316D01*
X853984Y-5325D01*
X853975Y-5344D01*
X853961Y-5376D01*
X853947Y-5423D01*
X853928Y-5478D01*
X853915Y-5543D01*
X853905Y-5612D01*
X853901Y-5690D01*
Y-5695D01*
Y-5704D01*
Y-5723D01*
X853905Y-5746D01*
Y-5774D01*
X853910Y-5806D01*
X853924Y-5880D01*
X853952Y-5963D01*
X853984Y-6051D01*
X854035Y-6134D01*
X854062Y-6176D01*
X854099Y-6213D01*
X854104D01*
X854109Y-6222D01*
X854123Y-6231D01*
X854136Y-6245D01*
X854183Y-6273D01*
X854247Y-6310D01*
X854326Y-6346D01*
X854423Y-6374D01*
X854534Y-6397D01*
X854663Y-6407D01*
X854695D01*
X854718Y-6402D01*
X854751D01*
X854783Y-6397D01*
X854866Y-6383D01*
X854963Y-6365D01*
X855065Y-6333D01*
X855171Y-6291D01*
X855278Y-6231D01*
X855282D01*
X855291Y-6222D01*
X855305Y-6213D01*
X855324Y-6199D01*
X855375Y-6162D01*
X855435Y-6106D01*
X855504Y-6037D01*
X855573Y-5958D01*
X855643Y-5866D01*
X855698Y-5760D01*
Y-5755D01*
X855702Y-5746D01*
X855712Y-5727D01*
X855721Y-5704D01*
X855730Y-5672D01*
X855744Y-5635D01*
X855753Y-5593D01*
X855767Y-5543D01*
X855781Y-5483D01*
X855795Y-5418D01*
X855804Y-5349D01*
X855813Y-5270D01*
X855823Y-5187D01*
X855832Y-5099D01*
X855836Y-5002D01*
Y-4900D01*
Y-4614D01*
D02*
G37*
G36*
X801505Y-1338D02*
X800369D01*
Y-3246D01*
X801589D01*
X801630Y-3242D01*
X801727Y-3237D01*
X801829Y-3233D01*
X801930Y-3219D01*
X802027Y-3205D01*
X802069Y-3196D01*
X802106Y-3186D01*
X802110D01*
X802120Y-3182D01*
X802134Y-3177D01*
X802152Y-3168D01*
X802198Y-3149D01*
X802258Y-3117D01*
X802323Y-3076D01*
X802392Y-3025D01*
X802457Y-2960D01*
X802517Y-2886D01*
Y-2881D01*
X802522Y-2877D01*
X802531Y-2863D01*
X802540Y-2849D01*
X802549Y-2826D01*
X802563Y-2798D01*
X802591Y-2734D01*
X802619Y-2651D01*
X802642Y-2549D01*
X802660Y-2433D01*
X802665Y-2304D01*
Y-2299D01*
Y-2290D01*
Y-2272D01*
Y-2248D01*
X802660Y-2221D01*
Y-2184D01*
X802647Y-2105D01*
X802633Y-2018D01*
X802610Y-1925D01*
X802577Y-1828D01*
X802531Y-1740D01*
Y-1736D01*
X802526Y-1731D01*
X802508Y-1703D01*
X802480Y-1662D01*
X802439Y-1616D01*
X802388Y-1565D01*
X802332Y-1514D01*
X802263Y-1463D01*
X802184Y-1426D01*
X802180D01*
X802175Y-1422D01*
X802161Y-1417D01*
X802143Y-1412D01*
X802115Y-1408D01*
X802087Y-1398D01*
X802050Y-1389D01*
X802004Y-1380D01*
X801954Y-1375D01*
X801898Y-1366D01*
X801833Y-1357D01*
X801764Y-1352D01*
X801686Y-1348D01*
X801598Y-1343D01*
X801505Y-1338D01*
D02*
G37*
G36*
X801658Y-3990D02*
X800369D01*
Y-6162D01*
X801723D01*
X801759Y-6157D01*
X801796D01*
X801893Y-6152D01*
X801995Y-6143D01*
X802097Y-6129D01*
X802198Y-6111D01*
X802240Y-6102D01*
X802281Y-6088D01*
X802286D01*
X802295Y-6083D01*
X802309Y-6074D01*
X802328Y-6065D01*
X802383Y-6037D01*
X802448Y-6000D01*
X802517Y-5945D01*
X802591Y-5884D01*
X802660Y-5806D01*
X802725Y-5718D01*
Y-5714D01*
X802730Y-5704D01*
X802739Y-5690D01*
X802748Y-5672D01*
X802762Y-5644D01*
X802776Y-5616D01*
X802790Y-5580D01*
X802804Y-5543D01*
X802831Y-5446D01*
X802859Y-5339D01*
X802878Y-5215D01*
X802882Y-5076D01*
Y-5071D01*
Y-5062D01*
Y-5039D01*
Y-5016D01*
X802878Y-4984D01*
X802873Y-4947D01*
X802864Y-4863D01*
X802845Y-4771D01*
X802822Y-4669D01*
X802785Y-4568D01*
X802734Y-4471D01*
Y-4466D01*
X802730Y-4462D01*
X802720Y-4448D01*
X802707Y-4429D01*
X802674Y-4388D01*
X802628Y-4332D01*
X802573Y-4272D01*
X802503Y-4212D01*
X802425Y-4157D01*
X802337Y-4106D01*
X802332D01*
X802328Y-4101D01*
X802309Y-4096D01*
X802291Y-4087D01*
X802263Y-4078D01*
X802231Y-4069D01*
X802194Y-4060D01*
X802147Y-4046D01*
X802097Y-4036D01*
X802041Y-4027D01*
X801977Y-4018D01*
X801907Y-4009D01*
X801829Y-3999D01*
X801746Y-3995D01*
X801658Y-3990D01*
D02*
G37*
G36*
X840521Y-2872D02*
X840480D01*
X840452Y-2877D01*
X840415Y-2881D01*
X840369Y-2891D01*
X840323Y-2900D01*
X840272Y-2918D01*
X840216Y-2937D01*
X840156Y-2960D01*
X840096Y-2988D01*
X840036Y-3020D01*
X839971Y-3062D01*
X839911Y-3112D01*
X839851Y-3163D01*
X839791Y-3228D01*
X839787Y-3233D01*
X839777Y-3246D01*
X839764Y-3265D01*
X839745Y-3293D01*
X839722Y-3330D01*
X839694Y-3371D01*
X839666Y-3422D01*
X839639Y-3482D01*
X839606Y-3547D01*
X839579Y-3616D01*
X839551Y-3695D01*
X839528Y-3782D01*
X839505Y-3875D01*
X839486Y-3972D01*
X839472Y-4073D01*
X839463Y-4184D01*
X841556D01*
Y-4180D01*
Y-4157D01*
X841551Y-4129D01*
X841547Y-4087D01*
X841538Y-4036D01*
X841528Y-3981D01*
X841519Y-3921D01*
X841505Y-3852D01*
X841473Y-3709D01*
X841431Y-3561D01*
X841371Y-3422D01*
X841339Y-3357D01*
X841302Y-3302D01*
X841297Y-3297D01*
X841288Y-3283D01*
X841270Y-3260D01*
X841247Y-3233D01*
X841214Y-3200D01*
X841177Y-3168D01*
X841136Y-3126D01*
X841090Y-3085D01*
X841034Y-3048D01*
X840974Y-3006D01*
X840909Y-2974D01*
X840840Y-2937D01*
X840771Y-2914D01*
X840692Y-2891D01*
X840609Y-2877D01*
X840521Y-2872D01*
D02*
G37*
G36*
X830838D02*
X830819D01*
X830796Y-2877D01*
X830764D01*
X830722Y-2886D01*
X830676Y-2895D01*
X830625Y-2909D01*
X830570Y-2928D01*
X830514Y-2951D01*
X830450Y-2978D01*
X830385Y-3015D01*
X830320Y-3057D01*
X830256Y-3108D01*
X830191Y-3168D01*
X830126Y-3233D01*
X830066Y-3311D01*
X830062Y-3316D01*
X830052Y-3330D01*
X830038Y-3357D01*
X830015Y-3394D01*
X829992Y-3441D01*
X829969Y-3496D01*
X829937Y-3561D01*
X829909Y-3639D01*
X829881Y-3727D01*
X829854Y-3824D01*
X829826Y-3930D01*
X829803Y-4046D01*
X829780Y-4175D01*
X829766Y-4314D01*
X829757Y-4462D01*
X829752Y-4623D01*
Y-4628D01*
Y-4632D01*
Y-4646D01*
Y-4660D01*
Y-4706D01*
X829757Y-4766D01*
X829761Y-4840D01*
X829770Y-4928D01*
X829780Y-5020D01*
X829794Y-5122D01*
X829807Y-5228D01*
X829830Y-5335D01*
X829854Y-5446D01*
X829886Y-5556D01*
X829923Y-5663D01*
X829965Y-5764D01*
X830015Y-5857D01*
X830071Y-5945D01*
X830075Y-5949D01*
X830085Y-5963D01*
X830103Y-5986D01*
X830131Y-6009D01*
X830159Y-6046D01*
X830200Y-6078D01*
X830242Y-6120D01*
X830293Y-6157D01*
X830348Y-6199D01*
X830408Y-6240D01*
X830473Y-6273D01*
X830547Y-6305D01*
X830621Y-6333D01*
X830699Y-6356D01*
X830782Y-6370D01*
X830870Y-6374D01*
X830888D01*
X830912Y-6370D01*
X830944Y-6365D01*
X830986Y-6360D01*
X831027Y-6351D01*
X831078Y-6337D01*
X831133Y-6319D01*
X831193Y-6296D01*
X831254Y-6268D01*
X831318Y-6231D01*
X831383Y-6189D01*
X831448Y-6143D01*
X831512Y-6083D01*
X831577Y-6019D01*
X831637Y-5940D01*
X831642Y-5935D01*
X831651Y-5921D01*
X831665Y-5894D01*
X831688Y-5857D01*
X831711Y-5811D01*
X831739Y-5755D01*
X831771Y-5686D01*
X831799Y-5612D01*
X831831Y-5524D01*
X831859Y-5427D01*
X831886Y-5316D01*
X831909Y-5201D01*
X831933Y-5071D01*
X831946Y-4933D01*
X831956Y-4780D01*
X831960Y-4623D01*
Y-4619D01*
Y-4614D01*
Y-4600D01*
Y-4586D01*
Y-4540D01*
X831956Y-4480D01*
X831951Y-4406D01*
X831942Y-4323D01*
X831933Y-4226D01*
X831919Y-4129D01*
X831905Y-4023D01*
X831882Y-3912D01*
X831854Y-3805D01*
X831826Y-3695D01*
X831785Y-3588D01*
X831743Y-3487D01*
X831692Y-3394D01*
X831637Y-3306D01*
X831632Y-3302D01*
X831623Y-3288D01*
X831605Y-3265D01*
X831577Y-3237D01*
X831549Y-3205D01*
X831508Y-3168D01*
X831466Y-3131D01*
X831415Y-3089D01*
X831360Y-3048D01*
X831300Y-3011D01*
X831235Y-2974D01*
X831166Y-2942D01*
X831087Y-2914D01*
X831009Y-2891D01*
X830925Y-2877D01*
X830838Y-2872D01*
D02*
G37*
G36*
X813970Y-2872D02*
X813952D01*
X813929Y-2877D01*
X813896D01*
X813855Y-2886D01*
X813808Y-2895D01*
X813758Y-2909D01*
X813702Y-2928D01*
X813647Y-2951D01*
X813582Y-2978D01*
X813517Y-3015D01*
X813453Y-3057D01*
X813388Y-3108D01*
X813323Y-3168D01*
X813259Y-3233D01*
X813198Y-3311D01*
X813194Y-3316D01*
X813185Y-3330D01*
X813171Y-3357D01*
X813148Y-3394D01*
X813125Y-3441D01*
X813101Y-3496D01*
X813069Y-3561D01*
X813041Y-3639D01*
X813014Y-3727D01*
X812986Y-3824D01*
X812958Y-3930D01*
X812935Y-4046D01*
X812912Y-4175D01*
X812898Y-4314D01*
X812889Y-4462D01*
X812884Y-4623D01*
Y-4628D01*
Y-4632D01*
Y-4646D01*
Y-4660D01*
Y-4706D01*
X812889Y-4766D01*
X812894Y-4840D01*
X812903Y-4928D01*
X812912Y-5021D01*
X812926Y-5122D01*
X812940Y-5229D01*
X812963Y-5335D01*
X812986Y-5446D01*
X813018Y-5556D01*
X813055Y-5663D01*
X813097Y-5764D01*
X813148Y-5857D01*
X813203Y-5945D01*
X813208Y-5949D01*
X813217Y-5963D01*
X813235Y-5986D01*
X813263Y-6009D01*
X813291Y-6046D01*
X813332Y-6078D01*
X813374Y-6120D01*
X813425Y-6157D01*
X813480Y-6199D01*
X813540Y-6240D01*
X813605Y-6273D01*
X813679Y-6305D01*
X813753Y-6333D01*
X813832Y-6356D01*
X813915Y-6370D01*
X814002Y-6374D01*
X814021D01*
X814044Y-6370D01*
X814076Y-6365D01*
X814118Y-6360D01*
X814159Y-6351D01*
X814210Y-6337D01*
X814266Y-6319D01*
X814326Y-6296D01*
X814386Y-6268D01*
X814451Y-6231D01*
X814515Y-6189D01*
X814580Y-6143D01*
X814645Y-6083D01*
X814709Y-6019D01*
X814769Y-5940D01*
X814774Y-5935D01*
X814783Y-5922D01*
X814797Y-5894D01*
X814820Y-5857D01*
X814843Y-5811D01*
X814871Y-5755D01*
X814903Y-5686D01*
X814931Y-5612D01*
X814963Y-5524D01*
X814991Y-5427D01*
X815019Y-5316D01*
X815042Y-5201D01*
X815065Y-5071D01*
X815079Y-4933D01*
X815088Y-4780D01*
X815093Y-4623D01*
Y-4619D01*
Y-4614D01*
Y-4600D01*
Y-4586D01*
Y-4540D01*
X815088Y-4480D01*
X815084Y-4406D01*
X815074Y-4323D01*
X815065Y-4226D01*
X815051Y-4129D01*
X815037Y-4023D01*
X815014Y-3912D01*
X814987Y-3805D01*
X814959Y-3695D01*
X814917Y-3588D01*
X814876Y-3487D01*
X814825Y-3394D01*
X814769Y-3306D01*
X814765Y-3302D01*
X814756Y-3288D01*
X814737Y-3265D01*
X814709Y-3237D01*
X814682Y-3205D01*
X814640Y-3168D01*
X814598Y-3131D01*
X814548Y-3089D01*
X814492Y-3048D01*
X814432Y-3011D01*
X814367Y-2974D01*
X814298Y-2942D01*
X814220Y-2914D01*
X814141Y-2891D01*
X814058Y-2877D01*
X813970Y-2872D01*
D02*
G37*
G36*
X805931D02*
X805913D01*
X805890Y-2877D01*
X805857D01*
X805816Y-2886D01*
X805770Y-2895D01*
X805719Y-2909D01*
X805663Y-2928D01*
X805608Y-2951D01*
X805543Y-2978D01*
X805478Y-3015D01*
X805414Y-3057D01*
X805349Y-3108D01*
X805285Y-3168D01*
X805220Y-3233D01*
X805160Y-3311D01*
X805155Y-3316D01*
X805146Y-3330D01*
X805132Y-3357D01*
X805109Y-3394D01*
X805086Y-3441D01*
X805063Y-3496D01*
X805030Y-3561D01*
X805003Y-3639D01*
X804975Y-3727D01*
X804947Y-3824D01*
X804920Y-3930D01*
X804896Y-4046D01*
X804873Y-4175D01*
X804859Y-4314D01*
X804850Y-4462D01*
X804846Y-4623D01*
Y-4628D01*
Y-4632D01*
Y-4646D01*
Y-4660D01*
Y-4706D01*
X804850Y-4766D01*
X804855Y-4840D01*
X804864Y-4928D01*
X804873Y-5021D01*
X804887Y-5122D01*
X804901Y-5229D01*
X804924Y-5335D01*
X804947Y-5446D01*
X804980Y-5556D01*
X805017Y-5663D01*
X805058Y-5764D01*
X805109Y-5857D01*
X805164Y-5945D01*
X805169Y-5949D01*
X805178Y-5963D01*
X805197Y-5986D01*
X805224Y-6009D01*
X805252Y-6046D01*
X805294Y-6078D01*
X805335Y-6120D01*
X805386Y-6157D01*
X805442Y-6199D01*
X805502Y-6240D01*
X805566Y-6273D01*
X805640Y-6305D01*
X805714Y-6333D01*
X805793Y-6356D01*
X805876Y-6370D01*
X805964Y-6374D01*
X805982D01*
X806005Y-6370D01*
X806038Y-6365D01*
X806079Y-6360D01*
X806121Y-6351D01*
X806172Y-6337D01*
X806227Y-6319D01*
X806287Y-6296D01*
X806347Y-6268D01*
X806412Y-6231D01*
X806476Y-6189D01*
X806541Y-6143D01*
X806606Y-6083D01*
X806670Y-6019D01*
X806730Y-5940D01*
X806735Y-5935D01*
X806744Y-5922D01*
X806758Y-5894D01*
X806781Y-5857D01*
X806804Y-5811D01*
X806832Y-5755D01*
X806864Y-5686D01*
X806892Y-5612D01*
X806925Y-5524D01*
X806952Y-5427D01*
X806980Y-5316D01*
X807003Y-5201D01*
X807026Y-5071D01*
X807040Y-4933D01*
X807049Y-4780D01*
X807054Y-4623D01*
Y-4619D01*
Y-4614D01*
Y-4600D01*
Y-4586D01*
Y-4540D01*
X807049Y-4480D01*
X807045Y-4406D01*
X807036Y-4323D01*
X807026Y-4226D01*
X807012Y-4129D01*
X806999Y-4023D01*
X806975Y-3912D01*
X806948Y-3805D01*
X806920Y-3695D01*
X806878Y-3588D01*
X806837Y-3487D01*
X806786Y-3394D01*
X806730Y-3306D01*
X806726Y-3302D01*
X806717Y-3288D01*
X806698Y-3265D01*
X806670Y-3237D01*
X806643Y-3205D01*
X806601Y-3168D01*
X806560Y-3131D01*
X806509Y-3089D01*
X806453Y-3048D01*
X806393Y-3011D01*
X806329Y-2974D01*
X806259Y-2942D01*
X806181Y-2914D01*
X806102Y-2891D01*
X806019Y-2877D01*
X805931Y-2872D01*
D02*
G37*
G36*
X870205Y-11338D02*
X869068D01*
Y-13247D01*
X870288D01*
X870329Y-13242D01*
X870426Y-13237D01*
X870528Y-13233D01*
X870630Y-13219D01*
X870727Y-13205D01*
X870768Y-13196D01*
X870805Y-13186D01*
X870810D01*
X870819Y-13182D01*
X870833Y-13177D01*
X870852Y-13168D01*
X870898Y-13149D01*
X870958Y-13117D01*
X871023Y-13076D01*
X871092Y-13025D01*
X871156Y-12960D01*
X871216Y-12886D01*
Y-12881D01*
X871221Y-12877D01*
X871230Y-12863D01*
X871240Y-12849D01*
X871249Y-12826D01*
X871263Y-12798D01*
X871290Y-12734D01*
X871318Y-12651D01*
X871341Y-12549D01*
X871360Y-12433D01*
X871364Y-12304D01*
Y-12299D01*
Y-12290D01*
Y-12272D01*
Y-12248D01*
X871360Y-12221D01*
Y-12184D01*
X871346Y-12105D01*
X871332Y-12017D01*
X871309Y-11925D01*
X871277Y-11828D01*
X871230Y-11740D01*
Y-11736D01*
X871226Y-11731D01*
X871207Y-11703D01*
X871179Y-11662D01*
X871138Y-11616D01*
X871087Y-11565D01*
X871032Y-11514D01*
X870962Y-11463D01*
X870884Y-11426D01*
X870879D01*
X870875Y-11422D01*
X870861Y-11417D01*
X870842Y-11412D01*
X870815Y-11408D01*
X870787Y-11399D01*
X870750Y-11389D01*
X870704Y-11380D01*
X870653Y-11375D01*
X870597Y-11366D01*
X870533Y-11357D01*
X870463Y-11352D01*
X870385Y-11348D01*
X870297Y-11343D01*
X870205Y-11338D01*
D02*
G37*
G36*
X870357Y-13990D02*
X869068D01*
Y-16162D01*
X870422D01*
X870459Y-16157D01*
X870496D01*
X870593Y-16152D01*
X870694Y-16143D01*
X870796Y-16129D01*
X870898Y-16111D01*
X870939Y-16102D01*
X870981Y-16088D01*
X870986D01*
X870995Y-16083D01*
X871009Y-16074D01*
X871027Y-16065D01*
X871082Y-16037D01*
X871147Y-16000D01*
X871216Y-15945D01*
X871290Y-15885D01*
X871360Y-15806D01*
X871424Y-15718D01*
Y-15713D01*
X871429Y-15704D01*
X871438Y-15690D01*
X871447Y-15672D01*
X871461Y-15644D01*
X871475Y-15617D01*
X871489Y-15580D01*
X871503Y-15543D01*
X871531Y-15446D01*
X871558Y-15339D01*
X871577Y-15215D01*
X871581Y-15076D01*
Y-15071D01*
Y-15062D01*
Y-15039D01*
Y-15016D01*
X871577Y-14984D01*
X871572Y-14947D01*
X871563Y-14863D01*
X871544Y-14771D01*
X871521Y-14669D01*
X871484Y-14568D01*
X871434Y-14471D01*
Y-14466D01*
X871429Y-14461D01*
X871420Y-14448D01*
X871406Y-14429D01*
X871374Y-14388D01*
X871327Y-14332D01*
X871272Y-14272D01*
X871203Y-14212D01*
X871124Y-14157D01*
X871036Y-14106D01*
X871032D01*
X871027Y-14101D01*
X871009Y-14096D01*
X870990Y-14087D01*
X870962Y-14078D01*
X870930Y-14069D01*
X870893Y-14060D01*
X870847Y-14046D01*
X870796Y-14037D01*
X870741Y-14027D01*
X870676Y-14018D01*
X870607Y-14009D01*
X870528Y-13999D01*
X870445Y-13995D01*
X870357Y-13990D01*
D02*
G37*
G36*
X857042Y-14614D02*
X857038D01*
X857024Y-14623D01*
X857005Y-14633D01*
X856978Y-14642D01*
X856941Y-14660D01*
X856894Y-14674D01*
X856844Y-14697D01*
X856779Y-14716D01*
X856710Y-14739D01*
X856636Y-14762D01*
X856548Y-14785D01*
X856456Y-14813D01*
X856354Y-14836D01*
X856243Y-14859D01*
X856128Y-14882D01*
X856003Y-14905D01*
X855998D01*
X855984Y-14910D01*
X855966D01*
X855938Y-14919D01*
X855906Y-14923D01*
X855869Y-14933D01*
X855781Y-14951D01*
X855689Y-14974D01*
X855596Y-15002D01*
X855509Y-15034D01*
X855472Y-15048D01*
X855439Y-15067D01*
X855435Y-15071D01*
X855412Y-15081D01*
X855384Y-15104D01*
X855351Y-15131D01*
X855310Y-15168D01*
X855268Y-15210D01*
X855231Y-15261D01*
X855194Y-15316D01*
X855190Y-15326D01*
X855180Y-15344D01*
X855167Y-15376D01*
X855153Y-15423D01*
X855134Y-15478D01*
X855120Y-15543D01*
X855111Y-15612D01*
X855107Y-15690D01*
Y-15695D01*
Y-15704D01*
Y-15723D01*
X855111Y-15746D01*
Y-15774D01*
X855116Y-15806D01*
X855130Y-15880D01*
X855157Y-15963D01*
X855190Y-16051D01*
X855241Y-16134D01*
X855268Y-16175D01*
X855305Y-16213D01*
X855310D01*
X855315Y-16222D01*
X855328Y-16231D01*
X855342Y-16245D01*
X855388Y-16273D01*
X855453Y-16309D01*
X855532Y-16346D01*
X855629Y-16374D01*
X855739Y-16397D01*
X855869Y-16407D01*
X855901D01*
X855924Y-16402D01*
X855957D01*
X855989Y-16397D01*
X856072Y-16383D01*
X856169Y-16365D01*
X856271Y-16333D01*
X856377Y-16291D01*
X856483Y-16231D01*
X856488D01*
X856497Y-16222D01*
X856511Y-16213D01*
X856530Y-16199D01*
X856580Y-16162D01*
X856640Y-16106D01*
X856710Y-16037D01*
X856779Y-15958D01*
X856848Y-15866D01*
X856904Y-15760D01*
Y-15755D01*
X856908Y-15746D01*
X856918Y-15727D01*
X856927Y-15704D01*
X856936Y-15672D01*
X856950Y-15635D01*
X856959Y-15593D01*
X856973Y-15543D01*
X856987Y-15483D01*
X857001Y-15418D01*
X857010Y-15349D01*
X857019Y-15270D01*
X857028Y-15187D01*
X857038Y-15099D01*
X857042Y-15002D01*
Y-14900D01*
Y-14614D01*
D02*
G37*
G36*
X832136D02*
X832131D01*
X832117Y-14623D01*
X832099Y-14633D01*
X832071Y-14642D01*
X832034Y-14660D01*
X831988Y-14674D01*
X831937Y-14697D01*
X831873Y-14716D01*
X831803Y-14739D01*
X831729Y-14762D01*
X831642Y-14785D01*
X831549Y-14813D01*
X831448Y-14836D01*
X831337Y-14859D01*
X831221Y-14882D01*
X831096Y-14905D01*
X831092D01*
X831078Y-14910D01*
X831059D01*
X831032Y-14919D01*
X830999Y-14923D01*
X830962Y-14933D01*
X830875Y-14951D01*
X830782Y-14974D01*
X830690Y-15002D01*
X830602Y-15034D01*
X830565Y-15048D01*
X830533Y-15067D01*
X830528Y-15071D01*
X830505Y-15081D01*
X830477Y-15104D01*
X830445Y-15131D01*
X830403Y-15168D01*
X830362Y-15210D01*
X830325Y-15261D01*
X830288Y-15316D01*
X830283Y-15326D01*
X830274Y-15344D01*
X830260Y-15376D01*
X830246Y-15423D01*
X830228Y-15478D01*
X830214Y-15543D01*
X830205Y-15612D01*
X830200Y-15690D01*
Y-15695D01*
Y-15704D01*
Y-15723D01*
X830205Y-15746D01*
Y-15774D01*
X830209Y-15806D01*
X830223Y-15880D01*
X830251Y-15963D01*
X830283Y-16051D01*
X830334Y-16134D01*
X830362Y-16175D01*
X830399Y-16213D01*
X830403D01*
X830408Y-16222D01*
X830422Y-16231D01*
X830436Y-16245D01*
X830482Y-16273D01*
X830547Y-16309D01*
X830625Y-16346D01*
X830722Y-16374D01*
X830833Y-16397D01*
X830962Y-16407D01*
X830995D01*
X831018Y-16402D01*
X831050D01*
X831083Y-16397D01*
X831166Y-16383D01*
X831263Y-16365D01*
X831364Y-16333D01*
X831471Y-16291D01*
X831577Y-16231D01*
X831581D01*
X831591Y-16222D01*
X831605Y-16213D01*
X831623Y-16199D01*
X831674Y-16162D01*
X831734Y-16106D01*
X831803Y-16037D01*
X831873Y-15958D01*
X831942Y-15866D01*
X831997Y-15760D01*
Y-15755D01*
X832002Y-15746D01*
X832011Y-15727D01*
X832020Y-15704D01*
X832030Y-15672D01*
X832043Y-15635D01*
X832053Y-15593D01*
X832067Y-15543D01*
X832080Y-15483D01*
X832094Y-15418D01*
X832104Y-15349D01*
X832113Y-15270D01*
X832122Y-15187D01*
X832131Y-15099D01*
X832136Y-15002D01*
Y-14900D01*
Y-14614D01*
D02*
G37*
G36*
X842531Y-12872D02*
X842489D01*
X842462Y-12877D01*
X842425Y-12881D01*
X842379Y-12891D01*
X842332Y-12900D01*
X842281Y-12918D01*
X842226Y-12937D01*
X842166Y-12960D01*
X842106Y-12988D01*
X842046Y-13020D01*
X841981Y-13062D01*
X841921Y-13113D01*
X841861Y-13163D01*
X841801Y-13228D01*
X841796Y-13233D01*
X841787Y-13247D01*
X841773Y-13265D01*
X841755Y-13293D01*
X841732Y-13330D01*
X841704Y-13371D01*
X841676Y-13422D01*
X841648Y-13482D01*
X841616Y-13547D01*
X841588Y-13616D01*
X841561Y-13695D01*
X841538Y-13782D01*
X841514Y-13875D01*
X841496Y-13972D01*
X841482Y-14073D01*
X841473Y-14184D01*
X843566D01*
Y-14180D01*
Y-14157D01*
X843561Y-14129D01*
X843557Y-14087D01*
X843547Y-14037D01*
X843538Y-13981D01*
X843529Y-13921D01*
X843515Y-13852D01*
X843483Y-13709D01*
X843441Y-13561D01*
X843381Y-13422D01*
X843349Y-13357D01*
X843312Y-13302D01*
X843307Y-13297D01*
X843298Y-13283D01*
X843279Y-13260D01*
X843256Y-13233D01*
X843224Y-13200D01*
X843187Y-13168D01*
X843145Y-13126D01*
X843099Y-13085D01*
X843044Y-13048D01*
X842984Y-13006D01*
X842919Y-12974D01*
X842850Y-12937D01*
X842780Y-12914D01*
X842702Y-12891D01*
X842619Y-12877D01*
X842531Y-12872D01*
D02*
G37*
G36*
X818424Y-12872D02*
X818382D01*
X818355Y-12877D01*
X818318Y-12881D01*
X818271Y-12891D01*
X818225Y-12900D01*
X818174Y-12919D01*
X818119Y-12937D01*
X818059Y-12960D01*
X817999Y-12988D01*
X817939Y-13020D01*
X817874Y-13062D01*
X817814Y-13113D01*
X817754Y-13163D01*
X817694Y-13228D01*
X817689Y-13233D01*
X817680Y-13247D01*
X817666Y-13265D01*
X817648Y-13293D01*
X817624Y-13330D01*
X817597Y-13371D01*
X817569Y-13422D01*
X817541Y-13482D01*
X817509Y-13547D01*
X817481Y-13616D01*
X817454Y-13695D01*
X817430Y-13782D01*
X817407Y-13875D01*
X817389Y-13972D01*
X817375Y-14073D01*
X817366Y-14184D01*
X819459D01*
Y-14180D01*
Y-14157D01*
X819454Y-14129D01*
X819449Y-14087D01*
X819440Y-14037D01*
X819431Y-13981D01*
X819422Y-13921D01*
X819408Y-13852D01*
X819376Y-13709D01*
X819334Y-13561D01*
X819274Y-13422D01*
X819242Y-13357D01*
X819205Y-13302D01*
X819200Y-13297D01*
X819191Y-13283D01*
X819172Y-13260D01*
X819149Y-13233D01*
X819117Y-13200D01*
X819080Y-13168D01*
X819038Y-13126D01*
X818992Y-13085D01*
X818937Y-13048D01*
X818876Y-13006D01*
X818812Y-12974D01*
X818742Y-12937D01*
X818673Y-12914D01*
X818595Y-12891D01*
X818511Y-12877D01*
X818424Y-12872D01*
D02*
G37*
G36*
X811240D02*
X811221D01*
X811203Y-12877D01*
X811175D01*
X811138Y-12886D01*
X811101Y-12895D01*
X811055Y-12909D01*
X811004Y-12928D01*
X810953Y-12951D01*
X810898Y-12979D01*
X810838Y-13015D01*
X810778Y-13057D01*
X810718Y-13108D01*
X810658Y-13168D01*
X810598Y-13237D01*
X810537Y-13316D01*
X810533Y-13320D01*
X810524Y-13334D01*
X810510Y-13362D01*
X810491Y-13399D01*
X810468Y-13445D01*
X810440Y-13501D01*
X810413Y-13565D01*
X810385Y-13639D01*
X810357Y-13727D01*
X810330Y-13819D01*
X810302Y-13926D01*
X810279Y-14037D01*
X810260Y-14161D01*
X810246Y-14295D01*
X810237Y-14438D01*
X810233Y-14591D01*
Y-14600D01*
Y-14623D01*
Y-14660D01*
Y-14706D01*
X810237Y-14766D01*
Y-14836D01*
X810242Y-14910D01*
X810246Y-14988D01*
X810265Y-15164D01*
X810283Y-15339D01*
X810302Y-15427D01*
X810316Y-15506D01*
X810334Y-15584D01*
X810357Y-15653D01*
Y-15658D01*
X810362Y-15667D01*
X810371Y-15686D01*
X810380Y-15709D01*
X810394Y-15741D01*
X810413Y-15774D01*
X810450Y-15852D01*
X810505Y-15940D01*
X810565Y-16028D01*
X810639Y-16111D01*
X810722Y-16189D01*
X810727D01*
X810732Y-16199D01*
X810745Y-16208D01*
X810764Y-16217D01*
X810815Y-16250D01*
X810879Y-16282D01*
X810958Y-16314D01*
X811046Y-16346D01*
X811143Y-16365D01*
X811249Y-16374D01*
X811267D01*
X811286Y-16370D01*
X811314Y-16365D01*
X811351Y-16360D01*
X811388Y-16351D01*
X811434Y-16337D01*
X811485Y-16319D01*
X811535Y-16296D01*
X811591Y-16268D01*
X811651Y-16231D01*
X811711Y-16189D01*
X811771Y-16139D01*
X811831Y-16079D01*
X811887Y-16014D01*
X811946Y-15935D01*
X811951Y-15931D01*
X811960Y-15917D01*
X811974Y-15889D01*
X811993Y-15852D01*
X812016Y-15806D01*
X812043Y-15751D01*
X812071Y-15681D01*
X812099Y-15607D01*
X812127Y-15519D01*
X812154Y-15423D01*
X812182Y-15312D01*
X812205Y-15196D01*
X812224Y-15067D01*
X812238Y-14928D01*
X812247Y-14776D01*
X812251Y-14619D01*
Y-14614D01*
Y-14609D01*
Y-14595D01*
Y-14577D01*
Y-14531D01*
X812247Y-14471D01*
X812242Y-14397D01*
X812238Y-14309D01*
X812228Y-14217D01*
X812214Y-14115D01*
X812201Y-14009D01*
X812177Y-13898D01*
X812154Y-13792D01*
X812127Y-13681D01*
X812094Y-13575D01*
X812053Y-13473D01*
X812007Y-13380D01*
X811956Y-13297D01*
X811951Y-13293D01*
X811942Y-13279D01*
X811928Y-13256D01*
X811905Y-13233D01*
X811877Y-13200D01*
X811840Y-13163D01*
X811803Y-13126D01*
X811757Y-13085D01*
X811706Y-13043D01*
X811656Y-13006D01*
X811595Y-12969D01*
X811531Y-12937D01*
X811461Y-12909D01*
X811392Y-12891D01*
X811318Y-12877D01*
X811240Y-12872D01*
D02*
G37*
G36*
X807133D02*
X807114D01*
X807091Y-12877D01*
X807059D01*
X807017Y-12886D01*
X806971Y-12895D01*
X806920Y-12909D01*
X806864Y-12928D01*
X806809Y-12951D01*
X806744Y-12979D01*
X806680Y-13015D01*
X806615Y-13057D01*
X806550Y-13108D01*
X806486Y-13168D01*
X806421Y-13233D01*
X806361Y-13311D01*
X806356Y-13316D01*
X806347Y-13330D01*
X806333Y-13357D01*
X806310Y-13394D01*
X806287Y-13441D01*
X806264Y-13496D01*
X806232Y-13561D01*
X806204Y-13639D01*
X806176Y-13727D01*
X806148Y-13824D01*
X806121Y-13930D01*
X806098Y-14046D01*
X806075Y-14175D01*
X806061Y-14314D01*
X806051Y-14461D01*
X806047Y-14623D01*
Y-14628D01*
Y-14633D01*
Y-14646D01*
Y-14660D01*
Y-14706D01*
X806051Y-14766D01*
X806056Y-14840D01*
X806065Y-14928D01*
X806075Y-15021D01*
X806088Y-15122D01*
X806102Y-15228D01*
X806125Y-15335D01*
X806148Y-15446D01*
X806181Y-15556D01*
X806218Y-15663D01*
X806259Y-15764D01*
X806310Y-15857D01*
X806366Y-15945D01*
X806370Y-15949D01*
X806379Y-15963D01*
X806398Y-15986D01*
X806426Y-16009D01*
X806453Y-16046D01*
X806495Y-16079D01*
X806536Y-16120D01*
X806587Y-16157D01*
X806643Y-16199D01*
X806703Y-16240D01*
X806767Y-16273D01*
X806841Y-16305D01*
X806915Y-16333D01*
X806994Y-16356D01*
X807077Y-16370D01*
X807165Y-16374D01*
X807183D01*
X807206Y-16370D01*
X807239Y-16365D01*
X807280Y-16360D01*
X807322Y-16351D01*
X807373Y-16337D01*
X807428Y-16319D01*
X807488Y-16296D01*
X807548Y-16268D01*
X807613Y-16231D01*
X807678Y-16189D01*
X807742Y-16143D01*
X807807Y-16083D01*
X807872Y-16018D01*
X807932Y-15940D01*
X807936Y-15935D01*
X807946Y-15921D01*
X807959Y-15894D01*
X807983Y-15857D01*
X808006Y-15811D01*
X808033Y-15755D01*
X808066Y-15686D01*
X808093Y-15612D01*
X808126Y-15524D01*
X808154Y-15427D01*
X808181Y-15316D01*
X808204Y-15201D01*
X808227Y-15071D01*
X808241Y-14933D01*
X808251Y-14780D01*
X808255Y-14623D01*
Y-14619D01*
Y-14614D01*
Y-14600D01*
Y-14586D01*
Y-14540D01*
X808251Y-14480D01*
X808246Y-14406D01*
X808237Y-14323D01*
X808227Y-14226D01*
X808214Y-14129D01*
X808200Y-14023D01*
X808177Y-13912D01*
X808149Y-13805D01*
X808121Y-13695D01*
X808080Y-13588D01*
X808038Y-13487D01*
X807987Y-13394D01*
X807932Y-13307D01*
X807927Y-13302D01*
X807918Y-13288D01*
X807899Y-13265D01*
X807872Y-13237D01*
X807844Y-13205D01*
X807802Y-13168D01*
X807761Y-13131D01*
X807710Y-13089D01*
X807654Y-13048D01*
X807594Y-13011D01*
X807530Y-12974D01*
X807460Y-12942D01*
X807382Y-12914D01*
X807303Y-12891D01*
X807220Y-12877D01*
X807133Y-12872D01*
D02*
G37*
%LPD*%
D22*
X7874Y35433D02*
D03*
X271654Y200787D02*
D03*
X7874D02*
D03*
D23*
X111897Y107484D02*
D03*
Y113193D02*
D03*
D27*
X45276Y5118D02*
D03*
D28*
X55276D02*
D03*
X65276D02*
D03*
X75276D02*
D03*
X85276D02*
D03*
X105276D02*
D03*
X115276D02*
D03*
X125276D02*
D03*
X95276D02*
D03*
X135276D02*
D03*
X145276D02*
D03*
X155276D02*
D03*
X165276D02*
D03*
X175276D02*
D03*
X185276D02*
D03*
X195276D02*
D03*
X205276D02*
D03*
X215276D02*
D03*
X225276D02*
D03*
X235276D02*
D03*
X245276D02*
D03*
X255276D02*
D03*
X25276Y195118D02*
D03*
Y185118D02*
D03*
D29*
Y175118D02*
D03*
D30*
X17717Y17717D02*
D03*
X277559D02*
D03*
X17717Y250000D02*
D03*
X277559D02*
D03*
D31*
X268701Y179134D02*
D03*
X281540Y202756D02*
D03*
X281605Y188761D02*
D03*
X102569Y135056D02*
D03*
Y125056D02*
D03*
Y95056D02*
D03*
X287779Y188752D02*
D03*
X70615Y12139D02*
D03*
X102569Y105056D02*
D03*
Y115056D02*
D03*
X185276Y85056D02*
D03*
Y115056D02*
D03*
D32*
X47142Y76670D02*
D03*
X57087Y110236D02*
D03*
X47244Y118110D02*
D03*
X49213Y90551D02*
D03*
X47244Y102362D02*
D03*
X49213Y137795D02*
D03*
X47244Y125984D02*
D03*
D45*
X36811Y110571D02*
D03*
X39370D02*
D03*
X41929D02*
D03*
Y117776D02*
D03*
X39370D02*
D03*
X36811D02*
D03*
D47*
X43015Y90551D02*
D03*
X35725D02*
D03*
X43015Y137795D02*
D03*
X35725D02*
D03*
D50*
X274787Y186459D02*
D03*
X268488D02*
D03*
X281480Y198592D02*
D03*
X287779D02*
D03*
X281480Y192884D02*
D03*
X287779D02*
D03*
D51*
X37041Y76670D02*
D03*
X42552D02*
D03*
D52*
X47343Y110259D02*
D03*
X52658D02*
D03*
D53*
X185276Y91667D02*
D03*
Y98950D02*
D03*
D54*
X36516Y102362D02*
D03*
X42224D02*
D03*
X36516Y125984D02*
D03*
X42224D02*
D03*
D55*
X23622Y113779D02*
D03*
Y102756D02*
D03*
D56*
X75276Y21572D02*
D03*
M02*
