G04*
G04 #@! TF.GenerationSoftware,Altium Limited,Altium Designer,21.5.0 (25)*
G04*
G04 Layer_Color=8388736*
%FSLAX25Y25*%
%MOIN*%
G70*
G04*
G04 #@! TF.SameCoordinates,B52814C9-DCD9-4C92-8852-15DF41944D51*
G04*
G04*
G04 #@! TF.FilePolarity,Negative*
G04*
G01*
G75*
%ADD18R,0.03937X0.03937*%
%ADD22C,0.09843*%
%ADD23R,0.04534X0.04140*%
%ADD24R,0.02368X0.01778*%
%ADD25O,0.10243X0.04337*%
%ADD26R,0.10243X0.04337*%
%ADD27R,0.06699X0.06699*%
%ADD28C,0.06699*%
%ADD29R,0.06699X0.06699*%
%ADD30C,0.00400*%
%ADD31C,0.02762*%
%ADD32C,0.03550*%
G36*
X816419Y-488D02*
X816469D01*
X816525Y-498D01*
X816594Y-502D01*
X816663Y-511D01*
X816742Y-525D01*
X816821Y-539D01*
X816992Y-581D01*
X817075Y-609D01*
X817163Y-636D01*
X817246Y-673D01*
X817329Y-715D01*
X817333Y-719D01*
X817347Y-724D01*
X817370Y-738D01*
X817403Y-756D01*
X817435Y-779D01*
X817477Y-807D01*
X817527Y-844D01*
X817574Y-881D01*
X817629Y-927D01*
X817685Y-973D01*
X817740Y-1029D01*
X817795Y-1089D01*
X817851Y-1149D01*
X817902Y-1218D01*
X817953Y-1292D01*
X817999Y-1371D01*
X818003Y-1375D01*
X818008Y-1389D01*
X818022Y-1412D01*
X818036Y-1445D01*
X818054Y-1486D01*
X818077Y-1537D01*
X818100Y-1592D01*
X818124Y-1653D01*
X818147Y-1726D01*
X818170Y-1800D01*
X818188Y-1884D01*
X818211Y-1971D01*
X818225Y-2064D01*
X818239Y-2161D01*
X818253Y-2262D01*
X818257Y-2369D01*
X817597Y-2429D01*
Y-2420D01*
X817592Y-2401D01*
X817587Y-2369D01*
X817583Y-2327D01*
X817574Y-2276D01*
X817564Y-2221D01*
X817546Y-2156D01*
X817532Y-2082D01*
X817481Y-1934D01*
X817454Y-1860D01*
X817417Y-1787D01*
X817380Y-1713D01*
X817333Y-1643D01*
X817283Y-1579D01*
X817227Y-1519D01*
X817223Y-1514D01*
X817213Y-1505D01*
X817195Y-1491D01*
X817167Y-1472D01*
X817139Y-1449D01*
X817098Y-1422D01*
X817052Y-1398D01*
X817001Y-1366D01*
X816941Y-1338D01*
X816876Y-1315D01*
X816802Y-1288D01*
X816724Y-1264D01*
X816636Y-1246D01*
X816548Y-1232D01*
X816446Y-1223D01*
X816345Y-1218D01*
X816289D01*
X816248Y-1223D01*
X816201Y-1228D01*
X816146Y-1232D01*
X816081Y-1241D01*
X816017Y-1251D01*
X815874Y-1283D01*
X815800Y-1301D01*
X815726Y-1329D01*
X815652Y-1362D01*
X815582Y-1394D01*
X815518Y-1435D01*
X815458Y-1482D01*
X815453Y-1486D01*
X815444Y-1496D01*
X815430Y-1509D01*
X815411Y-1528D01*
X815388Y-1556D01*
X815361Y-1583D01*
X815338Y-1620D01*
X815310Y-1662D01*
X815277Y-1708D01*
X815254Y-1759D01*
X815204Y-1874D01*
X815185Y-1939D01*
X815171Y-2008D01*
X815162Y-2078D01*
X815157Y-2156D01*
Y-2161D01*
Y-2175D01*
Y-2193D01*
X815162Y-2221D01*
Y-2253D01*
X815171Y-2290D01*
X815185Y-2373D01*
X815213Y-2470D01*
X815250Y-2567D01*
X815305Y-2664D01*
X815342Y-2706D01*
X815379Y-2747D01*
X815384D01*
X815388Y-2757D01*
X815407Y-2771D01*
X815425Y-2785D01*
X815453Y-2803D01*
X815490Y-2826D01*
X815536Y-2854D01*
X815587Y-2881D01*
X815652Y-2914D01*
X815721Y-2946D01*
X815804Y-2983D01*
X815897Y-3020D01*
X816003Y-3057D01*
X816118Y-3094D01*
X816248Y-3136D01*
X816386Y-3177D01*
X816396D01*
X816419Y-3186D01*
X816460Y-3196D01*
X816511Y-3214D01*
X816571Y-3228D01*
X816645Y-3251D01*
X816724Y-3274D01*
X816807Y-3302D01*
X816982Y-3357D01*
X817163Y-3417D01*
X817246Y-3450D01*
X817324Y-3482D01*
X817393Y-3510D01*
X817458Y-3542D01*
X817463Y-3547D01*
X817481Y-3551D01*
X817504Y-3565D01*
X817537Y-3588D01*
X817574Y-3611D01*
X817620Y-3639D01*
X817671Y-3676D01*
X817726Y-3713D01*
X817837Y-3805D01*
X817957Y-3916D01*
X818068Y-4041D01*
X818124Y-4106D01*
X818170Y-4180D01*
X818174Y-4184D01*
X818179Y-4198D01*
X818193Y-4221D01*
X818207Y-4249D01*
X818225Y-4286D01*
X818248Y-4332D01*
X818271Y-4383D01*
X818294Y-4443D01*
X818313Y-4508D01*
X818336Y-4582D01*
X818359Y-4660D01*
X818378Y-4739D01*
X818391Y-4826D01*
X818405Y-4919D01*
X818410Y-5016D01*
X818414Y-5118D01*
Y-5122D01*
Y-5141D01*
Y-5168D01*
X818410Y-5210D01*
X818405Y-5256D01*
X818401Y-5312D01*
X818391Y-5376D01*
X818382Y-5446D01*
X818368Y-5520D01*
X818355Y-5598D01*
X818308Y-5764D01*
X818281Y-5847D01*
X818244Y-5935D01*
X818207Y-6023D01*
X818160Y-6106D01*
X818156Y-6111D01*
X818147Y-6125D01*
X818133Y-6148D01*
X818114Y-6180D01*
X818087Y-6217D01*
X818059Y-6259D01*
X818022Y-6305D01*
X817980Y-6356D01*
X817929Y-6411D01*
X817879Y-6467D01*
X817823Y-6522D01*
X817763Y-6577D01*
X817694Y-6633D01*
X817624Y-6684D01*
X817546Y-6735D01*
X817467Y-6781D01*
X817463Y-6785D01*
X817449Y-6790D01*
X817421Y-6804D01*
X817389Y-6818D01*
X817347Y-6836D01*
X817297Y-6855D01*
X817241Y-6873D01*
X817172Y-6896D01*
X817102Y-6919D01*
X817019Y-6938D01*
X816936Y-6956D01*
X816844Y-6975D01*
X816742Y-6989D01*
X816640Y-7002D01*
X816530Y-7007D01*
X816419Y-7012D01*
X816377D01*
X816354Y-7007D01*
X816326D01*
X816262Y-7002D01*
X816178Y-6993D01*
X816086Y-6979D01*
X815980Y-6966D01*
X815869Y-6938D01*
X815749Y-6910D01*
X815624Y-6873D01*
X815495Y-6827D01*
X815365Y-6771D01*
X815241Y-6702D01*
X815116Y-6628D01*
X814996Y-6540D01*
X814885Y-6439D01*
X814880Y-6434D01*
X814862Y-6411D01*
X814834Y-6379D01*
X814797Y-6333D01*
X814751Y-6273D01*
X814705Y-6203D01*
X814654Y-6120D01*
X814598Y-6028D01*
X814543Y-5922D01*
X814492Y-5801D01*
X814441Y-5672D01*
X814400Y-5533D01*
X814358Y-5385D01*
X814330Y-5224D01*
X814307Y-5053D01*
X814298Y-4873D01*
X814945Y-4803D01*
Y-4808D01*
X814950Y-4826D01*
Y-4854D01*
X814954Y-4891D01*
X814963Y-4933D01*
X814973Y-4984D01*
X814982Y-5039D01*
X814991Y-5099D01*
X815023Y-5233D01*
X815065Y-5367D01*
X815116Y-5496D01*
X815144Y-5561D01*
X815176Y-5616D01*
Y-5621D01*
X815185Y-5630D01*
X815194Y-5644D01*
X815208Y-5663D01*
X815254Y-5718D01*
X815310Y-5783D01*
X815384Y-5857D01*
X815476Y-5935D01*
X815578Y-6014D01*
X815698Y-6083D01*
X815703D01*
X815712Y-6092D01*
X815730Y-6097D01*
X815758Y-6111D01*
X815790Y-6125D01*
X815827Y-6139D01*
X815874Y-6152D01*
X815924Y-6171D01*
X815975Y-6189D01*
X816035Y-6203D01*
X816165Y-6231D01*
X816308Y-6250D01*
X816465Y-6259D01*
X816525D01*
X816566Y-6254D01*
X816617Y-6250D01*
X816677Y-6245D01*
X816742Y-6236D01*
X816811Y-6222D01*
X816964Y-6185D01*
X817042Y-6162D01*
X817121Y-6134D01*
X817200Y-6102D01*
X817273Y-6060D01*
X817347Y-6014D01*
X817412Y-5963D01*
X817417Y-5958D01*
X817426Y-5949D01*
X817444Y-5931D01*
X817467Y-5908D01*
X817490Y-5880D01*
X817518Y-5843D01*
X817551Y-5801D01*
X817583Y-5755D01*
X817615Y-5700D01*
X817648Y-5640D01*
X817675Y-5580D01*
X817698Y-5510D01*
X817721Y-5436D01*
X817740Y-5358D01*
X817749Y-5275D01*
X817754Y-5187D01*
Y-5182D01*
Y-5173D01*
Y-5159D01*
Y-5141D01*
X817749Y-5090D01*
X817740Y-5021D01*
X817721Y-4947D01*
X817703Y-4863D01*
X817671Y-4780D01*
X817629Y-4702D01*
Y-4697D01*
X817624Y-4693D01*
X817606Y-4665D01*
X817578Y-4628D01*
X817537Y-4582D01*
X817481Y-4526D01*
X817417Y-4471D01*
X817343Y-4411D01*
X817255Y-4360D01*
X817250D01*
X817241Y-4355D01*
X817227Y-4346D01*
X817204Y-4337D01*
X817172Y-4323D01*
X817135Y-4304D01*
X817089Y-4286D01*
X817029Y-4263D01*
X816964Y-4235D01*
X816890Y-4207D01*
X816802Y-4175D01*
X816705Y-4143D01*
X816594Y-4106D01*
X816474Y-4069D01*
X816340Y-4027D01*
X816192Y-3981D01*
X816183Y-3976D01*
X816160Y-3972D01*
X816123Y-3958D01*
X816072Y-3944D01*
X816012Y-3926D01*
X815943Y-3903D01*
X815869Y-3875D01*
X815790Y-3847D01*
X815615Y-3778D01*
X815444Y-3704D01*
X815361Y-3667D01*
X815282Y-3630D01*
X815213Y-3588D01*
X815148Y-3547D01*
X815144Y-3542D01*
X815134Y-3537D01*
X815121Y-3524D01*
X815097Y-3505D01*
X815070Y-3487D01*
X815042Y-3459D01*
X814973Y-3394D01*
X814894Y-3311D01*
X814816Y-3219D01*
X814737Y-3108D01*
X814668Y-2988D01*
Y-2983D01*
X814659Y-2974D01*
X814654Y-2955D01*
X814640Y-2928D01*
X814626Y-2895D01*
X814612Y-2858D01*
X814598Y-2817D01*
X814585Y-2766D01*
X814566Y-2710D01*
X814552Y-2655D01*
X814524Y-2526D01*
X814506Y-2378D01*
X814497Y-2225D01*
Y-2216D01*
Y-2193D01*
X814501Y-2152D01*
X814506Y-2096D01*
X814511Y-2031D01*
X814524Y-1957D01*
X814538Y-1874D01*
X814557Y-1782D01*
X814585Y-1685D01*
X814617Y-1583D01*
X814654Y-1477D01*
X814705Y-1375D01*
X814760Y-1269D01*
X814825Y-1168D01*
X814899Y-1066D01*
X814987Y-973D01*
X814991Y-969D01*
X815010Y-950D01*
X815037Y-927D01*
X815079Y-895D01*
X815125Y-858D01*
X815185Y-816D01*
X815259Y-775D01*
X815338Y-729D01*
X815430Y-682D01*
X815532Y-641D01*
X815638Y-599D01*
X815758Y-562D01*
X815887Y-530D01*
X816021Y-507D01*
X816169Y-488D01*
X816322Y-484D01*
X816377D01*
X816419Y-488D01*
D02*
G37*
G36*
X827904Y-6905D02*
X827308D01*
Y-6337D01*
X827299Y-6346D01*
X827289Y-6365D01*
X827276Y-6388D01*
X827257Y-6416D01*
X827239Y-6448D01*
X827188Y-6522D01*
X827123Y-6601D01*
X827045Y-6688D01*
X826957Y-6767D01*
X826860Y-6841D01*
X826855D01*
X826846Y-6850D01*
X826832Y-6855D01*
X826814Y-6869D01*
X826791Y-6882D01*
X826758Y-6896D01*
X826689Y-6924D01*
X826601Y-6956D01*
X826499Y-6984D01*
X826393Y-7002D01*
X826278Y-7012D01*
X826250D01*
X826213Y-7007D01*
X826167Y-7002D01*
X826111Y-6993D01*
X826042Y-6979D01*
X825968Y-6961D01*
X825885Y-6933D01*
X825802Y-6901D01*
X825710Y-6859D01*
X825613Y-6808D01*
X825515Y-6748D01*
X825418Y-6679D01*
X825321Y-6596D01*
X825224Y-6499D01*
X825132Y-6388D01*
X825127Y-6379D01*
X825113Y-6360D01*
X825086Y-6323D01*
X825058Y-6273D01*
X825021Y-6208D01*
X824979Y-6129D01*
X824938Y-6037D01*
X824892Y-5931D01*
X824846Y-5815D01*
X824804Y-5681D01*
X824762Y-5538D01*
X824725Y-5376D01*
X824698Y-5210D01*
X824675Y-5025D01*
X824656Y-4831D01*
X824652Y-4623D01*
Y-4614D01*
Y-4591D01*
Y-4549D01*
X824656Y-4494D01*
Y-4425D01*
X824661Y-4351D01*
X824670Y-4263D01*
X824679Y-4166D01*
X824689Y-4064D01*
X824702Y-3963D01*
X824739Y-3741D01*
X824795Y-3519D01*
X824827Y-3408D01*
X824864Y-3306D01*
X824869Y-3302D01*
X824873Y-3283D01*
X824887Y-3256D01*
X824901Y-3219D01*
X824924Y-3173D01*
X824952Y-3122D01*
X824979Y-3062D01*
X825016Y-3002D01*
X825100Y-2868D01*
X825197Y-2734D01*
X825308Y-2609D01*
X825372Y-2549D01*
X825437Y-2498D01*
X825441Y-2493D01*
X825455Y-2489D01*
X825474Y-2475D01*
X825502Y-2456D01*
X825534Y-2438D01*
X825576Y-2415D01*
X825622Y-2392D01*
X825673Y-2364D01*
X825728Y-2341D01*
X825788Y-2318D01*
X825927Y-2276D01*
X825996Y-2258D01*
X826075Y-2244D01*
X826153Y-2239D01*
X826232Y-2235D01*
X826264D01*
X826287Y-2239D01*
X826315D01*
X826347Y-2244D01*
X826421Y-2253D01*
X826513Y-2276D01*
X826610Y-2304D01*
X826712Y-2346D01*
X826814Y-2401D01*
X826818D01*
X826828Y-2410D01*
X826841Y-2420D01*
X826860Y-2433D01*
X826906Y-2470D01*
X826971Y-2521D01*
X827040Y-2586D01*
X827114Y-2669D01*
X827192Y-2761D01*
X827262Y-2868D01*
Y-595D01*
X827904D01*
Y-6905D01*
D02*
G37*
G36*
X810149Y-2239D02*
X810186Y-2244D01*
X810233Y-2248D01*
X810283Y-2258D01*
X810339Y-2267D01*
X810464Y-2299D01*
X810528Y-2318D01*
X810598Y-2346D01*
X810667Y-2378D01*
X810736Y-2410D01*
X810801Y-2452D01*
X810870Y-2498D01*
X810875Y-2503D01*
X810884Y-2512D01*
X810907Y-2526D01*
X810930Y-2549D01*
X810962Y-2577D01*
X810995Y-2609D01*
X811036Y-2651D01*
X811078Y-2697D01*
X811124Y-2747D01*
X811170Y-2808D01*
X811217Y-2872D01*
X811267Y-2946D01*
X811314Y-3025D01*
X811360Y-3108D01*
X811406Y-3200D01*
X811448Y-3297D01*
X811452Y-3302D01*
X811457Y-3320D01*
X811466Y-3353D01*
X811480Y-3394D01*
X811498Y-3445D01*
X811517Y-3505D01*
X811535Y-3579D01*
X811558Y-3658D01*
X811577Y-3750D01*
X811595Y-3847D01*
X811614Y-3953D01*
X811632Y-4069D01*
X811646Y-4189D01*
X811656Y-4314D01*
X811665Y-4448D01*
Y-4586D01*
Y-4591D01*
Y-4600D01*
Y-4614D01*
Y-4637D01*
Y-4665D01*
X811660Y-4697D01*
Y-4734D01*
X811656Y-4780D01*
X811651Y-4877D01*
X811637Y-4988D01*
X811623Y-5113D01*
X811605Y-5247D01*
X811577Y-5390D01*
X811545Y-5538D01*
X811508Y-5686D01*
X811457Y-5838D01*
X811401Y-5986D01*
X811337Y-6125D01*
X811263Y-6259D01*
X811175Y-6383D01*
X811170Y-6388D01*
X811152Y-6411D01*
X811124Y-6443D01*
X811087Y-6481D01*
X811041Y-6531D01*
X810986Y-6582D01*
X810921Y-6638D01*
X810847Y-6698D01*
X810768Y-6758D01*
X810681Y-6813D01*
X810584Y-6864D01*
X810487Y-6915D01*
X810380Y-6952D01*
X810265Y-6984D01*
X810149Y-7002D01*
X810029Y-7012D01*
X810001D01*
X809978Y-7007D01*
X809955D01*
X809923Y-7002D01*
X809849Y-6993D01*
X809766Y-6975D01*
X809674Y-6947D01*
X809577Y-6915D01*
X809479Y-6864D01*
X809475D01*
X809470Y-6855D01*
X809456Y-6850D01*
X809438Y-6836D01*
X809392Y-6799D01*
X809332Y-6753D01*
X809262Y-6693D01*
X809193Y-6619D01*
X809119Y-6536D01*
X809045Y-6439D01*
Y-8657D01*
X808412D01*
Y-2336D01*
X808999D01*
Y-2932D01*
X809004Y-2928D01*
X809008Y-2914D01*
X809022Y-2895D01*
X809036Y-2872D01*
X809054Y-2840D01*
X809082Y-2808D01*
X809138Y-2729D01*
X809207Y-2641D01*
X809285Y-2554D01*
X809378Y-2470D01*
X809424Y-2433D01*
X809470Y-2401D01*
X809475D01*
X809484Y-2392D01*
X809498Y-2387D01*
X809516Y-2373D01*
X809544Y-2364D01*
X809572Y-2350D01*
X809646Y-2318D01*
X809733Y-2286D01*
X809835Y-2262D01*
X809951Y-2244D01*
X810075Y-2235D01*
X810117D01*
X810149Y-2239D01*
D02*
G37*
G36*
X834367Y-2239D02*
X834395Y-2244D01*
X834432Y-2248D01*
X834469Y-2253D01*
X834515Y-2267D01*
X834612Y-2295D01*
X834723Y-2341D01*
X834779Y-2369D01*
X834839Y-2401D01*
X834903Y-2438D01*
X834963Y-2484D01*
X834746Y-3205D01*
X834742D01*
X834737Y-3196D01*
X834723Y-3191D01*
X834705Y-3177D01*
X834658Y-3149D01*
X834598Y-3117D01*
X834529Y-3089D01*
X834451Y-3062D01*
X834367Y-3043D01*
X834284Y-3034D01*
X834252D01*
X834210Y-3043D01*
X834159Y-3052D01*
X834104Y-3071D01*
X834039Y-3094D01*
X833975Y-3131D01*
X833910Y-3177D01*
X833901Y-3182D01*
X833882Y-3205D01*
X833855Y-3237D01*
X833818Y-3279D01*
X833781Y-3339D01*
X833744Y-3404D01*
X833707Y-3482D01*
X833679Y-3574D01*
Y-3579D01*
X833674Y-3593D01*
X833670Y-3621D01*
X833661Y-3653D01*
X833651Y-3695D01*
X833642Y-3741D01*
X833628Y-3796D01*
X833619Y-3856D01*
X833610Y-3926D01*
X833596Y-3999D01*
X833587Y-4078D01*
X833577Y-4161D01*
X833564Y-4332D01*
X833559Y-4517D01*
Y-6905D01*
X832926D01*
Y-2336D01*
X833499D01*
Y-3034D01*
X833503Y-3029D01*
X833508Y-3011D01*
X833522Y-2988D01*
X833536Y-2955D01*
X833554Y-2918D01*
X833577Y-2872D01*
X833628Y-2771D01*
X833693Y-2664D01*
X833757Y-2558D01*
X833794Y-2507D01*
X833827Y-2466D01*
X833864Y-2424D01*
X833896Y-2392D01*
X833905Y-2387D01*
X833928Y-2369D01*
X833965Y-2341D01*
X834016Y-2313D01*
X834081Y-2286D01*
X834150Y-2258D01*
X834229Y-2239D01*
X834312Y-2235D01*
X834344D01*
X834367Y-2239D01*
D02*
G37*
G36*
X848754D02*
X848796Y-2244D01*
X848847Y-2248D01*
X848897Y-2253D01*
X849013Y-2272D01*
X849137Y-2299D01*
X849262Y-2336D01*
X849382Y-2387D01*
X849387D01*
X849396Y-2392D01*
X849415Y-2401D01*
X849433Y-2415D01*
X849461Y-2429D01*
X849493Y-2447D01*
X849563Y-2493D01*
X849641Y-2554D01*
X849720Y-2623D01*
X849798Y-2701D01*
X849868Y-2794D01*
Y-2798D01*
X849877Y-2808D01*
X849886Y-2821D01*
X849895Y-2840D01*
X849909Y-2868D01*
X849923Y-2900D01*
X849941Y-2937D01*
X849960Y-2978D01*
X849978Y-3029D01*
X850002Y-3080D01*
X850020Y-3140D01*
X850038Y-3205D01*
X850057Y-3279D01*
X850075Y-3353D01*
X850089Y-3431D01*
X850103Y-3519D01*
X849484Y-3621D01*
Y-3611D01*
X849479Y-3588D01*
X849470Y-3551D01*
X849461Y-3505D01*
X849442Y-3445D01*
X849419Y-3385D01*
X849387Y-3316D01*
X849350Y-3246D01*
X849304Y-3177D01*
X849244Y-3108D01*
X849179Y-3048D01*
X849101Y-2988D01*
X849013Y-2942D01*
X848911Y-2905D01*
X848796Y-2881D01*
X848666Y-2872D01*
X848625D01*
X848597Y-2877D01*
X848565D01*
X848523Y-2881D01*
X848435Y-2891D01*
X848334Y-2914D01*
X848232Y-2942D01*
X848130Y-2983D01*
X848089Y-3011D01*
X848047Y-3039D01*
X848038Y-3048D01*
X848015Y-3066D01*
X847983Y-3103D01*
X847950Y-3154D01*
X847913Y-3214D01*
X847881Y-3288D01*
X847858Y-3371D01*
X847853Y-3417D01*
X847849Y-3464D01*
Y-3468D01*
Y-3473D01*
Y-3487D01*
X847853Y-3505D01*
X847858Y-3551D01*
X847872Y-3607D01*
X847895Y-3672D01*
X847932Y-3736D01*
X847978Y-3801D01*
X848043Y-3861D01*
X848047Y-3866D01*
X848056Y-3870D01*
X848070Y-3879D01*
X848089Y-3889D01*
X848112Y-3898D01*
X848140Y-3912D01*
X848172Y-3926D01*
X848213Y-3944D01*
X848264Y-3967D01*
X848320Y-3990D01*
X848384Y-4013D01*
X848458Y-4041D01*
X848542Y-4069D01*
X848634Y-4101D01*
X848736Y-4134D01*
X848740D01*
X848745Y-4138D01*
X848768Y-4143D01*
X848810Y-4157D01*
X848865Y-4175D01*
X848925Y-4194D01*
X848999Y-4221D01*
X849078Y-4249D01*
X849161Y-4277D01*
X849332Y-4341D01*
X849419Y-4374D01*
X849498Y-4406D01*
X849576Y-4438D01*
X849646Y-4471D01*
X849706Y-4503D01*
X849757Y-4531D01*
X849761D01*
X849766Y-4535D01*
X849794Y-4558D01*
X849835Y-4591D01*
X849891Y-4637D01*
X849946Y-4697D01*
X850006Y-4766D01*
X850066Y-4845D01*
X850117Y-4937D01*
Y-4942D01*
X850122Y-4947D01*
X850131Y-4965D01*
X850135Y-4984D01*
X850149Y-5007D01*
X850159Y-5034D01*
X850182Y-5108D01*
X850205Y-5196D01*
X850228Y-5302D01*
X850242Y-5418D01*
X850246Y-5547D01*
Y-5556D01*
Y-5575D01*
X850242Y-5612D01*
Y-5658D01*
X850233Y-5714D01*
X850223Y-5778D01*
X850209Y-5847D01*
X850196Y-5926D01*
X850172Y-6009D01*
X850145Y-6097D01*
X850112Y-6185D01*
X850071Y-6273D01*
X850025Y-6360D01*
X849969Y-6448D01*
X849904Y-6531D01*
X849831Y-6610D01*
X849826Y-6614D01*
X849812Y-6628D01*
X849789Y-6647D01*
X849757Y-6674D01*
X849710Y-6702D01*
X849660Y-6735D01*
X849599Y-6771D01*
X849535Y-6808D01*
X849456Y-6850D01*
X849368Y-6882D01*
X849276Y-6919D01*
X849174Y-6947D01*
X849068Y-6975D01*
X848948Y-6993D01*
X848828Y-7007D01*
X848694Y-7012D01*
X848662D01*
X848634Y-7007D01*
X848606D01*
X848569Y-7002D01*
X848528Y-6998D01*
X848481Y-6989D01*
X848375Y-6966D01*
X848255Y-6933D01*
X848126Y-6887D01*
X847992Y-6827D01*
X847923Y-6790D01*
X847858Y-6748D01*
X847789Y-6702D01*
X847719Y-6651D01*
X847655Y-6596D01*
X847590Y-6531D01*
X847525Y-6467D01*
X847465Y-6388D01*
X847410Y-6310D01*
X847354Y-6222D01*
X847308Y-6125D01*
X847262Y-6023D01*
X847220Y-5917D01*
X847183Y-5797D01*
X847155Y-5672D01*
X847132Y-5538D01*
X847765Y-5418D01*
Y-5423D01*
X847770Y-5441D01*
Y-5464D01*
X847779Y-5496D01*
X847784Y-5538D01*
X847798Y-5584D01*
X847807Y-5635D01*
X847825Y-5690D01*
X847862Y-5806D01*
X847918Y-5926D01*
X847983Y-6042D01*
X848024Y-6092D01*
X848066Y-6139D01*
X848070Y-6143D01*
X848079Y-6148D01*
X848093Y-6162D01*
X848112Y-6176D01*
X848135Y-6194D01*
X848167Y-6213D01*
X848204Y-6236D01*
X848241Y-6254D01*
X848287Y-6277D01*
X848338Y-6300D01*
X848394Y-6319D01*
X848454Y-6337D01*
X848583Y-6365D01*
X848657Y-6370D01*
X848731Y-6374D01*
X848773D01*
X848800Y-6370D01*
X848833D01*
X848874Y-6365D01*
X848967Y-6346D01*
X849068Y-6323D01*
X849174Y-6286D01*
X849276Y-6236D01*
X849322Y-6208D01*
X849368Y-6171D01*
X849373Y-6166D01*
X849378Y-6162D01*
X849405Y-6134D01*
X849442Y-6088D01*
X849484Y-6028D01*
X849526Y-5954D01*
X849558Y-5866D01*
X849586Y-5764D01*
X849590Y-5709D01*
X849595Y-5654D01*
Y-5649D01*
Y-5640D01*
Y-5626D01*
X849590Y-5607D01*
X849586Y-5561D01*
X849572Y-5496D01*
X849549Y-5432D01*
X849512Y-5362D01*
X849465Y-5293D01*
X849401Y-5233D01*
X849396Y-5228D01*
X849373Y-5215D01*
X849355Y-5205D01*
X849332Y-5192D01*
X849304Y-5178D01*
X849271Y-5159D01*
X849230Y-5141D01*
X849184Y-5122D01*
X849133Y-5104D01*
X849073Y-5081D01*
X849004Y-5053D01*
X848930Y-5030D01*
X848847Y-5002D01*
X848754Y-4974D01*
X848745Y-4970D01*
X848722Y-4965D01*
X848685Y-4951D01*
X848634Y-4937D01*
X848574Y-4919D01*
X848509Y-4896D01*
X848431Y-4868D01*
X848352Y-4840D01*
X848186Y-4780D01*
X848024Y-4716D01*
X847946Y-4683D01*
X847876Y-4651D01*
X847816Y-4623D01*
X847761Y-4591D01*
X847756D01*
X847752Y-4582D01*
X847738Y-4572D01*
X847719Y-4563D01*
X847673Y-4526D01*
X847618Y-4475D01*
X847558Y-4415D01*
X847493Y-4341D01*
X847428Y-4258D01*
X847373Y-4161D01*
Y-4157D01*
X847368Y-4147D01*
X847359Y-4134D01*
X847354Y-4115D01*
X847340Y-4087D01*
X847331Y-4060D01*
X847308Y-3986D01*
X847280Y-3893D01*
X847262Y-3792D01*
X847243Y-3681D01*
X847239Y-3556D01*
Y-3551D01*
Y-3528D01*
X847243Y-3501D01*
Y-3459D01*
X847253Y-3408D01*
X847257Y-3353D01*
X847271Y-3288D01*
X847285Y-3219D01*
X847303Y-3145D01*
X847331Y-3066D01*
X847359Y-2988D01*
X847396Y-2905D01*
X847437Y-2826D01*
X847488Y-2752D01*
X847548Y-2674D01*
X847613Y-2604D01*
X847618Y-2600D01*
X847631Y-2590D01*
X847650Y-2572D01*
X847682Y-2544D01*
X847719Y-2517D01*
X847765Y-2489D01*
X847821Y-2452D01*
X847881Y-2420D01*
X847955Y-2387D01*
X848029Y-2350D01*
X848116Y-2323D01*
X848209Y-2290D01*
X848306Y-2267D01*
X848412Y-2248D01*
X848528Y-2239D01*
X848648Y-2235D01*
X848717D01*
X848754Y-2239D01*
D02*
G37*
G36*
X842346Y-6905D02*
X841685D01*
Y-1625D01*
X840179Y-6905D01*
X839560D01*
X838068Y-1537D01*
Y-6905D01*
X837407D01*
Y-595D01*
X838438D01*
X839662Y-5067D01*
X839907Y-6000D01*
Y-5995D01*
X839911Y-5982D01*
X839916Y-5963D01*
X839925Y-5935D01*
X839935Y-5898D01*
X839944Y-5852D01*
X839962Y-5801D01*
X839976Y-5741D01*
X839995Y-5672D01*
X840013Y-5598D01*
X840036Y-5515D01*
X840064Y-5427D01*
X840092Y-5325D01*
X840119Y-5219D01*
X840152Y-5108D01*
X840184Y-4988D01*
X841422Y-595D01*
X842346D01*
Y-6905D01*
D02*
G37*
G36*
X851642Y-4203D02*
X853143Y-2336D01*
X853965D01*
X852533Y-4036D01*
X854109Y-6905D01*
X853328D01*
X852085Y-4568D01*
X851642Y-5094D01*
Y-6905D01*
X851009D01*
Y-595D01*
X851642D01*
Y-4203D01*
D02*
G37*
G36*
X845049Y-2239D02*
X845100D01*
X845155Y-2244D01*
X845220Y-2253D01*
X845289Y-2262D01*
X845437Y-2290D01*
X845589Y-2327D01*
X845742Y-2382D01*
X845811Y-2420D01*
X845876Y-2456D01*
X845880Y-2461D01*
X845890Y-2466D01*
X845908Y-2479D01*
X845931Y-2498D01*
X845987Y-2544D01*
X846056Y-2609D01*
X846130Y-2687D01*
X846199Y-2780D01*
X846259Y-2886D01*
X846282Y-2946D01*
X846301Y-3006D01*
Y-3011D01*
X846305Y-3020D01*
X846310Y-3039D01*
X846315Y-3066D01*
X846324Y-3103D01*
X846329Y-3145D01*
X846338Y-3191D01*
X846347Y-3246D01*
X846356Y-3311D01*
X846366Y-3385D01*
X846370Y-3464D01*
X846379Y-3547D01*
X846384Y-3639D01*
X846389Y-3741D01*
X846393Y-3847D01*
Y-3963D01*
Y-4993D01*
Y-4997D01*
Y-5007D01*
Y-5020D01*
Y-5039D01*
Y-5067D01*
Y-5094D01*
Y-5168D01*
Y-5252D01*
Y-5353D01*
X846398Y-5459D01*
Y-5570D01*
X846402Y-5806D01*
X846407Y-5917D01*
Y-6028D01*
X846412Y-6129D01*
X846416Y-6222D01*
X846426Y-6300D01*
Y-6333D01*
X846430Y-6360D01*
Y-6365D01*
Y-6374D01*
X846435Y-6388D01*
X846439Y-6407D01*
X846444Y-6434D01*
X846449Y-6462D01*
X846467Y-6536D01*
X846490Y-6619D01*
X846518Y-6707D01*
X846555Y-6808D01*
X846597Y-6905D01*
X845936D01*
Y-6901D01*
X845931Y-6896D01*
X845927Y-6882D01*
X845917Y-6864D01*
X845913Y-6841D01*
X845899Y-6813D01*
X845880Y-6748D01*
X845857Y-6665D01*
X845834Y-6573D01*
X845816Y-6467D01*
X845802Y-6346D01*
X845797Y-6351D01*
X845788Y-6360D01*
X845770Y-6379D01*
X845746Y-6402D01*
X845719Y-6430D01*
X845682Y-6462D01*
X845645Y-6494D01*
X845599Y-6531D01*
X845502Y-6614D01*
X845386Y-6698D01*
X845266Y-6776D01*
X845137Y-6845D01*
X845132D01*
X845123Y-6855D01*
X845104Y-6859D01*
X845076Y-6873D01*
X845044Y-6882D01*
X845007Y-6896D01*
X844966Y-6915D01*
X844919Y-6929D01*
X844809Y-6961D01*
X844689Y-6984D01*
X844559Y-7002D01*
X844421Y-7012D01*
X844393D01*
X844365Y-7007D01*
X844324D01*
X844273Y-7002D01*
X844217Y-6993D01*
X844153Y-6984D01*
X844083Y-6966D01*
X844009Y-6947D01*
X843935Y-6924D01*
X843857Y-6896D01*
X843778Y-6864D01*
X843704Y-6822D01*
X843626Y-6776D01*
X843557Y-6721D01*
X843487Y-6661D01*
X843483Y-6656D01*
X843473Y-6642D01*
X843455Y-6624D01*
X843432Y-6596D01*
X843409Y-6559D01*
X843376Y-6517D01*
X843349Y-6467D01*
X843316Y-6411D01*
X843284Y-6346D01*
X843252Y-6273D01*
X843219Y-6194D01*
X843196Y-6111D01*
X843173Y-6019D01*
X843155Y-5921D01*
X843145Y-5820D01*
X843141Y-5709D01*
Y-5704D01*
Y-5690D01*
Y-5672D01*
X843145Y-5640D01*
Y-5607D01*
X843150Y-5566D01*
X843155Y-5520D01*
X843159Y-5473D01*
X843182Y-5362D01*
X843210Y-5247D01*
X843247Y-5122D01*
X843303Y-5007D01*
Y-5002D01*
X843312Y-4993D01*
X843321Y-4979D01*
X843330Y-4956D01*
X843367Y-4900D01*
X843418Y-4831D01*
X843483Y-4757D01*
X843557Y-4679D01*
X843644Y-4600D01*
X843746Y-4531D01*
X843751D01*
X843760Y-4522D01*
X843778Y-4512D01*
X843801Y-4503D01*
X843829Y-4489D01*
X843866Y-4471D01*
X843912Y-4452D01*
X843963Y-4434D01*
X844019Y-4411D01*
X844083Y-4392D01*
X844153Y-4369D01*
X844231Y-4346D01*
X844314Y-4327D01*
X844407Y-4309D01*
X844504Y-4291D01*
X844610Y-4272D01*
X844619D01*
X844642Y-4267D01*
X844684Y-4263D01*
X844739Y-4254D01*
X844799Y-4240D01*
X844873Y-4231D01*
X844956Y-4212D01*
X845044Y-4198D01*
X845229Y-4157D01*
X845418Y-4110D01*
X845511Y-4087D01*
X845599Y-4060D01*
X845677Y-4032D01*
X845751Y-4004D01*
X845756Y-3810D01*
Y-3805D01*
Y-3792D01*
Y-3764D01*
X845751Y-3732D01*
Y-3695D01*
X845746Y-3653D01*
X845733Y-3551D01*
X845714Y-3441D01*
X845682Y-3334D01*
X845640Y-3233D01*
X845617Y-3186D01*
X845585Y-3149D01*
X845580Y-3145D01*
X845576Y-3136D01*
X845562Y-3122D01*
X845539Y-3108D01*
X845515Y-3085D01*
X845483Y-3062D01*
X845446Y-3039D01*
X845405Y-3011D01*
X845358Y-2983D01*
X845303Y-2960D01*
X845243Y-2937D01*
X845178Y-2914D01*
X845104Y-2900D01*
X845030Y-2886D01*
X844943Y-2877D01*
X844855Y-2872D01*
X844813D01*
X844781Y-2877D01*
X844744D01*
X844702Y-2881D01*
X844605Y-2895D01*
X844499Y-2918D01*
X844388Y-2951D01*
X844282Y-2997D01*
X844236Y-3025D01*
X844189Y-3057D01*
X844185D01*
X844180Y-3066D01*
X844171Y-3076D01*
X844153Y-3094D01*
X844134Y-3117D01*
X844116Y-3140D01*
X844092Y-3173D01*
X844069Y-3214D01*
X844042Y-3256D01*
X844019Y-3306D01*
X843991Y-3362D01*
X843963Y-3427D01*
X843940Y-3496D01*
X843912Y-3570D01*
X843889Y-3653D01*
X843871Y-3745D01*
X843247Y-3644D01*
Y-3635D01*
X843252Y-3611D01*
X843261Y-3574D01*
X843275Y-3524D01*
X843289Y-3464D01*
X843312Y-3394D01*
X843335Y-3316D01*
X843363Y-3233D01*
X843395Y-3149D01*
X843436Y-3057D01*
X843478Y-2969D01*
X843529Y-2881D01*
X843584Y-2794D01*
X843644Y-2715D01*
X843709Y-2641D01*
X843783Y-2572D01*
X843788Y-2567D01*
X843801Y-2558D01*
X843824Y-2540D01*
X843861Y-2521D01*
X843903Y-2493D01*
X843954Y-2466D01*
X844014Y-2433D01*
X844083Y-2401D01*
X844162Y-2373D01*
X844250Y-2341D01*
X844347Y-2313D01*
X844448Y-2286D01*
X844564Y-2267D01*
X844684Y-2248D01*
X844813Y-2239D01*
X844952Y-2235D01*
X845007D01*
X845049Y-2239D01*
D02*
G37*
G36*
X823889Y-6905D02*
X823256D01*
Y-595D01*
X823889D01*
Y-6905D01*
D02*
G37*
G36*
X803788Y-1338D02*
X802074D01*
Y-6905D01*
X801390D01*
Y-1338D01*
X799685D01*
Y-595D01*
X803788D01*
Y-1338D01*
D02*
G37*
G36*
X830510Y-2239D02*
X830560Y-2244D01*
X830625Y-2253D01*
X830694Y-2267D01*
X830778Y-2286D01*
X830865Y-2313D01*
X830958Y-2346D01*
X831055Y-2382D01*
X831157Y-2433D01*
X831258Y-2493D01*
X831360Y-2563D01*
X831461Y-2646D01*
X831558Y-2743D01*
X831651Y-2849D01*
X831655Y-2858D01*
X831674Y-2877D01*
X831697Y-2914D01*
X831725Y-2965D01*
X831762Y-3025D01*
X831803Y-3103D01*
X831849Y-3196D01*
X831896Y-3297D01*
X831937Y-3417D01*
X831983Y-3547D01*
X832025Y-3695D01*
X832062Y-3852D01*
X832090Y-4023D01*
X832117Y-4207D01*
X832131Y-4406D01*
X832136Y-4619D01*
Y-4822D01*
X829341D01*
Y-4831D01*
X829345Y-4854D01*
Y-4896D01*
X829350Y-4947D01*
X829359Y-5011D01*
X829368Y-5085D01*
X829382Y-5168D01*
X829401Y-5256D01*
X829443Y-5446D01*
X829470Y-5543D01*
X829502Y-5640D01*
X829544Y-5732D01*
X829586Y-5824D01*
X829636Y-5908D01*
X829692Y-5986D01*
X829697Y-5991D01*
X829706Y-6005D01*
X829724Y-6023D01*
X829747Y-6046D01*
X829780Y-6074D01*
X829817Y-6111D01*
X829858Y-6143D01*
X829909Y-6180D01*
X829965Y-6217D01*
X830020Y-6250D01*
X830085Y-6282D01*
X830154Y-6314D01*
X830228Y-6337D01*
X830302Y-6356D01*
X830385Y-6370D01*
X830468Y-6374D01*
X830500D01*
X830537Y-6370D01*
X830584Y-6360D01*
X830644Y-6346D01*
X830708Y-6323D01*
X830782Y-6296D01*
X830861Y-6259D01*
X830939Y-6208D01*
X831022Y-6143D01*
X831106Y-6069D01*
X831189Y-5977D01*
X831267Y-5871D01*
X831304Y-5811D01*
X831337Y-5746D01*
X831374Y-5677D01*
X831406Y-5603D01*
X831434Y-5520D01*
X831461Y-5436D01*
X832117Y-5533D01*
Y-5543D01*
X832108Y-5566D01*
X832099Y-5603D01*
X832085Y-5654D01*
X832067Y-5714D01*
X832043Y-5787D01*
X832016Y-5861D01*
X831979Y-5949D01*
X831942Y-6037D01*
X831900Y-6125D01*
X831849Y-6217D01*
X831794Y-6310D01*
X831734Y-6402D01*
X831669Y-6485D01*
X831600Y-6568D01*
X831522Y-6642D01*
X831517Y-6647D01*
X831503Y-6656D01*
X831480Y-6674D01*
X831448Y-6698D01*
X831406Y-6730D01*
X831355Y-6758D01*
X831295Y-6795D01*
X831230Y-6827D01*
X831157Y-6859D01*
X831078Y-6896D01*
X830990Y-6924D01*
X830898Y-6952D01*
X830796Y-6979D01*
X830690Y-6998D01*
X830579Y-7007D01*
X830464Y-7012D01*
X830427D01*
X830385Y-7007D01*
X830330Y-7002D01*
X830265Y-6993D01*
X830186Y-6979D01*
X830099Y-6961D01*
X830006Y-6938D01*
X829904Y-6905D01*
X829798Y-6864D01*
X829692Y-6818D01*
X829586Y-6758D01*
X829479Y-6688D01*
X829373Y-6610D01*
X829272Y-6517D01*
X829175Y-6411D01*
X829170Y-6402D01*
X829151Y-6383D01*
X829128Y-6346D01*
X829096Y-6300D01*
X829059Y-6236D01*
X829017Y-6157D01*
X828976Y-6069D01*
X828930Y-5968D01*
X828883Y-5847D01*
X828842Y-5718D01*
X828800Y-5575D01*
X828763Y-5418D01*
X828731Y-5252D01*
X828708Y-5067D01*
X828689Y-4873D01*
X828685Y-4665D01*
Y-4660D01*
Y-4651D01*
Y-4637D01*
Y-4614D01*
Y-4586D01*
X828689Y-4549D01*
Y-4512D01*
X828694Y-4471D01*
X828699Y-4369D01*
X828712Y-4258D01*
X828726Y-4134D01*
X828745Y-3995D01*
X828773Y-3852D01*
X828805Y-3704D01*
X828846Y-3551D01*
X828893Y-3404D01*
X828948Y-3256D01*
X829017Y-3117D01*
X829091Y-2983D01*
X829179Y-2858D01*
X829184Y-2849D01*
X829202Y-2831D01*
X829230Y-2803D01*
X829267Y-2761D01*
X829318Y-2715D01*
X829378Y-2660D01*
X829447Y-2604D01*
X829526Y-2544D01*
X829609Y-2489D01*
X829706Y-2433D01*
X829812Y-2378D01*
X829923Y-2332D01*
X830043Y-2290D01*
X830168Y-2262D01*
X830302Y-2239D01*
X830440Y-2235D01*
X830473D01*
X830510Y-2239D01*
D02*
G37*
G36*
X820845Y-2239D02*
X820895Y-2244D01*
X820960Y-2253D01*
X821034Y-2267D01*
X821117Y-2286D01*
X821210Y-2309D01*
X821307Y-2341D01*
X821404Y-2382D01*
X821510Y-2433D01*
X821616Y-2489D01*
X821722Y-2558D01*
X821824Y-2641D01*
X821926Y-2734D01*
X822023Y-2840D01*
X822027Y-2844D01*
X822046Y-2868D01*
X822069Y-2905D01*
X822101Y-2951D01*
X822138Y-3015D01*
X822184Y-3089D01*
X822226Y-3177D01*
X822277Y-3283D01*
X822323Y-3399D01*
X822369Y-3528D01*
X822411Y-3672D01*
X822448Y-3824D01*
X822480Y-3995D01*
X822503Y-4175D01*
X822522Y-4369D01*
X822526Y-4577D01*
Y-4582D01*
Y-4591D01*
Y-4609D01*
Y-4632D01*
Y-4660D01*
X822522Y-4693D01*
Y-4734D01*
X822517Y-4780D01*
X822513Y-4882D01*
X822499Y-4997D01*
X822485Y-5127D01*
X822466Y-5270D01*
X822439Y-5418D01*
X822406Y-5566D01*
X822365Y-5718D01*
X822314Y-5871D01*
X822258Y-6019D01*
X822194Y-6162D01*
X822115Y-6291D01*
X822027Y-6411D01*
X822023Y-6416D01*
X822004Y-6439D01*
X821976Y-6467D01*
X821940Y-6504D01*
X821889Y-6550D01*
X821829Y-6601D01*
X821764Y-6656D01*
X821686Y-6712D01*
X821598Y-6767D01*
X821505Y-6822D01*
X821399Y-6873D01*
X821288Y-6919D01*
X821168Y-6956D01*
X821043Y-6984D01*
X820909Y-7007D01*
X820771Y-7012D01*
X820738D01*
X820697Y-7007D01*
X820646Y-7002D01*
X820581Y-6993D01*
X820507Y-6979D01*
X820424Y-6961D01*
X820332Y-6938D01*
X820235Y-6905D01*
X820133Y-6864D01*
X820027Y-6818D01*
X819925Y-6758D01*
X819819Y-6688D01*
X819713Y-6610D01*
X819611Y-6517D01*
X819514Y-6411D01*
X819510Y-6402D01*
X819491Y-6383D01*
X819468Y-6346D01*
X819436Y-6296D01*
X819399Y-6236D01*
X819357Y-6157D01*
X819311Y-6065D01*
X819265Y-5958D01*
X819218Y-5843D01*
X819172Y-5709D01*
X819131Y-5561D01*
X819094Y-5399D01*
X819061Y-5229D01*
X819038Y-5039D01*
X819020Y-4840D01*
X819015Y-4623D01*
Y-4619D01*
Y-4609D01*
Y-4595D01*
Y-4572D01*
Y-4545D01*
X819020Y-4508D01*
Y-4471D01*
X819024Y-4429D01*
X819029Y-4332D01*
X819043Y-4217D01*
X819057Y-4092D01*
X819075Y-3958D01*
X819103Y-3815D01*
X819135Y-3667D01*
X819177Y-3519D01*
X819223Y-3371D01*
X819279Y-3228D01*
X819348Y-3089D01*
X819422Y-2960D01*
X819510Y-2840D01*
X819514Y-2831D01*
X819533Y-2812D01*
X819560Y-2785D01*
X819597Y-2743D01*
X819648Y-2701D01*
X819708Y-2651D01*
X819777Y-2595D01*
X819856Y-2535D01*
X819939Y-2480D01*
X820036Y-2424D01*
X820142Y-2373D01*
X820253Y-2327D01*
X820373Y-2290D01*
X820498Y-2262D01*
X820632Y-2239D01*
X820771Y-2235D01*
X820803D01*
X820845Y-2239D01*
D02*
G37*
G36*
X805978D02*
X806028Y-2244D01*
X806093Y-2253D01*
X806167Y-2267D01*
X806250Y-2286D01*
X806343Y-2309D01*
X806439Y-2341D01*
X806536Y-2382D01*
X806643Y-2433D01*
X806749Y-2489D01*
X806855Y-2558D01*
X806957Y-2641D01*
X807059Y-2734D01*
X807156Y-2840D01*
X807160Y-2844D01*
X807179Y-2868D01*
X807202Y-2905D01*
X807234Y-2951D01*
X807271Y-3015D01*
X807317Y-3089D01*
X807359Y-3177D01*
X807410Y-3283D01*
X807456Y-3399D01*
X807502Y-3528D01*
X807544Y-3672D01*
X807581Y-3824D01*
X807613Y-3995D01*
X807636Y-4175D01*
X807654Y-4369D01*
X807659Y-4577D01*
Y-4582D01*
Y-4591D01*
Y-4609D01*
Y-4632D01*
Y-4660D01*
X807654Y-4693D01*
Y-4734D01*
X807650Y-4780D01*
X807645Y-4882D01*
X807631Y-4997D01*
X807618Y-5127D01*
X807599Y-5270D01*
X807571Y-5418D01*
X807539Y-5566D01*
X807498Y-5718D01*
X807447Y-5871D01*
X807391Y-6019D01*
X807327Y-6162D01*
X807248Y-6291D01*
X807160Y-6411D01*
X807156Y-6416D01*
X807137Y-6439D01*
X807109Y-6467D01*
X807072Y-6504D01*
X807022Y-6550D01*
X806962Y-6601D01*
X806897Y-6656D01*
X806818Y-6712D01*
X806730Y-6767D01*
X806638Y-6822D01*
X806532Y-6873D01*
X806421Y-6919D01*
X806301Y-6956D01*
X806176Y-6984D01*
X806042Y-7007D01*
X805904Y-7012D01*
X805871D01*
X805830Y-7007D01*
X805779Y-7002D01*
X805714Y-6993D01*
X805640Y-6979D01*
X805557Y-6961D01*
X805465Y-6938D01*
X805368Y-6905D01*
X805266Y-6864D01*
X805160Y-6818D01*
X805058Y-6758D01*
X804952Y-6688D01*
X804846Y-6610D01*
X804744Y-6517D01*
X804647Y-6411D01*
X804642Y-6402D01*
X804624Y-6383D01*
X804601Y-6346D01*
X804568Y-6296D01*
X804531Y-6236D01*
X804490Y-6157D01*
X804444Y-6065D01*
X804397Y-5958D01*
X804351Y-5843D01*
X804305Y-5709D01*
X804263Y-5561D01*
X804226Y-5399D01*
X804194Y-5229D01*
X804171Y-5039D01*
X804153Y-4840D01*
X804148Y-4623D01*
Y-4619D01*
Y-4609D01*
Y-4595D01*
Y-4572D01*
Y-4545D01*
X804153Y-4508D01*
Y-4471D01*
X804157Y-4429D01*
X804162Y-4332D01*
X804176Y-4217D01*
X804189Y-4092D01*
X804208Y-3958D01*
X804236Y-3815D01*
X804268Y-3667D01*
X804310Y-3519D01*
X804356Y-3371D01*
X804411Y-3228D01*
X804481Y-3089D01*
X804554Y-2960D01*
X804642Y-2840D01*
X804647Y-2831D01*
X804665Y-2812D01*
X804693Y-2785D01*
X804730Y-2743D01*
X804781Y-2701D01*
X804841Y-2651D01*
X804910Y-2595D01*
X804989Y-2535D01*
X805072Y-2480D01*
X805169Y-2424D01*
X805275Y-2373D01*
X805386Y-2327D01*
X805506Y-2290D01*
X805631Y-2262D01*
X805765Y-2239D01*
X805904Y-2235D01*
X805936D01*
X805978Y-2239D01*
D02*
G37*
G36*
X814312Y-11486D02*
X813679D01*
Y-10595D01*
X814312D01*
Y-11486D01*
D02*
G37*
G36*
X874714Y-10488D02*
X874765D01*
X874820Y-10498D01*
X874889Y-10502D01*
X874959Y-10511D01*
X875037Y-10525D01*
X875116Y-10539D01*
X875287Y-10581D01*
X875370Y-10608D01*
X875458Y-10636D01*
X875541Y-10673D01*
X875624Y-10715D01*
X875629Y-10719D01*
X875642Y-10724D01*
X875666Y-10738D01*
X875698Y-10756D01*
X875730Y-10779D01*
X875772Y-10807D01*
X875823Y-10844D01*
X875869Y-10881D01*
X875924Y-10927D01*
X875980Y-10973D01*
X876035Y-11029D01*
X876091Y-11089D01*
X876146Y-11149D01*
X876197Y-11218D01*
X876248Y-11292D01*
X876294Y-11371D01*
X876299Y-11375D01*
X876303Y-11389D01*
X876317Y-11412D01*
X876331Y-11445D01*
X876349Y-11486D01*
X876372Y-11537D01*
X876396Y-11592D01*
X876419Y-11653D01*
X876442Y-11727D01*
X876465Y-11800D01*
X876483Y-11884D01*
X876506Y-11971D01*
X876520Y-12064D01*
X876534Y-12161D01*
X876548Y-12262D01*
X876553Y-12369D01*
X875892Y-12429D01*
Y-12420D01*
X875887Y-12401D01*
X875883Y-12369D01*
X875878Y-12327D01*
X875869Y-12276D01*
X875860Y-12221D01*
X875841Y-12156D01*
X875827Y-12082D01*
X875776Y-11934D01*
X875749Y-11861D01*
X875712Y-11787D01*
X875675Y-11713D01*
X875629Y-11643D01*
X875578Y-11579D01*
X875522Y-11519D01*
X875518Y-11514D01*
X875508Y-11505D01*
X875490Y-11491D01*
X875462Y-11472D01*
X875435Y-11449D01*
X875393Y-11422D01*
X875347Y-11399D01*
X875296Y-11366D01*
X875236Y-11338D01*
X875171Y-11315D01*
X875097Y-11288D01*
X875019Y-11265D01*
X874931Y-11246D01*
X874843Y-11232D01*
X874742Y-11223D01*
X874640Y-11218D01*
X874584D01*
X874543Y-11223D01*
X874497Y-11227D01*
X874441Y-11232D01*
X874377Y-11241D01*
X874312Y-11251D01*
X874169Y-11283D01*
X874095Y-11301D01*
X874021Y-11329D01*
X873947Y-11361D01*
X873878Y-11394D01*
X873813Y-11435D01*
X873753Y-11482D01*
X873748Y-11486D01*
X873739Y-11496D01*
X873725Y-11509D01*
X873707Y-11528D01*
X873684Y-11556D01*
X873656Y-11583D01*
X873633Y-11620D01*
X873605Y-11662D01*
X873573Y-11708D01*
X873550Y-11759D01*
X873499Y-11874D01*
X873480Y-11939D01*
X873466Y-12008D01*
X873457Y-12078D01*
X873453Y-12156D01*
Y-12161D01*
Y-12175D01*
Y-12193D01*
X873457Y-12221D01*
Y-12253D01*
X873466Y-12290D01*
X873480Y-12373D01*
X873508Y-12470D01*
X873545Y-12567D01*
X873600Y-12664D01*
X873637Y-12706D01*
X873674Y-12747D01*
X873679D01*
X873684Y-12757D01*
X873702Y-12771D01*
X873720Y-12785D01*
X873748Y-12803D01*
X873785Y-12826D01*
X873831Y-12854D01*
X873882Y-12881D01*
X873947Y-12914D01*
X874016Y-12946D01*
X874099Y-12983D01*
X874192Y-13020D01*
X874298Y-13057D01*
X874413Y-13094D01*
X874543Y-13136D01*
X874681Y-13177D01*
X874691D01*
X874714Y-13186D01*
X874755Y-13196D01*
X874806Y-13214D01*
X874866Y-13228D01*
X874940Y-13251D01*
X875019Y-13274D01*
X875102Y-13302D01*
X875278Y-13357D01*
X875458Y-13417D01*
X875541Y-13450D01*
X875619Y-13482D01*
X875689Y-13510D01*
X875753Y-13542D01*
X875758Y-13547D01*
X875776Y-13551D01*
X875799Y-13565D01*
X875832Y-13588D01*
X875869Y-13611D01*
X875915Y-13639D01*
X875966Y-13676D01*
X876021Y-13713D01*
X876132Y-13805D01*
X876252Y-13916D01*
X876363Y-14041D01*
X876419Y-14106D01*
X876465Y-14180D01*
X876469Y-14184D01*
X876474Y-14198D01*
X876488Y-14221D01*
X876502Y-14249D01*
X876520Y-14286D01*
X876543Y-14332D01*
X876567Y-14383D01*
X876590Y-14443D01*
X876608Y-14508D01*
X876631Y-14582D01*
X876654Y-14660D01*
X876673Y-14739D01*
X876687Y-14827D01*
X876700Y-14919D01*
X876705Y-15016D01*
X876710Y-15118D01*
Y-15122D01*
Y-15141D01*
Y-15168D01*
X876705Y-15210D01*
X876700Y-15256D01*
X876696Y-15312D01*
X876687Y-15376D01*
X876677Y-15446D01*
X876663Y-15519D01*
X876650Y-15598D01*
X876603Y-15764D01*
X876576Y-15847D01*
X876539Y-15935D01*
X876502Y-16023D01*
X876456Y-16106D01*
X876451Y-16111D01*
X876442Y-16125D01*
X876428Y-16148D01*
X876409Y-16180D01*
X876382Y-16217D01*
X876354Y-16259D01*
X876317Y-16305D01*
X876275Y-16356D01*
X876225Y-16411D01*
X876174Y-16467D01*
X876118Y-16522D01*
X876058Y-16578D01*
X875989Y-16633D01*
X875920Y-16684D01*
X875841Y-16735D01*
X875763Y-16781D01*
X875758Y-16785D01*
X875744Y-16790D01*
X875716Y-16804D01*
X875684Y-16818D01*
X875642Y-16836D01*
X875592Y-16855D01*
X875536Y-16873D01*
X875467Y-16896D01*
X875398Y-16919D01*
X875314Y-16938D01*
X875231Y-16956D01*
X875139Y-16975D01*
X875037Y-16989D01*
X874936Y-17003D01*
X874825Y-17007D01*
X874714Y-17012D01*
X874672D01*
X874649Y-17007D01*
X874621D01*
X874557Y-17003D01*
X874474Y-16993D01*
X874381Y-16979D01*
X874275Y-16966D01*
X874164Y-16938D01*
X874044Y-16910D01*
X873919Y-16873D01*
X873790Y-16827D01*
X873660Y-16771D01*
X873536Y-16702D01*
X873411Y-16628D01*
X873291Y-16541D01*
X873180Y-16439D01*
X873175Y-16434D01*
X873157Y-16411D01*
X873129Y-16379D01*
X873092Y-16333D01*
X873046Y-16273D01*
X873000Y-16203D01*
X872949Y-16120D01*
X872894Y-16028D01*
X872838Y-15921D01*
X872787Y-15801D01*
X872736Y-15672D01*
X872695Y-15533D01*
X872653Y-15385D01*
X872626Y-15224D01*
X872602Y-15053D01*
X872593Y-14873D01*
X873240Y-14803D01*
Y-14808D01*
X873245Y-14827D01*
Y-14854D01*
X873249Y-14891D01*
X873258Y-14933D01*
X873268Y-14984D01*
X873277Y-15039D01*
X873286Y-15099D01*
X873319Y-15233D01*
X873360Y-15367D01*
X873411Y-15496D01*
X873439Y-15561D01*
X873471Y-15617D01*
Y-15621D01*
X873480Y-15630D01*
X873489Y-15644D01*
X873503Y-15663D01*
X873550Y-15718D01*
X873605Y-15783D01*
X873679Y-15857D01*
X873771Y-15935D01*
X873873Y-16014D01*
X873993Y-16083D01*
X873998D01*
X874007Y-16092D01*
X874026Y-16097D01*
X874053Y-16111D01*
X874086Y-16125D01*
X874123Y-16139D01*
X874169Y-16152D01*
X874220Y-16171D01*
X874270Y-16189D01*
X874330Y-16203D01*
X874460Y-16231D01*
X874603Y-16250D01*
X874760Y-16259D01*
X874820D01*
X874862Y-16254D01*
X874912Y-16250D01*
X874973Y-16245D01*
X875037Y-16236D01*
X875107Y-16222D01*
X875259Y-16185D01*
X875338Y-16162D01*
X875416Y-16134D01*
X875495Y-16102D01*
X875568Y-16060D01*
X875642Y-16014D01*
X875707Y-15963D01*
X875712Y-15958D01*
X875721Y-15949D01*
X875739Y-15931D01*
X875763Y-15908D01*
X875786Y-15880D01*
X875813Y-15843D01*
X875846Y-15801D01*
X875878Y-15755D01*
X875910Y-15700D01*
X875943Y-15640D01*
X875970Y-15580D01*
X875994Y-15510D01*
X876017Y-15436D01*
X876035Y-15358D01*
X876044Y-15275D01*
X876049Y-15187D01*
Y-15182D01*
Y-15173D01*
Y-15159D01*
Y-15141D01*
X876044Y-15090D01*
X876035Y-15021D01*
X876017Y-14947D01*
X875998Y-14863D01*
X875966Y-14780D01*
X875924Y-14702D01*
Y-14697D01*
X875920Y-14693D01*
X875901Y-14665D01*
X875873Y-14628D01*
X875832Y-14582D01*
X875776Y-14526D01*
X875712Y-14471D01*
X875638Y-14411D01*
X875550Y-14360D01*
X875545D01*
X875536Y-14355D01*
X875522Y-14346D01*
X875499Y-14337D01*
X875467Y-14323D01*
X875430Y-14304D01*
X875384Y-14286D01*
X875324Y-14263D01*
X875259Y-14235D01*
X875185Y-14207D01*
X875097Y-14175D01*
X875000Y-14143D01*
X874889Y-14106D01*
X874769Y-14069D01*
X874635Y-14027D01*
X874487Y-13981D01*
X874478Y-13976D01*
X874455Y-13972D01*
X874418Y-13958D01*
X874367Y-13944D01*
X874307Y-13926D01*
X874238Y-13903D01*
X874164Y-13875D01*
X874086Y-13847D01*
X873910Y-13778D01*
X873739Y-13704D01*
X873656Y-13667D01*
X873577Y-13630D01*
X873508Y-13588D01*
X873443Y-13547D01*
X873439Y-13542D01*
X873429Y-13537D01*
X873416Y-13524D01*
X873392Y-13505D01*
X873365Y-13487D01*
X873337Y-13459D01*
X873268Y-13394D01*
X873189Y-13311D01*
X873111Y-13219D01*
X873032Y-13108D01*
X872963Y-12988D01*
Y-12983D01*
X872954Y-12974D01*
X872949Y-12955D01*
X872935Y-12928D01*
X872921Y-12895D01*
X872907Y-12858D01*
X872894Y-12817D01*
X872880Y-12766D01*
X872861Y-12710D01*
X872847Y-12655D01*
X872820Y-12526D01*
X872801Y-12378D01*
X872792Y-12225D01*
Y-12216D01*
Y-12193D01*
X872797Y-12151D01*
X872801Y-12096D01*
X872806Y-12031D01*
X872820Y-11958D01*
X872834Y-11874D01*
X872852Y-11782D01*
X872880Y-11685D01*
X872912Y-11583D01*
X872949Y-11477D01*
X873000Y-11375D01*
X873055Y-11269D01*
X873120Y-11168D01*
X873194Y-11066D01*
X873282Y-10973D01*
X873286Y-10969D01*
X873305Y-10950D01*
X873333Y-10927D01*
X873374Y-10895D01*
X873420Y-10858D01*
X873480Y-10816D01*
X873554Y-10775D01*
X873633Y-10729D01*
X873725Y-10682D01*
X873827Y-10641D01*
X873933Y-10599D01*
X874053Y-10562D01*
X874183Y-10530D01*
X874317Y-10507D01*
X874464Y-10488D01*
X874617Y-10484D01*
X874672D01*
X874714Y-10488D01*
D02*
G37*
G36*
X865312D02*
X865358D01*
X865418Y-10493D01*
X865483Y-10502D01*
X865552Y-10511D01*
X865626Y-10521D01*
X865709Y-10535D01*
X865876Y-10571D01*
X866042Y-10627D01*
X866125Y-10659D01*
X866208Y-10696D01*
X866213Y-10701D01*
X866227Y-10706D01*
X866250Y-10719D01*
X866278Y-10733D01*
X866315Y-10756D01*
X866356Y-10784D01*
X866403Y-10816D01*
X866458Y-10849D01*
X866569Y-10937D01*
X866684Y-11038D01*
X866800Y-11158D01*
X866911Y-11297D01*
X866915Y-11301D01*
X866924Y-11315D01*
X866938Y-11338D01*
X866957Y-11366D01*
X866980Y-11408D01*
X867008Y-11454D01*
X867035Y-11509D01*
X867068Y-11574D01*
X867100Y-11643D01*
X867132Y-11722D01*
X867169Y-11810D01*
X867202Y-11907D01*
X867239Y-12008D01*
X867271Y-12115D01*
X867299Y-12230D01*
X867327Y-12355D01*
X866712Y-12563D01*
Y-12558D01*
X866707Y-12540D01*
X866698Y-12512D01*
X866689Y-12475D01*
X866680Y-12433D01*
X866661Y-12382D01*
X866647Y-12323D01*
X866624Y-12262D01*
X866583Y-12133D01*
X866527Y-12004D01*
X866467Y-11879D01*
X866435Y-11819D01*
X866398Y-11768D01*
Y-11763D01*
X866389Y-11754D01*
X866379Y-11740D01*
X866366Y-11727D01*
X866319Y-11676D01*
X866264Y-11616D01*
X866190Y-11551D01*
X866107Y-11482D01*
X866005Y-11412D01*
X865894Y-11352D01*
X865890D01*
X865880Y-11348D01*
X865862Y-11338D01*
X865839Y-11329D01*
X865811Y-11315D01*
X865774Y-11306D01*
X865737Y-11292D01*
X865691Y-11274D01*
X865589Y-11246D01*
X865469Y-11223D01*
X865340Y-11204D01*
X865201Y-11200D01*
X865146D01*
X865109Y-11204D01*
X865058Y-11209D01*
X865003Y-11214D01*
X864938Y-11223D01*
X864869Y-11232D01*
X864795Y-11251D01*
X864716Y-11269D01*
X864638Y-11288D01*
X864555Y-11315D01*
X864471Y-11348D01*
X864388Y-11385D01*
X864310Y-11426D01*
X864231Y-11477D01*
X864226Y-11482D01*
X864213Y-11491D01*
X864194Y-11505D01*
X864162Y-11528D01*
X864129Y-11556D01*
X864088Y-11592D01*
X864046Y-11634D01*
X863995Y-11685D01*
X863945Y-11740D01*
X863894Y-11805D01*
X863838Y-11874D01*
X863783Y-11948D01*
X863727Y-12036D01*
X863677Y-12124D01*
X863626Y-12221D01*
X863575Y-12327D01*
X863570Y-12332D01*
X863566Y-12355D01*
X863552Y-12387D01*
X863538Y-12429D01*
X863520Y-12484D01*
X863496Y-12553D01*
X863473Y-12632D01*
X863455Y-12720D01*
X863432Y-12817D01*
X863409Y-12923D01*
X863386Y-13039D01*
X863367Y-13163D01*
X863353Y-13293D01*
X863339Y-13436D01*
X863335Y-13579D01*
X863330Y-13732D01*
Y-13736D01*
Y-13745D01*
Y-13764D01*
Y-13787D01*
Y-13815D01*
X863335Y-13852D01*
Y-13893D01*
X863339Y-13939D01*
X863344Y-13990D01*
X863349Y-14046D01*
X863358Y-14166D01*
X863376Y-14300D01*
X863395Y-14443D01*
X863423Y-14595D01*
X863459Y-14753D01*
X863501Y-14910D01*
X863552Y-15067D01*
X863612Y-15219D01*
X863681Y-15367D01*
X863764Y-15506D01*
X863857Y-15630D01*
X863861Y-15635D01*
X863880Y-15658D01*
X863912Y-15690D01*
X863954Y-15727D01*
X864005Y-15778D01*
X864069Y-15829D01*
X864143Y-15885D01*
X864226Y-15945D01*
X864324Y-16005D01*
X864425Y-16060D01*
X864541Y-16111D01*
X864661Y-16162D01*
X864795Y-16199D01*
X864933Y-16231D01*
X865081Y-16250D01*
X865234Y-16259D01*
X865275D01*
X865303Y-16254D01*
X865340D01*
X865386Y-16250D01*
X865432Y-16245D01*
X865488Y-16236D01*
X865548Y-16226D01*
X865612Y-16213D01*
X865756Y-16180D01*
X865903Y-16134D01*
X866061Y-16069D01*
X866065Y-16065D01*
X866079Y-16060D01*
X866102Y-16051D01*
X866130Y-16032D01*
X866167Y-16014D01*
X866208Y-15995D01*
X866255Y-15968D01*
X866305Y-15940D01*
X866412Y-15871D01*
X866527Y-15792D01*
X866638Y-15704D01*
X866740Y-15607D01*
Y-14429D01*
X865220D01*
Y-13685D01*
X867410Y-13681D01*
Y-16028D01*
X867405Y-16032D01*
X867387Y-16051D01*
X867359Y-16074D01*
X867322Y-16106D01*
X867276Y-16148D01*
X867220Y-16194D01*
X867160Y-16250D01*
X867091Y-16305D01*
X867017Y-16360D01*
X866934Y-16425D01*
X866846Y-16485D01*
X866758Y-16545D01*
X866564Y-16665D01*
X866467Y-16716D01*
X866366Y-16767D01*
X866361Y-16771D01*
X866342Y-16776D01*
X866315Y-16790D01*
X866273Y-16804D01*
X866222Y-16822D01*
X866167Y-16845D01*
X866102Y-16869D01*
X866028Y-16887D01*
X865945Y-16910D01*
X865862Y-16933D01*
X865769Y-16956D01*
X865672Y-16975D01*
X865474Y-17003D01*
X865368Y-17007D01*
X865261Y-17012D01*
X865229D01*
X865187Y-17007D01*
X865132D01*
X865067Y-16998D01*
X864989Y-16993D01*
X864906Y-16979D01*
X864809Y-16966D01*
X864707Y-16942D01*
X864596Y-16919D01*
X864485Y-16887D01*
X864370Y-16850D01*
X864254Y-16808D01*
X864139Y-16758D01*
X864023Y-16698D01*
X863908Y-16633D01*
X863903Y-16628D01*
X863880Y-16614D01*
X863852Y-16591D01*
X863811Y-16564D01*
X863760Y-16522D01*
X863704Y-16476D01*
X863640Y-16416D01*
X863570Y-16351D01*
X863496Y-16277D01*
X863418Y-16199D01*
X863339Y-16106D01*
X863261Y-16009D01*
X863187Y-15898D01*
X863108Y-15783D01*
X863039Y-15663D01*
X862970Y-15529D01*
X862965Y-15519D01*
X862956Y-15496D01*
X862938Y-15455D01*
X862914Y-15399D01*
X862891Y-15330D01*
X862859Y-15242D01*
X862831Y-15145D01*
X862799Y-15034D01*
X862766Y-14914D01*
X862734Y-14780D01*
X862702Y-14637D01*
X862679Y-14485D01*
X862656Y-14323D01*
X862637Y-14147D01*
X862628Y-13967D01*
X862623Y-13782D01*
Y-13778D01*
Y-13769D01*
Y-13755D01*
Y-13736D01*
Y-13713D01*
X862628Y-13681D01*
Y-13648D01*
Y-13607D01*
X862632Y-13519D01*
X862642Y-13413D01*
X862651Y-13297D01*
X862665Y-13168D01*
X862683Y-13034D01*
X862706Y-12886D01*
X862734Y-12738D01*
X862771Y-12586D01*
X862808Y-12433D01*
X862854Y-12276D01*
X862910Y-12128D01*
X862970Y-11981D01*
X862974Y-11971D01*
X862984Y-11948D01*
X863007Y-11907D01*
X863035Y-11856D01*
X863067Y-11791D01*
X863108Y-11717D01*
X863159Y-11639D01*
X863215Y-11551D01*
X863275Y-11458D01*
X863344Y-11366D01*
X863418Y-11274D01*
X863501Y-11181D01*
X863589Y-11089D01*
X863681Y-11001D01*
X863778Y-10923D01*
X863880Y-10849D01*
X863885Y-10844D01*
X863908Y-10835D01*
X863935Y-10816D01*
X863982Y-10793D01*
X864032Y-10766D01*
X864097Y-10733D01*
X864176Y-10701D01*
X864259Y-10664D01*
X864351Y-10632D01*
X864453Y-10599D01*
X864564Y-10567D01*
X864679Y-10539D01*
X864804Y-10516D01*
X864938Y-10498D01*
X865072Y-10488D01*
X865215Y-10484D01*
X865271D01*
X865312Y-10488D01*
D02*
G37*
G36*
X846463Y-12239D02*
X846490Y-12244D01*
X846527Y-12248D01*
X846564Y-12253D01*
X846610Y-12267D01*
X846707Y-12295D01*
X846818Y-12341D01*
X846874Y-12369D01*
X846934Y-12401D01*
X846999Y-12438D01*
X847058Y-12484D01*
X846841Y-13205D01*
X846837D01*
X846832Y-13196D01*
X846818Y-13191D01*
X846800Y-13177D01*
X846754Y-13149D01*
X846694Y-13117D01*
X846624Y-13089D01*
X846546Y-13062D01*
X846463Y-13043D01*
X846379Y-13034D01*
X846347D01*
X846305Y-13043D01*
X846255Y-13052D01*
X846199Y-13071D01*
X846134Y-13094D01*
X846070Y-13131D01*
X846005Y-13177D01*
X845996Y-13182D01*
X845977Y-13205D01*
X845950Y-13237D01*
X845913Y-13279D01*
X845876Y-13339D01*
X845839Y-13404D01*
X845802Y-13482D01*
X845774Y-13575D01*
Y-13579D01*
X845770Y-13593D01*
X845765Y-13621D01*
X845756Y-13653D01*
X845746Y-13695D01*
X845737Y-13741D01*
X845723Y-13796D01*
X845714Y-13856D01*
X845705Y-13926D01*
X845691Y-13999D01*
X845682Y-14078D01*
X845673Y-14161D01*
X845659Y-14332D01*
X845654Y-14517D01*
Y-16905D01*
X845021D01*
Y-12336D01*
X845594D01*
Y-13034D01*
X845599Y-13029D01*
X845603Y-13011D01*
X845617Y-12988D01*
X845631Y-12955D01*
X845649Y-12918D01*
X845673Y-12872D01*
X845723Y-12771D01*
X845788Y-12664D01*
X845853Y-12558D01*
X845890Y-12507D01*
X845922Y-12466D01*
X845959Y-12424D01*
X845991Y-12392D01*
X846000Y-12387D01*
X846024Y-12369D01*
X846061Y-12341D01*
X846111Y-12313D01*
X846176Y-12286D01*
X846245Y-12258D01*
X846324Y-12239D01*
X846407Y-12235D01*
X846439D01*
X846463Y-12239D01*
D02*
G37*
G36*
X828782D02*
X828810Y-12244D01*
X828846Y-12248D01*
X828883Y-12253D01*
X828930Y-12267D01*
X829027Y-12295D01*
X829138Y-12341D01*
X829193Y-12369D01*
X829253Y-12401D01*
X829318Y-12438D01*
X829378Y-12484D01*
X829161Y-13205D01*
X829156D01*
X829151Y-13196D01*
X829138Y-13191D01*
X829119Y-13177D01*
X829073Y-13149D01*
X829013Y-13117D01*
X828944Y-13089D01*
X828865Y-13062D01*
X828782Y-13043D01*
X828699Y-13034D01*
X828666D01*
X828625Y-13043D01*
X828574Y-13052D01*
X828518Y-13071D01*
X828454Y-13094D01*
X828389Y-13131D01*
X828324Y-13177D01*
X828315Y-13182D01*
X828297Y-13205D01*
X828269Y-13237D01*
X828232Y-13279D01*
X828195Y-13339D01*
X828158Y-13404D01*
X828121Y-13482D01*
X828093Y-13575D01*
Y-13579D01*
X828089Y-13593D01*
X828084Y-13621D01*
X828075Y-13653D01*
X828066Y-13695D01*
X828057Y-13741D01*
X828043Y-13796D01*
X828033Y-13856D01*
X828024Y-13926D01*
X828010Y-13999D01*
X828001Y-14078D01*
X827992Y-14161D01*
X827978Y-14332D01*
X827973Y-14517D01*
Y-16905D01*
X827340D01*
Y-12336D01*
X827913D01*
Y-13034D01*
X827918Y-13029D01*
X827923Y-13011D01*
X827936Y-12988D01*
X827950Y-12955D01*
X827969Y-12919D01*
X827992Y-12872D01*
X828043Y-12771D01*
X828107Y-12664D01*
X828172Y-12558D01*
X828209Y-12507D01*
X828241Y-12466D01*
X828278Y-12424D01*
X828311Y-12392D01*
X828320Y-12387D01*
X828343Y-12369D01*
X828380Y-12341D01*
X828431Y-12313D01*
X828495Y-12286D01*
X828565Y-12258D01*
X828643Y-12239D01*
X828726Y-12235D01*
X828759D01*
X828782Y-12239D01*
D02*
G37*
G36*
X853577Y-16905D02*
X852894D01*
Y-13930D01*
X850205D01*
Y-16905D01*
X849521D01*
Y-10595D01*
X850205D01*
Y-13186D01*
X852894D01*
Y-10595D01*
X853577D01*
Y-16905D01*
D02*
G37*
G36*
X835384Y-12239D02*
X835435Y-12244D01*
X835490Y-12253D01*
X835555Y-12267D01*
X835629Y-12281D01*
X835703Y-12299D01*
X835781Y-12323D01*
X835864Y-12355D01*
X835947Y-12387D01*
X836031Y-12429D01*
X836109Y-12479D01*
X836188Y-12535D01*
X836266Y-12600D01*
X836271Y-12604D01*
X836285Y-12618D01*
X836303Y-12637D01*
X836331Y-12669D01*
X836363Y-12706D01*
X836400Y-12752D01*
X836437Y-12808D01*
X836479Y-12868D01*
X836525Y-12942D01*
X836567Y-13020D01*
X836608Y-13113D01*
X836650Y-13209D01*
X836691Y-13311D01*
X836724Y-13427D01*
X836756Y-13551D01*
X836779Y-13681D01*
X836165Y-13792D01*
Y-13787D01*
X836160Y-13773D01*
X836155Y-13750D01*
X836146Y-13718D01*
X836137Y-13676D01*
X836123Y-13634D01*
X836109Y-13588D01*
X836091Y-13533D01*
X836044Y-13422D01*
X835989Y-13307D01*
X835924Y-13200D01*
X835887Y-13149D01*
X835846Y-13103D01*
X835841Y-13099D01*
X835837Y-13094D01*
X835823Y-13080D01*
X835804Y-13066D01*
X835758Y-13029D01*
X835698Y-12988D01*
X835619Y-12946D01*
X835527Y-12909D01*
X835425Y-12881D01*
X835370Y-12877D01*
X835310Y-12872D01*
X835291D01*
X835264Y-12877D01*
X835231D01*
X835194Y-12886D01*
X835148Y-12895D01*
X835093Y-12909D01*
X835037Y-12923D01*
X834977Y-12946D01*
X834917Y-12974D01*
X834853Y-13006D01*
X834788Y-13048D01*
X834719Y-13094D01*
X834654Y-13149D01*
X834594Y-13214D01*
X834534Y-13288D01*
X834529Y-13293D01*
X834520Y-13307D01*
X834506Y-13334D01*
X834488Y-13367D01*
X834464Y-13413D01*
X834437Y-13468D01*
X834409Y-13533D01*
X834381Y-13607D01*
X834354Y-13695D01*
X834326Y-13792D01*
X834298Y-13903D01*
X834275Y-14023D01*
X834256Y-14152D01*
X834243Y-14291D01*
X834233Y-14443D01*
X834229Y-14609D01*
Y-14614D01*
Y-14619D01*
Y-14633D01*
Y-14651D01*
Y-14697D01*
X834233Y-14762D01*
X834238Y-14840D01*
X834243Y-14928D01*
X834252Y-15025D01*
X834266Y-15127D01*
X834280Y-15238D01*
X834298Y-15349D01*
X834326Y-15459D01*
X834354Y-15570D01*
X834386Y-15681D01*
X834423Y-15783D01*
X834469Y-15875D01*
X834520Y-15958D01*
X834525Y-15963D01*
X834534Y-15977D01*
X834552Y-15995D01*
X834575Y-16023D01*
X834603Y-16055D01*
X834640Y-16088D01*
X834677Y-16129D01*
X834728Y-16166D01*
X834779Y-16203D01*
X834834Y-16240D01*
X834899Y-16277D01*
X834963Y-16309D01*
X835037Y-16337D01*
X835111Y-16356D01*
X835194Y-16370D01*
X835277Y-16374D01*
X835314D01*
X835338Y-16370D01*
X835370Y-16365D01*
X835407Y-16360D01*
X835490Y-16342D01*
X835587Y-16309D01*
X835638Y-16286D01*
X835689Y-16259D01*
X835740Y-16226D01*
X835795Y-16189D01*
X835841Y-16148D01*
X835892Y-16102D01*
X835897Y-16097D01*
X835901Y-16088D01*
X835915Y-16074D01*
X835934Y-16051D01*
X835952Y-16018D01*
X835980Y-15981D01*
X836003Y-15940D01*
X836031Y-15889D01*
X836058Y-15834D01*
X836086Y-15769D01*
X836114Y-15700D01*
X836141Y-15621D01*
X836165Y-15533D01*
X836188Y-15441D01*
X836206Y-15344D01*
X836220Y-15238D01*
X836844Y-15335D01*
Y-15344D01*
X836839Y-15372D01*
X836830Y-15413D01*
X836821Y-15469D01*
X836807Y-15538D01*
X836784Y-15617D01*
X836761Y-15704D01*
X836733Y-15797D01*
X836701Y-15898D01*
X836664Y-16000D01*
X836617Y-16102D01*
X836567Y-16208D01*
X836511Y-16309D01*
X836446Y-16407D01*
X836377Y-16499D01*
X836298Y-16582D01*
X836294Y-16587D01*
X836280Y-16601D01*
X836257Y-16624D01*
X836220Y-16647D01*
X836178Y-16684D01*
X836132Y-16716D01*
X836072Y-16758D01*
X836007Y-16795D01*
X835938Y-16836D01*
X835855Y-16878D01*
X835772Y-16910D01*
X835680Y-16942D01*
X835582Y-16970D01*
X835481Y-16993D01*
X835375Y-17007D01*
X835264Y-17012D01*
X835231D01*
X835194Y-17007D01*
X835139Y-17003D01*
X835079Y-16993D01*
X835005Y-16979D01*
X834922Y-16961D01*
X834834Y-16938D01*
X834742Y-16905D01*
X834645Y-16864D01*
X834543Y-16818D01*
X834441Y-16758D01*
X834340Y-16688D01*
X834238Y-16610D01*
X834141Y-16517D01*
X834049Y-16411D01*
X834044Y-16402D01*
X834030Y-16383D01*
X834007Y-16346D01*
X833975Y-16296D01*
X833938Y-16236D01*
X833901Y-16157D01*
X833859Y-16065D01*
X833813Y-15958D01*
X833771Y-15843D01*
X833725Y-15709D01*
X833688Y-15561D01*
X833651Y-15399D01*
X833619Y-15228D01*
X833596Y-15039D01*
X833582Y-14840D01*
X833577Y-14623D01*
Y-14619D01*
Y-14609D01*
Y-14591D01*
Y-14572D01*
Y-14545D01*
X833582Y-14508D01*
Y-14471D01*
X833587Y-14429D01*
X833591Y-14327D01*
X833601Y-14217D01*
X833619Y-14087D01*
X833637Y-13953D01*
X833661Y-13810D01*
X833693Y-13662D01*
X833734Y-13514D01*
X833776Y-13367D01*
X833832Y-13223D01*
X833896Y-13085D01*
X833970Y-12955D01*
X834053Y-12835D01*
X834058Y-12831D01*
X834076Y-12808D01*
X834104Y-12780D01*
X834141Y-12743D01*
X834187Y-12697D01*
X834247Y-12646D01*
X834312Y-12590D01*
X834386Y-12535D01*
X834474Y-12479D01*
X834566Y-12424D01*
X834668Y-12373D01*
X834779Y-12327D01*
X834894Y-12290D01*
X835019Y-12262D01*
X835148Y-12239D01*
X835287Y-12235D01*
X835342D01*
X835384Y-12239D01*
D02*
G37*
G36*
X804624Y-16905D02*
X803963D01*
Y-11625D01*
X802457Y-16905D01*
X801838D01*
X800346Y-11537D01*
Y-16905D01*
X799685D01*
Y-10595D01*
X800715D01*
X801940Y-15067D01*
X802184Y-16000D01*
Y-15995D01*
X802189Y-15981D01*
X802194Y-15963D01*
X802203Y-15935D01*
X802212Y-15898D01*
X802221Y-15852D01*
X802240Y-15801D01*
X802254Y-15741D01*
X802272Y-15672D01*
X802291Y-15598D01*
X802314Y-15515D01*
X802341Y-15427D01*
X802369Y-15326D01*
X802397Y-15219D01*
X802429Y-15108D01*
X802462Y-14988D01*
X803700Y-10595D01*
X804624D01*
Y-16905D01*
D02*
G37*
G36*
X872131Y-11338D02*
X870417D01*
Y-16905D01*
X869734D01*
Y-11338D01*
X868029D01*
Y-10595D01*
X872131D01*
Y-11338D01*
D02*
G37*
G36*
X861602Y-16905D02*
X860877D01*
Y-16023D01*
X861602D01*
Y-16905D01*
D02*
G37*
G36*
X856340Y-12239D02*
X856391D01*
X856446Y-12244D01*
X856511Y-12253D01*
X856580Y-12262D01*
X856728Y-12290D01*
X856881Y-12327D01*
X857033Y-12382D01*
X857102Y-12420D01*
X857167Y-12456D01*
X857172Y-12461D01*
X857181Y-12466D01*
X857199Y-12479D01*
X857222Y-12498D01*
X857278Y-12544D01*
X857347Y-12609D01*
X857421Y-12687D01*
X857491Y-12780D01*
X857551Y-12886D01*
X857574Y-12946D01*
X857592Y-13006D01*
Y-13011D01*
X857597Y-13020D01*
X857601Y-13039D01*
X857606Y-13066D01*
X857615Y-13103D01*
X857620Y-13145D01*
X857629Y-13191D01*
X857638Y-13247D01*
X857648Y-13311D01*
X857657Y-13385D01*
X857661Y-13464D01*
X857671Y-13547D01*
X857675Y-13639D01*
X857680Y-13741D01*
X857685Y-13847D01*
Y-13963D01*
Y-14993D01*
Y-14997D01*
Y-15007D01*
Y-15021D01*
Y-15039D01*
Y-15067D01*
Y-15094D01*
Y-15168D01*
Y-15251D01*
Y-15353D01*
X857689Y-15459D01*
Y-15570D01*
X857694Y-15806D01*
X857698Y-15917D01*
Y-16028D01*
X857703Y-16129D01*
X857708Y-16222D01*
X857717Y-16300D01*
Y-16333D01*
X857722Y-16360D01*
Y-16365D01*
Y-16374D01*
X857726Y-16388D01*
X857731Y-16407D01*
X857735Y-16434D01*
X857740Y-16462D01*
X857758Y-16536D01*
X857782Y-16619D01*
X857809Y-16707D01*
X857846Y-16808D01*
X857888Y-16905D01*
X857227D01*
Y-16901D01*
X857222Y-16896D01*
X857218Y-16882D01*
X857209Y-16864D01*
X857204Y-16841D01*
X857190Y-16813D01*
X857172Y-16748D01*
X857149Y-16665D01*
X857125Y-16573D01*
X857107Y-16467D01*
X857093Y-16346D01*
X857088Y-16351D01*
X857079Y-16360D01*
X857061Y-16379D01*
X857038Y-16402D01*
X857010Y-16430D01*
X856973Y-16462D01*
X856936Y-16494D01*
X856890Y-16531D01*
X856793Y-16614D01*
X856677Y-16698D01*
X856557Y-16776D01*
X856428Y-16845D01*
X856423D01*
X856414Y-16855D01*
X856396Y-16859D01*
X856368Y-16873D01*
X856336Y-16882D01*
X856299Y-16896D01*
X856257Y-16915D01*
X856211Y-16929D01*
X856100Y-16961D01*
X855980Y-16984D01*
X855850Y-17003D01*
X855712Y-17012D01*
X855684D01*
X855656Y-17007D01*
X855615D01*
X855564Y-17003D01*
X855509Y-16993D01*
X855444Y-16984D01*
X855375Y-16966D01*
X855301Y-16947D01*
X855227Y-16924D01*
X855148Y-16896D01*
X855070Y-16864D01*
X854996Y-16822D01*
X854917Y-16776D01*
X854848Y-16721D01*
X854778Y-16661D01*
X854774Y-16656D01*
X854765Y-16642D01*
X854746Y-16624D01*
X854723Y-16596D01*
X854700Y-16559D01*
X854668Y-16517D01*
X854640Y-16467D01*
X854608Y-16411D01*
X854575Y-16346D01*
X854543Y-16273D01*
X854511Y-16194D01*
X854488Y-16111D01*
X854464Y-16018D01*
X854446Y-15921D01*
X854437Y-15820D01*
X854432Y-15709D01*
Y-15704D01*
Y-15690D01*
Y-15672D01*
X854437Y-15640D01*
Y-15607D01*
X854441Y-15566D01*
X854446Y-15519D01*
X854451Y-15473D01*
X854474Y-15362D01*
X854501Y-15247D01*
X854538Y-15122D01*
X854594Y-15007D01*
Y-15002D01*
X854603Y-14993D01*
X854612Y-14979D01*
X854622Y-14956D01*
X854658Y-14900D01*
X854709Y-14831D01*
X854774Y-14757D01*
X854848Y-14679D01*
X854936Y-14600D01*
X855037Y-14531D01*
X855042D01*
X855051Y-14522D01*
X855070Y-14512D01*
X855093Y-14503D01*
X855120Y-14489D01*
X855157Y-14471D01*
X855204Y-14452D01*
X855254Y-14434D01*
X855310Y-14411D01*
X855375Y-14392D01*
X855444Y-14369D01*
X855522Y-14346D01*
X855606Y-14327D01*
X855698Y-14309D01*
X855795Y-14291D01*
X855901Y-14272D01*
X855910D01*
X855933Y-14267D01*
X855975Y-14263D01*
X856031Y-14254D01*
X856091Y-14240D01*
X856164Y-14231D01*
X856248Y-14212D01*
X856336Y-14198D01*
X856520Y-14157D01*
X856710Y-14110D01*
X856802Y-14087D01*
X856890Y-14060D01*
X856968Y-14032D01*
X857042Y-14004D01*
X857047Y-13810D01*
Y-13805D01*
Y-13792D01*
Y-13764D01*
X857042Y-13732D01*
Y-13695D01*
X857038Y-13653D01*
X857024Y-13551D01*
X857005Y-13441D01*
X856973Y-13334D01*
X856931Y-13233D01*
X856908Y-13186D01*
X856876Y-13149D01*
X856871Y-13145D01*
X856867Y-13136D01*
X856853Y-13122D01*
X856830Y-13108D01*
X856807Y-13085D01*
X856774Y-13062D01*
X856737Y-13039D01*
X856696Y-13011D01*
X856650Y-12983D01*
X856594Y-12960D01*
X856534Y-12937D01*
X856470Y-12914D01*
X856396Y-12900D01*
X856322Y-12886D01*
X856234Y-12877D01*
X856146Y-12872D01*
X856104D01*
X856072Y-12877D01*
X856035D01*
X855994Y-12881D01*
X855897Y-12895D01*
X855790Y-12918D01*
X855679Y-12951D01*
X855573Y-12997D01*
X855527Y-13025D01*
X855481Y-13057D01*
X855476D01*
X855472Y-13066D01*
X855462Y-13076D01*
X855444Y-13094D01*
X855425Y-13117D01*
X855407Y-13140D01*
X855384Y-13172D01*
X855361Y-13214D01*
X855333Y-13256D01*
X855310Y-13307D01*
X855282Y-13362D01*
X855254Y-13427D01*
X855231Y-13496D01*
X855204Y-13570D01*
X855180Y-13653D01*
X855162Y-13745D01*
X854538Y-13644D01*
Y-13634D01*
X854543Y-13611D01*
X854552Y-13575D01*
X854566Y-13524D01*
X854580Y-13464D01*
X854603Y-13394D01*
X854626Y-13316D01*
X854654Y-13233D01*
X854686Y-13149D01*
X854728Y-13057D01*
X854769Y-12969D01*
X854820Y-12881D01*
X854876Y-12794D01*
X854936Y-12715D01*
X855000Y-12641D01*
X855074Y-12572D01*
X855079Y-12567D01*
X855093Y-12558D01*
X855116Y-12540D01*
X855153Y-12521D01*
X855194Y-12493D01*
X855245Y-12466D01*
X855305Y-12433D01*
X855375Y-12401D01*
X855453Y-12373D01*
X855541Y-12341D01*
X855638Y-12313D01*
X855739Y-12286D01*
X855855Y-12267D01*
X855975Y-12248D01*
X856104Y-12239D01*
X856243Y-12235D01*
X856299D01*
X856340Y-12239D01*
D02*
G37*
G36*
X838026Y-14203D02*
X839528Y-12336D01*
X840350D01*
X838918Y-14037D01*
X840493Y-16905D01*
X839713D01*
X838470Y-14568D01*
X838026Y-15094D01*
Y-16905D01*
X837393D01*
Y-10595D01*
X838026D01*
Y-14203D01*
D02*
G37*
G36*
X831434Y-12239D02*
X831485D01*
X831540Y-12244D01*
X831605Y-12253D01*
X831674Y-12262D01*
X831822Y-12290D01*
X831974Y-12327D01*
X832127Y-12382D01*
X832196Y-12420D01*
X832261Y-12456D01*
X832265Y-12461D01*
X832275Y-12466D01*
X832293Y-12479D01*
X832316Y-12498D01*
X832372Y-12544D01*
X832441Y-12609D01*
X832515Y-12687D01*
X832584Y-12780D01*
X832644Y-12886D01*
X832667Y-12946D01*
X832686Y-13006D01*
Y-13011D01*
X832690Y-13020D01*
X832695Y-13039D01*
X832700Y-13066D01*
X832709Y-13103D01*
X832713Y-13145D01*
X832723Y-13191D01*
X832732Y-13247D01*
X832741Y-13311D01*
X832750Y-13385D01*
X832755Y-13464D01*
X832764Y-13547D01*
X832769Y-13639D01*
X832773Y-13741D01*
X832778Y-13847D01*
Y-13963D01*
Y-14993D01*
Y-14997D01*
Y-15007D01*
Y-15021D01*
Y-15039D01*
Y-15067D01*
Y-15094D01*
Y-15168D01*
Y-15251D01*
Y-15353D01*
X832783Y-15459D01*
Y-15570D01*
X832787Y-15806D01*
X832792Y-15917D01*
Y-16028D01*
X832797Y-16129D01*
X832801Y-16222D01*
X832810Y-16300D01*
Y-16333D01*
X832815Y-16360D01*
Y-16365D01*
Y-16374D01*
X832820Y-16388D01*
X832824Y-16407D01*
X832829Y-16434D01*
X832833Y-16462D01*
X832852Y-16536D01*
X832875Y-16619D01*
X832903Y-16707D01*
X832940Y-16808D01*
X832981Y-16905D01*
X832321D01*
Y-16901D01*
X832316Y-16896D01*
X832312Y-16882D01*
X832302Y-16864D01*
X832298Y-16841D01*
X832284Y-16813D01*
X832265Y-16748D01*
X832242Y-16665D01*
X832219Y-16573D01*
X832201Y-16467D01*
X832187Y-16346D01*
X832182Y-16351D01*
X832173Y-16360D01*
X832154Y-16379D01*
X832131Y-16402D01*
X832104Y-16430D01*
X832067Y-16462D01*
X832030Y-16494D01*
X831983Y-16531D01*
X831886Y-16614D01*
X831771Y-16698D01*
X831651Y-16776D01*
X831522Y-16845D01*
X831517D01*
X831508Y-16855D01*
X831489Y-16859D01*
X831461Y-16873D01*
X831429Y-16882D01*
X831392Y-16896D01*
X831351Y-16915D01*
X831304Y-16929D01*
X831193Y-16961D01*
X831073Y-16984D01*
X830944Y-17003D01*
X830805Y-17012D01*
X830778D01*
X830750Y-17007D01*
X830708D01*
X830657Y-17003D01*
X830602Y-16993D01*
X830537Y-16984D01*
X830468Y-16966D01*
X830394Y-16947D01*
X830320Y-16924D01*
X830242Y-16896D01*
X830163Y-16864D01*
X830089Y-16822D01*
X830011Y-16776D01*
X829941Y-16721D01*
X829872Y-16661D01*
X829867Y-16656D01*
X829858Y-16642D01*
X829840Y-16624D01*
X829817Y-16596D01*
X829794Y-16559D01*
X829761Y-16517D01*
X829733Y-16467D01*
X829701Y-16411D01*
X829669Y-16346D01*
X829636Y-16273D01*
X829604Y-16194D01*
X829581Y-16111D01*
X829558Y-16018D01*
X829539Y-15921D01*
X829530Y-15820D01*
X829526Y-15709D01*
Y-15704D01*
Y-15690D01*
Y-15672D01*
X829530Y-15640D01*
Y-15607D01*
X829535Y-15566D01*
X829539Y-15519D01*
X829544Y-15473D01*
X829567Y-15362D01*
X829595Y-15247D01*
X829632Y-15122D01*
X829687Y-15007D01*
Y-15002D01*
X829697Y-14993D01*
X829706Y-14979D01*
X829715Y-14956D01*
X829752Y-14900D01*
X829803Y-14831D01*
X829867Y-14757D01*
X829941Y-14679D01*
X830029Y-14600D01*
X830131Y-14531D01*
X830136D01*
X830145Y-14522D01*
X830163Y-14512D01*
X830186Y-14503D01*
X830214Y-14489D01*
X830251Y-14471D01*
X830297Y-14452D01*
X830348Y-14434D01*
X830403Y-14411D01*
X830468Y-14392D01*
X830537Y-14369D01*
X830616Y-14346D01*
X830699Y-14327D01*
X830791Y-14309D01*
X830888Y-14291D01*
X830995Y-14272D01*
X831004D01*
X831027Y-14267D01*
X831069Y-14263D01*
X831124Y-14254D01*
X831184Y-14240D01*
X831258Y-14231D01*
X831341Y-14212D01*
X831429Y-14198D01*
X831614Y-14157D01*
X831803Y-14110D01*
X831896Y-14087D01*
X831983Y-14060D01*
X832062Y-14032D01*
X832136Y-14004D01*
X832141Y-13810D01*
Y-13805D01*
Y-13792D01*
Y-13764D01*
X832136Y-13732D01*
Y-13695D01*
X832131Y-13653D01*
X832117Y-13551D01*
X832099Y-13441D01*
X832067Y-13334D01*
X832025Y-13233D01*
X832002Y-13186D01*
X831970Y-13149D01*
X831965Y-13145D01*
X831960Y-13136D01*
X831946Y-13122D01*
X831923Y-13108D01*
X831900Y-13085D01*
X831868Y-13062D01*
X831831Y-13039D01*
X831789Y-13011D01*
X831743Y-12983D01*
X831688Y-12960D01*
X831628Y-12937D01*
X831563Y-12914D01*
X831489Y-12900D01*
X831415Y-12886D01*
X831327Y-12877D01*
X831240Y-12872D01*
X831198D01*
X831166Y-12877D01*
X831129D01*
X831087Y-12881D01*
X830990Y-12895D01*
X830884Y-12918D01*
X830773Y-12951D01*
X830667Y-12997D01*
X830621Y-13025D01*
X830574Y-13057D01*
X830570D01*
X830565Y-13066D01*
X830556Y-13076D01*
X830537Y-13094D01*
X830519Y-13117D01*
X830500Y-13140D01*
X830477Y-13172D01*
X830454Y-13214D01*
X830427Y-13256D01*
X830403Y-13307D01*
X830376Y-13362D01*
X830348Y-13427D01*
X830325Y-13496D01*
X830297Y-13570D01*
X830274Y-13653D01*
X830256Y-13745D01*
X829632Y-13644D01*
Y-13634D01*
X829636Y-13611D01*
X829646Y-13575D01*
X829660Y-13524D01*
X829673Y-13464D01*
X829697Y-13394D01*
X829720Y-13316D01*
X829747Y-13233D01*
X829780Y-13149D01*
X829821Y-13057D01*
X829863Y-12969D01*
X829914Y-12881D01*
X829969Y-12794D01*
X830029Y-12715D01*
X830094Y-12641D01*
X830168Y-12572D01*
X830172Y-12567D01*
X830186Y-12558D01*
X830209Y-12540D01*
X830246Y-12521D01*
X830288Y-12493D01*
X830339Y-12466D01*
X830399Y-12433D01*
X830468Y-12401D01*
X830547Y-12373D01*
X830634Y-12341D01*
X830731Y-12313D01*
X830833Y-12286D01*
X830949Y-12267D01*
X831069Y-12248D01*
X831198Y-12239D01*
X831337Y-12235D01*
X831392D01*
X831434Y-12239D01*
D02*
G37*
G36*
X826735Y-11338D02*
X825021D01*
Y-16905D01*
X824337D01*
Y-11338D01*
X822633D01*
Y-10595D01*
X826735D01*
Y-11338D01*
D02*
G37*
G36*
X815897Y-16905D02*
X815264D01*
Y-10595D01*
X815897D01*
Y-16905D01*
D02*
G37*
G36*
X814312D02*
X813679D01*
Y-12336D01*
X814312D01*
Y-16905D01*
D02*
G37*
G36*
X859440Y-12336D02*
X860082D01*
Y-12937D01*
X859440D01*
Y-15612D01*
Y-15617D01*
Y-15626D01*
Y-15649D01*
Y-15672D01*
Y-15700D01*
X859445Y-15732D01*
X859449Y-15811D01*
X859454Y-15889D01*
X859463Y-15968D01*
X859477Y-16037D01*
X859486Y-16065D01*
X859496Y-16088D01*
X859500Y-16092D01*
X859509Y-16111D01*
X859533Y-16134D01*
X859565Y-16162D01*
X859606Y-16194D01*
X859657Y-16217D01*
X859722Y-16236D01*
X859801Y-16240D01*
X859842D01*
X859874Y-16236D01*
X859916D01*
X859962Y-16226D01*
X860022Y-16222D01*
X860082Y-16213D01*
X860170Y-16896D01*
X860166D01*
X860156Y-16901D01*
X860142D01*
X860124Y-16905D01*
X860078Y-16919D01*
X860013Y-16929D01*
X859939Y-16942D01*
X859861Y-16956D01*
X859777Y-16961D01*
X859694Y-16966D01*
X859639D01*
X859611Y-16961D01*
X859579Y-16956D01*
X859505Y-16947D01*
X859417Y-16933D01*
X859329Y-16910D01*
X859241Y-16878D01*
X859158Y-16836D01*
X859149Y-16832D01*
X859126Y-16813D01*
X859089Y-16785D01*
X859047Y-16744D01*
X859001Y-16693D01*
X858955Y-16633D01*
X858913Y-16559D01*
X858881Y-16480D01*
Y-16476D01*
X858877Y-16471D01*
Y-16453D01*
X858872Y-16434D01*
X858863Y-16407D01*
X858858Y-16370D01*
X858853Y-16328D01*
X858844Y-16282D01*
X858840Y-16222D01*
X858830Y-16157D01*
X858826Y-16083D01*
X858821Y-16000D01*
X858816Y-15908D01*
X858812Y-15806D01*
X858807Y-15690D01*
Y-15570D01*
Y-12937D01*
X858341D01*
Y-12336D01*
X858807D01*
Y-11204D01*
X859440Y-10738D01*
Y-12336D01*
D02*
G37*
G36*
X842605Y-12239D02*
X842656Y-12244D01*
X842720Y-12253D01*
X842790Y-12267D01*
X842873Y-12286D01*
X842961Y-12313D01*
X843053Y-12346D01*
X843150Y-12382D01*
X843252Y-12433D01*
X843353Y-12493D01*
X843455Y-12563D01*
X843557Y-12646D01*
X843654Y-12743D01*
X843746Y-12849D01*
X843751Y-12858D01*
X843769Y-12877D01*
X843792Y-12914D01*
X843820Y-12965D01*
X843857Y-13025D01*
X843898Y-13103D01*
X843945Y-13196D01*
X843991Y-13297D01*
X844032Y-13417D01*
X844079Y-13547D01*
X844120Y-13695D01*
X844157Y-13852D01*
X844185Y-14023D01*
X844213Y-14207D01*
X844226Y-14406D01*
X844231Y-14619D01*
Y-14822D01*
X841436D01*
Y-14831D01*
X841441Y-14854D01*
Y-14896D01*
X841445Y-14947D01*
X841455Y-15011D01*
X841464Y-15085D01*
X841478Y-15168D01*
X841496Y-15256D01*
X841538Y-15446D01*
X841565Y-15543D01*
X841598Y-15640D01*
X841639Y-15732D01*
X841681Y-15824D01*
X841732Y-15908D01*
X841787Y-15986D01*
X841792Y-15991D01*
X841801Y-16005D01*
X841819Y-16023D01*
X841842Y-16046D01*
X841875Y-16074D01*
X841912Y-16111D01*
X841953Y-16143D01*
X842004Y-16180D01*
X842060Y-16217D01*
X842115Y-16250D01*
X842180Y-16282D01*
X842249Y-16314D01*
X842323Y-16337D01*
X842397Y-16356D01*
X842480Y-16370D01*
X842563Y-16374D01*
X842596D01*
X842633Y-16370D01*
X842679Y-16360D01*
X842739Y-16346D01*
X842803Y-16323D01*
X842877Y-16296D01*
X842956Y-16259D01*
X843034Y-16208D01*
X843118Y-16143D01*
X843201Y-16069D01*
X843284Y-15977D01*
X843363Y-15871D01*
X843400Y-15811D01*
X843432Y-15746D01*
X843469Y-15677D01*
X843501Y-15603D01*
X843529Y-15519D01*
X843557Y-15436D01*
X844213Y-15533D01*
Y-15543D01*
X844203Y-15566D01*
X844194Y-15603D01*
X844180Y-15653D01*
X844162Y-15713D01*
X844139Y-15788D01*
X844111Y-15861D01*
X844074Y-15949D01*
X844037Y-16037D01*
X843995Y-16125D01*
X843945Y-16217D01*
X843889Y-16309D01*
X843829Y-16402D01*
X843764Y-16485D01*
X843695Y-16568D01*
X843617Y-16642D01*
X843612Y-16647D01*
X843598Y-16656D01*
X843575Y-16675D01*
X843543Y-16698D01*
X843501Y-16730D01*
X843450Y-16758D01*
X843390Y-16795D01*
X843326Y-16827D01*
X843252Y-16859D01*
X843173Y-16896D01*
X843085Y-16924D01*
X842993Y-16952D01*
X842891Y-16979D01*
X842785Y-16998D01*
X842674Y-17007D01*
X842559Y-17012D01*
X842522D01*
X842480Y-17007D01*
X842425Y-17003D01*
X842360Y-16993D01*
X842281Y-16979D01*
X842194Y-16961D01*
X842101Y-16938D01*
X842000Y-16905D01*
X841893Y-16864D01*
X841787Y-16818D01*
X841681Y-16758D01*
X841575Y-16688D01*
X841468Y-16610D01*
X841367Y-16517D01*
X841270Y-16411D01*
X841265Y-16402D01*
X841247Y-16383D01*
X841224Y-16346D01*
X841191Y-16300D01*
X841154Y-16236D01*
X841113Y-16157D01*
X841071Y-16069D01*
X841025Y-15968D01*
X840979Y-15847D01*
X840937Y-15718D01*
X840895Y-15575D01*
X840858Y-15418D01*
X840826Y-15251D01*
X840803Y-15067D01*
X840785Y-14873D01*
X840780Y-14665D01*
Y-14660D01*
Y-14651D01*
Y-14637D01*
Y-14614D01*
Y-14586D01*
X840785Y-14549D01*
Y-14512D01*
X840789Y-14471D01*
X840794Y-14369D01*
X840808Y-14258D01*
X840821Y-14133D01*
X840840Y-13995D01*
X840868Y-13852D01*
X840900Y-13704D01*
X840942Y-13551D01*
X840988Y-13404D01*
X841043Y-13256D01*
X841113Y-13117D01*
X841187Y-12983D01*
X841274Y-12858D01*
X841279Y-12849D01*
X841297Y-12831D01*
X841325Y-12803D01*
X841362Y-12761D01*
X841413Y-12715D01*
X841473Y-12660D01*
X841542Y-12604D01*
X841621Y-12544D01*
X841704Y-12489D01*
X841801Y-12433D01*
X841907Y-12378D01*
X842018Y-12332D01*
X842138Y-12290D01*
X842263Y-12262D01*
X842397Y-12239D01*
X842535Y-12235D01*
X842568D01*
X842605Y-12239D01*
D02*
G37*
G36*
X818498Y-12239D02*
X818548Y-12244D01*
X818613Y-12253D01*
X818682Y-12267D01*
X818766Y-12286D01*
X818853Y-12313D01*
X818946Y-12346D01*
X819043Y-12382D01*
X819145Y-12433D01*
X819246Y-12493D01*
X819348Y-12563D01*
X819449Y-12646D01*
X819546Y-12743D01*
X819639Y-12849D01*
X819643Y-12858D01*
X819662Y-12877D01*
X819685Y-12914D01*
X819713Y-12965D01*
X819750Y-13025D01*
X819791Y-13103D01*
X819837Y-13196D01*
X819884Y-13297D01*
X819925Y-13417D01*
X819971Y-13547D01*
X820013Y-13695D01*
X820050Y-13852D01*
X820078Y-14023D01*
X820105Y-14207D01*
X820119Y-14406D01*
X820124Y-14619D01*
Y-14822D01*
X817329D01*
Y-14831D01*
X817333Y-14854D01*
Y-14896D01*
X817338Y-14947D01*
X817347Y-15011D01*
X817356Y-15085D01*
X817370Y-15168D01*
X817389Y-15256D01*
X817430Y-15446D01*
X817458Y-15543D01*
X817490Y-15640D01*
X817532Y-15732D01*
X817574Y-15824D01*
X817624Y-15908D01*
X817680Y-15986D01*
X817685Y-15991D01*
X817694Y-16005D01*
X817712Y-16023D01*
X817735Y-16046D01*
X817768Y-16074D01*
X817805Y-16111D01*
X817846Y-16143D01*
X817897Y-16180D01*
X817953Y-16217D01*
X818008Y-16250D01*
X818073Y-16282D01*
X818142Y-16314D01*
X818216Y-16337D01*
X818290Y-16356D01*
X818373Y-16370D01*
X818456Y-16374D01*
X818488D01*
X818525Y-16370D01*
X818572Y-16360D01*
X818632Y-16346D01*
X818696Y-16323D01*
X818770Y-16296D01*
X818849Y-16259D01*
X818927Y-16208D01*
X819011Y-16143D01*
X819094Y-16069D01*
X819177Y-15977D01*
X819255Y-15871D01*
X819292Y-15811D01*
X819325Y-15746D01*
X819362Y-15677D01*
X819394Y-15603D01*
X819422Y-15519D01*
X819449Y-15436D01*
X820105Y-15533D01*
Y-15543D01*
X820096Y-15566D01*
X820087Y-15603D01*
X820073Y-15653D01*
X820055Y-15714D01*
X820032Y-15788D01*
X820004Y-15861D01*
X819967Y-15949D01*
X819930Y-16037D01*
X819888Y-16125D01*
X819837Y-16217D01*
X819782Y-16309D01*
X819722Y-16402D01*
X819657Y-16485D01*
X819588Y-16568D01*
X819510Y-16642D01*
X819505Y-16647D01*
X819491Y-16656D01*
X819468Y-16675D01*
X819436Y-16698D01*
X819394Y-16730D01*
X819343Y-16758D01*
X819283Y-16795D01*
X819218Y-16827D01*
X819145Y-16859D01*
X819066Y-16896D01*
X818978Y-16924D01*
X818886Y-16952D01*
X818784Y-16979D01*
X818678Y-16998D01*
X818567Y-17007D01*
X818451Y-17012D01*
X818414D01*
X818373Y-17007D01*
X818318Y-17003D01*
X818253Y-16993D01*
X818174Y-16979D01*
X818087Y-16961D01*
X817994Y-16938D01*
X817892Y-16905D01*
X817786Y-16864D01*
X817680Y-16818D01*
X817574Y-16758D01*
X817467Y-16688D01*
X817361Y-16610D01*
X817260Y-16517D01*
X817163Y-16411D01*
X817158Y-16402D01*
X817139Y-16383D01*
X817116Y-16346D01*
X817084Y-16300D01*
X817047Y-16236D01*
X817005Y-16157D01*
X816964Y-16069D01*
X816918Y-15968D01*
X816871Y-15847D01*
X816830Y-15718D01*
X816788Y-15575D01*
X816751Y-15418D01*
X816719Y-15252D01*
X816696Y-15067D01*
X816677Y-14873D01*
X816673Y-14665D01*
Y-14660D01*
Y-14651D01*
Y-14637D01*
Y-14614D01*
Y-14586D01*
X816677Y-14549D01*
Y-14512D01*
X816682Y-14471D01*
X816687Y-14369D01*
X816700Y-14258D01*
X816714Y-14133D01*
X816733Y-13995D01*
X816761Y-13852D01*
X816793Y-13704D01*
X816835Y-13551D01*
X816881Y-13404D01*
X816936Y-13256D01*
X817005Y-13117D01*
X817079Y-12983D01*
X817167Y-12858D01*
X817172Y-12849D01*
X817190Y-12831D01*
X817218Y-12803D01*
X817255Y-12761D01*
X817306Y-12715D01*
X817366Y-12660D01*
X817435Y-12604D01*
X817514Y-12544D01*
X817597Y-12489D01*
X817694Y-12433D01*
X817800Y-12378D01*
X817911Y-12332D01*
X818031Y-12290D01*
X818156Y-12262D01*
X818290Y-12239D01*
X818428Y-12235D01*
X818461D01*
X818498Y-12239D01*
D02*
G37*
G36*
X810288Y-12854D02*
X810293Y-12849D01*
X810297Y-12840D01*
X810306Y-12826D01*
X810325Y-12803D01*
X810367Y-12747D01*
X810417Y-12678D01*
X810487Y-12604D01*
X810565Y-12530D01*
X810648Y-12456D01*
X810741Y-12392D01*
X810745D01*
X810755Y-12387D01*
X810768Y-12378D01*
X810787Y-12369D01*
X810810Y-12355D01*
X810838Y-12341D01*
X810912Y-12313D01*
X810995Y-12286D01*
X811092Y-12258D01*
X811198Y-12239D01*
X811314Y-12235D01*
X811355D01*
X811388Y-12239D01*
X811425Y-12244D01*
X811471Y-12249D01*
X811522Y-12258D01*
X811577Y-12267D01*
X811702Y-12299D01*
X811766Y-12318D01*
X811836Y-12346D01*
X811905Y-12378D01*
X811974Y-12410D01*
X812039Y-12452D01*
X812108Y-12498D01*
X812113Y-12503D01*
X812122Y-12512D01*
X812145Y-12526D01*
X812168Y-12549D01*
X812201Y-12577D01*
X812233Y-12609D01*
X812274Y-12651D01*
X812316Y-12697D01*
X812362Y-12747D01*
X812409Y-12808D01*
X812455Y-12872D01*
X812506Y-12946D01*
X812552Y-13025D01*
X812598Y-13108D01*
X812644Y-13200D01*
X812686Y-13297D01*
X812690Y-13302D01*
X812695Y-13320D01*
X812704Y-13353D01*
X812718Y-13394D01*
X812737Y-13445D01*
X812755Y-13505D01*
X812774Y-13579D01*
X812797Y-13658D01*
X812815Y-13750D01*
X812834Y-13847D01*
X812852Y-13953D01*
X812871Y-14069D01*
X812884Y-14189D01*
X812894Y-14318D01*
X812903Y-14452D01*
Y-14591D01*
Y-14595D01*
Y-14605D01*
Y-14619D01*
Y-14642D01*
Y-14669D01*
X812898Y-14702D01*
Y-14739D01*
X812894Y-14780D01*
X812889Y-14882D01*
X812875Y-14993D01*
X812861Y-15118D01*
X812843Y-15252D01*
X812815Y-15395D01*
X812783Y-15538D01*
X812746Y-15690D01*
X812695Y-15838D01*
X812640Y-15986D01*
X812575Y-16125D01*
X812501Y-16259D01*
X812413Y-16383D01*
X812409Y-16388D01*
X812390Y-16411D01*
X812362Y-16443D01*
X812325Y-16480D01*
X812279Y-16531D01*
X812224Y-16582D01*
X812164Y-16637D01*
X812090Y-16698D01*
X812011Y-16758D01*
X811923Y-16813D01*
X811831Y-16864D01*
X811729Y-16915D01*
X811623Y-16952D01*
X811512Y-16984D01*
X811397Y-17003D01*
X811277Y-17012D01*
X811244D01*
X811221Y-17007D01*
X811193D01*
X811161Y-17003D01*
X811083Y-16989D01*
X810990Y-16970D01*
X810893Y-16942D01*
X810791Y-16901D01*
X810690Y-16845D01*
X810685D01*
X810681Y-16836D01*
X810667Y-16827D01*
X810648Y-16813D01*
X810598Y-16771D01*
X810537Y-16716D01*
X810468Y-16647D01*
X810390Y-16559D01*
X810316Y-16457D01*
X810242Y-16337D01*
Y-16905D01*
X809650D01*
Y-10595D01*
X810288D01*
Y-12854D01*
D02*
G37*
G36*
X807225Y-12239D02*
X807276Y-12244D01*
X807340Y-12253D01*
X807414Y-12267D01*
X807498Y-12286D01*
X807590Y-12309D01*
X807687Y-12341D01*
X807784Y-12382D01*
X807890Y-12433D01*
X807996Y-12489D01*
X808103Y-12558D01*
X808204Y-12641D01*
X808306Y-12734D01*
X808403Y-12840D01*
X808408Y-12844D01*
X808426Y-12868D01*
X808449Y-12905D01*
X808482Y-12951D01*
X808519Y-13015D01*
X808565Y-13089D01*
X808606Y-13177D01*
X808657Y-13283D01*
X808703Y-13399D01*
X808749Y-13528D01*
X808791Y-13671D01*
X808828Y-13824D01*
X808860Y-13995D01*
X808883Y-14175D01*
X808902Y-14369D01*
X808907Y-14577D01*
Y-14582D01*
Y-14591D01*
Y-14609D01*
Y-14633D01*
Y-14660D01*
X808902Y-14693D01*
Y-14734D01*
X808897Y-14780D01*
X808893Y-14882D01*
X808879Y-14998D01*
X808865Y-15127D01*
X808846Y-15270D01*
X808819Y-15418D01*
X808786Y-15566D01*
X808745Y-15718D01*
X808694Y-15871D01*
X808639Y-16018D01*
X808574Y-16162D01*
X808495Y-16291D01*
X808408Y-16411D01*
X808403Y-16416D01*
X808385Y-16439D01*
X808357Y-16467D01*
X808320Y-16504D01*
X808269Y-16550D01*
X808209Y-16601D01*
X808144Y-16656D01*
X808066Y-16712D01*
X807978Y-16767D01*
X807885Y-16822D01*
X807779Y-16873D01*
X807668Y-16919D01*
X807548Y-16956D01*
X807423Y-16984D01*
X807290Y-17007D01*
X807151Y-17012D01*
X807119D01*
X807077Y-17007D01*
X807026Y-17003D01*
X806962Y-16993D01*
X806888Y-16979D01*
X806804Y-16961D01*
X806712Y-16938D01*
X806615Y-16905D01*
X806513Y-16864D01*
X806407Y-16818D01*
X806306Y-16758D01*
X806199Y-16688D01*
X806093Y-16610D01*
X805991Y-16517D01*
X805894Y-16411D01*
X805890Y-16402D01*
X805871Y-16383D01*
X805848Y-16346D01*
X805816Y-16296D01*
X805779Y-16236D01*
X805737Y-16157D01*
X805691Y-16065D01*
X805645Y-15958D01*
X805599Y-15843D01*
X805552Y-15709D01*
X805511Y-15561D01*
X805474Y-15399D01*
X805442Y-15228D01*
X805418Y-15039D01*
X805400Y-14840D01*
X805395Y-14623D01*
Y-14619D01*
Y-14609D01*
Y-14595D01*
Y-14572D01*
Y-14545D01*
X805400Y-14508D01*
Y-14471D01*
X805405Y-14429D01*
X805409Y-14332D01*
X805423Y-14217D01*
X805437Y-14092D01*
X805455Y-13958D01*
X805483Y-13815D01*
X805515Y-13667D01*
X805557Y-13519D01*
X805603Y-13371D01*
X805659Y-13228D01*
X805728Y-13089D01*
X805802Y-12960D01*
X805890Y-12840D01*
X805894Y-12831D01*
X805913Y-12812D01*
X805941Y-12785D01*
X805978Y-12743D01*
X806028Y-12701D01*
X806088Y-12651D01*
X806158Y-12595D01*
X806236Y-12535D01*
X806319Y-12480D01*
X806416Y-12424D01*
X806523Y-12373D01*
X806633Y-12327D01*
X806754Y-12290D01*
X806878Y-12262D01*
X807012Y-12239D01*
X807151Y-12235D01*
X807183D01*
X807225Y-12239D01*
D02*
G37*
%LPC*%
G36*
X826278Y-2872D02*
X826259D01*
X826241Y-2877D01*
X826208D01*
X826176Y-2886D01*
X826134Y-2895D01*
X826088Y-2909D01*
X826042Y-2923D01*
X825987Y-2946D01*
X825931Y-2974D01*
X825876Y-3011D01*
X825816Y-3052D01*
X825760Y-3099D01*
X825700Y-3159D01*
X825645Y-3223D01*
X825589Y-3297D01*
X825585Y-3302D01*
X825576Y-3316D01*
X825562Y-3343D01*
X825543Y-3376D01*
X825525Y-3422D01*
X825497Y-3478D01*
X825474Y-3547D01*
X825446Y-3621D01*
X825418Y-3709D01*
X825395Y-3810D01*
X825368Y-3916D01*
X825349Y-4036D01*
X825331Y-4171D01*
X825317Y-4309D01*
X825308Y-4462D01*
X825303Y-4628D01*
Y-4632D01*
Y-4637D01*
Y-4651D01*
Y-4665D01*
Y-4711D01*
X825308Y-4771D01*
X825312Y-4845D01*
X825321Y-4933D01*
X825331Y-5025D01*
X825340Y-5127D01*
X825358Y-5229D01*
X825377Y-5339D01*
X825400Y-5450D01*
X825432Y-5556D01*
X825465Y-5663D01*
X825506Y-5764D01*
X825552Y-5857D01*
X825608Y-5945D01*
X825613Y-5949D01*
X825622Y-5963D01*
X825640Y-5986D01*
X825663Y-6009D01*
X825691Y-6046D01*
X825728Y-6078D01*
X825765Y-6120D01*
X825811Y-6157D01*
X825862Y-6199D01*
X825917Y-6240D01*
X825978Y-6273D01*
X826038Y-6305D01*
X826107Y-6333D01*
X826176Y-6356D01*
X826250Y-6370D01*
X826324Y-6374D01*
X826342D01*
X826361Y-6370D01*
X826393D01*
X826426Y-6360D01*
X826467Y-6351D01*
X826513Y-6342D01*
X826564Y-6323D01*
X826615Y-6300D01*
X826670Y-6273D01*
X826731Y-6240D01*
X826786Y-6199D01*
X826846Y-6152D01*
X826906Y-6097D01*
X826966Y-6037D01*
X827022Y-5963D01*
X827026Y-5958D01*
X827035Y-5945D01*
X827049Y-5922D01*
X827068Y-5884D01*
X827091Y-5843D01*
X827119Y-5787D01*
X827142Y-5727D01*
X827174Y-5654D01*
X827202Y-5570D01*
X827225Y-5478D01*
X827253Y-5376D01*
X827276Y-5265D01*
X827294Y-5141D01*
X827308Y-5011D01*
X827317Y-4868D01*
X827322Y-4716D01*
Y-4711D01*
Y-4706D01*
Y-4693D01*
Y-4674D01*
Y-4623D01*
X827317Y-4559D01*
X827313Y-4480D01*
X827308Y-4388D01*
X827299Y-4286D01*
X827285Y-4180D01*
X827266Y-4069D01*
X827248Y-3953D01*
X827225Y-3833D01*
X827197Y-3718D01*
X827160Y-3607D01*
X827119Y-3501D01*
X827072Y-3404D01*
X827022Y-3316D01*
X827017Y-3311D01*
X827008Y-3297D01*
X826989Y-3274D01*
X826971Y-3246D01*
X826938Y-3214D01*
X826906Y-3177D01*
X826865Y-3136D01*
X826818Y-3094D01*
X826768Y-3052D01*
X826712Y-3011D01*
X826647Y-2974D01*
X826583Y-2942D01*
X826513Y-2914D01*
X826439Y-2891D01*
X826361Y-2877D01*
X826278Y-2872D01*
D02*
G37*
G36*
X809997Y-2840D02*
X809978D01*
X809960Y-2844D01*
X809932Y-2849D01*
X809900Y-2854D01*
X809858Y-2863D01*
X809817Y-2877D01*
X809766Y-2900D01*
X809715Y-2923D01*
X809660Y-2955D01*
X809600Y-2992D01*
X809540Y-3039D01*
X809479Y-3089D01*
X809419Y-3154D01*
X809359Y-3223D01*
X809299Y-3306D01*
X809295Y-3311D01*
X809285Y-3330D01*
X809272Y-3353D01*
X809253Y-3394D01*
X809225Y-3441D01*
X809202Y-3501D01*
X809175Y-3570D01*
X809147Y-3648D01*
X809114Y-3736D01*
X809087Y-3838D01*
X809064Y-3949D01*
X809041Y-4069D01*
X809017Y-4198D01*
X809004Y-4341D01*
X808994Y-4489D01*
X808990Y-4651D01*
Y-4656D01*
Y-4660D01*
Y-4674D01*
Y-4688D01*
Y-4734D01*
X808994Y-4794D01*
X808999Y-4868D01*
X809004Y-4956D01*
X809013Y-5048D01*
X809027Y-5145D01*
X809041Y-5252D01*
X809064Y-5358D01*
X809087Y-5469D01*
X809114Y-5575D01*
X809147Y-5681D01*
X809188Y-5783D01*
X809235Y-5875D01*
X809285Y-5958D01*
X809290Y-5963D01*
X809299Y-5977D01*
X809318Y-5995D01*
X809336Y-6023D01*
X809369Y-6055D01*
X809401Y-6088D01*
X809443Y-6129D01*
X809484Y-6166D01*
X809535Y-6203D01*
X809590Y-6240D01*
X809650Y-6277D01*
X809710Y-6310D01*
X809780Y-6337D01*
X809849Y-6356D01*
X809923Y-6370D01*
X810001Y-6374D01*
X810020D01*
X810038Y-6370D01*
X810071Y-6365D01*
X810103Y-6360D01*
X810145Y-6351D01*
X810191Y-6337D01*
X810242Y-6319D01*
X810293Y-6296D01*
X810353Y-6268D01*
X810408Y-6231D01*
X810468Y-6189D01*
X810528Y-6143D01*
X810593Y-6083D01*
X810648Y-6019D01*
X810708Y-5940D01*
X810713Y-5935D01*
X810722Y-5922D01*
X810736Y-5894D01*
X810755Y-5857D01*
X810778Y-5811D01*
X810805Y-5755D01*
X810833Y-5686D01*
X810861Y-5607D01*
X810888Y-5520D01*
X810916Y-5423D01*
X810944Y-5312D01*
X810967Y-5192D01*
X810986Y-5062D01*
X810999Y-4919D01*
X811009Y-4766D01*
X811013Y-4600D01*
Y-4595D01*
Y-4591D01*
Y-4577D01*
Y-4559D01*
Y-4512D01*
X811009Y-4452D01*
X811004Y-4378D01*
X810999Y-4295D01*
X810990Y-4198D01*
X810976Y-4096D01*
X810962Y-3990D01*
X810939Y-3884D01*
X810916Y-3773D01*
X810888Y-3662D01*
X810856Y-3556D01*
X810815Y-3454D01*
X810768Y-3362D01*
X810718Y-3274D01*
X810713Y-3270D01*
X810704Y-3256D01*
X810690Y-3233D01*
X810667Y-3205D01*
X810634Y-3173D01*
X810602Y-3136D01*
X810561Y-3099D01*
X810519Y-3057D01*
X810468Y-3015D01*
X810413Y-2978D01*
X810353Y-2942D01*
X810288Y-2909D01*
X810223Y-2881D01*
X810149Y-2858D01*
X810075Y-2844D01*
X809997Y-2840D01*
D02*
G37*
G36*
X845751Y-4614D02*
X845746D01*
X845733Y-4623D01*
X845714Y-4632D01*
X845686Y-4642D01*
X845649Y-4660D01*
X845603Y-4674D01*
X845552Y-4697D01*
X845488Y-4716D01*
X845418Y-4739D01*
X845345Y-4762D01*
X845257Y-4785D01*
X845164Y-4813D01*
X845063Y-4836D01*
X844952Y-4859D01*
X844836Y-4882D01*
X844712Y-4905D01*
X844707D01*
X844693Y-4910D01*
X844675D01*
X844647Y-4919D01*
X844615Y-4924D01*
X844578Y-4933D01*
X844490Y-4951D01*
X844397Y-4974D01*
X844305Y-5002D01*
X844217Y-5034D01*
X844180Y-5048D01*
X844148Y-5067D01*
X844143Y-5071D01*
X844120Y-5081D01*
X844092Y-5104D01*
X844060Y-5131D01*
X844019Y-5168D01*
X843977Y-5210D01*
X843940Y-5261D01*
X843903Y-5316D01*
X843898Y-5325D01*
X843889Y-5344D01*
X843875Y-5376D01*
X843861Y-5423D01*
X843843Y-5478D01*
X843829Y-5543D01*
X843820Y-5612D01*
X843815Y-5690D01*
Y-5695D01*
Y-5704D01*
Y-5723D01*
X843820Y-5746D01*
Y-5774D01*
X843824Y-5806D01*
X843838Y-5880D01*
X843866Y-5963D01*
X843898Y-6051D01*
X843949Y-6134D01*
X843977Y-6176D01*
X844014Y-6213D01*
X844019D01*
X844023Y-6222D01*
X844037Y-6231D01*
X844051Y-6245D01*
X844097Y-6273D01*
X844162Y-6310D01*
X844240Y-6346D01*
X844337Y-6374D01*
X844448Y-6397D01*
X844578Y-6407D01*
X844610D01*
X844633Y-6402D01*
X844665D01*
X844698Y-6397D01*
X844781Y-6383D01*
X844878Y-6365D01*
X844979Y-6333D01*
X845086Y-6291D01*
X845192Y-6231D01*
X845197D01*
X845206Y-6222D01*
X845220Y-6213D01*
X845238Y-6199D01*
X845289Y-6162D01*
X845349Y-6106D01*
X845418Y-6037D01*
X845488Y-5958D01*
X845557Y-5866D01*
X845613Y-5760D01*
Y-5755D01*
X845617Y-5746D01*
X845626Y-5727D01*
X845636Y-5704D01*
X845645Y-5672D01*
X845659Y-5635D01*
X845668Y-5593D01*
X845682Y-5543D01*
X845696Y-5483D01*
X845710Y-5418D01*
X845719Y-5349D01*
X845728Y-5270D01*
X845737Y-5187D01*
X845746Y-5099D01*
X845751Y-5002D01*
Y-4900D01*
Y-4614D01*
D02*
G37*
G36*
X830436Y-2872D02*
X830394D01*
X830367Y-2877D01*
X830330Y-2881D01*
X830283Y-2891D01*
X830237Y-2900D01*
X830186Y-2918D01*
X830131Y-2937D01*
X830071Y-2960D01*
X830011Y-2988D01*
X829951Y-3020D01*
X829886Y-3062D01*
X829826Y-3112D01*
X829766Y-3163D01*
X829706Y-3228D01*
X829701Y-3233D01*
X829692Y-3246D01*
X829678Y-3265D01*
X829660Y-3293D01*
X829636Y-3330D01*
X829609Y-3371D01*
X829581Y-3422D01*
X829553Y-3482D01*
X829521Y-3547D01*
X829493Y-3616D01*
X829466Y-3695D01*
X829443Y-3782D01*
X829419Y-3875D01*
X829401Y-3972D01*
X829387Y-4073D01*
X829378Y-4184D01*
X831471D01*
Y-4180D01*
Y-4157D01*
X831466Y-4129D01*
X831461Y-4087D01*
X831452Y-4036D01*
X831443Y-3981D01*
X831434Y-3921D01*
X831420Y-3852D01*
X831388Y-3709D01*
X831346Y-3561D01*
X831286Y-3422D01*
X831254Y-3357D01*
X831217Y-3302D01*
X831212Y-3297D01*
X831203Y-3283D01*
X831184Y-3260D01*
X831161Y-3233D01*
X831129Y-3200D01*
X831092Y-3168D01*
X831050Y-3126D01*
X831004Y-3085D01*
X830949Y-3048D01*
X830888Y-3006D01*
X830824Y-2974D01*
X830754Y-2937D01*
X830685Y-2914D01*
X830607Y-2891D01*
X830523Y-2877D01*
X830436Y-2872D01*
D02*
G37*
G36*
X820752Y-2872D02*
X820734D01*
X820711Y-2877D01*
X820678D01*
X820637Y-2886D01*
X820590Y-2895D01*
X820540Y-2909D01*
X820484Y-2928D01*
X820429Y-2951D01*
X820364Y-2978D01*
X820300Y-3015D01*
X820235Y-3057D01*
X820170Y-3108D01*
X820105Y-3168D01*
X820041Y-3233D01*
X819981Y-3311D01*
X819976Y-3316D01*
X819967Y-3330D01*
X819953Y-3357D01*
X819930Y-3394D01*
X819907Y-3441D01*
X819884Y-3496D01*
X819851Y-3561D01*
X819824Y-3639D01*
X819796Y-3727D01*
X819768Y-3824D01*
X819740Y-3930D01*
X819717Y-4046D01*
X819694Y-4175D01*
X819680Y-4314D01*
X819671Y-4462D01*
X819666Y-4623D01*
Y-4628D01*
Y-4632D01*
Y-4646D01*
Y-4660D01*
Y-4706D01*
X819671Y-4766D01*
X819676Y-4840D01*
X819685Y-4928D01*
X819694Y-5021D01*
X819708Y-5122D01*
X819722Y-5229D01*
X819745Y-5335D01*
X819768Y-5446D01*
X819800Y-5556D01*
X819837Y-5663D01*
X819879Y-5764D01*
X819930Y-5857D01*
X819985Y-5945D01*
X819990Y-5949D01*
X819999Y-5963D01*
X820018Y-5986D01*
X820045Y-6009D01*
X820073Y-6046D01*
X820115Y-6078D01*
X820156Y-6120D01*
X820207Y-6157D01*
X820263Y-6199D01*
X820323Y-6240D01*
X820387Y-6273D01*
X820461Y-6305D01*
X820535Y-6333D01*
X820614Y-6356D01*
X820697Y-6370D01*
X820785Y-6374D01*
X820803D01*
X820826Y-6370D01*
X820858Y-6365D01*
X820900Y-6360D01*
X820942Y-6351D01*
X820992Y-6337D01*
X821048Y-6319D01*
X821108Y-6296D01*
X821168Y-6268D01*
X821233Y-6231D01*
X821297Y-6189D01*
X821362Y-6143D01*
X821427Y-6083D01*
X821491Y-6019D01*
X821552Y-5940D01*
X821556Y-5935D01*
X821565Y-5922D01*
X821579Y-5894D01*
X821602Y-5857D01*
X821625Y-5811D01*
X821653Y-5755D01*
X821686Y-5686D01*
X821713Y-5612D01*
X821745Y-5524D01*
X821773Y-5427D01*
X821801Y-5316D01*
X821824Y-5201D01*
X821847Y-5071D01*
X821861Y-4933D01*
X821870Y-4780D01*
X821875Y-4623D01*
Y-4619D01*
Y-4614D01*
Y-4600D01*
Y-4586D01*
Y-4540D01*
X821870Y-4480D01*
X821866Y-4406D01*
X821856Y-4323D01*
X821847Y-4226D01*
X821833Y-4129D01*
X821819Y-4023D01*
X821796Y-3912D01*
X821769Y-3805D01*
X821741Y-3695D01*
X821699Y-3588D01*
X821658Y-3487D01*
X821607Y-3394D01*
X821552Y-3306D01*
X821547Y-3302D01*
X821538Y-3288D01*
X821519Y-3265D01*
X821491Y-3237D01*
X821464Y-3205D01*
X821422Y-3168D01*
X821381Y-3131D01*
X821330Y-3089D01*
X821274Y-3048D01*
X821214Y-3011D01*
X821150Y-2974D01*
X821080Y-2942D01*
X821002Y-2914D01*
X820923Y-2891D01*
X820840Y-2877D01*
X820752Y-2872D01*
D02*
G37*
G36*
X805885D02*
X805867D01*
X805844Y-2877D01*
X805811D01*
X805770Y-2886D01*
X805723Y-2895D01*
X805673Y-2909D01*
X805617Y-2928D01*
X805562Y-2951D01*
X805497Y-2978D01*
X805432Y-3015D01*
X805368Y-3057D01*
X805303Y-3108D01*
X805238Y-3168D01*
X805174Y-3233D01*
X805114Y-3311D01*
X805109Y-3316D01*
X805100Y-3330D01*
X805086Y-3357D01*
X805063Y-3394D01*
X805040Y-3441D01*
X805017Y-3496D01*
X804984Y-3561D01*
X804957Y-3639D01*
X804929Y-3727D01*
X804901Y-3824D01*
X804873Y-3930D01*
X804850Y-4046D01*
X804827Y-4175D01*
X804813Y-4314D01*
X804804Y-4462D01*
X804799Y-4623D01*
Y-4628D01*
Y-4632D01*
Y-4646D01*
Y-4660D01*
Y-4706D01*
X804804Y-4766D01*
X804809Y-4840D01*
X804818Y-4928D01*
X804827Y-5021D01*
X804841Y-5122D01*
X804855Y-5229D01*
X804878Y-5335D01*
X804901Y-5446D01*
X804933Y-5556D01*
X804970Y-5663D01*
X805012Y-5764D01*
X805063Y-5857D01*
X805118Y-5945D01*
X805123Y-5949D01*
X805132Y-5963D01*
X805151Y-5986D01*
X805178Y-6009D01*
X805206Y-6046D01*
X805247Y-6078D01*
X805289Y-6120D01*
X805340Y-6157D01*
X805395Y-6199D01*
X805455Y-6240D01*
X805520Y-6273D01*
X805594Y-6305D01*
X805668Y-6333D01*
X805746Y-6356D01*
X805830Y-6370D01*
X805917Y-6374D01*
X805936D01*
X805959Y-6370D01*
X805991Y-6365D01*
X806033Y-6360D01*
X806075Y-6351D01*
X806125Y-6337D01*
X806181Y-6319D01*
X806241Y-6296D01*
X806301Y-6268D01*
X806366Y-6231D01*
X806430Y-6189D01*
X806495Y-6143D01*
X806560Y-6083D01*
X806624Y-6019D01*
X806684Y-5940D01*
X806689Y-5935D01*
X806698Y-5922D01*
X806712Y-5894D01*
X806735Y-5857D01*
X806758Y-5811D01*
X806786Y-5755D01*
X806818Y-5686D01*
X806846Y-5612D01*
X806878Y-5524D01*
X806906Y-5427D01*
X806934Y-5316D01*
X806957Y-5201D01*
X806980Y-5071D01*
X806994Y-4933D01*
X807003Y-4780D01*
X807008Y-4623D01*
Y-4619D01*
Y-4614D01*
Y-4600D01*
Y-4586D01*
Y-4540D01*
X807003Y-4480D01*
X806999Y-4406D01*
X806989Y-4323D01*
X806980Y-4226D01*
X806966Y-4129D01*
X806952Y-4023D01*
X806929Y-3912D01*
X806901Y-3805D01*
X806874Y-3695D01*
X806832Y-3588D01*
X806791Y-3487D01*
X806740Y-3394D01*
X806684Y-3306D01*
X806680Y-3302D01*
X806670Y-3288D01*
X806652Y-3265D01*
X806624Y-3237D01*
X806597Y-3205D01*
X806555Y-3168D01*
X806513Y-3131D01*
X806463Y-3089D01*
X806407Y-3048D01*
X806347Y-3011D01*
X806282Y-2974D01*
X806213Y-2942D01*
X806135Y-2914D01*
X806056Y-2891D01*
X805973Y-2877D01*
X805885Y-2872D01*
D02*
G37*
G36*
X857042Y-14614D02*
X857038D01*
X857024Y-14623D01*
X857005Y-14633D01*
X856978Y-14642D01*
X856941Y-14660D01*
X856894Y-14674D01*
X856844Y-14697D01*
X856779Y-14716D01*
X856710Y-14739D01*
X856636Y-14762D01*
X856548Y-14785D01*
X856456Y-14813D01*
X856354Y-14836D01*
X856243Y-14859D01*
X856128Y-14882D01*
X856003Y-14905D01*
X855998D01*
X855984Y-14910D01*
X855966D01*
X855938Y-14919D01*
X855906Y-14923D01*
X855869Y-14933D01*
X855781Y-14951D01*
X855689Y-14974D01*
X855596Y-15002D01*
X855509Y-15034D01*
X855472Y-15048D01*
X855439Y-15067D01*
X855435Y-15071D01*
X855412Y-15081D01*
X855384Y-15104D01*
X855351Y-15131D01*
X855310Y-15168D01*
X855268Y-15210D01*
X855231Y-15261D01*
X855194Y-15316D01*
X855190Y-15326D01*
X855180Y-15344D01*
X855167Y-15376D01*
X855153Y-15423D01*
X855134Y-15478D01*
X855120Y-15543D01*
X855111Y-15612D01*
X855107Y-15690D01*
Y-15695D01*
Y-15704D01*
Y-15723D01*
X855111Y-15746D01*
Y-15774D01*
X855116Y-15806D01*
X855130Y-15880D01*
X855157Y-15963D01*
X855190Y-16051D01*
X855241Y-16134D01*
X855268Y-16175D01*
X855305Y-16213D01*
X855310D01*
X855315Y-16222D01*
X855328Y-16231D01*
X855342Y-16245D01*
X855388Y-16273D01*
X855453Y-16309D01*
X855532Y-16346D01*
X855629Y-16374D01*
X855739Y-16397D01*
X855869Y-16407D01*
X855901D01*
X855924Y-16402D01*
X855957D01*
X855989Y-16397D01*
X856072Y-16383D01*
X856169Y-16365D01*
X856271Y-16333D01*
X856377Y-16291D01*
X856483Y-16231D01*
X856488D01*
X856497Y-16222D01*
X856511Y-16213D01*
X856530Y-16199D01*
X856580Y-16162D01*
X856640Y-16106D01*
X856710Y-16037D01*
X856779Y-15958D01*
X856848Y-15866D01*
X856904Y-15760D01*
Y-15755D01*
X856908Y-15746D01*
X856918Y-15727D01*
X856927Y-15704D01*
X856936Y-15672D01*
X856950Y-15635D01*
X856959Y-15593D01*
X856973Y-15543D01*
X856987Y-15483D01*
X857001Y-15418D01*
X857010Y-15349D01*
X857019Y-15270D01*
X857028Y-15187D01*
X857038Y-15099D01*
X857042Y-15002D01*
Y-14900D01*
Y-14614D01*
D02*
G37*
G36*
X832136D02*
X832131D01*
X832117Y-14623D01*
X832099Y-14633D01*
X832071Y-14642D01*
X832034Y-14660D01*
X831988Y-14674D01*
X831937Y-14697D01*
X831873Y-14716D01*
X831803Y-14739D01*
X831729Y-14762D01*
X831642Y-14785D01*
X831549Y-14813D01*
X831448Y-14836D01*
X831337Y-14859D01*
X831221Y-14882D01*
X831096Y-14905D01*
X831092D01*
X831078Y-14910D01*
X831059D01*
X831032Y-14919D01*
X830999Y-14923D01*
X830962Y-14933D01*
X830875Y-14951D01*
X830782Y-14974D01*
X830690Y-15002D01*
X830602Y-15034D01*
X830565Y-15048D01*
X830533Y-15067D01*
X830528Y-15071D01*
X830505Y-15081D01*
X830477Y-15104D01*
X830445Y-15131D01*
X830403Y-15168D01*
X830362Y-15210D01*
X830325Y-15261D01*
X830288Y-15316D01*
X830283Y-15326D01*
X830274Y-15344D01*
X830260Y-15376D01*
X830246Y-15423D01*
X830228Y-15478D01*
X830214Y-15543D01*
X830205Y-15612D01*
X830200Y-15690D01*
Y-15695D01*
Y-15704D01*
Y-15723D01*
X830205Y-15746D01*
Y-15774D01*
X830209Y-15806D01*
X830223Y-15880D01*
X830251Y-15963D01*
X830283Y-16051D01*
X830334Y-16134D01*
X830362Y-16175D01*
X830399Y-16213D01*
X830403D01*
X830408Y-16222D01*
X830422Y-16231D01*
X830436Y-16245D01*
X830482Y-16273D01*
X830547Y-16309D01*
X830625Y-16346D01*
X830722Y-16374D01*
X830833Y-16397D01*
X830962Y-16407D01*
X830995D01*
X831018Y-16402D01*
X831050D01*
X831083Y-16397D01*
X831166Y-16383D01*
X831263Y-16365D01*
X831364Y-16333D01*
X831471Y-16291D01*
X831577Y-16231D01*
X831581D01*
X831591Y-16222D01*
X831605Y-16213D01*
X831623Y-16199D01*
X831674Y-16162D01*
X831734Y-16106D01*
X831803Y-16037D01*
X831873Y-15958D01*
X831942Y-15866D01*
X831997Y-15760D01*
Y-15755D01*
X832002Y-15746D01*
X832011Y-15727D01*
X832020Y-15704D01*
X832030Y-15672D01*
X832043Y-15635D01*
X832053Y-15593D01*
X832067Y-15543D01*
X832080Y-15483D01*
X832094Y-15418D01*
X832104Y-15349D01*
X832113Y-15270D01*
X832122Y-15187D01*
X832131Y-15099D01*
X832136Y-15002D01*
Y-14900D01*
Y-14614D01*
D02*
G37*
G36*
X842531Y-12872D02*
X842489D01*
X842462Y-12877D01*
X842425Y-12881D01*
X842379Y-12891D01*
X842332Y-12900D01*
X842281Y-12918D01*
X842226Y-12937D01*
X842166Y-12960D01*
X842106Y-12988D01*
X842046Y-13020D01*
X841981Y-13062D01*
X841921Y-13113D01*
X841861Y-13163D01*
X841801Y-13228D01*
X841796Y-13233D01*
X841787Y-13247D01*
X841773Y-13265D01*
X841755Y-13293D01*
X841732Y-13330D01*
X841704Y-13371D01*
X841676Y-13422D01*
X841648Y-13482D01*
X841616Y-13547D01*
X841588Y-13616D01*
X841561Y-13695D01*
X841538Y-13782D01*
X841514Y-13875D01*
X841496Y-13972D01*
X841482Y-14073D01*
X841473Y-14184D01*
X843566D01*
Y-14180D01*
Y-14157D01*
X843561Y-14129D01*
X843557Y-14087D01*
X843547Y-14037D01*
X843538Y-13981D01*
X843529Y-13921D01*
X843515Y-13852D01*
X843483Y-13709D01*
X843441Y-13561D01*
X843381Y-13422D01*
X843349Y-13357D01*
X843312Y-13302D01*
X843307Y-13297D01*
X843298Y-13283D01*
X843279Y-13260D01*
X843256Y-13233D01*
X843224Y-13200D01*
X843187Y-13168D01*
X843145Y-13126D01*
X843099Y-13085D01*
X843044Y-13048D01*
X842984Y-13006D01*
X842919Y-12974D01*
X842850Y-12937D01*
X842780Y-12914D01*
X842702Y-12891D01*
X842619Y-12877D01*
X842531Y-12872D01*
D02*
G37*
G36*
X818424Y-12872D02*
X818382D01*
X818355Y-12877D01*
X818318Y-12881D01*
X818271Y-12891D01*
X818225Y-12900D01*
X818174Y-12919D01*
X818119Y-12937D01*
X818059Y-12960D01*
X817999Y-12988D01*
X817939Y-13020D01*
X817874Y-13062D01*
X817814Y-13113D01*
X817754Y-13163D01*
X817694Y-13228D01*
X817689Y-13233D01*
X817680Y-13247D01*
X817666Y-13265D01*
X817648Y-13293D01*
X817624Y-13330D01*
X817597Y-13371D01*
X817569Y-13422D01*
X817541Y-13482D01*
X817509Y-13547D01*
X817481Y-13616D01*
X817454Y-13695D01*
X817430Y-13782D01*
X817407Y-13875D01*
X817389Y-13972D01*
X817375Y-14073D01*
X817366Y-14184D01*
X819459D01*
Y-14180D01*
Y-14157D01*
X819454Y-14129D01*
X819449Y-14087D01*
X819440Y-14037D01*
X819431Y-13981D01*
X819422Y-13921D01*
X819408Y-13852D01*
X819376Y-13709D01*
X819334Y-13561D01*
X819274Y-13422D01*
X819242Y-13357D01*
X819205Y-13302D01*
X819200Y-13297D01*
X819191Y-13283D01*
X819172Y-13260D01*
X819149Y-13233D01*
X819117Y-13200D01*
X819080Y-13168D01*
X819038Y-13126D01*
X818992Y-13085D01*
X818937Y-13048D01*
X818876Y-13006D01*
X818812Y-12974D01*
X818742Y-12937D01*
X818673Y-12914D01*
X818595Y-12891D01*
X818511Y-12877D01*
X818424Y-12872D01*
D02*
G37*
G36*
X811240D02*
X811221D01*
X811203Y-12877D01*
X811175D01*
X811138Y-12886D01*
X811101Y-12895D01*
X811055Y-12909D01*
X811004Y-12928D01*
X810953Y-12951D01*
X810898Y-12979D01*
X810838Y-13015D01*
X810778Y-13057D01*
X810718Y-13108D01*
X810658Y-13168D01*
X810598Y-13237D01*
X810537Y-13316D01*
X810533Y-13320D01*
X810524Y-13334D01*
X810510Y-13362D01*
X810491Y-13399D01*
X810468Y-13445D01*
X810440Y-13501D01*
X810413Y-13565D01*
X810385Y-13639D01*
X810357Y-13727D01*
X810330Y-13819D01*
X810302Y-13926D01*
X810279Y-14037D01*
X810260Y-14161D01*
X810246Y-14295D01*
X810237Y-14438D01*
X810233Y-14591D01*
Y-14600D01*
Y-14623D01*
Y-14660D01*
Y-14706D01*
X810237Y-14766D01*
Y-14836D01*
X810242Y-14910D01*
X810246Y-14988D01*
X810265Y-15164D01*
X810283Y-15339D01*
X810302Y-15427D01*
X810316Y-15506D01*
X810334Y-15584D01*
X810357Y-15653D01*
Y-15658D01*
X810362Y-15667D01*
X810371Y-15686D01*
X810380Y-15709D01*
X810394Y-15741D01*
X810413Y-15774D01*
X810450Y-15852D01*
X810505Y-15940D01*
X810565Y-16028D01*
X810639Y-16111D01*
X810722Y-16189D01*
X810727D01*
X810732Y-16199D01*
X810745Y-16208D01*
X810764Y-16217D01*
X810815Y-16250D01*
X810879Y-16282D01*
X810958Y-16314D01*
X811046Y-16346D01*
X811143Y-16365D01*
X811249Y-16374D01*
X811267D01*
X811286Y-16370D01*
X811314Y-16365D01*
X811351Y-16360D01*
X811388Y-16351D01*
X811434Y-16337D01*
X811485Y-16319D01*
X811535Y-16296D01*
X811591Y-16268D01*
X811651Y-16231D01*
X811711Y-16189D01*
X811771Y-16139D01*
X811831Y-16079D01*
X811887Y-16014D01*
X811946Y-15935D01*
X811951Y-15931D01*
X811960Y-15917D01*
X811974Y-15889D01*
X811993Y-15852D01*
X812016Y-15806D01*
X812043Y-15751D01*
X812071Y-15681D01*
X812099Y-15607D01*
X812127Y-15519D01*
X812154Y-15423D01*
X812182Y-15312D01*
X812205Y-15196D01*
X812224Y-15067D01*
X812238Y-14928D01*
X812247Y-14776D01*
X812251Y-14619D01*
Y-14614D01*
Y-14609D01*
Y-14595D01*
Y-14577D01*
Y-14531D01*
X812247Y-14471D01*
X812242Y-14397D01*
X812238Y-14309D01*
X812228Y-14217D01*
X812214Y-14115D01*
X812201Y-14009D01*
X812177Y-13898D01*
X812154Y-13792D01*
X812127Y-13681D01*
X812094Y-13575D01*
X812053Y-13473D01*
X812007Y-13380D01*
X811956Y-13297D01*
X811951Y-13293D01*
X811942Y-13279D01*
X811928Y-13256D01*
X811905Y-13233D01*
X811877Y-13200D01*
X811840Y-13163D01*
X811803Y-13126D01*
X811757Y-13085D01*
X811706Y-13043D01*
X811656Y-13006D01*
X811595Y-12969D01*
X811531Y-12937D01*
X811461Y-12909D01*
X811392Y-12891D01*
X811318Y-12877D01*
X811240Y-12872D01*
D02*
G37*
G36*
X807133D02*
X807114D01*
X807091Y-12877D01*
X807059D01*
X807017Y-12886D01*
X806971Y-12895D01*
X806920Y-12909D01*
X806864Y-12928D01*
X806809Y-12951D01*
X806744Y-12979D01*
X806680Y-13015D01*
X806615Y-13057D01*
X806550Y-13108D01*
X806486Y-13168D01*
X806421Y-13233D01*
X806361Y-13311D01*
X806356Y-13316D01*
X806347Y-13330D01*
X806333Y-13357D01*
X806310Y-13394D01*
X806287Y-13441D01*
X806264Y-13496D01*
X806232Y-13561D01*
X806204Y-13639D01*
X806176Y-13727D01*
X806148Y-13824D01*
X806121Y-13930D01*
X806098Y-14046D01*
X806075Y-14175D01*
X806061Y-14314D01*
X806051Y-14461D01*
X806047Y-14623D01*
Y-14628D01*
Y-14633D01*
Y-14646D01*
Y-14660D01*
Y-14706D01*
X806051Y-14766D01*
X806056Y-14840D01*
X806065Y-14928D01*
X806075Y-15021D01*
X806088Y-15122D01*
X806102Y-15228D01*
X806125Y-15335D01*
X806148Y-15446D01*
X806181Y-15556D01*
X806218Y-15663D01*
X806259Y-15764D01*
X806310Y-15857D01*
X806366Y-15945D01*
X806370Y-15949D01*
X806379Y-15963D01*
X806398Y-15986D01*
X806426Y-16009D01*
X806453Y-16046D01*
X806495Y-16079D01*
X806536Y-16120D01*
X806587Y-16157D01*
X806643Y-16199D01*
X806703Y-16240D01*
X806767Y-16273D01*
X806841Y-16305D01*
X806915Y-16333D01*
X806994Y-16356D01*
X807077Y-16370D01*
X807165Y-16374D01*
X807183D01*
X807206Y-16370D01*
X807239Y-16365D01*
X807280Y-16360D01*
X807322Y-16351D01*
X807373Y-16337D01*
X807428Y-16319D01*
X807488Y-16296D01*
X807548Y-16268D01*
X807613Y-16231D01*
X807678Y-16189D01*
X807742Y-16143D01*
X807807Y-16083D01*
X807872Y-16018D01*
X807932Y-15940D01*
X807936Y-15935D01*
X807946Y-15921D01*
X807959Y-15894D01*
X807983Y-15857D01*
X808006Y-15811D01*
X808033Y-15755D01*
X808066Y-15686D01*
X808093Y-15612D01*
X808126Y-15524D01*
X808154Y-15427D01*
X808181Y-15316D01*
X808204Y-15201D01*
X808227Y-15071D01*
X808241Y-14933D01*
X808251Y-14780D01*
X808255Y-14623D01*
Y-14619D01*
Y-14614D01*
Y-14600D01*
Y-14586D01*
Y-14540D01*
X808251Y-14480D01*
X808246Y-14406D01*
X808237Y-14323D01*
X808227Y-14226D01*
X808214Y-14129D01*
X808200Y-14023D01*
X808177Y-13912D01*
X808149Y-13805D01*
X808121Y-13695D01*
X808080Y-13588D01*
X808038Y-13487D01*
X807987Y-13394D01*
X807932Y-13307D01*
X807927Y-13302D01*
X807918Y-13288D01*
X807899Y-13265D01*
X807872Y-13237D01*
X807844Y-13205D01*
X807802Y-13168D01*
X807761Y-13131D01*
X807710Y-13089D01*
X807654Y-13048D01*
X807594Y-13011D01*
X807530Y-12974D01*
X807460Y-12942D01*
X807382Y-12914D01*
X807303Y-12891D01*
X807220Y-12877D01*
X807133Y-12872D01*
D02*
G37*
%LPD*%
D18*
X280906Y179134D02*
D03*
X274213D02*
D03*
D22*
X259842Y35433D02*
D03*
X7874D02*
D03*
Y200787D02*
D03*
D23*
X268533Y198592D02*
D03*
Y192884D02*
D03*
D24*
X281594Y199521D02*
D03*
Y196962D02*
D03*
Y194403D02*
D03*
Y191844D02*
D03*
X273523Y191844D02*
D03*
Y194403D02*
D03*
Y196962D02*
D03*
Y199521D02*
D03*
D25*
X173904Y85056D02*
D03*
Y95056D02*
D03*
Y105056D02*
D03*
Y115056D02*
D03*
Y125056D02*
D03*
Y135056D02*
D03*
X112881Y85056D02*
D03*
Y95056D02*
D03*
Y105056D02*
D03*
Y115056D02*
D03*
Y125056D02*
D03*
D26*
Y135056D02*
D03*
D27*
X45276Y5118D02*
D03*
D28*
X55276D02*
D03*
X65276D02*
D03*
X75276D02*
D03*
X85276D02*
D03*
X105276D02*
D03*
X115276D02*
D03*
X125276D02*
D03*
X95276D02*
D03*
X135276D02*
D03*
X145276D02*
D03*
X155276D02*
D03*
X165276D02*
D03*
X175276D02*
D03*
X185276D02*
D03*
X195276D02*
D03*
X205276D02*
D03*
X215276D02*
D03*
X225276D02*
D03*
X235276D02*
D03*
X245276D02*
D03*
X255276D02*
D03*
X25276Y195118D02*
D03*
Y185118D02*
D03*
D29*
Y175118D02*
D03*
D30*
X17717Y17717D02*
D03*
X277559D02*
D03*
X17717Y250000D02*
D03*
X277559D02*
D03*
D31*
X268701Y179134D02*
D03*
X281540Y202756D02*
D03*
X281605Y188761D02*
D03*
X102569Y135056D02*
D03*
Y125056D02*
D03*
Y95056D02*
D03*
X287779Y188752D02*
D03*
X70615Y12139D02*
D03*
X102569Y105056D02*
D03*
Y115056D02*
D03*
X185276Y85056D02*
D03*
Y115056D02*
D03*
D32*
X47142Y76670D02*
D03*
X57087Y110236D02*
D03*
X47244Y118110D02*
D03*
X49213Y90551D02*
D03*
X47244Y102362D02*
D03*
X49213Y137795D02*
D03*
X47244Y125984D02*
D03*
M02*
