%TF.GenerationSoftware,KiCad,Pcbnew,(7.0.0-0)*%
%TF.CreationDate,2023-03-31T14:52:11+11:00*%
%TF.ProjectId,Notecarrier-B,4e6f7465-6361-4727-9269-65722d422e6b,A*%
%TF.SameCoordinates,Original*%
%TF.FileFunction,Paste,Bot*%
%TF.FilePolarity,Positive*%
%FSLAX46Y46*%
G04 Gerber Fmt 4.6, Leading zero omitted, Abs format (unit mm)*
G04 Created by KiCad (PCBNEW (7.0.0-0)) date 2023-03-31 14:52:11*
%MOMM*%
%LPD*%
G01*
G04 APERTURE LIST*
%ADD10R,0.300000X0.450000*%
%ADD11R,0.620000X0.620000*%
%ADD12R,0.420000X0.460000*%
%ADD13R,1.800000X1.150000*%
%ADD14R,0.700000X1.000000*%
%ADD15C,0.250000*%
%ADD16R,1.000000X0.800000*%
%ADD17R,0.500000X0.300000*%
%ADD18R,1.550000X0.600000*%
%ADD19R,1.800000X1.200000*%
%ADD20R,3.400000X1.000000*%
%ADD21R,1.000000X1.270000*%
%ADD22R,0.460000X0.420000*%
%ADD23R,0.350000X0.800000*%
%ADD24R,0.700000X0.550000*%
%ADD25R,0.750000X0.300000*%
%ADD26R,2.800000X2.300000*%
%ADD27R,1.800000X2.000000*%
%ADD28R,1.450000X1.150000*%
%ADD29R,1.350000X1.500000*%
%ADD30R,0.900000X0.800000*%
%ADD31R,1.900000X0.900000*%
%ADD32R,2.800000X1.400000*%
%ADD33R,0.800000X1.800000*%
G04 APERTURE END LIST*
D10*
%TO.C,DS4*%
X110709999Y-75664999D03*
X111209999Y-75664999D03*
X111709999Y-75664999D03*
X111709999Y-77014999D03*
X111209999Y-77014999D03*
X110709999Y-77014999D03*
%TD*%
D11*
%TO.C,R322*%
X118440799Y-86797399D03*
X118440799Y-85897399D03*
%TD*%
D12*
%TO.C,R5*%
X136999999Y-88079999D03*
X136999999Y-87419999D03*
%TD*%
D11*
%TO.C,R324*%
X123024999Y-80950999D03*
X123024999Y-81850999D03*
%TD*%
D13*
%TO.C,C13*%
X129469999Y-85199999D03*
X129469999Y-82299999D03*
%TD*%
D11*
%TO.C,C115*%
X123374999Y-66574999D03*
X123374999Y-65674999D03*
%TD*%
D14*
%TO.C,F1*%
X113357999Y-86999899D03*
X111657999Y-86999899D03*
%TD*%
D15*
%TO.C,U4*%
X125690000Y-85610000D03*
X125690000Y-85210000D03*
X125290000Y-85610000D03*
X125290000Y-85210000D03*
X124890000Y-85610000D03*
X124890000Y-85210000D03*
X124490000Y-85610000D03*
X124490000Y-85210000D03*
%TD*%
D10*
%TO.C,DS5*%
X110709999Y-70864999D03*
X111209999Y-70864999D03*
X111709999Y-70864999D03*
X111709999Y-72214999D03*
X111209999Y-72214999D03*
X110709999Y-72214999D03*
%TD*%
D16*
%TO.C,C118*%
X141799999Y-84999999D03*
X140199999Y-84999999D03*
%TD*%
D11*
%TO.C,R326*%
X136199999Y-72999999D03*
X135299999Y-72999999D03*
%TD*%
D17*
%TO.C,RR2*%
X115559999Y-70639999D03*
X115559999Y-71139999D03*
X115559999Y-71639999D03*
X115559999Y-72139999D03*
X115559999Y-72639999D03*
X115559999Y-73139999D03*
X115559999Y-73639999D03*
X115559999Y-74139999D03*
X114059999Y-74139999D03*
X114059999Y-73639999D03*
X114059999Y-73139999D03*
X114059999Y-72639999D03*
X114059999Y-72139999D03*
X114059999Y-71639999D03*
X114059999Y-71139999D03*
X114059999Y-70639999D03*
%TD*%
D13*
%TO.C,C112*%
X143749999Y-65499999D03*
X143749999Y-62599999D03*
%TD*%
D11*
%TO.C,C111*%
X141874999Y-69299999D03*
X141874999Y-70199999D03*
%TD*%
%TO.C,R10*%
X121889799Y-86789999D03*
X121889799Y-85889999D03*
%TD*%
%TO.C,C14*%
X127499999Y-85049999D03*
X127499999Y-84149999D03*
%TD*%
%TO.C,R323*%
X120769799Y-85889999D03*
X120769799Y-86789999D03*
%TD*%
D18*
%TO.C,J24*%
X140674999Y-75874999D03*
X140674999Y-76874999D03*
X140674999Y-77874999D03*
X140674999Y-78874999D03*
D19*
X144549999Y-74574999D03*
X144549999Y-80174999D03*
%TD*%
D11*
%TO.C,R319*%
X124749999Y-65674999D03*
X124749999Y-66574999D03*
%TD*%
D20*
%TO.C,L4*%
X125409999Y-75354999D03*
X125409999Y-77724999D03*
%TD*%
D11*
%TO.C,R6*%
X130869999Y-75399999D03*
X130869999Y-76299999D03*
%TD*%
D16*
%TO.C,C117*%
X141799999Y-88999999D03*
X140199999Y-88999999D03*
%TD*%
D21*
%TO.C,DSW1*%
X105871699Y-74921899D03*
X105871699Y-82541899D03*
%TD*%
D22*
%TO.C,R7*%
X137919999Y-85249999D03*
X138579999Y-85249999D03*
%TD*%
D11*
%TO.C,C10*%
X129109999Y-77589999D03*
X130009999Y-77589999D03*
%TD*%
D23*
%TO.C,U3*%
X128459999Y-74424999D03*
X129109999Y-74424999D03*
X129759999Y-74424999D03*
X129759999Y-76254999D03*
X129109999Y-76254999D03*
X128459999Y-76254999D03*
%TD*%
D11*
%TO.C,C9*%
X129109999Y-78889999D03*
X130009999Y-78889999D03*
%TD*%
D16*
%TO.C,C15*%
X124429999Y-83639999D03*
X126029999Y-83639999D03*
%TD*%
D24*
%TO.C,U5*%
X140774999Y-86549999D03*
X139724999Y-86549999D03*
X140774999Y-87449999D03*
X139724999Y-87449999D03*
D25*
X141699999Y-86249999D03*
X141699999Y-86749999D03*
X141699999Y-87249999D03*
X141699999Y-87749999D03*
X138799999Y-87749999D03*
X138799999Y-87249999D03*
X138799999Y-86749999D03*
X138799999Y-86249999D03*
%TD*%
D26*
%TO.C,TVS1*%
X136624999Y-69749999D03*
X136624999Y-65049999D03*
%TD*%
D10*
%TO.C,DS10*%
X110709999Y-68464999D03*
X111209999Y-68464999D03*
X111709999Y-68464999D03*
X111709999Y-69814999D03*
X111209999Y-69814999D03*
X110709999Y-69814999D03*
%TD*%
D16*
%TO.C,C16*%
X124429999Y-82089999D03*
X126029999Y-82089999D03*
%TD*%
D27*
%TO.C,DS15*%
X129234999Y-67014999D03*
X129234999Y-69664999D03*
X131584999Y-67014999D03*
X131584999Y-69664999D03*
D28*
X131394999Y-64589999D03*
X129424999Y-64589999D03*
%TD*%
D11*
%TO.C,C8*%
X128464999Y-73039999D03*
X129364999Y-73039999D03*
%TD*%
D10*
%TO.C,DS6*%
X110709999Y-73264999D03*
X111209999Y-73264999D03*
X111709999Y-73264999D03*
X111709999Y-74614999D03*
X111209999Y-74614999D03*
X110709999Y-74614999D03*
%TD*%
D26*
%TO.C,DS14*%
X133249999Y-87999999D03*
X133249999Y-83299999D03*
%TD*%
D14*
%TO.C,F2*%
X108976899Y-67258899D03*
X107276899Y-67258899D03*
%TD*%
D11*
%TO.C,R325*%
X136199999Y-71749999D03*
X135299999Y-71749999D03*
%TD*%
D29*
%TO.C,C113*%
X109148699Y-87170599D03*
X106698699Y-87170599D03*
%TD*%
D11*
%TO.C,R318*%
X123024999Y-79629499D03*
X123924999Y-79629499D03*
%TD*%
%TO.C,C116*%
X119649799Y-86789999D03*
X119649799Y-85889999D03*
%TD*%
D30*
%TO.C,Q2*%
X123309999Y-68239999D03*
X123309999Y-70139999D03*
X120939999Y-69189999D03*
%TD*%
D31*
%TO.C,R307*%
X141249999Y-65499999D03*
X141249999Y-62499999D03*
%TD*%
D32*
%TO.C,C114*%
X106002799Y-70253199D03*
X106002799Y-72853199D03*
%TD*%
D11*
%TO.C,C7*%
X128464999Y-71739999D03*
X129364999Y-71739999D03*
%TD*%
D17*
%TO.C,RR1*%
X118259999Y-70639999D03*
X118259999Y-71139999D03*
X118259999Y-71639999D03*
X118259999Y-72139999D03*
X118259999Y-72639999D03*
X118259999Y-73139999D03*
X118259999Y-73639999D03*
X118259999Y-74139999D03*
X116759999Y-74139999D03*
X116759999Y-73639999D03*
X116759999Y-73139999D03*
X116759999Y-72639999D03*
X116759999Y-72139999D03*
X116759999Y-71639999D03*
X116759999Y-71139999D03*
X116759999Y-70639999D03*
%TD*%
D33*
%TO.C,L2*%
X125789999Y-87709999D03*
X124189999Y-87709999D03*
%TD*%
M02*
