M48
;Layer_Color=9474304
;FILE_FORMAT=2:5
INCH
;TYPE=PLATED
T01F00S00C0.01181
T03F00S00C0.03543
;TYPE=NON_PLATED
T04F00S00C0.02559
T05F00S00C0.03543
T06F00S00C0.04331
T07F00S00C0.06299
T08F00S00C0.12992
T09F00S00C0.14567
%
T01
X0002756Y0025591
X0030709Y0027165
X0034252Y0027165
X0039370Y0025984
X0037598Y0022244
X0047638Y0018307
X0044921Y0010236
X0054921Y0010236
X0064921Y0010236
X0074921Y0010236
X0084921Y0010236
X0094921Y0010236
X0104921Y0010236
X0109252Y0023031
X0114764Y0023228
X0122047Y0026772
X0124409Y0020472
X0124426Y0017390
X0123701Y0014528
X0124921Y0010236
X0134921Y0010236
X0144921Y0010236
X0154921Y0010236
X0164921Y0010236
X0171260Y0017717
X0168307Y0021457
X0168110Y0025984
X0097638Y0023228
X0086024Y0023228
X0074016Y0025591
X0071260Y0022441
X0059646Y0022244
X0034921Y0010236
X0030984Y0010236
X0174921Y0010236
X0184921Y0010236
X0193307Y0015748
X0193307Y0019685
X0193307Y0023622
X0193307Y0027559
X0183071Y0023622
X0270079Y0007087
X0269882Y0033071
X0273622Y0033071
X0277559Y0033071
X0281496Y0033071
X0264764Y0033071
X0261024Y0033071
X0257087Y0033071
X0251575Y0033071
X0251575Y0037402
X0251575Y0041339
X0251575Y0045276
X0251575Y0049213
X0251575Y0053150
X0251575Y0057087
X0251575Y0061024
X0251575Y0064961
X0251575Y0068898
X0251575Y0072835
X0248425Y0073819
X0244488Y0073819
X0240551Y0073819
X0236614Y0073819
X0232677Y0073819
X0228740Y0073819
X0224803Y0073819
X0220866Y0073819
X0216929Y0073819
X0212992Y0073819
X0209055Y0073819
X0212402Y0083071
X0215158Y0087795
X0219882Y0085433
X0217717Y0080709
X0222441Y0091142
X0222047Y0095669
X0211614Y0093504
X0198425Y0097244
X0195669Y0099213
X0192913Y0100984
X0189764Y0102559
X0188583Y0105905
X0191535Y0105905
X0185433Y0106102
X0183825Y0116043
X0190945Y0116043
X0198425Y0115354
X0199803Y0126772
X0209449Y0127165
X0209449Y0134646
X0200787Y0137205
X0184646Y0138189
X0176772Y0136221
X0174921Y0139764
X0177362Y0130512
X0177690Y0120866
X0187402Y0126378
X0187598Y0129331
X0217126Y0126575
X0228346Y0118110
X0241142Y0111221
X0240551Y0103937
X0237402Y0094882
X0229331Y0087598
X0234842Y0078347
X0255118Y0070866
X0260630Y0070866
X0263386Y0069488
X0272287Y0072595
X0274803Y0070079
X0279528Y0078740
X0277165Y0088386
X0271654Y0093898
X0261024Y0093898
X0259921Y0099606
X0260118Y0102559
X0260039Y0107677
X0260039Y0112008
X0266339Y0113976
X0272244Y0113976
X0271654Y0123228
X0271654Y0127756
X0269488Y0135827
X0260236Y0141732
X0245079Y0143855
X0242520Y0135433
X0242323Y0127362
X0281496Y0120276
X0297264Y0112441
X0297264Y0108110
X0297264Y0102992
X0297264Y0098662
X0290158Y0074921
X0290158Y0064921
X0290158Y0054921
X0290158Y0044921
X0271850Y0048622
X0271926Y0059134
X0255118Y0063189
X0260630Y0048031
X0267717Y0038583
X0263189Y0082087
X0212598Y0110236
X0182677Y0096457
X0182628Y0093444
X0182874Y0060827
X0186221Y0051968
X0193307Y0051181
X0193307Y0055118
X0193307Y0059055
X0193307Y0062992
X0193307Y0047244
X0193307Y0043307
X0193307Y0039370
X0193307Y0035433
X0193307Y0031496
X0185256Y0033071
X0182677Y0042913
X0182677Y0047244
X0174253Y0044488
X0173228Y0039370
X0173022Y0030726
X0161417Y0028740
X0156693Y0028937
X0151181Y0030512
X0150000Y0035236
X0154134Y0033661
X0145866Y0032677
X0145669Y0037008
X0141142Y0038583
X0141732Y0045079
X0145079Y0043504
X0149803Y0041142
X0151969Y0046457
X0155512Y0053937
X0160630Y0052362
X0163779Y0052362
X0163976Y0047835
X0162402Y0042913
X0160827Y0039961
X0163189Y0037205
X0167126Y0054724
X0169685Y0056890
X0164961Y0059055
X0161811Y0064567
X0161811Y0068110
X0171063Y0069488
X0163779Y0078543
X0162992Y0081890
X0162008Y0085039
X0161614Y0090748
X0160039Y0093504
X0160039Y0096457
X0157087Y0097047
X0154331Y0090748
X0147638Y0091929
X0149606Y0094488
X0147047Y0085433
X0148819Y0082087
X0148425Y0077756
X0153937Y0078347
X0158661Y0077953
X0151181Y0073425
X0145472Y0073228
X0142126Y0073032
X0139173Y0074410
X0136614Y0076772
X0135630Y0070669
X0130118Y0072638
X0125787Y0072835
X0121850Y0072835
X0118898Y0073032
X0125787Y0083268
X0129134Y0095276
X0123031Y0098228
X0117717Y0100000
X0111024Y0096457
X0111417Y0092323
X0099611Y0089867
X0094095Y0090059
X0096850Y0086811
X0097835Y0080512
X0101181Y0080512
X0104134Y0080512
X0107087Y0080512
X0098819Y0069488
X0090945Y0066535
X0090945Y0063189
X0089370Y0059842
X0088189Y0057087
X0078150Y0056496
X0081496Y0067716
X0084252Y0070472
X0087402Y0072835
X0088090Y0068307
X0087402Y0083268
X0084449Y0097244
X0081299Y0097244
X0078347Y0097244
X0080905Y0101181
X0077756Y0090551
X0066929Y0085039
X0066339Y0072047
X0058661Y0061417
X0055512Y0058661
X0053937Y0058465
X0052756Y0054724
X0048031Y0048622
X0048031Y0041535
X0037008Y0046457
X0032679Y0046451
X0032854Y0052362
X0037008Y0052362
X0024409Y0052165
X0023031Y0047835
X0024803Y0044488
X0032677Y0035433
X0033071Y0062205
X0048425Y0070079
X0048228Y0082284
X0048031Y0087795
X0048031Y0093701
X0050787Y0098819
X0048228Y0101969
X0051181Y0104724
X0048031Y0108465
X0037598Y0108465
X0036811Y0101969
X0033465Y0098819
X0037008Y0093701
X0020079Y0093307
X0020079Y0096850
X0026772Y0108268
X0029134Y0122835
X0030118Y0133858
X0034921Y0139764
X0044921Y0139764
X0044094Y0131299
X0043110Y0122047
X0055905Y0119685
X0056299Y0125787
X0064961Y0128150
X0064921Y0139764
X0074921Y0139764
X0078543Y0128740
X0077559Y0122638
X0081102Y0121653
X0085827Y0124016
X0085827Y0118504
X0085827Y0112598
X0086615Y0131889
X0090551Y0131890
X0094882Y0124016
X0101181Y0124016
X0109843Y0120079
X0105905Y0111811
X0105905Y0107874
X0106102Y0102953
X0112402Y0107677
X0122441Y0120866
X0132677Y0116535
X0132283Y0112205
X0135630Y0110630
X0134252Y0124803
X0141339Y0122047
X0148031Y0126772
X0150394Y0124409
X0155118Y0124409
X0152756Y0126772
X0157480Y0126772
X0161811Y0125984
X0164567Y0127953
X0164921Y0139764
X0154921Y0139764
X0144921Y0139764
X0134921Y0139764
X0124921Y0139764
X0114921Y0139764
X0104921Y0139764
X0094921Y0139764
X0054921Y0139764
X0062598Y0104528
X0066318Y0052585
X0061417Y0049409
X0066535Y0044094
X0055118Y0030118
X0094488Y0030709
X0098032Y0033858
X0111811Y0033661
X0114370Y0036811
X0114370Y0040551
X0114659Y0044187
X0116339Y0050590
X0117717Y0054331
X0121260Y0053150
X0121653Y0047441
X0127165Y0041732
X0126917Y0038189
X0123228Y0037205
X0142717Y0031299
X0142717Y0062598
X0142520Y0067716
X0149803Y0068701
X0149803Y0065551
X0151575Y0062795
X0132283Y0064567
X0116339Y0057874
X0110433Y0056496
X0110433Y0060433
X0104331Y0045669
X0097244Y0047638
X0142717Y0078937
X0139173Y0085433
X0138976Y0091732
X0010630Y0099213
X0002953Y0098425
X0002953Y0087205
X0002756Y0069685
X0002756Y0064961
X0002756Y0061024
X0002756Y0057087
X0002756Y0053150
X0002756Y0049213
X0002756Y0045276
X0002756Y0041339
X0002756Y0037402
X0002756Y0033465
X0002756Y0029528
X0005512Y0108661
X0012598Y0115748
X0009055Y0120276
X0002953Y0120866
X0002756Y0125591
T03
X0039921Y-0000039
X0049921Y-0000039
X0059921Y-0000039
X0069921Y-0000039
X0079921Y-0000039
X0089921Y-0000039
X0099921Y-0000039
X0109921Y-0000039
X0119921Y-0000039
X0129921Y-0000039
X0139921Y-0000039
X0149921Y-0000039
X0159921Y-0000039
X0169921Y-0000039
X0169921Y0010039
X0159921Y0010039
X0149921Y0010039
X0139921Y0010039
X0129921Y0010039
X0119921Y0010039
X0109921Y0010039
X0099921Y0010039
X0089921Y0010039
X0079921Y0010039
X0069921Y0010039
X0059921Y0010039
X0049921Y0010039
X0039921Y0010039
X0179921Y0010039
X0189921Y0010039
X0189921Y-0000039
X0179921Y-0000039
X0179921Y0140000
X0189921Y0140000
X0189921Y0150079
X0179921Y0150079
X0289921Y0080000
X0289921Y0070000
X0289921Y0060000
X0289921Y0050000
X0289921Y0040000
X0300000Y0040000
X0300000Y0050000
X0300000Y0060000
X0300000Y0070000
X0300000Y0080000
X0169921Y0140000
X0159921Y0140000
X0149921Y0140000
X0139921Y0140000
X0129921Y0140000
X0119921Y0140000
X0109921Y0140000
X0099921Y0140000
X0089921Y0140000
X0079921Y0140000
X0069921Y0140000
X0059921Y0140000
X0049921Y0140000
X0039921Y0140000
X0039921Y0150079
X0049921Y0150079
X0059921Y0150079
X0069921Y0150079
X0079921Y0150079
X0089921Y0150079
X0099921Y0150079
X0109921Y0150079
X0119921Y0150079
X0129921Y0150079
X0139921Y0150079
X0149921Y0150079
X0159921Y0150079
X0169921Y0150079
T04
X0024833Y0038032
X0024833Y0060787
T05
X0016337Y0078150
X0016337Y0089961
T06
X0063583Y0035630
T07
X0063583Y0114370
T08
X0015000Y0015000
X0285000Y0015000
X0285000Y0135000
X0015000Y0135000
T09
X0194488Y0075000
M30
