M48
;Layer_Color=9474304
;FILE_FORMAT=2:5
INCH
T10F00S00C0.20000
%
G90
G05
T10
G00X0285002Y-0010000
M15
G01X0285002Y-0009980
G01X0285785Y-0010016
G01X0288138Y-0009830
G01X0289688Y-0009585
G01X0291984Y-0009034
G01X0293476Y-0008549
G01X0295658Y-0007645
G01X0297056Y-0006933
G01X0299069Y-0005699
G01X0300339Y-0004777
G01X0302134Y-0003243
G01X0303244Y-0002134
G01X0304777Y-0000339
G01X0305699Y0000931
G01X0306933Y0002944
G01X0307645Y0004342
G01X0308549Y0006524
G01X0309034Y0008016
G01X0309585Y0010312
G01X0309830Y0011862
G01X0310046Y0015004
G01X0310000Y0135004
G01X0309980Y0135004
G01X0310016Y0135785
G01X0309830Y0138138
G01X0309585Y0139688
G01X0309034Y0141984
G01X0308549Y0143476
G01X0307645Y0145658
G01X0306933Y0147056
G01X0305699Y0149069
G01X0304777Y0150339
G01X0303244Y0152134
G01X0302134Y0153243
G01X0300339Y0154777
G01X0299069Y0155699
G01X0297056Y0156933
G01X0295658Y0157645
G01X0293476Y0158549
G01X0291984Y0159034
G01X0289688Y0159585
G01X0288138Y0159830
G01X0284998Y0160046
G01X0014998Y0160000
G01X0014998Y0159980
G01X0014215Y0160016
G01X0011862Y0159830
G01X0010312Y0159585
G01X0008016Y0159034
G01X0006524Y0158549
G01X0004342Y0157645
G01X0002944Y0156933
G01X0000931Y0155699
G01X-0000339Y0154777
G01X-0002134Y0153243
G01X-0003243Y0152134
G01X-0004777Y0150339
G01X-0005699Y0149069
G01X-0006933Y0147056
G01X-0007645Y0145658
G01X-0008549Y0143476
G01X-0009034Y0141984
G01X-0009585Y0139688
G01X-0009830Y0138138
G01X-0010046Y0134996
G01X-0010000Y0014996
G01X-0009980Y0014996
G01X-0010016Y0014215
G01X-0009830Y0011862
G01X-0009585Y0010312
G01X-0009034Y0008016
G01X-0008549Y0006524
G01X-0007645Y0004342
G01X-0006933Y0002944
G01X-0005699Y0000931
G01X-0004777Y-0000339
G01X-0003243Y-0002134
G01X-0002134Y-0003243
G01X-0000339Y-0004777
G01X0000931Y-0005699
G01X0002944Y-0006933
G01X0004342Y-0007645
G01X0006524Y-0008549
G01X0008016Y-0009034
G01X0010312Y-0009585
G01X0011862Y-0009830
G01X0015002Y-0010046
G01X0285002Y-0010000
M16
M17
M30
