M48
;Layer_Color=9474304
;FILE_FORMAT=2:5
INCH,LZ
;TYPE=PLATED
T1F00S00C0.00787
T2F00S00C0.01968
T4F00S00C0.02795
T5F00S00C0.02799
T6F00S00C0.03937
T7F00S00C0.04331
T8F00S00C0.14567
;TYPE=NON_PLATED
T9F00S00C0.04331
T10F00S00C0.06299
T11F00S00C0.10000
T12F00S00C0.12992
%
T01
X0003937Y0007874
Y0011811
Y0015748
Y0019685
Y0023622
Y0027559
Y0031496
Y0035433
Y003937
Y0051181
Y0055118
Y0059055
Y0062992
Y0066929
Y0070866
Y0074803
Y007874
Y0082677
Y0086614
Y0090551
Y0094488
Y0098425
Y0102362
Y0106299
Y0122047
Y0125984
X0019701Y0141134
X00235Y01425
X00345Y01395
X0033Y01345
X0036835Y0132186
X00405Y01385
X00375Y01435
X0043861Y0147674
X0046518Y0145982
X00465Y01545
X0074Y0152503
X00795Y0152587
X0085
X00885
X0095
X0103Y01535
X0109Y0148
X01115
X01145
X0117
X0121Y01475
X01285Y0148
X0131
X015087Y0148904
X0153Y0141
X01455Y0138
X0113Y013513
X0098
X0093012Y01295
X00875
Y0134
X00815Y01365
Y01295
X00675
Y01375
X00615Y01345
X0103Y01295
X0098Y0114
X0094032Y0104
X0094Y01005
X0097528Y0096443
X0101072Y00985
X01115Y00955
X01135Y0094
X01195Y0097
Y009
X0121Y00865
X0121002Y00836
X0128Y0085
Y00885
X0134678Y0087822
X0131928Y0085072
X0138583Y0081102
X0132Y007
X0117Y00635
X011Y0061
X0103678Y0064678
X0093Y0092
X0086Y0091
X0078787Y0099917
X005315Y009
Y0086614
Y0082677
Y007874
Y0074803
Y0070866
Y0066929
Y0062992
X005Y0047
X0048Y0045
X0041339Y0043307
X0037402
X0033465
X0029528
Y0049213
X0033465
X0037402
X0025591
X0021654
X0017717
X00225Y00435
X001378Y0033465
Y0029528
Y0025591
X0017717Y0023622
X0021654Y0019685
X002885Y0020977
X0031803Y0018024
X0031496Y0009793
X0027559Y0009843
Y0003937
X0031496
X0035433
X0023622
X0019685
X0015748
X0011811
X0007874
X0024914Y0024914
X0049Y0023957
X00515Y0023
X0054738Y0013446
X0057097Y0013557
X0060651Y0013287
X0062849
X0082677Y0003937
X0094488
X0098425
X0102362
X0106299
X0106Y0012
X0102
X01195
X01245Y001
X0125984Y0003937
X0122047
X011811
X0137795
X0141732
X0145669
X0149606
X0133978Y0016591
X0134Y00195
X0132Y0018
X0122Y00245
X0152Y0059
X0152362Y0101575
X01405Y0097
X0139Y0106
X013Y0097
X01225Y01105
X01165Y0113
Y01055
X0031496Y0106299
Y0109252
X0037Y01125
X0027559Y0096457
X0159334Y0095666
X0170343Y0097557
X01685Y01085
X01655Y0106
X019685Y0106299
Y0102362
Y0098425
Y0094488
Y0090551
Y0086614
Y0082677
Y007874
Y0074803
Y0070866
Y0066929
Y0062992
Y0059055
Y0055118
Y0051181
Y0047244
Y003937
Y0035433
Y0031496
Y0027559
Y0023622
Y0019685
Y0015748
Y0011811
Y0007874
X0192913Y0003937
X0188976
X0185039
X0181102
X0177165
X0173228
X0169291
X0165354
X0161417
X01715Y0059
X01925
X019685Y0110236
Y0114173
Y011811
Y0122047
Y0125984
X01905Y01275
X01775Y0132
X01565Y01375
X01705Y0173
X0173Y01715
X0172Y01805
X0168Y018
X0167072Y0183428
X0173Y0265983
X0145669Y0271654
Y027559
Y0279528
Y0283465
X0141732
X0137795
Y0279528
X0141732
Y027559
X0137795
Y0271654
X0141732
X0124016
X0120079
X0116142
X0120079Y027559
X0124016
Y0279528
Y0283465
X0120079Y028937
Y0293307
Y0297244
Y0301181
Y0305118
Y0309055
X0116142
Y0305118
Y0301181
Y0297244
Y0293307
Y028937
Y0285433
X01175Y02605
X01145
X01115
X0102362Y0259842
X0098425Y0257874
X0100394Y025315
X0104331Y0253937
X0104Y02645
X0084646Y0273622
X0080709
Y0277559
Y0281496
X0084646
Y0277559
Y0285433
X0080709
Y028937
X0084646
Y0293307
Y0297244
X0080709
Y0293307
X0084646Y0301181
X0080709Y0311024
X0090551Y0309055
X0096457
X0104331
X0110236
X01315Y03065
X01345Y0302706
X0132Y0257
Y02545
Y0252
Y02495
X013Y0251
Y02535
Y0256
Y02585
X0128Y0257
Y02545
Y0252
Y02495
X0110236Y0232283
Y0228346
X0106299
Y0232283
X01065Y0211
X01045Y02125
X0098229Y0208238
X0086614Y0216535
X0082677
X007874
Y0220472
X0082677
X0086614
X0082677Y0228346
Y0232283
X007874
Y0228346
X0074803
Y0232283
X0070866
Y0228346
Y0244094
Y0248031
X0074803
X007874
Y0244094
X0082677
Y0248031
X0079528Y0251575
X0074803Y0253937
Y0257874
Y0244094
X0062992Y0265748
Y0269685
Y0273622
Y0277559
X0062005Y03
X0049213Y0299213
Y030315
Y0295276
Y0291339
X0033465
Y0287402
Y0283465
Y0279528
X0037402
Y027559
X0033465
Y0271654
X0037402
X0049213Y0265748
Y0261811
Y0257874
Y0253937
X0035433
Y025
Y0246063
Y0242126
X0047Y0228
X005674Y0213779
X0061528Y0200528
X0053Y0197
X0044Y0199
X0042Y0202
X0047
X0047437Y0184985
X0049Y0183
X0047437Y0181
X0048572Y0178928
X0041913Y0186562
X0042Y0189
X00435Y01645
X0051114Y0156302
X0068Y01635
X00705Y01655
X0074Y0167
X0078
X00815
X0090979Y0166544
X0092Y0164413
X0092113Y0179056
X0098Y0179
X0096Y01815
X0086Y01845
X0082952Y0184327
X008037Y0186197
X00785Y01885
X0076198Y0190823
X0076Y01935
X00695Y0178
X00655Y01665
X0105Y0166413
X011928Y016622
X01315Y0166
X0148Y01675
X01485Y018
X0151
X01405Y0188012
X0135506Y01925
X0135Y0199626
X0128Y02025
X01255Y0203
X0127Y0205
X0128Y0207
X0125Y02095
X0132Y02135
X0134Y02175
X01337Y022
X01415Y02153
X0141349Y0212651
X01415Y021
X0155Y0208
X01555Y02035
X0135Y0184
X0156Y01615
X00125Y0203
X0033465Y0295276
Y0299213
Y030315
Y0307087
X0055Y0309
X0080709Y0314032
X0084646
X0096457Y0312992
X0104331
X0110236
X0116142
X0120079
X0116142Y0320866
X0112205
X0108268
X0104331
X0100394
X0132Y0321
X0135827Y0320866
X0139764
X0143701
X0143Y032811
Y0331
Y0334
X01365Y03285
X01275Y0330339
X0130055Y0333555
X01265Y0379
X01225
X0122047Y0401575
X0125984
X0141732
X0145669
X0149606
X0153543
X0106299
X0102362
X0098425
X0094488
X007874
X0074803
X0059055
X0055118
X0051181
X0047244
X0031496
X0027559
X0023622
X0019685
X0015748
X0011811
X0007874
X0003937Y0397638
Y0393701
Y0389764
Y0385827
Y038189
Y0377953
Y0374016
X0075Y0374
X008
X0031496Y0322047
X0161417Y0320866
Y0326772
Y0332677
Y0338583
X019685Y0374016
Y0377953
Y038189
Y0385827
Y0389764
Y0393701
Y0397638
X0192913Y0401575
X0188976
X0185039
X0181102
X0177165
X0173228
X0169291
T02
X00385Y00075
X0036Y0018
X0084Y0018614
X00895
X00865Y00225
X0131Y0179996
T04
X0151Y03895
T05
X00205Y00565
X00375Y0056
X00705Y007
X00835
X01115Y0077481
X0019Y0096
Y0103
X01575Y0219
X0103Y02185
X0099Y0244
X00775Y02045
X0059Y01715
X00445Y0172437
X0127214Y0158786
X00555Y02735
X00485Y03445
X0026181Y0346972
X0029528Y0375984
X00565Y03905
X0065Y0365028
X00885
X0092Y0344
X0113467Y0328033
X0149Y03435
X0104Y039
T06
X0025Y003874
X0035
X0045
X0055
X0065
X0075
X0085
X0095
X0105
X0115
X0125
X0135
Y011874
X0145
X0155
X0125
X0115
X0105
X0095
X0085
X0075
X0065
X0055
X0045
X0035
X0025
X0165
X0175
T07
X0005512Y0136142
Y0146142
Y0156142
X0161Y01465
X0194488Y0146142
Y0156142
Y0136142
Y0166142
Y0176142
Y0186142
Y0196142
Y0206142
Y0216142
Y0226142
Y0236142
Y0246142
Y0256142
Y0266142
Y0276142
Y0286142
Y0296142
Y0306142
X0161Y01565
X0005512Y0166142
Y0176142
Y0186142
Y0196142
Y0206142
Y0216142
Y0226142
Y0236142
Y0246142
Y0256142
Y0266142
Y0276142
Y0286142
Y0296142
Y0306142
Y0316142
Y0326142
Y0336142
Y0346142
Y0356142
Y0366142
X0194488
Y0356142
Y0346142
Y0336142
Y0326142
Y0316142
T08
X01Y0294291
T09
X013937Y0163386
T10
X006063Y0163386
T11
X001Y004374
Y0114016
X019
Y004374
T12
X0013386Y001378
X0186614
X0013386Y0391732
X0186614
M30
