G04*
G04 #@! TF.GenerationSoftware,Altium Limited,Altium Designer,20.2.6 (241)*
G04*
G04 Layer_Color=16711935*
%FSLAX25Y25*%
%MOIN*%
G70*
G04*
G04 #@! TF.SameCoordinates,785051FB-66B4-4767-B951-84AC3D2C5656*
G04*
G04*
G04 #@! TF.FilePolarity,Positive*
G04*
G01*
G75*
%ADD11C,0.00591*%
%ADD12C,0.01500*%
%ADD166C,0.01000*%
%ADD171C,0.01181*%
%ADD175C,0.00100*%
%ADD179C,0.03937*%
%ADD180C,0.00394*%
G36*
X904904Y236759D02*
X964904D01*
Y241168D01*
X904904D01*
Y236759D01*
D02*
G37*
G36*
Y266365D02*
X964904D01*
Y270775D01*
X904904D01*
Y266365D01*
D02*
G37*
G36*
Y396759D02*
X964904D01*
Y401168D01*
X904904D01*
Y396759D01*
D02*
G37*
G36*
Y426365D02*
X964904D01*
Y430774D01*
X904904D01*
Y426365D01*
D02*
G37*
D11*
X360719Y12813D02*
X360531Y13001D01*
X360719Y13188D01*
X360906Y13001D01*
Y12626D01*
X360719Y12251D01*
X360531Y12064D01*
X361769Y13188D02*
Y9252D01*
Y13188D02*
X364393Y9252D01*
Y13188D02*
Y9252D01*
X366417Y11876D02*
X366042Y11689D01*
X365667Y11314D01*
X365480Y10751D01*
Y10377D01*
X365667Y9814D01*
X366042Y9439D01*
X366417Y9252D01*
X366979D01*
X367354Y9439D01*
X367729Y9814D01*
X367916Y10377D01*
Y10751D01*
X367729Y11314D01*
X367354Y11689D01*
X366979Y11876D01*
X366417D01*
X369341Y13188D02*
Y10002D01*
X369529Y9439D01*
X369903Y9252D01*
X370278D01*
X368779Y11876D02*
X370091D01*
X370841Y10751D02*
X373090D01*
Y11126D01*
X372902Y11501D01*
X372715Y11689D01*
X372340Y11876D01*
X371778D01*
X371403Y11689D01*
X371028Y11314D01*
X370841Y10751D01*
Y10377D01*
X371028Y9814D01*
X371403Y9439D01*
X371778Y9252D01*
X372340D01*
X372715Y9439D01*
X373090Y9814D01*
X376182Y11314D02*
X375808Y11689D01*
X375433Y11876D01*
X374870D01*
X374496Y11689D01*
X374121Y11314D01*
X373933Y10751D01*
Y10377D01*
X374121Y9814D01*
X374496Y9439D01*
X374870Y9252D01*
X375433D01*
X375808Y9439D01*
X376182Y9814D01*
X379275Y11876D02*
Y9252D01*
Y11314D02*
X378900Y11689D01*
X378525Y11876D01*
X377963D01*
X377588Y11689D01*
X377213Y11314D01*
X377026Y10751D01*
Y10377D01*
X377213Y9814D01*
X377588Y9439D01*
X377963Y9252D01*
X378525D01*
X378900Y9439D01*
X379275Y9814D01*
X380325Y11876D02*
Y9252D01*
Y10751D02*
X380512Y11314D01*
X380887Y11689D01*
X381262Y11876D01*
X381824D01*
X382180D02*
Y9252D01*
Y10751D02*
X382368Y11314D01*
X382743Y11689D01*
X383118Y11876D01*
X383680D01*
X384411Y13188D02*
X384598Y13001D01*
X384786Y13188D01*
X384598Y13376D01*
X384411Y13188D01*
X384598Y11876D02*
Y9252D01*
X385479Y10751D02*
X387729D01*
Y11126D01*
X387541Y11501D01*
X387354Y11689D01*
X386979Y11876D01*
X386417D01*
X386042Y11689D01*
X385667Y11314D01*
X385479Y10751D01*
Y10377D01*
X385667Y9814D01*
X386042Y9439D01*
X386417Y9252D01*
X386979D01*
X387354Y9439D01*
X387729Y9814D01*
X388572Y11876D02*
Y9252D01*
Y10751D02*
X388759Y11314D01*
X389134Y11689D01*
X389509Y11876D01*
X390072D01*
X396519Y9252D02*
X395020Y13188D01*
X393520Y9252D01*
X394083Y10564D02*
X395957D01*
X397438Y13188D02*
Y9252D01*
Y13188D02*
X399874D01*
X397438Y11314D02*
X398937D01*
X400512Y9627D02*
X400324Y9439D01*
X400512Y9252D01*
X400699Y9439D01*
X400512Y9627D01*
X404373Y12251D02*
X404185Y12626D01*
X403811Y13001D01*
X403436Y13188D01*
X402686D01*
X402311Y13001D01*
X401936Y12626D01*
X401749Y12251D01*
X401561Y11689D01*
Y10751D01*
X401749Y10189D01*
X401936Y9814D01*
X402311Y9439D01*
X402686Y9252D01*
X403436D01*
X403811Y9439D01*
X404185Y9814D01*
X404373Y10189D01*
Y10751D01*
X403436D02*
X404373D01*
X405273Y13188D02*
Y9252D01*
Y13188D02*
X406772Y9252D01*
X408272Y13188D02*
X406772Y9252D01*
X408272Y13188D02*
Y9252D01*
X409584Y12251D02*
Y12438D01*
X409771Y12813D01*
X409959Y13001D01*
X410333Y13188D01*
X411083D01*
X411458Y13001D01*
X411645Y12813D01*
X411833Y12438D01*
Y12064D01*
X411645Y11689D01*
X411271Y11126D01*
X409396Y9252D01*
X412020D01*
X412901Y12438D02*
X413276Y12626D01*
X413838Y13188D01*
Y9252D01*
X415975Y12813D02*
X415788Y13001D01*
X415975Y13188D01*
X416163Y13001D01*
Y12626D01*
X415975Y12251D01*
X415788Y12064D01*
X360817Y20917D02*
X360630Y21104D01*
X360817Y21292D01*
X361005Y21104D01*
Y20729D01*
X360817Y20354D01*
X360630Y20167D01*
X361867Y21292D02*
X364491Y17355D01*
Y21292D02*
X361867Y17355D01*
X367996Y20729D02*
X367621Y21104D01*
X367059Y21292D01*
X366309D01*
X365747Y21104D01*
X365372Y20729D01*
Y20354D01*
X365560Y19979D01*
X365747Y19792D01*
X366122Y19605D01*
X367246Y19230D01*
X367621Y19042D01*
X367809Y18855D01*
X367996Y18480D01*
Y17918D01*
X367621Y17543D01*
X367059Y17355D01*
X366309D01*
X365747Y17543D01*
X365372Y17918D01*
X371314Y21292D02*
X368877D01*
Y17355D01*
X371314D01*
X368877Y19417D02*
X370377D01*
X374781Y20354D02*
X374594Y20729D01*
X374219Y21104D01*
X373844Y21292D01*
X373094D01*
X372720Y21104D01*
X372345Y20729D01*
X372157Y20354D01*
X371970Y19792D01*
Y18855D01*
X372157Y18293D01*
X372345Y17918D01*
X372720Y17543D01*
X373094Y17355D01*
X373844D01*
X374219Y17543D01*
X374594Y17918D01*
X374781Y18293D01*
X377199Y21292D02*
Y17355D01*
X375887Y21292D02*
X378511D01*
X378980D02*
Y17355D01*
X380929Y21292D02*
X380554Y21104D01*
X380180Y20729D01*
X379992Y20354D01*
X379805Y19792D01*
Y18855D01*
X379992Y18293D01*
X380180Y17918D01*
X380554Y17543D01*
X380929Y17355D01*
X381679D01*
X382054Y17543D01*
X382429Y17918D01*
X382616Y18293D01*
X382804Y18855D01*
Y19792D01*
X382616Y20354D01*
X382429Y20729D01*
X382054Y21104D01*
X381679Y21292D01*
X380929D01*
X383722D02*
Y17355D01*
Y21292D02*
X386346Y17355D01*
Y21292D02*
Y17355D01*
X387433Y16043D02*
X390432D01*
X393750Y20354D02*
X393563Y20729D01*
X393188Y21104D01*
X392813Y21292D01*
X392063D01*
X391688Y21104D01*
X391313Y20729D01*
X391126Y20354D01*
X390938Y19792D01*
Y18855D01*
X391126Y18293D01*
X391313Y17918D01*
X391688Y17543D01*
X392063Y17355D01*
X392813D01*
X393188Y17543D01*
X393563Y17918D01*
X393750Y18293D01*
X394856Y21292D02*
Y17355D01*
X397480Y21292D02*
Y17355D01*
X394856Y19417D02*
X397480D01*
X401566Y17355D02*
X400067Y21292D01*
X398567Y17355D01*
X399129Y18667D02*
X401004D01*
X402485Y21292D02*
Y17355D01*
Y21292D02*
X404171D01*
X404734Y21104D01*
X404921Y20917D01*
X405109Y20542D01*
Y20167D01*
X404921Y19792D01*
X404734Y19605D01*
X404171Y19417D01*
X402485D01*
X403796D02*
X405109Y17355D01*
X407302Y21292D02*
Y17355D01*
X405990Y21292D02*
X408614D01*
X409270Y20917D02*
X409082Y21104D01*
X409270Y21292D01*
X409457Y21104D01*
Y20729D01*
X409270Y20354D01*
X409082Y20167D01*
D12*
X715082Y765000D02*
X1103983D01*
X715082Y777000D02*
X1103983D01*
X715082Y633000D02*
Y777000D01*
Y633000D02*
X756073D01*
X715082Y645000D02*
X756073D01*
X715082Y657000D02*
X756073D01*
X715082Y669000D02*
X756073D01*
X715082Y681000D02*
X756073D01*
X715082Y693000D02*
X756073D01*
X715082Y705000D02*
X756073D01*
X715082Y717000D02*
X756073D01*
X715082Y729000D02*
X756073D01*
X715082Y741000D02*
X756073D01*
X715082Y753000D02*
X756073D01*
Y633000D02*
Y777000D01*
Y633000D02*
X849047D01*
X756073Y645000D02*
X849047D01*
X756073Y657000D02*
X849047D01*
X756073Y669000D02*
X849047D01*
X756073Y681000D02*
X849047D01*
X756073Y693000D02*
X849047D01*
X756073Y705000D02*
X849047D01*
X756073Y717000D02*
X849047D01*
X756073Y729000D02*
X849047D01*
X756073Y741000D02*
X849047D01*
X756073Y753000D02*
X849047D01*
Y633000D02*
Y777000D01*
Y633000D02*
X935024D01*
X849047Y645000D02*
X935024D01*
X849047Y657000D02*
X935024D01*
X849047Y669000D02*
X935024D01*
X849047Y681000D02*
X935024D01*
X849047Y693000D02*
X935024D01*
X849047Y705000D02*
X935024D01*
X849047Y717000D02*
X935024D01*
X849047Y729000D02*
X935024D01*
X849047Y741000D02*
X935024D01*
X849047Y753000D02*
X935024D01*
Y633000D02*
Y777000D01*
Y633000D02*
X1000008D01*
X935024Y645000D02*
X1000008D01*
X935024Y657000D02*
X1000008D01*
X935024Y669000D02*
X1000008D01*
X935024Y681000D02*
X1000008D01*
X935024Y693000D02*
X1000008D01*
X935024Y705000D02*
X1000008D01*
X935024Y717000D02*
X1000008D01*
X935024Y729000D02*
X1000008D01*
X935024Y741000D02*
X1000008D01*
X935024Y753000D02*
X1000008D01*
Y633000D02*
Y777000D01*
Y633000D02*
X1056994D01*
X1000008Y645000D02*
X1056994D01*
X1000008Y657000D02*
X1056994D01*
X1000008Y669000D02*
X1056994D01*
X1000008Y681000D02*
X1056994D01*
X1000008Y693000D02*
X1056994D01*
X1000008Y705000D02*
X1056994D01*
X1000008Y717000D02*
X1056994D01*
X1000008Y729000D02*
X1056994D01*
X1000008Y741000D02*
X1056994D01*
X1000008Y753000D02*
X1056994D01*
Y633000D02*
Y777000D01*
Y633000D02*
X1103983D01*
X1056994Y645000D02*
X1103983D01*
X1056994Y657000D02*
X1103983D01*
X1056994Y669000D02*
X1103983D01*
X1056994Y681000D02*
X1103983D01*
X1056994Y693000D02*
X1103983D01*
X1056994Y705000D02*
X1103983D01*
X1056994Y717000D02*
X1103983D01*
X1056994Y729000D02*
X1103983D01*
X1056994Y741000D02*
X1103983D01*
X1056994Y753000D02*
X1103983D01*
Y633000D02*
Y777000D01*
D166*
X722082Y773998D02*
Y768000D01*
X726081D01*
X729080Y771999D02*
X731079D01*
X732079Y770999D01*
Y768000D01*
X729080D01*
X728080Y769000D01*
X729080Y769999D01*
X732079D01*
X734078Y771999D02*
Y769000D01*
X735078Y768000D01*
X738077D01*
Y767000D01*
X737077Y766001D01*
X736077D01*
X738077Y768000D02*
Y771999D01*
X743075Y768000D02*
X741076D01*
X740076Y769000D01*
Y770999D01*
X741076Y771999D01*
X743075D01*
X744075Y770999D01*
Y769999D01*
X740076D01*
X746074Y771999D02*
Y768000D01*
Y769999D01*
X747074Y770999D01*
X748073Y771999D01*
X749073D01*
X725081Y660000D02*
Y665998D01*
X722082Y662999D01*
X726081D01*
X722082Y688998D02*
X723081Y689998D01*
X725081D01*
X726081Y688998D01*
Y687999D01*
X725081Y686999D01*
X724081D01*
X725081D01*
X726081Y685999D01*
Y685000D01*
X725081Y684000D01*
X723081D01*
X722082Y685000D01*
X726081Y708000D02*
X722082D01*
X726081Y711999D01*
Y712998D01*
X725081Y713998D01*
X723081D01*
X722082Y712998D01*
Y732000D02*
X724081D01*
X723081D01*
Y737998D01*
X722082Y736998D01*
X763073Y768000D02*
Y773998D01*
X767072Y768000D01*
Y773998D01*
X770071Y771999D02*
X772070D01*
X773070Y770999D01*
Y768000D01*
X770071D01*
X769071Y769000D01*
X770071Y769999D01*
X773070D01*
X775069Y768000D02*
Y771999D01*
X776069D01*
X777069Y770999D01*
Y768000D01*
Y770999D01*
X778068Y771999D01*
X779068Y770999D01*
Y768000D01*
X784066D02*
X782067D01*
X781067Y769000D01*
Y770999D01*
X782067Y771999D01*
X784066D01*
X785066Y770999D01*
Y769999D01*
X781067D01*
X763073Y641998D02*
Y636000D01*
X766072D01*
X767072Y637000D01*
Y637999D01*
X766072Y638999D01*
X763073D01*
X766072D01*
X767072Y639999D01*
Y640998D01*
X766072Y641998D01*
X763073D01*
X770071Y636000D02*
X772070D01*
X773070Y637000D01*
Y638999D01*
X772070Y639999D01*
X770071D01*
X769071Y638999D01*
Y637000D01*
X770071Y636000D01*
X776069Y640998D02*
Y639999D01*
X775069D01*
X777069D01*
X776069D01*
Y637000D01*
X777069Y636000D01*
X781067Y640998D02*
Y639999D01*
X780068D01*
X782067D01*
X781067D01*
Y637000D01*
X782067Y636000D01*
X786066D02*
X788065D01*
X789065Y637000D01*
Y638999D01*
X788065Y639999D01*
X786066D01*
X785066Y638999D01*
Y637000D01*
X786066Y636000D01*
X791064D02*
Y639999D01*
X792064D01*
X793063Y638999D01*
Y636000D01*
Y638999D01*
X794063Y639999D01*
X795063Y638999D01*
Y636000D01*
X806059Y641998D02*
X804060D01*
X803060Y640998D01*
Y637000D01*
X804060Y636000D01*
X806059D01*
X807059Y637000D01*
Y640998D01*
X806059Y641998D01*
X809058Y639999D02*
X811057Y636000D01*
X813057Y639999D01*
X818055Y636000D02*
X816056D01*
X815056Y637000D01*
Y638999D01*
X816056Y639999D01*
X818055D01*
X819055Y638999D01*
Y637999D01*
X815056D01*
X821054Y639999D02*
Y636000D01*
Y637999D01*
X822054Y638999D01*
X823054Y639999D01*
X824053D01*
X827052Y636000D02*
X829052D01*
X828052D01*
Y641998D01*
X827052D01*
X833050Y639999D02*
X835050D01*
X836049Y638999D01*
Y636000D01*
X833050D01*
X832051Y637000D01*
X833050Y637999D01*
X836049D01*
X838049Y639999D02*
Y637000D01*
X839048Y636000D01*
X842048D01*
Y635000D01*
X841048Y634001D01*
X840048D01*
X842048Y636000D02*
Y639999D01*
X763073Y653998D02*
Y648000D01*
X766072D01*
X767072Y649000D01*
Y649999D01*
X766072Y650999D01*
X763073D01*
X766072D01*
X767072Y651999D01*
Y652998D01*
X766072Y653998D01*
X763073D01*
X770071Y648000D02*
X772070D01*
X773070Y649000D01*
Y650999D01*
X772070Y651999D01*
X770071D01*
X769071Y650999D01*
Y649000D01*
X770071Y648000D01*
X776069Y652998D02*
Y651999D01*
X775069D01*
X777069D01*
X776069D01*
Y649000D01*
X777069Y648000D01*
X781067Y652998D02*
Y651999D01*
X780068D01*
X782067D01*
X781067D01*
Y649000D01*
X782067Y648000D01*
X786066D02*
X788065D01*
X789065Y649000D01*
Y650999D01*
X788065Y651999D01*
X786066D01*
X785066Y650999D01*
Y649000D01*
X786066Y648000D01*
X791064D02*
Y651999D01*
X792064D01*
X793063Y650999D01*
Y648000D01*
Y650999D01*
X794063Y651999D01*
X795063Y650999D01*
Y648000D01*
X807059Y652998D02*
X806059Y653998D01*
X804060D01*
X803060Y652998D01*
Y651999D01*
X804060Y650999D01*
X806059D01*
X807059Y649999D01*
Y649000D01*
X806059Y648000D01*
X804060D01*
X803060Y649000D01*
X810058Y648000D02*
X812057D01*
X813057Y649000D01*
Y650999D01*
X812057Y651999D01*
X810058D01*
X809058Y650999D01*
Y649000D01*
X810058Y648000D01*
X815056D02*
X817056D01*
X816056D01*
Y653998D01*
X815056D01*
X824053D02*
Y648000D01*
X821054D01*
X820055Y649000D01*
Y650999D01*
X821054Y651999D01*
X824053D01*
X829052Y648000D02*
X827052D01*
X826053Y649000D01*
Y650999D01*
X827052Y651999D01*
X829052D01*
X830051Y650999D01*
Y649999D01*
X826053D01*
X832051Y651999D02*
Y648000D01*
Y649999D01*
X833050Y650999D01*
X834050Y651999D01*
X835050D01*
X763073Y665998D02*
Y660000D01*
X766072D01*
X767072Y661000D01*
Y661999D01*
X766072Y662999D01*
X763073D01*
X766072D01*
X767072Y663999D01*
Y664998D01*
X766072Y665998D01*
X763073D01*
X770071Y660000D02*
X772070D01*
X773070Y661000D01*
Y662999D01*
X772070Y663999D01*
X770071D01*
X769071Y662999D01*
Y661000D01*
X770071Y660000D01*
X776069Y664998D02*
Y663999D01*
X775069D01*
X777069D01*
X776069D01*
Y661000D01*
X777069Y660000D01*
X781067Y664998D02*
Y663999D01*
X780068D01*
X782067D01*
X781067D01*
Y661000D01*
X782067Y660000D01*
X786066D02*
X788065D01*
X789065Y661000D01*
Y662999D01*
X788065Y663999D01*
X786066D01*
X785066Y662999D01*
Y661000D01*
X786066Y660000D01*
X791064D02*
Y663999D01*
X792064D01*
X793063Y662999D01*
Y660000D01*
Y662999D01*
X794063Y663999D01*
X795063Y662999D01*
Y660000D01*
X803060Y665998D02*
Y660000D01*
X807059D01*
X810058Y663999D02*
X812057D01*
X813057Y662999D01*
Y660000D01*
X810058D01*
X809058Y661000D01*
X810058Y661999D01*
X813057D01*
X815056Y663999D02*
Y661000D01*
X816056Y660000D01*
X819055D01*
Y659000D01*
X818055Y658001D01*
X817056D01*
X819055Y660000D02*
Y663999D01*
X824053Y660000D02*
X822054D01*
X821054Y661000D01*
Y662999D01*
X822054Y663999D01*
X824053D01*
X825053Y662999D01*
Y661999D01*
X821054D01*
X827052Y663999D02*
Y660000D01*
Y661999D01*
X828052Y662999D01*
X829052Y663999D01*
X830051D01*
X763073Y677998D02*
Y672000D01*
X766072D01*
X767072Y673000D01*
Y676998D01*
X766072Y677998D01*
X763073D01*
X769071Y672000D02*
X771070D01*
X770071D01*
Y675999D01*
X769071D01*
X777069Y672000D02*
X775069D01*
X774069Y673000D01*
Y674999D01*
X775069Y675999D01*
X777069D01*
X778068Y674999D01*
Y673999D01*
X774069D01*
X780068Y672000D02*
X782067D01*
X781067D01*
Y677998D01*
X780068D01*
X788065Y672000D02*
X786066D01*
X785066Y673000D01*
Y674999D01*
X786066Y675999D01*
X788065D01*
X789065Y674999D01*
Y673999D01*
X785066D01*
X795063Y675999D02*
X792064D01*
X791064Y674999D01*
Y673000D01*
X792064Y672000D01*
X795063D01*
X798062Y676998D02*
Y675999D01*
X797062D01*
X799061D01*
X798062D01*
Y673000D01*
X799061Y672000D01*
X802061Y675999D02*
Y672000D01*
Y673999D01*
X803060Y674999D01*
X804060Y675999D01*
X805060D01*
X808058Y672000D02*
X810058D01*
X809058D01*
Y675999D01*
X808058D01*
X817056D02*
X814057D01*
X813057Y674999D01*
Y673000D01*
X814057Y672000D01*
X817056D01*
X828052D02*
Y677998D01*
X825053Y674999D01*
X829052D01*
X763073Y684000D02*
Y689998D01*
X766072D01*
X767072Y688998D01*
Y686999D01*
X766072Y685999D01*
X763073D01*
X770071Y684000D02*
X772070D01*
X773070Y685000D01*
Y686999D01*
X772070Y687999D01*
X770071D01*
X769071Y686999D01*
Y685000D01*
X770071Y684000D01*
X775069Y687999D02*
Y685000D01*
X776069Y684000D01*
X777069Y685000D01*
X778068Y684000D01*
X779068Y685000D01*
Y687999D01*
X784066Y684000D02*
X782067D01*
X781067Y685000D01*
Y686999D01*
X782067Y687999D01*
X784066D01*
X785066Y686999D01*
Y685999D01*
X781067D01*
X787065Y687999D02*
Y684000D01*
Y685999D01*
X788065Y686999D01*
X789065Y687999D01*
X790064D01*
X799061Y684000D02*
Y689998D01*
X802061D01*
X803060Y688998D01*
Y686999D01*
X802061Y685999D01*
X799061D01*
X805060Y684000D02*
X807059D01*
X806059D01*
Y689998D01*
X805060D01*
X811058Y687999D02*
X813057D01*
X814057Y686999D01*
Y684000D01*
X811058D01*
X810058Y685000D01*
X811058Y685999D01*
X814057D01*
X816056Y684000D02*
Y687999D01*
X819055D01*
X820055Y686999D01*
Y684000D01*
X825053D02*
X823054D01*
X822054Y685000D01*
Y686999D01*
X823054Y687999D01*
X825053D01*
X826053Y686999D01*
Y685999D01*
X822054D01*
X763073Y701998D02*
Y696000D01*
X766072D01*
X767072Y697000D01*
Y700998D01*
X766072Y701998D01*
X763073D01*
X769071Y696000D02*
X771070D01*
X770071D01*
Y699999D01*
X769071D01*
X777069Y696000D02*
X775069D01*
X774069Y697000D01*
Y698999D01*
X775069Y699999D01*
X777069D01*
X778068Y698999D01*
Y697999D01*
X774069D01*
X780068Y696000D02*
X782067D01*
X781067D01*
Y701998D01*
X780068D01*
X788065Y696000D02*
X786066D01*
X785066Y697000D01*
Y698999D01*
X786066Y699999D01*
X788065D01*
X789065Y698999D01*
Y697999D01*
X785066D01*
X795063Y699999D02*
X792064D01*
X791064Y698999D01*
Y697000D01*
X792064Y696000D01*
X795063D01*
X798062Y700998D02*
Y699999D01*
X797062D01*
X799061D01*
X798062D01*
Y697000D01*
X799061Y696000D01*
X802061Y699999D02*
Y696000D01*
Y697999D01*
X803060Y698999D01*
X804060Y699999D01*
X805060D01*
X808058Y696000D02*
X810058D01*
X809058D01*
Y699999D01*
X808058D01*
X817056D02*
X814057D01*
X813057Y698999D01*
Y697000D01*
X814057Y696000D01*
X817056D01*
X825053Y700998D02*
X826053Y701998D01*
X828052D01*
X829052Y700998D01*
Y699999D01*
X828052Y698999D01*
X827052D01*
X828052D01*
X829052Y697999D01*
Y697000D01*
X828052Y696000D01*
X826053D01*
X825053Y697000D01*
X767072Y712998D02*
X766072Y713998D01*
X764073D01*
X763073Y712998D01*
Y709000D01*
X764073Y708000D01*
X766072D01*
X767072Y709000D01*
Y710999D01*
X765072D01*
X769071Y711999D02*
Y708000D01*
Y709999D01*
X770071Y710999D01*
X771070Y711999D01*
X772070D01*
X776069Y708000D02*
X778068D01*
X779068Y709000D01*
Y710999D01*
X778068Y711999D01*
X776069D01*
X775069Y710999D01*
Y709000D01*
X776069Y708000D01*
X781067Y711999D02*
Y709000D01*
X782067Y708000D01*
X785066D01*
Y711999D01*
X787065Y708000D02*
Y711999D01*
X790064D01*
X791064Y710999D01*
Y708000D01*
X797062Y713998D02*
Y708000D01*
X794063D01*
X793063Y709000D01*
Y710999D01*
X794063Y711999D01*
X797062D01*
X805060Y708000D02*
Y713998D01*
X808058D01*
X809058Y712998D01*
Y710999D01*
X808058Y709999D01*
X805060D01*
X811058Y708000D02*
X813057D01*
X812057D01*
Y713998D01*
X811058D01*
X817056Y711999D02*
X819055D01*
X820055Y710999D01*
Y708000D01*
X817056D01*
X816056Y709000D01*
X817056Y709999D01*
X820055D01*
X822054Y708000D02*
Y711999D01*
X825053D01*
X826053Y710999D01*
Y708000D01*
X831051D02*
X829052D01*
X828052Y709000D01*
Y710999D01*
X829052Y711999D01*
X831051D01*
X832051Y710999D01*
Y709999D01*
X828052D01*
X763073Y725998D02*
Y720000D01*
X766072D01*
X767072Y721000D01*
Y724998D01*
X766072Y725998D01*
X763073D01*
X769071Y720000D02*
X771070D01*
X770071D01*
Y723999D01*
X769071D01*
X777069Y720000D02*
X775069D01*
X774069Y721000D01*
Y722999D01*
X775069Y723999D01*
X777069D01*
X778068Y722999D01*
Y721999D01*
X774069D01*
X780068Y720000D02*
X782067D01*
X781067D01*
Y725998D01*
X780068D01*
X788065Y720000D02*
X786066D01*
X785066Y721000D01*
Y722999D01*
X786066Y723999D01*
X788065D01*
X789065Y722999D01*
Y721999D01*
X785066D01*
X795063Y723999D02*
X792064D01*
X791064Y722999D01*
Y721000D01*
X792064Y720000D01*
X795063D01*
X798062Y724998D02*
Y723999D01*
X797062D01*
X799061D01*
X798062D01*
Y721000D01*
X799061Y720000D01*
X802061Y723999D02*
Y720000D01*
Y721999D01*
X803060Y722999D01*
X804060Y723999D01*
X805060D01*
X808058Y720000D02*
X810058D01*
X809058D01*
Y723999D01*
X808058D01*
X817056D02*
X814057D01*
X813057Y722999D01*
Y721000D01*
X814057Y720000D01*
X817056D01*
X825053D02*
X827052D01*
X826053D01*
Y725998D01*
X825053Y724998D01*
X763073Y737998D02*
X767072D01*
X765072D01*
Y732000D01*
X770071D02*
X772070D01*
X773070Y733000D01*
Y734999D01*
X772070Y735999D01*
X770071D01*
X769071Y734999D01*
Y733000D01*
X770071Y732000D01*
X775069Y730001D02*
Y735999D01*
X778068D01*
X779068Y734999D01*
Y733000D01*
X778068Y732000D01*
X775069D01*
X787065Y737998D02*
Y732000D01*
X791064D01*
X794063Y735999D02*
X796062D01*
X797062Y734999D01*
Y732000D01*
X794063D01*
X793063Y733000D01*
X794063Y733999D01*
X797062D01*
X799061Y735999D02*
Y733000D01*
X800061Y732000D01*
X803060D01*
Y731000D01*
X802061Y730001D01*
X801061D01*
X803060Y732000D02*
Y735999D01*
X808058Y732000D02*
X806059D01*
X805060Y733000D01*
Y734999D01*
X806059Y735999D01*
X808058D01*
X809058Y734999D01*
Y733999D01*
X805060D01*
X811058Y735999D02*
Y732000D01*
Y733999D01*
X812057Y734999D01*
X813057Y735999D01*
X814057D01*
X763073Y749998D02*
X767072D01*
X765072D01*
Y744000D01*
X770071D02*
X772070D01*
X773070Y745000D01*
Y746999D01*
X772070Y747999D01*
X770071D01*
X769071Y746999D01*
Y745000D01*
X770071Y744000D01*
X775069Y742001D02*
Y747999D01*
X778068D01*
X779068Y746999D01*
Y745000D01*
X778068Y744000D01*
X775069D01*
X791064Y748998D02*
X790064Y749998D01*
X788065D01*
X787065Y748998D01*
Y747999D01*
X788065Y746999D01*
X790064D01*
X791064Y745999D01*
Y745000D01*
X790064Y744000D01*
X788065D01*
X787065Y745000D01*
X794063Y744000D02*
X796062D01*
X797062Y745000D01*
Y746999D01*
X796062Y747999D01*
X794063D01*
X793063Y746999D01*
Y745000D01*
X794063Y744000D01*
X799061D02*
X801061D01*
X800061D01*
Y749998D01*
X799061D01*
X808058D02*
Y744000D01*
X805060D01*
X804060Y745000D01*
Y746999D01*
X805060Y747999D01*
X808058D01*
X813057Y744000D02*
X811058D01*
X810058Y745000D01*
Y746999D01*
X811058Y747999D01*
X813057D01*
X814057Y746999D01*
Y745999D01*
X810058D01*
X816056Y747999D02*
Y744000D01*
Y745999D01*
X817056Y746999D01*
X818055Y747999D01*
X819055D01*
X763073Y761998D02*
X767072D01*
X765072D01*
Y756000D01*
X770071D02*
X772070D01*
X773070Y757000D01*
Y758999D01*
X772070Y759999D01*
X770071D01*
X769071Y758999D01*
Y757000D01*
X770071Y756000D01*
X775069Y754001D02*
Y759999D01*
X778068D01*
X779068Y758999D01*
Y757000D01*
X778068Y756000D01*
X775069D01*
X790064Y761998D02*
X788065D01*
X787065Y760998D01*
Y757000D01*
X788065Y756000D01*
X790064D01*
X791064Y757000D01*
Y760998D01*
X790064Y761998D01*
X793063Y759999D02*
X795063Y756000D01*
X797062Y759999D01*
X802061Y756000D02*
X800061D01*
X799061Y757000D01*
Y758999D01*
X800061Y759999D01*
X802061D01*
X803060Y758999D01*
Y757999D01*
X799061D01*
X805060Y759999D02*
Y756000D01*
Y757999D01*
X806059Y758999D01*
X807059Y759999D01*
X808058D01*
X811058Y756000D02*
X813057D01*
X812057D01*
Y761998D01*
X811058D01*
X817056Y759999D02*
X819055D01*
X820055Y758999D01*
Y756000D01*
X817056D01*
X816056Y757000D01*
X817056Y757999D01*
X820055D01*
X822054Y759999D02*
Y757000D01*
X823054Y756000D01*
X826053D01*
Y755000D01*
X825053Y754001D01*
X824053D01*
X826053Y756000D02*
Y759999D01*
X856048Y768000D02*
Y773998D01*
X858047Y771999D01*
X860046Y773998D01*
Y768000D01*
X863045Y771999D02*
X865045D01*
X866044Y770999D01*
Y768000D01*
X863045D01*
X862046Y769000D01*
X863045Y769999D01*
X866044D01*
X869043Y772998D02*
Y771999D01*
X868044D01*
X870043D01*
X869043D01*
Y769000D01*
X870043Y768000D01*
X876041D02*
X874042D01*
X873042Y769000D01*
Y770999D01*
X874042Y771999D01*
X876041D01*
X877041Y770999D01*
Y769999D01*
X873042D01*
X879040Y771999D02*
Y768000D01*
Y769999D01*
X880040Y770999D01*
X881039Y771999D01*
X882039D01*
X885038Y768000D02*
X887037D01*
X886038D01*
Y771999D01*
X885038D01*
X891036D02*
X893036D01*
X894035Y770999D01*
Y768000D01*
X891036D01*
X890036Y769000D01*
X891036Y769999D01*
X894035D01*
X896035Y768000D02*
X898034D01*
X897034D01*
Y773998D01*
X896035D01*
X860046Y652998D02*
X859047Y653998D01*
X857047D01*
X856048Y652998D01*
Y651999D01*
X857047Y650999D01*
X859047D01*
X860046Y649999D01*
Y649000D01*
X859047Y648000D01*
X857047D01*
X856048Y649000D01*
X863045Y648000D02*
X865045D01*
X866044Y649000D01*
Y650999D01*
X865045Y651999D01*
X863045D01*
X862046Y650999D01*
Y649000D01*
X863045Y648000D01*
X868044D02*
X870043D01*
X869043D01*
Y653998D01*
X868044D01*
X877041D02*
Y648000D01*
X874042D01*
X873042Y649000D01*
Y650999D01*
X874042Y651999D01*
X877041D01*
X882039Y648000D02*
X880040D01*
X879040Y649000D01*
Y650999D01*
X880040Y651999D01*
X882039D01*
X883039Y650999D01*
Y649999D01*
X879040D01*
X885038Y651999D02*
Y648000D01*
Y649999D01*
X886038Y650999D01*
X887037Y651999D01*
X888037D01*
X897034Y648000D02*
Y653998D01*
X900033D01*
X901033Y652998D01*
Y650999D01*
X900033Y649999D01*
X897034D01*
X899034D02*
X901033Y648000D01*
X906031D02*
X904032D01*
X903032Y649000D01*
Y650999D01*
X904032Y651999D01*
X906031D01*
X907031Y650999D01*
Y649999D01*
X903032D01*
X909030Y648000D02*
X912029D01*
X913029Y649000D01*
X912029Y649999D01*
X910030D01*
X909030Y650999D01*
X910030Y651999D01*
X913029D01*
X915028Y648000D02*
X917028D01*
X916028D01*
Y651999D01*
X915028D01*
X920027Y648000D02*
X923026D01*
X924026Y649000D01*
X923026Y649999D01*
X921027D01*
X920027Y650999D01*
X921027Y651999D01*
X924026D01*
X927025Y652998D02*
Y651999D01*
X926025D01*
X928024D01*
X927025D01*
Y649000D01*
X928024Y648000D01*
X860046Y664998D02*
X859047Y665998D01*
X857047D01*
X856048Y664998D01*
Y661000D01*
X857047Y660000D01*
X859047D01*
X860046Y661000D01*
X863045Y660000D02*
X865045D01*
X866044Y661000D01*
Y662999D01*
X865045Y663999D01*
X863045D01*
X862046Y662999D01*
Y661000D01*
X863045Y660000D01*
X868044Y658001D02*
Y663999D01*
X871043D01*
X872042Y662999D01*
Y661000D01*
X871043Y660000D01*
X868044D01*
X874042Y658001D02*
Y663999D01*
X877041D01*
X878040Y662999D01*
Y661000D01*
X877041Y660000D01*
X874042D01*
X883039D02*
X881040D01*
X880040Y661000D01*
Y662999D01*
X881040Y663999D01*
X883039D01*
X884039Y662999D01*
Y661999D01*
X880040D01*
X886038Y663999D02*
Y660000D01*
Y661999D01*
X887037Y662999D01*
X888037Y663999D01*
X889037D01*
X860046Y677998D02*
X856048D01*
Y674999D01*
X858047D01*
X856048D01*
Y672000D01*
X862046D02*
Y677998D01*
X865045D01*
X866044Y676998D01*
Y674999D01*
X865045Y673999D01*
X862046D01*
X864045D02*
X866044Y672000D01*
X868044Y674999D02*
X872042D01*
X877041Y672000D02*
Y677998D01*
X874042Y674999D01*
X878040D01*
X860046Y688998D02*
X859047Y689998D01*
X857047D01*
X856048Y688998D01*
Y685000D01*
X857047Y684000D01*
X859047D01*
X860046Y685000D01*
X863045Y684000D02*
X865045D01*
X866044Y685000D01*
Y686999D01*
X865045Y687999D01*
X863045D01*
X862046Y686999D01*
Y685000D01*
X863045Y684000D01*
X868044Y682001D02*
Y687999D01*
X871043D01*
X872042Y686999D01*
Y685000D01*
X871043Y684000D01*
X868044D01*
X874042Y682001D02*
Y687999D01*
X877041D01*
X878040Y686999D01*
Y685000D01*
X877041Y684000D01*
X874042D01*
X883039D02*
X881040D01*
X880040Y685000D01*
Y686999D01*
X881040Y687999D01*
X883039D01*
X884039Y686999D01*
Y685999D01*
X880040D01*
X886038Y687999D02*
Y684000D01*
Y685999D01*
X887037Y686999D01*
X888037Y687999D01*
X889037D01*
X860046Y701998D02*
X856048D01*
Y698999D01*
X858047D01*
X856048D01*
Y696000D01*
X862046D02*
Y701998D01*
X865045D01*
X866044Y700998D01*
Y698999D01*
X865045Y697999D01*
X862046D01*
X864045D02*
X866044Y696000D01*
X868044Y698999D02*
X872042D01*
X877041Y696000D02*
Y701998D01*
X874042Y698999D01*
X878040D01*
X860046Y712998D02*
X859047Y713998D01*
X857047D01*
X856048Y712998D01*
Y709000D01*
X857047Y708000D01*
X859047D01*
X860046Y709000D01*
X863045Y708000D02*
X865045D01*
X866044Y709000D01*
Y710999D01*
X865045Y711999D01*
X863045D01*
X862046Y710999D01*
Y709000D01*
X863045Y708000D01*
X868044Y706001D02*
Y711999D01*
X871043D01*
X872042Y710999D01*
Y709000D01*
X871043Y708000D01*
X868044D01*
X874042Y706001D02*
Y711999D01*
X877041D01*
X878040Y710999D01*
Y709000D01*
X877041Y708000D01*
X874042D01*
X883039D02*
X881040D01*
X880040Y709000D01*
Y710999D01*
X881040Y711999D01*
X883039D01*
X884039Y710999D01*
Y709999D01*
X880040D01*
X886038Y711999D02*
Y708000D01*
Y709999D01*
X887037Y710999D01*
X888037Y711999D01*
X889037D01*
X860046Y725998D02*
X856048D01*
Y722999D01*
X858047D01*
X856048D01*
Y720000D01*
X862046D02*
Y725998D01*
X865045D01*
X866044Y724998D01*
Y722999D01*
X865045Y721999D01*
X862046D01*
X864045D02*
X866044Y720000D01*
X868044Y722999D02*
X872042D01*
X877041Y720000D02*
Y725998D01*
X874042Y722999D01*
X878040D01*
X860046Y736998D02*
X859047Y737998D01*
X857047D01*
X856048Y736998D01*
Y733000D01*
X857047Y732000D01*
X859047D01*
X860046Y733000D01*
X863045Y732000D02*
X865045D01*
X866044Y733000D01*
Y734999D01*
X865045Y735999D01*
X863045D01*
X862046Y734999D01*
Y733000D01*
X863045Y732000D01*
X868044Y730001D02*
Y735999D01*
X871043D01*
X872042Y734999D01*
Y733000D01*
X871043Y732000D01*
X868044D01*
X874042Y730001D02*
Y735999D01*
X877041D01*
X878040Y734999D01*
Y733000D01*
X877041Y732000D01*
X874042D01*
X883039D02*
X881040D01*
X880040Y733000D01*
Y734999D01*
X881040Y735999D01*
X883039D01*
X884039Y734999D01*
Y733999D01*
X880040D01*
X886038Y735999D02*
Y732000D01*
Y733999D01*
X887037Y734999D01*
X888037Y735999D01*
X889037D01*
X860046Y748998D02*
X859047Y749998D01*
X857047D01*
X856048Y748998D01*
Y747999D01*
X857047Y746999D01*
X859047D01*
X860046Y745999D01*
Y745000D01*
X859047Y744000D01*
X857047D01*
X856048Y745000D01*
X863045Y744000D02*
X865045D01*
X866044Y745000D01*
Y746999D01*
X865045Y747999D01*
X863045D01*
X862046Y746999D01*
Y745000D01*
X863045Y744000D01*
X868044D02*
X870043D01*
X869043D01*
Y749998D01*
X868044D01*
X877041D02*
Y744000D01*
X874042D01*
X873042Y745000D01*
Y746999D01*
X874042Y747999D01*
X877041D01*
X882039Y744000D02*
X880040D01*
X879040Y745000D01*
Y746999D01*
X880040Y747999D01*
X882039D01*
X883039Y746999D01*
Y745999D01*
X879040D01*
X885038Y747999D02*
Y744000D01*
Y745999D01*
X886038Y746999D01*
X887037Y747999D01*
X888037D01*
X897034Y744000D02*
Y749998D01*
X900033D01*
X901033Y748998D01*
Y746999D01*
X900033Y745999D01*
X897034D01*
X899034D02*
X901033Y744000D01*
X906031D02*
X904032D01*
X903032Y745000D01*
Y746999D01*
X904032Y747999D01*
X906031D01*
X907031Y746999D01*
Y745999D01*
X903032D01*
X909030Y744000D02*
X912029D01*
X913029Y745000D01*
X912029Y745999D01*
X910030D01*
X909030Y746999D01*
X910030Y747999D01*
X913029D01*
X915028Y744000D02*
X917028D01*
X916028D01*
Y747999D01*
X915028D01*
X920027Y744000D02*
X923026D01*
X924026Y745000D01*
X923026Y745999D01*
X921027D01*
X920027Y746999D01*
X921027Y747999D01*
X924026D01*
X927025Y748998D02*
Y747999D01*
X926025D01*
X928024D01*
X927025D01*
Y745000D01*
X928024Y744000D01*
X942024Y773998D02*
X946023D01*
X944024D01*
Y768000D01*
X948022Y773998D02*
Y768000D01*
Y770999D01*
X949022Y771999D01*
X951021D01*
X952021Y770999D01*
Y768000D01*
X954020D02*
X956020D01*
X955020D01*
Y771999D01*
X954020D01*
X963017D02*
X960018D01*
X959019Y770999D01*
Y769000D01*
X960018Y768000D01*
X963017D01*
X965017D02*
Y773998D01*
Y769999D02*
X968016Y771999D01*
X965017Y769999D02*
X968016Y768000D01*
X971015D02*
Y771999D01*
X974014D01*
X975014Y770999D01*
Y768000D01*
X980012D02*
X978013D01*
X977013Y769000D01*
Y770999D01*
X978013Y771999D01*
X980012D01*
X981012Y770999D01*
Y769999D01*
X977013D01*
X983011Y768000D02*
X986010D01*
X987010Y769000D01*
X986010Y769999D01*
X984011D01*
X983011Y770999D01*
X984011Y771999D01*
X987010D01*
X989009Y768000D02*
X992008D01*
X993008Y769000D01*
X992008Y769999D01*
X990009D01*
X989009Y770999D01*
X990009Y771999D01*
X993008D01*
X942024Y652998D02*
X943024Y653998D01*
X945023D01*
X946023Y652998D01*
Y649000D01*
X945023Y648000D01*
X943024D01*
X942024Y649000D01*
Y652998D01*
X948022Y648000D02*
Y649000D01*
X949022D01*
Y648000D01*
X948022D01*
X953021Y652998D02*
X954020Y653998D01*
X956020D01*
X957019Y652998D01*
Y649000D01*
X956020Y648000D01*
X954020D01*
X953021Y649000D01*
Y652998D01*
X959019Y648000D02*
X961018D01*
X960018D01*
Y653998D01*
X959019Y652998D01*
X964017D02*
X965017Y653998D01*
X967016D01*
X968016Y652998D01*
Y649000D01*
X967016Y648000D01*
X965017D01*
X964017Y649000D01*
Y652998D01*
X970015Y648000D02*
Y651999D01*
X971015D01*
X972015Y650999D01*
Y648000D01*
Y650999D01*
X973014Y651999D01*
X974014Y650999D01*
Y648000D01*
X976013D02*
Y651999D01*
X977013D01*
X978013Y650999D01*
Y648000D01*
Y650999D01*
X979012Y651999D01*
X980012Y650999D01*
Y648000D01*
X942024Y664998D02*
X943024Y665998D01*
X945023D01*
X946023Y664998D01*
Y661000D01*
X945023Y660000D01*
X943024D01*
X942024Y661000D01*
Y664998D01*
X948022Y660000D02*
Y661000D01*
X949022D01*
Y660000D01*
X948022D01*
X953021Y664998D02*
X954020Y665998D01*
X956020D01*
X957019Y664998D01*
Y661000D01*
X956020Y660000D01*
X954020D01*
X953021Y661000D01*
Y664998D01*
X959019D02*
X960018Y665998D01*
X962018D01*
X963017Y664998D01*
Y663999D01*
X962018Y662999D01*
X961018D01*
X962018D01*
X963017Y661999D01*
Y661000D01*
X962018Y660000D01*
X960018D01*
X959019Y661000D01*
X969016Y665998D02*
X965017D01*
Y662999D01*
X967016Y663999D01*
X968016D01*
X969016Y662999D01*
Y661000D01*
X968016Y660000D01*
X966016D01*
X965017Y661000D01*
X971015Y660000D02*
Y663999D01*
X972015D01*
X973014Y662999D01*
Y660000D01*
Y662999D01*
X974014Y663999D01*
X975014Y662999D01*
Y660000D01*
X977013D02*
Y663999D01*
X978013D01*
X979012Y662999D01*
Y660000D01*
Y662999D01*
X980012Y663999D01*
X981012Y662999D01*
Y660000D01*
X942024Y676998D02*
X943024Y677998D01*
X945023D01*
X946023Y676998D01*
Y673000D01*
X945023Y672000D01*
X943024D01*
X942024Y673000D01*
Y676998D01*
X948022Y672000D02*
Y673000D01*
X949022D01*
Y672000D01*
X948022D01*
X953021D02*
X955020D01*
X954020D01*
Y677998D01*
X953021Y676998D01*
X958019Y673000D02*
X959019Y672000D01*
X961018D01*
X962018Y673000D01*
Y676998D01*
X961018Y677998D01*
X959019D01*
X958019Y676998D01*
Y675999D01*
X959019Y674999D01*
X962018D01*
X964017Y676998D02*
X965017Y677998D01*
X967016D01*
X968016Y676998D01*
Y675999D01*
X967016Y674999D01*
X968016Y673999D01*
Y673000D01*
X967016Y672000D01*
X965017D01*
X964017Y673000D01*
Y673999D01*
X965017Y674999D01*
X964017Y675999D01*
Y676998D01*
X965017Y674999D02*
X967016D01*
X970015Y672000D02*
Y675999D01*
X971015D01*
X972015Y674999D01*
Y672000D01*
Y674999D01*
X973014Y675999D01*
X974014Y674999D01*
Y672000D01*
X976013D02*
Y675999D01*
X977013D01*
X978013Y674999D01*
Y672000D01*
Y674999D01*
X979012Y675999D01*
X980012Y674999D01*
Y672000D01*
X942024Y688998D02*
X943024Y689998D01*
X945023D01*
X946023Y688998D01*
Y685000D01*
X945023Y684000D01*
X943024D01*
X942024Y685000D01*
Y688998D01*
X948022Y684000D02*
Y685000D01*
X949022D01*
Y684000D01*
X948022D01*
X953021Y688998D02*
X954020Y689998D01*
X956020D01*
X957019Y688998D01*
Y685000D01*
X956020Y684000D01*
X954020D01*
X953021Y685000D01*
Y688998D01*
X959019D02*
X960018Y689998D01*
X962018D01*
X963017Y688998D01*
Y687999D01*
X962018Y686999D01*
X961018D01*
X962018D01*
X963017Y685999D01*
Y685000D01*
X962018Y684000D01*
X960018D01*
X959019Y685000D01*
X969016Y689998D02*
X965017D01*
Y686999D01*
X967016Y687999D01*
X968016D01*
X969016Y686999D01*
Y685000D01*
X968016Y684000D01*
X966016D01*
X965017Y685000D01*
X971015Y684000D02*
Y687999D01*
X972015D01*
X973014Y686999D01*
Y684000D01*
Y686999D01*
X974014Y687999D01*
X975014Y686999D01*
Y684000D01*
X977013D02*
Y687999D01*
X978013D01*
X979012Y686999D01*
Y684000D01*
Y686999D01*
X980012Y687999D01*
X981012Y686999D01*
Y684000D01*
X942024Y700998D02*
X943024Y701998D01*
X945023D01*
X946023Y700998D01*
Y697000D01*
X945023Y696000D01*
X943024D01*
X942024Y697000D01*
Y700998D01*
X948022Y696000D02*
Y697000D01*
X949022D01*
Y696000D01*
X948022D01*
X953021Y700998D02*
X954020Y701998D01*
X956020D01*
X957019Y700998D01*
Y699999D01*
X956020Y698999D01*
X957019Y697999D01*
Y697000D01*
X956020Y696000D01*
X954020D01*
X953021Y697000D01*
Y697999D01*
X954020Y698999D01*
X953021Y699999D01*
Y700998D01*
X954020Y698999D02*
X956020D01*
X959019Y697000D02*
X960018Y696000D01*
X962018D01*
X963017Y697000D01*
Y700998D01*
X962018Y701998D01*
X960018D01*
X959019Y700998D01*
Y699999D01*
X960018Y698999D01*
X963017D01*
X968016Y696000D02*
Y701998D01*
X965017Y698999D01*
X969016D01*
X971015Y696000D02*
Y699999D01*
X972015D01*
X973014Y698999D01*
Y696000D01*
Y698999D01*
X974014Y699999D01*
X975014Y698999D01*
Y696000D01*
X977013D02*
Y699999D01*
X978013D01*
X979012Y698999D01*
Y696000D01*
Y698999D01*
X980012Y699999D01*
X981012Y698999D01*
Y696000D01*
X942024Y712998D02*
X943024Y713998D01*
X945023D01*
X946023Y712998D01*
Y709000D01*
X945023Y708000D01*
X943024D01*
X942024Y709000D01*
Y712998D01*
X948022Y708000D02*
Y709000D01*
X949022D01*
Y708000D01*
X948022D01*
X953021Y712998D02*
X954020Y713998D01*
X956020D01*
X957019Y712998D01*
Y709000D01*
X956020Y708000D01*
X954020D01*
X953021Y709000D01*
Y712998D01*
X959019D02*
X960018Y713998D01*
X962018D01*
X963017Y712998D01*
Y711999D01*
X962018Y710999D01*
X961018D01*
X962018D01*
X963017Y709999D01*
Y709000D01*
X962018Y708000D01*
X960018D01*
X959019Y709000D01*
X969016Y713998D02*
X965017D01*
Y710999D01*
X967016Y711999D01*
X968016D01*
X969016Y710999D01*
Y709000D01*
X968016Y708000D01*
X966016D01*
X965017Y709000D01*
X971015Y708000D02*
Y711999D01*
X972015D01*
X973014Y710999D01*
Y708000D01*
Y710999D01*
X974014Y711999D01*
X975014Y710999D01*
Y708000D01*
X977013D02*
Y711999D01*
X978013D01*
X979012Y710999D01*
Y708000D01*
Y710999D01*
X980012Y711999D01*
X981012Y710999D01*
Y708000D01*
X942024Y724998D02*
X943024Y725998D01*
X945023D01*
X946023Y724998D01*
Y721000D01*
X945023Y720000D01*
X943024D01*
X942024Y721000D01*
Y724998D01*
X948022Y720000D02*
Y721000D01*
X949022D01*
Y720000D01*
X948022D01*
X953021D02*
X955020D01*
X954020D01*
Y725998D01*
X953021Y724998D01*
X958019Y721000D02*
X959019Y720000D01*
X961018D01*
X962018Y721000D01*
Y724998D01*
X961018Y725998D01*
X959019D01*
X958019Y724998D01*
Y723999D01*
X959019Y722999D01*
X962018D01*
X964017Y724998D02*
X965017Y725998D01*
X967016D01*
X968016Y724998D01*
Y723999D01*
X967016Y722999D01*
X968016Y721999D01*
Y721000D01*
X967016Y720000D01*
X965017D01*
X964017Y721000D01*
Y721999D01*
X965017Y722999D01*
X964017Y723999D01*
Y724998D01*
X965017Y722999D02*
X967016D01*
X970015Y720000D02*
Y723999D01*
X971015D01*
X972015Y722999D01*
Y720000D01*
Y722999D01*
X973014Y723999D01*
X974014Y722999D01*
Y720000D01*
X976013D02*
Y723999D01*
X977013D01*
X978013Y722999D01*
Y720000D01*
Y722999D01*
X979012Y723999D01*
X980012Y722999D01*
Y720000D01*
X942024Y736998D02*
X943024Y737998D01*
X945023D01*
X946023Y736998D01*
Y733000D01*
X945023Y732000D01*
X943024D01*
X942024Y733000D01*
Y736998D01*
X948022Y732000D02*
Y733000D01*
X949022D01*
Y732000D01*
X948022D01*
X953021Y736998D02*
X954020Y737998D01*
X956020D01*
X957019Y736998D01*
Y733000D01*
X956020Y732000D01*
X954020D01*
X953021Y733000D01*
Y736998D01*
X959019D02*
X960018Y737998D01*
X962018D01*
X963017Y736998D01*
Y735999D01*
X962018Y734999D01*
X961018D01*
X962018D01*
X963017Y733999D01*
Y733000D01*
X962018Y732000D01*
X960018D01*
X959019Y733000D01*
X969016Y737998D02*
X965017D01*
Y734999D01*
X967016Y735999D01*
X968016D01*
X969016Y734999D01*
Y733000D01*
X968016Y732000D01*
X966016D01*
X965017Y733000D01*
X971015Y732000D02*
Y735999D01*
X972015D01*
X973014Y734999D01*
Y732000D01*
Y734999D01*
X974014Y735999D01*
X975014Y734999D01*
Y732000D01*
X977013D02*
Y735999D01*
X978013D01*
X979012Y734999D01*
Y732000D01*
Y734999D01*
X980012Y735999D01*
X981012Y734999D01*
Y732000D01*
X942024Y748998D02*
X943024Y749998D01*
X945023D01*
X946023Y748998D01*
Y745000D01*
X945023Y744000D01*
X943024D01*
X942024Y745000D01*
Y748998D01*
X948022Y744000D02*
Y745000D01*
X949022D01*
Y744000D01*
X948022D01*
X953021Y748998D02*
X954020Y749998D01*
X956020D01*
X957019Y748998D01*
Y745000D01*
X956020Y744000D01*
X954020D01*
X953021Y745000D01*
Y748998D01*
X959019Y744000D02*
X961018D01*
X960018D01*
Y749998D01*
X959019Y748998D01*
X964017D02*
X965017Y749998D01*
X967016D01*
X968016Y748998D01*
Y745000D01*
X967016Y744000D01*
X965017D01*
X964017Y745000D01*
Y748998D01*
X970015Y744000D02*
Y747999D01*
X971015D01*
X972015Y746999D01*
Y744000D01*
Y746999D01*
X973014Y747999D01*
X974014Y746999D01*
Y744000D01*
X976013D02*
Y747999D01*
X977013D01*
X978013Y746999D01*
Y744000D01*
Y746999D01*
X979012Y747999D01*
X980012Y746999D01*
Y744000D01*
X1011007Y772998D02*
X1010007Y773998D01*
X1008007D01*
X1007008Y772998D01*
Y769000D01*
X1008007Y768000D01*
X1010007D01*
X1011007Y769000D01*
X1014005Y768000D02*
X1016005D01*
X1017004Y769000D01*
Y770999D01*
X1016005Y771999D01*
X1014005D01*
X1013006Y770999D01*
Y769000D01*
X1014005Y768000D01*
X1019004D02*
Y771999D01*
X1022003D01*
X1023003Y770999D01*
Y768000D01*
X1025002D02*
X1028001D01*
X1029001Y769000D01*
X1028001Y769999D01*
X1026002D01*
X1025002Y770999D01*
X1026002Y771999D01*
X1029001D01*
X1032000Y772998D02*
Y771999D01*
X1031000D01*
X1032999D01*
X1032000D01*
Y769000D01*
X1032999Y768000D01*
X1036998Y771999D02*
X1038997D01*
X1039997Y770999D01*
Y768000D01*
X1036998D01*
X1035998Y769000D01*
X1036998Y769999D01*
X1039997D01*
X1041996Y768000D02*
Y771999D01*
X1044995D01*
X1045995Y770999D01*
Y768000D01*
X1048994Y772998D02*
Y771999D01*
X1047995D01*
X1049994D01*
X1048994D01*
Y769000D01*
X1049994Y768000D01*
X1007008Y652998D02*
X1008007Y653998D01*
X1010007D01*
X1011007Y652998D01*
Y651999D01*
X1010007Y650999D01*
X1009007D01*
X1010007D01*
X1011007Y649999D01*
Y649000D01*
X1010007Y648000D01*
X1008007D01*
X1007008Y649000D01*
X1013006Y648000D02*
Y649000D01*
X1014005D01*
Y648000D01*
X1013006D01*
X1022003Y653998D02*
X1018004D01*
Y650999D01*
X1020004Y651999D01*
X1021003D01*
X1022003Y650999D01*
Y649000D01*
X1021003Y648000D01*
X1019004D01*
X1018004Y649000D01*
X1010007Y672000D02*
Y677998D01*
X1007008Y674999D01*
X1011007D01*
X1013006Y672000D02*
Y673000D01*
X1014005D01*
Y672000D01*
X1013006D01*
X1018004Y673000D02*
X1019004Y672000D01*
X1021003D01*
X1022003Y673000D01*
Y676998D01*
X1021003Y677998D01*
X1019004D01*
X1018004Y676998D01*
Y675999D01*
X1019004Y674999D01*
X1022003D01*
X1007008Y700998D02*
X1008007Y701998D01*
X1010007D01*
X1011007Y700998D01*
Y699999D01*
X1010007Y698999D01*
X1009007D01*
X1010007D01*
X1011007Y697999D01*
Y697000D01*
X1010007Y696000D01*
X1008007D01*
X1007008Y697000D01*
X1013006Y696000D02*
Y697000D01*
X1014005D01*
Y696000D01*
X1013006D01*
X1018004Y697000D02*
X1019004Y696000D01*
X1021003D01*
X1022003Y697000D01*
Y700998D01*
X1021003Y701998D01*
X1019004D01*
X1018004Y700998D01*
Y699999D01*
X1019004Y698999D01*
X1022003D01*
X1028001Y701998D02*
X1026002Y700998D01*
X1024002Y698999D01*
Y697000D01*
X1025002Y696000D01*
X1027001D01*
X1028001Y697000D01*
Y697999D01*
X1027001Y698999D01*
X1024002D01*
X1010007Y720000D02*
Y725998D01*
X1007008Y722999D01*
X1011007D01*
X1013006Y720000D02*
Y721000D01*
X1014005D01*
Y720000D01*
X1013006D01*
X1018004Y721000D02*
X1019004Y720000D01*
X1021003D01*
X1022003Y721000D01*
Y724998D01*
X1021003Y725998D01*
X1019004D01*
X1018004Y724998D01*
Y723999D01*
X1019004Y722999D01*
X1022003D01*
X1007008Y748998D02*
X1008007Y749998D01*
X1010007D01*
X1011007Y748998D01*
Y747999D01*
X1010007Y746999D01*
X1009007D01*
X1010007D01*
X1011007Y745999D01*
Y745000D01*
X1010007Y744000D01*
X1008007D01*
X1007008Y745000D01*
X1013006Y744000D02*
Y745000D01*
X1014005D01*
Y744000D01*
X1013006D01*
X1022003Y749998D02*
X1018004D01*
Y746999D01*
X1020004Y747999D01*
X1021003D01*
X1022003Y746999D01*
Y745000D01*
X1021003Y744000D01*
X1019004D01*
X1018004Y745000D01*
X1067992Y772998D02*
X1066993Y773998D01*
X1064993D01*
X1063994Y772998D01*
Y769000D01*
X1064993Y768000D01*
X1066993D01*
X1067992Y769000D01*
Y770999D01*
X1065993D01*
X1072991Y768000D02*
X1070992D01*
X1069992Y769000D01*
Y770999D01*
X1070992Y771999D01*
X1072991D01*
X1073991Y770999D01*
Y769999D01*
X1069992D01*
X1075990Y771999D02*
Y768000D01*
Y769999D01*
X1076990Y770999D01*
X1077989Y771999D01*
X1078989D01*
X1081988Y773998D02*
Y768000D01*
X1084987D01*
X1085987Y769000D01*
Y769999D01*
Y770999D01*
X1084987Y771999D01*
X1081988D01*
X1090985Y768000D02*
X1088986D01*
X1087986Y769000D01*
Y770999D01*
X1088986Y771999D01*
X1090985D01*
X1091985Y770999D01*
Y769999D01*
X1087986D01*
X1093984Y771999D02*
Y768000D01*
Y769999D01*
X1094984Y770999D01*
X1095984Y771999D01*
X1096983D01*
X1067992Y640998D02*
X1066993Y641998D01*
X1064993D01*
X1063994Y640998D01*
Y637000D01*
X1064993Y636000D01*
X1066993D01*
X1067992Y637000D01*
Y638999D01*
X1065993D01*
X1069992Y641998D02*
Y636000D01*
X1072991D01*
X1073991Y637000D01*
Y637999D01*
X1072991Y638999D01*
X1069992D01*
X1072991D01*
X1073991Y639999D01*
Y640998D01*
X1072991Y641998D01*
X1069992D01*
X1078989D02*
X1076990D01*
X1075990Y640998D01*
Y637000D01*
X1076990Y636000D01*
X1078989D01*
X1079989Y637000D01*
Y640998D01*
X1078989Y641998D01*
X1067992Y652998D02*
X1066993Y653998D01*
X1064993D01*
X1063994Y652998D01*
Y649000D01*
X1064993Y648000D01*
X1066993D01*
X1067992Y649000D01*
Y650999D01*
X1065993D01*
X1069992Y653998D02*
Y648000D01*
X1072991D01*
X1073991Y649000D01*
Y649999D01*
X1072991Y650999D01*
X1069992D01*
X1072991D01*
X1073991Y651999D01*
Y652998D01*
X1072991Y653998D01*
X1069992D01*
X1079989Y652998D02*
X1078989Y653998D01*
X1076990D01*
X1075990Y652998D01*
Y651999D01*
X1076990Y650999D01*
X1078989D01*
X1079989Y649999D01*
Y649000D01*
X1078989Y648000D01*
X1076990D01*
X1075990Y649000D01*
X1067992Y664998D02*
X1066993Y665998D01*
X1064993D01*
X1063994Y664998D01*
Y661000D01*
X1064993Y660000D01*
X1066993D01*
X1067992Y661000D01*
Y662999D01*
X1065993D01*
X1069992Y665998D02*
Y660000D01*
X1072991D01*
X1073991Y661000D01*
Y661999D01*
X1072991Y662999D01*
X1069992D01*
X1072991D01*
X1073991Y663999D01*
Y664998D01*
X1072991Y665998D01*
X1069992D01*
X1075990D02*
Y660000D01*
X1079989D01*
X1067992Y688998D02*
X1066993Y689998D01*
X1064993D01*
X1063994Y688998D01*
Y685000D01*
X1064993Y684000D01*
X1066993D01*
X1067992Y685000D01*
Y686999D01*
X1065993D01*
X1069992Y684000D02*
Y689998D01*
X1072991D01*
X1073991Y688998D01*
Y686999D01*
X1072991Y685999D01*
X1069992D01*
X1079989Y684000D02*
X1075990D01*
X1079989Y687999D01*
Y688998D01*
X1078989Y689998D01*
X1076990D01*
X1075990Y688998D01*
X1067992Y712998D02*
X1066993Y713998D01*
X1064993D01*
X1063994Y712998D01*
Y709000D01*
X1064993Y708000D01*
X1066993D01*
X1067992Y709000D01*
Y710999D01*
X1065993D01*
X1069992Y708000D02*
Y713998D01*
X1072991D01*
X1073991Y712998D01*
Y710999D01*
X1072991Y709999D01*
X1069992D01*
X1075990Y708000D02*
X1077989D01*
X1076990D01*
Y713998D01*
X1075990Y712998D01*
X1067992Y736998D02*
X1066993Y737998D01*
X1064993D01*
X1063994Y736998D01*
Y733000D01*
X1064993Y732000D01*
X1066993D01*
X1067992Y733000D01*
Y734999D01*
X1065993D01*
X1069992Y737998D02*
X1073991D01*
X1071991D01*
Y732000D01*
X1075990Y737998D02*
Y732000D01*
X1079989D01*
X1067992Y748998D02*
X1066993Y749998D01*
X1064993D01*
X1063994Y748998D01*
Y745000D01*
X1064993Y744000D01*
X1066993D01*
X1067992Y745000D01*
Y746999D01*
X1065993D01*
X1069992Y749998D02*
X1073991D01*
X1071991D01*
Y744000D01*
X1079989Y748998D02*
X1078989Y749998D01*
X1076990D01*
X1075990Y748998D01*
Y747999D01*
X1076990Y746999D01*
X1078989D01*
X1079989Y745999D01*
Y745000D01*
X1078989Y744000D01*
X1076990D01*
X1075990Y745000D01*
X1067992Y760998D02*
X1066993Y761998D01*
X1064993D01*
X1063994Y760998D01*
Y757000D01*
X1064993Y756000D01*
X1066993D01*
X1067992Y757000D01*
Y758999D01*
X1065993D01*
X1069992Y761998D02*
X1073991D01*
X1071991D01*
Y756000D01*
X1078989Y761998D02*
X1076990D01*
X1075990Y760998D01*
Y757000D01*
X1076990Y756000D01*
X1078989D01*
X1079989Y757000D01*
Y760998D01*
X1078989Y761998D01*
D171*
X786181Y624334D02*
Y616462D01*
Y624334D02*
X791429Y616462D01*
Y624334D02*
Y616462D01*
X795478Y621710D02*
X794728Y621335D01*
X793979Y620585D01*
X793604Y619460D01*
Y618711D01*
X793979Y617586D01*
X794728Y616836D01*
X795478Y616462D01*
X796603D01*
X797352Y616836D01*
X798102Y617586D01*
X798477Y618711D01*
Y619460D01*
X798102Y620585D01*
X797352Y621335D01*
X796603Y621710D01*
X795478D01*
X801326Y624334D02*
Y617961D01*
X801701Y616836D01*
X802451Y616462D01*
X803200D01*
X800201Y621710D02*
X802826D01*
X804325Y619460D02*
X808823D01*
Y620210D01*
X808449Y620960D01*
X808074Y621335D01*
X807324Y621710D01*
X806199D01*
X805450Y621335D01*
X804700Y620585D01*
X804325Y619460D01*
Y618711D01*
X804700Y617586D01*
X805450Y616836D01*
X806199Y616462D01*
X807324D01*
X808074Y616836D01*
X808823Y617586D01*
X810885Y621710D02*
X810510Y621335D01*
X810885Y620960D01*
X811260Y621335D01*
X810885Y621710D01*
Y617211D02*
X810510Y616836D01*
X810885Y616462D01*
X811260Y616836D01*
X810885Y617211D01*
X821044Y621710D02*
X820294Y621335D01*
X819545Y620585D01*
X819170Y619460D01*
Y618711D01*
X819545Y617586D01*
X820294Y616836D01*
X821044Y616462D01*
X822169D01*
X822919Y616836D01*
X823668Y617586D01*
X824043Y618711D01*
Y619460D01*
X823668Y620585D01*
X822919Y621335D01*
X822169Y621710D01*
X821044D01*
X826892Y624334D02*
Y617961D01*
X827267Y616836D01*
X828017Y616462D01*
X828767D01*
X825768Y621710D02*
X828392D01*
X829891Y624334D02*
Y616462D01*
Y620210D02*
X831016Y621335D01*
X831766Y621710D01*
X832890D01*
X833640Y621335D01*
X834015Y620210D01*
Y616462D01*
X836077Y619460D02*
X840575D01*
Y620210D01*
X840200Y620960D01*
X839825Y621335D01*
X839076Y621710D01*
X837951D01*
X837201Y621335D01*
X836452Y620585D01*
X836077Y619460D01*
Y618711D01*
X836452Y617586D01*
X837201Y616836D01*
X837951Y616462D01*
X839076D01*
X839825Y616836D01*
X840575Y617586D01*
X842262Y621710D02*
Y616462D01*
Y619460D02*
X842637Y620585D01*
X843387Y621335D01*
X844136Y621710D01*
X845261D01*
X855907Y624334D02*
X852159Y619086D01*
X857782D01*
X855907Y624334D02*
Y616462D01*
X859169Y619835D02*
X865917D01*
X868241Y624334D02*
Y616462D01*
X874389Y621710D02*
Y616462D01*
Y620585D02*
X873639Y621335D01*
X872889Y621710D01*
X871765D01*
X871015Y621335D01*
X870265Y620585D01*
X869890Y619460D01*
Y618711D01*
X870265Y617586D01*
X871015Y616836D01*
X871765Y616462D01*
X872889D01*
X873639Y616836D01*
X874389Y617586D01*
X876863Y621710D02*
X879112Y616462D01*
X881361Y621710D02*
X879112Y616462D01*
X878362Y614962D01*
X877613Y614212D01*
X876863Y613837D01*
X876488D01*
X882673Y619460D02*
X887172D01*
Y620210D01*
X886797Y620960D01*
X886422Y621335D01*
X885672Y621710D01*
X884548D01*
X883798Y621335D01*
X883048Y620585D01*
X882673Y619460D01*
Y618711D01*
X883048Y617586D01*
X883798Y616836D01*
X884548Y616462D01*
X885672D01*
X886422Y616836D01*
X887172Y617586D01*
X888859Y621710D02*
Y616462D01*
Y619460D02*
X889234Y620585D01*
X889983Y621335D01*
X890733Y621710D01*
X891858D01*
X902879Y620585D02*
X902504Y621335D01*
X901379Y621710D01*
X900255D01*
X899130Y621335D01*
X898755Y620585D01*
X899130Y619835D01*
X899880Y619460D01*
X901754Y619086D01*
X902504Y618711D01*
X902879Y617961D01*
Y617586D01*
X902504Y616836D01*
X901379Y616462D01*
X900255D01*
X899130Y616836D01*
X898755Y617586D01*
X905653Y624334D02*
Y617961D01*
X906028Y616836D01*
X906778Y616462D01*
X907527D01*
X904528Y621710D02*
X907153D01*
X913151D02*
Y616462D01*
Y620585D02*
X912401Y621335D01*
X911651Y621710D01*
X910526D01*
X909777Y621335D01*
X909027Y620585D01*
X908652Y619460D01*
Y618711D01*
X909027Y617586D01*
X909777Y616836D01*
X910526Y616462D01*
X911651D01*
X912401Y616836D01*
X913151Y617586D01*
X919748Y620585D02*
X918999Y621335D01*
X918249Y621710D01*
X917124D01*
X916374Y621335D01*
X915625Y620585D01*
X915250Y619460D01*
Y618711D01*
X915625Y617586D01*
X916374Y616836D01*
X917124Y616462D01*
X918249D01*
X918999Y616836D01*
X919748Y617586D01*
X921435Y624334D02*
Y616462D01*
X925184Y621710D02*
X921435Y617961D01*
X922935Y619460D02*
X925559Y616462D01*
X926796Y621710D02*
Y617961D01*
X927171Y616836D01*
X927921Y616462D01*
X929045D01*
X929795Y616836D01*
X930919Y617961D01*
Y621710D02*
Y616462D01*
X932981Y621710D02*
Y613837D01*
Y620585D02*
X933731Y621335D01*
X934481Y621710D01*
X935605D01*
X936355Y621335D01*
X937105Y620585D01*
X937480Y619460D01*
Y618711D01*
X937105Y617586D01*
X936355Y616836D01*
X935605Y616462D01*
X934481D01*
X933731Y616836D01*
X932981Y617586D01*
X948351Y624334D02*
X947601D01*
X946852Y623959D01*
X946477Y622834D01*
Y616462D01*
X945352Y621710D02*
X947976D01*
X951350D02*
X950600Y621335D01*
X949851Y620585D01*
X949476Y619460D01*
Y618711D01*
X949851Y617586D01*
X950600Y616836D01*
X951350Y616462D01*
X952475D01*
X953224Y616836D01*
X953974Y617586D01*
X954349Y618711D01*
Y619460D01*
X953974Y620585D01*
X953224Y621335D01*
X952475Y621710D01*
X951350D01*
X956073D02*
Y616462D01*
Y619460D02*
X956448Y620585D01*
X957198Y621335D01*
X957948Y621710D01*
X959072D01*
X965970D02*
Y613837D01*
Y620585D02*
X966720Y621335D01*
X967470Y621710D01*
X968594D01*
X969344Y621335D01*
X970094Y620585D01*
X970469Y619460D01*
Y618711D01*
X970094Y617586D01*
X969344Y616836D01*
X968594Y616462D01*
X967470D01*
X966720Y616836D01*
X965970Y617586D01*
X972155Y621710D02*
Y616462D01*
Y619460D02*
X972530Y620585D01*
X973280Y621335D01*
X974030Y621710D01*
X975154D01*
X977741D02*
X976991Y621335D01*
X976242Y620585D01*
X975867Y619460D01*
Y618711D01*
X976242Y617586D01*
X976991Y616836D01*
X977741Y616462D01*
X978866D01*
X979615Y616836D01*
X980365Y617586D01*
X980740Y618711D01*
Y619460D01*
X980365Y620585D01*
X979615Y621335D01*
X978866Y621710D01*
X977741D01*
X983589Y624334D02*
Y617961D01*
X983964Y616836D01*
X984714Y616462D01*
X985464D01*
X982465Y621710D02*
X985089D01*
X988463D02*
X987713Y621335D01*
X986963Y620585D01*
X986588Y619460D01*
Y618711D01*
X986963Y617586D01*
X987713Y616836D01*
X988463Y616462D01*
X989587D01*
X990337Y616836D01*
X991087Y617586D01*
X991461Y618711D01*
Y619460D01*
X991087Y620585D01*
X990337Y621335D01*
X989587Y621710D01*
X988463D01*
X994310Y624334D02*
Y617961D01*
X994685Y616836D01*
X995435Y616462D01*
X996185D01*
X993186Y621710D02*
X995810D01*
X997684D02*
X999934Y616462D01*
X1002183Y621710D02*
X999934Y616462D01*
X999184Y614962D01*
X998434Y614212D01*
X997684Y613837D01*
X997309D01*
X1003495Y621710D02*
Y613837D01*
Y620585D02*
X1004245Y621335D01*
X1004994Y621710D01*
X1006119D01*
X1006869Y621335D01*
X1007618Y620585D01*
X1007993Y619460D01*
Y618711D01*
X1007618Y617586D01*
X1006869Y616836D01*
X1006119Y616462D01*
X1004994D01*
X1004245Y616836D01*
X1003495Y617586D01*
X1009680Y619460D02*
X1014179D01*
Y620210D01*
X1013804Y620960D01*
X1013429Y621335D01*
X1012679Y621710D01*
X1011555D01*
X1010805Y621335D01*
X1010055Y620585D01*
X1009680Y619460D01*
Y618711D01*
X1010055Y617586D01*
X1010805Y616836D01*
X1011555Y616462D01*
X1012679D01*
X1013429Y616836D01*
X1014179Y617586D01*
X1022801Y624334D02*
X1023176Y623959D01*
X1023551Y624334D01*
X1023176Y624709D01*
X1022801Y624334D01*
X1023176Y621710D02*
Y616462D01*
X1029061Y620585D02*
X1028686Y621335D01*
X1027562Y621710D01*
X1026437D01*
X1025312Y621335D01*
X1024938Y620585D01*
X1025312Y619835D01*
X1026062Y619460D01*
X1027936Y619086D01*
X1028686Y618711D01*
X1029061Y617961D01*
Y617586D01*
X1028686Y616836D01*
X1027562Y616462D01*
X1026437D01*
X1025312Y616836D01*
X1024938Y617586D01*
X1041395Y621710D02*
Y616462D01*
Y620585D02*
X1040645Y621335D01*
X1039895Y621710D01*
X1038770D01*
X1038021Y621335D01*
X1037271Y620585D01*
X1036896Y619460D01*
Y618711D01*
X1037271Y617586D01*
X1038021Y616836D01*
X1038770Y616462D01*
X1039895D01*
X1040645Y616836D01*
X1041395Y617586D01*
X1047992Y620585D02*
X1047243Y621335D01*
X1046493Y621710D01*
X1045368D01*
X1044618Y621335D01*
X1043869Y620585D01*
X1043494Y619460D01*
Y618711D01*
X1043869Y617586D01*
X1044618Y616836D01*
X1045368Y616462D01*
X1046493D01*
X1047243Y616836D01*
X1047992Y617586D01*
X1054178Y620585D02*
X1053428Y621335D01*
X1052678Y621710D01*
X1051554D01*
X1050804Y621335D01*
X1050054Y620585D01*
X1049679Y619460D01*
Y618711D01*
X1050054Y617586D01*
X1050804Y616836D01*
X1051554Y616462D01*
X1052678D01*
X1053428Y616836D01*
X1054178Y617586D01*
X1055865Y619460D02*
X1060363D01*
Y620210D01*
X1059988Y620960D01*
X1059613Y621335D01*
X1058864Y621710D01*
X1057739D01*
X1056989Y621335D01*
X1056239Y620585D01*
X1055865Y619460D01*
Y618711D01*
X1056239Y617586D01*
X1056989Y616836D01*
X1057739Y616462D01*
X1058864D01*
X1059613Y616836D01*
X1060363Y617586D01*
X1062050Y621710D02*
Y613837D01*
Y620585D02*
X1062800Y621335D01*
X1063550Y621710D01*
X1064674D01*
X1065424Y621335D01*
X1066174Y620585D01*
X1066549Y619460D01*
Y618711D01*
X1066174Y617586D01*
X1065424Y616836D01*
X1064674Y616462D01*
X1063550D01*
X1062800Y616836D01*
X1062050Y617586D01*
X1069360Y624334D02*
Y617961D01*
X1069735Y616836D01*
X1070485Y616462D01*
X1071234D01*
X1068235Y621710D02*
X1070860D01*
X1076857D02*
Y616462D01*
Y620585D02*
X1076108Y621335D01*
X1075358Y621710D01*
X1074233D01*
X1073484Y621335D01*
X1072734Y620585D01*
X1072359Y619460D01*
Y618711D01*
X1072734Y617586D01*
X1073484Y616836D01*
X1074233Y616462D01*
X1075358D01*
X1076108Y616836D01*
X1076857Y617586D01*
X1078957Y624334D02*
Y616462D01*
Y620585D02*
X1079706Y621335D01*
X1080456Y621710D01*
X1081581D01*
X1082331Y621335D01*
X1083080Y620585D01*
X1083455Y619460D01*
Y618711D01*
X1083080Y617586D01*
X1082331Y616836D01*
X1081581Y616462D01*
X1080456D01*
X1079706Y616836D01*
X1078957Y617586D01*
X1085142Y624334D02*
Y616462D01*
X1086792Y619460D02*
X1091290D01*
Y620210D01*
X1090915Y620960D01*
X1090540Y621335D01*
X1089791Y621710D01*
X1088666D01*
X1087916Y621335D01*
X1087166Y620585D01*
X1086792Y619460D01*
Y618711D01*
X1087166Y617586D01*
X1087916Y616836D01*
X1088666Y616462D01*
X1089791D01*
X1090540Y616836D01*
X1091290Y617586D01*
X1099912Y624334D02*
X1100287Y623959D01*
X1100662Y624334D01*
X1100287Y624709D01*
X1099912Y624334D01*
X1100287Y621710D02*
Y616462D01*
X1105048Y624334D02*
X1104298D01*
X1103548Y623959D01*
X1103174Y622834D01*
Y616462D01*
X1102049Y621710D02*
X1104673D01*
X1112358Y624334D02*
Y616462D01*
X1116856D01*
X1117719Y622834D02*
X1118468Y623209D01*
X1119593Y624334D01*
Y616462D01*
X1123492Y619835D02*
X1130239D01*
X1132563Y624334D02*
Y616462D01*
X1137062D01*
X1138299Y622460D02*
Y622834D01*
X1138674Y623584D01*
X1139049Y623959D01*
X1139799Y624334D01*
X1141298D01*
X1142048Y623959D01*
X1142423Y623584D01*
X1142798Y622834D01*
Y622085D01*
X1142423Y621335D01*
X1141673Y620210D01*
X1137924Y616462D01*
X1143172D01*
X790680Y606429D02*
Y601181D01*
Y605305D02*
X789930Y606054D01*
X789180Y606429D01*
X788056D01*
X787306Y606054D01*
X786556Y605305D01*
X786181Y604180D01*
Y603430D01*
X786556Y602306D01*
X787306Y601556D01*
X788056Y601181D01*
X789180D01*
X789930Y601556D01*
X790680Y602306D01*
X792779Y606429D02*
Y601181D01*
Y604930D02*
X793903Y606054D01*
X794653Y606429D01*
X795778D01*
X796528Y606054D01*
X796903Y604930D01*
Y601181D01*
X803463Y609053D02*
Y601181D01*
Y605305D02*
X802713Y606054D01*
X801963Y606429D01*
X800839D01*
X800089Y606054D01*
X799339Y605305D01*
X798964Y604180D01*
Y603430D01*
X799339Y602306D01*
X800089Y601556D01*
X800839Y601181D01*
X801963D01*
X802713Y601556D01*
X803463Y602306D01*
X811747Y609053D02*
Y601181D01*
X816246D01*
X817858Y609053D02*
X821982D01*
X819732Y606054D01*
X820857D01*
X821607Y605680D01*
X821982Y605305D01*
X822356Y604180D01*
Y603430D01*
X821982Y602306D01*
X821232Y601556D01*
X820107Y601181D01*
X818983D01*
X817858Y601556D01*
X817483Y601931D01*
X817108Y602681D01*
X824118Y604555D02*
X830866D01*
X833190Y609053D02*
Y601181D01*
X837689D01*
X842300Y609053D02*
X838551Y603805D01*
X844174D01*
X842300Y609053D02*
Y601181D01*
X852871Y609053D02*
Y602681D01*
X853246Y601556D01*
X853996Y601181D01*
X854745D01*
X851746Y606429D02*
X854370D01*
X855870Y609053D02*
Y601181D01*
Y604930D02*
X856995Y606054D01*
X857744Y606429D01*
X858869D01*
X859619Y606054D01*
X859994Y604930D01*
Y601181D01*
X862805Y609053D02*
X863180Y608679D01*
X863555Y609053D01*
X863180Y609428D01*
X862805Y609053D01*
X863180Y606429D02*
Y601181D01*
X869440Y605305D02*
X868691Y606054D01*
X867941Y606429D01*
X866816D01*
X866066Y606054D01*
X865317Y605305D01*
X864942Y604180D01*
Y603430D01*
X865317Y602306D01*
X866066Y601556D01*
X866816Y601181D01*
X867941D01*
X868691Y601556D01*
X869440Y602306D01*
X871127Y609053D02*
Y601181D01*
X874876Y606429D02*
X871127Y602681D01*
X872627Y604180D02*
X875251Y601181D01*
X876488Y606429D02*
Y601181D01*
Y604930D02*
X877613Y606054D01*
X878362Y606429D01*
X879487D01*
X880237Y606054D01*
X880612Y604930D01*
Y601181D01*
X882673Y604180D02*
X887172D01*
Y604930D01*
X886797Y605680D01*
X886422Y606054D01*
X885672Y606429D01*
X884548D01*
X883798Y606054D01*
X883048Y605305D01*
X882673Y604180D01*
Y603430D01*
X883048Y602306D01*
X883798Y601556D01*
X884548Y601181D01*
X885672D01*
X886422Y601556D01*
X887172Y602306D01*
X892982Y605305D02*
X892607Y606054D01*
X891483Y606429D01*
X890358D01*
X889234Y606054D01*
X888859Y605305D01*
X889234Y604555D01*
X889983Y604180D01*
X891858Y603805D01*
X892607Y603430D01*
X892982Y602681D01*
Y602306D01*
X892607Y601556D01*
X891483Y601181D01*
X890358D01*
X889234Y601556D01*
X888859Y602306D01*
X898755Y605305D02*
X898380Y606054D01*
X897256Y606429D01*
X896131D01*
X895007Y606054D01*
X894632Y605305D01*
X895007Y604555D01*
X895756Y604180D01*
X897631Y603805D01*
X898380Y603430D01*
X898755Y602681D01*
Y602306D01*
X898380Y601556D01*
X897256Y601181D01*
X896131D01*
X895007Y601556D01*
X894632Y602306D01*
X907340Y609053D02*
X907715Y608679D01*
X908090Y609053D01*
X907715Y609428D01*
X907340Y609053D01*
X907715Y606429D02*
Y601181D01*
X913600Y605305D02*
X913225Y606054D01*
X912101Y606429D01*
X910976D01*
X909852Y606054D01*
X909477Y605305D01*
X909852Y604555D01*
X910601Y604180D01*
X912476Y603805D01*
X913225Y603430D01*
X913600Y602681D01*
Y602306D01*
X913225Y601556D01*
X912101Y601181D01*
X910976D01*
X909852Y601556D01*
X909477Y602306D01*
X921435Y609053D02*
Y601181D01*
Y605305D02*
X922185Y606054D01*
X922935Y606429D01*
X924059D01*
X924809Y606054D01*
X925559Y605305D01*
X925934Y604180D01*
Y603430D01*
X925559Y602306D01*
X924809Y601556D01*
X924059Y601181D01*
X922935D01*
X922185Y601556D01*
X921435Y602306D01*
X927621Y604180D02*
X932119D01*
Y604930D01*
X931744Y605680D01*
X931369Y606054D01*
X930620Y606429D01*
X929495D01*
X928745Y606054D01*
X927995Y605305D01*
X927621Y604180D01*
Y603430D01*
X927995Y602306D01*
X928745Y601556D01*
X929495Y601181D01*
X930620D01*
X931369Y601556D01*
X932119Y602306D01*
X934931Y609053D02*
Y602681D01*
X935306Y601556D01*
X936055Y601181D01*
X936805D01*
X933806Y606429D02*
X936430D01*
X937930D02*
X939429Y601181D01*
X940929Y606429D02*
X939429Y601181D01*
X940929Y606429D02*
X942428Y601181D01*
X943928Y606429D02*
X942428Y601181D01*
X945765Y604180D02*
X950263D01*
Y604930D01*
X949888Y605680D01*
X949513Y606054D01*
X948763Y606429D01*
X947639D01*
X946889Y606054D01*
X946139Y605305D01*
X945765Y604180D01*
Y603430D01*
X946139Y602306D01*
X946889Y601556D01*
X947639Y601181D01*
X948763D01*
X949513Y601556D01*
X950263Y602306D01*
X951950Y604180D02*
X956448D01*
Y604930D01*
X956073Y605680D01*
X955699Y606054D01*
X954949Y606429D01*
X953824D01*
X953074Y606054D01*
X952325Y605305D01*
X951950Y604180D01*
Y603430D01*
X952325Y602306D01*
X953074Y601556D01*
X953824Y601181D01*
X954949D01*
X955699Y601556D01*
X956448Y602306D01*
X958135Y606429D02*
Y601181D01*
Y604930D02*
X959260Y606054D01*
X960010Y606429D01*
X961134D01*
X961884Y606054D01*
X962259Y604930D01*
Y601181D01*
X972755Y609053D02*
X971631Y608679D01*
X970881Y607554D01*
X970506Y605680D01*
Y604555D01*
X970881Y602681D01*
X971631Y601556D01*
X972755Y601181D01*
X973505D01*
X974630Y601556D01*
X975379Y602681D01*
X975754Y604555D01*
Y605680D01*
X975379Y607554D01*
X974630Y608679D01*
X973505Y609053D01*
X972755D01*
X977891Y601931D02*
X977516Y601556D01*
X977891Y601181D01*
X978266Y601556D01*
X977891Y601931D01*
X979990Y607554D02*
X980740Y607929D01*
X981865Y609053D01*
Y601181D01*
X991012Y609053D02*
X987263Y601181D01*
X985763Y609053D02*
X991012D01*
X997272D02*
X993523D01*
X993148Y605680D01*
X993523Y606054D01*
X994648Y606429D01*
X995772D01*
X996897Y606054D01*
X997647Y605305D01*
X998022Y604180D01*
Y603430D01*
X997647Y602306D01*
X996897Y601556D01*
X995772Y601181D01*
X994648D01*
X993523Y601556D01*
X993148Y601931D01*
X992774Y602681D01*
X999784Y606429D02*
Y601181D01*
Y604930D02*
X1000908Y606054D01*
X1001658Y606429D01*
X1002783D01*
X1003532Y606054D01*
X1003907Y604930D01*
Y601181D01*
Y604930D02*
X1005032Y606054D01*
X1005782Y606429D01*
X1006906D01*
X1007656Y606054D01*
X1008031Y604930D01*
Y601181D01*
X1010505Y606429D02*
Y601181D01*
Y604930D02*
X1011630Y606054D01*
X1012379Y606429D01*
X1013504D01*
X1014254Y606054D01*
X1014629Y604930D01*
Y601181D01*
Y604930D02*
X1015753Y606054D01*
X1016503Y606429D01*
X1017628D01*
X1018377Y606054D01*
X1018752Y604930D01*
Y601181D01*
X1031910Y606429D02*
Y601181D01*
Y605305D02*
X1031161Y606054D01*
X1030411Y606429D01*
X1029286D01*
X1028536Y606054D01*
X1027787Y605305D01*
X1027412Y604180D01*
Y603430D01*
X1027787Y602306D01*
X1028536Y601556D01*
X1029286Y601181D01*
X1030411D01*
X1031161Y601556D01*
X1031910Y602306D01*
X1034009Y606429D02*
Y601181D01*
Y604930D02*
X1035134Y606054D01*
X1035884Y606429D01*
X1037008D01*
X1037758Y606054D01*
X1038133Y604930D01*
Y601181D01*
X1044693Y609053D02*
Y601181D01*
Y605305D02*
X1043944Y606054D01*
X1043194Y606429D01*
X1042069D01*
X1041320Y606054D01*
X1040570Y605305D01*
X1040195Y604180D01*
Y603430D01*
X1040570Y602306D01*
X1041320Y601556D01*
X1042069Y601181D01*
X1043194D01*
X1043944Y601556D01*
X1044693Y602306D01*
X1055227Y609053D02*
X1054103Y608679D01*
X1053353Y607554D01*
X1052978Y605680D01*
Y604555D01*
X1053353Y602681D01*
X1054103Y601556D01*
X1055227Y601181D01*
X1055977D01*
X1057102Y601556D01*
X1057852Y602681D01*
X1058226Y604555D01*
Y605680D01*
X1057852Y607554D01*
X1057102Y608679D01*
X1055977Y609053D01*
X1055227D01*
X1060363Y601931D02*
X1059988Y601556D01*
X1060363Y601181D01*
X1060738Y601556D01*
X1060363Y601931D01*
X1062837Y607179D02*
Y607554D01*
X1063212Y608304D01*
X1063587Y608679D01*
X1064337Y609053D01*
X1065836D01*
X1066586Y608679D01*
X1066961Y608304D01*
X1067336Y607554D01*
Y606804D01*
X1066961Y606054D01*
X1066211Y604930D01*
X1062462Y601181D01*
X1067711D01*
X1069847Y607179D02*
Y607554D01*
X1070222Y608304D01*
X1070597Y608679D01*
X1071347Y609053D01*
X1072846D01*
X1073596Y608679D01*
X1073971Y608304D01*
X1074346Y607554D01*
Y606804D01*
X1073971Y606054D01*
X1073221Y604930D01*
X1069473Y601181D01*
X1074721D01*
X1080981Y609053D02*
X1077232D01*
X1076857Y605680D01*
X1077232Y606054D01*
X1078357Y606429D01*
X1079482D01*
X1080606Y606054D01*
X1081356Y605305D01*
X1081731Y604180D01*
Y603430D01*
X1081356Y602306D01*
X1080606Y601556D01*
X1079482Y601181D01*
X1078357D01*
X1077232Y601556D01*
X1076857Y601931D01*
X1076483Y602681D01*
X1083493Y606429D02*
Y601181D01*
Y604930D02*
X1084617Y606054D01*
X1085367Y606429D01*
X1086492D01*
X1087241Y606054D01*
X1087616Y604930D01*
Y601181D01*
Y604930D02*
X1088741Y606054D01*
X1089491Y606429D01*
X1090615D01*
X1091365Y606054D01*
X1091740Y604930D01*
Y601181D01*
X1094214Y606429D02*
Y601181D01*
Y604930D02*
X1095339Y606054D01*
X1096089Y606429D01*
X1097213D01*
X1097963Y606054D01*
X1098338Y604930D01*
Y601181D01*
Y604930D02*
X1099462Y606054D01*
X1100212Y606429D01*
X1101337D01*
X1102087Y606054D01*
X1102461Y604930D01*
Y601181D01*
D175*
X904904Y270775D02*
X964904D01*
Y396759D01*
X904904D02*
X964904D01*
X904904Y270775D02*
Y396759D01*
Y401168D02*
X964904D01*
Y426365D01*
X904904D02*
X964904D01*
X904904Y401168D02*
Y426365D01*
Y241168D02*
X964904D01*
Y266365D01*
X904904D02*
X964904D01*
X904904Y241168D02*
Y266365D01*
Y430774D02*
X964904D01*
Y433294D01*
X904904D02*
X964904D01*
X904904Y430774D02*
Y433294D01*
Y234239D02*
X964904D01*
Y236759D01*
X904904D02*
X964904D01*
X904904Y234239D02*
Y236759D01*
D179*
X743937Y500426D02*
Y476809D01*
Y500426D02*
X758557D01*
X743937Y489180D02*
X752934D01*
X779250Y476809D02*
X770253Y500426D01*
X761256Y476809D01*
X764630Y484682D02*
X775876D01*
X799381Y500426D02*
X784761D01*
Y476809D01*
X799381D01*
X784761Y489180D02*
X793758D01*
X837618Y497052D02*
X835369Y499302D01*
X831995Y500426D01*
X827496D01*
X824122Y499302D01*
X821873Y497052D01*
Y494803D01*
X822998Y492554D01*
X824122Y491429D01*
X826372Y490305D01*
X833119Y488056D01*
X835369Y486931D01*
X836493Y485806D01*
X837618Y483557D01*
Y480183D01*
X835369Y477934D01*
X831995Y476809D01*
X827496D01*
X824122Y477934D01*
X821873Y480183D01*
X846277Y500426D02*
Y481308D01*
X847402Y477934D01*
X849651Y476809D01*
X851900D01*
X842903Y492554D02*
X850776D01*
X868770D02*
Y476809D01*
Y489180D02*
X866520Y491429D01*
X864271Y492554D01*
X860897D01*
X858648Y491429D01*
X856399Y489180D01*
X855274Y485806D01*
Y483557D01*
X856399Y480183D01*
X858648Y477934D01*
X860897Y476809D01*
X864271D01*
X866520Y477934D01*
X868770Y480183D01*
X888563Y489180D02*
X886314Y491429D01*
X884064Y492554D01*
X880691D01*
X878441Y491429D01*
X876192Y489180D01*
X875068Y485806D01*
Y483557D01*
X876192Y480183D01*
X878441Y477934D01*
X880691Y476809D01*
X884064D01*
X886314Y477934D01*
X888563Y480183D01*
X893624Y500426D02*
Y476809D01*
X904870Y492554D02*
X893624Y481308D01*
X898122Y485806D02*
X905995Y476809D01*
X909706Y492554D02*
Y481308D01*
X910830Y477934D01*
X913080Y476809D01*
X916453D01*
X918703Y477934D01*
X922077Y481308D01*
Y492554D02*
Y476809D01*
X928262Y492554D02*
Y468937D01*
Y489180D02*
X930511Y491429D01*
X932761Y492554D01*
X936134D01*
X938384Y491429D01*
X940633Y489180D01*
X941757Y485806D01*
Y483557D01*
X940633Y480183D01*
X938384Y477934D01*
X936134Y476809D01*
X932761D01*
X930511Y477934D01*
X928262Y480183D01*
X973247Y504925D02*
X970998Y502676D01*
X968748Y499302D01*
X966499Y494803D01*
X965374Y489180D01*
Y484682D01*
X966499Y479059D01*
X968748Y474560D01*
X970998Y471186D01*
X973247Y468937D01*
X970998Y502676D02*
X968748Y498177D01*
X967624Y494803D01*
X966499Y489180D01*
Y484682D01*
X967624Y479059D01*
X968748Y475685D01*
X970998Y471186D01*
X977745Y500426D02*
Y476809D01*
Y500426D02*
X992365D01*
X977745Y489180D02*
X986742D01*
X1000687Y492554D02*
X998438Y491429D01*
X996189Y489180D01*
X995064Y485806D01*
Y483557D01*
X996189Y480183D01*
X998438Y477934D01*
X1000687Y476809D01*
X1004061D01*
X1006310Y477934D01*
X1008560Y480183D01*
X1009684Y483557D01*
Y485806D01*
X1008560Y489180D01*
X1006310Y491429D01*
X1004061Y492554D01*
X1000687D01*
X1014858D02*
Y476809D01*
Y485806D02*
X1015982Y489180D01*
X1018231Y491429D01*
X1020481Y492554D01*
X1023855D01*
X1044548D02*
Y468937D01*
Y489180D02*
X1046797Y491429D01*
X1049046Y492554D01*
X1052420D01*
X1054669Y491429D01*
X1056918Y489180D01*
X1058043Y485806D01*
Y483557D01*
X1056918Y480183D01*
X1054669Y477934D01*
X1052420Y476809D01*
X1049046D01*
X1046797Y477934D01*
X1044548Y480183D01*
X1063104Y492554D02*
Y476809D01*
Y485806D02*
X1064228Y489180D01*
X1066478Y491429D01*
X1068727Y492554D01*
X1072101D01*
X1079861D02*
X1077611Y491429D01*
X1075362Y489180D01*
X1074238Y485806D01*
Y483557D01*
X1075362Y480183D01*
X1077611Y477934D01*
X1079861Y476809D01*
X1083234D01*
X1085484Y477934D01*
X1087733Y480183D01*
X1088857Y483557D01*
Y485806D01*
X1087733Y489180D01*
X1085484Y491429D01*
X1083234Y492554D01*
X1079861D01*
X1107526Y500426D02*
Y476809D01*
Y489180D02*
X1105277Y491429D01*
X1103028Y492554D01*
X1099654D01*
X1097405Y491429D01*
X1095155Y489180D01*
X1094031Y485806D01*
Y483557D01*
X1095155Y480183D01*
X1097405Y477934D01*
X1099654Y476809D01*
X1103028D01*
X1105277Y477934D01*
X1107526Y480183D01*
X1113824Y492554D02*
Y481308D01*
X1114949Y477934D01*
X1117198Y476809D01*
X1120572D01*
X1122821Y477934D01*
X1126195Y481308D01*
Y492554D02*
Y476809D01*
X1145876Y489180D02*
X1143626Y491429D01*
X1141377Y492554D01*
X1138003D01*
X1135754Y491429D01*
X1133505Y489180D01*
X1132380Y485806D01*
Y483557D01*
X1133505Y480183D01*
X1135754Y477934D01*
X1138003Y476809D01*
X1141377D01*
X1143626Y477934D01*
X1145876Y480183D01*
X1154310Y500426D02*
Y481308D01*
X1155435Y477934D01*
X1157684Y476809D01*
X1159933D01*
X1150937Y492554D02*
X1158809D01*
X1165557Y500426D02*
X1166681Y499302D01*
X1167806Y500426D01*
X1166681Y501551D01*
X1165557Y500426D01*
X1166681Y492554D02*
Y476809D01*
X1177590Y492554D02*
X1175341Y491429D01*
X1173092Y489180D01*
X1171967Y485806D01*
Y483557D01*
X1173092Y480183D01*
X1175341Y477934D01*
X1177590Y476809D01*
X1180964D01*
X1183213Y477934D01*
X1185462Y480183D01*
X1186587Y483557D01*
Y485806D01*
X1185462Y489180D01*
X1183213Y491429D01*
X1180964Y492554D01*
X1177590D01*
X1191760D02*
Y476809D01*
Y488056D02*
X1195134Y491429D01*
X1197383Y492554D01*
X1200757D01*
X1203006Y491429D01*
X1204131Y488056D01*
Y476809D01*
X1210316Y504925D02*
X1212566Y502676D01*
X1214815Y499302D01*
X1217064Y494803D01*
X1218189Y489180D01*
Y484682D01*
X1217064Y479059D01*
X1214815Y474560D01*
X1212566Y471186D01*
X1210316Y468937D01*
X1212566Y502676D02*
X1214815Y498177D01*
X1215940Y494803D01*
X1217064Y489180D01*
Y484682D01*
X1215940Y479059D01*
X1214815Y475685D01*
X1212566Y471186D01*
X1225049Y492554D02*
X1223924Y491429D01*
X1225049Y490305D01*
X1226173Y491429D01*
X1225049Y492554D01*
Y479059D02*
X1223924Y477934D01*
X1225049Y476809D01*
X1226173Y477934D01*
X1225049Y479059D01*
X771437Y840426D02*
Y816809D01*
Y840426D02*
X786057D01*
X771437Y829180D02*
X780434D01*
X794379Y832554D02*
X792130Y831429D01*
X789881Y829180D01*
X788756Y825806D01*
Y823557D01*
X789881Y820183D01*
X792130Y817934D01*
X794379Y816809D01*
X797753D01*
X800002Y817934D01*
X802252Y820183D01*
X803376Y823557D01*
Y825806D01*
X802252Y829180D01*
X800002Y831429D01*
X797753Y832554D01*
X794379D01*
X808549D02*
Y816809D01*
Y825806D02*
X809674Y829180D01*
X811923Y831429D01*
X814172Y832554D01*
X817546D01*
X838239Y828055D02*
X848361D01*
X851735Y829180D01*
X852859Y830305D01*
X853984Y832554D01*
Y835928D01*
X852859Y838177D01*
X851735Y839302D01*
X848361Y840426D01*
X838239D01*
Y816809D01*
X876139Y834803D02*
X875014Y837053D01*
X872765Y839302D01*
X870516Y840426D01*
X866017D01*
X863768Y839302D01*
X861519Y837053D01*
X860394Y834803D01*
X859270Y831429D01*
Y825806D01*
X860394Y822432D01*
X861519Y820183D01*
X863768Y817934D01*
X866017Y816809D01*
X870516D01*
X872765Y817934D01*
X875014Y820183D01*
X876139Y822432D01*
X882774Y840426D02*
Y816809D01*
Y840426D02*
X892896D01*
X896270Y839302D01*
X897394Y838177D01*
X898519Y835928D01*
Y833679D01*
X897394Y831429D01*
X896270Y830305D01*
X892896Y829180D01*
X882774D02*
X892896D01*
X896270Y828055D01*
X897394Y826931D01*
X898519Y824682D01*
Y821308D01*
X897394Y819059D01*
X896270Y817934D01*
X892896Y816809D01*
X882774D01*
X903805Y840426D02*
X909428Y816809D01*
X915051Y840426D02*
X909428Y816809D01*
X915051Y840426D02*
X920674Y816809D01*
X926297Y840426D02*
X920674Y816809D01*
X944516Y832554D02*
Y816809D01*
Y829180D02*
X942267Y831429D01*
X940017Y832554D01*
X936644D01*
X934394Y831429D01*
X932145Y829180D01*
X931020Y825806D01*
Y823557D01*
X932145Y820183D01*
X934394Y817934D01*
X936644Y816809D01*
X940017D01*
X942267Y817934D01*
X944516Y820183D01*
X951938Y832554D02*
X958686Y816809D01*
X965434Y832554D02*
X958686Y816809D01*
X956437Y812311D01*
X954187Y810062D01*
X951938Y808937D01*
X950814D01*
X987926Y828055D02*
X998048D01*
X1001422Y829180D01*
X1002546Y830305D01*
X1003671Y832554D01*
Y835928D01*
X1002546Y838177D01*
X1001422Y839302D01*
X998048Y840426D01*
X987926D01*
Y816809D01*
X1008957Y832554D02*
Y816809D01*
Y825806D02*
X1010081Y829180D01*
X1012330Y831429D01*
X1014580Y832554D01*
X1017953D01*
X1025713D02*
X1023464Y831429D01*
X1021215Y829180D01*
X1020090Y825806D01*
Y823557D01*
X1021215Y820183D01*
X1023464Y817934D01*
X1025713Y816809D01*
X1029087D01*
X1031336Y817934D01*
X1033586Y820183D01*
X1034710Y823557D01*
Y825806D01*
X1033586Y829180D01*
X1031336Y831429D01*
X1029087Y832554D01*
X1025713D01*
X1043257Y840426D02*
Y821308D01*
X1044382Y817934D01*
X1046631Y816809D01*
X1048880D01*
X1039884Y832554D02*
X1047756D01*
X1057877D02*
X1055628Y831429D01*
X1053379Y829180D01*
X1052254Y825806D01*
Y823557D01*
X1053379Y820183D01*
X1055628Y817934D01*
X1057877Y816809D01*
X1061251D01*
X1063500Y817934D01*
X1065750Y820183D01*
X1066874Y823557D01*
Y825806D01*
X1065750Y829180D01*
X1063500Y831429D01*
X1061251Y832554D01*
X1057877D01*
X1075421Y840426D02*
Y821308D01*
X1076546Y817934D01*
X1078795Y816809D01*
X1081044D01*
X1072048Y832554D02*
X1079920D01*
X1085543D02*
X1092291Y816809D01*
X1099038Y832554D02*
X1092291Y816809D01*
X1090042Y812311D01*
X1087792Y810062D01*
X1085543Y808937D01*
X1084418D01*
X1102975Y832554D02*
Y808937D01*
Y829180D02*
X1105224Y831429D01*
X1107473Y832554D01*
X1110847D01*
X1113096Y831429D01*
X1115345Y829180D01*
X1116470Y825806D01*
Y823557D01*
X1115345Y820183D01*
X1113096Y817934D01*
X1110847Y816809D01*
X1107473D01*
X1105224Y817934D01*
X1102975Y820183D01*
X1121531Y825806D02*
X1135026D01*
Y828055D01*
X1133902Y830305D01*
X1132777Y831429D01*
X1130528Y832554D01*
X1127154D01*
X1124905Y831429D01*
X1122655Y829180D01*
X1121531Y825806D01*
Y823557D01*
X1122655Y820183D01*
X1124905Y817934D01*
X1127154Y816809D01*
X1130528D01*
X1132777Y817934D01*
X1135026Y820183D01*
X1141212Y832554D02*
X1140087Y831429D01*
X1141212Y830305D01*
X1142336Y831429D01*
X1141212Y832554D01*
Y819059D02*
X1140087Y817934D01*
X1141212Y816809D01*
X1142336Y817934D01*
X1141212Y819059D01*
D180*
X965841Y438543D02*
Y436293D01*
X964904Y437980D02*
X966778Y436856D01*
Y437980D02*
X964904Y436856D01*
X976393Y437980D02*
X976019Y438355D01*
X975456Y438543D01*
X974706D01*
X974144Y438355D01*
X973769Y437980D01*
Y437605D01*
X973957Y437230D01*
X974144Y437043D01*
X974519Y436856D01*
X975644Y436481D01*
X976019Y436293D01*
X976206Y436106D01*
X976393Y435731D01*
Y435169D01*
X976019Y434794D01*
X975456Y434606D01*
X974706D01*
X974144Y434794D01*
X973769Y435169D01*
X977274Y438543D02*
Y435731D01*
X977462Y435169D01*
X977837Y434794D01*
X978399Y434606D01*
X978774D01*
X979336Y434794D01*
X979711Y435169D01*
X979898Y435731D01*
Y438543D01*
X980986D02*
Y434606D01*
Y438543D02*
X982673D01*
X983235Y438355D01*
X983422Y438168D01*
X983610Y437793D01*
Y437418D01*
X983422Y437043D01*
X983235Y436856D01*
X982673Y436668D01*
X980986D01*
X982298D02*
X983610Y434606D01*
X984491Y438543D02*
Y434606D01*
Y438543D02*
X986927D01*
X984491Y436668D02*
X985990D01*
X990376Y434606D02*
X988877Y438543D01*
X987377Y434606D01*
X987939Y435918D02*
X989814D01*
X994106Y437605D02*
X993919Y437980D01*
X993544Y438355D01*
X993169Y438543D01*
X992419D01*
X992044Y438355D01*
X991669Y437980D01*
X991482Y437605D01*
X991295Y437043D01*
Y436106D01*
X991482Y435543D01*
X991669Y435169D01*
X992044Y434794D01*
X992419Y434606D01*
X993169D01*
X993544Y434794D01*
X993919Y435169D01*
X994106Y435543D01*
X997649Y438543D02*
X995212D01*
Y434606D01*
X997649D01*
X995212Y436668D02*
X996712D01*
X1001397Y436293D02*
X1004771D01*
X1012025Y434606D02*
X1010526Y438543D01*
X1009026Y434606D01*
X1009588Y435918D02*
X1011463D01*
X1012943Y438543D02*
Y434606D01*
X1013768Y438543D02*
Y434606D01*
Y438543D02*
X1015455D01*
X1016017Y438355D01*
X1016205Y438168D01*
X1016392Y437793D01*
Y437418D01*
X1016205Y437043D01*
X1016017Y436856D01*
X1015455Y436668D01*
X1013768D01*
X1015080D02*
X1016392Y434606D01*
X1021491Y438543D02*
X1020928Y438355D01*
X1020553Y437793D01*
X1020366Y436856D01*
Y436293D01*
X1020553Y435356D01*
X1020928Y434794D01*
X1021491Y434606D01*
X1021865D01*
X1022428Y434794D01*
X1022803Y435356D01*
X1022990Y436293D01*
Y436856D01*
X1022803Y437793D01*
X1022428Y438355D01*
X1021865Y438543D01*
X1021491D01*
X1026964D02*
Y434606D01*
Y438543D02*
X1028463Y434606D01*
X1029963Y438543D02*
X1028463Y434606D01*
X1029963Y438543D02*
Y434606D01*
X1031087Y438543D02*
Y434606D01*
Y438543D02*
X1032587Y434606D01*
X1034086Y438543D02*
X1032587Y434606D01*
X1034086Y438543D02*
Y434606D01*
X929217Y434711D02*
X929030Y435086D01*
X928467Y435649D01*
X932403D01*
X930717Y437598D02*
Y440972D01*
X928467Y444008D02*
X931091Y442134D01*
Y444945D01*
X928467Y444008D02*
X932403D01*
X965841Y257703D02*
Y255454D01*
X964904Y257141D02*
X966778Y256016D01*
Y257141D02*
X964904Y256016D01*
X973769Y257703D02*
Y253767D01*
Y257703D02*
X975081D01*
X975644Y257516D01*
X976019Y257141D01*
X976206Y256766D01*
X976393Y256204D01*
Y255266D01*
X976206Y254704D01*
X976019Y254329D01*
X975644Y253954D01*
X975081Y253767D01*
X973769D01*
X977274Y257703D02*
Y253767D01*
X980536Y257703D02*
X978099D01*
Y253767D01*
X980536D01*
X978099Y255829D02*
X979599D01*
X981192Y257703D02*
Y253767D01*
X983441D01*
X986309Y257703D02*
X983872D01*
Y253767D01*
X986309D01*
X983872Y255829D02*
X985372D01*
X989776Y256766D02*
X989589Y257141D01*
X989214Y257516D01*
X988839Y257703D01*
X988089D01*
X987715Y257516D01*
X987340Y257141D01*
X987152Y256766D01*
X986965Y256204D01*
Y255266D01*
X987152Y254704D01*
X987340Y254329D01*
X987715Y253954D01*
X988089Y253767D01*
X988839D01*
X989214Y253954D01*
X989589Y254329D01*
X989776Y254704D01*
X992194Y257703D02*
Y253767D01*
X990882Y257703D02*
X993506D01*
X993975D02*
Y253767D01*
Y257703D02*
X995662D01*
X996224Y257516D01*
X996412Y257328D01*
X996599Y256953D01*
Y256578D01*
X996412Y256204D01*
X996224Y256016D01*
X995662Y255829D01*
X993975D01*
X995287D02*
X996599Y253767D01*
X997480Y257703D02*
Y253767D01*
X1001116Y256766D02*
X1000929Y257141D01*
X1000554Y257516D01*
X1000179Y257703D01*
X999429D01*
X999054Y257516D01*
X998680Y257141D01*
X998492Y256766D01*
X998305Y256204D01*
Y255266D01*
X998492Y254704D01*
X998680Y254329D01*
X999054Y253954D01*
X999429Y253767D01*
X1000179D01*
X1000554Y253954D01*
X1000929Y254329D01*
X1001116Y254704D01*
X1005315Y255454D02*
X1008689D01*
X1012943Y257703D02*
Y253767D01*
Y257703D02*
X1015380D01*
X1012943Y255829D02*
X1014443D01*
X1015830Y257703D02*
Y253767D01*
Y257703D02*
X1017517D01*
X1018079Y257516D01*
X1018267Y257328D01*
X1018454Y256953D01*
Y256578D01*
X1018267Y256204D01*
X1018079Y256016D01*
X1017517Y255829D01*
X1015830D01*
X1017142D02*
X1018454Y253767D01*
X1019335Y255454D02*
X1022709D01*
X1025745Y257703D02*
X1023871Y255079D01*
X1026683D01*
X1025745Y257703D02*
Y253767D01*
X1031593Y257703D02*
X1031031Y257516D01*
X1030656Y256953D01*
X1030469Y256016D01*
Y255454D01*
X1030656Y254517D01*
X1031031Y253954D01*
X1031593Y253767D01*
X1031968D01*
X1032531Y253954D01*
X1032905Y254517D01*
X1033093Y255454D01*
Y256016D01*
X1032905Y256953D01*
X1032531Y257516D01*
X1031968Y257703D01*
X1031593D01*
X1034161Y254142D02*
X1033974Y253954D01*
X1034161Y253767D01*
X1034349Y253954D01*
X1034161Y254142D01*
X1035398Y256766D02*
Y256953D01*
X1035586Y257328D01*
X1035773Y257516D01*
X1036148Y257703D01*
X1036898D01*
X1037273Y257516D01*
X1037460Y257328D01*
X1037648Y256953D01*
Y256578D01*
X1037460Y256204D01*
X1037085Y255641D01*
X1035211Y253767D01*
X1037835D01*
X1041809Y257703D02*
Y253767D01*
Y257703D02*
X1043308Y253767D01*
X1044808Y257703D02*
X1043308Y253767D01*
X1044808Y257703D02*
Y253767D01*
X1045932Y257703D02*
Y253767D01*
Y257703D02*
X1047432Y253767D01*
X1048931Y257703D02*
X1047432Y253767D01*
X1048931Y257703D02*
Y253767D01*
X965841Y337703D02*
Y335454D01*
X964904Y337141D02*
X966778Y336016D01*
Y337141D02*
X964904Y336016D01*
X973769Y337703D02*
Y333767D01*
Y337703D02*
X975081D01*
X975644Y337516D01*
X976019Y337141D01*
X976206Y336766D01*
X976393Y336204D01*
Y335266D01*
X976206Y334704D01*
X976019Y334329D01*
X975644Y333954D01*
X975081Y333767D01*
X973769D01*
X977274Y337703D02*
Y333767D01*
X980536Y337703D02*
X978099D01*
Y333767D01*
X980536D01*
X978099Y335829D02*
X979599D01*
X981192Y337703D02*
Y333767D01*
X983441D01*
X986309Y337703D02*
X983872D01*
Y333767D01*
X986309D01*
X983872Y335829D02*
X985372D01*
X989776Y336766D02*
X989589Y337141D01*
X989214Y337516D01*
X988839Y337703D01*
X988089D01*
X987715Y337516D01*
X987340Y337141D01*
X987152Y336766D01*
X986965Y336204D01*
Y335266D01*
X987152Y334704D01*
X987340Y334329D01*
X987715Y333954D01*
X988089Y333767D01*
X988839D01*
X989214Y333954D01*
X989589Y334329D01*
X989776Y334704D01*
X992194Y337703D02*
Y333767D01*
X990882Y337703D02*
X993506D01*
X993975D02*
Y333767D01*
Y337703D02*
X995662D01*
X996224Y337516D01*
X996412Y337328D01*
X996599Y336953D01*
Y336578D01*
X996412Y336204D01*
X996224Y336016D01*
X995662Y335829D01*
X993975D01*
X995287D02*
X996599Y333767D01*
X997480Y337703D02*
Y333767D01*
X1001116Y336766D02*
X1000929Y337141D01*
X1000554Y337516D01*
X1000179Y337703D01*
X999429D01*
X999054Y337516D01*
X998680Y337141D01*
X998492Y336766D01*
X998305Y336204D01*
Y335266D01*
X998492Y334704D01*
X998680Y334329D01*
X999054Y333954D01*
X999429Y333767D01*
X1000179D01*
X1000554Y333954D01*
X1000929Y334329D01*
X1001116Y334704D01*
X1005315Y335454D02*
X1008689D01*
X1012943Y337703D02*
Y333767D01*
Y337703D02*
X1015380D01*
X1012943Y335829D02*
X1014443D01*
X1015830Y337703D02*
Y333767D01*
Y337703D02*
X1017517D01*
X1018079Y337516D01*
X1018267Y337328D01*
X1018454Y336953D01*
Y336578D01*
X1018267Y336204D01*
X1018079Y336016D01*
X1017517Y335829D01*
X1015830D01*
X1017142D02*
X1018454Y333767D01*
X1019335Y335454D02*
X1022709D01*
X1025745Y337703D02*
X1023871Y335079D01*
X1026683D01*
X1025745Y337703D02*
Y333767D01*
X1030469Y336953D02*
X1030844Y337141D01*
X1031406Y337703D01*
Y333767D01*
X1036448Y337703D02*
Y333767D01*
Y337703D02*
X1037947Y333767D01*
X1039447Y337703D02*
X1037947Y333767D01*
X1039447Y337703D02*
Y333767D01*
X1040572Y337703D02*
Y333767D01*
Y337703D02*
X1042071Y333767D01*
X1043571Y337703D02*
X1042071Y333767D01*
X1043571Y337703D02*
Y333767D01*
X965841Y417703D02*
Y415453D01*
X964904Y417140D02*
X966778Y416016D01*
Y417140D02*
X964904Y416016D01*
X973769Y417703D02*
Y413766D01*
Y417703D02*
X975081D01*
X975644Y417515D01*
X976019Y417140D01*
X976206Y416765D01*
X976393Y416203D01*
Y415266D01*
X976206Y414704D01*
X976019Y414329D01*
X975644Y413954D01*
X975081Y413766D01*
X973769D01*
X977274Y417703D02*
Y413766D01*
X980536Y417703D02*
X978099D01*
Y413766D01*
X980536D01*
X978099Y415828D02*
X979599D01*
X981192Y417703D02*
Y413766D01*
X983441D01*
X986309Y417703D02*
X983872D01*
Y413766D01*
X986309D01*
X983872Y415828D02*
X985372D01*
X989776Y416765D02*
X989589Y417140D01*
X989214Y417515D01*
X988839Y417703D01*
X988089D01*
X987715Y417515D01*
X987340Y417140D01*
X987152Y416765D01*
X986965Y416203D01*
Y415266D01*
X987152Y414704D01*
X987340Y414329D01*
X987715Y413954D01*
X988089Y413766D01*
X988839D01*
X989214Y413954D01*
X989589Y414329D01*
X989776Y414704D01*
X992194Y417703D02*
Y413766D01*
X990882Y417703D02*
X993506D01*
X993975D02*
Y413766D01*
Y417703D02*
X995662D01*
X996224Y417515D01*
X996412Y417328D01*
X996599Y416953D01*
Y416578D01*
X996412Y416203D01*
X996224Y416016D01*
X995662Y415828D01*
X993975D01*
X995287D02*
X996599Y413766D01*
X997480Y417703D02*
Y413766D01*
X1001116Y416765D02*
X1000929Y417140D01*
X1000554Y417515D01*
X1000179Y417703D01*
X999429D01*
X999054Y417515D01*
X998680Y417140D01*
X998492Y416765D01*
X998305Y416203D01*
Y415266D01*
X998492Y414704D01*
X998680Y414329D01*
X999054Y413954D01*
X999429Y413766D01*
X1000179D01*
X1000554Y413954D01*
X1000929Y414329D01*
X1001116Y414704D01*
X1005315Y415453D02*
X1008689D01*
X1012943Y417703D02*
Y413766D01*
Y417703D02*
X1015380D01*
X1012943Y415828D02*
X1014443D01*
X1015830Y417703D02*
Y413766D01*
Y417703D02*
X1017517D01*
X1018079Y417515D01*
X1018267Y417328D01*
X1018454Y416953D01*
Y416578D01*
X1018267Y416203D01*
X1018079Y416016D01*
X1017517Y415828D01*
X1015830D01*
X1017142D02*
X1018454Y413766D01*
X1019335Y415453D02*
X1022709D01*
X1025745Y417703D02*
X1023871Y415079D01*
X1026683D01*
X1025745Y417703D02*
Y413766D01*
X1031593Y417703D02*
X1031031Y417515D01*
X1030656Y416953D01*
X1030469Y416016D01*
Y415453D01*
X1030656Y414516D01*
X1031031Y413954D01*
X1031593Y413766D01*
X1031968D01*
X1032531Y413954D01*
X1032905Y414516D01*
X1033093Y415453D01*
Y416016D01*
X1032905Y416953D01*
X1032531Y417515D01*
X1031968Y417703D01*
X1031593D01*
X1034161Y414141D02*
X1033974Y413954D01*
X1034161Y413766D01*
X1034349Y413954D01*
X1034161Y414141D01*
X1035398Y416765D02*
Y416953D01*
X1035586Y417328D01*
X1035773Y417515D01*
X1036148Y417703D01*
X1036898D01*
X1037273Y417515D01*
X1037460Y417328D01*
X1037648Y416953D01*
Y416578D01*
X1037460Y416203D01*
X1037085Y415641D01*
X1035211Y413766D01*
X1037835D01*
X1041809Y417703D02*
Y413766D01*
Y417703D02*
X1043308Y413766D01*
X1044808Y417703D02*
X1043308Y413766D01*
X1044808Y417703D02*
Y413766D01*
X1045932Y417703D02*
Y413766D01*
Y417703D02*
X1047432Y413766D01*
X1048931Y417703D02*
X1047432Y413766D01*
X1048931Y417703D02*
Y413766D01*
X964904Y399855D02*
Y395919D01*
X967153D01*
X967771Y398918D02*
Y399105D01*
X967959Y399480D01*
X968146Y399668D01*
X968521Y399855D01*
X969271D01*
X969646Y399668D01*
X969833Y399480D01*
X970021Y399105D01*
Y398730D01*
X969833Y398356D01*
X969458Y397793D01*
X967584Y395919D01*
X970208D01*
X976993Y398918D02*
X976806Y399293D01*
X976431Y399668D01*
X976056Y399855D01*
X975306D01*
X974931Y399668D01*
X974557Y399293D01*
X974369Y398918D01*
X974182Y398356D01*
Y397418D01*
X974369Y396856D01*
X974557Y396481D01*
X974931Y396106D01*
X975306Y395919D01*
X976056D01*
X976431Y396106D01*
X976806Y396481D01*
X976993Y396856D01*
Y397418D01*
X976056D02*
X976993D01*
X977893Y399855D02*
Y395919D01*
Y399855D02*
X980517Y395919D01*
Y399855D02*
Y395919D01*
X981604Y399855D02*
Y395919D01*
Y399855D02*
X982916D01*
X983479Y399668D01*
X983853Y399293D01*
X984041Y398918D01*
X984228Y398356D01*
Y397418D01*
X984041Y396856D01*
X983853Y396481D01*
X983479Y396106D01*
X982916Y395919D01*
X981604D01*
X988202Y397793D02*
X989889D01*
X990451Y397981D01*
X990639Y398168D01*
X990826Y398543D01*
Y399105D01*
X990639Y399480D01*
X990451Y399668D01*
X989889Y399855D01*
X988202D01*
Y395919D01*
X991707Y399855D02*
Y395919D01*
X993956D01*
X997386D02*
X995887Y399855D01*
X994387Y395919D01*
X994950Y397231D02*
X996824D01*
X998305Y399855D02*
Y395919D01*
Y399855D02*
X1000929Y395919D01*
Y399855D02*
Y395919D01*
X1004453Y399855D02*
X1002016D01*
Y395919D01*
X1004453D01*
X1002016Y397981D02*
X1003515D01*
X1008201Y397606D02*
X1011575D01*
X1018641Y398918D02*
X1018454Y399293D01*
X1018079Y399668D01*
X1017704Y399855D01*
X1016955D01*
X1016580Y399668D01*
X1016205Y399293D01*
X1016017Y398918D01*
X1015830Y398356D01*
Y397418D01*
X1016017Y396856D01*
X1016205Y396481D01*
X1016580Y396106D01*
X1016955Y395919D01*
X1017704D01*
X1018079Y396106D01*
X1018454Y396481D01*
X1018641Y396856D01*
X1020872Y399855D02*
X1020497Y399668D01*
X1020122Y399293D01*
X1019935Y398918D01*
X1019747Y398356D01*
Y397418D01*
X1019935Y396856D01*
X1020122Y396481D01*
X1020497Y396106D01*
X1020872Y395919D01*
X1021622D01*
X1021997Y396106D01*
X1022371Y396481D01*
X1022559Y396856D01*
X1022746Y397418D01*
Y398356D01*
X1022559Y398918D01*
X1022371Y399293D01*
X1021997Y399668D01*
X1021622Y399855D01*
X1020872D01*
X1023665Y397793D02*
X1025352D01*
X1025914Y397981D01*
X1026101Y398168D01*
X1026289Y398543D01*
Y399105D01*
X1026101Y399480D01*
X1025914Y399668D01*
X1025352Y399855D01*
X1023665D01*
Y395919D01*
X1027170Y397793D02*
X1028857D01*
X1029419Y397981D01*
X1029607Y398168D01*
X1029794Y398543D01*
Y399105D01*
X1029607Y399480D01*
X1029419Y399668D01*
X1028857Y399855D01*
X1027170D01*
Y395919D01*
X1033112Y399855D02*
X1030675D01*
Y395919D01*
X1033112D01*
X1030675Y397981D02*
X1032174D01*
X1033768Y399855D02*
Y395919D01*
Y399855D02*
X1035455D01*
X1036017Y399668D01*
X1036204Y399480D01*
X1036392Y399105D01*
Y398730D01*
X1036204Y398356D01*
X1036017Y398168D01*
X1035455Y397981D01*
X1033768D01*
X1035080D02*
X1036392Y395919D01*
X1041490Y399855D02*
X1040928Y399668D01*
X1040553Y399105D01*
X1040365Y398168D01*
Y397606D01*
X1040553Y396669D01*
X1040928Y396106D01*
X1041490Y395919D01*
X1041865D01*
X1042427Y396106D01*
X1042802Y396669D01*
X1042990Y397606D01*
Y398168D01*
X1042802Y399105D01*
X1042427Y399668D01*
X1041865Y399855D01*
X1041490D01*
X1044058Y396294D02*
X1043871Y396106D01*
X1044058Y395919D01*
X1044245Y396106D01*
X1044058Y396294D01*
X1046232Y399855D02*
X1045670Y399668D01*
X1045295Y399105D01*
X1045108Y398168D01*
Y397606D01*
X1045295Y396669D01*
X1045670Y396106D01*
X1046232Y395919D01*
X1046607D01*
X1047169Y396106D01*
X1047544Y396669D01*
X1047732Y397606D01*
Y398168D01*
X1047544Y399105D01*
X1047169Y399668D01*
X1046607Y399855D01*
X1046232D01*
X1048987D02*
X1051049D01*
X1049925Y398356D01*
X1050487D01*
X1050862Y398168D01*
X1051049Y397981D01*
X1051237Y397418D01*
Y397043D01*
X1051049Y396481D01*
X1050674Y396106D01*
X1050112Y395919D01*
X1049550D01*
X1048987Y396106D01*
X1048800Y396294D01*
X1048613Y396669D01*
X1054367Y399855D02*
X1052493D01*
X1052305Y398168D01*
X1052493Y398356D01*
X1053055Y398543D01*
X1053617D01*
X1054179Y398356D01*
X1054554Y397981D01*
X1054742Y397418D01*
Y397043D01*
X1054554Y396481D01*
X1054179Y396106D01*
X1053617Y395919D01*
X1053055D01*
X1052493Y396106D01*
X1052305Y396294D01*
X1052118Y396669D01*
X1058715Y399855D02*
Y395919D01*
Y399855D02*
X1060215Y395919D01*
X1061714Y399855D02*
X1060215Y395919D01*
X1061714Y399855D02*
Y395919D01*
X1062839Y399855D02*
Y395919D01*
Y399855D02*
X1064338Y395919D01*
X1065838Y399855D02*
X1064338Y395919D01*
X1065838Y399855D02*
Y395919D01*
X892384Y214673D02*
X895383D01*
X895889D02*
X898888D01*
X899394D02*
X902393D01*
X902899D02*
X905898D01*
X906404D02*
X909403D01*
X909909D02*
X912908D01*
X913414D02*
X916413D01*
X916919D02*
X919918D01*
X920424D02*
X923423D01*
X923929D02*
X926928D01*
X927434D02*
X930433D01*
X930939D02*
X933939D01*
X934445D02*
X937444D01*
X937950D02*
X940949D01*
X941455D02*
X944454D01*
X944960D02*
X947959D01*
X948465D02*
X951464D01*
X951970D02*
X954969D01*
X955475D02*
X958474D01*
X958980D02*
X961979D01*
X962485D02*
X965484D01*
X965990D02*
X968989D01*
X969495D02*
X972494D01*
X973000D02*
X975999D01*
X976505D02*
X979504D01*
X980010D02*
X983009D01*
X983515D02*
X986514D01*
X899995Y212834D02*
Y208898D01*
X898683Y212834D02*
X901307D01*
X902900D02*
X902526Y212647D01*
X902151Y212272D01*
X901963Y211897D01*
X901776Y211335D01*
Y210398D01*
X901963Y209835D01*
X902151Y209460D01*
X902526Y209085D01*
X902900Y208898D01*
X903650D01*
X904025Y209085D01*
X904400Y209460D01*
X904587Y209835D01*
X904775Y210398D01*
Y211335D01*
X904587Y211897D01*
X904400Y212272D01*
X904025Y212647D01*
X903650Y212834D01*
X902900D01*
X907005D02*
Y208898D01*
X905693Y212834D02*
X908317D01*
X911785Y208898D02*
X910285Y212834D01*
X908786Y208898D01*
X909348Y210210D02*
X911222D01*
X912703Y212834D02*
Y208898D01*
X914952D01*
X919788Y212834D02*
Y208898D01*
X918476Y212834D02*
X921100D01*
X921569D02*
Y208898D01*
X924193Y212834D02*
Y208898D01*
X921569Y210960D02*
X924193D01*
X925280Y212834D02*
Y208898D01*
X928916Y211897D02*
X928729Y212272D01*
X928354Y212647D01*
X927979Y212834D01*
X927230D01*
X926855Y212647D01*
X926480Y212272D01*
X926292Y211897D01*
X926105Y211335D01*
Y210398D01*
X926292Y209835D01*
X926480Y209460D01*
X926855Y209085D01*
X927230Y208898D01*
X927979D01*
X928354Y209085D01*
X928729Y209460D01*
X928916Y209835D01*
X930022Y212834D02*
Y208898D01*
X932646Y212834D02*
X930022Y210210D01*
X930960Y211147D02*
X932646Y208898D01*
X933527Y212834D02*
Y208898D01*
Y212834D02*
X936152Y208898D01*
Y212834D02*
Y208898D01*
X939675Y212834D02*
X937239D01*
Y208898D01*
X939675D01*
X937239Y210960D02*
X938738D01*
X942955Y212272D02*
X942581Y212647D01*
X942018Y212834D01*
X941269D01*
X940706Y212647D01*
X940331Y212272D01*
Y211897D01*
X940519Y211522D01*
X940706Y211335D01*
X941081Y211147D01*
X942206Y210772D01*
X942581Y210585D01*
X942768Y210398D01*
X942955Y210023D01*
Y209460D01*
X942581Y209085D01*
X942018Y208898D01*
X941269D01*
X940706Y209085D01*
X940331Y209460D01*
X946461Y212272D02*
X946086Y212647D01*
X945523Y212834D01*
X944774D01*
X944211Y212647D01*
X943836Y212272D01*
Y211897D01*
X944024Y211522D01*
X944211Y211335D01*
X944586Y211147D01*
X945711Y210772D01*
X946086Y210585D01*
X946273Y210398D01*
X946461Y210023D01*
Y209460D01*
X946086Y209085D01*
X945523Y208898D01*
X944774D01*
X944211Y209085D01*
X943836Y209460D01*
X950434Y212085D02*
X950809Y212272D01*
X951371Y212834D01*
Y208898D01*
X953508Y209273D02*
X953321Y209085D01*
X953508Y208898D01*
X953696Y209085D01*
X953508Y209273D01*
X956807Y212834D02*
X954933D01*
X954745Y211147D01*
X954933Y211335D01*
X955495Y211522D01*
X956057D01*
X956620Y211335D01*
X956995Y210960D01*
X957182Y210398D01*
Y210023D01*
X956995Y209460D01*
X956620Y209085D01*
X956057Y208898D01*
X955495D01*
X954933Y209085D01*
X954745Y209273D01*
X954558Y209648D01*
X959000Y212834D02*
X958438Y212647D01*
X958250Y212272D01*
Y211897D01*
X958438Y211522D01*
X958813Y211335D01*
X959562Y211147D01*
X960125Y210960D01*
X960500Y210585D01*
X960687Y210210D01*
Y209648D01*
X960500Y209273D01*
X960312Y209085D01*
X959750Y208898D01*
X959000D01*
X958438Y209085D01*
X958250Y209273D01*
X958063Y209648D01*
Y210210D01*
X958250Y210585D01*
X958625Y210960D01*
X959188Y211147D01*
X959937Y211335D01*
X960312Y211522D01*
X960500Y211897D01*
Y212272D01*
X960312Y212647D01*
X959750Y212834D01*
X959000D01*
X964661D02*
Y208898D01*
Y212834D02*
X966160Y208898D01*
X967660Y212834D02*
X966160Y208898D01*
X967660Y212834D02*
Y208898D01*
X968784Y212834D02*
Y208898D01*
Y212834D02*
X970284Y208898D01*
X971783Y212834D02*
X970284Y208898D01*
X971783Y212834D02*
Y208898D01*
X893959Y219921D02*
Y215985D01*
Y219921D02*
X895271D01*
X895833Y219733D01*
X896208Y219358D01*
X896395Y218984D01*
X896583Y218421D01*
Y217484D01*
X896395Y216922D01*
X896208Y216547D01*
X895833Y216172D01*
X895271Y215985D01*
X893959D01*
X899900Y219921D02*
X897464D01*
Y215985D01*
X899900D01*
X897464Y218046D02*
X898963D01*
X903181Y219358D02*
X902806Y219733D01*
X902243Y219921D01*
X901494D01*
X900931Y219733D01*
X900556Y219358D01*
Y218984D01*
X900744Y218609D01*
X900931Y218421D01*
X901306Y218234D01*
X902431Y217859D01*
X902806Y217672D01*
X902993Y217484D01*
X903181Y217109D01*
Y216547D01*
X902806Y216172D01*
X902243Y215985D01*
X901494D01*
X900931Y216172D01*
X900556Y216547D01*
X904062Y219921D02*
Y215985D01*
X907698Y218984D02*
X907510Y219358D01*
X907135Y219733D01*
X906761Y219921D01*
X906011D01*
X905636Y219733D01*
X905261Y219358D01*
X905074Y218984D01*
X904886Y218421D01*
Y217484D01*
X905074Y216922D01*
X905261Y216547D01*
X905636Y216172D01*
X906011Y215985D01*
X906761D01*
X907135Y216172D01*
X907510Y216547D01*
X907698Y216922D01*
Y217484D01*
X906761D02*
X907698D01*
X908597Y219921D02*
Y215985D01*
Y219921D02*
X911222Y215985D01*
Y219921D02*
Y215985D01*
X918213Y218984D02*
X918025Y219358D01*
X917651Y219733D01*
X917276Y219921D01*
X916526D01*
X916151Y219733D01*
X915776Y219358D01*
X915589Y218984D01*
X915401Y218421D01*
Y217484D01*
X915589Y216922D01*
X915776Y216547D01*
X916151Y216172D01*
X916526Y215985D01*
X917276D01*
X917651Y216172D01*
X918025Y216547D01*
X918213Y216922D01*
X919319Y219921D02*
Y215985D01*
Y219921D02*
X921006D01*
X921568Y219733D01*
X921756Y219546D01*
X921943Y219171D01*
Y218796D01*
X921756Y218421D01*
X921568Y218234D01*
X921006Y218046D01*
X919319D01*
X920631D02*
X921943Y215985D01*
X923948Y219921D02*
X923574Y219733D01*
X923199Y219358D01*
X923011Y218984D01*
X922824Y218421D01*
Y217484D01*
X923011Y216922D01*
X923199Y216547D01*
X923574Y216172D01*
X923948Y215985D01*
X924698D01*
X925073Y216172D01*
X925448Y216547D01*
X925635Y216922D01*
X925823Y217484D01*
Y218421D01*
X925635Y218984D01*
X925448Y219358D01*
X925073Y219733D01*
X924698Y219921D01*
X923948D01*
X929365Y219358D02*
X928990Y219733D01*
X928428Y219921D01*
X927678D01*
X927116Y219733D01*
X926741Y219358D01*
Y218984D01*
X926929Y218609D01*
X927116Y218421D01*
X927491Y218234D01*
X928616Y217859D01*
X928990Y217672D01*
X929178Y217484D01*
X929365Y217109D01*
Y216547D01*
X928990Y216172D01*
X928428Y215985D01*
X927678D01*
X927116Y216172D01*
X926741Y216547D01*
X932870Y219358D02*
X932496Y219733D01*
X931933Y219921D01*
X931184D01*
X930621Y219733D01*
X930246Y219358D01*
Y218984D01*
X930434Y218609D01*
X930621Y218421D01*
X930996Y218234D01*
X932121Y217859D01*
X932496Y217672D01*
X932683Y217484D01*
X932870Y217109D01*
Y216547D01*
X932496Y216172D01*
X931933Y215985D01*
X931184D01*
X930621Y216172D01*
X930246Y216547D01*
X939468Y219358D02*
X939093Y219733D01*
X938531Y219921D01*
X937781D01*
X937219Y219733D01*
X936844Y219358D01*
Y218984D01*
X937031Y218609D01*
X937219Y218421D01*
X937594Y218234D01*
X938718Y217859D01*
X939093Y217672D01*
X939281Y217484D01*
X939468Y217109D01*
Y216547D01*
X939093Y216172D01*
X938531Y215985D01*
X937781D01*
X937219Y216172D01*
X936844Y216547D01*
X942786Y219921D02*
X940349D01*
Y215985D01*
X942786D01*
X940349Y218046D02*
X941849D01*
X946253Y218984D02*
X946066Y219358D01*
X945691Y219733D01*
X945316Y219921D01*
X944567D01*
X944192Y219733D01*
X943817Y219358D01*
X943629Y218984D01*
X943442Y218421D01*
Y217484D01*
X943629Y216922D01*
X943817Y216547D01*
X944192Y216172D01*
X944567Y215985D01*
X945316D01*
X945691Y216172D01*
X946066Y216547D01*
X946253Y216922D01*
X948671Y219921D02*
Y215985D01*
X947359Y219921D02*
X949983D01*
X950452D02*
Y215985D01*
X952401Y219921D02*
X952026Y219733D01*
X951651Y219358D01*
X951464Y218984D01*
X951277Y218421D01*
Y217484D01*
X951464Y216922D01*
X951651Y216547D01*
X952026Y216172D01*
X952401Y215985D01*
X953151D01*
X953526Y216172D01*
X953901Y216547D01*
X954088Y216922D01*
X954276Y217484D01*
Y218421D01*
X954088Y218984D01*
X953901Y219358D01*
X953526Y219733D01*
X953151Y219921D01*
X952401D01*
X955194D02*
Y215985D01*
Y219921D02*
X957818Y215985D01*
Y219921D02*
Y215985D01*
X964810Y218984D02*
X964622Y219358D01*
X964247Y219733D01*
X963872Y219921D01*
X963123D01*
X962748Y219733D01*
X962373Y219358D01*
X962185Y218984D01*
X961998Y218421D01*
Y217484D01*
X962185Y216922D01*
X962373Y216547D01*
X962748Y216172D01*
X963123Y215985D01*
X963872D01*
X964247Y216172D01*
X964622Y216547D01*
X964810Y216922D01*
X965915Y219921D02*
Y215985D01*
X968540Y219921D02*
Y215985D01*
X965915Y218046D02*
X968540D01*
X972626Y215985D02*
X971126Y219921D01*
X969627Y215985D01*
X970189Y217297D02*
X972063D01*
X973544Y219921D02*
Y215985D01*
Y219921D02*
X975231D01*
X975793Y219733D01*
X975981Y219546D01*
X976168Y219171D01*
Y218796D01*
X975981Y218421D01*
X975793Y218234D01*
X975231Y218046D01*
X973544D01*
X974856D02*
X976168Y215985D01*
X978361Y219921D02*
Y215985D01*
X977049Y219921D02*
X979673D01*
X964904Y269462D02*
Y265526D01*
X967153D01*
X967959Y269462D02*
X970021D01*
X968896Y267962D01*
X969458D01*
X969833Y267775D01*
X970021Y267587D01*
X970208Y267025D01*
Y266650D01*
X970021Y266088D01*
X969646Y265713D01*
X969083Y265526D01*
X968521D01*
X967959Y265713D01*
X967771Y265900D01*
X967584Y266275D01*
X974182Y267400D02*
X975869D01*
X976431Y267587D01*
X976618Y267775D01*
X976806Y268150D01*
Y268712D01*
X976618Y269087D01*
X976431Y269274D01*
X975869Y269462D01*
X974182D01*
Y265526D01*
X978811Y269462D02*
X978436Y269274D01*
X978062Y268899D01*
X977874Y268525D01*
X977687Y267962D01*
Y267025D01*
X977874Y266463D01*
X978062Y266088D01*
X978436Y265713D01*
X978811Y265526D01*
X979561D01*
X979936Y265713D01*
X980311Y266088D01*
X980498Y266463D01*
X980686Y267025D01*
Y267962D01*
X980498Y268525D01*
X980311Y268899D01*
X979936Y269274D01*
X979561Y269462D01*
X978811D01*
X981604D02*
X982541Y265526D01*
X983479Y269462D02*
X982541Y265526D01*
X983479Y269462D02*
X984416Y265526D01*
X985353Y269462D02*
X984416Y265526D01*
X988577Y269462D02*
X986140D01*
Y265526D01*
X988577D01*
X986140Y267587D02*
X987640D01*
X989233Y269462D02*
Y265526D01*
Y269462D02*
X990920D01*
X991482Y269274D01*
X991669Y269087D01*
X991857Y268712D01*
Y268337D01*
X991669Y267962D01*
X991482Y267775D01*
X990920Y267587D01*
X989233D01*
X990545D02*
X991857Y265526D01*
X995831Y267400D02*
X997517D01*
X998080Y267587D01*
X998267Y267775D01*
X998455Y268150D01*
Y268712D01*
X998267Y269087D01*
X998080Y269274D01*
X997517Y269462D01*
X995831D01*
Y265526D01*
X999336Y269462D02*
Y265526D01*
X1001585D01*
X1005015D02*
X1003515Y269462D01*
X1002016Y265526D01*
X1002578Y266838D02*
X1004453D01*
X1005933Y269462D02*
Y265526D01*
Y269462D02*
X1008558Y265526D01*
Y269462D02*
Y265526D01*
X1012081Y269462D02*
X1009645D01*
Y265526D01*
X1012081D01*
X1009645Y267587D02*
X1011144D01*
X1015830Y267213D02*
X1019204D01*
X1026270Y268525D02*
X1026083Y268899D01*
X1025708Y269274D01*
X1025333Y269462D01*
X1024583D01*
X1024208Y269274D01*
X1023833Y268899D01*
X1023646Y268525D01*
X1023459Y267962D01*
Y267025D01*
X1023646Y266463D01*
X1023833Y266088D01*
X1024208Y265713D01*
X1024583Y265526D01*
X1025333D01*
X1025708Y265713D01*
X1026083Y266088D01*
X1026270Y266463D01*
X1028501Y269462D02*
X1028126Y269274D01*
X1027751Y268899D01*
X1027563Y268525D01*
X1027376Y267962D01*
Y267025D01*
X1027563Y266463D01*
X1027751Y266088D01*
X1028126Y265713D01*
X1028501Y265526D01*
X1029250D01*
X1029625Y265713D01*
X1030000Y266088D01*
X1030188Y266463D01*
X1030375Y267025D01*
Y267962D01*
X1030188Y268525D01*
X1030000Y268899D01*
X1029625Y269274D01*
X1029250Y269462D01*
X1028501D01*
X1031293Y267400D02*
X1032980D01*
X1033543Y267587D01*
X1033730Y267775D01*
X1033918Y268150D01*
Y268712D01*
X1033730Y269087D01*
X1033543Y269274D01*
X1032980Y269462D01*
X1031293D01*
Y265526D01*
X1034799Y267400D02*
X1036485D01*
X1037048Y267587D01*
X1037235Y267775D01*
X1037423Y268150D01*
Y268712D01*
X1037235Y269087D01*
X1037048Y269274D01*
X1036485Y269462D01*
X1034799D01*
Y265526D01*
X1040740Y269462D02*
X1038304D01*
Y265526D01*
X1040740D01*
X1038304Y267587D02*
X1039803D01*
X1041396Y269462D02*
Y265526D01*
Y269462D02*
X1043083D01*
X1043646Y269274D01*
X1043833Y269087D01*
X1044020Y268712D01*
Y268337D01*
X1043833Y267962D01*
X1043646Y267775D01*
X1043083Y267587D01*
X1041396D01*
X1042708D02*
X1044020Y265526D01*
X1049119Y269462D02*
X1048556Y269274D01*
X1048182Y268712D01*
X1047994Y267775D01*
Y267213D01*
X1048182Y266275D01*
X1048556Y265713D01*
X1049119Y265526D01*
X1049494D01*
X1050056Y265713D01*
X1050431Y266275D01*
X1050618Y267213D01*
Y267775D01*
X1050431Y268712D01*
X1050056Y269274D01*
X1049494Y269462D01*
X1049119D01*
X1051687Y265900D02*
X1051499Y265713D01*
X1051687Y265526D01*
X1051874Y265713D01*
X1051687Y265900D01*
X1053861Y269462D02*
X1053298Y269274D01*
X1052924Y268712D01*
X1052736Y267775D01*
Y267213D01*
X1052924Y266275D01*
X1053298Y265713D01*
X1053861Y265526D01*
X1054236D01*
X1054798Y265713D01*
X1055173Y266275D01*
X1055360Y267213D01*
Y267775D01*
X1055173Y268712D01*
X1054798Y269274D01*
X1054236Y269462D01*
X1053861D01*
X1056616D02*
X1058678D01*
X1057553Y267962D01*
X1058116D01*
X1058490Y267775D01*
X1058678Y267587D01*
X1058865Y267025D01*
Y266650D01*
X1058678Y266088D01*
X1058303Y265713D01*
X1057741Y265526D01*
X1057178D01*
X1056616Y265713D01*
X1056429Y265900D01*
X1056241Y266275D01*
X1061996Y269462D02*
X1060121D01*
X1059934Y267775D01*
X1060121Y267962D01*
X1060684Y268150D01*
X1061246D01*
X1061808Y267962D01*
X1062183Y267587D01*
X1062370Y267025D01*
Y266650D01*
X1062183Y266088D01*
X1061808Y265713D01*
X1061246Y265526D01*
X1060684D01*
X1060121Y265713D01*
X1059934Y265900D01*
X1059746Y266275D01*
X1066344Y269462D02*
Y265526D01*
Y269462D02*
X1067844Y265526D01*
X1069343Y269462D02*
X1067844Y265526D01*
X1069343Y269462D02*
Y265526D01*
X1070468Y269462D02*
Y265526D01*
Y269462D02*
X1071967Y265526D01*
X1073467Y269462D02*
X1071967Y265526D01*
X1073467Y269462D02*
Y265526D01*
X965841Y431981D02*
Y429732D01*
X964904Y431419D02*
X966778Y430294D01*
Y431419D02*
X964904Y430294D01*
X973301Y431419D02*
X972926Y431794D01*
X972363Y431981D01*
X971614D01*
X971051Y431794D01*
X970677Y431419D01*
Y431044D01*
X970864Y430669D01*
X971051Y430481D01*
X971426Y430294D01*
X972551Y429919D01*
X972926Y429732D01*
X973113Y429544D01*
X973301Y429170D01*
Y428607D01*
X972926Y428232D01*
X972363Y428045D01*
X971614D01*
X971051Y428232D01*
X970677Y428607D01*
X975306Y431981D02*
X974931Y431794D01*
X974557Y431419D01*
X974369Y431044D01*
X974182Y430481D01*
Y429544D01*
X974369Y428982D01*
X974557Y428607D01*
X974931Y428232D01*
X975306Y428045D01*
X976056D01*
X976431Y428232D01*
X976806Y428607D01*
X976993Y428982D01*
X977181Y429544D01*
Y430481D01*
X976993Y431044D01*
X976806Y431419D01*
X976431Y431794D01*
X976056Y431981D01*
X975306D01*
X978099D02*
Y428045D01*
X980348D01*
X980779Y431981D02*
Y428045D01*
Y431981D02*
X982092D01*
X982654Y431794D01*
X983029Y431419D01*
X983216Y431044D01*
X983403Y430481D01*
Y429544D01*
X983216Y428982D01*
X983029Y428607D01*
X982654Y428232D01*
X982092Y428045D01*
X980779D01*
X986721Y431981D02*
X984284D01*
Y428045D01*
X986721D01*
X984284Y430107D02*
X985784D01*
X987377Y431981D02*
Y428045D01*
Y431981D02*
X989064D01*
X989626Y431794D01*
X989814Y431606D01*
X990001Y431231D01*
Y430856D01*
X989814Y430481D01*
X989626Y430294D01*
X989064Y430107D01*
X987377D01*
X988689D02*
X990001Y428045D01*
X990882Y431981D02*
Y428045D01*
Y431981D02*
X992382Y428045D01*
X993881Y431981D02*
X992382Y428045D01*
X993881Y431981D02*
Y428045D01*
X998005D02*
X996505Y431981D01*
X995006Y428045D01*
X995568Y429357D02*
X997443D01*
X1001547Y431419D02*
X1001173Y431794D01*
X1000610Y431981D01*
X999860D01*
X999298Y431794D01*
X998923Y431419D01*
Y431044D01*
X999111Y430669D01*
X999298Y430481D01*
X999673Y430294D01*
X1000798Y429919D01*
X1001173Y429732D01*
X1001360Y429544D01*
X1001547Y429170D01*
Y428607D01*
X1001173Y428232D01*
X1000610Y428045D01*
X999860D01*
X999298Y428232D01*
X998923Y428607D01*
X1002428Y431981D02*
Y428045D01*
X1005052Y431981D02*
X1002428Y429357D01*
X1003366Y430294D02*
X1005052Y428045D01*
X1005933Y426733D02*
X1008932D01*
X1010750Y431981D02*
Y428045D01*
X1009438Y431981D02*
X1012062D01*
X1013656D02*
X1013281Y431794D01*
X1012906Y431419D01*
X1012719Y431044D01*
X1012531Y430481D01*
Y429544D01*
X1012719Y428982D01*
X1012906Y428607D01*
X1013281Y428232D01*
X1013656Y428045D01*
X1014406D01*
X1014780Y428232D01*
X1015155Y428607D01*
X1015343Y428982D01*
X1015530Y429544D01*
Y430481D01*
X1015343Y431044D01*
X1015155Y431419D01*
X1014780Y431794D01*
X1014406Y431981D01*
X1013656D01*
X1016448Y429919D02*
X1018136D01*
X1018698Y430107D01*
X1018885Y430294D01*
X1019073Y430669D01*
Y431231D01*
X1018885Y431606D01*
X1018698Y431794D01*
X1018136Y431981D01*
X1016448D01*
Y428045D01*
X1023046Y431981D02*
Y428045D01*
Y431981D02*
X1024546Y428045D01*
X1026045Y431981D02*
X1024546Y428045D01*
X1026045Y431981D02*
Y428045D01*
X1030169D02*
X1028669Y431981D01*
X1027170Y428045D01*
X1027732Y429357D02*
X1029607D01*
X1033711Y431419D02*
X1033337Y431794D01*
X1032774Y431981D01*
X1032024D01*
X1031462Y431794D01*
X1031087Y431419D01*
Y431044D01*
X1031275Y430669D01*
X1031462Y430481D01*
X1031837Y430294D01*
X1032962Y429919D01*
X1033337Y429732D01*
X1033524Y429544D01*
X1033711Y429170D01*
Y428607D01*
X1033337Y428232D01*
X1032774Y428045D01*
X1032024D01*
X1031462Y428232D01*
X1031087Y428607D01*
X1034592Y431981D02*
Y428045D01*
X1037216Y431981D02*
X1034592Y429357D01*
X1035530Y430294D02*
X1037216Y428045D01*
X1041190Y429732D02*
X1044564D01*
X1051443Y431419D02*
X1051068Y431794D01*
X1050506Y431981D01*
X1049756D01*
X1049194Y431794D01*
X1048819Y431419D01*
Y431044D01*
X1049006Y430669D01*
X1049194Y430481D01*
X1049568Y430294D01*
X1050693Y429919D01*
X1051068Y429732D01*
X1051256Y429544D01*
X1051443Y429170D01*
Y428607D01*
X1051068Y428232D01*
X1050506Y428045D01*
X1049756D01*
X1049194Y428232D01*
X1048819Y428607D01*
X1053448Y431981D02*
X1053074Y431794D01*
X1052699Y431419D01*
X1052511Y431044D01*
X1052324Y430481D01*
Y429544D01*
X1052511Y428982D01*
X1052699Y428607D01*
X1053074Y428232D01*
X1053448Y428045D01*
X1054198D01*
X1054573Y428232D01*
X1054948Y428607D01*
X1055135Y428982D01*
X1055323Y429544D01*
Y430481D01*
X1055135Y431044D01*
X1054948Y431419D01*
X1054573Y431794D01*
X1054198Y431981D01*
X1053448D01*
X1056241D02*
Y428045D01*
X1058490D01*
X1058922Y431981D02*
Y428045D01*
Y431981D02*
X1060234D01*
X1060796Y431794D01*
X1061171Y431419D01*
X1061358Y431044D01*
X1061546Y430481D01*
Y429544D01*
X1061358Y428982D01*
X1061171Y428607D01*
X1060796Y428232D01*
X1060234Y428045D01*
X1058922D01*
X1064863Y431981D02*
X1062427D01*
Y428045D01*
X1064863D01*
X1062427Y430107D02*
X1063926D01*
X1065519Y431981D02*
Y428045D01*
Y431981D02*
X1067206D01*
X1067769Y431794D01*
X1067956Y431606D01*
X1068143Y431231D01*
Y430856D01*
X1067956Y430481D01*
X1067769Y430294D01*
X1067206Y430107D01*
X1065519D01*
X1066831D02*
X1068143Y428045D01*
X1069024Y431981D02*
Y428045D01*
Y431981D02*
X1070524Y428045D01*
X1072023Y431981D02*
X1070524Y428045D01*
X1072023Y431981D02*
Y428045D01*
X1076147D02*
X1074648Y431981D01*
X1073148Y428045D01*
X1073710Y429357D02*
X1075585D01*
X1079690Y431419D02*
X1079315Y431794D01*
X1078752Y431981D01*
X1078003D01*
X1077440Y431794D01*
X1077065Y431419D01*
Y431044D01*
X1077253Y430669D01*
X1077440Y430481D01*
X1077815Y430294D01*
X1078940Y429919D01*
X1079315Y429732D01*
X1079502Y429544D01*
X1079690Y429170D01*
Y428607D01*
X1079315Y428232D01*
X1078752Y428045D01*
X1078003D01*
X1077440Y428232D01*
X1077065Y428607D01*
X1080571Y431981D02*
Y428045D01*
X1083195Y431981D02*
X1080571Y429357D01*
X1081508Y430294D02*
X1083195Y428045D01*
X1088293Y431981D02*
X1087731Y431794D01*
X1087356Y431231D01*
X1087168Y430294D01*
Y429732D01*
X1087356Y428795D01*
X1087731Y428232D01*
X1088293Y428045D01*
X1088668D01*
X1089230Y428232D01*
X1089605Y428795D01*
X1089792Y429732D01*
Y430294D01*
X1089605Y431231D01*
X1089230Y431794D01*
X1088668Y431981D01*
X1088293D01*
X1090861Y428420D02*
X1090673Y428232D01*
X1090861Y428045D01*
X1091048Y428232D01*
X1090861Y428420D01*
X1093035Y431981D02*
X1092473Y431794D01*
X1092098Y431231D01*
X1091910Y430294D01*
Y429732D01*
X1092098Y428795D01*
X1092473Y428232D01*
X1093035Y428045D01*
X1093410D01*
X1093972Y428232D01*
X1094347Y428795D01*
X1094534Y429732D01*
Y430294D01*
X1094347Y431231D01*
X1093972Y431794D01*
X1093410Y431981D01*
X1093035D01*
X1095603Y431044D02*
Y431231D01*
X1095790Y431606D01*
X1095978Y431794D01*
X1096353Y431981D01*
X1097102D01*
X1097477Y431794D01*
X1097665Y431606D01*
X1097852Y431231D01*
Y430856D01*
X1097665Y430481D01*
X1097290Y429919D01*
X1095415Y428045D01*
X1098040D01*
X1102013Y431981D02*
Y428045D01*
Y431981D02*
X1103513Y428045D01*
X1105012Y431981D02*
X1103513Y428045D01*
X1105012Y431981D02*
Y428045D01*
X1106137Y431981D02*
Y428045D01*
Y431981D02*
X1107636Y428045D01*
X1109136Y431981D02*
X1107636Y428045D01*
X1109136Y431981D02*
Y428045D01*
X965841Y229357D02*
Y227108D01*
X964904Y228795D02*
X966778Y227670D01*
Y228795D02*
X964904Y227670D01*
X976393Y228795D02*
X976019Y229170D01*
X975456Y229357D01*
X974706D01*
X974144Y229170D01*
X973769Y228795D01*
Y228420D01*
X973957Y228045D01*
X974144Y227857D01*
X974519Y227670D01*
X975644Y227295D01*
X976019Y227108D01*
X976206Y226920D01*
X976393Y226546D01*
Y225983D01*
X976019Y225608D01*
X975456Y225421D01*
X974706D01*
X974144Y225608D01*
X973769Y225983D01*
X977274Y229357D02*
Y226546D01*
X977462Y225983D01*
X977837Y225608D01*
X978399Y225421D01*
X978774D01*
X979336Y225608D01*
X979711Y225983D01*
X979898Y226546D01*
Y229357D01*
X980986D02*
Y225421D01*
Y229357D02*
X982673D01*
X983235Y229170D01*
X983422Y228982D01*
X983610Y228607D01*
Y228232D01*
X983422Y227857D01*
X983235Y227670D01*
X982673Y227483D01*
X980986D01*
X982298D02*
X983610Y225421D01*
X984491Y229357D02*
Y225421D01*
Y229357D02*
X986927D01*
X984491Y227483D02*
X985990D01*
X990376Y225421D02*
X988877Y229357D01*
X987377Y225421D01*
X987939Y226733D02*
X989814D01*
X994106Y228420D02*
X993919Y228795D01*
X993544Y229170D01*
X993169Y229357D01*
X992419D01*
X992044Y229170D01*
X991669Y228795D01*
X991482Y228420D01*
X991295Y227857D01*
Y226920D01*
X991482Y226358D01*
X991669Y225983D01*
X992044Y225608D01*
X992419Y225421D01*
X993169D01*
X993544Y225608D01*
X993919Y225983D01*
X994106Y226358D01*
X997649Y229357D02*
X995212D01*
Y225421D01*
X997649D01*
X995212Y227483D02*
X996712D01*
X1001397Y227108D02*
X1004771D01*
X1012025Y225421D02*
X1010526Y229357D01*
X1009026Y225421D01*
X1009588Y226733D02*
X1011463D01*
X1012943Y229357D02*
Y225421D01*
X1013768Y229357D02*
Y225421D01*
Y229357D02*
X1015455D01*
X1016017Y229170D01*
X1016205Y228982D01*
X1016392Y228607D01*
Y228232D01*
X1016205Y227857D01*
X1016017Y227670D01*
X1015455Y227483D01*
X1013768D01*
X1015080D02*
X1016392Y225421D01*
X1021491Y229357D02*
X1020928Y229170D01*
X1020553Y228607D01*
X1020366Y227670D01*
Y227108D01*
X1020553Y226171D01*
X1020928Y225608D01*
X1021491Y225421D01*
X1021865D01*
X1022428Y225608D01*
X1022803Y226171D01*
X1022990Y227108D01*
Y227670D01*
X1022803Y228607D01*
X1022428Y229170D01*
X1021865Y229357D01*
X1021491D01*
X1026964D02*
Y225421D01*
Y229357D02*
X1028463Y225421D01*
X1029963Y229357D02*
X1028463Y225421D01*
X1029963Y229357D02*
Y225421D01*
X1031087Y229357D02*
Y225421D01*
Y229357D02*
X1032587Y225421D01*
X1034086Y229357D02*
X1032587Y225421D01*
X1034086Y229357D02*
Y225421D01*
X964904Y426732D02*
Y422796D01*
X967153D01*
X967584Y425982D02*
X967959Y426169D01*
X968521Y426732D01*
Y422796D01*
X974875Y426732D02*
Y422796D01*
X973563Y426732D02*
X976187D01*
X977780D02*
X977406Y426544D01*
X977031Y426169D01*
X976843Y425795D01*
X976656Y425232D01*
Y424295D01*
X976843Y423733D01*
X977031Y423358D01*
X977406Y422983D01*
X977780Y422796D01*
X978530D01*
X978905Y422983D01*
X979280Y423358D01*
X979467Y423733D01*
X979655Y424295D01*
Y425232D01*
X979467Y425795D01*
X979280Y426169D01*
X978905Y426544D01*
X978530Y426732D01*
X977780D01*
X980573Y424670D02*
X982260D01*
X982823Y424858D01*
X983010Y425045D01*
X983197Y425420D01*
Y425982D01*
X983010Y426357D01*
X982823Y426544D01*
X982260Y426732D01*
X980573D01*
Y422796D01*
X989983Y425795D02*
X989795Y426169D01*
X989420Y426544D01*
X989045Y426732D01*
X988296D01*
X987921Y426544D01*
X987546Y426169D01*
X987358Y425795D01*
X987171Y425232D01*
Y424295D01*
X987358Y423733D01*
X987546Y423358D01*
X987921Y422983D01*
X988296Y422796D01*
X989045D01*
X989420Y422983D01*
X989795Y423358D01*
X989983Y423733D01*
X992213Y426732D02*
X991838Y426544D01*
X991463Y426169D01*
X991276Y425795D01*
X991088Y425232D01*
Y424295D01*
X991276Y423733D01*
X991463Y423358D01*
X991838Y422983D01*
X992213Y422796D01*
X992963D01*
X993338Y422983D01*
X993713Y423358D01*
X993900Y423733D01*
X994087Y424295D01*
Y425232D01*
X993900Y425795D01*
X993713Y426169D01*
X993338Y426544D01*
X992963Y426732D01*
X992213D01*
X995006D02*
Y422796D01*
Y426732D02*
X997630Y422796D01*
Y426732D02*
Y422796D01*
X998717Y426732D02*
Y422796D01*
Y426732D02*
X1000029D01*
X1000591Y426544D01*
X1000966Y426169D01*
X1001154Y425795D01*
X1001341Y425232D01*
Y424295D01*
X1001154Y423733D01*
X1000966Y423358D01*
X1000591Y422983D01*
X1000029Y422796D01*
X998717D01*
X1002222Y426732D02*
Y423920D01*
X1002410Y423358D01*
X1002784Y422983D01*
X1003347Y422796D01*
X1003722D01*
X1004284Y422983D01*
X1004659Y423358D01*
X1004846Y423920D01*
Y426732D01*
X1008745Y425795D02*
X1008558Y426169D01*
X1008183Y426544D01*
X1007808Y426732D01*
X1007058D01*
X1006683Y426544D01*
X1006308Y426169D01*
X1006121Y425795D01*
X1005933Y425232D01*
Y424295D01*
X1006121Y423733D01*
X1006308Y423358D01*
X1006683Y422983D01*
X1007058Y422796D01*
X1007808D01*
X1008183Y422983D01*
X1008558Y423358D01*
X1008745Y423733D01*
X1011163Y426732D02*
Y422796D01*
X1009851Y426732D02*
X1012475D01*
X1014068D02*
X1013693Y426544D01*
X1013318Y426169D01*
X1013131Y425795D01*
X1012943Y425232D01*
Y424295D01*
X1013131Y423733D01*
X1013318Y423358D01*
X1013693Y422983D01*
X1014068Y422796D01*
X1014818D01*
X1015193Y422983D01*
X1015568Y423358D01*
X1015755Y423733D01*
X1015942Y424295D01*
Y425232D01*
X1015755Y425795D01*
X1015568Y426169D01*
X1015193Y426544D01*
X1014818Y426732D01*
X1014068D01*
X1016861D02*
Y422796D01*
Y426732D02*
X1018548D01*
X1019110Y426544D01*
X1019298Y426357D01*
X1019485Y425982D01*
Y425607D01*
X1019298Y425232D01*
X1019110Y425045D01*
X1018548Y424858D01*
X1016861D01*
X1018173D02*
X1019485Y422796D01*
X1023459Y424483D02*
X1026832D01*
X1033899Y425795D02*
X1033711Y426169D01*
X1033337Y426544D01*
X1032962Y426732D01*
X1032212D01*
X1031837Y426544D01*
X1031462Y426169D01*
X1031275Y425795D01*
X1031087Y425232D01*
Y424295D01*
X1031275Y423733D01*
X1031462Y423358D01*
X1031837Y422983D01*
X1032212Y422796D01*
X1032962D01*
X1033337Y422983D01*
X1033711Y423358D01*
X1033899Y423733D01*
X1036129Y426732D02*
X1035754Y426544D01*
X1035380Y426169D01*
X1035192Y425795D01*
X1035005Y425232D01*
Y424295D01*
X1035192Y423733D01*
X1035380Y423358D01*
X1035754Y422983D01*
X1036129Y422796D01*
X1036879D01*
X1037254Y422983D01*
X1037629Y423358D01*
X1037816Y423733D01*
X1038004Y424295D01*
Y425232D01*
X1037816Y425795D01*
X1037629Y426169D01*
X1037254Y426544D01*
X1036879Y426732D01*
X1036129D01*
X1038922Y424670D02*
X1040609D01*
X1041171Y424858D01*
X1041359Y425045D01*
X1041546Y425420D01*
Y425982D01*
X1041359Y426357D01*
X1041171Y426544D01*
X1040609Y426732D01*
X1038922D01*
Y422796D01*
X1042427Y424670D02*
X1044114D01*
X1044676Y424858D01*
X1044864Y425045D01*
X1045051Y425420D01*
Y425982D01*
X1044864Y426357D01*
X1044676Y426544D01*
X1044114Y426732D01*
X1042427D01*
Y422796D01*
X1048369Y426732D02*
X1045932D01*
Y422796D01*
X1048369D01*
X1045932Y424858D02*
X1047432D01*
X1049025Y426732D02*
Y422796D01*
Y426732D02*
X1050712D01*
X1051274Y426544D01*
X1051462Y426357D01*
X1051649Y425982D01*
Y425607D01*
X1051462Y425232D01*
X1051274Y425045D01*
X1050712Y424858D01*
X1049025D01*
X1050337D02*
X1051649Y422796D01*
X1056747Y426732D02*
X1056185Y426544D01*
X1055810Y425982D01*
X1055623Y425045D01*
Y424483D01*
X1055810Y423545D01*
X1056185Y422983D01*
X1056747Y422796D01*
X1057122D01*
X1057685Y422983D01*
X1058059Y423545D01*
X1058247Y424483D01*
Y425045D01*
X1058059Y425982D01*
X1057685Y426544D01*
X1057122Y426732D01*
X1056747D01*
X1059315Y423171D02*
X1059128Y422983D01*
X1059315Y422796D01*
X1059503Y422983D01*
X1059315Y423171D01*
X1061489Y426732D02*
X1060927Y426544D01*
X1060552Y425982D01*
X1060365Y425045D01*
Y424483D01*
X1060552Y423545D01*
X1060927Y422983D01*
X1061489Y422796D01*
X1061864D01*
X1062427Y422983D01*
X1062801Y423545D01*
X1062989Y424483D01*
Y425045D01*
X1062801Y425982D01*
X1062427Y426544D01*
X1061864Y426732D01*
X1061489D01*
X1064245D02*
X1066307D01*
X1065182Y425232D01*
X1065744D01*
X1066119Y425045D01*
X1066307Y424858D01*
X1066494Y424295D01*
Y423920D01*
X1066307Y423358D01*
X1065932Y422983D01*
X1065369Y422796D01*
X1064807D01*
X1064245Y422983D01*
X1064057Y423171D01*
X1063870Y423545D01*
X1069624Y426732D02*
X1067750D01*
X1067562Y425045D01*
X1067750Y425232D01*
X1068312Y425420D01*
X1068874D01*
X1069437Y425232D01*
X1069812Y424858D01*
X1069999Y424295D01*
Y423920D01*
X1069812Y423358D01*
X1069437Y422983D01*
X1068874Y422796D01*
X1068312D01*
X1067750Y422983D01*
X1067562Y423171D01*
X1067375Y423545D01*
X1073973Y426732D02*
Y422796D01*
Y426732D02*
X1075472Y422796D01*
X1076972Y426732D02*
X1075472Y422796D01*
X1076972Y426732D02*
Y422796D01*
X1078096Y426732D02*
Y422796D01*
Y426732D02*
X1079596Y422796D01*
X1081095Y426732D02*
X1079596Y422796D01*
X1081095Y426732D02*
Y422796D01*
X964904Y239856D02*
Y235919D01*
X967153D01*
X969458Y239856D02*
X967584Y237231D01*
X970395D01*
X969458Y239856D02*
Y235919D01*
X974182Y239856D02*
Y235919D01*
Y239856D02*
X975869D01*
X976431Y239668D01*
X976618Y239481D01*
X976806Y239106D01*
Y238731D01*
X976618Y238356D01*
X976431Y238169D01*
X975869Y237981D01*
X974182D02*
X975869D01*
X976431Y237794D01*
X976618Y237606D01*
X976806Y237231D01*
Y236669D01*
X976618Y236294D01*
X976431Y236107D01*
X975869Y235919D01*
X974182D01*
X978811Y239856D02*
X978436Y239668D01*
X978062Y239293D01*
X977874Y238918D01*
X977687Y238356D01*
Y237419D01*
X977874Y236857D01*
X978062Y236482D01*
X978436Y236107D01*
X978811Y235919D01*
X979561D01*
X979936Y236107D01*
X980311Y236482D01*
X980498Y236857D01*
X980686Y237419D01*
Y238356D01*
X980498Y238918D01*
X980311Y239293D01*
X979936Y239668D01*
X979561Y239856D01*
X978811D01*
X982916D02*
Y235919D01*
X981604Y239856D02*
X984228D01*
X986009D02*
Y235919D01*
X984697Y239856D02*
X987321D01*
X988914D02*
X988539Y239668D01*
X988164Y239293D01*
X987977Y238918D01*
X987790Y238356D01*
Y237419D01*
X987977Y236857D01*
X988164Y236482D01*
X988539Y236107D01*
X988914Y235919D01*
X989664D01*
X990039Y236107D01*
X990414Y236482D01*
X990601Y236857D01*
X990788Y237419D01*
Y238356D01*
X990601Y238918D01*
X990414Y239293D01*
X990039Y239668D01*
X989664Y239856D01*
X988914D01*
X991707D02*
Y235919D01*
Y239856D02*
X993206Y235919D01*
X994706Y239856D02*
X993206Y235919D01*
X994706Y239856D02*
Y235919D01*
X1001735Y238918D02*
X1001547Y239293D01*
X1001173Y239668D01*
X1000798Y239856D01*
X1000048D01*
X999673Y239668D01*
X999298Y239293D01*
X999111Y238918D01*
X998923Y238356D01*
Y237419D01*
X999111Y236857D01*
X999298Y236482D01*
X999673Y236107D01*
X1000048Y235919D01*
X1000798D01*
X1001173Y236107D01*
X1001547Y236482D01*
X1001735Y236857D01*
X1003965Y239856D02*
X1003590Y239668D01*
X1003216Y239293D01*
X1003028Y238918D01*
X1002841Y238356D01*
Y237419D01*
X1003028Y236857D01*
X1003216Y236482D01*
X1003590Y236107D01*
X1003965Y235919D01*
X1004715D01*
X1005090Y236107D01*
X1005465Y236482D01*
X1005652Y236857D01*
X1005840Y237419D01*
Y238356D01*
X1005652Y238918D01*
X1005465Y239293D01*
X1005090Y239668D01*
X1004715Y239856D01*
X1003965D01*
X1006758D02*
Y235919D01*
Y239856D02*
X1009382Y235919D01*
Y239856D02*
Y235919D01*
X1010469Y239856D02*
Y235919D01*
Y239856D02*
X1011781D01*
X1012344Y239668D01*
X1012719Y239293D01*
X1012906Y238918D01*
X1013093Y238356D01*
Y237419D01*
X1012906Y236857D01*
X1012719Y236482D01*
X1012344Y236107D01*
X1011781Y235919D01*
X1010469D01*
X1013974Y239856D02*
Y237044D01*
X1014162Y236482D01*
X1014537Y236107D01*
X1015099Y235919D01*
X1015474D01*
X1016036Y236107D01*
X1016411Y236482D01*
X1016599Y237044D01*
Y239856D01*
X1020497Y238918D02*
X1020310Y239293D01*
X1019935Y239668D01*
X1019560Y239856D01*
X1018810D01*
X1018435Y239668D01*
X1018060Y239293D01*
X1017873Y238918D01*
X1017686Y238356D01*
Y237419D01*
X1017873Y236857D01*
X1018060Y236482D01*
X1018435Y236107D01*
X1018810Y235919D01*
X1019560D01*
X1019935Y236107D01*
X1020310Y236482D01*
X1020497Y236857D01*
X1022915Y239856D02*
Y235919D01*
X1021603Y239856D02*
X1024227D01*
X1025820D02*
X1025445Y239668D01*
X1025071Y239293D01*
X1024883Y238918D01*
X1024696Y238356D01*
Y237419D01*
X1024883Y236857D01*
X1025071Y236482D01*
X1025445Y236107D01*
X1025820Y235919D01*
X1026570D01*
X1026945Y236107D01*
X1027320Y236482D01*
X1027507Y236857D01*
X1027695Y237419D01*
Y238356D01*
X1027507Y238918D01*
X1027320Y239293D01*
X1026945Y239668D01*
X1026570Y239856D01*
X1025820D01*
X1028613D02*
Y235919D01*
Y239856D02*
X1030300D01*
X1030862Y239668D01*
X1031050Y239481D01*
X1031237Y239106D01*
Y238731D01*
X1031050Y238356D01*
X1030862Y238169D01*
X1030300Y237981D01*
X1028613D01*
X1029925D02*
X1031237Y235919D01*
X1035211Y237606D02*
X1038585D01*
X1045651Y238918D02*
X1045464Y239293D01*
X1045089Y239668D01*
X1044714Y239856D01*
X1043964D01*
X1043589Y239668D01*
X1043215Y239293D01*
X1043027Y238918D01*
X1042840Y238356D01*
Y237419D01*
X1043027Y236857D01*
X1043215Y236482D01*
X1043589Y236107D01*
X1043964Y235919D01*
X1044714D01*
X1045089Y236107D01*
X1045464Y236482D01*
X1045651Y236857D01*
X1047882Y239856D02*
X1047507Y239668D01*
X1047132Y239293D01*
X1046944Y238918D01*
X1046757Y238356D01*
Y237419D01*
X1046944Y236857D01*
X1047132Y236482D01*
X1047507Y236107D01*
X1047882Y235919D01*
X1048631D01*
X1049006Y236107D01*
X1049381Y236482D01*
X1049568Y236857D01*
X1049756Y237419D01*
Y238356D01*
X1049568Y238918D01*
X1049381Y239293D01*
X1049006Y239668D01*
X1048631Y239856D01*
X1047882D01*
X1050674Y237794D02*
X1052361D01*
X1052924Y237981D01*
X1053111Y238169D01*
X1053298Y238543D01*
Y239106D01*
X1053111Y239481D01*
X1052924Y239668D01*
X1052361Y239856D01*
X1050674D01*
Y235919D01*
X1054179Y237794D02*
X1055866D01*
X1056429Y237981D01*
X1056616Y238169D01*
X1056804Y238543D01*
Y239106D01*
X1056616Y239481D01*
X1056429Y239668D01*
X1055866Y239856D01*
X1054179D01*
Y235919D01*
X1060121Y239856D02*
X1057685D01*
Y235919D01*
X1060121D01*
X1057685Y237981D02*
X1059184D01*
X1060777Y239856D02*
Y235919D01*
Y239856D02*
X1062464D01*
X1063027Y239668D01*
X1063214Y239481D01*
X1063401Y239106D01*
Y238731D01*
X1063214Y238356D01*
X1063027Y238169D01*
X1062464Y237981D01*
X1060777D01*
X1062089D02*
X1063401Y235919D01*
X1068500Y239856D02*
X1067937Y239668D01*
X1067562Y239106D01*
X1067375Y238169D01*
Y237606D01*
X1067562Y236669D01*
X1067937Y236107D01*
X1068500Y235919D01*
X1068874D01*
X1069437Y236107D01*
X1069812Y236669D01*
X1069999Y237606D01*
Y238169D01*
X1069812Y239106D01*
X1069437Y239668D01*
X1068874Y239856D01*
X1068500D01*
X1071068Y236294D02*
X1070880Y236107D01*
X1071068Y235919D01*
X1071255Y236107D01*
X1071068Y236294D01*
X1073242Y239856D02*
X1072679Y239668D01*
X1072305Y239106D01*
X1072117Y238169D01*
Y237606D01*
X1072305Y236669D01*
X1072679Y236107D01*
X1073242Y235919D01*
X1073617D01*
X1074179Y236107D01*
X1074554Y236669D01*
X1074741Y237606D01*
Y238169D01*
X1074554Y239106D01*
X1074179Y239668D01*
X1073617Y239856D01*
X1073242D01*
X1075997D02*
X1078059D01*
X1076934Y238356D01*
X1077497D01*
X1077871Y238169D01*
X1078059Y237981D01*
X1078246Y237419D01*
Y237044D01*
X1078059Y236482D01*
X1077684Y236107D01*
X1077122Y235919D01*
X1076559D01*
X1075997Y236107D01*
X1075810Y236294D01*
X1075622Y236669D01*
X1081376Y239856D02*
X1079502D01*
X1079315Y238169D01*
X1079502Y238356D01*
X1080064Y238543D01*
X1080627D01*
X1081189Y238356D01*
X1081564Y237981D01*
X1081751Y237419D01*
Y237044D01*
X1081564Y236482D01*
X1081189Y236107D01*
X1080627Y235919D01*
X1080064D01*
X1079502Y236107D01*
X1079315Y236294D01*
X1079127Y236669D01*
X1085725Y239856D02*
Y235919D01*
Y239856D02*
X1087224Y235919D01*
X1088724Y239856D02*
X1087224Y235919D01*
X1088724Y239856D02*
Y235919D01*
X1089849Y239856D02*
Y235919D01*
Y239856D02*
X1091348Y235919D01*
X1092848Y239856D02*
X1091348Y235919D01*
X1092848Y239856D02*
Y235919D01*
X965841Y234606D02*
Y232357D01*
X964904Y234044D02*
X966778Y232919D01*
Y234044D02*
X964904Y232919D01*
X973301Y234044D02*
X972926Y234419D01*
X972363Y234606D01*
X971614D01*
X971051Y234419D01*
X970677Y234044D01*
Y233669D01*
X970864Y233294D01*
X971051Y233107D01*
X971426Y232919D01*
X972551Y232544D01*
X972926Y232357D01*
X973113Y232170D01*
X973301Y231795D01*
Y231232D01*
X972926Y230857D01*
X972363Y230670D01*
X971614D01*
X971051Y230857D01*
X970677Y231232D01*
X975306Y234606D02*
X974931Y234419D01*
X974557Y234044D01*
X974369Y233669D01*
X974182Y233107D01*
Y232170D01*
X974369Y231607D01*
X974557Y231232D01*
X974931Y230857D01*
X975306Y230670D01*
X976056D01*
X976431Y230857D01*
X976806Y231232D01*
X976993Y231607D01*
X977181Y232170D01*
Y233107D01*
X976993Y233669D01*
X976806Y234044D01*
X976431Y234419D01*
X976056Y234606D01*
X975306D01*
X978099D02*
Y230670D01*
X980348D01*
X980779Y234606D02*
Y230670D01*
Y234606D02*
X982092D01*
X982654Y234419D01*
X983029Y234044D01*
X983216Y233669D01*
X983403Y233107D01*
Y232170D01*
X983216Y231607D01*
X983029Y231232D01*
X982654Y230857D01*
X982092Y230670D01*
X980779D01*
X986721Y234606D02*
X984284D01*
Y230670D01*
X986721D01*
X984284Y232732D02*
X985784D01*
X987377Y234606D02*
Y230670D01*
Y234606D02*
X989064D01*
X989626Y234419D01*
X989814Y234231D01*
X990001Y233857D01*
Y233482D01*
X989814Y233107D01*
X989626Y232919D01*
X989064Y232732D01*
X987377D01*
X988689D02*
X990001Y230670D01*
X990882Y234606D02*
Y230670D01*
Y234606D02*
X992382Y230670D01*
X993881Y234606D02*
X992382Y230670D01*
X993881Y234606D02*
Y230670D01*
X998005D02*
X996505Y234606D01*
X995006Y230670D01*
X995568Y231982D02*
X997443D01*
X1001547Y234044D02*
X1001173Y234419D01*
X1000610Y234606D01*
X999860D01*
X999298Y234419D01*
X998923Y234044D01*
Y233669D01*
X999111Y233294D01*
X999298Y233107D01*
X999673Y232919D01*
X1000798Y232544D01*
X1001173Y232357D01*
X1001360Y232170D01*
X1001547Y231795D01*
Y231232D01*
X1001173Y230857D01*
X1000610Y230670D01*
X999860D01*
X999298Y230857D01*
X998923Y231232D01*
X1002428Y234606D02*
Y230670D01*
X1005052Y234606D02*
X1002428Y231982D01*
X1003366Y232919D02*
X1005052Y230670D01*
X1005933Y229358D02*
X1008932D01*
X1009438Y234606D02*
Y230670D01*
Y234606D02*
X1011125D01*
X1011688Y234419D01*
X1011875Y234231D01*
X1012062Y233857D01*
Y233482D01*
X1011875Y233107D01*
X1011688Y232919D01*
X1011125Y232732D01*
X1009438D02*
X1011125D01*
X1011688Y232544D01*
X1011875Y232357D01*
X1012062Y231982D01*
Y231420D01*
X1011875Y231045D01*
X1011688Y230857D01*
X1011125Y230670D01*
X1009438D01*
X1014068Y234606D02*
X1013693Y234419D01*
X1013318Y234044D01*
X1013131Y233669D01*
X1012943Y233107D01*
Y232170D01*
X1013131Y231607D01*
X1013318Y231232D01*
X1013693Y230857D01*
X1014068Y230670D01*
X1014818D01*
X1015193Y230857D01*
X1015568Y231232D01*
X1015755Y231607D01*
X1015942Y232170D01*
Y233107D01*
X1015755Y233669D01*
X1015568Y234044D01*
X1015193Y234419D01*
X1014818Y234606D01*
X1014068D01*
X1018173D02*
Y230670D01*
X1016861Y234606D02*
X1019485D01*
X1021266D02*
Y230670D01*
X1019954Y234606D02*
X1022578D01*
X1024171D02*
X1023796Y234419D01*
X1023421Y234044D01*
X1023234Y233669D01*
X1023046Y233107D01*
Y232170D01*
X1023234Y231607D01*
X1023421Y231232D01*
X1023796Y230857D01*
X1024171Y230670D01*
X1024921D01*
X1025296Y230857D01*
X1025670Y231232D01*
X1025858Y231607D01*
X1026045Y232170D01*
Y233107D01*
X1025858Y233669D01*
X1025670Y234044D01*
X1025296Y234419D01*
X1024921Y234606D01*
X1024171D01*
X1026964D02*
Y230670D01*
Y234606D02*
X1028463Y230670D01*
X1029963Y234606D02*
X1028463Y230670D01*
X1029963Y234606D02*
Y230670D01*
X1034180Y234606D02*
Y230670D01*
Y234606D02*
X1035680Y230670D01*
X1037179Y234606D02*
X1035680Y230670D01*
X1037179Y234606D02*
Y230670D01*
X1041303D02*
X1039803Y234606D01*
X1038304Y230670D01*
X1038866Y231982D02*
X1040740D01*
X1044845Y234044D02*
X1044470Y234419D01*
X1043908Y234606D01*
X1043158D01*
X1042596Y234419D01*
X1042221Y234044D01*
Y233669D01*
X1042408Y233294D01*
X1042596Y233107D01*
X1042971Y232919D01*
X1044095Y232544D01*
X1044470Y232357D01*
X1044658Y232170D01*
X1044845Y231795D01*
Y231232D01*
X1044470Y230857D01*
X1043908Y230670D01*
X1043158D01*
X1042596Y230857D01*
X1042221Y231232D01*
X1045726Y234606D02*
Y230670D01*
X1048350Y234606D02*
X1045726Y231982D01*
X1046663Y232919D02*
X1048350Y230670D01*
X1052324Y232357D02*
X1055698D01*
X1062577Y234044D02*
X1062202Y234419D01*
X1061639Y234606D01*
X1060890D01*
X1060327Y234419D01*
X1059953Y234044D01*
Y233669D01*
X1060140Y233294D01*
X1060327Y233107D01*
X1060702Y232919D01*
X1061827Y232544D01*
X1062202Y232357D01*
X1062389Y232170D01*
X1062577Y231795D01*
Y231232D01*
X1062202Y230857D01*
X1061639Y230670D01*
X1060890D01*
X1060327Y230857D01*
X1059953Y231232D01*
X1064582Y234606D02*
X1064207Y234419D01*
X1063832Y234044D01*
X1063645Y233669D01*
X1063458Y233107D01*
Y232170D01*
X1063645Y231607D01*
X1063832Y231232D01*
X1064207Y230857D01*
X1064582Y230670D01*
X1065332D01*
X1065707Y230857D01*
X1066082Y231232D01*
X1066269Y231607D01*
X1066457Y232170D01*
Y233107D01*
X1066269Y233669D01*
X1066082Y234044D01*
X1065707Y234419D01*
X1065332Y234606D01*
X1064582D01*
X1067375D02*
Y230670D01*
X1069624D01*
X1070055Y234606D02*
Y230670D01*
Y234606D02*
X1071367D01*
X1071930Y234419D01*
X1072305Y234044D01*
X1072492Y233669D01*
X1072679Y233107D01*
Y232170D01*
X1072492Y231607D01*
X1072305Y231232D01*
X1071930Y230857D01*
X1071367Y230670D01*
X1070055D01*
X1075997Y234606D02*
X1073560D01*
Y230670D01*
X1075997D01*
X1073560Y232732D02*
X1075060D01*
X1076653Y234606D02*
Y230670D01*
Y234606D02*
X1078340D01*
X1078902Y234419D01*
X1079090Y234231D01*
X1079277Y233857D01*
Y233482D01*
X1079090Y233107D01*
X1078902Y232919D01*
X1078340Y232732D01*
X1076653D01*
X1077965D02*
X1079277Y230670D01*
X1080158Y234606D02*
Y230670D01*
Y234606D02*
X1081658Y230670D01*
X1083157Y234606D02*
X1081658Y230670D01*
X1083157Y234606D02*
Y230670D01*
X1087281D02*
X1085781Y234606D01*
X1084282Y230670D01*
X1084844Y231982D02*
X1086718D01*
X1090823Y234044D02*
X1090448Y234419D01*
X1089886Y234606D01*
X1089136D01*
X1088574Y234419D01*
X1088199Y234044D01*
Y233669D01*
X1088387Y233294D01*
X1088574Y233107D01*
X1088949Y232919D01*
X1090074Y232544D01*
X1090448Y232357D01*
X1090636Y232170D01*
X1090823Y231795D01*
Y231232D01*
X1090448Y230857D01*
X1089886Y230670D01*
X1089136D01*
X1088574Y230857D01*
X1088199Y231232D01*
X1091704Y234606D02*
Y230670D01*
X1094328Y234606D02*
X1091704Y231982D01*
X1092641Y232919D02*
X1094328Y230670D01*
X1099427Y234606D02*
X1098864Y234419D01*
X1098489Y233857D01*
X1098302Y232919D01*
Y232357D01*
X1098489Y231420D01*
X1098864Y230857D01*
X1099427Y230670D01*
X1099802D01*
X1100364Y230857D01*
X1100739Y231420D01*
X1100926Y232357D01*
Y232919D01*
X1100739Y233857D01*
X1100364Y234419D01*
X1099802Y234606D01*
X1099427D01*
X1101995Y231045D02*
X1101807Y230857D01*
X1101995Y230670D01*
X1102182Y230857D01*
X1101995Y231045D01*
X1104169Y234606D02*
X1103607Y234419D01*
X1103232Y233857D01*
X1103044Y232919D01*
Y232357D01*
X1103232Y231420D01*
X1103607Y230857D01*
X1104169Y230670D01*
X1104544D01*
X1105106Y230857D01*
X1105481Y231420D01*
X1105668Y232357D01*
Y232919D01*
X1105481Y233857D01*
X1105106Y234419D01*
X1104544Y234606D01*
X1104169D01*
X1106737Y233669D02*
Y233857D01*
X1106924Y234231D01*
X1107111Y234419D01*
X1107486Y234606D01*
X1108236D01*
X1108611Y234419D01*
X1108798Y234231D01*
X1108986Y233857D01*
Y233482D01*
X1108798Y233107D01*
X1108424Y232544D01*
X1106549Y230670D01*
X1109173D01*
X1113147Y234606D02*
Y230670D01*
Y234606D02*
X1114647Y230670D01*
X1116146Y234606D02*
X1114647Y230670D01*
X1116146Y234606D02*
Y230670D01*
X1117271Y234606D02*
Y230670D01*
Y234606D02*
X1118770Y230670D01*
X1120269Y234606D02*
X1118770Y230670D01*
X1120269Y234606D02*
Y230670D01*
M02*
