G04*
G04 #@! TF.GenerationSoftware,Altium Limited,Altium Designer,20.2.6 (241)*
G04*
G04 Layer_Physical_Order=2*
G04 Layer_Color=32768*
%FSLAX25Y25*%
%MOIN*%
G70*
G04*
G04 #@! TF.SameCoordinates,785051FB-66B4-4767-B951-84AC3D2C5656*
G04*
G04*
G04 #@! TF.FilePolarity,Negative*
G04*
G01*
G75*
%ADD11C,0.00591*%
%ADD157C,0.04000*%
%ADD158R,0.24606X0.44094*%
%ADD159C,0.07937*%
%ADD160C,0.08331*%
%ADD161C,0.10299*%
%ADD162C,0.16992*%
%ADD163C,0.04787*%
%ADD164C,0.06800*%
%ADD165C,0.05969*%
G36*
X0Y346848D02*
Y385827D01*
Y387117D01*
X337Y389675D01*
X1005Y392168D01*
X1992Y394552D01*
X3282Y396787D01*
X4853Y398834D01*
X6678Y400659D01*
X8725Y402229D01*
X10960Y403520D01*
X13344Y404507D01*
X15836Y405175D01*
X18395Y405512D01*
X19685D01*
D01*
X280512D01*
X281802D01*
X284360Y405175D01*
X286853Y404507D01*
X289237Y403520D01*
X291472Y402229D01*
X293519Y400659D01*
X295344Y398834D01*
X296914Y396787D01*
X298205Y394552D01*
X299192Y392168D01*
X299860Y389675D01*
X300197Y387117D01*
Y385827D01*
D01*
Y346848D01*
X0D01*
D02*
G37*
D11*
X360719Y12813D02*
X360531Y13001D01*
X360719Y13188D01*
X360906Y13001D01*
Y12626D01*
X360719Y12251D01*
X360531Y12064D01*
X361769Y13188D02*
Y9252D01*
Y13188D02*
X364393Y9252D01*
Y13188D02*
Y9252D01*
X366417Y11876D02*
X366042Y11689D01*
X365667Y11314D01*
X365480Y10751D01*
Y10377D01*
X365667Y9814D01*
X366042Y9439D01*
X366417Y9252D01*
X366979D01*
X367354Y9439D01*
X367729Y9814D01*
X367916Y10377D01*
Y10751D01*
X367729Y11314D01*
X367354Y11689D01*
X366979Y11876D01*
X366417D01*
X369341Y13188D02*
Y10002D01*
X369529Y9439D01*
X369903Y9252D01*
X370278D01*
X368779Y11876D02*
X370091D01*
X370841Y10751D02*
X373090D01*
Y11126D01*
X372902Y11501D01*
X372715Y11689D01*
X372340Y11876D01*
X371778D01*
X371403Y11689D01*
X371028Y11314D01*
X370841Y10751D01*
Y10377D01*
X371028Y9814D01*
X371403Y9439D01*
X371778Y9252D01*
X372340D01*
X372715Y9439D01*
X373090Y9814D01*
X376182Y11314D02*
X375808Y11689D01*
X375433Y11876D01*
X374870D01*
X374496Y11689D01*
X374121Y11314D01*
X373933Y10751D01*
Y10377D01*
X374121Y9814D01*
X374496Y9439D01*
X374870Y9252D01*
X375433D01*
X375808Y9439D01*
X376182Y9814D01*
X379275Y11876D02*
Y9252D01*
Y11314D02*
X378900Y11689D01*
X378525Y11876D01*
X377963D01*
X377588Y11689D01*
X377213Y11314D01*
X377026Y10751D01*
Y10377D01*
X377213Y9814D01*
X377588Y9439D01*
X377963Y9252D01*
X378525D01*
X378900Y9439D01*
X379275Y9814D01*
X380325Y11876D02*
Y9252D01*
Y10751D02*
X380512Y11314D01*
X380887Y11689D01*
X381262Y11876D01*
X381824D01*
X382180D02*
Y9252D01*
Y10751D02*
X382368Y11314D01*
X382743Y11689D01*
X383118Y11876D01*
X383680D01*
X384411Y13188D02*
X384598Y13001D01*
X384786Y13188D01*
X384598Y13376D01*
X384411Y13188D01*
X384598Y11876D02*
Y9252D01*
X385479Y10751D02*
X387729D01*
Y11126D01*
X387541Y11501D01*
X387354Y11689D01*
X386979Y11876D01*
X386417D01*
X386042Y11689D01*
X385667Y11314D01*
X385479Y10751D01*
Y10377D01*
X385667Y9814D01*
X386042Y9439D01*
X386417Y9252D01*
X386979D01*
X387354Y9439D01*
X387729Y9814D01*
X388572Y11876D02*
Y9252D01*
Y10751D02*
X388759Y11314D01*
X389134Y11689D01*
X389509Y11876D01*
X390072D01*
X396519Y9252D02*
X395020Y13188D01*
X393520Y9252D01*
X394083Y10564D02*
X395957D01*
X397438Y13188D02*
Y9252D01*
Y13188D02*
X399874D01*
X397438Y11314D02*
X398937D01*
X400512Y9627D02*
X400324Y9439D01*
X400512Y9252D01*
X400699Y9439D01*
X400512Y9627D01*
X404373Y12251D02*
X404185Y12626D01*
X403811Y13001D01*
X403436Y13188D01*
X402686D01*
X402311Y13001D01*
X401936Y12626D01*
X401749Y12251D01*
X401561Y11689D01*
Y10751D01*
X401749Y10189D01*
X401936Y9814D01*
X402311Y9439D01*
X402686Y9252D01*
X403436D01*
X403811Y9439D01*
X404185Y9814D01*
X404373Y10189D01*
Y10751D01*
X403436D02*
X404373D01*
X405273Y11126D02*
X406959D01*
X407522Y11314D01*
X407709Y11501D01*
X407897Y11876D01*
Y12438D01*
X407709Y12813D01*
X407522Y13001D01*
X406959Y13188D01*
X405273D01*
Y9252D01*
X408778Y12438D02*
X409153Y12626D01*
X409715Y13188D01*
Y9252D01*
X411852Y12813D02*
X411664Y13001D01*
X411852Y13188D01*
X412039Y13001D01*
Y12626D01*
X411852Y12251D01*
X411664Y12064D01*
X360817Y19605D02*
X360630Y19792D01*
X360817Y19979D01*
X361005Y19792D01*
Y19417D01*
X360817Y19042D01*
X360630Y18855D01*
X364679Y19042D02*
X364491Y19417D01*
X364116Y19792D01*
X363741Y19979D01*
X362992D01*
X362617Y19792D01*
X362242Y19417D01*
X362054Y19042D01*
X361867Y18480D01*
Y17543D01*
X362054Y16981D01*
X362242Y16606D01*
X362617Y16231D01*
X362992Y16043D01*
X363741D01*
X364116Y16231D01*
X364491Y16606D01*
X364679Y16981D01*
Y17543D01*
X363741D02*
X364679D01*
X365578Y18667D02*
Y16043D01*
Y17543D02*
X365766Y18105D01*
X366141Y18480D01*
X366515Y18667D01*
X367078D01*
X368371D02*
X367996Y18480D01*
X367621Y18105D01*
X367434Y17543D01*
Y17168D01*
X367621Y16606D01*
X367996Y16231D01*
X368371Y16043D01*
X368933D01*
X369308Y16231D01*
X369683Y16606D01*
X369870Y17168D01*
Y17543D01*
X369683Y18105D01*
X369308Y18480D01*
X368933Y18667D01*
X368371D01*
X370733D02*
Y16793D01*
X370920Y16231D01*
X371295Y16043D01*
X371857D01*
X372232Y16231D01*
X372795Y16793D01*
Y18667D02*
Y16043D01*
X373825Y18667D02*
Y16043D01*
Y17918D02*
X374388Y18480D01*
X374763Y18667D01*
X375325D01*
X375700Y18480D01*
X375887Y17918D01*
Y16043D01*
X379167Y19979D02*
Y16043D01*
Y18105D02*
X378793Y18480D01*
X378418Y18667D01*
X377855D01*
X377481Y18480D01*
X377106Y18105D01*
X376918Y17543D01*
Y17168D01*
X377106Y16606D01*
X377481Y16231D01*
X377855Y16043D01*
X378418D01*
X378793Y16231D01*
X379167Y16606D01*
X383310Y17918D02*
X384997D01*
X385559Y18105D01*
X385746Y18293D01*
X385934Y18667D01*
Y19230D01*
X385746Y19605D01*
X385559Y19792D01*
X384997Y19979D01*
X383310D01*
Y16043D01*
X386815Y19979D02*
Y16043D01*
X389889Y18667D02*
Y16043D01*
Y18105D02*
X389514Y18480D01*
X389139Y18667D01*
X388577D01*
X388202Y18480D01*
X387827Y18105D01*
X387639Y17543D01*
Y17168D01*
X387827Y16606D01*
X388202Y16231D01*
X388577Y16043D01*
X389139D01*
X389514Y16231D01*
X389889Y16606D01*
X390938Y18667D02*
Y16043D01*
Y17918D02*
X391501Y18480D01*
X391876Y18667D01*
X392438D01*
X392813Y18480D01*
X393000Y17918D01*
Y16043D01*
X394031Y17543D02*
X396280D01*
Y17918D01*
X396093Y18293D01*
X395905Y18480D01*
X395531Y18667D01*
X394968D01*
X394593Y18480D01*
X394218Y18105D01*
X394031Y17543D01*
Y17168D01*
X394218Y16606D01*
X394593Y16231D01*
X394968Y16043D01*
X395531D01*
X395905Y16231D01*
X396280Y16606D01*
X397311Y19605D02*
X397124Y19792D01*
X397311Y19979D01*
X397499Y19792D01*
Y19417D01*
X397311Y19042D01*
X397124Y18855D01*
D157*
X19685Y405512D02*
G03*
X0Y385827I0J-19685D01*
G01*
X300197D02*
G03*
X280512Y405512I-19685J0D01*
G01*
Y-0D02*
G03*
X300197Y19685I0J19685D01*
G01*
X0D02*
G03*
X19685Y-0I19685J0D01*
G01*
X280512D01*
X300197Y19685D02*
Y170079D01*
X272638D02*
X300197D01*
X272638D02*
Y178740D01*
X300197D01*
Y385827D01*
X19685Y405512D02*
X280512D01*
X0Y19685D02*
Y385827D01*
D158*
X12303Y276182D02*
D03*
D159*
X165236Y122000D02*
D03*
X175236D02*
D03*
X185236D02*
D03*
X195236D02*
D03*
X205236D02*
D03*
X225236D02*
D03*
X235236D02*
D03*
X245236D02*
D03*
X155236D02*
D03*
X145236D02*
D03*
X135236D02*
D03*
X125236D02*
D03*
X115236D02*
D03*
X105236D02*
D03*
X95236D02*
D03*
Y42000D02*
D03*
X105236D02*
D03*
X115236D02*
D03*
X205236D02*
D03*
X195236D02*
D03*
X185236D02*
D03*
X175236D02*
D03*
X165236D02*
D03*
X155236D02*
D03*
X145236D02*
D03*
X135236D02*
D03*
X125236D02*
D03*
X4626Y145000D02*
D03*
Y155000D02*
D03*
Y135000D02*
D03*
Y75000D02*
D03*
Y65000D02*
D03*
Y45000D02*
D03*
Y55000D02*
D03*
Y125000D02*
D03*
Y115000D02*
D03*
Y95000D02*
D03*
Y85000D02*
D03*
Y105000D02*
D03*
X264626Y5000D02*
D03*
X254626D02*
D03*
X244626D02*
D03*
X234626D02*
D03*
X224626D02*
D03*
X144626D02*
D03*
X154626D02*
D03*
X164626D02*
D03*
X174626D02*
D03*
X184626D02*
D03*
X194626D02*
D03*
X204626D02*
D03*
X214626D02*
D03*
X64626D02*
D03*
X54626D02*
D03*
X34626D02*
D03*
X44626D02*
D03*
X134626D02*
D03*
X104626D02*
D03*
X94626D02*
D03*
X84626D02*
D03*
X74626D02*
D03*
X114626D02*
D03*
X124626D02*
D03*
D160*
X140938Y305731D02*
D03*
D161*
X219678D02*
D03*
D162*
X17717Y387795D02*
D03*
X282480D02*
D03*
Y17717D02*
D03*
X17717D02*
D03*
D163*
X122845Y149113D02*
D03*
X248464Y201633D02*
D03*
X75787Y35433D02*
D03*
X175236Y50197D02*
D03*
X73583Y52165D02*
D03*
X100963Y154797D02*
D03*
X140945Y157404D02*
D03*
X137702Y160450D02*
D03*
X134656Y144542D02*
D03*
X119112Y158969D02*
D03*
X136821Y149470D02*
D03*
X122942Y169615D02*
D03*
X129823Y140639D02*
D03*
X79646Y162441D02*
D03*
X122937Y138685D02*
D03*
X126585Y141279D02*
D03*
Y149113D02*
D03*
X69665Y12000D02*
D03*
X49649D02*
D03*
X273491Y210000D02*
D03*
X60166Y52165D02*
D03*
X238481Y299393D02*
D03*
X270592Y290724D02*
D03*
X237140Y307467D02*
D03*
X282574Y310331D02*
D03*
X282328Y291118D02*
D03*
X249639Y298559D02*
D03*
X282172Y300724D02*
D03*
X129528Y303982D02*
D03*
X113189D02*
D03*
X210132Y313866D02*
D03*
X187799Y281681D02*
D03*
X179715Y288914D02*
D03*
X255228Y216059D02*
D03*
X239365Y319056D02*
D03*
X234572Y310189D02*
D03*
X188159Y275343D02*
D03*
X211174Y280213D02*
D03*
X179678Y285188D02*
D03*
X179718Y281633D02*
D03*
Y278469D02*
D03*
Y275319D02*
D03*
X188245Y278469D02*
D03*
X187238Y285188D02*
D03*
X228784Y296260D02*
D03*
X129277Y290354D02*
D03*
X113189D02*
D03*
X129277Y296873D02*
D03*
X113189Y296873D02*
D03*
X91959Y316558D02*
D03*
X61024Y283455D02*
D03*
X235204Y305449D02*
D03*
X225434Y333106D02*
D03*
X95272Y296873D02*
D03*
X291071Y145176D02*
D03*
X212813Y306453D02*
D03*
X222973Y316072D02*
D03*
X158299Y321391D02*
D03*
D164*
X62008Y94842D02*
D03*
X66929Y107283D02*
D03*
X69663Y235694D02*
D03*
X54171Y173223D02*
D03*
X46262Y173182D02*
D03*
X277362Y248235D02*
D03*
Y277143D02*
D03*
X28952Y54968D02*
D03*
X240969Y201396D02*
D03*
X220472Y217520D02*
D03*
X101047Y80709D02*
D03*
Y87083D02*
D03*
X89804Y253937D02*
D03*
X83499D02*
D03*
X211804Y289370D02*
D03*
X215741D02*
D03*
X246496Y167000D02*
D03*
D165*
X95351Y155948D02*
D03*
Y179134D02*
D03*
X35633Y222399D02*
D03*
X95351Y167704D02*
D03*
X256496Y204528D02*
D03*
X256398Y198228D02*
D03*
X34626Y129984D02*
D03*
X25648Y216572D02*
D03*
Y208357D02*
D03*
M02*
