G04*
G04 #@! TF.GenerationSoftware,Altium Limited,Altium Designer,20.2.6 (241)*
G04*
G04 Layer_Color=16776960*
%FSLAX25Y25*%
%MOIN*%
G70*
G04*
G04 #@! TF.SameCoordinates,785051FB-66B4-4767-B951-84AC3D2C5656*
G04*
G04*
G04 #@! TF.FilePolarity,Positive*
G04*
G01*
G75*
%ADD11C,0.00591*%
%ADD166C,0.01000*%
D11*
X360719Y12813D02*
X360531Y13001D01*
X360719Y13188D01*
X360906Y13001D01*
Y12626D01*
X360719Y12251D01*
X360531Y12064D01*
X361769Y13188D02*
Y9252D01*
Y13188D02*
X364393Y9252D01*
Y13188D02*
Y9252D01*
X366417Y11876D02*
X366042Y11689D01*
X365667Y11314D01*
X365480Y10751D01*
Y10377D01*
X365667Y9814D01*
X366042Y9439D01*
X366417Y9252D01*
X366979D01*
X367354Y9439D01*
X367729Y9814D01*
X367916Y10377D01*
Y10751D01*
X367729Y11314D01*
X367354Y11689D01*
X366979Y11876D01*
X366417D01*
X369341Y13188D02*
Y10002D01*
X369529Y9439D01*
X369903Y9252D01*
X370278D01*
X368779Y11876D02*
X370091D01*
X370841Y10751D02*
X373090D01*
Y11126D01*
X372902Y11501D01*
X372715Y11689D01*
X372340Y11876D01*
X371778D01*
X371403Y11689D01*
X371028Y11314D01*
X370841Y10751D01*
Y10377D01*
X371028Y9814D01*
X371403Y9439D01*
X371778Y9252D01*
X372340D01*
X372715Y9439D01*
X373090Y9814D01*
X376182Y11314D02*
X375808Y11689D01*
X375433Y11876D01*
X374870D01*
X374496Y11689D01*
X374121Y11314D01*
X373933Y10751D01*
Y10377D01*
X374121Y9814D01*
X374496Y9439D01*
X374870Y9252D01*
X375433D01*
X375808Y9439D01*
X376182Y9814D01*
X379275Y11876D02*
Y9252D01*
Y11314D02*
X378900Y11689D01*
X378525Y11876D01*
X377963D01*
X377588Y11689D01*
X377213Y11314D01*
X377026Y10751D01*
Y10377D01*
X377213Y9814D01*
X377588Y9439D01*
X377963Y9252D01*
X378525D01*
X378900Y9439D01*
X379275Y9814D01*
X380325Y11876D02*
Y9252D01*
Y10751D02*
X380512Y11314D01*
X380887Y11689D01*
X381262Y11876D01*
X381824D01*
X382180D02*
Y9252D01*
Y10751D02*
X382368Y11314D01*
X382743Y11689D01*
X383118Y11876D01*
X383680D01*
X384411Y13188D02*
X384598Y13001D01*
X384786Y13188D01*
X384598Y13376D01*
X384411Y13188D01*
X384598Y11876D02*
Y9252D01*
X385479Y10751D02*
X387729D01*
Y11126D01*
X387541Y11501D01*
X387354Y11689D01*
X386979Y11876D01*
X386417D01*
X386042Y11689D01*
X385667Y11314D01*
X385479Y10751D01*
Y10377D01*
X385667Y9814D01*
X386042Y9439D01*
X386417Y9252D01*
X386979D01*
X387354Y9439D01*
X387729Y9814D01*
X388572Y11876D02*
Y9252D01*
Y10751D02*
X388759Y11314D01*
X389134Y11689D01*
X389509Y11876D01*
X390072D01*
X396519Y9252D02*
X395020Y13188D01*
X393520Y9252D01*
X394083Y10564D02*
X395957D01*
X397438Y13188D02*
Y9252D01*
Y13188D02*
X399874D01*
X397438Y11314D02*
X398937D01*
X400512Y9627D02*
X400324Y9439D01*
X400512Y9252D01*
X400699Y9439D01*
X400512Y9627D01*
X404373Y12251D02*
X404185Y12626D01*
X403811Y13001D01*
X403436Y13188D01*
X402686D01*
X402311Y13001D01*
X401936Y12626D01*
X401749Y12251D01*
X401561Y11689D01*
Y10751D01*
X401749Y10189D01*
X401936Y9814D01*
X402311Y9439D01*
X402686Y9252D01*
X403436D01*
X403811Y9439D01*
X404185Y9814D01*
X404373Y10189D01*
Y10751D01*
X403436D02*
X404373D01*
X405273Y13188D02*
Y9252D01*
Y13188D02*
X406772Y9252D01*
X408272Y13188D02*
X406772Y9252D01*
X408272Y13188D02*
Y9252D01*
X409396Y12438D02*
X409771Y12626D01*
X410333Y13188D01*
Y9252D01*
X412470Y12813D02*
X412283Y13001D01*
X412470Y13188D01*
X412657Y13001D01*
Y12626D01*
X412470Y12251D01*
X412283Y12064D01*
X360817Y20917D02*
X360630Y21104D01*
X360817Y21292D01*
X361005Y21104D01*
Y20729D01*
X360817Y20354D01*
X360630Y20167D01*
X361867Y21292D02*
Y17355D01*
Y21292D02*
X363179D01*
X363741Y21104D01*
X364116Y20729D01*
X364304Y20354D01*
X364491Y19792D01*
Y18855D01*
X364304Y18293D01*
X364116Y17918D01*
X363741Y17543D01*
X363179Y17355D01*
X361867D01*
X367809Y21292D02*
X365372D01*
Y17355D01*
X367809D01*
X365372Y19417D02*
X366872D01*
X371089Y20729D02*
X370714Y21104D01*
X370152Y21292D01*
X369402D01*
X368840Y21104D01*
X368465Y20729D01*
Y20354D01*
X368652Y19979D01*
X368840Y19792D01*
X369215Y19605D01*
X370339Y19230D01*
X370714Y19042D01*
X370901Y18855D01*
X371089Y18480D01*
Y17918D01*
X370714Y17543D01*
X370152Y17355D01*
X369402D01*
X368840Y17543D01*
X368465Y17918D01*
X371970Y21292D02*
Y17355D01*
X375606Y20354D02*
X375419Y20729D01*
X375044Y21104D01*
X374669Y21292D01*
X373919D01*
X373544Y21104D01*
X373169Y20729D01*
X372982Y20354D01*
X372795Y19792D01*
Y18855D01*
X372982Y18293D01*
X373169Y17918D01*
X373544Y17543D01*
X373919Y17355D01*
X374669D01*
X375044Y17543D01*
X375419Y17918D01*
X375606Y18293D01*
Y18855D01*
X374669D02*
X375606D01*
X376506Y21292D02*
Y17355D01*
Y21292D02*
X379130Y17355D01*
Y21292D02*
Y17355D01*
X380217Y16043D02*
X383216D01*
X384847Y21292D02*
X384472Y21104D01*
X384097Y20729D01*
X383910Y20354D01*
X383722Y19792D01*
Y18855D01*
X383910Y18293D01*
X384097Y17918D01*
X384472Y17543D01*
X384847Y17355D01*
X385596D01*
X385971Y17543D01*
X386346Y17918D01*
X386534Y18293D01*
X386721Y18855D01*
Y19792D01*
X386534Y20354D01*
X386346Y20729D01*
X385971Y21104D01*
X385596Y21292D01*
X384847D01*
X387639D02*
Y18480D01*
X387827Y17918D01*
X388202Y17543D01*
X388764Y17355D01*
X389139D01*
X389701Y17543D01*
X390076Y17918D01*
X390264Y18480D01*
Y21292D01*
X392663D02*
Y17355D01*
X391351Y21292D02*
X393975D01*
X394443D02*
Y17355D01*
X396693D01*
X397124Y21292D02*
Y17355D01*
X397949Y21292D02*
Y17355D01*
Y21292D02*
X400573Y17355D01*
Y21292D02*
Y17355D01*
X404096Y21292D02*
X401660D01*
Y17355D01*
X404096D01*
X401660Y19417D02*
X403159D01*
X404940Y20917D02*
X404752Y21104D01*
X404940Y21292D01*
X405127Y21104D01*
Y20729D01*
X404940Y20354D01*
X404752Y20167D01*
D166*
X0Y19685D02*
G03*
X19685Y-0I19685J0D01*
G01*
X280512D02*
G03*
X300197Y19685I0J19685D01*
G01*
Y385827D02*
G03*
X280512Y405512I-19685J0D01*
G01*
X19685D02*
G03*
X0Y385827I0J-19685D01*
G01*
X19685Y-0D02*
X280512D01*
X300197Y19685D02*
Y170079D01*
X272638D02*
X300197D01*
X272638D02*
Y178740D01*
X300197D01*
Y385827D01*
X19685Y405512D02*
X280512D01*
X0Y19685D02*
Y385827D01*
M02*
