G04*
G04 #@! TF.GenerationSoftware,Altium Limited,Altium Designer,20.2.4 (192)*
G04*
G04 Layer_Color=3931*
%FSLAX25Y25*%
%MOIN*%
G70*
G04*
G04 #@! TF.SameCoordinates,7296403A-AE54-4680-90C6-F2F837FCC291*
G04*
G04*
G04 #@! TF.FilePolarity,Negative*
G04*
G01*
G75*
%ADD11C,0.00591*%
G04:AMPARAMS|DCode=17|XSize=9.45mil|YSize=23.62mil|CornerRadius=4.72mil|HoleSize=0mil|Usage=FLASHONLY|Rotation=90.000|XOffset=0mil|YOffset=0mil|HoleType=Round|Shape=RoundedRectangle|*
%AMROUNDEDRECTD17*
21,1,0.00945,0.01417,0,0,90.0*
21,1,0.00000,0.02362,0,0,90.0*
1,1,0.00945,0.00709,0.00000*
1,1,0.00945,0.00709,0.00000*
1,1,0.00945,-0.00709,0.00000*
1,1,0.00945,-0.00709,0.00000*
%
%ADD17ROUNDEDRECTD17*%
%ADD65R,0.04134X0.02559*%
%ADD66R,0.06221X0.11221*%
%ADD67R,0.04334X0.05712*%
%ADD68R,0.02641X0.02641*%
%ADD69R,0.02641X0.02641*%
%ADD70C,0.05598*%
%ADD71R,0.06200X0.05200*%
%ADD72R,0.09255X0.11224*%
%ADD73R,0.11814X0.13979*%
%ADD74R,0.18507X0.16539*%
%ADD75R,0.04728X0.05909*%
%ADD76R,0.04924X0.11027*%
%ADD77R,0.01381X0.06302*%
%ADD78R,0.06499X0.04137*%
%ADD79R,0.07287X0.04924*%
%ADD80R,0.06302X0.02562*%
%ADD81R,0.05712X0.04334*%
%ADD82R,0.02956X0.02956*%
%ADD83R,0.02169X0.05712*%
%ADD84R,0.02956X0.03153*%
%ADD85R,0.07680X0.01972*%
%ADD86R,0.02956X0.03743*%
%ADD87R,0.02759X0.04924*%
%ADD88R,0.09649X0.01972*%
%ADD89R,0.11617X0.01972*%
%ADD90R,0.02562X0.02562*%
%ADD91R,0.04137X0.17917*%
%ADD92R,0.06499X0.12011*%
%ADD93C,0.04137*%
%ADD94R,0.04098X0.01381*%
%ADD95R,0.07680X0.03743*%
%ADD96R,0.04728X0.07287*%
%ADD97R,0.01184X0.02169*%
%ADD98R,0.09649X0.03507*%
%ADD99R,0.04334X0.04137*%
%ADD100R,0.08861X0.04334*%
%ADD101R,0.02956X0.04137*%
%ADD102R,0.01381X0.02169*%
%ADD103R,0.04137X0.03350*%
%ADD104R,0.05909X0.06893*%
%ADD105R,0.12798X0.06893*%
%ADD106R,0.06106X0.18783*%
%ADD107R,0.06106X0.10909*%
%ADD108R,0.12011X0.06499*%
%ADD109R,0.21854X0.04137*%
%ADD110R,0.01184X0.01184*%
%ADD111R,0.05515X0.01775*%
%ADD112R,0.06499X0.08468*%
%ADD113R,0.07680X0.07680*%
%ADD114R,0.07680X0.07287*%
%ADD115R,0.04216X0.02720*%
%ADD116R,0.04334X0.08861*%
%ADD117R,0.04137X0.04334*%
%ADD118R,0.07287X0.04728*%
%ADD119C,0.06499*%
%ADD120R,0.06499X0.06499*%
%ADD121C,0.06200*%
%ADD122R,0.07838X0.07838*%
%ADD123C,0.23822*%
%ADD124R,0.07877X0.06499*%
%ADD125R,0.06499X0.08074*%
%ADD126C,0.01972*%
%ADD127C,0.05200*%
%ADD128C,0.01968*%
G36*
X15962Y329986D02*
X17207Y329471D01*
X18276Y328650D01*
X19097Y327581D01*
X19612Y326336D01*
X19788Y325000D01*
X19612Y323664D01*
X19097Y322419D01*
X18276Y321350D01*
X17207Y320529D01*
X15962Y320014D01*
X14626Y319838D01*
X13290Y320014D01*
X12045Y320529D01*
X10976Y321350D01*
X10155Y322419D01*
X9640Y323664D01*
X9464Y325000D01*
X9640Y326336D01*
X10155Y327581D01*
X10976Y328650D01*
X12045Y329471D01*
X13290Y329986D01*
X14626Y330162D01*
X15962Y329986D01*
D02*
G37*
G36*
X82244Y168504D02*
X81457D01*
Y171555D01*
X80433D01*
Y168504D01*
X79646D01*
Y171555D01*
X78622D01*
Y168504D01*
X77835D01*
Y171555D01*
X76811D01*
Y168504D01*
X76024D01*
Y185827D01*
X76811D01*
Y182776D01*
X77835D01*
Y185827D01*
X78622D01*
Y182776D01*
X79646D01*
Y185827D01*
X80433D01*
Y182776D01*
X81457D01*
Y185827D01*
X82244D01*
Y168504D01*
D02*
G37*
G36*
X283816Y49986D02*
X285061Y49471D01*
X286131Y48650D01*
X286951Y47581D01*
X287467Y46336D01*
X287643Y45000D01*
X287467Y43664D01*
X286951Y42419D01*
X286131Y41350D01*
X285061Y40529D01*
X283816Y40014D01*
X282480Y39838D01*
X281144Y40014D01*
X279899Y40529D01*
X278830Y41350D01*
X278010Y42419D01*
X277494Y43664D01*
X277318Y45000D01*
X277494Y46336D01*
X278010Y47581D01*
X278830Y48650D01*
X279899Y49471D01*
X281144Y49986D01*
X282480Y50162D01*
X283816Y49986D01*
D02*
G37*
D11*
X360817Y20917D02*
X360630Y21104D01*
X360817Y21292D01*
X361005Y21104D01*
Y20729D01*
X360817Y20354D01*
X360630Y20167D01*
X363179Y21292D02*
Y17355D01*
X361867Y21292D02*
X364491D01*
X365897Y19979D02*
X365522Y19792D01*
X365147Y19417D01*
X364960Y18855D01*
Y18480D01*
X365147Y17918D01*
X365522Y17543D01*
X365897Y17355D01*
X366459D01*
X366834Y17543D01*
X367209Y17918D01*
X367396Y18480D01*
Y18855D01*
X367209Y19417D01*
X366834Y19792D01*
X366459Y19979D01*
X365897D01*
X368259D02*
Y16043D01*
Y19417D02*
X368633Y19792D01*
X369008Y19979D01*
X369571D01*
X369946Y19792D01*
X370320Y19417D01*
X370508Y18855D01*
Y18480D01*
X370320Y17918D01*
X369946Y17543D01*
X369571Y17355D01*
X369008D01*
X368633Y17543D01*
X368259Y17918D01*
X377068Y20729D02*
X376693Y21104D01*
X376131Y21292D01*
X375381D01*
X374819Y21104D01*
X374444Y20729D01*
Y20354D01*
X374631Y19979D01*
X374819Y19792D01*
X375194Y19605D01*
X376318Y19230D01*
X376693Y19042D01*
X376881Y18855D01*
X377068Y18480D01*
Y17918D01*
X376693Y17543D01*
X376131Y17355D01*
X375381D01*
X374819Y17543D01*
X374444Y17918D01*
X378886Y19979D02*
X378511Y19792D01*
X378136Y19417D01*
X377949Y18855D01*
Y18480D01*
X378136Y17918D01*
X378511Y17543D01*
X378886Y17355D01*
X379449D01*
X379823Y17543D01*
X380198Y17918D01*
X380386Y18480D01*
Y18855D01*
X380198Y19417D01*
X379823Y19792D01*
X379449Y19979D01*
X378886D01*
X381248Y21292D02*
Y17355D01*
X384322Y21292D02*
Y17355D01*
Y19417D02*
X383947Y19792D01*
X383572Y19979D01*
X383010D01*
X382635Y19792D01*
X382260Y19417D01*
X382073Y18855D01*
Y18480D01*
X382260Y17918D01*
X382635Y17543D01*
X383010Y17355D01*
X383572D01*
X383947Y17543D01*
X384322Y17918D01*
X385371Y18855D02*
X387621D01*
Y19230D01*
X387433Y19605D01*
X387246Y19792D01*
X386871Y19979D01*
X386309D01*
X385934Y19792D01*
X385559Y19417D01*
X385371Y18855D01*
Y18480D01*
X385559Y17918D01*
X385934Y17543D01*
X386309Y17355D01*
X386871D01*
X387246Y17543D01*
X387621Y17918D01*
X388464Y19979D02*
Y17355D01*
Y18855D02*
X388652Y19417D01*
X389026Y19792D01*
X389401Y19979D01*
X389964D01*
X393412Y21292D02*
Y17355D01*
Y21292D02*
X394912Y17355D01*
X396411Y21292D02*
X394912Y17355D01*
X396411Y21292D02*
Y17355D01*
X399785Y19979D02*
Y17355D01*
Y19417D02*
X399411Y19792D01*
X399036Y19979D01*
X398473D01*
X398098Y19792D01*
X397724Y19417D01*
X397536Y18855D01*
Y18480D01*
X397724Y17918D01*
X398098Y17543D01*
X398473Y17355D01*
X399036D01*
X399411Y17543D01*
X399785Y17918D01*
X402897Y19417D02*
X402709Y19792D01*
X402147Y19979D01*
X401585D01*
X401022Y19792D01*
X400835Y19417D01*
X401022Y19042D01*
X401397Y18855D01*
X402334Y18667D01*
X402709Y18480D01*
X402897Y18105D01*
Y17918D01*
X402709Y17543D01*
X402147Y17355D01*
X401585D01*
X401022Y17543D01*
X400835Y17918D01*
X403722Y21292D02*
Y17355D01*
X405596Y19979D02*
X403722Y18105D01*
X404471Y18855D02*
X405783Y17355D01*
X406589Y20917D02*
X406402Y21104D01*
X406589Y21292D01*
X406777Y21104D01*
Y20729D01*
X406589Y20354D01*
X406402Y20167D01*
X360719Y12813D02*
X360531Y13001D01*
X360719Y13188D01*
X360906Y13001D01*
Y12626D01*
X360719Y12251D01*
X360531Y12064D01*
X361769Y13188D02*
Y9252D01*
Y13188D02*
X364393Y9252D01*
Y13188D02*
Y9252D01*
X366417Y11876D02*
X366042Y11689D01*
X365667Y11314D01*
X365480Y10751D01*
Y10377D01*
X365667Y9814D01*
X366042Y9439D01*
X366417Y9252D01*
X366979D01*
X367354Y9439D01*
X367729Y9814D01*
X367916Y10377D01*
Y10751D01*
X367729Y11314D01*
X367354Y11689D01*
X366979Y11876D01*
X366417D01*
X369341Y13188D02*
Y10002D01*
X369529Y9439D01*
X369903Y9252D01*
X370278D01*
X368779Y11876D02*
X370091D01*
X370841Y10751D02*
X373090D01*
Y11126D01*
X372902Y11501D01*
X372715Y11689D01*
X372340Y11876D01*
X371778D01*
X371403Y11689D01*
X371028Y11314D01*
X370841Y10751D01*
Y10377D01*
X371028Y9814D01*
X371403Y9439D01*
X371778Y9252D01*
X372340D01*
X372715Y9439D01*
X373090Y9814D01*
X376182Y11314D02*
X375808Y11689D01*
X375433Y11876D01*
X374870D01*
X374496Y11689D01*
X374121Y11314D01*
X373933Y10751D01*
Y10377D01*
X374121Y9814D01*
X374496Y9439D01*
X374870Y9252D01*
X375433D01*
X375808Y9439D01*
X376182Y9814D01*
X379275Y11876D02*
Y9252D01*
Y11314D02*
X378900Y11689D01*
X378525Y11876D01*
X377963D01*
X377588Y11689D01*
X377213Y11314D01*
X377026Y10751D01*
Y10377D01*
X377213Y9814D01*
X377588Y9439D01*
X377963Y9252D01*
X378525D01*
X378900Y9439D01*
X379275Y9814D01*
X380325Y11876D02*
Y9252D01*
Y10751D02*
X380512Y11314D01*
X380887Y11689D01*
X381262Y11876D01*
X381824D01*
X382180D02*
Y9252D01*
Y10751D02*
X382368Y11314D01*
X382743Y11689D01*
X383118Y11876D01*
X383680D01*
X384411Y13188D02*
X384598Y13001D01*
X384786Y13188D01*
X384598Y13376D01*
X384411Y13188D01*
X384598Y11876D02*
Y9252D01*
X385479Y10751D02*
X387729D01*
Y11126D01*
X387541Y11501D01*
X387354Y11689D01*
X386979Y11876D01*
X386417D01*
X386042Y11689D01*
X385667Y11314D01*
X385479Y10751D01*
Y10377D01*
X385667Y9814D01*
X386042Y9439D01*
X386417Y9252D01*
X386979D01*
X387354Y9439D01*
X387729Y9814D01*
X388572Y11876D02*
Y9252D01*
Y10751D02*
X388759Y11314D01*
X389134Y11689D01*
X389509Y11876D01*
X390072D01*
X396519Y9252D02*
X395020Y13188D01*
X393520Y9252D01*
X394083Y10564D02*
X395957D01*
X397438Y13188D02*
Y9252D01*
Y13188D02*
X399874D01*
X397438Y11314D02*
X398937D01*
X400512Y9627D02*
X400324Y9439D01*
X400512Y9252D01*
X400699Y9439D01*
X400512Y9627D01*
X404373Y12251D02*
X404185Y12626D01*
X403811Y13001D01*
X403436Y13188D01*
X402686D01*
X402311Y13001D01*
X401936Y12626D01*
X401749Y12251D01*
X401561Y11689D01*
Y10751D01*
X401749Y10189D01*
X401936Y9814D01*
X402311Y9439D01*
X402686Y9252D01*
X403436D01*
X403811Y9439D01*
X404185Y9814D01*
X404373Y10189D01*
Y10751D01*
X403436D02*
X404373D01*
X406585Y13188D02*
Y9252D01*
X405273Y13188D02*
X407897D01*
X410989Y12626D02*
X410614Y13001D01*
X410052Y13188D01*
X409302D01*
X408740Y13001D01*
X408365Y12626D01*
Y12251D01*
X408553Y11876D01*
X408740Y11689D01*
X409115Y11501D01*
X410240Y11126D01*
X410614Y10939D01*
X410802Y10751D01*
X410989Y10377D01*
Y9814D01*
X410614Y9439D01*
X410052Y9252D01*
X409302D01*
X408740Y9439D01*
X408365Y9814D01*
X412058Y12813D02*
X411870Y13001D01*
X412058Y13188D01*
X412245Y13001D01*
Y12626D01*
X412058Y12251D01*
X411870Y12064D01*
D17*
X73622Y171260D02*
D03*
Y173228D02*
D03*
Y175197D02*
D03*
Y177165D02*
D03*
Y179134D02*
D03*
Y181102D02*
D03*
Y183071D02*
D03*
X84646D02*
D03*
Y181102D02*
D03*
Y179134D02*
D03*
Y177165D02*
D03*
Y175197D02*
D03*
Y173228D02*
D03*
Y171260D02*
D03*
D65*
X38945Y275043D02*
D03*
D66*
X79134Y177165D02*
D03*
D67*
X43819Y51055D02*
D03*
X52284D02*
D03*
X43819Y34716D02*
D03*
X52284D02*
D03*
D68*
X66387Y46543D02*
D03*
Y43000D02*
D03*
X64173Y160433D02*
D03*
X67716D02*
D03*
X88691Y172756D02*
D03*
Y169213D02*
D03*
X49649Y274253D02*
D03*
X46106D02*
D03*
X38956Y256192D02*
D03*
Y259735D02*
D03*
X141535Y352008D02*
D03*
Y348465D02*
D03*
X256010Y180566D02*
D03*
X252467D02*
D03*
X236315Y327586D02*
D03*
Y331130D02*
D03*
X228314Y323177D02*
D03*
X231857D02*
D03*
X256008Y175368D02*
D03*
X252465D02*
D03*
X80534Y43000D02*
D03*
Y46543D02*
D03*
X88690Y178512D02*
D03*
Y182055D02*
D03*
X69882Y179134D02*
D03*
Y182677D02*
D03*
X96289Y316558D02*
D03*
X99833D02*
D03*
X19698Y248803D02*
D03*
Y252346D02*
D03*
X26032Y227543D02*
D03*
Y224000D02*
D03*
X49649Y269844D02*
D03*
X46106D02*
D03*
D69*
X62371Y43000D02*
D03*
Y46543D02*
D03*
X67716Y154528D02*
D03*
X64173D02*
D03*
X38956Y264145D02*
D03*
Y267688D02*
D03*
X228314Y331996D02*
D03*
X231857D02*
D03*
Y327587D02*
D03*
X228314D02*
D03*
X241166Y196198D02*
D03*
X244710D02*
D03*
X251690Y198090D02*
D03*
Y201633D02*
D03*
X231644Y308795D02*
D03*
X228100D02*
D03*
X75787Y46543D02*
D03*
Y43000D02*
D03*
X100000Y308516D02*
D03*
X96457D02*
D03*
X255228Y209169D02*
D03*
Y212713D02*
D03*
X73622Y166142D02*
D03*
Y162598D02*
D03*
X47047Y280295D02*
D03*
X43504D02*
D03*
D70*
X79134Y177165D02*
D03*
D71*
X96337Y173250D02*
D03*
X105337D02*
D03*
X105335Y184770D02*
D03*
X96335D02*
D03*
X96226Y161846D02*
D03*
X105226D02*
D03*
X55911Y191197D02*
D03*
X46911D02*
D03*
X55714Y180055D02*
D03*
X46714D02*
D03*
D72*
X54031Y213921D02*
D03*
X35528D02*
D03*
X35633Y230773D02*
D03*
X54137D02*
D03*
X37496Y163331D02*
D03*
X56000D02*
D03*
D73*
X92571Y204724D02*
D03*
X71114D02*
D03*
D74*
X240256Y152264D02*
D03*
X86764Y74288D02*
D03*
Y93933D02*
D03*
D75*
X255020Y156142D02*
D03*
Y148386D02*
D03*
X72000Y78166D02*
D03*
Y70410D02*
D03*
Y90055D02*
D03*
Y97811D02*
D03*
D76*
X139560Y323448D02*
D03*
X221056D02*
D03*
D77*
X143891Y326499D02*
D03*
X144875Y296774D02*
D03*
X145859Y326499D02*
D03*
X146844Y296774D02*
D03*
X147828Y326499D02*
D03*
X148812Y296774D02*
D03*
X149796Y326499D02*
D03*
X150781Y296774D02*
D03*
X151765Y326499D02*
D03*
X152749Y296774D02*
D03*
X153734Y326499D02*
D03*
X154718Y296774D02*
D03*
X155702Y326499D02*
D03*
X156686Y296774D02*
D03*
X157670Y326499D02*
D03*
X158655Y296774D02*
D03*
X159639Y326499D02*
D03*
X160623Y296774D02*
D03*
X161608Y326499D02*
D03*
X162592Y296774D02*
D03*
X163576Y326499D02*
D03*
X164560Y296774D02*
D03*
X165544Y326499D02*
D03*
X174403Y296774D02*
D03*
X175387Y326499D02*
D03*
X176371Y296774D02*
D03*
X177356Y326499D02*
D03*
X178340Y296774D02*
D03*
X179324Y326499D02*
D03*
X180308Y296774D02*
D03*
X181292Y326499D02*
D03*
X182277Y296774D02*
D03*
X183261Y326499D02*
D03*
X184245Y296774D02*
D03*
X185230Y326499D02*
D03*
X186214Y296774D02*
D03*
X187198Y326499D02*
D03*
X188182Y296774D02*
D03*
X189166Y326499D02*
D03*
X190151Y296774D02*
D03*
X191135Y326499D02*
D03*
X192119Y296774D02*
D03*
X193104Y326499D02*
D03*
X194088Y296774D02*
D03*
X195072Y326499D02*
D03*
X196056Y296774D02*
D03*
X197041Y326499D02*
D03*
X198025Y296774D02*
D03*
X199009Y326499D02*
D03*
X199993Y296774D02*
D03*
X200978Y326499D02*
D03*
X201962Y296774D02*
D03*
X202946Y326499D02*
D03*
X203930Y296774D02*
D03*
X204915Y326499D02*
D03*
X205899Y296774D02*
D03*
X206883Y326499D02*
D03*
X207867Y296774D02*
D03*
X208852Y326499D02*
D03*
X209836Y296774D02*
D03*
X210820Y326499D02*
D03*
X211804Y296774D02*
D03*
X212789Y326499D02*
D03*
X213773Y296774D02*
D03*
X214757Y326499D02*
D03*
X215741Y296774D02*
D03*
X216726Y326499D02*
D03*
D78*
X43276Y85000D02*
D03*
X52724Y94842D02*
D03*
Y75157D02*
D03*
X43276D02*
D03*
Y94842D02*
D03*
X52724Y85000D02*
D03*
D79*
X51032Y116992D02*
D03*
Y139039D02*
D03*
D80*
X41091Y122110D02*
D03*
Y126047D02*
D03*
Y129984D02*
D03*
Y133921D02*
D03*
D81*
X129528Y316981D02*
D03*
Y308516D02*
D03*
X113189Y316981D02*
D03*
Y308516D02*
D03*
D82*
X260827Y283913D02*
D03*
D83*
X242126Y292063D02*
D03*
Y309386D02*
D03*
D84*
X253740Y284602D02*
D03*
D85*
X270079Y282634D02*
D03*
Y326630D02*
D03*
D86*
X273937Y290724D02*
D03*
X286417Y291118D02*
D03*
Y300724D02*
D03*
X273937D02*
D03*
Y310724D02*
D03*
X286417Y310331D02*
D03*
D87*
X246358Y298559D02*
D03*
D88*
X249803Y326630D02*
D03*
D89*
X289173Y282634D02*
D03*
Y326630D02*
D03*
D90*
X293701Y295921D02*
D03*
Y305528D02*
D03*
D91*
X261614Y233284D02*
D03*
X269488D02*
D03*
X277362D02*
D03*
X285236D02*
D03*
X285236Y262192D02*
D03*
X277362D02*
D03*
X269488D02*
D03*
X261614D02*
D03*
D92*
X252953Y244111D02*
D03*
X293898D02*
D03*
X293898Y273019D02*
D03*
X252953D02*
D03*
D93*
X282480Y45000D02*
D03*
X14626Y325000D02*
D03*
X140938Y305731D02*
D03*
X17717Y387795D02*
D03*
X282480D02*
D03*
Y17717D02*
D03*
X17717D02*
D03*
X95351Y155948D02*
D03*
X32173Y192183D02*
D03*
X70499Y292121D02*
D03*
X70687Y276640D02*
D03*
X105127Y155948D02*
D03*
X105315Y167704D02*
D03*
Y178493D02*
D03*
X95351Y179134D02*
D03*
X35633Y222399D02*
D03*
X95351Y167704D02*
D03*
X41064Y138514D02*
D03*
X256496Y204528D02*
D03*
X256398Y198228D02*
D03*
X34626Y129984D02*
D03*
X275236Y141732D02*
D03*
X25648Y216572D02*
D03*
Y208357D02*
D03*
X232283Y208032D02*
D03*
X16142Y231496D02*
D03*
X53937Y316142D02*
D03*
D94*
X235026Y303283D02*
D03*
Y299346D02*
D03*
Y301315D02*
D03*
X228688Y303283D02*
D03*
Y301315D02*
D03*
Y299346D02*
D03*
D95*
X27306Y187457D02*
D03*
Y175646D02*
D03*
D96*
X243504Y138976D02*
D03*
X254921D02*
D03*
D97*
X254370Y184543D02*
D03*
Y192024D02*
D03*
X252401Y184543D02*
D03*
Y192024D02*
D03*
X250433Y184543D02*
D03*
Y192024D02*
D03*
X248464Y184543D02*
D03*
Y192024D02*
D03*
X246496Y184543D02*
D03*
Y192024D02*
D03*
D98*
X250433Y188284D02*
D03*
D99*
X102293Y334087D02*
D03*
D100*
X96289Y328279D02*
D03*
Y339894D02*
D03*
D101*
X100591Y296873D02*
D03*
X107283D02*
D03*
X85074Y246858D02*
D03*
X78381D02*
D03*
D102*
X120876Y161144D02*
D03*
X124813D02*
D03*
X122845D02*
D03*
X128750D02*
D03*
X126782D02*
D03*
X134656D02*
D03*
X130719D02*
D03*
X132687D02*
D03*
X122845Y155239D02*
D03*
X120876D02*
D03*
X124813D02*
D03*
X126782D02*
D03*
X130719D02*
D03*
X128750D02*
D03*
X132687D02*
D03*
X134656D02*
D03*
Y172571D02*
D03*
X130719D02*
D03*
X132687D02*
D03*
X128750D02*
D03*
X132687Y166665D02*
D03*
X134656D02*
D03*
X130719D02*
D03*
X128750D02*
D03*
X126782Y172571D02*
D03*
X124813D02*
D03*
X122845D02*
D03*
X120876D02*
D03*
X126782Y166665D02*
D03*
X124813D02*
D03*
X122845D02*
D03*
X120876D02*
D03*
D103*
X228708Y318466D02*
D03*
X235007D02*
D03*
Y313348D02*
D03*
X228708D02*
D03*
X235150Y337063D02*
D03*
X228850D02*
D03*
D104*
X11319Y258268D02*
D03*
X4429D02*
D03*
D105*
X7874Y294095D02*
D03*
D106*
X82677Y387638D02*
D03*
X232283D02*
D03*
D107*
X176378Y383701D02*
D03*
X133858D02*
D03*
D108*
X287598Y184209D02*
D03*
Y210980D02*
D03*
Y138791D02*
D03*
Y165562D02*
D03*
D109*
X278740Y193658D02*
D03*
Y201532D02*
D03*
Y148240D02*
D03*
Y156114D02*
D03*
D110*
X40520Y275830D02*
D03*
Y274255D02*
D03*
X38945D02*
D03*
X37370Y275830D02*
D03*
X38945D02*
D03*
X37370Y274255D02*
D03*
D111*
X18996Y201969D02*
D03*
Y199409D02*
D03*
Y194291D02*
D03*
Y196850D02*
D03*
Y191732D02*
D03*
D112*
X18504Y208858D02*
D03*
Y184843D02*
D03*
D113*
X8465Y201575D02*
D03*
Y192126D02*
D03*
D114*
Y211811D02*
D03*
Y181890D02*
D03*
D115*
X176378Y346063D02*
D03*
Y351102D02*
D03*
X133858Y347716D02*
D03*
Y352756D02*
D03*
D116*
X43246Y292313D02*
D03*
X31632D02*
D03*
D117*
X37439Y286309D02*
D03*
D118*
X37000Y187378D02*
D03*
Y175961D02*
D03*
D119*
X165236Y122000D02*
D03*
X175236D02*
D03*
X185236D02*
D03*
X195236D02*
D03*
X205236D02*
D03*
X215236D02*
D03*
X225236D02*
D03*
X235236D02*
D03*
X155236D02*
D03*
X145236D02*
D03*
X135236D02*
D03*
X125236D02*
D03*
X115236D02*
D03*
X105236D02*
D03*
X95236D02*
D03*
Y42000D02*
D03*
X105236D02*
D03*
X115236D02*
D03*
X195236D02*
D03*
X185236D02*
D03*
X175236D02*
D03*
X165236D02*
D03*
X155236D02*
D03*
X145236D02*
D03*
X135236D02*
D03*
X125236D02*
D03*
D120*
X245236Y122000D02*
D03*
X205236Y42000D02*
D03*
D121*
X219678Y305731D02*
D03*
D122*
X284626Y335000D02*
D03*
X14626D02*
D03*
D123*
X180308Y174826D02*
D03*
D124*
X4626Y145000D02*
D03*
Y155000D02*
D03*
Y135000D02*
D03*
Y75000D02*
D03*
Y65000D02*
D03*
Y35000D02*
D03*
Y45000D02*
D03*
Y55000D02*
D03*
Y125000D02*
D03*
Y115000D02*
D03*
Y95000D02*
D03*
Y85000D02*
D03*
Y105000D02*
D03*
D125*
X264626Y5000D02*
D03*
X254626D02*
D03*
X244626D02*
D03*
X234626D02*
D03*
X224626D02*
D03*
X144626D02*
D03*
X154626D02*
D03*
X164626D02*
D03*
X174626D02*
D03*
X184626D02*
D03*
X194626D02*
D03*
X204626D02*
D03*
X214626D02*
D03*
X64626D02*
D03*
X54626D02*
D03*
X34626D02*
D03*
X44626D02*
D03*
X134626D02*
D03*
X104626D02*
D03*
X94626D02*
D03*
X84626D02*
D03*
X74626D02*
D03*
X114626D02*
D03*
X124626D02*
D03*
D126*
X122845Y149113D02*
D03*
X248464Y201633D02*
D03*
X296260Y35433D02*
D03*
Y31890D02*
D03*
Y42520D02*
D03*
Y49606D02*
D03*
Y46063D02*
D03*
Y113386D02*
D03*
Y120472D02*
D03*
Y116929D02*
D03*
X75787Y35433D02*
D03*
X175236Y50197D02*
D03*
X73583Y52165D02*
D03*
X38803Y50937D02*
D03*
X100963Y154797D02*
D03*
X140945Y157404D02*
D03*
X137702Y160450D02*
D03*
X134656Y144542D02*
D03*
X119112Y158969D02*
D03*
X136821Y149470D02*
D03*
X122942Y169615D02*
D03*
X129823Y140639D02*
D03*
X66929Y185335D02*
D03*
X259274Y181008D02*
D03*
X132924Y322632D02*
D03*
X79646Y162441D02*
D03*
X88651Y185078D02*
D03*
X81123Y164957D02*
D03*
X77294D02*
D03*
X81850Y187270D02*
D03*
X77836Y189349D02*
D03*
X80433Y189370D02*
D03*
X79134Y187270D02*
D03*
X76417Y187346D02*
D03*
X81850Y167215D02*
D03*
X79134D02*
D03*
X76417D02*
D03*
X122937Y138685D02*
D03*
X120324Y147222D02*
D03*
X125347Y139063D02*
D03*
X268701Y210000D02*
D03*
X118587Y156377D02*
D03*
X126585Y141279D02*
D03*
X128657Y142845D02*
D03*
X136034Y178493D02*
D03*
X126585Y149113D02*
D03*
X136821Y146372D02*
D03*
X125408Y169588D02*
D03*
X258032Y216636D02*
D03*
X69665Y12000D02*
D03*
X49649D02*
D03*
X273491Y210000D02*
D03*
X296260Y81496D02*
D03*
Y85039D02*
D03*
Y77953D02*
D03*
X3179Y186502D02*
D03*
Y189651D02*
D03*
Y195950D02*
D03*
Y170754D02*
D03*
Y173903D02*
D03*
Y177053D02*
D03*
Y180202D02*
D03*
Y183352D02*
D03*
X3164Y205455D02*
D03*
Y208605D02*
D03*
Y211755D02*
D03*
Y214904D02*
D03*
Y192857D02*
D03*
Y199156D02*
D03*
Y202306D02*
D03*
X3179Y164454D02*
D03*
Y167604D02*
D03*
X60166Y52165D02*
D03*
X38803Y34835D02*
D03*
X293307Y345295D02*
D03*
X285433D02*
D03*
X281496D02*
D03*
X277559D02*
D03*
X273622D02*
D03*
X289370D02*
D03*
X253937D02*
D03*
X250000D02*
D03*
X246063D02*
D03*
X242126D02*
D03*
X269685D02*
D03*
X265748D02*
D03*
X261811D02*
D03*
X257874D02*
D03*
X296260Y334252D02*
D03*
Y341338D02*
D03*
Y337795D02*
D03*
Y344882D02*
D03*
Y284646D02*
D03*
Y291732D02*
D03*
Y288189D02*
D03*
Y298819D02*
D03*
X296654Y305906D02*
D03*
Y295276D02*
D03*
X296260Y302362D02*
D03*
Y312992D02*
D03*
Y309449D02*
D03*
X296654Y327165D02*
D03*
X296260Y330709D02*
D03*
Y320079D02*
D03*
Y323622D02*
D03*
Y316535D02*
D03*
Y235039D02*
D03*
Y256299D02*
D03*
Y252756D02*
D03*
Y263386D02*
D03*
Y259842D02*
D03*
Y281102D02*
D03*
X238481Y299393D02*
D03*
X270592Y290724D02*
D03*
X278582Y295921D02*
D03*
X237140Y307467D02*
D03*
X270087Y310763D02*
D03*
X278633Y305532D02*
D03*
X282574Y310331D02*
D03*
X282328Y291118D02*
D03*
X249639Y298559D02*
D03*
X282172Y300724D02*
D03*
X129528Y303982D02*
D03*
X113189D02*
D03*
X125880Y300810D02*
D03*
X204697Y320854D02*
D03*
X210132Y313866D02*
D03*
X143096Y155750D02*
D03*
X187799Y281681D02*
D03*
X179715Y288914D02*
D03*
X174838Y288209D02*
D03*
X136872Y162852D02*
D03*
X7874Y345295D02*
D03*
X3937D02*
D03*
X3937Y340295D02*
D03*
X258576Y177996D02*
D03*
X225015Y301346D02*
D03*
X296260Y217323D02*
D03*
Y224409D02*
D03*
Y220866D02*
D03*
Y231496D02*
D03*
Y227953D02*
D03*
Y38976D02*
D03*
Y56693D02*
D03*
Y53150D02*
D03*
Y63779D02*
D03*
Y67323D02*
D03*
Y60236D02*
D03*
Y74409D02*
D03*
Y70866D02*
D03*
Y88583D02*
D03*
Y95669D02*
D03*
Y99213D02*
D03*
Y92126D02*
D03*
Y106299D02*
D03*
Y102756D02*
D03*
Y109843D02*
D03*
Y127559D02*
D03*
Y131102D02*
D03*
Y124016D02*
D03*
X255228Y216059D02*
D03*
X80534Y52137D02*
D03*
X116431Y300810D02*
D03*
X116535Y293723D02*
D03*
X125984D02*
D03*
X239365Y319056D02*
D03*
X234572Y310189D02*
D03*
X178682Y270669D02*
D03*
X211174Y275590D02*
D03*
X192119Y275319D02*
D03*
X174059Y283689D02*
D03*
X188159Y275343D02*
D03*
X211174Y280213D02*
D03*
X179678Y285188D02*
D03*
X179718Y281633D02*
D03*
Y278469D02*
D03*
Y275319D02*
D03*
X188245Y278469D02*
D03*
X187238Y285188D02*
D03*
X235579Y324115D02*
D03*
X228784Y296260D02*
D03*
X107510Y316981D02*
D03*
X129277Y290354D02*
D03*
X113189D02*
D03*
X129277Y296873D02*
D03*
X113189Y296873D02*
D03*
X91959Y316558D02*
D03*
X66387Y52165D02*
D03*
X61024Y283455D02*
D03*
X235204Y305449D02*
D03*
X225434Y333106D02*
D03*
X95272Y296873D02*
D03*
X234252Y345295D02*
D03*
X180118D02*
D03*
X129921D02*
D03*
X82677D02*
D03*
X78740D02*
D03*
X296260Y210236D02*
D03*
Y213779D02*
D03*
Y203150D02*
D03*
Y196063D02*
D03*
Y155905D02*
D03*
Y162992D02*
D03*
X291071Y145176D02*
D03*
X243504Y180709D02*
D03*
X296260Y206693D02*
D03*
Y199606D02*
D03*
Y188976D02*
D03*
Y192520D02*
D03*
Y181890D02*
D03*
Y185433D02*
D03*
Y166535D02*
D03*
Y159449D02*
D03*
Y148819D02*
D03*
Y152362D02*
D03*
Y141732D02*
D03*
Y145276D02*
D03*
Y134646D02*
D03*
Y138189D02*
D03*
X257577Y183739D02*
D03*
X238386Y193307D02*
D03*
X243504Y183465D02*
D03*
Y177953D02*
D03*
X206693Y345295D02*
D03*
X210630D02*
D03*
X212813Y306453D02*
D03*
X214567Y345295D02*
D03*
X218504D02*
D03*
X222973Y316072D02*
D03*
X222441Y345295D02*
D03*
X226378D02*
D03*
X230315D02*
D03*
X238189D02*
D03*
X243110Y328760D02*
D03*
X3135Y252812D02*
D03*
X3150Y237008D02*
D03*
Y233858D02*
D03*
Y230709D02*
D03*
Y227559D02*
D03*
Y224409D02*
D03*
Y221260D02*
D03*
Y218110D02*
D03*
Y249606D02*
D03*
Y246457D02*
D03*
Y243307D02*
D03*
Y240158D02*
D03*
X3937Y335295D02*
D03*
Y330295D02*
D03*
Y325295D02*
D03*
Y320295D02*
D03*
Y315295D02*
D03*
Y310295D02*
D03*
Y305295D02*
D03*
Y300295D02*
D03*
X7777Y249458D02*
D03*
X7874Y300295D02*
D03*
Y252795D02*
D03*
X9213Y246740D02*
D03*
X11811Y345295D02*
D03*
Y300295D02*
D03*
X12308Y245281D02*
D03*
X15748Y345295D02*
D03*
Y300295D02*
D03*
Y252795D02*
D03*
X15976Y245126D02*
D03*
X19685Y345295D02*
D03*
Y300295D02*
D03*
Y245295D02*
D03*
X23622Y345295D02*
D03*
Y300295D02*
D03*
Y252795D02*
D03*
Y245295D02*
D03*
X26852Y300207D02*
D03*
Y295207D02*
D03*
Y290207D02*
D03*
Y285207D02*
D03*
Y280207D02*
D03*
Y275207D02*
D03*
Y270207D02*
D03*
Y265207D02*
D03*
Y260207D02*
D03*
X26861Y256243D02*
D03*
X27559Y345295D02*
D03*
Y252795D02*
D03*
Y245295D02*
D03*
X29921Y298425D02*
D03*
X30315Y286221D02*
D03*
X31496Y345295D02*
D03*
Y252795D02*
D03*
Y245295D02*
D03*
X33282Y286170D02*
D03*
Y281616D02*
D03*
X33465Y298425D02*
D03*
X33548Y277152D02*
D03*
X34874Y272688D02*
D03*
X35433Y345295D02*
D03*
Y267795D02*
D03*
Y262795D02*
D03*
Y257795D02*
D03*
Y252795D02*
D03*
Y245295D02*
D03*
X37008Y298425D02*
D03*
X39370Y345295D02*
D03*
Y245295D02*
D03*
X40551Y298425D02*
D03*
X40806Y282302D02*
D03*
X41460Y286170D02*
D03*
X42298Y248397D02*
D03*
X42608Y270985D02*
D03*
Y266764D02*
D03*
X42652Y262742D02*
D03*
X42718Y257857D02*
D03*
X42785Y253061D02*
D03*
X43307Y345295D02*
D03*
X43701Y298425D02*
D03*
X44094Y286221D02*
D03*
X47230Y286656D02*
D03*
X47244Y345295D02*
D03*
Y296850D02*
D03*
Y293701D02*
D03*
Y290158D02*
D03*
X51181Y345295D02*
D03*
X55118D02*
D03*
X59055D02*
D03*
X62992D02*
D03*
X66929D02*
D03*
X70866D02*
D03*
X74803D02*
D03*
X86614D02*
D03*
X90158Y339370D02*
D03*
Y335433D02*
D03*
Y331890D02*
D03*
Y327953D02*
D03*
X91732Y324409D02*
D03*
X90551Y345295D02*
D03*
X94488D02*
D03*
X96457Y324409D02*
D03*
X98425Y345295D02*
D03*
X100394Y324409D02*
D03*
X102299Y330105D02*
D03*
X102362Y340551D02*
D03*
Y337795D02*
D03*
Y327165D02*
D03*
X102362Y345295D02*
D03*
X105548Y330017D02*
D03*
X106299Y337795D02*
D03*
X106299Y345295D02*
D03*
X108885Y339697D02*
D03*
X108952Y330194D02*
D03*
X110236Y342795D02*
D03*
Y345295D02*
D03*
X112205Y330709D02*
D03*
X115117Y333133D02*
D03*
X114173Y345295D02*
D03*
X116142Y336614D02*
D03*
X118110Y345295D02*
D03*
X120079Y336614D02*
D03*
X122047Y345295D02*
D03*
X124016Y336614D02*
D03*
X125984Y345295D02*
D03*
X127953Y336614D02*
D03*
X131890D02*
D03*
X135827Y338583D02*
D03*
X137462Y341731D02*
D03*
X137795Y345295D02*
D03*
X141732D02*
D03*
X145669D02*
D03*
X149606D02*
D03*
X153543D02*
D03*
X157480D02*
D03*
X158299Y321391D02*
D03*
X161417Y345295D02*
D03*
X165354D02*
D03*
X169291D02*
D03*
X172483Y345331D02*
D03*
X183071Y345295D02*
D03*
X187008D02*
D03*
X190945D02*
D03*
X194882D02*
D03*
X198819D02*
D03*
X202756D02*
D03*
D127*
X62008Y94842D02*
D03*
X66929Y107283D02*
D03*
X69663Y235694D02*
D03*
X54171Y173223D02*
D03*
X46262Y173182D02*
D03*
X285236Y248235D02*
D03*
X277362D02*
D03*
Y277143D02*
D03*
X28952Y54968D02*
D03*
X285236Y277362D02*
D03*
X240969Y201396D02*
D03*
X220472Y217520D02*
D03*
X101047Y80709D02*
D03*
Y87083D02*
D03*
X89804Y253937D02*
D03*
X83499D02*
D03*
X211804Y289370D02*
D03*
X215741D02*
D03*
X46970Y198054D02*
D03*
X246496Y167000D02*
D03*
D128*
X81102Y181102D02*
D03*
Y179134D02*
D03*
Y177165D02*
D03*
Y175197D02*
D03*
Y173228D02*
D03*
X79134Y179134D02*
D03*
Y181102D02*
D03*
X77165Y175197D02*
D03*
Y173228D02*
D03*
X79134Y177165D02*
D03*
Y175197D02*
D03*
Y173228D02*
D03*
X77165Y181102D02*
D03*
Y179134D02*
D03*
Y177165D02*
D03*
M02*
