%TF.GenerationSoftware,KiCad,Pcbnew,(7.0.0-0)*%
%TF.CreationDate,2023-03-31T14:52:11+11:00*%
%TF.ProjectId,Notecarrier-B,4e6f7465-6361-4727-9269-65722d422e6b,A*%
%TF.SameCoordinates,Original*%
%TF.FileFunction,Paste,Top*%
%TF.FilePolarity,Positive*%
%FSLAX46Y46*%
G04 Gerber Fmt 4.6, Leading zero omitted, Abs format (unit mm)*
G04 Created by KiCad (PCBNEW (7.0.0-0)) date 2023-03-31 14:52:11*
%MOMM*%
%LPD*%
G01*
G04 APERTURE LIST*
%ADD10C,0.050000*%
%ADD11R,1.550000X0.300000*%
%ADD12R,2.750000X1.200000*%
%ADD13R,3.500000X1.000000*%
%ADD14R,3.400000X1.500000*%
%ADD15R,0.500000X0.600000*%
%ADD16R,1.350000X0.400000*%
%ADD17R,1.900000X1.800000*%
%ADD18R,1.600000X2.100000*%
%ADD19R,1.900000X1.900000*%
G04 APERTURE END LIST*
%TO.C,OBJ1*%
G36*
X135430000Y-75280000D02*
G01*
X135100000Y-75350000D01*
X134840000Y-75450000D01*
X134550000Y-75640000D01*
X134350000Y-75810000D01*
X134210000Y-75960000D01*
X134090000Y-76140000D01*
X133930000Y-76430000D01*
X133850000Y-76700000D01*
X133800000Y-77010000D01*
X132750000Y-77000000D01*
X132760000Y-76860000D01*
X132780000Y-76670000D01*
X132840000Y-76360000D01*
X132920000Y-76150000D01*
X133030000Y-75880000D01*
X133160000Y-75630000D01*
X133320000Y-75390000D01*
X133480000Y-75200000D01*
X133700000Y-74970000D01*
X133900000Y-74800000D01*
X134150000Y-74630000D01*
X134450000Y-74470000D01*
X134810000Y-74330000D01*
X135130000Y-74260000D01*
X135420000Y-74220000D01*
X135430000Y-75280000D01*
G37*
D10*
X135430000Y-75280000D02*
X135100000Y-75350000D01*
X134840000Y-75450000D01*
X134550000Y-75640000D01*
X134350000Y-75810000D01*
X134210000Y-75960000D01*
X134090000Y-76140000D01*
X133930000Y-76430000D01*
X133850000Y-76700000D01*
X133800000Y-77010000D01*
X132750000Y-77000000D01*
X132760000Y-76860000D01*
X132780000Y-76670000D01*
X132840000Y-76360000D01*
X132920000Y-76150000D01*
X133030000Y-75880000D01*
X133160000Y-75630000D01*
X133320000Y-75390000D01*
X133480000Y-75200000D01*
X133700000Y-74970000D01*
X133900000Y-74800000D01*
X134150000Y-74630000D01*
X134450000Y-74470000D01*
X134810000Y-74330000D01*
X135130000Y-74260000D01*
X135420000Y-74220000D01*
X135430000Y-75280000D01*
G36*
X133890000Y-77730000D02*
G01*
X133990000Y-77990000D01*
X134180000Y-78280000D01*
X134350000Y-78480000D01*
X134500000Y-78620000D01*
X134680000Y-78740000D01*
X134970000Y-78900000D01*
X135240000Y-78980000D01*
X135550000Y-79030000D01*
X135540000Y-80080000D01*
X135400000Y-80070000D01*
X135210000Y-80050000D01*
X134900000Y-79990000D01*
X134690000Y-79910000D01*
X134420000Y-79800000D01*
X134170000Y-79670000D01*
X133930000Y-79510000D01*
X133740000Y-79350000D01*
X133510000Y-79130000D01*
X133340000Y-78930000D01*
X133170000Y-78680000D01*
X133010000Y-78380000D01*
X132870000Y-78020000D01*
X132800000Y-77700000D01*
X132760000Y-77410000D01*
X133820000Y-77400000D01*
X133890000Y-77730000D01*
G37*
X133890000Y-77730000D02*
X133990000Y-77990000D01*
X134180000Y-78280000D01*
X134350000Y-78480000D01*
X134500000Y-78620000D01*
X134680000Y-78740000D01*
X134970000Y-78900000D01*
X135240000Y-78980000D01*
X135550000Y-79030000D01*
X135540000Y-80080000D01*
X135400000Y-80070000D01*
X135210000Y-80050000D01*
X134900000Y-79990000D01*
X134690000Y-79910000D01*
X134420000Y-79800000D01*
X134170000Y-79670000D01*
X133930000Y-79510000D01*
X133740000Y-79350000D01*
X133510000Y-79130000D01*
X133340000Y-78930000D01*
X133170000Y-78680000D01*
X133010000Y-78380000D01*
X132870000Y-78020000D01*
X132800000Y-77700000D01*
X132760000Y-77410000D01*
X133820000Y-77400000D01*
X133890000Y-77730000D01*
G36*
X136010000Y-74200000D02*
G01*
X136200000Y-74220000D01*
X136510000Y-74280000D01*
X136720000Y-74360000D01*
X136990000Y-74470000D01*
X137240000Y-74600000D01*
X137480000Y-74760000D01*
X137670000Y-74920000D01*
X137900000Y-75140000D01*
X138070000Y-75340000D01*
X138240000Y-75590000D01*
X138400000Y-75890000D01*
X138540000Y-76250000D01*
X138610000Y-76570000D01*
X138650000Y-76860000D01*
X137590000Y-76870000D01*
X137520000Y-76540000D01*
X137420000Y-76280000D01*
X137230000Y-75990000D01*
X137060000Y-75790000D01*
X136910000Y-75650000D01*
X136730000Y-75530000D01*
X136440000Y-75370000D01*
X136170000Y-75290000D01*
X135860000Y-75240000D01*
X135870000Y-74190000D01*
X136010000Y-74200000D01*
G37*
X136010000Y-74200000D02*
X136200000Y-74220000D01*
X136510000Y-74280000D01*
X136720000Y-74360000D01*
X136990000Y-74470000D01*
X137240000Y-74600000D01*
X137480000Y-74760000D01*
X137670000Y-74920000D01*
X137900000Y-75140000D01*
X138070000Y-75340000D01*
X138240000Y-75590000D01*
X138400000Y-75890000D01*
X138540000Y-76250000D01*
X138610000Y-76570000D01*
X138650000Y-76860000D01*
X137590000Y-76870000D01*
X137520000Y-76540000D01*
X137420000Y-76280000D01*
X137230000Y-75990000D01*
X137060000Y-75790000D01*
X136910000Y-75650000D01*
X136730000Y-75530000D01*
X136440000Y-75370000D01*
X136170000Y-75290000D01*
X135860000Y-75240000D01*
X135870000Y-74190000D01*
X136010000Y-74200000D01*
G36*
X138650000Y-77290000D02*
G01*
X138640000Y-77430000D01*
X138620000Y-77620000D01*
X138560000Y-77930000D01*
X138480000Y-78140000D01*
X138370000Y-78410000D01*
X138240000Y-78660000D01*
X138080000Y-78900000D01*
X137920000Y-79090000D01*
X137700000Y-79320000D01*
X137500000Y-79490000D01*
X137250000Y-79660000D01*
X136950000Y-79820000D01*
X136590000Y-79960000D01*
X136270000Y-80030000D01*
X135980000Y-80070000D01*
X135970000Y-79010000D01*
X136300000Y-78940000D01*
X136560000Y-78840000D01*
X136850000Y-78650000D01*
X137050000Y-78480000D01*
X137190000Y-78330000D01*
X137310000Y-78150000D01*
X137470000Y-77860000D01*
X137550000Y-77590000D01*
X137600000Y-77280000D01*
X138650000Y-77290000D01*
G37*
X138650000Y-77290000D02*
X138640000Y-77430000D01*
X138620000Y-77620000D01*
X138560000Y-77930000D01*
X138480000Y-78140000D01*
X138370000Y-78410000D01*
X138240000Y-78660000D01*
X138080000Y-78900000D01*
X137920000Y-79090000D01*
X137700000Y-79320000D01*
X137500000Y-79490000D01*
X137250000Y-79660000D01*
X136950000Y-79820000D01*
X136590000Y-79960000D01*
X136270000Y-80030000D01*
X135980000Y-80070000D01*
X135970000Y-79010000D01*
X136300000Y-78940000D01*
X136560000Y-78840000D01*
X136850000Y-78650000D01*
X137050000Y-78480000D01*
X137190000Y-78330000D01*
X137310000Y-78150000D01*
X137470000Y-77860000D01*
X137550000Y-77590000D01*
X137600000Y-77280000D01*
X138650000Y-77290000D01*
%TD*%
D11*
%TO.C,J20*%
X97184999Y-86389999D03*
X104734999Y-86139999D03*
X97184999Y-85889999D03*
X104734999Y-85639999D03*
X97184999Y-85389999D03*
X104734999Y-85139999D03*
X97184999Y-84889999D03*
X104734999Y-84639999D03*
X97184999Y-84389999D03*
X104734999Y-84139999D03*
X97184999Y-83889999D03*
X104734999Y-83639999D03*
X97184999Y-83389999D03*
X104734999Y-83139999D03*
X97184999Y-82889999D03*
X104734999Y-82639999D03*
X97184999Y-82389999D03*
X104734999Y-82139999D03*
X97184999Y-81889999D03*
X104734999Y-81639999D03*
X97184999Y-81389999D03*
X104734999Y-81139999D03*
X97184999Y-80889999D03*
X104734999Y-78639999D03*
X97184999Y-78389999D03*
X104734999Y-78139999D03*
X97184999Y-77889999D03*
X104734999Y-77639999D03*
X97184999Y-77389999D03*
X104734999Y-77139999D03*
X97184999Y-76889999D03*
X104734999Y-76639999D03*
X97184999Y-76389999D03*
X104734999Y-76139999D03*
X97184999Y-75889999D03*
X104734999Y-75639999D03*
X97184999Y-75389999D03*
X104734999Y-75139999D03*
X97184999Y-74889999D03*
X104734999Y-74639999D03*
X97184999Y-74389999D03*
X104734999Y-74139999D03*
X97184999Y-73889999D03*
X104734999Y-73639999D03*
X97184999Y-73389999D03*
X104734999Y-73139999D03*
X97184999Y-72889999D03*
X104734999Y-72639999D03*
X97184999Y-72389999D03*
X104734999Y-72139999D03*
X97184999Y-71889999D03*
X104734999Y-71639999D03*
X97184999Y-71389999D03*
X104734999Y-71139999D03*
X97184999Y-70889999D03*
X104734999Y-70639999D03*
X97184999Y-70389999D03*
X104734999Y-70139999D03*
X97184999Y-69889999D03*
X104734999Y-69639999D03*
X97184999Y-69389999D03*
X104734999Y-69139999D03*
X97184999Y-68889999D03*
X104734999Y-68639999D03*
X97184999Y-68389999D03*
X104734999Y-68139999D03*
X97184999Y-67889999D03*
D12*
X97959999Y-87489999D03*
X97959999Y-66789999D03*
%TD*%
D13*
%TO.C,J23*%
X138005799Y-87013399D03*
X138005799Y-85013399D03*
D14*
X143755799Y-89363399D03*
X143755799Y-82663399D03*
%TD*%
D15*
%TO.C,LD1*%
X143549999Y-91499999D03*
X144449999Y-91499999D03*
%TD*%
D16*
%TO.C,J19*%
X141884999Y-69339999D03*
X141884999Y-68689999D03*
X141884999Y-68039999D03*
X141884999Y-67389999D03*
X141884999Y-66739999D03*
D17*
X144559999Y-71839999D03*
D18*
X142009999Y-71089999D03*
D19*
X144559999Y-69239999D03*
X144559999Y-66839999D03*
D18*
X142009999Y-64989999D03*
D17*
X144559999Y-64239999D03*
%TD*%
M02*
