%TF.GenerationSoftware,KiCad,Pcbnew,(7.0.0-0)*%
%TF.CreationDate,2023-03-31T14:52:11+11:00*%
%TF.ProjectId,Notecarrier-B,4e6f7465-6361-4727-9269-65722d422e6b,A*%
%TF.SameCoordinates,Original*%
%TF.FileFunction,Copper,L1,Top*%
%TF.FilePolarity,Positive*%
%FSLAX46Y46*%
G04 Gerber Fmt 4.6, Leading zero omitted, Abs format (unit mm)*
G04 Created by KiCad (PCBNEW (7.0.0-0)) date 2023-03-31 14:52:11*
%MOMM*%
%LPD*%
G01*
G04 APERTURE LIST*
%TA.AperFunction,SMDPad,CuDef*%
%ADD10R,1.550000X0.300000*%
%TD*%
%TA.AperFunction,SMDPad,CuDef*%
%ADD11R,2.750000X1.200000*%
%TD*%
%TA.AperFunction,SMDPad,CuDef*%
%ADD12R,3.500000X1.000000*%
%TD*%
%TA.AperFunction,SMDPad,CuDef*%
%ADD13R,3.400000X1.500000*%
%TD*%
%TA.AperFunction,SMDPad,CuDef*%
%ADD14C,1.000000*%
%TD*%
%TA.AperFunction,SMDPad,CuDef*%
%ADD15R,0.500000X0.600000*%
%TD*%
%TA.AperFunction,ComponentPad*%
%ADD16C,6.000000*%
%TD*%
%TA.AperFunction,SMDPad,CuDef*%
%ADD17R,1.350000X0.400000*%
%TD*%
%TA.AperFunction,SMDPad,CuDef*%
%ADD18R,1.900000X1.800000*%
%TD*%
%TA.AperFunction,SMDPad,CuDef*%
%ADD19R,1.600000X2.100000*%
%TD*%
%TA.AperFunction,SMDPad,CuDef*%
%ADD20R,1.900000X1.900000*%
%TD*%
%TA.AperFunction,ComponentPad*%
%ADD21R,1.940000X1.940000*%
%TD*%
%TA.AperFunction,ComponentPad*%
%ADD22O,1.940000X1.940000*%
%TD*%
%TA.AperFunction,ViaPad*%
%ADD23C,0.650000*%
%TD*%
%TA.AperFunction,ViaPad*%
%ADD24C,0.450000*%
%TD*%
%TA.AperFunction,Conductor*%
%ADD25C,0.600000*%
%TD*%
%TA.AperFunction,Conductor*%
%ADD26C,0.300000*%
%TD*%
%TA.AperFunction,Conductor*%
%ADD27C,0.400000*%
%TD*%
%TA.AperFunction,Conductor*%
%ADD28C,0.200000*%
%TD*%
%TA.AperFunction,Conductor*%
%ADD29C,0.500000*%
%TD*%
%TA.AperFunction,Conductor*%
%ADD30C,0.800000*%
%TD*%
%TA.AperFunction,Conductor*%
%ADD31C,1.000000*%
%TD*%
%TA.AperFunction,Conductor*%
%ADD32C,0.450000*%
%TD*%
%TA.AperFunction,Conductor*%
%ADD33C,0.699900*%
%TD*%
G04 APERTURE END LIST*
D10*
%TO.P,J20,1,NC1*%
%TO.N,unconnected-(J20-NC1-Pad1)*%
X97184999Y-86389999D03*
%TO.P,J20,2,VIO_P*%
%TO.N,VIO_P*%
X104734999Y-86139999D03*
%TO.P,J20,3,GND*%
%TO.N,GND*%
X97184999Y-85889999D03*
%TO.P,J20,4,VIO_P*%
%TO.N,VIO_P*%
X104734999Y-85639999D03*
%TO.P,J20,5,GND*%
%TO.N,GND*%
X97184999Y-85389999D03*
%TO.P,J20,6,GND*%
X104734999Y-85139999D03*
%TO.P,J20,7,USB_DP*%
%TO.N,/USB_DP*%
X97184999Y-84889999D03*
%TO.P,J20,8,SIM_VCC*%
%TO.N,unconnected-(J20-SIM_VCC-Pad8)*%
X104734999Y-84639999D03*
%TO.P,J20,9,USB_DM*%
%TO.N,/USB_DM*%
X97184999Y-84389999D03*
%TO.P,J20,10,SIM_RST*%
%TO.N,unconnected-(J20-SIM_RST-Pad10)*%
X104734999Y-84139999D03*
%TO.P,J20,11,GND*%
%TO.N,GND*%
X97184999Y-83889999D03*
%TO.P,J20,12,SIM_IO*%
%TO.N,unconnected-(J20-SIM_IO-Pad12)*%
X104734999Y-83639999D03*
%TO.P,J20,13,VUSB*%
%TO.N,VUSB*%
X97184999Y-83389999D03*
%TO.P,J20,14,SIM_CLK*%
%TO.N,unconnected-(J20-SIM_CLK-Pad14)*%
X104734999Y-83139999D03*
%TO.P,J20,15,NC15*%
%TO.N,unconnected-(J20-NC15-Pad15)*%
X97184999Y-82889999D03*
%TO.P,J20,16,SIM_NPRESENT*%
%TO.N,unconnected-(J20-SIM_NPRESENT-Pad16)*%
X104734999Y-82639999D03*
%TO.P,J20,17,NC17*%
%TO.N,unconnected-(J20-NC17-Pad17)*%
X97184999Y-82389999D03*
%TO.P,J20,18,GND*%
%TO.N,GND*%
X104734999Y-82139999D03*
%TO.P,J20,19,NC19*%
%TO.N,unconnected-(J20-NC19-Pad19)*%
X97184999Y-81889999D03*
%TO.P,J20,20,VACT_GPS_OUT*%
%TO.N,VACT_GPS_OUT*%
X104734999Y-81639999D03*
%TO.P,J20,21,NC21*%
%TO.N,unconnected-(J20-NC21-Pad21)*%
X97184999Y-81389999D03*
%TO.P,J20,22,VACT_GPS_IN*%
%TO.N,Net-(J20-VACT_GPS_IN)*%
X104734999Y-81139999D03*
%TO.P,J20,23,NC23*%
%TO.N,unconnected-(J20-NC23-Pad23)*%
X97184999Y-80889999D03*
%TO.P,J20,32,NC32*%
%TO.N,unconnected-(J20-NC32-Pad32)*%
X104734999Y-78639999D03*
%TO.P,J20,33,GND*%
%TO.N,GND*%
X97184999Y-78389999D03*
%TO.P,J20,34,NC34*%
%TO.N,unconnected-(J20-NC34-Pad34)*%
X104734999Y-78139999D03*
%TO.P,J20,35,NC35*%
%TO.N,unconnected-(J20-NC35-Pad35)*%
X97184999Y-77889999D03*
%TO.P,J20,36,NC36*%
%TO.N,unconnected-(J20-NC36-Pad36)*%
X104734999Y-77639999D03*
%TO.P,J20,37,NC37*%
%TO.N,unconnected-(J20-NC37-Pad37)*%
X97184999Y-77389999D03*
%TO.P,J20,38,NC38*%
%TO.N,/AUX5*%
X104734999Y-77139999D03*
%TO.P,J20,39,GND*%
%TO.N,GND*%
X97184999Y-76889999D03*
%TO.P,J20,40,SCL_P*%
%TO.N,/SCL_P*%
X104734999Y-76639999D03*
%TO.P,J20,41,NC41*%
%TO.N,unconnected-(J20-NC41-Pad41)*%
X97184999Y-76389999D03*
%TO.P,J20,42,SDA_P*%
%TO.N,/SDA_P*%
X104734999Y-76139999D03*
%TO.P,J20,43,NC43*%
%TO.N,unconnected-(J20-NC43-Pad43)*%
X97184999Y-75889999D03*
%TO.P,J20,44,NC44*%
%TO.N,unconnected-(J20-NC44-Pad44)*%
X104734999Y-75639999D03*
%TO.P,J20,45,GND*%
%TO.N,GND*%
X97184999Y-75389999D03*
%TO.P,J20,46,AUX1*%
%TO.N,/AUX1*%
X104734999Y-75139999D03*
%TO.P,J20,47,NC47*%
%TO.N,unconnected-(J20-NC47-Pad47)*%
X97184999Y-74889999D03*
%TO.P,J20,48,AUX2*%
%TO.N,/AUX2*%
X104734999Y-74639999D03*
%TO.P,J20,49,NC49*%
%TO.N,unconnected-(J20-NC49-Pad49)*%
X97184999Y-74389999D03*
%TO.P,J20,50,AUX3*%
%TO.N,/AUX3*%
X104734999Y-74139999D03*
%TO.P,J20,51,GND*%
%TO.N,GND*%
X97184999Y-73889999D03*
%TO.P,J20,52,AUX4*%
%TO.N,/AUX4*%
X104734999Y-73639999D03*
%TO.P,J20,53,NC53*%
%TO.N,unconnected-(J20-NC53-Pad53)*%
X97184999Y-73389999D03*
%TO.P,J20,54,ATTN_P*%
%TO.N,/ATTN_P*%
X104734999Y-73139999D03*
%TO.P,J20,55,NC55*%
%TO.N,unconnected-(J20-NC55-Pad55)*%
X97184999Y-72889999D03*
%TO.P,J20,56,AUX_EN_P*%
%TO.N,/AUX_EN_P*%
X104734999Y-72639999D03*
%TO.P,J20,57,GND*%
%TO.N,GND*%
X97184999Y-72389999D03*
%TO.P,J20,58,AUX_RX_P*%
%TO.N,/AUX_RX_P*%
X104734999Y-72139999D03*
%TO.P,J20,59,NC59*%
%TO.N,unconnected-(J20-NC59-Pad59)*%
X97184999Y-71889999D03*
%TO.P,J20,60,AUX_TX_P*%
%TO.N,/AUX_TX_P*%
X104734999Y-71639999D03*
%TO.P,J20,61,NC61*%
%TO.N,unconnected-(J20-NC61-Pad61)*%
X97184999Y-71389999D03*
%TO.P,J20,62,RX_P*%
%TO.N,/RX_P*%
X104734999Y-71139999D03*
%TO.P,J20,63,NC63*%
%TO.N,unconnected-(J20-NC63-Pad63)*%
X97184999Y-70889999D03*
%TO.P,J20,64,TX_P*%
%TO.N,/TX_P*%
X104734999Y-70639999D03*
%TO.P,J20,65,NC65*%
%TO.N,unconnected-(J20-NC65-Pad65)*%
X97184999Y-70389999D03*
%TO.P,J20,66,NC66*%
%TO.N,unconnected-(J20-NC66-Pad66)*%
X104734999Y-70139999D03*
%TO.P,J20,67,NRST*%
%TO.N,/NRST*%
X97184999Y-69889999D03*
%TO.P,J20,68,NC68*%
%TO.N,unconnected-(J20-NC68-Pad68)*%
X104734999Y-69639999D03*
%TO.P,J20,69,NC69*%
%TO.N,unconnected-(J20-NC69-Pad69)*%
X97184999Y-69389999D03*
%TO.P,J20,70,VMODEM_P*%
%TO.N,VMODEM_P*%
X104734999Y-69139999D03*
%TO.P,J20,71,GND*%
%TO.N,GND*%
X97184999Y-68889999D03*
%TO.P,J20,72,VMODEM_P*%
%TO.N,VMODEM_P*%
X104734999Y-68639999D03*
%TO.P,J20,73,GND*%
%TO.N,GND*%
X97184999Y-68389999D03*
%TO.P,J20,74,VMODEM_P*%
%TO.N,VMODEM_P*%
X104734999Y-68139999D03*
%TO.P,J20,75,NC75*%
%TO.N,unconnected-(J20-NC75-Pad75)*%
X97184999Y-67889999D03*
D11*
%TO.P,J20,MP*%
%TO.N,N/C*%
X97959999Y-87489999D03*
X97959999Y-66789999D03*
%TD*%
D12*
%TO.P,J23,1*%
%TO.N,VBAT*%
X138005799Y-87013399D03*
%TO.P,J23,2*%
%TO.N,GND*%
X138005799Y-85013399D03*
D13*
%TO.P,J23,MP*%
%TO.N,N/C*%
X143755799Y-89363399D03*
X143755799Y-82663399D03*
%TD*%
D14*
%TO.P,FID1,*%
%TO.N,*%
X142741300Y-94341000D03*
%TD*%
%TO.P,FID2,*%
%TO.N,*%
X103000000Y-55500000D03*
%TD*%
D15*
%TO.P,LD1,1,K*%
%TO.N,Net-(LD1-K)*%
X143549999Y-91499999D03*
%TO.P,LD1,2,A*%
%TO.N,VUSB*%
X144449999Y-91499999D03*
%TD*%
D16*
%TO.P,OBJ1,1,1*%
%TO.N,GND*%
X135710000Y-77140000D03*
%TD*%
D17*
%TO.P,J19,1,VBUS*%
%TO.N,VUSB*%
X141884999Y-69339999D03*
%TO.P,J19,2,D-*%
%TO.N,/USB_DM*%
X141884999Y-68689999D03*
%TO.P,J19,3,D+*%
%TO.N,/USB_DP*%
X141884999Y-68039999D03*
%TO.P,J19,4,ID*%
%TO.N,unconnected-(J19-ID-Pad4)*%
X141884999Y-67389999D03*
%TO.P,J19,5,GND*%
%TO.N,GND*%
X141884999Y-66739999D03*
D18*
%TO.P,J19,6,Shield*%
%TO.N,Net-(J19-Shield)*%
X144559999Y-71839999D03*
D19*
X142009999Y-71089999D03*
D20*
X144559999Y-69239999D03*
X144559999Y-66839999D03*
D19*
X142009999Y-64989999D03*
D18*
X144559999Y-64239999D03*
%TD*%
D21*
%TO.P,J22,1,Pin_1*%
%TO.N,VMODEM*%
X105024999Y-60679999D03*
D22*
%TO.P,J22,2,Pin_2*%
%TO.N,/RX*%
X107564999Y-60679999D03*
%TO.P,J22,3,Pin_3*%
%TO.N,/TX*%
X110104999Y-60679999D03*
%TO.P,J22,4,Pin_4*%
%TO.N,/SDA*%
X112644999Y-60679999D03*
%TO.P,J22,5,Pin_5*%
%TO.N,/SCL*%
X115184999Y-60679999D03*
%TO.P,J22,6,Pin_6*%
%TO.N,/ATTN*%
X117724999Y-60679999D03*
%TO.P,J22,7,Pin_7*%
%TO.N,/RST*%
X120264999Y-60679999D03*
%TO.P,J22,8,Pin_8*%
%TO.N,/EN*%
X122804999Y-60679999D03*
%TO.P,J22,9,Pin_9*%
%TO.N,VBAT*%
X125344999Y-60679999D03*
%TO.P,J22,10,Pin_10*%
%TO.N,GND*%
X127884999Y-60679999D03*
%TD*%
D21*
%TO.P,J21,1,Pin_1*%
%TO.N,VIO*%
X127859999Y-93699999D03*
D22*
%TO.P,J21,2,Pin_2*%
%TO.N,VUSB*%
X125319999Y-93699999D03*
%TO.P,J21,3,Pin_3*%
%TO.N,/AUX_TX*%
X122779999Y-93699999D03*
%TO.P,J21,4,Pin_4*%
%TO.N,/AUX_RX*%
X120239999Y-93699999D03*
%TO.P,J21,5,Pin_5*%
%TO.N,/AUX_EN*%
X117699999Y-93699999D03*
%TO.P,J21,6,Pin_6*%
%TO.N,/AUX4*%
X115159999Y-93699999D03*
%TO.P,J21,7,Pin_7*%
%TO.N,/AUX3*%
X112619999Y-93699999D03*
%TO.P,J21,8,Pin_8*%
%TO.N,/AUX2*%
X110079999Y-93699999D03*
%TO.P,J21,9,Pin_9*%
%TO.N,/AUX1*%
X107539999Y-93699999D03*
%TO.P,J21,10,Pin_10*%
%TO.N,GND*%
X104999999Y-93699999D03*
%TD*%
D23*
%TO.N,+3V3*%
X134000000Y-71875000D03*
X127644300Y-71823600D03*
%TO.N,GND*%
X126070000Y-81120000D03*
X139000000Y-64000000D03*
X137500000Y-83750000D03*
X131325000Y-88300000D03*
D24*
X112400000Y-71900000D03*
X112300000Y-74615000D03*
D23*
X139200000Y-83600000D03*
D24*
X123386600Y-64638400D03*
X126250000Y-91000000D03*
X128750000Y-91000000D03*
X126750000Y-92000000D03*
X130250000Y-89750000D03*
X112310000Y-70040000D03*
X112240000Y-77286500D03*
X95909500Y-65496799D03*
X131500000Y-62500000D03*
D23*
X134500000Y-64250000D03*
D24*
X130491600Y-63278200D03*
D23*
X143750000Y-60750000D03*
D24*
X103000000Y-63250000D03*
X104250000Y-63500000D03*
X103250000Y-64500000D03*
X105250000Y-64500000D03*
X140000000Y-63500000D03*
X132750000Y-63250000D03*
D23*
X127190000Y-83150000D03*
D24*
X131500000Y-63250000D03*
X139000000Y-66750000D03*
X130500000Y-62500000D03*
D23*
X128000000Y-81250000D03*
D24*
X133750000Y-63750000D03*
X139500000Y-62500000D03*
X138250000Y-63250000D03*
X127630300Y-67476200D03*
D23*
X129700000Y-86400000D03*
D24*
X112745300Y-67492200D03*
X111099400Y-67554700D03*
X101611900Y-63637100D03*
X99559800Y-65471599D03*
X100428400Y-64817100D03*
X99461300Y-63971100D03*
X97382200Y-65471599D03*
X98502500Y-65484200D03*
X126877900Y-70861100D03*
X127744200Y-69994800D03*
X125873900Y-71865000D03*
X122865700Y-72185800D03*
X123977600Y-71073800D03*
X125152900Y-69898600D03*
D23*
X141500000Y-60750000D03*
X130550000Y-73594000D03*
X128510000Y-83710000D03*
X130880000Y-77590000D03*
D24*
X126563500Y-68488000D03*
X110108000Y-68465000D03*
X110076100Y-71115000D03*
X103236900Y-68586700D03*
X101071800Y-68070600D03*
X101852300Y-69707000D03*
X99926200Y-71324600D03*
X122906700Y-74832300D03*
X124018600Y-73720400D03*
X124946300Y-72792600D03*
X122049000Y-76908300D03*
D23*
X130890000Y-78860000D03*
D24*
X119683300Y-76383400D03*
X121947300Y-75791700D03*
D23*
X101219700Y-85713700D03*
D24*
X120042700Y-75587200D03*
X120737100Y-74314400D03*
X121766500Y-73285000D03*
X116830300Y-76281700D03*
X114235600Y-77154500D03*
X116001700Y-76818200D03*
X109400000Y-75600000D03*
X99813000Y-73986900D03*
X101336200Y-72854000D03*
X103009000Y-76493000D03*
X122247900Y-78187300D03*
X121375000Y-80375000D03*
X121542600Y-78943400D03*
X119630400Y-81052600D03*
X119730700Y-78718200D03*
X120608600Y-79686800D03*
X113075000Y-81034600D03*
X113075000Y-79573300D03*
X113236500Y-78155700D03*
X114975000Y-80755300D03*
X114975000Y-79446400D03*
X116855600Y-78718200D03*
X109770200Y-78314800D03*
X106122000Y-79196900D03*
X126880000Y-86310500D03*
X125600000Y-84450000D03*
X119689500Y-83042600D03*
X118443600Y-84237100D03*
X121085000Y-82862000D03*
X113505000Y-85509400D03*
X115000000Y-85375000D03*
X118125000Y-82875000D03*
X113075000Y-82477300D03*
D23*
X135750000Y-85750000D03*
D24*
X114148700Y-84731200D03*
X114973000Y-83686800D03*
X114975000Y-82267500D03*
X108132800Y-83670400D03*
X108720200Y-85637100D03*
X109920700Y-85628600D03*
X109224000Y-83691900D03*
X110316900Y-83691900D03*
D23*
X131150000Y-74426500D03*
D24*
X111972500Y-83661900D03*
X112738900Y-83453500D03*
X112337200Y-85604800D03*
X107145200Y-83653400D03*
X107502800Y-85637100D03*
X106199500Y-83691900D03*
D23*
X130400000Y-72622000D03*
D24*
X98889300Y-83374600D03*
X99127900Y-85886600D03*
X100107600Y-85685600D03*
X102493900Y-85647900D03*
X102983700Y-83563000D03*
X101979000Y-83575600D03*
X100873700Y-83575600D03*
X99831300Y-83588200D03*
X103407700Y-85662600D03*
X126835000Y-88345500D03*
D23*
X140000000Y-61250000D03*
D24*
X128500000Y-88000000D03*
X124310900Y-90529600D03*
D23*
X128000000Y-82500000D03*
D24*
X122115000Y-87617000D03*
X123306000Y-88377300D03*
X120980000Y-88397000D03*
X118930000Y-87580000D03*
D23*
X135803900Y-84500000D03*
X140000000Y-67000000D03*
X130245000Y-71751500D03*
X127100000Y-81980000D03*
%TO.N,VMODEM*%
X132375000Y-73750000D03*
X131250000Y-81625000D03*
D24*
X108999600Y-66433300D03*
X109861600Y-67339300D03*
D23*
X126973000Y-66478600D03*
D24*
X109867900Y-66508799D03*
X121890800Y-85113400D03*
X127750000Y-87125000D03*
X123991600Y-85990000D03*
D23*
X127750000Y-66478600D03*
%TO.N,VUSB*%
X131000000Y-86500000D03*
X141675000Y-81075000D03*
X136250000Y-82500000D03*
X141000000Y-73250000D03*
D24*
%TO.N,VIO_P*%
X110401000Y-86656000D03*
X110956000Y-86978500D03*
X110392500Y-87336100D03*
%TO.N,VMODEM_P*%
X106146000Y-68140000D03*
X106142100Y-68640000D03*
X106148900Y-69140000D03*
%TO.N,/EN*%
X119140000Y-79370000D03*
X125188500Y-86115200D03*
X122505900Y-86514600D03*
X125500000Y-67975000D03*
D23*
%TO.N,VBAT*%
X143686600Y-87013400D03*
X139000000Y-71473000D03*
X139000000Y-72250000D03*
X142800000Y-87013400D03*
D24*
%TO.N,VIO*%
X114727900Y-86665800D03*
X114779300Y-87338600D03*
X114246600Y-86984200D03*
X111230000Y-79270000D03*
%TO.N,/SDA_P*%
X127000000Y-79875000D03*
X112212000Y-75665000D03*
%TO.N,/SCL_P*%
X110108000Y-77015000D03*
X111978500Y-76381800D03*
X127000000Y-80625000D03*
%TO.N,/AUX_TX_P*%
X103342200Y-71640000D03*
X112300000Y-70865000D03*
%TO.N,/AUX_RX_P*%
X110108000Y-72215000D03*
X113025000Y-72325000D03*
%TO.N,/AUX_EN_P*%
X103608000Y-72640000D03*
X112312000Y-73265000D03*
%TO.N,/ATTN_P*%
X110100000Y-74400000D03*
X112560000Y-73940000D03*
%TO.N,/TX_P*%
X112212000Y-68465000D03*
%TO.N,/RX_P*%
X110010000Y-70268000D03*
X113085000Y-69265000D03*
%TO.N,VACT_GPS_OUT*%
X103468400Y-81887100D03*
%TO.N,/USB_DM*%
X99101400Y-84170200D03*
X121410300Y-78104100D03*
%TO.N,/USB_DP*%
X99101400Y-85184900D03*
X120692700Y-78821700D03*
%TO.N,/AUX5*%
X112500000Y-78125000D03*
D23*
X135400000Y-89400000D03*
D24*
%TO.N,/AUX1*%
X100044600Y-75140000D03*
%TO.N,/AUX2*%
X100648800Y-74615000D03*
%TO.N,/AUX3*%
X101479500Y-74115000D03*
%TO.N,/AUX4*%
X102121500Y-73615000D03*
%TO.N,/NRST*%
X120900600Y-65653600D03*
%TO.N,/AUX_TX*%
X117460000Y-80500000D03*
X118862000Y-71590000D03*
%TO.N,/AUX_RX*%
X119260000Y-72115000D03*
X117985000Y-79705000D03*
%TO.N,/AUX_EN*%
X118862000Y-72640000D03*
X118494400Y-79294000D03*
%TO.N,/ATTN*%
X122060000Y-68890000D03*
X119260000Y-73165000D03*
D23*
%TO.N,Net-(LD1-K)*%
X135500000Y-87000000D03*
D24*
%TO.N,Net-(U3-EN)*%
X125035000Y-78904500D03*
X128095000Y-77000000D03*
%TO.N,Net-(U4-CTRL)*%
X123941200Y-85341900D03*
X120784600Y-85076300D03*
%TO.N,/BOOST_EN*%
X122355000Y-83938500D03*
X123993000Y-84637000D03*
%TO.N,Net-(J19-Shield)*%
X139250000Y-65500000D03*
%TO.N,Net-(J20-VACT_GPS_IN)*%
X103337800Y-80600100D03*
%TD*%
D25*
%TO.N,+3V3*%
X128967900Y-70500000D02*
X127644300Y-71823600D01*
X132625000Y-70500000D02*
X128967900Y-70500000D01*
X134000000Y-71875000D02*
X132625000Y-70500000D01*
D26*
%TO.N,GND*%
X95868900Y-75390000D02*
X97185000Y-75390000D01*
D27*
X141885000Y-66740000D02*
X140260000Y-66740000D01*
D26*
X98234900Y-85390000D02*
X97185000Y-85390000D01*
X95786200Y-73890000D02*
X97185000Y-73890000D01*
X95763900Y-72390000D02*
X97185000Y-72390000D01*
X95795500Y-76890000D02*
X97185000Y-76890000D01*
X98600400Y-75390000D02*
X97185000Y-75390000D01*
X98249200Y-85890000D02*
X97185000Y-85890000D01*
D27*
X110498600Y-68074900D02*
X111018800Y-67554700D01*
D26*
X98263600Y-83890000D02*
X97185000Y-83890000D01*
X98664500Y-76890000D02*
X97185000Y-76890000D01*
X98281200Y-85436300D02*
X98234900Y-85390000D01*
X98526100Y-68890000D02*
X97185000Y-68890000D01*
X98293800Y-85845400D02*
X98249200Y-85890000D01*
X98482000Y-72390000D02*
X97185000Y-72390000D01*
D27*
X110490000Y-68083500D02*
X110108500Y-68465000D01*
D26*
X98573000Y-73890000D02*
X97185000Y-73890000D01*
X97185000Y-78390000D02*
X98775600Y-78390000D01*
X98529500Y-68390000D02*
X97185000Y-68390000D01*
D28*
X97185000Y-78718200D02*
X97185000Y-78390000D01*
D26*
X95729500Y-78390000D02*
X97185000Y-78390000D01*
D28*
X105977900Y-82140000D02*
X104735000Y-82140000D01*
D27*
X140260000Y-66740000D02*
X140000000Y-67000000D01*
X111018800Y-67554700D02*
X111099400Y-67554700D01*
D28*
%TO.N,VMODEM*%
X122054200Y-84950000D02*
X122645800Y-84950000D01*
D29*
X132375000Y-73750000D02*
X132062500Y-74062500D01*
D28*
X123685800Y-85990000D02*
X123991600Y-85990000D01*
X122645800Y-84950000D02*
X123685800Y-85990000D01*
X127750000Y-87125000D02*
X127750000Y-88500000D01*
X121590000Y-87890000D02*
X121590000Y-85414200D01*
X127284400Y-88965600D02*
X122665600Y-88965600D01*
D30*
X126973000Y-66478600D02*
X127750000Y-66478600D01*
D28*
X127750000Y-88500000D02*
X127284400Y-88965600D01*
D29*
X132062500Y-80812500D02*
X131250000Y-81625000D01*
D28*
X122665600Y-88965600D02*
X121590000Y-87890000D01*
X121890800Y-85113400D02*
X122054200Y-84950000D01*
D29*
X132062500Y-74062500D02*
X132062500Y-80812500D01*
D28*
X121590000Y-85414200D02*
X121890800Y-85113400D01*
D30*
X109898100Y-66478600D02*
X126973000Y-66478600D01*
D29*
%TO.N,VUSB*%
X102347400Y-90213800D02*
X103608100Y-91474500D01*
D25*
X143250000Y-75500000D02*
X141000000Y-73250000D01*
D29*
X125320000Y-92198600D02*
X125320000Y-93700000D01*
D25*
X143250000Y-79500000D02*
X143250000Y-75500000D01*
D29*
X124595900Y-91474500D02*
X125320000Y-92198600D01*
X144100000Y-92400000D02*
X139400000Y-92400000D01*
D25*
X131000000Y-86500000D02*
X131000000Y-85000000D01*
D26*
X96082800Y-83390000D02*
X95640000Y-83832800D01*
D25*
X131000000Y-85000000D02*
X133500000Y-82500000D01*
X140250000Y-70000000D02*
X140250000Y-72500000D01*
D29*
X103608100Y-91474500D02*
X124595900Y-91474500D01*
X95640000Y-89165800D02*
X96688000Y-90213800D01*
D27*
X141885000Y-69340000D02*
X140920000Y-69340000D01*
D25*
X140250000Y-72500000D02*
X141000000Y-73250000D01*
D27*
X140920000Y-69340000D02*
X140581500Y-69678500D01*
D29*
X144450000Y-92050000D02*
X144100000Y-92400000D01*
D27*
X140571500Y-69678500D02*
X140250000Y-70000000D01*
D29*
X95640000Y-83832800D02*
X95640000Y-89165800D01*
D25*
X141675000Y-81075000D02*
X143250000Y-79500000D01*
X133500000Y-82500000D02*
X136250000Y-82500000D01*
D29*
X96688000Y-90213800D02*
X102347400Y-90213800D01*
D26*
X133500000Y-86500000D02*
X131000000Y-86500000D01*
X97185000Y-83390000D02*
X96082800Y-83390000D01*
D29*
X144450000Y-91500000D02*
X144450000Y-92050000D01*
D26*
X139400000Y-92400000D02*
X133500000Y-86500000D01*
%TO.N,VIO_P*%
X104735000Y-85640000D02*
X106113900Y-85640000D01*
X110382100Y-87316700D02*
X106716500Y-87316700D01*
X106113900Y-85640000D02*
X107129900Y-86656000D01*
X106716500Y-87316700D02*
X105539800Y-86140000D01*
X105539800Y-86140000D02*
X104735000Y-86140000D01*
X107129900Y-86656000D02*
X110401000Y-86656000D01*
%TO.N,VMODEM_P*%
X104735000Y-69140000D02*
X106148900Y-69140000D01*
X104735000Y-68640000D02*
X106142100Y-68640000D01*
X104735000Y-68140000D02*
X106146000Y-68140000D01*
D28*
%TO.N,/EN*%
X119140000Y-74200700D02*
X120210000Y-73130700D01*
X119140000Y-79370000D02*
X119140000Y-74200700D01*
X124209500Y-86514600D02*
X124935400Y-86514600D01*
X122505900Y-86514600D02*
X123773700Y-86514600D01*
X123739400Y-67975000D02*
X125500000Y-67975000D01*
X120210000Y-71504400D02*
X123739400Y-67975000D01*
X123774100Y-86515000D02*
X124209100Y-86515000D01*
X120210000Y-73130700D02*
X120210000Y-71504400D01*
X124935400Y-86514600D02*
X125178200Y-86271800D01*
X125178200Y-86271800D02*
X125178200Y-86125500D01*
D31*
%TO.N,VBAT*%
X142800000Y-87013400D02*
X140076800Y-87013400D01*
X140076800Y-87013400D02*
X140650000Y-86440200D01*
X139000000Y-72250000D02*
X139000000Y-71473000D01*
X142800000Y-87013400D02*
X143686600Y-87013400D01*
X139000000Y-73999900D02*
X139000000Y-72250000D01*
X138005800Y-87013400D02*
X140076800Y-87013400D01*
X140650000Y-86440200D02*
X140650000Y-75649900D01*
X140650000Y-75649900D02*
X139000000Y-73999900D01*
D27*
%TO.N,VIO*%
X111255900Y-79295900D02*
X111250800Y-85625900D01*
D25*
X127875000Y-91136800D02*
X126488200Y-89750000D01*
X117190700Y-89750000D02*
X114779300Y-87338600D01*
D27*
X111250800Y-85625900D02*
X112609100Y-86984200D01*
D25*
X126488200Y-89750000D02*
X117190700Y-89750000D01*
D27*
X112609100Y-86984200D02*
X114246600Y-86984200D01*
D25*
X127875000Y-93685000D02*
X127875000Y-91136800D01*
D28*
%TO.N,/SDA_P*%
X114665000Y-75665000D02*
X115476700Y-76476700D01*
X116725000Y-81600000D02*
X121150000Y-81600000D01*
X104683200Y-76146800D02*
X111353200Y-76146800D01*
X126875000Y-80000000D02*
X127000000Y-79875000D01*
X122750000Y-80000000D02*
X126875000Y-80000000D01*
X111835000Y-75665000D02*
X112212000Y-75665000D01*
X116250000Y-78875000D02*
X116250000Y-81125000D01*
X112212000Y-75665000D02*
X114665000Y-75665000D01*
X116250000Y-81125000D02*
X116725000Y-81600000D01*
X121150000Y-81600000D02*
X122750000Y-80000000D01*
X115476700Y-76476700D02*
X115476700Y-78101700D01*
X115476700Y-78101700D02*
X116250000Y-78875000D01*
X111353200Y-76146800D02*
X111835000Y-75665000D01*
%TO.N,/SCL_P*%
X126875000Y-80500000D02*
X126334000Y-80500000D01*
X115076700Y-78267400D02*
X115076700Y-76701700D01*
X115850000Y-81290700D02*
X115850000Y-79040700D01*
X104765000Y-76637700D02*
X109730700Y-76637700D01*
X111870300Y-76490000D02*
X111659900Y-76490000D01*
X127000000Y-80625000D02*
X126875000Y-80500000D01*
X112810000Y-76065000D02*
X112500000Y-76375000D01*
X109730700Y-76637700D02*
X110108000Y-77015000D01*
X126329000Y-80495000D02*
X125811000Y-80495000D01*
X121375000Y-82000000D02*
X116559300Y-82000000D01*
X112500000Y-76375000D02*
X111985300Y-76375000D01*
X125806000Y-80500000D02*
X122875000Y-80500000D01*
X114440000Y-76065000D02*
X112810000Y-76065000D01*
X111978500Y-76381800D02*
X111870300Y-76490000D01*
X115076700Y-76701700D02*
X114440000Y-76065000D01*
X111659900Y-76490000D02*
X111134900Y-77015000D01*
X115850000Y-79040700D02*
X115076700Y-78267400D01*
X122875000Y-80500000D02*
X121375000Y-82000000D01*
X116559300Y-82000000D02*
X115850000Y-81290700D01*
X111134900Y-77015000D02*
X110108000Y-77015000D01*
%TO.N,/AUX_TX_P*%
X111537000Y-71640000D02*
X104735000Y-71640000D01*
X103342200Y-71640000D02*
X104735000Y-71640000D01*
X112300000Y-70877000D02*
X111537000Y-71640000D01*
%TO.N,/AUX_RX_P*%
X112610000Y-72740000D02*
X110633000Y-72740000D01*
X109656000Y-72215000D02*
X110108000Y-72215000D01*
X109579100Y-72138100D02*
X109656000Y-72215000D01*
X104752000Y-72138100D02*
X109579100Y-72138100D01*
X113025000Y-72325000D02*
X112610000Y-72740000D01*
X110633000Y-72740000D02*
X110108000Y-72215000D01*
%TO.N,/AUX_EN_P*%
X111837000Y-73740000D02*
X110300000Y-73740000D01*
X110300000Y-73740000D02*
X110100000Y-73540000D01*
X104735000Y-72640000D02*
X103608000Y-72640000D01*
X110100000Y-73540000D02*
X110100000Y-73122500D01*
X109617500Y-72640000D02*
X104735000Y-72640000D01*
X112312000Y-73265000D02*
X111837000Y-73740000D01*
X110100000Y-73122500D02*
X109617500Y-72640000D01*
%TO.N,/ATTN_P*%
X110100000Y-74400000D02*
X109792500Y-74400000D01*
X110323000Y-74400000D02*
X110100000Y-74400000D01*
X110583000Y-74140000D02*
X110323000Y-74400000D01*
X109792500Y-74400000D02*
X108532500Y-73140000D01*
X108532500Y-73140000D02*
X104735000Y-73140000D01*
X112002700Y-74140000D02*
X110583000Y-74140000D01*
X112202700Y-73940000D02*
X112002700Y-74140000D01*
X112560000Y-73940000D02*
X112202700Y-73940000D01*
%TO.N,/TX_P*%
X110985100Y-68465000D02*
X108810100Y-70640000D01*
X112212000Y-68465000D02*
X110985100Y-68465000D01*
X108810100Y-70640000D02*
X104735000Y-70640000D01*
%TO.N,/RX_P*%
X111013000Y-69265000D02*
X110010000Y-70268000D01*
X104682900Y-71131000D02*
X109147000Y-71131000D01*
X109147000Y-71131000D02*
X110010000Y-70268000D01*
X113085000Y-69265000D02*
X111013000Y-69265000D01*
D26*
%TO.N,VACT_GPS_OUT*%
X104735000Y-81640000D02*
X103715500Y-81640000D01*
X103715500Y-81640000D02*
X103468400Y-81887100D01*
D27*
%TO.N,/USB_DM*%
X140686100Y-68690000D02*
X140322600Y-69053500D01*
D26*
X98105000Y-84390000D02*
X98155000Y-84440000D01*
X97185000Y-84390000D02*
X98105000Y-84390000D01*
X98417400Y-84439900D02*
X98831700Y-84439900D01*
D32*
X121292700Y-75526800D02*
X121292700Y-77986500D01*
X121292700Y-77986500D02*
X121410300Y-78104100D01*
D26*
X98155000Y-84440000D02*
X98417300Y-84440000D01*
D32*
X127766000Y-69053500D02*
X121292700Y-75526800D01*
D27*
X141885000Y-68690000D02*
X140686100Y-68690000D01*
D26*
X98831700Y-84439900D02*
X99101400Y-84170200D01*
D32*
X140322600Y-69053500D02*
X127766000Y-69053500D01*
D27*
%TO.N,/USB_DP*%
X141885000Y-68040000D02*
X140558200Y-68040000D01*
D26*
X98806500Y-84890000D02*
X99101400Y-85184900D01*
D32*
X140109400Y-68453500D02*
X127517400Y-68453500D01*
X120692700Y-75278200D02*
X120692700Y-78821700D01*
D26*
X97185000Y-84890000D02*
X98806500Y-84890000D01*
D32*
X127517400Y-68453500D02*
X120692700Y-75278200D01*
D27*
X140558200Y-68040000D02*
X140144700Y-68453500D01*
D28*
%TO.N,/AUX5*%
X112500000Y-78125000D02*
X111000000Y-78125000D01*
X115500000Y-81700000D02*
X112900000Y-81700000D01*
X112500000Y-81300000D02*
X112500000Y-78125000D01*
X121400000Y-83600000D02*
X117400000Y-83600000D01*
X112900000Y-81700000D02*
X112500000Y-81300000D01*
X111000000Y-78125000D02*
X110625000Y-77750000D01*
X117400000Y-83600000D02*
X115500000Y-81700000D01*
X135400000Y-89400000D02*
X131300000Y-89400000D01*
X109375000Y-77750000D02*
X108765000Y-77140000D01*
X121700000Y-83300000D02*
X121400000Y-83600000D01*
X131300000Y-89400000D02*
X125200000Y-83300000D01*
X108765000Y-77140000D02*
X104735000Y-77140000D01*
X125200000Y-83300000D02*
X121700000Y-83300000D01*
X110625000Y-77750000D02*
X109375000Y-77750000D01*
%TO.N,/AUX1*%
X104735000Y-75140000D02*
X100044600Y-75140000D01*
%TO.N,/AUX2*%
X104735000Y-74640000D02*
X100673800Y-74640000D01*
%TO.N,/AUX3*%
X104735000Y-74140000D02*
X101504500Y-74140000D01*
%TO.N,/AUX4*%
X104735000Y-73640000D02*
X102146500Y-73640000D01*
%TO.N,/NRST*%
X101278500Y-65653600D02*
X120900600Y-65653600D01*
X97185000Y-69890000D02*
X99813300Y-69890000D01*
X100185000Y-66747100D02*
X101278500Y-65653600D01*
X99813300Y-69890000D02*
X100185000Y-69518300D01*
X100185000Y-69518300D02*
X100185000Y-66747100D01*
%TO.N,/AUX_TX*%
X117460000Y-72733800D02*
X118603800Y-71590000D01*
X118603800Y-71590000D02*
X118862000Y-71590000D01*
X117460000Y-80500000D02*
X117460000Y-72733800D01*
%TO.N,/AUX_RX*%
X118644500Y-72115000D02*
X117971500Y-72788000D01*
X117969400Y-79076500D02*
X117969400Y-79511500D01*
X119260000Y-72115000D02*
X118644500Y-72115000D01*
X117971500Y-72788000D02*
X117971500Y-79074400D01*
X117985000Y-79527100D02*
X117985000Y-79705000D01*
%TO.N,/AUX_EN*%
X118539000Y-72963000D02*
X118862000Y-72640000D01*
X118539000Y-79249400D02*
X118539000Y-72963000D01*
%TO.N,/ATTN*%
X119610000Y-73165000D02*
X119260000Y-73165000D01*
X119810000Y-72965000D02*
X119610000Y-73165000D01*
X122060000Y-68890000D02*
X119810000Y-71140000D01*
X119810000Y-71140000D02*
X119810000Y-72965000D01*
D26*
%TO.N,Net-(LD1-K)*%
X139747400Y-91500000D02*
X135500000Y-87252600D01*
D29*
X143550000Y-91500000D02*
X139747400Y-91500000D01*
D28*
%TO.N,Net-(U3-EN)*%
X127625000Y-78625000D02*
X125314500Y-78625000D01*
X125314500Y-78625000D02*
X125035000Y-78904500D01*
X128095000Y-77000000D02*
X128095000Y-78155000D01*
X128095000Y-78155000D02*
X127625000Y-78625000D01*
%TO.N,Net-(U4-CTRL)*%
X120784600Y-85076300D02*
X121397400Y-84463500D01*
X123062800Y-84463500D02*
X123941200Y-85341900D01*
X121397400Y-84463500D02*
X123062800Y-84463500D01*
%TO.N,/BOOST_EN*%
X123294500Y-83938500D02*
X122355000Y-83938500D01*
X123993000Y-84637000D02*
X123294500Y-83938500D01*
D30*
%TO.N,Net-(J19-Shield)*%
X142760000Y-64240000D02*
X142010000Y-64990000D01*
D33*
X144560000Y-64240000D02*
X144560000Y-66840000D01*
X144560000Y-69240000D02*
X144560000Y-66840000D01*
D30*
X144560000Y-64240000D02*
X142760000Y-64240000D01*
X139250000Y-65500000D02*
X141500000Y-65500000D01*
D33*
X142010000Y-71090000D02*
X142760000Y-71840000D01*
X144560000Y-69240000D02*
X144560000Y-71840000D01*
X142760000Y-71840000D02*
X144560000Y-71840000D01*
D30*
X141500000Y-65500000D02*
X142010000Y-64990000D01*
D26*
%TO.N,Net-(J20-VACT_GPS_IN)*%
X104735000Y-81140000D02*
X103815000Y-81140000D01*
X103815000Y-81140000D02*
X103337800Y-80662800D01*
X103337800Y-80662800D02*
X103337800Y-80600100D01*
%TD*%
%TA.AperFunction,Conductor*%
%TO.N,VIO_P*%
G36*
X110621878Y-86382536D02*
G01*
X110653996Y-86403996D01*
X111096004Y-86846004D01*
X111117464Y-86878122D01*
X111125000Y-86916008D01*
X111125000Y-87333992D01*
X111117464Y-87371878D01*
X111096004Y-87403996D01*
X110903996Y-87596004D01*
X110871878Y-87617464D01*
X110833992Y-87625000D01*
X110099000Y-87625000D01*
X110049500Y-87611737D01*
X110013263Y-87575500D01*
X110000000Y-87526000D01*
X110000000Y-86474000D01*
X110013263Y-86424500D01*
X110049500Y-86388263D01*
X110099000Y-86375000D01*
X110583992Y-86375000D01*
X110621878Y-86382536D01*
G37*
%TD.AperFunction*%
%TD*%
%TA.AperFunction,Conductor*%
%TO.N,VMODEM*%
G36*
X110201032Y-66113941D02*
G01*
X110237798Y-66149429D01*
X110251970Y-66198523D01*
X110274156Y-67307835D01*
X110267014Y-67346784D01*
X110245180Y-67379818D01*
X109903996Y-67721003D01*
X109871878Y-67742464D01*
X109833992Y-67750000D01*
X108724000Y-67750000D01*
X108674500Y-67736737D01*
X108638263Y-67700500D01*
X108625000Y-67651000D01*
X108625000Y-66222488D01*
X108638011Y-66173428D01*
X108673623Y-66137264D01*
X108722475Y-66123500D01*
X110151470Y-66101515D01*
X110201032Y-66113941D01*
G37*
%TD.AperFunction*%
%TD*%
%TA.AperFunction,Conductor*%
%TO.N,GND*%
G36*
X125089881Y-83614852D02*
G01*
X131047990Y-89572961D01*
X131052445Y-89578079D01*
X131054015Y-89580158D01*
X131056042Y-89584228D01*
X131059401Y-89587290D01*
X131091584Y-89616629D01*
X131093221Y-89618192D01*
X131107203Y-89632174D01*
X131110155Y-89634196D01*
X131115476Y-89638411D01*
X131135708Y-89656855D01*
X131135711Y-89656857D01*
X131139067Y-89659916D01*
X131153639Y-89665561D01*
X131163627Y-89670826D01*
X131172773Y-89677091D01*
X131172776Y-89677092D01*
X131176520Y-89679657D01*
X131207599Y-89686967D01*
X131214055Y-89688966D01*
X131243827Y-89700500D01*
X131259454Y-89700500D01*
X131270672Y-89701801D01*
X131285881Y-89705379D01*
X131317486Y-89700970D01*
X131324257Y-89700500D01*
X134944040Y-89700500D01*
X134965712Y-89705553D01*
X134982912Y-89719670D01*
X135025209Y-89774791D01*
X135027753Y-89776743D01*
X135027754Y-89776744D01*
X135100263Y-89832383D01*
X135134982Y-89859024D01*
X135137949Y-89860253D01*
X135137951Y-89860254D01*
X135169861Y-89873471D01*
X135262817Y-89911974D01*
X135400000Y-89930035D01*
X135537183Y-89911974D01*
X135665018Y-89859024D01*
X135774791Y-89774791D01*
X135859024Y-89665018D01*
X135911974Y-89537183D01*
X135914073Y-89521237D01*
X135931157Y-89490096D01*
X135964791Y-89478679D01*
X135997302Y-89492984D01*
X137646277Y-91141959D01*
X137660489Y-91172910D01*
X137651096Y-91205647D01*
X137622636Y-91224355D01*
X137588858Y-91219994D01*
X137310477Y-91073889D01*
X137294354Y-91065427D01*
X136909039Y-90908545D01*
X136907913Y-90908209D01*
X136907896Y-90908203D01*
X136511512Y-90789920D01*
X136511496Y-90789916D01*
X136510380Y-90789583D01*
X136509232Y-90789358D01*
X136509219Y-90789355D01*
X136103269Y-90709880D01*
X136103259Y-90709878D01*
X136102102Y-90709652D01*
X136100918Y-90709537D01*
X136100917Y-90709537D01*
X135689205Y-90669615D01*
X135689197Y-90669614D01*
X135688015Y-90669500D01*
X135376052Y-90669500D01*
X135375487Y-90669527D01*
X135375458Y-90669528D01*
X135065630Y-90684515D01*
X135065624Y-90684515D01*
X135064457Y-90684572D01*
X135063310Y-90684739D01*
X135063294Y-90684741D01*
X134653970Y-90744511D01*
X134653967Y-90744511D01*
X134652793Y-90744683D01*
X134651643Y-90744966D01*
X134651635Y-90744968D01*
X134250005Y-90843961D01*
X134249984Y-90843967D01*
X134248853Y-90844246D01*
X134247743Y-90844636D01*
X134247728Y-90844641D01*
X133857525Y-90981935D01*
X133857507Y-90981942D01*
X133856408Y-90982329D01*
X133855344Y-90982823D01*
X133855340Y-90982825D01*
X133480187Y-91157148D01*
X133480176Y-91157153D01*
X133479121Y-91157644D01*
X133478120Y-91158232D01*
X133478108Y-91158239D01*
X133121530Y-91367957D01*
X133121512Y-91367968D01*
X133120517Y-91368554D01*
X133119569Y-91369242D01*
X133119561Y-91369248D01*
X132784903Y-91612391D01*
X132784892Y-91612399D01*
X132783942Y-91613090D01*
X132783060Y-91613871D01*
X132783053Y-91613877D01*
X132473433Y-91888177D01*
X132473423Y-91888186D01*
X132472540Y-91888969D01*
X132471738Y-91889830D01*
X132471727Y-91889842D01*
X132190019Y-92192750D01*
X132190004Y-92192767D01*
X132189217Y-92193614D01*
X132188512Y-92194536D01*
X132188499Y-92194552D01*
X131937345Y-92523231D01*
X131937336Y-92523243D01*
X131936620Y-92524181D01*
X131936000Y-92525178D01*
X131935989Y-92525195D01*
X131717727Y-92876585D01*
X131717106Y-92877585D01*
X131716587Y-92878633D01*
X131716584Y-92878640D01*
X131533250Y-93249463D01*
X131533242Y-93249480D01*
X131532726Y-93250525D01*
X131532315Y-93251608D01*
X131532307Y-93251627D01*
X131385617Y-93638417D01*
X131385611Y-93638434D01*
X131385200Y-93639519D01*
X131384892Y-93640647D01*
X131384890Y-93640656D01*
X131276216Y-94039793D01*
X131276211Y-94039811D01*
X131275906Y-94040935D01*
X131275709Y-94042086D01*
X131275707Y-94042097D01*
X131206063Y-94449859D01*
X131205864Y-94451026D01*
X131205778Y-94452201D01*
X131205777Y-94452215D01*
X131175815Y-94864768D01*
X131175814Y-94864782D01*
X131175729Y-94865962D01*
X131175829Y-94870084D01*
X131185753Y-95280696D01*
X131185753Y-95280708D01*
X131185782Y-95281870D01*
X131185922Y-95283025D01*
X131185923Y-95283035D01*
X131230693Y-95651746D01*
X131235929Y-95694866D01*
X131236183Y-95696019D01*
X131236184Y-95696020D01*
X131325445Y-96099939D01*
X131325449Y-96099953D01*
X131325701Y-96101094D01*
X131326064Y-96102213D01*
X131326066Y-96102218D01*
X131390485Y-96300481D01*
X131454261Y-96496761D01*
X131454730Y-96497838D01*
X131454734Y-96497848D01*
X131619933Y-96877083D01*
X131619939Y-96877095D01*
X131620409Y-96878174D01*
X131620984Y-96879209D01*
X131620990Y-96879220D01*
X131722272Y-97061359D01*
X131822592Y-97241770D01*
X131823265Y-97242745D01*
X131823270Y-97242753D01*
X132058244Y-97583171D01*
X132058252Y-97583181D01*
X132058924Y-97584155D01*
X132327197Y-97902133D01*
X132328047Y-97902962D01*
X132328051Y-97902967D01*
X132618356Y-98186340D01*
X132624907Y-98192734D01*
X132949274Y-98453245D01*
X133297270Y-98681235D01*
X133665646Y-98874573D01*
X133741893Y-98905617D01*
X133766524Y-98927706D01*
X133771502Y-98960414D01*
X133754557Y-98988831D01*
X133723415Y-99000000D01*
X101674228Y-99000000D01*
X101643545Y-98989204D01*
X101626382Y-98961573D01*
X101630303Y-98929284D01*
X101653579Y-98906563D01*
X101722423Y-98874573D01*
X101920879Y-98782356D01*
X102279483Y-98571446D01*
X102616058Y-98326910D01*
X102927460Y-98051031D01*
X103210783Y-97746386D01*
X103463380Y-97415819D01*
X103682894Y-97062415D01*
X103867274Y-96689475D01*
X104014800Y-96300481D01*
X104124094Y-95899065D01*
X104194136Y-95488974D01*
X104224271Y-95074038D01*
X104214218Y-94658130D01*
X104164071Y-94245134D01*
X104074299Y-93838906D01*
X103945739Y-93443239D01*
X103779591Y-93061826D01*
X103577408Y-92698230D01*
X103499560Y-92585448D01*
X103341755Y-92356828D01*
X103341750Y-92356821D01*
X103341076Y-92355845D01*
X103072803Y-92037867D01*
X103032975Y-91998990D01*
X102775952Y-91748104D01*
X102775946Y-91748099D01*
X102775093Y-91747266D01*
X102450726Y-91486755D01*
X102102730Y-91258765D01*
X102101679Y-91258213D01*
X102101675Y-91258211D01*
X101750477Y-91073889D01*
X101734354Y-91065427D01*
X101349039Y-90908545D01*
X101347913Y-90908209D01*
X101347896Y-90908203D01*
X100951512Y-90789920D01*
X100951496Y-90789916D01*
X100950380Y-90789583D01*
X100949232Y-90789358D01*
X100949219Y-90789355D01*
X100806358Y-90761387D01*
X100776481Y-90742578D01*
X100767001Y-90708571D01*
X100782838Y-90677018D01*
X100815772Y-90664300D01*
X102140500Y-90664300D01*
X102175148Y-90678652D01*
X103269707Y-91773210D01*
X103273369Y-91777307D01*
X103298221Y-91808470D01*
X103301249Y-91810535D01*
X103301252Y-91810537D01*
X103346630Y-91841475D01*
X103348124Y-91842536D01*
X103392262Y-91875112D01*
X103392265Y-91875113D01*
X103395218Y-91877293D01*
X103398682Y-91878505D01*
X103401933Y-91880223D01*
X103401871Y-91880339D01*
X103404025Y-91881426D01*
X103404082Y-91881309D01*
X103407392Y-91882902D01*
X103410427Y-91884972D01*
X103462786Y-91901122D01*
X103466395Y-91902235D01*
X103468137Y-91902808D01*
X103523401Y-91922146D01*
X103527074Y-91922283D01*
X103530681Y-91922966D01*
X103530656Y-91923097D01*
X103533038Y-91923501D01*
X103533058Y-91923370D01*
X103536686Y-91923916D01*
X103540198Y-91925000D01*
X103598751Y-91925000D01*
X103600582Y-91925033D01*
X103659110Y-91927224D01*
X103662661Y-91926272D01*
X103666304Y-91925862D01*
X103666318Y-91925992D01*
X103673860Y-91925000D01*
X124389000Y-91925000D01*
X124423648Y-91939352D01*
X124855148Y-92370851D01*
X124865770Y-92386747D01*
X124869500Y-92405499D01*
X124869500Y-92428534D01*
X124855171Y-92463160D01*
X124820564Y-92477534D01*
X107509737Y-92499987D01*
X107509736Y-92499987D01*
X107500000Y-92500000D01*
X107500000Y-92504534D01*
X107486300Y-92521237D01*
X107459070Y-92529500D01*
X107431537Y-92529500D01*
X107429319Y-92529914D01*
X107429314Y-92529915D01*
X107220531Y-92568943D01*
X107220521Y-92568945D01*
X107218305Y-92569360D01*
X107216193Y-92570178D01*
X107216190Y-92570179D01*
X107018143Y-92646902D01*
X107018137Y-92646904D01*
X107016028Y-92647722D01*
X107014106Y-92648911D01*
X107014100Y-92648915D01*
X106833522Y-92760725D01*
X106831594Y-92761919D01*
X106829918Y-92763446D01*
X106829915Y-92763449D01*
X106690824Y-92890248D01*
X106671284Y-92908061D01*
X106669922Y-92909863D01*
X106669916Y-92909871D01*
X106541919Y-93079366D01*
X106541914Y-93079373D01*
X106540557Y-93081171D01*
X106539551Y-93083190D01*
X106539548Y-93083196D01*
X106455680Y-93251627D01*
X106443865Y-93275355D01*
X106443248Y-93277522D01*
X106443245Y-93277531D01*
X106385119Y-93481820D01*
X106385116Y-93481832D01*
X106384500Y-93484000D01*
X106364485Y-93700000D01*
X106384500Y-93916000D01*
X106385117Y-93918168D01*
X106385119Y-93918179D01*
X106443245Y-94122468D01*
X106443247Y-94122473D01*
X106443865Y-94124645D01*
X106540557Y-94318829D01*
X106541917Y-94320630D01*
X106541919Y-94320633D01*
X106641285Y-94452215D01*
X106671284Y-94491939D01*
X106831594Y-94638081D01*
X107016028Y-94752278D01*
X107218305Y-94830640D01*
X107431537Y-94870500D01*
X107646200Y-94870500D01*
X107648463Y-94870500D01*
X107861695Y-94830640D01*
X107867713Y-94828308D01*
X107885412Y-94825000D01*
X109734588Y-94825000D01*
X109752286Y-94828308D01*
X109758305Y-94830640D01*
X109971537Y-94870500D01*
X110186200Y-94870500D01*
X110188463Y-94870500D01*
X110401695Y-94830640D01*
X110407713Y-94828308D01*
X110425412Y-94825000D01*
X112274588Y-94825000D01*
X112292286Y-94828308D01*
X112298305Y-94830640D01*
X112511537Y-94870500D01*
X112726200Y-94870500D01*
X112728463Y-94870500D01*
X112941695Y-94830640D01*
X112947713Y-94828308D01*
X112965412Y-94825000D01*
X114814588Y-94825000D01*
X114832286Y-94828308D01*
X114838305Y-94830640D01*
X115051537Y-94870500D01*
X115266200Y-94870500D01*
X115268463Y-94870500D01*
X115481695Y-94830640D01*
X115487713Y-94828308D01*
X115505412Y-94825000D01*
X117354588Y-94825000D01*
X117372286Y-94828308D01*
X117378305Y-94830640D01*
X117591537Y-94870500D01*
X117806200Y-94870500D01*
X117808463Y-94870500D01*
X118021695Y-94830640D01*
X118027713Y-94828308D01*
X118045412Y-94825000D01*
X119894588Y-94825000D01*
X119912286Y-94828308D01*
X119918305Y-94830640D01*
X120131537Y-94870500D01*
X120346200Y-94870500D01*
X120348463Y-94870500D01*
X120561695Y-94830640D01*
X120567713Y-94828308D01*
X120585412Y-94825000D01*
X122434588Y-94825000D01*
X122452286Y-94828308D01*
X122458305Y-94830640D01*
X122671537Y-94870500D01*
X122886200Y-94870500D01*
X122888463Y-94870500D01*
X123101695Y-94830640D01*
X123107713Y-94828308D01*
X123125412Y-94825000D01*
X124974588Y-94825000D01*
X124992286Y-94828308D01*
X124998305Y-94830640D01*
X125211537Y-94870500D01*
X125426200Y-94870500D01*
X125428463Y-94870500D01*
X125641695Y-94830640D01*
X125647713Y-94828308D01*
X125665412Y-94825000D01*
X126746220Y-94825000D01*
X126773442Y-94833257D01*
X126811769Y-94858867D01*
X126870252Y-94870500D01*
X128847338Y-94870500D01*
X128849748Y-94870500D01*
X128908231Y-94858867D01*
X128974552Y-94814552D01*
X129018867Y-94748231D01*
X129030500Y-94689748D01*
X129030500Y-92710252D01*
X129018867Y-92651769D01*
X128974552Y-92585448D01*
X128942164Y-92563807D01*
X128912245Y-92543815D01*
X128912244Y-92543814D01*
X128908231Y-92541133D01*
X128903497Y-92540191D01*
X128903494Y-92540190D01*
X128852114Y-92529970D01*
X128852107Y-92529969D01*
X128849748Y-92529500D01*
X128847338Y-92529500D01*
X128424500Y-92529500D01*
X128389852Y-92515148D01*
X128375500Y-92480500D01*
X128375500Y-91195880D01*
X128376620Y-91185464D01*
X128376762Y-91184807D01*
X128379359Y-91172873D01*
X128375624Y-91120668D01*
X128375500Y-91117173D01*
X128375500Y-91102751D01*
X128375500Y-91101001D01*
X128373198Y-91084992D01*
X128372824Y-91081513D01*
X128369341Y-91032813D01*
X128369091Y-91029317D01*
X128364588Y-91017246D01*
X128361998Y-91007095D01*
X128360906Y-90999500D01*
X128360165Y-90994343D01*
X128338421Y-90946732D01*
X128337084Y-90943503D01*
X128320019Y-90897748D01*
X128320018Y-90897747D01*
X128318796Y-90894469D01*
X128316700Y-90891669D01*
X128316699Y-90891667D01*
X128311071Y-90884150D01*
X128305727Y-90875142D01*
X128300377Y-90863427D01*
X128298079Y-90860776D01*
X128298078Y-90860773D01*
X128266108Y-90823878D01*
X128263911Y-90821153D01*
X128255265Y-90809602D01*
X128255259Y-90809595D01*
X128254220Y-90808207D01*
X128242793Y-90796780D01*
X128240410Y-90794221D01*
X128236194Y-90789355D01*
X128206128Y-90754657D01*
X128195282Y-90747687D01*
X128187129Y-90741116D01*
X126883884Y-89437870D01*
X126877310Y-89429713D01*
X126872237Y-89421819D01*
X126872236Y-89421818D01*
X126870343Y-89418872D01*
X126830785Y-89384595D01*
X126828225Y-89382211D01*
X126818027Y-89372013D01*
X126818026Y-89372012D01*
X126816793Y-89370779D01*
X126815407Y-89369741D01*
X126815395Y-89369731D01*
X126803837Y-89361080D01*
X126801119Y-89358889D01*
X126793318Y-89352130D01*
X126777930Y-89327217D01*
X126779498Y-89297976D01*
X126797462Y-89274850D01*
X126825408Y-89266100D01*
X127228508Y-89266100D01*
X127235278Y-89266570D01*
X127237859Y-89266930D01*
X127242165Y-89268373D01*
X127290210Y-89266151D01*
X127292473Y-89266100D01*
X127309980Y-89266100D01*
X127312244Y-89266100D01*
X127315770Y-89265440D01*
X127322507Y-89264658D01*
X127354392Y-89263185D01*
X127368690Y-89256870D01*
X127379474Y-89253531D01*
X127394833Y-89250661D01*
X127421975Y-89233854D01*
X127427950Y-89230705D01*
X127457165Y-89217806D01*
X127468216Y-89206754D01*
X127477062Y-89199746D01*
X127490352Y-89191519D01*
X127509585Y-89166048D01*
X127514034Y-89160935D01*
X127922967Y-88752002D01*
X127928083Y-88747551D01*
X127930158Y-88745983D01*
X127934228Y-88743958D01*
X127966641Y-88708401D01*
X127968162Y-88706807D01*
X127982174Y-88692797D01*
X127984199Y-88689839D01*
X127988414Y-88684519D01*
X128006117Y-88665100D01*
X128009916Y-88660933D01*
X128015561Y-88646357D01*
X128020824Y-88636374D01*
X128029657Y-88623481D01*
X128036966Y-88592402D01*
X128038968Y-88585937D01*
X128050500Y-88556173D01*
X128050500Y-88540546D01*
X128051802Y-88529327D01*
X128055379Y-88514119D01*
X128050970Y-88482513D01*
X128050500Y-88475743D01*
X128050500Y-87446544D01*
X128064852Y-87411896D01*
X128077696Y-87399052D01*
X128098528Y-87378220D01*
X128159719Y-87258126D01*
X128180804Y-87125000D01*
X128159719Y-86991874D01*
X128154844Y-86982307D01*
X128135734Y-86944801D01*
X128098528Y-86871780D01*
X128003220Y-86776472D01*
X127972926Y-86761036D01*
X127886560Y-86717030D01*
X127886556Y-86717028D01*
X127883126Y-86715281D01*
X127750000Y-86694196D01*
X127746193Y-86694799D01*
X127620680Y-86714678D01*
X127620678Y-86714678D01*
X127616874Y-86715281D01*
X127613445Y-86717027D01*
X127613439Y-86717030D01*
X127500214Y-86774722D01*
X127500212Y-86774722D01*
X127496780Y-86776472D01*
X127494056Y-86779195D01*
X127494053Y-86779198D01*
X127404198Y-86869053D01*
X127404195Y-86869056D01*
X127401472Y-86871780D01*
X127399722Y-86875212D01*
X127399722Y-86875214D01*
X127342030Y-86988439D01*
X127342027Y-86988445D01*
X127340281Y-86991874D01*
X127339678Y-86995678D01*
X127339678Y-86995680D01*
X127323400Y-87098456D01*
X127319196Y-87125000D01*
X127340281Y-87258126D01*
X127342028Y-87261556D01*
X127342030Y-87261560D01*
X127368750Y-87314000D01*
X127401472Y-87378220D01*
X127404197Y-87380945D01*
X127404198Y-87380946D01*
X127435148Y-87411896D01*
X127449500Y-87446544D01*
X127449500Y-88355233D01*
X127435148Y-88389881D01*
X127174281Y-88650748D01*
X127139633Y-88665100D01*
X122810367Y-88665100D01*
X122775719Y-88650748D01*
X121904852Y-87779881D01*
X121890500Y-87745233D01*
X121890500Y-85586102D01*
X121902240Y-85554279D01*
X121931835Y-85537705D01*
X121958837Y-85533428D01*
X122023926Y-85523119D01*
X122144020Y-85461928D01*
X122239328Y-85366620D01*
X122275750Y-85295138D01*
X122284862Y-85277255D01*
X122302919Y-85257721D01*
X122328521Y-85250500D01*
X122501033Y-85250500D01*
X122535681Y-85264852D01*
X123401281Y-86130452D01*
X123415633Y-86165100D01*
X123401281Y-86199748D01*
X123366633Y-86214100D01*
X122827444Y-86214100D01*
X122792796Y-86199748D01*
X122761846Y-86168798D01*
X122759120Y-86166072D01*
X122713552Y-86142854D01*
X122642460Y-86106630D01*
X122642456Y-86106628D01*
X122639026Y-86104881D01*
X122505900Y-86083796D01*
X122502093Y-86084399D01*
X122376580Y-86104278D01*
X122376578Y-86104278D01*
X122372774Y-86104881D01*
X122369345Y-86106627D01*
X122369339Y-86106630D01*
X122256114Y-86164322D01*
X122256112Y-86164322D01*
X122252680Y-86166072D01*
X122249956Y-86168795D01*
X122249953Y-86168798D01*
X122160098Y-86258653D01*
X122160095Y-86258656D01*
X122157372Y-86261380D01*
X122155622Y-86264812D01*
X122155622Y-86264814D01*
X122097930Y-86378039D01*
X122097927Y-86378045D01*
X122096181Y-86381474D01*
X122095578Y-86385278D01*
X122095578Y-86385280D01*
X122083153Y-86463728D01*
X122075096Y-86514600D01*
X122075699Y-86518407D01*
X122095036Y-86640500D01*
X122096181Y-86647726D01*
X122097928Y-86651156D01*
X122097930Y-86651160D01*
X122129102Y-86712337D01*
X122157372Y-86767820D01*
X122252680Y-86863128D01*
X122318508Y-86896669D01*
X122362774Y-86919224D01*
X122372774Y-86924319D01*
X122505900Y-86945404D01*
X122639026Y-86924319D01*
X122759120Y-86863128D01*
X122792796Y-86829451D01*
X122827444Y-86815100D01*
X123715786Y-86815100D01*
X123717242Y-86815234D01*
X123717927Y-86815500D01*
X124234680Y-86815500D01*
X124236944Y-86815500D01*
X124238368Y-86815233D01*
X124241262Y-86815100D01*
X124879508Y-86815100D01*
X124886278Y-86815570D01*
X124888859Y-86815930D01*
X124893165Y-86817373D01*
X124941210Y-86815151D01*
X124943473Y-86815100D01*
X124960980Y-86815100D01*
X124963244Y-86815100D01*
X124966770Y-86814440D01*
X124973507Y-86813658D01*
X125005392Y-86812185D01*
X125019690Y-86805870D01*
X125030474Y-86802531D01*
X125045833Y-86799661D01*
X125072975Y-86782854D01*
X125078950Y-86779705D01*
X125108165Y-86766806D01*
X125119216Y-86755754D01*
X125128062Y-86748746D01*
X125141352Y-86740519D01*
X125160585Y-86715048D01*
X125165034Y-86709935D01*
X125351167Y-86523802D01*
X125356281Y-86519352D01*
X125358355Y-86517785D01*
X125362428Y-86515758D01*
X125376210Y-86500639D01*
X125390174Y-86489991D01*
X125441720Y-86463728D01*
X125537028Y-86368420D01*
X125598219Y-86248326D01*
X125619304Y-86115200D01*
X125598219Y-85982074D01*
X125593423Y-85972662D01*
X125564809Y-85916503D01*
X125537028Y-85861980D01*
X125441720Y-85766672D01*
X125410752Y-85750893D01*
X125325060Y-85707230D01*
X125325056Y-85707228D01*
X125321626Y-85705481D01*
X125188500Y-85684396D01*
X125166264Y-85687917D01*
X125059180Y-85704878D01*
X125059178Y-85704878D01*
X125055374Y-85705481D01*
X125051945Y-85707227D01*
X125051939Y-85707230D01*
X124938714Y-85764922D01*
X124938712Y-85764922D01*
X124935280Y-85766672D01*
X124932556Y-85769395D01*
X124932553Y-85769398D01*
X124842698Y-85859253D01*
X124842695Y-85859256D01*
X124839972Y-85861980D01*
X124838222Y-85865412D01*
X124838222Y-85865414D01*
X124780530Y-85978639D01*
X124780527Y-85978645D01*
X124778781Y-85982074D01*
X124778178Y-85985878D01*
X124778178Y-85985880D01*
X124777446Y-85990500D01*
X124757696Y-86115200D01*
X124758299Y-86119007D01*
X124764385Y-86157435D01*
X124760752Y-86185030D01*
X124742675Y-86206195D01*
X124715988Y-86214100D01*
X124434926Y-86214100D01*
X124404089Y-86203180D01*
X124386997Y-86175288D01*
X124391267Y-86142854D01*
X124397945Y-86129747D01*
X124401319Y-86123126D01*
X124422404Y-85990000D01*
X124401319Y-85856874D01*
X124340128Y-85736780D01*
X124278745Y-85675397D01*
X124266063Y-85653431D01*
X124266064Y-85628066D01*
X124278745Y-85606101D01*
X124289728Y-85595120D01*
X124350919Y-85475026D01*
X124372004Y-85341900D01*
X124350919Y-85208774D01*
X124289728Y-85088680D01*
X124251046Y-85049998D01*
X124236694Y-85015350D01*
X124251046Y-84980702D01*
X124292009Y-84939739D01*
X124341528Y-84890220D01*
X124402719Y-84770126D01*
X124423804Y-84637000D01*
X124402719Y-84503874D01*
X124341528Y-84383780D01*
X124246220Y-84288472D01*
X124196327Y-84263050D01*
X124129560Y-84229030D01*
X124129556Y-84229028D01*
X124126126Y-84227281D01*
X124122321Y-84226678D01*
X124122320Y-84226678D01*
X124001792Y-84207588D01*
X123974810Y-84193839D01*
X123546508Y-83765537D01*
X123542053Y-83760418D01*
X123540482Y-83758338D01*
X123538458Y-83754272D01*
X123502914Y-83721869D01*
X123501277Y-83720306D01*
X123488900Y-83707929D01*
X123488899Y-83707928D01*
X123487297Y-83706326D01*
X123484333Y-83704295D01*
X123479025Y-83700090D01*
X123463253Y-83685713D01*
X123448565Y-83660720D01*
X123450572Y-83631800D01*
X123468571Y-83609075D01*
X123496263Y-83600500D01*
X125055233Y-83600500D01*
X125089881Y-83614852D01*
G37*
%TD.AperFunction*%
%TA.AperFunction,Conductor*%
G36*
X133498209Y-55510796D02*
G01*
X133515372Y-55538427D01*
X133511451Y-55570717D01*
X133488174Y-55593437D01*
X133480194Y-55597144D01*
X133480170Y-55597156D01*
X133479121Y-55597644D01*
X133478120Y-55598232D01*
X133478108Y-55598239D01*
X133121530Y-55807957D01*
X133121512Y-55807968D01*
X133120517Y-55808554D01*
X133119569Y-55809242D01*
X133119561Y-55809248D01*
X132784903Y-56052391D01*
X132784892Y-56052399D01*
X132783942Y-56053090D01*
X132783060Y-56053871D01*
X132783053Y-56053877D01*
X132473433Y-56328177D01*
X132473423Y-56328186D01*
X132472540Y-56328969D01*
X132471738Y-56329830D01*
X132471727Y-56329842D01*
X132190019Y-56632750D01*
X132190004Y-56632767D01*
X132189217Y-56633614D01*
X132188512Y-56634536D01*
X132188499Y-56634552D01*
X131937345Y-56963231D01*
X131937336Y-56963243D01*
X131936620Y-56964181D01*
X131936000Y-56965178D01*
X131935989Y-56965195D01*
X131717727Y-57316585D01*
X131717106Y-57317585D01*
X131716587Y-57318633D01*
X131716584Y-57318640D01*
X131533250Y-57689463D01*
X131533242Y-57689480D01*
X131532726Y-57690525D01*
X131532315Y-57691608D01*
X131532307Y-57691627D01*
X131385617Y-58078417D01*
X131385611Y-58078434D01*
X131385200Y-58079519D01*
X131384892Y-58080647D01*
X131384890Y-58080656D01*
X131276216Y-58479793D01*
X131276211Y-58479811D01*
X131275906Y-58480935D01*
X131275709Y-58482086D01*
X131275707Y-58482097D01*
X131206063Y-58889859D01*
X131205864Y-58891026D01*
X131205778Y-58892201D01*
X131205777Y-58892215D01*
X131175815Y-59304768D01*
X131175814Y-59304782D01*
X131175729Y-59305962D01*
X131177903Y-59395891D01*
X131185753Y-59720696D01*
X131185753Y-59720708D01*
X131185782Y-59721870D01*
X131185922Y-59723025D01*
X131185923Y-59723035D01*
X131235786Y-60133691D01*
X131235929Y-60134866D01*
X131236183Y-60136019D01*
X131236184Y-60136020D01*
X131325445Y-60539939D01*
X131325449Y-60539953D01*
X131325701Y-60541094D01*
X131326064Y-60542213D01*
X131326066Y-60542218D01*
X131441724Y-60898179D01*
X131454261Y-60936761D01*
X131454730Y-60937838D01*
X131454734Y-60937848D01*
X131619933Y-61317083D01*
X131619939Y-61317095D01*
X131620409Y-61318174D01*
X131620984Y-61319209D01*
X131620990Y-61319220D01*
X131722272Y-61501359D01*
X131822592Y-61681770D01*
X131823265Y-61682745D01*
X131823270Y-61682753D01*
X132058244Y-62023171D01*
X132058252Y-62023181D01*
X132058924Y-62024155D01*
X132327197Y-62342133D01*
X132328047Y-62342962D01*
X132328051Y-62342967D01*
X132480547Y-62491822D01*
X132624907Y-62632734D01*
X132949274Y-62893245D01*
X133297270Y-63121235D01*
X133665646Y-63314573D01*
X134050961Y-63471455D01*
X134052098Y-63471794D01*
X134052103Y-63471796D01*
X134432331Y-63585258D01*
X134449620Y-63590417D01*
X134857898Y-63670348D01*
X135271985Y-63710500D01*
X135583349Y-63710500D01*
X135583948Y-63710500D01*
X135895543Y-63695428D01*
X136307207Y-63635317D01*
X136711147Y-63535754D01*
X137103592Y-63397671D01*
X137480879Y-63222356D01*
X137839483Y-63011446D01*
X138176058Y-62766910D01*
X138487460Y-62491031D01*
X138770783Y-62186386D01*
X139023380Y-61855819D01*
X139242894Y-61502415D01*
X139427274Y-61129475D01*
X139574800Y-60740481D01*
X139684094Y-60339065D01*
X139754136Y-59928974D01*
X139784271Y-59514038D01*
X139774218Y-59098130D01*
X139724071Y-58685134D01*
X139634299Y-58278906D01*
X139505739Y-57883239D01*
X139339591Y-57501826D01*
X139137408Y-57138230D01*
X139136040Y-57136248D01*
X138901755Y-56796828D01*
X138901750Y-56796821D01*
X138901076Y-56795845D01*
X138632803Y-56477867D01*
X138627487Y-56472678D01*
X138335952Y-56188104D01*
X138335946Y-56188099D01*
X138335093Y-56187266D01*
X138119223Y-56013893D01*
X138011649Y-55927496D01*
X138011645Y-55927493D01*
X138010726Y-55926755D01*
X137662730Y-55698765D01*
X137661679Y-55698213D01*
X137661675Y-55698211D01*
X137460043Y-55592387D01*
X137438131Y-55569110D01*
X137435238Y-55537274D01*
X137452595Y-55510428D01*
X137482814Y-55500000D01*
X143227460Y-55500000D01*
X143253489Y-55507485D01*
X143534932Y-55683946D01*
X143538408Y-55686340D01*
X143622383Y-55749673D01*
X143848652Y-55920324D01*
X143851891Y-55922993D01*
X143996581Y-56053090D01*
X144140847Y-56182806D01*
X144143861Y-56185760D01*
X144409390Y-56469475D01*
X144412123Y-56472659D01*
X144652261Y-56778182D01*
X144654716Y-56781600D01*
X144867662Y-57106636D01*
X144869821Y-57110263D01*
X145054008Y-57452422D01*
X145055846Y-57456221D01*
X145209902Y-57812944D01*
X145211407Y-57816887D01*
X145334197Y-58185555D01*
X145335357Y-58189613D01*
X145425967Y-58567471D01*
X145426774Y-58571614D01*
X145484532Y-58955878D01*
X145484979Y-58960074D01*
X145509403Y-59346993D01*
X145509500Y-59350080D01*
X145509500Y-62790500D01*
X145495148Y-62825148D01*
X145460500Y-62839500D01*
X143563448Y-62839500D01*
X143563429Y-62839500D01*
X143562128Y-62839501D01*
X143560820Y-62839641D01*
X143560812Y-62839642D01*
X143505569Y-62845580D01*
X143505561Y-62845581D01*
X143502517Y-62845909D01*
X143499649Y-62846978D01*
X143499643Y-62846980D01*
X143370951Y-62894979D01*
X143370945Y-62894981D01*
X143367669Y-62896204D01*
X143364866Y-62898302D01*
X143364861Y-62898305D01*
X143255258Y-62980354D01*
X143255254Y-62980357D01*
X143252454Y-62982454D01*
X143250357Y-62985254D01*
X143250354Y-62985258D01*
X143168305Y-63094861D01*
X143168302Y-63094866D01*
X143166204Y-63097669D01*
X143164981Y-63100945D01*
X143164979Y-63100951D01*
X143116978Y-63229649D01*
X143116976Y-63229654D01*
X143115909Y-63232517D01*
X143115582Y-63235557D01*
X143115581Y-63235562D01*
X143109639Y-63290828D01*
X143109638Y-63290840D01*
X143109500Y-63292127D01*
X143109500Y-63293164D01*
X143094293Y-63326065D01*
X143060587Y-63339500D01*
X142834727Y-63339500D01*
X142827062Y-63338897D01*
X142809923Y-63336182D01*
X142809918Y-63336181D01*
X142807388Y-63335781D01*
X142804827Y-63335915D01*
X142804824Y-63335915D01*
X142737704Y-63339433D01*
X142735140Y-63339500D01*
X142712808Y-63339500D01*
X142711550Y-63339632D01*
X142711533Y-63339633D01*
X142690589Y-63341834D01*
X142688035Y-63342035D01*
X142620916Y-63345553D01*
X142620909Y-63345554D01*
X142618354Y-63345688D01*
X142615880Y-63346350D01*
X142615872Y-63346352D01*
X142599110Y-63350843D01*
X142591554Y-63352243D01*
X142574301Y-63354057D01*
X142574299Y-63354057D01*
X142571744Y-63354326D01*
X142569309Y-63355116D01*
X142569300Y-63355119D01*
X142505360Y-63375895D01*
X142502900Y-63376623D01*
X142437994Y-63394014D01*
X142437985Y-63394017D01*
X142435512Y-63394680D01*
X142433229Y-63395842D01*
X142433219Y-63395847D01*
X142417758Y-63403724D01*
X142410661Y-63406664D01*
X142394159Y-63412026D01*
X142394149Y-63412030D01*
X142391716Y-63412821D01*
X142389491Y-63414105D01*
X142389490Y-63414106D01*
X142356877Y-63432935D01*
X142332377Y-63439500D01*
X141163448Y-63439500D01*
X141163429Y-63439500D01*
X141162128Y-63439501D01*
X141160820Y-63439641D01*
X141160812Y-63439642D01*
X141105569Y-63445580D01*
X141105561Y-63445581D01*
X141102517Y-63445909D01*
X141099649Y-63446978D01*
X141099643Y-63446980D01*
X140970951Y-63494979D01*
X140970945Y-63494981D01*
X140967669Y-63496204D01*
X140964866Y-63498302D01*
X140964861Y-63498305D01*
X140855258Y-63580354D01*
X140855254Y-63580357D01*
X140852454Y-63582454D01*
X140850357Y-63585254D01*
X140850354Y-63585258D01*
X140768305Y-63694861D01*
X140768302Y-63694866D01*
X140766204Y-63697669D01*
X140764981Y-63700945D01*
X140764979Y-63700951D01*
X140716978Y-63829649D01*
X140716976Y-63829654D01*
X140715909Y-63832517D01*
X140715582Y-63835557D01*
X140715581Y-63835562D01*
X140709641Y-63890812D01*
X140709500Y-63892127D01*
X140709500Y-63893447D01*
X140709500Y-64550500D01*
X140695148Y-64585148D01*
X140660500Y-64599500D01*
X139202808Y-64599500D01*
X139201546Y-64599632D01*
X139201539Y-64599633D01*
X139064294Y-64614057D01*
X139064284Y-64614058D01*
X139061744Y-64614326D01*
X139059311Y-64615116D01*
X139059304Y-64615118D01*
X138884157Y-64672027D01*
X138884149Y-64672030D01*
X138881716Y-64672821D01*
X138879498Y-64674101D01*
X138879490Y-64674105D01*
X138720013Y-64766179D01*
X138720005Y-64766184D01*
X138717784Y-64767467D01*
X138715877Y-64769183D01*
X138715870Y-64769189D01*
X138579025Y-64892406D01*
X138579022Y-64892408D01*
X138577112Y-64894129D01*
X138575604Y-64896203D01*
X138575599Y-64896210D01*
X138467360Y-65045190D01*
X138465849Y-65047270D01*
X138464807Y-65049609D01*
X138464803Y-65049617D01*
X138389898Y-65217855D01*
X138389896Y-65217861D01*
X138388856Y-65220197D01*
X138388324Y-65222696D01*
X138388322Y-65222705D01*
X138350033Y-65402844D01*
X138350032Y-65402848D01*
X138349500Y-65405354D01*
X138349500Y-65594646D01*
X138350032Y-65597152D01*
X138350033Y-65597155D01*
X138388322Y-65777294D01*
X138388324Y-65777300D01*
X138388856Y-65779803D01*
X138389897Y-65782141D01*
X138389898Y-65782144D01*
X138464803Y-65950382D01*
X138464805Y-65950386D01*
X138465849Y-65952730D01*
X138577112Y-66105871D01*
X138717784Y-66232533D01*
X138720012Y-66233819D01*
X138720013Y-66233820D01*
X138877974Y-66325019D01*
X138881716Y-66327179D01*
X139061744Y-66385674D01*
X139202808Y-66400500D01*
X140451418Y-66400500D01*
X140485919Y-66414705D01*
X140500416Y-66449085D01*
X140510156Y-67598484D01*
X140500922Y-67627532D01*
X140476300Y-67645501D01*
X140468089Y-67648169D01*
X140460613Y-67649964D01*
X140436704Y-67653750D01*
X140436698Y-67653751D01*
X140432896Y-67654354D01*
X140429461Y-67656103D01*
X140429455Y-67656106D01*
X140407892Y-67667092D01*
X140400793Y-67670033D01*
X140377776Y-67677512D01*
X140377771Y-67677514D01*
X140374110Y-67678704D01*
X140370993Y-67680967D01*
X140370988Y-67680971D01*
X140351408Y-67695197D01*
X140344853Y-67699214D01*
X140323296Y-67710197D01*
X140323290Y-67710201D01*
X140319858Y-67711950D01*
X140317131Y-67714676D01*
X140317128Y-67714679D01*
X140297293Y-67734513D01*
X140297291Y-67734517D01*
X140018159Y-68013648D01*
X139983511Y-68028000D01*
X127584793Y-68028000D01*
X127450007Y-68028000D01*
X127446345Y-68029189D01*
X127446337Y-68029191D01*
X127421428Y-68037285D01*
X127413953Y-68039080D01*
X127388081Y-68043177D01*
X127388074Y-68043179D01*
X127384274Y-68043781D01*
X127357495Y-68057425D01*
X127350401Y-68060364D01*
X127325480Y-68068461D01*
X127325477Y-68068462D01*
X127321819Y-68069651D01*
X127318706Y-68071912D01*
X127318703Y-68071914D01*
X127297508Y-68087312D01*
X127290957Y-68091326D01*
X127267618Y-68103219D01*
X127267612Y-68103222D01*
X127264180Y-68104972D01*
X127261456Y-68107695D01*
X127261453Y-68107698D01*
X127240200Y-68128951D01*
X120439480Y-74929672D01*
X120346898Y-75022253D01*
X120346895Y-75022256D01*
X120344172Y-75024980D01*
X120342423Y-75028410D01*
X120342423Y-75028412D01*
X120330529Y-75051755D01*
X120326513Y-75058308D01*
X120311118Y-75079497D01*
X120311115Y-75079502D01*
X120308851Y-75082619D01*
X120307660Y-75086283D01*
X120307659Y-75086286D01*
X120299564Y-75111201D01*
X120296625Y-75118295D01*
X120282981Y-75145074D01*
X120282379Y-75148874D01*
X120282377Y-75148881D01*
X120278280Y-75174753D01*
X120276485Y-75182228D01*
X120268391Y-75207137D01*
X120268389Y-75207145D01*
X120267200Y-75210807D01*
X120267200Y-75214663D01*
X120267200Y-78784354D01*
X120266596Y-78792019D01*
X120261896Y-78821700D01*
X120262499Y-78825507D01*
X120267200Y-78855188D01*
X120277874Y-78922585D01*
X120282981Y-78954826D01*
X120284728Y-78958256D01*
X120284730Y-78958260D01*
X120314548Y-79016780D01*
X120344172Y-79074920D01*
X120439480Y-79170228D01*
X120559574Y-79231419D01*
X120692700Y-79252504D01*
X120825826Y-79231419D01*
X120945920Y-79170228D01*
X120979485Y-79136661D01*
X120989916Y-79128714D01*
X120998777Y-79123675D01*
X121000000Y-79125000D01*
X121220500Y-78904500D01*
X124604196Y-78904500D01*
X124625281Y-79037626D01*
X124627028Y-79041056D01*
X124627030Y-79041060D01*
X124665612Y-79116780D01*
X124686472Y-79157720D01*
X124781780Y-79253028D01*
X124901874Y-79314219D01*
X125035000Y-79335304D01*
X125168126Y-79314219D01*
X125288220Y-79253028D01*
X125383528Y-79157720D01*
X125444719Y-79037626D01*
X125455931Y-78966834D01*
X125472505Y-78937240D01*
X125504328Y-78925500D01*
X127569108Y-78925500D01*
X127575878Y-78925970D01*
X127578459Y-78926330D01*
X127582765Y-78927773D01*
X127630810Y-78925551D01*
X127633073Y-78925500D01*
X127650580Y-78925500D01*
X127652844Y-78925500D01*
X127656370Y-78924840D01*
X127663107Y-78924058D01*
X127694992Y-78922585D01*
X127709290Y-78916270D01*
X127720074Y-78912931D01*
X127735433Y-78910061D01*
X127762575Y-78893254D01*
X127768550Y-78890105D01*
X127797765Y-78877206D01*
X127808816Y-78866154D01*
X127817662Y-78859146D01*
X127830952Y-78850919D01*
X127850185Y-78825448D01*
X127854634Y-78820335D01*
X128267967Y-78407002D01*
X128273083Y-78402551D01*
X128275158Y-78400983D01*
X128279228Y-78398958D01*
X128311641Y-78363401D01*
X128313162Y-78361807D01*
X128327174Y-78347797D01*
X128329199Y-78344839D01*
X128333414Y-78339519D01*
X128351856Y-78319290D01*
X128351856Y-78319288D01*
X128354916Y-78315933D01*
X128360564Y-78301351D01*
X128365827Y-78291368D01*
X128374656Y-78278481D01*
X128381962Y-78247414D01*
X128383969Y-78240935D01*
X128388322Y-78229699D01*
X128395500Y-78211173D01*
X128395500Y-78195546D01*
X128396802Y-78184327D01*
X128398958Y-78175159D01*
X128400379Y-78169119D01*
X128395970Y-78137513D01*
X128395500Y-78130743D01*
X128395500Y-77321544D01*
X128409852Y-77286896D01*
X128416652Y-77280096D01*
X128443528Y-77253220D01*
X128504719Y-77133126D01*
X128525804Y-77000000D01*
X128504719Y-76866874D01*
X128443528Y-76746780D01*
X128348220Y-76651472D01*
X128304191Y-76629038D01*
X128231560Y-76592030D01*
X128231556Y-76592028D01*
X128228126Y-76590281D01*
X128198495Y-76585588D01*
X128098807Y-76569799D01*
X128095000Y-76569196D01*
X128091193Y-76569799D01*
X127965680Y-76589678D01*
X127965678Y-76589678D01*
X127961874Y-76590281D01*
X127958445Y-76592027D01*
X127958439Y-76592030D01*
X127845214Y-76649722D01*
X127845212Y-76649722D01*
X127841780Y-76651472D01*
X127839056Y-76654195D01*
X127839053Y-76654198D01*
X127749198Y-76744053D01*
X127749195Y-76744056D01*
X127746472Y-76746780D01*
X127744722Y-76750212D01*
X127744722Y-76750214D01*
X127687030Y-76863439D01*
X127687027Y-76863445D01*
X127685281Y-76866874D01*
X127664196Y-77000000D01*
X127685281Y-77133126D01*
X127687028Y-77136556D01*
X127687030Y-77136560D01*
X127724617Y-77210328D01*
X127746472Y-77253220D01*
X127749198Y-77255946D01*
X127780148Y-77286896D01*
X127794500Y-77321544D01*
X127794500Y-78010232D01*
X127780148Y-78044880D01*
X127514881Y-78310148D01*
X127498985Y-78320770D01*
X127480233Y-78324500D01*
X125370393Y-78324500D01*
X125363623Y-78324030D01*
X125361040Y-78323669D01*
X125356736Y-78322227D01*
X125352204Y-78322436D01*
X125352201Y-78322436D01*
X125308691Y-78324448D01*
X125306428Y-78324500D01*
X125286656Y-78324500D01*
X125284441Y-78324913D01*
X125284419Y-78324916D01*
X125283117Y-78325160D01*
X125276393Y-78325940D01*
X125249043Y-78327205D01*
X125249041Y-78327205D01*
X125244509Y-78327415D01*
X125240361Y-78329246D01*
X125240354Y-78329248D01*
X125230206Y-78333729D01*
X125219422Y-78337068D01*
X125208530Y-78339104D01*
X125208527Y-78339105D01*
X125204067Y-78339939D01*
X125198813Y-78343192D01*
X125176937Y-78356736D01*
X125170937Y-78359898D01*
X125145891Y-78370957D01*
X125145883Y-78370962D01*
X125141735Y-78372794D01*
X125138528Y-78376000D01*
X125138526Y-78376002D01*
X125134467Y-78380060D01*
X125130683Y-78383844D01*
X125121837Y-78390852D01*
X125112404Y-78396692D01*
X125112399Y-78396696D01*
X125108548Y-78399081D01*
X125105817Y-78402696D01*
X125105815Y-78402699D01*
X125089314Y-78424550D01*
X125084860Y-78429667D01*
X125053188Y-78461339D01*
X125026206Y-78475088D01*
X124905679Y-78494178D01*
X124905676Y-78494178D01*
X124901874Y-78494781D01*
X124898445Y-78496527D01*
X124898439Y-78496530D01*
X124785214Y-78554222D01*
X124785212Y-78554222D01*
X124781780Y-78555972D01*
X124779056Y-78558695D01*
X124779053Y-78558698D01*
X124689198Y-78648553D01*
X124689195Y-78648556D01*
X124686472Y-78651280D01*
X124684722Y-78654712D01*
X124684722Y-78654714D01*
X124627030Y-78767939D01*
X124627027Y-78767945D01*
X124625281Y-78771374D01*
X124624678Y-78775178D01*
X124624678Y-78775180D01*
X124612919Y-78849423D01*
X124604196Y-78904500D01*
X121220500Y-78904500D01*
X121725000Y-78400000D01*
X121723049Y-78397964D01*
X121724111Y-78396080D01*
X121732591Y-78384407D01*
X121737582Y-78378566D01*
X121756100Y-78360048D01*
X121756100Y-78360047D01*
X121758828Y-78357320D01*
X121772469Y-78330547D01*
X121776481Y-78323999D01*
X121794150Y-78299681D01*
X121803438Y-78271090D01*
X121806377Y-78263997D01*
X121818268Y-78240662D01*
X121818267Y-78240662D01*
X121820019Y-78237226D01*
X121824719Y-78207544D01*
X121826515Y-78200067D01*
X121829831Y-78189862D01*
X121835800Y-78171493D01*
X121835800Y-78141446D01*
X121836403Y-78133781D01*
X121840501Y-78107907D01*
X121841104Y-78104100D01*
X121836403Y-78074419D01*
X121835800Y-78066754D01*
X121835800Y-78040561D01*
X121835800Y-78036707D01*
X121826512Y-78008124D01*
X121824719Y-78000653D01*
X121823931Y-77995680D01*
X121820019Y-77970974D01*
X121806373Y-77944192D01*
X121803436Y-77937101D01*
X121796743Y-77916502D01*
X121794150Y-77908520D01*
X121776481Y-77884202D01*
X121772472Y-77877659D01*
X121758828Y-77850880D01*
X121732552Y-77824604D01*
X121718200Y-77789956D01*
X121718200Y-75723344D01*
X121732552Y-75688696D01*
X125597648Y-71823600D01*
X127114265Y-71823600D01*
X127114684Y-71826783D01*
X127131906Y-71957598D01*
X127131907Y-71957602D01*
X127132326Y-71960783D01*
X127133554Y-71963748D01*
X127133555Y-71963751D01*
X127184045Y-72085648D01*
X127184047Y-72085651D01*
X127185276Y-72088618D01*
X127187230Y-72091164D01*
X127187231Y-72091166D01*
X127226670Y-72142563D01*
X127269509Y-72198391D01*
X127379282Y-72282624D01*
X127382249Y-72283853D01*
X127382251Y-72283854D01*
X127443199Y-72309098D01*
X127507117Y-72335574D01*
X127644300Y-72353635D01*
X127781483Y-72335574D01*
X127909318Y-72282624D01*
X128019091Y-72198391D01*
X128103324Y-72088618D01*
X128111068Y-72069918D01*
X128121688Y-72054024D01*
X129160861Y-71014852D01*
X129195510Y-71000500D01*
X132397390Y-71000500D01*
X132432038Y-71014852D01*
X133522608Y-72105422D01*
X133533230Y-72121318D01*
X133539747Y-72137053D01*
X133539750Y-72137058D01*
X133540976Y-72140018D01*
X133575149Y-72184552D01*
X133609775Y-72229678D01*
X133625209Y-72249791D01*
X133734982Y-72334024D01*
X133737949Y-72335253D01*
X133737951Y-72335254D01*
X133757106Y-72343188D01*
X133862817Y-72386974D01*
X134000000Y-72405035D01*
X134137183Y-72386974D01*
X134265018Y-72334024D01*
X134374791Y-72249791D01*
X134459024Y-72140018D01*
X134511974Y-72012183D01*
X134530035Y-71875000D01*
X134511974Y-71737817D01*
X134459024Y-71609983D01*
X134457070Y-71607436D01*
X134457068Y-71607433D01*
X134405742Y-71540545D01*
X134374791Y-71500209D01*
X134265018Y-71415976D01*
X134262058Y-71414750D01*
X134262053Y-71414747D01*
X134246318Y-71408230D01*
X134230422Y-71397608D01*
X133020684Y-70187870D01*
X133014110Y-70179713D01*
X133009037Y-70171819D01*
X133009036Y-70171818D01*
X133007143Y-70168872D01*
X132967585Y-70134595D01*
X132965025Y-70132211D01*
X132954827Y-70122013D01*
X132953593Y-70120779D01*
X132952207Y-70119741D01*
X132952195Y-70119731D01*
X132940637Y-70111080D01*
X132937917Y-70108888D01*
X132898373Y-70074623D01*
X132886656Y-70069271D01*
X132877648Y-70063927D01*
X132870136Y-70058303D01*
X132870132Y-70058300D01*
X132867331Y-70056204D01*
X132864052Y-70054981D01*
X132864043Y-70054976D01*
X132818284Y-70037909D01*
X132815053Y-70036571D01*
X132770646Y-70016291D01*
X132770643Y-70016290D01*
X132767457Y-70014835D01*
X132763987Y-70014336D01*
X132754699Y-70013000D01*
X132744554Y-70010411D01*
X132732483Y-70005909D01*
X132728989Y-70005659D01*
X132680277Y-70002174D01*
X132676814Y-70001802D01*
X132660799Y-69999500D01*
X132659047Y-69999500D01*
X132644627Y-69999500D01*
X132641131Y-69999375D01*
X132599342Y-69996386D01*
X132588927Y-69995641D01*
X132585502Y-69996385D01*
X132585502Y-69996386D01*
X132576336Y-69998380D01*
X132565920Y-69999500D01*
X129026980Y-69999500D01*
X129016564Y-69998380D01*
X129012913Y-69997585D01*
X129003973Y-69995641D01*
X129000477Y-69995891D01*
X128951769Y-69999375D01*
X128948273Y-69999500D01*
X128932101Y-69999500D01*
X128916091Y-70001801D01*
X128912621Y-70002174D01*
X128863910Y-70005659D01*
X128863909Y-70005659D01*
X128860417Y-70005909D01*
X128857141Y-70007130D01*
X128857135Y-70007132D01*
X128848344Y-70010411D01*
X128838201Y-70013000D01*
X128828911Y-70014336D01*
X128828909Y-70014336D01*
X128825443Y-70014835D01*
X128822258Y-70016289D01*
X128822256Y-70016290D01*
X128777832Y-70036577D01*
X128774603Y-70037914D01*
X128728851Y-70054979D01*
X128728846Y-70054981D01*
X128725569Y-70056204D01*
X128722770Y-70058299D01*
X128722761Y-70058304D01*
X128715247Y-70063929D01*
X128706247Y-70069269D01*
X128697712Y-70073167D01*
X128697705Y-70073171D01*
X128694527Y-70074623D01*
X128691884Y-70076912D01*
X128691881Y-70076915D01*
X128654981Y-70108888D01*
X128652262Y-70111079D01*
X128640708Y-70119728D01*
X128640689Y-70119743D01*
X128639307Y-70120779D01*
X128638078Y-70122007D01*
X128638064Y-70122020D01*
X128627856Y-70132227D01*
X128625300Y-70134607D01*
X128588406Y-70166577D01*
X128585757Y-70168872D01*
X128583864Y-70171818D01*
X128578788Y-70179715D01*
X128572217Y-70187867D01*
X127413876Y-71346208D01*
X127397982Y-71356829D01*
X127382252Y-71363345D01*
X127382245Y-71363348D01*
X127379283Y-71364576D01*
X127376736Y-71366529D01*
X127376733Y-71366532D01*
X127272057Y-71446853D01*
X127272053Y-71446856D01*
X127269509Y-71448809D01*
X127267556Y-71451353D01*
X127267553Y-71451357D01*
X127187231Y-71556033D01*
X127187225Y-71556041D01*
X127185276Y-71558583D01*
X127184048Y-71561547D01*
X127184046Y-71561551D01*
X127133555Y-71683448D01*
X127133553Y-71683453D01*
X127132326Y-71686417D01*
X127131907Y-71689595D01*
X127131906Y-71689601D01*
X127121411Y-71769319D01*
X127114265Y-71823600D01*
X125597648Y-71823600D01*
X127927896Y-69493352D01*
X127962544Y-69479000D01*
X139968060Y-69479000D01*
X139997425Y-69488773D01*
X140015075Y-69514195D01*
X140013971Y-69545124D01*
X139994551Y-69569221D01*
X139921823Y-69615959D01*
X139921816Y-69615964D01*
X139918872Y-69617857D01*
X139916578Y-69620504D01*
X139916575Y-69620507D01*
X139826916Y-69723979D01*
X139826911Y-69723985D01*
X139824623Y-69726627D01*
X139823169Y-69729809D01*
X139823168Y-69729812D01*
X139766291Y-69854353D01*
X139766289Y-69854358D01*
X139764835Y-69857543D01*
X139764336Y-69861009D01*
X139764335Y-69861015D01*
X139749749Y-69962465D01*
X139749748Y-69962473D01*
X139749500Y-69964201D01*
X139749500Y-69965952D01*
X139749500Y-71206446D01*
X139738142Y-71237816D01*
X139709332Y-71254643D01*
X139676428Y-71249126D01*
X139654684Y-71223821D01*
X139638835Y-71182030D01*
X139624818Y-71145070D01*
X139561999Y-71054062D01*
X139529868Y-71007512D01*
X139529867Y-71007511D01*
X139528183Y-71005071D01*
X139523023Y-71000500D01*
X139488880Y-70970252D01*
X139400852Y-70892266D01*
X139398230Y-70890890D01*
X139398229Y-70890889D01*
X139252850Y-70814587D01*
X139252845Y-70814585D01*
X139250225Y-70813210D01*
X139247346Y-70812500D01*
X139247345Y-70812500D01*
X139087937Y-70773210D01*
X139087936Y-70773209D01*
X139085056Y-70772500D01*
X138914944Y-70772500D01*
X138912064Y-70773209D01*
X138912062Y-70773210D01*
X138752654Y-70812500D01*
X138752650Y-70812501D01*
X138749775Y-70813210D01*
X138747157Y-70814583D01*
X138747149Y-70814587D01*
X138601770Y-70890889D01*
X138601764Y-70890892D01*
X138599148Y-70892266D01*
X138596931Y-70894229D01*
X138596931Y-70894230D01*
X138474036Y-71003104D01*
X138474031Y-71003109D01*
X138471817Y-71005071D01*
X138470135Y-71007506D01*
X138470131Y-71007512D01*
X138376866Y-71142629D01*
X138376863Y-71142634D01*
X138375182Y-71145070D01*
X138374132Y-71147836D01*
X138374130Y-71147842D01*
X138315910Y-71301357D01*
X138315908Y-71301363D01*
X138314860Y-71304128D01*
X138314504Y-71307059D01*
X138314502Y-71307068D01*
X138299678Y-71429156D01*
X138299677Y-71429167D01*
X138299500Y-71430628D01*
X138299500Y-71432113D01*
X138299500Y-73977243D01*
X138299411Y-73980202D01*
X138295820Y-74039552D01*
X138295820Y-74039557D01*
X138295642Y-74042506D01*
X138306891Y-74103893D01*
X138307336Y-74106817D01*
X138314502Y-74165830D01*
X138314503Y-74165835D01*
X138314860Y-74168772D01*
X138315911Y-74171543D01*
X138320868Y-74184616D01*
X138323248Y-74193154D01*
X138326305Y-74209832D01*
X138327519Y-74212530D01*
X138327520Y-74212532D01*
X138351918Y-74266742D01*
X138353051Y-74269476D01*
X138374131Y-74325061D01*
X138374134Y-74325066D01*
X138375182Y-74327830D01*
X138376863Y-74330265D01*
X138384811Y-74341780D01*
X138389166Y-74349503D01*
X138394905Y-74362255D01*
X138394908Y-74362260D01*
X138396122Y-74364957D01*
X138414954Y-74388994D01*
X138434605Y-74414078D01*
X138436359Y-74416461D01*
X138470134Y-74465392D01*
X138470137Y-74465396D01*
X138471817Y-74467829D01*
X138501235Y-74493891D01*
X138518529Y-74509212D01*
X138520684Y-74511241D01*
X139935148Y-75925705D01*
X139949500Y-75960353D01*
X139949500Y-86129747D01*
X139935148Y-86164395D01*
X139800995Y-86298548D01*
X139766347Y-86312900D01*
X136236052Y-86312900D01*
X136233693Y-86313369D01*
X136233685Y-86313370D01*
X136182305Y-86323590D01*
X136182300Y-86323591D01*
X136177569Y-86324533D01*
X136173557Y-86327213D01*
X136173554Y-86327215D01*
X136115259Y-86366167D01*
X136115256Y-86366169D01*
X136111248Y-86368848D01*
X136108569Y-86372856D01*
X136108567Y-86372859D01*
X136069615Y-86431154D01*
X136069613Y-86431157D01*
X136066933Y-86435169D01*
X136065991Y-86439900D01*
X136065990Y-86439905D01*
X136055770Y-86491285D01*
X136055769Y-86491293D01*
X136055300Y-86493652D01*
X136055300Y-86496062D01*
X136055300Y-86721075D01*
X136044177Y-86752160D01*
X136015859Y-86769134D01*
X135983201Y-86764289D01*
X135961030Y-86739826D01*
X135960253Y-86737951D01*
X135959024Y-86734983D01*
X135957070Y-86732436D01*
X135957068Y-86732433D01*
X135881535Y-86633998D01*
X135874791Y-86625209D01*
X135865697Y-86618231D01*
X135767566Y-86542931D01*
X135767565Y-86542930D01*
X135765018Y-86540976D01*
X135762052Y-86539747D01*
X135762048Y-86539745D01*
X135640151Y-86489255D01*
X135640148Y-86489254D01*
X135637183Y-86488026D01*
X135634002Y-86487607D01*
X135633998Y-86487606D01*
X135503183Y-86470384D01*
X135500000Y-86469965D01*
X135496817Y-86470384D01*
X135366001Y-86487606D01*
X135365995Y-86487607D01*
X135362817Y-86488026D01*
X135359853Y-86489253D01*
X135359848Y-86489255D01*
X135237951Y-86539746D01*
X135237947Y-86539748D01*
X135234983Y-86540976D01*
X135232441Y-86542925D01*
X135232433Y-86542931D01*
X135127757Y-86623253D01*
X135127755Y-86623255D01*
X135125209Y-86625209D01*
X135123256Y-86627753D01*
X135123253Y-86627757D01*
X135042931Y-86732433D01*
X135042925Y-86732441D01*
X135040976Y-86734983D01*
X135039748Y-86737947D01*
X135039746Y-86737951D01*
X134989255Y-86859848D01*
X134989253Y-86859853D01*
X134988026Y-86862817D01*
X134987607Y-86865995D01*
X134987606Y-86866001D01*
X134972294Y-86982307D01*
X134969965Y-87000000D01*
X134970384Y-87003183D01*
X134970384Y-87003184D01*
X134977948Y-87060642D01*
X134973855Y-87087575D01*
X134956010Y-87108160D01*
X134929930Y-87116034D01*
X134635957Y-87119413D01*
X134616903Y-87115793D01*
X134600746Y-87105064D01*
X133777136Y-86281454D01*
X133770767Y-86273613D01*
X133761437Y-86259331D01*
X133734849Y-86238637D01*
X133730304Y-86234622D01*
X133728743Y-86233061D01*
X133728742Y-86233060D01*
X133727307Y-86231625D01*
X133710396Y-86219551D01*
X133708772Y-86218340D01*
X133672332Y-86189977D01*
X133672326Y-86189973D01*
X133669126Y-86187483D01*
X133665285Y-86186164D01*
X133662348Y-86184575D01*
X133659370Y-86183118D01*
X133656066Y-86180760D01*
X133652177Y-86179602D01*
X133652175Y-86179601D01*
X133607916Y-86166424D01*
X133605988Y-86165806D01*
X133562330Y-86150819D01*
X133558488Y-86149500D01*
X133554426Y-86149500D01*
X133551160Y-86148955D01*
X133547846Y-86148541D01*
X133543954Y-86147383D01*
X133539899Y-86147550D01*
X133539894Y-86147550D01*
X133493784Y-86149458D01*
X133491759Y-86149500D01*
X131549500Y-86149500D01*
X131514852Y-86135148D01*
X131500500Y-86100500D01*
X131500500Y-85227610D01*
X131514852Y-85192962D01*
X133692962Y-83014852D01*
X133727610Y-83000500D01*
X136075370Y-83000500D01*
X136094121Y-83004230D01*
X136097057Y-83005446D01*
X136112817Y-83011974D01*
X136250000Y-83030035D01*
X136387183Y-83011974D01*
X136515018Y-82959024D01*
X136624791Y-82874791D01*
X136709024Y-82765018D01*
X136761974Y-82637183D01*
X136780035Y-82500000D01*
X136761974Y-82362817D01*
X136709024Y-82234983D01*
X136707070Y-82232436D01*
X136707068Y-82232433D01*
X136636386Y-82140320D01*
X136624791Y-82125209D01*
X136620635Y-82122020D01*
X136517566Y-82042931D01*
X136517565Y-82042930D01*
X136515018Y-82040976D01*
X136512052Y-82039747D01*
X136512048Y-82039745D01*
X136390151Y-81989255D01*
X136390148Y-81989254D01*
X136387183Y-81988026D01*
X136384002Y-81987607D01*
X136383998Y-81987606D01*
X136253183Y-81970384D01*
X136250000Y-81969965D01*
X136246817Y-81970384D01*
X136116001Y-81987606D01*
X136115995Y-81987607D01*
X136112817Y-81988026D01*
X136109853Y-81989253D01*
X136109848Y-81989255D01*
X136094121Y-81995770D01*
X136075370Y-81999500D01*
X133559080Y-81999500D01*
X133548664Y-81998380D01*
X133543451Y-81997246D01*
X133536073Y-81995641D01*
X133532577Y-81995891D01*
X133483869Y-81999375D01*
X133480373Y-81999500D01*
X133464201Y-81999500D01*
X133448191Y-82001801D01*
X133444721Y-82002174D01*
X133396010Y-82005659D01*
X133396009Y-82005659D01*
X133392517Y-82005909D01*
X133389241Y-82007130D01*
X133389235Y-82007132D01*
X133380444Y-82010411D01*
X133370301Y-82013000D01*
X133361011Y-82014336D01*
X133361009Y-82014336D01*
X133357543Y-82014835D01*
X133354358Y-82016289D01*
X133354356Y-82016290D01*
X133309932Y-82036577D01*
X133306703Y-82037914D01*
X133260951Y-82054979D01*
X133260946Y-82054981D01*
X133257669Y-82056204D01*
X133254870Y-82058299D01*
X133254861Y-82058304D01*
X133247347Y-82063929D01*
X133238347Y-82069269D01*
X133229812Y-82073167D01*
X133229805Y-82073171D01*
X133226627Y-82074623D01*
X133223984Y-82076912D01*
X133223981Y-82076915D01*
X133187081Y-82108888D01*
X133184362Y-82111079D01*
X133172808Y-82119728D01*
X133172789Y-82119743D01*
X133171407Y-82120779D01*
X133170178Y-82122007D01*
X133170164Y-82122020D01*
X133159956Y-82132227D01*
X133157400Y-82134607D01*
X133129535Y-82158753D01*
X133117857Y-82168872D01*
X133115964Y-82171818D01*
X133110888Y-82179715D01*
X133104317Y-82187867D01*
X130687867Y-84604317D01*
X130679715Y-84610887D01*
X130668872Y-84617857D01*
X130666579Y-84620502D01*
X130666578Y-84620504D01*
X130634607Y-84657400D01*
X130632227Y-84659956D01*
X130622020Y-84670164D01*
X130622007Y-84670178D01*
X130620779Y-84671407D01*
X130619743Y-84672789D01*
X130619728Y-84672808D01*
X130611079Y-84684362D01*
X130608888Y-84687081D01*
X130576915Y-84723981D01*
X130576912Y-84723984D01*
X130574623Y-84726627D01*
X130573171Y-84729805D01*
X130573167Y-84729812D01*
X130569269Y-84738347D01*
X130563929Y-84747347D01*
X130558304Y-84754861D01*
X130558299Y-84754870D01*
X130556204Y-84757669D01*
X130554981Y-84760946D01*
X130554979Y-84760951D01*
X130537914Y-84806703D01*
X130536577Y-84809932D01*
X130516290Y-84854356D01*
X130514835Y-84857543D01*
X130514336Y-84861009D01*
X130514336Y-84861011D01*
X130513000Y-84870301D01*
X130510411Y-84880444D01*
X130507132Y-84889235D01*
X130507130Y-84889241D01*
X130505909Y-84892517D01*
X130505659Y-84896009D01*
X130505659Y-84896010D01*
X130502174Y-84944721D01*
X130501801Y-84948191D01*
X130499500Y-84964201D01*
X130499500Y-84965953D01*
X130499500Y-84980373D01*
X130499375Y-84983868D01*
X130495641Y-85036073D01*
X130496386Y-85039497D01*
X130498380Y-85048664D01*
X130499500Y-85059080D01*
X130499500Y-86325370D01*
X130495770Y-86344121D01*
X130489255Y-86359848D01*
X130489253Y-86359853D01*
X130488026Y-86362817D01*
X130487607Y-86365995D01*
X130487606Y-86366001D01*
X130472747Y-86478867D01*
X130469965Y-86500000D01*
X130470384Y-86503183D01*
X130487606Y-86633998D01*
X130487607Y-86634002D01*
X130488026Y-86637183D01*
X130489254Y-86640148D01*
X130489255Y-86640151D01*
X130539745Y-86762048D01*
X130539747Y-86762052D01*
X130540976Y-86765018D01*
X130542930Y-86767565D01*
X130542931Y-86767566D01*
X130623255Y-86872245D01*
X130625209Y-86874791D01*
X130734982Y-86959024D01*
X130737949Y-86960253D01*
X130737951Y-86960254D01*
X130772811Y-86974693D01*
X130862817Y-87011974D01*
X131000000Y-87030035D01*
X131137183Y-87011974D01*
X131265018Y-86959024D01*
X131374791Y-86874791D01*
X131378721Y-86869668D01*
X131395923Y-86855553D01*
X131417594Y-86850500D01*
X133334522Y-86850500D01*
X133369170Y-86864852D01*
X135307015Y-88802697D01*
X135321320Y-88835207D01*
X135309904Y-88868841D01*
X135278765Y-88885926D01*
X135269915Y-88887091D01*
X135262817Y-88888026D01*
X135259853Y-88889253D01*
X135259848Y-88889255D01*
X135137951Y-88939746D01*
X135137947Y-88939748D01*
X135134983Y-88940976D01*
X135132441Y-88942925D01*
X135132433Y-88942931D01*
X135027757Y-89023253D01*
X135027753Y-89023256D01*
X135025209Y-89025209D01*
X135023256Y-89027753D01*
X135023253Y-89027757D01*
X134982914Y-89080329D01*
X134965712Y-89094447D01*
X134944040Y-89099500D01*
X131444767Y-89099500D01*
X131410119Y-89085148D01*
X125452008Y-83127037D01*
X125447553Y-83121918D01*
X125445982Y-83119838D01*
X125443958Y-83115772D01*
X125408414Y-83083369D01*
X125406777Y-83081806D01*
X125394400Y-83069429D01*
X125392797Y-83067826D01*
X125389833Y-83065795D01*
X125384525Y-83061589D01*
X125364291Y-83043144D01*
X125364286Y-83043141D01*
X125360933Y-83040084D01*
X125356701Y-83038444D01*
X125356699Y-83038443D01*
X125346355Y-83034436D01*
X125336372Y-83029174D01*
X125323481Y-83020344D01*
X125319063Y-83019304D01*
X125319059Y-83019303D01*
X125292420Y-83013038D01*
X125285938Y-83011031D01*
X125260409Y-83001141D01*
X125260408Y-83001140D01*
X125256173Y-82999500D01*
X125251630Y-82999500D01*
X125240546Y-82999500D01*
X125229327Y-82998198D01*
X125218542Y-82995661D01*
X125218540Y-82995660D01*
X125214119Y-82994621D01*
X125209623Y-82995248D01*
X125209619Y-82995248D01*
X125182513Y-82999030D01*
X125175743Y-82999500D01*
X121755892Y-82999500D01*
X121749122Y-82999030D01*
X121746539Y-82998669D01*
X121742235Y-82997227D01*
X121737703Y-82997436D01*
X121737700Y-82997436D01*
X121694190Y-82999448D01*
X121691927Y-82999500D01*
X121672156Y-82999500D01*
X121669941Y-82999913D01*
X121669919Y-82999916D01*
X121668617Y-83000160D01*
X121661892Y-83000940D01*
X121634542Y-83002205D01*
X121634539Y-83002205D01*
X121630008Y-83002415D01*
X121625860Y-83004246D01*
X121625853Y-83004248D01*
X121615705Y-83008729D01*
X121604921Y-83012068D01*
X121594030Y-83014104D01*
X121594027Y-83014105D01*
X121589567Y-83014939D01*
X121585710Y-83017326D01*
X121585702Y-83017330D01*
X121562428Y-83031739D01*
X121556431Y-83034901D01*
X121531387Y-83045960D01*
X121531384Y-83045961D01*
X121527235Y-83047794D01*
X121516183Y-83058844D01*
X121507337Y-83065852D01*
X121497904Y-83071692D01*
X121497899Y-83071696D01*
X121494048Y-83074081D01*
X121491317Y-83077696D01*
X121491315Y-83077699D01*
X121474814Y-83099550D01*
X121470360Y-83104667D01*
X121289881Y-83285148D01*
X121273985Y-83295770D01*
X121255233Y-83299500D01*
X117544767Y-83299500D01*
X117510119Y-83285148D01*
X116609119Y-82384148D01*
X116594767Y-82349500D01*
X116609119Y-82314852D01*
X116643767Y-82300500D01*
X121319108Y-82300500D01*
X121325878Y-82300970D01*
X121328459Y-82301330D01*
X121332765Y-82302773D01*
X121380810Y-82300551D01*
X121383073Y-82300500D01*
X121400580Y-82300500D01*
X121402844Y-82300500D01*
X121406370Y-82299840D01*
X121413107Y-82299058D01*
X121444992Y-82297585D01*
X121459290Y-82291270D01*
X121470074Y-82287931D01*
X121485433Y-82285061D01*
X121512575Y-82268254D01*
X121518550Y-82265105D01*
X121547765Y-82252206D01*
X121558816Y-82241154D01*
X121567662Y-82234146D01*
X121580952Y-82225919D01*
X121600185Y-82200448D01*
X121604634Y-82195335D01*
X122174969Y-81625000D01*
X130719965Y-81625000D01*
X130720384Y-81628183D01*
X130737606Y-81758998D01*
X130737607Y-81759002D01*
X130738026Y-81762183D01*
X130739254Y-81765148D01*
X130739255Y-81765151D01*
X130789745Y-81887048D01*
X130789747Y-81887052D01*
X130790976Y-81890018D01*
X130792930Y-81892565D01*
X130792931Y-81892566D01*
X130872216Y-81995891D01*
X130875209Y-81999791D01*
X130984982Y-82084024D01*
X130987949Y-82085253D01*
X130987951Y-82085254D01*
X131045010Y-82108888D01*
X131112817Y-82136974D01*
X131250000Y-82155035D01*
X131387183Y-82136974D01*
X131515018Y-82084024D01*
X131624791Y-81999791D01*
X131709024Y-81890018D01*
X131761974Y-81762183D01*
X131762393Y-81758993D01*
X131775075Y-81737027D01*
X132361223Y-81150878D01*
X132365292Y-81147241D01*
X132396470Y-81122379D01*
X132429476Y-81073966D01*
X132430498Y-81072525D01*
X132465293Y-81025382D01*
X132466505Y-81021916D01*
X132468223Y-81018667D01*
X132468340Y-81018729D01*
X132469428Y-81016574D01*
X132469308Y-81016517D01*
X132470898Y-81013213D01*
X132472972Y-81010173D01*
X132490239Y-80954190D01*
X132490808Y-80952461D01*
X132491537Y-80950379D01*
X132510146Y-80897199D01*
X132510283Y-80893526D01*
X132510966Y-80889919D01*
X132511097Y-80889943D01*
X132511501Y-80887562D01*
X132511370Y-80887543D01*
X132511917Y-80883909D01*
X132513000Y-80880402D01*
X132513000Y-80821866D01*
X132513034Y-80820033D01*
X132513765Y-80800500D01*
X132515225Y-80761490D01*
X132514273Y-80757938D01*
X132513863Y-80754296D01*
X132513993Y-80754281D01*
X132513000Y-80746737D01*
X132513000Y-74294377D01*
X132521258Y-74267154D01*
X132543249Y-74249107D01*
X132618625Y-74217885D01*
X132640018Y-74209024D01*
X132749791Y-74124791D01*
X132834024Y-74015018D01*
X132886974Y-73887183D01*
X132905035Y-73750000D01*
X132903993Y-73742089D01*
X132895498Y-73677559D01*
X132886974Y-73612817D01*
X132834024Y-73484983D01*
X132832070Y-73482436D01*
X132832068Y-73482433D01*
X132767376Y-73398126D01*
X132749791Y-73375209D01*
X132744695Y-73371299D01*
X132642566Y-73292931D01*
X132642565Y-73292930D01*
X132640018Y-73290976D01*
X132637052Y-73289747D01*
X132637048Y-73289745D01*
X132515151Y-73239255D01*
X132515148Y-73239254D01*
X132512183Y-73238026D01*
X132509002Y-73237607D01*
X132508998Y-73237606D01*
X132378183Y-73220384D01*
X132375000Y-73219965D01*
X132371817Y-73220384D01*
X132241001Y-73237606D01*
X132240995Y-73237607D01*
X132237817Y-73238026D01*
X132234853Y-73239253D01*
X132234848Y-73239255D01*
X132112951Y-73289746D01*
X132112947Y-73289748D01*
X132109983Y-73290976D01*
X132107441Y-73292925D01*
X132107433Y-73292931D01*
X132002757Y-73373253D01*
X132002755Y-73373255D01*
X132000209Y-73375209D01*
X131998256Y-73377753D01*
X131998253Y-73377757D01*
X131917931Y-73482433D01*
X131917925Y-73482441D01*
X131915976Y-73484983D01*
X131914748Y-73487947D01*
X131914746Y-73487951D01*
X131864254Y-73609851D01*
X131864253Y-73609854D01*
X131863026Y-73612817D01*
X131862607Y-73615995D01*
X131862603Y-73616012D01*
X131849922Y-73637973D01*
X131763786Y-73724109D01*
X131759690Y-73727770D01*
X131731401Y-73750331D01*
X131728530Y-73752621D01*
X131726462Y-73755653D01*
X131726462Y-73755654D01*
X131695547Y-73800996D01*
X131694488Y-73802488D01*
X131661888Y-73846660D01*
X131661882Y-73846669D01*
X131659707Y-73849618D01*
X131658494Y-73853082D01*
X131656780Y-73856327D01*
X131656665Y-73856266D01*
X131655573Y-73858428D01*
X131655689Y-73858484D01*
X131654093Y-73861797D01*
X131652028Y-73864827D01*
X131650948Y-73868327D01*
X131650946Y-73868332D01*
X131634758Y-73920813D01*
X131634188Y-73922544D01*
X131614854Y-73977801D01*
X131614716Y-73981468D01*
X131614033Y-73985079D01*
X131613906Y-73985054D01*
X131613500Y-73987441D01*
X131613628Y-73987461D01*
X131613080Y-73991092D01*
X131612000Y-73994598D01*
X131612000Y-73998267D01*
X131612000Y-74053151D01*
X131611966Y-74054983D01*
X131611159Y-74076560D01*
X131609776Y-74113510D01*
X131610727Y-74117059D01*
X131611138Y-74120704D01*
X131611007Y-74120718D01*
X131612000Y-74128260D01*
X131612000Y-80605601D01*
X131608270Y-80624353D01*
X131597648Y-80640249D01*
X131137974Y-81099922D01*
X131116012Y-81112603D01*
X131115995Y-81112607D01*
X131112817Y-81113026D01*
X131109852Y-81114253D01*
X131109852Y-81114254D01*
X130987951Y-81164746D01*
X130987947Y-81164748D01*
X130984983Y-81165976D01*
X130982441Y-81167925D01*
X130982433Y-81167931D01*
X130877757Y-81248253D01*
X130877753Y-81248256D01*
X130875209Y-81250209D01*
X130873256Y-81252753D01*
X130873253Y-81252757D01*
X130792931Y-81357433D01*
X130792925Y-81357441D01*
X130790976Y-81359983D01*
X130789748Y-81362947D01*
X130789746Y-81362951D01*
X130739255Y-81484848D01*
X130739253Y-81484853D01*
X130738026Y-81487817D01*
X130737607Y-81490995D01*
X130737606Y-81491001D01*
X130721480Y-81613491D01*
X130719965Y-81625000D01*
X122174969Y-81625000D01*
X122985118Y-80814852D01*
X123019767Y-80800500D01*
X125831581Y-80800500D01*
X125833844Y-80800500D01*
X125856129Y-80796334D01*
X125865134Y-80795500D01*
X126255762Y-80795500D01*
X126273460Y-80798808D01*
X126277827Y-80800500D01*
X126581845Y-80800500D01*
X126607447Y-80807721D01*
X126625503Y-80827253D01*
X126651472Y-80878220D01*
X126746780Y-80973528D01*
X126832638Y-81017275D01*
X126854342Y-81028334D01*
X126866874Y-81034719D01*
X127000000Y-81055804D01*
X127133126Y-81034719D01*
X127253220Y-80973528D01*
X127348528Y-80878220D01*
X127409719Y-80758126D01*
X127430804Y-80625000D01*
X127427902Y-80606677D01*
X127425603Y-80592162D01*
X127425000Y-80584497D01*
X127425000Y-79915503D01*
X127425603Y-79907838D01*
X127430201Y-79878807D01*
X127430804Y-79875000D01*
X127409719Y-79741874D01*
X127407439Y-79737400D01*
X127388862Y-79700940D01*
X127348528Y-79621780D01*
X127253220Y-79526472D01*
X127207401Y-79503126D01*
X127136560Y-79467030D01*
X127136556Y-79467028D01*
X127133126Y-79465281D01*
X127000000Y-79444196D01*
X126996193Y-79444799D01*
X126870680Y-79464678D01*
X126870678Y-79464678D01*
X126866874Y-79465281D01*
X126863445Y-79467027D01*
X126863439Y-79467030D01*
X126750214Y-79524722D01*
X126750212Y-79524722D01*
X126746780Y-79526472D01*
X126744056Y-79529195D01*
X126744053Y-79529198D01*
X126654199Y-79619052D01*
X126654196Y-79619055D01*
X126651472Y-79621780D01*
X126649723Y-79625211D01*
X126649721Y-79625215D01*
X126625504Y-79672746D01*
X126607447Y-79692279D01*
X126581845Y-79699500D01*
X122805893Y-79699500D01*
X122799123Y-79699030D01*
X122796540Y-79698669D01*
X122792236Y-79697227D01*
X122787704Y-79697436D01*
X122787701Y-79697436D01*
X122744191Y-79699448D01*
X122741928Y-79699500D01*
X122722156Y-79699500D01*
X122719941Y-79699913D01*
X122719919Y-79699916D01*
X122718617Y-79700160D01*
X122711893Y-79700940D01*
X122684543Y-79702205D01*
X122684541Y-79702205D01*
X122680009Y-79702415D01*
X122675861Y-79704246D01*
X122675854Y-79704248D01*
X122665706Y-79708729D01*
X122654922Y-79712068D01*
X122644030Y-79714104D01*
X122644027Y-79714105D01*
X122639567Y-79714939D01*
X122635706Y-79717329D01*
X122635707Y-79717329D01*
X122612437Y-79731736D01*
X122606437Y-79734898D01*
X122581391Y-79745957D01*
X122581383Y-79745962D01*
X122577235Y-79747794D01*
X122574028Y-79751000D01*
X122574026Y-79751002D01*
X122569967Y-79755060D01*
X122566183Y-79758844D01*
X122557337Y-79765852D01*
X122547904Y-79771692D01*
X122547899Y-79771696D01*
X122544048Y-79774081D01*
X122541317Y-79777696D01*
X122541315Y-79777699D01*
X122524814Y-79799550D01*
X122520360Y-79804667D01*
X121039881Y-81285148D01*
X121023985Y-81295770D01*
X121005233Y-81299500D01*
X116869768Y-81299500D01*
X116835120Y-81285148D01*
X116564852Y-81014881D01*
X116554230Y-80998985D01*
X116550500Y-80980233D01*
X116550500Y-80500000D01*
X117029196Y-80500000D01*
X117050281Y-80633126D01*
X117052028Y-80636556D01*
X117052030Y-80636560D01*
X117064875Y-80661769D01*
X117111472Y-80753220D01*
X117206780Y-80848528D01*
X117326874Y-80909719D01*
X117460000Y-80930804D01*
X117593126Y-80909719D01*
X117713220Y-80848528D01*
X117808528Y-80753220D01*
X117869719Y-80633126D01*
X117890804Y-80500000D01*
X117869719Y-80366874D01*
X117808528Y-80246780D01*
X117774852Y-80213104D01*
X117760500Y-80178456D01*
X117760500Y-80148122D01*
X117771420Y-80117285D01*
X117799312Y-80100193D01*
X117831742Y-80104461D01*
X117851874Y-80114719D01*
X117985000Y-80135804D01*
X118118126Y-80114719D01*
X118238220Y-80053528D01*
X118333528Y-79958220D01*
X118394719Y-79838126D01*
X118407002Y-79760570D01*
X118417318Y-79737400D01*
X118437839Y-79722491D01*
X118463061Y-79719840D01*
X118494400Y-79724804D01*
X118627526Y-79703719D01*
X118747620Y-79642528D01*
X118750078Y-79640069D01*
X118782557Y-79630909D01*
X118813362Y-79645110D01*
X118886780Y-79718528D01*
X118944218Y-79747794D01*
X119002909Y-79777699D01*
X119006874Y-79779719D01*
X119140000Y-79800804D01*
X119273126Y-79779719D01*
X119393220Y-79718528D01*
X119488528Y-79623220D01*
X119549719Y-79503126D01*
X119570804Y-79370000D01*
X119549719Y-79236874D01*
X119488528Y-79116780D01*
X119454852Y-79083104D01*
X119440500Y-79048456D01*
X119440500Y-74345467D01*
X119454852Y-74310819D01*
X119916053Y-73849618D01*
X120382971Y-73382699D01*
X120388087Y-73378248D01*
X120390158Y-73376683D01*
X120394228Y-73374658D01*
X120426631Y-73339112D01*
X120428152Y-73337518D01*
X120442175Y-73323497D01*
X120444200Y-73320539D01*
X120448414Y-73315217D01*
X120469916Y-73291633D01*
X120475562Y-73277055D01*
X120480824Y-73267072D01*
X120489657Y-73254180D01*
X120496963Y-73223110D01*
X120498970Y-73216632D01*
X120503368Y-73205281D01*
X120510500Y-73186873D01*
X120510500Y-73171245D01*
X120511802Y-73160026D01*
X120512103Y-73158747D01*
X120515379Y-73144818D01*
X120511670Y-73118231D01*
X120510970Y-73113209D01*
X120510500Y-73106440D01*
X120510500Y-71649167D01*
X120524852Y-71614519D01*
X123849519Y-68289852D01*
X123884167Y-68275500D01*
X125178456Y-68275500D01*
X125213104Y-68289852D01*
X125246780Y-68323528D01*
X125325224Y-68363497D01*
X125340445Y-68371253D01*
X125366874Y-68384719D01*
X125500000Y-68405804D01*
X125633126Y-68384719D01*
X125753220Y-68323528D01*
X125848528Y-68228220D01*
X125909719Y-68108126D01*
X125930804Y-67975000D01*
X125909719Y-67841874D01*
X125848528Y-67721780D01*
X125753220Y-67626472D01*
X125720397Y-67609748D01*
X125636560Y-67567030D01*
X125636556Y-67567028D01*
X125633126Y-67565281D01*
X125500000Y-67544196D01*
X125496193Y-67544799D01*
X125370680Y-67564678D01*
X125370678Y-67564678D01*
X125366874Y-67565281D01*
X125363445Y-67567027D01*
X125363439Y-67567030D01*
X125250214Y-67624722D01*
X125250212Y-67624722D01*
X125246780Y-67626472D01*
X125244056Y-67629195D01*
X125244053Y-67629198D01*
X125213104Y-67660148D01*
X125178456Y-67674500D01*
X123795292Y-67674500D01*
X123788522Y-67674030D01*
X123785939Y-67673669D01*
X123781635Y-67672227D01*
X123777103Y-67672436D01*
X123777100Y-67672436D01*
X123733590Y-67674448D01*
X123731327Y-67674500D01*
X123711556Y-67674500D01*
X123709341Y-67674913D01*
X123709319Y-67674916D01*
X123708017Y-67675160D01*
X123701292Y-67675940D01*
X123673944Y-67677205D01*
X123673942Y-67677205D01*
X123669408Y-67677415D01*
X123665258Y-67679247D01*
X123665250Y-67679249D01*
X123655103Y-67683729D01*
X123644325Y-67687067D01*
X123633430Y-67689104D01*
X123633427Y-67689104D01*
X123628967Y-67689939D01*
X123625106Y-67692329D01*
X123625102Y-67692331D01*
X123601833Y-67706737D01*
X123595836Y-67709899D01*
X123570784Y-67720961D01*
X123570782Y-67720962D01*
X123566634Y-67722794D01*
X123563424Y-67726003D01*
X123563422Y-67726005D01*
X123555580Y-67733846D01*
X123546734Y-67740854D01*
X123537304Y-67746693D01*
X123537302Y-67746694D01*
X123533448Y-67749081D01*
X123530714Y-67752700D01*
X123530715Y-67752700D01*
X123514217Y-67774546D01*
X123509763Y-67779663D01*
X122538617Y-68750809D01*
X122511634Y-68764558D01*
X122481724Y-68759820D01*
X122460310Y-68738407D01*
X122423771Y-68666696D01*
X122408528Y-68636780D01*
X122313220Y-68541472D01*
X122282926Y-68526036D01*
X122196560Y-68482030D01*
X122196556Y-68482028D01*
X122193126Y-68480281D01*
X122060000Y-68459196D01*
X122056193Y-68459799D01*
X121930680Y-68479678D01*
X121930678Y-68479678D01*
X121926874Y-68480281D01*
X121923445Y-68482027D01*
X121923439Y-68482030D01*
X121810214Y-68539722D01*
X121810212Y-68539722D01*
X121806780Y-68541472D01*
X121804056Y-68544195D01*
X121804053Y-68544198D01*
X121714198Y-68634053D01*
X121714195Y-68634056D01*
X121711472Y-68636780D01*
X121709722Y-68640212D01*
X121709722Y-68640214D01*
X121652030Y-68753439D01*
X121652027Y-68753445D01*
X121650281Y-68756874D01*
X121649678Y-68760676D01*
X121649678Y-68760679D01*
X121630588Y-68881206D01*
X121616839Y-68908188D01*
X119637039Y-70887988D01*
X119631922Y-70892441D01*
X119629830Y-70894020D01*
X119625772Y-70896042D01*
X119622717Y-70899392D01*
X119622713Y-70899396D01*
X119593357Y-70931596D01*
X119591798Y-70933230D01*
X119577826Y-70947203D01*
X119576549Y-70949066D01*
X119576542Y-70949075D01*
X119575792Y-70950170D01*
X119571590Y-70955474D01*
X119560277Y-70967885D01*
X119555923Y-70972662D01*
X119550084Y-70979067D01*
X119548444Y-70983298D01*
X119548440Y-70983306D01*
X119544434Y-70993645D01*
X119539173Y-71003627D01*
X119532910Y-71012771D01*
X119532907Y-71012775D01*
X119530344Y-71016519D01*
X119529305Y-71020935D01*
X119529304Y-71020938D01*
X119523036Y-71047584D01*
X119521030Y-71054062D01*
X119517911Y-71062114D01*
X119509500Y-71083827D01*
X119509500Y-71088371D01*
X119509500Y-71099454D01*
X119508198Y-71110673D01*
X119505661Y-71121457D01*
X119505660Y-71121460D01*
X119504621Y-71125881D01*
X119505248Y-71130376D01*
X119505248Y-71130380D01*
X119509030Y-71157487D01*
X119509500Y-71164257D01*
X119509500Y-71684616D01*
X119498580Y-71715453D01*
X119470688Y-71732545D01*
X119438254Y-71728275D01*
X119396560Y-71707030D01*
X119396556Y-71707028D01*
X119393126Y-71705281D01*
X119389321Y-71704678D01*
X119389320Y-71704678D01*
X119325843Y-71694624D01*
X119302672Y-71684307D01*
X119287763Y-71663787D01*
X119285112Y-71638563D01*
X119292804Y-71590000D01*
X119271719Y-71456874D01*
X119210528Y-71336780D01*
X119115220Y-71241472D01*
X119078303Y-71222662D01*
X118998560Y-71182030D01*
X118998556Y-71182028D01*
X118995126Y-71180281D01*
X118862000Y-71159196D01*
X118858193Y-71159799D01*
X118732680Y-71179678D01*
X118732678Y-71179678D01*
X118728874Y-71180281D01*
X118725445Y-71182027D01*
X118725439Y-71182030D01*
X118612215Y-71239721D01*
X118612211Y-71239723D01*
X118608780Y-71241472D01*
X118606057Y-71244194D01*
X118606050Y-71244200D01*
X118572422Y-71277827D01*
X118542711Y-71290947D01*
X118542763Y-71291166D01*
X118541596Y-71291440D01*
X118540046Y-71292125D01*
X118538350Y-71292203D01*
X118538339Y-71292205D01*
X118533808Y-71292415D01*
X118529658Y-71294247D01*
X118529650Y-71294249D01*
X118519503Y-71298729D01*
X118508725Y-71302067D01*
X118497830Y-71304104D01*
X118497827Y-71304104D01*
X118493367Y-71304939D01*
X118489506Y-71307329D01*
X118489502Y-71307331D01*
X118466233Y-71321737D01*
X118460236Y-71324899D01*
X118435184Y-71335961D01*
X118435182Y-71335962D01*
X118431034Y-71337794D01*
X118427824Y-71341003D01*
X118427822Y-71341005D01*
X118419980Y-71348846D01*
X118411134Y-71355854D01*
X118401704Y-71361693D01*
X118401702Y-71361694D01*
X118397848Y-71364081D01*
X118395114Y-71367700D01*
X118395115Y-71367700D01*
X118378617Y-71389546D01*
X118374163Y-71394663D01*
X117287039Y-72481788D01*
X117281922Y-72486241D01*
X117279830Y-72487820D01*
X117275772Y-72489842D01*
X117272717Y-72493192D01*
X117272713Y-72493196D01*
X117243357Y-72525396D01*
X117241798Y-72527030D01*
X117227826Y-72541003D01*
X117226549Y-72542866D01*
X117226542Y-72542875D01*
X117225792Y-72543970D01*
X117221590Y-72549274D01*
X117200084Y-72572867D01*
X117198444Y-72577098D01*
X117198440Y-72577106D01*
X117194434Y-72587445D01*
X117189173Y-72597427D01*
X117182910Y-72606571D01*
X117182907Y-72606575D01*
X117180344Y-72610319D01*
X117179305Y-72614735D01*
X117179304Y-72614738D01*
X117173036Y-72641384D01*
X117171030Y-72647862D01*
X117165643Y-72661769D01*
X117159500Y-72677627D01*
X117159500Y-72682171D01*
X117159500Y-72693254D01*
X117158198Y-72704473D01*
X117155661Y-72715257D01*
X117155660Y-72715260D01*
X117154621Y-72719681D01*
X117155248Y-72724176D01*
X117155248Y-72724180D01*
X117159030Y-72751287D01*
X117159500Y-72758057D01*
X117159500Y-80178456D01*
X117145148Y-80213104D01*
X117114198Y-80244053D01*
X117114195Y-80244056D01*
X117111472Y-80246780D01*
X117109722Y-80250212D01*
X117109722Y-80250214D01*
X117052030Y-80363439D01*
X117052027Y-80363445D01*
X117050281Y-80366874D01*
X117029196Y-80500000D01*
X116550500Y-80500000D01*
X116550500Y-78930892D01*
X116550970Y-78924122D01*
X116551330Y-78921540D01*
X116552773Y-78917235D01*
X116550551Y-78869189D01*
X116550500Y-78866927D01*
X116550500Y-78849423D01*
X116550500Y-78847156D01*
X116549840Y-78843630D01*
X116549058Y-78836893D01*
X116547585Y-78805008D01*
X116541270Y-78790705D01*
X116537931Y-78779921D01*
X116535895Y-78769028D01*
X116535894Y-78769027D01*
X116535061Y-78764567D01*
X116518259Y-78737431D01*
X116515098Y-78731432D01*
X116504039Y-78706386D01*
X116502206Y-78702234D01*
X116491156Y-78691184D01*
X116484143Y-78682330D01*
X116478311Y-78672911D01*
X116478310Y-78672910D01*
X116475919Y-78669048D01*
X116450449Y-78649814D01*
X116445335Y-78645364D01*
X115791552Y-77991581D01*
X115777200Y-77956933D01*
X115777200Y-76532592D01*
X115777670Y-76525822D01*
X115778030Y-76523240D01*
X115779473Y-76518935D01*
X115777251Y-76470889D01*
X115777200Y-76468627D01*
X115777200Y-76451123D01*
X115777200Y-76448856D01*
X115776540Y-76445330D01*
X115775758Y-76438593D01*
X115774285Y-76406708D01*
X115772450Y-76402553D01*
X115772450Y-76402551D01*
X115767972Y-76392409D01*
X115764631Y-76381621D01*
X115764300Y-76379852D01*
X115761761Y-76366267D01*
X115744958Y-76339129D01*
X115741797Y-76333131D01*
X115732517Y-76312114D01*
X115728906Y-76303935D01*
X115717858Y-76292887D01*
X115710845Y-76284033D01*
X115705009Y-76274607D01*
X115705006Y-76274604D01*
X115702619Y-76270748D01*
X115677149Y-76251514D01*
X115672030Y-76247059D01*
X114917008Y-75492037D01*
X114912553Y-75486918D01*
X114910982Y-75484838D01*
X114908958Y-75480772D01*
X114873414Y-75448369D01*
X114871777Y-75446806D01*
X114859400Y-75434429D01*
X114859399Y-75434428D01*
X114857797Y-75432826D01*
X114854833Y-75430795D01*
X114849525Y-75426589D01*
X114829291Y-75408144D01*
X114829286Y-75408141D01*
X114825933Y-75405084D01*
X114821701Y-75403444D01*
X114821699Y-75403443D01*
X114811355Y-75399436D01*
X114801372Y-75394174D01*
X114788481Y-75385344D01*
X114784063Y-75384304D01*
X114784059Y-75384303D01*
X114757420Y-75378038D01*
X114750938Y-75376031D01*
X114725409Y-75366141D01*
X114725408Y-75366140D01*
X114721173Y-75364500D01*
X114716630Y-75364500D01*
X114705546Y-75364500D01*
X114694327Y-75363198D01*
X114683542Y-75360661D01*
X114683540Y-75360660D01*
X114679119Y-75359621D01*
X114674623Y-75360248D01*
X114674619Y-75360248D01*
X114647513Y-75364030D01*
X114640743Y-75364500D01*
X112533544Y-75364500D01*
X112498896Y-75350148D01*
X112467946Y-75319198D01*
X112467945Y-75319197D01*
X112465220Y-75316472D01*
X112403145Y-75284843D01*
X112348560Y-75257030D01*
X112348556Y-75257028D01*
X112345126Y-75255281D01*
X112212000Y-75234196D01*
X112208193Y-75234799D01*
X112082680Y-75254678D01*
X112082678Y-75254678D01*
X112078874Y-75255281D01*
X112075445Y-75257027D01*
X112075439Y-75257030D01*
X111962214Y-75314722D01*
X111962212Y-75314722D01*
X111958780Y-75316472D01*
X111956057Y-75319195D01*
X111925157Y-75350095D01*
X111906081Y-75361906D01*
X111883740Y-75363976D01*
X111881536Y-75363668D01*
X111877235Y-75362227D01*
X111872704Y-75362436D01*
X111872702Y-75362436D01*
X111829190Y-75364448D01*
X111826927Y-75364500D01*
X111807156Y-75364500D01*
X111804941Y-75364913D01*
X111804919Y-75364916D01*
X111803617Y-75365160D01*
X111796892Y-75365940D01*
X111769542Y-75367205D01*
X111769539Y-75367205D01*
X111765008Y-75367415D01*
X111760860Y-75369246D01*
X111760853Y-75369248D01*
X111750705Y-75373729D01*
X111739921Y-75377068D01*
X111729030Y-75379104D01*
X111729027Y-75379105D01*
X111724567Y-75379939D01*
X111720710Y-75382326D01*
X111720702Y-75382330D01*
X111697428Y-75396739D01*
X111691431Y-75399901D01*
X111666387Y-75410960D01*
X111666384Y-75410961D01*
X111662235Y-75412794D01*
X111651183Y-75423844D01*
X111642337Y-75430852D01*
X111632904Y-75436692D01*
X111632899Y-75436696D01*
X111629048Y-75439081D01*
X111626317Y-75442696D01*
X111626315Y-75442699D01*
X111609814Y-75464550D01*
X111605360Y-75469667D01*
X111243081Y-75831948D01*
X111227185Y-75842570D01*
X111208433Y-75846300D01*
X105759500Y-75846300D01*
X105724852Y-75831948D01*
X105710500Y-75797300D01*
X105710500Y-75472662D01*
X105710500Y-75470252D01*
X105698867Y-75411769D01*
X105696489Y-75408210D01*
X105692867Y-75389998D01*
X105696489Y-75371788D01*
X105698867Y-75368231D01*
X105710500Y-75309748D01*
X105710500Y-74970252D01*
X105698867Y-74911769D01*
X105696489Y-74908210D01*
X105692867Y-74890000D01*
X105696489Y-74871789D01*
X105698867Y-74868231D01*
X105710500Y-74809748D01*
X105710500Y-74470252D01*
X105698867Y-74411769D01*
X105696489Y-74408210D01*
X105692867Y-74390000D01*
X105696489Y-74371789D01*
X105698867Y-74368231D01*
X105710500Y-74309748D01*
X105710500Y-73970252D01*
X105698867Y-73911769D01*
X105696489Y-73908210D01*
X105692867Y-73889998D01*
X105696489Y-73871788D01*
X105698867Y-73868231D01*
X105710500Y-73809748D01*
X105710500Y-73489500D01*
X105724852Y-73454852D01*
X105759500Y-73440500D01*
X108387733Y-73440500D01*
X108422381Y-73454852D01*
X109540490Y-74572961D01*
X109544945Y-74578079D01*
X109546515Y-74580158D01*
X109548542Y-74584228D01*
X109578121Y-74611193D01*
X109584084Y-74616629D01*
X109585720Y-74618191D01*
X109599703Y-74632174D01*
X109602655Y-74634196D01*
X109607976Y-74638411D01*
X109628208Y-74656855D01*
X109628211Y-74656857D01*
X109631567Y-74659916D01*
X109644939Y-74665096D01*
X109646139Y-74665561D01*
X109656130Y-74670827D01*
X109659560Y-74673177D01*
X109669019Y-74679656D01*
X109700087Y-74686963D01*
X109706552Y-74688964D01*
X109736327Y-74700500D01*
X109751954Y-74700500D01*
X109763173Y-74701802D01*
X109778381Y-74705379D01*
X109782880Y-74704751D01*
X109785017Y-74704850D01*
X109817402Y-74719150D01*
X109846780Y-74748528D01*
X109966874Y-74809719D01*
X110100000Y-74830804D01*
X110233126Y-74809719D01*
X110353220Y-74748528D01*
X110402108Y-74699638D01*
X110424793Y-74687683D01*
X110424736Y-74687536D01*
X110426011Y-74687041D01*
X110427757Y-74686121D01*
X110433433Y-74685061D01*
X110460575Y-74668254D01*
X110466550Y-74665105D01*
X110495765Y-74652206D01*
X110506817Y-74641153D01*
X110515668Y-74634143D01*
X110516778Y-74633456D01*
X110528952Y-74625919D01*
X110548185Y-74600448D01*
X110552627Y-74595342D01*
X110693121Y-74454850D01*
X110727768Y-74440500D01*
X111946808Y-74440500D01*
X111953578Y-74440970D01*
X111956159Y-74441330D01*
X111960465Y-74442773D01*
X112008510Y-74440551D01*
X112010773Y-74440500D01*
X112028280Y-74440500D01*
X112030544Y-74440500D01*
X112034070Y-74439840D01*
X112040807Y-74439058D01*
X112072692Y-74437585D01*
X112086990Y-74431270D01*
X112097774Y-74427931D01*
X112113133Y-74425061D01*
X112140275Y-74408254D01*
X112146250Y-74405105D01*
X112175465Y-74392206D01*
X112186516Y-74381154D01*
X112195362Y-74374146D01*
X112208652Y-74365919D01*
X112227885Y-74340448D01*
X112232334Y-74335335D01*
X112263299Y-74304370D01*
X112290280Y-74290623D01*
X112320190Y-74295360D01*
X112337876Y-74304372D01*
X112408680Y-74340449D01*
X112426874Y-74349719D01*
X112560000Y-74370804D01*
X112693126Y-74349719D01*
X112813220Y-74288528D01*
X112908528Y-74193220D01*
X112969719Y-74073126D01*
X112990804Y-73940000D01*
X112969719Y-73806874D01*
X112908528Y-73686780D01*
X112813220Y-73591472D01*
X112706025Y-73536853D01*
X112687177Y-73519882D01*
X112679339Y-73495759D01*
X112684612Y-73470951D01*
X112721719Y-73398126D01*
X112742804Y-73265000D01*
X112721719Y-73131874D01*
X112714767Y-73118231D01*
X112700304Y-73089845D01*
X112695145Y-73063376D01*
X112704773Y-73038186D01*
X112720964Y-73025923D01*
X112720431Y-73025062D01*
X112720433Y-73025061D01*
X112747575Y-73008254D01*
X112753550Y-73005105D01*
X112782765Y-72992206D01*
X112793819Y-72981151D01*
X112802663Y-72974146D01*
X112815952Y-72965919D01*
X112835185Y-72940448D01*
X112839634Y-72935335D01*
X113006811Y-72768158D01*
X113033790Y-72754411D01*
X113158126Y-72734719D01*
X113278220Y-72673528D01*
X113373528Y-72578220D01*
X113434719Y-72458126D01*
X113455804Y-72325000D01*
X113434719Y-72191874D01*
X113373528Y-72071780D01*
X113278220Y-71976472D01*
X113241178Y-71957598D01*
X113161560Y-71917030D01*
X113161556Y-71917028D01*
X113158126Y-71915281D01*
X113025000Y-71894196D01*
X113021193Y-71894799D01*
X112895680Y-71914678D01*
X112895678Y-71914678D01*
X112891874Y-71915281D01*
X112888445Y-71917027D01*
X112888439Y-71917030D01*
X112775214Y-71974722D01*
X112775212Y-71974722D01*
X112771780Y-71976472D01*
X112769056Y-71979195D01*
X112769053Y-71979198D01*
X112679198Y-72069053D01*
X112679195Y-72069056D01*
X112676472Y-72071780D01*
X112674722Y-72075212D01*
X112674722Y-72075214D01*
X112617030Y-72188439D01*
X112617027Y-72188445D01*
X112615281Y-72191874D01*
X112614678Y-72195676D01*
X112614678Y-72195679D01*
X112595588Y-72316206D01*
X112581839Y-72343188D01*
X112499878Y-72425150D01*
X112483985Y-72435770D01*
X112465233Y-72439500D01*
X110777767Y-72439500D01*
X110743119Y-72425148D01*
X110551160Y-72233189D01*
X110537411Y-72206206D01*
X110536825Y-72202506D01*
X110517719Y-72081874D01*
X110511771Y-72070201D01*
X110481987Y-72011746D01*
X110477717Y-71979312D01*
X110494809Y-71951420D01*
X110525646Y-71940500D01*
X111481108Y-71940500D01*
X111487878Y-71940970D01*
X111490459Y-71941330D01*
X111494765Y-71942773D01*
X111542810Y-71940551D01*
X111545073Y-71940500D01*
X111562580Y-71940500D01*
X111564844Y-71940500D01*
X111568370Y-71939840D01*
X111575107Y-71939058D01*
X111606992Y-71937585D01*
X111621290Y-71931270D01*
X111632074Y-71927931D01*
X111647433Y-71925061D01*
X111674575Y-71908254D01*
X111680550Y-71905105D01*
X111709765Y-71892206D01*
X111720816Y-71881154D01*
X111729662Y-71874146D01*
X111742952Y-71865919D01*
X111762185Y-71840448D01*
X111766634Y-71835335D01*
X112296070Y-71305899D01*
X112323049Y-71292152D01*
X112433126Y-71274719D01*
X112553220Y-71213528D01*
X112648528Y-71118220D01*
X112709719Y-70998126D01*
X112730804Y-70865000D01*
X112709719Y-70731874D01*
X112648528Y-70611780D01*
X112553220Y-70516472D01*
X112522926Y-70501036D01*
X112436560Y-70457030D01*
X112436556Y-70457028D01*
X112433126Y-70455281D01*
X112300000Y-70434196D01*
X112296193Y-70434799D01*
X112170680Y-70454678D01*
X112170678Y-70454678D01*
X112166874Y-70455281D01*
X112163445Y-70457027D01*
X112163439Y-70457030D01*
X112050214Y-70514722D01*
X112050212Y-70514722D01*
X112046780Y-70516472D01*
X112044056Y-70519195D01*
X112044053Y-70519198D01*
X111954198Y-70609053D01*
X111954195Y-70609056D01*
X111951472Y-70611780D01*
X111949722Y-70615212D01*
X111949722Y-70615214D01*
X111892030Y-70728439D01*
X111892027Y-70728445D01*
X111890281Y-70731874D01*
X111889678Y-70735678D01*
X111889678Y-70735680D01*
X111883734Y-70773210D01*
X111869609Y-70862390D01*
X111869609Y-70862391D01*
X111869196Y-70865000D01*
X111868569Y-70864900D01*
X111855447Y-70896581D01*
X111426881Y-71325148D01*
X111410985Y-71335770D01*
X111392233Y-71339500D01*
X109481766Y-71339500D01*
X109447118Y-71325148D01*
X109432766Y-71290500D01*
X109447118Y-71255852D01*
X109709325Y-70993645D01*
X109991811Y-70711158D01*
X110018790Y-70697411D01*
X110143126Y-70677719D01*
X110263220Y-70616528D01*
X110358528Y-70521220D01*
X110419719Y-70401126D01*
X110439411Y-70276790D01*
X110453158Y-70249811D01*
X111123118Y-69579852D01*
X111157767Y-69565500D01*
X112763456Y-69565500D01*
X112798104Y-69579852D01*
X112831780Y-69613528D01*
X112951874Y-69674719D01*
X113085000Y-69695804D01*
X113218126Y-69674719D01*
X113338220Y-69613528D01*
X113433528Y-69518220D01*
X113494719Y-69398126D01*
X113515804Y-69265000D01*
X113494719Y-69131874D01*
X113488966Y-69120584D01*
X113459143Y-69062052D01*
X113433528Y-69011780D01*
X113338220Y-68916472D01*
X113296148Y-68895035D01*
X113221560Y-68857030D01*
X113221556Y-68857028D01*
X113218126Y-68855281D01*
X113085000Y-68834196D01*
X113081193Y-68834799D01*
X112955680Y-68854678D01*
X112955678Y-68854678D01*
X112951874Y-68855281D01*
X112948445Y-68857027D01*
X112948439Y-68857030D01*
X112835214Y-68914722D01*
X112835212Y-68914722D01*
X112831780Y-68916472D01*
X112829056Y-68919195D01*
X112829053Y-68919198D01*
X112798104Y-68950148D01*
X112763456Y-68964500D01*
X112373020Y-68964500D01*
X112342684Y-68953981D01*
X112325374Y-68926939D01*
X112328521Y-68894986D01*
X112350775Y-68871841D01*
X112461783Y-68815279D01*
X112461781Y-68815279D01*
X112465220Y-68813528D01*
X112560528Y-68718220D01*
X112621719Y-68598126D01*
X112642804Y-68465000D01*
X112621719Y-68331874D01*
X112617466Y-68323528D01*
X112606283Y-68301580D01*
X112560528Y-68211780D01*
X112465220Y-68116472D01*
X112434926Y-68101036D01*
X112348560Y-68057030D01*
X112348556Y-68057028D01*
X112345126Y-68055281D01*
X112212000Y-68034196D01*
X112208193Y-68034799D01*
X112082680Y-68054678D01*
X112082678Y-68054678D01*
X112078874Y-68055281D01*
X112075445Y-68057027D01*
X112075439Y-68057030D01*
X111962214Y-68114722D01*
X111962212Y-68114722D01*
X111958780Y-68116472D01*
X111956056Y-68119195D01*
X111956053Y-68119198D01*
X111925104Y-68150148D01*
X111890456Y-68164500D01*
X111040992Y-68164500D01*
X111034222Y-68164030D01*
X111031639Y-68163669D01*
X111027335Y-68162227D01*
X111022803Y-68162436D01*
X111022800Y-68162436D01*
X110979290Y-68164448D01*
X110977027Y-68164500D01*
X110957256Y-68164500D01*
X110955041Y-68164913D01*
X110955019Y-68164916D01*
X110953717Y-68165160D01*
X110946992Y-68165940D01*
X110919644Y-68167205D01*
X110919642Y-68167205D01*
X110915108Y-68167415D01*
X110910958Y-68169247D01*
X110910950Y-68169249D01*
X110900803Y-68173729D01*
X110890025Y-68177067D01*
X110879130Y-68179104D01*
X110879127Y-68179104D01*
X110874667Y-68179939D01*
X110870806Y-68182329D01*
X110870802Y-68182331D01*
X110847533Y-68196737D01*
X110841536Y-68199899D01*
X110816484Y-68210961D01*
X110816482Y-68210962D01*
X110812334Y-68212794D01*
X110809124Y-68216003D01*
X110809122Y-68216005D01*
X110801280Y-68223846D01*
X110792434Y-68230854D01*
X110783004Y-68236693D01*
X110783002Y-68236694D01*
X110779148Y-68239081D01*
X110776414Y-68242700D01*
X110776415Y-68242700D01*
X110759917Y-68264546D01*
X110755463Y-68269663D01*
X108699981Y-70325148D01*
X108684085Y-70335770D01*
X108665333Y-70339500D01*
X105759500Y-70339500D01*
X105724852Y-70325148D01*
X105710500Y-70290500D01*
X105710500Y-69972662D01*
X105710500Y-69970252D01*
X105698867Y-69911769D01*
X105696489Y-69908210D01*
X105692867Y-69890000D01*
X105696489Y-69871789D01*
X105698867Y-69868231D01*
X105710500Y-69809748D01*
X105710500Y-69539500D01*
X105724852Y-69504852D01*
X105759500Y-69490500D01*
X105887786Y-69490500D01*
X105910031Y-69495841D01*
X106012336Y-69547968D01*
X106012340Y-69547969D01*
X106015774Y-69549719D01*
X106148900Y-69570804D01*
X106282026Y-69549719D01*
X106402120Y-69488528D01*
X106497428Y-69393220D01*
X106558619Y-69273126D01*
X106579704Y-69140000D01*
X106558619Y-69006874D01*
X106507002Y-68905571D01*
X106501662Y-68883327D01*
X106507002Y-68861083D01*
X106551819Y-68773126D01*
X106572904Y-68640000D01*
X106551819Y-68506874D01*
X106505552Y-68416070D01*
X106500212Y-68393827D01*
X106505552Y-68371583D01*
X106555719Y-68273126D01*
X106576804Y-68140000D01*
X106555719Y-68006874D01*
X106494528Y-67886780D01*
X106399220Y-67791472D01*
X106340925Y-67761769D01*
X106282560Y-67732030D01*
X106282556Y-67732028D01*
X106279126Y-67730281D01*
X106146000Y-67709196D01*
X106139680Y-67710197D01*
X106016680Y-67729678D01*
X106016678Y-67729678D01*
X106012874Y-67730281D01*
X106009445Y-67732027D01*
X106009436Y-67732031D01*
X105907131Y-67784159D01*
X105884886Y-67789500D01*
X105529748Y-67789500D01*
X103940252Y-67789500D01*
X103937893Y-67789969D01*
X103937885Y-67789970D01*
X103886505Y-67800190D01*
X103886500Y-67800191D01*
X103881769Y-67801133D01*
X103877757Y-67803813D01*
X103877754Y-67803815D01*
X103819459Y-67842767D01*
X103819456Y-67842769D01*
X103815448Y-67845448D01*
X103812769Y-67849456D01*
X103812767Y-67849459D01*
X103773815Y-67907754D01*
X103773813Y-67907757D01*
X103771133Y-67911769D01*
X103770191Y-67916500D01*
X103770190Y-67916505D01*
X103759970Y-67967885D01*
X103759969Y-67967893D01*
X103759500Y-67970252D01*
X103759500Y-68309748D01*
X103759969Y-68312107D01*
X103759970Y-68312114D01*
X103763901Y-68331874D01*
X103771133Y-68368231D01*
X103773403Y-68371628D01*
X103773403Y-68408372D01*
X103771133Y-68411769D01*
X103770192Y-68416499D01*
X103770191Y-68416502D01*
X103759970Y-68467885D01*
X103759969Y-68467893D01*
X103759500Y-68470252D01*
X103759500Y-68809748D01*
X103759969Y-68812107D01*
X103759970Y-68812114D01*
X103760600Y-68815279D01*
X103771133Y-68868231D01*
X103773402Y-68871626D01*
X103773402Y-68908371D01*
X103771133Y-68911769D01*
X103770192Y-68916497D01*
X103770191Y-68916501D01*
X103759970Y-68967885D01*
X103759969Y-68967893D01*
X103759500Y-68970252D01*
X103759500Y-69309748D01*
X103759969Y-69312107D01*
X103759970Y-69312114D01*
X103770191Y-69363496D01*
X103771133Y-69368231D01*
X103773402Y-69371626D01*
X103773402Y-69408371D01*
X103771133Y-69411769D01*
X103770192Y-69416497D01*
X103770191Y-69416501D01*
X103759970Y-69467885D01*
X103759969Y-69467893D01*
X103759500Y-69470252D01*
X103759500Y-69809748D01*
X103759969Y-69812107D01*
X103759970Y-69812114D01*
X103770190Y-69863491D01*
X103771133Y-69868231D01*
X103773403Y-69871628D01*
X103773403Y-69908372D01*
X103771133Y-69911769D01*
X103770192Y-69916499D01*
X103770191Y-69916502D01*
X103759970Y-69967885D01*
X103759969Y-69967893D01*
X103759500Y-69970252D01*
X103759500Y-70309748D01*
X103759969Y-70312107D01*
X103759970Y-70312114D01*
X103770190Y-70363494D01*
X103770191Y-70363497D01*
X103771133Y-70368231D01*
X103773403Y-70371628D01*
X103773403Y-70408370D01*
X103771133Y-70411769D01*
X103770191Y-70416501D01*
X103770191Y-70416503D01*
X103759970Y-70467885D01*
X103759969Y-70467893D01*
X103759500Y-70470252D01*
X103759500Y-70809748D01*
X103759969Y-70812107D01*
X103759970Y-70812114D01*
X103769733Y-70861193D01*
X103771133Y-70868231D01*
X103773403Y-70871628D01*
X103773403Y-70908372D01*
X103771133Y-70911769D01*
X103770192Y-70916499D01*
X103770191Y-70916502D01*
X103759970Y-70967885D01*
X103759969Y-70967893D01*
X103759500Y-70970252D01*
X103759500Y-70972662D01*
X103759500Y-71290500D01*
X103745148Y-71325148D01*
X103710500Y-71339500D01*
X103663744Y-71339500D01*
X103629096Y-71325148D01*
X103598146Y-71294198D01*
X103595420Y-71291472D01*
X103559106Y-71272969D01*
X103478760Y-71232030D01*
X103478756Y-71232028D01*
X103475326Y-71230281D01*
X103342200Y-71209196D01*
X103319964Y-71212717D01*
X103212880Y-71229678D01*
X103212878Y-71229678D01*
X103209074Y-71230281D01*
X103205645Y-71232027D01*
X103205639Y-71232030D01*
X103092414Y-71289722D01*
X103092412Y-71289722D01*
X103088980Y-71291472D01*
X103086256Y-71294195D01*
X103086253Y-71294198D01*
X102996398Y-71384053D01*
X102996395Y-71384056D01*
X102993672Y-71386780D01*
X102991922Y-71390212D01*
X102991922Y-71390214D01*
X102934230Y-71503439D01*
X102934227Y-71503445D01*
X102932481Y-71506874D01*
X102911396Y-71640000D01*
X102932481Y-71773126D01*
X102934228Y-71776556D01*
X102934230Y-71776560D01*
X102965402Y-71837737D01*
X102993672Y-71893220D01*
X103088980Y-71988528D01*
X103209074Y-72049719D01*
X103342200Y-72070804D01*
X103475326Y-72049719D01*
X103595420Y-71988528D01*
X103629096Y-71954852D01*
X103663744Y-71940500D01*
X103710500Y-71940500D01*
X103745148Y-71954852D01*
X103759500Y-71989500D01*
X103759500Y-72175819D01*
X103751595Y-72202506D01*
X103730430Y-72220583D01*
X103702835Y-72224216D01*
X103611807Y-72209799D01*
X103608000Y-72209196D01*
X103604193Y-72209799D01*
X103478680Y-72229678D01*
X103478678Y-72229678D01*
X103474874Y-72230281D01*
X103471445Y-72232027D01*
X103471439Y-72232030D01*
X103358214Y-72289722D01*
X103358212Y-72289722D01*
X103354780Y-72291472D01*
X103352056Y-72294195D01*
X103352053Y-72294198D01*
X103262198Y-72384053D01*
X103262195Y-72384056D01*
X103259472Y-72386780D01*
X103257722Y-72390212D01*
X103257722Y-72390214D01*
X103200030Y-72503439D01*
X103200027Y-72503445D01*
X103198281Y-72506874D01*
X103197678Y-72510678D01*
X103197678Y-72510680D01*
X103191271Y-72551133D01*
X103177196Y-72640000D01*
X103198281Y-72773126D01*
X103200028Y-72776556D01*
X103200030Y-72776560D01*
X103233672Y-72842585D01*
X103259472Y-72893220D01*
X103354780Y-72988528D01*
X103424688Y-73024148D01*
X103465123Y-73044751D01*
X103474874Y-73049719D01*
X103608000Y-73070804D01*
X103611807Y-73070201D01*
X103702835Y-73055784D01*
X103730430Y-73059417D01*
X103751595Y-73077494D01*
X103759500Y-73104181D01*
X103759500Y-73290500D01*
X103745148Y-73325148D01*
X103710500Y-73339500D01*
X102468044Y-73339500D01*
X102433396Y-73325148D01*
X102377446Y-73269198D01*
X102374720Y-73266472D01*
X102318892Y-73238026D01*
X102258060Y-73207030D01*
X102258056Y-73207028D01*
X102254626Y-73205281D01*
X102121500Y-73184196D01*
X102117693Y-73184799D01*
X101992180Y-73204678D01*
X101992178Y-73204678D01*
X101988374Y-73205281D01*
X101984945Y-73207027D01*
X101984939Y-73207030D01*
X101871714Y-73264722D01*
X101871712Y-73264722D01*
X101868280Y-73266472D01*
X101865556Y-73269195D01*
X101865553Y-73269198D01*
X101775698Y-73359053D01*
X101775695Y-73359056D01*
X101772972Y-73361780D01*
X101771222Y-73365212D01*
X101771222Y-73365214D01*
X101713530Y-73478439D01*
X101713527Y-73478445D01*
X101711781Y-73481874D01*
X101711178Y-73485678D01*
X101711178Y-73485680D01*
X101696539Y-73578109D01*
X101690696Y-73615000D01*
X101691299Y-73618807D01*
X101691299Y-73618808D01*
X101698059Y-73661493D01*
X101690757Y-73695846D01*
X101662344Y-73716488D01*
X101627416Y-73712817D01*
X101616060Y-73707030D01*
X101616056Y-73707028D01*
X101612626Y-73705281D01*
X101479500Y-73684196D01*
X101475693Y-73684799D01*
X101350180Y-73704678D01*
X101350178Y-73704678D01*
X101346374Y-73705281D01*
X101342945Y-73707027D01*
X101342939Y-73707030D01*
X101229714Y-73764722D01*
X101229712Y-73764722D01*
X101226280Y-73766472D01*
X101223556Y-73769195D01*
X101223553Y-73769198D01*
X101133698Y-73859053D01*
X101133695Y-73859056D01*
X101130972Y-73861780D01*
X101129222Y-73865212D01*
X101129222Y-73865214D01*
X101071530Y-73978439D01*
X101071527Y-73978445D01*
X101069781Y-73981874D01*
X101069178Y-73985678D01*
X101069178Y-73985680D01*
X101057464Y-74059641D01*
X101048696Y-74115000D01*
X101049299Y-74118807D01*
X101069177Y-74244317D01*
X101069178Y-74244321D01*
X101069781Y-74248126D01*
X101080038Y-74268257D01*
X101084307Y-74300688D01*
X101067215Y-74328580D01*
X101036378Y-74339500D01*
X100995344Y-74339500D01*
X100960696Y-74325148D01*
X100904746Y-74269198D01*
X100902020Y-74266472D01*
X100866014Y-74248126D01*
X100785360Y-74207030D01*
X100785356Y-74207028D01*
X100781926Y-74205281D01*
X100648800Y-74184196D01*
X100644993Y-74184799D01*
X100519480Y-74204678D01*
X100519478Y-74204678D01*
X100515674Y-74205281D01*
X100512245Y-74207027D01*
X100512239Y-74207030D01*
X100399014Y-74264722D01*
X100399012Y-74264722D01*
X100395580Y-74266472D01*
X100392856Y-74269195D01*
X100392853Y-74269198D01*
X100302998Y-74359053D01*
X100302995Y-74359056D01*
X100300272Y-74361780D01*
X100298522Y-74365212D01*
X100298522Y-74365214D01*
X100240830Y-74478439D01*
X100240827Y-74478445D01*
X100239081Y-74481874D01*
X100217996Y-74615000D01*
X100218599Y-74618807D01*
X100227210Y-74673177D01*
X100222472Y-74703088D01*
X100201059Y-74724501D01*
X100171148Y-74729239D01*
X100048407Y-74709799D01*
X100044600Y-74709196D01*
X100040793Y-74709799D01*
X99915280Y-74729678D01*
X99915278Y-74729678D01*
X99911474Y-74730281D01*
X99908045Y-74732027D01*
X99908039Y-74732030D01*
X99794814Y-74789722D01*
X99794812Y-74789722D01*
X99791380Y-74791472D01*
X99788656Y-74794195D01*
X99788653Y-74794198D01*
X99698798Y-74884053D01*
X99698795Y-74884056D01*
X99696072Y-74886780D01*
X99694322Y-74890212D01*
X99694322Y-74890214D01*
X99636630Y-75003439D01*
X99636627Y-75003445D01*
X99634881Y-75006874D01*
X99634278Y-75010678D01*
X99634278Y-75010680D01*
X99626888Y-75057338D01*
X99613796Y-75140000D01*
X99634881Y-75273126D01*
X99636628Y-75276556D01*
X99636630Y-75276560D01*
X99654746Y-75312114D01*
X99696072Y-75393220D01*
X99791380Y-75488528D01*
X99911474Y-75549719D01*
X100044600Y-75570804D01*
X100177726Y-75549719D01*
X100297820Y-75488528D01*
X100331496Y-75454851D01*
X100366144Y-75440500D01*
X103710500Y-75440500D01*
X103745148Y-75454852D01*
X103759500Y-75489500D01*
X103759500Y-75809748D01*
X103759969Y-75812107D01*
X103759970Y-75812114D01*
X103770191Y-75863496D01*
X103771133Y-75868231D01*
X103773402Y-75871626D01*
X103773402Y-75908371D01*
X103771133Y-75911769D01*
X103770192Y-75916497D01*
X103770191Y-75916501D01*
X103759970Y-75967885D01*
X103759969Y-75967893D01*
X103759500Y-75970252D01*
X103759500Y-76309748D01*
X103759969Y-76312107D01*
X103759970Y-76312114D01*
X103770190Y-76363494D01*
X103770191Y-76363497D01*
X103771133Y-76368231D01*
X103773403Y-76371628D01*
X103773403Y-76408370D01*
X103771133Y-76411769D01*
X103770191Y-76416501D01*
X103770191Y-76416503D01*
X103759970Y-76467885D01*
X103759969Y-76467893D01*
X103759500Y-76470252D01*
X103759500Y-76809748D01*
X103759969Y-76812107D01*
X103759970Y-76812114D01*
X103770191Y-76863497D01*
X103771133Y-76868231D01*
X103773403Y-76871628D01*
X103773403Y-76908372D01*
X103771133Y-76911769D01*
X103770192Y-76916499D01*
X103770191Y-76916502D01*
X103759970Y-76967885D01*
X103759969Y-76967893D01*
X103759500Y-76970252D01*
X103759500Y-77309748D01*
X103759969Y-77312107D01*
X103759970Y-77312114D01*
X103770190Y-77363494D01*
X103770191Y-77363497D01*
X103771133Y-77368231D01*
X103773403Y-77371628D01*
X103773403Y-77408370D01*
X103771133Y-77411769D01*
X103770191Y-77416501D01*
X103770191Y-77416503D01*
X103759970Y-77467885D01*
X103759969Y-77467893D01*
X103759500Y-77470252D01*
X103759500Y-77809748D01*
X103759969Y-77812107D01*
X103759970Y-77812114D01*
X103770190Y-77863491D01*
X103771133Y-77868231D01*
X103773403Y-77871628D01*
X103773403Y-77908372D01*
X103771133Y-77911769D01*
X103770192Y-77916499D01*
X103770191Y-77916502D01*
X103759970Y-77967885D01*
X103759969Y-77967893D01*
X103759500Y-77970252D01*
X103759500Y-78309748D01*
X103759969Y-78312107D01*
X103759970Y-78312114D01*
X103770190Y-78363494D01*
X103770191Y-78363497D01*
X103771133Y-78368231D01*
X103773403Y-78371628D01*
X103773403Y-78408370D01*
X103771133Y-78411769D01*
X103770191Y-78416501D01*
X103770191Y-78416503D01*
X103759970Y-78467885D01*
X103759969Y-78467893D01*
X103759500Y-78470252D01*
X103759500Y-78809748D01*
X103759969Y-78812107D01*
X103759970Y-78812114D01*
X103769921Y-78862137D01*
X103771133Y-78868231D01*
X103771931Y-78869425D01*
X103775000Y-78884852D01*
X103775000Y-80319147D01*
X103765642Y-80347949D01*
X103741142Y-80365749D01*
X103710858Y-80365749D01*
X103687174Y-80348541D01*
X103686328Y-80346880D01*
X103591020Y-80251572D01*
X103560726Y-80236136D01*
X103474360Y-80192130D01*
X103474356Y-80192128D01*
X103470926Y-80190381D01*
X103337800Y-80169296D01*
X103333993Y-80169899D01*
X103208480Y-80189778D01*
X103208478Y-80189778D01*
X103204674Y-80190381D01*
X103201245Y-80192127D01*
X103201239Y-80192130D01*
X103088014Y-80249822D01*
X103088012Y-80249822D01*
X103084580Y-80251572D01*
X103081856Y-80254295D01*
X103081853Y-80254298D01*
X102991998Y-80344153D01*
X102991995Y-80344156D01*
X102989272Y-80346880D01*
X102987522Y-80350312D01*
X102987522Y-80350314D01*
X102929830Y-80463539D01*
X102929827Y-80463545D01*
X102928081Y-80466974D01*
X102906996Y-80600100D01*
X102928081Y-80733226D01*
X102929828Y-80736656D01*
X102929830Y-80736660D01*
X102972311Y-80820033D01*
X102989272Y-80853320D01*
X103084580Y-80948628D01*
X103146609Y-80980233D01*
X103166080Y-80990154D01*
X103178483Y-80999165D01*
X103483964Y-81304646D01*
X103498306Y-81338282D01*
X103485366Y-81372481D01*
X103463226Y-81396531D01*
X103461824Y-81397992D01*
X103402570Y-81457246D01*
X103375588Y-81470995D01*
X103339081Y-81476777D01*
X103339074Y-81476778D01*
X103335274Y-81477381D01*
X103331841Y-81479129D01*
X103331838Y-81479131D01*
X103218614Y-81536822D01*
X103218612Y-81536822D01*
X103215180Y-81538572D01*
X103212456Y-81541295D01*
X103212453Y-81541298D01*
X103122598Y-81631153D01*
X103122595Y-81631156D01*
X103119872Y-81633880D01*
X103118122Y-81637312D01*
X103118122Y-81637314D01*
X103060430Y-81750539D01*
X103060427Y-81750545D01*
X103058681Y-81753974D01*
X103058078Y-81757778D01*
X103058078Y-81757780D01*
X103045821Y-81835169D01*
X103037596Y-81887100D01*
X103038199Y-81890907D01*
X103057536Y-82013000D01*
X103058681Y-82020226D01*
X103060428Y-82023656D01*
X103060430Y-82023660D01*
X103090191Y-82082068D01*
X103119872Y-82140320D01*
X103215180Y-82235628D01*
X103275715Y-82266472D01*
X103320909Y-82289500D01*
X103335274Y-82296819D01*
X103468400Y-82317904D01*
X103601526Y-82296819D01*
X103688754Y-82252373D01*
X103721188Y-82248104D01*
X103749080Y-82265196D01*
X103760000Y-82296033D01*
X103760000Y-82307295D01*
X103760468Y-82312052D01*
X103770662Y-82363303D01*
X103773678Y-82370584D01*
X103773678Y-82407958D01*
X103771133Y-82411769D01*
X103770191Y-82416501D01*
X103770191Y-82416503D01*
X103759970Y-82467885D01*
X103759969Y-82467893D01*
X103759500Y-82470252D01*
X103759500Y-82809748D01*
X103759969Y-82812107D01*
X103759970Y-82812114D01*
X103770190Y-82863494D01*
X103770191Y-82863497D01*
X103771133Y-82868231D01*
X103773403Y-82871628D01*
X103773403Y-82908370D01*
X103771133Y-82911769D01*
X103770191Y-82916501D01*
X103770191Y-82916503D01*
X103759970Y-82967885D01*
X103759969Y-82967893D01*
X103759500Y-82970252D01*
X103759500Y-83309748D01*
X103759969Y-83312107D01*
X103759970Y-83312114D01*
X103770190Y-83363494D01*
X103770191Y-83363497D01*
X103771133Y-83368231D01*
X103773403Y-83371628D01*
X103773403Y-83408370D01*
X103771133Y-83411769D01*
X103770191Y-83416501D01*
X103770191Y-83416503D01*
X103759970Y-83467885D01*
X103759969Y-83467893D01*
X103759500Y-83470252D01*
X103759500Y-83809748D01*
X103759969Y-83812107D01*
X103759970Y-83812114D01*
X103770190Y-83863494D01*
X103770191Y-83863497D01*
X103771133Y-83868231D01*
X103773403Y-83871628D01*
X103773403Y-83908370D01*
X103771133Y-83911769D01*
X103770191Y-83916501D01*
X103770191Y-83916503D01*
X103759970Y-83967885D01*
X103759969Y-83967893D01*
X103759500Y-83970252D01*
X103759500Y-84309748D01*
X103759969Y-84312107D01*
X103759970Y-84312114D01*
X103770190Y-84363491D01*
X103771133Y-84368231D01*
X103773403Y-84371628D01*
X103773403Y-84408372D01*
X103771133Y-84411769D01*
X103770192Y-84416499D01*
X103770191Y-84416502D01*
X103759970Y-84467885D01*
X103759969Y-84467893D01*
X103759500Y-84470252D01*
X103759500Y-84809748D01*
X103759969Y-84812107D01*
X103759970Y-84812114D01*
X103770191Y-84863498D01*
X103770192Y-84863500D01*
X103771133Y-84868231D01*
X103773678Y-84872040D01*
X103773678Y-84909414D01*
X103770663Y-84916693D01*
X103760468Y-84967947D01*
X103760000Y-84972705D01*
X103760000Y-85307295D01*
X103760468Y-85312052D01*
X103770662Y-85363303D01*
X103773678Y-85370584D01*
X103773678Y-85407958D01*
X103771133Y-85411769D01*
X103770191Y-85416501D01*
X103770191Y-85416503D01*
X103759970Y-85467885D01*
X103759969Y-85467893D01*
X103759500Y-85470252D01*
X103759500Y-85809748D01*
X103759969Y-85812107D01*
X103759970Y-85812114D01*
X103770190Y-85863494D01*
X103770191Y-85863497D01*
X103771133Y-85868231D01*
X103773403Y-85871628D01*
X103773403Y-85908370D01*
X103771133Y-85911769D01*
X103770191Y-85916501D01*
X103770191Y-85916503D01*
X103759970Y-85967885D01*
X103759969Y-85967893D01*
X103759500Y-85970252D01*
X103759500Y-86309748D01*
X103759969Y-86312107D01*
X103759970Y-86312114D01*
X103770190Y-86363494D01*
X103770191Y-86363497D01*
X103771133Y-86368231D01*
X103773814Y-86372244D01*
X103773815Y-86372245D01*
X103777686Y-86378039D01*
X103815448Y-86434552D01*
X103881769Y-86478867D01*
X103940252Y-86490500D01*
X104676512Y-86490500D01*
X105374322Y-86490500D01*
X105408970Y-86504852D01*
X106439360Y-87535242D01*
X106445733Y-87543089D01*
X106455063Y-87557369D01*
X106458265Y-87559861D01*
X106458266Y-87559862D01*
X106481642Y-87578056D01*
X106486193Y-87582075D01*
X106489193Y-87585075D01*
X106499915Y-87592730D01*
X106506102Y-87597147D01*
X106507723Y-87598355D01*
X106547374Y-87629217D01*
X106551213Y-87630534D01*
X106554126Y-87632111D01*
X106557125Y-87633577D01*
X106560434Y-87635940D01*
X106608584Y-87650275D01*
X106610503Y-87650890D01*
X106658012Y-87667200D01*
X106662079Y-87667200D01*
X106665339Y-87667744D01*
X106668648Y-87668156D01*
X106672546Y-87669317D01*
X106722715Y-87667242D01*
X106724741Y-87667200D01*
X109802652Y-87667200D01*
X109824324Y-87672253D01*
X109841526Y-87686371D01*
X109866974Y-87719535D01*
X109866979Y-87719540D01*
X109867953Y-87720810D01*
X109904190Y-87757047D01*
X109946751Y-87789706D01*
X109996315Y-87810235D01*
X110045815Y-87823498D01*
X110099000Y-87830500D01*
X110832788Y-87830500D01*
X110833992Y-87830500D01*
X110874083Y-87826551D01*
X110911969Y-87819015D01*
X110986046Y-87788332D01*
X111018164Y-87766872D01*
X111049306Y-87741314D01*
X111241314Y-87549306D01*
X111266872Y-87518164D01*
X111288332Y-87486046D01*
X111319015Y-87411969D01*
X111326551Y-87374083D01*
X111330500Y-87333992D01*
X111330500Y-87192511D01*
X111335841Y-87170266D01*
X111363968Y-87115063D01*
X111363968Y-87115061D01*
X111365719Y-87111626D01*
X111386804Y-86978500D01*
X111365719Y-86845374D01*
X111351009Y-86816505D01*
X111341210Y-86797273D01*
X111304528Y-86725280D01*
X111209220Y-86629972D01*
X111205788Y-86628223D01*
X111205785Y-86628221D01*
X111137376Y-86593365D01*
X111124974Y-86584354D01*
X110800166Y-86259546D01*
X110799306Y-86258686D01*
X110798368Y-86257916D01*
X110769094Y-86233891D01*
X110769090Y-86233888D01*
X110768164Y-86233128D01*
X110764149Y-86230445D01*
X110738052Y-86213008D01*
X110738049Y-86213006D01*
X110736046Y-86211668D01*
X110733823Y-86210747D01*
X110733817Y-86210744D01*
X110664199Y-86181908D01*
X110664192Y-86181906D01*
X110661969Y-86180985D01*
X110659604Y-86180514D01*
X110659599Y-86180513D01*
X110625273Y-86173685D01*
X110625259Y-86173682D01*
X110624083Y-86173449D01*
X110622890Y-86173331D01*
X110622880Y-86173330D01*
X110585190Y-86169618D01*
X110585189Y-86169617D01*
X110583992Y-86169500D01*
X110099000Y-86169500D01*
X110097425Y-86169707D01*
X110097415Y-86169708D01*
X110047410Y-86176291D01*
X110047394Y-86176293D01*
X110045815Y-86176502D01*
X110044269Y-86176916D01*
X110044255Y-86176919D01*
X109997872Y-86189347D01*
X109997860Y-86189350D01*
X109996315Y-86189765D01*
X109994826Y-86190381D01*
X109994825Y-86190382D01*
X109949720Y-86209064D01*
X109949718Y-86209064D01*
X109946751Y-86210294D01*
X109944207Y-86212246D01*
X109944202Y-86212249D01*
X109905457Y-86241980D01*
X109905449Y-86241986D01*
X109904190Y-86242953D01*
X109903065Y-86244077D01*
X109903057Y-86244085D01*
X109869085Y-86278057D01*
X109869077Y-86278065D01*
X109867953Y-86279190D01*
X109866986Y-86280450D01*
X109866980Y-86280457D01*
X109862474Y-86286330D01*
X109845272Y-86300447D01*
X109823600Y-86305500D01*
X107295378Y-86305500D01*
X107260730Y-86291148D01*
X106391036Y-85421454D01*
X106384667Y-85413613D01*
X106375337Y-85399331D01*
X106348749Y-85378637D01*
X106344204Y-85374622D01*
X106342643Y-85373061D01*
X106341207Y-85371625D01*
X106324296Y-85359551D01*
X106322672Y-85358340D01*
X106286232Y-85329977D01*
X106286226Y-85329973D01*
X106283026Y-85327483D01*
X106279185Y-85326164D01*
X106276248Y-85324575D01*
X106273270Y-85323118D01*
X106269966Y-85320760D01*
X106266077Y-85319602D01*
X106266075Y-85319601D01*
X106221816Y-85306424D01*
X106219888Y-85305806D01*
X106176230Y-85290819D01*
X106172388Y-85289500D01*
X106168326Y-85289500D01*
X106165060Y-85288955D01*
X106161746Y-85288541D01*
X106157854Y-85287383D01*
X106153799Y-85287550D01*
X106153794Y-85287550D01*
X106107684Y-85289458D01*
X106105659Y-85289500D01*
X105759000Y-85289500D01*
X105724352Y-85275148D01*
X105710000Y-85240500D01*
X105710000Y-84972705D01*
X105709531Y-84967947D01*
X105699337Y-84916696D01*
X105696322Y-84909417D01*
X105692592Y-84890665D01*
X105696286Y-84872093D01*
X105698867Y-84868231D01*
X105710500Y-84809748D01*
X105710500Y-84470252D01*
X105698867Y-84411769D01*
X105696489Y-84408210D01*
X105692867Y-84390000D01*
X105696489Y-84371789D01*
X105698867Y-84368231D01*
X105710500Y-84309748D01*
X105710500Y-83970252D01*
X105698867Y-83911769D01*
X105696489Y-83908210D01*
X105692867Y-83890000D01*
X105696489Y-83871789D01*
X105698867Y-83868231D01*
X105710500Y-83809748D01*
X105710500Y-83470252D01*
X105698867Y-83411769D01*
X105696489Y-83408210D01*
X105692867Y-83390000D01*
X105696489Y-83371789D01*
X105698867Y-83368231D01*
X105710500Y-83309748D01*
X105710500Y-82970252D01*
X105698867Y-82911769D01*
X105696489Y-82908210D01*
X105692867Y-82890000D01*
X105696489Y-82871789D01*
X105698867Y-82868231D01*
X105710500Y-82809748D01*
X105710500Y-82470252D01*
X105698867Y-82411769D01*
X105696286Y-82407906D01*
X105692591Y-82389332D01*
X105696323Y-82370577D01*
X105699337Y-82363300D01*
X105709531Y-82312052D01*
X105710000Y-82307295D01*
X105710000Y-81972705D01*
X105709531Y-81967947D01*
X105699337Y-81916696D01*
X105696322Y-81909417D01*
X105692592Y-81890665D01*
X105696286Y-81872093D01*
X105698867Y-81868231D01*
X105710500Y-81809748D01*
X105710500Y-81470252D01*
X105698867Y-81411769D01*
X105696489Y-81408211D01*
X105692867Y-81389998D01*
X105696489Y-81371788D01*
X105698867Y-81368231D01*
X105710500Y-81309748D01*
X105710500Y-80970252D01*
X105700941Y-80922200D01*
X105700000Y-80912642D01*
X105700000Y-78867358D01*
X105700942Y-78857799D01*
X105701461Y-78855188D01*
X105710500Y-78809748D01*
X105710500Y-78470252D01*
X105698867Y-78411769D01*
X105696489Y-78408210D01*
X105692867Y-78390000D01*
X105696489Y-78371789D01*
X105698867Y-78368231D01*
X105710500Y-78309748D01*
X105710500Y-77970252D01*
X105698867Y-77911769D01*
X105696489Y-77908210D01*
X105692867Y-77890000D01*
X105696489Y-77871789D01*
X105698867Y-77868231D01*
X105710500Y-77809748D01*
X105710500Y-77489500D01*
X105724852Y-77454852D01*
X105759500Y-77440500D01*
X108620233Y-77440500D01*
X108654881Y-77454852D01*
X109122990Y-77922961D01*
X109127445Y-77928079D01*
X109129015Y-77930158D01*
X109131042Y-77934228D01*
X109134401Y-77937290D01*
X109166584Y-77966629D01*
X109168221Y-77968192D01*
X109182203Y-77982174D01*
X109185155Y-77984196D01*
X109190476Y-77988411D01*
X109210708Y-78006855D01*
X109210711Y-78006857D01*
X109214067Y-78009916D01*
X109228639Y-78015561D01*
X109238630Y-78020827D01*
X109251519Y-78029656D01*
X109282587Y-78036963D01*
X109289052Y-78038964D01*
X109318827Y-78050500D01*
X109334454Y-78050500D01*
X109345673Y-78051802D01*
X109360881Y-78055379D01*
X109392486Y-78050970D01*
X109399257Y-78050500D01*
X110480233Y-78050500D01*
X110514881Y-78064852D01*
X110747990Y-78297961D01*
X110752445Y-78303079D01*
X110754015Y-78305158D01*
X110756042Y-78309228D01*
X110786581Y-78337068D01*
X110791584Y-78341629D01*
X110793221Y-78343192D01*
X110807203Y-78357174D01*
X110810155Y-78359196D01*
X110815476Y-78363411D01*
X110835708Y-78381855D01*
X110835711Y-78381857D01*
X110839067Y-78384916D01*
X110852191Y-78390000D01*
X110853639Y-78390561D01*
X110863630Y-78395827D01*
X110876519Y-78404656D01*
X110907587Y-78411963D01*
X110914052Y-78413964D01*
X110943827Y-78425500D01*
X110959454Y-78425500D01*
X110970673Y-78426802D01*
X110985881Y-78430379D01*
X111017486Y-78425970D01*
X111024257Y-78425500D01*
X112150500Y-78425500D01*
X112185148Y-78439852D01*
X112199500Y-78474500D01*
X112199500Y-81244108D01*
X112199030Y-81250878D01*
X112198669Y-81253460D01*
X112197227Y-81257765D01*
X112197436Y-81262295D01*
X112197436Y-81262299D01*
X112199448Y-81305810D01*
X112199500Y-81308073D01*
X112199500Y-81327844D01*
X112199915Y-81330063D01*
X112200159Y-81331367D01*
X112200941Y-81338109D01*
X112202114Y-81363493D01*
X112202415Y-81369992D01*
X112204246Y-81374140D01*
X112204248Y-81374146D01*
X112208728Y-81384293D01*
X112212067Y-81395074D01*
X112214104Y-81405970D01*
X112214105Y-81405972D01*
X112214939Y-81410433D01*
X112217328Y-81414291D01*
X112217329Y-81414294D01*
X112231734Y-81437559D01*
X112234897Y-81443560D01*
X112245958Y-81468609D01*
X112245960Y-81468612D01*
X112247794Y-81472765D01*
X112251004Y-81475975D01*
X112258843Y-81483814D01*
X112265852Y-81492663D01*
X112274081Y-81505952D01*
X112299550Y-81525185D01*
X112304669Y-81529640D01*
X112647990Y-81872961D01*
X112652445Y-81878079D01*
X112654015Y-81880158D01*
X112656042Y-81884228D01*
X112665188Y-81892566D01*
X112691584Y-81916629D01*
X112693221Y-81918192D01*
X112707203Y-81932174D01*
X112710155Y-81934196D01*
X112715476Y-81938411D01*
X112735708Y-81956855D01*
X112735711Y-81956857D01*
X112739067Y-81959916D01*
X112753639Y-81965561D01*
X112763630Y-81970827D01*
X112766371Y-81972705D01*
X112776519Y-81979656D01*
X112807587Y-81986963D01*
X112814052Y-81988964D01*
X112843827Y-82000500D01*
X112859454Y-82000500D01*
X112870673Y-82001802D01*
X112885881Y-82005379D01*
X112917486Y-82000970D01*
X112924257Y-82000500D01*
X115355233Y-82000500D01*
X115389881Y-82014852D01*
X117147990Y-83772961D01*
X117152445Y-83778079D01*
X117154015Y-83780158D01*
X117156042Y-83784228D01*
X117175470Y-83801939D01*
X117191584Y-83816629D01*
X117193220Y-83818191D01*
X117207203Y-83832174D01*
X117210155Y-83834196D01*
X117215476Y-83838411D01*
X117235708Y-83856855D01*
X117235711Y-83856857D01*
X117239067Y-83859916D01*
X117253639Y-83865561D01*
X117263627Y-83870826D01*
X117272773Y-83877091D01*
X117272776Y-83877092D01*
X117276520Y-83879657D01*
X117307599Y-83886967D01*
X117314055Y-83888966D01*
X117343827Y-83900500D01*
X117359454Y-83900500D01*
X117370672Y-83901801D01*
X117385881Y-83905379D01*
X117417486Y-83900970D01*
X117424257Y-83900500D01*
X121344108Y-83900500D01*
X121350878Y-83900970D01*
X121353459Y-83901330D01*
X121357765Y-83902773D01*
X121405810Y-83900551D01*
X121408073Y-83900500D01*
X121425580Y-83900500D01*
X121427844Y-83900500D01*
X121431370Y-83899840D01*
X121438107Y-83899058D01*
X121469992Y-83897585D01*
X121484290Y-83891270D01*
X121495074Y-83887931D01*
X121510433Y-83885061D01*
X121537575Y-83868254D01*
X121543550Y-83865105D01*
X121572765Y-83852206D01*
X121583816Y-83841154D01*
X121592662Y-83834146D01*
X121605952Y-83825919D01*
X121625185Y-83800448D01*
X121629634Y-83795335D01*
X121810118Y-83614852D01*
X121844767Y-83600500D01*
X121972956Y-83600500D01*
X122007604Y-83614852D01*
X122021956Y-83649500D01*
X122009998Y-83678368D01*
X122011465Y-83679434D01*
X122009197Y-83682554D01*
X122006472Y-83685280D01*
X122004722Y-83688712D01*
X122004722Y-83688714D01*
X121947030Y-83801939D01*
X121947027Y-83801945D01*
X121945281Y-83805374D01*
X121944678Y-83809178D01*
X121944678Y-83809180D01*
X121933038Y-83882673D01*
X121924196Y-83938500D01*
X121924799Y-83942307D01*
X121944677Y-84067817D01*
X121944678Y-84067821D01*
X121945281Y-84071626D01*
X121955538Y-84091757D01*
X121959807Y-84124188D01*
X121942715Y-84152080D01*
X121911878Y-84163000D01*
X121453292Y-84163000D01*
X121446522Y-84162530D01*
X121443939Y-84162169D01*
X121439635Y-84160727D01*
X121435103Y-84160936D01*
X121435100Y-84160936D01*
X121391590Y-84162948D01*
X121389327Y-84163000D01*
X121369556Y-84163000D01*
X121367341Y-84163413D01*
X121367319Y-84163416D01*
X121366017Y-84163660D01*
X121359292Y-84164440D01*
X121331942Y-84165705D01*
X121331939Y-84165705D01*
X121327408Y-84165915D01*
X121323260Y-84167746D01*
X121323253Y-84167748D01*
X121313105Y-84172229D01*
X121302321Y-84175568D01*
X121291430Y-84177604D01*
X121291427Y-84177605D01*
X121286967Y-84178439D01*
X121283110Y-84180826D01*
X121283102Y-84180830D01*
X121259828Y-84195239D01*
X121253831Y-84198401D01*
X121228787Y-84209460D01*
X121228784Y-84209461D01*
X121224635Y-84211294D01*
X121213583Y-84222344D01*
X121204737Y-84229352D01*
X121195304Y-84235192D01*
X121195299Y-84235196D01*
X121191448Y-84237581D01*
X121188717Y-84241196D01*
X121188715Y-84241199D01*
X121172214Y-84263050D01*
X121167760Y-84268167D01*
X120802788Y-84633139D01*
X120775806Y-84646888D01*
X120655279Y-84665978D01*
X120655276Y-84665978D01*
X120651474Y-84666581D01*
X120648045Y-84668327D01*
X120648039Y-84668330D01*
X120534814Y-84726022D01*
X120534812Y-84726022D01*
X120531380Y-84727772D01*
X120528656Y-84730495D01*
X120528653Y-84730498D01*
X120438798Y-84820353D01*
X120438795Y-84820356D01*
X120436072Y-84823080D01*
X120434322Y-84826512D01*
X120434322Y-84826514D01*
X120376630Y-84939739D01*
X120376627Y-84939745D01*
X120374881Y-84943174D01*
X120374278Y-84946978D01*
X120374278Y-84946980D01*
X120368402Y-84984079D01*
X120353796Y-85076300D01*
X120354399Y-85080107D01*
X120370393Y-85181093D01*
X120374881Y-85209426D01*
X120376628Y-85212856D01*
X120376630Y-85212860D01*
X120409733Y-85277827D01*
X120436072Y-85329520D01*
X120531380Y-85424828D01*
X120615884Y-85467885D01*
X120636638Y-85478460D01*
X120651474Y-85486019D01*
X120784600Y-85507104D01*
X120917726Y-85486019D01*
X121037820Y-85424828D01*
X121133128Y-85329520D01*
X121194319Y-85209426D01*
X121214011Y-85085090D01*
X121227758Y-85058111D01*
X121444624Y-84841246D01*
X121475424Y-84827047D01*
X121508070Y-84836254D01*
X121526915Y-84864457D01*
X121522929Y-84898141D01*
X121482830Y-84976841D01*
X121481081Y-84980274D01*
X121480478Y-84984076D01*
X121480478Y-84984079D01*
X121461388Y-85104606D01*
X121447639Y-85131588D01*
X121417039Y-85162188D01*
X121411922Y-85166641D01*
X121409830Y-85168220D01*
X121405772Y-85170242D01*
X121402717Y-85173592D01*
X121402713Y-85173596D01*
X121373357Y-85205796D01*
X121371798Y-85207430D01*
X121357826Y-85221403D01*
X121356549Y-85223266D01*
X121356542Y-85223275D01*
X121355792Y-85224370D01*
X121351590Y-85229674D01*
X121330084Y-85253267D01*
X121328444Y-85257498D01*
X121328440Y-85257506D01*
X121324434Y-85267845D01*
X121319173Y-85277827D01*
X121312910Y-85286971D01*
X121312907Y-85286975D01*
X121310344Y-85290719D01*
X121309305Y-85295135D01*
X121309304Y-85295138D01*
X121303036Y-85321784D01*
X121301030Y-85328262D01*
X121291553Y-85352725D01*
X121289500Y-85358027D01*
X121289500Y-85362571D01*
X121289500Y-85373654D01*
X121288198Y-85384873D01*
X121285661Y-85395657D01*
X121285660Y-85395660D01*
X121284621Y-85400081D01*
X121285248Y-85404576D01*
X121285248Y-85404580D01*
X121289030Y-85431687D01*
X121289500Y-85438457D01*
X121289500Y-87834108D01*
X121289030Y-87840878D01*
X121288669Y-87843460D01*
X121287227Y-87847765D01*
X121287436Y-87852295D01*
X121287436Y-87852299D01*
X121289448Y-87895810D01*
X121289500Y-87898073D01*
X121289500Y-87917844D01*
X121290135Y-87921243D01*
X121290159Y-87921367D01*
X121290941Y-87928109D01*
X121291533Y-87940928D01*
X121292415Y-87959992D01*
X121294246Y-87964140D01*
X121294248Y-87964146D01*
X121298728Y-87974293D01*
X121302067Y-87985074D01*
X121304104Y-87995970D01*
X121304105Y-87995972D01*
X121304939Y-88000433D01*
X121307328Y-88004291D01*
X121307329Y-88004294D01*
X121321734Y-88027559D01*
X121324897Y-88033560D01*
X121335958Y-88058609D01*
X121335960Y-88058612D01*
X121337794Y-88062765D01*
X121341003Y-88065974D01*
X121341004Y-88065975D01*
X121348843Y-88073814D01*
X121355852Y-88082663D01*
X121364081Y-88095952D01*
X121379159Y-88107338D01*
X121389550Y-88115185D01*
X121394669Y-88119640D01*
X122413590Y-89138561D01*
X122418045Y-89143679D01*
X122419615Y-89145758D01*
X122421642Y-89149828D01*
X122425001Y-89152890D01*
X122437505Y-89164289D01*
X122452192Y-89189281D01*
X122450185Y-89218201D01*
X122432186Y-89240925D01*
X122404494Y-89249500D01*
X117418310Y-89249500D01*
X117383662Y-89235148D01*
X115554852Y-87406338D01*
X115540500Y-87371690D01*
X115540500Y-86300600D01*
X115540500Y-86299000D01*
X115533157Y-86243224D01*
X115516544Y-86181224D01*
X115495015Y-86129250D01*
X115460769Y-86084618D01*
X115415382Y-86039231D01*
X115370750Y-86004985D01*
X115334574Y-85990000D01*
X115320261Y-85984071D01*
X115320259Y-85984070D01*
X115318776Y-85983456D01*
X115317230Y-85983041D01*
X115317219Y-85983038D01*
X115258335Y-85967260D01*
X115258324Y-85967257D01*
X115256776Y-85966843D01*
X115255193Y-85966634D01*
X115255180Y-85966632D01*
X115202584Y-85959708D01*
X115202575Y-85959707D01*
X115201000Y-85959500D01*
X113799000Y-85959500D01*
X113797425Y-85959707D01*
X113797415Y-85959708D01*
X113744819Y-85966632D01*
X113744803Y-85966634D01*
X113743224Y-85966843D01*
X113741678Y-85967257D01*
X113741664Y-85967260D01*
X113682780Y-85983038D01*
X113682765Y-85983043D01*
X113681224Y-85983456D01*
X113679745Y-85984068D01*
X113679738Y-85984071D01*
X113632216Y-86003756D01*
X113632213Y-86003757D01*
X113629250Y-86004985D01*
X113626707Y-86006935D01*
X113626702Y-86006939D01*
X113585892Y-86038253D01*
X113585887Y-86038256D01*
X113584618Y-86039231D01*
X113583486Y-86040362D01*
X113583478Y-86040370D01*
X113540370Y-86083478D01*
X113540362Y-86083486D01*
X113539231Y-86084618D01*
X113538256Y-86085887D01*
X113538253Y-86085892D01*
X113506939Y-86126702D01*
X113506935Y-86126707D01*
X113504985Y-86129250D01*
X113503757Y-86132213D01*
X113503756Y-86132216D01*
X113484071Y-86179738D01*
X113484068Y-86179745D01*
X113483456Y-86181224D01*
X113483043Y-86182765D01*
X113483038Y-86182780D01*
X113467260Y-86241664D01*
X113467257Y-86241678D01*
X113466843Y-86243224D01*
X113466634Y-86244803D01*
X113466632Y-86244819D01*
X113459708Y-86297415D01*
X113459707Y-86297425D01*
X113459500Y-86299000D01*
X113459500Y-86300600D01*
X113459500Y-86534700D01*
X113445148Y-86569348D01*
X113410500Y-86583700D01*
X112795288Y-86583700D01*
X112776537Y-86579970D01*
X112760640Y-86569348D01*
X111665801Y-85474508D01*
X111655171Y-85458593D01*
X111651449Y-85439821D01*
X111651450Y-85438457D01*
X111656394Y-79301643D01*
X111656998Y-79294026D01*
X111660201Y-79273810D01*
X111660201Y-79273807D01*
X111660804Y-79270000D01*
X111639719Y-79136874D01*
X111578528Y-79016780D01*
X111483220Y-78921472D01*
X111424342Y-78891472D01*
X111366560Y-78862030D01*
X111366556Y-78862028D01*
X111363126Y-78860281D01*
X111230000Y-78839196D01*
X111226193Y-78839799D01*
X111100680Y-78859678D01*
X111100678Y-78859678D01*
X111096874Y-78860281D01*
X111093445Y-78862027D01*
X111093439Y-78862030D01*
X110980214Y-78919722D01*
X110980212Y-78919722D01*
X110976780Y-78921472D01*
X110974056Y-78924195D01*
X110974053Y-78924198D01*
X110884198Y-79014053D01*
X110884195Y-79014056D01*
X110881472Y-79016780D01*
X110879722Y-79020212D01*
X110879722Y-79020214D01*
X110822030Y-79133439D01*
X110822027Y-79133445D01*
X110820281Y-79136874D01*
X110819678Y-79140678D01*
X110819678Y-79140680D01*
X110815799Y-79165171D01*
X110799196Y-79270000D01*
X110799799Y-79273807D01*
X110819677Y-79399317D01*
X110819678Y-79399321D01*
X110820281Y-79403126D01*
X110822031Y-79406561D01*
X110822032Y-79406563D01*
X110849907Y-79461271D01*
X110855248Y-79483555D01*
X110850351Y-85562179D01*
X110850337Y-85562349D01*
X110850300Y-85562467D01*
X110850300Y-85562834D01*
X110850300Y-85626068D01*
X110850288Y-85641472D01*
X110850275Y-85657096D01*
X110850293Y-85657213D01*
X110850300Y-85657378D01*
X110850300Y-85689333D01*
X110851491Y-85692999D01*
X110851492Y-85693004D01*
X110858912Y-85715843D01*
X110860713Y-85723354D01*
X110862399Y-85734053D01*
X110865053Y-85750893D01*
X110866800Y-85754329D01*
X110866801Y-85754331D01*
X110877852Y-85776062D01*
X110880777Y-85783131D01*
X110888311Y-85806321D01*
X110888313Y-85806325D01*
X110889504Y-85809990D01*
X110891771Y-85813111D01*
X110891772Y-85813112D01*
X110905887Y-85832540D01*
X110909922Y-85839130D01*
X110920809Y-85860540D01*
X110920811Y-85860543D01*
X110922558Y-85863978D01*
X110945138Y-85886595D01*
X110945239Y-85886704D01*
X110945316Y-85886809D01*
X110967988Y-85909481D01*
X111012194Y-85953758D01*
X111012302Y-85953813D01*
X111012426Y-85953919D01*
X112281050Y-87222542D01*
X112370758Y-87312250D01*
X112391897Y-87323020D01*
X112395755Y-87324986D01*
X112402312Y-87329005D01*
X112421889Y-87343229D01*
X112421892Y-87343230D01*
X112425010Y-87345496D01*
X112451694Y-87354166D01*
X112458795Y-87357108D01*
X112480354Y-87368093D01*
X112480358Y-87368094D01*
X112483796Y-87369846D01*
X112510298Y-87374042D01*
X112511512Y-87374235D01*
X112518980Y-87376027D01*
X112545667Y-87384699D01*
X112577569Y-87384699D01*
X112577577Y-87384699D01*
X112577581Y-87384700D01*
X113410500Y-87384700D01*
X113445148Y-87399052D01*
X113459500Y-87433700D01*
X113459500Y-87626000D01*
X113459707Y-87627575D01*
X113459708Y-87627584D01*
X113466632Y-87680180D01*
X113466634Y-87680193D01*
X113466843Y-87681776D01*
X113467257Y-87683324D01*
X113467260Y-87683335D01*
X113483038Y-87742219D01*
X113483041Y-87742230D01*
X113483456Y-87743776D01*
X113484070Y-87745259D01*
X113484071Y-87745261D01*
X113493023Y-87766872D01*
X113504985Y-87795750D01*
X113539231Y-87840382D01*
X113584618Y-87885769D01*
X113600654Y-87898073D01*
X113626420Y-87917844D01*
X113629250Y-87920015D01*
X113681224Y-87941544D01*
X113743224Y-87958157D01*
X113799000Y-87965500D01*
X114678090Y-87965500D01*
X114712738Y-87979852D01*
X116795016Y-90062130D01*
X116801589Y-90070286D01*
X116806661Y-90078179D01*
X116806663Y-90078182D01*
X116808557Y-90081128D01*
X116811203Y-90083420D01*
X116811205Y-90083423D01*
X116848113Y-90115403D01*
X116850673Y-90117787D01*
X116862107Y-90129221D01*
X116875063Y-90138920D01*
X116877778Y-90141108D01*
X116917327Y-90175377D01*
X116929042Y-90180727D01*
X116938050Y-90186071D01*
X116945567Y-90191699D01*
X116945569Y-90191700D01*
X116948369Y-90193796D01*
X116997408Y-90212086D01*
X117000632Y-90213421D01*
X117048243Y-90235165D01*
X117060996Y-90236998D01*
X117071146Y-90239588D01*
X117083217Y-90244091D01*
X117086713Y-90244341D01*
X117135413Y-90247824D01*
X117138892Y-90248198D01*
X117140510Y-90248430D01*
X117154901Y-90250500D01*
X117171073Y-90250500D01*
X117174568Y-90250624D01*
X117226773Y-90254359D01*
X117239363Y-90251620D01*
X117249780Y-90250500D01*
X126260590Y-90250500D01*
X126295238Y-90264852D01*
X127360148Y-91329761D01*
X127370770Y-91345658D01*
X127374500Y-91364409D01*
X127374500Y-92480500D01*
X127360148Y-92515148D01*
X127325500Y-92529500D01*
X126870252Y-92529500D01*
X126834016Y-92536707D01*
X126806190Y-92534116D01*
X126784306Y-92516731D01*
X126775485Y-92490210D01*
X126775000Y-92475000D01*
X126765448Y-92475012D01*
X125819564Y-92476239D01*
X125795037Y-92469695D01*
X125777075Y-92451757D01*
X125770500Y-92427239D01*
X125770500Y-92226653D01*
X125770808Y-92221167D01*
X125775270Y-92181565D01*
X125764373Y-92123979D01*
X125764077Y-92122236D01*
X125755348Y-92064313D01*
X125753754Y-92061004D01*
X125752672Y-92057495D01*
X125752799Y-92057455D01*
X125752045Y-92055163D01*
X125751920Y-92055207D01*
X125750705Y-92051735D01*
X125750023Y-92048128D01*
X125722657Y-91996350D01*
X125721830Y-91994713D01*
X125719891Y-91990686D01*
X125696425Y-91941958D01*
X125693929Y-91939267D01*
X125691861Y-91936234D01*
X125691969Y-91936159D01*
X125690569Y-91934185D01*
X125690463Y-91934264D01*
X125688283Y-91931310D01*
X125686566Y-91928062D01*
X125645158Y-91886654D01*
X125643886Y-91885334D01*
X125606552Y-91845097D01*
X125606551Y-91845096D01*
X125604055Y-91842406D01*
X125600875Y-91840570D01*
X125598005Y-91838281D01*
X125598086Y-91838178D01*
X125592051Y-91833547D01*
X124934291Y-91175788D01*
X124930629Y-91171691D01*
X124908067Y-91143399D01*
X124908066Y-91143398D01*
X124905779Y-91140530D01*
X124902747Y-91138463D01*
X124902742Y-91138458D01*
X124857368Y-91107522D01*
X124855874Y-91106462D01*
X124811739Y-91073889D01*
X124811737Y-91073888D01*
X124808782Y-91071707D01*
X124805315Y-91070493D01*
X124802069Y-91068778D01*
X124802130Y-91068661D01*
X124799972Y-91067571D01*
X124799915Y-91067690D01*
X124796608Y-91066097D01*
X124793573Y-91064028D01*
X124790065Y-91062945D01*
X124790061Y-91062944D01*
X124737586Y-91046758D01*
X124735846Y-91046185D01*
X124684066Y-91028067D01*
X124684065Y-91028066D01*
X124680599Y-91026854D01*
X124676931Y-91026716D01*
X124673321Y-91026033D01*
X124673345Y-91025906D01*
X124670958Y-91025500D01*
X124670939Y-91025629D01*
X124667312Y-91025082D01*
X124663802Y-91024000D01*
X124660130Y-91024000D01*
X124605249Y-91024000D01*
X124603417Y-91023966D01*
X124548560Y-91021913D01*
X124548557Y-91021913D01*
X124544890Y-91021776D01*
X124541340Y-91022727D01*
X124537696Y-91023138D01*
X124537681Y-91023007D01*
X124530140Y-91024000D01*
X103815000Y-91024000D01*
X103780352Y-91009648D01*
X102685791Y-89915088D01*
X102682129Y-89910991D01*
X102659567Y-89882699D01*
X102659566Y-89882698D01*
X102657279Y-89879830D01*
X102654247Y-89877763D01*
X102654242Y-89877758D01*
X102608868Y-89846822D01*
X102607374Y-89845762D01*
X102563239Y-89813189D01*
X102563237Y-89813188D01*
X102560282Y-89811007D01*
X102556815Y-89809793D01*
X102553569Y-89808078D01*
X102553630Y-89807961D01*
X102551472Y-89806871D01*
X102551415Y-89806990D01*
X102548108Y-89805397D01*
X102545073Y-89803328D01*
X102541565Y-89802245D01*
X102541561Y-89802244D01*
X102489086Y-89786058D01*
X102487346Y-89785485D01*
X102435566Y-89767367D01*
X102435565Y-89767366D01*
X102432099Y-89766154D01*
X102428431Y-89766016D01*
X102424821Y-89765333D01*
X102424845Y-89765206D01*
X102422458Y-89764800D01*
X102422439Y-89764929D01*
X102418812Y-89764382D01*
X102415302Y-89763300D01*
X102411630Y-89763300D01*
X102356749Y-89763300D01*
X102354917Y-89763266D01*
X102300060Y-89761213D01*
X102300057Y-89761213D01*
X102296390Y-89761076D01*
X102292840Y-89762027D01*
X102289196Y-89762438D01*
X102289181Y-89762307D01*
X102281640Y-89763300D01*
X96894900Y-89763300D01*
X96860252Y-89748948D01*
X96104852Y-88993549D01*
X96094230Y-88977653D01*
X96090500Y-88958901D01*
X96090500Y-86739316D01*
X96104510Y-86705013D01*
X96138529Y-86690326D01*
X96254796Y-86688023D01*
X96282985Y-86696270D01*
X96331769Y-86728867D01*
X96365555Y-86735587D01*
X96392827Y-86751329D01*
X96404887Y-86780421D01*
X96398957Y-86802590D01*
X96400662Y-86803296D01*
X96398814Y-86807756D01*
X96396133Y-86811769D01*
X96395191Y-86816500D01*
X96395190Y-86816505D01*
X96384970Y-86867885D01*
X96384969Y-86867893D01*
X96384500Y-86870252D01*
X96384500Y-88109748D01*
X96384969Y-88112107D01*
X96384970Y-88112114D01*
X96395190Y-88163494D01*
X96395191Y-88163497D01*
X96396133Y-88168231D01*
X96440448Y-88234552D01*
X96506769Y-88278867D01*
X96565252Y-88290500D01*
X99352338Y-88290500D01*
X99354748Y-88290500D01*
X99413231Y-88278867D01*
X99479552Y-88234552D01*
X99523867Y-88168231D01*
X99535500Y-88109748D01*
X99535500Y-87234646D01*
X101559500Y-87234646D01*
X101560032Y-87237152D01*
X101560033Y-87237155D01*
X101598322Y-87417294D01*
X101598324Y-87417300D01*
X101598856Y-87419803D01*
X101599897Y-87422141D01*
X101599898Y-87422144D01*
X101674803Y-87590382D01*
X101674805Y-87590386D01*
X101675849Y-87592730D01*
X101733626Y-87672253D01*
X101784458Y-87742219D01*
X101787112Y-87745871D01*
X101839213Y-87792783D01*
X101892627Y-87840878D01*
X101927784Y-87872533D01*
X101930012Y-87873819D01*
X101930013Y-87873820D01*
X102086462Y-87964146D01*
X102091716Y-87967179D01*
X102271744Y-88025674D01*
X102412808Y-88040500D01*
X102505912Y-88040500D01*
X102507192Y-88040500D01*
X102648256Y-88025674D01*
X102828284Y-87967179D01*
X102992216Y-87872533D01*
X103132888Y-87745871D01*
X103244151Y-87592730D01*
X103321144Y-87419803D01*
X103360500Y-87234646D01*
X103360500Y-87045354D01*
X103321144Y-86860197D01*
X103244151Y-86687270D01*
X103132888Y-86534129D01*
X103028242Y-86439905D01*
X102994129Y-86409189D01*
X102994126Y-86409187D01*
X102992216Y-86407467D01*
X102989989Y-86406181D01*
X102989986Y-86406179D01*
X102830509Y-86314105D01*
X102830504Y-86314102D01*
X102828284Y-86312821D01*
X102825846Y-86312029D01*
X102825842Y-86312027D01*
X102650695Y-86255118D01*
X102650690Y-86255117D01*
X102648256Y-86254326D01*
X102645713Y-86254058D01*
X102645705Y-86254057D01*
X102508460Y-86239633D01*
X102508454Y-86239632D01*
X102507192Y-86239500D01*
X102412808Y-86239500D01*
X102411546Y-86239632D01*
X102411539Y-86239633D01*
X102274294Y-86254057D01*
X102274284Y-86254058D01*
X102271744Y-86254326D01*
X102269311Y-86255116D01*
X102269304Y-86255118D01*
X102094157Y-86312027D01*
X102094149Y-86312030D01*
X102091716Y-86312821D01*
X102089498Y-86314101D01*
X102089490Y-86314105D01*
X101930013Y-86406179D01*
X101930005Y-86406184D01*
X101927784Y-86407467D01*
X101925877Y-86409183D01*
X101925870Y-86409189D01*
X101789025Y-86532406D01*
X101789022Y-86532408D01*
X101787112Y-86534129D01*
X101785604Y-86536203D01*
X101785599Y-86536210D01*
X101709829Y-86640500D01*
X101675849Y-86687270D01*
X101674807Y-86689609D01*
X101674803Y-86689617D01*
X101599898Y-86857855D01*
X101599896Y-86857861D01*
X101598856Y-86860197D01*
X101598324Y-86862696D01*
X101598322Y-86862705D01*
X101560033Y-87042844D01*
X101560032Y-87042848D01*
X101559500Y-87045354D01*
X101559500Y-87234646D01*
X99535500Y-87234646D01*
X99535500Y-86870252D01*
X99523867Y-86811769D01*
X99479552Y-86745448D01*
X99472175Y-86740519D01*
X99417245Y-86703815D01*
X99417244Y-86703814D01*
X99413231Y-86701133D01*
X99408497Y-86700191D01*
X99408494Y-86700190D01*
X99357114Y-86689970D01*
X99357107Y-86689969D01*
X99354748Y-86689500D01*
X99352338Y-86689500D01*
X98224000Y-86689500D01*
X98189352Y-86675148D01*
X98175000Y-86640500D01*
X98175000Y-85298101D01*
X98189032Y-85263775D01*
X98223092Y-85249109D01*
X98636793Y-85241448D01*
X98669176Y-85252887D01*
X98686097Y-85282774D01*
X98691077Y-85314219D01*
X98691078Y-85314225D01*
X98691681Y-85318026D01*
X98693430Y-85321459D01*
X98693431Y-85321461D01*
X98712222Y-85358340D01*
X98752872Y-85438120D01*
X98848180Y-85533428D01*
X98937980Y-85579183D01*
X98962515Y-85591685D01*
X98968274Y-85594619D01*
X99101400Y-85615704D01*
X99234526Y-85594619D01*
X99354620Y-85533428D01*
X99449928Y-85438120D01*
X99511119Y-85318026D01*
X99532204Y-85184900D01*
X99525602Y-85143222D01*
X99525000Y-85135558D01*
X99525000Y-84219542D01*
X99525603Y-84211877D01*
X99531601Y-84174007D01*
X99532204Y-84170200D01*
X99511119Y-84037074D01*
X99449928Y-83916980D01*
X99354620Y-83821672D01*
X99287142Y-83787290D01*
X99237960Y-83762230D01*
X99237956Y-83762228D01*
X99234526Y-83760481D01*
X99101400Y-83739396D01*
X99097593Y-83739999D01*
X98972080Y-83759878D01*
X98972078Y-83759878D01*
X98968274Y-83760481D01*
X98964845Y-83762227D01*
X98964839Y-83762230D01*
X98851614Y-83819922D01*
X98851612Y-83819922D01*
X98848180Y-83821672D01*
X98845456Y-83824395D01*
X98845453Y-83824398D01*
X98755598Y-83914253D01*
X98755595Y-83914256D01*
X98752872Y-83916980D01*
X98751122Y-83920412D01*
X98751122Y-83920414D01*
X98693431Y-84033638D01*
X98693431Y-84033639D01*
X98691681Y-84037074D01*
X98691078Y-84040874D01*
X98691077Y-84040881D01*
X98689940Y-84048065D01*
X98673366Y-84077660D01*
X98641543Y-84089400D01*
X98388360Y-84089400D01*
X98387961Y-84089466D01*
X98387154Y-84089500D01*
X98306387Y-84089500D01*
X98281429Y-84080932D01*
X98280901Y-84081909D01*
X98277329Y-84079976D01*
X98274126Y-84077483D01*
X98270285Y-84076164D01*
X98267356Y-84074579D01*
X98264370Y-84073119D01*
X98261066Y-84070760D01*
X98257177Y-84069602D01*
X98257175Y-84069601D01*
X98212916Y-84056424D01*
X98211000Y-84055810D01*
X98209319Y-84055233D01*
X98208101Y-84054815D01*
X98184125Y-84036945D01*
X98175000Y-84008467D01*
X98175000Y-83659626D01*
X98175000Y-83650000D01*
X98171035Y-83649925D01*
X98169394Y-83645911D01*
X98156798Y-83634252D01*
X98152115Y-83601900D01*
X98160500Y-83559748D01*
X98160500Y-83220252D01*
X98148867Y-83161769D01*
X98146489Y-83158210D01*
X98142867Y-83139998D01*
X98146489Y-83121788D01*
X98148867Y-83118231D01*
X98160500Y-83059748D01*
X98160500Y-82720252D01*
X98148867Y-82661769D01*
X98146489Y-82658210D01*
X98142867Y-82640000D01*
X98146489Y-82621789D01*
X98148867Y-82618231D01*
X98160500Y-82559748D01*
X98160500Y-82220252D01*
X98148867Y-82161769D01*
X98146489Y-82158210D01*
X98142867Y-82140000D01*
X98146489Y-82121789D01*
X98148867Y-82118231D01*
X98160500Y-82059748D01*
X98160500Y-81720252D01*
X98148867Y-81661769D01*
X98146489Y-81658210D01*
X98142867Y-81640000D01*
X98146489Y-81621789D01*
X98148867Y-81618231D01*
X98160500Y-81559748D01*
X98160500Y-81220252D01*
X98148867Y-81161769D01*
X98146489Y-81158210D01*
X98142867Y-81140000D01*
X98146489Y-81121789D01*
X98148867Y-81118231D01*
X98160500Y-81059748D01*
X98160500Y-80720252D01*
X98148867Y-80661769D01*
X98104552Y-80595448D01*
X98099634Y-80592162D01*
X98042245Y-80553815D01*
X98042244Y-80553814D01*
X98038231Y-80551133D01*
X98033497Y-80550191D01*
X98033494Y-80550190D01*
X97982114Y-80539970D01*
X97982107Y-80539969D01*
X97979748Y-80539500D01*
X96390252Y-80539500D01*
X96387893Y-80539969D01*
X96387885Y-80539970D01*
X96336505Y-80550190D01*
X96336500Y-80550191D01*
X96331769Y-80551133D01*
X96327757Y-80553813D01*
X96327754Y-80553815D01*
X96269459Y-80592767D01*
X96269456Y-80592769D01*
X96265448Y-80595448D01*
X96262769Y-80599456D01*
X96262767Y-80599459D01*
X96223815Y-80657754D01*
X96223813Y-80657757D01*
X96221133Y-80661769D01*
X96220191Y-80666500D01*
X96220190Y-80666505D01*
X96209970Y-80717885D01*
X96209969Y-80717893D01*
X96209500Y-80720252D01*
X96209500Y-81059748D01*
X96209969Y-81062107D01*
X96209970Y-81062114D01*
X96220190Y-81113491D01*
X96221133Y-81118231D01*
X96223403Y-81121628D01*
X96223403Y-81158372D01*
X96221133Y-81161769D01*
X96220192Y-81166499D01*
X96220191Y-81166502D01*
X96209970Y-81217885D01*
X96209969Y-81217893D01*
X96209500Y-81220252D01*
X96209500Y-81559748D01*
X96209969Y-81562107D01*
X96209970Y-81562114D01*
X96218508Y-81605035D01*
X96221133Y-81618231D01*
X96223403Y-81621628D01*
X96223403Y-81658372D01*
X96221133Y-81661769D01*
X96220192Y-81666499D01*
X96220191Y-81666502D01*
X96209970Y-81717885D01*
X96209969Y-81717893D01*
X96209500Y-81720252D01*
X96209500Y-82059748D01*
X96209969Y-82062107D01*
X96209970Y-82062114D01*
X96220190Y-82113494D01*
X96220191Y-82113497D01*
X96221133Y-82118231D01*
X96223403Y-82121628D01*
X96223403Y-82158370D01*
X96221133Y-82161769D01*
X96220191Y-82166501D01*
X96220191Y-82166503D01*
X96209970Y-82217885D01*
X96209969Y-82217893D01*
X96209500Y-82220252D01*
X96209500Y-82559748D01*
X96209969Y-82562107D01*
X96209970Y-82562114D01*
X96220190Y-82613491D01*
X96221133Y-82618231D01*
X96223403Y-82621628D01*
X96223403Y-82658372D01*
X96221133Y-82661769D01*
X96220192Y-82666499D01*
X96220191Y-82666502D01*
X96209970Y-82717885D01*
X96209969Y-82717893D01*
X96209500Y-82720252D01*
X96209500Y-82722662D01*
X96209500Y-82990500D01*
X96195148Y-83025148D01*
X96160500Y-83039500D01*
X96124233Y-83039500D01*
X96114177Y-83038457D01*
X96101458Y-83035790D01*
X96101457Y-83035789D01*
X96097485Y-83034957D01*
X96093457Y-83035459D01*
X96064057Y-83039124D01*
X96057996Y-83039500D01*
X96053760Y-83039500D01*
X96051763Y-83039833D01*
X96051752Y-83039834D01*
X96033265Y-83042918D01*
X96031267Y-83043209D01*
X95985440Y-83048923D01*
X95985433Y-83048925D01*
X95981407Y-83049427D01*
X95977761Y-83051208D01*
X95974556Y-83052163D01*
X95971416Y-83053240D01*
X95967419Y-83053908D01*
X95963858Y-83055834D01*
X95963849Y-83055838D01*
X95923229Y-83077820D01*
X95921431Y-83078746D01*
X95879963Y-83099019D01*
X95879960Y-83099020D01*
X95876317Y-83100802D01*
X95873450Y-83103668D01*
X95870747Y-83105598D01*
X95868110Y-83107650D01*
X95864542Y-83109582D01*
X95861793Y-83112567D01*
X95861793Y-83112568D01*
X95830516Y-83146543D01*
X95829114Y-83148003D01*
X95605379Y-83371737D01*
X95574396Y-83385952D01*
X95562591Y-83386837D01*
X95552662Y-83387581D01*
X95526648Y-83382324D01*
X95507189Y-83364270D01*
X95500000Y-83338719D01*
X95500000Y-78059748D01*
X96209500Y-78059748D01*
X96209969Y-78062107D01*
X96209970Y-78062114D01*
X96220191Y-78113498D01*
X96220192Y-78113500D01*
X96221133Y-78118231D01*
X96223678Y-78122040D01*
X96223678Y-78159414D01*
X96220663Y-78166693D01*
X96210468Y-78217947D01*
X96210000Y-78222705D01*
X96210000Y-78557295D01*
X96210468Y-78562052D01*
X96220662Y-78613303D01*
X96224285Y-78622048D01*
X96263127Y-78680180D01*
X96269819Y-78686872D01*
X96327951Y-78725714D01*
X96336696Y-78729337D01*
X96387947Y-78739531D01*
X96392705Y-78740000D01*
X97977295Y-78740000D01*
X97982052Y-78739531D01*
X98033303Y-78729337D01*
X98042048Y-78725714D01*
X98100180Y-78686872D01*
X98106872Y-78680180D01*
X98145714Y-78622048D01*
X98149337Y-78613303D01*
X98159531Y-78562052D01*
X98160000Y-78557295D01*
X98160000Y-78222705D01*
X98159531Y-78217947D01*
X98149337Y-78166696D01*
X98146322Y-78159417D01*
X98142592Y-78140665D01*
X98146286Y-78122093D01*
X98148867Y-78118231D01*
X98160500Y-78059748D01*
X98160500Y-77720252D01*
X98148867Y-77661769D01*
X98146489Y-77658210D01*
X98142867Y-77639998D01*
X98146489Y-77621788D01*
X98148867Y-77618231D01*
X98160500Y-77559748D01*
X98160500Y-77220252D01*
X98148867Y-77161769D01*
X98146286Y-77157906D01*
X98142591Y-77139332D01*
X98146323Y-77120577D01*
X98149337Y-77113300D01*
X98159531Y-77062052D01*
X98160000Y-77057295D01*
X98160000Y-76722705D01*
X98159531Y-76717947D01*
X98149337Y-76666696D01*
X98146322Y-76659417D01*
X98142592Y-76640665D01*
X98146286Y-76622093D01*
X98148867Y-76618231D01*
X98160500Y-76559748D01*
X98160500Y-76220252D01*
X98148867Y-76161769D01*
X98146489Y-76158210D01*
X98142867Y-76140000D01*
X98146489Y-76121789D01*
X98148867Y-76118231D01*
X98160500Y-76059748D01*
X98160500Y-75720252D01*
X98148867Y-75661769D01*
X98146286Y-75657906D01*
X98142591Y-75639332D01*
X98146323Y-75620577D01*
X98149337Y-75613300D01*
X98159531Y-75562052D01*
X98160000Y-75557295D01*
X98160000Y-75222705D01*
X98159531Y-75217947D01*
X98149337Y-75166696D01*
X98146322Y-75159417D01*
X98142592Y-75140665D01*
X98146286Y-75122093D01*
X98148867Y-75118231D01*
X98160500Y-75059748D01*
X98160500Y-74720252D01*
X98148867Y-74661769D01*
X98146489Y-74658211D01*
X98142867Y-74639998D01*
X98146489Y-74621788D01*
X98148867Y-74618231D01*
X98160500Y-74559748D01*
X98160500Y-74220252D01*
X98148867Y-74161769D01*
X98146286Y-74157906D01*
X98142591Y-74139332D01*
X98146323Y-74120577D01*
X98149337Y-74113300D01*
X98159531Y-74062052D01*
X98160000Y-74057295D01*
X98160000Y-73722705D01*
X98159531Y-73717947D01*
X98149337Y-73666696D01*
X98146322Y-73659417D01*
X98142592Y-73640665D01*
X98146286Y-73622093D01*
X98148867Y-73618231D01*
X98160500Y-73559748D01*
X98160500Y-73220252D01*
X98148867Y-73161769D01*
X98146489Y-73158210D01*
X98142867Y-73140000D01*
X98146489Y-73121789D01*
X98148867Y-73118231D01*
X98160500Y-73059748D01*
X98160500Y-72720252D01*
X98148867Y-72661769D01*
X98146286Y-72657906D01*
X98142591Y-72639332D01*
X98146323Y-72620577D01*
X98149337Y-72613300D01*
X98159531Y-72562052D01*
X98160000Y-72557295D01*
X98160000Y-72222705D01*
X98159531Y-72217947D01*
X98149337Y-72166696D01*
X98146322Y-72159417D01*
X98142592Y-72140665D01*
X98146286Y-72122093D01*
X98148867Y-72118231D01*
X98160500Y-72059748D01*
X98160500Y-71720252D01*
X98148867Y-71661769D01*
X98146597Y-71658371D01*
X98146597Y-71621626D01*
X98148867Y-71618231D01*
X98160500Y-71559748D01*
X98160500Y-71220252D01*
X98148867Y-71161769D01*
X98146489Y-71158210D01*
X98142867Y-71139998D01*
X98146489Y-71121788D01*
X98148867Y-71118231D01*
X98160500Y-71059748D01*
X98160500Y-70720252D01*
X98148867Y-70661769D01*
X98146597Y-70658371D01*
X98146597Y-70621626D01*
X98148867Y-70618231D01*
X98160500Y-70559748D01*
X98160500Y-70239500D01*
X98174852Y-70204852D01*
X98209500Y-70190500D01*
X99757408Y-70190500D01*
X99764178Y-70190970D01*
X99766759Y-70191330D01*
X99771065Y-70192773D01*
X99819110Y-70190551D01*
X99821373Y-70190500D01*
X99838880Y-70190500D01*
X99841144Y-70190500D01*
X99844670Y-70189840D01*
X99851407Y-70189058D01*
X99883292Y-70187585D01*
X99897590Y-70181270D01*
X99908374Y-70177931D01*
X99923733Y-70175061D01*
X99950875Y-70158254D01*
X99956850Y-70155105D01*
X99986065Y-70142206D01*
X99997116Y-70131154D01*
X100005962Y-70124146D01*
X100019252Y-70115919D01*
X100038485Y-70090448D01*
X100042934Y-70085335D01*
X100357967Y-69770302D01*
X100363083Y-69765851D01*
X100365158Y-69764283D01*
X100369228Y-69762258D01*
X100401641Y-69726701D01*
X100403162Y-69725107D01*
X100417174Y-69711097D01*
X100419199Y-69708139D01*
X100423414Y-69702819D01*
X100441856Y-69682590D01*
X100441856Y-69682588D01*
X100444916Y-69679233D01*
X100450564Y-69664651D01*
X100455827Y-69654668D01*
X100464656Y-69641781D01*
X100471962Y-69610714D01*
X100473969Y-69604235D01*
X100485500Y-69574473D01*
X100485500Y-69558846D01*
X100486802Y-69547627D01*
X100488478Y-69540500D01*
X100490379Y-69532419D01*
X100485970Y-69500813D01*
X100485500Y-69494043D01*
X100485500Y-66891867D01*
X100489230Y-66873115D01*
X100499852Y-66857219D01*
X101388620Y-65968452D01*
X101423268Y-65954100D01*
X101996076Y-65954100D01*
X102026500Y-65964690D01*
X102043774Y-65991881D01*
X102040432Y-66023922D01*
X102017917Y-66046963D01*
X101840553Y-66135279D01*
X101840547Y-66135282D01*
X101838528Y-66136288D01*
X101836730Y-66137645D01*
X101836723Y-66137650D01*
X101666488Y-66266205D01*
X101666480Y-66266211D01*
X101664678Y-66267573D01*
X101663149Y-66269249D01*
X101663148Y-66269251D01*
X101519442Y-66426889D01*
X101519439Y-66426892D01*
X101517912Y-66428568D01*
X101516719Y-66430494D01*
X101516718Y-66430496D01*
X101404421Y-66611862D01*
X101404417Y-66611868D01*
X101403228Y-66613790D01*
X101402409Y-66615903D01*
X101402408Y-66615906D01*
X101337292Y-66783990D01*
X101324530Y-66816931D01*
X101324115Y-66819147D01*
X101324113Y-66819157D01*
X101284915Y-67028851D01*
X101284914Y-67028856D01*
X101284500Y-67031074D01*
X101284500Y-67248926D01*
X101284914Y-67251144D01*
X101284915Y-67251148D01*
X101324113Y-67460842D01*
X101324115Y-67460849D01*
X101324530Y-67463069D01*
X101403228Y-67666210D01*
X101404420Y-67668135D01*
X101404421Y-67668137D01*
X101414075Y-67683729D01*
X101517912Y-67851432D01*
X101664678Y-68012427D01*
X101666487Y-68013793D01*
X101666488Y-68013794D01*
X101834493Y-68140665D01*
X101838528Y-68143712D01*
X102033541Y-68240817D01*
X102243077Y-68300435D01*
X102306500Y-68306312D01*
X102404519Y-68315395D01*
X102404520Y-68315395D01*
X102405653Y-68315500D01*
X102513209Y-68315500D01*
X102514347Y-68315500D01*
X102676923Y-68300435D01*
X102886459Y-68240817D01*
X103081472Y-68143712D01*
X103255322Y-68012427D01*
X103402088Y-67851432D01*
X103516772Y-67666210D01*
X103595470Y-67463069D01*
X103635500Y-67248926D01*
X103635500Y-67031074D01*
X103595470Y-66816931D01*
X103516772Y-66613790D01*
X103402088Y-66428568D01*
X103255322Y-66267573D01*
X103253513Y-66266207D01*
X103253511Y-66266205D01*
X103083276Y-66137650D01*
X103083273Y-66137648D01*
X103081472Y-66136288D01*
X103047317Y-66119281D01*
X102902083Y-66046963D01*
X102879568Y-66023922D01*
X102876226Y-65991881D01*
X102893500Y-65964690D01*
X102923924Y-65954100D01*
X108449917Y-65954100D01*
X108482944Y-65966903D01*
X108498712Y-65998620D01*
X108488982Y-66032679D01*
X108461436Y-66069058D01*
X108461433Y-66069061D01*
X108459518Y-66071592D01*
X108458314Y-66074529D01*
X108458313Y-66074532D01*
X108439979Y-66119281D01*
X108439378Y-66120749D01*
X108438973Y-66122275D01*
X108438972Y-66122279D01*
X108435525Y-66135279D01*
X108426367Y-66169809D01*
X108426164Y-66171364D01*
X108426161Y-66171381D01*
X108419704Y-66220916D01*
X108419703Y-66220929D01*
X108419500Y-66222488D01*
X108419500Y-67651000D01*
X108419707Y-67652575D01*
X108419708Y-67652584D01*
X108426291Y-67702589D01*
X108426293Y-67702602D01*
X108426502Y-67704185D01*
X108426916Y-67705733D01*
X108426919Y-67705744D01*
X108439347Y-67752127D01*
X108439349Y-67752134D01*
X108439765Y-67753685D01*
X108460294Y-67803249D01*
X108492953Y-67845810D01*
X108529190Y-67882047D01*
X108571751Y-67914706D01*
X108621315Y-67935235D01*
X108670815Y-67948498D01*
X108724000Y-67955500D01*
X109832788Y-67955500D01*
X109833992Y-67955500D01*
X109874083Y-67951551D01*
X109911969Y-67944015D01*
X109986049Y-67913330D01*
X110018167Y-67891869D01*
X110049307Y-67866313D01*
X110390491Y-67525128D01*
X110416617Y-67493130D01*
X110438451Y-67460096D01*
X110469144Y-67383848D01*
X110476286Y-67344899D01*
X110479615Y-67303726D01*
X110476122Y-67129078D01*
X110482354Y-67104168D01*
X110500330Y-67085829D01*
X110525112Y-67079100D01*
X127787761Y-67079100D01*
X127789361Y-67079100D01*
X127906762Y-67063644D01*
X128052841Y-67003136D01*
X128178282Y-66906882D01*
X128274536Y-66781441D01*
X128335044Y-66635362D01*
X128355682Y-66478600D01*
X128335044Y-66321838D01*
X128274536Y-66175759D01*
X128178282Y-66050318D01*
X128052841Y-65954064D01*
X128049874Y-65952835D01*
X127909727Y-65894784D01*
X127909726Y-65894783D01*
X127906762Y-65893556D01*
X127903580Y-65893137D01*
X127790945Y-65878308D01*
X127790936Y-65878307D01*
X127789361Y-65878100D01*
X127787761Y-65878100D01*
X121343722Y-65878100D01*
X121312885Y-65867180D01*
X121295793Y-65839288D01*
X121300061Y-65806857D01*
X121310319Y-65786726D01*
X121331404Y-65653600D01*
X121310319Y-65520474D01*
X121249128Y-65400380D01*
X121153820Y-65305072D01*
X121123526Y-65289636D01*
X121037160Y-65245630D01*
X121037156Y-65245628D01*
X121033726Y-65243881D01*
X120900600Y-65222796D01*
X120896793Y-65223399D01*
X120771280Y-65243278D01*
X120771278Y-65243278D01*
X120767474Y-65243881D01*
X120764045Y-65245627D01*
X120764039Y-65245630D01*
X120650814Y-65303322D01*
X120650812Y-65303322D01*
X120647380Y-65305072D01*
X120644656Y-65307795D01*
X120644653Y-65307798D01*
X120613704Y-65338748D01*
X120579056Y-65353100D01*
X101334400Y-65353100D01*
X101327630Y-65352630D01*
X101325040Y-65352268D01*
X101320736Y-65350826D01*
X101316204Y-65351035D01*
X101316201Y-65351035D01*
X101272670Y-65353048D01*
X101270407Y-65353100D01*
X101250656Y-65353100D01*
X101248438Y-65353514D01*
X101248430Y-65353515D01*
X101247118Y-65353760D01*
X101240400Y-65354538D01*
X101213042Y-65355804D01*
X101213040Y-65355804D01*
X101208509Y-65356014D01*
X101204359Y-65357846D01*
X101204356Y-65357847D01*
X101194208Y-65362328D01*
X101183424Y-65365667D01*
X101172534Y-65367703D01*
X101172529Y-65367704D01*
X101168067Y-65368539D01*
X101140935Y-65385337D01*
X101134940Y-65388497D01*
X101109889Y-65399558D01*
X101109881Y-65399562D01*
X101105735Y-65401394D01*
X101102528Y-65404600D01*
X101102526Y-65404602D01*
X101098467Y-65408660D01*
X101094683Y-65412444D01*
X101085837Y-65419452D01*
X101076404Y-65425292D01*
X101076399Y-65425296D01*
X101072548Y-65427681D01*
X101069817Y-65431296D01*
X101069815Y-65431299D01*
X101053314Y-65453150D01*
X101048860Y-65458267D01*
X100012039Y-66495088D01*
X100006922Y-66499541D01*
X100004830Y-66501120D01*
X100000772Y-66503142D01*
X99997717Y-66506492D01*
X99997713Y-66506496D01*
X99968357Y-66538696D01*
X99966798Y-66540330D01*
X99952826Y-66554303D01*
X99951549Y-66556166D01*
X99951542Y-66556175D01*
X99950792Y-66557270D01*
X99946590Y-66562574D01*
X99925084Y-66586167D01*
X99923444Y-66590398D01*
X99923440Y-66590406D01*
X99919434Y-66600745D01*
X99914173Y-66610727D01*
X99907910Y-66619871D01*
X99907907Y-66619875D01*
X99905344Y-66623619D01*
X99904305Y-66628035D01*
X99904304Y-66628038D01*
X99898036Y-66654684D01*
X99896030Y-66661162D01*
X99886553Y-66685625D01*
X99884500Y-66690927D01*
X99884500Y-66695471D01*
X99884500Y-66706554D01*
X99883198Y-66717773D01*
X99880661Y-66728557D01*
X99880660Y-66728560D01*
X99879621Y-66732981D01*
X99880248Y-66737476D01*
X99880248Y-66737480D01*
X99884030Y-66764587D01*
X99884500Y-66771357D01*
X99884500Y-69373533D01*
X99870148Y-69408181D01*
X99703181Y-69575148D01*
X99668533Y-69589500D01*
X98209500Y-69589500D01*
X98174852Y-69575148D01*
X98160500Y-69540500D01*
X98160500Y-69222662D01*
X98160500Y-69220252D01*
X98148867Y-69161769D01*
X98146286Y-69157906D01*
X98142591Y-69139332D01*
X98146323Y-69120577D01*
X98149337Y-69113300D01*
X98159531Y-69062052D01*
X98160000Y-69057295D01*
X98160000Y-68722705D01*
X98159531Y-68717947D01*
X98149337Y-68666696D01*
X98146046Y-68658751D01*
X98142316Y-68639998D01*
X98146047Y-68621244D01*
X98149337Y-68613300D01*
X98159531Y-68562052D01*
X98160000Y-68557295D01*
X98160000Y-68222705D01*
X98159531Y-68217947D01*
X98149337Y-68166696D01*
X98146322Y-68159417D01*
X98142592Y-68140665D01*
X98146286Y-68122093D01*
X98148867Y-68118231D01*
X98160500Y-68059748D01*
X98160500Y-67720252D01*
X98148867Y-67661769D01*
X98146376Y-67658041D01*
X98144331Y-67626816D01*
X98161832Y-67600625D01*
X98191661Y-67590500D01*
X99352338Y-67590500D01*
X99354748Y-67590500D01*
X99413231Y-67578867D01*
X99479552Y-67534552D01*
X99523867Y-67468231D01*
X99535500Y-67409748D01*
X99535500Y-66170252D01*
X99523867Y-66111769D01*
X99479552Y-66045448D01*
X99413231Y-66001133D01*
X99408497Y-66000191D01*
X99408494Y-66000190D01*
X99357114Y-65989970D01*
X99357107Y-65989969D01*
X99354748Y-65989500D01*
X96565252Y-65989500D01*
X96562893Y-65989969D01*
X96562885Y-65989970D01*
X96511505Y-66000190D01*
X96511500Y-66000191D01*
X96506769Y-66001133D01*
X96502757Y-66003813D01*
X96502754Y-66003815D01*
X96444459Y-66042767D01*
X96444456Y-66042769D01*
X96440448Y-66045448D01*
X96437769Y-66049456D01*
X96437767Y-66049459D01*
X96398815Y-66107754D01*
X96398813Y-66107757D01*
X96396133Y-66111769D01*
X96395191Y-66116500D01*
X96395190Y-66116505D01*
X96384970Y-66167885D01*
X96384969Y-66167893D01*
X96384500Y-66170252D01*
X96384500Y-67409748D01*
X96384969Y-67412107D01*
X96384970Y-67412114D01*
X96395190Y-67463494D01*
X96395191Y-67463497D01*
X96396133Y-67468231D01*
X96398814Y-67472244D01*
X96400662Y-67476704D01*
X96398953Y-67477411D01*
X96404888Y-67499560D01*
X96392833Y-67528663D01*
X96365553Y-67544412D01*
X96331769Y-67551133D01*
X96327757Y-67553813D01*
X96327754Y-67553815D01*
X96269459Y-67592767D01*
X96269456Y-67592769D01*
X96265448Y-67595448D01*
X96262769Y-67599456D01*
X96262767Y-67599459D01*
X96223815Y-67657754D01*
X96223813Y-67657757D01*
X96221133Y-67661769D01*
X96220191Y-67666500D01*
X96220190Y-67666505D01*
X96209970Y-67717885D01*
X96209969Y-67717893D01*
X96209500Y-67720252D01*
X96209500Y-68059748D01*
X96209969Y-68062107D01*
X96209970Y-68062114D01*
X96220191Y-68113498D01*
X96220192Y-68113500D01*
X96221133Y-68118231D01*
X96223678Y-68122040D01*
X96223678Y-68159414D01*
X96220663Y-68166693D01*
X96210468Y-68217947D01*
X96210000Y-68222705D01*
X96210000Y-68557295D01*
X96210468Y-68562052D01*
X96220662Y-68613303D01*
X96223954Y-68621250D01*
X96223954Y-68658750D01*
X96220662Y-68666696D01*
X96210468Y-68717947D01*
X96210000Y-68722705D01*
X96210000Y-69057295D01*
X96210468Y-69062052D01*
X96220662Y-69113303D01*
X96223678Y-69120584D01*
X96223678Y-69157958D01*
X96221133Y-69161769D01*
X96220191Y-69166501D01*
X96220191Y-69166503D01*
X96209970Y-69217885D01*
X96209969Y-69217893D01*
X96209500Y-69220252D01*
X96209500Y-69559748D01*
X96209969Y-69562107D01*
X96209970Y-69562114D01*
X96219655Y-69610801D01*
X96221133Y-69618231D01*
X96223403Y-69621628D01*
X96223403Y-69658372D01*
X96221133Y-69661769D01*
X96220192Y-69666499D01*
X96220191Y-69666502D01*
X96209970Y-69717885D01*
X96209969Y-69717893D01*
X96209500Y-69720252D01*
X96209500Y-70059748D01*
X96209969Y-70062107D01*
X96209970Y-70062114D01*
X96219952Y-70112294D01*
X96221133Y-70118231D01*
X96223403Y-70121628D01*
X96223403Y-70158372D01*
X96221133Y-70161769D01*
X96220192Y-70166499D01*
X96220191Y-70166502D01*
X96209970Y-70217885D01*
X96209969Y-70217893D01*
X96209500Y-70220252D01*
X96209500Y-70559748D01*
X96209969Y-70562107D01*
X96209970Y-70562114D01*
X96219307Y-70609053D01*
X96221133Y-70618231D01*
X96223402Y-70621626D01*
X96223402Y-70658371D01*
X96221133Y-70661769D01*
X96220192Y-70666497D01*
X96220191Y-70666501D01*
X96209970Y-70717885D01*
X96209969Y-70717893D01*
X96209500Y-70720252D01*
X96209500Y-71059748D01*
X96209969Y-71062107D01*
X96209970Y-71062114D01*
X96220191Y-71113497D01*
X96221133Y-71118231D01*
X96223403Y-71121628D01*
X96223403Y-71158372D01*
X96221133Y-71161769D01*
X96220192Y-71166499D01*
X96220191Y-71166502D01*
X96209970Y-71217885D01*
X96209969Y-71217893D01*
X96209500Y-71220252D01*
X96209500Y-71559748D01*
X96209969Y-71562107D01*
X96209970Y-71562114D01*
X96218985Y-71607433D01*
X96221133Y-71618231D01*
X96223402Y-71621626D01*
X96223402Y-71658371D01*
X96221133Y-71661769D01*
X96220192Y-71666497D01*
X96220191Y-71666501D01*
X96209970Y-71717885D01*
X96209969Y-71717893D01*
X96209500Y-71720252D01*
X96209500Y-72059748D01*
X96209969Y-72062107D01*
X96209970Y-72062114D01*
X96220191Y-72113498D01*
X96220192Y-72113500D01*
X96221133Y-72118231D01*
X96223678Y-72122040D01*
X96223678Y-72159414D01*
X96220663Y-72166693D01*
X96210468Y-72217947D01*
X96210000Y-72222705D01*
X96210000Y-72557295D01*
X96210468Y-72562052D01*
X96220662Y-72613303D01*
X96223678Y-72620584D01*
X96223678Y-72657958D01*
X96221133Y-72661769D01*
X96220191Y-72666501D01*
X96220191Y-72666503D01*
X96209970Y-72717885D01*
X96209969Y-72717893D01*
X96209500Y-72720252D01*
X96209500Y-73059748D01*
X96209969Y-73062107D01*
X96209970Y-73062114D01*
X96220134Y-73113209D01*
X96221133Y-73118231D01*
X96223403Y-73121628D01*
X96223403Y-73158372D01*
X96221133Y-73161769D01*
X96220192Y-73166499D01*
X96220191Y-73166502D01*
X96209970Y-73217885D01*
X96209969Y-73217893D01*
X96209500Y-73220252D01*
X96209500Y-73559748D01*
X96209969Y-73562107D01*
X96209970Y-73562114D01*
X96220191Y-73613498D01*
X96220192Y-73613500D01*
X96221133Y-73618231D01*
X96223678Y-73622040D01*
X96223678Y-73659414D01*
X96220663Y-73666693D01*
X96210468Y-73717947D01*
X96210000Y-73722705D01*
X96210000Y-74057295D01*
X96210468Y-74062052D01*
X96220662Y-74113303D01*
X96223678Y-74120584D01*
X96223678Y-74157958D01*
X96221133Y-74161769D01*
X96220191Y-74166501D01*
X96220191Y-74166503D01*
X96209970Y-74217885D01*
X96209969Y-74217893D01*
X96209500Y-74220252D01*
X96209500Y-74559748D01*
X96209969Y-74562107D01*
X96209970Y-74562114D01*
X96220191Y-74613497D01*
X96221133Y-74618231D01*
X96223403Y-74621628D01*
X96223403Y-74658372D01*
X96221133Y-74661769D01*
X96220192Y-74666499D01*
X96220191Y-74666502D01*
X96209970Y-74717885D01*
X96209969Y-74717893D01*
X96209500Y-74720252D01*
X96209500Y-75059748D01*
X96209969Y-75062107D01*
X96209970Y-75062114D01*
X96220191Y-75113498D01*
X96220192Y-75113500D01*
X96221133Y-75118231D01*
X96223678Y-75122040D01*
X96223678Y-75159414D01*
X96220663Y-75166693D01*
X96210468Y-75217947D01*
X96210000Y-75222705D01*
X96210000Y-75557295D01*
X96210468Y-75562052D01*
X96220662Y-75613303D01*
X96223678Y-75620584D01*
X96223678Y-75657958D01*
X96221133Y-75661769D01*
X96220191Y-75666501D01*
X96220191Y-75666503D01*
X96209970Y-75717885D01*
X96209969Y-75717893D01*
X96209500Y-75720252D01*
X96209500Y-76059748D01*
X96209969Y-76062107D01*
X96209970Y-76062114D01*
X96212434Y-76074500D01*
X96221133Y-76118231D01*
X96223403Y-76121628D01*
X96223403Y-76158372D01*
X96221133Y-76161769D01*
X96220192Y-76166499D01*
X96220191Y-76166502D01*
X96209970Y-76217885D01*
X96209969Y-76217893D01*
X96209500Y-76220252D01*
X96209500Y-76559748D01*
X96209969Y-76562107D01*
X96209970Y-76562114D01*
X96220191Y-76613498D01*
X96220192Y-76613500D01*
X96221133Y-76618231D01*
X96223678Y-76622040D01*
X96223678Y-76659414D01*
X96220663Y-76666693D01*
X96210468Y-76717947D01*
X96210000Y-76722705D01*
X96210000Y-77057295D01*
X96210468Y-77062052D01*
X96220662Y-77113303D01*
X96223678Y-77120584D01*
X96223678Y-77157958D01*
X96221133Y-77161769D01*
X96220191Y-77166501D01*
X96220191Y-77166503D01*
X96209970Y-77217885D01*
X96209969Y-77217893D01*
X96209500Y-77220252D01*
X96209500Y-77559748D01*
X96209969Y-77562107D01*
X96209970Y-77562114D01*
X96220191Y-77613497D01*
X96221133Y-77618231D01*
X96223403Y-77621628D01*
X96223403Y-77658372D01*
X96221133Y-77661769D01*
X96220192Y-77666499D01*
X96220191Y-77666502D01*
X96209970Y-77717885D01*
X96209969Y-77717893D01*
X96209500Y-77720252D01*
X96209500Y-78059748D01*
X95500000Y-78059748D01*
X95500000Y-62049000D01*
X95514352Y-62014352D01*
X95549000Y-62000000D01*
X96456534Y-62000000D01*
X96479305Y-62005612D01*
X96496858Y-62021162D01*
X96498924Y-62024155D01*
X96767197Y-62342133D01*
X96768047Y-62342962D01*
X96768051Y-62342967D01*
X96920547Y-62491822D01*
X97064907Y-62632734D01*
X97389274Y-62893245D01*
X97737270Y-63121235D01*
X98105646Y-63314573D01*
X98490961Y-63471455D01*
X98492098Y-63471794D01*
X98492103Y-63471796D01*
X98872331Y-63585258D01*
X98889620Y-63590417D01*
X99297898Y-63670348D01*
X99711985Y-63710500D01*
X100023349Y-63710500D01*
X100023948Y-63710500D01*
X100335543Y-63695428D01*
X100747207Y-63635317D01*
X101151147Y-63535754D01*
X101543592Y-63397671D01*
X101920879Y-63222356D01*
X102279483Y-63011446D01*
X102616058Y-62766910D01*
X102927460Y-62491031D01*
X103210783Y-62186386D01*
X103463380Y-61855819D01*
X103682894Y-61502415D01*
X103761575Y-61343268D01*
X103784583Y-61320674D01*
X103816651Y-61317271D01*
X103843889Y-61334533D01*
X103854500Y-61364985D01*
X103854500Y-61669748D01*
X103854969Y-61672107D01*
X103854970Y-61672114D01*
X103865190Y-61723494D01*
X103865191Y-61723497D01*
X103866133Y-61728231D01*
X103910448Y-61794552D01*
X103976769Y-61838867D01*
X104035252Y-61850500D01*
X106012338Y-61850500D01*
X106014748Y-61850500D01*
X106031386Y-61847190D01*
X106050000Y-61849024D01*
X106050000Y-61850000D01*
X107451140Y-61850000D01*
X107454756Y-61850167D01*
X107456537Y-61850500D01*
X107671199Y-61850500D01*
X107673463Y-61850500D01*
X107675243Y-61850167D01*
X107678860Y-61850000D01*
X109991140Y-61850000D01*
X109994756Y-61850167D01*
X109996537Y-61850500D01*
X110211199Y-61850500D01*
X110213463Y-61850500D01*
X110215243Y-61850167D01*
X110218860Y-61850000D01*
X112531140Y-61850000D01*
X112534756Y-61850167D01*
X112536537Y-61850500D01*
X112751199Y-61850500D01*
X112753463Y-61850500D01*
X112755243Y-61850167D01*
X112758860Y-61850000D01*
X115071140Y-61850000D01*
X115074756Y-61850167D01*
X115076537Y-61850500D01*
X115291199Y-61850500D01*
X115293463Y-61850500D01*
X115295243Y-61850167D01*
X115298860Y-61850000D01*
X117611140Y-61850000D01*
X117614756Y-61850167D01*
X117616537Y-61850500D01*
X117831199Y-61850500D01*
X117833463Y-61850500D01*
X117835243Y-61850167D01*
X117838860Y-61850000D01*
X120151140Y-61850000D01*
X120154756Y-61850167D01*
X120156537Y-61850500D01*
X120371199Y-61850500D01*
X120373463Y-61850500D01*
X120375243Y-61850167D01*
X120378860Y-61850000D01*
X122691140Y-61850000D01*
X122694756Y-61850167D01*
X122696537Y-61850500D01*
X122911199Y-61850500D01*
X122913463Y-61850500D01*
X122915243Y-61850167D01*
X122918860Y-61850000D01*
X125231140Y-61850000D01*
X125234756Y-61850167D01*
X125236537Y-61850500D01*
X125451200Y-61850500D01*
X125453463Y-61850500D01*
X125666695Y-61810640D01*
X125868972Y-61732278D01*
X126053406Y-61618081D01*
X126213716Y-61471939D01*
X126344443Y-61298829D01*
X126441135Y-61104645D01*
X126500500Y-60896000D01*
X126520515Y-60680000D01*
X126500500Y-60464000D01*
X126441135Y-60255355D01*
X126344443Y-60061171D01*
X126213716Y-59888061D01*
X126053406Y-59741919D01*
X125868972Y-59627722D01*
X125866858Y-59626903D01*
X125866856Y-59626902D01*
X125668809Y-59550179D01*
X125666695Y-59549360D01*
X125664475Y-59548945D01*
X125664468Y-59548943D01*
X125455685Y-59509915D01*
X125455681Y-59509914D01*
X125453463Y-59509500D01*
X125451200Y-59509500D01*
X125348464Y-59509500D01*
X125330118Y-59505936D01*
X125325125Y-59503919D01*
X125325000Y-59500000D01*
X125315447Y-59500012D01*
X117835828Y-59509713D01*
X117834206Y-59509639D01*
X117833463Y-59509500D01*
X117616537Y-59509500D01*
X117614734Y-59509836D01*
X117611153Y-59510004D01*
X115316687Y-59512980D01*
X115307621Y-59512146D01*
X115295688Y-59509915D01*
X115295679Y-59509914D01*
X115293463Y-59509500D01*
X115076537Y-59509500D01*
X115074318Y-59509914D01*
X115074314Y-59509915D01*
X115060536Y-59512490D01*
X115051601Y-59513323D01*
X112794191Y-59516252D01*
X112785124Y-59515418D01*
X112755687Y-59509915D01*
X112755679Y-59509914D01*
X112753463Y-59509500D01*
X112536537Y-59509500D01*
X112534312Y-59509915D01*
X112534310Y-59509916D01*
X112502789Y-59515807D01*
X112493851Y-59516641D01*
X110271694Y-59519524D01*
X110262626Y-59518690D01*
X110215685Y-59509915D01*
X110215681Y-59509914D01*
X110213463Y-59509500D01*
X109996537Y-59509500D01*
X109994323Y-59509913D01*
X109994310Y-59509915D01*
X109945043Y-59519124D01*
X109936105Y-59519958D01*
X107749196Y-59522796D01*
X107740128Y-59521962D01*
X107736153Y-59521219D01*
X107728682Y-59519822D01*
X107675685Y-59509915D01*
X107675681Y-59509914D01*
X107673463Y-59509500D01*
X107456537Y-59509500D01*
X107454321Y-59509914D01*
X107454312Y-59509915D01*
X107387296Y-59522442D01*
X107378357Y-59523276D01*
X106089790Y-59524947D01*
X106074363Y-59521889D01*
X106073231Y-59521133D01*
X106068502Y-59520192D01*
X106068499Y-59520191D01*
X106017114Y-59509970D01*
X106017107Y-59509969D01*
X106014748Y-59509500D01*
X106012338Y-59509500D01*
X104271991Y-59509500D01*
X104237764Y-59495564D01*
X104223005Y-59461684D01*
X104221415Y-59395891D01*
X104214218Y-59098130D01*
X104164071Y-58685134D01*
X104074299Y-58278906D01*
X103945739Y-57883239D01*
X103779591Y-57501826D01*
X103577408Y-57138230D01*
X103576558Y-57136999D01*
X103576542Y-57136945D01*
X103576109Y-57136248D01*
X103576297Y-57136130D01*
X103567893Y-57108131D01*
X103577765Y-57079651D01*
X103602440Y-57062338D01*
X103610249Y-57059929D01*
X103610247Y-57059929D01*
X103612013Y-57059385D01*
X103837592Y-56950752D01*
X104044460Y-56809712D01*
X104227997Y-56639414D01*
X104384102Y-56443665D01*
X104509289Y-56226835D01*
X104600760Y-55993769D01*
X104656474Y-55749673D01*
X104671786Y-55545336D01*
X104687320Y-55513081D01*
X104720649Y-55500000D01*
X133467526Y-55500000D01*
X133498209Y-55510796D01*
G37*
%TD.AperFunction*%
%TA.AperFunction,Conductor*%
G36*
X114329881Y-76379852D02*
G01*
X114761848Y-76811819D01*
X114776200Y-76846467D01*
X114776200Y-78211508D01*
X114775730Y-78218278D01*
X114775369Y-78220860D01*
X114773927Y-78225165D01*
X114774136Y-78229695D01*
X114774136Y-78229699D01*
X114776148Y-78273210D01*
X114776200Y-78275473D01*
X114776200Y-78295244D01*
X114776615Y-78297463D01*
X114776859Y-78298767D01*
X114777641Y-78305509D01*
X114778798Y-78330547D01*
X114779115Y-78337392D01*
X114780946Y-78341540D01*
X114780948Y-78341546D01*
X114785428Y-78351693D01*
X114788767Y-78362474D01*
X114790804Y-78373370D01*
X114790805Y-78373372D01*
X114791639Y-78377833D01*
X114794028Y-78381691D01*
X114794029Y-78381694D01*
X114808434Y-78404959D01*
X114811597Y-78410960D01*
X114822658Y-78436009D01*
X114822660Y-78436012D01*
X114824494Y-78440165D01*
X114827703Y-78443374D01*
X114827704Y-78443375D01*
X114835543Y-78451214D01*
X114842552Y-78460063D01*
X114850781Y-78473352D01*
X114876250Y-78492585D01*
X114881369Y-78497040D01*
X115535148Y-79150819D01*
X115549500Y-79185467D01*
X115549500Y-81234808D01*
X115549030Y-81241578D01*
X115548669Y-81244160D01*
X115547227Y-81248465D01*
X115547436Y-81252995D01*
X115547436Y-81252999D01*
X115549448Y-81296510D01*
X115549500Y-81298773D01*
X115549500Y-81318544D01*
X115549915Y-81320763D01*
X115550159Y-81322067D01*
X115550941Y-81328810D01*
X115551665Y-81344475D01*
X115540414Y-81378041D01*
X115509487Y-81395267D01*
X115482513Y-81399030D01*
X115475743Y-81399500D01*
X113044768Y-81399500D01*
X113010120Y-81385148D01*
X112814852Y-81189881D01*
X112804230Y-81173985D01*
X112800500Y-81155233D01*
X112800500Y-78446544D01*
X112814852Y-78411896D01*
X112830056Y-78396692D01*
X112848528Y-78378220D01*
X112909719Y-78258126D01*
X112930804Y-78125000D01*
X112909719Y-77991874D01*
X112848528Y-77871780D01*
X112753220Y-77776472D01*
X112722926Y-77761036D01*
X112636560Y-77717030D01*
X112636556Y-77717028D01*
X112633126Y-77715281D01*
X112500000Y-77694196D01*
X112496193Y-77694799D01*
X112370680Y-77714678D01*
X112370678Y-77714678D01*
X112366874Y-77715281D01*
X112363445Y-77717027D01*
X112363439Y-77717030D01*
X112250214Y-77774722D01*
X112250212Y-77774722D01*
X112246780Y-77776472D01*
X112244056Y-77779195D01*
X112244053Y-77779198D01*
X112213104Y-77810148D01*
X112178456Y-77824500D01*
X111144767Y-77824500D01*
X111110119Y-77810148D01*
X110877008Y-77577037D01*
X110872553Y-77571918D01*
X110870982Y-77569838D01*
X110868958Y-77565772D01*
X110833414Y-77533369D01*
X110831777Y-77531806D01*
X110819400Y-77519429D01*
X110819399Y-77519428D01*
X110817797Y-77517826D01*
X110814833Y-77515795D01*
X110809525Y-77511589D01*
X110789291Y-77493144D01*
X110789286Y-77493141D01*
X110785933Y-77490084D01*
X110781701Y-77488444D01*
X110781699Y-77488443D01*
X110771355Y-77484436D01*
X110761372Y-77479174D01*
X110748481Y-77470344D01*
X110744063Y-77469304D01*
X110744059Y-77469303D01*
X110717420Y-77463038D01*
X110710938Y-77461031D01*
X110685409Y-77451141D01*
X110685408Y-77451140D01*
X110681173Y-77449500D01*
X110676630Y-77449500D01*
X110665546Y-77449500D01*
X110654327Y-77448198D01*
X110643542Y-77445661D01*
X110643540Y-77445660D01*
X110639119Y-77444621D01*
X110634623Y-77445248D01*
X110634619Y-77445248D01*
X110607513Y-77449030D01*
X110600743Y-77449500D01*
X110392669Y-77449500D01*
X110363867Y-77440142D01*
X110346067Y-77415641D01*
X110346068Y-77385357D01*
X110361630Y-77363938D01*
X110361220Y-77363528D01*
X110361254Y-77363494D01*
X110394895Y-77329852D01*
X110429544Y-77315500D01*
X111079008Y-77315500D01*
X111085778Y-77315970D01*
X111088359Y-77316330D01*
X111092665Y-77317773D01*
X111140710Y-77315551D01*
X111142973Y-77315500D01*
X111160480Y-77315500D01*
X111162744Y-77315500D01*
X111166270Y-77314840D01*
X111173007Y-77314058D01*
X111204892Y-77312585D01*
X111219190Y-77306270D01*
X111229974Y-77302931D01*
X111245333Y-77300061D01*
X111272475Y-77283254D01*
X111278450Y-77280105D01*
X111307665Y-77267206D01*
X111318716Y-77256154D01*
X111327562Y-77249146D01*
X111340852Y-77240919D01*
X111360085Y-77215448D01*
X111364534Y-77210335D01*
X111770018Y-76804852D01*
X111804667Y-76790500D01*
X111814408Y-76790500D01*
X111821178Y-76790970D01*
X111823758Y-76791329D01*
X111828065Y-76792773D01*
X111842606Y-76792100D01*
X111852519Y-76792650D01*
X111978500Y-76812604D01*
X112111626Y-76791519D01*
X112231720Y-76730328D01*
X112272196Y-76689851D01*
X112306844Y-76675500D01*
X112444108Y-76675500D01*
X112450878Y-76675970D01*
X112453459Y-76676330D01*
X112457765Y-76677773D01*
X112505810Y-76675551D01*
X112508073Y-76675500D01*
X112525580Y-76675500D01*
X112527844Y-76675500D01*
X112531370Y-76674840D01*
X112538107Y-76674058D01*
X112569992Y-76672585D01*
X112584290Y-76666270D01*
X112595074Y-76662931D01*
X112610433Y-76660061D01*
X112637575Y-76643254D01*
X112643550Y-76640105D01*
X112672765Y-76627206D01*
X112683816Y-76616154D01*
X112692662Y-76609146D01*
X112705952Y-76600919D01*
X112725185Y-76575448D01*
X112729634Y-76570335D01*
X112920118Y-76379852D01*
X112954767Y-76365500D01*
X114295233Y-76365500D01*
X114329881Y-76379852D01*
G37*
%TD.AperFunction*%
%TD*%
%TA.AperFunction,Conductor*%
%TO.N,VIO*%
G36*
X115263000Y-86191613D02*
G01*
X115308387Y-86237000D01*
X115325000Y-86299000D01*
X115325000Y-87626000D01*
X115308387Y-87688000D01*
X115263000Y-87733387D01*
X115201000Y-87750000D01*
X113799000Y-87750000D01*
X113737000Y-87733387D01*
X113691613Y-87688000D01*
X113675000Y-87626000D01*
X113675000Y-86299000D01*
X113691613Y-86237000D01*
X113737000Y-86191613D01*
X113799000Y-86175000D01*
X115201000Y-86175000D01*
X115263000Y-86191613D01*
G37*
%TD.AperFunction*%
%TD*%
M02*
