G04*
G04 #@! TF.GenerationSoftware,Altium Limited,Altium Designer,20.2.6 (241)*
G04*
G04 Layer_Color=2752767*
%FSLAX25Y25*%
%MOIN*%
G70*
G04*
G04 #@! TF.SameCoordinates,785051FB-66B4-4767-B951-84AC3D2C5656*
G04*
G04*
G04 #@! TF.FilePolarity,Positive*
G04*
G01*
G75*
%ADD11C,0.00591*%
%ADD12C,0.01500*%
%ADD166C,0.01000*%
%ADD181C,0.00200*%
%ADD182C,0.01600*%
D11*
X360719Y12813D02*
X360531Y13001D01*
X360719Y13188D01*
X360906Y13001D01*
Y12626D01*
X360719Y12251D01*
X360531Y12064D01*
X361769Y13188D02*
Y9252D01*
Y13188D02*
X364393Y9252D01*
Y13188D02*
Y9252D01*
X366417Y11876D02*
X366042Y11689D01*
X365667Y11314D01*
X365480Y10751D01*
Y10377D01*
X365667Y9814D01*
X366042Y9439D01*
X366417Y9252D01*
X366979D01*
X367354Y9439D01*
X367729Y9814D01*
X367916Y10377D01*
Y10751D01*
X367729Y11314D01*
X367354Y11689D01*
X366979Y11876D01*
X366417D01*
X369341Y13188D02*
Y10002D01*
X369529Y9439D01*
X369903Y9252D01*
X370278D01*
X368779Y11876D02*
X370091D01*
X370841Y10751D02*
X373090D01*
Y11126D01*
X372902Y11501D01*
X372715Y11689D01*
X372340Y11876D01*
X371778D01*
X371403Y11689D01*
X371028Y11314D01*
X370841Y10751D01*
Y10377D01*
X371028Y9814D01*
X371403Y9439D01*
X371778Y9252D01*
X372340D01*
X372715Y9439D01*
X373090Y9814D01*
X376182Y11314D02*
X375808Y11689D01*
X375433Y11876D01*
X374870D01*
X374496Y11689D01*
X374121Y11314D01*
X373933Y10751D01*
Y10377D01*
X374121Y9814D01*
X374496Y9439D01*
X374870Y9252D01*
X375433D01*
X375808Y9439D01*
X376182Y9814D01*
X379275Y11876D02*
Y9252D01*
Y11314D02*
X378900Y11689D01*
X378525Y11876D01*
X377963D01*
X377588Y11689D01*
X377213Y11314D01*
X377026Y10751D01*
Y10377D01*
X377213Y9814D01*
X377588Y9439D01*
X377963Y9252D01*
X378525D01*
X378900Y9439D01*
X379275Y9814D01*
X380325Y11876D02*
Y9252D01*
Y10751D02*
X380512Y11314D01*
X380887Y11689D01*
X381262Y11876D01*
X381824D01*
X382180D02*
Y9252D01*
Y10751D02*
X382368Y11314D01*
X382743Y11689D01*
X383118Y11876D01*
X383680D01*
X384411Y13188D02*
X384598Y13001D01*
X384786Y13188D01*
X384598Y13376D01*
X384411Y13188D01*
X384598Y11876D02*
Y9252D01*
X385479Y10751D02*
X387729D01*
Y11126D01*
X387541Y11501D01*
X387354Y11689D01*
X386979Y11876D01*
X386417D01*
X386042Y11689D01*
X385667Y11314D01*
X385479Y10751D01*
Y10377D01*
X385667Y9814D01*
X386042Y9439D01*
X386417Y9252D01*
X386979D01*
X387354Y9439D01*
X387729Y9814D01*
X388572Y11876D02*
Y9252D01*
Y10751D02*
X388759Y11314D01*
X389134Y11689D01*
X389509Y11876D01*
X390072D01*
X396519Y9252D02*
X395020Y13188D01*
X393520Y9252D01*
X394083Y10564D02*
X395957D01*
X397438Y13188D02*
Y9252D01*
Y13188D02*
X399874D01*
X397438Y11314D02*
X398937D01*
X400512Y9627D02*
X400324Y9439D01*
X400512Y9252D01*
X400699Y9439D01*
X400512Y9627D01*
X404373Y12251D02*
X404185Y12626D01*
X403811Y13001D01*
X403436Y13188D01*
X402686D01*
X402311Y13001D01*
X401936Y12626D01*
X401749Y12251D01*
X401561Y11689D01*
Y10751D01*
X401749Y10189D01*
X401936Y9814D01*
X402311Y9439D01*
X402686Y9252D01*
X403436D01*
X403811Y9439D01*
X404185Y9814D01*
X404373Y10189D01*
Y10751D01*
X403436D02*
X404373D01*
X405273Y13188D02*
Y9252D01*
Y13188D02*
X406585D01*
X407147Y13001D01*
X407522Y12626D01*
X407709Y12251D01*
X407897Y11689D01*
Y10751D01*
X407709Y10189D01*
X407522Y9814D01*
X407147Y9439D01*
X406585Y9252D01*
X405273D01*
X408778Y12438D02*
X409153Y12626D01*
X409715Y13188D01*
Y9252D01*
X411852Y12813D02*
X411664Y13001D01*
X411852Y13188D01*
X412039Y13001D01*
Y12626D01*
X411852Y12251D01*
X411664Y12064D01*
X360817Y20917D02*
X360630Y21104D01*
X360817Y21292D01*
X361005Y21104D01*
Y20729D01*
X360817Y20354D01*
X360630Y20167D01*
X361867Y21292D02*
Y17355D01*
Y21292D02*
X363179D01*
X363741Y21104D01*
X364116Y20729D01*
X364304Y20354D01*
X364491Y19792D01*
Y18855D01*
X364304Y18293D01*
X364116Y17918D01*
X363741Y17543D01*
X363179Y17355D01*
X361867D01*
X365372Y19979D02*
Y17355D01*
Y18855D02*
X365560Y19417D01*
X365934Y19792D01*
X366309Y19979D01*
X366872D01*
X367603Y21292D02*
X367790Y21104D01*
X367977Y21292D01*
X367790Y21479D01*
X367603Y21292D01*
X367790Y19979D02*
Y17355D01*
X368671Y21292D02*
Y17355D01*
X369496Y21292D02*
Y17355D01*
X373413Y21292D02*
Y17355D01*
Y21292D02*
X374725D01*
X375287Y21104D01*
X375662Y20729D01*
X375850Y20354D01*
X376037Y19792D01*
Y18855D01*
X375850Y18293D01*
X375662Y17918D01*
X375287Y17543D01*
X374725Y17355D01*
X373413D01*
X376918Y19979D02*
Y17355D01*
Y18855D02*
X377106Y19417D01*
X377481Y19792D01*
X377855Y19979D01*
X378418D01*
X381023D02*
Y17355D01*
Y19417D02*
X380648Y19792D01*
X380273Y19979D01*
X379711D01*
X379336Y19792D01*
X378961Y19417D01*
X378774Y18855D01*
Y18480D01*
X378961Y17918D01*
X379336Y17543D01*
X379711Y17355D01*
X380273D01*
X380648Y17543D01*
X381023Y17918D01*
X382073Y19979D02*
X382822Y17355D01*
X383572Y19979D02*
X382822Y17355D01*
X383572Y19979D02*
X384322Y17355D01*
X385072Y19979D02*
X384322Y17355D01*
X386365Y21292D02*
X386552Y21104D01*
X386740Y21292D01*
X386552Y21479D01*
X386365Y21292D01*
X386552Y19979D02*
Y17355D01*
X387433Y19979D02*
Y17355D01*
Y19230D02*
X387996Y19792D01*
X388370Y19979D01*
X388933D01*
X389308Y19792D01*
X389495Y19230D01*
Y17355D01*
X392775Y19979D02*
Y16981D01*
X392588Y16418D01*
X392400Y16231D01*
X392025Y16043D01*
X391463D01*
X391088Y16231D01*
X392775Y19417D02*
X392400Y19792D01*
X392025Y19979D01*
X391463D01*
X391088Y19792D01*
X390714Y19417D01*
X390526Y18855D01*
Y18480D01*
X390714Y17918D01*
X391088Y17543D01*
X391463Y17355D01*
X392025D01*
X392400Y17543D01*
X392775Y17918D01*
X398230Y22041D02*
X397855Y21666D01*
X397480Y21104D01*
X397105Y20354D01*
X396918Y19417D01*
Y18667D01*
X397105Y17730D01*
X397480Y16981D01*
X397855Y16418D01*
X398230Y16043D01*
X397855Y21666D02*
X397480Y20917D01*
X397292Y20354D01*
X397105Y19417D01*
Y18667D01*
X397292Y17730D01*
X397480Y17168D01*
X397855Y16418D01*
X400291Y21292D02*
Y17355D01*
X398979Y21292D02*
X401604D01*
X403009Y19979D02*
X402634Y19792D01*
X402259Y19417D01*
X402072Y18855D01*
Y18480D01*
X402259Y17918D01*
X402634Y17543D01*
X403009Y17355D01*
X403572D01*
X403946Y17543D01*
X404321Y17918D01*
X404509Y18480D01*
Y18855D01*
X404321Y19417D01*
X403946Y19792D01*
X403572Y19979D01*
X403009D01*
X405371D02*
Y16043D01*
Y19417D02*
X405746Y19792D01*
X406121Y19979D01*
X406683D01*
X407058Y19792D01*
X407433Y19417D01*
X407620Y18855D01*
Y18480D01*
X407433Y17918D01*
X407058Y17543D01*
X406683Y17355D01*
X406121D01*
X405746Y17543D01*
X405371Y17918D01*
X411556Y21292D02*
Y17355D01*
X413806D01*
X416486Y19979D02*
Y17355D01*
Y19417D02*
X416111Y19792D01*
X415736Y19979D01*
X415174D01*
X414799Y19792D01*
X414424Y19417D01*
X414237Y18855D01*
Y18480D01*
X414424Y17918D01*
X414799Y17543D01*
X415174Y17355D01*
X415736D01*
X416111Y17543D01*
X416486Y17918D01*
X417723Y19979D02*
X418848Y17355D01*
X419972Y19979D02*
X418848Y17355D01*
X418473Y16606D01*
X418098Y16231D01*
X417723Y16043D01*
X417536D01*
X420628Y18855D02*
X422878D01*
Y19230D01*
X422690Y19605D01*
X422503Y19792D01*
X422128Y19979D01*
X421565D01*
X421191Y19792D01*
X420816Y19417D01*
X420628Y18855D01*
Y18480D01*
X420816Y17918D01*
X421191Y17543D01*
X421565Y17355D01*
X422128D01*
X422503Y17543D01*
X422878Y17918D01*
X423721Y19979D02*
Y17355D01*
Y18855D02*
X423908Y19417D01*
X424283Y19792D01*
X424658Y19979D01*
X425220D01*
X425951Y17543D02*
X425764Y17355D01*
X425577Y17543D01*
X425764Y17730D01*
X425951Y17543D01*
Y17168D01*
X425764Y16793D01*
X425577Y16606D01*
X429906Y21292D02*
Y17355D01*
Y21292D02*
X431593D01*
X432156Y21104D01*
X432343Y20917D01*
X432530Y20542D01*
Y20167D01*
X432343Y19792D01*
X432156Y19605D01*
X431593Y19417D01*
X429906D02*
X431593D01*
X432156Y19230D01*
X432343Y19042D01*
X432530Y18667D01*
Y18105D01*
X432343Y17730D01*
X432156Y17543D01*
X431593Y17355D01*
X429906D01*
X434349Y19979D02*
X433974Y19792D01*
X433599Y19417D01*
X433412Y18855D01*
Y18480D01*
X433599Y17918D01*
X433974Y17543D01*
X434349Y17355D01*
X434911D01*
X435286Y17543D01*
X435661Y17918D01*
X435848Y18480D01*
Y18855D01*
X435661Y19417D01*
X435286Y19792D01*
X434911Y19979D01*
X434349D01*
X437273Y21292D02*
Y18105D01*
X437460Y17543D01*
X437835Y17355D01*
X438210D01*
X436710Y19979D02*
X438022D01*
X439334Y21292D02*
Y18105D01*
X439522Y17543D01*
X439897Y17355D01*
X440272D01*
X438772Y19979D02*
X440084D01*
X441771D02*
X441396Y19792D01*
X441021Y19417D01*
X440834Y18855D01*
Y18480D01*
X441021Y17918D01*
X441396Y17543D01*
X441771Y17355D01*
X442333D01*
X442708Y17543D01*
X443083Y17918D01*
X443271Y18480D01*
Y18855D01*
X443083Y19417D01*
X442708Y19792D01*
X442333Y19979D01*
X441771D01*
X444133D02*
Y17355D01*
Y19230D02*
X444695Y19792D01*
X445070Y19979D01*
X445632D01*
X446007Y19792D01*
X446195Y19230D01*
Y17355D01*
Y19230D02*
X446757Y19792D01*
X447132Y19979D01*
X447694D01*
X448069Y19792D01*
X448256Y19230D01*
Y17355D01*
X452586Y21292D02*
Y17355D01*
X454835D01*
X457516Y19979D02*
Y17355D01*
Y19417D02*
X457141Y19792D01*
X456766Y19979D01*
X456204D01*
X455829Y19792D01*
X455454Y19417D01*
X455267Y18855D01*
Y18480D01*
X455454Y17918D01*
X455829Y17543D01*
X456204Y17355D01*
X456766D01*
X457141Y17543D01*
X457516Y17918D01*
X458753Y19979D02*
X459877Y17355D01*
X461002Y19979D02*
X459877Y17355D01*
X459503Y16606D01*
X459128Y16231D01*
X458753Y16043D01*
X458565D01*
X461658Y18855D02*
X463907D01*
Y19230D01*
X463720Y19605D01*
X463532Y19792D01*
X463158Y19979D01*
X462595D01*
X462220Y19792D01*
X461846Y19417D01*
X461658Y18855D01*
Y18480D01*
X461846Y17918D01*
X462220Y17543D01*
X462595Y17355D01*
X463158D01*
X463532Y17543D01*
X463907Y17918D01*
X464751Y19979D02*
Y17355D01*
Y18855D02*
X464938Y19417D01*
X465313Y19792D01*
X465688Y19979D01*
X466250D01*
X466606Y22041D02*
X466981Y21666D01*
X467356Y21104D01*
X467731Y20354D01*
X467918Y19417D01*
Y18667D01*
X467731Y17730D01*
X467356Y16981D01*
X466981Y16418D01*
X466606Y16043D01*
X466981Y21666D02*
X467356Y20917D01*
X467544Y20354D01*
X467731Y19417D01*
Y18667D01*
X467544Y17730D01*
X467356Y17168D01*
X466981Y16418D01*
X469062Y20917D02*
X468874Y21104D01*
X469062Y21292D01*
X469249Y21104D01*
Y20729D01*
X469062Y20354D01*
X468874Y20167D01*
D12*
X-334250Y770750D02*
X987179D01*
X-334250Y650750D02*
X987179D01*
X-334250Y635750D02*
X987179D01*
Y785750D01*
X-334250D02*
X987179D01*
X-334250Y635750D02*
Y785750D01*
X846919Y635750D02*
Y785750D01*
X760343Y635750D02*
Y785750D01*
X626982Y635750D02*
Y785750D01*
X493621Y635750D02*
Y785750D01*
X408245Y635750D02*
Y785750D01*
X302276Y635750D02*
Y785750D01*
X227696Y635750D02*
Y785750D01*
X168711Y635750D02*
Y785750D01*
X18756Y635750D02*
Y785750D01*
X-54624Y635750D02*
Y785750D01*
X-105212Y635750D02*
Y785750D01*
X-220178Y635750D02*
Y785750D01*
X-279162Y635750D02*
Y785750D01*
D166*
X-322937Y688583D02*
G03*
X-322937Y688583I-2000J0D01*
G01*
X-321604D02*
G03*
X-321604Y688583I-3333J0D01*
G01*
X-326604Y761917D02*
X-324938Y760250D01*
X-328271Y761917D02*
X-326604D01*
X-328271D02*
X-326604Y763583D01*
X-328271Y765250D02*
X-326604Y763583D01*
X-328271Y765250D02*
X-326604D01*
X-324938Y766917D01*
X-323271Y765250D01*
X-321604D01*
X-323271Y763583D02*
X-321604Y765250D01*
X-323271Y763583D02*
X-321604Y761917D01*
X-323271D02*
X-321604D01*
X-324938Y760250D02*
X-323271Y761917D01*
X-328271Y745250D02*
X-324938Y746917D01*
X-321604Y745250D01*
X-323271Y748583D02*
X-321604Y745250D01*
X-323271Y748583D02*
X-321604Y751917D01*
X-324938Y750250D02*
X-321604Y751917D01*
X-328271D02*
X-324938Y750250D01*
X-328271Y751917D02*
X-326604Y748583D01*
X-328271Y745250D02*
X-326604Y748583D01*
X-328271Y731917D02*
X-326604D01*
X-328271D02*
Y735250D01*
X-326604D01*
Y736917D01*
X-323271D01*
Y735250D02*
Y736917D01*
Y735250D02*
X-321604D01*
Y731917D02*
Y735250D01*
X-323271Y731917D02*
X-321604D01*
X-323271Y730250D02*
Y731917D01*
X-326604Y730250D02*
X-323271D01*
X-326604D02*
Y731917D01*
X-328271Y715250D02*
Y716917D01*
X-326604Y718583D01*
X-328271Y720250D02*
X-326604Y718583D01*
X-328271Y720250D02*
Y721917D01*
X-326604D01*
X-324938Y720250D01*
X-323271Y721917D01*
X-321604D01*
Y720250D02*
Y721917D01*
X-323271Y718583D02*
X-321604Y720250D01*
X-323271Y718583D02*
X-321604Y716917D01*
Y715250D02*
Y716917D01*
X-323271Y715250D02*
X-321604D01*
X-324938Y716917D02*
X-323271Y715250D01*
X-326604D02*
X-324938Y716917D01*
X-328271Y715250D02*
X-326604D01*
X-326938Y701583D02*
X-322937D01*
Y705583D01*
X-326938D02*
X-322937D01*
X-326938Y701583D02*
Y705583D01*
X-328271Y700250D02*
X-321604D01*
Y706917D01*
X-328271D02*
X-321604D01*
X-328271Y700250D02*
Y706917D01*
X-324938Y670250D02*
X-321604Y676917D01*
X-328271D02*
X-321604D01*
X-328271D02*
X-324938Y670250D01*
X-328271Y658583D02*
X-324938Y655250D01*
X-321604Y658583D01*
X-324938Y661917D02*
X-321604Y658583D01*
X-328271D02*
X-324938Y661917D01*
X851419Y763249D02*
X855418D01*
X851419Y748249D02*
X855418D01*
X851419Y733249D02*
X855418D01*
X851419Y718249D02*
X855418D01*
X851419Y703249D02*
X855418D01*
X851419Y688249D02*
X855418D01*
X851419Y673249D02*
X855418D01*
X851419Y658249D02*
X855418D01*
X764843Y763249D02*
X768842D01*
X764843Y748249D02*
X768842D01*
X764843Y733249D02*
X768842D01*
X764843Y718249D02*
X768842D01*
X764843Y703249D02*
X768842D01*
X764843Y688249D02*
X768842D01*
X764843Y673249D02*
X768842D01*
X764843Y658249D02*
X768842D01*
X631482Y720248D02*
X632482Y721248D01*
X634481D01*
X635481Y720248D01*
Y716250D01*
X634481Y715250D01*
X632482D01*
X631482Y716250D01*
Y720248D01*
X637480Y715250D02*
Y716250D01*
X638480D01*
Y715250D01*
X637480D01*
X642479Y720248D02*
X643478Y721248D01*
X645478D01*
X646477Y720248D01*
Y716250D01*
X645478Y715250D01*
X643478D01*
X642479Y716250D01*
Y720248D01*
X648477D02*
X649476Y721248D01*
X651476D01*
X652476Y720248D01*
Y716250D01*
X651476Y715250D01*
X649476D01*
X648477Y716250D01*
Y720248D01*
X654475Y715250D02*
Y719249D01*
X655475D01*
X656474Y718249D01*
Y715250D01*
Y718249D01*
X657474Y719249D01*
X658473Y718249D01*
Y715250D01*
X660473D02*
X662472D01*
X661473D01*
Y719249D01*
X660473D01*
X665471Y715250D02*
X667471D01*
X666471D01*
Y721248D01*
X665471D01*
X678467Y715250D02*
X676468Y717249D01*
Y719249D01*
X678467Y721248D01*
X681466Y720248D02*
X682466Y721248D01*
X684465D01*
X685465Y720248D01*
Y716250D01*
X684465Y715250D01*
X682466D01*
X681466Y716250D01*
Y720248D01*
X687464Y715250D02*
Y716250D01*
X688464D01*
Y715250D01*
X687464D01*
X692462Y720248D02*
X693462Y721248D01*
X695462D01*
X696461Y720248D01*
Y716250D01*
X695462Y715250D01*
X693462D01*
X692462Y716250D01*
Y720248D01*
X698461D02*
X699460Y721248D01*
X701460D01*
X702459Y720248D01*
Y716250D01*
X701460Y715250D01*
X699460D01*
X698461Y716250D01*
Y720248D01*
X704459D02*
X705458Y721248D01*
X707458D01*
X708457Y720248D01*
Y716250D01*
X707458Y715250D01*
X705458D01*
X704459Y716250D01*
Y720248D01*
X710457Y715250D02*
Y719249D01*
X711456D01*
X712456Y718249D01*
Y715250D01*
Y718249D01*
X713456Y719249D01*
X714455Y718249D01*
Y715250D01*
X716455D02*
Y719249D01*
X717454D01*
X718454Y718249D01*
Y715250D01*
Y718249D01*
X719454Y719249D01*
X720454Y718249D01*
Y715250D01*
X722453D02*
X724452Y717249D01*
Y719249D01*
X722453Y721248D01*
X498122Y720248D02*
X499121Y721248D01*
X501121D01*
X502120Y720248D01*
Y716250D01*
X501121Y715250D01*
X499121D01*
X498122Y716250D01*
Y720248D01*
X504119Y715250D02*
Y716250D01*
X505119D01*
Y715250D01*
X504119D01*
X509118Y720248D02*
X510118Y721248D01*
X512117D01*
X513117Y720248D01*
Y716250D01*
X512117Y715250D01*
X510118D01*
X509118Y716250D01*
Y720248D01*
X515116D02*
X516116Y721248D01*
X518115D01*
X519115Y720248D01*
Y716250D01*
X518115Y715250D01*
X516116D01*
X515116Y716250D01*
Y720248D01*
X521114Y715250D02*
Y719249D01*
X522114D01*
X523113Y718249D01*
Y715250D01*
Y718249D01*
X524113Y719249D01*
X525113Y718249D01*
Y715250D01*
X527112D02*
X529111D01*
X528112D01*
Y719249D01*
X527112D01*
X532111Y715250D02*
X534110D01*
X533110D01*
Y721248D01*
X532111D01*
X545106Y715250D02*
X543107Y717249D01*
Y719249D01*
X545106Y721248D01*
X548105Y720248D02*
X549105Y721248D01*
X551104D01*
X552104Y720248D01*
Y716250D01*
X551104Y715250D01*
X549105D01*
X548105Y716250D01*
Y720248D01*
X554103Y715250D02*
Y716250D01*
X555103D01*
Y715250D01*
X554103D01*
X559102Y720248D02*
X560101Y721248D01*
X562101D01*
X563100Y720248D01*
Y716250D01*
X562101Y715250D01*
X560101D01*
X559102Y716250D01*
Y720248D01*
X565100D02*
X566100Y721248D01*
X568099D01*
X569099Y720248D01*
Y716250D01*
X568099Y715250D01*
X566100D01*
X565100Y716250D01*
Y720248D01*
X571098D02*
X572097Y721248D01*
X574097D01*
X575097Y720248D01*
Y716250D01*
X574097Y715250D01*
X572097D01*
X571098Y716250D01*
Y720248D01*
X577096Y715250D02*
Y719249D01*
X578096D01*
X579095Y718249D01*
Y715250D01*
Y718249D01*
X580095Y719249D01*
X581095Y718249D01*
Y715250D01*
X583094D02*
Y719249D01*
X584094D01*
X585093Y718249D01*
Y715250D01*
Y718249D01*
X586093Y719249D01*
X587093Y718249D01*
Y715250D01*
X589092D02*
X591091Y717249D01*
Y719249D01*
X589092Y721248D01*
X310775Y764249D02*
X307776D01*
X306776Y763249D01*
Y761250D01*
X307776Y760250D01*
X310775D01*
X312774D02*
X314773D01*
X313774D01*
Y766248D01*
X312774Y765248D01*
X317772D02*
X318772Y766248D01*
X320771D01*
X321771Y765248D01*
Y761250D01*
X320771Y760250D01*
X318772D01*
X317772Y761250D01*
Y765248D01*
X323770D02*
X324770Y766248D01*
X326769D01*
X327769Y765248D01*
Y761250D01*
X326769Y760250D01*
X324770D01*
X323770Y761250D01*
Y765248D01*
X329768Y766248D02*
Y760250D01*
Y763249D01*
X330768Y764249D01*
X332768D01*
X333767Y763249D01*
Y760250D01*
X335767D02*
Y764249D01*
X338766D01*
X339765Y763249D01*
Y760250D01*
X341765D02*
X343764D01*
X342764D01*
Y766248D01*
X341765Y765248D01*
X346763Y760250D02*
X348762D01*
X347763D01*
Y766248D01*
X346763Y765248D01*
X351761D02*
X352761Y766248D01*
X354760D01*
X355760Y765248D01*
Y761250D01*
X354760Y760250D01*
X352761D01*
X351761Y761250D01*
Y765248D01*
X310775Y749249D02*
X307776D01*
X306776Y748249D01*
Y746250D01*
X307776Y745250D01*
X310775D01*
X312774D02*
X314773D01*
X313774D01*
Y751248D01*
X312774Y750248D01*
X321771Y751248D02*
X317772D01*
Y748249D01*
X319772Y749249D01*
X320771D01*
X321771Y748249D01*
Y746250D01*
X320771Y745250D01*
X318772D01*
X317772Y746250D01*
X327769Y745250D02*
X323770D01*
X327769Y749249D01*
Y750248D01*
X326769Y751248D01*
X324770D01*
X323770Y750248D01*
X329768Y751248D02*
Y745250D01*
Y748249D01*
X330768Y749249D01*
X332768D01*
X333767Y748249D01*
Y745250D01*
X335767D02*
Y749249D01*
X338766D01*
X339765Y748249D01*
Y745250D01*
X341765D02*
X343764D01*
X342764D01*
Y751248D01*
X341765Y750248D01*
X350762Y751248D02*
X348762Y750248D01*
X346763Y748249D01*
Y746250D01*
X347763Y745250D01*
X349762D01*
X350762Y746250D01*
Y747249D01*
X349762Y748249D01*
X346763D01*
X352761Y750248D02*
X353761Y751248D01*
X355760D01*
X356760Y750248D01*
Y746250D01*
X355760Y745250D01*
X353761D01*
X352761Y746250D01*
Y750248D01*
X310775Y734249D02*
X307776D01*
X306776Y733249D01*
Y731250D01*
X307776Y730250D01*
X310775D01*
X316773Y736248D02*
X314773Y735248D01*
X312774Y733249D01*
Y731250D01*
X313774Y730250D01*
X315773D01*
X316773Y731250D01*
Y732249D01*
X315773Y733249D01*
X312774D01*
X318772Y735248D02*
X319772Y736248D01*
X321771D01*
X322771Y735248D01*
Y731250D01*
X321771Y730250D01*
X319772D01*
X318772Y731250D01*
Y735248D01*
X324770D02*
X325770Y736248D01*
X327769D01*
X328769Y735248D01*
Y731250D01*
X327769Y730250D01*
X325770D01*
X324770Y731250D01*
Y735248D01*
X330768Y736248D02*
Y730250D01*
Y733249D01*
X331768Y734249D01*
X333767D01*
X334767Y733249D01*
Y730250D01*
X336766Y735248D02*
X337766Y736248D01*
X339765D01*
X340765Y735248D01*
Y734249D01*
X339765Y733249D01*
X338766D01*
X339765D01*
X340765Y732249D01*
Y731250D01*
X339765Y730250D01*
X337766D01*
X336766Y731250D01*
X342764Y736248D02*
X346763D01*
Y735248D01*
X342764Y731250D01*
Y730250D01*
X348762Y735248D02*
X349762Y736248D01*
X351761D01*
X352761Y735248D01*
Y731250D01*
X351761Y730250D01*
X349762D01*
X348762Y731250D01*
Y735248D01*
X354760Y734249D02*
X358759D01*
X354760Y730250D01*
X358759D01*
X360758D02*
X362758D01*
X361758D01*
Y736248D01*
X360758Y735248D01*
X369756Y736248D02*
X365757D01*
Y733249D01*
X367756Y734249D01*
X368756D01*
X369756Y733249D01*
Y731250D01*
X368756Y730250D01*
X366757D01*
X365757Y731250D01*
X375754Y730250D02*
X371755D01*
X375754Y734249D01*
Y735248D01*
X374754Y736248D01*
X372755D01*
X371755Y735248D01*
X310775Y719249D02*
X307776D01*
X306776Y718249D01*
Y716250D01*
X307776Y715250D01*
X310775D01*
X312774D02*
X314773D01*
X313774D01*
Y721248D01*
X312774Y720248D01*
X317772D02*
X318772Y721248D01*
X320771D01*
X321771Y720248D01*
Y716250D01*
X320771Y715250D01*
X318772D01*
X317772Y716250D01*
Y720248D01*
X323770D02*
X324770Y721248D01*
X326769D01*
X327769Y720248D01*
Y716250D01*
X326769Y715250D01*
X324770D01*
X323770Y716250D01*
Y720248D01*
X329768Y721248D02*
Y715250D01*
Y718249D01*
X330768Y719249D01*
X332768D01*
X333767Y718249D01*
Y715250D01*
X335767D02*
Y719249D01*
X338766D01*
X339765Y718249D01*
Y715250D01*
X341765Y720248D02*
X342764Y721248D01*
X344764D01*
X345763Y720248D01*
Y719249D01*
X344764Y718249D01*
X343764D01*
X344764D01*
X345763Y717249D01*
Y716250D01*
X344764Y715250D01*
X342764D01*
X341765Y716250D01*
X347763Y720248D02*
X348762Y721248D01*
X350762D01*
X351761Y720248D01*
Y719249D01*
X350762Y718249D01*
X349762D01*
X350762D01*
X351761Y717249D01*
Y716250D01*
X350762Y715250D01*
X348762D01*
X347763Y716250D01*
X353761Y720248D02*
X354760Y721248D01*
X356760D01*
X357759Y720248D01*
Y716250D01*
X356760Y715250D01*
X354760D01*
X353761Y716250D01*
Y720248D01*
X361758Y715250D02*
X359759Y717249D01*
Y719249D01*
X361758Y721248D01*
X364757D02*
X368756D01*
X366757D01*
Y715250D01*
X371755D02*
X373754D01*
X374754Y716250D01*
Y718249D01*
X373754Y719249D01*
X371755D01*
X370755Y718249D01*
Y716250D01*
X371755Y715250D01*
X376753D02*
X378753D01*
X377753D01*
Y721248D01*
X376753D01*
X381752Y720248D02*
X382751Y721248D01*
X384751D01*
X385750Y720248D01*
Y716250D01*
X384751Y715250D01*
X382751D01*
X381752Y716250D01*
Y720248D01*
X387750Y718249D02*
X391748D01*
X393748Y720248D02*
X394747Y721248D01*
X396747D01*
X397746Y720248D01*
Y716250D01*
X396747Y715250D01*
X394747D01*
X393748Y716250D01*
Y720248D01*
X399746Y715250D02*
X401745Y717249D01*
Y719249D01*
X399746Y721248D01*
X306776Y704249D02*
X308775Y700250D01*
X310775Y704249D01*
X312774Y700250D02*
X314773D01*
X313774D01*
Y706248D01*
X312774Y705248D01*
X317772D02*
X318772Y706248D01*
X320771D01*
X321771Y705248D01*
Y701250D01*
X320771Y700250D01*
X318772D01*
X317772Y701250D01*
Y705248D01*
X323770D02*
X324770Y706248D01*
X326769D01*
X327769Y705248D01*
Y701250D01*
X326769Y700250D01*
X324770D01*
X323770Y701250D01*
Y705248D01*
X329768Y706248D02*
Y700250D01*
Y703249D01*
X330768Y704249D01*
X332768D01*
X333767Y703249D01*
Y700250D01*
X339765Y706248D02*
X335767D01*
Y703249D01*
X337766Y704249D01*
X338766D01*
X339765Y703249D01*
Y701250D01*
X338766Y700250D01*
X336766D01*
X335767Y701250D01*
X341765Y705248D02*
X342764Y706248D01*
X344764D01*
X345763Y705248D01*
Y701250D01*
X344764Y700250D01*
X342764D01*
X341765Y701250D01*
Y705248D01*
X306776Y689249D02*
X308775Y685250D01*
X310775Y689249D01*
X312774Y685250D02*
X314773D01*
X313774D01*
Y691248D01*
X312774Y690248D01*
X321771Y685250D02*
X317772D01*
X321771Y689249D01*
Y690248D01*
X320771Y691248D01*
X318772D01*
X317772Y690248D01*
X323770Y691248D02*
X327769D01*
Y690248D01*
X323770Y686250D01*
Y685250D01*
X329768Y691248D02*
Y685250D01*
Y688249D01*
X330768Y689249D01*
X332768D01*
X333767Y688249D01*
Y685250D01*
X335767Y691248D02*
X339765D01*
Y690248D01*
X335767Y686250D01*
Y685250D01*
X341765D02*
X343764D01*
X342764D01*
Y691248D01*
X341765Y690248D01*
X308775Y670250D02*
X306776Y672249D01*
Y674249D01*
X308775Y676248D01*
X311774Y670250D02*
Y676248D01*
X313774Y674249D01*
X315773Y676248D01*
Y670250D01*
X317772D02*
X319772D01*
X318772D01*
Y674249D01*
X317772D01*
X322771D02*
X326769Y670250D01*
X324770Y672249D01*
X326769Y674249D01*
X322771Y670250D01*
X331768D02*
X329768D01*
X328769Y671250D01*
Y673249D01*
X329768Y674249D01*
X331768D01*
X332768Y673249D01*
Y672249D01*
X328769D01*
X338766Y676248D02*
Y670250D01*
X335767D01*
X334767Y671250D01*
Y673249D01*
X335767Y674249D01*
X338766D01*
X340765Y670250D02*
X342764Y672249D01*
Y674249D01*
X340765Y676248D01*
X308775Y655250D02*
X306776Y657249D01*
Y659249D01*
X308775Y661248D01*
X311774Y655250D02*
Y661248D01*
X313774Y659249D01*
X315773Y661248D01*
Y655250D01*
X317772D02*
X319772D01*
X318772D01*
Y659249D01*
X317772D01*
X322771D02*
X326769Y655250D01*
X324770Y657249D01*
X326769Y659249D01*
X322771Y655250D01*
X331768D02*
X329768D01*
X328769Y656250D01*
Y658249D01*
X329768Y659249D01*
X331768D01*
X332768Y658249D01*
Y657249D01*
X328769D01*
X338766Y661248D02*
Y655250D01*
X335767D01*
X334767Y656250D01*
Y658249D01*
X335767Y659249D01*
X338766D01*
X340765Y655250D02*
X342764Y657249D01*
Y659249D01*
X340765Y661248D01*
X232196Y760250D02*
Y766248D01*
X235195D01*
X236195Y765248D01*
Y763249D01*
X235195Y762249D01*
X232196D01*
X234195D02*
X236195Y760250D01*
X239194D02*
X241193D01*
X242193Y761250D01*
Y763249D01*
X241193Y764249D01*
X239194D01*
X238194Y763249D01*
Y761250D01*
X239194Y760250D01*
X244192Y764249D02*
Y761250D01*
X245192Y760250D01*
X248191D01*
Y764249D01*
X250190Y760250D02*
Y764249D01*
X253189D01*
X254189Y763249D01*
Y760250D01*
X260187Y766248D02*
Y760250D01*
X257188D01*
X256188Y761250D01*
Y763249D01*
X257188Y764249D01*
X260187D01*
X265185Y760250D02*
X263186D01*
X262186Y761250D01*
Y763249D01*
X263186Y764249D01*
X265185D01*
X266185Y763249D01*
Y762249D01*
X262186D01*
X272183Y766248D02*
Y760250D01*
X269184D01*
X268184Y761250D01*
Y763249D01*
X269184Y764249D01*
X272183D01*
X232196Y745250D02*
Y751248D01*
X235195D01*
X236195Y750248D01*
Y748249D01*
X235195Y747249D01*
X232196D01*
X234195D02*
X236195Y745250D01*
X239194D02*
X241193D01*
X242193Y746250D01*
Y748249D01*
X241193Y749249D01*
X239194D01*
X238194Y748249D01*
Y746250D01*
X239194Y745250D01*
X244192Y749249D02*
Y746250D01*
X245192Y745250D01*
X248191D01*
Y749249D01*
X250190Y745250D02*
Y749249D01*
X253189D01*
X254189Y748249D01*
Y745250D01*
X260187Y751248D02*
Y745250D01*
X257188D01*
X256188Y746250D01*
Y748249D01*
X257188Y749249D01*
X260187D01*
X265185Y745250D02*
X263186D01*
X262186Y746250D01*
Y748249D01*
X263186Y749249D01*
X265185D01*
X266185Y748249D01*
Y747249D01*
X262186D01*
X272183Y751248D02*
Y745250D01*
X269184D01*
X268184Y746250D01*
Y748249D01*
X269184Y749249D01*
X272183D01*
X232196Y730250D02*
Y736248D01*
X235195D01*
X236195Y735248D01*
Y733249D01*
X235195Y732249D01*
X232196D01*
X234195D02*
X236195Y730250D01*
X239194D02*
X241193D01*
X242193Y731250D01*
Y733249D01*
X241193Y734249D01*
X239194D01*
X238194Y733249D01*
Y731250D01*
X239194Y730250D01*
X244192Y734249D02*
Y731250D01*
X245192Y730250D01*
X248191D01*
Y734249D01*
X250190Y730250D02*
Y734249D01*
X253189D01*
X254189Y733249D01*
Y730250D01*
X260187Y736248D02*
Y730250D01*
X257188D01*
X256188Y731250D01*
Y733249D01*
X257188Y734249D01*
X260187D01*
X265185Y730250D02*
X263186D01*
X262186Y731250D01*
Y733249D01*
X263186Y734249D01*
X265185D01*
X266185Y733249D01*
Y732249D01*
X262186D01*
X272183Y736248D02*
Y730250D01*
X269184D01*
X268184Y731250D01*
Y733249D01*
X269184Y734249D01*
X272183D01*
X232196Y715250D02*
Y721248D01*
X235195D01*
X236195Y720248D01*
Y718249D01*
X235195Y717249D01*
X232196D01*
X234195D02*
X236195Y715250D01*
X239194D02*
X241193D01*
X242193Y716250D01*
Y718249D01*
X241193Y719249D01*
X239194D01*
X238194Y718249D01*
Y716250D01*
X239194Y715250D01*
X244192Y719249D02*
Y716250D01*
X245192Y715250D01*
X248191D01*
Y719249D01*
X250190Y715250D02*
Y719249D01*
X253189D01*
X254189Y718249D01*
Y715250D01*
X260187Y721248D02*
Y715250D01*
X257188D01*
X256188Y716250D01*
Y718249D01*
X257188Y719249D01*
X260187D01*
X265185Y715250D02*
X263186D01*
X262186Y716250D01*
Y718249D01*
X263186Y719249D01*
X265185D01*
X266185Y718249D01*
Y717249D01*
X262186D01*
X272183Y721248D02*
Y715250D01*
X269184D01*
X268184Y716250D01*
Y718249D01*
X269184Y719249D01*
X272183D01*
X232196Y700250D02*
Y706248D01*
X235195D01*
X236195Y705248D01*
Y703249D01*
X235195Y702249D01*
X232196D01*
X234195D02*
X236195Y700250D01*
X239194D02*
X241193D01*
X242193Y701250D01*
Y703249D01*
X241193Y704249D01*
X239194D01*
X238194Y703249D01*
Y701250D01*
X239194Y700250D01*
X244192Y704249D02*
Y701250D01*
X245192Y700250D01*
X248191D01*
Y704249D01*
X250190Y700250D02*
Y704249D01*
X253189D01*
X254189Y703249D01*
Y700250D01*
X260187Y706248D02*
Y700250D01*
X257188D01*
X256188Y701250D01*
Y703249D01*
X257188Y704249D01*
X260187D01*
X265185Y700250D02*
X263186D01*
X262186Y701250D01*
Y703249D01*
X263186Y704249D01*
X265185D01*
X266185Y703249D01*
Y702249D01*
X262186D01*
X272183Y706248D02*
Y700250D01*
X269184D01*
X268184Y701250D01*
Y703249D01*
X269184Y704249D01*
X272183D01*
X232196Y685250D02*
Y691248D01*
X235195D01*
X236195Y690248D01*
Y688249D01*
X235195Y687249D01*
X232196D01*
X234195D02*
X236195Y685250D01*
X239194D02*
X241193D01*
X242193Y686250D01*
Y688249D01*
X241193Y689249D01*
X239194D01*
X238194Y688249D01*
Y686250D01*
X239194Y685250D01*
X244192Y689249D02*
Y686250D01*
X245192Y685250D01*
X248191D01*
Y689249D01*
X250190Y685250D02*
Y689249D01*
X253189D01*
X254189Y688249D01*
Y685250D01*
X260187Y691248D02*
Y685250D01*
X257188D01*
X256188Y686250D01*
Y688249D01*
X257188Y689249D01*
X260187D01*
X265185Y685250D02*
X263186D01*
X262186Y686250D01*
Y688249D01*
X263186Y689249D01*
X265185D01*
X266185Y688249D01*
Y687249D01*
X262186D01*
X272183Y691248D02*
Y685250D01*
X269184D01*
X268184Y686250D01*
Y688249D01*
X269184Y689249D01*
X272183D01*
X234195Y670250D02*
X232196Y672249D01*
Y674249D01*
X234195Y676248D01*
X237194Y670250D02*
Y676248D01*
X239194Y674249D01*
X241193Y676248D01*
Y670250D01*
X243193D02*
X245192D01*
X244192D01*
Y674249D01*
X243193D01*
X248191D02*
X252190Y670250D01*
X250190Y672249D01*
X252190Y674249D01*
X248191Y670250D01*
X257188D02*
X255189D01*
X254189Y671250D01*
Y673249D01*
X255189Y674249D01*
X257188D01*
X258188Y673249D01*
Y672249D01*
X254189D01*
X264186Y676248D02*
Y670250D01*
X261187D01*
X260187Y671250D01*
Y673249D01*
X261187Y674249D01*
X264186D01*
X266185Y670250D02*
X268184Y672249D01*
Y674249D01*
X266185Y676248D01*
X232196Y655250D02*
Y661248D01*
X235195D01*
X236195Y660248D01*
Y658249D01*
X235195Y657249D01*
X232196D01*
X234195D02*
X236195Y655250D01*
X239194D02*
X241193D01*
X242193Y656250D01*
Y658249D01*
X241193Y659249D01*
X239194D01*
X238194Y658249D01*
Y656250D01*
X239194Y655250D01*
X244192Y659249D02*
Y656250D01*
X245192Y655250D01*
X248191D01*
Y659249D01*
X250190Y655250D02*
Y659249D01*
X253189D01*
X254189Y658249D01*
Y655250D01*
X260187Y661248D02*
Y655250D01*
X257188D01*
X256188Y656250D01*
Y658249D01*
X257188Y659249D01*
X260187D01*
X265185Y655250D02*
X263186D01*
X262186Y656250D01*
Y658249D01*
X263186Y659249D01*
X265185D01*
X266185Y658249D01*
Y657249D01*
X262186D01*
X272183Y661248D02*
Y655250D01*
X269184D01*
X268184Y656250D01*
Y658249D01*
X269184Y659249D01*
X272183D01*
X173211Y760250D02*
Y766248D01*
X176210D01*
X177210Y765248D01*
Y763249D01*
X176210Y762249D01*
X173211D01*
X180209Y764249D02*
X182208D01*
X183208Y763249D01*
Y760250D01*
X180209D01*
X179209Y761250D01*
X180209Y762249D01*
X183208D01*
X189206Y766248D02*
Y760250D01*
X186207D01*
X185207Y761250D01*
Y763249D01*
X186207Y764249D01*
X189206D01*
X173211Y745250D02*
Y751248D01*
X176210D01*
X177210Y750248D01*
Y748249D01*
X176210Y747249D01*
X173211D01*
X180209Y749249D02*
X182208D01*
X183208Y748249D01*
Y745250D01*
X180209D01*
X179209Y746250D01*
X180209Y747249D01*
X183208D01*
X189206Y751248D02*
Y745250D01*
X186207D01*
X185207Y746250D01*
Y748249D01*
X186207Y749249D01*
X189206D01*
X173211Y730250D02*
Y736248D01*
X176210D01*
X177210Y735248D01*
Y733249D01*
X176210Y732249D01*
X173211D01*
X180209Y734249D02*
X182208D01*
X183208Y733249D01*
Y730250D01*
X180209D01*
X179209Y731250D01*
X180209Y732249D01*
X183208D01*
X189206Y736248D02*
Y730250D01*
X186207D01*
X185207Y731250D01*
Y733249D01*
X186207Y734249D01*
X189206D01*
X173211Y715250D02*
Y721248D01*
X176210D01*
X177210Y720248D01*
Y718249D01*
X176210Y717249D01*
X173211D01*
X180209Y719249D02*
X182208D01*
X183208Y718249D01*
Y715250D01*
X180209D01*
X179209Y716250D01*
X180209Y717249D01*
X183208D01*
X189206Y721248D02*
Y715250D01*
X186207D01*
X185207Y716250D01*
Y718249D01*
X186207Y719249D01*
X189206D01*
X173211Y706248D02*
Y702249D01*
X175211Y700250D01*
X177210Y702249D01*
Y706248D01*
X179209Y700250D02*
X181209D01*
X180209D01*
Y704249D01*
X179209D01*
X185207D02*
X187207D01*
X188206Y703249D01*
Y700250D01*
X185207D01*
X184208Y701250D01*
X185207Y702249D01*
X188206D01*
X173211Y691248D02*
Y687249D01*
X175211Y685250D01*
X177210Y687249D01*
Y691248D01*
X179209Y685250D02*
X181209D01*
X180209D01*
Y689249D01*
X179209D01*
X185207D02*
X187207D01*
X188206Y688249D01*
Y685250D01*
X185207D01*
X184208Y686250D01*
X185207Y687249D01*
X188206D01*
X173211Y670250D02*
Y676248D01*
X176210D01*
X177210Y675248D01*
Y673249D01*
X176210Y672249D01*
X173211D01*
X180209Y674249D02*
X182208D01*
X183208Y673249D01*
Y670250D01*
X180209D01*
X179209Y671250D01*
X180209Y672249D01*
X183208D01*
X189206Y676248D02*
Y670250D01*
X186207D01*
X185207Y671250D01*
Y673249D01*
X186207Y674249D01*
X189206D01*
X173211Y661248D02*
Y657249D01*
X175211Y655250D01*
X177210Y657249D01*
Y661248D01*
X179209Y655250D02*
X181209D01*
X180209D01*
Y659249D01*
X179209D01*
X185207D02*
X187207D01*
X188206Y658249D01*
Y655250D01*
X185207D01*
X184208Y656250D01*
X185207Y657249D01*
X188206D01*
X23256Y766248D02*
X27255D01*
X25256D01*
Y760250D01*
X30254D02*
X32253D01*
X33253Y761250D01*
Y763249D01*
X32253Y764249D01*
X30254D01*
X29254Y763249D01*
Y761250D01*
X30254Y760250D01*
X35252Y758251D02*
Y764249D01*
X38251D01*
X39251Y763249D01*
Y761250D01*
X38251Y760250D01*
X35252D01*
X47248Y766248D02*
Y760250D01*
X51247D01*
X54246Y764249D02*
X56245D01*
X57245Y763249D01*
Y760250D01*
X54246D01*
X53246Y761250D01*
X54246Y762249D01*
X57245D01*
X59245Y764249D02*
Y761250D01*
X60244Y760250D01*
X63243D01*
Y759250D01*
X62244Y758251D01*
X61244D01*
X63243Y760250D02*
Y764249D01*
X68242Y760250D02*
X66242D01*
X65243Y761250D01*
Y763249D01*
X66242Y764249D01*
X68242D01*
X69241Y763249D01*
Y762249D01*
X65243D01*
X71241Y764249D02*
Y760250D01*
Y762249D01*
X72240Y763249D01*
X73240Y764249D01*
X74240D01*
X83237Y763249D02*
X87235D01*
X95233Y766248D02*
Y760250D01*
X98232D01*
X99232Y761250D01*
Y762249D01*
X98232Y763249D01*
X95233D01*
X98232D01*
X99232Y764249D01*
Y765248D01*
X98232Y766248D01*
X95233D01*
X102231Y760250D02*
X104230D01*
X105230Y761250D01*
Y763249D01*
X104230Y764249D01*
X102231D01*
X101231Y763249D01*
Y761250D01*
X102231Y760250D01*
X108229Y765248D02*
Y764249D01*
X107229D01*
X109228D01*
X108229D01*
Y761250D01*
X109228Y760250D01*
X113227Y765248D02*
Y764249D01*
X112227D01*
X114227D01*
X113227D01*
Y761250D01*
X114227Y760250D01*
X118226D02*
X120225D01*
X121224Y761250D01*
Y763249D01*
X120225Y764249D01*
X118226D01*
X117226Y763249D01*
Y761250D01*
X118226Y760250D01*
X123224D02*
Y764249D01*
X124223D01*
X125223Y763249D01*
Y760250D01*
Y763249D01*
X126223Y764249D01*
X127223Y763249D01*
Y760250D01*
X135220Y766248D02*
Y760250D01*
X139219D01*
X142218Y764249D02*
X144217D01*
X145217Y763249D01*
Y760250D01*
X142218D01*
X141218Y761250D01*
X142218Y762249D01*
X145217D01*
X147216Y764249D02*
Y761250D01*
X148216Y760250D01*
X151215D01*
Y759250D01*
X150215Y758251D01*
X149215D01*
X151215Y760250D02*
Y764249D01*
X156213Y760250D02*
X154214D01*
X153214Y761250D01*
Y763249D01*
X154214Y764249D01*
X156213D01*
X157213Y763249D01*
Y762249D01*
X153214D01*
X159212Y764249D02*
Y760250D01*
Y762249D01*
X160212Y763249D01*
X161212Y764249D01*
X162211D01*
X23256Y751248D02*
X27255D01*
X25256D01*
Y745250D01*
X30254D02*
X32253D01*
X33253Y746250D01*
Y748249D01*
X32253Y749249D01*
X30254D01*
X29254Y748249D01*
Y746250D01*
X30254Y745250D01*
X35252Y743251D02*
Y749249D01*
X38251D01*
X39251Y748249D01*
Y746250D01*
X38251Y745250D01*
X35252D01*
X47248Y751248D02*
Y745250D01*
X51247D01*
X54246Y749249D02*
X56245D01*
X57245Y748249D01*
Y745250D01*
X54246D01*
X53246Y746250D01*
X54246Y747249D01*
X57245D01*
X59245Y749249D02*
Y746250D01*
X60244Y745250D01*
X63243D01*
Y744250D01*
X62244Y743251D01*
X61244D01*
X63243Y745250D02*
Y749249D01*
X68242Y745250D02*
X66242D01*
X65243Y746250D01*
Y748249D01*
X66242Y749249D01*
X68242D01*
X69241Y748249D01*
Y747249D01*
X65243D01*
X71241Y749249D02*
Y745250D01*
Y747249D01*
X72240Y748249D01*
X73240Y749249D01*
X74240D01*
X83237Y748249D02*
X87235D01*
X95233Y751248D02*
Y745250D01*
X98232D01*
X99232Y746250D01*
Y747249D01*
X98232Y748249D01*
X95233D01*
X98232D01*
X99232Y749249D01*
Y750248D01*
X98232Y751248D01*
X95233D01*
X102231Y745250D02*
X104230D01*
X105230Y746250D01*
Y748249D01*
X104230Y749249D01*
X102231D01*
X101231Y748249D01*
Y746250D01*
X102231Y745250D01*
X108229Y750248D02*
Y749249D01*
X107229D01*
X109228D01*
X108229D01*
Y746250D01*
X109228Y745250D01*
X113227Y750248D02*
Y749249D01*
X112227D01*
X114227D01*
X113227D01*
Y746250D01*
X114227Y745250D01*
X118226D02*
X120225D01*
X121224Y746250D01*
Y748249D01*
X120225Y749249D01*
X118226D01*
X117226Y748249D01*
Y746250D01*
X118226Y745250D01*
X123224D02*
Y749249D01*
X124223D01*
X125223Y748249D01*
Y745250D01*
Y748249D01*
X126223Y749249D01*
X127223Y748249D01*
Y745250D01*
X135220Y751248D02*
Y745250D01*
X139219D01*
X142218Y749249D02*
X144217D01*
X145217Y748249D01*
Y745250D01*
X142218D01*
X141218Y746250D01*
X142218Y747249D01*
X145217D01*
X147216Y749249D02*
Y746250D01*
X148216Y745250D01*
X151215D01*
Y744250D01*
X150215Y743251D01*
X149215D01*
X151215Y745250D02*
Y749249D01*
X156213Y745250D02*
X154214D01*
X153214Y746250D01*
Y748249D01*
X154214Y749249D01*
X156213D01*
X157213Y748249D01*
Y747249D01*
X153214D01*
X159212Y749249D02*
Y745250D01*
Y747249D01*
X160212Y748249D01*
X161212Y749249D01*
X162211D01*
X23256Y736248D02*
X27255D01*
X25256D01*
Y730250D01*
X30254D02*
X32253D01*
X33253Y731250D01*
Y733249D01*
X32253Y734249D01*
X30254D01*
X29254Y733249D01*
Y731250D01*
X30254Y730250D01*
X35252Y728251D02*
Y734249D01*
X38251D01*
X39251Y733249D01*
Y731250D01*
X38251Y730250D01*
X35252D01*
X47248Y736248D02*
Y730250D01*
X51247D01*
X54246Y734249D02*
X56245D01*
X57245Y733249D01*
Y730250D01*
X54246D01*
X53246Y731250D01*
X54246Y732249D01*
X57245D01*
X59245Y734249D02*
Y731250D01*
X60244Y730250D01*
X63243D01*
Y729250D01*
X62244Y728251D01*
X61244D01*
X63243Y730250D02*
Y734249D01*
X68242Y730250D02*
X66242D01*
X65243Y731250D01*
Y733249D01*
X66242Y734249D01*
X68242D01*
X69241Y733249D01*
Y732249D01*
X65243D01*
X71241Y734249D02*
Y730250D01*
Y732249D01*
X72240Y733249D01*
X73240Y734249D01*
X74240D01*
X83237Y733249D02*
X87235D01*
X95233Y736248D02*
Y730250D01*
X98232D01*
X99232Y731250D01*
Y732249D01*
X98232Y733249D01*
X95233D01*
X98232D01*
X99232Y734249D01*
Y735248D01*
X98232Y736248D01*
X95233D01*
X102231Y730250D02*
X104230D01*
X105230Y731250D01*
Y733249D01*
X104230Y734249D01*
X102231D01*
X101231Y733249D01*
Y731250D01*
X102231Y730250D01*
X108229Y735248D02*
Y734249D01*
X107229D01*
X109228D01*
X108229D01*
Y731250D01*
X109228Y730250D01*
X113227Y735248D02*
Y734249D01*
X112227D01*
X114227D01*
X113227D01*
Y731250D01*
X114227Y730250D01*
X118226D02*
X120225D01*
X121224Y731250D01*
Y733249D01*
X120225Y734249D01*
X118226D01*
X117226Y733249D01*
Y731250D01*
X118226Y730250D01*
X123224D02*
Y734249D01*
X124223D01*
X125223Y733249D01*
Y730250D01*
Y733249D01*
X126223Y734249D01*
X127223Y733249D01*
Y730250D01*
X135220Y736248D02*
Y730250D01*
X139219D01*
X142218Y734249D02*
X144217D01*
X145217Y733249D01*
Y730250D01*
X142218D01*
X141218Y731250D01*
X142218Y732249D01*
X145217D01*
X147216Y734249D02*
Y731250D01*
X148216Y730250D01*
X151215D01*
Y729250D01*
X150215Y728251D01*
X149215D01*
X151215Y730250D02*
Y734249D01*
X156213Y730250D02*
X154214D01*
X153214Y731250D01*
Y733249D01*
X154214Y734249D01*
X156213D01*
X157213Y733249D01*
Y732249D01*
X153214D01*
X159212Y734249D02*
Y730250D01*
Y732249D01*
X160212Y733249D01*
X161212Y734249D01*
X162211D01*
X23256Y721248D02*
X27255D01*
X25256D01*
Y715250D01*
X30254D02*
X32253D01*
X33253Y716250D01*
Y718249D01*
X32253Y719249D01*
X30254D01*
X29254Y718249D01*
Y716250D01*
X30254Y715250D01*
X35252Y713251D02*
Y719249D01*
X38251D01*
X39251Y718249D01*
Y716250D01*
X38251Y715250D01*
X35252D01*
X47248Y721248D02*
Y715250D01*
X51247D01*
X54246Y719249D02*
X56245D01*
X57245Y718249D01*
Y715250D01*
X54246D01*
X53246Y716250D01*
X54246Y717249D01*
X57245D01*
X59245Y719249D02*
Y716250D01*
X60244Y715250D01*
X63243D01*
Y714250D01*
X62244Y713251D01*
X61244D01*
X63243Y715250D02*
Y719249D01*
X68242Y715250D02*
X66242D01*
X65243Y716250D01*
Y718249D01*
X66242Y719249D01*
X68242D01*
X69241Y718249D01*
Y717249D01*
X65243D01*
X71241Y719249D02*
Y715250D01*
Y717249D01*
X72240Y718249D01*
X73240Y719249D01*
X74240D01*
X83237Y718249D02*
X87235D01*
X95233Y721248D02*
Y715250D01*
X98232D01*
X99232Y716250D01*
Y717249D01*
X98232Y718249D01*
X95233D01*
X98232D01*
X99232Y719249D01*
Y720248D01*
X98232Y721248D01*
X95233D01*
X102231Y715250D02*
X104230D01*
X105230Y716250D01*
Y718249D01*
X104230Y719249D01*
X102231D01*
X101231Y718249D01*
Y716250D01*
X102231Y715250D01*
X108229Y720248D02*
Y719249D01*
X107229D01*
X109228D01*
X108229D01*
Y716250D01*
X109228Y715250D01*
X113227Y720248D02*
Y719249D01*
X112227D01*
X114227D01*
X113227D01*
Y716250D01*
X114227Y715250D01*
X118226D02*
X120225D01*
X121224Y716250D01*
Y718249D01*
X120225Y719249D01*
X118226D01*
X117226Y718249D01*
Y716250D01*
X118226Y715250D01*
X123224D02*
Y719249D01*
X124223D01*
X125223Y718249D01*
Y715250D01*
Y718249D01*
X126223Y719249D01*
X127223Y718249D01*
Y715250D01*
X135220Y721248D02*
Y715250D01*
X139219D01*
X142218Y719249D02*
X144217D01*
X145217Y718249D01*
Y715250D01*
X142218D01*
X141218Y716250D01*
X142218Y717249D01*
X145217D01*
X147216Y719249D02*
Y716250D01*
X148216Y715250D01*
X151215D01*
Y714250D01*
X150215Y713251D01*
X149215D01*
X151215Y715250D02*
Y719249D01*
X156213Y715250D02*
X154214D01*
X153214Y716250D01*
Y718249D01*
X154214Y719249D01*
X156213D01*
X157213Y718249D01*
Y717249D01*
X153214D01*
X159212Y719249D02*
Y715250D01*
Y717249D01*
X160212Y718249D01*
X161212Y719249D01*
X162211D01*
X23256Y706248D02*
X27255D01*
X25256D01*
Y700250D01*
X30254D02*
X32253D01*
X33253Y701250D01*
Y703249D01*
X32253Y704249D01*
X30254D01*
X29254Y703249D01*
Y701250D01*
X30254Y700250D01*
X35252Y698251D02*
Y704249D01*
X38251D01*
X39251Y703249D01*
Y701250D01*
X38251Y700250D01*
X35252D01*
X47248Y706248D02*
Y700250D01*
X51247D01*
X54246Y704249D02*
X56245D01*
X57245Y703249D01*
Y700250D01*
X54246D01*
X53246Y701250D01*
X54246Y702249D01*
X57245D01*
X59245Y704249D02*
Y701250D01*
X60244Y700250D01*
X63243D01*
Y699250D01*
X62244Y698251D01*
X61244D01*
X63243Y700250D02*
Y704249D01*
X68242Y700250D02*
X66242D01*
X65243Y701250D01*
Y703249D01*
X66242Y704249D01*
X68242D01*
X69241Y703249D01*
Y702249D01*
X65243D01*
X71241Y704249D02*
Y700250D01*
Y702249D01*
X72240Y703249D01*
X73240Y704249D01*
X74240D01*
X83237Y703249D02*
X87235D01*
X95233Y706248D02*
Y700250D01*
X98232D01*
X99232Y701250D01*
Y702249D01*
X98232Y703249D01*
X95233D01*
X98232D01*
X99232Y704249D01*
Y705248D01*
X98232Y706248D01*
X95233D01*
X102231Y700250D02*
X104230D01*
X105230Y701250D01*
Y703249D01*
X104230Y704249D01*
X102231D01*
X101231Y703249D01*
Y701250D01*
X102231Y700250D01*
X108229Y705248D02*
Y704249D01*
X107229D01*
X109228D01*
X108229D01*
Y701250D01*
X109228Y700250D01*
X113227Y705248D02*
Y704249D01*
X112227D01*
X114227D01*
X113227D01*
Y701250D01*
X114227Y700250D01*
X118226D02*
X120225D01*
X121224Y701250D01*
Y703249D01*
X120225Y704249D01*
X118226D01*
X117226Y703249D01*
Y701250D01*
X118226Y700250D01*
X123224D02*
Y704249D01*
X124223D01*
X125223Y703249D01*
Y700250D01*
Y703249D01*
X126223Y704249D01*
X127223Y703249D01*
Y700250D01*
X135220Y706248D02*
Y700250D01*
X139219D01*
X142218Y704249D02*
X144217D01*
X145217Y703249D01*
Y700250D01*
X142218D01*
X141218Y701250D01*
X142218Y702249D01*
X145217D01*
X147216Y704249D02*
Y701250D01*
X148216Y700250D01*
X151215D01*
Y699250D01*
X150215Y698251D01*
X149215D01*
X151215Y700250D02*
Y704249D01*
X156213Y700250D02*
X154214D01*
X153214Y701250D01*
Y703249D01*
X154214Y704249D01*
X156213D01*
X157213Y703249D01*
Y702249D01*
X153214D01*
X159212Y704249D02*
Y700250D01*
Y702249D01*
X160212Y703249D01*
X161212Y704249D01*
X162211D01*
X23256Y691248D02*
X27255D01*
X25256D01*
Y685250D01*
X30254D02*
X32253D01*
X33253Y686250D01*
Y688249D01*
X32253Y689249D01*
X30254D01*
X29254Y688249D01*
Y686250D01*
X30254Y685250D01*
X35252Y683251D02*
Y689249D01*
X38251D01*
X39251Y688249D01*
Y686250D01*
X38251Y685250D01*
X35252D01*
X47248Y691248D02*
Y685250D01*
X51247D01*
X54246Y689249D02*
X56245D01*
X57245Y688249D01*
Y685250D01*
X54246D01*
X53246Y686250D01*
X54246Y687249D01*
X57245D01*
X59245Y689249D02*
Y686250D01*
X60244Y685250D01*
X63243D01*
Y684250D01*
X62244Y683251D01*
X61244D01*
X63243Y685250D02*
Y689249D01*
X68242Y685250D02*
X66242D01*
X65243Y686250D01*
Y688249D01*
X66242Y689249D01*
X68242D01*
X69241Y688249D01*
Y687249D01*
X65243D01*
X71241Y689249D02*
Y685250D01*
Y687249D01*
X72240Y688249D01*
X73240Y689249D01*
X74240D01*
X83237Y688249D02*
X87235D01*
X95233Y691248D02*
Y685250D01*
X98232D01*
X99232Y686250D01*
Y687249D01*
X98232Y688249D01*
X95233D01*
X98232D01*
X99232Y689249D01*
Y690248D01*
X98232Y691248D01*
X95233D01*
X102231Y685250D02*
X104230D01*
X105230Y686250D01*
Y688249D01*
X104230Y689249D01*
X102231D01*
X101231Y688249D01*
Y686250D01*
X102231Y685250D01*
X108229Y690248D02*
Y689249D01*
X107229D01*
X109228D01*
X108229D01*
Y686250D01*
X109228Y685250D01*
X113227Y690248D02*
Y689249D01*
X112227D01*
X114227D01*
X113227D01*
Y686250D01*
X114227Y685250D01*
X118226D02*
X120225D01*
X121224Y686250D01*
Y688249D01*
X120225Y689249D01*
X118226D01*
X117226Y688249D01*
Y686250D01*
X118226Y685250D01*
X123224D02*
Y689249D01*
X124223D01*
X125223Y688249D01*
Y685250D01*
Y688249D01*
X126223Y689249D01*
X127223Y688249D01*
Y685250D01*
X135220Y691248D02*
Y685250D01*
X139219D01*
X142218Y689249D02*
X144217D01*
X145217Y688249D01*
Y685250D01*
X142218D01*
X141218Y686250D01*
X142218Y687249D01*
X145217D01*
X147216Y689249D02*
Y686250D01*
X148216Y685250D01*
X151215D01*
Y684250D01*
X150215Y683251D01*
X149215D01*
X151215Y685250D02*
Y689249D01*
X156213Y685250D02*
X154214D01*
X153214Y686250D01*
Y688249D01*
X154214Y689249D01*
X156213D01*
X157213Y688249D01*
Y687249D01*
X153214D01*
X159212Y689249D02*
Y685250D01*
Y687249D01*
X160212Y688249D01*
X161212Y689249D01*
X162211D01*
X23256Y676248D02*
X27255D01*
X25256D01*
Y670250D01*
X30254D02*
X32253D01*
X33253Y671250D01*
Y673249D01*
X32253Y674249D01*
X30254D01*
X29254Y673249D01*
Y671250D01*
X30254Y670250D01*
X35252Y668251D02*
Y674249D01*
X38251D01*
X39251Y673249D01*
Y671250D01*
X38251Y670250D01*
X35252D01*
X47248Y676248D02*
Y670250D01*
X51247D01*
X54246Y674249D02*
X56245D01*
X57245Y673249D01*
Y670250D01*
X54246D01*
X53246Y671250D01*
X54246Y672249D01*
X57245D01*
X59245Y674249D02*
Y671250D01*
X60244Y670250D01*
X63243D01*
Y669250D01*
X62244Y668251D01*
X61244D01*
X63243Y670250D02*
Y674249D01*
X68242Y670250D02*
X66242D01*
X65243Y671250D01*
Y673249D01*
X66242Y674249D01*
X68242D01*
X69241Y673249D01*
Y672249D01*
X65243D01*
X71241Y674249D02*
Y670250D01*
Y672249D01*
X72240Y673249D01*
X73240Y674249D01*
X74240D01*
X83237Y673249D02*
X87235D01*
X95233Y676248D02*
Y670250D01*
X98232D01*
X99232Y671250D01*
Y672249D01*
X98232Y673249D01*
X95233D01*
X98232D01*
X99232Y674249D01*
Y675248D01*
X98232Y676248D01*
X95233D01*
X102231Y670250D02*
X104230D01*
X105230Y671250D01*
Y673249D01*
X104230Y674249D01*
X102231D01*
X101231Y673249D01*
Y671250D01*
X102231Y670250D01*
X108229Y675248D02*
Y674249D01*
X107229D01*
X109228D01*
X108229D01*
Y671250D01*
X109228Y670250D01*
X113227Y675248D02*
Y674249D01*
X112227D01*
X114227D01*
X113227D01*
Y671250D01*
X114227Y670250D01*
X118226D02*
X120225D01*
X121224Y671250D01*
Y673249D01*
X120225Y674249D01*
X118226D01*
X117226Y673249D01*
Y671250D01*
X118226Y670250D01*
X123224D02*
Y674249D01*
X124223D01*
X125223Y673249D01*
Y670250D01*
Y673249D01*
X126223Y674249D01*
X127223Y673249D01*
Y670250D01*
X135220Y676248D02*
Y670250D01*
X139219D01*
X142218Y674249D02*
X144217D01*
X145217Y673249D01*
Y670250D01*
X142218D01*
X141218Y671250D01*
X142218Y672249D01*
X145217D01*
X147216Y674249D02*
Y671250D01*
X148216Y670250D01*
X151215D01*
Y669250D01*
X150215Y668251D01*
X149215D01*
X151215Y670250D02*
Y674249D01*
X156213Y670250D02*
X154214D01*
X153214Y671250D01*
Y673249D01*
X154214Y674249D01*
X156213D01*
X157213Y673249D01*
Y672249D01*
X153214D01*
X159212Y674249D02*
Y670250D01*
Y672249D01*
X160212Y673249D01*
X161212Y674249D01*
X162211D01*
X23256Y661248D02*
X27255D01*
X25256D01*
Y655250D01*
X30254D02*
X32253D01*
X33253Y656250D01*
Y658249D01*
X32253Y659249D01*
X30254D01*
X29254Y658249D01*
Y656250D01*
X30254Y655250D01*
X35252Y653251D02*
Y659249D01*
X38251D01*
X39251Y658249D01*
Y656250D01*
X38251Y655250D01*
X35252D01*
X47248Y661248D02*
Y655250D01*
X51247D01*
X54246Y659249D02*
X56245D01*
X57245Y658249D01*
Y655250D01*
X54246D01*
X53246Y656250D01*
X54246Y657249D01*
X57245D01*
X59245Y659249D02*
Y656250D01*
X60244Y655250D01*
X63243D01*
Y654250D01*
X62244Y653251D01*
X61244D01*
X63243Y655250D02*
Y659249D01*
X68242Y655250D02*
X66242D01*
X65243Y656250D01*
Y658249D01*
X66242Y659249D01*
X68242D01*
X69241Y658249D01*
Y657249D01*
X65243D01*
X71241Y659249D02*
Y655250D01*
Y657249D01*
X72240Y658249D01*
X73240Y659249D01*
X74240D01*
X83237Y658249D02*
X87235D01*
X95233Y661248D02*
Y655250D01*
X98232D01*
X99232Y656250D01*
Y657249D01*
X98232Y658249D01*
X95233D01*
X98232D01*
X99232Y659249D01*
Y660248D01*
X98232Y661248D01*
X95233D01*
X102231Y655250D02*
X104230D01*
X105230Y656250D01*
Y658249D01*
X104230Y659249D01*
X102231D01*
X101231Y658249D01*
Y656250D01*
X102231Y655250D01*
X108229Y660248D02*
Y659249D01*
X107229D01*
X109228D01*
X108229D01*
Y656250D01*
X109228Y655250D01*
X113227Y660248D02*
Y659249D01*
X112227D01*
X114227D01*
X113227D01*
Y656250D01*
X114227Y655250D01*
X118226D02*
X120225D01*
X121224Y656250D01*
Y658249D01*
X120225Y659249D01*
X118226D01*
X117226Y658249D01*
Y656250D01*
X118226Y655250D01*
X123224D02*
Y659249D01*
X124223D01*
X125223Y658249D01*
Y655250D01*
Y658249D01*
X126223Y659249D01*
X127223Y658249D01*
Y655250D01*
X135220Y661248D02*
Y655250D01*
X139219D01*
X142218Y659249D02*
X144217D01*
X145217Y658249D01*
Y655250D01*
X142218D01*
X141218Y656250D01*
X142218Y657249D01*
X145217D01*
X147216Y659249D02*
Y656250D01*
X148216Y655250D01*
X151215D01*
Y654250D01*
X150215Y653251D01*
X149215D01*
X151215Y655250D02*
Y659249D01*
X156213Y655250D02*
X154214D01*
X153214Y656250D01*
Y658249D01*
X154214Y659249D01*
X156213D01*
X157213Y658249D01*
Y657249D01*
X153214D01*
X159212Y659249D02*
Y655250D01*
Y657249D01*
X160212Y658249D01*
X161212Y659249D01*
X162211D01*
X-50124Y760250D02*
Y766248D01*
X-47125D01*
X-46125Y765248D01*
Y763249D01*
X-47125Y762249D01*
X-50124D01*
X-48125D02*
X-46125Y760250D01*
X-43126D02*
X-41127D01*
X-40127Y761250D01*
Y763249D01*
X-41127Y764249D01*
X-43126D01*
X-44126Y763249D01*
Y761250D01*
X-43126Y760250D01*
X-38128Y764249D02*
Y761250D01*
X-37128Y760250D01*
X-34129D01*
Y764249D01*
X-32130Y760250D02*
Y764249D01*
X-29131D01*
X-28131Y763249D01*
Y760250D01*
X-22133Y766248D02*
Y760250D01*
X-25132D01*
X-26132Y761250D01*
Y763249D01*
X-25132Y764249D01*
X-22133D01*
X-50124Y745250D02*
Y751248D01*
X-47125D01*
X-46125Y750248D01*
Y748249D01*
X-47125Y747249D01*
X-50124D01*
X-48125D02*
X-46125Y745250D01*
X-43126D02*
X-41127D01*
X-40127Y746250D01*
Y748249D01*
X-41127Y749249D01*
X-43126D01*
X-44126Y748249D01*
Y746250D01*
X-43126Y745250D01*
X-38128Y749249D02*
Y746250D01*
X-37128Y745250D01*
X-34129D01*
Y749249D01*
X-32130Y745250D02*
Y749249D01*
X-29131D01*
X-28131Y748249D01*
Y745250D01*
X-22133Y751248D02*
Y745250D01*
X-25132D01*
X-26132Y746250D01*
Y748249D01*
X-25132Y749249D01*
X-22133D01*
X-50124Y730250D02*
Y736248D01*
X-47125D01*
X-46125Y735248D01*
Y733249D01*
X-47125Y732249D01*
X-50124D01*
X-48125D02*
X-46125Y730250D01*
X-43126D02*
X-41127D01*
X-40127Y731250D01*
Y733249D01*
X-41127Y734249D01*
X-43126D01*
X-44126Y733249D01*
Y731250D01*
X-43126Y730250D01*
X-38128Y734249D02*
Y731250D01*
X-37128Y730250D01*
X-34129D01*
Y734249D01*
X-32130Y730250D02*
Y734249D01*
X-29131D01*
X-28131Y733249D01*
Y730250D01*
X-22133Y736248D02*
Y730250D01*
X-25132D01*
X-26132Y731250D01*
Y733249D01*
X-25132Y734249D01*
X-22133D01*
X-50124Y715250D02*
Y721248D01*
X-47125D01*
X-46125Y720248D01*
Y718249D01*
X-47125Y717249D01*
X-50124D01*
X-48125D02*
X-46125Y715250D01*
X-43126D02*
X-41127D01*
X-40127Y716250D01*
Y718249D01*
X-41127Y719249D01*
X-43126D01*
X-44126Y718249D01*
Y716250D01*
X-43126Y715250D01*
X-38128Y719249D02*
Y716250D01*
X-37128Y715250D01*
X-34129D01*
Y719249D01*
X-32130Y715250D02*
Y719249D01*
X-29131D01*
X-28131Y718249D01*
Y715250D01*
X-22133Y721248D02*
Y715250D01*
X-25132D01*
X-26132Y716250D01*
Y718249D01*
X-25132Y719249D01*
X-22133D01*
X-50124Y700250D02*
Y706248D01*
X-47125D01*
X-46125Y705248D01*
Y703249D01*
X-47125Y702249D01*
X-50124D01*
X-48125D02*
X-46125Y700250D01*
X-43126D02*
X-41127D01*
X-40127Y701250D01*
Y703249D01*
X-41127Y704249D01*
X-43126D01*
X-44126Y703249D01*
Y701250D01*
X-43126Y700250D01*
X-38128Y704249D02*
Y701250D01*
X-37128Y700250D01*
X-34129D01*
Y704249D01*
X-32130Y700250D02*
Y704249D01*
X-29131D01*
X-28131Y703249D01*
Y700250D01*
X-22133Y706248D02*
Y700250D01*
X-25132D01*
X-26132Y701250D01*
Y703249D01*
X-25132Y704249D01*
X-22133D01*
X-50124Y685250D02*
Y691248D01*
X-47125D01*
X-46125Y690248D01*
Y688249D01*
X-47125Y687249D01*
X-50124D01*
X-48125D02*
X-46125Y685250D01*
X-43126D02*
X-41127D01*
X-40127Y686250D01*
Y688249D01*
X-41127Y689249D01*
X-43126D01*
X-44126Y688249D01*
Y686250D01*
X-43126Y685250D01*
X-38128Y689249D02*
Y686250D01*
X-37128Y685250D01*
X-34129D01*
Y689249D01*
X-32130Y685250D02*
Y689249D01*
X-29131D01*
X-28131Y688249D01*
Y685250D01*
X-22133Y691248D02*
Y685250D01*
X-25132D01*
X-26132Y686250D01*
Y688249D01*
X-25132Y689249D01*
X-22133D01*
X-50124Y670250D02*
Y676248D01*
X-47125D01*
X-46125Y675248D01*
Y673249D01*
X-47125Y672249D01*
X-50124D01*
X-48125D02*
X-46125Y670250D01*
X-43126D02*
X-41127D01*
X-40127Y671250D01*
Y673249D01*
X-41127Y674249D01*
X-43126D01*
X-44126Y673249D01*
Y671250D01*
X-43126Y670250D01*
X-38128Y674249D02*
Y671250D01*
X-37128Y670250D01*
X-34129D01*
Y674249D01*
X-32130Y670250D02*
Y674249D01*
X-29131D01*
X-28131Y673249D01*
Y670250D01*
X-22133Y676248D02*
Y670250D01*
X-25132D01*
X-26132Y671250D01*
Y673249D01*
X-25132Y674249D01*
X-22133D01*
X-50124Y655250D02*
Y661248D01*
X-47125D01*
X-46125Y660248D01*
Y658249D01*
X-47125Y657249D01*
X-50124D01*
X-48125D02*
X-46125Y655250D01*
X-43126D02*
X-41127D01*
X-40127Y656250D01*
Y658249D01*
X-41127Y659249D01*
X-43126D01*
X-44126Y658249D01*
Y656250D01*
X-43126Y655250D01*
X-38128Y659249D02*
Y656250D01*
X-37128Y655250D01*
X-34129D01*
Y659249D01*
X-32130Y655250D02*
Y659249D01*
X-29131D01*
X-28131Y658249D01*
Y655250D01*
X-22133Y661248D02*
Y655250D01*
X-25132D01*
X-26132Y656250D01*
Y658249D01*
X-25132Y659249D01*
X-22133D01*
X-100712Y760250D02*
Y766248D01*
X-96713Y760250D01*
Y766248D01*
X-94713Y760250D02*
Y766248D01*
X-91715D01*
X-90715Y765248D01*
Y763249D01*
X-91715Y762249D01*
X-94713D01*
X-88715Y766248D02*
X-84717D01*
X-86716D01*
Y760250D01*
X-82717Y766248D02*
Y760250D01*
Y763249D01*
X-78719D01*
Y766248D01*
Y760250D01*
X-100712Y745250D02*
Y751248D01*
X-96713Y745250D01*
Y751248D01*
X-94713Y745250D02*
Y751248D01*
X-91715D01*
X-90715Y750248D01*
Y748249D01*
X-91715Y747249D01*
X-94713D01*
X-88715Y751248D02*
X-84717D01*
X-86716D01*
Y745250D01*
X-82717Y751248D02*
Y745250D01*
Y748249D01*
X-78719D01*
Y751248D01*
Y745250D01*
X-100712Y730250D02*
Y736248D01*
X-97713D01*
X-96713Y735248D01*
Y733249D01*
X-97713Y732249D01*
X-100712D01*
X-94713Y736248D02*
X-90715D01*
X-92714D01*
Y730250D01*
X-88715Y736248D02*
Y730250D01*
Y733249D01*
X-84717D01*
Y736248D01*
Y730250D01*
X-100712Y715250D02*
Y721248D01*
X-96713Y715250D01*
Y721248D01*
X-94713Y715250D02*
Y721248D01*
X-91715D01*
X-90715Y720248D01*
Y718249D01*
X-91715Y717249D01*
X-94713D01*
X-88715Y721248D02*
X-84717D01*
X-86716D01*
Y715250D01*
X-82717Y721248D02*
Y715250D01*
Y718249D01*
X-78719D01*
Y721248D01*
Y715250D01*
X-100712Y700250D02*
Y706248D01*
X-97713D01*
X-96713Y705248D01*
Y703249D01*
X-97713Y702249D01*
X-100712D01*
X-94713Y706248D02*
X-90715D01*
X-92714D01*
Y700250D01*
X-88715Y706248D02*
Y700250D01*
Y703249D01*
X-84717D01*
Y706248D01*
Y700250D01*
X-100712Y685250D02*
Y691248D01*
X-97713D01*
X-96713Y690248D01*
Y688249D01*
X-97713Y687249D01*
X-100712D01*
X-94713Y691248D02*
X-90715D01*
X-92714D01*
Y685250D01*
X-88715Y691248D02*
Y685250D01*
Y688249D01*
X-84717D01*
Y691248D01*
Y685250D01*
X-100712Y670250D02*
Y676248D01*
X-97713D01*
X-96713Y675248D01*
Y673249D01*
X-97713Y672249D01*
X-100712D01*
X-94713Y676248D02*
X-90715D01*
X-92714D01*
Y670250D01*
X-88715Y676248D02*
Y670250D01*
Y673249D01*
X-84717D01*
Y676248D01*
Y670250D01*
X-100712Y655250D02*
Y661248D01*
X-97713D01*
X-96713Y660248D01*
Y658249D01*
X-97713Y657249D01*
X-100712D01*
X-94713Y661248D02*
X-90715D01*
X-92714D01*
Y655250D01*
X-88715Y661248D02*
Y655250D01*
Y658249D01*
X-84717D01*
Y661248D01*
Y655250D01*
X-212679Y760250D02*
Y766248D01*
X-215678Y763249D01*
X-211679D01*
X-209680Y765248D02*
X-208680Y766248D01*
X-206681D01*
X-205681Y765248D01*
Y764249D01*
X-206681Y763249D01*
X-207681D01*
X-206681D01*
X-205681Y762249D01*
Y761250D01*
X-206681Y760250D01*
X-208680D01*
X-209680Y761250D01*
X-203682Y760250D02*
Y761250D01*
X-202682D01*
Y760250D01*
X-203682D01*
X-198684Y765248D02*
X-197684Y766248D01*
X-195684D01*
X-194685Y765248D01*
Y764249D01*
X-195684Y763249D01*
X-196684D01*
X-195684D01*
X-194685Y762249D01*
Y761250D01*
X-195684Y760250D01*
X-197684D01*
X-198684Y761250D01*
X-192685Y760250D02*
X-190686D01*
X-191686D01*
Y766248D01*
X-192685Y765248D01*
X-187687Y760250D02*
Y764249D01*
X-186687D01*
X-185688Y763249D01*
Y760250D01*
Y763249D01*
X-184688Y764249D01*
X-183688Y763249D01*
Y760250D01*
X-181689D02*
X-179690D01*
X-180689D01*
Y764249D01*
X-181689D01*
X-176691Y760250D02*
X-174691D01*
X-175691D01*
Y766248D01*
X-176691D01*
X-163695Y760250D02*
X-165694Y762249D01*
Y764249D01*
X-163695Y766248D01*
X-160696Y760250D02*
X-158696D01*
X-159696D01*
Y766248D01*
X-160696Y765248D01*
X-155697Y760250D02*
Y761250D01*
X-154698D01*
Y760250D01*
X-155697D01*
X-150699D02*
X-148700D01*
X-149699D01*
Y766248D01*
X-150699Y765248D01*
X-145701D02*
X-144701Y766248D01*
X-142702D01*
X-141702Y765248D01*
Y761250D01*
X-142702Y760250D01*
X-144701D01*
X-145701Y761250D01*
Y765248D01*
X-139703D02*
X-138703Y766248D01*
X-136704D01*
X-135704Y765248D01*
Y761250D01*
X-136704Y760250D01*
X-138703D01*
X-139703Y761250D01*
Y765248D01*
X-133704Y760250D02*
Y764249D01*
X-132705D01*
X-131705Y763249D01*
Y760250D01*
Y763249D01*
X-130705Y764249D01*
X-129706Y763249D01*
Y760250D01*
X-127706D02*
Y764249D01*
X-126707D01*
X-125707Y763249D01*
Y760250D01*
Y763249D01*
X-124707Y764249D01*
X-123708Y763249D01*
Y760250D01*
X-121708D02*
X-119709Y762249D01*
Y764249D01*
X-121708Y766248D01*
X-211679Y751248D02*
X-213679Y750248D01*
X-215678Y748249D01*
Y746250D01*
X-214678Y745250D01*
X-212679D01*
X-211679Y746250D01*
Y747249D01*
X-212679Y748249D01*
X-215678D01*
X-205681Y745250D02*
X-209680D01*
X-205681Y749249D01*
Y750248D01*
X-206681Y751248D01*
X-208680D01*
X-209680Y750248D01*
X-203682Y745250D02*
Y746250D01*
X-202682D01*
Y745250D01*
X-203682D01*
X-198684Y746250D02*
X-197684Y745250D01*
X-195684D01*
X-194685Y746250D01*
Y750248D01*
X-195684Y751248D01*
X-197684D01*
X-198684Y750248D01*
Y749249D01*
X-197684Y748249D01*
X-194685D01*
X-192685Y746250D02*
X-191686Y745250D01*
X-189686D01*
X-188687Y746250D01*
Y750248D01*
X-189686Y751248D01*
X-191686D01*
X-192685Y750248D01*
Y749249D01*
X-191686Y748249D01*
X-188687D01*
X-186687Y745250D02*
Y749249D01*
X-185688D01*
X-184688Y748249D01*
Y745250D01*
Y748249D01*
X-183688Y749249D01*
X-182689Y748249D01*
Y745250D01*
X-180689D02*
X-178690D01*
X-179690D01*
Y749249D01*
X-180689D01*
X-175691Y745250D02*
X-173692D01*
X-174691D01*
Y751248D01*
X-175691D01*
X-162695Y745250D02*
X-164694Y747249D01*
Y749249D01*
X-162695Y751248D01*
X-159696Y745250D02*
X-157697D01*
X-158696D01*
Y751248D01*
X-159696Y750248D01*
X-154698Y745250D02*
Y746250D01*
X-153698D01*
Y745250D01*
X-154698D01*
X-145701Y751248D02*
X-147700Y750248D01*
X-149699Y748249D01*
Y746250D01*
X-148700Y745250D01*
X-146700D01*
X-145701Y746250D01*
Y747249D01*
X-146700Y748249D01*
X-149699D01*
X-143701Y750248D02*
X-142702Y751248D01*
X-140702D01*
X-139702Y750248D01*
Y746250D01*
X-140702Y745250D01*
X-142702D01*
X-143701Y746250D01*
Y750248D01*
X-137703D02*
X-136704Y751248D01*
X-134704D01*
X-133704Y750248D01*
Y746250D01*
X-134704Y745250D01*
X-136704D01*
X-137703Y746250D01*
Y750248D01*
X-131705Y745250D02*
Y749249D01*
X-130705D01*
X-129706Y748249D01*
Y745250D01*
Y748249D01*
X-128706Y749249D01*
X-127706Y748249D01*
Y745250D01*
X-125707D02*
Y749249D01*
X-124707D01*
X-123708Y748249D01*
Y745250D01*
Y748249D01*
X-122708Y749249D01*
X-121708Y748249D01*
Y745250D01*
X-119709D02*
X-117710Y747249D01*
Y749249D01*
X-119709Y751248D01*
X-215678Y730250D02*
X-213679D01*
X-214678D01*
Y736248D01*
X-215678Y735248D01*
X-207681Y730250D02*
Y736248D01*
X-210680Y733249D01*
X-206681D01*
X-200683Y736248D02*
X-204681D01*
Y733249D01*
X-202682Y734249D01*
X-201682D01*
X-200683Y733249D01*
Y731250D01*
X-201682Y730250D01*
X-203682D01*
X-204681Y731250D01*
X-198684Y730250D02*
Y731250D01*
X-197684D01*
Y730250D01*
X-198684D01*
X-189686Y736248D02*
X-191686Y735248D01*
X-193685Y733249D01*
Y731250D01*
X-192685Y730250D01*
X-190686D01*
X-189686Y731250D01*
Y732249D01*
X-190686Y733249D01*
X-193685D01*
X-187687Y736248D02*
X-183688D01*
Y735248D01*
X-187687Y731250D01*
Y730250D01*
X-181689D02*
Y734249D01*
X-180689D01*
X-179690Y733249D01*
Y730250D01*
Y733249D01*
X-178690Y734249D01*
X-177690Y733249D01*
Y730250D01*
X-175691D02*
X-173692D01*
X-174691D01*
Y734249D01*
X-175691D01*
X-170693Y730250D02*
X-168693D01*
X-169693D01*
Y736248D01*
X-170693D01*
X-157697Y730250D02*
X-159696Y732249D01*
Y734249D01*
X-157697Y736248D01*
X-154698Y735248D02*
X-153698Y736248D01*
X-151699D01*
X-150699Y735248D01*
Y734249D01*
X-151699Y733249D01*
X-152698D01*
X-151699D01*
X-150699Y732249D01*
Y731250D01*
X-151699Y730250D01*
X-153698D01*
X-154698Y731250D01*
X-148700Y730250D02*
Y731250D01*
X-147700D01*
Y730250D01*
X-148700D01*
X-143701Y736248D02*
X-139702D01*
Y735248D01*
X-143701Y731250D01*
Y730250D01*
X-137703Y735248D02*
X-136704Y736248D01*
X-134704D01*
X-133704Y735248D01*
Y731250D01*
X-134704Y730250D01*
X-136704D01*
X-137703Y731250D01*
Y735248D01*
X-131705D02*
X-130705Y736248D01*
X-128706D01*
X-127706Y735248D01*
Y731250D01*
X-128706Y730250D01*
X-130705D01*
X-131705Y731250D01*
Y735248D01*
X-125707Y730250D02*
Y734249D01*
X-124707D01*
X-123708Y733249D01*
Y730250D01*
Y733249D01*
X-122708Y734249D01*
X-121708Y733249D01*
Y730250D01*
X-119709D02*
Y734249D01*
X-118709D01*
X-117710Y733249D01*
Y730250D01*
Y733249D01*
X-116710Y734249D01*
X-115710Y733249D01*
Y730250D01*
X-113711D02*
X-111712Y732249D01*
Y734249D01*
X-113711Y736248D01*
X-215678Y715250D02*
X-213679D01*
X-214678D01*
Y721248D01*
X-215678Y720248D01*
X-206681Y715250D02*
X-210680D01*
X-206681Y719249D01*
Y720248D01*
X-207681Y721248D01*
X-209680D01*
X-210680Y720248D01*
X-204681Y716250D02*
X-203682Y715250D01*
X-201682D01*
X-200683Y716250D01*
Y720248D01*
X-201682Y721248D01*
X-203682D01*
X-204681Y720248D01*
Y719249D01*
X-203682Y718249D01*
X-200683D01*
X-198684Y715250D02*
Y716250D01*
X-197684D01*
Y715250D01*
X-198684D01*
X-193685Y716250D02*
X-192685Y715250D01*
X-190686D01*
X-189686Y716250D01*
Y720248D01*
X-190686Y721248D01*
X-192685D01*
X-193685Y720248D01*
Y719249D01*
X-192685Y718249D01*
X-189686D01*
X-183688Y715250D02*
X-187687D01*
X-183688Y719249D01*
Y720248D01*
X-184688Y721248D01*
X-186687D01*
X-187687Y720248D01*
X-181689Y715250D02*
Y719249D01*
X-180689D01*
X-179690Y718249D01*
Y715250D01*
Y718249D01*
X-178690Y719249D01*
X-177690Y718249D01*
Y715250D01*
X-175691D02*
X-173692D01*
X-174691D01*
Y719249D01*
X-175691D01*
X-170693Y715250D02*
X-168693D01*
X-169693D01*
Y721248D01*
X-170693D01*
X-157697Y715250D02*
X-159696Y717249D01*
Y719249D01*
X-157697Y721248D01*
X-154698Y720248D02*
X-153698Y721248D01*
X-151699D01*
X-150699Y720248D01*
Y719249D01*
X-151699Y718249D01*
X-152698D01*
X-151699D01*
X-150699Y717249D01*
Y716250D01*
X-151699Y715250D01*
X-153698D01*
X-154698Y716250D01*
X-148700Y715250D02*
Y716250D01*
X-147700D01*
Y715250D01*
X-148700D01*
X-143701Y720248D02*
X-142702Y721248D01*
X-140702D01*
X-139702Y720248D01*
Y719249D01*
X-140702Y718249D01*
X-141702D01*
X-140702D01*
X-139702Y717249D01*
Y716250D01*
X-140702Y715250D01*
X-142702D01*
X-143701Y716250D01*
X-137703Y720248D02*
X-136704Y721248D01*
X-134704D01*
X-133704Y720248D01*
Y716250D01*
X-134704Y715250D01*
X-136704D01*
X-137703Y716250D01*
Y720248D01*
X-131705D02*
X-130705Y721248D01*
X-128706D01*
X-127706Y720248D01*
Y716250D01*
X-128706Y715250D01*
X-130705D01*
X-131705Y716250D01*
Y720248D01*
X-125707Y715250D02*
Y719249D01*
X-124707D01*
X-123708Y718249D01*
Y715250D01*
Y718249D01*
X-122708Y719249D01*
X-121708Y718249D01*
Y715250D01*
X-119709D02*
Y719249D01*
X-118709D01*
X-117710Y718249D01*
Y715250D01*
Y718249D01*
X-116710Y719249D01*
X-115710Y718249D01*
Y715250D01*
X-113711D02*
X-111712Y717249D01*
Y719249D01*
X-113711Y721248D01*
X-215678Y700250D02*
X-213679D01*
X-214678D01*
Y706248D01*
X-215678Y705248D01*
X-210680Y701250D02*
X-209680Y700250D01*
X-207681D01*
X-206681Y701250D01*
Y705248D01*
X-207681Y706248D01*
X-209680D01*
X-210680Y705248D01*
Y704249D01*
X-209680Y703249D01*
X-206681D01*
X-204681Y700250D02*
Y701250D01*
X-203682D01*
Y700250D01*
X-204681D01*
X-195684Y706248D02*
X-197684Y705248D01*
X-199683Y703249D01*
Y701250D01*
X-198684Y700250D01*
X-196684D01*
X-195684Y701250D01*
Y702249D01*
X-196684Y703249D01*
X-199683D01*
X-193685Y701250D02*
X-192685Y700250D01*
X-190686D01*
X-189686Y701250D01*
Y705248D01*
X-190686Y706248D01*
X-192685D01*
X-193685Y705248D01*
Y704249D01*
X-192685Y703249D01*
X-189686D01*
X-187687Y700250D02*
Y704249D01*
X-186687D01*
X-185688Y703249D01*
Y700250D01*
Y703249D01*
X-184688Y704249D01*
X-183688Y703249D01*
Y700250D01*
X-181689D02*
X-179690D01*
X-180689D01*
Y704249D01*
X-181689D01*
X-176691Y700250D02*
X-174691D01*
X-175691D01*
Y706248D01*
X-176691D01*
X-163695Y700250D02*
X-165694Y702249D01*
Y704249D01*
X-163695Y706248D01*
X-160696Y705248D02*
X-159696Y706248D01*
X-157697D01*
X-156697Y705248D01*
Y701250D01*
X-157697Y700250D01*
X-159696D01*
X-160696Y701250D01*
Y705248D01*
X-154698Y700250D02*
Y701250D01*
X-153698D01*
Y700250D01*
X-154698D01*
X-145701Y706248D02*
X-149699D01*
Y703249D01*
X-147700Y704249D01*
X-146700D01*
X-145701Y703249D01*
Y701250D01*
X-146700Y700250D01*
X-148700D01*
X-149699Y701250D01*
X-143701Y705248D02*
X-142702Y706248D01*
X-140702D01*
X-139702Y705248D01*
Y701250D01*
X-140702Y700250D01*
X-142702D01*
X-143701Y701250D01*
Y705248D01*
X-137703D02*
X-136704Y706248D01*
X-134704D01*
X-133704Y705248D01*
Y701250D01*
X-134704Y700250D01*
X-136704D01*
X-137703Y701250D01*
Y705248D01*
X-131705Y700250D02*
Y704249D01*
X-130705D01*
X-129706Y703249D01*
Y700250D01*
Y703249D01*
X-128706Y704249D01*
X-127706Y703249D01*
Y700250D01*
X-125707D02*
Y704249D01*
X-124707D01*
X-123708Y703249D01*
Y700250D01*
Y703249D01*
X-122708Y704249D01*
X-121708Y703249D01*
Y700250D01*
X-119709D02*
X-117710Y702249D01*
Y704249D01*
X-119709Y706248D01*
X-211679Y685250D02*
X-215678D01*
X-211679Y689249D01*
Y690248D01*
X-212679Y691248D01*
X-214678D01*
X-215678Y690248D01*
X-209680D02*
X-208680Y691248D01*
X-206681D01*
X-205681Y690248D01*
Y689249D01*
X-206681Y688249D01*
X-205681Y687249D01*
Y686250D01*
X-206681Y685250D01*
X-208680D01*
X-209680Y686250D01*
Y687249D01*
X-208680Y688249D01*
X-209680Y689249D01*
Y690248D01*
X-208680Y688249D02*
X-206681D01*
X-203682Y685250D02*
Y686250D01*
X-202682D01*
Y685250D01*
X-203682D01*
X-198684Y690248D02*
X-197684Y691248D01*
X-195684D01*
X-194685Y690248D01*
Y686250D01*
X-195684Y685250D01*
X-197684D01*
X-198684Y686250D01*
Y690248D01*
X-192685D02*
X-191686Y691248D01*
X-189686D01*
X-188687Y690248D01*
Y686250D01*
X-189686Y685250D01*
X-191686D01*
X-192685Y686250D01*
Y690248D01*
X-186687Y685250D02*
Y689249D01*
X-185688D01*
X-184688Y688249D01*
Y685250D01*
Y688249D01*
X-183688Y689249D01*
X-182689Y688249D01*
Y685250D01*
X-180689D02*
X-178690D01*
X-179690D01*
Y689249D01*
X-180689D01*
X-175691Y685250D02*
X-173692D01*
X-174691D01*
Y691248D01*
X-175691D01*
X-162695Y685250D02*
X-164694Y687249D01*
Y689249D01*
X-162695Y691248D01*
X-159696Y690248D02*
X-158696Y691248D01*
X-156697D01*
X-155697Y690248D01*
Y686250D01*
X-156697Y685250D01*
X-158696D01*
X-159696Y686250D01*
Y690248D01*
X-153698Y685250D02*
Y686250D01*
X-152698D01*
Y685250D01*
X-153698D01*
X-148700Y691248D02*
X-144701D01*
Y690248D01*
X-148700Y686250D01*
Y685250D01*
X-142702D02*
X-140702D01*
X-141702D01*
Y691248D01*
X-142702Y690248D01*
X-137703Y685250D02*
X-135704D01*
X-136704D01*
Y691248D01*
X-137703Y690248D01*
X-132705Y685250D02*
Y689249D01*
X-131705D01*
X-130705Y688249D01*
Y685250D01*
Y688249D01*
X-129706Y689249D01*
X-128706Y688249D01*
Y685250D01*
X-126707D02*
Y689249D01*
X-125707D01*
X-124707Y688249D01*
Y685250D01*
Y688249D01*
X-123708Y689249D01*
X-122708Y688249D01*
Y685250D01*
X-120709D02*
X-118709Y687249D01*
Y689249D01*
X-120709Y691248D01*
X-215678Y675248D02*
X-214678Y676248D01*
X-212679D01*
X-211679Y675248D01*
Y674249D01*
X-212679Y673249D01*
X-213679D01*
X-212679D01*
X-211679Y672249D01*
Y671250D01*
X-212679Y670250D01*
X-214678D01*
X-215678Y671250D01*
X-209680D02*
X-208680Y670250D01*
X-206681D01*
X-205681Y671250D01*
Y675248D01*
X-206681Y676248D01*
X-208680D01*
X-209680Y675248D01*
Y674249D01*
X-208680Y673249D01*
X-205681D01*
X-203682Y670250D02*
Y671250D01*
X-202682D01*
Y670250D01*
X-203682D01*
X-198684Y675248D02*
X-197684Y676248D01*
X-195684D01*
X-194685Y675248D01*
Y674249D01*
X-195684Y673249D01*
X-196684D01*
X-195684D01*
X-194685Y672249D01*
Y671250D01*
X-195684Y670250D01*
X-197684D01*
X-198684Y671250D01*
X-192685Y676248D02*
X-188687D01*
Y675248D01*
X-192685Y671250D01*
Y670250D01*
X-186687D02*
Y674249D01*
X-185688D01*
X-184688Y673249D01*
Y670250D01*
Y673249D01*
X-183688Y674249D01*
X-182689Y673249D01*
Y670250D01*
X-180689D02*
X-178690D01*
X-179690D01*
Y674249D01*
X-180689D01*
X-175691Y670250D02*
X-173692D01*
X-174691D01*
Y676248D01*
X-175691D01*
X-162695Y670250D02*
X-164694Y672249D01*
Y674249D01*
X-162695Y676248D01*
X-159696Y670250D02*
X-157697D01*
X-158696D01*
Y676248D01*
X-159696Y675248D01*
X-154698Y670250D02*
Y671250D01*
X-153698D01*
Y670250D01*
X-154698D01*
X-149699Y675248D02*
X-148700Y676248D01*
X-146700D01*
X-145701Y675248D01*
Y671250D01*
X-146700Y670250D01*
X-148700D01*
X-149699Y671250D01*
Y675248D01*
X-143701D02*
X-142702Y676248D01*
X-140702D01*
X-139702Y675248D01*
Y671250D01*
X-140702Y670250D01*
X-142702D01*
X-143701Y671250D01*
Y675248D01*
X-137703D02*
X-136704Y676248D01*
X-134704D01*
X-133704Y675248D01*
Y671250D01*
X-134704Y670250D01*
X-136704D01*
X-137703Y671250D01*
Y675248D01*
X-131705Y670250D02*
Y674249D01*
X-130705D01*
X-129706Y673249D01*
Y670250D01*
Y673249D01*
X-128706Y674249D01*
X-127706Y673249D01*
Y670250D01*
X-125707D02*
Y674249D01*
X-124707D01*
X-123708Y673249D01*
Y670250D01*
Y673249D01*
X-122708Y674249D01*
X-121708Y673249D01*
Y670250D01*
X-119709D02*
X-117710Y672249D01*
Y674249D01*
X-119709Y676248D01*
X-215678Y661248D02*
X-211679D01*
Y660248D01*
X-215678Y656250D01*
Y655250D01*
X-209680D02*
Y656250D01*
X-208680D01*
Y655250D01*
X-209680D01*
X-204681Y660248D02*
X-203682Y661248D01*
X-201682D01*
X-200683Y660248D01*
Y659249D01*
X-201682Y658249D01*
X-200683Y657249D01*
Y656250D01*
X-201682Y655250D01*
X-203682D01*
X-204681Y656250D01*
Y657249D01*
X-203682Y658249D01*
X-204681Y659249D01*
Y660248D01*
X-203682Y658249D02*
X-201682D01*
X-198684Y661248D02*
X-194685D01*
Y660248D01*
X-198684Y656250D01*
Y655250D01*
X-192685D02*
Y659249D01*
X-191686D01*
X-190686Y658249D01*
Y655250D01*
Y658249D01*
X-189686Y659249D01*
X-188687Y658249D01*
Y655250D01*
X-186687D02*
X-184688D01*
X-185688D01*
Y659249D01*
X-186687D01*
X-181689Y655250D02*
X-179690D01*
X-180689D01*
Y661248D01*
X-181689D01*
X-168693Y655250D02*
X-170693Y657249D01*
Y659249D01*
X-168693Y661248D01*
X-165694Y660248D02*
X-164694Y661248D01*
X-162695D01*
X-161695Y660248D01*
Y656250D01*
X-162695Y655250D01*
X-164694D01*
X-165694Y656250D01*
Y660248D01*
X-159696Y655250D02*
Y656250D01*
X-158696D01*
Y655250D01*
X-159696D01*
X-150699D02*
X-154698D01*
X-150699Y659249D01*
Y660248D01*
X-151699Y661248D01*
X-153698D01*
X-154698Y660248D01*
X-148700D02*
X-147700Y661248D01*
X-145701D01*
X-144701Y660248D01*
Y656250D01*
X-145701Y655250D01*
X-147700D01*
X-148700Y656250D01*
Y660248D01*
X-142702D02*
X-141702Y661248D01*
X-139702D01*
X-138703Y660248D01*
Y656250D01*
X-139702Y655250D01*
X-141702D01*
X-142702Y656250D01*
Y660248D01*
X-136704Y655250D02*
Y659249D01*
X-135704D01*
X-134704Y658249D01*
Y655250D01*
Y658249D01*
X-133704Y659249D01*
X-132705Y658249D01*
Y655250D01*
X-130705D02*
Y659249D01*
X-129706D01*
X-128706Y658249D01*
Y655250D01*
Y658249D01*
X-127706Y659249D01*
X-126707Y658249D01*
Y655250D01*
X-124707D02*
X-122708Y657249D01*
Y659249D01*
X-124707Y661248D01*
X-270664Y646248D02*
X-274662D01*
Y643249D01*
X-272663Y644249D01*
X-271663D01*
X-270664Y643249D01*
Y641250D01*
X-271663Y640250D01*
X-273663D01*
X-274662Y641250D01*
X-268664Y640250D02*
X-266665D01*
X-267665D01*
Y646248D01*
X-268664Y645248D01*
X-263666D02*
X-262666Y646248D01*
X-260667D01*
X-259667Y645248D01*
Y641250D01*
X-260667Y640250D01*
X-262666D01*
X-263666Y641250D01*
Y645248D01*
X-251670Y646248D02*
X-247671D01*
X-249671D01*
Y640250D01*
X-244672D02*
X-242673D01*
X-241673Y641250D01*
Y643249D01*
X-242673Y644249D01*
X-244672D01*
X-245672Y643249D01*
Y641250D01*
X-244672Y640250D01*
X-238674Y645248D02*
Y644249D01*
X-239674D01*
X-237674D01*
X-238674D01*
Y641250D01*
X-237674Y640250D01*
X-233676Y644249D02*
X-231676D01*
X-230677Y643249D01*
Y640250D01*
X-233676D01*
X-234675Y641250D01*
X-233676Y642249D01*
X-230677D01*
X-228677Y640250D02*
X-226678D01*
X-227678D01*
Y646248D01*
X-228677D01*
X-274662Y760250D02*
X-272663D01*
X-273663D01*
Y766248D01*
X-274662Y765248D01*
Y745250D02*
X-272663D01*
X-273663D01*
Y751248D01*
X-274662Y750248D01*
Y730250D02*
X-272663D01*
X-273663D01*
Y736248D01*
X-274662Y735248D01*
X-271663Y715250D02*
Y721248D01*
X-274662Y718249D01*
X-270664D01*
Y700250D02*
X-274662D01*
X-270664Y704249D01*
Y705248D01*
X-271663Y706248D01*
X-273663D01*
X-274662Y705248D01*
X-268664D02*
X-267665Y706248D01*
X-265665D01*
X-264666Y705248D01*
Y701250D01*
X-265665Y700250D01*
X-267665D01*
X-268664Y701250D01*
Y705248D01*
X-270664Y685250D02*
X-274662D01*
X-270664Y689249D01*
Y690248D01*
X-271663Y691248D01*
X-273663D01*
X-274662Y690248D01*
X-268664D02*
X-267665Y691248D01*
X-265665D01*
X-264666Y690248D01*
Y686250D01*
X-265665Y685250D01*
X-267665D01*
X-268664Y686250D01*
Y690248D01*
X-270664Y676248D02*
X-272663Y675248D01*
X-274662Y673249D01*
Y671250D01*
X-273663Y670250D01*
X-271663D01*
X-270664Y671250D01*
Y672249D01*
X-271663Y673249D01*
X-274662D01*
X-268664Y676248D02*
X-264666D01*
Y675248D01*
X-268664Y671250D01*
Y670250D01*
X-274662Y660248D02*
X-273663Y661248D01*
X-271663D01*
X-270664Y660248D01*
Y659249D01*
X-271663Y658249D01*
X-272663D01*
X-271663D01*
X-270664Y657249D01*
Y656250D01*
X-271663Y655250D01*
X-273663D01*
X-274662Y656250D01*
X-268664D02*
X-267665Y655250D01*
X-265665D01*
X-264666Y656250D01*
Y660248D01*
X-265665Y661248D01*
X-267665D01*
X-268664Y660248D01*
Y659249D01*
X-267665Y658249D01*
X-264666D01*
X-258668Y661248D02*
X-260667Y660248D01*
X-262666Y658249D01*
Y656250D01*
X-261667Y655250D01*
X-259667D01*
X-258668Y656250D01*
Y657249D01*
X-259667Y658249D01*
X-262666D01*
D181*
X247096Y167000D02*
G03*
X247096Y167000I-600J0D01*
G01*
X247496D02*
G03*
X247496Y167000I-1000J0D01*
G01*
X47570Y198054D02*
G03*
X47570Y198054I-600J0D01*
G01*
X47970D02*
G03*
X47970Y198054I-1000J0D01*
G01*
X216341Y289370D02*
G03*
X216341Y289370I-600J0D01*
G01*
X216741D02*
G03*
X216741Y289370I-1000J0D01*
G01*
X212404D02*
G03*
X212404Y289370I-600J0D01*
G01*
X212804D02*
G03*
X212804Y289370I-1000J0D01*
G01*
X84099Y253937D02*
G03*
X84099Y253937I-600J0D01*
G01*
X84499D02*
G03*
X84499Y253937I-1000J0D01*
G01*
X90404D02*
G03*
X90404Y253937I-600J0D01*
G01*
X90804D02*
G03*
X90804Y253937I-1000J0D01*
G01*
X101647Y87083D02*
G03*
X101647Y87083I-600J0D01*
G01*
X102047D02*
G03*
X102047Y87083I-1000J0D01*
G01*
X101647Y80709D02*
G03*
X101647Y80709I-600J0D01*
G01*
X102047D02*
G03*
X102047Y80709I-1000J0D01*
G01*
X221072Y217520D02*
G03*
X221072Y217520I-600J0D01*
G01*
X221472D02*
G03*
X221472Y217520I-1000J0D01*
G01*
X241569Y201396D02*
G03*
X241569Y201396I-600J0D01*
G01*
X241969D02*
G03*
X241969Y201396I-1000J0D01*
G01*
X285836Y277362D02*
G03*
X285836Y277362I-600J0D01*
G01*
X286236D02*
G03*
X286236Y277362I-1000J0D01*
G01*
X29552Y54968D02*
G03*
X29552Y54968I-600J0D01*
G01*
X29952D02*
G03*
X29952Y54968I-1000J0D01*
G01*
X277962Y277143D02*
G03*
X277962Y277143I-600J0D01*
G01*
X278362D02*
G03*
X278362Y277143I-1000J0D01*
G01*
X277962Y248235D02*
G03*
X277962Y248235I-600J0D01*
G01*
X278362D02*
G03*
X278362Y248235I-1000J0D01*
G01*
X285836D02*
G03*
X285836Y248235I-600J0D01*
G01*
X286236D02*
G03*
X286236Y248235I-1000J0D01*
G01*
X46862Y173182D02*
G03*
X46862Y173182I-600J0D01*
G01*
X47262D02*
G03*
X47262Y173182I-1000J0D01*
G01*
X54771Y173223D02*
G03*
X54771Y173223I-600J0D01*
G01*
X55171D02*
G03*
X55171Y173223I-1000J0D01*
G01*
X70263Y235694D02*
G03*
X70263Y235694I-600J0D01*
G01*
X70663D02*
G03*
X70663Y235694I-1000J0D01*
G01*
X67529Y107283D02*
G03*
X67529Y107283I-600J0D01*
G01*
X67929D02*
G03*
X67929Y107283I-1000J0D01*
G01*
X62608Y94842D02*
G03*
X62608Y94842I-600J0D01*
G01*
X63008D02*
G03*
X63008Y94842I-1000J0D01*
G01*
X201756Y345295D02*
X202756Y344295D01*
X203756Y345295D01*
X202756Y346295D02*
X203756Y345295D01*
X201756D02*
X202756Y346295D01*
X197819Y345295D02*
X198819Y344295D01*
X199819Y345295D01*
X198819Y346295D02*
X199819Y345295D01*
X197819D02*
X198819Y346295D01*
X193882Y345295D02*
X194882Y344295D01*
X195882Y345295D01*
X194882Y346295D02*
X195882Y345295D01*
X193882D02*
X194882Y346295D01*
X189945Y345295D02*
X190945Y344295D01*
X191945Y345295D01*
X190945Y346295D02*
X191945Y345295D01*
X189945D02*
X190945Y346295D01*
X186008Y345295D02*
X187008Y344295D01*
X188008Y345295D01*
X187008Y346295D02*
X188008Y345295D01*
X186008D02*
X187008Y346295D01*
X182071Y345295D02*
X183071Y344295D01*
X184071Y345295D01*
X183071Y346295D02*
X184071Y345295D01*
X182071D02*
X183071Y346295D01*
X171483Y345331D02*
X172483Y344331D01*
X173483Y345331D01*
X172483Y346331D02*
X173483Y345331D01*
X171483D02*
X172483Y346331D01*
X168291Y345295D02*
X169291Y344295D01*
X170291Y345295D01*
X169291Y346295D02*
X170291Y345295D01*
X168291D02*
X169291Y346295D01*
X164354Y345295D02*
X165354Y344295D01*
X166354Y345295D01*
X165354Y346295D02*
X166354Y345295D01*
X164354D02*
X165354Y346295D01*
X160417Y345295D02*
X161417Y344295D01*
X162417Y345295D01*
X161417Y346295D02*
X162417Y345295D01*
X160417D02*
X161417Y346295D01*
X157299Y321391D02*
X158299Y320391D01*
X159299Y321391D01*
X158299Y322391D02*
X159299Y321391D01*
X157299D02*
X158299Y322391D01*
X156480Y345295D02*
X157480Y344295D01*
X158480Y345295D01*
X157480Y346295D02*
X158480Y345295D01*
X156480D02*
X157480Y346295D01*
X152543Y345295D02*
X153543Y344295D01*
X154543Y345295D01*
X153543Y346295D02*
X154543Y345295D01*
X152543D02*
X153543Y346295D01*
X148606Y345295D02*
X149606Y344295D01*
X150606Y345295D01*
X149606Y346295D02*
X150606Y345295D01*
X148606D02*
X149606Y346295D01*
X144669Y345295D02*
X145669Y344295D01*
X146669Y345295D01*
X145669Y346295D02*
X146669Y345295D01*
X144669D02*
X145669Y346295D01*
X140732Y345295D02*
X141732Y344295D01*
X142732Y345295D01*
X141732Y346295D02*
X142732Y345295D01*
X140732D02*
X141732Y346295D01*
X136795Y345295D02*
X137795Y344295D01*
X138795Y345295D01*
X137795Y346295D02*
X138795Y345295D01*
X136795D02*
X137795Y346295D01*
X136462Y341731D02*
X137462Y340731D01*
X138462Y341731D01*
X137462Y342731D02*
X138462Y341731D01*
X136462D02*
X137462Y342731D01*
X134827Y338583D02*
X135827Y337583D01*
X136827Y338583D01*
X135827Y339583D02*
X136827Y338583D01*
X134827D02*
X135827Y339583D01*
X130890Y336614D02*
X131890Y335614D01*
X132890Y336614D01*
X131890Y337614D02*
X132890Y336614D01*
X130890D02*
X131890Y337614D01*
X126953Y336614D02*
X127953Y335614D01*
X128953Y336614D01*
X127953Y337614D02*
X128953Y336614D01*
X126953D02*
X127953Y337614D01*
X124984Y345295D02*
X125984Y344295D01*
X126984Y345295D01*
X125984Y346295D02*
X126984Y345295D01*
X124984D02*
X125984Y346295D01*
X123016Y336614D02*
X124016Y335614D01*
X125016Y336614D01*
X124016Y337614D02*
X125016Y336614D01*
X123016D02*
X124016Y337614D01*
X121047Y345295D02*
X122047Y344295D01*
X123047Y345295D01*
X122047Y346295D02*
X123047Y345295D01*
X121047D02*
X122047Y346295D01*
X119079Y336614D02*
X120079Y335614D01*
X121079Y336614D01*
X120079Y337614D02*
X121079Y336614D01*
X119079D02*
X120079Y337614D01*
X117110Y345295D02*
X118110Y344295D01*
X119110Y345295D01*
X118110Y346295D02*
X119110Y345295D01*
X117110D02*
X118110Y346295D01*
X115142Y336614D02*
X116142Y335614D01*
X117142Y336614D01*
X116142Y337614D02*
X117142Y336614D01*
X115142D02*
X116142Y337614D01*
X113173Y345295D02*
X114173Y344295D01*
X115173Y345295D01*
X114173Y346295D02*
X115173Y345295D01*
X113173D02*
X114173Y346295D01*
X114117Y333133D02*
X115117Y332133D01*
X116117Y333133D01*
X115117Y334133D02*
X116117Y333133D01*
X114117D02*
X115117Y334133D01*
X111205Y330709D02*
X112205Y329709D01*
X113205Y330709D01*
X112205Y331709D02*
X113205Y330709D01*
X111205D02*
X112205Y331709D01*
X109236Y345295D02*
X110236Y344295D01*
X111236Y345295D01*
X110236Y346295D02*
X111236Y345295D01*
X109236D02*
X110236Y346295D01*
X109236Y342795D02*
X110236Y341795D01*
X111236Y342795D01*
X110236Y343795D02*
X111236Y342795D01*
X109236D02*
X110236Y343795D01*
X107952Y330194D02*
X108952Y329194D01*
X109952Y330194D01*
X108952Y331194D02*
X109952Y330194D01*
X107952D02*
X108952Y331194D01*
X107885Y339697D02*
X108885Y338697D01*
X109885Y339697D01*
X108885Y340697D02*
X109885Y339697D01*
X107885D02*
X108885Y340697D01*
X105299Y345295D02*
X106299Y344295D01*
X107299Y345295D01*
X106299Y346295D02*
X107299Y345295D01*
X105299D02*
X106299Y346295D01*
X105299Y337795D02*
X106299Y336795D01*
X107299Y337795D01*
X106299Y338795D02*
X107299Y337795D01*
X105299D02*
X106299Y338795D01*
X104548Y330017D02*
X105548Y329017D01*
X106548Y330017D01*
X105548Y331017D02*
X106548Y330017D01*
X104548D02*
X105548Y331017D01*
X101362Y345295D02*
X102362Y344295D01*
X103362Y345295D01*
X102362Y346295D02*
X103362Y345295D01*
X101362D02*
X102362Y346295D01*
X101362Y327165D02*
X102362Y326165D01*
X103362Y327165D01*
X102362Y328165D02*
X103362Y327165D01*
X101362D02*
X102362Y328165D01*
X101362Y337795D02*
X102362Y336795D01*
X103362Y337795D01*
X102362Y338795D02*
X103362Y337795D01*
X101362D02*
X102362Y338795D01*
X101362Y340551D02*
X102362Y339551D01*
X103362Y340551D01*
X102362Y341551D02*
X103362Y340551D01*
X101362D02*
X102362Y341551D01*
X101299Y330105D02*
X102299Y329105D01*
X103299Y330105D01*
X102299Y331105D02*
X103299Y330105D01*
X101299D02*
X102299Y331105D01*
X99394Y324409D02*
X100394Y323409D01*
X101394Y324409D01*
X100394Y325409D02*
X101394Y324409D01*
X99394D02*
X100394Y325409D01*
X97425Y345295D02*
X98425Y344295D01*
X99425Y345295D01*
X98425Y346295D02*
X99425Y345295D01*
X97425D02*
X98425Y346295D01*
X95457Y324409D02*
X96457Y323409D01*
X97457Y324409D01*
X96457Y325409D02*
X97457Y324409D01*
X95457D02*
X96457Y325409D01*
X93488Y345295D02*
X94488Y344295D01*
X95488Y345295D01*
X94488Y346295D02*
X95488Y345295D01*
X93488D02*
X94488Y346295D01*
X89551Y345295D02*
X90551Y344295D01*
X91551Y345295D01*
X90551Y346295D02*
X91551Y345295D01*
X89551D02*
X90551Y346295D01*
X90732Y324409D02*
X91732Y323409D01*
X92732Y324409D01*
X91732Y325409D02*
X92732Y324409D01*
X90732D02*
X91732Y325409D01*
X89157Y327953D02*
X90158Y326953D01*
X91158Y327953D01*
X90158Y328953D02*
X91158Y327953D01*
X89157D02*
X90158Y328953D01*
X89157Y331890D02*
X90158Y330890D01*
X91158Y331890D01*
X90158Y332890D02*
X91158Y331890D01*
X89157D02*
X90158Y332890D01*
X89157Y335433D02*
X90158Y334433D01*
X91158Y335433D01*
X90158Y336433D02*
X91158Y335433D01*
X89157D02*
X90158Y336433D01*
X89157Y339370D02*
X90158Y338370D01*
X91158Y339370D01*
X90158Y340370D02*
X91158Y339370D01*
X89157D02*
X90158Y340370D01*
X85614Y345295D02*
X86614Y344295D01*
X87614Y345295D01*
X86614Y346295D02*
X87614Y345295D01*
X85614D02*
X86614Y346295D01*
X73803Y345295D02*
X74803Y344295D01*
X75803Y345295D01*
X74803Y346295D02*
X75803Y345295D01*
X73803D02*
X74803Y346295D01*
X69866Y345295D02*
X70866Y344295D01*
X71866Y345295D01*
X70866Y346295D02*
X71866Y345295D01*
X69866D02*
X70866Y346295D01*
X65929Y345295D02*
X66929Y344295D01*
X67929Y345295D01*
X66929Y346295D02*
X67929Y345295D01*
X65929D02*
X66929Y346295D01*
X61992Y345295D02*
X62992Y344295D01*
X63992Y345295D01*
X62992Y346295D02*
X63992Y345295D01*
X61992D02*
X62992Y346295D01*
X58055Y345295D02*
X59055Y344295D01*
X60055Y345295D01*
X59055Y346295D02*
X60055Y345295D01*
X58055D02*
X59055Y346295D01*
X54118Y345295D02*
X55118Y344295D01*
X56118Y345295D01*
X55118Y346295D02*
X56118Y345295D01*
X54118D02*
X55118Y346295D01*
X53337Y315542D02*
X54537D01*
Y316742D01*
X53337D02*
X54537D01*
X53337Y315542D02*
Y316742D01*
X52937Y315142D02*
X54937D01*
Y317142D01*
X52937D02*
X54937D01*
X52937Y315142D02*
Y317142D01*
X50181Y345295D02*
X51181Y344295D01*
X52181Y345295D01*
X51181Y346295D02*
X52181Y345295D01*
X50181D02*
X51181Y346295D01*
X46244Y290158D02*
X47244Y289158D01*
X48244Y290158D01*
X47244Y291158D02*
X48244Y290158D01*
X46244D02*
X47244Y291158D01*
X46244Y293701D02*
X47244Y292701D01*
X48244Y293701D01*
X47244Y294701D02*
X48244Y293701D01*
X46244D02*
X47244Y294701D01*
X46244Y296850D02*
X47244Y295850D01*
X48244Y296850D01*
X47244Y297850D02*
X48244Y296850D01*
X46244D02*
X47244Y297850D01*
X46244Y345295D02*
X47244Y344295D01*
X48244Y345295D01*
X47244Y346295D02*
X48244Y345295D01*
X46244D02*
X47244Y346295D01*
X46230Y286656D02*
X47230Y285656D01*
X48230Y286656D01*
X47230Y287656D02*
X48230Y286656D01*
X46230D02*
X47230Y287656D01*
X43095Y286221D02*
X44094Y285221D01*
X45094Y286221D01*
X44094Y287221D02*
X45094Y286221D01*
X43095D02*
X44094Y287221D01*
X42701Y298425D02*
X43701Y297425D01*
X44701Y298425D01*
X43701Y299425D02*
X44701Y298425D01*
X42701D02*
X43701Y299425D01*
X42307Y345295D02*
X43307Y344295D01*
X44307Y345295D01*
X43307Y346295D02*
X44307Y345295D01*
X42307D02*
X43307Y346295D01*
X41785Y253061D02*
X42785Y252061D01*
X43785Y253061D01*
X42785Y254061D02*
X43785Y253061D01*
X41785D02*
X42785Y254061D01*
X41719Y257857D02*
X42718Y256857D01*
X43718Y257857D01*
X42718Y258857D02*
X43718Y257857D01*
X41719D02*
X42718Y258857D01*
X41652Y262742D02*
X42652Y261742D01*
X43652Y262742D01*
X42652Y263742D02*
X43652Y262742D01*
X41652D02*
X42652Y263742D01*
X41608Y266764D02*
X42608Y265764D01*
X43608Y266764D01*
X42608Y267764D02*
X43608Y266764D01*
X41608D02*
X42608Y267764D01*
X41608Y270985D02*
X42608Y269985D01*
X43608Y270985D01*
X42608Y271985D02*
X43608Y270985D01*
X41608D02*
X42608Y271985D01*
X41298Y248397D02*
X42298Y247397D01*
X43298Y248397D01*
X42298Y249397D02*
X43298Y248397D01*
X41298D02*
X42298Y249397D01*
X40460Y286170D02*
X41460Y285170D01*
X42460Y286170D01*
X41460Y287170D02*
X42460Y286170D01*
X40460D02*
X41460Y287170D01*
X39806Y282302D02*
X40806Y281302D01*
X41806Y282302D01*
X40806Y283302D02*
X41806Y282302D01*
X39806D02*
X40806Y283302D01*
X39551Y298425D02*
X40551Y297425D01*
X41551Y298425D01*
X40551Y299425D02*
X41551Y298425D01*
X39551D02*
X40551Y299425D01*
X38370Y245295D02*
X39370Y244295D01*
X40370Y245295D01*
X39370Y246295D02*
X40370Y245295D01*
X38370D02*
X39370Y246295D01*
X38370Y345295D02*
X39370Y344295D01*
X40370Y345295D01*
X39370Y346295D02*
X40370Y345295D01*
X38370D02*
X39370Y346295D01*
X36008Y298425D02*
X37008Y297425D01*
X38008Y298425D01*
X37008Y299425D02*
X38008Y298425D01*
X36008D02*
X37008Y299425D01*
X34433Y245295D02*
X35433Y244295D01*
X36433Y245295D01*
X35433Y246295D02*
X36433Y245295D01*
X34433D02*
X35433Y246295D01*
X34433Y252795D02*
X35433Y251795D01*
X36433Y252795D01*
X35433Y253795D02*
X36433Y252795D01*
X34433D02*
X35433Y253795D01*
X34433Y257795D02*
X35433Y256795D01*
X36433Y257795D01*
X35433Y258795D02*
X36433Y257795D01*
X34433D02*
X35433Y258795D01*
X34433Y262795D02*
X35433Y261795D01*
X36433Y262795D01*
X35433Y263795D02*
X36433Y262795D01*
X34433D02*
X35433Y263795D01*
X34433Y267795D02*
X35433Y266795D01*
X36433Y267795D01*
X35433Y268795D02*
X36433Y267795D01*
X34433D02*
X35433Y268795D01*
X34433Y345295D02*
X35433Y344295D01*
X36433Y345295D01*
X35433Y346295D02*
X36433Y345295D01*
X34433D02*
X35433Y346295D01*
X33874Y272688D02*
X34874Y271688D01*
X35874Y272688D01*
X34874Y273688D02*
X35874Y272688D01*
X33874D02*
X34874Y273688D01*
X32548Y277152D02*
X33548Y276152D01*
X34548Y277152D01*
X33548Y278152D02*
X34548Y277152D01*
X32548D02*
X33548Y278152D01*
X32465Y298425D02*
X33465Y297425D01*
X34465Y298425D01*
X33465Y299425D02*
X34465Y298425D01*
X32465D02*
X33465Y299425D01*
X32282Y281616D02*
X33282Y280616D01*
X34282Y281616D01*
X33282Y282616D02*
X34282Y281616D01*
X32282D02*
X33282Y282616D01*
X32282Y286170D02*
X33282Y285170D01*
X34282Y286170D01*
X33282Y287170D02*
X34282Y286170D01*
X32282D02*
X33282Y287170D01*
X30496Y245295D02*
X31496Y244295D01*
X32496Y245295D01*
X31496Y246295D02*
X32496Y245295D01*
X30496D02*
X31496Y246295D01*
X30496Y252795D02*
X31496Y251795D01*
X32496Y252795D01*
X31496Y253795D02*
X32496Y252795D01*
X30496D02*
X31496Y253795D01*
X30496Y345295D02*
X31496Y344295D01*
X32496Y345295D01*
X31496Y346295D02*
X32496Y345295D01*
X30496D02*
X31496Y346295D01*
X29315Y286221D02*
X30315Y285221D01*
X31315Y286221D01*
X30315Y287221D02*
X31315Y286221D01*
X29315D02*
X30315Y287221D01*
X28921Y298425D02*
X29921Y297425D01*
X30921Y298425D01*
X29921Y299425D02*
X30921Y298425D01*
X28921D02*
X29921Y299425D01*
X26559Y245295D02*
X27559Y244295D01*
X28559Y245295D01*
X27559Y246295D02*
X28559Y245295D01*
X26559D02*
X27559Y246295D01*
X26559Y252795D02*
X27559Y251795D01*
X28559Y252795D01*
X27559Y253795D02*
X28559Y252795D01*
X26559D02*
X27559Y253795D01*
X26559Y345295D02*
X27559Y344295D01*
X28559Y345295D01*
X27559Y346295D02*
X28559Y345295D01*
X26559D02*
X27559Y346295D01*
X25861Y256243D02*
X26861Y255243D01*
X27861Y256243D01*
X26861Y257243D02*
X27861Y256243D01*
X25861D02*
X26861Y257243D01*
X25852Y260207D02*
X26852Y259207D01*
X27852Y260207D01*
X26852Y261207D02*
X27852Y260207D01*
X25852D02*
X26852Y261207D01*
X25852Y265207D02*
X26852Y264207D01*
X27852Y265207D01*
X26852Y266207D02*
X27852Y265207D01*
X25852D02*
X26852Y266207D01*
X25852Y270207D02*
X26852Y269207D01*
X27852Y270207D01*
X26852Y271207D02*
X27852Y270207D01*
X25852D02*
X26852Y271207D01*
X25852Y275207D02*
X26852Y274207D01*
X27852Y275207D01*
X26852Y276207D02*
X27852Y275207D01*
X25852D02*
X26852Y276207D01*
X25852Y280207D02*
X26852Y279207D01*
X27852Y280207D01*
X26852Y281207D02*
X27852Y280207D01*
X25852D02*
X26852Y281207D01*
X25852Y285207D02*
X26852Y284207D01*
X27852Y285207D01*
X26852Y286207D02*
X27852Y285207D01*
X25852D02*
X26852Y286207D01*
X25852Y290207D02*
X26852Y289207D01*
X27852Y290207D01*
X26852Y291207D02*
X27852Y290207D01*
X25852D02*
X26852Y291207D01*
X25852Y295207D02*
X26852Y294207D01*
X27852Y295207D01*
X26852Y296207D02*
X27852Y295207D01*
X25852D02*
X26852Y296207D01*
X25852Y300207D02*
X26852Y299207D01*
X27852Y300207D01*
X26852Y301207D02*
X27852Y300207D01*
X25852D02*
X26852Y301207D01*
X22622Y245295D02*
X23622Y244295D01*
X24622Y245295D01*
X23622Y246295D02*
X24622Y245295D01*
X22622D02*
X23622Y246295D01*
X22622Y252795D02*
X23622Y251795D01*
X24622Y252795D01*
X23622Y253795D02*
X24622Y252795D01*
X22622D02*
X23622Y253795D01*
X22622Y300295D02*
X23622Y299295D01*
X24622Y300295D01*
X23622Y301295D02*
X24622Y300295D01*
X22622D02*
X23622Y301295D01*
X22622Y345295D02*
X23622Y344295D01*
X24622Y345295D01*
X23622Y346295D02*
X24622Y345295D01*
X22622D02*
X23622Y346295D01*
X18685Y245295D02*
X19685Y244295D01*
X20685Y245295D01*
X19685Y246295D02*
X20685Y245295D01*
X18685D02*
X19685Y246295D01*
X18685Y300295D02*
X19685Y299295D01*
X20685Y300295D01*
X19685Y301295D02*
X20685Y300295D01*
X18685D02*
X19685Y301295D01*
X18685Y345295D02*
X19685Y344295D01*
X20685Y345295D01*
X19685Y346295D02*
X20685Y345295D01*
X18685D02*
X19685Y346295D01*
X15542Y230896D02*
X16742D01*
Y232096D01*
X15542D02*
X16742D01*
X15542Y230896D02*
Y232096D01*
X15142Y230496D02*
X17142D01*
Y232496D01*
X15142D02*
X17142D01*
X15142Y230496D02*
Y232496D01*
X14976Y245126D02*
X15976Y244126D01*
X16976Y245126D01*
X15976Y246126D02*
X16976Y245126D01*
X14976D02*
X15976Y246126D01*
X14748Y252795D02*
X15748Y251795D01*
X16748Y252795D01*
X15748Y253795D02*
X16748Y252795D01*
X14748D02*
X15748Y253795D01*
X14748Y300295D02*
X15748Y299295D01*
X16748Y300295D01*
X15748Y301295D02*
X16748Y300295D01*
X14748D02*
X15748Y301295D01*
X14748Y345295D02*
X15748Y344295D01*
X16748Y345295D01*
X15748Y346295D02*
X16748Y345295D01*
X14748D02*
X15748Y346295D01*
X11308Y245281D02*
X12308Y244281D01*
X13307Y245281D01*
X12308Y246281D02*
X13307Y245281D01*
X11308D02*
X12308Y246281D01*
X10811Y300295D02*
X11811Y299295D01*
X12811Y300295D01*
X11811Y301295D02*
X12811Y300295D01*
X10811D02*
X11811Y301295D01*
X10811Y345295D02*
X11811Y344295D01*
X12811Y345295D01*
X11811Y346295D02*
X12811Y345295D01*
X10811D02*
X11811Y346295D01*
X8213Y246740D02*
X9213Y245740D01*
X10213Y246740D01*
X9213Y247740D02*
X10213Y246740D01*
X8213D02*
X9213Y247740D01*
X6874Y252795D02*
X7874Y251795D01*
X8874Y252795D01*
X7874Y253795D02*
X8874Y252795D01*
X6874D02*
X7874Y253795D01*
X6874Y300295D02*
X7874Y299295D01*
X8874Y300295D01*
X7874Y301295D02*
X8874Y300295D01*
X6874D02*
X7874Y301295D01*
X6777Y249458D02*
X7777Y248458D01*
X8777Y249458D01*
X7777Y250458D02*
X8777Y249458D01*
X6777D02*
X7777Y250458D01*
X2937Y300295D02*
X3937Y299295D01*
X4937Y300295D01*
X3937Y301295D02*
X4937Y300295D01*
X2937D02*
X3937Y301295D01*
X2937Y305295D02*
X3937Y304295D01*
X4937Y305295D01*
X3937Y306295D02*
X4937Y305295D01*
X2937D02*
X3937Y306295D01*
X2937Y310295D02*
X3937Y309295D01*
X4937Y310295D01*
X3937Y311295D02*
X4937Y310295D01*
X2937D02*
X3937Y311295D01*
X2937Y315295D02*
X3937Y314295D01*
X4937Y315295D01*
X3937Y316295D02*
X4937Y315295D01*
X2937D02*
X3937Y316295D01*
X2937Y320295D02*
X3937Y319295D01*
X4937Y320295D01*
X3937Y321295D02*
X4937Y320295D01*
X2937D02*
X3937Y321295D01*
X2937Y325295D02*
X3937Y324295D01*
X4937Y325295D01*
X3937Y326295D02*
X4937Y325295D01*
X2937D02*
X3937Y326295D01*
X2937Y330295D02*
X3937Y329295D01*
X4937Y330295D01*
X3937Y331295D02*
X4937Y330295D01*
X2937D02*
X3937Y331295D01*
X2937Y335295D02*
X3937Y334295D01*
X4937Y335295D01*
X3937Y336295D02*
X4937Y335295D01*
X2937D02*
X3937Y336295D01*
X2150Y240158D02*
X3150Y239158D01*
X4150Y240158D01*
X3150Y241158D02*
X4150Y240158D01*
X2150D02*
X3150Y241158D01*
X2150Y243307D02*
X3150Y242307D01*
X4150Y243307D01*
X3150Y244307D02*
X4150Y243307D01*
X2150D02*
X3150Y244307D01*
X2150Y246457D02*
X3150Y245457D01*
X4150Y246457D01*
X3150Y247457D02*
X4150Y246457D01*
X2150D02*
X3150Y247457D01*
X2150Y249606D02*
X3150Y248606D01*
X4150Y249606D01*
X3150Y250606D02*
X4150Y249606D01*
X2150D02*
X3150Y250606D01*
X2150Y218110D02*
X3150Y217110D01*
X4150Y218110D01*
X3150Y219110D02*
X4150Y218110D01*
X2150D02*
X3150Y219110D01*
X2150Y221260D02*
X3150Y220260D01*
X4150Y221260D01*
X3150Y222260D02*
X4150Y221260D01*
X2150D02*
X3150Y222260D01*
X2150Y224409D02*
X3150Y223409D01*
X4150Y224409D01*
X3150Y225409D02*
X4150Y224409D01*
X2150D02*
X3150Y225409D01*
X2150Y227559D02*
X3150Y226559D01*
X4150Y227559D01*
X3150Y228559D02*
X4150Y227559D01*
X2150D02*
X3150Y228559D01*
X2150Y230709D02*
X3150Y229709D01*
X4150Y230709D01*
X3150Y231709D02*
X4150Y230709D01*
X2150D02*
X3150Y231709D01*
X2150Y233858D02*
X3150Y232858D01*
X4150Y233858D01*
X3150Y234858D02*
X4150Y233858D01*
X2150D02*
X3150Y234858D01*
X2150Y237008D02*
X3150Y236008D01*
X4150Y237008D01*
X3150Y238008D02*
X4150Y237008D01*
X2150D02*
X3150Y238008D01*
X2135Y252812D02*
X3135Y251812D01*
X4135Y252812D01*
X3135Y253812D02*
X4135Y252812D01*
X2135D02*
X3135Y253812D01*
X242110Y328760D02*
X243110Y327760D01*
X244110Y328760D01*
X243110Y329760D02*
X244110Y328760D01*
X242110D02*
X243110Y329760D01*
X237189Y345295D02*
X238189Y344295D01*
X239189Y345295D01*
X238189Y346295D02*
X239189Y345295D01*
X237189D02*
X238189Y346295D01*
X229315Y345295D02*
X230315Y344295D01*
X231315Y345295D01*
X230315Y346295D02*
X231315Y345295D01*
X229315D02*
X230315Y346295D01*
X225378Y345295D02*
X226378Y344295D01*
X227378Y345295D01*
X226378Y346295D02*
X227378Y345295D01*
X225378D02*
X226378Y346295D01*
X221441Y345295D02*
X222441Y344295D01*
X223441Y345295D01*
X222441Y346295D02*
X223441Y345295D01*
X221441D02*
X222441Y346295D01*
X221973Y316072D02*
X222973Y315072D01*
X223973Y316072D01*
X222973Y317072D02*
X223973Y316072D01*
X221973D02*
X222973Y317072D01*
X217504Y345295D02*
X218504Y344295D01*
X219504Y345295D01*
X218504Y346295D02*
X219504Y345295D01*
X217504D02*
X218504Y346295D01*
X213567Y345295D02*
X214567Y344295D01*
X215567Y345295D01*
X214567Y346295D02*
X215567Y345295D01*
X213567D02*
X214567Y346295D01*
X211813Y306453D02*
X212813Y305453D01*
X213813Y306453D01*
X212813Y307453D02*
X213813Y306453D01*
X211813D02*
X212813Y307453D01*
X209630Y345295D02*
X210630Y344295D01*
X211630Y345295D01*
X210630Y346295D02*
X211630Y345295D01*
X209630D02*
X210630Y346295D01*
X205693Y345295D02*
X206693Y344295D01*
X207693Y345295D01*
X206693Y346295D02*
X207693Y345295D01*
X205693D02*
X206693Y346295D01*
X242504Y177953D02*
X243504Y176953D01*
X244504Y177953D01*
X243504Y178953D02*
X244504Y177953D01*
X242504D02*
X243504Y178953D01*
X242504Y183465D02*
X243504Y182465D01*
X244504Y183465D01*
X243504Y184465D02*
X244504Y183465D01*
X242504D02*
X243504Y184465D01*
X237386Y193307D02*
X238386Y192307D01*
X239386Y193307D01*
X238386Y194307D02*
X239386Y193307D01*
X237386D02*
X238386Y194307D01*
X256577Y183739D02*
X257577Y182739D01*
X258577Y183739D01*
X257577Y184739D02*
X258577Y183739D01*
X256577D02*
X257577Y184739D01*
X295260Y138189D02*
X296260Y137189D01*
X297260Y138189D01*
X296260Y139189D02*
X297260Y138189D01*
X295260D02*
X296260Y139189D01*
X295260Y134646D02*
X296260Y133646D01*
X297260Y134646D01*
X296260Y135646D02*
X297260Y134646D01*
X295260D02*
X296260Y135646D01*
X295260Y145276D02*
X296260Y144276D01*
X297260Y145276D01*
X296260Y146276D02*
X297260Y145276D01*
X295260D02*
X296260Y146276D01*
X295260Y141732D02*
X296260Y140732D01*
X297260Y141732D01*
X296260Y142732D02*
X297260Y141732D01*
X295260D02*
X296260Y142732D01*
X295260Y152362D02*
X296260Y151362D01*
X297260Y152362D01*
X296260Y153362D02*
X297260Y152362D01*
X295260D02*
X296260Y153362D01*
X295260Y148819D02*
X296260Y147819D01*
X297260Y148819D01*
X296260Y149819D02*
X297260Y148819D01*
X295260D02*
X296260Y149819D01*
X295260Y159449D02*
X296260Y158449D01*
X297260Y159449D01*
X296260Y160449D02*
X297260Y159449D01*
X295260D02*
X296260Y160449D01*
X295260Y166535D02*
X296260Y165535D01*
X297260Y166535D01*
X296260Y167535D02*
X297260Y166535D01*
X295260D02*
X296260Y167535D01*
X295260Y185433D02*
X296260Y184433D01*
X297260Y185433D01*
X296260Y186433D02*
X297260Y185433D01*
X295260D02*
X296260Y186433D01*
X295260Y181890D02*
X296260Y180890D01*
X297260Y181890D01*
X296260Y182890D02*
X297260Y181890D01*
X295260D02*
X296260Y182890D01*
X295260Y192520D02*
X296260Y191520D01*
X297260Y192520D01*
X296260Y193520D02*
X297260Y192520D01*
X295260D02*
X296260Y193520D01*
X295260Y188976D02*
X296260Y187976D01*
X297260Y188976D01*
X296260Y189976D02*
X297260Y188976D01*
X295260D02*
X296260Y189976D01*
X295260Y199606D02*
X296260Y198606D01*
X297260Y199606D01*
X296260Y200606D02*
X297260Y199606D01*
X295260D02*
X296260Y200606D01*
X295260Y206693D02*
X296260Y205693D01*
X297260Y206693D01*
X296260Y207693D02*
X297260Y206693D01*
X295260D02*
X296260Y207693D01*
X242504Y180709D02*
X243504Y179709D01*
X244504Y180709D01*
X243504Y181709D02*
X244504Y180709D01*
X242504D02*
X243504Y181709D01*
X290071Y145176D02*
X291071Y144176D01*
X292071Y145176D01*
X291071Y146176D02*
X292071Y145176D01*
X290071D02*
X291071Y146176D01*
X295260Y162992D02*
X296260Y161992D01*
X297260Y162992D01*
X296260Y163992D02*
X297260Y162992D01*
X295260D02*
X296260Y163992D01*
X295260Y155905D02*
X296260Y154905D01*
X297260Y155905D01*
X296260Y156905D02*
X297260Y155905D01*
X295260D02*
X296260Y156905D01*
X295260Y196063D02*
X296260Y195063D01*
X297260Y196063D01*
X296260Y197063D02*
X297260Y196063D01*
X295260D02*
X296260Y197063D01*
X295260Y203150D02*
X296260Y202150D01*
X297260Y203150D01*
X296260Y204150D02*
X297260Y203150D01*
X295260D02*
X296260Y204150D01*
X295260Y213779D02*
X296260Y212779D01*
X297260Y213779D01*
X296260Y214779D02*
X297260Y213779D01*
X295260D02*
X296260Y214779D01*
X295260Y210236D02*
X296260Y209236D01*
X297260Y210236D01*
X296260Y211236D02*
X297260Y210236D01*
X295260D02*
X296260Y211236D01*
X77740Y345295D02*
X78740Y344295D01*
X79740Y345295D01*
X78740Y346295D02*
X79740Y345295D01*
X77740D02*
X78740Y346295D01*
X81677Y345295D02*
X82677Y344295D01*
X83677Y345295D01*
X82677Y346295D02*
X83677Y345295D01*
X81677D02*
X82677Y346295D01*
X128921Y345295D02*
X129921Y344295D01*
X130921Y345295D01*
X129921Y346295D02*
X130921Y345295D01*
X128921D02*
X129921Y346295D01*
X179118Y345295D02*
X180118Y344295D01*
X181118Y345295D01*
X180118Y346295D02*
X181118Y345295D01*
X179118D02*
X180118Y346295D01*
X233252Y345295D02*
X234252Y344295D01*
X235252Y345295D01*
X234252Y346295D02*
X235252Y345295D01*
X233252D02*
X234252Y346295D01*
X94272Y296873D02*
X95272Y295873D01*
X96272Y296873D01*
X95272Y297873D02*
X96272Y296873D01*
X94272D02*
X95272Y297873D01*
X224434Y333106D02*
X225434Y332106D01*
X226434Y333106D01*
X225434Y334106D02*
X226434Y333106D01*
X224434D02*
X225434Y334106D01*
X234204Y305449D02*
X235204Y304449D01*
X236204Y305449D01*
X235204Y306449D02*
X236204Y305449D01*
X234204D02*
X235204Y306449D01*
X60024Y283455D02*
X61024Y282455D01*
X62024Y283455D01*
X61024Y284455D02*
X62024Y283455D01*
X60024D02*
X61024Y284455D01*
X231683Y207432D02*
X232884D01*
Y208631D01*
X231683D02*
X232884D01*
X231683Y207432D02*
Y208631D01*
X231283Y207031D02*
X233283D01*
Y209032D01*
X231283D02*
X233283D01*
X231283Y207031D02*
Y209032D01*
X25048Y207757D02*
X26248D01*
Y208957D01*
X25048D02*
X26248D01*
X25048Y207757D02*
Y208957D01*
X24648Y207357D02*
X26648D01*
Y209357D01*
X24648D02*
X26648D01*
X24648Y207357D02*
Y209357D01*
X25048Y215972D02*
X26248D01*
Y217172D01*
X25048D02*
X26248D01*
X25048Y215972D02*
Y217172D01*
X24648Y215572D02*
X26648D01*
Y217572D01*
X24648D02*
X26648D01*
X24648Y215572D02*
Y217572D01*
X65387Y52165D02*
X66387Y51165D01*
X67387Y52165D01*
X66387Y53165D02*
X67387Y52165D01*
X65387D02*
X66387Y53165D01*
X90959Y316558D02*
X91959Y315558D01*
X92959Y316558D01*
X91959Y317558D02*
X92959Y316558D01*
X90959D02*
X91959Y317558D01*
X112189Y296873D02*
X113189Y295873D01*
X114189Y296873D01*
X113189Y297873D02*
X114189Y296873D01*
X112189D02*
X113189Y297873D01*
X128277Y296873D02*
X129277Y295873D01*
X130277Y296873D01*
X129277Y297873D02*
X130277Y296873D01*
X128277D02*
X129277Y297873D01*
X112189Y290354D02*
X113189Y289354D01*
X114189Y290354D01*
X113189Y291354D02*
X114189Y290354D01*
X112189D02*
X113189Y291354D01*
X128277Y290354D02*
X129277Y289354D01*
X130277Y290354D01*
X129277Y291354D02*
X130277Y290354D01*
X128277D02*
X129277Y291354D01*
X106510Y316981D02*
X107510Y315981D01*
X108510Y316981D01*
X107510Y317981D02*
X108510Y316981D01*
X106510D02*
X107510Y317981D01*
X227784Y296260D02*
X228784Y295260D01*
X229784Y296260D01*
X228784Y297260D02*
X229784Y296260D01*
X227784D02*
X228784Y297260D01*
X234579Y324115D02*
X235579Y323115D01*
X236579Y324115D01*
X235579Y325115D02*
X236579Y324115D01*
X234579D02*
X235579Y325115D01*
X186238Y285188D02*
X187238Y284188D01*
X188238Y285188D01*
X187238Y286188D02*
X188238Y285188D01*
X186238D02*
X187238Y286188D01*
X187245Y278469D02*
X188245Y277469D01*
X189245Y278469D01*
X188245Y279469D02*
X189245Y278469D01*
X187245D02*
X188245Y279469D01*
X178718Y275319D02*
X179718Y274319D01*
X180718Y275319D01*
X179718Y276319D02*
X180718Y275319D01*
X178718D02*
X179718Y276319D01*
X178718Y278469D02*
X179718Y277469D01*
X180718Y278469D01*
X179718Y279469D02*
X180718Y278469D01*
X178718D02*
X179718Y279469D01*
X178718Y281633D02*
X179718Y280633D01*
X180718Y281633D01*
X179718Y282633D02*
X180718Y281633D01*
X178718D02*
X179718Y282633D01*
X178678Y285188D02*
X179678Y284188D01*
X180678Y285188D01*
X179678Y286188D02*
X180678Y285188D01*
X178678D02*
X179678Y286188D01*
X210174Y280213D02*
X211174Y279213D01*
X212174Y280213D01*
X211174Y281213D02*
X212174Y280213D01*
X210174D02*
X211174Y281213D01*
X187159Y275343D02*
X188159Y274343D01*
X189159Y275343D01*
X188159Y276343D02*
X189159Y275343D01*
X187159D02*
X188159Y276343D01*
X274636Y141132D02*
X275836D01*
Y142332D01*
X274636D02*
X275836D01*
X274636Y141132D02*
Y142332D01*
X274236Y140732D02*
X276236D01*
Y142732D01*
X274236D02*
X276236D01*
X274236Y140732D02*
Y142732D01*
X173059Y283689D02*
X174059Y282689D01*
X175059Y283689D01*
X174059Y284689D02*
X175059Y283689D01*
X173059D02*
X174059Y284689D01*
X191119Y275319D02*
X192119Y274319D01*
X193119Y275319D01*
X192119Y276319D02*
X193119Y275319D01*
X191119D02*
X192119Y276319D01*
X210174Y275590D02*
X211174Y274590D01*
X212174Y275590D01*
X211174Y276590D02*
X212174Y275590D01*
X210174D02*
X211174Y276590D01*
X177682Y270669D02*
X178682Y269669D01*
X179682Y270669D01*
X178682Y271669D02*
X179682Y270669D01*
X177682D02*
X178682Y271669D01*
X233572Y310189D02*
X234572Y309189D01*
X235572Y310189D01*
X234572Y311189D02*
X235572Y310189D01*
X233572D02*
X234572Y311189D01*
X238365Y319056D02*
X239365Y318056D01*
X240365Y319056D01*
X239365Y320056D02*
X240365Y319056D01*
X238365D02*
X239365Y320056D01*
X124984Y293723D02*
X125984Y292723D01*
X126984Y293723D01*
X125984Y294723D02*
X126984Y293723D01*
X124984D02*
X125984Y294723D01*
X115535Y293723D02*
X116535Y292723D01*
X117535Y293723D01*
X116535Y294723D02*
X117535Y293723D01*
X115535D02*
X116535Y294723D01*
X115431Y300810D02*
X116431Y299810D01*
X117431Y300810D01*
X116431Y301810D02*
X117431Y300810D01*
X115431D02*
X116431Y301810D01*
X79534Y52137D02*
X80534Y51137D01*
X81534Y52137D01*
X80534Y53137D02*
X81534Y52137D01*
X79534D02*
X80534Y53137D01*
X254228Y216059D02*
X255228Y215059D01*
X256228Y216059D01*
X255228Y217059D02*
X256228Y216059D01*
X254228D02*
X255228Y217059D01*
X295260Y124016D02*
X296260Y123016D01*
X297260Y124016D01*
X296260Y125016D02*
X297260Y124016D01*
X295260D02*
X296260Y125016D01*
X295260Y131102D02*
X296260Y130102D01*
X297260Y131102D01*
X296260Y132102D02*
X297260Y131102D01*
X295260D02*
X296260Y132102D01*
X295260Y127559D02*
X296260Y126559D01*
X297260Y127559D01*
X296260Y128559D02*
X297260Y127559D01*
X295260D02*
X296260Y128559D01*
X295260Y109843D02*
X296260Y108843D01*
X297260Y109843D01*
X296260Y110843D02*
X297260Y109843D01*
X295260D02*
X296260Y110843D01*
X295260Y102756D02*
X296260Y101756D01*
X297260Y102756D01*
X296260Y103756D02*
X297260Y102756D01*
X295260D02*
X296260Y103756D01*
X295260Y106299D02*
X296260Y105299D01*
X297260Y106299D01*
X296260Y107299D02*
X297260Y106299D01*
X295260D02*
X296260Y107299D01*
X295260Y92126D02*
X296260Y91126D01*
X297260Y92126D01*
X296260Y93126D02*
X297260Y92126D01*
X295260D02*
X296260Y93126D01*
X295260Y99213D02*
X296260Y98213D01*
X297260Y99213D01*
X296260Y100213D02*
X297260Y99213D01*
X295260D02*
X296260Y100213D01*
X295260Y95669D02*
X296260Y94669D01*
X297260Y95669D01*
X296260Y96669D02*
X297260Y95669D01*
X295260D02*
X296260Y96669D01*
X295260Y88583D02*
X296260Y87583D01*
X297260Y88583D01*
X296260Y89583D02*
X297260Y88583D01*
X295260D02*
X296260Y89583D01*
X295260Y70866D02*
X296260Y69866D01*
X297260Y70866D01*
X296260Y71866D02*
X297260Y70866D01*
X295260D02*
X296260Y71866D01*
X295260Y74409D02*
X296260Y73409D01*
X297260Y74409D01*
X296260Y75409D02*
X297260Y74409D01*
X295260D02*
X296260Y75409D01*
X295260Y60236D02*
X296260Y59236D01*
X297260Y60236D01*
X296260Y61236D02*
X297260Y60236D01*
X295260D02*
X296260Y61236D01*
X295260Y67323D02*
X296260Y66323D01*
X297260Y67323D01*
X296260Y68323D02*
X297260Y67323D01*
X295260D02*
X296260Y68323D01*
X295260Y63779D02*
X296260Y62779D01*
X297260Y63779D01*
X296260Y64780D02*
X297260Y63779D01*
X295260D02*
X296260Y64780D01*
X295260Y53150D02*
X296260Y52150D01*
X297260Y53150D01*
X296260Y54150D02*
X297260Y53150D01*
X295260D02*
X296260Y54150D01*
X295260Y56693D02*
X296260Y55693D01*
X297260Y56693D01*
X296260Y57693D02*
X297260Y56693D01*
X295260D02*
X296260Y57693D01*
X295260Y38976D02*
X296260Y37976D01*
X297260Y38976D01*
X296260Y39976D02*
X297260Y38976D01*
X295260D02*
X296260Y39976D01*
X295260Y227953D02*
X296260Y226953D01*
X297260Y227953D01*
X296260Y228953D02*
X297260Y227953D01*
X295260D02*
X296260Y228953D01*
X295260Y231496D02*
X296260Y230496D01*
X297260Y231496D01*
X296260Y232496D02*
X297260Y231496D01*
X295260D02*
X296260Y232496D01*
X295260Y220866D02*
X296260Y219866D01*
X297260Y220866D01*
X296260Y221866D02*
X297260Y220866D01*
X295260D02*
X296260Y221866D01*
X295260Y224409D02*
X296260Y223409D01*
X297260Y224409D01*
X296260Y225409D02*
X297260Y224409D01*
X295260D02*
X296260Y225409D01*
X295260Y217323D02*
X296260Y216323D01*
X297260Y217323D01*
X296260Y218323D02*
X297260Y217323D01*
X295260D02*
X296260Y218323D01*
X224015Y301346D02*
X225015Y300346D01*
X226015Y301346D01*
X225015Y302346D02*
X226015Y301346D01*
X224015D02*
X225015Y302346D01*
X257576Y177996D02*
X258576Y176996D01*
X259576Y177996D01*
X258576Y178996D02*
X259576Y177996D01*
X257576D02*
X258576Y178996D01*
X2937Y340295D02*
X3937Y339295D01*
X4937Y340295D01*
X3937Y341295D02*
X4937Y340295D01*
X2937D02*
X3937Y341295D01*
X2937Y345295D02*
X3937Y344295D01*
X4937Y345295D01*
X3937Y346295D02*
X4937Y345295D01*
X2937D02*
X3937Y346295D01*
X6874Y345295D02*
X7874Y344295D01*
X8874Y345295D01*
X7874Y346295D02*
X8874Y345295D01*
X6874D02*
X7874Y346295D01*
X135872Y162852D02*
X136872Y161852D01*
X137872Y162852D01*
X136872Y163852D02*
X137872Y162852D01*
X135872D02*
X136872Y163852D01*
X173838Y288209D02*
X174838Y287209D01*
X175838Y288209D01*
X174838Y289209D02*
X175838Y288209D01*
X173838D02*
X174838Y289209D01*
X178715Y288914D02*
X179715Y287914D01*
X180715Y288914D01*
X179715Y289914D02*
X180715Y288914D01*
X178715D02*
X179715Y289914D01*
X186799Y281681D02*
X187799Y280681D01*
X188799Y281681D01*
X187799Y282681D02*
X188799Y281681D01*
X186799D02*
X187799Y282681D01*
X142096Y155750D02*
X143096Y154750D01*
X144097Y155750D01*
X143096Y156750D02*
X144097Y155750D01*
X142096D02*
X143096Y156750D01*
X209132Y313866D02*
X210132Y312866D01*
X211132Y313866D01*
X210132Y314866D02*
X211132Y313866D01*
X209132D02*
X210132Y314866D01*
X203697Y320854D02*
X204697Y319854D01*
X205697Y320854D01*
X204697Y321854D02*
X205697Y320854D01*
X203697D02*
X204697Y321854D01*
X124880Y300810D02*
X125880Y299810D01*
X126880Y300810D01*
X125880Y301810D02*
X126880Y300810D01*
X124880D02*
X125880Y301810D01*
X112189Y303982D02*
X113189Y302982D01*
X114189Y303982D01*
X113189Y304982D02*
X114189Y303982D01*
X112189D02*
X113189Y304982D01*
X128528Y303982D02*
X129528Y302982D01*
X130528Y303982D01*
X129528Y304982D02*
X130528Y303982D01*
X128528D02*
X129528Y304982D01*
X281172Y300724D02*
X282172Y299724D01*
X283172Y300724D01*
X282172Y301724D02*
X283172Y300724D01*
X281172D02*
X282172Y301724D01*
X248639Y298559D02*
X249639Y297559D01*
X250639Y298559D01*
X249639Y299559D02*
X250639Y298559D01*
X248639D02*
X249639Y299559D01*
X281328Y291118D02*
X282328Y290118D01*
X283328Y291118D01*
X282328Y292118D02*
X283328Y291118D01*
X281328D02*
X282328Y292118D01*
X281574Y310331D02*
X282574Y309331D01*
X283574Y310331D01*
X282574Y311331D02*
X283574Y310331D01*
X281574D02*
X282574Y311331D01*
X277633Y305532D02*
X278633Y304532D01*
X279633Y305532D01*
X278633Y306532D02*
X279633Y305532D01*
X277633D02*
X278633Y306532D01*
X269087Y310763D02*
X270087Y309763D01*
X271087Y310763D01*
X270087Y311763D02*
X271087Y310763D01*
X269087D02*
X270087Y311763D01*
X236140Y307467D02*
X237140Y306467D01*
X238140Y307467D01*
X237140Y308467D02*
X238140Y307467D01*
X236140D02*
X237140Y308467D01*
X277582Y295921D02*
X278582Y294921D01*
X279581Y295921D01*
X278582Y296921D02*
X279581Y295921D01*
X277582D02*
X278582Y296921D01*
X269592Y290724D02*
X270592Y289724D01*
X271592Y290724D01*
X270592Y291724D02*
X271592Y290724D01*
X269592D02*
X270592Y291724D01*
X237481Y299393D02*
X238481Y298393D01*
X239481Y299393D01*
X238481Y300393D02*
X239481Y299393D01*
X237481D02*
X238481Y300393D01*
X295260Y281102D02*
X296260Y280102D01*
X297260Y281102D01*
X296260Y282102D02*
X297260Y281102D01*
X295260D02*
X296260Y282102D01*
X295260Y259842D02*
X296260Y258842D01*
X297260Y259842D01*
X296260Y260842D02*
X297260Y259842D01*
X295260D02*
X296260Y260842D01*
X295260Y263386D02*
X296260Y262386D01*
X297260Y263386D01*
X296260Y264386D02*
X297260Y263386D01*
X295260D02*
X296260Y264386D01*
X295260Y252756D02*
X296260Y251756D01*
X297260Y252756D01*
X296260Y253756D02*
X297260Y252756D01*
X295260D02*
X296260Y253756D01*
X295260Y256299D02*
X296260Y255299D01*
X297260Y256299D01*
X296260Y257299D02*
X297260Y256299D01*
X295260D02*
X296260Y257299D01*
X295260Y235039D02*
X296260Y234039D01*
X297260Y235039D01*
X296260Y236039D02*
X297260Y235039D01*
X295260D02*
X296260Y236039D01*
X295260Y316535D02*
X296260Y315535D01*
X297260Y316535D01*
X296260Y317535D02*
X297260Y316535D01*
X295260D02*
X296260Y317535D01*
X295260Y323622D02*
X296260Y322622D01*
X297260Y323622D01*
X296260Y324622D02*
X297260Y323622D01*
X295260D02*
X296260Y324622D01*
X295260Y320079D02*
X296260Y319079D01*
X297260Y320079D01*
X296260Y321079D02*
X297260Y320079D01*
X295260D02*
X296260Y321079D01*
X295260Y330709D02*
X296260Y329709D01*
X297260Y330709D01*
X296260Y331709D02*
X297260Y330709D01*
X295260D02*
X296260Y331709D01*
X295654Y327165D02*
X296654Y326165D01*
X297654Y327165D01*
X296654Y328165D02*
X297654Y327165D01*
X295654D02*
X296654Y328165D01*
X295260Y309449D02*
X296260Y308449D01*
X297260Y309449D01*
X296260Y310449D02*
X297260Y309449D01*
X295260D02*
X296260Y310449D01*
X295260Y312992D02*
X296260Y311992D01*
X297260Y312992D01*
X296260Y313992D02*
X297260Y312992D01*
X295260D02*
X296260Y313992D01*
X295260Y302362D02*
X296260Y301362D01*
X297260Y302362D01*
X296260Y303362D02*
X297260Y302362D01*
X295260D02*
X296260Y303362D01*
X295654Y295276D02*
X296654Y294276D01*
X297654Y295276D01*
X296654Y296276D02*
X297654Y295276D01*
X295654D02*
X296654Y296276D01*
X295654Y305906D02*
X296654Y304906D01*
X297654Y305906D01*
X296654Y306906D02*
X297654Y305906D01*
X295654D02*
X296654Y306906D01*
X295260Y298819D02*
X296260Y297819D01*
X297260Y298819D01*
X296260Y299819D02*
X297260Y298819D01*
X295260D02*
X296260Y299819D01*
X295260Y288189D02*
X296260Y287189D01*
X297260Y288189D01*
X296260Y289189D02*
X297260Y288189D01*
X295260D02*
X296260Y289189D01*
X295260Y291732D02*
X296260Y290732D01*
X297260Y291732D01*
X296260Y292732D02*
X297260Y291732D01*
X295260D02*
X296260Y292732D01*
X295260Y284646D02*
X296260Y283646D01*
X297260Y284646D01*
X296260Y285646D02*
X297260Y284646D01*
X295260D02*
X296260Y285646D01*
X295260Y344882D02*
X296260Y343882D01*
X297260Y344882D01*
X296260Y345882D02*
X297260Y344882D01*
X295260D02*
X296260Y345882D01*
X295260Y337795D02*
X296260Y336795D01*
X297260Y337795D01*
X296260Y338795D02*
X297260Y337795D01*
X295260D02*
X296260Y338795D01*
X295260Y341338D02*
X296260Y340338D01*
X297260Y341338D01*
X296260Y342338D02*
X297260Y341338D01*
X295260D02*
X296260Y342338D01*
X295260Y334252D02*
X296260Y333252D01*
X297260Y334252D01*
X296260Y335252D02*
X297260Y334252D01*
X295260D02*
X296260Y335252D01*
X256874Y345295D02*
X257874Y344295D01*
X258874Y345295D01*
X257874Y346295D02*
X258874Y345295D01*
X256874D02*
X257874Y346295D01*
X260811Y345295D02*
X261811Y344295D01*
X262811Y345295D01*
X261811Y346295D02*
X262811Y345295D01*
X260811D02*
X261811Y346295D01*
X264748Y345295D02*
X265748Y344295D01*
X266748Y345295D01*
X265748Y346295D02*
X266748Y345295D01*
X264748D02*
X265748Y346295D01*
X268685Y345295D02*
X269685Y344295D01*
X270685Y345295D01*
X269685Y346295D02*
X270685Y345295D01*
X268685D02*
X269685Y346295D01*
X241126Y345295D02*
X242126Y344295D01*
X243126Y345295D01*
X242126Y346295D02*
X243126Y345295D01*
X241126D02*
X242126Y346295D01*
X245063Y345295D02*
X246063Y344295D01*
X247063Y345295D01*
X246063Y346295D02*
X247063Y345295D01*
X245063D02*
X246063Y346295D01*
X249000Y345295D02*
X250000Y344295D01*
X251000Y345295D01*
X250000Y346295D02*
X251000Y345295D01*
X249000D02*
X250000Y346295D01*
X252937Y345295D02*
X253937Y344295D01*
X254937Y345295D01*
X253937Y346295D02*
X254937Y345295D01*
X252937D02*
X253937Y346295D01*
X288370Y345295D02*
X289370Y344295D01*
X290370Y345295D01*
X289370Y346295D02*
X290370Y345295D01*
X288370D02*
X289370Y346295D01*
X272622Y345295D02*
X273622Y344295D01*
X274622Y345295D01*
X273622Y346295D02*
X274622Y345295D01*
X272622D02*
X273622Y346295D01*
X276559Y345295D02*
X277559Y344295D01*
X278559Y345295D01*
X277559Y346295D02*
X278559Y345295D01*
X276559D02*
X277559Y346295D01*
X280496Y345295D02*
X281496Y344295D01*
X282496Y345295D01*
X281496Y346295D02*
X282496Y345295D01*
X280496D02*
X281496Y346295D01*
X284433Y345295D02*
X285433Y344295D01*
X286433Y345295D01*
X285433Y346295D02*
X286433Y345295D01*
X284433D02*
X285433Y346295D01*
X292307Y345295D02*
X293307Y344295D01*
X294307Y345295D01*
X293307Y346295D02*
X294307Y345295D01*
X292307D02*
X293307Y346295D01*
X37803Y34835D02*
X38803Y33835D01*
X39803Y34835D01*
X38803Y35835D02*
X39803Y34835D01*
X37803D02*
X38803Y35835D01*
X59166Y52165D02*
X60166Y51165D01*
X61166Y52165D01*
X60166Y53165D02*
X61166Y52165D01*
X59166D02*
X60166Y53165D01*
X34026Y129384D02*
X35226D01*
Y130584D01*
X34026D02*
X35226D01*
X34026Y129384D02*
Y130584D01*
X33626Y128984D02*
X35626D01*
Y130984D01*
X33626D02*
X35626D01*
X33626Y128984D02*
Y130984D01*
X2179Y167604D02*
X3179Y166604D01*
X4179Y167604D01*
X3179Y168604D02*
X4179Y167604D01*
X2179D02*
X3179Y168604D01*
X2179Y164454D02*
X3179Y163454D01*
X4179Y164454D01*
X3179Y165454D02*
X4179Y164454D01*
X2179D02*
X3179Y165454D01*
X2164Y202306D02*
X3164Y201306D01*
X4164Y202306D01*
X3164Y203306D02*
X4164Y202306D01*
X2164D02*
X3164Y203306D01*
X2164Y199156D02*
X3164Y198156D01*
X4164Y199156D01*
X3164Y200156D02*
X4164Y199156D01*
X2164D02*
X3164Y200156D01*
X2164Y192857D02*
X3164Y191857D01*
X4164Y192857D01*
X3164Y193857D02*
X4164Y192857D01*
X2164D02*
X3164Y193857D01*
X2164Y214904D02*
X3164Y213904D01*
X4164Y214904D01*
X3164Y215904D02*
X4164Y214904D01*
X2164D02*
X3164Y215904D01*
X2164Y211755D02*
X3164Y210755D01*
X4164Y211755D01*
X3164Y212755D02*
X4164Y211755D01*
X2164D02*
X3164Y212755D01*
X2164Y208605D02*
X3164Y207605D01*
X4164Y208605D01*
X3164Y209605D02*
X4164Y208605D01*
X2164D02*
X3164Y209605D01*
X2164Y205455D02*
X3164Y204455D01*
X4164Y205455D01*
X3164Y206455D02*
X4164Y205455D01*
X2164D02*
X3164Y206455D01*
X2179Y183352D02*
X3179Y182352D01*
X4179Y183352D01*
X3179Y184352D02*
X4179Y183352D01*
X2179D02*
X3179Y184352D01*
X2179Y180202D02*
X3179Y179202D01*
X4179Y180202D01*
X3179Y181202D02*
X4179Y180202D01*
X2179D02*
X3179Y181202D01*
X2179Y177053D02*
X3179Y176053D01*
X4179Y177053D01*
X3179Y178053D02*
X4179Y177053D01*
X2179D02*
X3179Y178053D01*
X2179Y173903D02*
X3179Y172903D01*
X4179Y173903D01*
X3179Y174903D02*
X4179Y173903D01*
X2179D02*
X3179Y174903D01*
X2179Y170754D02*
X3179Y169754D01*
X4179Y170754D01*
X3179Y171754D02*
X4179Y170754D01*
X2179D02*
X3179Y171754D01*
X2179Y195950D02*
X3179Y194950D01*
X4179Y195950D01*
X3179Y196950D02*
X4179Y195950D01*
X2179D02*
X3179Y196950D01*
X2179Y189651D02*
X3179Y188651D01*
X4179Y189651D01*
X3179Y190651D02*
X4179Y189651D01*
X2179D02*
X3179Y190651D01*
X2179Y186502D02*
X3179Y185502D01*
X4179Y186502D01*
X3179Y187502D02*
X4179Y186502D01*
X2179D02*
X3179Y187502D01*
X295260Y77953D02*
X296260Y76953D01*
X297260Y77953D01*
X296260Y78953D02*
X297260Y77953D01*
X295260D02*
X296260Y78953D01*
X295260Y85039D02*
X296260Y84039D01*
X297260Y85039D01*
X296260Y86039D02*
X297260Y85039D01*
X295260D02*
X296260Y86039D01*
X295260Y81496D02*
X296260Y80496D01*
X297260Y81496D01*
X296260Y82496D02*
X297260Y81496D01*
X295260D02*
X296260Y82496D01*
X272491Y210000D02*
X273491Y209000D01*
X274491Y210000D01*
X273491Y211000D02*
X274491Y210000D01*
X272491D02*
X273491Y211000D01*
X255798Y197628D02*
X256998D01*
Y198828D01*
X255798D02*
X256998D01*
X255798Y197628D02*
Y198828D01*
X255398Y197228D02*
X257398D01*
Y199228D01*
X255398D02*
X257398D01*
X255398Y197228D02*
Y199228D01*
X255896Y203928D02*
X257096D01*
Y205128D01*
X255896D02*
X257096D01*
X255896Y203928D02*
Y205128D01*
X255496Y203528D02*
X257496D01*
Y205528D01*
X255496D02*
X257496D01*
X255496Y203528D02*
Y205528D01*
X48649Y12000D02*
X49649Y11000D01*
X50649Y12000D01*
X49649Y13000D02*
X50649Y12000D01*
X48649D02*
X49649Y13000D01*
X68665Y12000D02*
X69665Y11000D01*
X70665Y12000D01*
X69665Y13000D02*
X70665Y12000D01*
X68665D02*
X69665Y13000D01*
X40464Y137914D02*
X41664D01*
Y139114D01*
X40464D02*
X41664D01*
X40464Y137914D02*
Y139114D01*
X40064Y137514D02*
X42064D01*
Y139514D01*
X40064D02*
X42064D01*
X40064Y137514D02*
Y139514D01*
X257031Y216636D02*
X258032Y215636D01*
X259032Y216636D01*
X258032Y217636D02*
X259032Y216636D01*
X257031D02*
X258032Y217636D01*
X124408Y169588D02*
X125408Y168588D01*
X126408Y169588D01*
X125408Y170588D02*
X126408Y169588D01*
X124408D02*
X125408Y170588D01*
X135821Y146372D02*
X136821Y145372D01*
X137821Y146372D01*
X136821Y147372D02*
X137821Y146372D01*
X135821D02*
X136821Y147372D01*
X125585Y149113D02*
X126585Y148113D01*
X127585Y149113D01*
X126585Y150113D02*
X127585Y149113D01*
X125585D02*
X126585Y150113D01*
X135034Y178493D02*
X136034Y177493D01*
X137034Y178493D01*
X136034Y179493D02*
X137034Y178493D01*
X135034D02*
X136034Y179493D01*
X127657Y142845D02*
X128657Y141845D01*
X129657Y142845D01*
X128657Y143845D02*
X129657Y142845D01*
X127657D02*
X128657Y143845D01*
X125585Y141279D02*
X126585Y140279D01*
X127585Y141279D01*
X126585Y142279D02*
X127585Y141279D01*
X125585D02*
X126585Y142279D01*
X117587Y156377D02*
X118587Y155377D01*
X119587Y156377D01*
X118587Y157377D02*
X119587Y156377D01*
X117587D02*
X118587Y157377D01*
X267701Y210000D02*
X268701Y209000D01*
X269701Y210000D01*
X268701Y211000D02*
X269701Y210000D01*
X267701D02*
X268701Y211000D01*
X124347Y139063D02*
X125347Y138063D01*
X126347Y139063D01*
X125347Y140063D02*
X126347Y139063D01*
X124347D02*
X125347Y140063D01*
X94751Y167104D02*
X95951D01*
Y168304D01*
X94751D02*
X95951D01*
X94751Y167104D02*
Y168304D01*
X94351Y166704D02*
X96351D01*
Y168704D01*
X94351D02*
X96351D01*
X94351Y166704D02*
Y168704D01*
X35033Y221799D02*
X36233D01*
Y222999D01*
X35033D02*
X36233D01*
X35033Y221799D02*
Y222999D01*
X34633Y221399D02*
X36633D01*
Y223399D01*
X34633D02*
X36633D01*
X34633Y221399D02*
Y223399D01*
X94751Y178534D02*
X95951D01*
Y179734D01*
X94751D02*
X95951D01*
X94751Y178534D02*
Y179734D01*
X94351Y178134D02*
X96351D01*
Y180134D01*
X94351D02*
X96351D01*
X94351Y178134D02*
Y180134D01*
X104715Y177893D02*
X105915D01*
Y179093D01*
X104715D02*
X105915D01*
X104715Y177893D02*
Y179093D01*
X104315Y177493D02*
X106315D01*
Y179493D01*
X104315D02*
X106315D01*
X104315Y177493D02*
Y179493D01*
X104715Y167104D02*
X105915D01*
Y168304D01*
X104715D02*
X105915D01*
X104715Y167104D02*
Y168304D01*
X104315Y166704D02*
X106315D01*
Y168704D01*
X104315D02*
X106315D01*
X104315Y166704D02*
Y168704D01*
X104527Y155348D02*
X105727D01*
Y156548D01*
X104527D02*
X105727D01*
X104527Y155348D02*
Y156548D01*
X104127Y154948D02*
X106127D01*
Y156948D01*
X104127D02*
X106127D01*
X104127Y154948D02*
Y156948D01*
X119324Y147222D02*
X120324Y146222D01*
X121324Y147222D01*
X120324Y148222D02*
X121324Y147222D01*
X119324D02*
X120324Y148222D01*
X121937Y138685D02*
X122937Y137685D01*
X123937Y138685D01*
X122937Y139685D02*
X123937Y138685D01*
X121937D02*
X122937Y139685D01*
X75417Y167215D02*
X76417Y166215D01*
X77417Y167215D01*
X76417Y168215D02*
X77417Y167215D01*
X75417D02*
X76417Y168215D01*
X78134Y167215D02*
X79134Y166215D01*
X80134Y167215D01*
X79134Y168215D02*
X80134Y167215D01*
X78134D02*
X79134Y168215D01*
X80850Y167215D02*
X81850Y166215D01*
X82850Y167215D01*
X81850Y168215D02*
X82850Y167215D01*
X80850D02*
X81850Y168215D01*
X75417Y187346D02*
X76417Y186346D01*
X77417Y187346D01*
X76417Y188346D02*
X77417Y187346D01*
X75417D02*
X76417Y188346D01*
X78134Y187270D02*
X79134Y186270D01*
X80134Y187270D01*
X79134Y188270D02*
X80134Y187270D01*
X78134D02*
X79134Y188270D01*
X79433Y189370D02*
X80433Y188370D01*
X81433Y189370D01*
X80433Y190370D02*
X81433Y189370D01*
X79433D02*
X80433Y190370D01*
X76836Y189349D02*
X77836Y188349D01*
X78836Y189349D01*
X77836Y190349D02*
X78836Y189349D01*
X76836D02*
X77836Y190349D01*
X80850Y187270D02*
X81850Y186270D01*
X82850Y187270D01*
X81850Y188270D02*
X82850Y187270D01*
X80850D02*
X81850Y188270D01*
X76294Y164957D02*
X77294Y163957D01*
X78294Y164957D01*
X77294Y165957D02*
X78294Y164957D01*
X76294D02*
X77294Y165957D01*
X80123Y164957D02*
X81123Y163957D01*
X82123Y164957D01*
X81123Y165957D02*
X82123Y164957D01*
X80123D02*
X81123Y165957D01*
X87651Y185078D02*
X88651Y184078D01*
X89651Y185078D01*
X88651Y186078D02*
X89651Y185078D01*
X87651D02*
X88651Y186078D01*
X78646Y162441D02*
X79646Y161441D01*
X80646Y162441D01*
X79646Y163441D02*
X80646Y162441D01*
X78646D02*
X79646Y163441D01*
X70087Y276040D02*
X71287D01*
Y277240D01*
X70087D02*
X71287D01*
X70087Y276040D02*
Y277240D01*
X69687Y275640D02*
X71687D01*
Y277640D01*
X69687D02*
X71687D01*
X69687Y275640D02*
Y277640D01*
X69899Y291521D02*
X71099D01*
Y292721D01*
X69899D02*
X71099D01*
X69899Y291521D02*
Y292721D01*
X69499Y291121D02*
X71499D01*
Y293121D01*
X69499D02*
X71499D01*
X69499Y291121D02*
Y293121D01*
X131924Y322632D02*
X132924Y321632D01*
X133924Y322632D01*
X132924Y323632D02*
X133924Y322632D01*
X131924D02*
X132924Y323632D01*
X258274Y181008D02*
X259274Y180008D01*
X260274Y181008D01*
X259274Y182008D02*
X260274Y181008D01*
X258274D02*
X259274Y182008D01*
X76165Y177165D02*
X77165Y176165D01*
X78165Y177165D01*
X77165Y178165D02*
X78165Y177165D01*
X76165D02*
X77165Y178165D01*
X76165Y179134D02*
X77165Y178134D01*
X78165Y179134D01*
X77165Y180134D02*
X78165Y179134D01*
X76165D02*
X77165Y180134D01*
X76165Y181102D02*
X77165Y180102D01*
X78165Y181102D01*
X77165Y182102D02*
X78165Y181102D01*
X76165D02*
X77165Y182102D01*
X78134Y173228D02*
X79134Y172228D01*
X80134Y173228D01*
X79134Y174228D02*
X80134Y173228D01*
X78134D02*
X79134Y174228D01*
X78134Y175197D02*
X79134Y174197D01*
X80134Y175197D01*
X79134Y176197D02*
X80134Y175197D01*
X78134D02*
X79134Y176197D01*
X78134Y177165D02*
X79134Y176165D01*
X80134Y177165D01*
X79134Y178165D02*
X80134Y177165D01*
X78134D02*
X79134Y178165D01*
X76165Y173228D02*
X77165Y172228D01*
X78165Y173228D01*
X77165Y174228D02*
X78165Y173228D01*
X76165D02*
X77165Y174228D01*
X76165Y175197D02*
X77165Y174197D01*
X78165Y175197D01*
X77165Y176197D02*
X78165Y175197D01*
X76165D02*
X77165Y176197D01*
X78134Y181102D02*
X79134Y180102D01*
X80134Y181102D01*
X79134Y182102D02*
X80134Y181102D01*
X78134D02*
X79134Y182102D01*
X78134Y179134D02*
X79134Y178134D01*
X80134Y179134D01*
X79134Y180134D02*
X80134Y179134D01*
X78134D02*
X79134Y180134D01*
X80102Y173228D02*
X81102Y172228D01*
X82102Y173228D01*
X81102Y174228D02*
X82102Y173228D01*
X80102D02*
X81102Y174228D01*
X80102Y175197D02*
X81102Y174197D01*
X82102Y175197D01*
X81102Y176197D02*
X82102Y175197D01*
X80102D02*
X81102Y176197D01*
X80102Y177165D02*
X81102Y176165D01*
X82102Y177165D01*
X81102Y178165D02*
X82102Y177165D01*
X80102D02*
X81102Y178165D01*
X80102Y179134D02*
X81102Y178134D01*
X82102Y179134D01*
X81102Y180134D02*
X82102Y179134D01*
X80102D02*
X81102Y180134D01*
X80102Y181102D02*
X81102Y180102D01*
X82102Y181102D01*
X81102Y182102D02*
X82102Y181102D01*
X80102D02*
X81102Y182102D01*
X65929Y185335D02*
X66929Y184335D01*
X67929Y185335D01*
X66929Y186335D02*
X67929Y185335D01*
X65929D02*
X66929Y186335D01*
X31572Y191583D02*
X32772D01*
Y192783D01*
X31572D02*
X32772D01*
X31572Y191583D02*
Y192783D01*
X31172Y191183D02*
X33173D01*
Y193183D01*
X31172D02*
X33173D01*
X31172Y191183D02*
Y193183D01*
X94751Y155348D02*
X95951D01*
Y156548D01*
X94751D02*
X95951D01*
X94751Y155348D02*
Y156548D01*
X94351Y154948D02*
X96351D01*
Y156948D01*
X94351D02*
X96351D01*
X94351Y154948D02*
Y156948D01*
X128823Y140639D02*
X129823Y139639D01*
X130823Y140639D01*
X129823Y141639D02*
X130823Y140639D01*
X128823D02*
X129823Y141639D01*
X121942Y169615D02*
X122942Y168615D01*
X123942Y169615D01*
X122942Y170615D02*
X123942Y169615D01*
X121942D02*
X122942Y170615D01*
X135821Y149470D02*
X136821Y148470D01*
X137821Y149470D01*
X136821Y150470D02*
X137821Y149470D01*
X135821D02*
X136821Y150470D01*
X118112Y158969D02*
X119112Y157969D01*
X120112Y158969D01*
X119112Y159969D02*
X120112Y158969D01*
X118112D02*
X119112Y159969D01*
X133656Y144542D02*
X134656Y143542D01*
X135656Y144542D01*
X134656Y145542D02*
X135656Y144542D01*
X133656D02*
X134656Y145542D01*
X136702Y160450D02*
X137702Y159450D01*
X138702Y160450D01*
X137702Y161450D02*
X138702Y160450D01*
X136702D02*
X137702Y161450D01*
X139945Y157404D02*
X140945Y156404D01*
X141945Y157404D01*
X140945Y158404D02*
X141945Y157404D01*
X139945D02*
X140945Y158404D01*
X99963Y154797D02*
X100963Y153797D01*
X101963Y154797D01*
X100963Y155797D02*
X101963Y154797D01*
X99963D02*
X100963Y155797D01*
X37803Y50937D02*
X38803Y49937D01*
X39803Y50937D01*
X38803Y51937D02*
X39803Y50937D01*
X37803D02*
X38803Y51937D01*
X72583Y52165D02*
X73583Y51165D01*
X74583Y52165D01*
X73583Y53165D02*
X74583Y52165D01*
X72583D02*
X73583Y53165D01*
X174236Y50197D02*
X175236Y49197D01*
X176236Y50197D01*
X175236Y51197D02*
X176236Y50197D01*
X174236D02*
X175236Y51197D01*
X74787Y35433D02*
X75787Y34433D01*
X76787Y35433D01*
X75787Y36433D02*
X76787Y35433D01*
X74787D02*
X75787Y36433D01*
X295260Y116929D02*
X296260Y115929D01*
X297260Y116929D01*
X296260Y117929D02*
X297260Y116929D01*
X295260D02*
X296260Y117929D01*
X295260Y120472D02*
X296260Y119472D01*
X297260Y120472D01*
X296260Y121472D02*
X297260Y120472D01*
X295260D02*
X296260Y121472D01*
X295260Y113386D02*
X296260Y112386D01*
X297260Y113386D01*
X296260Y114386D02*
X297260Y113386D01*
X295260D02*
X296260Y114386D01*
X295260Y46063D02*
X296260Y45063D01*
X297260Y46063D01*
X296260Y47063D02*
X297260Y46063D01*
X295260D02*
X296260Y47063D01*
X295260Y49606D02*
X296260Y48606D01*
X297260Y49606D01*
X296260Y50606D02*
X297260Y49606D01*
X295260D02*
X296260Y50606D01*
X295260Y42520D02*
X296260Y41520D01*
X297260Y42520D01*
X296260Y43520D02*
X297260Y42520D01*
X295260D02*
X296260Y43520D01*
X295260Y31890D02*
X296260Y30890D01*
X297260Y31890D01*
X296260Y32890D02*
X297260Y31890D01*
X295260D02*
X296260Y32890D01*
X295260Y35433D02*
X296260Y34433D01*
X297260Y35433D01*
X296260Y36433D02*
X297260Y35433D01*
X295260D02*
X296260Y36433D01*
X247464Y201633D02*
X248464Y200633D01*
X249464Y201633D01*
X248464Y202633D02*
X249464Y201633D01*
X247464D02*
X248464Y202633D01*
X121845Y149113D02*
X122845Y148113D01*
X123845Y149113D01*
X122845Y150113D02*
X123845Y149113D01*
X121845D02*
X122845Y150113D01*
X16716Y16716D02*
Y17217D01*
X17217Y17717D01*
X16716Y18216D02*
X17217Y17717D01*
X16716Y18216D02*
Y18717D01*
X17217D01*
X17717Y18216D01*
X18216Y18717D01*
X18717D01*
Y18216D02*
Y18717D01*
X18216Y17717D02*
X18717Y18216D01*
X18216Y17717D02*
X18717Y17217D01*
Y16716D02*
Y17217D01*
X18216Y16716D02*
X18717D01*
X17717Y17217D02*
X18216Y16716D01*
X17217D02*
X17717Y17217D01*
X16716Y16716D02*
X17217D01*
X281480D02*
Y17217D01*
X281980Y17717D01*
X281480Y18216D02*
X281980Y17717D01*
X281480Y18216D02*
Y18717D01*
X281980D01*
X282480Y18216D01*
X282980Y18717D01*
X283480D01*
Y18216D02*
Y18717D01*
X282980Y17717D02*
X283480Y18216D01*
X282980Y17717D02*
X283480Y17217D01*
Y16716D02*
Y17217D01*
X282980Y16716D02*
X283480D01*
X282480Y17217D02*
X282980Y16716D01*
X281980D02*
X282480Y17217D01*
X281480Y16716D02*
X281980D01*
X281480Y386795D02*
Y387295D01*
X281980Y387795D01*
X281480Y388295D02*
X281980Y387795D01*
X281480Y388295D02*
Y388795D01*
X281980D01*
X282480Y388295D01*
X282980Y388795D01*
X283480D01*
Y388295D02*
Y388795D01*
X282980Y387795D02*
X283480Y388295D01*
X282980Y387795D02*
X283480Y387295D01*
Y386795D02*
Y387295D01*
X282980Y386795D02*
X283480D01*
X282480Y387295D02*
X282980Y386795D01*
X281980D02*
X282480Y387295D01*
X281480Y386795D02*
X281980D01*
X16716D02*
Y387295D01*
X17217Y387795D01*
X16716Y388295D02*
X17217Y387795D01*
X16716Y388295D02*
Y388795D01*
X17217D01*
X17717Y388295D01*
X18216Y388795D01*
X18717D01*
Y388295D02*
Y388795D01*
X18216Y387795D02*
X18717Y388295D01*
X18216Y387795D02*
X18717Y387295D01*
Y386795D02*
Y387295D01*
X18216Y386795D02*
X18717D01*
X17717Y387295D02*
X18216Y386795D01*
X17217D02*
X17717Y387295D01*
X16716Y386795D02*
X17217D01*
X14626Y334000D02*
X15626Y336000D01*
X13626D02*
X15626D01*
X13626D02*
X14626Y334000D01*
X124626Y4000D02*
X125626Y6000D01*
X123626D02*
X125626D01*
X123626D02*
X124626Y4000D01*
X114626D02*
X115626Y6000D01*
X113626D02*
X115626D01*
X113626D02*
X114626Y4000D01*
X74626D02*
X75626Y6000D01*
X73626D02*
X75626D01*
X73626D02*
X74626Y4000D01*
X84626D02*
X85626Y6000D01*
X83626D02*
X85626D01*
X83626D02*
X84626Y4000D01*
X94626D02*
X95626Y6000D01*
X93626D02*
X95626D01*
X93626D02*
X94626Y4000D01*
X104626D02*
X105626Y6000D01*
X103626D02*
X105626D01*
X103626D02*
X104626Y4000D01*
X134626D02*
X135626Y6000D01*
X133626D02*
X135626D01*
X133626D02*
X134626Y4000D01*
X44626D02*
X45626Y6000D01*
X43626D02*
X45626D01*
X43626D02*
X44626Y4000D01*
X34626D02*
X35626Y6000D01*
X33626D02*
X35626D01*
X33626D02*
X34626Y4000D01*
X54626D02*
X55626Y6000D01*
X53626D02*
X55626D01*
X53626D02*
X54626Y4000D01*
X64626D02*
X65626Y6000D01*
X63626D02*
X65626D01*
X63626D02*
X64626Y4000D01*
X214626D02*
X215626Y6000D01*
X213626D02*
X215626D01*
X213626D02*
X214626Y4000D01*
X204626D02*
X205626Y6000D01*
X203626D02*
X205626D01*
X203626D02*
X204626Y4000D01*
X194626D02*
X195626Y6000D01*
X193626D02*
X195626D01*
X193626D02*
X194626Y4000D01*
X184626D02*
X185626Y6000D01*
X183626D02*
X185626D01*
X183626D02*
X184626Y4000D01*
X174626D02*
X175626Y6000D01*
X173626D02*
X175626D01*
X173626D02*
X174626Y4000D01*
X164626D02*
X165626Y6000D01*
X163626D02*
X165626D01*
X163626D02*
X164626Y4000D01*
X154626D02*
X155626Y6000D01*
X153626D02*
X155626D01*
X153626D02*
X154626Y4000D01*
X144626D02*
X145626Y6000D01*
X143626D02*
X145626D01*
X143626D02*
X144626Y4000D01*
X224626D02*
X225626Y6000D01*
X223626D02*
X225626D01*
X223626D02*
X224626Y4000D01*
X234626D02*
X235626Y6000D01*
X233626D02*
X235626D01*
X233626D02*
X234626Y4000D01*
X244626D02*
X245626Y6000D01*
X243626D02*
X245626D01*
X243626D02*
X244626Y4000D01*
X254626D02*
X255626Y6000D01*
X253626D02*
X255626D01*
X253626D02*
X254626Y4000D01*
X264626D02*
X265626Y6000D01*
X263626D02*
X265626D01*
X263626D02*
X264626Y4000D01*
X4626Y104000D02*
X5626Y106000D01*
X3626D02*
X5626D01*
X3626D02*
X4626Y104000D01*
Y84000D02*
X5626Y86000D01*
X3626D02*
X5626D01*
X3626D02*
X4626Y84000D01*
Y94000D02*
X5626Y96000D01*
X3626D02*
X5626D01*
X3626D02*
X4626Y94000D01*
Y114000D02*
X5626Y116000D01*
X3626D02*
X5626D01*
X3626D02*
X4626Y114000D01*
Y124000D02*
X5626Y126000D01*
X3626D02*
X5626D01*
X3626D02*
X4626Y124000D01*
Y54000D02*
X5626Y56000D01*
X3626D02*
X5626D01*
X3626D02*
X4626Y54000D01*
Y44000D02*
X5626Y46000D01*
X3626D02*
X5626D01*
X3626D02*
X4626Y44000D01*
Y34000D02*
X5626Y36000D01*
X3626D02*
X5626D01*
X3626D02*
X4626Y34000D01*
Y64000D02*
X5626Y66000D01*
X3626D02*
X5626D01*
X3626D02*
X4626Y64000D01*
Y74000D02*
X5626Y76000D01*
X3626D02*
X5626D01*
X3626D02*
X4626Y74000D01*
Y134000D02*
X5626Y136000D01*
X3626D02*
X5626D01*
X3626D02*
X4626Y134000D01*
Y154000D02*
X5626Y156000D01*
X3626D02*
X5626D01*
X3626D02*
X4626Y154000D01*
Y144000D02*
X5626Y146000D01*
X3626D02*
X5626D01*
X3626D02*
X4626Y144000D01*
X179308Y174326D02*
X179808D01*
X179308D02*
Y175326D01*
X179808D01*
Y175826D01*
X180808D01*
Y175326D02*
Y175826D01*
Y175326D02*
X181308D01*
Y174326D02*
Y175326D01*
X180808Y174326D02*
X181308D01*
X180808Y173826D02*
Y174326D01*
X179808Y173826D02*
X180808D01*
X179808D02*
Y174326D01*
X284626Y334000D02*
X285626Y336000D01*
X283626D02*
X285626D01*
X283626D02*
X284626Y334000D01*
X218678Y304731D02*
X219678Y305231D01*
X220678Y304731D01*
X220178Y305731D02*
X220678Y304731D01*
X220178Y305731D02*
X220678Y306731D01*
X219678Y306231D02*
X220678Y306731D01*
X218678D02*
X219678Y306231D01*
X218678Y306731D02*
X219178Y305731D01*
X218678Y304731D02*
X219178Y305731D01*
X140438Y305231D02*
X140938Y304731D01*
X139938Y305231D02*
X140438D01*
X139938D02*
X140438Y305731D01*
X139938Y306231D02*
X140438Y305731D01*
X139938Y306231D02*
X140438D01*
X140938Y306731D01*
X141438Y306231D01*
X141938D01*
X141438Y305731D02*
X141938Y306231D01*
X141438Y305731D02*
X141938Y305231D01*
X141438D02*
X141938D01*
X140938Y304731D02*
X141438Y305231D01*
X125236Y41000D02*
X126236Y43000D01*
X124236D02*
X126236D01*
X124236D02*
X125236Y41000D01*
X135236D02*
X136236Y43000D01*
X134236D02*
X136236D01*
X134236D02*
X135236Y41000D01*
X145236D02*
X146236Y43000D01*
X144236D02*
X146236D01*
X144236D02*
X145236Y41000D01*
X155236D02*
X156236Y43000D01*
X154236D02*
X156236D01*
X154236D02*
X155236Y41000D01*
X165236D02*
X166236Y43000D01*
X164236D02*
X166236D01*
X164236D02*
X165236Y41000D01*
X175236D02*
X176236Y43000D01*
X174236D02*
X176236D01*
X174236D02*
X175236Y41000D01*
X185236D02*
X186236Y43000D01*
X184236D02*
X186236D01*
X184236D02*
X185236Y41000D01*
X195236D02*
X196236Y43000D01*
X194236D02*
X196236D01*
X194236D02*
X195236Y41000D01*
X205236D02*
X206236Y43000D01*
X204236D02*
X206236D01*
X204236D02*
X205236Y41000D01*
X115236D02*
X116236Y43000D01*
X114236D02*
X116236D01*
X114236D02*
X115236Y41000D01*
X105236D02*
X106236Y43000D01*
X104236D02*
X106236D01*
X104236D02*
X105236Y41000D01*
X95236D02*
X96236Y43000D01*
X94236D02*
X96236D01*
X94236D02*
X95236Y41000D01*
Y121000D02*
X96236Y123000D01*
X94236D02*
X96236D01*
X94236D02*
X95236Y121000D01*
X105236D02*
X106236Y123000D01*
X104236D02*
X106236D01*
X104236D02*
X105236Y121000D01*
X115236D02*
X116236Y123000D01*
X114236D02*
X116236D01*
X114236D02*
X115236Y121000D01*
X125236D02*
X126236Y123000D01*
X124236D02*
X126236D01*
X124236D02*
X125236Y121000D01*
X135236D02*
X136236Y123000D01*
X134236D02*
X136236D01*
X134236D02*
X135236Y121000D01*
X145236D02*
X146236Y123000D01*
X144236D02*
X146236D01*
X144236D02*
X145236Y121000D01*
X155236D02*
X156236Y123000D01*
X154236D02*
X156236D01*
X154236D02*
X155236Y121000D01*
X245236D02*
X246236Y123000D01*
X244236D02*
X246236D01*
X244236D02*
X245236Y121000D01*
X235236D02*
X236236Y123000D01*
X234236D02*
X236236D01*
X234236D02*
X235236Y121000D01*
X225236D02*
X226236Y123000D01*
X224236D02*
X226236D01*
X224236D02*
X225236Y121000D01*
X215236D02*
X216236Y123000D01*
X214236D02*
X216236D01*
X214236D02*
X215236Y121000D01*
X205236D02*
X206236Y123000D01*
X204236D02*
X206236D01*
X204236D02*
X205236Y121000D01*
X195236D02*
X196236Y123000D01*
X194236D02*
X196236D01*
X194236D02*
X195236Y121000D01*
X185236D02*
X186236Y123000D01*
X184236D02*
X186236D01*
X184236D02*
X185236Y121000D01*
X175236D02*
X176236Y123000D01*
X174236D02*
X176236D01*
X174236D02*
X175236Y121000D01*
X165236D02*
X166236Y123000D01*
X164236D02*
X166236D01*
X164236D02*
X165236Y121000D01*
D182*
X851419Y775250D02*
Y782448D01*
X855018D01*
X856217Y781248D01*
Y778849D01*
X855018Y777649D01*
X851419D01*
X853818D02*
X856217Y775250D01*
X859816D02*
X862216D01*
X863415Y776450D01*
Y778849D01*
X862216Y780048D01*
X859816D01*
X858617Y778849D01*
Y776450D01*
X859816Y775250D01*
X865814Y780048D02*
Y776450D01*
X867014Y775250D01*
X870613D01*
Y780048D01*
X874212Y781248D02*
Y780048D01*
X873012D01*
X875411D01*
X874212D01*
Y776450D01*
X875411Y775250D01*
X882609D02*
X880210D01*
X879010Y776450D01*
Y778849D01*
X880210Y780048D01*
X882609D01*
X883809Y778849D01*
Y777649D01*
X879010D01*
X891006Y782448D02*
Y775250D01*
X887407D01*
X886208Y776450D01*
Y778849D01*
X887407Y780048D01*
X891006D01*
X900603Y775250D02*
Y782448D01*
X904202D01*
X905402Y781248D01*
Y778849D01*
X904202Y777649D01*
X900603D01*
X909000Y780048D02*
X911400D01*
X912599Y778849D01*
Y775250D01*
X909000D01*
X907801Y776450D01*
X909000Y777649D01*
X912599D01*
X916198Y781248D02*
Y780048D01*
X914998D01*
X917398D01*
X916198D01*
Y776450D01*
X917398Y775250D01*
X920996Y782448D02*
Y775250D01*
Y778849D01*
X922196Y780048D01*
X924595D01*
X925795Y778849D01*
Y775250D01*
X935392Y782448D02*
Y775250D01*
X940190D01*
X946188D02*
X943789D01*
X942589Y776450D01*
Y778849D01*
X943789Y780048D01*
X946188D01*
X947388Y778849D01*
Y777649D01*
X942589D01*
X949787Y775250D02*
Y780048D01*
X953386D01*
X954586Y778849D01*
Y775250D01*
X959384Y772851D02*
X960584D01*
X961783Y774050D01*
Y780048D01*
X958184D01*
X956985Y778849D01*
Y776450D01*
X958184Y775250D01*
X961783D01*
X965382Y781248D02*
Y780048D01*
X964182D01*
X966582D01*
X965382D01*
Y776450D01*
X966582Y775250D01*
X970181Y782448D02*
Y775250D01*
Y778849D01*
X971380Y780048D01*
X973779D01*
X974979Y778849D01*
Y775250D01*
X764843Y782448D02*
Y775250D01*
Y778849D01*
X769641D01*
Y782448D01*
Y775250D01*
X773240D02*
X775639D01*
X776839Y776450D01*
Y778849D01*
X775639Y780048D01*
X773240D01*
X772041Y778849D01*
Y776450D01*
X773240Y775250D01*
X779238D02*
X781638D01*
X780438D01*
Y782448D01*
X779238D01*
X788835Y775250D02*
X786436D01*
X785236Y776450D01*
Y778849D01*
X786436Y780048D01*
X788835D01*
X790035Y778849D01*
Y777649D01*
X785236D01*
X799632Y782448D02*
Y775250D01*
X804430D01*
X810428D02*
X808029D01*
X806829Y776450D01*
Y778849D01*
X808029Y780048D01*
X810428D01*
X811628Y778849D01*
Y777649D01*
X806829D01*
X814027Y775250D02*
Y780048D01*
X817626D01*
X818826Y778849D01*
Y775250D01*
X823624Y772851D02*
X824824D01*
X826023Y774050D01*
Y780048D01*
X822424D01*
X821225Y778849D01*
Y776450D01*
X822424Y775250D01*
X826023D01*
X829622Y781248D02*
Y780048D01*
X828423D01*
X830822D01*
X829622D01*
Y776450D01*
X830822Y775250D01*
X834420Y782448D02*
Y775250D01*
Y778849D01*
X835620Y780048D01*
X838019D01*
X839219Y778849D01*
Y775250D01*
X631482Y782448D02*
Y775250D01*
Y778849D01*
X636281D01*
Y782448D01*
Y775250D01*
X639880D02*
X642279D01*
X643478Y776450D01*
Y778849D01*
X642279Y780048D01*
X639880D01*
X638680Y778849D01*
Y776450D01*
X639880Y775250D01*
X645878D02*
X648277D01*
X647077D01*
Y782448D01*
X645878D01*
X655475Y775250D02*
X653075D01*
X651876Y776450D01*
Y778849D01*
X653075Y780048D01*
X655475D01*
X656674Y778849D01*
Y777649D01*
X651876D01*
X666271Y782448D02*
X671069D01*
X668670D01*
Y775250D01*
X674668D02*
X677068D01*
X678267Y776450D01*
Y778849D01*
X677068Y780048D01*
X674668D01*
X673469Y778849D01*
Y776450D01*
X674668Y775250D01*
X680666D02*
X683066D01*
X681866D01*
Y782448D01*
X680666D01*
X690263Y775250D02*
X687864D01*
X686664Y776450D01*
Y778849D01*
X687864Y780048D01*
X690263D01*
X691463Y778849D01*
Y777649D01*
X686664D01*
X693862Y780048D02*
Y775250D01*
Y777649D01*
X695062Y778849D01*
X696261Y780048D01*
X697461D01*
X702259D02*
X704659D01*
X705858Y778849D01*
Y775250D01*
X702259D01*
X701060Y776450D01*
X702259Y777649D01*
X705858D01*
X708257Y775250D02*
Y780048D01*
X711856D01*
X713056Y778849D01*
Y775250D01*
X720254Y780048D02*
X716655D01*
X715455Y778849D01*
Y776450D01*
X716655Y775250D01*
X720254D01*
X726252D02*
X723852D01*
X722653Y776450D01*
Y778849D01*
X723852Y780048D01*
X726252D01*
X727451Y778849D01*
Y777649D01*
X722653D01*
X739447Y775250D02*
X737048Y777649D01*
Y780048D01*
X739447Y782448D01*
X743046Y778849D02*
X747845D01*
X750244Y775250D02*
X752643Y777649D01*
Y780048D01*
X750244Y782448D01*
X498122D02*
Y775250D01*
Y778849D01*
X502920D01*
Y782448D01*
Y775250D01*
X506519D02*
X508918D01*
X510118Y776450D01*
Y778849D01*
X508918Y780048D01*
X506519D01*
X505319Y778849D01*
Y776450D01*
X506519Y775250D01*
X512517D02*
X514916D01*
X513716D01*
Y782448D01*
X512517D01*
X522114Y775250D02*
X519714D01*
X518515Y776450D01*
Y778849D01*
X519714Y780048D01*
X522114D01*
X523313Y778849D01*
Y777649D01*
X518515D01*
X532910Y782448D02*
X537709D01*
X535309D01*
Y775250D01*
X541307D02*
X543707D01*
X544906Y776450D01*
Y778849D01*
X543707Y780048D01*
X541307D01*
X540108Y778849D01*
Y776450D01*
X541307Y775250D01*
X547306D02*
X549705D01*
X548505D01*
Y782448D01*
X547306D01*
X556903Y775250D02*
X554503D01*
X553304Y776450D01*
Y778849D01*
X554503Y780048D01*
X556903D01*
X558102Y778849D01*
Y777649D01*
X553304D01*
X560501Y780048D02*
Y775250D01*
Y777649D01*
X561701Y778849D01*
X562900Y780048D01*
X564100D01*
X568899D02*
X571298D01*
X572497Y778849D01*
Y775250D01*
X568899D01*
X567699Y776450D01*
X568899Y777649D01*
X572497D01*
X574897Y775250D02*
Y780048D01*
X578496D01*
X579695Y778849D01*
Y775250D01*
X586893Y780048D02*
X583294D01*
X582094Y778849D01*
Y776450D01*
X583294Y775250D01*
X586893D01*
X592891D02*
X590492D01*
X589292Y776450D01*
Y778849D01*
X590492Y780048D01*
X592891D01*
X594090Y778849D01*
Y777649D01*
X589292D01*
X606086Y775250D02*
X603687Y777649D01*
Y780048D01*
X606086Y782448D01*
X609685Y778849D02*
X614484D01*
X612085Y781248D02*
Y776450D01*
X616883Y775250D02*
X619282Y777649D01*
Y780048D01*
X616883Y782448D01*
X412745D02*
Y775250D01*
X416344D01*
X417544Y776450D01*
Y781248D01*
X416344Y782448D01*
X412745D01*
X423542Y775250D02*
X421142D01*
X419943Y776450D01*
Y778849D01*
X421142Y780048D01*
X423542D01*
X424741Y778849D01*
Y777649D01*
X419943D01*
X427141Y775250D02*
X430739D01*
X431939Y776450D01*
X430739Y777649D01*
X428340D01*
X427141Y778849D01*
X428340Y780048D01*
X431939D01*
X439137D02*
X435538D01*
X434338Y778849D01*
Y776450D01*
X435538Y775250D01*
X439137D01*
X441536Y780048D02*
Y775250D01*
Y777649D01*
X442735Y778849D01*
X443935Y780048D01*
X445135D01*
X448734Y775250D02*
X451133D01*
X449933D01*
Y780048D01*
X448734D01*
X454732Y772851D02*
Y780048D01*
X458330D01*
X459530Y778849D01*
Y776450D01*
X458330Y775250D01*
X454732D01*
X463129Y781248D02*
Y780048D01*
X461929D01*
X464328D01*
X463129D01*
Y776450D01*
X464328Y775250D01*
X467927D02*
X470327D01*
X469127D01*
Y780048D01*
X467927D01*
X475125Y775250D02*
X477524D01*
X478724Y776450D01*
Y778849D01*
X477524Y780048D01*
X475125D01*
X473925Y778849D01*
Y776450D01*
X475125Y775250D01*
X481123D02*
Y780048D01*
X484722D01*
X485921Y778849D01*
Y775250D01*
X306776Y782448D02*
X311574D01*
X309175D01*
Y775250D01*
X317572D02*
X315173D01*
X313974Y776450D01*
Y778849D01*
X315173Y780048D01*
X317572D01*
X318772Y778849D01*
Y777649D01*
X313974D01*
X321171Y775250D02*
Y780048D01*
X322371D01*
X323570Y778849D01*
Y775250D01*
Y778849D01*
X324770Y780048D01*
X325970Y778849D01*
Y775250D01*
X328369Y772851D02*
Y780048D01*
X331968D01*
X333167Y778849D01*
Y776450D01*
X331968Y775250D01*
X328369D01*
X335567D02*
X337966D01*
X336766D01*
Y782448D01*
X335567D01*
X342764Y780048D02*
X345163D01*
X346363Y778849D01*
Y775250D01*
X342764D01*
X341565Y776450D01*
X342764Y777649D01*
X346363D01*
X349962Y781248D02*
Y780048D01*
X348762D01*
X351162D01*
X349962D01*
Y776450D01*
X351162Y775250D01*
X358359D02*
X355960D01*
X354760Y776450D01*
Y778849D01*
X355960Y780048D01*
X358359D01*
X359559Y778849D01*
Y777649D01*
X354760D01*
X232196Y775250D02*
Y782448D01*
X235795D01*
X236995Y781248D01*
Y778849D01*
X235795Y777649D01*
X232196D01*
X240593Y780048D02*
X242993D01*
X244192Y778849D01*
Y775250D01*
X240593D01*
X239394Y776450D01*
X240593Y777649D01*
X244192D01*
X251390Y782448D02*
Y775250D01*
X247791D01*
X246591Y776450D01*
Y778849D01*
X247791Y780048D01*
X251390D01*
X265785Y781248D02*
X264586Y782448D01*
X262186D01*
X260987Y781248D01*
Y780048D01*
X262186Y778849D01*
X264586D01*
X265785Y777649D01*
Y776450D01*
X264586Y775250D01*
X262186D01*
X260987Y776450D01*
X268184Y782448D02*
Y775250D01*
Y778849D01*
X269384Y780048D01*
X271783D01*
X272983Y778849D01*
Y775250D01*
X276582Y780048D02*
X278981D01*
X280181Y778849D01*
Y775250D01*
X276582D01*
X275382Y776450D01*
X276582Y777649D01*
X280181D01*
X282580Y772851D02*
Y780048D01*
X286179D01*
X287378Y778849D01*
Y776450D01*
X286179Y775250D01*
X282580D01*
X293376D02*
X290977D01*
X289777Y776450D01*
Y778849D01*
X290977Y780048D01*
X293376D01*
X294576Y778849D01*
Y777649D01*
X289777D01*
X173211Y782448D02*
Y777649D01*
X175610Y775250D01*
X178010Y777649D01*
Y782448D01*
X180409Y775250D02*
X182808D01*
X181608D01*
Y780048D01*
X180409D01*
X187607D02*
X190006D01*
X191205Y778849D01*
Y775250D01*
X187607D01*
X186407Y776450D01*
X187607Y777649D01*
X191205D01*
X193605Y775250D02*
X198403Y780048D01*
X200802Y775250D02*
Y782448D01*
X204401D01*
X205601Y781248D01*
Y778849D01*
X204401Y777649D01*
X200802D01*
X209200Y780048D02*
X211599D01*
X212798Y778849D01*
Y775250D01*
X209200D01*
X208000Y776450D01*
X209200Y777649D01*
X212798D01*
X219996Y782448D02*
Y775250D01*
X216397D01*
X215198Y776450D01*
Y778849D01*
X216397Y780048D01*
X219996D01*
X23256Y782448D02*
Y775250D01*
X26855D01*
X28055Y776450D01*
Y781248D01*
X26855Y782448D01*
X23256D01*
X30454Y780048D02*
Y775250D01*
Y777649D01*
X31653Y778849D01*
X32853Y780048D01*
X34053D01*
X37652Y775250D02*
X40051D01*
X38851D01*
Y780048D01*
X37652D01*
X43650Y775250D02*
X46049D01*
X44849D01*
Y782448D01*
X43650D01*
X49648Y775250D02*
X52047D01*
X50847D01*
Y782448D01*
X49648D01*
X62843D02*
Y775250D01*
X67642D01*
X71241Y780048D02*
X73640D01*
X74840Y778849D01*
Y775250D01*
X71241D01*
X70041Y776450D01*
X71241Y777649D01*
X74840D01*
X77239Y780048D02*
Y776450D01*
X78438Y775250D01*
X82037D01*
Y774050D01*
X80838Y772851D01*
X79638D01*
X82037Y775250D02*
Y780048D01*
X88035Y775250D02*
X85636D01*
X84436Y776450D01*
Y778849D01*
X85636Y780048D01*
X88035D01*
X89235Y778849D01*
Y777649D01*
X84436D01*
X91634Y780048D02*
Y775250D01*
Y777649D01*
X92834Y778849D01*
X94033Y780048D01*
X95233D01*
X106029Y775250D02*
Y782448D01*
X109628D01*
X110828Y781248D01*
Y778849D01*
X109628Y777649D01*
X106029D01*
X114427Y780048D02*
X116826D01*
X118026Y778849D01*
Y775250D01*
X114427D01*
X113227Y776450D01*
X114427Y777649D01*
X118026D01*
X120425Y775250D02*
X122824D01*
X121624D01*
Y780048D01*
X120425D01*
X126423D02*
Y775250D01*
Y777649D01*
X127622Y778849D01*
X128822Y780048D01*
X130022D01*
X-50124Y782448D02*
Y775250D01*
Y778849D01*
X-45326D01*
Y782448D01*
Y775250D01*
X-41727D02*
X-39327D01*
X-38128Y776450D01*
Y778849D01*
X-39327Y780048D01*
X-41727D01*
X-42926Y778849D01*
Y776450D01*
X-41727Y775250D01*
X-35729D02*
X-33329D01*
X-34529D01*
Y782448D01*
X-35729D01*
X-26132Y775250D02*
X-28531D01*
X-29731Y776450D01*
Y778849D01*
X-28531Y780048D01*
X-26132D01*
X-24932Y778849D01*
Y777649D01*
X-29731D01*
X-15335Y782448D02*
X-10537D01*
X-12936D01*
Y775250D01*
X-8138Y780048D02*
Y776450D01*
X-6938Y775250D01*
X-3339D01*
Y774050D01*
X-4539Y772851D01*
X-5738D01*
X-3339Y775250D02*
Y780048D01*
X-940Y772851D02*
Y780048D01*
X2659D01*
X3858Y778849D01*
Y776450D01*
X2659Y775250D01*
X-940D01*
X9857D02*
X7457D01*
X6258Y776450D01*
Y778849D01*
X7457Y780048D01*
X9857D01*
X11056Y778849D01*
Y777649D01*
X6258D01*
X-100712Y775250D02*
Y782448D01*
X-97113D01*
X-95913Y781248D01*
Y778849D01*
X-97113Y777649D01*
X-100712D01*
X-93514Y775250D02*
X-91115D01*
X-92314D01*
Y782448D01*
X-93514D01*
X-86316Y780048D02*
X-83917D01*
X-82717Y778849D01*
Y775250D01*
X-86316D01*
X-87516Y776450D01*
X-86316Y777649D01*
X-82717D01*
X-79119Y781248D02*
Y780048D01*
X-80318D01*
X-77919D01*
X-79119D01*
Y776450D01*
X-77919Y775250D01*
X-70721D02*
X-73120D01*
X-74320Y776450D01*
Y778849D01*
X-73120Y780048D01*
X-70721D01*
X-69522Y778849D01*
Y777649D01*
X-74320D01*
X-62324Y782448D02*
Y775250D01*
X-65923D01*
X-67123Y776450D01*
Y778849D01*
X-65923Y780048D01*
X-62324D01*
X-215678Y782448D02*
Y775250D01*
Y778849D01*
X-210879D01*
Y782448D01*
Y775250D01*
X-207281D02*
X-204881D01*
X-203682Y776450D01*
Y778849D01*
X-204881Y780048D01*
X-207281D01*
X-208480Y778849D01*
Y776450D01*
X-207281Y775250D01*
X-201283D02*
X-198883D01*
X-200083D01*
Y782448D01*
X-201283D01*
X-191686Y775250D02*
X-194085D01*
X-195285Y776450D01*
Y778849D01*
X-194085Y780048D01*
X-191686D01*
X-190486Y778849D01*
Y777649D01*
X-195285D01*
X-176091Y781248D02*
X-177290Y782448D01*
X-179690D01*
X-180889Y781248D01*
Y780048D01*
X-179690Y778849D01*
X-177290D01*
X-176091Y777649D01*
Y776450D01*
X-177290Y775250D01*
X-179690D01*
X-180889Y776450D01*
X-173692Y775250D02*
X-171292D01*
X-172492D01*
Y780048D01*
X-173692D01*
X-167693D02*
X-162895D01*
X-167693Y775250D01*
X-162895D01*
X-156897D02*
X-159296D01*
X-160496Y776450D01*
Y778849D01*
X-159296Y780048D01*
X-156897D01*
X-155697Y778849D01*
Y777649D01*
X-160496D01*
X-269864Y781248D02*
X-271064Y782448D01*
X-273463D01*
X-274662Y781248D01*
Y776450D01*
X-273463Y775250D01*
X-271064D01*
X-269864Y776450D01*
X-266265Y775250D02*
X-263866D01*
X-262666Y776450D01*
Y778849D01*
X-263866Y780048D01*
X-266265D01*
X-267465Y778849D01*
Y776450D01*
X-266265Y775250D01*
X-260267Y780048D02*
Y776450D01*
X-259068Y775250D01*
X-255469D01*
Y780048D01*
X-253069Y775250D02*
Y780048D01*
X-249471D01*
X-248271Y778849D01*
Y775250D01*
X-244672Y781248D02*
Y780048D01*
X-245872D01*
X-243473D01*
X-244672D01*
Y776450D01*
X-243473Y775250D01*
X-320451Y781248D02*
X-321651Y782448D01*
X-324050D01*
X-325250Y781248D01*
Y780048D01*
X-324050Y778849D01*
X-321651D01*
X-320451Y777649D01*
Y776450D01*
X-321651Y775250D01*
X-324050D01*
X-325250Y776450D01*
X-318052Y780048D02*
Y776450D01*
X-316853Y775250D01*
X-313254D01*
Y774050D01*
X-314454Y772851D01*
X-315653D01*
X-313254Y775250D02*
Y780048D01*
X-310855Y775250D02*
Y780048D01*
X-309655D01*
X-308455Y778849D01*
Y775250D01*
Y778849D01*
X-307256Y780048D01*
X-306056Y778849D01*
Y775250D01*
X-303657Y782448D02*
Y775250D01*
X-300058D01*
X-298858Y776450D01*
Y777649D01*
Y778849D01*
X-300058Y780048D01*
X-303657D01*
X-295260Y775250D02*
X-292861D01*
X-291661Y776450D01*
Y778849D01*
X-292861Y780048D01*
X-295260D01*
X-296459Y778849D01*
Y776450D01*
X-295260Y775250D01*
X-289262D02*
X-286862D01*
X-288062D01*
Y782448D01*
X-289262D01*
M02*
