M48
;Layer_Color=9474304
;FILE_FORMAT=2:5
INCH
;TYPE=PLATED
T01F00S00C0.01181
T03F00S00C0.03150
T04F00S00C0.03543
T05F00S00C0.14567
;TYPE=NON_PLATED
T06F00S00C0.02559
T07F00S00C0.04331
T08F00S00C0.06299
T09F00S00C0.12992
%
T01
X0002677Y-0000512
X0002677Y0011299
X0002677Y0023110
X0014961Y0026378
X0014961Y0015157
X0020866Y0009055
X0035236Y0009252
X0033661Y0014961
X0033858Y0026969
X0048425Y0025787
X0047835Y0019685
X0048031Y0012795
X0055512Y0009449
X0053347Y0004134
X0053543Y-0005118
X0062205Y-0010630
X0062480Y-0025079
X0074291Y-0025079
X0086102Y-0025079
X0097913Y-0025079
X0109724Y-0025079
X0121535Y-0025079
X0133346Y-0025079
X0145157Y-0025079
X0156968Y-0025079
X0168780Y-0025079
X0144226Y-0012598
X0134646Y-0012598
X0123622Y-0010039
X0126771Y-0006693
X0115748Y-0008661
X0095866Y0000394
X0092716Y0008661
X0094094Y0016732
X0101772Y0016535
X0101772Y0019291
X0100984Y0026772
X0105512Y0026772
X0102362Y0008858
X0077362Y0011417
X0077362Y0014370
X0077362Y0018110
X0077559Y0026969
X0064370Y0023622
X0064370Y0020669
X0064370Y0017717
X0067716Y0015748
X0074606Y0007874
X0073819Y-0003543
X0086024Y-0004134
X0035433Y-0000591
X0032677Y-0012205
X0027047Y-0025079
X0038858Y-0025079
X0050669Y-0025079
X0139961Y0007480
X0143209Y0007480
X0146457Y0007480
X0146457Y0011024
X0143209Y0011024
X0139961Y0011024
X0178543Y0011811
X0178543Y0008563
X0178543Y0005315
X0182087Y0005315
X0182087Y0008563
X0182087Y0011811
X0182087Y0019291
X0178347Y0019291
X0180590Y-0025079
X0192402Y-0025079
X0193189Y0034173
X0181102Y0047244
X0193189Y0060709
X0199803Y0107480
X0200000Y0112205
X0224016Y0112205
X0223622Y0096063
X0223622Y0089764
X0199803Y0151181
X0189961Y0151575
X0193110Y0157677
X0193110Y0169488
X0142348Y0163976
X0142348Y0159982
X0138201Y0159982
X0138201Y0163976
X0134055Y0163976
X0134055Y0159982
X0131299Y0154134
X0126969Y0154134
X0122638Y0154134
X0122638Y0149803
X0126969Y0149803
X0131299Y0149803
X0131299Y0134449
X0126969Y0134449
X0122638Y0134449
X0122638Y0130118
X0126969Y0130118
X0131299Y0130118
X0129921Y0119882
X0120079Y0119882
X0110236Y0119882
X0100000Y0119882
X0090158Y0119882
X0079912Y0119937
X0069882Y0119882
X0060236Y0119882
X0050197Y0119882
X0039961Y0119882
X0027047Y0119961
X0023425Y0133268
X0023425Y0137008
X0019488Y0137008
X0019488Y0133268
X0019488Y0140748
X0019488Y0144291
X0025984Y0157677
X0029638Y0157696
X0033800Y0157696
X0037963Y0157696
X0042126Y0157696
X0042126Y0153956
X0050591Y0155413
X0046063Y0162795
X0047244Y0168307
X0031496Y0167520
X0023228Y0171260
X0057819Y0162063
X0060827Y0162008
X0064370Y0159449
X0067323Y0150984
X0067096Y0148040
X0076378Y0143110
X0076378Y0139567
X0079921Y0139764
X0079921Y0143110
X0083465Y0143110
X0083465Y0139764
X0055709Y0137992
X0059252Y0131299
X0061811Y0131299
X0043701Y0139370
X0054528Y0102756
X0063976Y0096850
X0070079Y0096260
X0079921Y0096063
X0076877Y0082315
X0077016Y0079772
X0056901Y0080130
X0059252Y0075787
X0055118Y0071063
X0047584Y0074606
X0047638Y0077953
X0034843Y0074606
X0036811Y0071063
X0027559Y0079134
X0023031Y0082677
X0026772Y0094488
X0046457Y0094488
X0064382Y0068307
X0064382Y0065354
X0059646Y0058268
X0065157Y0044882
X0067520Y0036811
X0062402Y0036811
X0062008Y0028937
X0065157Y0029134
X0078937Y0029921
X0078448Y0034347
X0077362Y0037093
X0085433Y0041339
X0083268Y0044488
X0083465Y0050197
X0079724Y0047441
X0094095Y0043701
X0093110Y0039567
X0100787Y0042913
X0098032Y0050984
X0094685Y0050984
X0094685Y0054331
X0094685Y0057677
X0098032Y0057677
X0098032Y0054331
X0105905Y0055118
X0109252Y0055118
X0112402Y0055118
X0112598Y0051772
X0109252Y0051772
X0105709Y0051772
X0110630Y0075590
X0120079Y0089961
X0130118Y0089961
X0140157Y0089764
X0150000Y0089764
X0160236Y0093307
X0170079Y0093504
X0160039Y0119882
X0150197Y0119882
X0140157Y0119882
X0137795Y0137795
X0113386Y0169882
X0108071Y0169882
X0071457Y0169291
X0069291Y0171063
X0047835Y0047835
X0050000Y0045275
X0047835Y0042717
X0050000Y0036220
X0047835Y0034055
X0052559Y0038386
X0037992Y0037992
X0032874Y0037598
X0035630Y0033465
X0037992Y0048819
X0021850Y0048819
X0130905Y0047441
X0008465Y0047244
X0002677Y0047126
X0006102Y0052756
X0002677Y0058543
X0002677Y0070354
X0002677Y0082165
X0002677Y0093976
X0002677Y0119488
X0002677Y0034921
X0002677Y0273937
X0002677Y0285748
X0002677Y0297559
X0002677Y0309370
X0002677Y0321181
X0027165Y0310236
X0038976Y0310236
X0050787Y0310236
X0065551Y0301575
X0071260Y0301575
X0076968Y0301575
X0074213Y0297835
X0068307Y0297835
X0065551Y0294291
X0071260Y0294291
X0076968Y0294291
X0084252Y0292520
X0090945Y0291339
X0090945Y0287795
X0094882Y0287795
X0094882Y0291339
X0094882Y0294882
X0094882Y0302362
X0094882Y0305512
X0094882Y0308661
X0094882Y0311811
X0090945Y0305512
X0090945Y0302362
X0085433Y0314567
X0081890Y0314567
X0081890Y0318185
X0085433Y0318185
X0085433Y0321803
X0081890Y0321803
X0071663Y0322089
X0071663Y0325632
X0067524Y0325632
X0067524Y0322089
X0063386Y0322089
X0063386Y0325632
X0067716Y0318110
X0069685Y0285039
X0067323Y0274803
X0068701Y0268898
X0068701Y0265945
X0048228Y0278346
X0051378Y0281496
X0054134Y0284252
X0056693Y0287008
X0059252Y0289764
X0094882Y0284252
X0120866Y0284547
X0120866Y0288189
X0124606Y0288189
X0124606Y0284547
X0124606Y0280906
X0120866Y0280906
X0132171Y0269685
X0132171Y0266535
X0132171Y0263386
X0132171Y0260236
X0135630Y0260236
X0135630Y0263386
X0135630Y0266535
X0135630Y0269685
X0136221Y0248228
X0142323Y0251969
X0146653Y0251378
X0169488Y0250394
X0168504Y0246457
X0168504Y0241339
X0171063Y0204921
X0133071Y0194095
X0116732Y0196063
X0102362Y0195276
X0102559Y0203740
X0101772Y0213583
X0101575Y0223622
X0101575Y0232480
X0101378Y0241535
X0101575Y0252756
X0101575Y0261811
X0114961Y0261811
X0114961Y0252362
X0117126Y0236417
X0118110Y0220472
X0119685Y0213386
X0089764Y0203937
X0089961Y0195079
X0167717Y0284055
X0167913Y0289764
X0170276Y0304331
X0165157Y0313386
X0159843Y0314173
X0175591Y0310236
X0178543Y0310236
X0182677Y0304331
X0188386Y0310039
X0193110Y0310039
X0189370Y0314567
X0193110Y0298228
X0193110Y0286614
X0193110Y0274803
X0183071Y0284055
X0183071Y0289764
X0222638Y0311220
X0220866Y0321654
X0248622Y0322835
X0262992Y0242717
X0273031Y0247244
X0256496Y0234449
X0256299Y0224213
X0263583Y0214173
X0273819Y0209842
X0210630Y0204724
X0182283Y0204921
X0180590Y0345748
X0192402Y0345748
X0213583Y0342913
X0228937Y0343110
X0233862Y0342573
X0248622Y0343307
X0168780Y0345748
X0156968Y0345748
X0145157Y0345748
X0133346Y0345748
X0121535Y0345748
X0109724Y0345748
X0097913Y0345748
X0086102Y0345748
X0074291Y0345748
X0062480Y0345748
X0050669Y0345748
X0038858Y0345748
X0027047Y0345748
T03
X0033071Y0177165
X0055118Y0177165
X0074803Y0177165
X0013386Y0177165
T04
X0039921Y-0017559
X0049921Y-0017559
X0059921Y-0017559
X0069921Y-0017559
X0079921Y-0017559
X0089921Y-0017559
X0099921Y-0017559
X0109921Y-0017559
X0119921Y-0017559
X0129921Y-0017559
X0139921Y-0017559
X0149921Y-0017559
X0159921Y-0017559
X0169921Y-0017559
X0179921Y-0017559
X0189921Y-0017559
X0189961Y0112402
X0179961Y0112402
X0179961Y0122402
X0189961Y0122402
X0199961Y0122402
X0209961Y0122402
X0209961Y0132402
X0199961Y0132402
X0189961Y0132402
X0179961Y0132402
X0169961Y0132402
X0169961Y0122402
X0169961Y0112402
X0159961Y0112402
X0149961Y0112402
X0139961Y0112402
X0129961Y0112402
X0119961Y0112402
X0109961Y0112402
X0099961Y0112402
X0089961Y0112402
X0079961Y0112402
X0069961Y0112402
X0059961Y0112402
X0049961Y0112402
X0039961Y0112402
X0109961Y0332422
X0119961Y0332422
X0129961Y0332422
X0139961Y0332422
T05
X0194413Y0047441
X0274213Y0228543
T06
X0024833Y0010472
X0024833Y0033228
X0163819Y0323199
X0186575Y0323199
T07
X0063583Y0008071
X0116732Y0189173
T08
X0063583Y0086811
X0116732Y0267913
T09
X0015000Y-0012559
X0276791Y-0012559
X0015000Y0107441
X0015000Y0333228
X0276791Y0333228
M30
