G04*
G04 #@! TF.GenerationSoftware,Altium Limited,Altium Designer,20.2.6 (241)*
G04*
G04 Layer_Physical_Order=1*
G04 Layer_Color=255*
%FSLAX25Y25*%
%MOIN*%
G70*
G04*
G04 #@! TF.SameCoordinates,785051FB-66B4-4767-B951-84AC3D2C5656*
G04*
G04*
G04 #@! TF.FilePolarity,Positive*
G04*
G01*
G75*
%ADD10C,0.00787*%
%ADD11C,0.00591*%
%ADD15R,0.02598X0.02441*%
%ADD16R,0.04134X0.05512*%
%ADD17R,0.02441X0.02441*%
%ADD18R,0.02441X0.02441*%
G04:AMPARAMS|DCode=19|XSize=9.45mil|YSize=23.62mil|CornerRadius=4.72mil|HoleSize=0mil|Usage=FLASHONLY|Rotation=90.000|XOffset=0mil|YOffset=0mil|HoleType=Round|Shape=RoundedRectangle|*
%AMROUNDEDRECTD19*
21,1,0.00945,0.01417,0,0,90.0*
21,1,0.00000,0.02362,0,0,90.0*
1,1,0.00945,0.00709,0.00000*
1,1,0.00945,0.00709,0.00000*
1,1,0.00945,-0.00709,0.00000*
1,1,0.00945,-0.00709,0.00000*
%
%ADD19ROUNDEDRECTD19*%
%ADD20R,0.06000X0.05000*%
%ADD21R,0.09055X0.11024*%
%ADD22R,0.11614X0.13780*%
%ADD23R,0.04528X0.05709*%
%ADD24R,0.04724X0.10827*%
%ADD25R,0.01181X0.06102*%
%ADD26R,0.06299X0.03937*%
%ADD27R,0.07087X0.04724*%
%ADD28R,0.06102X0.02362*%
%ADD29R,0.05512X0.04134*%
%ADD30R,0.02756X0.02756*%
%ADD31R,0.01968X0.05512*%
%ADD32R,0.02756X0.02953*%
%ADD33R,0.07480X0.01772*%
%ADD34R,0.02756X0.03543*%
%ADD35R,0.02559X0.04724*%
%ADD36R,0.09449X0.01772*%
%ADD37R,0.11417X0.01772*%
%ADD38R,0.02362X0.02362*%
%ADD39R,0.03937X0.17717*%
%ADD40R,0.06299X0.11811*%
%ADD41C,0.03937*%
%ADD42R,0.03898X0.01181*%
%ADD43R,0.07480X0.03543*%
%ADD44R,0.04528X0.07087*%
%ADD45R,0.00984X0.01968*%
%ADD46R,0.09449X0.03307*%
%ADD47R,0.04134X0.03937*%
%ADD48R,0.08661X0.04134*%
%ADD49R,0.02756X0.03937*%
%ADD50R,0.01181X0.01968*%
%ADD51R,0.03937X0.03150*%
%ADD52R,0.05709X0.06693*%
%ADD53R,0.12598X0.06693*%
%ADD54R,0.05906X0.18583*%
%ADD55R,0.05906X0.10709*%
%ADD56R,0.11811X0.06299*%
%ADD57R,0.21654X0.03937*%
%ADD58R,0.00984X0.00984*%
%ADD59R,0.05315X0.01575*%
%ADD60R,0.06299X0.08268*%
%ADD61R,0.07480X0.07480*%
%ADD62R,0.07480X0.07087*%
%ADD63R,0.04016X0.02520*%
%ADD64R,0.04134X0.08661*%
%ADD65R,0.03937X0.04134*%
%ADD66R,0.07087X0.04528*%
%ADD73C,0.05598*%
%ADD131C,0.01968*%
%ADD132C,0.01575*%
%ADD133R,0.18307X0.16339*%
%ADD134C,0.00984*%
%ADD135C,0.00906*%
%ADD136C,0.01968*%
%ADD137C,0.02953*%
%ADD138C,0.02362*%
%ADD139C,0.07874*%
%ADD140C,0.01024*%
%ADD141C,0.03091*%
%ADD142C,0.04724*%
%ADD143C,0.02756*%
%ADD144R,0.10780X0.08151*%
%ADD145R,0.09921X0.02913*%
%ADD146R,0.10625X0.06487*%
%ADD147R,0.27705X0.13251*%
%ADD148C,0.06299*%
%ADD149R,0.06299X0.06299*%
%ADD150C,0.06000*%
%ADD151R,0.07638X0.07638*%
%ADD152C,0.23622*%
%ADD153R,0.07677X0.06299*%
%ADD154R,0.06299X0.07874*%
%ADD155C,0.01772*%
%ADD156C,0.05000*%
G36*
X136811Y378346D02*
X134646D01*
X134577Y378343D01*
X134509Y378334D01*
X134442Y378320D01*
X134376Y378299D01*
X134313Y378273D01*
X134252Y378241D01*
X134194Y378204D01*
X134140Y378162D01*
X134089Y378116D01*
X134043Y378065D01*
X134001Y378011D01*
X133964Y377953D01*
X133932Y377892D01*
X133906Y377828D01*
X133885Y377763D01*
X133870Y377696D01*
X133861Y377628D01*
X133858Y377559D01*
Y355906D01*
X133861Y355837D01*
X133870Y355769D01*
X133885Y355702D01*
X133906Y355636D01*
X133932Y355573D01*
X133964Y355512D01*
X134001Y355454D01*
X134043Y355399D01*
X134089Y355349D01*
X134140Y355302D01*
X134194Y355260D01*
X134252Y355224D01*
X134313Y355192D01*
X134376Y355166D01*
X134442Y355145D01*
X134509Y355130D01*
X134577Y355121D01*
X134646Y355118D01*
X142521D01*
X142589Y355115D01*
X142658Y355106D01*
X142725Y355091D01*
X142790Y355071D01*
X142854Y355044D01*
X142915Y355013D01*
X142973Y354976D01*
X143027Y354934D01*
X143078Y354888D01*
X143124Y354837D01*
X143166Y354782D01*
X143203Y354724D01*
X143235Y354663D01*
X143261Y354600D01*
X143281Y354535D01*
X143296Y354467D01*
X143305Y354399D01*
X143308Y354331D01*
Y351260D01*
X138858D01*
X138622Y351496D01*
X131496D01*
Y377756D01*
X131494Y377807D01*
X131487Y377858D01*
X131476Y377909D01*
X131460Y377958D01*
X131441Y378006D01*
X131417Y378051D01*
X131389Y378095D01*
X131358Y378135D01*
X131323Y378173D01*
X131285Y378208D01*
X131244Y378240D01*
X131201Y378267D01*
X131155Y378291D01*
X131107Y378311D01*
X131058Y378326D01*
X131008Y378338D01*
X130957Y378344D01*
X130905Y378346D01*
Y389055D01*
X136811D01*
Y378346D01*
D02*
G37*
G36*
X179331D02*
X177953D01*
X177884Y378343D01*
X177816Y378334D01*
X177749Y378320D01*
X177683Y378299D01*
X177620Y378273D01*
X177559Y378241D01*
X177501Y378204D01*
X177447Y378162D01*
X177396Y378116D01*
X177350Y378065D01*
X177308Y378011D01*
X177271Y377953D01*
X177239Y377892D01*
X177213Y377828D01*
X177192Y377763D01*
X177177Y377696D01*
X177168Y377628D01*
X177165Y377559D01*
Y353150D01*
X177165D01*
X177168Y353081D01*
X177177Y353013D01*
X177192Y352946D01*
X177213Y352880D01*
X177239Y352817D01*
X177271Y352756D01*
X177308Y352698D01*
X177350Y352643D01*
X177396Y352593D01*
X177447Y352546D01*
X177501Y352505D01*
X177559Y352468D01*
X177620Y352436D01*
X177683Y352410D01*
X177749Y352389D01*
X177816Y352374D01*
X177884Y352365D01*
X177953Y352362D01*
X178386D01*
Y349843D01*
X174370D01*
Y352362D01*
X174803D01*
X174872Y352365D01*
X174940Y352374D01*
X175007Y352389D01*
X175073Y352410D01*
X175136Y352436D01*
X175197Y352468D01*
X175255Y352505D01*
X175309Y352546D01*
X175360Y352593D01*
X175406Y352643D01*
X175448Y352698D01*
X175485Y352756D01*
X175517Y352817D01*
X175543Y352880D01*
X175564Y352946D01*
X175579Y353013D01*
X175588Y353081D01*
X175591Y353150D01*
Y377559D01*
X175588Y377628D01*
X175579Y377696D01*
X175564Y377763D01*
X175543Y377828D01*
X175517Y377892D01*
X175485Y377953D01*
X175448Y378011D01*
X175406Y378065D01*
X175360Y378116D01*
X175309Y378162D01*
X175255Y378204D01*
X175197Y378241D01*
X175136Y378273D01*
X175073Y378299D01*
X175007Y378320D01*
X174940Y378334D01*
X174872Y378343D01*
X174803Y378346D01*
X173425D01*
Y389055D01*
X179331D01*
Y378346D01*
D02*
G37*
G36*
X299394Y179543D02*
X272638D01*
X272331Y179482D01*
X272070Y179308D01*
X271896Y179047D01*
X271835Y178740D01*
Y170079D01*
X271896Y169772D01*
X272070Y169511D01*
X272331Y169337D01*
X272638Y169276D01*
X280906D01*
Y161625D01*
X294291D01*
Y169276D01*
X299394D01*
Y25548D01*
X298894Y25432D01*
X298253Y26732D01*
X298204Y26795D01*
X298174Y26868D01*
X296941Y28714D01*
X296885Y28770D01*
X296845Y28839D01*
X295382Y30507D01*
X295319Y30555D01*
X295271Y30618D01*
X293602Y32081D01*
X293533Y32121D01*
X293477Y32177D01*
X291632Y33410D01*
X291559Y33441D01*
X291496Y33489D01*
X289505Y34471D01*
X289429Y34491D01*
X289360Y34531D01*
X287258Y35244D01*
X287180Y35255D01*
X287106Y35285D01*
X284930Y35718D01*
X284850D01*
X284773Y35739D01*
X282559Y35884D01*
X282480Y35873D01*
X282401Y35884D01*
X280187Y35739D01*
X280110Y35718D01*
X280031D01*
X277854Y35285D01*
X277781Y35255D01*
X277702Y35244D01*
X275601Y34531D01*
X275532Y34491D01*
X275455Y34471D01*
X273465Y33489D01*
X273402Y33441D01*
X273328Y33410D01*
X271483Y32177D01*
X271427Y32121D01*
X271358Y32081D01*
X269690Y30618D01*
X269642Y30555D01*
X269579Y30507D01*
X268115Y28839D01*
X268076Y28770D01*
X268019Y28714D01*
X266787Y26868D01*
X266756Y26795D01*
X266708Y26732D01*
X266217Y25736D01*
X265730Y25850D01*
Y75925D01*
X265646Y76348D01*
X265406Y76706D01*
X226340Y115772D01*
Y118409D01*
X227122Y118733D01*
X227904Y119333D01*
X228503Y120114D01*
X228880Y121024D01*
X229009Y122000D01*
X228880Y122976D01*
X228503Y123886D01*
X227904Y124668D01*
X227453Y125013D01*
X227623Y125513D01*
X232850D01*
X233019Y125013D01*
X232569Y124668D01*
X231969Y123886D01*
X231592Y122976D01*
X231464Y122000D01*
X231592Y121024D01*
X231969Y120114D01*
X232569Y119333D01*
X233350Y118733D01*
X234260Y118356D01*
X235236Y118228D01*
X236213Y118356D01*
X237122Y118733D01*
X237904Y119333D01*
X238503Y120114D01*
X238880Y121024D01*
X239009Y122000D01*
X238880Y122976D01*
X238503Y123886D01*
X237904Y124668D01*
X237453Y125013D01*
X237623Y125513D01*
X240162D01*
X241496Y124179D01*
Y118260D01*
X248976D01*
Y125740D01*
X243057D01*
X241400Y127398D01*
X241041Y127637D01*
X240619Y127721D01*
X133868D01*
X133446Y127637D01*
X133088Y127398D01*
X129456Y123766D01*
X129233Y123432D01*
X129095Y123406D01*
X128705Y123399D01*
X128503Y123886D01*
X127904Y124668D01*
X127122Y125267D01*
X126917Y125352D01*
X126844Y125556D01*
X126834Y125928D01*
X141726Y140819D01*
X141965Y141177D01*
X142049Y141600D01*
Y156399D01*
X142336Y156828D01*
X142450Y157404D01*
X142336Y157980D01*
X142009Y158469D01*
X141521Y158795D01*
X141401Y158819D01*
X141236Y159362D01*
X143103Y161228D01*
X143343Y161587D01*
X143427Y162009D01*
Y199002D01*
X169698Y225274D01*
X234520D01*
X240188Y219607D01*
X240546Y219367D01*
X240968Y219283D01*
X241138D01*
X241306Y219171D01*
X241729Y219087D01*
X265923D01*
X266114Y218625D01*
X257763Y210273D01*
X257236D01*
Y214721D01*
X256710D01*
X256443Y215220D01*
X256619Y215483D01*
X256733Y216059D01*
X256619Y216636D01*
X256292Y217124D01*
X255804Y217450D01*
X255228Y217565D01*
X254652Y217450D01*
X254164Y217124D01*
X253837Y216636D01*
X253723Y216059D01*
X253837Y215483D01*
X254013Y215220D01*
X253746Y214721D01*
X253220D01*
Y210273D01*
X252252D01*
X251829Y210189D01*
X251471Y209950D01*
X245715Y204194D01*
X245476Y203836D01*
X245392Y203413D01*
Y202834D01*
X244892Y202629D01*
X244517Y202879D01*
X243903Y203001D01*
X243903Y203001D01*
X243633D01*
X243174Y203600D01*
X242528Y204095D01*
X241776Y204407D01*
X240969Y204513D01*
X240162Y204407D01*
X239411Y204095D01*
X238765Y203600D01*
X238270Y202954D01*
X237958Y202202D01*
X237852Y201396D01*
X237958Y200589D01*
X238270Y199837D01*
X238765Y199191D01*
X239411Y198696D01*
X240162Y198385D01*
X240969Y198278D01*
X241776Y198385D01*
X241819Y198403D01*
X242203Y198561D01*
X242702Y198227D01*
X242702Y198206D01*
X242702D01*
Y194190D01*
X244731D01*
X245216Y193704D01*
Y190252D01*
X255649D01*
Y193795D01*
X253405D01*
Y194583D01*
X253328Y194967D01*
X253111Y195293D01*
X252821Y195582D01*
X253002Y196082D01*
X253698D01*
Y196082D01*
X254198Y196244D01*
X254292Y196122D01*
X254908Y195649D01*
X255627Y195352D01*
X256398Y195250D01*
X257169Y195352D01*
X257887Y195649D01*
X258504Y196122D01*
X259189Y196808D01*
X260934Y198553D01*
X278740D01*
X279511Y198655D01*
X279803Y198776D01*
X290354D01*
Y204287D01*
X279803D01*
X279511Y204408D01*
X278740Y204510D01*
X259957D01*
X259695Y204519D01*
X259415Y204977D01*
X259373Y205298D01*
X259075Y206017D01*
X258602Y206633D01*
X257985Y207107D01*
X257267Y207404D01*
X257236Y207408D01*
Y208065D01*
X258220D01*
X258643Y208149D01*
X259001Y208389D01*
X273418Y222807D01*
X273658Y223165D01*
X273742Y223587D01*
Y271539D01*
X273658Y271962D01*
X273418Y272320D01*
X264852Y280886D01*
X264494Y281125D01*
X264072Y281209D01*
X212284D01*
X212239Y281277D01*
X211751Y281603D01*
X211174Y281718D01*
X210598Y281603D01*
X210110Y281277D01*
X209784Y280789D01*
X209669Y280213D01*
X209784Y279637D01*
X210110Y279148D01*
X210598Y278822D01*
X211174Y278707D01*
X211751Y278822D01*
X212019Y279001D01*
X249016D01*
Y266326D01*
X256890D01*
Y279001D01*
X263615D01*
X270317Y272299D01*
X270125Y271837D01*
X266732D01*
Y252546D01*
X268384D01*
Y242930D01*
X266732D01*
Y223638D01*
X267828D01*
X268036Y223138D01*
X266192Y221294D01*
X262469D01*
X262278Y221756D01*
X262395Y221873D01*
X262634Y222232D01*
X262718Y222654D01*
Y223638D01*
X264370D01*
Y242930D01*
X262718D01*
Y252546D01*
X264370D01*
Y271837D01*
X258858D01*
Y252546D01*
X260510D01*
Y242930D01*
X258858D01*
Y223638D01*
X260510D01*
Y223111D01*
X260465Y223066D01*
X242078D01*
X236410Y228733D01*
X236052Y228973D01*
X235630Y229057D01*
X168589D01*
X168166Y228973D01*
X167808Y228733D01*
X139968Y200892D01*
X139728Y200534D01*
X139644Y200112D01*
Y164113D01*
X137433Y161902D01*
X137126Y161841D01*
X136638Y161515D01*
X136534Y161360D01*
X136034Y161511D01*
Y162916D01*
X135760D01*
Y164894D01*
X136034D01*
Y168437D01*
X124532D01*
X124265Y168937D01*
X124333Y169039D01*
X124448Y169615D01*
X124333Y170191D01*
X124261Y170299D01*
X124528Y170799D01*
X136034D01*
Y174343D01*
X131823D01*
Y199619D01*
X202742Y270538D01*
X202982Y270896D01*
X203066Y271319D01*
Y292936D01*
X206649D01*
X206966Y292549D01*
X206960Y292516D01*
Y286029D01*
X207051Y285568D01*
X207312Y285177D01*
X207703Y284916D01*
X208164Y284824D01*
X218789D01*
X219249Y284916D01*
X219640Y285177D01*
X219901Y285568D01*
X219993Y286029D01*
Y292516D01*
X219901Y292977D01*
X219640Y293367D01*
X219249Y293628D01*
X218789Y293720D01*
X217119D01*
Y300613D01*
X173025D01*
Y292936D01*
X179204D01*
Y290318D01*
X179139Y290305D01*
X178651Y289979D01*
X178325Y289490D01*
X178210Y288914D01*
X178325Y288338D01*
X178651Y287850D01*
X179139Y287524D01*
X179715Y287409D01*
X180291Y287524D01*
X180673Y287778D01*
X181049Y287649D01*
X181173Y287557D01*
Y286508D01*
X180954Y286378D01*
X180673Y286299D01*
X180254Y286578D01*
X179678Y286693D01*
X179102Y286578D01*
X178614Y286252D01*
X178288Y285764D01*
X178187Y285258D01*
X110046Y217117D01*
X109807Y216759D01*
X109723Y216336D01*
Y153589D01*
X108264Y152130D01*
X100511D01*
X100320Y152593D01*
X101033Y153305D01*
X101539Y153406D01*
X102027Y153732D01*
X102354Y154221D01*
X102468Y154797D01*
X102354Y155373D01*
X102027Y155861D01*
X101539Y156187D01*
X100963Y156302D01*
X100926Y156295D01*
X100540Y156612D01*
Y187270D01*
X100448Y187731D01*
X100187Y188122D01*
X99796Y188383D01*
X99335Y188475D01*
X93335Y188475D01*
X92874Y188383D01*
X92484Y188122D01*
X92223Y187731D01*
X92131Y187270D01*
Y183223D01*
X89846Y180938D01*
X89846Y180938D01*
X89831Y180915D01*
X89807Y180899D01*
X89807Y180899D01*
X89719Y180810D01*
X86878Y180810D01*
X86639Y181102D01*
X86559Y181506D01*
Y182667D01*
X86639Y183071D01*
X86559Y183474D01*
Y185471D01*
X87153Y186066D01*
X87814D01*
X88275Y186158D01*
X88665Y186419D01*
X88665Y186419D01*
X99230Y196983D01*
X99491Y197374D01*
X99582Y197835D01*
X99582Y197835D01*
Y211614D01*
X99491Y212075D01*
X99230Y212466D01*
X98839Y212727D01*
X98378Y212818D01*
X86764D01*
X86303Y212727D01*
X85913Y212466D01*
X85651Y212075D01*
X85560Y211614D01*
Y193759D01*
X83086Y191285D01*
X82824Y190894D01*
X82733Y190433D01*
X82733Y190433D01*
Y183474D01*
X82652Y183071D01*
X82733Y182667D01*
Y181506D01*
X82652Y181102D01*
X82750Y180611D01*
X82969Y180283D01*
X82824Y180067D01*
X82733Y179606D01*
Y179537D01*
X82652Y179134D01*
X82733Y178730D01*
X82733Y177569D01*
X82652Y177165D01*
X82750Y176674D01*
X83029Y176257D01*
X82833Y175813D01*
X82811Y175779D01*
X82750Y175688D01*
X82652Y175197D01*
X82750Y174705D01*
X83029Y174289D01*
X83446Y174010D01*
X83937Y173912D01*
X85354D01*
X85846Y174010D01*
X86263Y174289D01*
X86266Y174294D01*
X86861D01*
X86984Y174109D01*
X87375Y173848D01*
X87835Y173756D01*
X89185D01*
X89342Y173651D01*
X89494Y173621D01*
Y171221D01*
X86813D01*
X86605Y171428D01*
X86541Y171751D01*
X86263Y172168D01*
X85846Y172447D01*
X85354Y172544D01*
X83937D01*
X83446Y172447D01*
X83029Y172168D01*
X82750Y171751D01*
X82652Y171260D01*
X82750Y170768D01*
X83029Y170352D01*
X83446Y170073D01*
X83937Y169975D01*
X85220D01*
X85865Y169330D01*
X86191Y169112D01*
X86575Y169036D01*
X86683D01*
Y167205D01*
X88599D01*
Y153902D01*
X69903D01*
X69724Y154081D01*
Y156535D01*
X68820D01*
Y158425D01*
X69724D01*
Y162441D01*
X68720D01*
Y171238D01*
X71675Y174193D01*
X72148D01*
X72422Y174010D01*
X72913Y173912D01*
X74331D01*
X74822Y174010D01*
X75239Y174289D01*
X75517Y174705D01*
X75615Y175197D01*
X75517Y175688D01*
X75447Y175794D01*
X75273Y176181D01*
X75447Y176568D01*
X75517Y176674D01*
X75615Y177165D01*
X75517Y177657D01*
X75447Y177763D01*
X75273Y178150D01*
X75447Y178536D01*
X75517Y178642D01*
X75615Y179134D01*
X75517Y179625D01*
X75447Y179731D01*
X75273Y180118D01*
X75447Y180505D01*
X75517Y180611D01*
X75615Y181102D01*
X75535Y181506D01*
Y182667D01*
X75615Y183071D01*
X75535Y183475D01*
X75535Y194745D01*
X77773Y196983D01*
X77773Y196983D01*
X78034Y197374D01*
X78126Y197835D01*
X78126Y197835D01*
Y211614D01*
X78034Y212075D01*
X77773Y212466D01*
X77382Y212727D01*
X76921Y212818D01*
X67537D01*
X67346Y213280D01*
X72940Y218875D01*
X95917Y218875D01*
X96378Y218966D01*
X96769Y219227D01*
X97030Y219618D01*
X97122Y220079D01*
X97122Y249999D01*
X97076Y250228D01*
X97030Y250460D01*
X97030Y250460D01*
X97030Y250460D01*
X96899Y250656D01*
X96769Y250851D01*
X96769Y250851D01*
X96769Y250851D01*
X96575Y250980D01*
X96378Y251112D01*
X96378Y251112D01*
X96378Y251112D01*
X96147Y251158D01*
X95917Y251203D01*
X93719Y251204D01*
X93719Y251204D01*
X93365Y251643D01*
Y256890D01*
X93274Y257351D01*
X93013Y257741D01*
X92622Y258002D01*
X92161Y258094D01*
X81381D01*
X80920Y258002D01*
X80529Y257741D01*
X80268Y257351D01*
X80177Y256890D01*
Y251559D01*
X79823Y251205D01*
X77515Y251205D01*
X77515Y251205D01*
X77515Y251205D01*
X77248Y251152D01*
X77054Y251114D01*
X77054Y251114D01*
X77054Y251114D01*
X76877Y250996D01*
X76663Y250853D01*
X76663Y250853D01*
X76663Y250853D01*
X68756Y242946D01*
X68742Y242924D01*
X68721Y242909D01*
X68612Y242729D01*
X68495Y242555D01*
X68490Y242529D01*
X68476Y242507D01*
X68444Y242300D01*
X68403Y242094D01*
X68408Y242068D01*
X68404Y242043D01*
X68454Y241839D01*
X68495Y241633D01*
X68509Y241612D01*
X68516Y241586D01*
X68740Y241104D01*
X68830Y240981D01*
X68901Y240847D01*
X68967Y240793D01*
X68991Y240760D01*
X68954Y240578D01*
X68818Y240261D01*
X60042D01*
X60042Y240261D01*
X58860Y240105D01*
X57759Y239649D01*
X56813Y238923D01*
X56813Y238923D01*
X54962Y237072D01*
X48822D01*
Y229651D01*
Y224473D01*
X49744D01*
X50038Y223973D01*
X49977Y223668D01*
X49977Y223668D01*
Y220220D01*
X48717D01*
Y207622D01*
X49977D01*
Y154669D01*
X50068Y154208D01*
X50330Y153818D01*
X50720Y153557D01*
X51181Y153465D01*
X62165Y153465D01*
X62626Y153557D01*
X63017Y153818D01*
X63278Y154208D01*
X63370Y154669D01*
Y155331D01*
X65316D01*
X65709Y154962D01*
Y152520D01*
X65441Y152130D01*
X9746D01*
X9055Y152821D01*
Y158740D01*
X803D01*
Y262244D01*
X6890Y262244D01*
Y261607D01*
Y253347D01*
X8910D01*
Y251403D01*
X8921Y251352D01*
X9038Y250460D01*
X9084Y250108D01*
X9584Y248901D01*
X10380Y247864D01*
X11416Y247069D01*
X12623Y246569D01*
X13867Y246405D01*
X13919Y246395D01*
X16902D01*
Y246008D01*
X19529D01*
Y246008D01*
X28741D01*
Y246395D01*
X36459D01*
X36520Y246407D01*
X37735Y246567D01*
X38924Y247059D01*
X39945Y247843D01*
X40729Y248864D01*
X41221Y250053D01*
X41381Y251268D01*
X41393Y251329D01*
Y253397D01*
X41751D01*
Y256940D01*
Y261350D01*
Y264893D01*
Y270483D01*
X41364D01*
Y271145D01*
X41354Y271196D01*
D01*
Y272597D01*
X41665Y272976D01*
X41800D01*
Y273252D01*
X44098D01*
Y272245D01*
X44098D01*
X44098Y271851D01*
X44098D01*
Y267836D01*
X51657D01*
Y268740D01*
X56792D01*
X57214Y268824D01*
X57573Y269063D01*
X61485Y272976D01*
X65567Y277058D01*
D01*
X77760Y289250D01*
X112184D01*
X112613Y288964D01*
X113189Y288849D01*
X113765Y288964D01*
X114253Y289290D01*
X114580Y289778D01*
X114694Y290354D01*
X114580Y290930D01*
X114253Y291419D01*
X113765Y291745D01*
X113189Y291860D01*
X112613Y291745D01*
X112184Y291458D01*
X77302D01*
X76880Y291374D01*
X76522Y291135D01*
X56335Y270948D01*
X51657D01*
Y271852D01*
X48370D01*
X48113Y272245D01*
Y276261D01*
X44098D01*
Y275259D01*
X41800D01*
Y275535D01*
X41012D01*
Y276322D01*
X41256Y276721D01*
X41826Y277291D01*
X42107Y277479D01*
X42915Y278287D01*
X45512D01*
Y282303D01*
X45950Y282451D01*
X59919D01*
X59959Y282390D01*
X60448Y282064D01*
X61024Y281949D01*
X61600Y282064D01*
X62088Y282390D01*
X62414Y282879D01*
X62529Y283455D01*
X62414Y284031D01*
X62088Y284519D01*
X61600Y284845D01*
X61024Y284960D01*
X60448Y284845D01*
X59959Y284519D01*
X59919Y284458D01*
X44262D01*
X43878Y284382D01*
X43552Y284164D01*
X42794Y283406D01*
X42577Y283081D01*
X42500Y282697D01*
Y282303D01*
X41496D01*
Y279707D01*
X40876Y279086D01*
X40595Y278899D01*
X40313Y278617D01*
X39813Y278824D01*
Y282667D01*
X40983D01*
Y287982D01*
X43246D01*
Y296644D01*
X31632Y296644D01*
Y287982D01*
X33896D01*
Y282667D01*
X34996D01*
Y277887D01*
X34924Y277524D01*
X35108Y276603D01*
X35303Y276310D01*
Y275830D01*
X35304Y275828D01*
Y273763D01*
X36298D01*
X36348Y273734D01*
X36669Y273263D01*
X36537Y272597D01*
Y271155D01*
X36547Y271104D01*
Y270483D01*
X36160D01*
Y264893D01*
Y261350D01*
Y256940D01*
Y253397D01*
X36576D01*
Y251693D01*
X36482Y251306D01*
X36095Y251212D01*
X28741D01*
Y251598D01*
X22493D01*
Y251598D01*
X16902D01*
Y251212D01*
X14164D01*
X13860Y251345D01*
X13727Y251648D01*
Y253347D01*
X15748D01*
Y254134D01*
X24606D01*
Y298229D01*
X14173D01*
Y290759D01*
Y290207D01*
X803Y290207D01*
Y346848D01*
X130276D01*
Y344882D01*
X131414D01*
Y344324D01*
X131426Y344268D01*
X131333Y343799D01*
X131035Y343355D01*
X130590Y343057D01*
X130122Y342964D01*
X130065Y342975D01*
X115611D01*
Y342976D01*
X114198Y342790D01*
X112882Y342245D01*
X111751Y341377D01*
X110883Y340246D01*
X110338Y338930D01*
X110152Y337517D01*
X110152D01*
Y336884D01*
X109993Y336655D01*
X109764Y336495D01*
X105935D01*
Y337630D01*
X100620D01*
Y339894D01*
X91959D01*
X91959Y328279D01*
X100620D01*
Y330543D01*
X105935D01*
Y331678D01*
X109882D01*
X109923Y331686D01*
X111198Y331854D01*
X112424Y332362D01*
X113477Y333170D01*
X114286Y334223D01*
X114794Y335450D01*
X114961Y336724D01*
X114970Y336766D01*
Y337517D01*
X114965Y337539D01*
X115010Y337766D01*
X115151Y337977D01*
X115362Y338118D01*
X115589Y338163D01*
X115611Y338158D01*
X130065D01*
X130231Y338192D01*
X131265Y338293D01*
X132419Y338643D01*
X133482Y339212D01*
X134414Y339976D01*
X135178Y340908D01*
X135747Y341971D01*
X136097Y343125D01*
X136198Y344158D01*
X136231Y344324D01*
Y344882D01*
X137441D01*
Y346848D01*
X299394D01*
Y179543D01*
D02*
G37*
G36*
X80177Y250001D02*
Y248739D01*
X80268Y248278D01*
X80529Y247887D01*
X80920Y247626D01*
X81381Y247535D01*
X82908D01*
Y244102D01*
X87239D01*
Y247535D01*
X92161D01*
X92622Y247626D01*
X93013Y247887D01*
X93274Y248278D01*
X93365Y248739D01*
Y249646D01*
X93719Y249999D01*
X95917Y249999D01*
X95917Y220079D01*
X72441Y220079D01*
X65149Y212787D01*
X64846Y212727D01*
X64456Y212466D01*
X64195Y212075D01*
X64135Y211772D01*
X63976Y211614D01*
X63976Y179134D01*
X65394Y177717D01*
Y156535D01*
X62165D01*
Y154669D01*
X51181Y154669D01*
Y223668D01*
X51593Y224080D01*
X59845D01*
Y226203D01*
X60301Y226577D01*
X61039Y227476D01*
X61587Y228502D01*
X61738Y228998D01*
X62500Y229760D01*
X69663D01*
X70820Y229874D01*
X71934Y230211D01*
X72960Y230760D01*
X73859Y231498D01*
X74597Y232397D01*
X75145Y233423D01*
X75483Y234536D01*
X75597Y235694D01*
X75483Y236852D01*
X75145Y237965D01*
X74597Y238991D01*
X73859Y239890D01*
X72960Y240628D01*
X71934Y241176D01*
X70820Y241514D01*
X69832Y241611D01*
X69608Y242094D01*
X77515Y250001D01*
X80177Y250001D01*
D02*
G37*
G36*
X186173Y284123D02*
X186662Y283797D01*
X187124Y283705D01*
X187368Y283380D01*
X187440Y283213D01*
X187387Y283104D01*
X187223Y283072D01*
X186735Y282746D01*
X186408Y282257D01*
X186294Y281681D01*
X186408Y281105D01*
X186735Y280617D01*
X187223Y280290D01*
X187370Y280261D01*
X187476Y279730D01*
X187181Y279533D01*
X186854Y279045D01*
X186740Y278469D01*
X186854Y277893D01*
X187181Y277404D01*
X187468Y277212D01*
X187496Y277097D01*
X187457Y276649D01*
X187094Y276407D01*
X186768Y275919D01*
X186654Y275343D01*
X186768Y274767D01*
X187094Y274278D01*
X187583Y273952D01*
X188159Y273837D01*
X188735Y273952D01*
X189223Y274278D01*
X189550Y274767D01*
X189650Y275273D01*
X194452Y280075D01*
X194952Y279868D01*
Y273756D01*
X124449Y203253D01*
X123949Y203460D01*
Y207314D01*
X185026Y268391D01*
X185265Y268749D01*
X185349Y269172D01*
Y284552D01*
X185847Y284612D01*
X186173Y284123D01*
D02*
G37*
G36*
X98378Y197835D02*
X87814Y187270D01*
X86654D01*
X85354Y185970D01*
Y181102D01*
X83937D01*
Y190433D01*
X86764Y193260D01*
Y211614D01*
X98378D01*
Y197835D01*
D02*
G37*
G36*
X76921D02*
X74331Y195244D01*
X74331Y181102D01*
X72913D01*
Y183543D01*
X65307Y191149D01*
Y211614D01*
X76921D01*
Y197835D01*
D02*
G37*
G36*
X71638Y183116D02*
X71629Y183071D01*
X71709Y182667D01*
Y181506D01*
X71637Y181142D01*
X67874D01*
Y180810D01*
X65181D01*
X65181Y188920D01*
X65643Y189111D01*
X71638Y183116D01*
D02*
G37*
G36*
X99335Y154730D02*
X98507Y153902D01*
X89803D01*
Y167205D01*
X90698D01*
Y170748D01*
Y174764D01*
X89803D01*
Y174961D01*
X87835D01*
Y176693D01*
X84290Y176693D01*
X83937Y177047D01*
X83937Y179606D01*
X90218Y179606D01*
X90659Y180047D01*
X90698D01*
Y180087D01*
X93335Y182724D01*
Y187270D01*
X99335Y187270D01*
Y154730D01*
D02*
G37*
G36*
X181055Y274049D02*
X181173Y273960D01*
Y270166D01*
X120096Y209089D01*
X119857Y208731D01*
X119773Y208309D01*
Y174343D01*
X119498D01*
Y172557D01*
X118324Y171383D01*
X118085Y171025D01*
X118001Y170602D01*
Y159969D01*
X117643Y159620D01*
X117246Y159879D01*
Y211286D01*
X179787Y273828D01*
X180294Y273929D01*
X180673Y274182D01*
X181055Y274049D01*
D02*
G37*
G36*
X137784Y155777D02*
Y151157D01*
X137284Y150883D01*
X136821Y150975D01*
X136245Y150860D01*
X135816Y150574D01*
X135217D01*
X134795Y150489D01*
X134437Y150250D01*
X132323Y148136D01*
X131823Y148344D01*
Y153467D01*
X136034D01*
Y156401D01*
X137161D01*
X137784Y155777D01*
D02*
G37*
G36*
X16443Y147689D02*
X7515Y138761D01*
X7283D01*
X7177Y138740D01*
X803D01*
Y141260D01*
X9055D01*
Y147179D01*
X10027Y148151D01*
X16252D01*
X16443Y147689D01*
D02*
G37*
G36*
X24671Y145917D02*
X7494Y128740D01*
X803D01*
Y131260D01*
X9055D01*
Y137179D01*
X18256Y146379D01*
X24480D01*
X24671Y145917D01*
D02*
G37*
G36*
X66858Y142374D02*
X51635Y127151D01*
X44929D01*
Y131953D01*
X37252D01*
Y131389D01*
X36774D01*
X36451Y131809D01*
X35917Y132220D01*
X35294Y132477D01*
X34626Y132565D01*
X33958Y132477D01*
X33335Y132220D01*
X32801Y131809D01*
X32613Y131565D01*
X32113Y131735D01*
Y136883D01*
X38067Y142836D01*
X66667D01*
X66858Y142374D01*
D02*
G37*
G36*
X36254Y144146D02*
X30229Y138121D01*
X29989Y137762D01*
X29906Y137340D01*
Y124534D01*
X29989Y124111D01*
X30229Y123753D01*
X32653Y121330D01*
X33011Y121090D01*
X33433Y121006D01*
X37252D01*
Y120142D01*
X44929D01*
Y123579D01*
X44929Y124079D01*
X44929D01*
Y124079D01*
X44929D01*
Y124943D01*
X52092D01*
X52515Y125027D01*
X52873Y125267D01*
X68671Y141065D01*
X83105D01*
X83297Y140603D01*
X52801Y110107D01*
X37427D01*
X31790Y115744D01*
X31432Y115983D01*
X31009Y116068D01*
X9055D01*
Y118740D01*
X803D01*
Y121260D01*
X9055D01*
Y127179D01*
X26484Y144608D01*
X36063D01*
X36254Y144146D01*
D02*
G37*
G36*
X36189Y108223D02*
X36547Y107984D01*
X36970Y107899D01*
X52446D01*
X52637Y107438D01*
X51303Y106104D01*
X9055D01*
Y108740D01*
X803D01*
Y111260D01*
X9055D01*
Y113860D01*
X30552D01*
X36189Y108223D01*
D02*
G37*
G36*
X12680Y103434D02*
X7986Y98740D01*
X803D01*
Y101260D01*
X9055D01*
Y103896D01*
X12489D01*
X12680Y103434D01*
D02*
G37*
G36*
X105331Y92659D02*
X105117Y92165D01*
X97122D01*
Y100215D01*
X97584Y100406D01*
X105331Y92659D01*
D02*
G37*
G36*
X21105Y101859D02*
X7986Y88740D01*
X803D01*
Y91260D01*
X9055D01*
Y96687D01*
X14690Y102321D01*
X20914D01*
X21105Y101859D01*
D02*
G37*
G36*
X89053Y133516D02*
X83317Y127780D01*
X83078Y127422D01*
X82994Y126999D01*
Y115453D01*
X83078Y115031D01*
X83317Y114673D01*
X94221Y103769D01*
X94030Y103307D01*
X77610D01*
X77149Y103215D01*
X76759Y102954D01*
X76498Y102563D01*
X76406Y102102D01*
X76406Y66119D01*
X76498Y65658D01*
X76759Y65267D01*
X77149Y65006D01*
X77610Y64914D01*
X95917D01*
X96378Y65006D01*
X96769Y65267D01*
X97030Y65658D01*
X97122Y66119D01*
Y76505D01*
X105315D01*
X105776Y76597D01*
X106167Y76858D01*
X106270Y77013D01*
X106770Y76862D01*
Y71323D01*
X94621Y59175D01*
X49163D01*
X48740Y59091D01*
X48382Y58851D01*
X47448Y57917D01*
X47208Y57559D01*
X47124Y57137D01*
Y31953D01*
X43845Y28674D01*
X43606Y28316D01*
X43522Y27894D01*
Y9528D01*
X40886D01*
Y803D01*
X38366D01*
Y9528D01*
X34370D01*
X34106Y9952D01*
X34471Y10691D01*
X34491Y10768D01*
X34531Y10837D01*
X35244Y12938D01*
X35255Y13017D01*
X35285Y13091D01*
X35718Y15267D01*
Y15347D01*
X35739Y15423D01*
X35884Y17638D01*
X35873Y17717D01*
X35884Y17795D01*
X35739Y20010D01*
X35718Y20087D01*
Y20166D01*
X35285Y22342D01*
X35255Y22416D01*
X35244Y22495D01*
X34531Y24596D01*
X34491Y24665D01*
X34471Y24742D01*
X33489Y26732D01*
X33441Y26795D01*
X33410Y26868D01*
X32177Y28714D01*
X32121Y28770D01*
X32081Y28839D01*
X30618Y30507D01*
X30555Y30555D01*
X30507Y30618D01*
X28839Y32081D01*
X28770Y32121D01*
X28714Y32177D01*
X26868Y33410D01*
X26795Y33441D01*
X26732Y33489D01*
X24742Y34471D01*
X24665Y34491D01*
X24596Y34531D01*
X22495Y35244D01*
X22416Y35255D01*
X22342Y35285D01*
X20166Y35718D01*
X20087D01*
X20010Y35739D01*
X17795Y35884D01*
X17717Y35873D01*
X17638Y35884D01*
X15423Y35739D01*
X15347Y35718D01*
X15267D01*
X13091Y35285D01*
X13017Y35255D01*
X12938Y35244D01*
X10837Y34531D01*
X10768Y34491D01*
X10691Y34471D01*
X8701Y33489D01*
X8638Y33441D01*
X8565Y33410D01*
X6720Y32177D01*
X6663Y32121D01*
X6595Y32081D01*
X4926Y30618D01*
X4878Y30555D01*
X4815Y30507D01*
X3351Y28839D01*
X3312Y28770D01*
X3256Y28714D01*
X2023Y26868D01*
X1992Y26795D01*
X1944Y26732D01*
X1303Y25432D01*
X803Y25548D01*
Y41260D01*
X9055D01*
Y42893D01*
X32896D01*
X33703Y43053D01*
X34387Y43510D01*
X36116Y45239D01*
X36573Y45923D01*
X36733Y46730D01*
Y67807D01*
X37229Y68302D01*
X68949D01*
Y66768D01*
X75051D01*
Y74052D01*
X75051D01*
Y74524D01*
X75051D01*
Y81808D01*
X68949D01*
Y80273D01*
X66929D01*
X66123Y80113D01*
X65439Y79656D01*
X64982Y78972D01*
X64822Y78166D01*
Y72517D01*
X56661D01*
Y77913D01*
X48787D01*
Y72517D01*
X47213D01*
Y77913D01*
X39339D01*
Y72517D01*
X36356D01*
X35549Y72357D01*
X34865Y71900D01*
X33136Y70170D01*
X32679Y69487D01*
X32519Y68680D01*
Y55384D01*
X32019Y55352D01*
X31963Y55775D01*
X31651Y56526D01*
X31156Y57172D01*
X30511Y57667D01*
X29759Y57979D01*
X28952Y58085D01*
X28145Y57979D01*
X27393Y57667D01*
X26748Y57172D01*
X26686Y57091D01*
X9055D01*
Y58740D01*
X803D01*
Y61260D01*
X9055D01*
Y62893D01*
X14212D01*
X15018Y63053D01*
X15702Y63510D01*
X35085Y82893D01*
X39339D01*
Y82244D01*
X47213D01*
Y82893D01*
X48787D01*
Y82244D01*
X56661D01*
Y82893D01*
X65716D01*
X66523Y83053D01*
X67207Y83510D01*
X68419Y84722D01*
X68876Y85406D01*
X69037Y86213D01*
Y86413D01*
X75051D01*
Y93697D01*
X75051D01*
Y94169D01*
X75051D01*
Y101453D01*
X69037D01*
Y105005D01*
X69133Y105079D01*
X69629Y105725D01*
X69940Y106477D01*
X70046Y107283D01*
X69940Y108090D01*
X69629Y108842D01*
X69133Y109488D01*
X68488Y109983D01*
X67736Y110294D01*
X66929Y110401D01*
X66122Y110294D01*
X65371Y109983D01*
X64725Y109488D01*
X64230Y108842D01*
X63918Y108090D01*
X63812Y107283D01*
X63918Y106477D01*
X64230Y105725D01*
X64725Y105079D01*
X64822Y105005D01*
Y97074D01*
X64322Y96904D01*
X64212Y97047D01*
X63566Y97542D01*
X62815Y97853D01*
X62008Y97960D01*
X61201Y97853D01*
X60449Y97542D01*
X59804Y97047D01*
X59729Y96950D01*
X56661D01*
Y97598D01*
X48787D01*
Y96950D01*
X47213D01*
Y97598D01*
X39339D01*
Y92087D01*
X47213D01*
Y92735D01*
X48787D01*
Y92087D01*
X56661D01*
Y92735D01*
X59729D01*
X59804Y92638D01*
X60449Y92143D01*
X61201Y91831D01*
X62008Y91725D01*
X62815Y91831D01*
X63566Y92143D01*
X64212Y92638D01*
X64322Y92781D01*
X64822Y92611D01*
Y90055D01*
Y87107D01*
X56661D01*
Y87756D01*
X48787D01*
Y87107D01*
X47213D01*
Y87756D01*
X39339D01*
Y87107D01*
X34212D01*
X33405Y86947D01*
X32722Y86490D01*
X13339Y67107D01*
X9055D01*
Y68740D01*
X803D01*
Y71260D01*
X9055D01*
Y78740D01*
X803D01*
Y81260D01*
X9055D01*
Y86687D01*
X23115Y100747D01*
X53622D01*
X54045Y100831D01*
X54403Y101070D01*
X87311Y133978D01*
X88862D01*
X89053Y133516D01*
D02*
G37*
G36*
X95917Y102072D02*
X95917Y66119D01*
X77610D01*
X77610Y102102D01*
X95887D01*
X95917Y102072D01*
D02*
G37*
G36*
X32519Y54552D02*
Y47603D01*
X32023Y47107D01*
X9055D01*
Y48740D01*
X803D01*
Y51260D01*
X9055D01*
Y52877D01*
X26661D01*
X26748Y52764D01*
X27393Y52268D01*
X28145Y51957D01*
X28952Y51851D01*
X29759Y51957D01*
X30511Y52268D01*
X31156Y52764D01*
X31651Y53409D01*
X31963Y54161D01*
X32019Y54584D01*
X32519Y54552D01*
D02*
G37*
G36*
X131969Y120114D02*
X132569Y119333D01*
X133350Y118733D01*
X134132Y118409D01*
Y115495D01*
X134216Y115073D01*
X134456Y114715D01*
X179133Y70037D01*
Y43673D01*
X178633Y43573D01*
X178503Y43886D01*
X177904Y44668D01*
X177122Y45267D01*
X176213Y45644D01*
X175236Y45772D01*
X174260Y45644D01*
X173350Y45267D01*
X172569Y44668D01*
X171969Y43886D01*
X171841Y43576D01*
X171341Y43675D01*
Y70495D01*
X171256Y70917D01*
X171017Y71275D01*
X126340Y115952D01*
Y118409D01*
X127122Y118733D01*
X127904Y119333D01*
X128503Y120114D01*
X128632Y120425D01*
X129132Y120326D01*
Y115574D01*
X129216Y115151D01*
X129456Y114793D01*
X174132Y70117D01*
Y51202D01*
X173846Y50773D01*
X173731Y50197D01*
X173846Y49621D01*
X174172Y49132D01*
X174660Y48806D01*
X175236Y48692D01*
X175812Y48806D01*
X176301Y49132D01*
X176627Y49621D01*
X176742Y50197D01*
X176627Y50773D01*
X176340Y51202D01*
Y70574D01*
X176340Y70574D01*
X176256Y70996D01*
X176017Y71354D01*
X131340Y116031D01*
Y120326D01*
X131840Y120425D01*
X131969Y120114D01*
D02*
G37*
G36*
X153019Y125013D02*
X152569Y124668D01*
X151969Y123886D01*
X151592Y122976D01*
X151464Y122000D01*
X151592Y121024D01*
X151969Y120114D01*
X152569Y119333D01*
X153350Y118733D01*
X154132Y118409D01*
Y115495D01*
X154216Y115073D01*
X154456Y114715D01*
X199133Y70037D01*
Y43673D01*
X198633Y43573D01*
X198503Y43886D01*
X197904Y44668D01*
X197122Y45267D01*
X196213Y45644D01*
X195236Y45772D01*
X194260Y45644D01*
X193350Y45267D01*
X192569Y44668D01*
X191969Y43886D01*
X191841Y43576D01*
X191341Y43675D01*
Y70495D01*
X191256Y70917D01*
X191017Y71275D01*
X146340Y115952D01*
Y118409D01*
X147122Y118733D01*
X147904Y119333D01*
X148503Y120114D01*
X148880Y121024D01*
X149009Y122000D01*
X148880Y122976D01*
X148503Y123886D01*
X147904Y124668D01*
X147453Y125013D01*
X147623Y125513D01*
X152850D01*
X153019Y125013D01*
D02*
G37*
G36*
X143019D02*
X142569Y124668D01*
X141969Y123886D01*
X141592Y122976D01*
X141464Y122000D01*
X141592Y121024D01*
X141969Y120114D01*
X142569Y119333D01*
X143350Y118733D01*
X144132Y118409D01*
Y115495D01*
X144216Y115073D01*
X144456Y114715D01*
X189133Y70037D01*
Y43673D01*
X188633Y43573D01*
X188503Y43886D01*
X187904Y44668D01*
X187122Y45267D01*
X186213Y45644D01*
X185236Y45772D01*
X184260Y45644D01*
X183350Y45267D01*
X182569Y44668D01*
X181969Y43886D01*
X181841Y43576D01*
X181341Y43675D01*
Y70495D01*
X181256Y70917D01*
X181017Y71275D01*
X136340Y115952D01*
Y118409D01*
X137122Y118733D01*
X137904Y119333D01*
X138503Y120114D01*
X138880Y121024D01*
X139009Y122000D01*
X138880Y122976D01*
X138503Y123886D01*
X137904Y124668D01*
X137453Y125013D01*
X137623Y125513D01*
X142850D01*
X143019Y125013D01*
D02*
G37*
G36*
X123019D02*
X122569Y124668D01*
X121969Y123886D01*
X121592Y122976D01*
X121464Y122000D01*
X121592Y121024D01*
X121969Y120114D01*
X122569Y119333D01*
X123350Y118733D01*
X124132Y118409D01*
Y115495D01*
X124216Y115073D01*
X124456Y114715D01*
X169133Y70037D01*
Y43673D01*
X168633Y43573D01*
X168503Y43886D01*
X167904Y44668D01*
X167122Y45267D01*
X166213Y45644D01*
X165236Y45772D01*
X164260Y45644D01*
X163350Y45267D01*
X162569Y44668D01*
X161969Y43886D01*
X161841Y43576D01*
X161341Y43675D01*
Y70495D01*
X161257Y70917D01*
X161017Y71275D01*
X116340Y115952D01*
Y118409D01*
X117122Y118733D01*
X117904Y119333D01*
X118503Y120114D01*
X118880Y121024D01*
X119009Y122000D01*
X118880Y122976D01*
X118503Y123886D01*
X117904Y124668D01*
X117453Y125013D01*
X117623Y125513D01*
X122850D01*
X123019Y125013D01*
D02*
G37*
G36*
X113019D02*
X112569Y124668D01*
X111969Y123886D01*
X111592Y122976D01*
X111464Y122000D01*
X111592Y121024D01*
X111969Y120114D01*
X112569Y119333D01*
X113350Y118733D01*
X114132Y118409D01*
Y115495D01*
X114216Y115073D01*
X114456Y114715D01*
X159133Y70037D01*
Y43673D01*
X158633Y43573D01*
X158503Y43886D01*
X157904Y44668D01*
X157122Y45267D01*
X156213Y45644D01*
X155236Y45772D01*
X154260Y45644D01*
X153350Y45267D01*
X152569Y44668D01*
X151969Y43886D01*
X151841Y43576D01*
X151341Y43675D01*
Y52093D01*
Y70495D01*
X151257Y70917D01*
X151017Y71275D01*
X106340Y115952D01*
Y118409D01*
X107122Y118733D01*
X107904Y119333D01*
X108503Y120114D01*
X108880Y121024D01*
X109009Y122000D01*
X108880Y122976D01*
X108503Y123886D01*
X107904Y124668D01*
X107453Y125013D01*
X107623Y125513D01*
X112850D01*
X113019Y125013D01*
D02*
G37*
G36*
X103019D02*
X102569Y124668D01*
X101969Y123886D01*
X101592Y122976D01*
X101464Y122000D01*
X101592Y121024D01*
X101969Y120114D01*
X102569Y119333D01*
X103350Y118733D01*
X104132Y118409D01*
Y115495D01*
X104216Y115073D01*
X104456Y114715D01*
X149133Y70037D01*
Y52093D01*
Y43673D01*
X148633Y43573D01*
X148503Y43886D01*
X147904Y44668D01*
X147122Y45267D01*
X146213Y45644D01*
X145236Y45772D01*
X144260Y45644D01*
X143350Y45267D01*
X142569Y44668D01*
X141969Y43886D01*
X141841Y43576D01*
X141341Y43675D01*
Y70495D01*
X141256Y70917D01*
X141017Y71275D01*
X96340Y115952D01*
Y118409D01*
X97122Y118733D01*
X97904Y119333D01*
X98503Y120114D01*
X98880Y121024D01*
X99009Y122000D01*
X98880Y122976D01*
X98503Y123886D01*
X97904Y124668D01*
X97453Y125013D01*
X97623Y125513D01*
X102850D01*
X103019Y125013D01*
D02*
G37*
G36*
X199133Y40327D02*
Y16389D01*
X199217Y15967D01*
X199456Y15609D01*
X203522Y11543D01*
Y9528D01*
X200886D01*
Y803D01*
X198366D01*
Y9528D01*
X195730D01*
Y12000D01*
X195646Y12422D01*
X195406Y12781D01*
X191341Y16847D01*
Y40325D01*
X191841Y40424D01*
X191969Y40114D01*
X192569Y39333D01*
X193350Y38733D01*
X194260Y38356D01*
X195236Y38228D01*
X196213Y38356D01*
X197122Y38733D01*
X197904Y39333D01*
X198503Y40114D01*
X198633Y40427D01*
X199133Y40327D01*
D02*
G37*
G36*
X189133D02*
Y16389D01*
X189217Y15967D01*
X189456Y15609D01*
X193522Y11543D01*
Y9528D01*
X190886D01*
Y803D01*
X188366D01*
Y9528D01*
X185730D01*
Y12000D01*
X185646Y12422D01*
X185406Y12781D01*
X181341Y16847D01*
Y40325D01*
X181841Y40424D01*
X181969Y40114D01*
X182569Y39333D01*
X183350Y38733D01*
X184260Y38356D01*
X185236Y38228D01*
X186213Y38356D01*
X187122Y38733D01*
X187904Y39333D01*
X188503Y40114D01*
X188633Y40427D01*
X189133Y40327D01*
D02*
G37*
G36*
X179133D02*
Y16389D01*
X179217Y15967D01*
X179456Y15609D01*
X183522Y11543D01*
Y9528D01*
X180886D01*
Y803D01*
X178366D01*
Y9528D01*
X175730D01*
Y12000D01*
X175646Y12422D01*
X175407Y12781D01*
X171341Y16847D01*
Y40325D01*
X171841Y40424D01*
X171969Y40114D01*
X172569Y39333D01*
X173350Y38733D01*
X174260Y38356D01*
X175236Y38228D01*
X176213Y38356D01*
X177122Y38733D01*
X177904Y39333D01*
X178503Y40114D01*
X178633Y40427D01*
X179133Y40327D01*
D02*
G37*
G36*
X169133D02*
Y16389D01*
X169217Y15967D01*
X169456Y15609D01*
X173522Y11543D01*
Y9528D01*
X170886D01*
Y803D01*
X168366D01*
Y9528D01*
X165730D01*
Y12000D01*
X165646Y12422D01*
X165407Y12781D01*
X161341Y16847D01*
Y40325D01*
X161841Y40424D01*
X161969Y40114D01*
X162569Y39333D01*
X163350Y38733D01*
X164260Y38356D01*
X165236Y38228D01*
X166213Y38356D01*
X167122Y38733D01*
X167904Y39333D01*
X168503Y40114D01*
X168633Y40427D01*
X169133Y40327D01*
D02*
G37*
G36*
X159133D02*
Y16389D01*
X159217Y15967D01*
X159456Y15609D01*
X163522Y11543D01*
Y9528D01*
X160886D01*
Y803D01*
X158366D01*
Y9528D01*
X155730D01*
Y12000D01*
X155646Y12422D01*
X155406Y12781D01*
X151341Y16847D01*
Y40325D01*
X151841Y40424D01*
X151969Y40114D01*
X152569Y39333D01*
X153350Y38733D01*
X154260Y38356D01*
X155236Y38228D01*
X156213Y38356D01*
X157122Y38733D01*
X157904Y39333D01*
X158503Y40114D01*
X158633Y40427D01*
X159133Y40327D01*
D02*
G37*
G36*
X149133D02*
Y16389D01*
X149217Y15967D01*
X149456Y15609D01*
X153522Y11543D01*
Y9528D01*
X150886D01*
Y803D01*
X148366D01*
Y9528D01*
X145730D01*
Y12000D01*
X145646Y12422D01*
X145406Y12781D01*
X141341Y16847D01*
Y40325D01*
X141841Y40424D01*
X141969Y40114D01*
X142569Y39333D01*
X143350Y38733D01*
X144260Y38356D01*
X145236Y38228D01*
X146213Y38356D01*
X147122Y38733D01*
X147904Y39333D01*
X148503Y40114D01*
X148633Y40427D01*
X149133Y40327D01*
D02*
G37*
G36*
X139133Y70037D02*
Y43673D01*
X138633Y43573D01*
X138503Y43886D01*
X137904Y44668D01*
X137122Y45267D01*
X136213Y45644D01*
X135236Y45772D01*
X134260Y45644D01*
X133350Y45267D01*
X132569Y44668D01*
X131969Y43886D01*
X131592Y42976D01*
X131464Y42000D01*
X131592Y41024D01*
X131969Y40114D01*
X132569Y39333D01*
X133350Y38733D01*
X134260Y38356D01*
X135236Y38228D01*
X136213Y38356D01*
X137122Y38733D01*
X137904Y39333D01*
X138503Y40114D01*
X138633Y40427D01*
X139133Y40327D01*
Y17493D01*
X74055D01*
X73632Y17409D01*
X73274Y17170D01*
X69596Y13491D01*
X69089Y13391D01*
X68601Y13064D01*
X68275Y12576D01*
X68160Y12000D01*
X68275Y11424D01*
X68601Y10936D01*
X69089Y10609D01*
X69665Y10495D01*
X70241Y10609D01*
X70730Y10936D01*
X71056Y11424D01*
X71157Y11930D01*
X74512Y15285D01*
X139779D01*
X143522Y11543D01*
Y9528D01*
X140886D01*
Y803D01*
X138366D01*
Y9528D01*
X130886D01*
Y803D01*
X128366D01*
Y9528D01*
X120886D01*
Y803D01*
X118366D01*
Y9528D01*
X110886D01*
Y803D01*
X108366D01*
Y9528D01*
X100886D01*
Y803D01*
X98366D01*
Y9528D01*
X90886D01*
Y803D01*
X88366D01*
Y9528D01*
X80886D01*
Y803D01*
X78366D01*
Y9528D01*
X70886D01*
Y803D01*
X68366D01*
Y9528D01*
X65730D01*
Y15940D01*
X68527Y18737D01*
X88340Y38550D01*
X88579Y38908D01*
X88663Y39331D01*
Y45640D01*
X93670Y50647D01*
X94132Y50456D01*
Y45591D01*
X93350Y45267D01*
X92569Y44668D01*
X91969Y43886D01*
X91592Y42976D01*
X91464Y42000D01*
X91592Y41024D01*
X91969Y40114D01*
X92569Y39333D01*
X93350Y38733D01*
X94260Y38356D01*
X95236Y38228D01*
X96213Y38356D01*
X97122Y38733D01*
X97904Y39333D01*
X98503Y40114D01*
X98880Y41024D01*
X99009Y42000D01*
X98880Y42976D01*
X98503Y43886D01*
X97904Y44668D01*
X97122Y45267D01*
X96340Y45591D01*
Y51090D01*
X101753Y56503D01*
X101753Y56503D01*
X103670Y58420D01*
X104132Y58229D01*
Y45591D01*
X103350Y45267D01*
X102569Y44668D01*
X101969Y43886D01*
X101592Y42976D01*
X101464Y42000D01*
X101592Y41024D01*
X101969Y40114D01*
X102569Y39333D01*
X103350Y38733D01*
X104260Y38356D01*
X105236Y38228D01*
X106213Y38356D01*
X107122Y38733D01*
X107904Y39333D01*
X108503Y40114D01*
X108880Y41024D01*
X109009Y42000D01*
X108880Y42976D01*
X108503Y43886D01*
X107904Y44668D01*
X107122Y45267D01*
X106340Y45591D01*
Y58863D01*
X114954Y67476D01*
X115193Y67835D01*
X115277Y68257D01*
Y69291D01*
Y93240D01*
X115739Y93431D01*
X139133Y70037D01*
D02*
G37*
G36*
X94179Y56505D02*
X85204Y47530D01*
X84964Y47172D01*
X84880Y46749D01*
Y40440D01*
X73103Y28663D01*
X64961D01*
X64538Y28579D01*
X64180Y28340D01*
X53845Y18005D01*
X53606Y17647D01*
X53522Y17224D01*
Y9528D01*
X50886D01*
Y803D01*
X48366D01*
Y9528D01*
X45730D01*
Y27437D01*
X49009Y30716D01*
X49078Y30819D01*
X49351Y31095D01*
X49737Y31173D01*
X51298D01*
Y30508D01*
X48868Y28079D01*
X48629Y27721D01*
X48545Y27299D01*
Y13005D01*
X48258Y12576D01*
X48144Y12000D01*
X48258Y11424D01*
X48584Y10936D01*
X49073Y10609D01*
X49649Y10495D01*
X50225Y10609D01*
X50713Y10936D01*
X51040Y11424D01*
X51154Y12000D01*
X51040Y12576D01*
X50753Y13005D01*
Y26841D01*
X53182Y29271D01*
X53421Y29629D01*
X53505Y30051D01*
Y31173D01*
X55138D01*
Y33613D01*
X58831D01*
X59253Y33697D01*
X59611Y33936D01*
X63152Y37476D01*
X63391Y37835D01*
X63475Y38257D01*
Y40992D01*
X64379D01*
Y40992D01*
X68395D01*
Y45008D01*
X64379D01*
Y48551D01*
X61924D01*
X61270Y49205D01*
Y51160D01*
X61557Y51589D01*
X61672Y52165D01*
X61557Y52741D01*
X61231Y53230D01*
X60742Y53556D01*
X60166Y53671D01*
X59590Y53556D01*
X59102Y53230D01*
X58776Y52741D01*
X58661Y52165D01*
X58776Y51589D01*
X59062Y51160D01*
Y48748D01*
X59147Y48326D01*
X59386Y47967D01*
X60363Y46990D01*
Y44535D01*
Y40992D01*
X61267D01*
Y38714D01*
X58373Y35820D01*
X55138D01*
Y38260D01*
X53387D01*
Y47512D01*
X55138D01*
Y54598D01*
X49429Y54598D01*
X49332Y55058D01*
Y56679D01*
X49620Y56967D01*
X93988D01*
X94179Y56505D01*
D02*
G37*
G36*
X223019Y125013D02*
X222569Y124668D01*
X221969Y123886D01*
X221592Y122976D01*
X221464Y122000D01*
X221592Y121024D01*
X221969Y120114D01*
X222569Y119333D01*
X223350Y118733D01*
X224132Y118409D01*
Y115315D01*
X224216Y114892D01*
X224456Y114534D01*
X263522Y75468D01*
Y9528D01*
X260886D01*
Y803D01*
X258366D01*
Y9528D01*
X255730D01*
Y34449D01*
Y66105D01*
X255646Y66528D01*
X255406Y66886D01*
X206340Y115952D01*
Y118409D01*
X207122Y118733D01*
X207904Y119333D01*
X208503Y120114D01*
X208880Y121024D01*
X209009Y122000D01*
X208880Y122976D01*
X208503Y123886D01*
X207904Y124668D01*
X207453Y125013D01*
X207623Y125513D01*
X222850D01*
X223019Y125013D01*
D02*
G37*
G36*
X203019D02*
X202569Y124668D01*
X201969Y123886D01*
X201592Y122976D01*
X201464Y122000D01*
X201592Y121024D01*
X201969Y120114D01*
X202569Y119333D01*
X203350Y118733D01*
X204132Y118409D01*
Y115495D01*
X204216Y115073D01*
X204456Y114715D01*
X253522Y65648D01*
Y34449D01*
Y9528D01*
X250886D01*
Y803D01*
X248366D01*
Y9528D01*
X245730D01*
Y34449D01*
Y66105D01*
X245646Y66528D01*
X245407Y66886D01*
X196340Y115952D01*
Y118409D01*
X197122Y118733D01*
X197904Y119333D01*
X198503Y120114D01*
X198880Y121024D01*
X199009Y122000D01*
X198880Y122976D01*
X198503Y123886D01*
X197904Y124668D01*
X197453Y125013D01*
X197623Y125513D01*
X202850D01*
X203019Y125013D01*
D02*
G37*
G36*
X193019D02*
X192569Y124668D01*
X191969Y123886D01*
X191592Y122976D01*
X191464Y122000D01*
X191592Y121024D01*
X191969Y120114D01*
X192569Y119333D01*
X193350Y118733D01*
X194132Y118409D01*
Y115495D01*
X194216Y115073D01*
X194456Y114715D01*
X243522Y65648D01*
Y34449D01*
Y9528D01*
X240886D01*
Y803D01*
X238366D01*
Y9528D01*
X235730D01*
Y34449D01*
Y66105D01*
X235646Y66528D01*
X235406Y66886D01*
X186340Y115952D01*
Y118409D01*
X187122Y118733D01*
X187904Y119333D01*
X188503Y120114D01*
X188880Y121024D01*
X189009Y122000D01*
X188880Y122976D01*
X188503Y123886D01*
X187904Y124668D01*
X187453Y125013D01*
X187623Y125513D01*
X192850D01*
X193019Y125013D01*
D02*
G37*
G36*
X183019D02*
X182569Y124668D01*
X181969Y123886D01*
X181592Y122976D01*
X181464Y122000D01*
X181592Y121024D01*
X181969Y120114D01*
X182569Y119333D01*
X183350Y118733D01*
X184132Y118409D01*
Y115495D01*
X184216Y115073D01*
X184456Y114715D01*
X233522Y65648D01*
Y34449D01*
Y9528D01*
X230886D01*
Y803D01*
X228366D01*
Y9528D01*
X225730D01*
Y66105D01*
X225646Y66528D01*
X225407Y66886D01*
X176340Y115952D01*
Y118409D01*
X177122Y118733D01*
X177904Y119333D01*
X178503Y120114D01*
X178880Y121024D01*
X179009Y122000D01*
X178880Y122976D01*
X178503Y123886D01*
X177904Y124668D01*
X177453Y125013D01*
X177623Y125513D01*
X182850D01*
X183019Y125013D01*
D02*
G37*
G36*
X173019D02*
X172569Y124668D01*
X171969Y123886D01*
X171592Y122976D01*
X171464Y122000D01*
X171592Y121024D01*
X171969Y120114D01*
X172569Y119333D01*
X173350Y118733D01*
X174132Y118409D01*
Y115495D01*
X174216Y115073D01*
X174456Y114715D01*
X223522Y65648D01*
Y9528D01*
X220886D01*
Y803D01*
X218366D01*
Y9528D01*
X215730D01*
Y34449D01*
X215671Y34746D01*
Y66164D01*
X215587Y66587D01*
X215348Y66945D01*
X166340Y115952D01*
Y118409D01*
X167122Y118733D01*
X167904Y119333D01*
X168503Y120114D01*
X168880Y121024D01*
X169009Y122000D01*
X168880Y122976D01*
X168503Y123886D01*
X167904Y124668D01*
X167453Y125013D01*
X167623Y125513D01*
X172850D01*
X173019Y125013D01*
D02*
G37*
G36*
X163019D02*
X162569Y124668D01*
X161969Y123886D01*
X161592Y122976D01*
X161464Y122000D01*
X161592Y121024D01*
X161969Y120114D01*
X162569Y119333D01*
X163350Y118733D01*
X164132Y118409D01*
Y115495D01*
X164216Y115073D01*
X164456Y114715D01*
X213463Y65707D01*
Y34508D01*
X213522Y34211D01*
Y9528D01*
X210886D01*
Y803D01*
X208366D01*
Y9528D01*
X205730D01*
Y12000D01*
X205646Y12422D01*
X205406Y12781D01*
X201341Y16847D01*
Y37824D01*
X201496Y38260D01*
X201841Y38260D01*
X208976D01*
Y45740D01*
X201841D01*
X201496Y45740D01*
X201341Y46176D01*
Y70495D01*
X201256Y70917D01*
X201017Y71275D01*
X156340Y115952D01*
Y118409D01*
X157122Y118733D01*
X157904Y119333D01*
X158503Y120114D01*
X158880Y121024D01*
X159009Y122000D01*
X158880Y122976D01*
X158503Y123886D01*
X157904Y124668D01*
X157453Y125013D01*
X157623Y125513D01*
X162850D01*
X163019Y125013D01*
D02*
G37*
G36*
X72660Y25993D02*
X66966Y20298D01*
X63845Y17178D01*
X63606Y16820D01*
X63522Y16398D01*
Y9528D01*
X60886D01*
Y803D01*
X58366D01*
Y9528D01*
X55730D01*
Y16767D01*
X65418Y26455D01*
X72469D01*
X72660Y25993D01*
D02*
G37*
%LPC*%
G36*
X198418Y330337D02*
X193694D01*
Y322660D01*
X198418D01*
Y330337D01*
D02*
G37*
G36*
X192513D02*
X187789D01*
Y322660D01*
X192513D01*
Y330337D01*
D02*
G37*
G36*
X186608D02*
X181883D01*
Y322660D01*
X186608D01*
Y330337D01*
D02*
G37*
G36*
X180702D02*
X175978D01*
Y322660D01*
X180702D01*
Y330337D01*
D02*
G37*
G36*
X237906Y339425D02*
X232394D01*
Y334701D01*
X234146D01*
Y334012D01*
X234223Y333628D01*
X234236Y333608D01*
X234308Y333137D01*
X234308Y333137D01*
Y329122D01*
X236933D01*
X237172Y328962D01*
X237556Y328886D01*
X237569D01*
X237615Y328839D01*
Y322547D01*
X237691Y322162D01*
X237909Y321837D01*
X238334Y321412D01*
Y320565D01*
X238263Y320512D01*
X237763Y320764D01*
Y320828D01*
X234634D01*
Y321504D01*
X234550Y321927D01*
X234311Y322285D01*
X233865Y322730D01*
Y325185D01*
X231654D01*
X231637Y325269D01*
X231398Y325627D01*
X230653Y326371D01*
X230574Y326769D01*
X230335Y327127D01*
X230322Y327140D01*
Y329594D01*
X230322Y329594D01*
Y329988D01*
X230322D01*
X230322Y330095D01*
Y334004D01*
X227936D01*
X227689Y334504D01*
X227839Y334701D01*
X231606D01*
Y339425D01*
X226095D01*
Y336262D01*
X224804Y334972D01*
X224565Y334614D01*
X224493Y334253D01*
X224370Y334170D01*
X224044Y333682D01*
X223929Y333106D01*
X224044Y332530D01*
X224370Y332041D01*
X224858Y331715D01*
X225434Y331600D01*
X225704Y331654D01*
X225950Y331193D01*
X225230Y330473D01*
X224991Y330115D01*
X224907Y329693D01*
Y323908D01*
X224706Y323758D01*
X224206Y324009D01*
Y329648D01*
X218104D01*
Y330337D01*
X215348D01*
Y322660D01*
X217907D01*
Y317247D01*
X217478Y317076D01*
X205733D01*
X205542Y317537D01*
X209561Y321557D01*
X209779Y321883D01*
X209855Y322267D01*
Y322660D01*
X212198D01*
Y330337D01*
X199600D01*
Y322660D01*
X207173D01*
X207364Y322198D01*
X203619Y318454D01*
X147076D01*
X146692Y318377D01*
X146366Y318160D01*
X138739Y310533D01*
X138578Y310425D01*
X137673Y309520D01*
X133071D01*
Y311371D01*
X125984D01*
Y305662D01*
X128524D01*
Y305087D01*
X128463Y305046D01*
X128137Y304558D01*
X128022Y303982D01*
X128137Y303406D01*
X128463Y302918D01*
X128952Y302591D01*
X129528Y302477D01*
X130104Y302591D01*
X130592Y302918D01*
X130918Y303406D01*
X131033Y303982D01*
X130918Y304558D01*
X130592Y305046D01*
X130531Y305087D01*
Y305662D01*
X133071D01*
Y307513D01*
X138089D01*
X138222Y307539D01*
X138464Y307211D01*
X138517Y307088D01*
X138253Y306451D01*
X138159Y305731D01*
X138253Y305012D01*
X138531Y304341D01*
X138973Y303766D01*
X139548Y303324D01*
X140219Y303046D01*
X140938Y302951D01*
X141658Y303046D01*
X142328Y303324D01*
X142904Y303766D01*
X143345Y304341D01*
X143623Y305012D01*
X143718Y305731D01*
X143623Y306451D01*
X143345Y307121D01*
X142904Y307697D01*
X142328Y308138D01*
X141658Y308416D01*
X140938Y308511D01*
X140219Y308416D01*
X140041Y308343D01*
X139758Y308767D01*
X139890Y308898D01*
X140051Y309006D01*
X147492Y316446D01*
X155690D01*
X155882Y315985D01*
X150071Y310174D01*
X149854Y309849D01*
X149777Y309465D01*
Y300613D01*
X149403D01*
Y292936D01*
X160033D01*
Y300613D01*
X159658D01*
Y305778D01*
X161335Y307455D01*
X210392D01*
X211322Y306524D01*
X211308Y306453D01*
X211423Y305877D01*
X211749Y305388D01*
X212237Y305062D01*
X212813Y304947D01*
X213389Y305062D01*
X213878Y305388D01*
X214204Y305877D01*
X214319Y306453D01*
X214204Y307029D01*
X213878Y307517D01*
X213389Y307843D01*
X212813Y307958D01*
X212742Y307944D01*
X211985Y308700D01*
X212192Y309200D01*
X217234D01*
X217404Y308700D01*
X217011Y308399D01*
X216411Y307617D01*
X216035Y306708D01*
X215906Y305731D01*
X216035Y304755D01*
X216411Y303845D01*
X217011Y303064D01*
X217792Y302464D01*
X218702Y302087D01*
X219678Y301959D01*
X220655Y302087D01*
X221565Y302464D01*
X222346Y303064D01*
X222945Y303845D01*
X223322Y304755D01*
X223451Y305731D01*
X223322Y306708D01*
X222945Y307617D01*
X222346Y308399D01*
X221953Y308700D01*
X222123Y309200D01*
X223489D01*
X223873Y309276D01*
X224198Y309494D01*
X225513Y310809D01*
X225952Y310985D01*
Y310985D01*
X225952Y310985D01*
X229211D01*
X229636Y310803D01*
Y307510D01*
X229447Y307473D01*
X229088Y307233D01*
X227907Y306052D01*
X227668Y305694D01*
X227584Y305272D01*
Y304661D01*
X225952D01*
Y301905D01*
X230961D01*
X231249Y301905D01*
X231480Y301429D01*
X231148Y301096D01*
X230930Y300771D01*
X230921Y300724D01*
X225952D01*
Y297969D01*
X227680D01*
Y297265D01*
X227393Y296836D01*
X227279Y296260D01*
X227393Y295684D01*
X227720Y295195D01*
X228208Y294869D01*
X228784Y294755D01*
X229360Y294869D01*
X229848Y295195D01*
X230175Y295684D01*
X230289Y296260D01*
X230175Y296836D01*
X229888Y297265D01*
Y297969D01*
X230854D01*
X230930Y297584D01*
X231148Y297259D01*
X231935Y296472D01*
X232260Y296254D01*
X232645Y296178D01*
X239365D01*
X239749Y296254D01*
X240074Y296472D01*
X241489Y297886D01*
X241706Y298212D01*
X241783Y298596D01*
Y300029D01*
X241706Y300413D01*
X241489Y300739D01*
X240735Y301493D01*
Y307799D01*
X240658Y308183D01*
X240441Y308508D01*
X240341Y308608D01*
Y314517D01*
X240368Y314654D01*
Y317951D01*
X240429Y317991D01*
X240755Y318480D01*
X240870Y319056D01*
X240755Y319632D01*
X240429Y320120D01*
X240341Y320179D01*
Y321828D01*
X240265Y322212D01*
X240047Y322537D01*
X239622Y322962D01*
Y329255D01*
X239546Y329639D01*
X239328Y329965D01*
X238694Y330599D01*
X238368Y330817D01*
X238323Y330825D01*
Y333137D01*
X236591D01*
Y333574D01*
X236514Y333958D01*
X236352Y334201D01*
X236440Y334490D01*
X236587Y334701D01*
X237906D01*
Y339425D01*
D02*
G37*
G36*
X149250Y338903D02*
X137266D01*
X136298Y338710D01*
X135478Y338162D01*
X118621Y321305D01*
X118072Y320484D01*
X117880Y319516D01*
Y282482D01*
X113517Y278119D01*
X80130D01*
X79162Y277927D01*
X78342Y277379D01*
X66029Y265066D01*
X41676Y240714D01*
X41128Y239893D01*
X40936Y238925D01*
Y237072D01*
X30318D01*
Y230139D01*
X28039D01*
X27578Y230048D01*
X27188Y229787D01*
X26927Y229396D01*
X26835Y228935D01*
Y226740D01*
X24024D01*
X23960Y226727D01*
X23896Y226733D01*
X23731Y226682D01*
X23563Y226648D01*
X23509Y226612D01*
X23447Y226593D01*
X23039Y226370D01*
X22907Y226260D01*
X22764Y226165D01*
X22728Y226111D01*
X22679Y226069D01*
X22599Y225917D01*
X22503Y225774D01*
X22490Y225710D01*
X22460Y225653D01*
X22445Y225482D01*
X22411Y225313D01*
Y214462D01*
X21912Y214145D01*
X21654Y214196D01*
X15066D01*
X13056Y216206D01*
X12666Y216467D01*
X12205Y216559D01*
X12205Y216559D01*
X4724D01*
X4264Y216467D01*
X3873Y216206D01*
X3612Y215815D01*
X3520Y215354D01*
Y173787D01*
X3520Y173787D01*
X3612Y173326D01*
X3873Y172935D01*
X3873Y172935D01*
X8743Y168066D01*
X9133Y167805D01*
X9594Y167713D01*
X9594Y167713D01*
X32181D01*
X32642Y167805D01*
X33033Y168066D01*
X33273Y168426D01*
X40543D01*
X41004Y168517D01*
X41395Y168778D01*
X41656Y169169D01*
X41748Y169630D01*
Y181748D01*
X41656Y182209D01*
X41395Y182600D01*
X41004Y182861D01*
X40543Y182952D01*
X22858D01*
X22858Y189646D01*
X22766Y190107D01*
X22505Y190498D01*
X22114Y190759D01*
X21654Y190851D01*
X14261Y190851D01*
X14261Y203520D01*
X15051D01*
X15551Y203102D01*
Y201378D01*
X15157D01*
Y197441D01*
Y194882D01*
X15551D01*
Y192717D01*
X22441D01*
Y194619D01*
X22824Y194695D01*
X37927D01*
X38895Y194888D01*
X39715Y195436D01*
X47064Y202784D01*
X47612Y203605D01*
X47804Y204573D01*
Y229651D01*
Y237128D01*
X56708Y246031D01*
X65567Y254890D01*
D01*
X81927Y271251D01*
X115315D01*
X116283Y271443D01*
X117103Y271991D01*
X124008Y278896D01*
X124556Y279716D01*
X124749Y280684D01*
Y317719D01*
X135949Y328919D01*
X136411Y328728D01*
Y317247D01*
X142710D01*
Y322660D01*
X145269D01*
Y330337D01*
X142513D01*
Y329648D01*
X137331D01*
X137140Y330110D01*
X139064Y332034D01*
X147346D01*
Y326895D01*
X147268Y326499D01*
X147460Y325531D01*
X148008Y324711D01*
X148025Y324699D01*
Y322267D01*
X153537D01*
Y324699D01*
X153553Y324711D01*
X153824Y325116D01*
X154324Y324964D01*
Y322660D01*
X154698D01*
Y321982D01*
X154775Y321598D01*
X154992Y321273D01*
X155583Y320682D01*
X155909Y320464D01*
X156293Y320388D01*
X157194D01*
X157234Y320327D01*
X157723Y320001D01*
X158299Y319886D01*
X158875Y320001D01*
X159363Y320327D01*
X159689Y320815D01*
X159804Y321391D01*
X159689Y321967D01*
X159561Y322160D01*
X159828Y322660D01*
X166922D01*
Y330337D01*
X154715D01*
X154324Y330337D01*
X154215Y330792D01*
Y333938D01*
X154023Y334906D01*
X153474Y335726D01*
X151038Y338162D01*
X150218Y338710D01*
X149250Y338903D01*
D02*
G37*
G36*
X14626Y330162D02*
X13290Y329986D01*
X12045Y329471D01*
X10976Y328650D01*
X10155Y327581D01*
X9640Y326336D01*
X9464Y325000D01*
X9640Y323664D01*
X10155Y322419D01*
X10976Y321350D01*
X12045Y320529D01*
X13290Y320014D01*
X14626Y319838D01*
X15962Y320014D01*
X17207Y320529D01*
X18276Y321350D01*
X19097Y322419D01*
X19612Y323664D01*
X19788Y325000D01*
X19612Y326336D01*
X19097Y327581D01*
X18276Y328650D01*
X17207Y329471D01*
X15962Y329986D01*
X14626Y330162D01*
D02*
G37*
G36*
X101840Y318566D02*
X94282D01*
Y317662D01*
X92964D01*
X92535Y317949D01*
X91959Y318063D01*
X91383Y317949D01*
X90894Y317622D01*
X90568Y317134D01*
X90453Y316558D01*
X90568Y315982D01*
X90894Y315493D01*
X91383Y315167D01*
X91959Y315053D01*
X92535Y315167D01*
X92964Y315454D01*
X94282D01*
Y314550D01*
X98913D01*
Y310524D01*
X97992D01*
Y306508D01*
X102008D01*
Y307513D01*
X109646D01*
Y305662D01*
X112185D01*
Y305087D01*
X112125Y305046D01*
X111798Y304558D01*
X111684Y303982D01*
X111798Y303406D01*
X112125Y302918D01*
X112613Y302591D01*
X113189Y302477D01*
X113765Y302591D01*
X114253Y302918D01*
X114580Y303406D01*
X114694Y303982D01*
X114580Y304558D01*
X114253Y305046D01*
X114192Y305087D01*
Y305662D01*
X116732D01*
Y311371D01*
X109646D01*
Y309520D01*
X102008D01*
Y310524D01*
X100920D01*
Y314550D01*
X101840D01*
Y318566D01*
D02*
G37*
G36*
X148222Y300613D02*
X143497D01*
Y297977D01*
X130282D01*
X129853Y298264D01*
X129277Y298378D01*
X128700Y298264D01*
X128212Y297937D01*
X127886Y297449D01*
X127771Y296873D01*
X127886Y296297D01*
X128212Y295808D01*
X128700Y295482D01*
X129277Y295368D01*
X129853Y295482D01*
X130282Y295769D01*
X143497D01*
Y292936D01*
X148222D01*
Y300613D01*
D02*
G37*
G36*
X109449Y299629D02*
X105118D01*
Y294117D01*
X109449D01*
Y295769D01*
X112184D01*
X112613Y295482D01*
X113189Y295368D01*
X113765Y295482D01*
X114253Y295808D01*
X114580Y296297D01*
X114694Y296873D01*
X114580Y297449D01*
X114253Y297937D01*
X113765Y298264D01*
X113189Y298378D01*
X112613Y298264D01*
X112184Y297977D01*
X109449D01*
Y299629D01*
D02*
G37*
G36*
X102756D02*
X98425D01*
Y298880D01*
X95272D01*
X94504Y298727D01*
X93852Y298292D01*
X93417Y297641D01*
X93265Y296873D01*
X93417Y296105D01*
X93852Y295454D01*
X94504Y295019D01*
X95272Y294866D01*
X98425D01*
Y294117D01*
X102756D01*
Y299629D01*
D02*
G37*
G36*
X165938Y300613D02*
X161214D01*
Y292936D01*
X161488D01*
Y289722D01*
X160704Y288938D01*
X132254D01*
X130768Y290424D01*
X130667Y290930D01*
X130341Y291419D01*
X129853Y291745D01*
X129277Y291860D01*
X128700Y291745D01*
X128212Y291419D01*
X127886Y290930D01*
X127771Y290354D01*
X127886Y289778D01*
X128212Y289290D01*
X128700Y288964D01*
X129207Y288863D01*
X131016Y287054D01*
X131374Y286814D01*
X131797Y286730D01*
X161161D01*
X161584Y286814D01*
X161942Y287054D01*
X163372Y288484D01*
X163612Y288842D01*
X163696Y289265D01*
Y292936D01*
X165938D01*
Y300613D01*
D02*
G37*
G36*
X295969Y315708D02*
X259194D01*
X258733Y315616D01*
X258342Y315355D01*
X258081Y314965D01*
X258033Y314723D01*
X244761D01*
X244301Y314631D01*
X243910Y314370D01*
X243649Y313979D01*
X243557Y313518D01*
Y292652D01*
X243649Y292191D01*
X243910Y291801D01*
X244301Y291540D01*
X244761Y291448D01*
X257989D01*
Y287026D01*
X258081Y286565D01*
X258342Y286175D01*
X258733Y285914D01*
X259194Y285822D01*
X295969D01*
X296430Y285914D01*
X296821Y286175D01*
X297082Y286565D01*
X297174Y287026D01*
X297174Y314504D01*
X297082Y314965D01*
X296821Y315355D01*
X296430Y315616D01*
X295969Y315708D01*
D02*
G37*
G36*
X297835Y279711D02*
X289961D01*
Y266326D01*
X297835D01*
Y279711D01*
D02*
G37*
G36*
X277362Y280260D02*
X276555Y280154D01*
X275804Y279842D01*
X275158Y279347D01*
X274663Y278702D01*
X274351Y277950D01*
X274245Y277143D01*
X274351Y276336D01*
X274663Y275584D01*
X275158Y274939D01*
X275255Y274865D01*
Y271837D01*
X274606D01*
Y252546D01*
X280118D01*
Y271837D01*
X279470D01*
Y274865D01*
X279566Y274939D01*
X280062Y275584D01*
X280373Y276336D01*
X280479Y277143D01*
X280373Y277950D01*
X280062Y278702D01*
X279566Y279347D01*
X278921Y279842D01*
X278169Y280154D01*
X277362Y280260D01*
D02*
G37*
G36*
X297835Y250803D02*
X289961D01*
Y237418D01*
X297835D01*
Y250803D01*
D02*
G37*
G36*
X256890D02*
X249016D01*
Y237418D01*
X256890D01*
Y250803D01*
D02*
G37*
G36*
X277362Y251352D02*
X276555Y251246D01*
X275804Y250935D01*
X275158Y250439D01*
X274663Y249794D01*
X274351Y249042D01*
X274245Y248235D01*
X274351Y247428D01*
X274663Y246676D01*
X275158Y246031D01*
X275255Y245957D01*
Y242930D01*
X274606D01*
Y223638D01*
X280118D01*
Y242930D01*
X279470D01*
Y245957D01*
X279566Y246031D01*
X280062Y246676D01*
X280373Y247428D01*
X280479Y248235D01*
X280373Y249042D01*
X280062Y249794D01*
X279566Y250439D01*
X278921Y250935D01*
X278169Y251246D01*
X277362Y251352D01*
D02*
G37*
G36*
X273491Y211505D02*
X272915Y211391D01*
X272426Y211064D01*
X272100Y210576D01*
X271985Y210000D01*
X272100Y209424D01*
X272426Y208936D01*
X272915Y208609D01*
X273491Y208495D01*
X274067Y208609D01*
X274555Y208936D01*
X274881Y209424D01*
X274996Y210000D01*
X274881Y210576D01*
X274555Y211064D01*
X274067Y211391D01*
X273491Y211505D01*
D02*
G37*
G36*
X294291Y214917D02*
X280906D01*
Y207043D01*
X294291D01*
Y214917D01*
D02*
G37*
G36*
Y188146D02*
X280906D01*
Y180272D01*
X294291D01*
Y188146D01*
D02*
G37*
G36*
X220472Y222086D02*
X219290Y221931D01*
X218189Y221475D01*
X217243Y220749D01*
X216518Y219803D01*
X216061Y218702D01*
X215906Y217520D01*
Y171063D01*
X215906Y171063D01*
X216061Y169881D01*
X216518Y168780D01*
X217243Y167834D01*
X230315Y154762D01*
Y143307D01*
X250197D01*
Y161221D01*
X248302D01*
Y164490D01*
X248700Y164796D01*
X249195Y165441D01*
X249507Y166193D01*
X249613Y167000D01*
X249507Y167807D01*
X249195Y168559D01*
X248700Y169204D01*
X248297Y169513D01*
Y174574D01*
X248160Y175266D01*
X247768Y175852D01*
X247600Y175964D01*
Y177965D01*
X248099Y178173D01*
X250457Y175815D01*
Y173360D01*
X254473D01*
Y173663D01*
Y177376D01*
X252018D01*
X251298Y178096D01*
X251489Y178558D01*
X254474D01*
Y182574D01*
X254892Y182772D01*
X255649D01*
Y186315D01*
X251122D01*
Y182772D01*
X250704Y182574D01*
X250459D01*
Y179589D01*
X249997Y179398D01*
X249568Y179826D01*
Y182772D01*
X249744D01*
Y186315D01*
X245216D01*
Y182772D01*
X245392D01*
Y175971D01*
X245214Y175852D01*
X244822Y175266D01*
X244685Y174574D01*
Y169506D01*
X244291Y169204D01*
X243796Y168559D01*
X243485Y167807D01*
X243378Y167000D01*
X243485Y166193D01*
X243796Y165441D01*
X244291Y164796D01*
X244689Y164490D01*
Y161221D01*
X236773D01*
X225039Y172954D01*
Y217520D01*
X224884Y218702D01*
X224427Y219803D01*
X223702Y220749D01*
X222756Y221475D01*
X221654Y221931D01*
X220472Y222086D01*
D02*
G37*
G36*
X46262Y176299D02*
X45455Y176193D01*
X44703Y175881D01*
X44058Y175386D01*
X43562Y174740D01*
X43251Y173988D01*
X43145Y173182D01*
X43251Y172375D01*
X43562Y171623D01*
X44058Y170977D01*
X44703Y170482D01*
X45455Y170171D01*
X46262Y170064D01*
X47069Y170171D01*
X47821Y170482D01*
X48466Y170977D01*
X48962Y171623D01*
X49273Y172375D01*
X49379Y173182D01*
X49273Y173988D01*
X48962Y174740D01*
X48466Y175386D01*
X47821Y175881D01*
X47069Y176193D01*
X46262Y176299D01*
D02*
G37*
G36*
X74331Y172544D02*
X72913D01*
X72422Y172447D01*
X72005Y172168D01*
X71727Y171751D01*
X71629Y171260D01*
X71727Y170768D01*
X72005Y170352D01*
X72422Y170073D01*
X72619Y170034D01*
Y168150D01*
X71614D01*
Y164134D01*
Y160591D01*
X75630D01*
Y161538D01*
X78474D01*
X78581Y161377D01*
X79070Y161050D01*
X79646Y160936D01*
X80222Y161050D01*
X80710Y161377D01*
X81036Y161865D01*
X81151Y162441D01*
X81036Y163017D01*
X80710Y163505D01*
X80222Y163832D01*
X79646Y163946D01*
X79070Y163832D01*
X78581Y163505D01*
X78474Y163344D01*
X75630D01*
Y168150D01*
X74626D01*
Y170034D01*
X74822Y170073D01*
X75239Y170352D01*
X75517Y170768D01*
X75615Y171260D01*
X75517Y171751D01*
X75239Y172168D01*
X74822Y172447D01*
X74331Y172544D01*
D02*
G37*
G36*
X258071Y159783D02*
X251969D01*
Y152500D01*
X251969D01*
Y152027D01*
X251969D01*
Y144744D01*
X252793D01*
Y143307D01*
X251870D01*
Y134646D01*
X257972D01*
Y143307D01*
X257148D01*
Y144744D01*
X258071D01*
Y152027D01*
X258071D01*
Y152500D01*
X258071D01*
Y153964D01*
X263075D01*
X263217Y153936D01*
X267126D01*
Y153358D01*
X288935D01*
X290138Y152155D01*
Y146329D01*
X290006Y146240D01*
X289680Y145752D01*
X289565Y145176D01*
X289680Y144600D01*
X290006Y144112D01*
X290494Y143785D01*
X291071Y143671D01*
X291647Y143785D01*
X292135Y144112D01*
X292461Y144600D01*
X292576Y145176D01*
X292461Y145752D01*
X292145Y146225D01*
Y152570D01*
X292069Y152954D01*
X291851Y153280D01*
X290354Y154777D01*
Y158870D01*
X267126D01*
Y158291D01*
X263331D01*
X263189Y158319D01*
X258071D01*
Y159783D01*
D02*
G37*
G36*
X294291Y142728D02*
X280906D01*
Y134854D01*
X294291D01*
Y142728D01*
D02*
G37*
G36*
X282480Y50162D02*
X281144Y49986D01*
X279899Y49471D01*
X278830Y48650D01*
X278010Y47581D01*
X277494Y46336D01*
X277318Y45000D01*
X277494Y43664D01*
X278010Y42419D01*
X278830Y41350D01*
X279899Y40529D01*
X281144Y40014D01*
X282480Y39838D01*
X283816Y40014D01*
X285061Y40529D01*
X286131Y41350D01*
X286951Y42419D01*
X287467Y43664D01*
X287643Y45000D01*
X287467Y46336D01*
X286951Y47581D01*
X286131Y48650D01*
X285061Y49471D01*
X283816Y49986D01*
X282480Y50162D01*
D02*
G37*
%LPD*%
G36*
X40936Y206370D02*
X37744Y203178D01*
X23616Y203178D01*
Y225313D01*
X24024Y225535D01*
X28039D01*
Y228935D01*
X40936D01*
Y206370D01*
D02*
G37*
G36*
X14567Y212992D02*
X21654D01*
Y204724D01*
X15354D01*
X13056Y204724D01*
X13056Y189646D01*
X21654Y189646D01*
X21654Y181748D01*
X40543D01*
Y169630D01*
X32181D01*
Y168917D01*
X9594D01*
X4724Y173787D01*
Y215354D01*
X12205D01*
X14567Y212992D01*
D02*
G37*
%LPC*%
G36*
X55362Y142189D02*
X46701D01*
Y135890D01*
X55362D01*
Y142189D01*
D02*
G37*
G36*
Y120142D02*
X46701D01*
Y113842D01*
X55362D01*
Y120142D01*
D02*
G37*
G36*
X125236Y45772D02*
X124260Y45644D01*
X123350Y45267D01*
X122569Y44668D01*
X121969Y43886D01*
X121592Y42976D01*
X121464Y42000D01*
X121592Y41024D01*
X121969Y40114D01*
X122569Y39333D01*
X123350Y38733D01*
X124260Y38356D01*
X125236Y38228D01*
X126213Y38356D01*
X127122Y38733D01*
X127904Y39333D01*
X128503Y40114D01*
X128880Y41024D01*
X129009Y42000D01*
X128880Y42976D01*
X128503Y43886D01*
X127904Y44668D01*
X127122Y45267D01*
X126213Y45644D01*
X125236Y45772D01*
D02*
G37*
G36*
X115236D02*
X114260Y45644D01*
X113350Y45267D01*
X112569Y44668D01*
X111969Y43886D01*
X111592Y42976D01*
X111464Y42000D01*
X111592Y41024D01*
X111969Y40114D01*
X112569Y39333D01*
X113350Y38733D01*
X114260Y38356D01*
X115236Y38228D01*
X116213Y38356D01*
X117122Y38733D01*
X117904Y39333D01*
X118503Y40114D01*
X118880Y41024D01*
X119009Y42000D01*
X118880Y42976D01*
X118503Y43886D01*
X117904Y44668D01*
X117122Y45267D01*
X116213Y45644D01*
X115236Y45772D01*
D02*
G37*
G36*
X73583Y53671D02*
X73007Y53556D01*
X72518Y53230D01*
X72192Y52741D01*
X72077Y52165D01*
X72192Y51589D01*
X72479Y51160D01*
Y48748D01*
X72563Y48325D01*
X72802Y47967D01*
X73779Y46990D01*
Y44535D01*
Y40992D01*
X74683D01*
Y36438D01*
X74397Y36009D01*
X74282Y35433D01*
X74397Y34857D01*
X74723Y34369D01*
X75211Y34042D01*
X75787Y33928D01*
X76363Y34042D01*
X76852Y34369D01*
X77178Y34857D01*
X77293Y35433D01*
X77178Y36009D01*
X76891Y36438D01*
Y40992D01*
X77795D01*
Y41896D01*
X78527D01*
Y40992D01*
X82542D01*
Y45008D01*
X78527D01*
Y44104D01*
X77795D01*
Y48551D01*
X75341D01*
X74687Y49205D01*
Y51160D01*
X74973Y51589D01*
X75088Y52165D01*
X74973Y52741D01*
X74647Y53230D01*
X74159Y53556D01*
X73583Y53671D01*
D02*
G37*
%LPD*%
D10*
X39044Y276730D02*
X39620Y277306D01*
X40422D01*
X38945Y275830D02*
Y275830D01*
X39044Y275928D02*
Y276730D01*
X38945Y275830D02*
X39044Y275928D01*
X40422Y277306D02*
X41304Y278189D01*
X41398D01*
X251690Y195294D02*
Y198090D01*
Y195294D02*
X252401Y194583D01*
X156293Y321391D02*
X158299D01*
X155702Y321982D02*
Y326499D01*
Y321982D02*
X156293Y321391D01*
X122845Y155239D02*
Y156943D01*
X123306Y157404D01*
X137718D01*
X120876Y155239D02*
X120876Y155239D01*
X120876Y155239D02*
Y157310D01*
X122545Y158979D01*
X136231D01*
X71260Y175197D02*
X73622D01*
X67716Y171653D02*
X71260Y175197D01*
X67716Y160433D02*
Y171653D01*
X252401Y192024D02*
Y194583D01*
Y192024D02*
X254370D01*
X84646Y171260D02*
X85354D01*
X86575Y170039D01*
X87864D01*
X88691Y169213D01*
X73622Y166142D02*
Y171260D01*
X147076Y317450D02*
X204035D01*
X131795Y308516D02*
X138089D01*
X139341Y309715D02*
X147076Y317450D01*
X139288Y309715D02*
X139341D01*
X138089Y308516D02*
X139288Y309715D01*
X129528Y308516D02*
X131795D01*
X208852Y322267D02*
Y323177D01*
X204035Y317450D02*
X208852Y322267D01*
X232645Y297181D02*
X239365D01*
X240779Y298596D02*
Y300029D01*
X235026Y299346D02*
X238434D01*
Y299346D02*
X238481Y299393D01*
X238434Y299346D02*
Y299346D01*
X239365Y297181D02*
X240779Y298596D01*
X278559Y295898D02*
X278582Y295921D01*
X293701D01*
X278637Y305528D02*
X293701D01*
X278633Y305532D02*
X278637Y305528D01*
X129528Y303982D02*
Y308516D01*
X113189Y303982D02*
Y308516D01*
X157388Y316072D02*
X222973D01*
X150781Y309465D02*
X157388Y316072D01*
X159220Y311778D02*
X221709D01*
X157966Y313866D02*
X210132D01*
X159872Y310204D02*
X223489D01*
X159197Y311755D02*
X159220Y311778D01*
X158640Y311755D02*
X159197D01*
X154718Y307833D02*
X158640Y311755D01*
X160920Y308459D02*
X210807D01*
X158655Y306194D02*
X160920Y308459D01*
X158655Y296774D02*
Y306194D01*
X156686Y307017D02*
X159872Y310204D01*
X156686Y296774D02*
Y307017D01*
X154718Y296774D02*
Y307833D01*
X255228Y212713D02*
Y216059D01*
X252401Y184543D02*
X254370D01*
X252401Y180631D02*
Y184543D01*
Y180631D02*
X252467Y180566D01*
X238386Y193307D02*
Y193417D01*
X241166Y196198D01*
X239365Y314654D02*
Y319056D01*
X235007Y318466D02*
X235400D01*
X237960Y315907D01*
Y310931D02*
Y315907D01*
X239337Y314627D02*
X239365Y314654D01*
X239337Y314627D02*
Y321828D01*
X238618Y322547D02*
X239337Y321828D01*
X238618Y322547D02*
Y329255D01*
X239337Y308192D02*
Y314627D01*
X235015Y307987D02*
X237960Y310931D01*
X239337Y308192D02*
X239731Y307799D01*
Y301077D02*
X240779Y300029D01*
X239731Y301077D02*
Y307799D01*
X235015Y305637D02*
Y307987D01*
Y305637D02*
X235204Y305449D01*
X232785Y301315D02*
X233931D01*
X231857Y300387D02*
X232785Y301315D01*
X231857Y297969D02*
Y300387D01*
Y297969D02*
X232645Y297181D01*
X277362Y233284D02*
X277362Y233284D01*
X235587Y331858D02*
X237556Y329889D01*
X235587Y331858D02*
Y333574D01*
X235150Y334012D02*
X235587Y333574D01*
X235150Y334012D02*
Y337063D01*
X100000Y308516D02*
X113189D01*
X99916Y316474D02*
X100212Y316769D01*
X99916Y308600D02*
Y316474D01*
Y308600D02*
X100000Y308516D01*
X237984Y329889D02*
X238618Y329255D01*
X237556Y329889D02*
X237984D01*
X44262Y283455D02*
X61024D01*
X43504Y282697D02*
X44262Y283455D01*
X43504Y280295D02*
Y282697D01*
X291071Y145176D02*
X291142Y145247D01*
Y152570D01*
X287598Y156114D02*
X291142Y152570D01*
X46104Y274255D02*
X46106Y274253D01*
X40520Y274255D02*
X46104D01*
X210807Y308459D02*
X212813Y306453D01*
X152749Y296774D02*
Y308649D01*
X157966Y313866D01*
X226633Y313348D02*
X228708D01*
X223489Y310204D02*
X226633Y313348D01*
X40520Y275830D02*
X41361D01*
X41797Y276265D01*
X150781Y296774D02*
Y309465D01*
X41398Y278189D02*
X43504Y280295D01*
X221709Y311778D02*
X228397Y318466D01*
X228708D01*
X46106Y269844D02*
Y274253D01*
D11*
X58898Y160433D02*
X63189D01*
X56000Y163331D02*
X58898Y160433D01*
X73622Y162598D02*
X73779Y162441D01*
X79646D01*
X88583Y175543D02*
Y178404D01*
X84646Y175197D02*
X88237D01*
X88583Y175543D01*
Y178404D02*
X88690Y178512D01*
X246496Y192024D02*
Y194300D01*
X360719Y12813D02*
X360531Y13001D01*
X360719Y13188D01*
X360906Y13001D01*
Y12626D01*
X360719Y12251D01*
X360531Y12064D01*
X361769Y13188D02*
Y9252D01*
Y13188D02*
X364393Y9252D01*
Y13188D02*
Y9252D01*
X366417Y11876D02*
X366042Y11689D01*
X365667Y11314D01*
X365480Y10751D01*
Y10377D01*
X365667Y9814D01*
X366042Y9439D01*
X366417Y9252D01*
X366979D01*
X367354Y9439D01*
X367729Y9814D01*
X367916Y10377D01*
Y10751D01*
X367729Y11314D01*
X367354Y11689D01*
X366979Y11876D01*
X366417D01*
X369341Y13188D02*
Y10002D01*
X369529Y9439D01*
X369903Y9252D01*
X370278D01*
X368779Y11876D02*
X370091D01*
X370841Y10751D02*
X373090D01*
Y11126D01*
X372902Y11501D01*
X372715Y11689D01*
X372340Y11876D01*
X371778D01*
X371403Y11689D01*
X371028Y11314D01*
X370841Y10751D01*
Y10377D01*
X371028Y9814D01*
X371403Y9439D01*
X371778Y9252D01*
X372340D01*
X372715Y9439D01*
X373090Y9814D01*
X376182Y11314D02*
X375808Y11689D01*
X375433Y11876D01*
X374870D01*
X374496Y11689D01*
X374121Y11314D01*
X373933Y10751D01*
Y10377D01*
X374121Y9814D01*
X374496Y9439D01*
X374870Y9252D01*
X375433D01*
X375808Y9439D01*
X376182Y9814D01*
X379275Y11876D02*
Y9252D01*
Y11314D02*
X378900Y11689D01*
X378525Y11876D01*
X377963D01*
X377588Y11689D01*
X377213Y11314D01*
X377026Y10751D01*
Y10377D01*
X377213Y9814D01*
X377588Y9439D01*
X377963Y9252D01*
X378525D01*
X378900Y9439D01*
X379275Y9814D01*
X380325Y11876D02*
Y9252D01*
Y10751D02*
X380512Y11314D01*
X380887Y11689D01*
X381262Y11876D01*
X381824D01*
X382180D02*
Y9252D01*
Y10751D02*
X382368Y11314D01*
X382743Y11689D01*
X383118Y11876D01*
X383680D01*
X384411Y13188D02*
X384598Y13001D01*
X384786Y13188D01*
X384598Y13376D01*
X384411Y13188D01*
X384598Y11876D02*
Y9252D01*
X385479Y10751D02*
X387729D01*
Y11126D01*
X387541Y11501D01*
X387354Y11689D01*
X386979Y11876D01*
X386417D01*
X386042Y11689D01*
X385667Y11314D01*
X385479Y10751D01*
Y10377D01*
X385667Y9814D01*
X386042Y9439D01*
X386417Y9252D01*
X386979D01*
X387354Y9439D01*
X387729Y9814D01*
X388572Y11876D02*
Y9252D01*
Y10751D02*
X388759Y11314D01*
X389134Y11689D01*
X389509Y11876D01*
X390072D01*
X396519Y9252D02*
X395020Y13188D01*
X393520Y9252D01*
X394083Y10564D02*
X395957D01*
X397438Y13188D02*
Y9252D01*
Y13188D02*
X399874D01*
X397438Y11314D02*
X398937D01*
X400512Y9627D02*
X400324Y9439D01*
X400512Y9252D01*
X400699Y9439D01*
X400512Y9627D01*
X404373Y12251D02*
X404185Y12626D01*
X403811Y13001D01*
X403436Y13188D01*
X402686D01*
X402311Y13001D01*
X401936Y12626D01*
X401749Y12251D01*
X401561Y11689D01*
Y10751D01*
X401749Y10189D01*
X401936Y9814D01*
X402311Y9439D01*
X402686Y9252D01*
X403436D01*
X403811Y9439D01*
X404185Y9814D01*
X404373Y10189D01*
Y10751D01*
X403436D02*
X404373D01*
X406585Y13188D02*
Y9252D01*
X405273Y13188D02*
X407897D01*
X408365D02*
Y9252D01*
X410614D01*
X411233Y12813D02*
X411046Y13001D01*
X411233Y13188D01*
X411420Y13001D01*
Y12626D01*
X411233Y12251D01*
X411046Y12064D01*
X360817Y20917D02*
X360630Y21104D01*
X360817Y21292D01*
X361005Y21104D01*
Y20729D01*
X360817Y20354D01*
X360630Y20167D01*
X363179Y21292D02*
Y17355D01*
X361867Y21292D02*
X364491D01*
X365897Y19979D02*
X365522Y19792D01*
X365147Y19417D01*
X364960Y18855D01*
Y18480D01*
X365147Y17918D01*
X365522Y17543D01*
X365897Y17355D01*
X366459D01*
X366834Y17543D01*
X367209Y17918D01*
X367396Y18480D01*
Y18855D01*
X367209Y19417D01*
X366834Y19792D01*
X366459Y19979D01*
X365897D01*
X368259D02*
Y16043D01*
Y19417D02*
X368633Y19792D01*
X369008Y19979D01*
X369571D01*
X369946Y19792D01*
X370320Y19417D01*
X370508Y18855D01*
Y18480D01*
X370320Y17918D01*
X369946Y17543D01*
X369571Y17355D01*
X369008D01*
X368633Y17543D01*
X368259Y17918D01*
X374444Y21292D02*
Y17355D01*
X376693D01*
X379374Y19979D02*
Y17355D01*
Y19417D02*
X378999Y19792D01*
X378624Y19979D01*
X378062D01*
X377687Y19792D01*
X377312Y19417D01*
X377124Y18855D01*
Y18480D01*
X377312Y17918D01*
X377687Y17543D01*
X378062Y17355D01*
X378624D01*
X378999Y17543D01*
X379374Y17918D01*
X380611Y19979D02*
X381735Y17355D01*
X382860Y19979D02*
X381735Y17355D01*
X381360Y16606D01*
X380985Y16231D01*
X380611Y16043D01*
X380423D01*
X383516Y18855D02*
X385765D01*
Y19230D01*
X385578Y19605D01*
X385390Y19792D01*
X385015Y19979D01*
X384453D01*
X384078Y19792D01*
X383703Y19417D01*
X383516Y18855D01*
Y18480D01*
X383703Y17918D01*
X384078Y17543D01*
X384453Y17355D01*
X385015D01*
X385390Y17543D01*
X385765Y17918D01*
X386609Y19979D02*
Y17355D01*
Y18855D02*
X386796Y19417D01*
X387171Y19792D01*
X387546Y19979D01*
X388108D01*
X388652Y20917D02*
X388464Y21104D01*
X388652Y21292D01*
X388839Y21104D01*
Y20729D01*
X388652Y20354D01*
X388464Y20167D01*
D15*
X22403Y248803D02*
D03*
X25868D02*
D03*
D16*
X43819Y51055D02*
D03*
X52284D02*
D03*
X43819Y34716D02*
D03*
X52284D02*
D03*
D17*
X66387Y46543D02*
D03*
Y43000D02*
D03*
X64173Y160433D02*
D03*
X67716D02*
D03*
X88691Y172756D02*
D03*
Y169213D02*
D03*
X49649Y274253D02*
D03*
X46106D02*
D03*
X38956Y256192D02*
D03*
Y259735D02*
D03*
X141535Y352008D02*
D03*
Y348465D02*
D03*
X256010Y180566D02*
D03*
X252467D02*
D03*
X236315Y327586D02*
D03*
Y331130D02*
D03*
X228314Y323177D02*
D03*
X231857D02*
D03*
X256008Y175368D02*
D03*
X252465D02*
D03*
X80534Y43000D02*
D03*
Y46543D02*
D03*
X88690Y178512D02*
D03*
Y182055D02*
D03*
X69882Y179134D02*
D03*
Y182677D02*
D03*
X96289Y316558D02*
D03*
X99833D02*
D03*
X19698Y248803D02*
D03*
Y252346D02*
D03*
X26032Y227543D02*
D03*
Y224000D02*
D03*
X49649Y269844D02*
D03*
X46106D02*
D03*
D18*
X62371Y43000D02*
D03*
Y46543D02*
D03*
X67716Y154528D02*
D03*
X64173D02*
D03*
X38956Y264145D02*
D03*
Y267688D02*
D03*
X228314Y331996D02*
D03*
X231857D02*
D03*
Y327587D02*
D03*
X228314D02*
D03*
X241166Y196198D02*
D03*
X244710D02*
D03*
X251690Y198090D02*
D03*
Y201633D02*
D03*
X231644Y308795D02*
D03*
X228100D02*
D03*
X75787Y46543D02*
D03*
Y43000D02*
D03*
X100000Y308516D02*
D03*
X96457D02*
D03*
X255228Y209169D02*
D03*
Y212713D02*
D03*
X73622Y166142D02*
D03*
Y162598D02*
D03*
X47047Y280295D02*
D03*
X43504D02*
D03*
D19*
X73622Y171260D02*
D03*
Y173228D02*
D03*
Y175197D02*
D03*
Y177165D02*
D03*
Y179134D02*
D03*
Y181102D02*
D03*
Y183071D02*
D03*
X84646D02*
D03*
Y181102D02*
D03*
Y179134D02*
D03*
Y177165D02*
D03*
Y175197D02*
D03*
Y173228D02*
D03*
Y171260D02*
D03*
D20*
X96337Y173250D02*
D03*
X105337D02*
D03*
X105335Y184770D02*
D03*
X96335D02*
D03*
X96226Y161846D02*
D03*
X105226D02*
D03*
X55911Y191197D02*
D03*
X46911D02*
D03*
X55714Y180055D02*
D03*
X46714D02*
D03*
D21*
X54031Y213921D02*
D03*
X35528D02*
D03*
X35633Y230773D02*
D03*
X54137D02*
D03*
X37496Y163331D02*
D03*
X56000D02*
D03*
D22*
X92571Y204724D02*
D03*
X71114D02*
D03*
D23*
X255020Y156142D02*
D03*
Y148386D02*
D03*
X72000Y78166D02*
D03*
Y70410D02*
D03*
Y90055D02*
D03*
Y97811D02*
D03*
D24*
X139560Y323448D02*
D03*
X221056D02*
D03*
D25*
X143891Y326499D02*
D03*
X144875Y296774D02*
D03*
X145859Y326499D02*
D03*
X146844Y296774D02*
D03*
X147828Y326499D02*
D03*
X148812Y296774D02*
D03*
X149796Y326499D02*
D03*
X150781Y296774D02*
D03*
X151765Y326499D02*
D03*
X152749Y296774D02*
D03*
X153734Y326499D02*
D03*
X154718Y296774D02*
D03*
X155702Y326499D02*
D03*
X156686Y296774D02*
D03*
X157670Y326499D02*
D03*
X158655Y296774D02*
D03*
X159639Y326499D02*
D03*
X160623Y296774D02*
D03*
X161608Y326499D02*
D03*
X162592Y296774D02*
D03*
X163576Y326499D02*
D03*
X164560Y296774D02*
D03*
X165544Y326499D02*
D03*
X174403Y296774D02*
D03*
X175387Y326499D02*
D03*
X176371Y296774D02*
D03*
X177356Y326499D02*
D03*
X178340Y296774D02*
D03*
X179324Y326499D02*
D03*
X180308Y296774D02*
D03*
X181292Y326499D02*
D03*
X182277Y296774D02*
D03*
X183261Y326499D02*
D03*
X184245Y296774D02*
D03*
X185230Y326499D02*
D03*
X186214Y296774D02*
D03*
X187198Y326499D02*
D03*
X188182Y296774D02*
D03*
X189166Y326499D02*
D03*
X190151Y296774D02*
D03*
X191135Y326499D02*
D03*
X192119Y296774D02*
D03*
X193104Y326499D02*
D03*
X194088Y296774D02*
D03*
X195072Y326499D02*
D03*
X196056Y296774D02*
D03*
X197041Y326499D02*
D03*
X198025Y296774D02*
D03*
X199009Y326499D02*
D03*
X199993Y296774D02*
D03*
X200978Y326499D02*
D03*
X201962Y296774D02*
D03*
X202946Y326499D02*
D03*
X203930Y296774D02*
D03*
X204915Y326499D02*
D03*
X205899Y296774D02*
D03*
X206883Y326499D02*
D03*
X207867Y296774D02*
D03*
X208852Y326499D02*
D03*
X209836Y296774D02*
D03*
X210820Y326499D02*
D03*
X211804Y296774D02*
D03*
X212789Y326499D02*
D03*
X213773Y296774D02*
D03*
X214757Y326499D02*
D03*
X215741Y296774D02*
D03*
X216726Y326499D02*
D03*
D26*
X43276Y85000D02*
D03*
X52724Y94842D02*
D03*
Y75157D02*
D03*
X43276D02*
D03*
Y94842D02*
D03*
X52724Y85000D02*
D03*
D27*
X51032Y116992D02*
D03*
Y139039D02*
D03*
D28*
X41091Y122110D02*
D03*
Y126047D02*
D03*
Y129984D02*
D03*
Y133921D02*
D03*
D29*
X129528Y316981D02*
D03*
Y308516D02*
D03*
X113189Y316981D02*
D03*
Y308516D02*
D03*
D30*
X260827Y283913D02*
D03*
D31*
X242126Y292063D02*
D03*
Y309386D02*
D03*
D32*
X253740Y284602D02*
D03*
D33*
X270079Y282634D02*
D03*
Y326630D02*
D03*
D34*
X273937Y290724D02*
D03*
X286417Y291118D02*
D03*
Y300724D02*
D03*
X273937D02*
D03*
Y310724D02*
D03*
X286417Y310331D02*
D03*
D35*
X246358Y298559D02*
D03*
D36*
X249803Y326630D02*
D03*
D37*
X289173Y282634D02*
D03*
Y326630D02*
D03*
D38*
X293701Y295921D02*
D03*
Y305528D02*
D03*
D39*
X261614Y233284D02*
D03*
X269488D02*
D03*
X277362D02*
D03*
X285236D02*
D03*
X285236Y262192D02*
D03*
X277362D02*
D03*
X269488D02*
D03*
X261614D02*
D03*
D40*
X252953Y244111D02*
D03*
X293898D02*
D03*
X293898Y273019D02*
D03*
X252953D02*
D03*
D41*
X282480Y45000D02*
D03*
X14626Y325000D02*
D03*
X140938Y305731D02*
D03*
X17717Y387795D02*
D03*
X282480D02*
D03*
Y17717D02*
D03*
X17717D02*
D03*
X95351Y155948D02*
D03*
X32173Y192183D02*
D03*
X70499Y292121D02*
D03*
X70687Y276640D02*
D03*
X105127Y155948D02*
D03*
X105315Y167704D02*
D03*
Y178493D02*
D03*
X95351Y179134D02*
D03*
X35633Y222399D02*
D03*
X95351Y167704D02*
D03*
X41064Y138514D02*
D03*
X256496Y204528D02*
D03*
X256398Y198228D02*
D03*
X34626Y129984D02*
D03*
X275236Y141732D02*
D03*
X25648Y216572D02*
D03*
Y208357D02*
D03*
X232283Y208032D02*
D03*
X16142Y231496D02*
D03*
X53937Y316142D02*
D03*
D42*
X235026Y303283D02*
D03*
Y299346D02*
D03*
Y301315D02*
D03*
X228688Y303283D02*
D03*
Y301315D02*
D03*
Y299346D02*
D03*
D43*
X27306Y187457D02*
D03*
Y175646D02*
D03*
D44*
X243504Y138976D02*
D03*
X254921D02*
D03*
D45*
X254370Y184543D02*
D03*
Y192024D02*
D03*
X252401Y184543D02*
D03*
Y192024D02*
D03*
X250433Y184543D02*
D03*
Y192024D02*
D03*
X248464Y184543D02*
D03*
Y192024D02*
D03*
X246496Y184543D02*
D03*
Y192024D02*
D03*
D46*
X250433Y188284D02*
D03*
D47*
X102293Y334087D02*
D03*
D48*
X96289Y328279D02*
D03*
Y339894D02*
D03*
D49*
X100591Y296873D02*
D03*
X107283D02*
D03*
X85074Y246858D02*
D03*
X78381D02*
D03*
D50*
X120876Y161144D02*
D03*
X124813D02*
D03*
X122845D02*
D03*
X128750D02*
D03*
X126782D02*
D03*
X134656D02*
D03*
X130719D02*
D03*
X132687D02*
D03*
X122845Y155239D02*
D03*
X120876D02*
D03*
X124813D02*
D03*
X126782D02*
D03*
X130719D02*
D03*
X128750D02*
D03*
X132687D02*
D03*
X134656D02*
D03*
Y172571D02*
D03*
X130719D02*
D03*
X132687D02*
D03*
X128750D02*
D03*
X132687Y166665D02*
D03*
X134656D02*
D03*
X130719D02*
D03*
X128750D02*
D03*
X126782Y172571D02*
D03*
X124813D02*
D03*
X122845D02*
D03*
X120876D02*
D03*
X126782Y166665D02*
D03*
X124813D02*
D03*
X122845D02*
D03*
X120876D02*
D03*
D51*
X228708Y318466D02*
D03*
X235007D02*
D03*
Y313348D02*
D03*
X228708D02*
D03*
X235150Y337063D02*
D03*
X228850D02*
D03*
D52*
X11319Y258268D02*
D03*
X4429D02*
D03*
D53*
X7874Y294095D02*
D03*
D54*
X82677Y387638D02*
D03*
X232283D02*
D03*
D55*
X176378Y383701D02*
D03*
X133858D02*
D03*
D56*
X287598Y184209D02*
D03*
Y210980D02*
D03*
Y138791D02*
D03*
Y165562D02*
D03*
D57*
X278740Y193658D02*
D03*
Y201532D02*
D03*
Y148240D02*
D03*
Y156114D02*
D03*
D58*
X40520Y275830D02*
D03*
Y274255D02*
D03*
X38945D02*
D03*
X37370Y275830D02*
D03*
X38945D02*
D03*
X37370Y274255D02*
D03*
D59*
X18996Y201969D02*
D03*
Y199409D02*
D03*
Y194291D02*
D03*
Y196850D02*
D03*
Y191732D02*
D03*
D60*
X18504Y208858D02*
D03*
Y184843D02*
D03*
D61*
X8465Y201575D02*
D03*
Y192126D02*
D03*
D62*
Y211811D02*
D03*
Y181890D02*
D03*
D63*
X176378Y346063D02*
D03*
Y351102D02*
D03*
X133858Y347716D02*
D03*
Y352756D02*
D03*
D64*
X43246Y292313D02*
D03*
X31632D02*
D03*
D65*
X37439Y286309D02*
D03*
D66*
X37000Y187378D02*
D03*
Y175961D02*
D03*
D73*
X79134Y177165D02*
D03*
D131*
X81102Y181102D02*
D03*
Y179134D02*
D03*
Y177165D02*
D03*
Y175197D02*
D03*
Y173228D02*
D03*
X79134Y179134D02*
D03*
Y181102D02*
D03*
X77165Y175197D02*
D03*
Y173228D02*
D03*
X79134Y177165D02*
D03*
Y175197D02*
D03*
Y173228D02*
D03*
X77165Y181102D02*
D03*
Y179134D02*
D03*
Y177165D02*
D03*
D132*
X38985Y256163D02*
G03*
X38956Y256192I-29J0D01*
G01*
X36459Y248803D02*
G03*
X38985Y251329I0J2526D01*
G01*
X11319Y251403D02*
G03*
X13919Y248803I2600J0D01*
G01*
X133858Y347716D02*
G03*
X133823Y347681I0J-35D01*
G01*
X130065Y340567D02*
G03*
X133823Y344324I0J3757D01*
G01*
X115611Y340567D02*
G03*
X112561Y337517I0J-3050D01*
G01*
X109882Y334087D02*
G03*
X112561Y336766I0J2679D01*
G01*
X37333Y277524D02*
X37405Y277596D01*
Y286275D02*
X37439Y286309D01*
X37405Y277596D02*
Y286275D01*
X38985Y251329D02*
Y256163D01*
X25868Y248803D02*
X36459D01*
X19698Y248803D02*
X19698Y248803D01*
X22403D01*
X11319Y251403D02*
Y258268D01*
X13919Y248803D02*
X19698D01*
X248464Y201633D02*
X249178D01*
X249207Y201605D01*
X54171Y173223D02*
Y173223D01*
X55714Y174766D02*
Y180055D01*
X54171Y173223D02*
X55714Y174766D01*
X249207Y201605D02*
X251662D01*
X251690Y201633D01*
X270079Y282634D02*
X274520D01*
X18996Y191732D02*
X33457D01*
X34626Y129984D02*
X41091D01*
X260827Y282074D02*
Y283913D01*
X253740Y282424D02*
Y284602D01*
X255820D01*
X258747Y283913D02*
X260827D01*
X277362Y262192D02*
X277362Y262192D01*
X277362Y233284D02*
X277362Y233284D01*
X242126Y292063D02*
Y295520D01*
Y309386D02*
Y312843D01*
X249803Y325043D02*
Y326630D01*
X253740Y284602D02*
Y286780D01*
X260827Y283913D02*
X262906D01*
X260827D02*
Y285993D01*
X270079Y326630D02*
X274520D01*
X270079Y325043D02*
Y326630D01*
X294685D02*
X295584D01*
X242126Y288605D02*
Y292063D01*
Y305928D02*
Y309386D01*
X270079Y281047D02*
Y282634D01*
Y284221D01*
X289173Y281047D02*
Y282634D01*
Y284221D01*
X242126Y292063D02*
X243812D01*
X242126Y309386D02*
X243812D01*
X251661Y284602D02*
X253740D01*
X265637Y326630D02*
X270079D01*
X249803D02*
X255229D01*
X265637Y282634D02*
X270079D01*
X289173D02*
X295584D01*
X282763D02*
X289173D01*
X244377Y326630D02*
X249803D01*
Y328217D01*
X270079Y326630D02*
Y328217D01*
X244429Y196479D02*
X246496Y194412D01*
Y194300D02*
Y194412D01*
X256009Y175369D02*
Y180565D01*
X240489Y325921D02*
X242126D01*
X255065Y181285D02*
X255859D01*
X256009Y180565D02*
X256010Y180566D01*
X256008Y175368D02*
X256009Y175369D01*
X278740Y193658D02*
X290268D01*
X267212D02*
X278740D01*
Y196327D01*
Y190987D02*
Y193658D01*
X38956Y259735D02*
Y264145D01*
X49649Y274253D02*
X51571D01*
X47047Y278373D02*
Y280295D01*
X49649Y274253D02*
Y276175D01*
X47047Y280295D02*
X48969D01*
X38945Y271155D02*
Y272597D01*
Y271155D02*
X38956Y271145D01*
Y267688D02*
Y271145D01*
X133823Y344324D02*
Y347681D01*
X115611Y340567D02*
X130065D01*
X112561Y336766D02*
Y337517D01*
X102293Y334087D02*
X109882D01*
D133*
X240256Y152264D02*
D03*
X86764Y74288D02*
D03*
Y93933D02*
D03*
D134*
X34874Y272688D02*
X35803D01*
X37370Y274255D01*
X34874Y272688D02*
Y274255D01*
X37370D01*
X124813Y151082D02*
Y155239D01*
X122845Y149113D02*
X124813Y151082D01*
X68213Y142168D02*
X112390D01*
X122845Y152623D02*
Y155239D01*
X112390Y142168D02*
X122845Y152623D01*
X111656Y143940D02*
X120876Y153160D01*
Y155239D01*
X116142Y150931D02*
Y211743D01*
X110923Y145712D02*
X116142Y150931D01*
X114370Y151665D02*
Y213121D01*
X110189Y147483D02*
X114370Y151665D01*
X246496Y201339D02*
Y203413D01*
X247111Y197550D02*
Y200202D01*
X246496Y200818D02*
Y201339D01*
Y200818D02*
X247111Y200202D01*
Y197550D02*
X250433Y194229D01*
Y192024D02*
Y194229D01*
X255228Y209169D02*
X258220D01*
X246496Y203413D02*
X252252Y209169D01*
X255228D01*
X85672Y116106D02*
X109449Y92329D01*
X85984Y39983D02*
Y46749D01*
X109449Y70214D02*
Y73290D01*
Y92329D01*
X85672Y116106D02*
Y117082D01*
Y117292D01*
X131890Y146142D02*
X135217Y149470D01*
X90864Y131538D02*
X123645D01*
X85672Y126347D02*
X90864Y131538D01*
X85672Y117292D02*
Y121730D01*
Y126347D01*
X73560Y27559D02*
X85984Y39983D01*
X54626Y5000D02*
Y17224D01*
X64961Y27559D02*
X73560D01*
X99668Y60433D02*
X109449Y70214D01*
X131890Y139783D02*
Y146142D01*
X54626Y17224D02*
X64961Y27559D01*
X135217Y149470D02*
X136821D01*
X123645Y131538D02*
X131890Y139783D01*
X85984Y46749D02*
X99668Y60433D01*
X52092Y126047D02*
X68213Y142168D01*
X31009Y124534D02*
Y137340D01*
X37609Y143940D02*
X111656D01*
X31009Y137340D02*
X37609Y143940D01*
X58831Y34716D02*
X62371Y38257D01*
X52284Y34716D02*
X58831D01*
X67716Y154528D02*
X67716D01*
X69446Y152798D02*
X98965D01*
X67716Y154528D02*
X69446Y152798D01*
X75787Y35433D02*
Y43000D01*
X175236Y50197D02*
Y70574D01*
X175236Y70574D01*
X49163Y58071D02*
X95079D01*
X48228Y57137D02*
X49163Y58071D01*
X48228Y31496D02*
Y57137D01*
X95079Y58071D02*
X107874Y70866D01*
X87559Y39331D02*
Y46097D01*
X100320Y58858D01*
X95236Y42000D02*
Y51547D01*
X100973Y57284D02*
X100973D01*
X95236Y51547D02*
X100973Y57284D01*
X114173Y68257D02*
Y69291D01*
X111024Y69561D02*
Y72638D01*
X107874Y70866D02*
Y91677D01*
X100320Y58858D02*
X111024Y69561D01*
X100973Y57284D02*
X112598Y68909D01*
X105236Y59320D02*
X114173Y68257D01*
X105236Y42000D02*
Y59320D01*
X88822Y117410D02*
X112598Y93634D01*
X90397Y118062D02*
Y124390D01*
X111024Y72638D02*
Y92981D01*
X88822Y117410D02*
Y118597D01*
X112598Y68909D02*
Y93634D01*
X114173Y69291D02*
Y94286D01*
X90397Y118062D02*
X114173Y94286D01*
X87247Y116758D02*
X111024Y92981D01*
X87247Y116758D02*
Y117735D01*
X84098Y115453D02*
X107874Y91677D01*
X175236Y115495D02*
X224626Y66105D01*
X225236Y115315D02*
Y122000D01*
X155236Y115495D02*
Y122000D01*
X234626Y34449D02*
Y66105D01*
X160237Y16389D02*
Y70495D01*
X130236Y115574D02*
X175236Y70574D01*
X145236Y115495D02*
Y122000D01*
X205236Y115495D02*
X254626Y66105D01*
X165236Y115495D02*
Y122000D01*
X195236Y115495D02*
Y122000D01*
X244626Y34449D02*
Y66105D01*
X224626Y5000D02*
Y66105D01*
X95236Y115495D02*
X140237Y70495D01*
Y16389D02*
Y70495D01*
X200237Y16389D02*
Y70495D01*
X185236Y115495D02*
Y122000D01*
X115236Y115495D02*
Y122000D01*
X170237Y16389D02*
Y70495D01*
X125236Y115495D02*
Y122000D01*
X130236Y115574D02*
Y122985D01*
X190237Y16389D02*
Y70495D01*
X145236Y115495D02*
X190237Y70495D01*
X135236Y115495D02*
Y122000D01*
X180237Y16389D02*
Y70495D01*
X135236Y115495D02*
X180237Y70495D01*
X105236Y115495D02*
Y122000D01*
X254626Y34449D02*
Y66105D01*
X175236Y115495D02*
Y122000D01*
X264626Y5000D02*
Y75925D01*
X95236Y115495D02*
Y122000D01*
X185236Y115495D02*
X234626Y66105D01*
X115236Y115495D02*
X160237Y70495D01*
X125236Y115495D02*
X170237Y70495D01*
X150237Y52093D02*
Y70495D01*
X105236Y115495D02*
X150237Y70495D01*
X205236Y115495D02*
Y122000D01*
X214567Y34508D02*
Y66164D01*
X165236Y115495D02*
X214567Y66164D01*
X195236Y115495D02*
X244626Y66105D01*
X225236Y115315D02*
X264626Y75925D01*
X155236Y115495D02*
X200237Y70495D01*
X67746Y19518D02*
X87559Y39331D01*
X91319Y129767D02*
X124379D01*
X90408Y133310D02*
X122494D01*
X84098Y126999D02*
X90408Y133310D01*
X92624Y126617D02*
X125962D01*
X91972Y128192D02*
X125310D01*
X87247Y121078D02*
Y125695D01*
X91319Y129767D01*
X90397Y124390D02*
X92624Y126617D01*
X88822Y125042D02*
X91972Y128192D01*
X53622Y101850D02*
X86853Y135082D01*
X87247Y117735D02*
Y117944D01*
X84098Y115453D02*
Y126999D01*
X87247Y117944D02*
Y121078D01*
X88822Y118597D02*
Y125042D01*
X54726Y105460D02*
X86120Y136853D01*
X51761Y105000D02*
X85386Y138625D01*
X64626Y16398D02*
X67746Y19518D01*
X74055Y16389D02*
X140237D01*
X69665Y12000D02*
X74055Y16389D01*
X164626Y5000D02*
Y12000D01*
X170237Y16389D02*
X174626Y12000D01*
X154626Y5000D02*
Y12000D01*
X160237Y16389D02*
X164626Y12000D01*
X184626Y5000D02*
Y12000D01*
X174626Y5000D02*
Y12000D01*
X150237Y16389D02*
X154626Y12000D01*
X190237Y16389D02*
X194626Y12000D01*
X200237Y16389D02*
X204626Y12000D01*
X180237Y16389D02*
X184626Y12000D01*
X150237Y16389D02*
Y52093D01*
X194626Y5000D02*
Y12000D01*
X204626Y5000D02*
Y12000D01*
X140237Y16389D02*
X144626Y12000D01*
X62371Y38257D02*
Y43000D01*
X73583Y48748D02*
Y52165D01*
Y48748D02*
X75787Y46543D01*
X38803Y50937D02*
X43701D01*
X44626Y27894D02*
X48228Y31496D01*
X44626Y5000D02*
Y27894D01*
X49649Y12000D02*
Y27299D01*
X52402Y30051D01*
Y36654D01*
X52284Y36835D02*
Y53055D01*
X114592Y136853D02*
X119017Y141279D01*
X86853Y135082D02*
X119334D01*
X86120Y136853D02*
X114592D01*
X119334Y135082D02*
X122937Y138685D01*
X122494Y133310D02*
X129823Y140639D01*
X42539Y109003D02*
X53259D01*
X31009Y114964D02*
X36970Y109003D01*
X42539D01*
X53259D02*
X84652Y140397D01*
X14232Y103425D02*
X52691D01*
X54726Y105460D01*
X22658Y101850D02*
X53622D01*
X5807Y85000D02*
X22658Y101850D01*
X4626Y105000D02*
X51761D01*
X5807Y95000D02*
X14232Y103425D01*
X64626Y5000D02*
Y16398D01*
X41091Y126047D02*
X52092D01*
X33433Y122110D02*
X41091D01*
X31009Y124534D02*
X33433Y122110D01*
X17798Y147483D02*
X110189D01*
X7972Y137657D02*
X17798Y147483D01*
X7283Y137657D02*
X7972D01*
X26027Y145712D02*
X110923D01*
X5807Y125492D02*
X26027Y145712D01*
X5807Y125000D02*
Y125492D01*
X98965Y152798D02*
X100963Y154797D01*
X108721Y151027D02*
X110827Y153132D01*
X109455Y149255D02*
X112598Y152398D01*
X9288Y151027D02*
X108721D01*
X9570Y149255D02*
X109455D01*
X4626Y145000D02*
X5315D01*
X9570Y149255D01*
X7283Y152342D02*
X7972D01*
X9288Y151027D01*
X133868Y126617D02*
X240619D01*
X130236Y122985D02*
X133868Y126617D01*
X240619D02*
X245236Y122000D01*
X241532Y220387D02*
X241729Y220190D01*
X169241Y226378D02*
X234978D01*
X168589Y227953D02*
X235630D01*
X241621Y221962D01*
X260922D01*
X234978Y226378D02*
X240968Y220387D01*
X241532D01*
X137718Y157404D02*
X142323Y162009D01*
Y199460D01*
X140748Y163656D02*
Y200112D01*
X137702Y160610D02*
X140748Y163656D01*
X142323Y199460D02*
X169241Y226378D01*
X140748Y200112D02*
X168589Y227953D01*
X140945Y141600D02*
Y157404D01*
X125310Y128192D02*
X138888Y141770D01*
X113124Y140397D02*
X117845Y145117D01*
X84652Y140397D02*
X113124D01*
X85386Y138625D02*
X113858D01*
X124379Y129767D02*
X134656Y140043D01*
X113858Y138625D02*
X118579Y143346D01*
X138888Y141770D02*
Y156234D01*
X134656Y140043D02*
Y144542D01*
X119017Y141279D02*
X126585D01*
X130719Y147818D02*
Y155239D01*
X4626Y115000D02*
X4662Y114964D01*
X128750Y148355D02*
Y155239D01*
X269488Y223030D02*
Y233284D01*
X266649Y220190D02*
X269488Y223030D01*
X261614Y222654D02*
Y233284D01*
X260922Y221962D02*
X261614Y222654D01*
Y233284D02*
X261614Y233284D01*
Y262192D01*
X114370Y213121D02*
X179718Y278469D01*
X125513Y145117D02*
X128750Y148355D01*
X4626Y95000D02*
X5807D01*
X116142Y211743D02*
X179718Y275319D01*
X110827Y153132D02*
Y216336D01*
X4626Y85000D02*
X5807D01*
X110827Y216336D02*
X179678Y285188D01*
X137702Y160450D02*
Y160610D01*
X4626Y155000D02*
X7283Y152342D01*
X4662Y114964D02*
X31009D01*
X269488Y233284D02*
Y242816D01*
X126247Y143346D02*
X130719Y147818D01*
X241729Y220190D02*
X266649D01*
X4626Y135000D02*
X7283Y137657D01*
X4626Y125000D02*
X5807D01*
X118579Y143346D02*
X126247D01*
X269488Y242816D02*
Y262192D01*
X112598Y152398D02*
Y214513D01*
X136231Y158979D02*
X137702Y160450D01*
X117845Y145117D02*
X125513D01*
X269488Y242816D02*
X269488Y242816D01*
X112598Y214513D02*
X179718Y281633D01*
X137718Y157404D02*
X138888Y156234D01*
X67716Y154528D02*
Y159803D01*
X67579Y159941D02*
X67716Y159803D01*
X125962Y126617D02*
X140945Y141600D01*
X120679Y172177D02*
X120876D01*
X182277Y269709D02*
Y296774D01*
X120876Y208309D02*
X182277Y269709D01*
X120876Y172571D02*
Y208309D01*
Y172177D02*
Y172571D01*
X119105Y170602D02*
X120679Y172177D01*
X119105Y158976D02*
X119112Y158969D01*
X119105Y158976D02*
Y170602D01*
X184245Y269172D02*
Y296774D01*
X122845Y207772D02*
X184245Y269172D01*
X122845Y169712D02*
Y172571D01*
Y207772D01*
Y169712D02*
X122942Y169615D01*
X35633Y222399D02*
Y225851D01*
Y213042D02*
Y222399D01*
X144626Y5000D02*
Y12000D01*
X234626Y5000D02*
Y34449D01*
X244626Y5000D02*
Y34449D01*
X254626Y5000D02*
Y34449D01*
X214567Y34508D02*
X214626Y34449D01*
Y5000D02*
Y34449D01*
X132924Y319590D02*
Y322632D01*
X130315Y316981D02*
X132924Y319590D01*
X49649Y269844D02*
X56792D01*
X77302Y290354D02*
X113189D01*
X56792Y269844D02*
X77302Y290354D01*
X24559Y201969D02*
X35633Y213042D01*
X126585Y149113D02*
Y149273D01*
X126782Y149470D01*
X120876Y161144D02*
Y166665D01*
X122845Y161144D02*
Y166665D01*
X41064Y133948D02*
Y138514D01*
X132687Y161144D02*
Y166665D01*
X128750Y161144D02*
Y166665D01*
X62371Y43000D02*
X66387D01*
X258220Y209169D02*
X272638Y223587D01*
Y271539D01*
X211174Y280213D02*
X211282Y280105D01*
X264072D01*
X272638Y271539D01*
X41064Y133948D02*
X41091Y133921D01*
X60166Y48748D02*
X62371Y46543D01*
X60166Y48748D02*
Y52165D01*
X43701Y52937D02*
X43937Y53173D01*
X38803Y34835D02*
X43937D01*
X238058Y300029D02*
X238481Y299606D01*
Y299393D02*
Y299606D01*
X238058Y300029D02*
Y304323D01*
X234572Y310272D02*
X234657Y310187D01*
X237140Y307467D02*
X237275Y307332D01*
Y305105D02*
Y307332D01*
X270087Y310763D02*
X270126Y310724D01*
X273937D01*
X246358Y298559D02*
X249639D01*
X270592Y290724D02*
X273937D01*
X282172Y300724D02*
X286417D01*
X282574Y310331D02*
X286417D01*
X289173Y326630D02*
X294685D01*
X282328Y291118D02*
X286417D01*
X208852Y323177D02*
Y326499D01*
X208852Y326499D02*
X208852Y326499D01*
X212789Y321991D02*
Y326499D01*
X214757Y322059D02*
Y326499D01*
X214722Y322024D02*
X214757Y322059D01*
X212789Y326499D02*
Y330987D01*
X214757Y326499D02*
Y330498D01*
X124813Y161144D02*
Y166665D01*
X126782Y161144D02*
Y166665D01*
X130719Y161144D02*
Y166665D01*
X134656Y161144D02*
Y166665D01*
X179715Y288914D02*
Y289074D01*
X180308Y289667D01*
Y296774D01*
X190151Y284033D02*
Y296774D01*
X187799Y281681D02*
X190151Y284033D01*
X225017Y301348D02*
X228655D01*
X225015Y301346D02*
X225017Y301348D01*
X228655D02*
X228688Y301315D01*
X131797Y287834D02*
X161161D01*
X129277Y290354D02*
X131797Y287834D01*
X80534Y52137D02*
X80563Y52165D01*
X80534Y46543D02*
Y52137D01*
X75787Y43000D02*
X75788Y43000D01*
X80534D01*
X248464Y179369D02*
Y184543D01*
Y179369D02*
X252465Y175368D01*
X228678Y296260D02*
X228784D01*
X234808Y305449D02*
X235026Y305230D01*
X234572Y312913D02*
X235007Y313348D01*
X234570Y310187D02*
X234572Y310189D01*
Y310272D02*
Y312913D01*
X234361Y310187D02*
X234570D01*
X232372Y309524D02*
X233698D01*
X234361Y310187D01*
X231644Y308795D02*
X232372Y309524D01*
X237275Y305105D02*
X238058Y304323D01*
X124813Y172571D02*
Y202056D01*
X196056Y273299D02*
Y296774D01*
X124813Y202056D02*
X196056Y273299D01*
X201962Y271319D02*
Y296774D01*
X130719Y200076D02*
X201962Y271319D01*
X130719Y172571D02*
Y200076D01*
X198025Y272393D02*
Y296774D01*
X126782Y201150D02*
X198025Y272393D01*
X126782Y172571D02*
Y201150D01*
X199993Y271856D02*
Y296774D01*
X128750Y200613D02*
X199993Y271856D01*
X128750Y172571D02*
Y200613D01*
X126782Y149470D02*
Y155239D01*
X192119Y282250D02*
Y296774D01*
X188338Y278469D02*
X192119Y282250D01*
X188159Y275343D02*
X194088Y281272D01*
X188245Y278469D02*
X188338D01*
X194088Y281272D02*
Y296774D01*
X188182Y286132D02*
Y296774D01*
X187238Y285188D02*
X188182Y286132D01*
X187238Y285188D02*
Y285188D01*
X235579Y324115D02*
X235626D01*
X236315Y324804D01*
Y327586D01*
X231014Y308165D02*
X231644Y308795D01*
X229869Y306453D02*
X230365D01*
X231014Y307101D02*
Y308165D01*
X230365Y306453D02*
X231014Y307101D01*
X228688Y305272D02*
X229869Y306453D01*
X228688Y303283D02*
Y305272D01*
X228678Y296260D02*
X228784Y296366D01*
Y299346D01*
X228688D02*
X228784D01*
X215741Y292634D02*
Y296774D01*
X213773Y292634D02*
Y296774D01*
X107510Y316981D02*
X113189D01*
X129528D02*
X130315D01*
X162592Y289265D02*
Y296774D01*
X161161Y287834D02*
X162592Y289265D01*
X129277Y296873D02*
X146844D01*
Y296774D02*
Y296873D01*
X107283Y296873D02*
X113189D01*
X107283Y296873D02*
X107283Y296873D01*
X91959Y316558D02*
X96289D01*
X199009Y322187D02*
Y330567D01*
X148812Y292582D02*
Y300986D01*
X66387Y46543D02*
Y52165D01*
X18996Y201969D02*
X24559D01*
X235204Y305449D02*
X235204Y305449D01*
X235204Y303382D02*
Y305449D01*
X235026Y303283D02*
X235105D01*
X235204Y303382D01*
X231858Y327586D02*
X236315D01*
X231857Y327587D02*
X231858Y327586D01*
X231857Y327587D02*
Y331996D01*
X228457Y337063D02*
X228850D01*
X234613Y318466D02*
X235007D01*
X233530Y319548D02*
X234613Y318466D01*
X230617Y324417D02*
X233530Y321504D01*
Y319548D02*
Y321504D01*
X228314Y327587D02*
X229554Y326346D01*
Y325909D02*
Y326346D01*
Y325909D02*
X230617Y324846D01*
Y324417D02*
Y324846D01*
X226011Y323177D02*
Y329693D01*
X228314Y331996D01*
X226011Y323177D02*
X228314D01*
X225301Y318385D02*
Y322490D01*
X222987Y316072D02*
X225301Y318385D01*
Y322490D02*
X225988Y323177D01*
X222973Y316072D02*
X222987D01*
X225434Y333106D02*
X225585Y333256D01*
Y334191D02*
X228457Y337063D01*
X246496Y174579D02*
Y184543D01*
X246491Y174574D02*
X246496Y174579D01*
X187198Y330779D02*
X187305Y330885D01*
X193104Y322186D02*
Y326499D01*
X175282Y330444D02*
X175387Y330338D01*
Y326499D02*
Y330338D01*
X160486Y301315D02*
X160623Y301178D01*
X181292Y326499D02*
Y330753D01*
Y322487D02*
Y326499D01*
X225585Y333256D02*
Y334191D01*
X181161Y330885D02*
X181292Y330753D01*
X160574Y292387D02*
X160623Y292436D01*
X193104Y326499D02*
Y330612D01*
X160623Y292436D02*
Y296774D01*
X212789Y330987D02*
X212799Y330997D01*
X175326Y322487D02*
X175387Y322548D01*
Y326499D01*
X212777Y321980D02*
X212789Y321991D01*
X160623Y296774D02*
Y301178D01*
X192786Y330930D02*
X193104Y330612D01*
X187198Y326499D02*
Y330779D01*
X193095Y322178D02*
X193104Y322186D01*
X214457Y330798D02*
X214757Y330498D01*
X187198Y322159D02*
Y326499D01*
X199009Y322187D02*
X199107Y322089D01*
X199009Y330567D02*
X199195Y330753D01*
X141535Y345624D02*
X141584Y345576D01*
X187172Y322133D02*
X187198Y322159D01*
X211804Y292533D02*
Y296774D01*
Y292533D02*
X211822Y292516D01*
X141535Y345624D02*
Y348465D01*
X148684Y292453D02*
X148812Y292582D01*
X181249Y322443D02*
X181292Y322487D01*
D135*
X37333Y277524D02*
X37439Y277418D01*
X37439D01*
X37370Y275830D02*
Y277349D01*
X37439Y277418D01*
X38945Y272597D02*
Y274255D01*
D136*
X244429Y199962D02*
X244710Y199681D01*
Y196198D02*
Y199681D01*
X243903Y201396D02*
X244429Y200870D01*
Y199962D02*
Y200870D01*
X240969Y201396D02*
X243903D01*
D137*
X66929Y90055D02*
Y97811D01*
Y90055D02*
X72000D01*
X52724Y85000D02*
X65716D01*
X66929Y86213D02*
Y90055D01*
X65716Y85000D02*
X66929Y86213D01*
X66929Y78166D02*
X72000D01*
X66929Y70410D02*
X72000D01*
X66929Y97811D02*
Y107283D01*
X66929Y97811D02*
X72000D01*
X66929Y97811D02*
X66929Y97811D01*
X48000Y94842D02*
X62008D01*
X14212Y65000D02*
X34212Y85000D01*
X43276D02*
X52724D01*
X34212D02*
X43276D01*
X61709Y222583D02*
X74586D01*
X78381Y226378D02*
Y246858D01*
X74586Y222583D02*
X78381Y226378D01*
X54031Y214906D02*
X61709Y222583D01*
X54031Y213921D02*
Y214906D01*
X277362Y233284D02*
Y248235D01*
X28936Y54984D02*
X28952Y54968D01*
X4642Y54984D02*
X28936D01*
X4626Y55000D02*
X4642Y54984D01*
X277362Y262192D02*
Y277143D01*
X34626Y46730D02*
Y68680D01*
X36356Y70410D01*
X72000D01*
X32896Y45000D02*
X34626Y46730D01*
X4626Y45000D02*
X32896D01*
X43276Y94842D02*
X48000D01*
X52724D01*
X4626Y65000D02*
X14212D01*
X94027Y88166D02*
X95110Y87083D01*
X89854Y83993D02*
X94027Y88166D01*
X95110Y87083D02*
X101047D01*
X86764Y74288D02*
X89854Y71197D01*
X66929Y70410D02*
Y78166D01*
D138*
X56000Y163331D02*
Y174766D01*
Y180055D02*
Y191197D01*
Y174766D02*
Y180055D01*
Y191197D02*
Y213921D01*
X88651Y182095D02*
Y185078D01*
Y182095D02*
X88690Y182055D01*
X54031Y213921D02*
X56000D01*
X55911Y191197D02*
X56000D01*
X85074Y246858D02*
Y251161D01*
X86771Y252858D01*
X246496Y158503D02*
Y167000D01*
X240256Y152264D02*
X246496Y158503D01*
X285236Y233284D02*
Y248235D01*
X285236Y233284D02*
X285236Y233284D01*
Y262192D02*
Y277362D01*
X275236Y141732D02*
Y147452D01*
X276024Y148240D01*
X278740D01*
X246491Y167005D02*
Y174574D01*
Y167005D02*
X246496Y167000D01*
X86764Y74288D02*
Y93933D01*
D139*
X60042Y235694D02*
X69663D01*
X56105Y230773D02*
Y231757D01*
X60042Y235694D01*
X220472Y171063D02*
Y217520D01*
Y171063D02*
X239272Y152264D01*
X240256D01*
D140*
X80130Y275590D02*
X114565D01*
X43465Y205323D02*
Y238925D01*
X80130Y275590D01*
X45276Y204573D02*
Y238175D01*
X80880Y273780D01*
X115315D01*
X37927Y197224D02*
X45276Y204573D01*
X22427Y197224D02*
X37927D01*
X22427Y199035D02*
X37177D01*
X43465Y205323D01*
X120409Y281434D02*
Y319516D01*
X122220Y280684D02*
Y318766D01*
X149875Y326578D02*
Y333188D01*
X148500Y334563D02*
X149875Y333188D01*
X122220Y318766D02*
X138016Y334563D01*
X148500D01*
X115315Y273780D02*
X122220Y280684D01*
X120409Y319516D02*
X137266Y336374D01*
X151686Y326578D02*
Y333938D01*
X149250Y336374D02*
X151686Y333938D01*
X137266Y336374D02*
X149250D01*
X114565Y275590D02*
X120409Y281434D01*
X149796Y326499D02*
X149875Y326578D01*
X22329Y197126D02*
X22427Y197224D01*
X19272Y197126D02*
X22329D01*
X18996Y196850D02*
X19272Y197126D01*
X151686Y326578D02*
X151765Y326499D01*
X19272Y199134D02*
X22329D01*
X18996Y199409D02*
X19272Y199134D01*
X22329D02*
X22427Y199035D01*
D141*
X254971Y139026D02*
Y148337D01*
X255020Y148386D01*
Y156142D02*
X263189D01*
X263217Y156114D01*
X278740D01*
X255020Y148386D02*
Y156142D01*
X278740Y156114D02*
X287598D01*
D142*
X256398Y204429D02*
X256496Y204528D01*
X256398Y198228D02*
Y204429D01*
X259701Y201532D02*
X278740D01*
X256398Y198228D02*
X259701Y201532D01*
D143*
X95272Y296873D02*
X100591D01*
D144*
X86771Y252814D02*
D03*
D145*
X67953Y178150D02*
D03*
D146*
X213476Y289272D02*
D03*
D147*
X91463Y84335D02*
D03*
D148*
X165236Y122000D02*
D03*
X175236D02*
D03*
X185236D02*
D03*
X195236D02*
D03*
X205236D02*
D03*
X215236D02*
D03*
X225236D02*
D03*
X235236D02*
D03*
X155236D02*
D03*
X145236D02*
D03*
X135236D02*
D03*
X125236D02*
D03*
X115236D02*
D03*
X105236D02*
D03*
X95236D02*
D03*
Y42000D02*
D03*
X105236D02*
D03*
X115236D02*
D03*
X195236D02*
D03*
X185236D02*
D03*
X175236D02*
D03*
X165236D02*
D03*
X155236D02*
D03*
X145236D02*
D03*
X135236D02*
D03*
X125236D02*
D03*
D149*
X245236Y122000D02*
D03*
X205236Y42000D02*
D03*
D150*
X219678Y305731D02*
D03*
D151*
X284626Y335000D02*
D03*
X14626D02*
D03*
D152*
X180308Y174826D02*
D03*
D153*
X4626Y145000D02*
D03*
Y155000D02*
D03*
Y135000D02*
D03*
Y75000D02*
D03*
Y65000D02*
D03*
Y35000D02*
D03*
Y45000D02*
D03*
Y55000D02*
D03*
Y125000D02*
D03*
Y115000D02*
D03*
Y95000D02*
D03*
Y85000D02*
D03*
Y105000D02*
D03*
D154*
X264626Y5000D02*
D03*
X254626D02*
D03*
X244626D02*
D03*
X234626D02*
D03*
X224626D02*
D03*
X144626D02*
D03*
X154626D02*
D03*
X164626D02*
D03*
X174626D02*
D03*
X184626D02*
D03*
X194626D02*
D03*
X204626D02*
D03*
X214626D02*
D03*
X64626D02*
D03*
X54626D02*
D03*
X34626D02*
D03*
X44626D02*
D03*
X134626D02*
D03*
X104626D02*
D03*
X94626D02*
D03*
X84626D02*
D03*
X74626D02*
D03*
X114626D02*
D03*
X124626D02*
D03*
D155*
X122845Y149113D02*
D03*
X248464Y201633D02*
D03*
X296260Y35433D02*
D03*
Y31890D02*
D03*
Y42520D02*
D03*
Y49606D02*
D03*
Y46063D02*
D03*
Y113386D02*
D03*
Y120472D02*
D03*
Y116929D02*
D03*
X75787Y35433D02*
D03*
X175236Y50197D02*
D03*
X73583Y52165D02*
D03*
X38803Y50937D02*
D03*
X100963Y154797D02*
D03*
X140945Y157404D02*
D03*
X137702Y160450D02*
D03*
X134656Y144542D02*
D03*
X119112Y158969D02*
D03*
X136821Y149470D02*
D03*
X122942Y169615D02*
D03*
X129823Y140639D02*
D03*
X66929Y185335D02*
D03*
X259274Y181008D02*
D03*
X132924Y322632D02*
D03*
X79646Y162441D02*
D03*
X88651Y185078D02*
D03*
X81123Y164957D02*
D03*
X77294D02*
D03*
X81850Y187270D02*
D03*
X77836Y189349D02*
D03*
X80433Y189370D02*
D03*
X79134Y187270D02*
D03*
X76417Y187346D02*
D03*
X81850Y167215D02*
D03*
X79134D02*
D03*
X76417D02*
D03*
X122937Y138685D02*
D03*
X120324Y147222D02*
D03*
X125347Y139063D02*
D03*
X268701Y210000D02*
D03*
X118587Y156377D02*
D03*
X126585Y141279D02*
D03*
X128657Y142845D02*
D03*
X136034Y178493D02*
D03*
X126585Y149113D02*
D03*
X136821Y146372D02*
D03*
X125408Y169588D02*
D03*
X258032Y216636D02*
D03*
X69665Y12000D02*
D03*
X49649D02*
D03*
X273491Y210000D02*
D03*
X296260Y81496D02*
D03*
Y85039D02*
D03*
Y77953D02*
D03*
X3179Y186502D02*
D03*
Y189651D02*
D03*
Y195950D02*
D03*
Y170754D02*
D03*
Y173903D02*
D03*
Y177053D02*
D03*
Y180202D02*
D03*
Y183352D02*
D03*
X3164Y205455D02*
D03*
Y208605D02*
D03*
Y211755D02*
D03*
Y214904D02*
D03*
Y192857D02*
D03*
Y199156D02*
D03*
Y202306D02*
D03*
X3179Y164454D02*
D03*
Y167604D02*
D03*
X60166Y52165D02*
D03*
X38803Y34835D02*
D03*
X293307Y345295D02*
D03*
X285433D02*
D03*
X281496D02*
D03*
X277559D02*
D03*
X273622D02*
D03*
X289370D02*
D03*
X253937D02*
D03*
X250000D02*
D03*
X246063D02*
D03*
X242126D02*
D03*
X269685D02*
D03*
X265748D02*
D03*
X261811D02*
D03*
X257874D02*
D03*
X296260Y334252D02*
D03*
Y341338D02*
D03*
Y337795D02*
D03*
Y344882D02*
D03*
Y284646D02*
D03*
Y291732D02*
D03*
Y288189D02*
D03*
Y298819D02*
D03*
X296654Y305906D02*
D03*
Y295276D02*
D03*
X296260Y302362D02*
D03*
Y312992D02*
D03*
Y309449D02*
D03*
X296654Y327165D02*
D03*
X296260Y330709D02*
D03*
Y320079D02*
D03*
Y323622D02*
D03*
Y316535D02*
D03*
Y235039D02*
D03*
Y256299D02*
D03*
Y252756D02*
D03*
Y263386D02*
D03*
Y259842D02*
D03*
Y281102D02*
D03*
X238481Y299393D02*
D03*
X270592Y290724D02*
D03*
X278582Y295921D02*
D03*
X237140Y307467D02*
D03*
X270087Y310763D02*
D03*
X278633Y305532D02*
D03*
X282574Y310331D02*
D03*
X282328Y291118D02*
D03*
X249639Y298559D02*
D03*
X282172Y300724D02*
D03*
X129528Y303982D02*
D03*
X113189D02*
D03*
X125880Y300810D02*
D03*
X204697Y320854D02*
D03*
X210132Y313866D02*
D03*
X143096Y155750D02*
D03*
X187799Y281681D02*
D03*
X179715Y288914D02*
D03*
X174838Y288209D02*
D03*
X136872Y162852D02*
D03*
X7874Y345295D02*
D03*
X3937D02*
D03*
X3937Y340295D02*
D03*
X258576Y177996D02*
D03*
X225015Y301346D02*
D03*
X296260Y217323D02*
D03*
Y224409D02*
D03*
Y220866D02*
D03*
Y231496D02*
D03*
Y227953D02*
D03*
Y38976D02*
D03*
Y56693D02*
D03*
Y53150D02*
D03*
Y63779D02*
D03*
Y67323D02*
D03*
Y60236D02*
D03*
Y74409D02*
D03*
Y70866D02*
D03*
Y88583D02*
D03*
Y95669D02*
D03*
Y99213D02*
D03*
Y92126D02*
D03*
Y106299D02*
D03*
Y102756D02*
D03*
Y109843D02*
D03*
Y127559D02*
D03*
Y131102D02*
D03*
Y124016D02*
D03*
X255228Y216059D02*
D03*
X80534Y52137D02*
D03*
X116431Y300810D02*
D03*
X116535Y293723D02*
D03*
X125984D02*
D03*
X239365Y319056D02*
D03*
X234572Y310189D02*
D03*
X178682Y270669D02*
D03*
X211174Y275590D02*
D03*
X192119Y275319D02*
D03*
X174059Y283689D02*
D03*
X188159Y275343D02*
D03*
X211174Y280213D02*
D03*
X179678Y285188D02*
D03*
X179718Y281633D02*
D03*
Y278469D02*
D03*
Y275319D02*
D03*
X188245Y278469D02*
D03*
X187238Y285188D02*
D03*
X235579Y324115D02*
D03*
X228784Y296260D02*
D03*
X107510Y316981D02*
D03*
X129277Y290354D02*
D03*
X113189D02*
D03*
X129277Y296873D02*
D03*
X113189Y296873D02*
D03*
X91959Y316558D02*
D03*
X66387Y52165D02*
D03*
X61024Y283455D02*
D03*
X235204Y305449D02*
D03*
X225434Y333106D02*
D03*
X95272Y296873D02*
D03*
X234252Y345295D02*
D03*
X180118D02*
D03*
X129921D02*
D03*
X82677D02*
D03*
X78740D02*
D03*
X296260Y210236D02*
D03*
Y213779D02*
D03*
Y203150D02*
D03*
Y196063D02*
D03*
Y155905D02*
D03*
Y162992D02*
D03*
X291071Y145176D02*
D03*
X243504Y180709D02*
D03*
X296260Y206693D02*
D03*
Y199606D02*
D03*
Y188976D02*
D03*
Y192520D02*
D03*
Y181890D02*
D03*
Y185433D02*
D03*
Y166535D02*
D03*
Y159449D02*
D03*
Y148819D02*
D03*
Y152362D02*
D03*
Y141732D02*
D03*
Y145276D02*
D03*
Y134646D02*
D03*
Y138189D02*
D03*
X257577Y183739D02*
D03*
X238386Y193307D02*
D03*
X243504Y183465D02*
D03*
Y177953D02*
D03*
X206693Y345295D02*
D03*
X210630D02*
D03*
X212813Y306453D02*
D03*
X214567Y345295D02*
D03*
X218504D02*
D03*
X222973Y316072D02*
D03*
X222441Y345295D02*
D03*
X226378D02*
D03*
X230315D02*
D03*
X238189D02*
D03*
X243110Y328760D02*
D03*
X3135Y252812D02*
D03*
X3150Y237008D02*
D03*
Y233858D02*
D03*
Y230709D02*
D03*
Y227559D02*
D03*
Y224409D02*
D03*
Y221260D02*
D03*
Y218110D02*
D03*
Y249606D02*
D03*
Y246457D02*
D03*
Y243307D02*
D03*
Y240158D02*
D03*
X3937Y335295D02*
D03*
Y330295D02*
D03*
Y325295D02*
D03*
Y320295D02*
D03*
Y315295D02*
D03*
Y310295D02*
D03*
Y305295D02*
D03*
Y300295D02*
D03*
X7777Y249458D02*
D03*
X7874Y300295D02*
D03*
Y252795D02*
D03*
X9213Y246740D02*
D03*
X11811Y345295D02*
D03*
Y300295D02*
D03*
X12308Y245281D02*
D03*
X15748Y345295D02*
D03*
Y300295D02*
D03*
Y252795D02*
D03*
X15976Y245126D02*
D03*
X19685Y345295D02*
D03*
Y300295D02*
D03*
Y245295D02*
D03*
X23622Y345295D02*
D03*
Y300295D02*
D03*
Y252795D02*
D03*
Y245295D02*
D03*
X26852Y300207D02*
D03*
Y295207D02*
D03*
Y290207D02*
D03*
Y285207D02*
D03*
Y280207D02*
D03*
Y275207D02*
D03*
Y270207D02*
D03*
Y265207D02*
D03*
Y260207D02*
D03*
X26861Y256243D02*
D03*
X27559Y345295D02*
D03*
Y252795D02*
D03*
Y245295D02*
D03*
X29921Y298425D02*
D03*
X30315Y286221D02*
D03*
X31496Y345295D02*
D03*
Y252795D02*
D03*
Y245295D02*
D03*
X33282Y286170D02*
D03*
Y281616D02*
D03*
X33465Y298425D02*
D03*
X33548Y277152D02*
D03*
X34874Y272688D02*
D03*
X35433Y345295D02*
D03*
Y267795D02*
D03*
Y262795D02*
D03*
Y257795D02*
D03*
Y252795D02*
D03*
Y245295D02*
D03*
X37008Y298425D02*
D03*
X39370Y345295D02*
D03*
Y245295D02*
D03*
X40551Y298425D02*
D03*
X40806Y282302D02*
D03*
X41460Y286170D02*
D03*
X42298Y248397D02*
D03*
X42608Y270985D02*
D03*
Y266764D02*
D03*
X42652Y262742D02*
D03*
X42718Y257857D02*
D03*
X42785Y253061D02*
D03*
X43307Y345295D02*
D03*
X43701Y298425D02*
D03*
X44094Y286221D02*
D03*
X47230Y286656D02*
D03*
X47244Y345295D02*
D03*
Y296850D02*
D03*
Y293701D02*
D03*
Y290158D02*
D03*
X51181Y345295D02*
D03*
X55118D02*
D03*
X59055D02*
D03*
X62992D02*
D03*
X66929D02*
D03*
X70866D02*
D03*
X74803D02*
D03*
X86614D02*
D03*
X90158Y339370D02*
D03*
Y335433D02*
D03*
Y331890D02*
D03*
Y327953D02*
D03*
X91732Y324409D02*
D03*
X90551Y345295D02*
D03*
X94488D02*
D03*
X96457Y324409D02*
D03*
X98425Y345295D02*
D03*
X100394Y324409D02*
D03*
X102299Y330105D02*
D03*
X102362Y340551D02*
D03*
Y337795D02*
D03*
Y327165D02*
D03*
X102362Y345295D02*
D03*
X105548Y330017D02*
D03*
X106299Y337795D02*
D03*
X106299Y345295D02*
D03*
X108885Y339697D02*
D03*
X108952Y330194D02*
D03*
X110236Y342795D02*
D03*
Y345295D02*
D03*
X112205Y330709D02*
D03*
X115117Y333133D02*
D03*
X114173Y345295D02*
D03*
X116142Y336614D02*
D03*
X118110Y345295D02*
D03*
X120079Y336614D02*
D03*
X122047Y345295D02*
D03*
X124016Y336614D02*
D03*
X125984Y345295D02*
D03*
X127953Y336614D02*
D03*
X131890D02*
D03*
X135827Y338583D02*
D03*
X137462Y341731D02*
D03*
X137795Y345295D02*
D03*
X141732D02*
D03*
X145669D02*
D03*
X149606D02*
D03*
X153543D02*
D03*
X157480D02*
D03*
X158299Y321391D02*
D03*
X161417Y345295D02*
D03*
X165354D02*
D03*
X169291D02*
D03*
X172483Y345331D02*
D03*
X183071Y345295D02*
D03*
X187008D02*
D03*
X190945D02*
D03*
X194882D02*
D03*
X198819D02*
D03*
X202756D02*
D03*
D156*
X62008Y94842D02*
D03*
X66929Y107283D02*
D03*
X69663Y235694D02*
D03*
X54171Y173223D02*
D03*
X46262Y173182D02*
D03*
X285236Y248235D02*
D03*
X277362D02*
D03*
Y277143D02*
D03*
X28952Y54968D02*
D03*
X285236Y277362D02*
D03*
X240969Y201396D02*
D03*
X220472Y217520D02*
D03*
X101047Y80709D02*
D03*
Y87083D02*
D03*
X89804Y253937D02*
D03*
X83499D02*
D03*
X211804Y289370D02*
D03*
X215741D02*
D03*
X46970Y198054D02*
D03*
X246496Y167000D02*
D03*
M02*
