G04*
G04 #@! TF.GenerationSoftware,Altium Limited,Altium Designer,25.8.1 (18)*
G04*
G04 Layer_Color=2752767*
%FSAX25Y25*%
%MOIN*%
G70*
G04*
G04 #@! TF.SameCoordinates,BE805E25-8328-4095-8AD4-E1B6FE3B792C*
G04*
G04*
G04 #@! TF.FilePolarity,Positive*
G04*
G01*
G75*
%ADD220C,0.00200*%
%ADD221C,0.00267*%
D220*
X0273813Y0228143D02*
X0273813Y0227743D01*
X0274613Y0227743D01*
X0274613Y0228143D01*
X0275013Y0228143D01*
X0275013Y0228943D01*
X0274613Y0228943D01*
X0274613Y0229343D01*
X0273813Y0229343D01*
X0273813Y0228943D01*
X0273413Y0228943D01*
X0273413Y0228143D01*
X0273813Y0228143D01*
X0274013Y0228343D02*
X0274013Y0228143D01*
X0274413Y0228143D01*
X0274413Y0228343D01*
X0274613Y0228343D01*
X0274613Y0228743D01*
X0274413Y0228743D01*
X0274413Y0228943D01*
X0274013Y0228943D01*
X0274013Y0228743D01*
X0273813Y0228743D01*
X0273813Y0228343D01*
X0274013Y0228343D01*
X0119161Y0331622D02*
X0119561Y0332422D01*
X0119161Y0333222D01*
X0119961Y0332822D01*
X0120761Y0333222D01*
X0120361Y0332422D01*
X0120761Y0331622D01*
X0119961Y0332022D01*
X0119161Y0331622D01*
X0109161Y0331622D02*
X0109561Y0332422D01*
X0109161Y0333222D01*
X0109961Y0332822D01*
X0110761Y0333222D01*
X0110361Y0332422D01*
X0110761Y0331622D01*
X0109961Y0332022D01*
X0109161Y0331622D01*
X0189161Y0111602D02*
X0189561Y0112402D01*
X0189161Y0113202D01*
X0189961Y0112802D01*
X0190761Y0113202D01*
X0190361Y0112402D01*
X0190761Y0111602D01*
X0189961Y0112002D01*
X0189161Y0111602D01*
X0194013Y0047041D02*
X0194013Y0046641D01*
X0194813Y0046641D01*
X0194813Y0047041D01*
X0195213Y0047041D01*
X0195213Y0047841D01*
X0194813Y0047841D01*
X0194813Y0048241D01*
X0194013Y0048241D01*
X0194013Y0047841D01*
X0193613Y0047841D01*
X0193613Y0047041D01*
X0194013Y0047041D01*
X0194213Y0047241D02*
X0194213Y0047041D01*
X0194613Y0047041D01*
X0194613Y0047241D01*
X0194813Y0047241D01*
X0194813Y0047641D01*
X0194613Y0047641D01*
X0194613Y0047841D01*
X0194213Y0047841D01*
X0194213Y0047641D01*
X0194013Y0047641D01*
X0194013Y0047241D01*
X0194213Y0047241D01*
X0074403Y0176765D02*
X0074403Y0176365D01*
X0075203Y0176365D01*
X0075203Y0176765D01*
X0075603Y0176765D01*
X0075603Y0177565D01*
X0075203Y0177565D01*
X0075203Y0177965D01*
X0074403Y0177965D01*
X0074403Y0177565D01*
X0074003Y0177565D01*
X0074003Y0176765D01*
X0074403Y0176765D01*
X0039161Y0111602D02*
X0039561Y0112402D01*
X0039161Y0113202D01*
X0039961Y0112802D01*
X0040761Y0113202D01*
X0040361Y0112402D01*
X0040761Y0111602D01*
X0039961Y0112002D01*
X0039161Y0111602D01*
X0039121Y-0018359D02*
X0039521Y-0017559D01*
X0039121Y-0016759D01*
X0039921Y-0017159D01*
X0040721Y-0016759D01*
X0040321Y-0017559D01*
X0040721Y-0018359D01*
X0039921Y-0017959D01*
X0039121Y-0018359D01*
X0169161Y0131602D02*
X0169561Y0132402D01*
X0169161Y0133202D01*
X0169961Y0132802D01*
X0170761Y0133202D01*
X0170361Y0132402D01*
X0170761Y0131602D01*
X0169961Y0132002D01*
X0169161Y0131602D01*
X0049161Y0111602D02*
X0049561Y0112402D01*
X0049161Y0113202D01*
X0049961Y0112802D01*
X0050761Y0113202D01*
X0050361Y0112402D01*
X0050761Y0111602D01*
X0049961Y0112002D01*
X0049161Y0111602D01*
X0059161Y0111602D02*
X0059561Y0112402D01*
X0059161Y0113202D01*
X0059961Y0112802D01*
X0060761Y0113202D01*
X0060361Y0112402D01*
X0060761Y0111602D01*
X0059961Y0112002D01*
X0059161Y0111602D01*
X0069161Y0111602D02*
X0069561Y0112402D01*
X0069161Y0113202D01*
X0069961Y0112802D01*
X0070761Y0113202D01*
X0070361Y0112402D01*
X0070761Y0111602D01*
X0069961Y0112002D01*
X0069161Y0111602D01*
X0079161Y0111602D02*
X0079561Y0112402D01*
X0079161Y0113202D01*
X0079961Y0112802D01*
X0080761Y0113202D01*
X0080361Y0112402D01*
X0080761Y0111602D01*
X0079961Y0112002D01*
X0079161Y0111602D01*
X0089161Y0111602D02*
X0089561Y0112402D01*
X0089161Y0113202D01*
X0089961Y0112802D01*
X0090761Y0113202D01*
X0090361Y0112402D01*
X0090761Y0111602D01*
X0089961Y0112002D01*
X0089161Y0111602D01*
X0099161Y0111602D02*
X0099561Y0112402D01*
X0099161Y0113202D01*
X0099961Y0112802D01*
X0100761Y0113202D01*
X0100361Y0112402D01*
X0100761Y0111602D01*
X0099961Y0112002D01*
X0099161Y0111602D01*
X0109161Y0111602D02*
X0109561Y0112402D01*
X0109161Y0113202D01*
X0109961Y0112802D01*
X0110761Y0113202D01*
X0110361Y0112402D01*
X0110761Y0111602D01*
X0109961Y0112002D01*
X0109161Y0111602D01*
X0119161Y0111602D02*
X0119561Y0112402D01*
X0119161Y0113202D01*
X0119961Y0112802D01*
X0120761Y0113202D01*
X0120361Y0112402D01*
X0120761Y0111602D01*
X0119961Y0112002D01*
X0119161Y0111602D01*
X0129161Y0111602D02*
X0129561Y0112402D01*
X0129161Y0113202D01*
X0129961Y0112802D01*
X0130761Y0113202D01*
X0130361Y0112402D01*
X0130761Y0111602D01*
X0129961Y0112002D01*
X0129161Y0111602D01*
X0139161Y0111602D02*
X0139561Y0112402D01*
X0139161Y0113202D01*
X0139961Y0112802D01*
X0140761Y0113202D01*
X0140361Y0112402D01*
X0140761Y0111602D01*
X0139961Y0112002D01*
X0139161Y0111602D01*
X0149161Y0111602D02*
X0149561Y0112402D01*
X0149161Y0113202D01*
X0149961Y0112802D01*
X0150761Y0113202D01*
X0150361Y0112402D01*
X0150761Y0111602D01*
X0149961Y0112002D01*
X0149161Y0111602D01*
X0159161Y0111602D02*
X0159561Y0112402D01*
X0159161Y0113202D01*
X0159961Y0112802D01*
X0160761Y0113202D01*
X0160361Y0112402D01*
X0160761Y0111602D01*
X0159961Y0112002D01*
X0159161Y0111602D01*
X0169161Y0111602D02*
X0169561Y0112402D01*
X0169161Y0113202D01*
X0169961Y0112802D01*
X0170761Y0113202D01*
X0170361Y0112402D01*
X0170761Y0111602D01*
X0169961Y0112002D01*
X0169161Y0111602D01*
X0179161Y0111602D02*
X0179561Y0112402D01*
X0179161Y0113202D01*
X0179961Y0112802D01*
X0180761Y0113202D01*
X0180361Y0112402D01*
X0180761Y0111602D01*
X0179961Y0112002D01*
X0179161Y0111602D01*
X0063583Y0086011D02*
X0063983Y0086411D01*
X0064383Y0086411D01*
X0063983Y0086811D01*
X0064383Y0087211D01*
X0063983Y0087211D01*
X0063583Y0087611D01*
X0063183Y0087211D01*
X0062783Y0087211D01*
X0063183Y0086811D01*
X0062783Y0086411D01*
X0063183Y0086411D01*
X0063583Y0086011D01*
X0063583Y0086411D02*
X0063783Y0086611D01*
X0063983Y0086611D01*
X0063783Y0086811D01*
X0063983Y0087011D01*
X0063783Y0087011D01*
X0063583Y0087211D01*
X0063383Y0087011D01*
X0063183Y0087011D01*
X0063383Y0086811D01*
X0063183Y0086611D01*
X0063383Y0086611D01*
X0063583Y0086411D01*
X0062783Y0007271D02*
X0063183Y0008071D01*
X0062783Y0008871D01*
X0063583Y0008471D01*
X0064383Y0008871D01*
X0063983Y0008071D01*
X0064383Y0007271D01*
X0063583Y0007671D01*
X0062783Y0007271D01*
X0063183Y0007671D02*
X0063383Y0008071D01*
X0063183Y0008471D01*
X0063583Y0008271D01*
X0063983Y0008471D01*
X0063783Y0008071D01*
X0063983Y0007671D01*
X0063583Y0007871D01*
X0063183Y0007671D01*
X0116732Y0267113D02*
X0117132Y0267513D01*
X0117532Y0267513D01*
X0117132Y0267913D01*
X0117532Y0268313D01*
X0117132Y0268313D01*
X0116732Y0268713D01*
X0116332Y0268313D01*
X0115932Y0268313D01*
X0116332Y0267913D01*
X0115932Y0267513D01*
X0116332Y0267513D01*
X0116732Y0267113D01*
X0116732Y0267513D02*
X0116932Y0267713D01*
X0117132Y0267713D01*
X0116932Y0267913D01*
X0117132Y0268113D01*
X0116932Y0268113D01*
X0116732Y0268313D01*
X0116532Y0268113D01*
X0116332Y0268113D01*
X0116532Y0267913D01*
X0116332Y0267713D01*
X0116532Y0267713D01*
X0116732Y0267513D01*
X0115932Y0188373D02*
X0116332Y0189173D01*
X0115932Y0189973D01*
X0116732Y0189573D01*
X0117532Y0189973D01*
X0117132Y0189173D01*
X0117532Y0188373D01*
X0116732Y0188773D01*
X0115932Y0188373D01*
X0116332Y0188773D02*
X0116532Y0189173D01*
X0116332Y0189573D01*
X0116732Y0189373D01*
X0117132Y0189573D01*
X0116932Y0189173D01*
X0117132Y0188773D01*
X0116732Y0188973D01*
X0116332Y0188773D01*
X0129161Y0331622D02*
X0129561Y0332422D01*
X0129161Y0333222D01*
X0129961Y0332822D01*
X0130761Y0333222D01*
X0130361Y0332422D01*
X0130761Y0331622D01*
X0129961Y0332022D01*
X0129161Y0331622D01*
X0139161Y0331622D02*
X0139561Y0332422D01*
X0139161Y0333222D01*
X0139961Y0332822D01*
X0140761Y0333222D01*
X0140361Y0332422D01*
X0140761Y0331622D01*
X0139961Y0332022D01*
X0139161Y0331622D01*
X0192205Y0320430D02*
X0191405Y0322030D01*
X0193005Y0322030D01*
X0192205Y0320430D01*
X0158189Y0336887D02*
X0158589Y0337287D01*
X0158989Y0337287D01*
X0158589Y0337687D01*
X0158989Y0338087D01*
X0158589Y0338087D01*
X0158189Y0338487D01*
X0157789Y0338087D01*
X0157389Y0338087D01*
X0157789Y0337687D01*
X0157389Y0337287D01*
X0157789Y0337287D01*
X0158189Y0336887D01*
X0192205Y0336887D02*
X0192605Y0337287D01*
X0193005Y0337287D01*
X0192605Y0337687D01*
X0193005Y0338087D01*
X0192605Y0338087D01*
X0192205Y0338487D01*
X0191805Y0338087D01*
X0191405Y0338087D01*
X0191805Y0337687D01*
X0191405Y0337287D01*
X0191805Y0337287D01*
X0192205Y0336887D01*
X0158189Y0320430D02*
X0157389Y0322030D01*
X0158989Y0322030D01*
X0158189Y0320430D01*
X0054718Y0176765D02*
X0054718Y0176365D01*
X0055518Y0176365D01*
X0055518Y0176765D01*
X0055918Y0176765D01*
X0055918Y0177565D01*
X0055518Y0177565D01*
X0055518Y0177965D01*
X0054718Y0177965D01*
X0054718Y0177565D01*
X0054318Y0177565D01*
X0054318Y0176765D01*
X0054718Y0176765D01*
X0209161Y0121602D02*
X0209561Y0122402D01*
X0209161Y0123202D01*
X0209961Y0122802D01*
X0210761Y0123202D01*
X0210361Y0122402D01*
X0210761Y0121602D01*
X0209961Y0122002D01*
X0209161Y0121602D01*
X0209161Y0131602D02*
X0209561Y0132402D01*
X0209161Y0133202D01*
X0209961Y0132802D01*
X0210761Y0133202D01*
X0210361Y0132402D01*
X0210761Y0131602D01*
X0209961Y0132002D01*
X0209161Y0131602D01*
X0199161Y0121602D02*
X0199561Y0122402D01*
X0199161Y0123202D01*
X0199961Y0122802D01*
X0200761Y0123202D01*
X0200361Y0122402D01*
X0200761Y0121602D01*
X0199961Y0122002D01*
X0199161Y0121602D01*
X0199161Y0131602D02*
X0199561Y0132402D01*
X0199161Y0133202D01*
X0199961Y0132802D01*
X0200761Y0133202D01*
X0200361Y0132402D01*
X0200761Y0131602D01*
X0199961Y0132002D01*
X0199161Y0131602D01*
X0189161Y0121602D02*
X0189561Y0122402D01*
X0189161Y0123202D01*
X0189961Y0122802D01*
X0190761Y0123202D01*
X0190361Y0122402D01*
X0190761Y0121602D01*
X0189961Y0122002D01*
X0189161Y0121602D01*
X0189161Y0131602D02*
X0189561Y0132402D01*
X0189161Y0133202D01*
X0189961Y0132802D01*
X0190761Y0133202D01*
X0190361Y0132402D01*
X0190761Y0131602D01*
X0189961Y0132002D01*
X0189161Y0131602D01*
X0179161Y0121602D02*
X0179561Y0122402D01*
X0179161Y0123202D01*
X0179961Y0122802D01*
X0180761Y0123202D01*
X0180361Y0122402D01*
X0180761Y0121602D01*
X0179961Y0122002D01*
X0179161Y0121602D01*
X0179161Y0131602D02*
X0179561Y0132402D01*
X0179161Y0133202D01*
X0179961Y0132802D01*
X0180761Y0133202D01*
X0180361Y0132402D01*
X0180761Y0131602D01*
X0179961Y0132002D01*
X0179161Y0131602D01*
X0169161Y0121602D02*
X0169561Y0122402D01*
X0169161Y0123202D01*
X0169961Y0122802D01*
X0170761Y0123202D01*
X0170361Y0122402D01*
X0170761Y0121602D01*
X0169961Y0122002D01*
X0169161Y0121602D01*
X0026801Y0038058D02*
X0026001Y0039658D01*
X0027601Y0039658D01*
X0026801Y0038058D01*
X0010345Y0004042D02*
X0010745Y0004442D01*
X0011145Y0004442D01*
X0010745Y0004843D01*
X0011145Y0005243D01*
X0010745Y0005243D01*
X0010345Y0005643D01*
X0009945Y0005243D01*
X0009544Y0005243D01*
X0009945Y0004843D01*
X0009544Y0004442D01*
X0009945Y0004442D01*
X0010345Y0004042D01*
X0010345Y0038058D02*
X0010745Y0038458D01*
X0011145Y0038458D01*
X0010745Y0038858D01*
X0011145Y0039258D01*
X0010745Y0039258D01*
X0010345Y0039658D01*
X0009945Y0039258D01*
X0009544Y0039258D01*
X0009945Y0038858D01*
X0009544Y0038458D01*
X0009945Y0038458D01*
X0010345Y0038058D01*
X0026801Y0004042D02*
X0026001Y0005643D01*
X0027601Y0005643D01*
X0026801Y0004042D01*
X0179121Y-0018359D02*
X0179521Y-0017559D01*
X0179121Y-0016759D01*
X0179921Y-0017159D01*
X0180721Y-0016759D01*
X0180321Y-0017559D01*
X0180721Y-0018359D01*
X0179921Y-0017959D01*
X0179121Y-0018359D01*
X0169121Y-0018359D02*
X0169521Y-0017559D01*
X0169121Y-0016759D01*
X0169921Y-0017159D01*
X0170721Y-0016759D01*
X0170321Y-0017559D01*
X0170721Y-0018359D01*
X0169921Y-0017959D01*
X0169121Y-0018359D01*
X0159121Y-0018359D02*
X0159521Y-0017559D01*
X0159121Y-0016759D01*
X0159921Y-0017159D01*
X0160721Y-0016759D01*
X0160321Y-0017559D01*
X0160721Y-0018359D01*
X0159921Y-0017959D01*
X0159121Y-0018359D01*
X0149121Y-0018359D02*
X0149521Y-0017559D01*
X0149121Y-0016759D01*
X0149921Y-0017159D01*
X0150721Y-0016759D01*
X0150321Y-0017559D01*
X0150721Y-0018359D01*
X0149921Y-0017959D01*
X0149121Y-0018359D01*
X0139121Y-0018359D02*
X0139521Y-0017559D01*
X0139121Y-0016759D01*
X0139921Y-0017159D01*
X0140721Y-0016759D01*
X0140321Y-0017559D01*
X0140721Y-0018359D01*
X0139921Y-0017959D01*
X0139121Y-0018359D01*
X0129121Y-0018359D02*
X0129521Y-0017559D01*
X0129121Y-0016759D01*
X0129921Y-0017159D01*
X0130721Y-0016759D01*
X0130321Y-0017559D01*
X0130721Y-0018359D01*
X0129921Y-0017959D01*
X0129121Y-0018359D01*
X0119121Y-0018359D02*
X0119521Y-0017559D01*
X0119121Y-0016759D01*
X0119921Y-0017159D01*
X0120721Y-0016759D01*
X0120321Y-0017559D01*
X0120721Y-0018359D01*
X0119921Y-0017959D01*
X0119121Y-0018359D01*
X0109121Y-0018359D02*
X0109521Y-0017559D01*
X0109121Y-0016759D01*
X0109921Y-0017159D01*
X0110721Y-0016759D01*
X0110321Y-0017559D01*
X0110721Y-0018359D01*
X0109921Y-0017959D01*
X0109121Y-0018359D01*
X0099121Y-0018359D02*
X0099521Y-0017559D01*
X0099121Y-0016759D01*
X0099921Y-0017159D01*
X0100721Y-0016759D01*
X0100321Y-0017559D01*
X0100721Y-0018359D01*
X0099921Y-0017959D01*
X0099121Y-0018359D01*
X0089121Y-0018359D02*
X0089521Y-0017559D01*
X0089121Y-0016759D01*
X0089921Y-0017159D01*
X0090721Y-0016759D01*
X0090321Y-0017559D01*
X0090721Y-0018359D01*
X0089921Y-0017959D01*
X0089121Y-0018359D01*
X0079121Y-0018359D02*
X0079521Y-0017559D01*
X0079121Y-0016759D01*
X0079921Y-0017159D01*
X0080721Y-0016759D01*
X0080321Y-0017559D01*
X0080721Y-0018359D01*
X0079921Y-0017959D01*
X0079121Y-0018359D01*
X0069121Y-0018359D02*
X0069521Y-0017559D01*
X0069121Y-0016759D01*
X0069921Y-0017159D01*
X0070721Y-0016759D01*
X0070321Y-0017559D01*
X0070721Y-0018359D01*
X0069921Y-0017959D01*
X0069121Y-0018359D01*
X0059121Y-0018359D02*
X0059521Y-0017559D01*
X0059121Y-0016759D01*
X0059921Y-0017159D01*
X0060721Y-0016759D01*
X0060321Y-0017559D01*
X0060721Y-0018359D01*
X0059921Y-0017959D01*
X0059121Y-0018359D01*
X0049121Y-0018359D02*
X0049521Y-0017559D01*
X0049121Y-0016759D01*
X0049921Y-0017159D01*
X0050721Y-0016759D01*
X0050321Y-0017559D01*
X0050721Y-0018359D01*
X0049921Y-0017959D01*
X0049121Y-0018359D01*
X0189121Y-0018359D02*
X0189521Y-0017559D01*
X0189121Y-0016759D01*
X0189921Y-0017159D01*
X0190721Y-0016759D01*
X0190321Y-0017559D01*
X0190721Y-0018359D01*
X0189921Y-0017959D01*
X0189121Y-0018359D01*
X0012986Y0176765D02*
X0012986Y0176365D01*
X0013786Y0176365D01*
X0013786Y0176765D01*
X0014186Y0176765D01*
X0014186Y0177565D01*
X0013786Y0177565D01*
X0013786Y0177965D01*
X0012986Y0177965D01*
X0012986Y0177565D01*
X0012586Y0177565D01*
X0012586Y0176765D01*
X0012986Y0176765D01*
X0032671Y0176765D02*
X0032671Y0176365D01*
X0033471Y0176365D01*
X0033471Y0176765D01*
X0033871Y0176765D01*
X0033871Y0177565D01*
X0033471Y0177565D01*
X0033471Y0177965D01*
X0032671Y0177965D01*
X0032671Y0177565D01*
X0032271Y0177565D01*
X0032271Y0176765D01*
X0032671Y0176765D01*
X0275991Y0332428D02*
X0276391Y0332428D01*
X0276791Y0332828D01*
X0277191Y0332428D01*
X0277591Y0332428D01*
X0277591Y0332828D01*
X0277191Y0333228D01*
X0277591Y0333628D01*
X0277591Y0334028D01*
X0277191Y0334028D01*
X0276791Y0333628D01*
X0276391Y0334028D01*
X0275991Y0334028D01*
X0275991Y0333628D01*
X0276391Y0333228D01*
X0275991Y0332828D01*
X0275991Y0332428D01*
X0276391Y0332828D02*
X0276591Y0332828D01*
X0276791Y0333028D01*
X0276991Y0332828D01*
X0277191Y0332828D01*
X0277191Y0333028D01*
X0276991Y0333228D01*
X0277191Y0333428D01*
X0277191Y0333628D01*
X0276991Y0333628D01*
X0276791Y0333428D01*
X0276591Y0333628D01*
X0276391Y0333628D01*
X0276391Y0333428D01*
X0276591Y0333228D01*
X0276391Y0333028D01*
X0276391Y0332828D01*
X0014200Y0332428D02*
X0014600Y0332428D01*
X0015000Y0332828D01*
X0015400Y0332428D01*
X0015800Y0332428D01*
X0015800Y0332828D01*
X0015400Y0333228D01*
X0015800Y0333628D01*
X0015800Y0334028D01*
X0015400Y0334028D01*
X0015000Y0333628D01*
X0014600Y0334028D01*
X0014200Y0334028D01*
X0014200Y0333628D01*
X0014600Y0333228D01*
X0014200Y0332828D01*
X0014200Y0332428D01*
X0014600Y0332828D02*
X0014800Y0332828D01*
X0015000Y0333028D01*
X0015200Y0332828D01*
X0015400Y0332828D01*
X0015400Y0333028D01*
X0015200Y0333228D01*
X0015400Y0333428D01*
X0015400Y0333628D01*
X0015200Y0333628D01*
X0015000Y0333428D01*
X0014800Y0333628D01*
X0014600Y0333628D01*
X0014600Y0333428D01*
X0014800Y0333228D01*
X0014600Y0333028D01*
X0014600Y0332828D01*
X0275991Y-0013359D02*
X0276391Y-0013359D01*
X0276791Y-0012959D01*
X0277191Y-0013359D01*
X0277591Y-0013359D01*
X0277591Y-0012959D01*
X0277191Y-0012559D01*
X0277591Y-0012159D01*
X0277591Y-0011759D01*
X0277191Y-0011759D01*
X0276791Y-0012159D01*
X0276391Y-0011759D01*
X0275991Y-0011759D01*
X0275991Y-0012159D01*
X0276391Y-0012559D01*
X0275991Y-0012959D01*
X0275991Y-0013359D01*
X0276391Y-0012959D02*
X0276591Y-0012959D01*
X0276791Y-0012759D01*
X0276991Y-0012959D01*
X0277191Y-0012959D01*
X0277191Y-0012759D01*
X0276991Y-0012559D01*
X0277191Y-0012359D01*
X0277191Y-0012159D01*
X0276991Y-0012159D01*
X0276791Y-0012359D01*
X0276591Y-0012159D01*
X0276391Y-0012159D01*
X0276391Y-0012359D01*
X0276591Y-0012559D01*
X0276391Y-0012759D01*
X0276391Y-0012959D01*
X0014200Y0106641D02*
X0014600Y0106641D01*
X0015000Y0107041D01*
X0015400Y0106641D01*
X0015800Y0106641D01*
X0015800Y0107041D01*
X0015400Y0107441D01*
X0015800Y0107841D01*
X0015800Y0108241D01*
X0015400Y0108241D01*
X0015000Y0107841D01*
X0014600Y0108241D01*
X0014200Y0108241D01*
X0014200Y0107841D01*
X0014600Y0107441D01*
X0014200Y0107041D01*
X0014200Y0106641D01*
X0014600Y0107041D02*
X0014800Y0107041D01*
X0015000Y0107241D01*
X0015200Y0107041D01*
X0015400Y0107041D01*
X0015400Y0107241D01*
X0015200Y0107441D01*
X0015400Y0107641D01*
X0015400Y0107841D01*
X0015200Y0107841D01*
X0015000Y0107641D01*
X0014800Y0107841D01*
X0014600Y0107841D01*
X0014600Y0107641D01*
X0014800Y0107441D01*
X0014600Y0107241D01*
X0014600Y0107041D01*
X0014200Y-0013359D02*
X0014600Y-0013359D01*
X0015000Y-0012959D01*
X0015400Y-0013359D01*
X0015800Y-0013359D01*
X0015800Y-0012959D01*
X0015400Y-0012559D01*
X0015800Y-0012159D01*
X0015800Y-0011759D01*
X0015400Y-0011759D01*
X0015000Y-0012159D01*
X0014600Y-0011759D01*
X0014200Y-0011759D01*
X0014200Y-0012159D01*
X0014600Y-0012559D01*
X0014200Y-0012959D01*
X0014200Y-0013359D01*
X0014600Y-0012959D02*
X0014800Y-0012959D01*
X0015000Y-0012759D01*
X0015200Y-0012959D01*
X0015400Y-0012959D01*
X0015400Y-0012759D01*
X0015200Y-0012559D01*
X0015400Y-0012359D01*
X0015400Y-0012159D01*
X0015200Y-0012159D01*
X0015000Y-0012359D01*
X0014800Y-0012159D01*
X0014600Y-0012159D01*
X0014600Y-0012359D01*
X0014800Y-0012559D01*
X0014600Y-0012759D01*
X0014600Y-0012959D01*
X0220066Y0320853D02*
X0220066Y0322453D01*
X0221666Y0322453D01*
X0221666Y0320853D01*
X0220066Y0320853D01*
X0247822Y0322035D02*
X0247822Y0323635D01*
X0249422Y0323635D01*
X0249422Y0322035D01*
X0247822Y0322035D01*
X0233062Y0341773D02*
X0233062Y0343373D01*
X0234662Y0343373D01*
X0234662Y0341773D01*
X0233062Y0341773D01*
X0228137Y0342310D02*
X0228137Y0343910D01*
X0229737Y0343910D01*
X0229737Y0342310D01*
X0228137Y0342310D01*
X0212783Y0342113D02*
X0212783Y0343713D01*
X0214383Y0343713D01*
X0214383Y0342113D01*
X0212783Y0342113D01*
X0247822Y0342507D02*
X0247822Y0344107D01*
X0249422Y0344107D01*
X0249422Y0342507D01*
X0247822Y0342507D01*
X0209830Y0203924D02*
X0209830Y0205524D01*
X0211430Y0205524D01*
X0211430Y0203924D01*
X0209830Y0203924D01*
X0170263Y0204121D02*
X0170263Y0205721D01*
X0171863Y0205721D01*
X0171863Y0204121D01*
X0170263Y0204121D01*
X0181483Y0204121D02*
X0181483Y0205721D01*
X0183083Y0205721D01*
X0183083Y0204121D01*
X0181483Y0204121D01*
X0182271Y0283255D02*
X0182271Y0284855D01*
X0183871Y0284855D01*
X0183871Y0283255D01*
X0182271Y0283255D01*
X0166917Y0283255D02*
X0166917Y0284855D01*
X0168517Y0284855D01*
X0168517Y0283255D01*
X0166917Y0283255D01*
X0191602Y0344948D02*
X0191602Y0346548D01*
X0193201Y0346548D01*
X0193201Y0344948D01*
X0191602Y0344948D01*
X0221838Y0310420D02*
X0221838Y0312020D01*
X0223438Y0312020D01*
X0223438Y0310420D01*
X0221838Y0310420D01*
X0192310Y0285814D02*
X0192310Y0287414D01*
X0193910Y0287414D01*
X0193910Y0285814D01*
X0192310Y0285814D01*
X0192310Y0274003D02*
X0192310Y0275603D01*
X0193910Y0275603D01*
X0193910Y0274003D01*
X0192310Y0274003D01*
X0272232Y0246444D02*
X0272232Y0248044D01*
X0273832Y0248044D01*
X0273832Y0246444D01*
X0272232Y0246444D01*
X0262783Y0213373D02*
X0262783Y0214973D01*
X0264383Y0214973D01*
X0264383Y0213373D01*
X0262783Y0213373D01*
X0262192Y0241916D02*
X0262192Y0243516D01*
X0263792Y0243516D01*
X0263792Y0241916D01*
X0262192Y0241916D01*
X0255696Y0233649D02*
X0255696Y0235249D01*
X0257296Y0235249D01*
X0257296Y0233649D01*
X0255696Y0233649D01*
X0255499Y0223413D02*
X0255499Y0225013D01*
X0257099Y0225013D01*
X0257099Y0223413D01*
X0255499Y0223413D01*
X0188570Y0313767D02*
X0188570Y0315367D01*
X0190170Y0315367D01*
X0190170Y0313767D01*
X0188570Y0313767D01*
X0192310Y0309239D02*
X0192310Y0310839D01*
X0193910Y0310839D01*
X0193910Y0309239D01*
X0192310Y0309239D01*
X0181877Y0303531D02*
X0181877Y0305131D01*
X0183477Y0305131D01*
X0183477Y0303531D01*
X0181877Y0303531D01*
X0192310Y0297428D02*
X0192310Y0299028D01*
X0193910Y0299028D01*
X0193910Y0297428D01*
X0192310Y0297428D01*
X0179790Y0344948D02*
X0179790Y0346548D01*
X0181391Y0346548D01*
X0181391Y0344948D01*
X0179790Y0344948D01*
X0167980Y0344948D02*
X0167980Y0346548D01*
X0169580Y0346548D01*
X0169580Y0344948D01*
X0167980Y0344948D01*
X0169476Y0303531D02*
X0169476Y0305131D01*
X0171076Y0305131D01*
X0171076Y0303531D01*
X0169476Y0303531D01*
X0120735Y0344948D02*
X0120735Y0346548D01*
X0122335Y0346548D01*
X0122335Y0344948D01*
X0120735Y0344948D01*
X0108924Y0344948D02*
X0108924Y0346548D01*
X0110524Y0346548D01*
X0110524Y0344948D01*
X0108924Y0344948D01*
X0144357Y0344948D02*
X0144357Y0346548D01*
X0145957Y0346548D01*
X0145957Y0344948D01*
X0144357Y0344948D01*
X0132546Y0344948D02*
X0132546Y0346548D01*
X0134146Y0346548D01*
X0134146Y0344948D01*
X0132546Y0344948D01*
X0085302Y0344948D02*
X0085302Y0346548D01*
X0086902Y0346548D01*
X0086902Y0344948D01*
X0085302Y0344948D01*
X0073491Y0344948D02*
X0073491Y0346548D01*
X0075091Y0346548D01*
X0075091Y0344948D01*
X0073491Y0344948D01*
X0097113Y0344948D02*
X0097113Y0346548D01*
X0098713Y0346548D01*
X0098713Y0344948D01*
X0097113Y0344948D01*
X0159043Y0313373D02*
X0159043Y0314973D01*
X0160643Y0314973D01*
X0160643Y0313373D01*
X0159043Y0313373D01*
X0156168Y0344948D02*
X0156168Y0346548D01*
X0157768Y0346548D01*
X0157768Y0344948D01*
X0156168Y0344948D01*
X0135421Y0247428D02*
X0135421Y0249028D01*
X0137021Y0249028D01*
X0137021Y0247428D01*
X0135421Y0247428D01*
X0114161Y0251562D02*
X0114161Y0253162D01*
X0115761Y0253162D01*
X0115761Y0251562D01*
X0114161Y0251562D01*
X0114161Y0261011D02*
X0114161Y0262611D01*
X0115761Y0262611D01*
X0115761Y0261011D01*
X0114161Y0261011D01*
X0100775Y0261011D02*
X0100775Y0262611D01*
X0102375Y0262611D01*
X0102375Y0261011D01*
X0100775Y0261011D01*
X0100775Y0251956D02*
X0100775Y0253556D01*
X0102375Y0253556D01*
X0102375Y0251956D01*
X0100775Y0251956D01*
X0116326Y0235617D02*
X0116326Y0237217D01*
X0117926Y0237217D01*
X0117926Y0235617D01*
X0116326Y0235617D01*
X0100775Y0231680D02*
X0100775Y0233280D01*
X0102375Y0233280D01*
X0102375Y0231680D01*
X0100775Y0231680D01*
X0117310Y0219672D02*
X0117310Y0221272D01*
X0118910Y0221272D01*
X0118910Y0219672D01*
X0117310Y0219672D01*
X0100775Y0222822D02*
X0100775Y0224422D01*
X0102375Y0224422D01*
X0102375Y0222822D01*
X0100775Y0222822D01*
X0100578Y0240735D02*
X0100578Y0242335D01*
X0102178Y0242335D01*
X0102178Y0240735D01*
X0100578Y0240735D01*
X0076169Y0300775D02*
X0076169Y0302375D01*
X0077768Y0302375D01*
X0077768Y0300775D01*
X0076169Y0300775D01*
X0073413Y0297035D02*
X0073413Y0298635D01*
X0075013Y0298635D01*
X0075013Y0297035D01*
X0073413Y0297035D01*
X0076169Y0293491D02*
X0076169Y0295091D01*
X0077768Y0295091D01*
X0077768Y0293491D01*
X0076169Y0293491D01*
X0083452Y0291720D02*
X0083452Y0293320D01*
X0085052Y0293320D01*
X0085052Y0291720D01*
X0083452Y0291720D01*
X0273019Y0209043D02*
X0273019Y0210643D01*
X0274619Y0210643D01*
X0274619Y0209043D01*
X0273019Y0209043D01*
X0192310Y0168688D02*
X0192310Y0170288D01*
X0193910Y0170288D01*
X0193910Y0168688D01*
X0192310Y0168688D01*
X0192310Y0156877D02*
X0192310Y0158477D01*
X0193910Y0158477D01*
X0193910Y0156877D01*
X0192310Y0156877D01*
X0149397Y0119082D02*
X0149397Y0120682D01*
X0150997Y0120682D01*
X0150997Y0119082D01*
X0149397Y0119082D01*
X0139357Y0119082D02*
X0139357Y0120682D01*
X0140957Y0120682D01*
X0140957Y0119082D01*
X0139357Y0119082D01*
X0159239Y0119082D02*
X0159239Y0120682D01*
X0160839Y0120682D01*
X0160839Y0119082D01*
X0159239Y0119082D01*
X0223216Y0111405D02*
X0223216Y0113005D01*
X0224816Y0113005D01*
X0224816Y0111405D01*
X0223216Y0111405D01*
X0222822Y0095263D02*
X0222822Y0096863D01*
X0224422Y0096863D01*
X0224422Y0095263D01*
X0222822Y0095263D01*
X0130499Y0153334D02*
X0130499Y0154934D01*
X0132099Y0154934D01*
X0132099Y0153334D01*
X0130499Y0153334D01*
X0126169Y0153334D02*
X0126169Y0154934D01*
X0127769Y0154934D01*
X0127769Y0153334D01*
X0126169Y0153334D01*
X0118885Y0212586D02*
X0118885Y0214186D01*
X0120485Y0214186D01*
X0120485Y0212586D01*
X0118885Y0212586D01*
X0115932Y0195263D02*
X0115932Y0196863D01*
X0117532Y0196863D01*
X0117532Y0195263D01*
X0115932Y0195263D01*
X0121838Y0153334D02*
X0121838Y0154934D01*
X0123438Y0154934D01*
X0123438Y0153334D01*
X0121838Y0153334D01*
X0136995Y0136995D02*
X0136995Y0138595D01*
X0138595Y0138595D01*
X0138595Y0136995D01*
X0136995Y0136995D01*
X0130499Y0149003D02*
X0130499Y0150603D01*
X0132099Y0150603D01*
X0132099Y0149003D01*
X0130499Y0149003D01*
X0129121Y0119082D02*
X0129121Y0120682D01*
X0130721Y0120682D01*
X0130721Y0119082D01*
X0129121Y0119082D01*
X0126169Y0149003D02*
X0126169Y0150603D01*
X0127769Y0150603D01*
X0127769Y0149003D01*
X0126169Y0149003D01*
X0121838Y0149003D02*
X0121838Y0150603D01*
X0123438Y0150603D01*
X0123438Y0149003D01*
X0121838Y0149003D01*
X0119279Y0119082D02*
X0119279Y0120682D01*
X0120879Y0120682D01*
X0120879Y0119082D01*
X0119279Y0119082D01*
X0222822Y0088964D02*
X0222822Y0090564D01*
X0224422Y0090564D01*
X0224422Y0088964D01*
X0222822Y0088964D01*
X0192389Y0059909D02*
X0192389Y0061509D01*
X0193989Y0061509D01*
X0193989Y0059909D01*
X0192389Y0059909D01*
X0192389Y0033373D02*
X0192389Y0034973D01*
X0193989Y0034973D01*
X0193989Y0033373D01*
X0192389Y0033373D01*
X0181287Y0018491D02*
X0181287Y0020091D01*
X0182887Y0020091D01*
X0182887Y0018491D01*
X0181287Y0018491D01*
X0191602Y-0025879D02*
X0191602Y-0024279D01*
X0193201Y-0024279D01*
X0193201Y-0025879D01*
X0191602Y-0025879D01*
X0180302Y0046444D02*
X0180302Y0048044D01*
X0181902Y0048044D01*
X0181902Y0046444D01*
X0180302Y0046444D01*
X0177547Y0018491D02*
X0177547Y0020091D01*
X0179147Y0020091D01*
X0179147Y0018491D01*
X0177547Y0018491D01*
X0143426Y-0013398D02*
X0143426Y-0011798D01*
X0145026Y-0011798D01*
X0145026Y-0013398D01*
X0143426Y-0013398D01*
X0122822Y-0010839D02*
X0122822Y-0009239D01*
X0124422Y-0009239D01*
X0124422Y-0010839D01*
X0122822Y-0010839D01*
X0114948Y-0009461D02*
X0114948Y-0007861D01*
X0116548Y-0007861D01*
X0116548Y-0009461D01*
X0114948Y-0009461D01*
X0133846Y-0013398D02*
X0133846Y-0011798D01*
X0135446Y-0011798D01*
X0135446Y-0013398D01*
X0133846Y-0013398D01*
X0167980Y-0025879D02*
X0167980Y-0024279D01*
X0169580Y-0024279D01*
X0169580Y-0025879D01*
X0167980Y-0025879D01*
X0156168Y-0025879D02*
X0156168Y-0024279D01*
X0157768Y-0024279D01*
X0157768Y-0025879D01*
X0156168Y-0025879D01*
X0179790Y-0025879D02*
X0179790Y-0024279D01*
X0181391Y-0024279D01*
X0181391Y-0025879D01*
X0179790Y-0025879D01*
X0132546Y-0025879D02*
X0132546Y-0024279D01*
X0134146Y-0024279D01*
X0134146Y-0025879D01*
X0132546Y-0025879D01*
X0120735Y-0025879D02*
X0120735Y-0024279D01*
X0122335Y-0024279D01*
X0122335Y-0025879D01*
X0120735Y-0025879D01*
X0144357Y-0025879D02*
X0144357Y-0024279D01*
X0145957Y-0024279D01*
X0145957Y-0025879D01*
X0144357Y-0025879D01*
X0101759Y0202940D02*
X0101759Y0204540D01*
X0103359Y0204540D01*
X0103359Y0202940D01*
X0101759Y0202940D01*
X0100972Y0212783D02*
X0100972Y0214383D01*
X0102572Y0214383D01*
X0102572Y0212783D01*
X0100972Y0212783D01*
X0109436Y0119082D02*
X0109436Y0120682D01*
X0111036Y0120682D01*
X0111036Y0119082D01*
X0109436Y0119082D01*
X0101562Y0194476D02*
X0101562Y0196076D01*
X0103162Y0196076D01*
X0103162Y0194476D01*
X0101562Y0194476D01*
X0099200Y0119082D02*
X0099200Y0120682D01*
X0100800Y0120682D01*
X0100800Y0119082D01*
X0099200Y0119082D01*
X0109830Y0074791D02*
X0109830Y0076390D01*
X0111430Y0076390D01*
X0111430Y0074791D01*
X0109830Y0074791D01*
X0104712Y0025972D02*
X0104712Y0027572D01*
X0106312Y0027572D01*
X0106312Y0025972D01*
X0104712Y0025972D01*
X0099987Y0042113D02*
X0099987Y0043713D01*
X0101587Y0043713D01*
X0101587Y0042113D01*
X0099987Y0042113D01*
X0100184Y0025972D02*
X0100184Y0027572D01*
X0101784Y0027572D01*
X0101784Y0025972D01*
X0100184Y0025972D01*
X0089161Y0194279D02*
X0089161Y0195879D01*
X0090761Y0195879D01*
X0090761Y0194279D01*
X0089161Y0194279D01*
X0089358Y0119082D02*
X0089358Y0120682D01*
X0090957Y0120682D01*
X0090957Y0119082D01*
X0089358Y0119082D01*
X0079112Y0119137D02*
X0079112Y0120737D01*
X0080712Y0120737D01*
X0080712Y0119137D01*
X0079112Y0119137D01*
X0082665Y0049397D02*
X0082665Y0050997D01*
X0084265Y0050997D01*
X0084265Y0049397D01*
X0082665Y0049397D01*
X0092310Y0038767D02*
X0092310Y0040367D01*
X0093910Y0040367D01*
X0093910Y0038767D01*
X0092310Y0038767D01*
X0082468Y0043688D02*
X0082468Y0045288D01*
X0084068Y0045288D01*
X0084068Y0043688D01*
X0082468Y0043688D01*
X0076562Y0036293D02*
X0076562Y0037893D01*
X0078162Y0037893D01*
X0078162Y0036293D01*
X0076562Y0036293D01*
X0100972Y0015735D02*
X0100972Y0017335D01*
X0102572Y0017335D01*
X0102572Y0015735D01*
X0100972Y0015735D01*
X0100972Y0018491D02*
X0100972Y0020091D01*
X0102572Y0020091D01*
X0102572Y0018491D01*
X0100972Y0018491D01*
X0108924Y-0025879D02*
X0108924Y-0024279D01*
X0110524Y-0024279D01*
X0110524Y-0025879D01*
X0108924Y-0025879D01*
X0101562Y0008058D02*
X0101562Y0009658D01*
X0103162Y0009658D01*
X0103162Y0008058D01*
X0101562Y0008058D01*
X0076759Y0026169D02*
X0076759Y0027768D01*
X0078359Y0027768D01*
X0078359Y0026169D01*
X0076759Y0026169D01*
X0076562Y0017310D02*
X0076562Y0018910D01*
X0078162Y0018910D01*
X0078162Y0017310D01*
X0076562Y0017310D01*
X0091917Y0007861D02*
X0091917Y0009461D01*
X0093516Y0009461D01*
X0093516Y0007861D01*
X0091917Y0007861D01*
X0085302Y-0025879D02*
X0085302Y-0024279D01*
X0086902Y-0024279D01*
X0086902Y-0025879D01*
X0085302Y-0025879D01*
X0085224Y-0004934D02*
X0085224Y-0003334D01*
X0086824Y-0003334D01*
X0086824Y-0004934D01*
X0085224Y-0004934D01*
X0097113Y-0025879D02*
X0097113Y-0024279D01*
X0098713Y-0024279D01*
X0098713Y-0025879D01*
X0097113Y-0025879D01*
X0073806Y0007074D02*
X0073806Y0008674D01*
X0075406Y0008674D01*
X0075406Y0007074D01*
X0073806Y0007074D01*
X0073019Y-0004343D02*
X0073019Y-0002743D01*
X0074619Y-0002743D01*
X0074619Y-0004343D01*
X0073019Y-0004343D01*
X0073491Y-0025879D02*
X0073491Y-0024279D01*
X0075091Y-0024279D01*
X0075091Y-0025879D01*
X0073491Y-0025879D01*
X0070460Y0300775D02*
X0070460Y0302375D01*
X0072060Y0302375D01*
X0072060Y0300775D01*
X0070460Y0300775D01*
X0070460Y0293491D02*
X0070460Y0295091D01*
X0072060Y0295091D01*
X0072060Y0293491D01*
X0070460Y0293491D01*
X0067507Y0297035D02*
X0067507Y0298635D01*
X0069107Y0298635D01*
X0069107Y0297035D01*
X0067507Y0297035D01*
X0064751Y0300775D02*
X0064751Y0302375D01*
X0066351Y0302375D01*
X0066351Y0300775D01*
X0064751Y0300775D01*
X0061680Y0344948D02*
X0061680Y0346548D01*
X0063280Y0346548D01*
X0063280Y0344948D01*
X0061680Y0344948D01*
X0064751Y0293491D02*
X0064751Y0295091D01*
X0066351Y0295091D01*
X0066351Y0293491D01*
X0064751Y0293491D01*
X0067901Y0265145D02*
X0067901Y0266745D01*
X0069501Y0266745D01*
X0069501Y0265145D01*
X0067901Y0265145D01*
X0067901Y0268098D02*
X0067901Y0269698D01*
X0069501Y0269698D01*
X0069501Y0268098D01*
X0067901Y0268098D01*
X0066523Y0274003D02*
X0066523Y0275603D01*
X0068123Y0275603D01*
X0068123Y0274003D01*
X0066523Y0274003D01*
X0049869Y0344948D02*
X0049869Y0346548D01*
X0051469Y0346548D01*
X0051469Y0344948D01*
X0049869Y0344948D01*
X0049987Y0309436D02*
X0049987Y0311036D01*
X0051587Y0311036D01*
X0051587Y0309436D01*
X0049987Y0309436D01*
X0046444Y0167507D02*
X0046444Y0169107D01*
X0048044Y0169107D01*
X0048044Y0167507D01*
X0046444Y0167507D01*
X0045263Y0161995D02*
X0045263Y0163595D01*
X0046863Y0163595D01*
X0046863Y0161995D01*
X0045263Y0161995D01*
X0063570Y0158649D02*
X0063570Y0160249D01*
X0065170Y0160249D01*
X0065170Y0158649D01*
X0063570Y0158649D01*
X0069082Y0119082D02*
X0069082Y0120682D01*
X0070682Y0120682D01*
X0070682Y0119082D01*
X0069082Y0119082D01*
X0063176Y0096050D02*
X0063176Y0097650D01*
X0064776Y0097650D01*
X0064776Y0096050D01*
X0063176Y0096050D01*
X0061011Y0130499D02*
X0061011Y0132099D01*
X0062611Y0132099D01*
X0062611Y0130499D01*
X0061011Y0130499D01*
X0059436Y0119082D02*
X0059436Y0120682D01*
X0061036Y0120682D01*
X0061036Y0119082D01*
X0059436Y0119082D01*
X0058452Y0130499D02*
X0058452Y0132099D01*
X0060052Y0132099D01*
X0060052Y0130499D01*
X0058452Y0130499D01*
X0053728Y0101956D02*
X0053728Y0103556D01*
X0055328Y0103556D01*
X0055328Y0101956D01*
X0053728Y0101956D01*
X0049397Y0119082D02*
X0049397Y0120682D01*
X0050997Y0120682D01*
X0050997Y0119082D01*
X0049397Y0119082D01*
X0045657Y0093688D02*
X0045657Y0095288D01*
X0047257Y0095288D01*
X0047257Y0093688D01*
X0045657Y0093688D01*
X0038176Y0309436D02*
X0038176Y0311036D01*
X0039776Y0311036D01*
X0039776Y0309436D01*
X0038176Y0309436D01*
X0038058Y0344948D02*
X0038058Y0346548D01*
X0039658Y0346548D01*
X0039658Y0344948D01*
X0038058Y0344948D01*
X0026247Y0344948D02*
X0026247Y0346548D01*
X0027847Y0346548D01*
X0027847Y0344948D01*
X0026247Y0344948D01*
X0026365Y0309436D02*
X0026365Y0311036D01*
X0027965Y0311036D01*
X0027965Y0309436D01*
X0026365Y0309436D01*
X0042901Y0138570D02*
X0042901Y0140170D01*
X0044501Y0140170D01*
X0044501Y0138570D01*
X0042901Y0138570D01*
X0001877Y0284948D02*
X0001877Y0286548D01*
X0003477Y0286548D01*
X0003477Y0284948D01*
X0001877Y0284948D01*
X0018688Y0143491D02*
X0018688Y0145091D01*
X0020288Y0145091D01*
X0020288Y0143491D01*
X0018688Y0143491D01*
X0001877Y0273137D02*
X0001877Y0274737D01*
X0003477Y0274737D01*
X0003477Y0273137D01*
X0001877Y0273137D01*
X0001877Y0308570D02*
X0001877Y0310170D01*
X0003477Y0310170D01*
X0003477Y0308570D01*
X0001877Y0308570D01*
X0001877Y0320381D02*
X0001877Y0321981D01*
X0003477Y0321981D01*
X0003477Y0320381D01*
X0001877Y0320381D01*
X0001877Y0296759D02*
X0001877Y0298359D01*
X0003477Y0298359D01*
X0003477Y0296759D01*
X0001877Y0296759D01*
X0022625Y0136208D02*
X0022625Y0137808D01*
X0024225Y0137808D01*
X0024225Y0136208D01*
X0022625Y0136208D01*
X0022625Y0132468D02*
X0022625Y0134068D01*
X0024225Y0134068D01*
X0024225Y0132468D01*
X0022625Y0132468D01*
X0018688Y0136208D02*
X0018688Y0137808D01*
X0020288Y0137808D01*
X0020288Y0136208D01*
X0018688Y0136208D01*
X0018688Y0139948D02*
X0018688Y0141548D01*
X0020288Y0141548D01*
X0020288Y0139948D01*
X0018688Y0139948D01*
X0018688Y0132468D02*
X0018688Y0134068D01*
X0020288Y0134068D01*
X0020288Y0132468D01*
X0018688Y0132468D01*
X0039161Y0119082D02*
X0039161Y0120682D01*
X0040761Y0120682D01*
X0040761Y0119082D01*
X0039161Y0119082D01*
X0026247Y0119161D02*
X0026247Y0120761D01*
X0027847Y0120761D01*
X0027847Y0119161D01*
X0026247Y0119161D01*
X0025972Y0093688D02*
X0025972Y0095288D01*
X0027572Y0095288D01*
X0027572Y0093688D01*
X0025972Y0093688D01*
X0001877Y0093176D02*
X0001877Y0094776D01*
X0003477Y0094776D01*
X0003477Y0093176D01*
X0001877Y0093176D01*
X0001877Y0118688D02*
X0001877Y0120288D01*
X0003477Y0120288D01*
X0003477Y0118688D01*
X0001877Y0118688D01*
X0022231Y0081877D02*
X0022231Y0083477D01*
X0023832Y0083477D01*
X0023832Y0081877D01*
X0022231Y0081877D01*
X0001877Y0081365D02*
X0001877Y0082965D01*
X0003477Y0082965D01*
X0003477Y0081365D01*
X0001877Y0081365D01*
X0058846Y0057468D02*
X0058846Y0059068D01*
X0060446Y0059068D01*
X0060446Y0057468D01*
X0058846Y0057468D01*
X0058452Y0074987D02*
X0058452Y0076587D01*
X0060052Y0076587D01*
X0060052Y0074987D01*
X0058452Y0074987D01*
X0064357Y0044082D02*
X0064357Y0045682D01*
X0065957Y0045682D01*
X0065957Y0044082D01*
X0064357Y0044082D01*
X0061602Y0036011D02*
X0061602Y0037611D01*
X0063202Y0037611D01*
X0063202Y0036011D01*
X0061602Y0036011D01*
X0066720Y0036011D02*
X0066720Y0037611D01*
X0068320Y0037611D01*
X0068320Y0036011D01*
X0066720Y0036011D01*
X0066917Y0014948D02*
X0066917Y0016548D01*
X0068516Y0016548D01*
X0068516Y0014948D01*
X0066917Y0014948D01*
X0061405Y-0011430D02*
X0061405Y-0009830D01*
X0063005Y-0009830D01*
X0063005Y-0011430D01*
X0061405Y-0011430D01*
X0052743Y-0005918D02*
X0052743Y-0004318D01*
X0054343Y-0004318D01*
X0054343Y-0005918D01*
X0052743Y-0005918D01*
X0061680Y-0025879D02*
X0061680Y-0024279D01*
X0063280Y-0024279D01*
X0063280Y-0025879D01*
X0061680Y-0025879D01*
X0049869Y-0025879D02*
X0049869Y-0024279D01*
X0051469Y-0024279D01*
X0051469Y-0025879D01*
X0049869Y-0025879D01*
X0047035Y0018885D02*
X0047035Y0020485D01*
X0048635Y0020485D01*
X0048635Y0018885D01*
X0047035Y0018885D01*
X0047232Y0011995D02*
X0047232Y0013595D01*
X0048831Y0013595D01*
X0048831Y0011995D01*
X0047232Y0011995D01*
X0037192Y0048019D02*
X0037192Y0049619D01*
X0038792Y0049619D01*
X0038792Y0048019D01*
X0037192Y0048019D01*
X0021050Y0048019D02*
X0021050Y0049619D01*
X0022650Y0049619D01*
X0022650Y0048019D01*
X0021050Y0048019D01*
X0001877Y0069554D02*
X0001877Y0071154D01*
X0003477Y0071154D01*
X0003477Y0069554D01*
X0001877Y0069554D01*
X0001877Y0057743D02*
X0001877Y0059343D01*
X0003477Y0059343D01*
X0003477Y0057743D01*
X0001877Y0057743D01*
X0007665Y0046444D02*
X0007665Y0048044D01*
X0009265Y0048044D01*
X0009265Y0046444D01*
X0007665Y0046444D01*
X0037192Y0037192D02*
X0037192Y0038792D01*
X0038792Y0038792D01*
X0038792Y0037192D01*
X0037192Y0037192D01*
X0032074Y0036798D02*
X0032074Y0038398D01*
X0033674Y0038398D01*
X0033674Y0036798D01*
X0032074Y0036798D01*
X0034436Y0008452D02*
X0034436Y0010052D01*
X0036036Y0010052D01*
X0036036Y0008452D01*
X0034436Y0008452D01*
X0034633Y-0001391D02*
X0034633Y0000209D01*
X0036233Y0000209D01*
X0036233Y-0001391D01*
X0034633Y-0001391D01*
X0031877Y-0013005D02*
X0031877Y-0011405D01*
X0033477Y-0011405D01*
X0033477Y-0013005D01*
X0031877Y-0013005D01*
X0038058Y-0025879D02*
X0038058Y-0024279D01*
X0039658Y-0024279D01*
X0039658Y-0025879D01*
X0038058Y-0025879D01*
X0020066Y0008255D02*
X0020066Y0009855D01*
X0021666Y0009855D01*
X0021666Y0008255D01*
X0020066Y0008255D01*
X0026247Y-0025879D02*
X0026247Y-0024279D01*
X0027847Y-0024279D01*
X0027847Y-0025879D01*
X0026247Y-0025879D01*
X0014161Y0025578D02*
X0014161Y0027178D01*
X0015761Y0027178D01*
X0015761Y0025578D01*
X0014161Y0025578D01*
X0001877Y0046326D02*
X0001877Y0047926D01*
X0003477Y0047926D01*
X0003477Y0046326D01*
X0001877Y0046326D01*
X0001877Y0034121D02*
X0001877Y0035721D01*
X0003477Y0035721D01*
X0003477Y0034121D01*
X0001877Y0034121D01*
X0014161Y0014357D02*
X0014161Y0015958D01*
X0015761Y0015958D01*
X0015761Y0014357D01*
X0014161Y0014357D01*
X0001877Y0010499D02*
X0001877Y0012099D01*
X0003477Y0012099D01*
X0003477Y0010499D01*
X0001877Y0010499D01*
X0001877Y0022310D02*
X0001877Y0023910D01*
X0003477Y0023910D01*
X0003477Y0022310D01*
X0001877Y0022310D01*
X0001877Y-0001312D02*
X0001877Y0000288D01*
X0003477Y0000288D01*
X0003477Y-0001312D01*
X0001877Y-0001312D01*
X0182271Y0288964D02*
X0182271Y0290564D01*
X0183871Y0290564D01*
X0183871Y0288964D01*
X0182271Y0288964D01*
X0167113Y0288964D02*
X0167113Y0290564D01*
X0168713Y0290564D01*
X0168713Y0288964D01*
X0167113Y0288964D01*
X0057019Y0161263D02*
X0057019Y0162863D01*
X0058619Y0162863D01*
X0058619Y0161263D01*
X0057019Y0161263D01*
X0025184Y0156877D02*
X0025184Y0158477D01*
X0026784Y0158477D01*
X0026784Y0156877D01*
X0025184Y0156877D01*
X0028837Y0156896D02*
X0028837Y0158496D01*
X0030437Y0158496D01*
X0030437Y0156896D01*
X0028837Y0156896D01*
X0076216Y0078972D02*
X0076216Y0080572D01*
X0077816Y0080572D01*
X0077816Y0078972D01*
X0076216Y0078972D01*
X0076077Y0081515D02*
X0076077Y0083115D01*
X0077677Y0083115D01*
X0077677Y0081515D01*
X0076077Y0081515D01*
X0078924Y0046641D02*
X0078924Y0048241D01*
X0080524Y0048241D01*
X0080524Y0046641D01*
X0078924Y0046641D01*
X0066296Y0147240D02*
X0066296Y0148840D01*
X0067896Y0148840D01*
X0067896Y0147240D01*
X0066296Y0147240D01*
X0054909Y0137192D02*
X0054909Y0138792D01*
X0056509Y0138792D01*
X0056509Y0137192D01*
X0054909Y0137192D01*
X0066523Y0150184D02*
X0066523Y0151784D01*
X0068123Y0151784D01*
X0068123Y0150184D01*
X0066523Y0150184D01*
X0030696Y0166720D02*
X0030696Y0168320D01*
X0032296Y0168320D01*
X0032296Y0166720D01*
X0030696Y0166720D01*
X0060027Y0161208D02*
X0060027Y0162808D01*
X0061627Y0162808D01*
X0061627Y0161208D01*
X0060027Y0161208D01*
X0070657Y0168491D02*
X0070657Y0170091D01*
X0072257Y0170091D01*
X0072257Y0168491D01*
X0070657Y0168491D01*
X0068491Y0170263D02*
X0068491Y0171863D01*
X0070091Y0171863D01*
X0070091Y0170263D01*
X0068491Y0170263D01*
X0049791Y0154613D02*
X0049791Y0156213D01*
X0051390Y0156213D01*
X0051390Y0154613D01*
X0049791Y0154613D01*
X0022428Y0170460D02*
X0022428Y0172060D01*
X0024028Y0172060D01*
X0024028Y0170460D01*
X0022428Y0170460D01*
X0141523Y0251168D02*
X0141523Y0252768D01*
X0143123Y0252768D01*
X0143123Y0251168D01*
X0141523Y0251168D01*
X0145853Y0250578D02*
X0145853Y0252178D01*
X0147453Y0252178D01*
X0147453Y0250578D01*
X0145853Y0250578D01*
X0199003Y0106680D02*
X0199003Y0108280D01*
X0200603Y0108280D01*
X0200603Y0106680D01*
X0199003Y0106680D01*
X0189161Y0150775D02*
X0189161Y0152375D01*
X0190761Y0152375D01*
X0190761Y0150775D01*
X0189161Y0150775D01*
X0199200Y0111405D02*
X0199200Y0113005D01*
X0200800Y0113005D01*
X0200800Y0111405D01*
X0199200Y0111405D01*
X0199003Y0150381D02*
X0199003Y0151981D01*
X0200603Y0151981D01*
X0200603Y0150381D01*
X0199003Y0150381D01*
X0137401Y0163176D02*
X0137401Y0164776D01*
X0139001Y0164776D01*
X0139001Y0163176D01*
X0137401Y0163176D01*
X0133255Y0159182D02*
X0133255Y0160782D01*
X0134855Y0160782D01*
X0134855Y0159182D01*
X0133255Y0159182D01*
X0167704Y0240539D02*
X0167704Y0242139D01*
X0169304Y0242139D01*
X0169304Y0240539D01*
X0167704Y0240539D01*
X0167704Y0245657D02*
X0167704Y0247257D01*
X0169304Y0247257D01*
X0169304Y0245657D01*
X0167704Y0245657D01*
X0168688Y0249594D02*
X0168688Y0251194D01*
X0170288Y0251194D01*
X0170288Y0249594D01*
X0168688Y0249594D01*
X0112586Y0169082D02*
X0112586Y0170682D01*
X0114186Y0170682D01*
X0114186Y0169082D01*
X0112586Y0169082D01*
X0107271Y0169082D02*
X0107271Y0170682D01*
X0108871Y0170682D01*
X0108871Y0169082D01*
X0107271Y0169082D01*
X0169279Y0092704D02*
X0169279Y0094304D01*
X0170879Y0094304D01*
X0170879Y0092704D01*
X0169279Y0092704D01*
X0159436Y0092507D02*
X0159436Y0094107D01*
X0161036Y0094107D01*
X0161036Y0092507D01*
X0159436Y0092507D01*
X0149200Y0088964D02*
X0149200Y0090564D01*
X0150800Y0090564D01*
X0150800Y0088964D01*
X0149200Y0088964D01*
X0139357Y0088964D02*
X0139357Y0090564D01*
X0140957Y0090564D01*
X0140957Y0088964D01*
X0139357Y0088964D01*
X0129318Y0089161D02*
X0129318Y0090761D01*
X0130918Y0090761D01*
X0130918Y0089161D01*
X0129318Y0089161D01*
X0119279Y0089161D02*
X0119279Y0090761D01*
X0120879Y0090761D01*
X0120879Y0089161D01*
X0119279Y0089161D01*
X0177743Y0004515D02*
X0177743Y0006115D01*
X0179343Y0006115D01*
X0179343Y0004515D01*
X0177743Y0004515D01*
X0181287Y0004515D02*
X0181287Y0006115D01*
X0182887Y0006115D01*
X0182887Y0004515D01*
X0181287Y0004515D01*
X0177743Y0007763D02*
X0177743Y0009363D01*
X0179343Y0009363D01*
X0179343Y0007763D01*
X0177743Y0007763D01*
X0181287Y0007763D02*
X0181287Y0009363D01*
X0182887Y0009363D01*
X0182887Y0007763D01*
X0181287Y0007763D01*
X0181287Y0011011D02*
X0181287Y0012611D01*
X0182887Y0012611D01*
X0182887Y0011011D01*
X0181287Y0011011D01*
X0177743Y0011011D02*
X0177743Y0012611D01*
X0179343Y0012611D01*
X0179343Y0011011D01*
X0177743Y0011011D01*
X0145657Y0010224D02*
X0145657Y0011824D01*
X0147257Y0011824D01*
X0147257Y0010224D01*
X0145657Y0010224D01*
X0145657Y0006680D02*
X0145657Y0008280D01*
X0147257Y0008280D01*
X0147257Y0006680D01*
X0145657Y0006680D01*
X0142409Y0006680D02*
X0142409Y0008280D01*
X0144009Y0008280D01*
X0144009Y0006680D01*
X0142409Y0006680D01*
X0142409Y0010224D02*
X0142409Y0011824D01*
X0144009Y0011824D01*
X0144009Y0010224D01*
X0142409Y0010224D01*
X0139161Y0006680D02*
X0139161Y0008280D01*
X0140761Y0008280D01*
X0140761Y0006680D01*
X0139161Y0006680D01*
X0139161Y0010224D02*
X0139161Y0011824D01*
X0140761Y0011824D01*
X0140761Y0010224D01*
X0139161Y0010224D01*
X0111602Y0054318D02*
X0111602Y0055918D01*
X0113202Y0055918D01*
X0113202Y0054318D01*
X0111602Y0054318D01*
X0111798Y0050972D02*
X0111798Y0052572D01*
X0113398Y0052572D01*
X0113398Y0050972D01*
X0111798Y0050972D01*
X0108452Y0050972D02*
X0108452Y0052572D01*
X0110052Y0052572D01*
X0110052Y0050972D01*
X0108452Y0050972D01*
X0104909Y0050972D02*
X0104909Y0052572D01*
X0106509Y0052572D01*
X0106509Y0050972D01*
X0104909Y0050972D01*
X0108452Y0054318D02*
X0108452Y0055918D01*
X0110052Y0055918D01*
X0110052Y0054318D01*
X0108452Y0054318D01*
X0093295Y0042901D02*
X0093295Y0044501D01*
X0094894Y0044501D01*
X0094894Y0042901D01*
X0093295Y0042901D01*
X0077648Y0033547D02*
X0077648Y0035147D01*
X0079248Y0035147D01*
X0079248Y0033547D01*
X0077648Y0033547D01*
X0141548Y0159182D02*
X0141548Y0160782D01*
X0143148Y0160782D01*
X0143148Y0159182D01*
X0141548Y0159182D01*
X0137401Y0159182D02*
X0137401Y0160782D01*
X0139001Y0160782D01*
X0139001Y0159182D01*
X0137401Y0159182D01*
X0141548Y0163176D02*
X0141548Y0164776D01*
X0143148Y0164776D01*
X0143148Y0163176D01*
X0141548Y0163176D01*
X0133255Y0163176D02*
X0133255Y0164776D01*
X0134855Y0164776D01*
X0134855Y0163176D01*
X0133255Y0163176D01*
X0075578Y0138767D02*
X0075578Y0140367D01*
X0077178Y0140367D01*
X0077178Y0138767D01*
X0075578Y0138767D01*
X0082665Y0138964D02*
X0082665Y0140564D01*
X0084265Y0140564D01*
X0084265Y0138964D01*
X0082665Y0138964D01*
X0079121Y0138964D02*
X0079121Y0140564D01*
X0080721Y0140564D01*
X0080721Y0138964D01*
X0079121Y0138964D01*
X0121838Y0133649D02*
X0121838Y0135249D01*
X0123438Y0135249D01*
X0123438Y0133649D01*
X0121838Y0133649D01*
X0130499Y0133649D02*
X0130499Y0135249D01*
X0132099Y0135249D01*
X0132099Y0133649D01*
X0130499Y0133649D01*
X0126169Y0133649D02*
X0126169Y0135249D01*
X0127769Y0135249D01*
X0127769Y0133649D01*
X0126169Y0133649D01*
X0130499Y0129318D02*
X0130499Y0130918D01*
X0132099Y0130918D01*
X0132099Y0129318D01*
X0130499Y0129318D01*
X0126169Y0129318D02*
X0126169Y0130918D01*
X0127769Y0130918D01*
X0127769Y0129318D01*
X0126169Y0129318D01*
X0093885Y0050184D02*
X0093885Y0051784D01*
X0095485Y0051784D01*
X0095485Y0050184D01*
X0093885Y0050184D01*
X0093885Y0053531D02*
X0093885Y0055131D01*
X0095485Y0055131D01*
X0095485Y0053531D01*
X0093885Y0053531D01*
X0093885Y0056877D02*
X0093885Y0058477D01*
X0095485Y0058477D01*
X0095485Y0056877D01*
X0093885Y0056877D01*
X0097232Y0053531D02*
X0097232Y0055131D01*
X0098831Y0055131D01*
X0098831Y0053531D01*
X0097232Y0053531D01*
X0097232Y0050184D02*
X0097232Y0051784D01*
X0098831Y0051784D01*
X0098831Y0050184D01*
X0097232Y0050184D01*
X0033000Y0156896D02*
X0033000Y0158496D01*
X0034600Y0158496D01*
X0034600Y0156896D01*
X0033000Y0156896D01*
X0037163Y0156896D02*
X0037163Y0158496D01*
X0038763Y0158496D01*
X0038763Y0156896D01*
X0037163Y0156896D01*
X0041326Y0153156D02*
X0041326Y0154756D01*
X0042926Y0154756D01*
X0042926Y0153156D01*
X0041326Y0153156D01*
X0069279Y0095460D02*
X0069279Y0097060D01*
X0070879Y0097060D01*
X0070879Y0095460D01*
X0069279Y0095460D01*
X0079121Y0095263D02*
X0079121Y0096863D01*
X0080721Y0096863D01*
X0080721Y0095263D01*
X0079121Y0095263D01*
X0097232Y0056877D02*
X0097232Y0058477D01*
X0098831Y0058477D01*
X0098831Y0056877D01*
X0097232Y0056877D01*
X0131371Y0265735D02*
X0131371Y0267335D01*
X0132971Y0267335D01*
X0132971Y0265735D01*
X0131371Y0265735D01*
X0134830Y0265735D02*
X0134830Y0267335D01*
X0136430Y0267335D01*
X0136430Y0265735D01*
X0134830Y0265735D01*
X0134830Y0259436D02*
X0134830Y0261036D01*
X0136430Y0261036D01*
X0136430Y0259436D01*
X0134830Y0259436D01*
X0134830Y0262586D02*
X0134830Y0264186D01*
X0136430Y0264186D01*
X0136430Y0262586D01*
X0134830Y0262586D01*
X0134830Y0268885D02*
X0134830Y0270485D01*
X0136430Y0270485D01*
X0136430Y0268885D01*
X0134830Y0268885D01*
X0131371Y0268885D02*
X0131371Y0270485D01*
X0132971Y0270485D01*
X0132971Y0268885D01*
X0131371Y0268885D01*
X0120066Y0287389D02*
X0120066Y0288989D01*
X0121666Y0288989D01*
X0121666Y0287389D01*
X0120066Y0287389D01*
X0120066Y0283747D02*
X0120066Y0285347D01*
X0121666Y0285347D01*
X0121666Y0283747D01*
X0120066Y0283747D01*
X0120066Y0280105D02*
X0120066Y0281705D01*
X0121666Y0281705D01*
X0121666Y0280105D01*
X0120066Y0280105D01*
X0123806Y0280105D02*
X0123806Y0281705D01*
X0125406Y0281705D01*
X0125406Y0280105D01*
X0123806Y0280105D01*
X0123806Y0283747D02*
X0123806Y0285347D01*
X0125406Y0285347D01*
X0125406Y0283747D01*
X0123806Y0283747D01*
X0084633Y0321003D02*
X0084633Y0322603D01*
X0086233Y0322603D01*
X0086233Y0321003D01*
X0084633Y0321003D01*
X0081090Y0321003D02*
X0081090Y0322603D01*
X0082690Y0322603D01*
X0082690Y0321003D01*
X0081090Y0321003D01*
X0047428Y0277547D02*
X0047428Y0279147D01*
X0049028Y0279147D01*
X0049028Y0277547D01*
X0047428Y0277547D01*
X0050578Y0280696D02*
X0050578Y0282296D01*
X0052178Y0282296D01*
X0052178Y0280696D01*
X0050578Y0280696D01*
X0053334Y0283452D02*
X0053334Y0285052D01*
X0054934Y0285052D01*
X0054934Y0283452D01*
X0053334Y0283452D01*
X0055893Y0286208D02*
X0055893Y0287808D01*
X0057493Y0287808D01*
X0057493Y0286208D01*
X0055893Y0286208D01*
X0070863Y0321289D02*
X0070863Y0322889D01*
X0072463Y0322889D01*
X0072463Y0321289D01*
X0070863Y0321289D01*
X0070863Y0324832D02*
X0070863Y0326432D01*
X0072463Y0326432D01*
X0072463Y0324832D01*
X0070863Y0324832D01*
X0046784Y0073806D02*
X0046784Y0075406D01*
X0048384Y0075406D01*
X0048384Y0073806D01*
X0046784Y0073806D01*
X0046838Y0077153D02*
X0046838Y0078753D01*
X0048438Y0078753D01*
X0048438Y0077153D01*
X0046838Y0077153D01*
X0054318Y0070263D02*
X0054318Y0071863D01*
X0055918Y0071863D01*
X0055918Y0070263D01*
X0054318Y0070263D01*
X0056101Y0079330D02*
X0056101Y0080930D01*
X0057701Y0080930D01*
X0057701Y0079330D01*
X0056101Y0079330D01*
X0187586Y0309239D02*
X0187586Y0310839D01*
X0189186Y0310839D01*
X0189186Y0309239D01*
X0187586Y0309239D01*
X0164357Y0312586D02*
X0164357Y0314186D01*
X0165957Y0314186D01*
X0165957Y0312586D01*
X0164357Y0312586D01*
X0033058Y0026169D02*
X0033058Y0027768D01*
X0034658Y0027768D01*
X0034658Y0026169D01*
X0033058Y0026169D01*
X0177743Y0309436D02*
X0177743Y0311036D01*
X0179343Y0311036D01*
X0179343Y0309436D01*
X0177743Y0309436D01*
X0174791Y0309436D02*
X0174791Y0311036D01*
X0176391Y0311036D01*
X0176391Y0309436D01*
X0174791Y0309436D01*
X0130105Y0046641D02*
X0130105Y0048241D01*
X0131705Y0048241D01*
X0131705Y0046641D01*
X0130105Y0046641D01*
X0121838Y0129318D02*
X0121838Y0130918D01*
X0123438Y0130918D01*
X0123438Y0129318D01*
X0121838Y0129318D01*
X0123806Y0287389D02*
X0123806Y0288989D01*
X0125406Y0288989D01*
X0125406Y0287389D01*
X0123806Y0287389D01*
X0075578Y0142310D02*
X0075578Y0143910D01*
X0077178Y0143910D01*
X0077178Y0142310D01*
X0075578Y0142310D01*
X0082665Y0142310D02*
X0082665Y0143910D01*
X0084265Y0143910D01*
X0084265Y0142310D01*
X0082665Y0142310D01*
X0079121Y0142310D02*
X0079121Y0143910D01*
X0080721Y0143910D01*
X0080721Y0142310D01*
X0079121Y0142310D01*
X0026759Y0078334D02*
X0026759Y0079934D01*
X0028359Y0079934D01*
X0028359Y0078334D01*
X0026759Y0078334D01*
X0105105Y0054318D02*
X0105105Y0055918D01*
X0106705Y0055918D01*
X0106705Y0054318D01*
X0105105Y0054318D01*
X0032861Y0014161D02*
X0032861Y0015761D01*
X0034461Y0015761D01*
X0034461Y0014161D01*
X0032861Y0014161D01*
X0063582Y0067507D02*
X0063582Y0069107D01*
X0065182Y0069107D01*
X0065182Y0067507D01*
X0063582Y0067507D01*
X0063582Y0064554D02*
X0063582Y0066154D01*
X0065182Y0066154D01*
X0065182Y0064554D01*
X0063582Y0064554D01*
X0088964Y0203137D02*
X0088964Y0204737D01*
X0090564Y0204737D01*
X0090564Y0203137D01*
X0088964Y0203137D01*
X0132271Y0193295D02*
X0132271Y0194895D01*
X0133871Y0194895D01*
X0133871Y0193295D01*
X0132271Y0193295D01*
X0090145Y0304712D02*
X0090145Y0306312D01*
X0091745Y0306312D01*
X0091745Y0304712D01*
X0090145Y0304712D01*
X0090145Y0301562D02*
X0090145Y0303162D01*
X0091745Y0303162D01*
X0091745Y0301562D01*
X0090145Y0301562D01*
X0090145Y0286995D02*
X0090145Y0288595D01*
X0091745Y0288595D01*
X0091745Y0286995D01*
X0090145Y0286995D01*
X0090145Y0290539D02*
X0090145Y0292139D01*
X0091745Y0292139D01*
X0091745Y0290539D01*
X0090145Y0290539D01*
X0094082Y0283452D02*
X0094082Y0285052D01*
X0095682Y0285052D01*
X0095682Y0283452D01*
X0094082Y0283452D01*
X0094082Y0286995D02*
X0094082Y0288595D01*
X0095682Y0288595D01*
X0095682Y0286995D01*
X0094082Y0286995D01*
X0094082Y0290539D02*
X0094082Y0292139D01*
X0095682Y0292139D01*
X0095682Y0290539D01*
X0094082Y0290539D01*
X0094082Y0294082D02*
X0094082Y0295682D01*
X0095682Y0295682D01*
X0095682Y0294082D01*
X0094082Y0294082D01*
X0094082Y0301562D02*
X0094082Y0303162D01*
X0095682Y0303162D01*
X0095682Y0301562D01*
X0094082Y0301562D01*
X0094082Y0304712D02*
X0094082Y0306312D01*
X0095682Y0306312D01*
X0095682Y0304712D01*
X0094082Y0304712D01*
X0094082Y0307861D02*
X0094082Y0309461D01*
X0095682Y0309461D01*
X0095682Y0307861D01*
X0094082Y0307861D01*
X0094082Y0311011D02*
X0094082Y0312611D01*
X0095682Y0312611D01*
X0095682Y0311011D01*
X0094082Y0311011D01*
X0066724Y0321289D02*
X0066724Y0322889D01*
X0068324Y0322889D01*
X0068324Y0321289D01*
X0066724Y0321289D01*
X0062586Y0321289D02*
X0062586Y0322889D01*
X0064186Y0322889D01*
X0064186Y0321289D01*
X0062586Y0321289D01*
X0066724Y0324832D02*
X0066724Y0326432D01*
X0068324Y0326432D01*
X0068324Y0324832D01*
X0066724Y0324832D01*
X0062586Y0324832D02*
X0062586Y0326432D01*
X0064186Y0326432D01*
X0064186Y0324832D01*
X0062586Y0324832D01*
X0058452Y0288964D02*
X0058452Y0290564D01*
X0060052Y0290564D01*
X0060052Y0288964D01*
X0058452Y0288964D01*
X0084633Y0313767D02*
X0084633Y0315367D01*
X0086233Y0315367D01*
X0086233Y0313767D01*
X0084633Y0313767D01*
X0081090Y0313767D02*
X0081090Y0315367D01*
X0082690Y0315367D01*
X0082690Y0313767D01*
X0081090Y0313767D01*
X0084633Y0317385D02*
X0084633Y0318985D01*
X0086233Y0318985D01*
X0086233Y0317385D01*
X0084633Y0317385D01*
X0081090Y0317385D02*
X0081090Y0318985D01*
X0082690Y0318985D01*
X0082690Y0317385D01*
X0081090Y0317385D01*
X0066917Y0317310D02*
X0066917Y0318910D01*
X0068516Y0318910D01*
X0068516Y0317310D01*
X0066917Y0317310D01*
X0068885Y0284239D02*
X0068885Y0285839D01*
X0070485Y0285839D01*
X0070485Y0284239D01*
X0068885Y0284239D01*
X0041326Y0156896D02*
X0041326Y0158496D01*
X0042926Y0158496D01*
X0042926Y0156896D01*
X0041326Y0156896D01*
X0131371Y0262586D02*
X0131371Y0264186D01*
X0132971Y0264186D01*
X0132971Y0262586D01*
X0131371Y0262586D01*
X0131371Y0259436D02*
X0131371Y0261036D01*
X0132971Y0261036D01*
X0132971Y0259436D01*
X0131371Y0259436D01*
X0052547Y0003334D02*
X0052547Y0004934D01*
X0054146Y0004934D01*
X0054146Y0003334D01*
X0052547Y0003334D01*
X0054712Y0008649D02*
X0054712Y0010249D01*
X0056312Y0010249D01*
X0056312Y0008649D01*
X0054712Y0008649D01*
X0051759Y0037586D02*
X0051759Y0039186D01*
X0053359Y0039186D01*
X0053359Y0037586D01*
X0051759Y0037586D01*
X0047035Y0047035D02*
X0047035Y0048635D01*
X0048635Y0048635D01*
X0048635Y0047035D01*
X0047035Y0047035D01*
X0063570Y0019869D02*
X0063570Y0021469D01*
X0065170Y0021469D01*
X0065170Y0019869D01*
X0063570Y0019869D01*
X0063570Y0016917D02*
X0063570Y0018517D01*
X0065170Y0018517D01*
X0065170Y0016917D01*
X0063570Y0016917D01*
X0063570Y0022822D02*
X0063570Y0024422D01*
X0065170Y0024422D01*
X0065170Y0022822D01*
X0063570Y0022822D01*
X0047035Y0041916D02*
X0047035Y0043516D01*
X0048635Y0043516D01*
X0048635Y0041916D01*
X0047035Y0041916D01*
X0047035Y0033255D02*
X0047035Y0034855D01*
X0048635Y0034855D01*
X0048635Y0033255D01*
X0047035Y0033255D01*
X0049200Y0044475D02*
X0049200Y0046075D01*
X0050800Y0046075D01*
X0050800Y0044475D01*
X0049200Y0044475D01*
X0049200Y0035421D02*
X0049200Y0037020D01*
X0050800Y0037020D01*
X0050800Y0035421D01*
X0049200Y0035421D01*
X0076562Y0010617D02*
X0076562Y0012217D01*
X0078162Y0012217D01*
X0078162Y0010617D01*
X0076562Y0010617D01*
X0076562Y0013570D02*
X0076562Y0015170D01*
X0078162Y0015170D01*
X0078162Y0013570D01*
X0076562Y0013570D01*
X0061208Y0028137D02*
X0061208Y0029737D01*
X0062808Y0029737D01*
X0062808Y0028137D01*
X0061208Y0028137D01*
X0064357Y0028334D02*
X0064357Y0029934D01*
X0065957Y0029934D01*
X0065957Y0028334D01*
X0064357Y0028334D01*
X0047625Y0024987D02*
X0047625Y0026587D01*
X0049225Y0026587D01*
X0049225Y0024987D01*
X0047625Y0024987D01*
X0036011Y0070263D02*
X0036011Y0071863D01*
X0037611Y0071863D01*
X0037611Y0070263D01*
X0036011Y0070263D01*
X0034043Y0073806D02*
X0034043Y0075406D01*
X0035642Y0075406D01*
X0035642Y0073806D01*
X0034043Y0073806D01*
X0005302Y0051956D02*
X0005302Y0053556D01*
X0006902Y0053556D01*
X0006902Y0051956D01*
X0005302Y0051956D01*
X0078137Y0029121D02*
X0078137Y0030721D01*
X0079737Y0030721D01*
X0079737Y0029121D01*
X0078137Y0029121D01*
X0034830Y0032665D02*
X0034830Y0034265D01*
X0036430Y0034265D01*
X0036430Y0032665D01*
X0034830Y0032665D01*
X0125971Y-0007493D02*
X0125971Y-0005893D01*
X0127571Y-0005893D01*
X0127571Y-0007493D01*
X0125971Y-0007493D01*
X0084633Y0040539D02*
X0084633Y0042139D01*
X0086233Y0042139D01*
X0086233Y0040539D01*
X0084633Y0040539D01*
X0095066Y-0000406D02*
X0095066Y0001194D01*
X0096666Y0001194D01*
X0096666Y-0000406D01*
X0095066Y-0000406D01*
X0093294Y0015932D02*
X0093294Y0017532D01*
X0094894Y0017532D01*
X0094894Y0015932D01*
X0093294Y0015932D01*
D221*
X0164619Y0323199D02*
G03*
X0164619Y0323199I-0000800J0000000D01*
G01*
X0187375Y0323199D02*
G03*
X0187375Y0323199I-0000800J0000000D01*
G01*
X0025633Y0010472D02*
G03*
X0025633Y0010472I-0000800J0000000D01*
G01*
X0025633Y0033228D02*
G03*
X0025633Y0033228I-0000800J0000000D01*
G01*
M02*
