G04*
G04 #@! TF.GenerationSoftware,Altium Limited,Altium Designer,25.8.1 (18)*
G04*
G04 Layer_Color=32768*
%FSAX25Y25*%
%MOIN*%
G70*
G04*
G04 #@! TF.SameCoordinates,BE805E25-8328-4095-8AD4-E1B6FE3B792C*
G04*
G04*
G04 #@! TF.FilePolarity,Positive*
G04*
G01*
G75*
%ADD10C,0.00394*%
%ADD11C,0.00787*%
%ADD13C,0.00600*%
%ADD218C,0.00197*%
G36*
X0112318Y0312994D02*
X0120868Y0312994D01*
X0120868Y0281494D01*
X0112318Y0281494D01*
X0112318Y0278894D01*
X0097918Y0278894D01*
X0097918Y0281494D01*
X0089368Y0281494D01*
X0089368Y0312994D01*
X0097918Y0312994D01*
X0097918Y0315594D01*
X0112318Y0315594D01*
X0112318Y0312994D01*
X0112318Y0312994D02*
G37*
G36*
X0145385Y0305226D02*
X0147502Y0305226D01*
X0147502Y0279026D01*
X0146552Y0279026D01*
X0146552Y0276626D01*
X0128252Y0276626D01*
X0128252Y0279026D01*
X0127302Y0279026D01*
X0127302Y0305226D01*
X0129418Y0305226D01*
X0129418Y0307026D01*
X0145385Y0307026D01*
X0145385Y0305226D01*
X0145385Y0305226D02*
G37*
G36*
X0112244Y0128445D02*
X0080669Y0128445D01*
X0080669Y0163917D01*
X0112244Y0163917D01*
X0112244Y0128445D01*
X0112244Y0128445D02*
G37*
D10*
X0081102Y0290158D02*
X0081102Y0305906D01*
X0061417Y0305906D02*
X0081102Y0305906D01*
X0061417Y0290158D02*
X0061417Y0305906D01*
X0061417Y0290158D02*
X0081102Y0290158D01*
X0079134Y0290158D02*
X0081102Y0292126D01*
X0045276Y0198819D02*
X0045276Y0318898D01*
X0084646Y0318898D01*
X0084646Y0198819D02*
X0084646Y0318898D01*
X0045276Y0198819D02*
X0084646Y0198819D01*
X0003543Y0198819D02*
X0003543Y0318898D01*
X0042913Y0318898D01*
X0042913Y0198819D02*
X0042913Y0318898D01*
X0003543Y0198819D02*
X0042913Y0198819D01*
D11*
X0000000Y-0012559D02*
G03*
X0015000Y-0027559I0015000J0000000D01*
G01*
X0015000Y0348228D02*
G03*
X0000000Y0333228I0000000J-0015000D01*
G01*
X0276791Y-0027559D02*
G03*
X0291791Y-0012559I0000000J0015000D01*
G01*
X0291791Y0333228D02*
G03*
X0276791Y0348228I-0015000J0000000D01*
G01*
X0000000Y-0012559D02*
X0000000Y0333228D01*
X0291791Y-0012559D02*
X0291791Y0333228D01*
X0015000Y-0027559D02*
X0276791Y-0027559D01*
X0015000Y0348228D02*
X0276791Y0348228D01*
D13*
X0097918Y0315594D02*
X0112318Y0315594D01*
X0112318Y0312994D02*
X0112318Y0315594D01*
X0112318Y0278894D02*
X0112318Y0281494D01*
X0097918Y0278894D02*
X0112318Y0278894D01*
X0097918Y0278894D02*
X0097918Y0281494D01*
X0097918Y0312994D02*
X0097918Y0315594D01*
X0089368Y0312994D02*
X0097918Y0312994D01*
X0112318Y0312994D02*
X0120868Y0312994D01*
X0120868Y0281494D02*
X0120868Y0312994D01*
X0112318Y0281494D02*
X0120868Y0281494D01*
X0089368Y0281494D02*
X0097918Y0281494D01*
X0089368Y0281494D02*
X0089368Y0312994D01*
X0127302Y0279026D02*
X0127302Y0305226D01*
X0127302Y0279026D02*
X0128252Y0279026D01*
X0146552Y0279026D02*
X0147502Y0279026D01*
X0128252Y0276626D02*
X0146552Y0276626D01*
X0129418Y0307026D02*
X0145385Y0307026D01*
X0128252Y0276626D02*
X0128252Y0279026D01*
X0129418Y0305226D02*
X0129418Y0307026D01*
X0146552Y0276626D02*
X0146552Y0279026D01*
X0145385Y0305226D02*
X0145385Y0307026D01*
X0147502Y0279026D02*
X0147502Y0305226D01*
X0145385Y0305226D02*
X0147502Y0305226D01*
X0127302Y0305226D02*
X0129418Y0305226D01*
X0080669Y0128445D02*
X0112244Y0128445D01*
X0112244Y0163917D01*
X0080669Y0163917D02*
X0112244Y0163917D01*
X0080669Y0128445D02*
X0080669Y0163917D01*
D218*
X0240748Y0121850D02*
X0289961Y0121850D01*
X0240748Y0001772D02*
X0240748Y0121850D01*
X0240748Y0001772D02*
X0289961Y0001772D01*
X0289961Y0121850D01*
X0224213Y0049803D02*
X0241929Y0049803D01*
X0224213Y0049803D02*
X0224213Y0064961D01*
X0241929Y0064961D01*
X0241929Y0049803D02*
X0241929Y0064961D01*
X0090984Y0145669D02*
X0099961Y0145669D01*
X0090984Y0145669D02*
X0090984Y0163779D01*
X0099961Y0163779D01*
X0099961Y0145669D02*
X0099961Y0163779D01*
X0110787Y0145669D02*
X0110787Y0163779D01*
X0101811Y0163779D02*
X0110787Y0163779D01*
X0101811Y0145669D02*
X0101811Y0163779D01*
X0101811Y0145669D02*
X0110787Y0145669D01*
M02*
