G04*
G04 #@! TF.GenerationSoftware,Altium Limited,Altium Designer,25.8.1 (18)*
G04*
G04 Layer_Color=8388736*
%FSAX25Y25*%
%MOIN*%
G70*
G04*
G04 #@! TF.SameCoordinates,BE805E25-8328-4095-8AD4-E1B6FE3B792C*
G04*
G04*
G04 #@! TF.FilePolarity,Negative*
G04*
G01*
G75*
%ADD31R,0.13780X0.11811*%
%ADD41R,0.02953X0.02953*%
%ADD42R,0.02756X0.02362*%
%ADD43R,0.02756X0.03150*%
%ADD44C,0.24410*%
%ADD45R,0.06890X0.01968*%
%ADD46R,0.03740X0.03937*%
%ADD47R,0.04921X0.09449*%
%ADD48R,0.22487X0.04687*%
%ADD49R,0.14567X0.05512*%
%ADD50R,0.06890X0.03150*%
%ADD51R,0.06142X0.07323*%
%ADD52R,0.05315X0.01968*%
%ADD53R,0.11614X0.05512*%
%ADD54R,0.12598X0.08661*%
%ADD55R,0.07480X0.05512*%
%ADD56R,0.12598X0.08661*%
%ADD57R,0.04724X0.04921*%
%ADD58R,0.03937X0.03740*%
%ADD59R,0.12987X0.07487*%
%ADD60R,0.02362X0.02756*%
%ADD61O,0.06299X0.03150*%
%ADD62O,0.07874X0.04724*%
%ADD63O,0.09055X0.04724*%
%ADD64C,0.08661*%
%ADD65C,0.07087*%
%ADD66R,0.06693X0.06693*%
%ADD67C,0.05906*%
%ADD68C,0.06299*%
%ADD69C,0.09055*%
%ADD70C,0.06693*%
%ADD71C,0.00787*%
%ADD72R,0.07087X0.07087*%
%ADD73O,0.04724X0.09055*%
%ADD74O,0.04724X0.07874*%
%ADD75R,0.05906X0.05906*%
%ADD76R,0.09055X0.09055*%
%ADD77C,0.03150*%
G36*
X0276772Y0002362D02*
X0276772Y0010236D01*
X0266929Y0010236D01*
X0266929Y0014961D01*
X0289370Y0014961D01*
X0289370Y0002362D01*
X0276772Y0002362D01*
X0276772Y0002362D02*
G37*
G36*
X0266929Y0016142D02*
X0266929Y0020866D01*
X0276772Y0020866D01*
X0276772Y0024803D01*
X0289370Y0024803D01*
X0289370Y0016142D01*
X0266929Y0016142D01*
X0266929Y0016142D02*
G37*
G36*
X0276772Y0098819D02*
X0276772Y0102756D01*
X0266929Y0102756D01*
X0266929Y0107480D01*
X0289370Y0107480D01*
X0289370Y0098819D01*
X0276772Y0098819D01*
X0276772Y0098819D02*
G37*
G36*
X0266929Y0108661D02*
X0266929Y0113386D01*
X0276772Y0113386D01*
X0276772Y0121260D01*
X0289370Y0121260D01*
X0289370Y0108661D01*
X0266929Y0108661D01*
X0266929Y0108661D02*
G37*
D31*
X0105118Y0309055D02*
D03*
X0105118Y0285433D02*
D03*
D41*
X0229035Y0335925D02*
D03*
X0229035Y0338878D02*
D03*
X0218602Y0335925D02*
D03*
X0218602Y0338878D02*
D03*
X0233858Y0338779D02*
D03*
X0233858Y0335827D02*
D03*
X0244291Y0338779D02*
D03*
X0244291Y0335827D02*
D03*
D42*
X0248622Y0330315D02*
D03*
X0248622Y0326378D02*
D03*
X0006102Y0058858D02*
D03*
X0006102Y0054921D02*
D03*
D43*
X0213583Y0340158D02*
D03*
X0213583Y0334252D02*
D03*
X0248622Y0340158D02*
D03*
X0248622Y0334252D02*
D03*
D44*
X0274213Y0228543D02*
D03*
X0194488Y0047441D02*
D03*
X0274213Y0228543D02*
D03*
X0194413Y0047441D02*
D03*
D45*
X0095965Y0229528D02*
D03*
X0095965Y0223622D02*
D03*
X0095965Y0241339D02*
D03*
X0095965Y0247244D02*
D03*
X0095965Y0235433D02*
D03*
X0095965Y0262992D02*
D03*
X0095965Y0261024D02*
D03*
X0125689Y0197047D02*
D03*
X0125689Y0208858D02*
D03*
X0095965Y0194095D02*
D03*
X0095965Y0196063D02*
D03*
X0095965Y0201969D02*
D03*
X0042815Y0081890D02*
D03*
X0042815Y0079921D02*
D03*
X0042815Y0060236D02*
D03*
X0042815Y0066142D02*
D03*
X0042815Y0054331D02*
D03*
X0042815Y0042520D02*
D03*
X0042815Y0048425D02*
D03*
X0072539Y0027756D02*
D03*
X0072539Y0015945D02*
D03*
X0042815Y0020866D02*
D03*
X0042815Y0012992D02*
D03*
X0042815Y0014961D02*
D03*
X0095965Y0257087D02*
D03*
X0042815Y0018898D02*
D03*
X0042815Y0016929D02*
D03*
X0042815Y0077953D02*
D03*
X0042815Y0075984D02*
D03*
X0042815Y0083858D02*
D03*
X0042815Y0068110D02*
D03*
X0042815Y0070079D02*
D03*
X0042815Y0074016D02*
D03*
X0042815Y0072047D02*
D03*
X0042815Y0062205D02*
D03*
X0042815Y0064173D02*
D03*
X0042815Y0058268D02*
D03*
X0042815Y0050394D02*
D03*
X0042815Y0052362D02*
D03*
X0042815Y0056299D02*
D03*
X0072539Y0082874D02*
D03*
X0072539Y0080905D02*
D03*
X0072539Y0078937D02*
D03*
X0072539Y0076968D02*
D03*
X0072539Y0067126D02*
D03*
X0072539Y0069095D02*
D03*
X0072539Y0065158D02*
D03*
X0072539Y0075000D02*
D03*
X0072539Y0073032D02*
D03*
X0072539Y0071063D02*
D03*
X0072539Y0061221D02*
D03*
X0072539Y0063189D02*
D03*
X0072539Y0059252D02*
D03*
X0072539Y0057284D02*
D03*
X0072539Y0049409D02*
D03*
X0072539Y0051378D02*
D03*
X0072539Y0047441D02*
D03*
X0072539Y0055315D02*
D03*
X0072539Y0053346D02*
D03*
X0042815Y0040551D02*
D03*
X0042815Y0038583D02*
D03*
X0042815Y0046457D02*
D03*
X0042815Y0044488D02*
D03*
X0042815Y0030709D02*
D03*
X0042815Y0032677D02*
D03*
X0042815Y0028740D02*
D03*
X0042815Y0036614D02*
D03*
X0042815Y0034646D02*
D03*
X0042815Y0022835D02*
D03*
X0042815Y0026772D02*
D03*
X0042815Y0024803D02*
D03*
X0042815Y0011024D02*
D03*
X0072539Y0039567D02*
D03*
X0072539Y0041535D02*
D03*
X0072539Y0037598D02*
D03*
X0072539Y0045472D02*
D03*
X0072539Y0043504D02*
D03*
X0072539Y0031693D02*
D03*
X0072539Y0035630D02*
D03*
X0072539Y0033661D02*
D03*
X0072539Y0029724D02*
D03*
X0072539Y0025787D02*
D03*
X0072539Y0023819D02*
D03*
X0072539Y0021850D02*
D03*
X0072539Y0013976D02*
D03*
X0072539Y0012008D02*
D03*
X0072539Y0019882D02*
D03*
X0072539Y0017913D02*
D03*
X0095965Y0200000D02*
D03*
X0095965Y0198031D02*
D03*
X0095965Y0259055D02*
D03*
X0095965Y0264961D02*
D03*
X0095965Y0249213D02*
D03*
X0095965Y0251181D02*
D03*
X0095965Y0255118D02*
D03*
X0095965Y0253150D02*
D03*
X0095965Y0243307D02*
D03*
X0095965Y0245276D02*
D03*
X0095965Y0239370D02*
D03*
X0095965Y0231496D02*
D03*
X0095965Y0233465D02*
D03*
X0095965Y0237402D02*
D03*
X0125689Y0263976D02*
D03*
X0125689Y0262008D02*
D03*
X0125689Y0260039D02*
D03*
X0125689Y0258071D02*
D03*
X0125689Y0248228D02*
D03*
X0125689Y0250197D02*
D03*
X0125689Y0246260D02*
D03*
X0125689Y0256102D02*
D03*
X0125689Y0254134D02*
D03*
X0125689Y0252165D02*
D03*
X0125689Y0242323D02*
D03*
X0125689Y0244291D02*
D03*
X0125689Y0240354D02*
D03*
X0125689Y0238386D02*
D03*
X0125689Y0230512D02*
D03*
X0125689Y0232480D02*
D03*
X0125689Y0228543D02*
D03*
X0125689Y0236417D02*
D03*
X0125689Y0234449D02*
D03*
X0095965Y0221654D02*
D03*
X0095965Y0219685D02*
D03*
X0095965Y0227559D02*
D03*
X0095965Y0225591D02*
D03*
X0095965Y0211811D02*
D03*
X0095965Y0213779D02*
D03*
X0095965Y0209842D02*
D03*
X0095965Y0217717D02*
D03*
X0095965Y0215748D02*
D03*
X0095965Y0203937D02*
D03*
X0095965Y0207874D02*
D03*
X0095965Y0205906D02*
D03*
X0095965Y0192126D02*
D03*
X0125689Y0220669D02*
D03*
X0125689Y0222638D02*
D03*
X0125689Y0218701D02*
D03*
X0125689Y0226575D02*
D03*
X0125689Y0224606D02*
D03*
X0125689Y0212795D02*
D03*
X0125689Y0216732D02*
D03*
X0125689Y0214764D02*
D03*
X0125689Y0210827D02*
D03*
X0125689Y0206890D02*
D03*
X0125689Y0204921D02*
D03*
X0125689Y0202953D02*
D03*
X0125689Y0195079D02*
D03*
X0125689Y0193110D02*
D03*
X0125689Y0200984D02*
D03*
X0125689Y0199016D02*
D03*
D46*
X0227461Y0112598D02*
D03*
X0227461Y0090158D02*
D03*
X0227461Y0096063D02*
D03*
X0238748Y0118503D02*
D03*
X0233039Y0118503D02*
D03*
X0233169Y0096063D02*
D03*
X0233169Y0112598D02*
D03*
X0233169Y0090158D02*
D03*
D47*
X0238878Y0055905D02*
D03*
X0227264Y0055905D02*
D03*
D48*
X0100394Y0151181D02*
D03*
X0100394Y0141181D02*
D03*
D49*
X0030364Y0142126D02*
D03*
X0030364Y0150000D02*
D03*
D50*
X0019043Y0082835D02*
D03*
X0019043Y0071024D02*
D03*
X0019043Y0074961D02*
D03*
X0019043Y0078898D02*
D03*
D51*
X0015157Y0047638D02*
D03*
X0015157Y0056890D02*
D03*
X0026969Y0056890D02*
D03*
X0026969Y0047638D02*
D03*
D52*
X0029026Y0009843D02*
D03*
X0029026Y0035039D02*
D03*
X0029026Y0033858D02*
D03*
X0029026Y0008661D02*
D03*
X0029026Y0011811D02*
D03*
X0029026Y0030709D02*
D03*
X0029026Y0020866D02*
D03*
X0029026Y0022835D02*
D03*
X0029026Y0018898D02*
D03*
X0029026Y0024803D02*
D03*
X0029026Y0016929D02*
D03*
X0029026Y0026772D02*
D03*
X0029026Y0014961D02*
D03*
X0029026Y0028740D02*
D03*
X0029026Y0012992D02*
D03*
X0029026Y0031890D02*
D03*
D53*
X0045866Y0088189D02*
D03*
X0045866Y0006693D02*
D03*
X0099016Y0269291D02*
D03*
X0099016Y0187795D02*
D03*
D54*
X0007480Y0132677D02*
D03*
X0007480Y0159449D02*
D03*
D55*
X0005138Y0065905D02*
D03*
X0005138Y0087953D02*
D03*
D56*
X0283071Y0061811D02*
D03*
D57*
X0233071Y0061910D02*
D03*
D58*
X0268307Y0012617D02*
D03*
X0268307Y0018326D02*
D03*
X0268701Y0110862D02*
D03*
X0268701Y0105154D02*
D03*
X0233176Y0107184D02*
D03*
X0233176Y0101476D02*
D03*
X0274213Y0110763D02*
D03*
X0274213Y0105054D02*
D03*
X0233071Y0073819D02*
D03*
X0233071Y0068110D02*
D03*
X0233071Y0078740D02*
D03*
X0233071Y0084449D02*
D03*
X0274213Y0012617D02*
D03*
X0274213Y0018326D02*
D03*
D59*
X0091705Y0132795D02*
D03*
X0091705Y0159567D02*
D03*
D60*
X0023228Y0167520D02*
D03*
X0027165Y0167520D02*
D03*
D61*
X0010345Y0038858D02*
D03*
D62*
X0010345Y0004843D02*
D03*
X0010345Y0038858D02*
D03*
X0010345Y0004843D02*
D03*
X0010345Y0038858D02*
D03*
D63*
X0026801Y0004843D02*
D03*
X0026801Y0038858D02*
D03*
D03*
X0026801Y0004843D02*
D03*
D64*
X0030512Y-0004134D02*
D03*
X0223895Y0141568D02*
D03*
X0203937Y0337795D02*
D03*
D65*
X0119961Y0332422D02*
D03*
X0109961Y0332422D02*
D03*
X0129961Y0332422D02*
D03*
D66*
X0189961Y0112402D02*
D03*
X0189921Y-0017559D02*
D03*
D67*
X0074803Y0177165D02*
D03*
X0033071Y0177165D02*
D03*
D68*
X0039961Y0112402D02*
D03*
X0039921Y-0017559D02*
D03*
X0049961Y0112402D02*
D03*
X0059961Y0112402D02*
D03*
X0069961Y0112402D02*
D03*
X0079961Y0112402D02*
D03*
X0089961Y0112402D02*
D03*
X0099961Y0112402D02*
D03*
X0109961Y0112402D02*
D03*
X0119961Y0112402D02*
D03*
X0129961Y0112402D02*
D03*
X0139961Y0112402D02*
D03*
X0149961Y0112402D02*
D03*
X0159961Y0112402D02*
D03*
X0169961Y0112402D02*
D03*
X0169921Y-0017559D02*
D03*
X0159921Y-0017559D02*
D03*
X0149921Y-0017559D02*
D03*
X0139921Y-0017559D02*
D03*
X0129921Y-0017559D02*
D03*
X0119921Y-0017559D02*
D03*
X0109921Y-0017559D02*
D03*
X0099921Y-0017559D02*
D03*
X0089921Y-0017559D02*
D03*
X0079921Y-0017559D02*
D03*
X0069921Y-0017559D02*
D03*
X0059921Y-0017559D02*
D03*
X0049921Y-0017559D02*
D03*
D69*
X0169961Y0132402D02*
D03*
X0209961Y0122402D02*
D03*
X0199961Y0122402D02*
D03*
X0199961Y0132402D02*
D03*
X0189961Y0122402D02*
D03*
X0189961Y0132402D02*
D03*
X0179961Y0122402D02*
D03*
X0179961Y0132402D02*
D03*
X0169961Y0122402D02*
D03*
D70*
X0179961Y0112402D02*
D03*
X0179921Y-0017559D02*
D03*
D71*
X0063583Y0086811D02*
D03*
X0063583Y0008071D02*
D03*
X0116732Y0267913D02*
D03*
X0116732Y0189173D02*
D03*
X0163819Y0323199D02*
D03*
X0186575Y0323199D02*
D03*
X0024833Y0010472D02*
D03*
X0024833Y0033228D02*
D03*
X0276791Y0333228D02*
D03*
X0015000Y0333228D02*
D03*
X0276791Y-0012559D02*
D03*
X0015000Y0107441D02*
D03*
X0015000Y-0012559D02*
D03*
D72*
X0139961Y0332422D02*
D03*
D73*
X0192205Y0321230D02*
D03*
X0158189Y0321230D02*
D03*
D74*
X0158189Y0337687D02*
D03*
X0192205Y0337687D02*
D03*
D75*
X0055118Y0177165D02*
D03*
X0013386Y0177165D02*
D03*
D76*
X0209961Y0132402D02*
D03*
D77*
X0076968Y0301575D02*
D03*
X0074213Y0297835D02*
D03*
X0076968Y0294291D02*
D03*
X0105512Y0026772D02*
D03*
X0100984Y0026772D02*
D03*
X0071260Y0301575D02*
D03*
X0071260Y0294291D02*
D03*
X0068307Y0297835D02*
D03*
X0065551Y0301575D02*
D03*
X0065551Y0294291D02*
D03*
M02*
