G04*
G04 #@! TF.GenerationSoftware,Altium Limited,Altium Designer,25.8.1 (18)*
G04*
G04 Layer_Color=128*
%FSAX25Y25*%
%MOIN*%
G70*
G04*
G04 #@! TF.SameCoordinates,BE805E25-8328-4095-8AD4-E1B6FE3B792C*
G04*
G04*
G04 #@! TF.FilePolarity,Positive*
G04*
G01*
G75*
%ADD220C,0.00200*%
D220*
X0266929Y0228543D02*
X0281496Y0228543D01*
X0274213Y0221260D02*
X0274213Y0235827D01*
X0118189Y0332422D02*
X0121732Y0332422D01*
X0119961Y0330650D02*
X0119961Y0334193D01*
X0108189Y0332422D02*
X0111732Y0332422D01*
X0109961Y0330650D02*
X0109961Y0334193D01*
X0188189Y0112402D02*
X0191732Y0112402D01*
X0189961Y0110630D02*
X0189961Y0114173D01*
X0187129Y0047441D02*
X0201696Y0047441D01*
X0194413Y0040157D02*
X0194413Y0054724D01*
X0073228Y0177165D02*
X0076378Y0177165D01*
X0074803Y0175591D02*
X0074803Y0178740D01*
X0038189Y0112402D02*
X0041732Y0112402D01*
X0039961Y0110630D02*
X0039961Y0114173D01*
X0038150Y-0017559D02*
X0041693Y-0017559D01*
X0039921Y-0019331D02*
X0039921Y-0015787D01*
X0168189Y0132402D02*
X0171732Y0132402D01*
X0169961Y0130630D02*
X0169961Y0134173D01*
X0048189Y0112402D02*
X0051732Y0112402D01*
X0049961Y0110630D02*
X0049961Y0114173D01*
X0058189Y0112402D02*
X0061732Y0112402D01*
X0059961Y0110630D02*
X0059961Y0114173D01*
X0068189Y0112402D02*
X0071732Y0112402D01*
X0069961Y0110630D02*
X0069961Y0114173D01*
X0078189Y0112402D02*
X0081732Y0112402D01*
X0079961Y0110630D02*
X0079961Y0114173D01*
X0088189Y0112402D02*
X0091732Y0112402D01*
X0089961Y0110630D02*
X0089961Y0114173D01*
X0098189Y0112402D02*
X0101732Y0112402D01*
X0099961Y0110630D02*
X0099961Y0114173D01*
X0108189Y0112402D02*
X0111732Y0112402D01*
X0109961Y0110630D02*
X0109961Y0114173D01*
X0118189Y0112402D02*
X0121732Y0112402D01*
X0119961Y0110630D02*
X0119961Y0114173D01*
X0128189Y0112402D02*
X0131732Y0112402D01*
X0129961Y0110630D02*
X0129961Y0114173D01*
X0138189Y0112402D02*
X0141732Y0112402D01*
X0139961Y0110630D02*
X0139961Y0114173D01*
X0148189Y0112402D02*
X0151732Y0112402D01*
X0149961Y0110630D02*
X0149961Y0114173D01*
X0158189Y0112402D02*
X0161732Y0112402D01*
X0159961Y0110630D02*
X0159961Y0114173D01*
X0168189Y0112402D02*
X0171732Y0112402D01*
X0169961Y0110630D02*
X0169961Y0114173D01*
X0178189Y0112402D02*
X0181732Y0112402D01*
X0179961Y0110630D02*
X0179961Y0114173D01*
X0060433Y0086811D02*
X0066732Y0086811D01*
X0063583Y0083661D02*
X0063583Y0089961D01*
X0061417Y0008071D02*
X0065748Y0008071D01*
X0063583Y0005906D02*
X0063583Y0010236D01*
X0113583Y0267913D02*
X0119882Y0267913D01*
X0116732Y0264764D02*
X0116732Y0271063D01*
X0114567Y0189173D02*
X0118898Y0189173D01*
X0116732Y0187008D02*
X0116732Y0191339D01*
X0128189Y0332422D02*
X0131732Y0332422D01*
X0129961Y0330650D02*
X0129961Y0334193D01*
X0138189Y0332422D02*
X0141732Y0332422D01*
X0139961Y0330650D02*
X0139961Y0334193D01*
X0191024Y0321230D02*
X0193386Y0321230D01*
X0192205Y0320049D02*
X0192205Y0322411D01*
X0157008Y0337687D02*
X0159370Y0337687D01*
X0158189Y0336506D02*
X0158189Y0338868D01*
X0191024Y0337687D02*
X0193386Y0337687D01*
X0192205Y0336506D02*
X0192205Y0338868D01*
X0157008Y0321230D02*
X0159370Y0321230D01*
X0158189Y0320049D02*
X0158189Y0322411D01*
X0162539Y0323199D02*
X0165098Y0323199D01*
X0163819Y0321919D02*
X0163819Y0324478D01*
X0185295Y0323199D02*
X0187854Y0323199D01*
X0186575Y0321919D02*
X0186575Y0324478D01*
X0053543Y0177165D02*
X0056693Y0177165D01*
X0055118Y0175591D02*
X0055118Y0178740D01*
X0208189Y0122402D02*
X0211732Y0122402D01*
X0209961Y0120630D02*
X0209961Y0124173D01*
X0208189Y0132402D02*
X0211732Y0132402D01*
X0209961Y0130630D02*
X0209961Y0134173D01*
X0198189Y0122402D02*
X0201732Y0122402D01*
X0199961Y0120630D02*
X0199961Y0124173D01*
X0198189Y0132402D02*
X0201732Y0132402D01*
X0199961Y0130630D02*
X0199961Y0134173D01*
X0188189Y0122402D02*
X0191732Y0122402D01*
X0189961Y0120630D02*
X0189961Y0124173D01*
X0188189Y0132402D02*
X0191732Y0132402D01*
X0189961Y0130630D02*
X0189961Y0134173D01*
X0178189Y0122402D02*
X0181732Y0122402D01*
X0179961Y0120630D02*
X0179961Y0124173D01*
X0178189Y0132402D02*
X0181732Y0132402D01*
X0179961Y0130630D02*
X0179961Y0134173D01*
X0168189Y0122402D02*
X0171732Y0122402D01*
X0169961Y0120630D02*
X0169961Y0124173D01*
X0023553Y0010472D02*
X0026112Y0010472D01*
X0024833Y0009193D02*
X0024833Y0011752D01*
X0023553Y0033228D02*
X0026112Y0033228D01*
X0024833Y0031949D02*
X0024833Y0034508D01*
X0025620Y0038858D02*
X0027982Y0038858D01*
X0026801Y0037677D02*
X0026801Y0040039D01*
X0009163Y0004843D02*
X0011526Y0004843D01*
X0010345Y0003661D02*
X0010345Y0006024D01*
X0009163Y0038858D02*
X0011526Y0038858D01*
X0010345Y0037677D02*
X0010345Y0040039D01*
X0025620Y0004843D02*
X0027982Y0004843D01*
X0026801Y0003661D02*
X0026801Y0006024D01*
X0178150Y-0017559D02*
X0181693Y-0017559D01*
X0179921Y-0019331D02*
X0179921Y-0015787D01*
X0168150Y-0017559D02*
X0171693Y-0017559D01*
X0169921Y-0019331D02*
X0169921Y-0015787D01*
X0158150Y-0017559D02*
X0161693Y-0017559D01*
X0159921Y-0019331D02*
X0159921Y-0015787D01*
X0148150Y-0017559D02*
X0151693Y-0017559D01*
X0149921Y-0019331D02*
X0149921Y-0015787D01*
X0138150Y-0017559D02*
X0141693Y-0017559D01*
X0139921Y-0019331D02*
X0139921Y-0015787D01*
X0128150Y-0017559D02*
X0131693Y-0017559D01*
X0129921Y-0019331D02*
X0129921Y-0015787D01*
X0118150Y-0017559D02*
X0121693Y-0017559D01*
X0119921Y-0019331D02*
X0119921Y-0015787D01*
X0108150Y-0017559D02*
X0111693Y-0017559D01*
X0109921Y-0019331D02*
X0109921Y-0015787D01*
X0098150Y-0017559D02*
X0101693Y-0017559D01*
X0099921Y-0019331D02*
X0099921Y-0015787D01*
X0088150Y-0017559D02*
X0091693Y-0017559D01*
X0089921Y-0019331D02*
X0089921Y-0015787D01*
X0078150Y-0017559D02*
X0081693Y-0017559D01*
X0079921Y-0019331D02*
X0079921Y-0015787D01*
X0068150Y-0017559D02*
X0071693Y-0017559D01*
X0069921Y-0019331D02*
X0069921Y-0015787D01*
X0058150Y-0017559D02*
X0061693Y-0017559D01*
X0059921Y-0019331D02*
X0059921Y-0015787D01*
X0048150Y-0017559D02*
X0051693Y-0017559D01*
X0049921Y-0019331D02*
X0049921Y-0015787D01*
X0188150Y-0017559D02*
X0191693Y-0017559D01*
X0189921Y-0019331D02*
X0189921Y-0015787D01*
X0011811Y0177165D02*
X0014961Y0177165D01*
X0013386Y0175591D02*
X0013386Y0178740D01*
X0031496Y0177165D02*
X0034646Y0177165D01*
X0033071Y0175591D02*
X0033071Y0178740D01*
X0270295Y0333228D02*
X0283287Y0333228D01*
X0276791Y0326732D02*
X0276791Y0339724D01*
X0008504Y0333228D02*
X0021496Y0333228D01*
X0015000Y0326732D02*
X0015000Y0339724D01*
X0270295Y-0012559D02*
X0283288Y-0012559D01*
X0276791Y-0019055D02*
X0276791Y-0006063D01*
X0008504Y0107441D02*
X0021496Y0107441D01*
X0015000Y0100945D02*
X0015000Y0113937D01*
X0008504Y-0012559D02*
X0021496Y-0012559D01*
X0015000Y-0019055D02*
X0015000Y-0006063D01*
X0220276Y0321654D02*
X0221457Y0321654D01*
X0220866Y0321063D02*
X0220866Y0322244D01*
X0248031Y0322835D02*
X0249213Y0322835D01*
X0248622Y0322244D02*
X0248622Y0323425D01*
X0233271Y0342573D02*
X0234453Y0342573D01*
X0233862Y0341982D02*
X0233862Y0343163D01*
X0228346Y0343110D02*
X0229528Y0343110D01*
X0228937Y0342520D02*
X0228937Y0343701D01*
X0212992Y0342913D02*
X0214173Y0342913D01*
X0213583Y0342323D02*
X0213583Y0343504D01*
X0248031Y0343307D02*
X0249213Y0343307D01*
X0248622Y0342717D02*
X0248622Y0343898D01*
X0210039Y0204724D02*
X0211221Y0204724D01*
X0210630Y0204134D02*
X0210630Y0205315D01*
X0170472Y0204921D02*
X0171653Y0204921D01*
X0171063Y0204331D02*
X0171063Y0205512D01*
X0181693Y0204921D02*
X0182874Y0204921D01*
X0182283Y0204331D02*
X0182283Y0205512D01*
X0182480Y0284055D02*
X0183661Y0284055D01*
X0183071Y0283465D02*
X0183071Y0284646D01*
X0167126Y0284055D02*
X0168307Y0284055D01*
X0167717Y0283465D02*
X0167717Y0284646D01*
X0191811Y0345748D02*
X0192992Y0345748D01*
X0192402Y0345158D02*
X0192402Y0346339D01*
X0222047Y0311220D02*
X0223228Y0311220D01*
X0222638Y0310630D02*
X0222638Y0311811D01*
X0192520Y0286614D02*
X0193701Y0286614D01*
X0193110Y0286023D02*
X0193110Y0287205D01*
X0192520Y0274803D02*
X0193701Y0274803D01*
X0193110Y0274213D02*
X0193110Y0275394D01*
X0272441Y0247244D02*
X0273622Y0247244D01*
X0273031Y0246654D02*
X0273031Y0247835D01*
X0262992Y0214173D02*
X0264173Y0214173D01*
X0263583Y0213583D02*
X0263583Y0214764D01*
X0262402Y0242717D02*
X0263583Y0242717D01*
X0262992Y0242126D02*
X0262992Y0243307D01*
X0255906Y0234449D02*
X0257087Y0234449D01*
X0256496Y0233858D02*
X0256496Y0235039D01*
X0255709Y0224213D02*
X0256890Y0224213D01*
X0256299Y0223622D02*
X0256299Y0224803D01*
X0188779Y0314567D02*
X0189961Y0314567D01*
X0189370Y0313976D02*
X0189370Y0315158D01*
X0192520Y0310039D02*
X0193701Y0310039D01*
X0193110Y0309449D02*
X0193110Y0310630D01*
X0182087Y0304331D02*
X0183268Y0304331D01*
X0182677Y0303740D02*
X0182677Y0304921D01*
X0192520Y0298228D02*
X0193701Y0298228D01*
X0193110Y0297638D02*
X0193110Y0298819D01*
X0180000Y0345748D02*
X0181181Y0345748D01*
X0180590Y0345158D02*
X0180590Y0346339D01*
X0168189Y0345748D02*
X0169370Y0345748D01*
X0168780Y0345158D02*
X0168780Y0346339D01*
X0169685Y0304331D02*
X0170866Y0304331D01*
X0170276Y0303740D02*
X0170276Y0304921D01*
X0120945Y0345748D02*
X0122126Y0345748D01*
X0121535Y0345158D02*
X0121535Y0346339D01*
X0109134Y0345748D02*
X0110315Y0345748D01*
X0109724Y0345158D02*
X0109724Y0346339D01*
X0144567Y0345748D02*
X0145748Y0345748D01*
X0145157Y0345158D02*
X0145157Y0346339D01*
X0132756Y0345748D02*
X0133937Y0345748D01*
X0133346Y0345158D02*
X0133346Y0346339D01*
X0085512Y0345748D02*
X0086693Y0345748D01*
X0086102Y0345158D02*
X0086102Y0346339D01*
X0073701Y0345748D02*
X0074882Y0345748D01*
X0074291Y0345158D02*
X0074291Y0346339D01*
X0097323Y0345748D02*
X0098504Y0345748D01*
X0097913Y0345158D02*
X0097913Y0346339D01*
X0159252Y0314173D02*
X0160433Y0314173D01*
X0159843Y0313583D02*
X0159843Y0314764D01*
X0156378Y0345748D02*
X0157559Y0345748D01*
X0156968Y0345158D02*
X0156968Y0346339D01*
X0135630Y0248228D02*
X0136811Y0248228D01*
X0136221Y0247638D02*
X0136221Y0248819D01*
X0114370Y0252362D02*
X0115551Y0252362D01*
X0114961Y0251772D02*
X0114961Y0252953D01*
X0114370Y0261811D02*
X0115551Y0261811D01*
X0114961Y0261221D02*
X0114961Y0262402D01*
X0100984Y0261811D02*
X0102165Y0261811D01*
X0101575Y0261221D02*
X0101575Y0262402D01*
X0100984Y0252756D02*
X0102165Y0252756D01*
X0101575Y0252165D02*
X0101575Y0253346D01*
X0116535Y0236417D02*
X0117717Y0236417D01*
X0117126Y0235827D02*
X0117126Y0237008D01*
X0100984Y0232480D02*
X0102165Y0232480D01*
X0101575Y0231890D02*
X0101575Y0233071D01*
X0117520Y0220472D02*
X0118701Y0220472D01*
X0118110Y0219882D02*
X0118110Y0221063D01*
X0100984Y0223622D02*
X0102165Y0223622D01*
X0101575Y0223031D02*
X0101575Y0224213D01*
X0100787Y0241535D02*
X0101969Y0241535D01*
X0101378Y0240945D02*
X0101378Y0242126D01*
X0076378Y0301575D02*
X0077559Y0301575D01*
X0076968Y0300984D02*
X0076968Y0302165D01*
X0073622Y0297835D02*
X0074803Y0297835D01*
X0074213Y0297244D02*
X0074213Y0298425D01*
X0076378Y0294291D02*
X0077559Y0294291D01*
X0076968Y0293701D02*
X0076968Y0294882D01*
X0083661Y0292520D02*
X0084842Y0292520D01*
X0084252Y0291929D02*
X0084252Y0293110D01*
X0273228Y0209842D02*
X0274410Y0209842D01*
X0273819Y0209252D02*
X0273819Y0210433D01*
X0192520Y0169488D02*
X0193701Y0169488D01*
X0193110Y0168898D02*
X0193110Y0170079D01*
X0192520Y0157677D02*
X0193701Y0157677D01*
X0193110Y0157087D02*
X0193110Y0158268D01*
X0149606Y0119882D02*
X0150787Y0119882D01*
X0150197Y0119291D02*
X0150197Y0120472D01*
X0139567Y0119882D02*
X0140748Y0119882D01*
X0140157Y0119291D02*
X0140157Y0120472D01*
X0159449Y0119882D02*
X0160630Y0119882D01*
X0160039Y0119291D02*
X0160039Y0120472D01*
X0223425Y0112205D02*
X0224606Y0112205D01*
X0224016Y0111614D02*
X0224016Y0112795D01*
X0223031Y0096063D02*
X0224213Y0096063D01*
X0223622Y0095472D02*
X0223622Y0096653D01*
X0130709Y0154134D02*
X0131890Y0154134D01*
X0131299Y0153543D02*
X0131299Y0154724D01*
X0126378Y0154134D02*
X0127559Y0154134D01*
X0126969Y0153543D02*
X0126969Y0154724D01*
X0119095Y0213386D02*
X0120276Y0213386D01*
X0119685Y0212795D02*
X0119685Y0213976D01*
X0116142Y0196063D02*
X0117323Y0196063D01*
X0116732Y0195472D02*
X0116732Y0196653D01*
X0122047Y0154134D02*
X0123228Y0154134D01*
X0122638Y0153543D02*
X0122638Y0154724D01*
X0137205Y0137795D02*
X0138386Y0137795D01*
X0137795Y0137205D02*
X0137795Y0138386D01*
X0130709Y0149803D02*
X0131890Y0149803D01*
X0131299Y0149213D02*
X0131299Y0150394D01*
X0129331Y0119882D02*
X0130512Y0119882D01*
X0129921Y0119291D02*
X0129921Y0120473D01*
X0126378Y0149803D02*
X0127559Y0149803D01*
X0126969Y0149213D02*
X0126969Y0150394D01*
X0122047Y0149803D02*
X0123228Y0149803D01*
X0122638Y0149213D02*
X0122638Y0150394D01*
X0119488Y0119882D02*
X0120669Y0119882D01*
X0120079Y0119291D02*
X0120079Y0120472D01*
X0223031Y0089764D02*
X0224213Y0089764D01*
X0223622Y0089173D02*
X0223622Y0090354D01*
X0192598Y0060709D02*
X0193780Y0060709D01*
X0193189Y0060118D02*
X0193189Y0061299D01*
X0192598Y0034173D02*
X0193780Y0034173D01*
X0193189Y0033583D02*
X0193189Y0034764D01*
X0181496Y0019291D02*
X0182677Y0019291D01*
X0182087Y0018701D02*
X0182087Y0019882D01*
X0191811Y-0025079D02*
X0192992Y-0025079D01*
X0192402Y-0025669D02*
X0192402Y-0024488D01*
X0180512Y0047244D02*
X0181693Y0047244D01*
X0181102Y0046654D02*
X0181102Y0047835D01*
X0177756Y0019291D02*
X0178937Y0019291D01*
X0178347Y0018701D02*
X0178347Y0019882D01*
X0143635Y-0012598D02*
X0144816Y-0012598D01*
X0144226Y-0013189D02*
X0144226Y-0012008D01*
X0123031Y-0010039D02*
X0124213Y-0010039D01*
X0123622Y-0010630D02*
X0123622Y-0009449D01*
X0115157Y-0008661D02*
X0116339Y-0008661D01*
X0115748Y-0009252D02*
X0115748Y-0008071D01*
X0134055Y-0012598D02*
X0135236Y-0012598D01*
X0134646Y-0013189D02*
X0134646Y-0012008D01*
X0168189Y-0025079D02*
X0169370Y-0025079D01*
X0168780Y-0025669D02*
X0168780Y-0024488D01*
X0156378Y-0025079D02*
X0157559Y-0025079D01*
X0156968Y-0025669D02*
X0156968Y-0024488D01*
X0180000Y-0025079D02*
X0181181Y-0025079D01*
X0180590Y-0025669D02*
X0180590Y-0024488D01*
X0132756Y-0025079D02*
X0133937Y-0025079D01*
X0133346Y-0025669D02*
X0133346Y-0024488D01*
X0120945Y-0025079D02*
X0122126Y-0025079D01*
X0121535Y-0025669D02*
X0121535Y-0024488D01*
X0144567Y-0025079D02*
X0145748Y-0025079D01*
X0145157Y-0025669D02*
X0145157Y-0024488D01*
X0101969Y0203740D02*
X0103150Y0203740D01*
X0102559Y0203150D02*
X0102559Y0204331D01*
X0101181Y0213583D02*
X0102362Y0213583D01*
X0101772Y0212992D02*
X0101772Y0214173D01*
X0109646Y0119882D02*
X0110827Y0119882D01*
X0110236Y0119291D02*
X0110236Y0120472D01*
X0101772Y0195276D02*
X0102953Y0195276D01*
X0102362Y0194685D02*
X0102362Y0195866D01*
X0099410Y0119882D02*
X0100591Y0119882D01*
X0100000Y0119291D02*
X0100000Y0120472D01*
X0110039Y0075590D02*
X0111221Y0075590D01*
X0110630Y0075000D02*
X0110630Y0076181D01*
X0104921Y0026772D02*
X0106102Y0026772D01*
X0105512Y0026181D02*
X0105512Y0027362D01*
X0100197Y0042913D02*
X0101378Y0042913D01*
X0100787Y0042323D02*
X0100787Y0043504D01*
X0100394Y0026772D02*
X0101575Y0026772D01*
X0100984Y0026181D02*
X0100984Y0027362D01*
X0089370Y0195079D02*
X0090551Y0195079D01*
X0089961Y0194488D02*
X0089961Y0195669D01*
X0089567Y0119882D02*
X0090748Y0119882D01*
X0090158Y0119291D02*
X0090158Y0120472D01*
X0079322Y0119937D02*
X0080503Y0119937D01*
X0079912Y0119347D02*
X0079912Y0120528D01*
X0082874Y0050197D02*
X0084055Y0050197D01*
X0083465Y0049606D02*
X0083465Y0050787D01*
X0092520Y0039567D02*
X0093701Y0039567D01*
X0093110Y0038976D02*
X0093110Y0040157D01*
X0082677Y0044488D02*
X0083858Y0044488D01*
X0083268Y0043898D02*
X0083268Y0045079D01*
X0076772Y0037093D02*
X0077953Y0037093D01*
X0077362Y0036503D02*
X0077362Y0037684D01*
X0101181Y0016535D02*
X0102362Y0016535D01*
X0101772Y0015945D02*
X0101772Y0017126D01*
X0101181Y0019291D02*
X0102362Y0019291D01*
X0101772Y0018701D02*
X0101772Y0019882D01*
X0109134Y-0025079D02*
X0110315Y-0025079D01*
X0109724Y-0025669D02*
X0109724Y-0024488D01*
X0101772Y0008858D02*
X0102953Y0008858D01*
X0102362Y0008268D02*
X0102362Y0009449D01*
X0076968Y0026969D02*
X0078150Y0026969D01*
X0077559Y0026378D02*
X0077559Y0027559D01*
X0076772Y0018110D02*
X0077953Y0018110D01*
X0077362Y0017520D02*
X0077362Y0018701D01*
X0092126Y0008661D02*
X0093307Y0008661D01*
X0092716Y0008071D02*
X0092716Y0009252D01*
X0085512Y-0025079D02*
X0086693Y-0025079D01*
X0086102Y-0025669D02*
X0086102Y-0024488D01*
X0085433Y-0004134D02*
X0086614Y-0004134D01*
X0086024Y-0004724D02*
X0086024Y-0003543D01*
X0097323Y-0025079D02*
X0098504Y-0025079D01*
X0097913Y-0025669D02*
X0097913Y-0024488D01*
X0074016Y0007874D02*
X0075197Y0007874D01*
X0074606Y0007283D02*
X0074606Y0008465D01*
X0073228Y-0003543D02*
X0074410Y-0003543D01*
X0073819Y-0004134D02*
X0073819Y-0002953D01*
X0073701Y-0025079D02*
X0074882Y-0025079D01*
X0074291Y-0025669D02*
X0074291Y-0024488D01*
X0070669Y0301575D02*
X0071850Y0301575D01*
X0071260Y0300984D02*
X0071260Y0302165D01*
X0070669Y0294291D02*
X0071850Y0294291D01*
X0071260Y0293701D02*
X0071260Y0294882D01*
X0067716Y0297835D02*
X0068898Y0297835D01*
X0068307Y0297244D02*
X0068307Y0298425D01*
X0064961Y0301575D02*
X0066142Y0301575D01*
X0065551Y0300984D02*
X0065551Y0302165D01*
X0061890Y0345748D02*
X0063071Y0345748D01*
X0062480Y0345158D02*
X0062480Y0346339D01*
X0064961Y0294291D02*
X0066142Y0294291D01*
X0065551Y0293701D02*
X0065551Y0294882D01*
X0068110Y0265945D02*
X0069291Y0265945D01*
X0068701Y0265354D02*
X0068701Y0266535D01*
X0068110Y0268898D02*
X0069291Y0268898D01*
X0068701Y0268307D02*
X0068701Y0269488D01*
X0066732Y0274803D02*
X0067913Y0274803D01*
X0067323Y0274213D02*
X0067323Y0275394D01*
X0050079Y0345748D02*
X0051260Y0345748D01*
X0050669Y0345158D02*
X0050669Y0346339D01*
X0050197Y0310236D02*
X0051378Y0310236D01*
X0050787Y0309646D02*
X0050787Y0310827D01*
X0046654Y0168307D02*
X0047835Y0168307D01*
X0047244Y0167717D02*
X0047244Y0168898D01*
X0045472Y0162795D02*
X0046654Y0162795D01*
X0046063Y0162205D02*
X0046063Y0163386D01*
X0063779Y0159449D02*
X0064961Y0159449D01*
X0064370Y0158858D02*
X0064370Y0160039D01*
X0069291Y0119882D02*
X0070472Y0119882D01*
X0069882Y0119291D02*
X0069882Y0120472D01*
X0063386Y0096850D02*
X0064567Y0096850D01*
X0063976Y0096260D02*
X0063976Y0097441D01*
X0061221Y0131299D02*
X0062402Y0131299D01*
X0061811Y0130709D02*
X0061811Y0131890D01*
X0059646Y0119882D02*
X0060827Y0119882D01*
X0060236Y0119291D02*
X0060236Y0120472D01*
X0058661Y0131299D02*
X0059842Y0131299D01*
X0059252Y0130709D02*
X0059252Y0131890D01*
X0053937Y0102756D02*
X0055118Y0102756D01*
X0054528Y0102165D02*
X0054528Y0103346D01*
X0049606Y0119882D02*
X0050787Y0119882D01*
X0050197Y0119291D02*
X0050197Y0120472D01*
X0045866Y0094488D02*
X0047047Y0094488D01*
X0046457Y0093898D02*
X0046457Y0095079D01*
X0038386Y0310236D02*
X0039567Y0310236D01*
X0038976Y0309646D02*
X0038976Y0310827D01*
X0038268Y0345748D02*
X0039449Y0345748D01*
X0038858Y0345158D02*
X0038858Y0346339D01*
X0026457Y0345748D02*
X0027638Y0345748D01*
X0027047Y0345157D02*
X0027047Y0346338D01*
X0026575Y0310236D02*
X0027756Y0310236D01*
X0027165Y0309646D02*
X0027165Y0310827D01*
X0043110Y0139370D02*
X0044291Y0139370D01*
X0043701Y0138779D02*
X0043701Y0139961D01*
X0002087Y0285748D02*
X0003268Y0285748D01*
X0002677Y0285157D02*
X0002677Y0286338D01*
X0018898Y0144291D02*
X0020079Y0144291D01*
X0019488Y0143701D02*
X0019488Y0144882D01*
X0002087Y0273937D02*
X0003268Y0273937D01*
X0002677Y0273346D02*
X0002677Y0274527D01*
X0002087Y0309370D02*
X0003268Y0309370D01*
X0002677Y0308779D02*
X0002677Y0309960D01*
X0002087Y0321181D02*
X0003268Y0321181D01*
X0002677Y0320590D02*
X0002677Y0321771D01*
X0002087Y0297559D02*
X0003268Y0297559D01*
X0002677Y0296968D02*
X0002677Y0298149D01*
X0022835Y0137008D02*
X0024016Y0137008D01*
X0023425Y0136417D02*
X0023425Y0137598D01*
X0022835Y0133268D02*
X0024016Y0133268D01*
X0023425Y0132677D02*
X0023425Y0133858D01*
X0018898Y0137008D02*
X0020079Y0137008D01*
X0019488Y0136417D02*
X0019488Y0137598D01*
X0018898Y0140748D02*
X0020079Y0140748D01*
X0019488Y0140157D02*
X0019488Y0141339D01*
X0018898Y0133268D02*
X0020079Y0133268D01*
X0019488Y0132677D02*
X0019488Y0133858D01*
X0039370Y0119882D02*
X0040551Y0119882D01*
X0039961Y0119291D02*
X0039961Y0120472D01*
X0026457Y0119961D02*
X0027638Y0119961D01*
X0027047Y0119370D02*
X0027047Y0120551D01*
X0026181Y0094488D02*
X0027362Y0094488D01*
X0026772Y0093898D02*
X0026772Y0095079D01*
X0002087Y0093976D02*
X0003268Y0093976D01*
X0002677Y0093386D02*
X0002677Y0094567D01*
X0002087Y0119488D02*
X0003268Y0119488D01*
X0002677Y0118898D02*
X0002677Y0120079D01*
X0022441Y0082677D02*
X0023622Y0082677D01*
X0023031Y0082087D02*
X0023031Y0083268D01*
X0002087Y0082165D02*
X0003268Y0082165D01*
X0002677Y0081575D02*
X0002677Y0082756D01*
X0059055Y0058268D02*
X0060236Y0058268D01*
X0059646Y0057677D02*
X0059646Y0058858D01*
X0058661Y0075787D02*
X0059842Y0075787D01*
X0059252Y0075197D02*
X0059252Y0076378D01*
X0064567Y0044882D02*
X0065748Y0044882D01*
X0065157Y0044291D02*
X0065157Y0045472D01*
X0061811Y0036811D02*
X0062992Y0036811D01*
X0062402Y0036220D02*
X0062402Y0037402D01*
X0066929Y0036811D02*
X0068110Y0036811D01*
X0067520Y0036220D02*
X0067520Y0037402D01*
X0067126Y0015748D02*
X0068307Y0015748D01*
X0067716Y0015157D02*
X0067716Y0016339D01*
X0061614Y-0010630D02*
X0062795Y-0010630D01*
X0062205Y-0011220D02*
X0062205Y-0010039D01*
X0052953Y-0005118D02*
X0054134Y-0005118D01*
X0053543Y-0005709D02*
X0053543Y-0004528D01*
X0061890Y-0025079D02*
X0063071Y-0025079D01*
X0062480Y-0025669D02*
X0062480Y-0024488D01*
X0050079Y-0025079D02*
X0051260Y-0025079D01*
X0050669Y-0025669D02*
X0050669Y-0024488D01*
X0047244Y0019685D02*
X0048425Y0019685D01*
X0047835Y0019094D02*
X0047835Y0020276D01*
X0047441Y0012795D02*
X0048622Y0012795D01*
X0048031Y0012205D02*
X0048031Y0013386D01*
X0037402Y0048819D02*
X0038583Y0048819D01*
X0037992Y0048228D02*
X0037992Y0049409D01*
X0021260Y0048819D02*
X0022441Y0048819D01*
X0021850Y0048228D02*
X0021850Y0049409D01*
X0002087Y0070354D02*
X0003268Y0070354D01*
X0002677Y0069764D02*
X0002677Y0070945D01*
X0002087Y0058543D02*
X0003268Y0058543D01*
X0002677Y0057953D02*
X0002677Y0059134D01*
X0007874Y0047244D02*
X0009055Y0047244D01*
X0008465Y0046654D02*
X0008465Y0047835D01*
X0037402Y0037992D02*
X0038583Y0037992D01*
X0037992Y0037402D02*
X0037992Y0038583D01*
X0032283Y0037598D02*
X0033465Y0037598D01*
X0032874Y0037008D02*
X0032874Y0038189D01*
X0034646Y0009252D02*
X0035827Y0009252D01*
X0035236Y0008661D02*
X0035236Y0009843D01*
X0034843Y-0000591D02*
X0036024Y-0000591D01*
X0035433Y-0001181D02*
X0035433Y-0000000D01*
X0032087Y-0012205D02*
X0033268Y-0012205D01*
X0032677Y-0012795D02*
X0032677Y-0011614D01*
X0038268Y-0025079D02*
X0039449Y-0025079D01*
X0038858Y-0025669D02*
X0038858Y-0024488D01*
X0020276Y0009055D02*
X0021457Y0009055D01*
X0020866Y0008465D02*
X0020866Y0009646D01*
X0026457Y-0025079D02*
X0027638Y-0025079D01*
X0027047Y-0025669D02*
X0027047Y-0024488D01*
X0014370Y0026378D02*
X0015551Y0026378D01*
X0014961Y0025787D02*
X0014961Y0026969D01*
X0002087Y0047126D02*
X0003268Y0047126D01*
X0002677Y0046535D02*
X0002677Y0047717D01*
X0002087Y0034921D02*
X0003268Y0034921D01*
X0002677Y0034331D02*
X0002677Y0035512D01*
X0014370Y0015157D02*
X0015551Y0015157D01*
X0014961Y0014567D02*
X0014961Y0015748D01*
X0002087Y0011299D02*
X0003268Y0011299D01*
X0002677Y0010709D02*
X0002677Y0011890D01*
X0002087Y0023110D02*
X0003268Y0023110D01*
X0002677Y0022520D02*
X0002677Y0023701D01*
X0002087Y-0000512D02*
X0003268Y-0000512D01*
X0002677Y-0001102D02*
X0002677Y0000079D01*
X0182480Y0289764D02*
X0183661Y0289764D01*
X0183071Y0289173D02*
X0183071Y0290354D01*
X0167323Y0289764D02*
X0168504Y0289764D01*
X0167913Y0289173D02*
X0167913Y0290354D01*
X0057229Y0162063D02*
X0058410Y0162063D01*
X0057819Y0161472D02*
X0057819Y0162653D01*
X0025394Y0157677D02*
X0026575Y0157677D01*
X0025984Y0157087D02*
X0025984Y0158268D01*
X0029047Y0157696D02*
X0030228Y0157696D01*
X0029638Y0157106D02*
X0029638Y0158287D01*
X0076426Y0079772D02*
X0077607Y0079772D01*
X0077016Y0079182D02*
X0077016Y0080363D01*
X0076287Y0082315D02*
X0077468Y0082315D01*
X0076877Y0081725D02*
X0076877Y0082906D01*
X0079134Y0047441D02*
X0080315Y0047441D01*
X0079724Y0046850D02*
X0079724Y0048031D01*
X0066506Y0148040D02*
X0067687Y0148040D01*
X0067096Y0147450D02*
X0067096Y0148631D01*
X0055118Y0137992D02*
X0056299Y0137992D01*
X0055709Y0137402D02*
X0055709Y0138583D01*
X0066732Y0150984D02*
X0067913Y0150984D01*
X0067323Y0150394D02*
X0067323Y0151575D01*
X0030906Y0167520D02*
X0032087Y0167520D01*
X0031496Y0166929D02*
X0031496Y0168110D01*
X0060236Y0162008D02*
X0061417Y0162008D01*
X0060827Y0161417D02*
X0060827Y0162598D01*
X0070866Y0169291D02*
X0072047Y0169291D01*
X0071457Y0168701D02*
X0071457Y0169882D01*
X0068701Y0171063D02*
X0069882Y0171063D01*
X0069291Y0170472D02*
X0069291Y0171653D01*
X0050000Y0155413D02*
X0051181Y0155413D01*
X0050591Y0154823D02*
X0050591Y0156004D01*
X0022638Y0171260D02*
X0023819Y0171260D01*
X0023228Y0170669D02*
X0023228Y0171850D01*
X0141732Y0251969D02*
X0142913Y0251969D01*
X0142323Y0251378D02*
X0142323Y0252559D01*
X0146063Y0251378D02*
X0147244Y0251378D01*
X0146653Y0250787D02*
X0146653Y0251969D01*
X0199213Y0107480D02*
X0200394Y0107480D01*
X0199803Y0106890D02*
X0199803Y0108071D01*
X0189370Y0151575D02*
X0190551Y0151575D01*
X0189961Y0150984D02*
X0189961Y0152165D01*
X0199409Y0112205D02*
X0200591Y0112205D01*
X0200000Y0111614D02*
X0200000Y0112795D01*
X0199213Y0151181D02*
X0200394Y0151181D01*
X0199803Y0150591D02*
X0199803Y0151772D01*
X0137611Y0163976D02*
X0138792Y0163976D01*
X0138201Y0163386D02*
X0138201Y0164567D01*
X0133465Y0159982D02*
X0134646Y0159982D01*
X0134055Y0159392D02*
X0134055Y0160573D01*
X0167913Y0241339D02*
X0169095Y0241339D01*
X0168504Y0240748D02*
X0168504Y0241929D01*
X0167913Y0246457D02*
X0169095Y0246457D01*
X0168504Y0245866D02*
X0168504Y0247047D01*
X0168898Y0250394D02*
X0170079Y0250394D01*
X0169488Y0249803D02*
X0169488Y0250984D01*
X0112795Y0169882D02*
X0113976Y0169882D01*
X0113386Y0169291D02*
X0113386Y0170472D01*
X0107480Y0169882D02*
X0108661Y0169882D01*
X0108071Y0169291D02*
X0108071Y0170472D01*
X0169488Y0093504D02*
X0170669Y0093504D01*
X0170079Y0092913D02*
X0170079Y0094095D01*
X0159646Y0093307D02*
X0160827Y0093307D01*
X0160236Y0092716D02*
X0160236Y0093898D01*
X0149409Y0089764D02*
X0150591Y0089764D01*
X0150000Y0089173D02*
X0150000Y0090354D01*
X0139567Y0089764D02*
X0140748Y0089764D01*
X0140157Y0089173D02*
X0140157Y0090354D01*
X0129528Y0089961D02*
X0130709Y0089961D01*
X0130118Y0089370D02*
X0130118Y0090551D01*
X0119488Y0089961D02*
X0120669Y0089961D01*
X0120079Y0089370D02*
X0120079Y0090551D01*
X0177953Y0005315D02*
X0179134Y0005315D01*
X0178543Y0004724D02*
X0178543Y0005906D01*
X0181496Y0005315D02*
X0182677Y0005315D01*
X0182087Y0004724D02*
X0182087Y0005906D01*
X0177953Y0008563D02*
X0179134Y0008563D01*
X0178543Y0007972D02*
X0178543Y0009154D01*
X0181496Y0008563D02*
X0182677Y0008563D01*
X0182087Y0007972D02*
X0182087Y0009154D01*
X0181496Y0011811D02*
X0182677Y0011811D01*
X0182087Y0011220D02*
X0182087Y0012402D01*
X0177953Y0011811D02*
X0179134Y0011811D01*
X0178543Y0011220D02*
X0178543Y0012402D01*
X0145866Y0011024D02*
X0147047Y0011024D01*
X0146457Y0010433D02*
X0146457Y0011614D01*
X0145866Y0007480D02*
X0147047Y0007480D01*
X0146457Y0006890D02*
X0146457Y0008071D01*
X0142618Y0007480D02*
X0143799Y0007480D01*
X0143209Y0006890D02*
X0143209Y0008071D01*
X0142618Y0011024D02*
X0143799Y0011024D01*
X0143209Y0010433D02*
X0143209Y0011614D01*
X0139370Y0007480D02*
X0140551Y0007480D01*
X0139961Y0006890D02*
X0139961Y0008071D01*
X0139370Y0011024D02*
X0140551Y0011024D01*
X0139961Y0010433D02*
X0139961Y0011614D01*
X0111811Y0055118D02*
X0112992Y0055118D01*
X0112402Y0054528D02*
X0112402Y0055709D01*
X0112008Y0051772D02*
X0113189Y0051772D01*
X0112598Y0051181D02*
X0112598Y0052362D01*
X0108661Y0051772D02*
X0109843Y0051772D01*
X0109252Y0051181D02*
X0109252Y0052362D01*
X0105118Y0051772D02*
X0106299Y0051772D01*
X0105709Y0051181D02*
X0105709Y0052362D01*
X0108661Y0055118D02*
X0109843Y0055118D01*
X0109252Y0054528D02*
X0109252Y0055709D01*
X0093504Y0043701D02*
X0094685Y0043701D01*
X0094095Y0043110D02*
X0094095Y0044291D01*
X0077857Y0034347D02*
X0079038Y0034347D01*
X0078448Y0033757D02*
X0078448Y0034938D01*
X0141757Y0159982D02*
X0142938Y0159982D01*
X0142348Y0159392D02*
X0142348Y0160573D01*
X0137611Y0159982D02*
X0138792Y0159982D01*
X0138201Y0159392D02*
X0138201Y0160573D01*
X0141757Y0163976D02*
X0142938Y0163976D01*
X0142348Y0163386D02*
X0142348Y0164567D01*
X0133465Y0163976D02*
X0134646Y0163976D01*
X0134055Y0163386D02*
X0134055Y0164567D01*
X0075787Y0139567D02*
X0076968Y0139567D01*
X0076378Y0138976D02*
X0076378Y0140157D01*
X0082874Y0139764D02*
X0084055Y0139764D01*
X0083465Y0139173D02*
X0083465Y0140354D01*
X0079331Y0139764D02*
X0080512Y0139764D01*
X0079921Y0139173D02*
X0079921Y0140354D01*
X0122047Y0134449D02*
X0123228Y0134449D01*
X0122638Y0133858D02*
X0122638Y0135039D01*
X0130709Y0134449D02*
X0131890Y0134449D01*
X0131299Y0133858D02*
X0131299Y0135039D01*
X0126378Y0134449D02*
X0127559Y0134449D01*
X0126969Y0133858D02*
X0126969Y0135039D01*
X0130709Y0130118D02*
X0131890Y0130118D01*
X0131299Y0129528D02*
X0131299Y0130709D01*
X0126378Y0130118D02*
X0127559Y0130118D01*
X0126969Y0129528D02*
X0126969Y0130709D01*
X0094095Y0050984D02*
X0095276Y0050984D01*
X0094685Y0050394D02*
X0094685Y0051575D01*
X0094095Y0054331D02*
X0095276Y0054331D01*
X0094685Y0053740D02*
X0094685Y0054921D01*
X0094095Y0057677D02*
X0095276Y0057677D01*
X0094685Y0057087D02*
X0094685Y0058268D01*
X0097441Y0054331D02*
X0098622Y0054331D01*
X0098032Y0053740D02*
X0098032Y0054921D01*
X0097441Y0050984D02*
X0098622Y0050984D01*
X0098032Y0050394D02*
X0098032Y0051575D01*
X0033210Y0157696D02*
X0034391Y0157696D01*
X0033800Y0157106D02*
X0033800Y0158287D01*
X0037373Y0157696D02*
X0038554Y0157696D01*
X0037963Y0157106D02*
X0037963Y0158287D01*
X0041535Y0153956D02*
X0042717Y0153956D01*
X0042126Y0153366D02*
X0042126Y0154547D01*
X0069488Y0096260D02*
X0070669Y0096260D01*
X0070079Y0095669D02*
X0070079Y0096850D01*
X0079331Y0096063D02*
X0080512Y0096063D01*
X0079921Y0095472D02*
X0079921Y0096653D01*
X0097441Y0057677D02*
X0098622Y0057677D01*
X0098032Y0057087D02*
X0098032Y0058268D01*
X0131580Y0266535D02*
X0132762Y0266535D01*
X0132171Y0265945D02*
X0132171Y0267126D01*
X0135039Y0266535D02*
X0136221Y0266535D01*
X0135630Y0265945D02*
X0135630Y0267126D01*
X0135039Y0260236D02*
X0136221Y0260236D01*
X0135630Y0259646D02*
X0135630Y0260827D01*
X0135039Y0263386D02*
X0136221Y0263386D01*
X0135630Y0262795D02*
X0135630Y0263976D01*
X0135039Y0269685D02*
X0136221Y0269685D01*
X0135630Y0269094D02*
X0135630Y0270276D01*
X0131580Y0269685D02*
X0132762Y0269685D01*
X0132171Y0269094D02*
X0132171Y0270276D01*
X0120276Y0288189D02*
X0121457Y0288189D01*
X0120866Y0287598D02*
X0120866Y0288779D01*
X0120276Y0284547D02*
X0121457Y0284547D01*
X0120866Y0283957D02*
X0120866Y0285138D01*
X0120276Y0280906D02*
X0121457Y0280906D01*
X0120866Y0280315D02*
X0120866Y0281496D01*
X0124016Y0280906D02*
X0125197Y0280906D01*
X0124606Y0280315D02*
X0124606Y0281496D01*
X0124016Y0284547D02*
X0125197Y0284547D01*
X0124606Y0283957D02*
X0124606Y0285138D01*
X0084842Y0321803D02*
X0086024Y0321803D01*
X0085433Y0321213D02*
X0085433Y0322394D01*
X0081299Y0321803D02*
X0082480Y0321803D01*
X0081890Y0321213D02*
X0081890Y0322394D01*
X0047638Y0278346D02*
X0048819Y0278346D01*
X0048228Y0277756D02*
X0048228Y0278937D01*
X0050787Y0281496D02*
X0051968Y0281496D01*
X0051378Y0280906D02*
X0051378Y0282087D01*
X0053543Y0284252D02*
X0054724Y0284252D01*
X0054134Y0283661D02*
X0054134Y0284842D01*
X0056102Y0287008D02*
X0057284Y0287008D01*
X0056693Y0286417D02*
X0056693Y0287598D01*
X0071072Y0322089D02*
X0072253Y0322089D01*
X0071663Y0321498D02*
X0071663Y0322679D01*
X0071072Y0325632D02*
X0072253Y0325632D01*
X0071663Y0325042D02*
X0071663Y0326223D01*
X0046994Y0074606D02*
X0048175Y0074606D01*
X0047584Y0074016D02*
X0047584Y0075197D01*
X0047047Y0077953D02*
X0048228Y0077953D01*
X0047638Y0077362D02*
X0047638Y0078543D01*
X0054528Y0071063D02*
X0055709Y0071063D01*
X0055118Y0070472D02*
X0055118Y0071653D01*
X0056311Y0080130D02*
X0057492Y0080130D01*
X0056901Y0079539D02*
X0056901Y0080720D01*
X0187795Y0310039D02*
X0188976Y0310039D01*
X0188386Y0309449D02*
X0188386Y0310630D01*
X0164567Y0313386D02*
X0165748Y0313386D01*
X0165157Y0312795D02*
X0165157Y0313976D01*
X0033268Y0026969D02*
X0034449Y0026969D01*
X0033858Y0026378D02*
X0033858Y0027559D01*
X0177953Y0310236D02*
X0179134Y0310236D01*
X0178543Y0309646D02*
X0178543Y0310827D01*
X0175000Y0310236D02*
X0176181Y0310236D01*
X0175591Y0309646D02*
X0175591Y0310827D01*
X0130315Y0047441D02*
X0131496Y0047441D01*
X0130905Y0046850D02*
X0130905Y0048031D01*
X0122047Y0130118D02*
X0123228Y0130118D01*
X0122638Y0129528D02*
X0122638Y0130709D01*
X0124016Y0288189D02*
X0125197Y0288189D01*
X0124606Y0287598D02*
X0124606Y0288779D01*
X0075787Y0143110D02*
X0076968Y0143110D01*
X0076378Y0142520D02*
X0076378Y0143701D01*
X0082874Y0143110D02*
X0084055Y0143110D01*
X0083465Y0142520D02*
X0083465Y0143701D01*
X0079331Y0143110D02*
X0080512Y0143110D01*
X0079921Y0142520D02*
X0079921Y0143701D01*
X0026969Y0079134D02*
X0028150Y0079134D01*
X0027559Y0078543D02*
X0027559Y0079724D01*
X0105315Y0055118D02*
X0106496Y0055118D01*
X0105905Y0054528D02*
X0105905Y0055709D01*
X0033071Y0014961D02*
X0034252Y0014961D01*
X0033661Y0014370D02*
X0033661Y0015551D01*
X0063791Y0068307D02*
X0064972Y0068307D01*
X0064382Y0067716D02*
X0064382Y0068898D01*
X0063791Y0065354D02*
X0064972Y0065354D01*
X0064382Y0064764D02*
X0064382Y0065945D01*
X0089173Y0203937D02*
X0090354Y0203937D01*
X0089764Y0203346D02*
X0089764Y0204528D01*
X0132480Y0194095D02*
X0133661Y0194095D01*
X0133071Y0193504D02*
X0133071Y0194685D01*
X0090354Y0305512D02*
X0091535Y0305512D01*
X0090945Y0304921D02*
X0090945Y0306102D01*
X0090354Y0302362D02*
X0091535Y0302362D01*
X0090945Y0301772D02*
X0090945Y0302953D01*
X0090354Y0287795D02*
X0091535Y0287795D01*
X0090945Y0287205D02*
X0090945Y0288386D01*
X0090354Y0291339D02*
X0091535Y0291339D01*
X0090945Y0290748D02*
X0090945Y0291929D01*
X0094291Y0284252D02*
X0095472Y0284252D01*
X0094882Y0283661D02*
X0094882Y0284842D01*
X0094291Y0287795D02*
X0095472Y0287795D01*
X0094882Y0287205D02*
X0094882Y0288386D01*
X0094291Y0291339D02*
X0095472Y0291339D01*
X0094882Y0290748D02*
X0094882Y0291929D01*
X0094291Y0294882D02*
X0095472Y0294882D01*
X0094882Y0294291D02*
X0094882Y0295472D01*
X0094291Y0302362D02*
X0095472Y0302362D01*
X0094882Y0301772D02*
X0094882Y0302953D01*
X0094291Y0305512D02*
X0095472Y0305512D01*
X0094882Y0304921D02*
X0094882Y0306102D01*
X0094291Y0308661D02*
X0095472Y0308661D01*
X0094882Y0308071D02*
X0094882Y0309252D01*
X0094291Y0311811D02*
X0095472Y0311811D01*
X0094882Y0311221D02*
X0094882Y0312402D01*
X0066934Y0322089D02*
X0068115Y0322089D01*
X0067524Y0321498D02*
X0067524Y0322679D01*
X0062795Y0322089D02*
X0063976Y0322089D01*
X0063386Y0321498D02*
X0063386Y0322679D01*
X0066934Y0325632D02*
X0068115Y0325632D01*
X0067524Y0325042D02*
X0067524Y0326223D01*
X0062795Y0325632D02*
X0063976Y0325632D01*
X0063386Y0325042D02*
X0063386Y0326223D01*
X0058661Y0289764D02*
X0059842Y0289764D01*
X0059252Y0289173D02*
X0059252Y0290354D01*
X0084842Y0314567D02*
X0086024Y0314567D01*
X0085433Y0313976D02*
X0085433Y0315158D01*
X0081299Y0314567D02*
X0082480Y0314567D01*
X0081890Y0313976D02*
X0081890Y0315158D01*
X0084842Y0318185D02*
X0086024Y0318185D01*
X0085433Y0317595D02*
X0085433Y0318776D01*
X0081299Y0318185D02*
X0082480Y0318185D01*
X0081890Y0317595D02*
X0081890Y0318776D01*
X0067126Y0318110D02*
X0068307Y0318110D01*
X0067716Y0317520D02*
X0067716Y0318701D01*
X0069095Y0285039D02*
X0070276Y0285039D01*
X0069685Y0284449D02*
X0069685Y0285630D01*
X0041535Y0157696D02*
X0042717Y0157696D01*
X0042126Y0157106D02*
X0042126Y0158287D01*
X0131580Y0263386D02*
X0132762Y0263386D01*
X0132171Y0262795D02*
X0132171Y0263976D01*
X0131580Y0260236D02*
X0132762Y0260236D01*
X0132171Y0259646D02*
X0132171Y0260827D01*
X0052756Y0004134D02*
X0053937Y0004134D01*
X0053347Y0003543D02*
X0053347Y0004724D01*
X0054921Y0009449D02*
X0056102Y0009449D01*
X0055512Y0008858D02*
X0055512Y0010039D01*
X0051968Y0038386D02*
X0053149Y0038386D01*
X0052559Y0037795D02*
X0052559Y0038976D01*
X0047244Y0047835D02*
X0048425Y0047835D01*
X0047835Y0047244D02*
X0047835Y0048425D01*
X0063779Y0020669D02*
X0064961Y0020669D01*
X0064370Y0020079D02*
X0064370Y0021260D01*
X0063779Y0017717D02*
X0064961Y0017717D01*
X0064370Y0017126D02*
X0064370Y0018307D01*
X0063779Y0023622D02*
X0064961Y0023622D01*
X0064370Y0023031D02*
X0064370Y0024213D01*
X0047244Y0042717D02*
X0048425Y0042717D01*
X0047835Y0042126D02*
X0047835Y0043307D01*
X0047244Y0034055D02*
X0048425Y0034055D01*
X0047835Y0033464D02*
X0047835Y0034646D01*
X0049409Y0045275D02*
X0050590Y0045275D01*
X0050000Y0044685D02*
X0050000Y0045866D01*
X0049409Y0036220D02*
X0050591Y0036220D01*
X0050000Y0035630D02*
X0050000Y0036811D01*
X0076771Y0011417D02*
X0077953Y0011417D01*
X0077362Y0010827D02*
X0077362Y0012008D01*
X0076771Y0014370D02*
X0077953Y0014370D01*
X0077362Y0013780D02*
X0077362Y0014961D01*
X0061417Y0028937D02*
X0062598Y0028937D01*
X0062008Y0028346D02*
X0062008Y0029528D01*
X0064567Y0029134D02*
X0065748Y0029134D01*
X0065157Y0028543D02*
X0065157Y0029724D01*
X0047835Y0025787D02*
X0049016Y0025787D01*
X0048425Y0025197D02*
X0048425Y0026378D01*
X0036220Y0071063D02*
X0037402Y0071063D01*
X0036811Y0070472D02*
X0036811Y0071653D01*
X0034252Y0074606D02*
X0035433Y0074606D01*
X0034843Y0074016D02*
X0034843Y0075197D01*
X0005512Y0052756D02*
X0006693Y0052756D01*
X0006102Y0052165D02*
X0006102Y0053346D01*
X0078346Y0029921D02*
X0079527Y0029921D01*
X0078937Y0029331D02*
X0078937Y0030512D01*
X0035039Y0033465D02*
X0036220Y0033465D01*
X0035630Y0032874D02*
X0035630Y0034055D01*
X0126181Y-0006693D02*
X0127362Y-0006693D01*
X0126771Y-0007283D02*
X0126771Y-0006102D01*
X0084842Y0041339D02*
X0086024Y0041339D01*
X0085433Y0040748D02*
X0085433Y0041929D01*
X0095276Y0000394D02*
X0096457Y0000394D01*
X0095866Y-0000197D02*
X0095866Y0000984D01*
X0093504Y0016732D02*
X0094685Y0016732D01*
X0094094Y0016142D02*
X0094094Y0017323D01*
M02*
