G04*
G04 #@! TF.GenerationSoftware,Altium Limited,Altium Designer,25.8.1 (18)*
G04*
G04 Layer_Physical_Order=1*
G04 Layer_Color=255*
%FSAX25Y25*%
%MOIN*%
G70*
G04*
G04 #@! TF.SameCoordinates,BE805E25-8328-4095-8AD4-E1B6FE3B792C*
G04*
G04*
G04 #@! TF.FilePolarity,Positive*
G04*
G01*
G75*
%ADD11C,0.00787*%
%ADD16C,0.01000*%
%ADD24R,0.21700X0.03900*%
%ADD31R,0.13780X0.11811*%
%ADD40C,0.03937*%
%ADD67C,0.05906*%
%ADD68C,0.06299*%
%ADD75R,0.05906X0.05906*%
%ADD78R,0.02165X0.02165*%
%ADD79R,0.02362X0.01968*%
%ADD80R,0.02362X0.02756*%
%ADD81C,0.23622*%
%ADD82R,0.06102X0.01181*%
%ADD83R,0.02953X0.03150*%
%ADD84R,0.04134X0.08661*%
%ADD85R,0.13780X0.04724*%
%ADD86R,0.06102X0.02362*%
%ADD87R,0.05512X0.06693*%
%ADD88R,0.04528X0.01181*%
%ADD89R,0.10827X0.04724*%
%ADD90R,0.11811X0.07874*%
%ADD91R,0.06693X0.04724*%
%ADD92R,0.11811X0.03937*%
%ADD93R,0.11811X0.07874*%
%ADD94R,0.03937X0.04134*%
%ADD95R,0.03150X0.02953*%
%ADD96R,0.12200X0.06700*%
%ADD97R,0.01968X0.02362*%
%ADD98O,0.05512X0.02362*%
%ADD99O,0.07087X0.03937*%
%ADD100O,0.08268X0.03937*%
%ADD101C,0.01181*%
%ADD102C,0.03937*%
%ADD103C,0.01968*%
%ADD104C,0.03150*%
%ADD105C,0.01019*%
%ADD106C,0.01575*%
%ADD107C,0.05118*%
%ADD108C,0.08268*%
%ADD109R,0.06299X0.06299*%
%ADD110O,0.03937X0.08268*%
%ADD111O,0.03937X0.07087*%
%ADD112R,0.05118X0.05118*%
%ADD113R,0.08268X0.08268*%
%ADD114C,0.02362*%
G36*
X0251181Y0343166D02*
X0251128Y0343077D01*
X0250117Y0342870D01*
X0249826Y0343067D01*
X0249826Y0343307D01*
X0249735Y0343768D01*
X0249474Y0344159D01*
X0249083Y0344420D01*
X0248622Y0344511D01*
X0248161Y0344420D01*
X0247771Y0344159D01*
X0247510Y0343768D01*
X0247418Y0343307D01*
X0247418Y0342535D01*
X0246441Y0342535D01*
X0246441Y0341321D01*
X0246161Y0340650D01*
X0245654Y0340650D01*
X0242421Y0340650D01*
X0242421Y0340256D01*
X0236340Y0340256D01*
X0235728Y0340650D01*
X0235470Y0341437D01*
X0235716Y0341805D01*
X0235869Y0342573D01*
X0235716Y0343341D01*
X0235281Y0343992D01*
X0234630Y0344427D01*
X0233862Y0344580D01*
X0233094Y0344427D01*
X0232443Y0343992D01*
X0232008Y0343341D01*
X0231855Y0342573D01*
X0232008Y0341805D01*
X0232253Y0341437D01*
X0231988Y0340650D01*
X0231988Y0340650D01*
X0231988Y0336910D01*
X0231988Y0333957D01*
X0235728Y0333957D01*
X0235728Y0334350D01*
X0242421Y0334350D01*
X0242421Y0333957D01*
X0244458Y0333957D01*
X0245015Y0333401D01*
X0245015Y0333400D01*
X0245405Y0333139D01*
X0245866Y0333048D01*
X0245866Y0333048D01*
X0246654Y0333048D01*
X0246654Y0331519D01*
X0235236Y0331519D01*
X0234775Y0331428D01*
X0234385Y0331167D01*
X0234385Y0331167D01*
X0227264Y0324046D01*
X0219807Y0331503D01*
X0219807Y0334055D01*
X0220472Y0334055D01*
X0220472Y0334449D01*
X0226953Y0334449D01*
X0226953Y0333842D01*
X0228543Y0333842D01*
X0228543Y0335925D01*
X0229035Y0335925D01*
X0229035Y0336417D01*
X0231118Y0336417D01*
X0231118Y0336795D01*
X0231118Y0338386D01*
X0229035Y0338386D01*
X0229035Y0339370D01*
X0231118Y0339370D01*
X0231118Y0340961D01*
X0230391Y0340961D01*
X0230391Y0343061D01*
X0230284Y0343599D01*
X0229980Y0344055D01*
X0229930Y0344104D01*
X0229475Y0344408D01*
X0228937Y0344515D01*
X0228399Y0344408D01*
X0227944Y0344104D01*
X0227639Y0343648D01*
X0227532Y0343110D01*
X0227581Y0342863D01*
X0227581Y0340961D01*
X0226953Y0340961D01*
X0226953Y0340354D01*
X0220472Y0340354D01*
X0220472Y0340748D01*
X0216732Y0340748D01*
X0216732Y0336888D01*
X0216339Y0336810D01*
X0216211Y0336725D01*
X0215551Y0336417D01*
X0211614Y0336417D01*
X0211614Y0332087D01*
X0215551Y0332087D01*
X0215551Y0333190D01*
X0215945Y0333269D01*
X0216335Y0333530D01*
X0216611Y0333805D01*
X0217398Y0333479D01*
X0217398Y0331004D01*
X0217398Y0331004D01*
X0217490Y0330543D01*
X0217751Y0330152D01*
X0225371Y0322533D01*
X0225371Y0292889D01*
X0223449Y0290968D01*
X0184634Y0290968D01*
X0184490Y0291183D01*
X0183839Y0291618D01*
X0183071Y0291771D01*
X0182303Y0291618D01*
X0181652Y0291183D01*
X0181217Y0290532D01*
X0181064Y0289764D01*
X0181217Y0288996D01*
X0181652Y0288345D01*
X0182303Y0287910D01*
X0183071Y0287757D01*
X0183839Y0287910D01*
X0184490Y0288345D01*
X0184634Y0288560D01*
X0221961Y0288560D01*
X0222262Y0287832D01*
X0219689Y0285259D01*
X0184634Y0285259D01*
X0184490Y0285474D01*
X0183839Y0285909D01*
X0183071Y0286062D01*
X0182303Y0285909D01*
X0181652Y0285474D01*
X0181217Y0284823D01*
X0181064Y0284055D01*
X0181217Y0283287D01*
X0181652Y0282636D01*
X0182303Y0282201D01*
X0183071Y0282048D01*
X0183839Y0282201D01*
X0184490Y0282636D01*
X0184634Y0282851D01*
X0220188Y0282851D01*
X0220188Y0282851D01*
X0220649Y0282943D01*
X0221040Y0283204D01*
X0228804Y0290968D01*
X0229065Y0291359D01*
X0229157Y0291820D01*
X0229157Y0322533D01*
X0235735Y0329111D01*
X0246347Y0329111D01*
X0246441Y0328362D01*
X0246441Y0327844D01*
X0246441Y0326870D01*
X0248622Y0326870D01*
X0248622Y0325886D01*
X0246441Y0325886D01*
X0246441Y0324394D01*
X0247418Y0324394D01*
X0247418Y0322835D01*
X0247510Y0322374D01*
X0247771Y0321983D01*
X0248161Y0321722D01*
X0248622Y0321630D01*
X0249083Y0321722D01*
X0249474Y0321983D01*
X0249735Y0322374D01*
X0249826Y0322835D01*
X0249826Y0323916D01*
X0250576Y0324203D01*
X0251181Y0323753D01*
X0251181Y0150935D01*
X0228937Y0150935D01*
X0228937Y0144529D01*
X0228150Y0144203D01*
X0225863Y0146490D01*
X0221926Y0146490D01*
X0221420Y0145983D01*
X0220692Y0146284D01*
X0220692Y0148425D01*
X0220692Y0148425D01*
X0220601Y0148886D01*
X0220340Y0149277D01*
X0214237Y0155379D01*
X0213847Y0155640D01*
X0213386Y0155732D01*
X0213386Y0155732D01*
X0197441Y0155732D01*
X0196980Y0155640D01*
X0196589Y0155379D01*
X0196589Y0155379D01*
X0193989Y0152779D01*
X0191524Y0152779D01*
X0191380Y0152994D01*
X0190729Y0153429D01*
X0189961Y0153582D01*
X0189193Y0153429D01*
X0188541Y0152994D01*
X0188106Y0152343D01*
X0187954Y0151575D01*
X0188106Y0150807D01*
X0188541Y0150156D01*
X0189193Y0149721D01*
X0189961Y0149568D01*
X0190729Y0149721D01*
X0191380Y0150156D01*
X0191524Y0150371D01*
X0194488Y0150371D01*
X0194488Y0150371D01*
X0194949Y0150462D01*
X0195340Y0150723D01*
X0197421Y0152805D01*
X0197580Y0152814D01*
X0197845Y0152484D01*
X0197949Y0151949D01*
X0197796Y0151181D01*
X0197949Y0150413D01*
X0198384Y0149762D01*
X0199035Y0149327D01*
X0199803Y0149174D01*
X0200571Y0149327D01*
X0201222Y0149762D01*
X0201366Y0149977D01*
X0210525Y0149977D01*
X0215922Y0144580D01*
X0215922Y0119396D01*
X0209934Y0113409D01*
X0203643Y0113409D01*
X0203404Y0114196D01*
X0203568Y0114306D01*
X0207414Y0118152D01*
X0207479Y0118103D01*
X0208676Y0117607D01*
X0209961Y0117438D01*
X0211245Y0117607D01*
X0212442Y0118103D01*
X0213471Y0118892D01*
X0214259Y0119920D01*
X0214755Y0121117D01*
X0214924Y0122402D01*
X0214755Y0123686D01*
X0214259Y0124883D01*
X0213471Y0125911D01*
X0212452Y0126693D01*
X0212448Y0126724D01*
X0212617Y0127480D01*
X0214882Y0127480D01*
X0214882Y0137323D01*
X0205039Y0137323D01*
X0205039Y0135058D01*
X0204283Y0134889D01*
X0204252Y0134893D01*
X0203470Y0135912D01*
X0202443Y0136700D01*
X0201245Y0137196D01*
X0199961Y0137365D01*
X0198676Y0137196D01*
X0197479Y0136700D01*
X0196451Y0135912D01*
X0195662Y0134883D01*
X0195387Y0134219D01*
X0194535Y0134219D01*
X0194259Y0134883D01*
X0193471Y0135912D01*
X0192443Y0136700D01*
X0191245Y0137196D01*
X0189961Y0137365D01*
X0188676Y0137196D01*
X0187479Y0136700D01*
X0186451Y0135912D01*
X0185662Y0134883D01*
X0185387Y0134219D01*
X0184535Y0134219D01*
X0184259Y0134883D01*
X0183470Y0135912D01*
X0182442Y0136700D01*
X0181245Y0137196D01*
X0180535Y0137290D01*
X0180535Y0144488D01*
X0180535Y0144488D01*
X0180443Y0144949D01*
X0180182Y0145340D01*
X0180182Y0145340D01*
X0153017Y0172505D01*
X0152626Y0172766D01*
X0152165Y0172858D01*
X0152165Y0172858D01*
X0131496Y0172858D01*
X0131035Y0172766D01*
X0130645Y0172505D01*
X0130645Y0172505D01*
X0126076Y0167937D01*
X0115328Y0167937D01*
X0115326Y0167939D01*
X0114980Y0168724D01*
X0115240Y0169114D01*
X0115393Y0169882D01*
X0115240Y0170650D01*
X0114805Y0171301D01*
X0114154Y0171736D01*
X0113386Y0171889D01*
X0112618Y0171736D01*
X0111967Y0171301D01*
X0111531Y0170650D01*
X0111379Y0169882D01*
X0111531Y0169114D01*
X0111792Y0168724D01*
X0111446Y0167939D01*
X0111443Y0167937D01*
X0110013Y0167937D01*
X0110011Y0167939D01*
X0109665Y0168724D01*
X0109925Y0169114D01*
X0110078Y0169882D01*
X0109925Y0170650D01*
X0109490Y0171301D01*
X0108839Y0171736D01*
X0108071Y0171889D01*
X0107303Y0171736D01*
X0106652Y0171301D01*
X0106217Y0170650D01*
X0106064Y0169882D01*
X0106217Y0169114D01*
X0106477Y0168724D01*
X0106131Y0167939D01*
X0106128Y0167937D01*
X0102861Y0167937D01*
X0084669Y0186129D01*
X0084669Y0253438D01*
X0085145Y0253914D01*
X0092126Y0253914D01*
X0092126Y0248835D01*
X0091913Y0248835D01*
X0091913Y0247736D01*
X0095965Y0247736D01*
X0100016Y0247736D01*
X0100016Y0248835D01*
X0099803Y0248835D01*
X0099803Y0253420D01*
X0100374Y0253914D01*
X0100835Y0254006D01*
X0101225Y0254267D01*
X0110103Y0263145D01*
X0110364Y0263535D01*
X0110456Y0263996D01*
X0110456Y0263996D01*
X0110456Y0267631D01*
X0112241Y0269416D01*
X0112909Y0268970D01*
X0112897Y0268941D01*
X0112761Y0267913D01*
X0112897Y0266886D01*
X0113293Y0265928D01*
X0113924Y0265106D01*
X0114747Y0264474D01*
X0115705Y0264078D01*
X0116732Y0263942D01*
X0117701Y0264070D01*
X0117927Y0264046D01*
X0118489Y0263671D01*
X0118489Y0259449D01*
X0118550Y0259142D01*
X0118724Y0258881D01*
X0118984Y0258707D01*
X0119291Y0258646D01*
X0121638Y0258646D01*
X0121850Y0257885D01*
X0121850Y0254724D01*
X0121850Y0250787D01*
X0121850Y0246850D01*
X0121850Y0242913D01*
X0121850Y0238976D01*
X0121850Y0235039D01*
X0121850Y0231102D01*
X0121850Y0227165D01*
X0121850Y0223228D01*
X0121850Y0219291D01*
X0121850Y0215354D01*
X0121850Y0210449D01*
X0121638Y0210449D01*
X0121638Y0209350D01*
X0125689Y0209350D01*
X0129740Y0209350D01*
X0129740Y0210449D01*
X0129528Y0210449D01*
X0129528Y0215354D01*
X0129528Y0219291D01*
X0129528Y0223228D01*
X0129528Y0227165D01*
X0129528Y0231102D01*
X0129528Y0235039D01*
X0129528Y0238976D01*
X0129528Y0244034D01*
X0130315Y0244360D01*
X0134188Y0240487D01*
X0134188Y0240487D01*
X0134579Y0240226D01*
X0135039Y0240134D01*
X0135039Y0240134D01*
X0166941Y0240134D01*
X0167085Y0239919D01*
X0167736Y0239484D01*
X0168504Y0239332D01*
X0169272Y0239484D01*
X0169923Y0239919D01*
X0170358Y0240570D01*
X0170511Y0241339D01*
X0170358Y0242107D01*
X0170846Y0242793D01*
X0170930Y0242849D01*
X0172308Y0244227D01*
X0172569Y0244618D01*
X0172661Y0245079D01*
X0172661Y0245079D01*
X0172661Y0248425D01*
X0172569Y0248886D01*
X0172308Y0249277D01*
X0172308Y0249277D01*
X0171445Y0250140D01*
X0171495Y0250394D01*
X0171343Y0251162D01*
X0170907Y0251813D01*
X0170256Y0252248D01*
X0169488Y0252401D01*
X0168720Y0252248D01*
X0168069Y0251813D01*
X0167634Y0251162D01*
X0167481Y0250394D01*
X0167634Y0249626D01*
X0167948Y0249156D01*
X0167759Y0248357D01*
X0167736Y0248311D01*
X0167085Y0247876D01*
X0166650Y0247225D01*
X0166541Y0246677D01*
X0136109Y0246677D01*
X0132650Y0250135D01*
X0132952Y0250863D01*
X0140694Y0250863D01*
X0140904Y0250549D01*
X0141555Y0250114D01*
X0142323Y0249961D01*
X0143091Y0250114D01*
X0143742Y0250549D01*
X0143947Y0250857D01*
X0144783Y0250690D01*
X0144799Y0250610D01*
X0145234Y0249959D01*
X0145886Y0249524D01*
X0146653Y0249371D01*
X0147422Y0249524D01*
X0148073Y0249959D01*
X0148508Y0250610D01*
X0148661Y0251378D01*
X0148508Y0252146D01*
X0148073Y0252797D01*
X0147422Y0253232D01*
X0146653Y0253385D01*
X0146400Y0253335D01*
X0144749Y0254985D01*
X0144359Y0255246D01*
X0143898Y0255338D01*
X0143898Y0255338D01*
X0129528Y0255338D01*
X0129528Y0257885D01*
X0129560Y0258001D01*
X0130315Y0258313D01*
X0130535Y0258094D01*
X0130795Y0257920D01*
X0131102Y0257859D01*
X0138189Y0257859D01*
X0138189Y0257859D01*
X0138496Y0257920D01*
X0138757Y0258094D01*
X0138757Y0258094D01*
X0141119Y0260456D01*
X0141293Y0260716D01*
X0141354Y0261024D01*
X0141354Y0271063D01*
X0141354Y0271063D01*
X0141293Y0271370D01*
X0141119Y0271631D01*
X0141119Y0271631D01*
X0139544Y0273205D01*
X0139284Y0273379D01*
X0138976Y0273441D01*
X0127076Y0273441D01*
X0126837Y0274228D01*
X0127013Y0274345D01*
X0135518Y0282851D01*
X0166154Y0282851D01*
X0166297Y0282636D01*
X0166948Y0282201D01*
X0167717Y0282048D01*
X0168485Y0282201D01*
X0169136Y0282636D01*
X0169571Y0283287D01*
X0169724Y0284055D01*
X0169571Y0284823D01*
X0169136Y0285474D01*
X0168485Y0285909D01*
X0167717Y0286062D01*
X0166948Y0285909D01*
X0166297Y0285474D01*
X0166154Y0285259D01*
X0137007Y0285259D01*
X0136706Y0285987D01*
X0139278Y0288560D01*
X0166350Y0288560D01*
X0166494Y0288345D01*
X0167145Y0287910D01*
X0167913Y0287757D01*
X0168682Y0287910D01*
X0169333Y0288345D01*
X0169768Y0288996D01*
X0169921Y0289764D01*
X0169768Y0290532D01*
X0169333Y0291183D01*
X0168682Y0291618D01*
X0167913Y0291771D01*
X0167145Y0291618D01*
X0166494Y0291183D01*
X0166350Y0290968D01*
X0138779Y0290968D01*
X0138319Y0290876D01*
X0137928Y0290615D01*
X0137928Y0290615D01*
X0127141Y0279828D01*
X0126959Y0279911D01*
X0126491Y0280292D01*
X0126613Y0280906D01*
X0126461Y0281674D01*
X0126025Y0282325D01*
X0126014Y0282333D01*
X0126014Y0283120D01*
X0126025Y0283128D01*
X0126461Y0283779D01*
X0126613Y0284547D01*
X0126461Y0285315D01*
X0126025Y0285966D01*
X0126014Y0285974D01*
X0126014Y0286762D01*
X0126025Y0286770D01*
X0126461Y0287421D01*
X0126613Y0288189D01*
X0126461Y0288957D01*
X0126025Y0289608D01*
X0125374Y0290043D01*
X0124606Y0290196D01*
X0123838Y0290043D01*
X0123187Y0289608D01*
X0122285Y0289608D01*
X0121634Y0290043D01*
X0120866Y0290196D01*
X0120098Y0290043D01*
X0119447Y0289608D01*
X0119012Y0288957D01*
X0118859Y0288189D01*
X0119012Y0287421D01*
X0119447Y0286770D01*
X0119459Y0286762D01*
X0119459Y0285974D01*
X0119447Y0285966D01*
X0119012Y0285315D01*
X0118859Y0284547D01*
X0119012Y0283779D01*
X0119447Y0283128D01*
X0119459Y0283120D01*
X0119459Y0282333D01*
X0119447Y0282325D01*
X0119012Y0281674D01*
X0118859Y0280906D01*
X0119012Y0280137D01*
X0119447Y0279486D01*
X0120098Y0279051D01*
X0120866Y0278898D01*
X0121634Y0279051D01*
X0122285Y0279486D01*
X0123187Y0279486D01*
X0123838Y0279051D01*
X0124606Y0278898D01*
X0125220Y0279020D01*
X0125601Y0278553D01*
X0125684Y0278371D01*
X0125092Y0277779D01*
X0115960Y0277779D01*
X0115960Y0296457D01*
X0115899Y0296764D01*
X0115725Y0297024D01*
X0115465Y0297198D01*
X0115157Y0297259D01*
X0087402Y0297259D01*
X0087094Y0297198D01*
X0086834Y0297024D01*
X0086660Y0296764D01*
X0086599Y0296457D01*
X0086599Y0276772D01*
X0086660Y0276464D01*
X0086834Y0276204D01*
X0087094Y0276030D01*
X0087402Y0275969D01*
X0112410Y0275969D01*
X0112712Y0275241D01*
X0107023Y0269552D01*
X0106761Y0269162D01*
X0106670Y0268701D01*
X0106670Y0268701D01*
X0106670Y0265066D01*
X0100638Y0259034D01*
X0100016Y0259525D01*
X0100016Y0260532D01*
X0095965Y0260532D01*
X0091913Y0260532D01*
X0091913Y0259433D01*
X0092126Y0259433D01*
X0092126Y0258291D01*
X0082745Y0258291D01*
X0082745Y0258291D01*
X0082284Y0258199D01*
X0081893Y0257938D01*
X0081893Y0257938D01*
X0079660Y0255705D01*
X0079399Y0255315D01*
X0079308Y0254854D01*
X0079308Y0254854D01*
X0079308Y0185236D01*
X0079308Y0185236D01*
X0079399Y0184775D01*
X0079660Y0184385D01*
X0099936Y0164109D01*
X0099936Y0164109D01*
X0100327Y0163848D01*
X0100787Y0163756D01*
X0127953Y0163756D01*
X0127953Y0163756D01*
X0128414Y0163848D01*
X0128804Y0164109D01*
X0132192Y0167497D01*
X0148714Y0167497D01*
X0168756Y0147454D01*
X0168756Y0137207D01*
X0168676Y0137196D01*
X0167479Y0136700D01*
X0166451Y0135912D01*
X0165662Y0134883D01*
X0165166Y0133686D01*
X0164997Y0132402D01*
X0165166Y0131117D01*
X0165662Y0129920D01*
X0166451Y0128892D01*
X0167479Y0128103D01*
X0168143Y0127828D01*
X0168143Y0126975D01*
X0167479Y0126700D01*
X0166451Y0125911D01*
X0165662Y0124883D01*
X0165166Y0123686D01*
X0164997Y0122402D01*
X0165166Y0121117D01*
X0165662Y0119920D01*
X0166451Y0118892D01*
X0167479Y0118103D01*
X0168676Y0117607D01*
X0169961Y0117438D01*
X0171245Y0117607D01*
X0172442Y0118103D01*
X0173470Y0118892D01*
X0174259Y0119920D01*
X0174534Y0120584D01*
X0175387Y0120584D01*
X0175662Y0119920D01*
X0176239Y0119167D01*
X0175882Y0118380D01*
X0174735Y0118380D01*
X0174274Y0118288D01*
X0173883Y0118027D01*
X0173883Y0118027D01*
X0171619Y0115763D01*
X0170937Y0116045D01*
X0169961Y0116174D01*
X0168984Y0116045D01*
X0168074Y0115669D01*
X0167293Y0115069D01*
X0166694Y0114288D01*
X0166317Y0113378D01*
X0166188Y0112402D01*
X0166317Y0111425D01*
X0166694Y0110515D01*
X0167293Y0109734D01*
X0168074Y0109134D01*
X0168984Y0108758D01*
X0169961Y0108629D01*
X0170937Y0108758D01*
X0171847Y0109134D01*
X0172628Y0109734D01*
X0173228Y0110515D01*
X0173605Y0111425D01*
X0173733Y0112402D01*
X0173605Y0113378D01*
X0173322Y0114060D01*
X0175233Y0115971D01*
X0177175Y0115971D01*
X0177443Y0115184D01*
X0177293Y0115069D01*
X0176694Y0114288D01*
X0176317Y0113378D01*
X0176188Y0112402D01*
X0176317Y0111425D01*
X0176599Y0110743D01*
X0173360Y0107503D01*
X0113976Y0107503D01*
X0113976Y0107503D01*
X0113515Y0107412D01*
X0113125Y0107151D01*
X0113125Y0107151D01*
X0077105Y0071131D01*
X0076378Y0071433D01*
X0076378Y0073622D01*
X0076378Y0077544D01*
X0077559Y0077544D01*
X0077559Y0077544D01*
X0077866Y0077605D01*
X0078127Y0077779D01*
X0078127Y0077779D01*
X0078520Y0078172D01*
X0078694Y0078433D01*
X0078756Y0078740D01*
X0078756Y0078832D01*
X0078870Y0079004D01*
X0079023Y0079772D01*
X0078870Y0080540D01*
X0078756Y0080712D01*
X0078756Y0081668D01*
X0078884Y0082315D01*
X0078731Y0083083D01*
X0078707Y0083120D01*
X0078694Y0083181D01*
X0078520Y0083442D01*
X0078520Y0083442D01*
X0078434Y0083528D01*
X0078296Y0083734D01*
X0078090Y0083872D01*
X0077930Y0084032D01*
X0077669Y0084206D01*
X0077362Y0084267D01*
X0077153Y0084267D01*
X0076877Y0084322D01*
X0076602Y0084267D01*
X0075394Y0084267D01*
X0075316Y0084252D01*
X0070842Y0084252D01*
X0070541Y0084979D01*
X0079668Y0094106D01*
X0079921Y0094056D01*
X0080689Y0094209D01*
X0081340Y0094644D01*
X0081775Y0095295D01*
X0081928Y0096063D01*
X0081775Y0096831D01*
X0081340Y0097482D01*
X0080689Y0097917D01*
X0079921Y0098070D01*
X0079153Y0097917D01*
X0078502Y0097482D01*
X0078067Y0096831D01*
X0077914Y0096063D01*
X0077965Y0095809D01*
X0068254Y0086099D01*
X0067508Y0086467D01*
X0067554Y0086811D01*
X0067418Y0087839D01*
X0067022Y0088797D01*
X0066391Y0089619D01*
X0066208Y0089759D01*
X0066206Y0090662D01*
X0066245Y0090723D01*
X0069825Y0094303D01*
X0070079Y0094253D01*
X0070847Y0094406D01*
X0071498Y0094841D01*
X0071933Y0095492D01*
X0072086Y0096260D01*
X0071933Y0097028D01*
X0071498Y0097679D01*
X0070847Y0098114D01*
X0070079Y0098267D01*
X0069311Y0098114D01*
X0068660Y0097679D01*
X0068225Y0097028D01*
X0068072Y0096260D01*
X0068122Y0096006D01*
X0064855Y0092740D01*
X0061221Y0092740D01*
X0061221Y0092740D01*
X0060760Y0092648D01*
X0060369Y0092387D01*
X0060369Y0092387D01*
X0059609Y0091627D01*
X0058881Y0091928D01*
X0058881Y0095761D01*
X0062310Y0099190D01*
X0097953Y0099190D01*
X0097953Y0099189D01*
X0098414Y0099281D01*
X0098804Y0099542D01*
X0108302Y0109040D01*
X0108984Y0108758D01*
X0109961Y0108629D01*
X0110937Y0108758D01*
X0111847Y0109134D01*
X0112628Y0109734D01*
X0113228Y0110515D01*
X0113604Y0111425D01*
X0113733Y0112402D01*
X0113604Y0113378D01*
X0113228Y0114288D01*
X0112628Y0115069D01*
X0111847Y0115669D01*
X0110937Y0116045D01*
X0109961Y0116174D01*
X0108984Y0116045D01*
X0108074Y0115669D01*
X0107293Y0115069D01*
X0106694Y0114288D01*
X0106317Y0113378D01*
X0106188Y0112402D01*
X0106317Y0111425D01*
X0106599Y0110743D01*
X0097454Y0101598D01*
X0081930Y0101598D01*
X0081704Y0102026D01*
X0081647Y0102385D01*
X0088302Y0109040D01*
X0088984Y0108758D01*
X0089961Y0108629D01*
X0090937Y0108758D01*
X0091847Y0109134D01*
X0092628Y0109734D01*
X0093228Y0110515D01*
X0093604Y0111425D01*
X0093733Y0112402D01*
X0093604Y0113378D01*
X0093228Y0114288D01*
X0093182Y0114347D01*
X0093571Y0115134D01*
X0095525Y0115134D01*
X0096599Y0114060D01*
X0096317Y0113378D01*
X0096188Y0112402D01*
X0096317Y0111425D01*
X0096694Y0110515D01*
X0097293Y0109734D01*
X0098074Y0109134D01*
X0098984Y0108758D01*
X0099961Y0108629D01*
X0100937Y0108758D01*
X0101847Y0109134D01*
X0102628Y0109734D01*
X0103228Y0110515D01*
X0103604Y0111425D01*
X0103733Y0112402D01*
X0103604Y0113378D01*
X0103228Y0114288D01*
X0102628Y0115069D01*
X0101847Y0115669D01*
X0100937Y0116045D01*
X0099961Y0116174D01*
X0098984Y0116045D01*
X0098302Y0115763D01*
X0096875Y0117190D01*
X0096485Y0117451D01*
X0096024Y0117543D01*
X0096024Y0117543D01*
X0087795Y0117543D01*
X0087334Y0117451D01*
X0086944Y0117190D01*
X0086944Y0117190D01*
X0084069Y0114315D01*
X0083643Y0114301D01*
X0083148Y0114392D01*
X0082628Y0115069D01*
X0081847Y0115669D01*
X0080937Y0116045D01*
X0079961Y0116174D01*
X0078984Y0116045D01*
X0078074Y0115669D01*
X0077293Y0115069D01*
X0076694Y0114288D01*
X0076317Y0113378D01*
X0076188Y0112402D01*
X0076317Y0111425D01*
X0076694Y0110515D01*
X0077293Y0109734D01*
X0078074Y0109134D01*
X0078984Y0108758D01*
X0079961Y0108629D01*
X0080064Y0108643D01*
X0080538Y0107911D01*
X0080407Y0107700D01*
X0062598Y0107700D01*
X0062138Y0107609D01*
X0061747Y0107348D01*
X0061747Y0107348D01*
X0051412Y0097013D01*
X0051151Y0096622D01*
X0051060Y0096161D01*
X0051060Y0096161D01*
X0051060Y0091339D01*
X0039988Y0091339D01*
X0039988Y0092331D01*
X0040739Y0093083D01*
X0046457Y0093083D01*
X0046994Y0093190D01*
X0047450Y0093495D01*
X0047755Y0093950D01*
X0047862Y0094488D01*
X0047755Y0095026D01*
X0047450Y0095482D01*
X0046994Y0095786D01*
X0046457Y0095893D01*
X0040157Y0095893D01*
X0039620Y0095786D01*
X0039164Y0095482D01*
X0038940Y0095257D01*
X0038212Y0095559D01*
X0038212Y0097159D01*
X0045558Y0104504D01*
X0057283Y0104504D01*
X0057284Y0104504D01*
X0057744Y0104596D01*
X0058135Y0104857D01*
X0060812Y0107534D01*
X0061073Y0107925D01*
X0061165Y0108386D01*
X0061165Y0108386D01*
X0061165Y0108852D01*
X0061847Y0109134D01*
X0062628Y0109734D01*
X0063228Y0110515D01*
X0063604Y0111425D01*
X0063733Y0112402D01*
X0063604Y0113378D01*
X0063228Y0114288D01*
X0062628Y0115069D01*
X0061847Y0115669D01*
X0060937Y0116045D01*
X0059961Y0116174D01*
X0058984Y0116045D01*
X0058302Y0115763D01*
X0057307Y0116759D01*
X0057307Y0118701D01*
X0057307Y0118701D01*
X0057215Y0119162D01*
X0056954Y0119552D01*
X0056954Y0119552D01*
X0053214Y0123293D01*
X0052823Y0123554D01*
X0052362Y0123645D01*
X0052362Y0123645D01*
X0050614Y0123645D01*
X0050614Y0148517D01*
X0054395Y0152298D01*
X0054656Y0152689D01*
X0054748Y0153150D01*
X0054748Y0157457D01*
X0057480Y0157457D01*
X0057480Y0157457D01*
X0057941Y0157549D01*
X0058332Y0157810D01*
X0060573Y0160051D01*
X0060827Y0160001D01*
X0061595Y0160154D01*
X0062246Y0160589D01*
X0062681Y0161240D01*
X0062834Y0162008D01*
X0062681Y0162776D01*
X0062246Y0163427D01*
X0061595Y0163862D01*
X0060827Y0164015D01*
X0060059Y0163862D01*
X0059971Y0163803D01*
X0059281Y0163501D01*
X0058726Y0163824D01*
X0058587Y0163917D01*
X0057819Y0164070D01*
X0057051Y0163917D01*
X0056400Y0163482D01*
X0056220Y0163212D01*
X0053150Y0163212D01*
X0053150Y0163212D01*
X0052689Y0163120D01*
X0052298Y0162859D01*
X0052298Y0162859D01*
X0047396Y0157958D01*
X0046669Y0158259D01*
X0046669Y0160827D01*
X0046608Y0161134D01*
X0046434Y0161395D01*
X0046173Y0161568D01*
X0045866Y0161630D01*
X0045831Y0161630D01*
X0045403Y0161807D01*
X0045075Y0162135D01*
X0044897Y0162563D01*
X0044897Y0162795D01*
X0044836Y0163102D01*
X0044662Y0163363D01*
X0044402Y0163537D01*
X0044094Y0163598D01*
X0021063Y0163598D01*
X0021063Y0163598D01*
X0020756Y0163537D01*
X0020495Y0163363D01*
X0020495Y0163363D01*
X0018724Y0161591D01*
X0018550Y0161331D01*
X0018488Y0161024D01*
X0018488Y0148622D01*
X0018488Y0148622D01*
X0018550Y0148315D01*
X0018724Y0148054D01*
X0018724Y0148054D01*
X0019905Y0146873D01*
X0020165Y0146699D01*
X0020472Y0146638D01*
X0022474Y0146638D01*
X0022782Y0146699D01*
X0023008Y0146850D01*
X0037720Y0146850D01*
X0037947Y0146699D01*
X0038254Y0146638D01*
X0043307Y0146638D01*
X0043307Y0146638D01*
X0043614Y0146699D01*
X0043875Y0146873D01*
X0043875Y0146873D01*
X0045312Y0148311D01*
X0046040Y0148010D01*
X0046040Y0142076D01*
X0045252Y0141750D01*
X0042910Y0144091D01*
X0042335Y0144533D01*
X0041664Y0144811D01*
X0040945Y0144906D01*
X0038254Y0144906D01*
X0038254Y0145488D01*
X0030856Y0145488D01*
X0030856Y0142126D01*
X0030856Y0138764D01*
X0038254Y0138764D01*
X0038254Y0139346D01*
X0039794Y0139346D01*
X0041735Y0137405D01*
X0042311Y0136963D01*
X0042981Y0136685D01*
X0043701Y0136590D01*
X0044420Y0136685D01*
X0045091Y0136963D01*
X0045252Y0137087D01*
X0046040Y0136699D01*
X0046040Y0116142D01*
X0046040Y0116142D01*
X0046132Y0115681D01*
X0046393Y0115290D01*
X0046998Y0114685D01*
X0046694Y0114288D01*
X0046317Y0113378D01*
X0046188Y0112402D01*
X0046317Y0111425D01*
X0046553Y0110855D01*
X0033991Y0098292D01*
X0033730Y0097902D01*
X0033638Y0097441D01*
X0033638Y0097441D01*
X0033638Y0076169D01*
X0033423Y0076025D01*
X0033280Y0075810D01*
X0022882Y0075810D01*
X0022882Y0077252D01*
X0026929Y0077252D01*
X0027559Y0077127D01*
X0028327Y0077280D01*
X0028978Y0077715D01*
X0029413Y0078366D01*
X0029566Y0079134D01*
X0029413Y0079902D01*
X0028978Y0080553D01*
X0028327Y0080988D01*
X0027559Y0081141D01*
X0026791Y0080988D01*
X0026607Y0080865D01*
X0023095Y0080865D01*
X0023095Y0082342D01*
X0019043Y0082342D01*
X0014992Y0082342D01*
X0014992Y0080654D01*
X0014394Y0080198D01*
X0014384Y0080196D01*
X0013928Y0079891D01*
X0012195Y0078159D01*
X0011891Y0077703D01*
X0011784Y0077165D01*
X0011784Y0067323D01*
X0011891Y0066785D01*
X0012195Y0066329D01*
X0014558Y0063967D01*
X0015013Y0063663D01*
X0015551Y0063556D01*
X0030520Y0063556D01*
X0034225Y0059851D01*
X0034225Y0034893D01*
X0034211Y0034884D01*
X0033776Y0034233D01*
X0033623Y0033465D01*
X0033735Y0032901D01*
X0033290Y0032114D01*
X0033013Y0032114D01*
X0032289Y0032268D01*
X0032289Y0033366D01*
X0029026Y0033366D01*
X0029026Y0034350D01*
X0032289Y0034350D01*
X0032289Y0034547D01*
X0029026Y0034547D01*
X0029026Y0035531D01*
X0032289Y0035531D01*
X0032289Y0036630D01*
X0031723Y0036630D01*
X0031335Y0037417D01*
X0031374Y0037468D01*
X0031651Y0038139D01*
X0031746Y0038858D01*
X0031651Y0039578D01*
X0031374Y0040248D01*
X0030932Y0040824D01*
X0030356Y0041265D01*
X0029686Y0041543D01*
X0028967Y0041638D01*
X0028452Y0041638D01*
X0028452Y0043504D01*
X0030512Y0043504D01*
X0030512Y0051772D01*
X0028452Y0051772D01*
X0028452Y0052756D01*
X0030512Y0052756D01*
X0030512Y0061024D01*
X0023425Y0061024D01*
X0023425Y0052756D01*
X0023635Y0052756D01*
X0023635Y0051772D01*
X0023425Y0051772D01*
X0023425Y0050299D01*
X0023321Y0050212D01*
X0022638Y0049950D01*
X0022388Y0050117D01*
X0021850Y0050224D01*
X0021457Y0050224D01*
X0020919Y0050117D01*
X0020463Y0049812D01*
X0019701Y0049050D01*
X0018913Y0049060D01*
X0018913Y0051984D01*
X0018913Y0051984D01*
X0018913Y0052543D01*
X0018913Y0052543D01*
X0018913Y0056398D01*
X0015157Y0056398D01*
X0011402Y0056398D01*
X0011402Y0052543D01*
X0011402Y0052543D01*
X0011402Y0051984D01*
X0011402Y0051984D01*
X0011402Y0049141D01*
X0008957Y0049141D01*
X0008419Y0049034D01*
X0007963Y0048730D01*
X0007471Y0048237D01*
X0007167Y0047782D01*
X0007060Y0047244D01*
X0007167Y0046706D01*
X0007471Y0046251D01*
X0007927Y0045946D01*
X0008465Y0045839D01*
X0009002Y0045946D01*
X0009458Y0046251D01*
X0009539Y0046331D01*
X0011402Y0046331D01*
X0011402Y0043291D01*
X0014665Y0043291D01*
X0014665Y0047638D01*
X0015650Y0047638D01*
X0015650Y0043291D01*
X0018913Y0043291D01*
X0018913Y0046233D01*
X0020276Y0046233D01*
X0020813Y0046340D01*
X0021269Y0046644D01*
X0022085Y0047461D01*
X0022388Y0047521D01*
X0022638Y0047688D01*
X0023321Y0047426D01*
X0023425Y0047339D01*
X0023425Y0043504D01*
X0023635Y0043504D01*
X0023635Y0041427D01*
X0023246Y0041265D01*
X0022670Y0040824D01*
X0022648Y0040794D01*
X0013907Y0040794D01*
X0013885Y0040824D01*
X0013309Y0041265D01*
X0012639Y0041543D01*
X0011919Y0041638D01*
X0008770Y0041638D01*
X0008050Y0041543D01*
X0007380Y0041265D01*
X0006804Y0040824D01*
X0006362Y0040248D01*
X0006085Y0039578D01*
X0005990Y0038858D01*
X0006085Y0038139D01*
X0006362Y0037468D01*
X0006804Y0036893D01*
X0007380Y0036451D01*
X0007936Y0036221D01*
X0007936Y0007480D01*
X0007380Y0007250D01*
X0006804Y0006808D01*
X0006362Y0006232D01*
X0006085Y0005562D01*
X0005990Y0004843D01*
X0006085Y0004123D01*
X0006362Y0003453D01*
X0006804Y0002877D01*
X0007380Y0002435D01*
X0008050Y0002158D01*
X0008770Y0002063D01*
X0011919Y0002063D01*
X0012639Y0002158D01*
X0013306Y0002434D01*
X0023249Y0002434D01*
X0023916Y0002158D01*
X0024636Y0002063D01*
X0028967Y0002063D01*
X0029686Y0002158D01*
X0030356Y0002435D01*
X0030932Y0002877D01*
X0031374Y0003453D01*
X0031651Y0004123D01*
X0031746Y0004843D01*
X0031651Y0005562D01*
X0031374Y0006232D01*
X0031335Y0006283D01*
X0031723Y0007071D01*
X0032289Y0007071D01*
X0032289Y0008169D01*
X0029026Y0008169D01*
X0029026Y0009154D01*
X0032289Y0009154D01*
X0032289Y0009350D01*
X0029026Y0009350D01*
X0029026Y0010335D01*
X0032289Y0010335D01*
X0032289Y0011433D01*
X0032077Y0011433D01*
X0032077Y0012705D01*
X0032864Y0013126D01*
X0032893Y0013106D01*
X0033661Y0012954D01*
X0034429Y0013106D01*
X0035081Y0013541D01*
X0035516Y0014193D01*
X0035668Y0014961D01*
X0035661Y0014999D01*
X0036307Y0015787D01*
X0038764Y0015787D01*
X0038764Y0015453D01*
X0042815Y0015453D01*
X0042815Y0014469D01*
X0038764Y0014469D01*
X0038764Y0013484D01*
X0042815Y0013484D01*
X0042815Y0012500D01*
X0038764Y0012500D01*
X0038764Y0011402D01*
X0038976Y0011402D01*
X0038976Y0009646D01*
X0039665Y0009646D01*
X0039665Y0003543D01*
X0051447Y0003543D01*
X0051461Y0003522D01*
X0051492Y0003366D01*
X0051927Y0002715D01*
X0052578Y0002280D01*
X0053347Y0002127D01*
X0054115Y0002280D01*
X0054766Y0002715D01*
X0055201Y0003366D01*
X0055353Y0004134D01*
X0055201Y0004902D01*
X0054766Y0005553D01*
X0054661Y0005623D01*
X0054661Y0006808D01*
X0055448Y0007454D01*
X0055512Y0007442D01*
X0055686Y0007476D01*
X0056473Y0006849D01*
X0056473Y-0009304D01*
X0051580Y-0014198D01*
X0050898Y-0013915D01*
X0049921Y-0013787D01*
X0048945Y-0013915D01*
X0048035Y-0014292D01*
X0047254Y-0014892D01*
X0046654Y-0015673D01*
X0046277Y-0016583D01*
X0046149Y-0017559D01*
X0046277Y-0018535D01*
X0046654Y-0019445D01*
X0047254Y-0020227D01*
X0048035Y-0020826D01*
X0048945Y-0021203D01*
X0049921Y-0021331D01*
X0050898Y-0021203D01*
X0051807Y-0020826D01*
X0052589Y-0020227D01*
X0053188Y-0019445D01*
X0053565Y-0018535D01*
X0053694Y-0017559D01*
X0053565Y-0016583D01*
X0053283Y-0015901D01*
X0057123Y-0012060D01*
X0057851Y-0012361D01*
X0057851Y-0014433D01*
X0057254Y-0014892D01*
X0056654Y-0015673D01*
X0056277Y-0016583D01*
X0056149Y-0017559D01*
X0056277Y-0018535D01*
X0056654Y-0019445D01*
X0057254Y-0020227D01*
X0058035Y-0020826D01*
X0058945Y-0021203D01*
X0059921Y-0021331D01*
X0060898Y-0021203D01*
X0061808Y-0020826D01*
X0062589Y-0020227D01*
X0062648Y-0020149D01*
X0063490Y-0020345D01*
X0063494Y-0020362D01*
X0063755Y-0020753D01*
X0066727Y-0023726D01*
X0067118Y-0023987D01*
X0067579Y-0024078D01*
X0144606Y-0024078D01*
X0144606Y-0024078D01*
X0145067Y-0023987D01*
X0145458Y-0023726D01*
X0148263Y-0020921D01*
X0148945Y-0021203D01*
X0149921Y-0021331D01*
X0150898Y-0021203D01*
X0151807Y-0020826D01*
X0152589Y-0020227D01*
X0153188Y-0019445D01*
X0153565Y-0018535D01*
X0153694Y-0017559D01*
X0153565Y-0016583D01*
X0153188Y-0015673D01*
X0152589Y-0014892D01*
X0151807Y-0014292D01*
X0150898Y-0013915D01*
X0149921Y-0013787D01*
X0148945Y-0013915D01*
X0148035Y-0014292D01*
X0147254Y-0014892D01*
X0146654Y-0015673D01*
X0146277Y-0016583D01*
X0146149Y-0017559D01*
X0146277Y-0018535D01*
X0146560Y-0019217D01*
X0144107Y-0021670D01*
X0141828Y-0021670D01*
X0141672Y-0020882D01*
X0141807Y-0020826D01*
X0142589Y-0020227D01*
X0143188Y-0019445D01*
X0143565Y-0018535D01*
X0143694Y-0017559D01*
X0143565Y-0016583D01*
X0143188Y-0015673D01*
X0142589Y-0014892D01*
X0141807Y-0014292D01*
X0140898Y-0013915D01*
X0139921Y-0013787D01*
X0138945Y-0013915D01*
X0138035Y-0014292D01*
X0137254Y-0014892D01*
X0136654Y-0015673D01*
X0136277Y-0016583D01*
X0136149Y-0017559D01*
X0136277Y-0018535D01*
X0136654Y-0019445D01*
X0136700Y-0019504D01*
X0136311Y-0020292D01*
X0133531Y-0020292D01*
X0133143Y-0019504D01*
X0133188Y-0019445D01*
X0133565Y-0018535D01*
X0133694Y-0017559D01*
X0133565Y-0016583D01*
X0133188Y-0015673D01*
X0132589Y-0014892D01*
X0131807Y-0014292D01*
X0130898Y-0013915D01*
X0129921Y-0013787D01*
X0128945Y-0013915D01*
X0128035Y-0014292D01*
X0127254Y-0014892D01*
X0126654Y-0015673D01*
X0126277Y-0016583D01*
X0126149Y-0017559D01*
X0126277Y-0018535D01*
X0126654Y-0019445D01*
X0126700Y-0019504D01*
X0126311Y-0020292D01*
X0123531Y-0020292D01*
X0123143Y-0019504D01*
X0123188Y-0019445D01*
X0123565Y-0018535D01*
X0123694Y-0017559D01*
X0123565Y-0016583D01*
X0123188Y-0015673D01*
X0122589Y-0014892D01*
X0121808Y-0014292D01*
X0120898Y-0013915D01*
X0119921Y-0013787D01*
X0118945Y-0013915D01*
X0118035Y-0014292D01*
X0117254Y-0014892D01*
X0116654Y-0015673D01*
X0116277Y-0016583D01*
X0116149Y-0017559D01*
X0116277Y-0018535D01*
X0116654Y-0019445D01*
X0116700Y-0019504D01*
X0116311Y-0020292D01*
X0113531Y-0020292D01*
X0113143Y-0019504D01*
X0113188Y-0019445D01*
X0113565Y-0018535D01*
X0113694Y-0017559D01*
X0113565Y-0016583D01*
X0113188Y-0015673D01*
X0112589Y-0014892D01*
X0111808Y-0014292D01*
X0111326Y-0014093D01*
X0111326Y0028071D01*
X0111219Y0028609D01*
X0110915Y0029064D01*
X0096058Y0043921D01*
X0095949Y0044469D01*
X0095514Y0045120D01*
X0095021Y0045449D01*
X0095165Y0046237D01*
X0129343Y0046237D01*
X0129486Y0046022D01*
X0129701Y0045878D01*
X0129701Y0033637D01*
X0125920Y0029856D01*
X0125659Y0029465D01*
X0125567Y0029004D01*
X0125567Y0029004D01*
X0125567Y-0005130D01*
X0125352Y-0005274D01*
X0124917Y-0005925D01*
X0124764Y-0006693D01*
X0124917Y-0007461D01*
X0125352Y-0008112D01*
X0126003Y-0008547D01*
X0126771Y-0008700D01*
X0127540Y-0008547D01*
X0128191Y-0008112D01*
X0128626Y-0007461D01*
X0128779Y-0006693D01*
X0128626Y-0005925D01*
X0128191Y-0005274D01*
X0127976Y-0005130D01*
X0127976Y0028506D01*
X0131757Y0032287D01*
X0131757Y0032287D01*
X0132018Y0032678D01*
X0132110Y0033138D01*
X0132110Y0045878D01*
X0132325Y0046022D01*
X0132760Y0046673D01*
X0132913Y0047441D01*
X0132760Y0048209D01*
X0132325Y0048860D01*
X0131674Y0049295D01*
X0130905Y0049448D01*
X0130137Y0049295D01*
X0129486Y0048860D01*
X0129343Y0048645D01*
X0099491Y0048645D01*
X0099252Y0049433D01*
X0099451Y0049565D01*
X0099886Y0050216D01*
X0100039Y0050984D01*
X0099886Y0051752D01*
X0099451Y0052403D01*
X0099451Y0052912D01*
X0099886Y0053563D01*
X0100039Y0054331D01*
X0099886Y0055099D01*
X0099451Y0055750D01*
X0099451Y0056258D01*
X0099886Y0056909D01*
X0100039Y0057677D01*
X0099886Y0058445D01*
X0099451Y0059096D01*
X0098800Y0059531D01*
X0098032Y0059684D01*
X0097263Y0059531D01*
X0096612Y0059096D01*
X0096104Y0059096D01*
X0095453Y0059531D01*
X0094685Y0059684D01*
X0093917Y0059531D01*
X0093266Y0059096D01*
X0092831Y0058445D01*
X0092678Y0057677D01*
X0092831Y0056909D01*
X0093266Y0056258D01*
X0093266Y0055750D01*
X0092831Y0055099D01*
X0092678Y0054331D01*
X0092831Y0053563D01*
X0093266Y0052912D01*
X0093266Y0052403D01*
X0092831Y0051752D01*
X0092678Y0050984D01*
X0092831Y0050216D01*
X0093266Y0049565D01*
X0093464Y0049433D01*
X0093225Y0048645D01*
X0081287Y0048645D01*
X0081144Y0048860D01*
X0080493Y0049295D01*
X0079724Y0049448D01*
X0078956Y0049295D01*
X0078305Y0048860D01*
X0078162Y0048645D01*
X0076378Y0048645D01*
X0076378Y0054111D01*
X0085433Y0054111D01*
X0085433Y0054111D01*
X0085894Y0054202D01*
X0086285Y0054463D01*
X0119825Y0088004D01*
X0120079Y0087954D01*
X0120847Y0088106D01*
X0121498Y0088541D01*
X0121933Y0089193D01*
X0122086Y0089961D01*
X0121933Y0090729D01*
X0121498Y0091380D01*
X0120847Y0091815D01*
X0120079Y0091968D01*
X0119992Y0091950D01*
X0119577Y0092671D01*
X0119901Y0093087D01*
X0125289Y0093087D01*
X0128162Y0090214D01*
X0128111Y0089961D01*
X0128264Y0089193D01*
X0128699Y0088541D01*
X0129350Y0088106D01*
X0130118Y0087954D01*
X0130886Y0088106D01*
X0131537Y0088541D01*
X0131972Y0089193D01*
X0132125Y0089961D01*
X0131972Y0090729D01*
X0131537Y0091380D01*
X0130886Y0091815D01*
X0130118Y0091968D01*
X0129865Y0091917D01*
X0126726Y0095056D01*
X0126783Y0095415D01*
X0127008Y0095843D01*
X0132375Y0095843D01*
X0138201Y0090017D01*
X0138150Y0089764D01*
X0138303Y0088996D01*
X0138738Y0088345D01*
X0139389Y0087910D01*
X0140157Y0087757D01*
X0140926Y0087910D01*
X0141577Y0088345D01*
X0142012Y0088996D01*
X0142165Y0089764D01*
X0142012Y0090532D01*
X0141577Y0091183D01*
X0140926Y0091618D01*
X0140157Y0091771D01*
X0139904Y0091720D01*
X0134206Y0097418D01*
X0134533Y0098205D01*
X0139856Y0098205D01*
X0148043Y0090017D01*
X0147993Y0089764D01*
X0148146Y0088996D01*
X0148581Y0088345D01*
X0149232Y0087910D01*
X0150000Y0087757D01*
X0150768Y0087910D01*
X0151419Y0088345D01*
X0151854Y0088996D01*
X0152007Y0089764D01*
X0151854Y0090532D01*
X0151419Y0091183D01*
X0150768Y0091618D01*
X0150000Y0091771D01*
X0149746Y0091720D01*
X0141884Y0099583D01*
X0142210Y0100371D01*
X0151470Y0100371D01*
X0158280Y0093561D01*
X0158229Y0093307D01*
X0158382Y0092539D01*
X0158817Y0091888D01*
X0159468Y0091453D01*
X0160236Y0091300D01*
X0161004Y0091453D01*
X0161655Y0091888D01*
X0162091Y0092539D01*
X0162243Y0093307D01*
X0162091Y0094075D01*
X0161655Y0094726D01*
X0161004Y0095161D01*
X0160236Y0095314D01*
X0159983Y0095264D01*
X0153104Y0102142D01*
X0153430Y0102930D01*
X0158950Y0102930D01*
X0168122Y0093757D01*
X0168072Y0093504D01*
X0168225Y0092736D01*
X0168659Y0092085D01*
X0169311Y0091650D01*
X0170079Y0091497D01*
X0170847Y0091650D01*
X0171498Y0092085D01*
X0171933Y0092736D01*
X0172086Y0093504D01*
X0171933Y0094272D01*
X0171498Y0094923D01*
X0170847Y0095358D01*
X0170079Y0095511D01*
X0169825Y0095461D01*
X0160978Y0104308D01*
X0161304Y0105095D01*
X0173858Y0105095D01*
X0173858Y0105095D01*
X0174319Y0105187D01*
X0174710Y0105448D01*
X0178302Y0109040D01*
X0178984Y0108758D01*
X0179961Y0108629D01*
X0180937Y0108758D01*
X0181619Y0109040D01*
X0185211Y0105448D01*
X0185211Y0105448D01*
X0185602Y0105187D01*
X0186063Y0105095D01*
X0186063Y0105095D01*
X0195405Y0105095D01*
X0195405Y0105095D01*
X0195866Y0105187D01*
X0196256Y0105448D01*
X0196718Y0105909D01*
X0196718Y0105909D01*
X0196979Y0106300D01*
X0197070Y0106760D01*
X0197129Y0106798D01*
X0197949Y0106712D01*
X0198384Y0106061D01*
X0199035Y0105626D01*
X0199803Y0105473D01*
X0200571Y0105626D01*
X0201222Y0106061D01*
X0201657Y0106712D01*
X0201810Y0107480D01*
X0202425Y0108048D01*
X0212992Y0108048D01*
X0212992Y0108048D01*
X0213453Y0108139D01*
X0213844Y0108400D01*
X0220340Y0114897D01*
X0220340Y0114897D01*
X0220601Y0115287D01*
X0220692Y0115748D01*
X0220692Y0115748D01*
X0220692Y0136852D01*
X0221420Y0137153D01*
X0221926Y0136647D01*
X0225863Y0136647D01*
X0228150Y0138933D01*
X0228937Y0138607D01*
X0228937Y0115173D01*
X0227953Y0115173D01*
X0227953Y0112599D01*
X0227953Y0110024D01*
X0228937Y0110024D01*
X0228937Y0098638D01*
X0227953Y0098638D01*
X0227953Y0096063D01*
X0227461Y0096063D01*
X0227461Y0095571D01*
X0224984Y0095571D01*
X0224984Y0093488D01*
X0224984Y0093488D01*
X0224984Y0092732D01*
X0224984Y0092732D01*
X0224984Y0090650D01*
X0227461Y0090650D01*
X0227461Y0090158D01*
X0227953Y0090158D01*
X0227953Y0087583D01*
X0228937Y0087583D01*
X0228937Y0061236D01*
X0227756Y0061236D01*
X0227756Y0055905D01*
X0227756Y0050575D01*
X0230331Y0050575D01*
X0230331Y0050591D01*
X0235811Y0050591D01*
X0235811Y0050575D01*
X0238386Y0050575D01*
X0238386Y0055905D01*
X0239370Y0055905D01*
X0239370Y0050575D01*
X0240930Y0050575D01*
X0240930Y0048244D01*
X0207276Y0048244D01*
X0207181Y0049451D01*
X0206710Y0051412D01*
X0205938Y0053275D01*
X0204885Y0054994D01*
X0203575Y0056528D01*
X0202042Y0057837D01*
X0200322Y0058891D01*
X0198459Y0059663D01*
X0196499Y0060133D01*
X0195291Y0060228D01*
X0195291Y0061999D01*
X0195230Y0062306D01*
X0195056Y0062566D01*
X0194795Y0062740D01*
X0194488Y0062801D01*
X0192126Y0062801D01*
X0191819Y0062740D01*
X0191558Y0062566D01*
X0191384Y0062306D01*
X0191323Y0061999D01*
X0191323Y0059874D01*
X0190442Y0059663D01*
X0188578Y0058891D01*
X0186859Y0057837D01*
X0185326Y0056528D01*
X0184016Y0054994D01*
X0182963Y0053275D01*
X0182191Y0051412D01*
X0181720Y0049451D01*
X0181687Y0049031D01*
X0180905Y0049031D01*
X0180598Y0048970D01*
X0180338Y0048796D01*
X0180164Y0048536D01*
X0180103Y0048228D01*
X0180103Y0046260D01*
X0180164Y0045953D01*
X0180338Y0045692D01*
X0180598Y0045518D01*
X0180905Y0045457D01*
X0181718Y0045457D01*
X0181720Y0045431D01*
X0182191Y0043470D01*
X0182963Y0041607D01*
X0184016Y0039887D01*
X0185326Y0038354D01*
X0186859Y0037045D01*
X0188578Y0035991D01*
X0190442Y0035219D01*
X0191323Y0035008D01*
X0191323Y0032883D01*
X0191384Y0032576D01*
X0191558Y0032315D01*
X0191819Y0032142D01*
X0192126Y0032080D01*
X0193489Y0032080D01*
X0193489Y-0013819D01*
X0186181Y-0013819D01*
X0186181Y-0021299D01*
X0193489Y-0021299D01*
X0193489Y-0026355D01*
X0020037Y-0026355D01*
X0019881Y-0025567D01*
X0021324Y-0024970D01*
X0023187Y-0023828D01*
X0024849Y-0022408D01*
X0026269Y-0020746D01*
X0027411Y-0018883D01*
X0028247Y-0016863D01*
X0028757Y-0014738D01*
X0028929Y-0012559D01*
X0028757Y-0010380D01*
X0028628Y-0009843D01*
X0029249Y-0009055D01*
X0032480Y-0009055D01*
X0035433Y-0006102D01*
X0035433Y-0002165D01*
X0032480Y0000787D01*
X0028543Y0000787D01*
X0025591Y-0002165D01*
X0025591Y-0002441D01*
X0025064Y-0002635D01*
X0024803Y-0002671D01*
X0023187Y-0001290D01*
X0021324Y-0000148D01*
X0019304Y0000688D01*
X0017179Y0001198D01*
X0015000Y0001370D01*
X0012821Y0001198D01*
X0010696Y0000688D01*
X0008676Y-0000148D01*
X0006813Y-0001290D01*
X0005151Y-0002710D01*
X0003731Y-0004372D01*
X0002589Y-0006236D01*
X0001992Y-0007679D01*
X0001204Y-0007522D01*
X0001204Y0010827D01*
X0001204Y0062756D01*
X0009272Y0062756D01*
X0009272Y0069055D01*
X0001204Y0069055D01*
X0001204Y0084803D01*
X0009272Y0084803D01*
X0009272Y0091102D01*
X0001204Y0091102D01*
X0001204Y0102404D01*
X0001992Y0102560D01*
X0002589Y0101117D01*
X0003731Y0099254D01*
X0005151Y0097592D01*
X0006813Y0096172D01*
X0008676Y0095030D01*
X0010696Y0094194D01*
X0012821Y0093684D01*
X0015000Y0093512D01*
X0017179Y0093684D01*
X0019304Y0094194D01*
X0021324Y0095030D01*
X0023187Y0096172D01*
X0024849Y0097592D01*
X0026269Y0099254D01*
X0027411Y0101117D01*
X0028247Y0103137D01*
X0028757Y0105262D01*
X0028929Y0107441D01*
X0028757Y0109620D01*
X0028247Y0111745D01*
X0027411Y0113765D01*
X0026269Y0115628D01*
X0024849Y0117290D01*
X0023187Y0118710D01*
X0021324Y0119852D01*
X0019304Y0120688D01*
X0017179Y0121198D01*
X0015000Y0121370D01*
X0012821Y0121198D01*
X0010696Y0120688D01*
X0008676Y0119852D01*
X0006813Y0118710D01*
X0005151Y0117290D01*
X0003731Y0115628D01*
X0002589Y0113765D01*
X0001992Y0112321D01*
X0001204Y0112478D01*
X0001204Y0127953D01*
X0014173Y0127953D01*
X0014173Y0137402D01*
X0001204Y0137402D01*
X0001204Y0154724D01*
X0014173Y0154724D01*
X0014173Y0164173D01*
X0001204Y0164173D01*
X0001204Y0328191D01*
X0001992Y0328348D01*
X0002589Y0326905D01*
X0003731Y0325041D01*
X0005151Y0323379D01*
X0006813Y0321959D01*
X0008676Y0320817D01*
X0010696Y0319981D01*
X0012821Y0319471D01*
X0015000Y0319299D01*
X0017179Y0319471D01*
X0019304Y0319981D01*
X0021324Y0320817D01*
X0023187Y0321959D01*
X0024849Y0323379D01*
X0026269Y0325041D01*
X0027411Y0326905D01*
X0028247Y0328924D01*
X0028757Y0331049D01*
X0028929Y0333228D01*
X0028757Y0335407D01*
X0028247Y0337532D01*
X0027411Y0339552D01*
X0026269Y0341415D01*
X0024849Y0343077D01*
X0023187Y0344497D01*
X0021324Y0345639D01*
X0019880Y0346237D01*
X0020036Y0347024D01*
X0251181Y0347024D01*
X0251181Y0343166D01*
X0251181Y0343166D02*
G37*
G36*
X0115157Y0277601D02*
X0114897Y0277426D01*
X0114897Y0277426D01*
X0114242Y0276772D01*
X0087402Y0276772D01*
X0087402Y0296457D01*
X0115157Y0296457D01*
X0115157Y0277601D01*
X0115157Y0277601D02*
G37*
G36*
X0140551Y0271063D02*
X0140551Y0261024D01*
X0138189Y0258661D01*
X0131102Y0258661D01*
X0130315Y0259449D01*
X0129740Y0259449D01*
X0129740Y0259547D01*
X0125689Y0259547D01*
X0121638Y0259547D01*
X0121638Y0259449D01*
X0119291Y0259449D01*
X0119291Y0264905D01*
X0119883Y0265496D01*
X0120401Y0266394D01*
X0120669Y0267395D01*
X0120669Y0268307D01*
X0125000Y0272638D01*
X0138976Y0272638D01*
X0140551Y0271063D01*
X0140551Y0271063D02*
G37*
G36*
X0044094Y0162404D02*
X0044394Y0161680D01*
X0044948Y0161126D01*
X0045671Y0160827D01*
X0045866Y0160827D01*
X0045866Y0150000D01*
X0043307Y0147441D01*
X0038254Y0147441D01*
X0038254Y0149508D01*
X0022474Y0149508D01*
X0022474Y0147441D01*
X0020472Y0147441D01*
X0019291Y0148622D01*
X0019291Y0161024D01*
X0021063Y0162795D01*
X0044094Y0162795D01*
X0044094Y0162404D01*
X0044094Y0162404D02*
G37*
G36*
X0288976Y0109055D02*
X0267323Y0109055D01*
X0267323Y0112992D01*
X0277165Y0112992D01*
X0277165Y0120866D01*
X0288976Y0120866D01*
X0288976Y0109055D01*
X0288976Y0109055D02*
G37*
G36*
X0049539Y0121328D02*
X0050000Y0121237D01*
X0050000Y0121237D01*
X0051863Y0121237D01*
X0054898Y0118202D01*
X0054898Y0116260D01*
X0054898Y0116260D01*
X0054990Y0115799D01*
X0055251Y0115408D01*
X0056599Y0114060D01*
X0056317Y0113378D01*
X0056188Y0112402D01*
X0056317Y0111425D01*
X0056694Y0110515D01*
X0057293Y0109734D01*
X0057972Y0109213D01*
X0058151Y0108769D01*
X0058232Y0108361D01*
X0056785Y0106913D01*
X0047046Y0106913D01*
X0046745Y0107640D01*
X0048191Y0109086D01*
X0048984Y0108758D01*
X0049961Y0108629D01*
X0050937Y0108758D01*
X0051847Y0109134D01*
X0052628Y0109734D01*
X0053228Y0110515D01*
X0053605Y0111425D01*
X0053733Y0112402D01*
X0053605Y0113378D01*
X0053228Y0114288D01*
X0052628Y0115069D01*
X0051847Y0115669D01*
X0050937Y0116045D01*
X0049961Y0116174D01*
X0049036Y0116052D01*
X0048448Y0116641D01*
X0048448Y0121176D01*
X0048905Y0121446D01*
X0049236Y0121531D01*
X0049539Y0121328D01*
X0049539Y0121328D02*
G37*
G36*
X0288976Y0099213D02*
X0277165Y0099213D01*
X0277165Y0103150D01*
X0267323Y0103150D01*
X0267323Y0107087D01*
X0288976Y0107087D01*
X0288976Y0099213D01*
X0288976Y0099213D02*
G37*
G36*
X0077953Y0082874D02*
X0077953Y0078740D01*
X0077559Y0078346D01*
X0075394Y0078346D01*
X0075394Y0083464D01*
X0077362Y0083464D01*
X0077953Y0082874D01*
X0077953Y0082874D02*
G37*
G36*
X0194488Y0058464D02*
X0192126Y0058464D01*
X0192126Y0061999D01*
X0194488Y0061999D01*
X0194488Y0058464D01*
X0194488Y0058464D02*
G37*
G36*
X0053699Y0069644D02*
X0053914Y0069500D01*
X0053914Y0054744D01*
X0053914Y0054744D01*
X0054005Y0054283D01*
X0054267Y0053893D01*
X0056670Y0051490D01*
X0056670Y0050590D01*
X0055942Y0050288D01*
X0053017Y0053214D01*
X0052626Y0053475D01*
X0052165Y0053566D01*
X0052165Y0053566D01*
X0046866Y0053566D01*
X0046866Y0053839D01*
X0042815Y0053839D01*
X0038764Y0053839D01*
X0038764Y0052740D01*
X0038976Y0052740D01*
X0038976Y0050016D01*
X0038764Y0050016D01*
X0038764Y0048917D01*
X0042815Y0048917D01*
X0042815Y0047933D01*
X0038764Y0047933D01*
X0038764Y0046835D01*
X0038976Y0046835D01*
X0038976Y0044110D01*
X0038764Y0044110D01*
X0038764Y0043012D01*
X0042815Y0043012D01*
X0042815Y0042028D01*
X0038764Y0042028D01*
X0038764Y0040929D01*
X0038976Y0040929D01*
X0038976Y0039173D01*
X0038976Y0035236D01*
X0038976Y0030380D01*
X0038228Y0030137D01*
X0038189Y0030136D01*
X0037156Y0031170D01*
X0037049Y0032045D01*
X0037159Y0032210D01*
X0037484Y0032697D01*
X0037637Y0033465D01*
X0037484Y0034233D01*
X0037049Y0034884D01*
X0037035Y0034893D01*
X0037035Y0060433D01*
X0036928Y0060971D01*
X0036623Y0061427D01*
X0032096Y0065954D01*
X0031640Y0066259D01*
X0031102Y0066366D01*
X0016133Y0066366D01*
X0014611Y0067888D01*
X0014651Y0068669D01*
X0015205Y0069055D01*
X0022882Y0069055D01*
X0022882Y0069819D01*
X0035274Y0069819D01*
X0035392Y0069644D01*
X0036043Y0069209D01*
X0036811Y0069056D01*
X0037579Y0069209D01*
X0038189Y0069616D01*
X0038418Y0069568D01*
X0038976Y0069343D01*
X0038976Y0067732D01*
X0038764Y0067732D01*
X0038764Y0066634D01*
X0042815Y0066634D01*
X0042815Y0065650D01*
X0038764Y0065650D01*
X0038764Y0064551D01*
X0038976Y0064551D01*
X0038976Y0061827D01*
X0038764Y0061827D01*
X0038764Y0060728D01*
X0042815Y0060728D01*
X0042815Y0059744D01*
X0038764Y0059744D01*
X0038764Y0058646D01*
X0038976Y0058646D01*
X0038976Y0055921D01*
X0038764Y0055921D01*
X0038764Y0054823D01*
X0042815Y0054823D01*
X0046866Y0054823D01*
X0046866Y0055102D01*
X0047291Y0055187D01*
X0047682Y0055448D01*
X0052229Y0059995D01*
X0052229Y0059995D01*
X0052491Y0060386D01*
X0052582Y0060847D01*
X0052582Y0069993D01*
X0053370Y0070137D01*
X0053699Y0069644D01*
X0053699Y0069644D02*
G37*
G36*
X0183071Y0046260D02*
X0180905Y0046260D01*
X0180905Y0048228D01*
X0183071Y0048228D01*
X0183071Y0046260D01*
X0183071Y0046260D02*
G37*
G36*
X0194488Y0032883D02*
X0192126Y0032883D01*
X0192126Y0036417D01*
X0194488Y0036417D01*
X0194488Y0032883D01*
X0194488Y0032883D02*
G37*
G36*
X0062575Y0078044D02*
X0062575Y0072638D01*
X0062575Y0072638D01*
X0062667Y0072177D01*
X0062928Y0071786D01*
X0063727Y0070987D01*
X0063661Y0070507D01*
X0063509Y0070091D01*
X0062963Y0069726D01*
X0062527Y0069075D01*
X0062375Y0068307D01*
X0062527Y0067539D01*
X0062963Y0066888D01*
X0062963Y0066773D01*
X0062527Y0066122D01*
X0062375Y0065354D01*
X0062434Y0065054D01*
X0062337Y0064957D01*
X0062076Y0064566D01*
X0061985Y0064106D01*
X0061985Y0064106D01*
X0061985Y0050787D01*
X0061985Y0050787D01*
X0062076Y0050327D01*
X0062337Y0049936D01*
X0063715Y0048558D01*
X0063715Y0048558D01*
X0064106Y0048297D01*
X0064567Y0048205D01*
X0064567Y0048205D01*
X0068701Y0048205D01*
X0068701Y0046063D01*
X0068701Y0042126D01*
X0068701Y0038189D01*
X0068701Y0034252D01*
X0068701Y0029346D01*
X0068488Y0029346D01*
X0068488Y0028535D01*
X0067761Y0028233D01*
X0067114Y0028880D01*
X0067164Y0029134D01*
X0067012Y0029902D01*
X0066577Y0030553D01*
X0065925Y0030988D01*
X0065157Y0031141D01*
X0064389Y0030988D01*
X0063738Y0030553D01*
X0063607Y0030356D01*
X0063427Y0030356D01*
X0062776Y0030791D01*
X0062008Y0030944D01*
X0061240Y0030791D01*
X0060456Y0031215D01*
X0060456Y0052559D01*
X0060456Y0052559D01*
X0060365Y0053020D01*
X0060103Y0053411D01*
X0058488Y0055026D01*
X0058488Y0071960D01*
X0058488Y0071960D01*
X0058396Y0072421D01*
X0058135Y0072811D01*
X0058135Y0072811D01*
X0058106Y0072841D01*
X0058106Y0078567D01*
X0058321Y0078711D01*
X0058756Y0079362D01*
X0058908Y0080130D01*
X0058792Y0080714D01*
X0059446Y0081173D01*
X0062575Y0078044D01*
X0062575Y0078044D02*
G37*
G36*
X0047244Y0021850D02*
X0046654Y0021850D01*
X0046260Y0022244D01*
X0045276Y0022244D01*
X0045276Y0023425D01*
X0046260Y0023425D01*
X0046654Y0023819D01*
X0047244Y0023819D01*
X0047244Y0021850D01*
X0047244Y0021850D02*
G37*
G36*
X0288976Y0016535D02*
X0267323Y0016535D01*
X0267323Y0020472D01*
X0277165Y0020472D01*
X0277165Y0024409D01*
X0288976Y0024409D01*
X0288976Y0016535D01*
X0288976Y0016535D02*
G37*
G36*
X0097217Y0027568D02*
X0097217Y0016885D01*
X0096430Y0016489D01*
X0096153Y0016694D01*
X0096090Y0016789D01*
X0095949Y0017500D01*
X0095513Y0018151D01*
X0094862Y0018586D01*
X0094094Y0018739D01*
X0093326Y0018586D01*
X0092675Y0018151D01*
X0092240Y0017500D01*
X0092087Y0016732D01*
X0092240Y0015964D01*
X0092675Y0015313D01*
X0093326Y0014878D01*
X0094094Y0014725D01*
X0094662Y0014110D01*
X0094662Y0001957D01*
X0094447Y0001813D01*
X0094012Y0001162D01*
X0093859Y0000394D01*
X0094012Y-0000374D01*
X0094447Y-0001025D01*
X0095098Y-0001461D01*
X0095866Y-0001613D01*
X0096634Y-0001461D01*
X0097285Y-0001025D01*
X0097620Y-0000524D01*
X0097729Y-0000492D01*
X0098516Y-0001003D01*
X0098516Y-0014093D01*
X0098035Y-0014292D01*
X0097254Y-0014892D01*
X0096654Y-0015673D01*
X0096277Y-0016583D01*
X0096149Y-0017559D01*
X0096277Y-0018535D01*
X0096654Y-0019445D01*
X0096700Y-0019504D01*
X0096311Y-0020292D01*
X0093531Y-0020292D01*
X0093143Y-0019504D01*
X0093188Y-0019445D01*
X0093565Y-0018535D01*
X0093694Y-0017559D01*
X0093565Y-0016583D01*
X0093188Y-0015673D01*
X0092589Y-0014892D01*
X0091808Y-0014292D01*
X0091126Y-0014010D01*
X0091126Y0032546D01*
X0091913Y0032872D01*
X0097217Y0027568D01*
X0097217Y0027568D02*
G37*
G36*
X0079898Y0027321D02*
X0079898Y0016206D01*
X0079888Y0016198D01*
X0079111Y0015922D01*
X0078717Y0016316D01*
X0078457Y0016490D01*
X0078150Y0016551D01*
X0077378Y0016551D01*
X0076677Y0017113D01*
X0076591Y0017279D01*
X0076591Y0017535D01*
X0076378Y0017535D01*
X0076378Y0022441D01*
X0076378Y0026165D01*
X0076591Y0026165D01*
X0076591Y0026351D01*
X0077165Y0026351D01*
X0077703Y0026458D01*
X0078159Y0026762D01*
X0078463Y0027218D01*
X0078525Y0027527D01*
X0079304Y0027794D01*
X0079898Y0027321D01*
X0079898Y0027321D02*
G37*
G36*
X0078740Y0015157D02*
X0078740Y0010630D01*
X0078150Y0010039D01*
X0076968Y0010039D01*
X0075984Y0011024D01*
X0075984Y0014764D01*
X0076968Y0015748D01*
X0078150Y0015748D01*
X0078740Y0015157D01*
X0078740Y0015157D02*
G37*
G36*
X0024100Y0035190D02*
X0024026Y0035175D01*
X0023343Y0034718D01*
X0022886Y0034035D01*
X0022725Y0033228D01*
X0022886Y0032422D01*
X0023343Y0031738D01*
X0023976Y0031315D01*
X0024034Y0031247D01*
X0024215Y0030441D01*
X0021054Y0027280D01*
X0020749Y0026824D01*
X0020642Y0026286D01*
X0020642Y0016535D01*
X0020749Y0015998D01*
X0021054Y0015542D01*
X0023549Y0013047D01*
X0023449Y0012033D01*
X0023343Y0011963D01*
X0022886Y0011279D01*
X0022725Y0010472D01*
X0022886Y0009666D01*
X0023343Y0008982D01*
X0024026Y0008525D01*
X0024627Y0008406D01*
X0024636Y0007622D01*
X0023916Y0007527D01*
X0023249Y0007251D01*
X0013306Y0007251D01*
X0012753Y0007480D01*
X0012753Y0035977D01*
X0024022Y0035977D01*
X0024100Y0035190D01*
X0024100Y0035190D02*
G37*
G36*
X0288976Y0002756D02*
X0277165Y0002756D01*
X0277165Y0010630D01*
X0267323Y0010630D01*
X0267323Y0014567D01*
X0288976Y0014567D01*
X0288976Y0002756D01*
X0288976Y0002756D02*
G37*
G36*
X0066308Y0015784D02*
X0066317Y0015775D01*
X0066312Y0015748D01*
X0066418Y0015210D01*
X0066723Y0014755D01*
X0067179Y0014450D01*
X0067716Y0014343D01*
X0067983Y0014347D01*
X0068610Y0013934D01*
X0068701Y0013801D01*
X0068701Y0010630D01*
X0072404Y0010630D01*
X0072539Y0010603D01*
X0075318Y0010603D01*
X0075417Y0010456D01*
X0075417Y0010456D01*
X0076401Y0009472D01*
X0076401Y0009472D01*
X0076661Y0009298D01*
X0076968Y0009236D01*
X0078150Y0009236D01*
X0078150Y0009236D01*
X0078457Y0009298D01*
X0078717Y0009472D01*
X0078717Y0009472D01*
X0079111Y0009865D01*
X0079888Y0009590D01*
X0079898Y0009582D01*
X0079898Y-0005879D01*
X0071580Y-0014198D01*
X0070898Y-0013915D01*
X0069921Y-0013787D01*
X0068945Y-0013915D01*
X0068035Y-0014292D01*
X0067976Y-0014337D01*
X0067189Y-0013949D01*
X0067189Y0001903D01*
X0067584Y0002298D01*
X0067584Y0002298D01*
X0067845Y0002689D01*
X0067936Y0003150D01*
X0067936Y0009843D01*
X0067845Y0010303D01*
X0067584Y0010694D01*
X0067584Y0010694D01*
X0063519Y0014759D01*
X0063566Y0015105D01*
X0064370Y0015710D01*
X0065138Y0015862D01*
X0065592Y0016165D01*
X0066308Y0015784D01*
X0066308Y0015784D02*
G37*
G36*
X0063402Y0001824D02*
X0063402Y-0014658D01*
X0062615Y-0014925D01*
X0062589Y-0014892D01*
X0061808Y-0014292D01*
X0060898Y-0013915D01*
X0060259Y-0013831D01*
X0060259Y0003938D01*
X0060987Y0004239D01*
X0063402Y0001824D01*
X0063402Y0001824D02*
G37*
G36*
X0093168Y0045449D02*
X0092675Y0045120D01*
X0092240Y0044469D01*
X0092087Y0043701D01*
X0092240Y0042933D01*
X0092675Y0042282D01*
X0093326Y0041846D01*
X0094095Y0041694D01*
X0094275Y0041730D01*
X0108516Y0027489D01*
X0108516Y-0014093D01*
X0108035Y-0014292D01*
X0107254Y-0014892D01*
X0106654Y-0015673D01*
X0106277Y-0016583D01*
X0106149Y-0017559D01*
X0106277Y-0018535D01*
X0106654Y-0019445D01*
X0106700Y-0019504D01*
X0106311Y-0020292D01*
X0103531Y-0020292D01*
X0103143Y-0019504D01*
X0103188Y-0019445D01*
X0103565Y-0018535D01*
X0103694Y-0017559D01*
X0103565Y-0016583D01*
X0103188Y-0015673D01*
X0102589Y-0014892D01*
X0101807Y-0014292D01*
X0101326Y-0014093D01*
X0101326Y0000276D01*
X0101219Y0000813D01*
X0100915Y0001269D01*
X0100027Y0002157D01*
X0100027Y0028150D01*
X0099920Y0028687D01*
X0099616Y0029143D01*
X0087437Y0041322D01*
X0087440Y0041339D01*
X0087287Y0042107D01*
X0086852Y0042758D01*
X0086201Y0043193D01*
X0085433Y0043346D01*
X0084665Y0043193D01*
X0084014Y0042758D01*
X0083723Y0042322D01*
X0082835Y0042096D01*
X0080205Y0044727D01*
X0080464Y0045581D01*
X0080493Y0045587D01*
X0081144Y0046022D01*
X0081287Y0046237D01*
X0093024Y0046237D01*
X0093168Y0045449D01*
X0093168Y0045449D02*
G37*
G36*
X0088717Y0032808D02*
X0088717Y-0014010D01*
X0088035Y-0014292D01*
X0087254Y-0014892D01*
X0086654Y-0015673D01*
X0086277Y-0016583D01*
X0086149Y-0017559D01*
X0086277Y-0018535D01*
X0086654Y-0019445D01*
X0086700Y-0019504D01*
X0086311Y-0020292D01*
X0083531Y-0020292D01*
X0083143Y-0019504D01*
X0083188Y-0019445D01*
X0083565Y-0018535D01*
X0083694Y-0017559D01*
X0083565Y-0016583D01*
X0083188Y-0015673D01*
X0082589Y-0014892D01*
X0081808Y-0014292D01*
X0081125Y-0014010D01*
X0081125Y-0013097D01*
X0084316Y-0009907D01*
X0084316Y-0009907D01*
X0084577Y-0009516D01*
X0084669Y-0009055D01*
X0084669Y-0009055D01*
X0084669Y0035828D01*
X0085396Y0036129D01*
X0088717Y0032808D01*
X0088717Y0032808D02*
G37*
%LPC*%
G36*
X0213583Y0344118D02*
X0213122Y0344026D01*
X0212731Y0343765D01*
X0212470Y0343374D01*
X0212378Y0342913D01*
X0212378Y0342535D01*
X0211402Y0342535D01*
X0211402Y0340650D01*
X0213583Y0340650D01*
X0215764Y0340650D01*
X0215764Y0342535D01*
X0214787Y0342535D01*
X0214787Y0342913D01*
X0214695Y0343374D01*
X0214434Y0343765D01*
X0214043Y0344026D01*
X0213583Y0344118D01*
X0213583Y0344118D02*
G37*
G36*
X0215764Y0339665D02*
X0214075Y0339665D01*
X0214075Y0337779D01*
X0215764Y0337779D01*
X0215764Y0339665D01*
X0215764Y0339665D02*
G37*
G36*
X0213091Y0339665D02*
X0211402Y0339665D01*
X0211402Y0337779D01*
X0213091Y0337779D01*
X0213091Y0339665D01*
X0213091Y0339665D02*
G37*
G36*
X0231118Y0335433D02*
X0229528Y0335433D01*
X0229528Y0333842D01*
X0231118Y0333842D01*
X0231118Y0335433D01*
X0231118Y0335433D02*
G37*
G36*
X0192205Y0342041D02*
X0191485Y0341947D01*
X0190815Y0341669D01*
X0190239Y0341227D01*
X0189797Y0340652D01*
X0189520Y0339981D01*
X0189425Y0339262D01*
X0189425Y0336112D01*
X0189520Y0335393D01*
X0189797Y0334722D01*
X0190239Y0334147D01*
X0190815Y0333705D01*
X0191485Y0333427D01*
X0192205Y0333332D01*
X0192924Y0333427D01*
X0193595Y0333705D01*
X0194170Y0334147D01*
X0194612Y0334722D01*
X0194890Y0335393D01*
X0194984Y0336112D01*
X0194984Y0339262D01*
X0194890Y0339981D01*
X0194612Y0340652D01*
X0194170Y0341227D01*
X0193595Y0341669D01*
X0192924Y0341947D01*
X0192205Y0342041D01*
X0192205Y0342041D02*
G37*
G36*
X0158189Y0342041D02*
X0157470Y0341947D01*
X0156799Y0341669D01*
X0156223Y0341227D01*
X0155782Y0340652D01*
X0155504Y0339981D01*
X0155409Y0339262D01*
X0155409Y0336112D01*
X0155504Y0335393D01*
X0155782Y0334722D01*
X0156223Y0334147D01*
X0156799Y0333705D01*
X0157470Y0333427D01*
X0158189Y0333332D01*
X0158908Y0333427D01*
X0159579Y0333705D01*
X0160154Y0334147D01*
X0160596Y0334722D01*
X0160874Y0335393D01*
X0160969Y0336112D01*
X0160969Y0339262D01*
X0160874Y0339981D01*
X0160596Y0340652D01*
X0160154Y0341227D01*
X0159579Y0341669D01*
X0158908Y0341947D01*
X0158189Y0342041D01*
X0158189Y0342041D02*
G37*
G36*
X0120453Y0336542D02*
X0120453Y0332914D01*
X0124081Y0332914D01*
X0124003Y0333505D01*
X0123585Y0334514D01*
X0122920Y0335381D01*
X0122053Y0336047D01*
X0121044Y0336465D01*
X0120453Y0336542D01*
X0120453Y0336542D02*
G37*
G36*
X0110453Y0336542D02*
X0110453Y0332914D01*
X0114081Y0332914D01*
X0114003Y0333505D01*
X0113585Y0334514D01*
X0112920Y0335381D01*
X0112053Y0336047D01*
X0111044Y0336465D01*
X0110453Y0336542D01*
X0110453Y0336542D02*
G37*
G36*
X0119468Y0336542D02*
X0118877Y0336465D01*
X0117868Y0336047D01*
X0117001Y0335381D01*
X0116336Y0334514D01*
X0115918Y0333505D01*
X0115840Y0332914D01*
X0119468Y0332914D01*
X0119468Y0336542D01*
X0119468Y0336542D02*
G37*
G36*
X0109468Y0336542D02*
X0108877Y0336465D01*
X0107868Y0336047D01*
X0107001Y0335381D01*
X0106336Y0334514D01*
X0105918Y0333505D01*
X0105840Y0332914D01*
X0109468Y0332914D01*
X0109468Y0336542D01*
X0109468Y0336542D02*
G37*
G36*
X0205906Y0342716D02*
X0201969Y0342716D01*
X0199016Y0339763D01*
X0199016Y0335826D01*
X0201969Y0332874D01*
X0205906Y0332874D01*
X0208858Y0335826D01*
X0208858Y0339763D01*
X0205906Y0342716D01*
X0205906Y0342716D02*
G37*
G36*
X0143898Y0336359D02*
X0136024Y0336359D01*
X0136024Y0328485D01*
X0143898Y0328485D01*
X0143898Y0336359D01*
X0143898Y0336359D02*
G37*
G36*
X0129961Y0336393D02*
X0128933Y0336258D01*
X0127975Y0335861D01*
X0127153Y0335230D01*
X0126522Y0334407D01*
X0126125Y0333450D01*
X0125990Y0332422D01*
X0126125Y0331394D01*
X0126522Y0330436D01*
X0127153Y0329614D01*
X0127975Y0328983D01*
X0128933Y0328586D01*
X0129961Y0328451D01*
X0130988Y0328586D01*
X0131946Y0328983D01*
X0132768Y0329614D01*
X0133400Y0330436D01*
X0133796Y0331394D01*
X0133932Y0332422D01*
X0133796Y0333450D01*
X0133400Y0334407D01*
X0132768Y0335230D01*
X0131946Y0335861D01*
X0130988Y0336258D01*
X0129961Y0336393D01*
X0129961Y0336393D02*
G37*
G36*
X0124081Y0331930D02*
X0120453Y0331930D01*
X0120453Y0328301D01*
X0121044Y0328379D01*
X0122053Y0328797D01*
X0122920Y0329462D01*
X0123585Y0330329D01*
X0124003Y0331339D01*
X0124081Y0331930D01*
X0124081Y0331930D02*
G37*
G36*
X0114081Y0331930D02*
X0110453Y0331930D01*
X0110453Y0328301D01*
X0111044Y0328379D01*
X0112053Y0328797D01*
X0112920Y0329462D01*
X0113585Y0330329D01*
X0114003Y0331339D01*
X0114081Y0331930D01*
X0114081Y0331930D02*
G37*
G36*
X0119468Y0331930D02*
X0115840Y0331930D01*
X0115918Y0331339D01*
X0116336Y0330329D01*
X0117001Y0329462D01*
X0117868Y0328797D01*
X0118877Y0328379D01*
X0119468Y0328301D01*
X0119468Y0331930D01*
X0119468Y0331930D02*
G37*
G36*
X0109468Y0331930D02*
X0105840Y0331930D01*
X0105918Y0331339D01*
X0106336Y0330329D01*
X0107001Y0329462D01*
X0107868Y0328797D01*
X0108877Y0328379D01*
X0109468Y0328301D01*
X0109468Y0331930D01*
X0109468Y0331930D02*
G37*
G36*
X0071663Y0327639D02*
X0070895Y0327486D01*
X0070244Y0327051D01*
X0070049Y0326760D01*
X0069138Y0326760D01*
X0068944Y0327051D01*
X0068292Y0327486D01*
X0067524Y0327639D01*
X0066756Y0327486D01*
X0066105Y0327051D01*
X0065910Y0326760D01*
X0065000Y0326760D01*
X0064805Y0327051D01*
X0064154Y0327486D01*
X0063386Y0327639D01*
X0062618Y0327486D01*
X0061967Y0327051D01*
X0061532Y0326400D01*
X0061379Y0325632D01*
X0061532Y0324864D01*
X0061855Y0324380D01*
X0061921Y0323860D01*
X0061855Y0323341D01*
X0061532Y0322857D01*
X0061379Y0322089D01*
X0061532Y0321321D01*
X0061967Y0320670D01*
X0062618Y0320234D01*
X0063386Y0320082D01*
X0064154Y0320234D01*
X0064805Y0320670D01*
X0065000Y0320961D01*
X0065910Y0320961D01*
X0066105Y0320670D01*
X0066346Y0320509D01*
X0066360Y0319571D01*
X0066297Y0319529D01*
X0065862Y0318878D01*
X0065710Y0318110D01*
X0065862Y0317342D01*
X0066297Y0316691D01*
X0066948Y0316256D01*
X0067716Y0316103D01*
X0068485Y0316256D01*
X0069136Y0316691D01*
X0069571Y0317342D01*
X0069724Y0318110D01*
X0069571Y0318878D01*
X0069136Y0319529D01*
X0069079Y0319567D01*
X0069009Y0320409D01*
X0069346Y0320766D01*
X0070213Y0320714D01*
X0070244Y0320670D01*
X0070895Y0320234D01*
X0071663Y0320082D01*
X0072431Y0320234D01*
X0073082Y0320670D01*
X0073517Y0321321D01*
X0073670Y0322089D01*
X0073517Y0322857D01*
X0073194Y0323341D01*
X0073127Y0323860D01*
X0073194Y0324380D01*
X0073517Y0324864D01*
X0073670Y0325632D01*
X0073517Y0326400D01*
X0073082Y0327051D01*
X0072431Y0327486D01*
X0071663Y0327639D01*
X0071663Y0327639D02*
G37*
G36*
X0192205Y0326175D02*
X0191485Y0326081D01*
X0190815Y0325803D01*
X0190239Y0325361D01*
X0189797Y0324785D01*
X0189520Y0324115D01*
X0189463Y0323685D01*
X0189425Y0323396D01*
X0188641Y0323405D01*
X0188522Y0324005D01*
X0188065Y0324689D01*
X0187381Y0325146D01*
X0186575Y0325306D01*
X0185768Y0325146D01*
X0185085Y0324689D01*
X0184628Y0324005D01*
X0184467Y0323199D01*
X0184628Y0322392D01*
X0185085Y0321709D01*
X0185768Y0321252D01*
X0186575Y0321091D01*
X0187381Y0321252D01*
X0188065Y0321709D01*
X0188522Y0322392D01*
X0188638Y0322975D01*
X0189425Y0322897D01*
X0189425Y0322612D01*
X0189425Y0319065D01*
X0189520Y0318345D01*
X0189797Y0317675D01*
X0190239Y0317099D01*
X0190815Y0316658D01*
X0191485Y0316380D01*
X0192205Y0316285D01*
X0192924Y0316380D01*
X0193595Y0316658D01*
X0194170Y0317099D01*
X0194612Y0317675D01*
X0194890Y0318345D01*
X0194984Y0319065D01*
X0194984Y0323396D01*
X0194890Y0324115D01*
X0194612Y0324785D01*
X0194170Y0325361D01*
X0193595Y0325803D01*
X0192924Y0326081D01*
X0192205Y0326175D01*
X0192205Y0326175D02*
G37*
G36*
X0085433Y0323810D02*
X0084665Y0323657D01*
X0084181Y0323334D01*
X0083661Y0323268D01*
X0083142Y0323334D01*
X0082658Y0323657D01*
X0081890Y0323810D01*
X0081122Y0323657D01*
X0080471Y0323222D01*
X0080036Y0322571D01*
X0079883Y0321803D01*
X0080036Y0321035D01*
X0080393Y0320500D01*
X0080471Y0320089D01*
X0080471Y0319900D01*
X0080393Y0319489D01*
X0080036Y0318953D01*
X0079883Y0318185D01*
X0080036Y0317417D01*
X0080471Y0316766D01*
X0080471Y0315986D01*
X0080036Y0315335D01*
X0079883Y0314567D01*
X0080036Y0313799D01*
X0080471Y0313148D01*
X0081122Y0312713D01*
X0081890Y0312560D01*
X0082658Y0312713D01*
X0083142Y0313036D01*
X0083661Y0313103D01*
X0084181Y0313036D01*
X0084665Y0312713D01*
X0085433Y0312560D01*
X0085811Y0312635D01*
X0086599Y0312103D01*
X0086599Y0300000D01*
X0086660Y0299693D01*
X0086834Y0299432D01*
X0087094Y0299258D01*
X0087402Y0299197D01*
X0097244Y0299197D01*
X0115157Y0299197D01*
X0115465Y0299258D01*
X0115725Y0299432D01*
X0115899Y0299693D01*
X0115960Y0300000D01*
X0115960Y0319685D01*
X0115899Y0319992D01*
X0115725Y0320253D01*
X0115465Y0320427D01*
X0115157Y0320488D01*
X0087869Y0320488D01*
X0087697Y0320650D01*
X0087329Y0321245D01*
X0087440Y0321803D01*
X0087287Y0322571D01*
X0086852Y0323222D01*
X0086201Y0323657D01*
X0085433Y0323810D01*
X0085433Y0323810D02*
G37*
G36*
X0158189Y0326175D02*
X0157470Y0326081D01*
X0156799Y0325803D01*
X0156223Y0325361D01*
X0155782Y0324785D01*
X0155504Y0324115D01*
X0155409Y0323396D01*
X0155409Y0319065D01*
X0155504Y0318345D01*
X0155782Y0317675D01*
X0156223Y0317099D01*
X0156799Y0316658D01*
X0157470Y0316380D01*
X0158189Y0316285D01*
X0158908Y0316380D01*
X0159579Y0316658D01*
X0160154Y0317099D01*
X0160596Y0317675D01*
X0160874Y0318345D01*
X0160969Y0319065D01*
X0160969Y0322612D01*
X0160969Y0322897D01*
X0161756Y0322975D01*
X0161872Y0322392D01*
X0162329Y0321709D01*
X0163012Y0321252D01*
X0163819Y0321091D01*
X0164625Y0321252D01*
X0165309Y0321709D01*
X0165766Y0322392D01*
X0165926Y0323199D01*
X0165766Y0324005D01*
X0165309Y0324689D01*
X0164625Y0325146D01*
X0163819Y0325306D01*
X0163012Y0325146D01*
X0162329Y0324689D01*
X0161872Y0324005D01*
X0161752Y0323405D01*
X0160969Y0323396D01*
X0160931Y0323685D01*
X0160874Y0324115D01*
X0160596Y0324785D01*
X0160154Y0325361D01*
X0159579Y0325803D01*
X0158908Y0326081D01*
X0158189Y0326175D01*
X0158189Y0326175D02*
G37*
G36*
X0178543Y0312243D02*
X0177775Y0312090D01*
X0177124Y0311655D01*
X0177010Y0311655D01*
X0176359Y0312090D01*
X0175591Y0312243D01*
X0174822Y0312090D01*
X0174171Y0311655D01*
X0173736Y0311004D01*
X0173583Y0310236D01*
X0173736Y0309468D01*
X0174171Y0308817D01*
X0174822Y0308382D01*
X0174940Y0308359D01*
X0174940Y0203582D01*
X0153192Y0181834D01*
X0112752Y0181834D01*
X0112577Y0182009D01*
X0112577Y0196909D01*
X0112477Y0197415D01*
X0112190Y0197844D01*
X0109279Y0200755D01*
X0108850Y0201042D01*
X0108344Y0201143D01*
X0100048Y0201143D01*
X0100016Y0201149D01*
X0100016Y0201476D01*
X0095965Y0201476D01*
X0095965Y0202461D01*
X0100016Y0202461D01*
X0100016Y0203559D01*
X0099803Y0203559D01*
X0099803Y0206496D01*
X0099803Y0210433D01*
X0099803Y0214370D01*
X0099803Y0218307D01*
X0099803Y0222031D01*
X0100016Y0222031D01*
X0100016Y0223130D01*
X0095964Y0223130D01*
X0091913Y0223130D01*
X0091913Y0222031D01*
X0092126Y0222031D01*
X0092126Y0220276D01*
X0092126Y0216339D01*
X0092126Y0212402D01*
X0092126Y0208465D01*
X0092126Y0205141D01*
X0091327Y0205141D01*
X0091183Y0205356D01*
X0090532Y0205791D01*
X0089764Y0205944D01*
X0088996Y0205791D01*
X0088345Y0205356D01*
X0087910Y0204705D01*
X0087757Y0203937D01*
X0087910Y0203169D01*
X0088345Y0202518D01*
X0088996Y0202083D01*
X0089764Y0201930D01*
X0090532Y0202083D01*
X0091126Y0202480D01*
X0091417Y0202414D01*
X0091913Y0202194D01*
X0091913Y0200378D01*
X0092126Y0200378D01*
X0092126Y0197653D01*
X0091913Y0197653D01*
X0091913Y0196555D01*
X0095965Y0196555D01*
X0100016Y0196555D01*
X0100016Y0196882D01*
X0100048Y0196889D01*
X0107130Y0196889D01*
X0108324Y0195695D01*
X0108324Y0180795D01*
X0108424Y0180289D01*
X0108711Y0179860D01*
X0110603Y0177968D01*
X0111032Y0177681D01*
X0111538Y0177580D01*
X0154407Y0177580D01*
X0154913Y0177681D01*
X0155342Y0177968D01*
X0178806Y0201432D01*
X0179093Y0201861D01*
X0179194Y0202367D01*
X0179194Y0308359D01*
X0179311Y0308382D01*
X0179963Y0308817D01*
X0180398Y0309468D01*
X0180550Y0310236D01*
X0180398Y0311004D01*
X0179963Y0311655D01*
X0179311Y0312090D01*
X0178543Y0312243D01*
X0178543Y0312243D02*
G37*
G36*
X0165157Y0315393D02*
X0164389Y0315240D01*
X0163738Y0314805D01*
X0163303Y0314154D01*
X0163150Y0313386D01*
X0163303Y0312618D01*
X0163738Y0311967D01*
X0164389Y0311531D01*
X0165157Y0311379D01*
X0165926Y0311531D01*
X0166577Y0311967D01*
X0167012Y0312618D01*
X0167165Y0313386D01*
X0167012Y0314154D01*
X0166577Y0314805D01*
X0165926Y0315240D01*
X0165157Y0315393D01*
X0165157Y0315393D02*
G37*
G36*
X0188386Y0312046D02*
X0187618Y0311894D01*
X0186967Y0311459D01*
X0186531Y0310807D01*
X0186379Y0310039D01*
X0186531Y0309271D01*
X0186967Y0308620D01*
X0187618Y0308185D01*
X0188386Y0308032D01*
X0189154Y0308185D01*
X0189805Y0308620D01*
X0190240Y0309271D01*
X0190393Y0310039D01*
X0190240Y0310807D01*
X0189805Y0311459D01*
X0189154Y0311894D01*
X0188386Y0312046D01*
X0188386Y0312046D02*
G37*
G36*
X0059252Y0291771D02*
X0058484Y0291618D01*
X0057833Y0291183D01*
X0057398Y0290532D01*
X0057245Y0289764D01*
X0057257Y0289706D01*
X0056693Y0289015D01*
X0055925Y0288862D01*
X0055274Y0288427D01*
X0054839Y0287776D01*
X0054686Y0287008D01*
X0054697Y0286950D01*
X0054134Y0286259D01*
X0053366Y0286106D01*
X0052715Y0285671D01*
X0052280Y0285020D01*
X0052127Y0284252D01*
X0052147Y0284153D01*
X0051477Y0283484D01*
X0051378Y0283503D01*
X0050610Y0283350D01*
X0049959Y0282915D01*
X0049524Y0282264D01*
X0049371Y0281496D01*
X0049508Y0280806D01*
X0049242Y0280483D01*
X0048919Y0280216D01*
X0048228Y0280353D01*
X0047460Y0280201D01*
X0046809Y0279766D01*
X0046374Y0279115D01*
X0046221Y0278346D01*
X0046374Y0277578D01*
X0046809Y0276927D01*
X0047460Y0276492D01*
X0048228Y0276339D01*
X0048996Y0276492D01*
X0049648Y0276927D01*
X0050083Y0277578D01*
X0050235Y0278346D01*
X0050098Y0279037D01*
X0050365Y0279360D01*
X0050688Y0279626D01*
X0051378Y0279489D01*
X0052146Y0279642D01*
X0052797Y0280077D01*
X0053232Y0280728D01*
X0053385Y0281496D01*
X0053365Y0281595D01*
X0054035Y0282265D01*
X0054134Y0282245D01*
X0054902Y0282398D01*
X0055553Y0282833D01*
X0055988Y0283484D01*
X0056141Y0284252D01*
X0056129Y0284310D01*
X0056693Y0285001D01*
X0057461Y0285154D01*
X0058112Y0285589D01*
X0058547Y0286240D01*
X0058700Y0287008D01*
X0058688Y0287066D01*
X0059252Y0287757D01*
X0060020Y0287910D01*
X0060671Y0288345D01*
X0061106Y0288996D01*
X0061259Y0289764D01*
X0061106Y0290532D01*
X0060671Y0291183D01*
X0060020Y0291618D01*
X0059252Y0291771D01*
X0059252Y0291771D02*
G37*
G36*
X0069685Y0287046D02*
X0068917Y0286894D01*
X0068266Y0286459D01*
X0067831Y0285807D01*
X0067678Y0285039D01*
X0067831Y0284271D01*
X0068266Y0283620D01*
X0068917Y0283185D01*
X0069685Y0283032D01*
X0070453Y0283185D01*
X0071104Y0283620D01*
X0071539Y0284271D01*
X0071692Y0285039D01*
X0071539Y0285807D01*
X0071104Y0286459D01*
X0070453Y0286894D01*
X0069685Y0287046D01*
X0069685Y0287046D02*
G37*
G36*
X0105217Y0272441D02*
X0092815Y0272441D01*
X0092815Y0266339D01*
X0092126Y0266339D01*
X0092126Y0264583D01*
X0091913Y0264583D01*
X0091913Y0263484D01*
X0095964Y0263484D01*
X0100016Y0263484D01*
X0100016Y0264583D01*
X0099803Y0264583D01*
X0099803Y0266142D01*
X0105217Y0266142D01*
X0105217Y0272441D01*
X0105217Y0272441D02*
G37*
G36*
X0100016Y0262500D02*
X0095964Y0262500D01*
X0091913Y0262500D01*
X0091913Y0261516D01*
X0095965Y0261516D01*
X0100016Y0261516D01*
X0100016Y0262500D01*
X0100016Y0262500D02*
G37*
G36*
X0100016Y0246752D02*
X0095965Y0246752D01*
X0091913Y0246752D01*
X0091913Y0245654D01*
X0092126Y0245654D01*
X0092126Y0242929D01*
X0091913Y0242929D01*
X0091913Y0241831D01*
X0095965Y0241831D01*
X0100016Y0241831D01*
X0100016Y0242929D01*
X0099803Y0242929D01*
X0099803Y0245654D01*
X0100016Y0245654D01*
X0100016Y0246752D01*
X0100016Y0246752D02*
G37*
G36*
X0100016Y0240846D02*
X0095965Y0240846D01*
X0091913Y0240846D01*
X0091913Y0239748D01*
X0092126Y0239748D01*
X0092126Y0237024D01*
X0091913Y0237024D01*
X0091913Y0235925D01*
X0095965Y0235925D01*
X0100016Y0235925D01*
X0100016Y0237024D01*
X0099803Y0237024D01*
X0099803Y0239748D01*
X0100016Y0239748D01*
X0100016Y0240846D01*
X0100016Y0240846D02*
G37*
G36*
X0100016Y0234941D02*
X0095965Y0234941D01*
X0091913Y0234941D01*
X0091913Y0233842D01*
X0092126Y0233842D01*
X0092126Y0231118D01*
X0091913Y0231118D01*
X0091913Y0230020D01*
X0095965Y0230020D01*
X0100016Y0230020D01*
X0100016Y0231118D01*
X0099803Y0231118D01*
X0099803Y0233842D01*
X0100016Y0233842D01*
X0100016Y0234941D01*
X0100016Y0234941D02*
G37*
G36*
X0100016Y0229035D02*
X0095965Y0229035D01*
X0091913Y0229035D01*
X0091913Y0227937D01*
X0092126Y0227937D01*
X0092126Y0225213D01*
X0091913Y0225213D01*
X0091913Y0224114D01*
X0095964Y0224114D01*
X0100016Y0224114D01*
X0100016Y0225213D01*
X0099803Y0225213D01*
X0099803Y0227937D01*
X0100016Y0227937D01*
X0100016Y0229035D01*
X0100016Y0229035D02*
G37*
G36*
X0171063Y0206928D02*
X0170295Y0206776D01*
X0169644Y0206341D01*
X0169209Y0205689D01*
X0169056Y0204921D01*
X0169106Y0204668D01*
X0159737Y0195299D01*
X0134634Y0195299D01*
X0134490Y0195514D01*
X0133839Y0195949D01*
X0133071Y0196102D01*
X0132917Y0196071D01*
X0132915Y0196075D01*
X0132859Y0196179D01*
X0132829Y0196204D01*
X0132807Y0196237D01*
X0132709Y0196302D01*
X0132617Y0196377D01*
X0132579Y0196389D01*
X0132546Y0196411D01*
X0132430Y0196434D01*
X0132317Y0196468D01*
X0132278Y0196464D01*
X0132239Y0196472D01*
X0129740Y0196472D01*
X0129740Y0196555D01*
X0125689Y0196555D01*
X0121638Y0196555D01*
X0121638Y0195457D01*
X0121850Y0195457D01*
X0121850Y0191732D01*
X0128241Y0191732D01*
X0128939Y0191467D01*
X0128977Y0190892D01*
X0129011Y0190766D01*
X0129036Y0190638D01*
X0129051Y0190615D01*
X0129058Y0190589D01*
X0129138Y0190486D01*
X0129210Y0190377D01*
X0129233Y0190362D01*
X0129249Y0190341D01*
X0129362Y0190276D01*
X0129471Y0190203D01*
X0129497Y0190198D01*
X0129520Y0190184D01*
X0129650Y0190167D01*
X0129778Y0190142D01*
X0138189Y0190142D01*
X0138189Y0190142D01*
X0138496Y0190203D01*
X0138757Y0190377D01*
X0138757Y0190377D01*
X0139150Y0190771D01*
X0139324Y0191031D01*
X0139385Y0191339D01*
X0139385Y0192890D01*
X0160236Y0192890D01*
X0160236Y0192890D01*
X0160697Y0192982D01*
X0161088Y0193243D01*
X0170809Y0202965D01*
X0171063Y0202914D01*
X0171831Y0203067D01*
X0172482Y0203502D01*
X0172917Y0204153D01*
X0173070Y0204921D01*
X0172917Y0205689D01*
X0172482Y0206341D01*
X0171831Y0206776D01*
X0171063Y0206928D01*
X0171063Y0206928D02*
G37*
G36*
X0182283Y0206928D02*
X0181515Y0206776D01*
X0180864Y0206341D01*
X0180429Y0205689D01*
X0180276Y0204921D01*
X0180429Y0204153D01*
X0180864Y0203502D01*
X0181515Y0203067D01*
X0182283Y0202914D01*
X0183052Y0203067D01*
X0183703Y0203502D01*
X0183781Y0203619D01*
X0209001Y0203619D01*
X0209211Y0203305D01*
X0209862Y0202870D01*
X0210630Y0202717D01*
X0211398Y0202870D01*
X0212049Y0203305D01*
X0212484Y0203956D01*
X0212637Y0204724D01*
X0212484Y0205492D01*
X0212049Y0206144D01*
X0211398Y0206579D01*
X0210630Y0206732D01*
X0209862Y0206579D01*
X0209211Y0206144D01*
X0209133Y0206027D01*
X0183912Y0206027D01*
X0183703Y0206341D01*
X0183052Y0206776D01*
X0182283Y0206928D01*
X0182283Y0206928D02*
G37*
G36*
X0129740Y0208366D02*
X0125689Y0208366D01*
X0121638Y0208366D01*
X0121638Y0207268D01*
X0121850Y0207268D01*
X0121850Y0203543D01*
X0121850Y0198638D01*
X0121638Y0198638D01*
X0121638Y0197539D01*
X0125689Y0197539D01*
X0129740Y0197539D01*
X0129740Y0198638D01*
X0129528Y0198638D01*
X0129528Y0203543D01*
X0129528Y0207268D01*
X0129740Y0207268D01*
X0129740Y0208366D01*
X0129740Y0208366D02*
G37*
G36*
X0100016Y0195571D02*
X0095965Y0195571D01*
X0091913Y0195571D01*
X0091913Y0194587D01*
X0095964Y0194587D01*
X0100016Y0194587D01*
X0100016Y0195571D01*
X0100016Y0195571D02*
G37*
G36*
X0116732Y0192151D02*
X0115962Y0192050D01*
X0115243Y0191753D01*
X0114626Y0191279D01*
X0114153Y0190662D01*
X0113856Y0189944D01*
X0113754Y0189173D01*
X0113856Y0188402D01*
X0114153Y0187684D01*
X0114626Y0187067D01*
X0115243Y0186594D01*
X0115962Y0186296D01*
X0116732Y0186195D01*
X0117503Y0186296D01*
X0118221Y0186594D01*
X0118838Y0187067D01*
X0119311Y0187684D01*
X0119609Y0188402D01*
X0119711Y0189173D01*
X0119609Y0189944D01*
X0119311Y0190662D01*
X0118838Y0191279D01*
X0118221Y0191753D01*
X0117503Y0192050D01*
X0116732Y0192151D01*
X0116732Y0192151D02*
G37*
G36*
X0100016Y0193602D02*
X0095964Y0193602D01*
X0091913Y0193602D01*
X0091913Y0192504D01*
X0092126Y0192504D01*
X0092126Y0190748D01*
X0092815Y0190748D01*
X0092815Y0184646D01*
X0105217Y0184646D01*
X0105217Y0190945D01*
X0099803Y0190945D01*
X0099803Y0192504D01*
X0100016Y0192504D01*
X0100016Y0193602D01*
X0100016Y0193602D02*
G37*
G36*
X0075295Y0180690D02*
X0075295Y0177657D01*
X0078328Y0177657D01*
X0078271Y0178094D01*
X0077912Y0178960D01*
X0077342Y0179704D01*
X0076598Y0180274D01*
X0075732Y0180633D01*
X0075295Y0180690D01*
X0075295Y0180690D02*
G37*
G36*
X0074311Y0180690D02*
X0073874Y0180633D01*
X0073008Y0180274D01*
X0072265Y0179704D01*
X0071694Y0178960D01*
X0071336Y0178094D01*
X0071278Y0177657D01*
X0074311Y0177657D01*
X0074311Y0180690D01*
X0074311Y0180690D02*
G37*
G36*
X0058465Y0180512D02*
X0051772Y0180512D01*
X0051772Y0173819D01*
X0058465Y0173819D01*
X0058465Y0180512D01*
X0058465Y0180512D02*
G37*
G36*
X0016732Y0180512D02*
X0010039Y0180512D01*
X0010039Y0173819D01*
X0016732Y0173819D01*
X0016732Y0180512D01*
X0016732Y0180512D02*
G37*
G36*
X0033071Y0180541D02*
X0032197Y0180426D01*
X0031383Y0180088D01*
X0030684Y0179552D01*
X0030148Y0178853D01*
X0029811Y0178039D01*
X0029695Y0177165D01*
X0029811Y0176292D01*
X0030148Y0175478D01*
X0030684Y0174779D01*
X0031383Y0174242D01*
X0032197Y0173905D01*
X0033071Y0173790D01*
X0033944Y0173905D01*
X0034758Y0174242D01*
X0035458Y0174779D01*
X0035994Y0175478D01*
X0036331Y0176292D01*
X0036446Y0177165D01*
X0036331Y0178039D01*
X0035994Y0178853D01*
X0035458Y0179552D01*
X0034758Y0180088D01*
X0033944Y0180426D01*
X0033071Y0180541D01*
X0033071Y0180541D02*
G37*
G36*
X0078328Y0176673D02*
X0075295Y0176673D01*
X0075295Y0173640D01*
X0075732Y0173698D01*
X0076598Y0174056D01*
X0077342Y0174627D01*
X0077912Y0175371D01*
X0078271Y0176236D01*
X0078328Y0176673D01*
X0078328Y0176673D02*
G37*
G36*
X0074311Y0176673D02*
X0071278Y0176673D01*
X0071336Y0176236D01*
X0071694Y0175371D01*
X0072265Y0174627D01*
X0073008Y0174056D01*
X0073874Y0173698D01*
X0074311Y0173640D01*
X0074311Y0176673D01*
X0074311Y0176673D02*
G37*
G36*
X0069291Y0173070D02*
X0068523Y0172917D01*
X0067872Y0172482D01*
X0067437Y0171831D01*
X0067284Y0171063D01*
X0067437Y0170295D01*
X0067872Y0169644D01*
X0068523Y0169209D01*
X0069291Y0169056D01*
X0069489Y0169095D01*
X0069602Y0168523D01*
X0070038Y0167872D01*
X0070689Y0167437D01*
X0071457Y0167284D01*
X0072225Y0167437D01*
X0072876Y0167872D01*
X0073311Y0168523D01*
X0073464Y0169291D01*
X0073311Y0170059D01*
X0072876Y0170711D01*
X0072225Y0171146D01*
X0071457Y0171298D01*
X0071259Y0171259D01*
X0071146Y0171831D01*
X0070711Y0172482D01*
X0070059Y0172917D01*
X0069291Y0173070D01*
X0069291Y0173070D02*
G37*
G36*
X0023228Y0173267D02*
X0022460Y0173114D01*
X0021809Y0172679D01*
X0021374Y0172028D01*
X0021221Y0171260D01*
X0021374Y0170492D01*
X0021519Y0170276D01*
X0021457Y0169488D01*
X0021457Y0169488D01*
X0021457Y0165551D01*
X0025197Y0165551D01*
X0025787Y0165551D01*
X0028937Y0165551D01*
X0028937Y0166315D01*
X0029933Y0166315D01*
X0030077Y0166101D01*
X0030728Y0165665D01*
X0031496Y0165513D01*
X0032264Y0165665D01*
X0032915Y0166101D01*
X0033350Y0166752D01*
X0033503Y0167520D01*
X0033350Y0168288D01*
X0032915Y0168939D01*
X0032264Y0169374D01*
X0031496Y0169527D01*
X0030728Y0169374D01*
X0030077Y0168939D01*
X0029933Y0168724D01*
X0028937Y0168724D01*
X0028937Y0169488D01*
X0025787Y0169488D01*
X0025000Y0169488D01*
X0024938Y0170276D01*
X0025083Y0170492D01*
X0025235Y0171260D01*
X0025083Y0172028D01*
X0024648Y0172679D01*
X0023996Y0173114D01*
X0023228Y0173267D01*
X0023228Y0173267D02*
G37*
G36*
X0142348Y0165983D02*
X0141579Y0165831D01*
X0140928Y0165396D01*
X0140728Y0165095D01*
X0139821Y0165095D01*
X0139620Y0165396D01*
X0138969Y0165831D01*
X0138201Y0165983D01*
X0137433Y0165831D01*
X0136782Y0165396D01*
X0136581Y0165095D01*
X0135675Y0165095D01*
X0135474Y0165396D01*
X0134823Y0165831D01*
X0134055Y0165983D01*
X0133287Y0165831D01*
X0132636Y0165396D01*
X0132201Y0164744D01*
X0132048Y0163976D01*
X0132201Y0163208D01*
X0132636Y0162557D01*
X0132792Y0162453D01*
X0132792Y0161506D01*
X0132636Y0161401D01*
X0132201Y0160750D01*
X0132048Y0159982D01*
X0132201Y0159214D01*
X0132636Y0158563D01*
X0133287Y0158128D01*
X0134055Y0157975D01*
X0134823Y0158128D01*
X0135474Y0158563D01*
X0135675Y0158863D01*
X0136581Y0158863D01*
X0136782Y0158563D01*
X0137433Y0158128D01*
X0138201Y0157975D01*
X0138969Y0158128D01*
X0139620Y0158563D01*
X0139821Y0158863D01*
X0140728Y0158863D01*
X0140928Y0158563D01*
X0141579Y0158128D01*
X0142348Y0157975D01*
X0143116Y0158128D01*
X0143767Y0158563D01*
X0144202Y0159214D01*
X0144355Y0159982D01*
X0144202Y0160750D01*
X0143767Y0161401D01*
X0143611Y0161506D01*
X0143611Y0162453D01*
X0143767Y0162557D01*
X0144202Y0163208D01*
X0144355Y0163976D01*
X0144202Y0164744D01*
X0143767Y0165396D01*
X0143116Y0165831D01*
X0142348Y0165983D01*
X0142348Y0165983D02*
G37*
G36*
X0098592Y0163704D02*
X0084817Y0163704D01*
X0084817Y0155429D01*
X0098592Y0155429D01*
X0098592Y0163704D01*
X0098592Y0163704D02*
G37*
G36*
X0077756Y0153756D02*
X0068973Y0153756D01*
X0068666Y0153694D01*
X0068406Y0153521D01*
X0068232Y0153260D01*
X0068060Y0152845D01*
X0067323Y0152991D01*
X0066555Y0152839D01*
X0066370Y0152715D01*
X0063114Y0152715D01*
X0062422Y0152578D01*
X0061836Y0152186D01*
X0059549Y0149899D01*
X0059158Y0149313D01*
X0059020Y0148622D01*
X0059020Y0143859D01*
X0055025Y0139863D01*
X0054941Y0139846D01*
X0054289Y0139411D01*
X0053854Y0138760D01*
X0053702Y0137992D01*
X0053854Y0137224D01*
X0054289Y0136573D01*
X0054941Y0136138D01*
X0055709Y0135985D01*
X0056477Y0136138D01*
X0057128Y0136573D01*
X0057563Y0137224D01*
X0057580Y0137309D01*
X0062104Y0141833D01*
X0062496Y0142419D01*
X0062633Y0143110D01*
X0062633Y0145385D01*
X0063420Y0145680D01*
X0071873Y0137228D01*
X0072134Y0137054D01*
X0072441Y0136993D01*
X0084252Y0136993D01*
X0084267Y0136990D01*
X0084817Y0136351D01*
X0084817Y0128658D01*
X0098592Y0128658D01*
X0098592Y0135024D01*
X0105967Y0135024D01*
X0114787Y0126204D01*
X0115047Y0126030D01*
X0115354Y0125969D01*
X0133661Y0125969D01*
X0133661Y0125969D01*
X0133969Y0126030D01*
X0134229Y0126204D01*
X0136493Y0128468D01*
X0136496Y0128472D01*
X0136500Y0128475D01*
X0136583Y0128602D01*
X0136667Y0128728D01*
X0136668Y0128733D01*
X0136671Y0128737D01*
X0136698Y0128886D01*
X0136728Y0129035D01*
X0136727Y0129040D01*
X0136728Y0129045D01*
X0136630Y0137209D01*
X0136630Y0146457D01*
X0136630Y0146457D01*
X0136568Y0146764D01*
X0136395Y0147024D01*
X0135804Y0147615D01*
X0135544Y0147789D01*
X0135236Y0147850D01*
X0112873Y0147850D01*
X0112244Y0148231D01*
X0112244Y0148637D01*
X0112244Y0150689D01*
X0100394Y0150689D01*
X0088544Y0150689D01*
X0088544Y0148637D01*
X0088544Y0148231D01*
X0087914Y0147850D01*
X0086417Y0147850D01*
X0086417Y0147850D01*
X0086110Y0147789D01*
X0085850Y0147615D01*
X0085563Y0147329D01*
X0084820Y0147024D01*
X0078324Y0153521D01*
X0078063Y0153694D01*
X0077756Y0153756D01*
X0077756Y0153756D02*
G37*
G36*
X0112244Y0154131D02*
X0100886Y0154131D01*
X0100886Y0151673D01*
X0112244Y0151673D01*
X0112244Y0154131D01*
X0112244Y0154131D02*
G37*
G36*
X0099901Y0154131D02*
X0088544Y0154131D01*
X0088544Y0151673D01*
X0099901Y0151673D01*
X0099901Y0154131D01*
X0099901Y0154131D02*
G37*
G36*
X0029872Y0145488D02*
X0022474Y0145488D01*
X0022474Y0142618D01*
X0029872Y0142618D01*
X0029872Y0145488D01*
X0029872Y0145488D02*
G37*
G36*
X0029872Y0141634D02*
X0022474Y0141634D01*
X0022474Y0138764D01*
X0029872Y0138764D01*
X0029872Y0141634D01*
X0029872Y0141634D02*
G37*
G36*
X0226969Y0115173D02*
X0224984Y0115173D01*
X0224984Y0113091D01*
X0226969Y0113091D01*
X0226969Y0115173D01*
X0226969Y0115173D02*
G37*
G36*
X0040453Y0116324D02*
X0040453Y0112894D01*
X0043883Y0112894D01*
X0043812Y0113433D01*
X0043413Y0114395D01*
X0042780Y0115221D01*
X0041954Y0115854D01*
X0040993Y0116253D01*
X0040453Y0116324D01*
X0040453Y0116324D02*
G37*
G36*
X0039469Y0116324D02*
X0038929Y0116253D01*
X0037967Y0115854D01*
X0037141Y0115221D01*
X0036508Y0114395D01*
X0036110Y0113433D01*
X0036039Y0112894D01*
X0039469Y0112894D01*
X0039469Y0116324D01*
X0039469Y0116324D02*
G37*
G36*
X0226969Y0112106D02*
X0224984Y0112106D01*
X0224984Y0110024D01*
X0226969Y0110024D01*
X0226969Y0112106D01*
X0226969Y0112106D02*
G37*
G36*
X0159961Y0116174D02*
X0158984Y0116045D01*
X0158074Y0115669D01*
X0157293Y0115069D01*
X0156694Y0114288D01*
X0156317Y0113378D01*
X0156188Y0112402D01*
X0156317Y0111425D01*
X0156694Y0110515D01*
X0157293Y0109734D01*
X0158074Y0109134D01*
X0158984Y0108758D01*
X0159961Y0108629D01*
X0160937Y0108758D01*
X0161847Y0109134D01*
X0162628Y0109734D01*
X0163228Y0110515D01*
X0163604Y0111425D01*
X0163733Y0112402D01*
X0163604Y0113378D01*
X0163228Y0114288D01*
X0162628Y0115069D01*
X0161847Y0115669D01*
X0160937Y0116045D01*
X0159961Y0116174D01*
X0159961Y0116174D02*
G37*
G36*
X0149961Y0116174D02*
X0148984Y0116045D01*
X0148074Y0115669D01*
X0147293Y0115069D01*
X0146694Y0114288D01*
X0146317Y0113378D01*
X0146188Y0112402D01*
X0146317Y0111425D01*
X0146694Y0110515D01*
X0147293Y0109734D01*
X0148074Y0109134D01*
X0148984Y0108758D01*
X0149961Y0108629D01*
X0150937Y0108758D01*
X0151847Y0109134D01*
X0152628Y0109734D01*
X0153228Y0110515D01*
X0153604Y0111425D01*
X0153733Y0112402D01*
X0153604Y0113378D01*
X0153228Y0114288D01*
X0152628Y0115069D01*
X0151847Y0115669D01*
X0150937Y0116045D01*
X0149961Y0116174D01*
X0149961Y0116174D02*
G37*
G36*
X0139961Y0116174D02*
X0138984Y0116045D01*
X0138074Y0115669D01*
X0137293Y0115069D01*
X0136694Y0114288D01*
X0136317Y0113378D01*
X0136188Y0112402D01*
X0136317Y0111425D01*
X0136694Y0110515D01*
X0137293Y0109734D01*
X0138074Y0109134D01*
X0138984Y0108758D01*
X0139961Y0108629D01*
X0140937Y0108758D01*
X0141847Y0109134D01*
X0142628Y0109734D01*
X0143228Y0110515D01*
X0143605Y0111425D01*
X0143733Y0112402D01*
X0143605Y0113378D01*
X0143228Y0114288D01*
X0142628Y0115069D01*
X0141847Y0115669D01*
X0140937Y0116045D01*
X0139961Y0116174D01*
X0139961Y0116174D02*
G37*
G36*
X0129961Y0116174D02*
X0128984Y0116045D01*
X0128074Y0115669D01*
X0127293Y0115069D01*
X0126694Y0114288D01*
X0126317Y0113378D01*
X0126188Y0112402D01*
X0126317Y0111425D01*
X0126694Y0110515D01*
X0127293Y0109734D01*
X0128074Y0109134D01*
X0128984Y0108758D01*
X0129961Y0108629D01*
X0130937Y0108758D01*
X0131847Y0109134D01*
X0132628Y0109734D01*
X0133228Y0110515D01*
X0133605Y0111425D01*
X0133733Y0112402D01*
X0133605Y0113378D01*
X0133228Y0114288D01*
X0132628Y0115069D01*
X0131847Y0115669D01*
X0130937Y0116045D01*
X0129961Y0116174D01*
X0129961Y0116174D02*
G37*
G36*
X0119961Y0116174D02*
X0118984Y0116045D01*
X0118074Y0115669D01*
X0117293Y0115069D01*
X0116694Y0114288D01*
X0116317Y0113378D01*
X0116188Y0112402D01*
X0116317Y0111425D01*
X0116694Y0110515D01*
X0117293Y0109734D01*
X0118074Y0109134D01*
X0118984Y0108758D01*
X0119961Y0108629D01*
X0120937Y0108758D01*
X0121847Y0109134D01*
X0122628Y0109734D01*
X0123228Y0110515D01*
X0123605Y0111425D01*
X0123733Y0112402D01*
X0123605Y0113378D01*
X0123228Y0114288D01*
X0122628Y0115069D01*
X0121847Y0115669D01*
X0120937Y0116045D01*
X0119961Y0116174D01*
X0119961Y0116174D02*
G37*
G36*
X0069961Y0116174D02*
X0068984Y0116045D01*
X0068074Y0115669D01*
X0067293Y0115069D01*
X0066694Y0114288D01*
X0066317Y0113378D01*
X0066188Y0112402D01*
X0066317Y0111425D01*
X0066694Y0110515D01*
X0067293Y0109734D01*
X0068074Y0109134D01*
X0068984Y0108758D01*
X0069961Y0108629D01*
X0070937Y0108758D01*
X0071847Y0109134D01*
X0072628Y0109734D01*
X0073228Y0110515D01*
X0073605Y0111425D01*
X0073733Y0112402D01*
X0073605Y0113378D01*
X0073228Y0114288D01*
X0072628Y0115069D01*
X0071847Y0115669D01*
X0070937Y0116045D01*
X0069961Y0116174D01*
X0069961Y0116174D02*
G37*
G36*
X0043883Y0111909D02*
X0040453Y0111909D01*
X0040453Y0108479D01*
X0040993Y0108551D01*
X0041954Y0108949D01*
X0042780Y0109582D01*
X0043413Y0110408D01*
X0043812Y0111370D01*
X0043883Y0111909D01*
X0043883Y0111909D02*
G37*
G36*
X0039469Y0111909D02*
X0036039Y0111909D01*
X0036110Y0111370D01*
X0036508Y0110408D01*
X0037141Y0109582D01*
X0037967Y0108949D01*
X0038929Y0108551D01*
X0039469Y0108479D01*
X0039469Y0111909D01*
X0039469Y0111909D02*
G37*
G36*
X0226969Y0098638D02*
X0224984Y0098638D01*
X0224984Y0096555D01*
X0226969Y0096555D01*
X0226969Y0098638D01*
X0226969Y0098638D02*
G37*
G36*
X0226969Y0089665D02*
X0224984Y0089665D01*
X0224984Y0087583D01*
X0226969Y0087583D01*
X0226969Y0089665D01*
X0226969Y0089665D02*
G37*
G36*
X0023095Y0085016D02*
X0019535Y0085016D01*
X0019535Y0083327D01*
X0023095Y0083327D01*
X0023095Y0085016D01*
X0023095Y0085016D02*
G37*
G36*
X0018551Y0085016D02*
X0014992Y0085016D01*
X0014992Y0083327D01*
X0018551Y0083327D01*
X0018551Y0085016D01*
X0018551Y0085016D02*
G37*
G36*
X0008283Y0060843D02*
X0006594Y0060843D01*
X0006594Y0059350D01*
X0008283Y0059350D01*
X0008283Y0060843D01*
X0008283Y0060843D02*
G37*
G36*
X0005610Y0060843D02*
X0003921Y0060843D01*
X0003921Y0059350D01*
X0005610Y0059350D01*
X0005610Y0060843D01*
X0005610Y0060843D02*
G37*
G36*
X0018913Y0061236D02*
X0015650Y0061236D01*
X0015650Y0057382D01*
X0018913Y0057382D01*
X0018913Y0061236D01*
X0018913Y0061236D02*
G37*
G36*
X0014665Y0061236D02*
X0011402Y0061236D01*
X0011402Y0057382D01*
X0014665Y0057382D01*
X0014665Y0061236D01*
X0014665Y0061236D02*
G37*
G36*
X0112402Y0057125D02*
X0111634Y0056972D01*
X0111422Y0056831D01*
X0110827Y0056598D01*
X0110232Y0056831D01*
X0110020Y0056972D01*
X0109252Y0057125D01*
X0108484Y0056972D01*
X0107833Y0056537D01*
X0107325Y0056537D01*
X0106674Y0056972D01*
X0105905Y0057125D01*
X0105137Y0056972D01*
X0104486Y0056537D01*
X0104051Y0055886D01*
X0103898Y0055118D01*
X0104051Y0054350D01*
X0104486Y0053699D01*
X0104147Y0052978D01*
X0103854Y0052540D01*
X0103702Y0051772D01*
X0103854Y0051004D01*
X0104289Y0050352D01*
X0104941Y0049917D01*
X0105709Y0049765D01*
X0106477Y0049917D01*
X0107128Y0050352D01*
X0107833Y0050352D01*
X0108484Y0049917D01*
X0109252Y0049765D01*
X0110020Y0049917D01*
X0110671Y0050352D01*
X0111179Y0050352D01*
X0111830Y0049917D01*
X0112598Y0049765D01*
X0113366Y0049917D01*
X0114018Y0050352D01*
X0114453Y0051004D01*
X0114605Y0051772D01*
X0114453Y0052540D01*
X0114160Y0052978D01*
X0113821Y0053699D01*
X0114256Y0054350D01*
X0114409Y0055118D01*
X0114256Y0055886D01*
X0113821Y0056537D01*
X0113170Y0056972D01*
X0112402Y0057125D01*
X0112402Y0057125D02*
G37*
G36*
X0226772Y0061236D02*
X0224197Y0061236D01*
X0224197Y0056398D01*
X0226772Y0056398D01*
X0226772Y0061236D01*
X0226772Y0061236D02*
G37*
G36*
X0008283Y0058366D02*
X0006102Y0058366D01*
X0003921Y0058366D01*
X0003921Y0056874D01*
X0004134Y0056175D01*
X0004134Y0053150D01*
X0004134Y0053150D01*
X0004095Y0052756D01*
X0004248Y0051988D01*
X0004683Y0051337D01*
X0005334Y0050902D01*
X0006102Y0050749D01*
X0006870Y0050902D01*
X0007522Y0051337D01*
X0007957Y0051988D01*
X0008034Y0052377D01*
X0008109Y0052756D01*
X0008071Y0053150D01*
X0008071Y0053150D01*
X0008071Y0056175D01*
X0008283Y0056874D01*
X0008283Y0057392D01*
X0008283Y0058366D01*
X0008283Y0058366D02*
G37*
G36*
X0226772Y0055413D02*
X0224197Y0055413D01*
X0224197Y0050575D01*
X0226772Y0050575D01*
X0226772Y0055413D01*
X0226772Y0055413D02*
G37*
G36*
X0184843Y0015370D02*
X0138976Y0015370D01*
X0138669Y0015309D01*
X0138409Y0015135D01*
X0138409Y0015135D01*
X0136047Y0012772D01*
X0135872Y0012512D01*
X0135811Y0012205D01*
X0135811Y0004134D01*
X0135872Y0003827D01*
X0136047Y0003566D01*
X0137424Y0002188D01*
X0137424Y0002188D01*
X0137685Y0002014D01*
X0137992Y0001953D01*
X0184646Y0001953D01*
X0184646Y0001953D01*
X0184953Y0002014D01*
X0185213Y0002188D01*
X0185213Y0002188D01*
X0186591Y0003566D01*
X0186765Y0003827D01*
X0186826Y0004134D01*
X0186826Y0013386D01*
X0186827Y0013386D01*
X0186765Y0013693D01*
X0186591Y0013953D01*
X0186591Y0013953D01*
X0185410Y0015135D01*
X0185150Y0015309D01*
X0184843Y0015370D01*
X0184843Y0015370D02*
G37*
G36*
X0040413Y-0013637D02*
X0040413Y-0017067D01*
X0043843Y-0017067D01*
X0043772Y-0016527D01*
X0043374Y-0015566D01*
X0042740Y-0014740D01*
X0041915Y-0014106D01*
X0040953Y-0013708D01*
X0040413Y-0013637D01*
X0040413Y-0013637D02*
G37*
G36*
X0039429Y-0013637D02*
X0038889Y-0013708D01*
X0037928Y-0014106D01*
X0037102Y-0014740D01*
X0036468Y-0015566D01*
X0036070Y-0016527D01*
X0035999Y-0017067D01*
X0039429Y-0017067D01*
X0039429Y-0013637D01*
X0039429Y-0013637D02*
G37*
G36*
X0179921Y-0013787D02*
X0178945Y-0013915D01*
X0178035Y-0014292D01*
X0177254Y-0014892D01*
X0176654Y-0015673D01*
X0176277Y-0016583D01*
X0176149Y-0017559D01*
X0176277Y-0018535D01*
X0176654Y-0019445D01*
X0177254Y-0020227D01*
X0178035Y-0020826D01*
X0178945Y-0021203D01*
X0179921Y-0021331D01*
X0180898Y-0021203D01*
X0181807Y-0020826D01*
X0182589Y-0020227D01*
X0183188Y-0019445D01*
X0183565Y-0018535D01*
X0183694Y-0017559D01*
X0183565Y-0016583D01*
X0183188Y-0015673D01*
X0182589Y-0014892D01*
X0181807Y-0014292D01*
X0180898Y-0013915D01*
X0179921Y-0013787D01*
X0179921Y-0013787D02*
G37*
G36*
X0169921Y-0013787D02*
X0168945Y-0013915D01*
X0168035Y-0014292D01*
X0167254Y-0014892D01*
X0166654Y-0015673D01*
X0166277Y-0016583D01*
X0166149Y-0017559D01*
X0166277Y-0018535D01*
X0166654Y-0019445D01*
X0167254Y-0020227D01*
X0168035Y-0020826D01*
X0168945Y-0021203D01*
X0169921Y-0021331D01*
X0170898Y-0021203D01*
X0171808Y-0020826D01*
X0172589Y-0020227D01*
X0173188Y-0019445D01*
X0173565Y-0018535D01*
X0173694Y-0017559D01*
X0173565Y-0016583D01*
X0173188Y-0015673D01*
X0172589Y-0014892D01*
X0171808Y-0014292D01*
X0170898Y-0013915D01*
X0169921Y-0013787D01*
X0169921Y-0013787D02*
G37*
G36*
X0159921Y-0013787D02*
X0158945Y-0013915D01*
X0158035Y-0014292D01*
X0157254Y-0014892D01*
X0156654Y-0015673D01*
X0156277Y-0016583D01*
X0156149Y-0017559D01*
X0156277Y-0018535D01*
X0156654Y-0019445D01*
X0157254Y-0020227D01*
X0158035Y-0020826D01*
X0158945Y-0021203D01*
X0159921Y-0021331D01*
X0160898Y-0021203D01*
X0161808Y-0020826D01*
X0162589Y-0020227D01*
X0163188Y-0019445D01*
X0163565Y-0018535D01*
X0163694Y-0017559D01*
X0163565Y-0016583D01*
X0163188Y-0015673D01*
X0162589Y-0014892D01*
X0161808Y-0014292D01*
X0160898Y-0013915D01*
X0159921Y-0013787D01*
X0159921Y-0013787D02*
G37*
G36*
X0043843Y-0018051D02*
X0040413Y-0018051D01*
X0040413Y-0021481D01*
X0040953Y-0021410D01*
X0041915Y-0021012D01*
X0042740Y-0020378D01*
X0043374Y-0019553D01*
X0043772Y-0018591D01*
X0043843Y-0018051D01*
X0043843Y-0018051D02*
G37*
G36*
X0039429Y-0018051D02*
X0035999Y-0018051D01*
X0036070Y-0018591D01*
X0036468Y-0019553D01*
X0037102Y-0020378D01*
X0037928Y-0021012D01*
X0038889Y-0021410D01*
X0039429Y-0021481D01*
X0039429Y-0018051D01*
X0039429Y-0018051D02*
G37*
%LPD*%
G36*
X0115157Y0300000D02*
X0097244Y0300000D01*
X0087402Y0300000D01*
X0087402Y0314175D01*
X0087402Y0314175D01*
X0087402Y0314959D01*
X0087402Y0314959D01*
X0087402Y0317793D01*
X0087402Y0317793D01*
X0087402Y0318577D01*
X0087402Y0318577D01*
X0087402Y0319685D01*
X0115157Y0319685D01*
X0115157Y0300000D01*
X0115157Y0300000D02*
G37*
%LPC*%
G36*
X0113008Y0315961D02*
X0105610Y0315961D01*
X0105610Y0309547D01*
X0113008Y0309547D01*
X0113008Y0315961D01*
X0113008Y0315961D02*
G37*
G36*
X0104626Y0315961D02*
X0097228Y0315961D01*
X0097228Y0309547D01*
X0104626Y0309547D01*
X0104626Y0315961D01*
X0104626Y0315961D02*
G37*
G36*
X0113008Y0308563D02*
X0105610Y0308563D01*
X0105610Y0302150D01*
X0113008Y0302150D01*
X0113008Y0308563D01*
X0113008Y0308563D02*
G37*
G36*
X0104626Y0308563D02*
X0097228Y0308563D01*
X0097228Y0302150D01*
X0104626Y0302150D01*
X0104626Y0308563D01*
X0104626Y0308563D02*
G37*
%LPD*%
G36*
X0132418Y0195079D02*
X0132219Y0194946D01*
X0131958Y0194555D01*
X0131867Y0194095D01*
X0131958Y0193634D01*
X0132219Y0193243D01*
X0132610Y0192982D01*
X0133071Y0192890D01*
X0138583Y0192890D01*
X0138583Y0191339D01*
X0138189Y0190945D01*
X0129778Y0190945D01*
X0129740Y0191520D01*
X0129740Y0191520D01*
X0129740Y0192618D01*
X0125689Y0192618D01*
X0125689Y0193602D01*
X0129740Y0193602D01*
X0129740Y0194587D01*
X0125689Y0194587D01*
X0125689Y0195571D01*
X0129740Y0195571D01*
X0129740Y0195669D01*
X0132239Y0195669D01*
X0132418Y0195079D01*
X0132418Y0195079D02*
G37*
G36*
X0084252Y0146457D02*
X0084252Y0137795D01*
X0072441Y0137795D01*
X0063779Y0146457D01*
X0063779Y0149020D01*
X0063862Y0149103D01*
X0066722Y0149103D01*
X0066931Y0149016D01*
X0067714Y0149016D01*
X0068438Y0149315D01*
X0068992Y0149869D01*
X0069291Y0150593D01*
X0069291Y0151376D01*
X0068992Y0152099D01*
X0068729Y0152362D01*
X0068973Y0152953D01*
X0077756Y0152953D01*
X0084252Y0146457D01*
X0084252Y0146457D02*
G37*
G36*
X0135827Y0146457D02*
X0135827Y0137205D01*
X0135925Y0129035D01*
X0133661Y0126772D01*
X0115354Y0126772D01*
X0106299Y0135827D01*
X0098592Y0135827D01*
X0098592Y0136933D01*
X0085433Y0136933D01*
X0085433Y0146063D01*
X0086417Y0147047D01*
X0135236Y0147047D01*
X0135827Y0146457D01*
X0135827Y0146457D02*
G37*
%LPC*%
G36*
X0112244Y0144131D02*
X0100886Y0144131D01*
X0100886Y0141673D01*
X0112244Y0141673D01*
X0112244Y0144131D01*
X0112244Y0144131D02*
G37*
G36*
X0099901Y0144131D02*
X0088544Y0144131D01*
X0088544Y0141673D01*
X0099901Y0141673D01*
X0099901Y0144131D01*
X0099901Y0144131D02*
G37*
G36*
X0112244Y0140689D02*
X0100886Y0140689D01*
X0100886Y0138231D01*
X0112244Y0138231D01*
X0112244Y0140689D01*
X0112244Y0140689D02*
G37*
G36*
X0099901Y0140689D02*
X0088544Y0140689D01*
X0088544Y0138231D01*
X0099901Y0138231D01*
X0099901Y0140689D01*
X0099901Y0140689D02*
G37*
%LPD*%
G36*
X0186024Y0013386D02*
X0186024Y0004134D01*
X0184646Y0002756D01*
X0137992Y0002756D01*
X0136614Y0004134D01*
X0136614Y0012205D01*
X0138976Y0014567D01*
X0184843Y0014567D01*
X0186024Y0013386D01*
X0186024Y0013386D02*
G37*
%LPC*%
G36*
X0113008Y0292339D02*
X0105610Y0292339D01*
X0105610Y0285925D01*
X0113008Y0285925D01*
X0113008Y0292339D01*
X0113008Y0292339D02*
G37*
G36*
X0104626Y0292339D02*
X0097228Y0292339D01*
X0097228Y0285925D01*
X0104626Y0285925D01*
X0104626Y0292339D01*
X0104626Y0292339D02*
G37*
G36*
X0113008Y0284941D02*
X0105610Y0284941D01*
X0105610Y0278528D01*
X0113008Y0278528D01*
X0113008Y0284941D01*
X0113008Y0284941D02*
G37*
G36*
X0104626Y0284941D02*
X0097228Y0284941D01*
X0097228Y0278528D01*
X0104626Y0278528D01*
X0104626Y0284941D01*
X0104626Y0284941D02*
G37*
G36*
X0129740Y0265567D02*
X0126181Y0265567D01*
X0126181Y0264469D01*
X0129740Y0264469D01*
X0129740Y0265567D01*
X0129740Y0265567D02*
G37*
G36*
X0125197Y0265567D02*
X0121638Y0265567D01*
X0121638Y0264469D01*
X0125197Y0264469D01*
X0125197Y0265567D01*
X0125197Y0265567D02*
G37*
G36*
X0129740Y0263484D02*
X0125689Y0263484D01*
X0121638Y0263484D01*
X0121638Y0262500D01*
X0125689Y0262500D01*
X0129740Y0262500D01*
X0129740Y0263484D01*
X0129740Y0263484D02*
G37*
G36*
X0129740Y0261516D02*
X0125689Y0261516D01*
X0121638Y0261516D01*
X0121638Y0260532D01*
X0125689Y0260532D01*
X0129740Y0260532D01*
X0129740Y0261516D01*
X0129740Y0261516D02*
G37*
G36*
X0038254Y0153362D02*
X0030856Y0153362D01*
X0030856Y0150492D01*
X0038254Y0150492D01*
X0038254Y0153362D01*
X0038254Y0153362D02*
G37*
G36*
X0029872Y0153362D02*
X0022474Y0153362D01*
X0022474Y0150492D01*
X0029872Y0150492D01*
X0029872Y0153362D01*
X0029872Y0153362D02*
G37*
%LPD*%
D11*
X0248622Y0322835D02*
X0248622Y0326378D01*
X0248622Y0326378D01*
X0218602Y0331004D02*
X0226575Y0323031D01*
X0218602Y0331004D02*
X0218602Y0335925D01*
X0216800Y0335698D02*
X0218375Y0335698D01*
X0215484Y0334381D02*
X0216800Y0335698D01*
X0213712Y0334381D02*
X0215484Y0334381D01*
X0213583Y0340158D02*
X0213583Y0342913D01*
X0213583Y0340158D02*
X0213583Y0340158D01*
X0226575Y0292390D02*
X0226575Y0323031D01*
X0218602Y0335925D02*
X0218602Y0338878D01*
X0248622Y0340158D02*
X0248622Y0340158D01*
X0248622Y0340158D02*
X0248622Y0343307D01*
X0244291Y0335827D02*
X0245866Y0334252D01*
X0248622Y0334252D01*
X0248622Y0330315D02*
X0248622Y0334252D01*
X0235236Y0330315D02*
X0248622Y0330315D01*
X0244291Y0335827D02*
X0244291Y0338779D01*
X0223948Y0289764D02*
X0226575Y0292390D01*
X0183071Y0289764D02*
X0223948Y0289764D01*
X0227953Y0323031D02*
X0235236Y0330315D01*
X0227953Y0291820D02*
X0227953Y0323031D01*
X0220188Y0284055D02*
X0227953Y0291820D01*
X0183071Y0284055D02*
X0220188Y0284055D01*
X0210531Y0204823D02*
X0210630Y0204724D01*
X0182283Y0204921D02*
X0182382Y0204823D01*
X0210531Y0204823D01*
X0133071Y0194095D02*
X0160236Y0194095D01*
X0171063Y0204921D01*
X0179331Y0131496D02*
X0179331Y0144488D01*
X0135020Y0284055D02*
X0167717Y0284055D01*
X0126161Y0275197D02*
X0135020Y0284055D01*
X0116319Y0275197D02*
X0126161Y0275197D01*
X0109252Y0268130D02*
X0116319Y0275197D01*
X0109252Y0263996D02*
X0109252Y0268130D01*
X0100374Y0255118D02*
X0109252Y0263996D01*
X0095965Y0255118D02*
X0100374Y0255118D01*
X0107874Y0264567D02*
X0107874Y0268701D01*
X0115748Y0276575D02*
X0125591Y0276575D01*
X0107874Y0268701D02*
X0115748Y0276575D01*
X0100394Y0257087D02*
X0107874Y0264567D01*
X0095965Y0257087D02*
X0100394Y0257087D01*
X0095965Y0257087D02*
X0095965Y0257087D01*
X0187795Y0114567D02*
X0189961Y0112402D01*
X0187795Y0110236D02*
X0189961Y0112402D01*
X0042815Y0014961D02*
X0047835Y0014961D01*
X0042815Y0012992D02*
X0047835Y0012992D01*
X0125591Y0276575D02*
X0138779Y0289764D01*
X0167913Y0289764D01*
X0169961Y0132795D02*
X0169961Y0147953D01*
X0149213Y0168701D02*
X0169961Y0147953D01*
X0082745Y0257087D02*
X0095965Y0257087D01*
X0080512Y0254854D02*
X0082745Y0257087D01*
X0080512Y0185236D02*
X0080512Y0254854D01*
X0080512Y0185236D02*
X0100787Y0164961D01*
X0127953Y0164961D02*
X0131693Y0168701D01*
X0100787Y0164961D02*
X0127953Y0164961D01*
X0131693Y0168701D02*
X0149213Y0168701D01*
X0054005Y0158661D02*
X0057480Y0158661D01*
X0053543Y0158200D02*
X0054005Y0158661D01*
X0057480Y0158661D02*
X0060827Y0162008D01*
X0053150Y0162008D02*
X0057765Y0162008D01*
X0053543Y0153150D02*
X0053543Y0158200D01*
X0057765Y0162008D02*
X0057819Y0162063D01*
X0047244Y0156102D02*
X0053150Y0162008D01*
X0049409Y0149016D02*
X0053543Y0153150D01*
X0079724Y0047441D02*
X0079724Y0047441D01*
X0079724Y0047441D02*
X0130512Y0047441D01*
X0056102Y0116260D02*
X0056102Y0118701D01*
X0050000Y0122441D02*
X0052362Y0122441D01*
X0056102Y0118701D01*
X0049409Y0123031D02*
X0050000Y0122441D01*
X0049409Y0123031D02*
X0049409Y0149016D01*
X0047244Y0116142D02*
X0047244Y0156102D01*
X0027362Y0167520D02*
X0031496Y0167520D01*
X0023228Y0167520D02*
X0023228Y0171260D01*
X0050000Y0112402D02*
X0050000Y0113386D01*
X0125787Y0252067D02*
X0142224Y0252067D01*
X0125689Y0252165D02*
X0125787Y0252067D01*
X0142224Y0252067D02*
X0142323Y0251969D01*
X0125689Y0254134D02*
X0143898Y0254134D01*
X0146653Y0251378D01*
X0083465Y0185630D02*
X0102362Y0166732D01*
X0126575Y0166732D02*
X0131496Y0171653D01*
X0102362Y0166732D02*
X0126575Y0166732D01*
X0199803Y0107480D02*
X0201575Y0109252D01*
X0212992Y0109252D01*
X0219488Y0115748D01*
X0219488Y0148425D01*
X0213386Y0154528D02*
X0219488Y0148425D01*
X0197441Y0154528D02*
X0213386Y0154528D01*
X0194488Y0151575D02*
X0197441Y0154528D01*
X0189961Y0151575D02*
X0194488Y0151575D01*
X0200000Y0112205D02*
X0210433Y0112205D01*
X0217126Y0118898D02*
X0217126Y0145079D01*
X0210433Y0112205D02*
X0217126Y0118898D01*
X0197047Y0115157D02*
X0202716Y0115157D01*
X0209961Y0122402D01*
X0195866Y0113976D02*
X0197047Y0115157D01*
X0195866Y0106761D02*
X0195866Y0113976D01*
X0195405Y0106299D02*
X0195866Y0106761D01*
X0186063Y0106299D02*
X0195405Y0106299D01*
X0211024Y0151181D02*
X0217126Y0145079D01*
X0199803Y0151181D02*
X0211024Y0151181D01*
X0179961Y0112402D02*
X0186063Y0106299D01*
X0194735Y0117176D02*
X0200197Y0122638D01*
X0174735Y0117176D02*
X0194735Y0117176D01*
X0169961Y0112402D02*
X0174735Y0117176D01*
X0083465Y0185630D02*
X0083465Y0253937D01*
X0084646Y0255118D02*
X0095965Y0255118D01*
X0083465Y0253937D02*
X0084646Y0255118D01*
X0131496Y0171653D02*
X0152165Y0171653D01*
X0179331Y0144488D01*
X0135610Y0245472D02*
X0167255Y0245472D01*
X0168239Y0246457D01*
X0168504Y0246457D01*
X0125689Y0250197D02*
X0130886Y0250197D01*
X0135610Y0245472D01*
X0135236Y0243701D02*
X0170079Y0243701D01*
X0130709Y0248228D02*
X0135236Y0243701D01*
X0135039Y0241339D02*
X0168504Y0241339D01*
X0130118Y0246260D02*
X0135039Y0241339D01*
X0170079Y0243701D02*
X0171457Y0245079D01*
X0171457Y0248425D01*
X0169488Y0250394D02*
X0171457Y0248425D01*
X0125689Y0246260D02*
X0130118Y0246260D01*
X0125689Y0248228D02*
X0130709Y0248228D01*
X0126771Y-0006693D02*
X0126771Y0029004D01*
X0130905Y0033138D01*
X0159449Y0104134D02*
X0170079Y0093504D01*
X0115157Y0104134D02*
X0159449Y0104134D01*
X0150000Y0089764D02*
X0150000Y0089764D01*
X0140354Y0099410D02*
X0150000Y0089764D01*
X0117913Y0099410D02*
X0140354Y0099410D01*
X0072539Y0055315D02*
X0085433Y0055315D01*
X0120079Y0089961D01*
X0132874Y0097047D02*
X0140157Y0089764D01*
X0118484Y0097047D02*
X0132874Y0097047D01*
X0119291Y0094291D02*
X0125787Y0094291D01*
X0130118Y0089961D01*
X0115945Y0101575D02*
X0151969Y0101575D01*
X0160236Y0093307D01*
X0083465Y-0009055D02*
X0083465Y0037225D01*
X0077185Y0043504D02*
X0083465Y0037225D01*
X0079921Y-0012598D02*
X0083465Y-0009055D01*
X0077756Y0045472D02*
X0089921Y0033307D01*
X0089921Y-0017480D02*
X0089921Y0033307D01*
X0079921Y-0017559D02*
X0079921Y-0012598D01*
X0081102Y-0006378D02*
X0081102Y0037028D01*
X0069921Y-0017559D02*
X0081102Y-0006378D01*
X0095866Y0000394D02*
X0095866Y0014960D01*
X0056102Y0116260D02*
X0059961Y0112402D01*
X0063189Y0064106D02*
X0064382Y0065298D01*
X0063189Y0050787D02*
X0064567Y0049409D01*
X0064382Y0065298D02*
X0064382Y0065354D01*
X0063189Y0050787D02*
X0063189Y0064106D01*
X0173858Y0106299D02*
X0179961Y0112402D01*
X0113976Y0106299D02*
X0173858Y0106299D01*
X0076772Y0069095D02*
X0113976Y0106299D01*
X0079527Y0065158D02*
X0115945Y0101575D01*
X0079724Y0061221D02*
X0117913Y0099410D01*
X0081299Y0106496D02*
X0084842Y0110039D01*
X0052264Y0096161D02*
X0062598Y0106496D01*
X0081299Y0106496D01*
X0053740Y0095276D02*
X0061614Y0103150D01*
X0080709Y0103150D02*
X0089961Y0112402D01*
X0061614Y0103150D02*
X0080709Y0103150D01*
X0057677Y0096260D02*
X0061811Y0100394D01*
X0097953Y0100394D02*
X0109961Y0112402D01*
X0061811Y0100394D02*
X0097953Y0100394D01*
X0061221Y0091535D02*
X0065354Y0091535D01*
X0070079Y0096260D01*
X0079921Y0096063D02*
X0079921Y0096063D01*
X0067913Y0084055D02*
X0079921Y0096063D01*
X0067913Y0073819D02*
X0067913Y0084055D01*
X0072539Y0067126D02*
X0078150Y0067126D01*
X0115157Y0104134D01*
X0072539Y0069095D02*
X0076772Y0069095D01*
X0080689Y0059252D02*
X0118484Y0097047D01*
X0082284Y0057284D02*
X0119291Y0094291D01*
X0072539Y0057284D02*
X0082284Y0057284D01*
X0072539Y0061221D02*
X0079724Y0061221D01*
X0055118Y0054744D02*
X0055118Y0071063D01*
X0055118Y0054744D02*
X0057874Y0051988D01*
X0057284Y0054527D02*
X0059252Y0052559D01*
X0057284Y0054527D02*
X0057284Y0071960D01*
X0059252Y0025531D02*
X0059252Y0052559D01*
X0057874Y0024960D02*
X0057874Y0051988D01*
X0072539Y0059252D02*
X0080689Y0059252D01*
X0072539Y0047441D02*
X0079724Y0047441D01*
X0046994Y0074016D02*
X0047584Y0074606D01*
X0042815Y0074016D02*
X0046994Y0074016D01*
X0050000Y0061417D02*
X0050000Y0082874D01*
X0045880Y0075984D02*
X0047835Y0077939D01*
X0046831Y0056299D02*
X0051378Y0060847D01*
X0050000Y0082874D02*
X0052264Y0085138D01*
X0046850Y0058268D02*
X0050000Y0061417D01*
X0051378Y0082303D02*
X0053740Y0084665D01*
X0047835Y0077939D02*
X0047835Y0077953D01*
X0051378Y0060847D02*
X0051378Y0082303D01*
X0042815Y0075984D02*
X0045880Y0075984D01*
X0053740Y0084665D02*
X0053740Y0095276D01*
X0052264Y0085138D02*
X0052264Y0096161D01*
X0056901Y0072342D02*
X0057284Y0071960D01*
X0056901Y0072342D02*
X0056901Y0080130D01*
X0059055Y0085433D02*
X0065158Y0079331D01*
X0065158Y0073425D02*
X0067520Y0071063D01*
X0063779Y0072638D02*
X0067925Y0068492D01*
X0057677Y0084646D02*
X0063779Y0078543D01*
X0065158Y0073425D02*
X0065158Y0079331D01*
X0063779Y0072638D02*
X0063779Y0078543D01*
X0130905Y0033138D02*
X0130905Y0047441D01*
X0030207Y0026772D02*
X0033661Y0026772D01*
X0030207Y0026772D02*
X0030207Y0026772D01*
X0033661Y0026772D02*
X0033858Y0026969D01*
X0033661Y0014961D02*
X0033661Y0014961D01*
X0064567Y0017913D02*
X0072539Y0017913D01*
X0068386Y0063189D02*
X0072539Y0063189D01*
X0066547Y0051839D02*
X0066547Y0066251D01*
X0067925Y0063650D02*
X0068386Y0063189D01*
X0064491Y0068307D02*
X0066547Y0066251D01*
X0067008Y0051378D02*
X0072539Y0051378D01*
X0067925Y0063650D02*
X0067925Y0068492D01*
X0064382Y0068307D02*
X0064491Y0068307D01*
X0066547Y0051839D02*
X0067008Y0051378D01*
X0067520Y0071063D02*
X0072539Y0071063D01*
X0068701Y0073032D02*
X0072539Y0073032D01*
X0067913Y0073819D02*
X0068701Y0073032D01*
X0089764Y0203937D02*
X0095965Y0203937D01*
X0095965Y0203937D01*
X0047244Y0116142D02*
X0050000Y0113386D01*
X0047835Y0034055D02*
X0047835Y0042716D01*
X0047835Y0042717D01*
X0057677Y0084646D02*
X0057677Y0096260D01*
X0057677Y-0009803D02*
X0057677Y0021260D01*
X0059055Y-0016693D02*
X0059055Y0021831D01*
X0060433Y0006496D02*
X0060433Y0022401D01*
X0060433Y0006496D02*
X0064606Y0002323D01*
X0061811Y0014764D02*
X0061811Y0022972D01*
X0061811Y0014764D02*
X0066732Y0009843D01*
X0066732Y0003150D02*
X0066732Y0009843D01*
X0065984Y0002402D02*
X0066732Y0003150D01*
X0065984Y-0019331D02*
X0065984Y0002402D01*
X0064606Y-0019902D02*
X0064606Y0002323D01*
X0067579Y-0022874D02*
X0144606Y-0022874D01*
X0149921Y-0017559D01*
X0064606Y-0019902D02*
X0067579Y-0022874D01*
X0065984Y-0019331D02*
X0068150Y-0021496D01*
X0137362Y-0021496D01*
X0139921Y-0018937D01*
X0059252Y0025531D02*
X0061811Y0022972D01*
X0057874Y0024960D02*
X0060433Y0022401D01*
X0059055Y-0016693D02*
X0059921Y-0017559D01*
X0056496Y0024390D02*
X0056496Y0048031D01*
X0056496Y0024390D02*
X0059055Y0021831D01*
X0049921Y-0017559D02*
X0057677Y-0009803D01*
X0055118Y0023819D02*
X0057677Y0021260D01*
X0052165Y0052362D02*
X0056496Y0048031D01*
X0042815Y0052362D02*
X0052165Y0052362D01*
X0055118Y0023819D02*
X0055118Y0046850D01*
X0051575Y0050394D02*
X0055118Y0046850D01*
X0042815Y0050394D02*
X0051575Y0050394D01*
X0064567Y0049409D02*
X0072539Y0049409D01*
X0042815Y0056299D02*
X0046831Y0056299D01*
X0042815Y0058268D02*
X0046850Y0058268D01*
X0052559Y0038386D02*
X0052559Y0045866D01*
X0050591Y0047835D02*
X0052559Y0045866D01*
X0047835Y0047835D02*
X0050591Y0047835D01*
X0019043Y0071024D02*
X0036772Y0071024D01*
X0036811Y0071063D01*
X0039750Y0022835D02*
X0042815Y0022835D01*
X0006102Y0052756D02*
X0006102Y0054921D01*
X0050000Y0045275D02*
X0050000Y0045275D01*
X0050000Y0036220D02*
X0050000Y0045275D01*
X0064370Y0017717D02*
X0064567Y0017913D01*
X0065158Y0019882D02*
X0072539Y0019882D01*
X0064370Y0020669D02*
X0065158Y0019882D01*
X0066251Y0021850D02*
X0072539Y0021850D01*
X0064480Y0023622D02*
X0066251Y0021850D01*
X0064370Y0023622D02*
X0064480Y0023622D01*
X0067235Y0023819D02*
X0072539Y0023819D01*
X0072539Y0041535D02*
X0076595Y0041535D01*
X0072539Y0043504D02*
X0077185Y0043504D01*
X0072539Y0045472D02*
X0077756Y0045472D01*
X0076595Y0041535D02*
X0081102Y0037028D01*
X0062008Y0028937D02*
X0062117Y0028937D01*
X0067235Y0023819D01*
X0065157Y0029134D02*
X0068504Y0025787D01*
X0072539Y0025787D01*
X0042815Y0022835D02*
X0047047Y0022835D01*
X0019398Y0074606D02*
X0034843Y0074606D01*
X0019043Y0074961D02*
X0019398Y0074606D01*
X0036811Y0071063D02*
X0037008Y0071260D01*
X0084842Y0110039D02*
X0084842Y0113386D01*
X0087795Y0116339D02*
X0096024Y0116339D01*
X0084842Y0113386D02*
X0087795Y0116339D01*
X0096024Y0116339D02*
X0099961Y0112402D01*
X0034843Y0074606D02*
X0034843Y0097441D01*
X0049803Y0112402D01*
X0049961Y0112402D01*
X0072539Y0065158D02*
X0079527Y0065158D01*
X0059961Y0108386D02*
X0059961Y0112402D01*
X0057284Y0105709D02*
X0059961Y0108386D01*
X0045059Y0105709D02*
X0057284Y0105709D01*
X0037008Y0071260D02*
X0037008Y0097658D01*
X0045059Y0105709D01*
X0059055Y0085433D02*
X0059055Y0089370D01*
X0061221Y0091535D01*
X0094094Y0016732D02*
X0094783Y0016043D01*
X0095866Y0014960D01*
D16*
X0233858Y0338779D02*
X0233860Y0338781D01*
X0233860Y0342571D02*
X0233862Y0342573D01*
X0233860Y0338781D02*
X0233860Y0342571D01*
X0233858Y0335827D02*
X0233858Y0338779D01*
D24*
X0100394Y0151181D02*
D03*
X0100394Y0141181D02*
D03*
D31*
X0105118Y0309055D02*
D03*
X0105118Y0285433D02*
D03*
D40*
X0030512Y-0004134D02*
D03*
X0223895Y0141568D02*
D03*
X0203937Y0337795D02*
D03*
D67*
X0039961Y0112402D02*
D03*
X0039921Y-0017559D02*
D03*
X0049961Y0112402D02*
D03*
X0059961Y0112402D02*
D03*
X0069961Y0112402D02*
D03*
X0079961Y0112402D02*
D03*
X0089961Y0112402D02*
D03*
X0099961Y0112402D02*
D03*
X0109961Y0112402D02*
D03*
X0119961Y0112402D02*
D03*
X0129961Y0112402D02*
D03*
X0139961Y0112402D02*
D03*
X0149961Y0112402D02*
D03*
X0159961Y0112402D02*
D03*
X0169961Y0112402D02*
D03*
X0179961Y0112402D02*
D03*
X0179921Y-0017559D02*
D03*
X0169921Y-0017559D02*
D03*
X0159921Y-0017559D02*
D03*
X0149921Y-0017559D02*
D03*
X0139921Y-0017559D02*
D03*
X0129921Y-0017559D02*
D03*
X0119921Y-0017559D02*
D03*
X0109921Y-0017559D02*
D03*
X0099921Y-0017559D02*
D03*
X0089921Y-0017559D02*
D03*
X0079921Y-0017559D02*
D03*
X0069921Y-0017559D02*
D03*
X0059921Y-0017559D02*
D03*
X0049921Y-0017559D02*
D03*
D68*
X0119961Y0332422D02*
D03*
X0109961Y0332422D02*
D03*
X0129961Y0332422D02*
D03*
D75*
X0189961Y0112402D02*
D03*
X0189921Y-0017559D02*
D03*
D78*
X0229035Y0335925D02*
D03*
X0229035Y0338878D02*
D03*
X0218602Y0335925D02*
D03*
X0218602Y0338878D02*
D03*
X0233858Y0338779D02*
D03*
X0233858Y0335827D02*
D03*
X0244291Y0338779D02*
D03*
X0244291Y0335827D02*
D03*
D79*
X0248622Y0330315D02*
D03*
X0248622Y0326378D02*
D03*
X0006102Y0058858D02*
D03*
X0006102Y0054921D02*
D03*
D80*
X0213583Y0340158D02*
D03*
X0213583Y0334252D02*
D03*
X0248622Y0340158D02*
D03*
X0248622Y0334252D02*
D03*
D81*
X0274213Y0228543D02*
D03*
X0194488Y0047441D02*
D03*
X0274213Y0228543D02*
D03*
X0194413Y0047441D02*
D03*
D82*
X0095965Y0229528D02*
D03*
X0095965Y0223622D02*
D03*
X0095965Y0241339D02*
D03*
X0095965Y0247244D02*
D03*
X0095965Y0235433D02*
D03*
X0095965Y0262992D02*
D03*
X0095965Y0261024D02*
D03*
X0125689Y0197047D02*
D03*
X0125689Y0208858D02*
D03*
X0095965Y0194095D02*
D03*
X0095965Y0196063D02*
D03*
X0095965Y0201969D02*
D03*
X0042815Y0081890D02*
D03*
X0042815Y0079921D02*
D03*
X0042815Y0060236D02*
D03*
X0042815Y0066142D02*
D03*
X0042815Y0054331D02*
D03*
X0042815Y0042520D02*
D03*
X0042815Y0048425D02*
D03*
X0072539Y0027756D02*
D03*
X0072539Y0015945D02*
D03*
X0042815Y0020866D02*
D03*
X0042815Y0012992D02*
D03*
X0042815Y0014961D02*
D03*
X0095965Y0257087D02*
D03*
X0042815Y0018898D02*
D03*
X0042815Y0016929D02*
D03*
X0042815Y0077953D02*
D03*
X0042815Y0075984D02*
D03*
X0042815Y0083858D02*
D03*
X0042815Y0068110D02*
D03*
X0042815Y0070079D02*
D03*
X0042815Y0074016D02*
D03*
X0042815Y0072047D02*
D03*
X0042815Y0062205D02*
D03*
X0042815Y0064173D02*
D03*
X0042815Y0058268D02*
D03*
X0042815Y0050394D02*
D03*
X0042815Y0052362D02*
D03*
X0042815Y0056299D02*
D03*
X0072539Y0082874D02*
D03*
X0072539Y0080905D02*
D03*
X0072539Y0078937D02*
D03*
X0072539Y0076968D02*
D03*
X0072539Y0067126D02*
D03*
X0072539Y0069095D02*
D03*
X0072539Y0065158D02*
D03*
X0072539Y0075000D02*
D03*
X0072539Y0073032D02*
D03*
X0072539Y0071063D02*
D03*
X0072539Y0061221D02*
D03*
X0072539Y0063189D02*
D03*
X0072539Y0059252D02*
D03*
X0072539Y0057284D02*
D03*
X0072539Y0049409D02*
D03*
X0072539Y0051378D02*
D03*
X0072539Y0047441D02*
D03*
X0072539Y0055315D02*
D03*
X0072539Y0053346D02*
D03*
X0042815Y0040551D02*
D03*
X0042815Y0038583D02*
D03*
X0042815Y0046457D02*
D03*
X0042815Y0044488D02*
D03*
X0042815Y0030709D02*
D03*
X0042815Y0032677D02*
D03*
X0042815Y0028740D02*
D03*
X0042815Y0036614D02*
D03*
X0042815Y0034646D02*
D03*
X0042815Y0022835D02*
D03*
X0042815Y0026772D02*
D03*
X0042815Y0024803D02*
D03*
X0042815Y0011024D02*
D03*
X0072539Y0039567D02*
D03*
X0072539Y0041535D02*
D03*
X0072539Y0037598D02*
D03*
X0072539Y0045472D02*
D03*
X0072539Y0043504D02*
D03*
X0072539Y0031693D02*
D03*
X0072539Y0035630D02*
D03*
X0072539Y0033661D02*
D03*
X0072539Y0029724D02*
D03*
X0072539Y0025787D02*
D03*
X0072539Y0023819D02*
D03*
X0072539Y0021850D02*
D03*
X0072539Y0013976D02*
D03*
X0072539Y0012008D02*
D03*
X0072539Y0019882D02*
D03*
X0072539Y0017913D02*
D03*
X0095965Y0200000D02*
D03*
X0095965Y0198031D02*
D03*
X0095965Y0259055D02*
D03*
X0095965Y0264961D02*
D03*
X0095965Y0249213D02*
D03*
X0095965Y0251181D02*
D03*
X0095965Y0255118D02*
D03*
X0095965Y0253150D02*
D03*
X0095965Y0243307D02*
D03*
X0095965Y0245276D02*
D03*
X0095965Y0239370D02*
D03*
X0095965Y0231496D02*
D03*
X0095965Y0233465D02*
D03*
X0095965Y0237402D02*
D03*
X0125689Y0263976D02*
D03*
X0125689Y0262008D02*
D03*
X0125689Y0260039D02*
D03*
X0125689Y0258071D02*
D03*
X0125689Y0248228D02*
D03*
X0125689Y0250197D02*
D03*
X0125689Y0246260D02*
D03*
X0125689Y0256102D02*
D03*
X0125689Y0254134D02*
D03*
X0125689Y0252165D02*
D03*
X0125689Y0242323D02*
D03*
X0125689Y0244291D02*
D03*
X0125689Y0240354D02*
D03*
X0125689Y0238386D02*
D03*
X0125689Y0230512D02*
D03*
X0125689Y0232480D02*
D03*
X0125689Y0228543D02*
D03*
X0125689Y0236417D02*
D03*
X0125689Y0234449D02*
D03*
X0095965Y0221654D02*
D03*
X0095965Y0219685D02*
D03*
X0095965Y0227559D02*
D03*
X0095965Y0225591D02*
D03*
X0095965Y0211811D02*
D03*
X0095965Y0213779D02*
D03*
X0095965Y0209842D02*
D03*
X0095965Y0217717D02*
D03*
X0095965Y0215748D02*
D03*
X0095965Y0203937D02*
D03*
X0095965Y0207874D02*
D03*
X0095965Y0205906D02*
D03*
X0095965Y0192126D02*
D03*
X0125689Y0220669D02*
D03*
X0125689Y0222638D02*
D03*
X0125689Y0218701D02*
D03*
X0125689Y0226575D02*
D03*
X0125689Y0224606D02*
D03*
X0125689Y0212795D02*
D03*
X0125689Y0216732D02*
D03*
X0125689Y0214764D02*
D03*
X0125689Y0210827D02*
D03*
X0125689Y0206890D02*
D03*
X0125689Y0204921D02*
D03*
X0125689Y0202953D02*
D03*
X0125689Y0195079D02*
D03*
X0125689Y0193110D02*
D03*
X0125689Y0200984D02*
D03*
X0125689Y0199016D02*
D03*
D83*
X0227461Y0112598D02*
D03*
X0227461Y0090158D02*
D03*
X0227461Y0096063D02*
D03*
X0238748Y0118503D02*
D03*
X0233039Y0118503D02*
D03*
X0233169Y0096063D02*
D03*
X0233169Y0112598D02*
D03*
X0233169Y0090158D02*
D03*
D84*
X0238878Y0055905D02*
D03*
X0227264Y0055905D02*
D03*
D85*
X0030364Y0142126D02*
D03*
X0030364Y0150000D02*
D03*
D86*
X0019043Y0082835D02*
D03*
X0019043Y0071024D02*
D03*
X0019043Y0074961D02*
D03*
X0019043Y0078898D02*
D03*
D87*
X0015157Y0047638D02*
D03*
X0015157Y0056890D02*
D03*
X0026969Y0056890D02*
D03*
X0026969Y0047638D02*
D03*
D88*
X0029026Y0009843D02*
D03*
X0029026Y0035039D02*
D03*
X0029026Y0033858D02*
D03*
X0029026Y0008661D02*
D03*
X0029026Y0011811D02*
D03*
X0029026Y0030709D02*
D03*
X0029026Y0020866D02*
D03*
X0029026Y0022835D02*
D03*
X0029026Y0018898D02*
D03*
X0029026Y0024803D02*
D03*
X0029026Y0016929D02*
D03*
X0029026Y0026772D02*
D03*
X0029026Y0014961D02*
D03*
X0029026Y0028740D02*
D03*
X0029026Y0012992D02*
D03*
X0029026Y0031890D02*
D03*
D89*
X0045866Y0088189D02*
D03*
X0045866Y0006693D02*
D03*
X0099016Y0269291D02*
D03*
X0099016Y0187795D02*
D03*
D90*
X0007480Y0132677D02*
D03*
X0007480Y0159449D02*
D03*
D91*
X0005138Y0065905D02*
D03*
X0005138Y0087953D02*
D03*
D92*
X0283071Y0111024D02*
D03*
X0283071Y0012598D02*
D03*
X0283071Y0118898D02*
D03*
X0283071Y0004724D02*
D03*
D93*
X0283071Y0103150D02*
D03*
X0283071Y0020472D02*
D03*
X0283071Y0061811D02*
D03*
D94*
X0233071Y0061910D02*
D03*
D95*
X0268307Y0012617D02*
D03*
X0268307Y0018326D02*
D03*
X0268701Y0110862D02*
D03*
X0268701Y0105154D02*
D03*
X0233176Y0107184D02*
D03*
X0233176Y0101476D02*
D03*
X0274213Y0110763D02*
D03*
X0274213Y0105054D02*
D03*
X0233071Y0073819D02*
D03*
X0233071Y0068110D02*
D03*
X0233071Y0078740D02*
D03*
X0233071Y0084449D02*
D03*
X0274213Y0012617D02*
D03*
X0274213Y0018326D02*
D03*
D96*
X0091705Y0132795D02*
D03*
X0091705Y0159567D02*
D03*
D97*
X0023228Y0167520D02*
D03*
X0027165Y0167520D02*
D03*
D98*
X0010345Y0038858D02*
D03*
D99*
X0010345Y0004843D02*
D03*
X0010345Y0038858D02*
D03*
X0010345Y0004843D02*
D03*
X0010345Y0038858D02*
D03*
D100*
X0026801Y0004843D02*
D03*
X0026801Y0038858D02*
D03*
D03*
X0026801Y0004843D02*
D03*
D101*
X0228937Y0343110D02*
X0228986Y0343061D01*
X0228986Y0338927D02*
X0228986Y0343061D01*
X0228986Y0338927D02*
X0229035Y0338878D01*
X0229035Y0335925D02*
X0229035Y0338878D01*
X0055512Y0010039D02*
X0056102Y0009449D01*
X0008957Y0047736D02*
X0015216Y0047736D01*
X0015315Y0047638D01*
X0015216Y0047736D02*
X0015216Y0056890D01*
X0072539Y0027756D02*
X0077165Y0027756D01*
X0040157Y0094488D02*
X0046457Y0094488D01*
X0038583Y0082779D02*
X0039275Y0082087D01*
X0038583Y0092913D02*
X0040157Y0094488D01*
X0038583Y0085433D02*
X0038583Y0092913D01*
X0038583Y0085433D02*
X0038583Y0085433D01*
X0038583Y0082779D02*
X0038583Y0085433D01*
X0042618Y0082087D02*
X0042815Y0081890D01*
X0038976Y0079921D02*
X0042815Y0079921D01*
X0039275Y0082087D02*
X0042618Y0082087D01*
X0038583Y0080315D02*
X0038583Y0085433D01*
X0038583Y0080315D02*
X0038976Y0079921D01*
X0067913Y0015945D02*
X0072539Y0015945D01*
X0067716Y0015748D02*
X0067913Y0015945D01*
X0047835Y0012992D02*
X0047835Y0012992D01*
X0047835Y0012992D02*
X0047835Y0014961D01*
X0047835Y0012992D02*
X0048031Y0012795D01*
X0046850Y0020669D02*
X0047835Y0019685D01*
X0046150Y0020669D02*
X0046850Y0020669D01*
X0043012Y0020866D02*
X0045954Y0020866D01*
X0046150Y0020669D01*
X0047835Y0014961D02*
X0047835Y0019685D01*
X0020276Y0047638D02*
X0021457Y0048819D01*
X0021850Y0048819D01*
X0006102Y0058858D02*
X0006102Y0058858D01*
X0008465Y0047244D02*
X0008957Y0047736D01*
X0015315Y0047638D02*
X0020276Y0047638D01*
X0094095Y0043701D02*
X0094291Y0043701D01*
X0109921Y0028071D01*
X0078222Y0034121D02*
X0078448Y0034347D01*
X0078222Y0033143D02*
X0078222Y0034121D01*
X0076772Y0031693D02*
X0078222Y0033143D01*
X0098622Y0001575D02*
X0099921Y0000276D01*
X0099921Y-0017559D02*
X0099921Y0000276D01*
X0098622Y0001575D02*
X0098622Y0028150D01*
X0085433Y0041339D02*
X0098622Y0028150D01*
X0109921Y-0017559D02*
X0109921Y0028071D01*
X0029026Y0030709D02*
X0035630Y0030709D01*
X0022047Y0016535D02*
X0025591Y0012992D01*
X0022047Y0016535D02*
X0022047Y0026286D01*
X0026469Y0030709D02*
X0029026Y0030709D01*
X0022047Y0026286D02*
X0026469Y0030709D01*
X0037205Y0024016D02*
X0037205Y0029134D01*
X0030207Y0014961D02*
X0033661Y0014961D01*
X0035630Y0033465D02*
X0035630Y0060433D01*
X0035630Y0032874D02*
X0035630Y0033465D01*
X0050394Y0025787D02*
X0055512Y0020669D01*
X0055512Y0010039D02*
X0055512Y0020669D01*
X0014921Y0078898D02*
X0019043Y0078898D01*
X0013189Y0077165D02*
X0014921Y0078898D01*
X0013189Y0067323D02*
X0013189Y0077165D01*
X0013189Y0067323D02*
X0015551Y0064961D01*
X0072539Y0013976D02*
X0076378Y0013976D01*
X0072539Y0012008D02*
X0076378Y0012008D01*
X0048425Y0025787D02*
X0050394Y0025787D01*
X0072539Y0031693D02*
X0076772Y0031693D01*
X0072539Y0029724D02*
X0078740Y0029724D01*
X0078937Y0029921D01*
X0025591Y0012992D02*
X0029419Y0012992D01*
X0037205Y0024016D02*
X0038386Y0022835D01*
X0039750Y0022835D01*
X0035630Y0030709D02*
X0037205Y0029134D01*
X0015551Y0064961D02*
X0031102Y0064961D01*
X0035630Y0060433D01*
D102*
X0029331Y0142126D02*
X0040945Y0142126D01*
X0043701Y0139370D01*
D103*
X0060827Y0143110D02*
X0060827Y0148622D01*
X0063114Y0150909D02*
X0067247Y0150909D01*
X0060827Y0148622D02*
X0063114Y0150909D01*
X0067247Y0150909D02*
X0067323Y0150984D01*
X0055709Y0137992D02*
X0060827Y0143110D01*
X0019291Y0078740D02*
X0019610Y0079058D01*
X0027484Y0079058D01*
X0027559Y0079134D01*
X0050787Y0012992D02*
X0050787Y0021457D01*
X0052854Y0004626D02*
X0052854Y0008071D01*
X0052854Y0004626D02*
X0053347Y0004134D01*
X0049409Y0022835D02*
X0050787Y0021457D01*
X0047047Y0022835D02*
X0049409Y0022835D01*
D104*
X0274473Y0111024D02*
X0283071Y0111024D01*
X0274213Y0110763D02*
X0274473Y0111024D01*
X0268736Y0110827D02*
X0274213Y0110827D01*
X0268701Y0110862D02*
X0268736Y0110827D01*
X0240835Y0123031D02*
X0246566Y0123031D01*
X0238748Y0118503D02*
X0238748Y0120944D01*
X0240835Y0123031D01*
X0286811Y0119095D02*
X0287008Y0118898D01*
X0246566Y0123031D02*
X0250503Y0119095D01*
X0286811Y0119095D01*
X0233071Y0118898D02*
X0233176Y0118793D01*
X0233176Y0107184D02*
X0233176Y0118793D01*
X0233071Y0101575D02*
X0233071Y0101575D01*
X0233071Y0084449D02*
X0233071Y0101575D01*
X0233071Y0078740D02*
X0233071Y0078740D01*
X0233071Y0073819D02*
X0233071Y0078740D01*
X0233071Y0067716D02*
X0233071Y0067716D01*
X0233071Y0061910D02*
X0233071Y0067716D01*
X0026043Y0039626D02*
X0026043Y0056890D01*
X0010345Y0004843D02*
X0026801Y0004843D01*
X0010345Y0004843D02*
X0010345Y0038858D01*
X0010778Y0038386D02*
X0026969Y0038386D01*
D105*
X0177872Y0202367D02*
X0177872Y0309201D01*
X0153740Y0180512D02*
X0176262Y0203034D01*
X0111538Y0178902D02*
X0154407Y0178902D01*
X0112205Y0180512D02*
X0153740Y0180512D01*
X0176262Y0203034D02*
X0176262Y0309201D01*
X0154407Y0178902D02*
X0177872Y0202367D01*
X0033661Y0018898D02*
X0033661Y0018898D01*
X0029026Y0018898D02*
X0033661Y0018898D01*
X0025903Y0024722D02*
X0029116Y0024722D01*
X0035514Y0019315D02*
X0035514Y0022517D01*
X0033905Y0018648D02*
X0033905Y0021850D01*
X0035514Y0019315D02*
X0036111Y0018718D01*
X0033309Y0024722D02*
X0035514Y0022517D01*
X0032921Y0022835D02*
X0033905Y0021850D01*
X0039714Y0017109D02*
X0039812Y0017010D01*
X0042734Y0017010D01*
X0036111Y0018718D02*
X0039714Y0018718D01*
X0039812Y0018816D01*
X0035444Y0017109D02*
X0039714Y0017109D01*
X0033905Y0018648D02*
X0035444Y0017109D01*
X0039812Y0018816D02*
X0042734Y0018816D01*
X0029107Y0024722D02*
X0033309Y0024722D01*
X0029026Y0022835D02*
X0032921Y0022835D01*
X0029026Y0024803D02*
X0029107Y0024722D01*
X0025787Y0020866D02*
X0029026Y0020866D01*
X0025000Y0021654D02*
X0025787Y0020866D01*
X0025000Y0021654D02*
X0025000Y0023819D01*
X0025903Y0024722D01*
X0042734Y0018816D02*
X0042815Y0018898D01*
X0042734Y0017010D02*
X0042815Y0016929D01*
X0178543Y0309873D02*
X0178543Y0310236D01*
X0175591Y0309873D02*
X0175591Y0310236D01*
X0175591Y0309873D02*
X0176262Y0309201D01*
X0177872Y0309201D02*
X0178543Y0309873D01*
X0109646Y0180795D02*
X0111538Y0178902D01*
X0109646Y0180795D02*
X0109646Y0196243D01*
X0107677Y0198211D02*
X0109646Y0196243D01*
X0099651Y0198211D02*
X0107677Y0198211D01*
X0099553Y0198113D02*
X0099651Y0198211D01*
X0096046Y0198113D02*
X0099553Y0198113D01*
X0095965Y0198031D02*
X0096046Y0198113D01*
X0111255Y0181462D02*
X0111255Y0196909D01*
X0111255Y0181462D02*
X0112205Y0180512D01*
X0099651Y0199820D02*
X0108344Y0199820D01*
X0111255Y0196909D01*
X0096046Y0199919D02*
X0099553Y0199919D01*
X0099651Y0199820D01*
X0095965Y0200000D02*
X0096046Y0199919D01*
D106*
X0050787Y0012992D02*
X0052854Y0010925D01*
X0052854Y0008071D02*
X0052854Y0010925D01*
D107*
X0074803Y0177165D02*
D03*
X0033071Y0177165D02*
D03*
D108*
X0169961Y0132402D02*
D03*
X0209961Y0122402D02*
D03*
X0199961Y0122402D02*
D03*
X0199961Y0132402D02*
D03*
X0189961Y0122402D02*
D03*
X0189961Y0132402D02*
D03*
X0179961Y0122402D02*
D03*
X0179961Y0132402D02*
D03*
X0169961Y0122402D02*
D03*
D109*
X0139961Y0332422D02*
D03*
D110*
X0192205Y0321230D02*
D03*
X0158189Y0321230D02*
D03*
D111*
X0158189Y0337687D02*
D03*
X0192205Y0337687D02*
D03*
D112*
X0055118Y0177165D02*
D03*
X0013386Y0177165D02*
D03*
D113*
X0209961Y0132402D02*
D03*
D114*
X0220866Y0321654D02*
D03*
X0248622Y0322835D02*
D03*
X0233862Y0342573D02*
D03*
X0228937Y0343110D02*
D03*
X0213583Y0342913D02*
D03*
X0248622Y0343307D02*
D03*
X0210630Y0204724D02*
D03*
X0171063Y0204921D02*
D03*
X0182283Y0204921D02*
D03*
X0183071Y0284055D02*
D03*
X0167717Y0284055D02*
D03*
X0192402Y0345748D02*
D03*
X0222638Y0311220D02*
D03*
X0193110Y0286614D02*
D03*
X0193110Y0274803D02*
D03*
X0273031Y0247244D02*
D03*
X0263583Y0214173D02*
D03*
X0262992Y0242717D02*
D03*
X0256496Y0234449D02*
D03*
X0256299Y0224213D02*
D03*
X0189370Y0314567D02*
D03*
X0193110Y0310039D02*
D03*
X0182677Y0304331D02*
D03*
X0193110Y0298228D02*
D03*
X0180590Y0345748D02*
D03*
X0168780Y0345748D02*
D03*
X0170276Y0304331D02*
D03*
X0121535Y0345748D02*
D03*
X0109724Y0345748D02*
D03*
X0145157Y0345748D02*
D03*
X0133346Y0345748D02*
D03*
X0086102Y0345748D02*
D03*
X0074291Y0345748D02*
D03*
X0097913Y0345748D02*
D03*
X0159843Y0314173D02*
D03*
X0156968Y0345748D02*
D03*
X0136221Y0248228D02*
D03*
X0114961Y0252362D02*
D03*
X0114961Y0261811D02*
D03*
X0101575Y0261811D02*
D03*
X0101575Y0252756D02*
D03*
X0117126Y0236417D02*
D03*
X0101575Y0232480D02*
D03*
X0118110Y0220472D02*
D03*
X0101575Y0223622D02*
D03*
X0101378Y0241535D02*
D03*
X0076968Y0301575D02*
D03*
X0074213Y0297835D02*
D03*
X0076968Y0294291D02*
D03*
X0084252Y0292520D02*
D03*
X0273819Y0209842D02*
D03*
X0193110Y0169488D02*
D03*
X0193110Y0157677D02*
D03*
X0150197Y0119882D02*
D03*
X0140157Y0119882D02*
D03*
X0160039Y0119882D02*
D03*
X0224016Y0112205D02*
D03*
X0223622Y0096063D02*
D03*
X0131299Y0154134D02*
D03*
X0126969Y0154134D02*
D03*
X0119685Y0213386D02*
D03*
X0116732Y0196063D02*
D03*
X0122638Y0154134D02*
D03*
X0137795Y0137795D02*
D03*
X0131299Y0149803D02*
D03*
X0129921Y0119882D02*
D03*
X0126969Y0149803D02*
D03*
X0122638Y0149803D02*
D03*
X0120079Y0119882D02*
D03*
X0223622Y0089764D02*
D03*
X0193189Y0060709D02*
D03*
X0193189Y0034173D02*
D03*
X0182087Y0019291D02*
D03*
X0192402Y-0025079D02*
D03*
X0181102Y0047244D02*
D03*
X0178347Y0019291D02*
D03*
X0144226Y-0012598D02*
D03*
X0123622Y-0010039D02*
D03*
X0115748Y-0008661D02*
D03*
X0134646Y-0012598D02*
D03*
X0168780Y-0025079D02*
D03*
X0156968Y-0025079D02*
D03*
X0180590Y-0025079D02*
D03*
X0133346Y-0025079D02*
D03*
X0121535Y-0025079D02*
D03*
X0145157Y-0025079D02*
D03*
X0102559Y0203740D02*
D03*
X0101772Y0213583D02*
D03*
X0110236Y0119882D02*
D03*
X0102362Y0195276D02*
D03*
X0100000Y0119882D02*
D03*
X0110630Y0075590D02*
D03*
X0105512Y0026772D02*
D03*
X0100787Y0042913D02*
D03*
X0100984Y0026772D02*
D03*
X0089961Y0195079D02*
D03*
X0090158Y0119882D02*
D03*
X0079912Y0119937D02*
D03*
X0083465Y0050197D02*
D03*
X0093110Y0039567D02*
D03*
X0083268Y0044488D02*
D03*
X0077362Y0037093D02*
D03*
X0101772Y0016535D02*
D03*
X0101772Y0019291D02*
D03*
X0109724Y-0025079D02*
D03*
X0102362Y0008858D02*
D03*
X0077559Y0026969D02*
D03*
X0077362Y0018110D02*
D03*
X0092716Y0008661D02*
D03*
X0086102Y-0025079D02*
D03*
X0086024Y-0004134D02*
D03*
X0097913Y-0025079D02*
D03*
X0074606Y0007874D02*
D03*
X0073819Y-0003543D02*
D03*
X0074291Y-0025079D02*
D03*
X0071260Y0301575D02*
D03*
X0071260Y0294291D02*
D03*
X0068307Y0297835D02*
D03*
X0065551Y0301575D02*
D03*
X0062480Y0345748D02*
D03*
X0065551Y0294291D02*
D03*
X0068701Y0265945D02*
D03*
X0068701Y0268898D02*
D03*
X0067323Y0274803D02*
D03*
X0050669Y0345748D02*
D03*
X0050787Y0310236D02*
D03*
X0047244Y0168307D02*
D03*
X0046063Y0162795D02*
D03*
X0064370Y0159449D02*
D03*
X0069882Y0119882D02*
D03*
X0063976Y0096850D02*
D03*
X0061811Y0131299D02*
D03*
X0060236Y0119882D02*
D03*
X0059252Y0131299D02*
D03*
X0054528Y0102756D02*
D03*
X0050197Y0119882D02*
D03*
X0046457Y0094488D02*
D03*
X0038976Y0310236D02*
D03*
X0038858Y0345748D02*
D03*
X0027047Y0345748D02*
D03*
X0027165Y0310236D02*
D03*
X0043701Y0139370D02*
D03*
X0002677Y0285748D02*
D03*
X0019488Y0144291D02*
D03*
X0002677Y0273937D02*
D03*
X0002677Y0309370D02*
D03*
X0002677Y0321181D02*
D03*
X0002677Y0297559D02*
D03*
X0023425Y0137008D02*
D03*
X0023425Y0133268D02*
D03*
X0019488Y0137008D02*
D03*
X0019488Y0140748D02*
D03*
X0019488Y0133268D02*
D03*
X0039961Y0119882D02*
D03*
X0027047Y0119961D02*
D03*
X0026772Y0094488D02*
D03*
X0002677Y0093976D02*
D03*
X0002677Y0119488D02*
D03*
X0023031Y0082677D02*
D03*
X0002677Y0082165D02*
D03*
X0059646Y0058268D02*
D03*
X0059252Y0075787D02*
D03*
X0065157Y0044882D02*
D03*
X0062402Y0036811D02*
D03*
X0067520Y0036811D02*
D03*
X0067716Y0015748D02*
D03*
X0062205Y-0010630D02*
D03*
X0053543Y-0005118D02*
D03*
X0062480Y-0025079D02*
D03*
X0050669Y-0025079D02*
D03*
X0047835Y0019685D02*
D03*
X0048031Y0012795D02*
D03*
X0037992Y0048819D02*
D03*
X0021850Y0048819D02*
D03*
X0002677Y0070354D02*
D03*
X0002677Y0058543D02*
D03*
X0008465Y0047244D02*
D03*
X0037992Y0037992D02*
D03*
X0032874Y0037598D02*
D03*
X0035236Y0009252D02*
D03*
X0035433Y-0000591D02*
D03*
X0032677Y-0012205D02*
D03*
X0038858Y-0025079D02*
D03*
X0020866Y0009055D02*
D03*
X0027047Y-0025079D02*
D03*
X0014961Y0026378D02*
D03*
X0002677Y0047126D02*
D03*
X0002677Y0034921D02*
D03*
X0014961Y0015157D02*
D03*
X0002677Y0011299D02*
D03*
X0002677Y0023110D02*
D03*
X0002677Y-0000512D02*
D03*
X0183071Y0289764D02*
D03*
X0167913Y0289764D02*
D03*
X0057819Y0162063D02*
D03*
X0025984Y0157677D02*
D03*
X0029638Y0157696D02*
D03*
X0077016Y0079772D02*
D03*
X0076877Y0082315D02*
D03*
X0079724Y0047441D02*
D03*
X0067096Y0148040D02*
D03*
X0055709Y0137992D02*
D03*
X0067323Y0150984D02*
D03*
X0031496Y0167520D02*
D03*
X0060827Y0162008D02*
D03*
X0071457Y0169291D02*
D03*
X0069291Y0171063D02*
D03*
X0050591Y0155413D02*
D03*
X0023228Y0171260D02*
D03*
X0142323Y0251969D02*
D03*
X0146653Y0251378D02*
D03*
X0199803Y0107480D02*
D03*
X0189961Y0151575D02*
D03*
X0200000Y0112205D02*
D03*
X0199803Y0151181D02*
D03*
X0138201Y0163976D02*
D03*
X0134055Y0159982D02*
D03*
X0168504Y0241339D02*
D03*
X0168504Y0246457D02*
D03*
X0169488Y0250394D02*
D03*
X0113386Y0169882D02*
D03*
X0108071Y0169882D02*
D03*
X0170079Y0093504D02*
D03*
X0160236Y0093307D02*
D03*
X0150000Y0089764D02*
D03*
X0140157Y0089764D02*
D03*
X0130118Y0089961D02*
D03*
X0120079Y0089961D02*
D03*
X0178543Y0005315D02*
D03*
X0182087Y0005315D02*
D03*
X0178543Y0008563D02*
D03*
X0182087Y0008563D02*
D03*
X0182087Y0011811D02*
D03*
X0178543Y0011811D02*
D03*
X0146457Y0011024D02*
D03*
X0146457Y0007480D02*
D03*
X0143209Y0007480D02*
D03*
X0143209Y0011024D02*
D03*
X0139961Y0007480D02*
D03*
X0139961Y0011024D02*
D03*
X0112402Y0055118D02*
D03*
X0112598Y0051772D02*
D03*
X0109252Y0051772D02*
D03*
X0105709Y0051772D02*
D03*
X0109252Y0055118D02*
D03*
X0094095Y0043701D02*
D03*
X0078448Y0034347D02*
D03*
X0142348Y0159982D02*
D03*
X0138201Y0159982D02*
D03*
X0142348Y0163976D02*
D03*
X0134055Y0163976D02*
D03*
X0076378Y0139567D02*
D03*
X0083465Y0139764D02*
D03*
X0079921Y0139764D02*
D03*
X0122638Y0134449D02*
D03*
X0131299Y0134449D02*
D03*
X0126969Y0134449D02*
D03*
X0131299Y0130118D02*
D03*
X0126969Y0130118D02*
D03*
X0094685Y0050984D02*
D03*
X0094685Y0054331D02*
D03*
X0094685Y0057677D02*
D03*
X0098032Y0054331D02*
D03*
X0098032Y0050984D02*
D03*
X0033800Y0157696D02*
D03*
X0037963Y0157696D02*
D03*
X0042126Y0153956D02*
D03*
X0070079Y0096260D02*
D03*
X0079921Y0096063D02*
D03*
X0098032Y0057677D02*
D03*
X0132171Y0266535D02*
D03*
X0135630Y0266535D02*
D03*
X0135630Y0260236D02*
D03*
X0135630Y0263386D02*
D03*
X0135630Y0269685D02*
D03*
X0132171Y0269685D02*
D03*
X0120866Y0288189D02*
D03*
X0120866Y0284547D02*
D03*
X0120866Y0280906D02*
D03*
X0124606Y0280906D02*
D03*
X0124606Y0284547D02*
D03*
X0085433Y0321803D02*
D03*
X0081890Y0321803D02*
D03*
X0048228Y0278346D02*
D03*
X0051378Y0281496D02*
D03*
X0054134Y0284252D02*
D03*
X0056693Y0287008D02*
D03*
X0071663Y0322089D02*
D03*
X0071663Y0325632D02*
D03*
X0047584Y0074606D02*
D03*
X0047638Y0077953D02*
D03*
X0055118Y0071063D02*
D03*
X0056901Y0080130D02*
D03*
X0188386Y0310039D02*
D03*
X0165157Y0313386D02*
D03*
X0033858Y0026969D02*
D03*
X0178543Y0310236D02*
D03*
X0175591Y0310236D02*
D03*
X0130905Y0047441D02*
D03*
X0122638Y0130118D02*
D03*
X0124606Y0288189D02*
D03*
X0076378Y0143110D02*
D03*
X0083465Y0143110D02*
D03*
X0079921Y0143110D02*
D03*
X0027559Y0079134D02*
D03*
X0105905Y0055118D02*
D03*
X0033661Y0014961D02*
D03*
X0064382Y0068307D02*
D03*
X0064382Y0065354D02*
D03*
X0089764Y0203937D02*
D03*
X0133071Y0194095D02*
D03*
X0090945Y0305512D02*
D03*
X0090945Y0302362D02*
D03*
X0090945Y0287795D02*
D03*
X0090945Y0291339D02*
D03*
X0094882Y0284252D02*
D03*
X0094882Y0287795D02*
D03*
X0094882Y0291339D02*
D03*
X0094882Y0294882D02*
D03*
X0094882Y0302362D02*
D03*
X0094882Y0305512D02*
D03*
X0094882Y0308661D02*
D03*
X0094882Y0311811D02*
D03*
X0067524Y0322089D02*
D03*
X0063386Y0322089D02*
D03*
X0067524Y0325632D02*
D03*
X0063386Y0325632D02*
D03*
X0059252Y0289764D02*
D03*
X0085433Y0314567D02*
D03*
X0081890Y0314567D02*
D03*
X0085433Y0318185D02*
D03*
X0081890Y0318185D02*
D03*
X0067716Y0318110D02*
D03*
X0069685Y0285039D02*
D03*
X0042126Y0157696D02*
D03*
X0132171Y0263386D02*
D03*
X0132171Y0260236D02*
D03*
X0053347Y0004134D02*
D03*
X0055512Y0009449D02*
D03*
X0052559Y0038386D02*
D03*
X0047835Y0047835D02*
D03*
X0064370Y0020669D02*
D03*
X0064370Y0017717D02*
D03*
X0064370Y0023622D02*
D03*
X0047835Y0042717D02*
D03*
X0047835Y0034055D02*
D03*
X0050000Y0045275D02*
D03*
X0050000Y0036220D02*
D03*
X0077362Y0011417D02*
D03*
X0077362Y0014370D02*
D03*
X0062008Y0028937D02*
D03*
X0065157Y0029134D02*
D03*
X0048425Y0025787D02*
D03*
X0036811Y0071063D02*
D03*
X0034843Y0074606D02*
D03*
X0006102Y0052756D02*
D03*
X0078937Y0029921D02*
D03*
X0035630Y0033465D02*
D03*
X0126771Y-0006693D02*
D03*
X0085433Y0041339D02*
D03*
X0095866Y0000394D02*
D03*
X0094094Y0016732D02*
D03*
M02*
