M48
;Layer_Color=9474304
;FILE_FORMAT=2:5
INCH
T10F00S00C0.20000
%
G90
G05
T10
G00X0276793Y-0037559
M15
G01X0276793Y-0037539
G01X0277576Y-0037575
G01X0279930Y-0037389
G01X0281480Y-0037144
G01X0283775Y-0036593
G01X0285268Y-0036108
G01X0287449Y-0035204
G01X0288847Y-0034492
G01X0290860Y-0033258
G01X0292130Y-0032336
G01X0293925Y-0030803
G01X0295035Y-0029693
G01X0296568Y-0027898
G01X0297491Y-0026628
G01X0298724Y-0024615
G01X0299437Y-0023217
G01X0300340Y-0021036
G01X0300825Y-0019543
G01X0301376Y-0017247
G01X0301622Y-0015697
G01X0301838Y-0012558
G01X0301791Y0333230
G01X0301771Y0333230
G01X0301807Y0334013
G01X0301622Y0336367
G01X0301376Y0337916
G01X0300825Y0340212
G01X0300340Y0341705
G01X0299437Y0343886
G01X0298724Y0345284
G01X0297491Y0347297
G01X0296568Y0348567
G01X0295035Y0350362
G01X0293925Y0351472
G01X0292130Y0353005
G01X0290860Y0353928
G01X0288847Y0355161
G01X0287449Y0355874
G01X0285268Y0356777
G01X0283775Y0357262
G01X0281480Y0357813
G01X0279930Y0358059
G01X0276790Y0358275
G01X0014998Y0358228
G01X0014998Y0358208
G01X0014215Y0358244
G01X0011862Y0358058
G01X0010312Y0357813
G01X0008016Y0357262
G01X0006524Y0356777
G01X0004342Y0355873
G01X0002944Y0355161
G01X0000931Y0353927
G01X-0000339Y0353005
G01X-0002134Y0351472
G01X-0003243Y0350362
G01X-0004777Y0348567
G01X-0005699Y0347297
G01X-0006933Y0345284
G01X-0007645Y0343886
G01X-0008549Y0341704
G01X-0009034Y0340212
G01X-0009585Y0337916
G01X-0009830Y0336366
G01X-0010046Y0333227
G01X-0010000Y-0012560
G01X-0009980Y-0012560
G01X-0010016Y-0013344
G01X-0009830Y-0015697
G01X-0009585Y-0017247
G01X-0009034Y-0019543
G01X-0008549Y-0021036
G01X-0007645Y-0023217
G01X-0006933Y-0024615
G01X-0005699Y-0026628
G01X-0004777Y-0027898
G01X-0003243Y-0029693
G01X-0002134Y-0030803
G01X-0000339Y-0032336
G01X0000931Y-0033258
G01X0002944Y-0034492
G01X0004342Y-0035204
G01X0006524Y-0036108
G01X0008016Y-0036593
G01X0010312Y-0037144
G01X0011862Y-0037389
G01X0015002Y-0037605
G01X0276793Y-0037559
M16
M17
M30
