G04*
G04 #@! TF.GenerationSoftware,Altium Limited,Altium Designer,22.4.2 (48)*
G04*
G04 Layer_Physical_Order=2*
G04 Layer_Color=36540*
%FSLAX25Y25*%
%MOIN*%
G70*
G04*
G04 #@! TF.SameCoordinates,F1429C7B-AB02-4E32-93F6-432C4BA2DB55*
G04*
G04*
G04 #@! TF.FilePolarity,Positive*
G04*
G01*
G75*
%ADD10C,0.00787*%
%ADD13C,0.05000*%
%ADD50C,0.00984*%
%ADD51C,0.07874*%
%ADD53C,0.01575*%
%ADD54C,0.02362*%
G04:AMPARAMS|DCode=58|XSize=43.31mil|YSize=122.05mil|CornerRadius=21.65mil|HoleSize=0mil|Usage=FLASHONLY|Rotation=0.000|XOffset=0mil|YOffset=0mil|HoleType=Round|Shape=RoundedRectangle|*
%AMROUNDEDRECTD58*
21,1,0.04331,0.07874,0,0,0.0*
21,1,0.00000,0.12205,0,0,0.0*
1,1,0.04331,0.00000,-0.03937*
1,1,0.04331,0.00000,-0.03937*
1,1,0.04331,0.00000,0.03937*
1,1,0.04331,0.00000,0.03937*
%
%ADD58ROUNDEDRECTD58*%
%ADD61O,0.07874X0.06299*%
%ADD62R,0.07874X0.06299*%
%ADD65C,0.01772*%
G36*
X108500Y322342D02*
X107974D01*
X107431Y322118D01*
X107016Y321702D01*
X106791Y321160D01*
Y320572D01*
X106821Y320502D01*
X106559Y320109D01*
X106040D01*
X105778Y320502D01*
X105807Y320572D01*
Y321160D01*
X105582Y321702D01*
X105167Y322118D01*
X104624Y322342D01*
X104037D01*
X103494Y322118D01*
X103079Y321702D01*
X102854Y321160D01*
Y320572D01*
X102884Y320502D01*
X102622Y320109D01*
X102103D01*
X101841Y320502D01*
X101870Y320572D01*
Y321160D01*
X101645Y321702D01*
X101230Y322118D01*
X100687Y322342D01*
X100100D01*
X99557Y322118D01*
X99142Y321702D01*
X98917Y321160D01*
Y320572D01*
X98947Y320500D01*
X98613Y320000D01*
X46039D01*
Y356527D01*
X46039Y356528D01*
X45884Y357710D01*
X45427Y358811D01*
X45000Y359368D01*
Y369000D01*
X108500D01*
Y322342D01*
D02*
G37*
G36*
X37200Y145900D02*
X34535Y142010D01*
X34172D01*
X33630Y141786D01*
X33215Y141370D01*
X32990Y140828D01*
Y140240D01*
X33206Y139717D01*
X30500Y132500D01*
Y110344D01*
X30244Y110088D01*
X30020Y109546D01*
Y108958D01*
X30244Y108416D01*
X30500Y108160D01*
Y107391D01*
X30244Y107135D01*
X30020Y106593D01*
Y106006D01*
X30244Y105463D01*
X30500Y105207D01*
Y96500D01*
X26500Y92500D01*
X19000D01*
X16704Y94337D01*
Y103180D01*
X17500Y137000D01*
X19945Y139658D01*
X19995D01*
X20537Y139883D01*
X20953Y140298D01*
X21177Y140841D01*
Y140997D01*
X21761Y141632D01*
X22364Y141548D01*
X22664Y141248D01*
X23206Y141024D01*
X23794D01*
X24336Y141248D01*
X24752Y141664D01*
X24976Y142206D01*
Y142794D01*
X24752Y143336D01*
X24336Y143752D01*
X24287Y143772D01*
X24179Y144260D01*
X29000Y149500D01*
X34500D01*
X37200Y145900D01*
D02*
G37*
G36*
X20000Y143500D02*
X19375Y142597D01*
X18865Y142386D01*
X18449Y141971D01*
X18225Y141428D01*
Y140936D01*
X15500Y137000D01*
Y117214D01*
X15000Y117062D01*
X14544Y117745D01*
X13729Y118560D01*
X12771Y119200D01*
X11706Y119641D01*
X10576Y119866D01*
X9424D01*
X8294Y119641D01*
X7229Y119200D01*
X6271Y118560D01*
X5456Y117745D01*
X4816Y116787D01*
X4375Y115722D01*
X4150Y114592D01*
Y113440D01*
X4375Y112309D01*
X4816Y111245D01*
X5456Y110287D01*
X6271Y109472D01*
X7229Y108832D01*
X8294Y108391D01*
X9424Y108166D01*
X10576D01*
X11706Y108391D01*
X12771Y108832D01*
X13729Y109472D01*
X14544Y110287D01*
X15000Y110969D01*
X15500Y110817D01*
Y66500D01*
X28500D01*
Y50500D01*
X27529Y49529D01*
X26989Y49696D01*
X26842Y50049D01*
X26427Y50464D01*
X25884Y50689D01*
X25297D01*
X24754Y50464D01*
X24339Y50049D01*
X24114Y49506D01*
Y48919D01*
X24339Y48376D01*
X24754Y47961D01*
X25107Y47815D01*
X25274Y47274D01*
X22923Y44923D01*
X22794Y44976D01*
X22206D01*
X21664Y44752D01*
X21248Y44336D01*
X21024Y43794D01*
Y43206D01*
X21077Y43077D01*
X20000Y42000D01*
Y29000D01*
X23888D01*
X24213Y28865D01*
X25000Y28762D01*
X25787Y28865D01*
X26112Y29000D01*
X31477D01*
X33888D01*
X34213Y28865D01*
X35000Y28762D01*
X35787Y28865D01*
X36112Y29000D01*
X43888D01*
X44213Y28865D01*
X45000Y28762D01*
X45787Y28865D01*
X46112Y29000D01*
X51500D01*
X51500Y29000D01*
X54000Y26500D01*
Y20500D01*
X52500Y19000D01*
X38378D01*
X38048Y19571D01*
X37571Y20048D01*
X36988Y20385D01*
X36337Y20559D01*
X35663D01*
X35012Y20385D01*
X34429Y20048D01*
X33952Y19571D01*
X33622Y19000D01*
X32915D01*
X32640Y19275D01*
X32097Y19500D01*
X31510D01*
X30967Y19275D01*
X30692Y19000D01*
X23391D01*
X23130Y19391D01*
Y19979D01*
X22905Y20521D01*
X22490Y20937D01*
X21947Y21161D01*
X21360D01*
X20817Y20937D01*
X20402Y20521D01*
X20177Y19979D01*
Y19391D01*
X19916Y19000D01*
X18554D01*
X18069Y19486D01*
X16865Y20290D01*
X15529Y20843D01*
X14109Y21126D01*
X12662D01*
X11243Y20843D01*
X9906Y20290D01*
X8703Y19486D01*
X8217Y19000D01*
X6000D01*
X5413Y19587D01*
Y19979D01*
X5189Y20521D01*
X4773Y20937D01*
X4231Y21161D01*
X3839D01*
X3220Y21780D01*
X3503Y22204D01*
X3643Y22146D01*
X4231D01*
X4773Y22370D01*
X5189Y22786D01*
X5413Y23328D01*
Y23916D01*
X5189Y24458D01*
X4773Y24874D01*
X4231Y25098D01*
X3643D01*
X3101Y24874D01*
X2685Y24458D01*
X2461Y23916D01*
Y23328D01*
X2519Y23189D01*
X2095Y22905D01*
X1000Y24000D01*
Y50500D01*
Y52000D01*
Y133604D01*
X1500Y133774D01*
X1872Y133289D01*
X2707Y132648D01*
X3680Y132245D01*
X4724Y132108D01*
X6299D01*
X7343Y132245D01*
X8316Y132648D01*
X9152Y133289D01*
X9793Y134125D01*
X10196Y135098D01*
X10333Y136142D01*
X10196Y137186D01*
X9793Y138159D01*
X9152Y138994D01*
X8316Y139635D01*
X7343Y140038D01*
X7145Y140064D01*
X6970Y140533D01*
X14000Y148500D01*
X20000Y143500D01*
D02*
G37*
G36*
X51513Y138348D02*
X51000Y105000D01*
X43743Y95324D01*
X43243Y95314D01*
X34500Y106000D01*
Y114448D01*
X34876Y114778D01*
X35000Y114762D01*
X35787Y114865D01*
X36521Y115169D01*
X37151Y115653D01*
X37634Y116282D01*
X37938Y117016D01*
X38041Y117803D01*
Y125677D01*
X37938Y126464D01*
X37634Y127198D01*
X37151Y127828D01*
X36521Y128311D01*
X35787Y128615D01*
X35000Y128718D01*
X34876Y128702D01*
X34500Y129032D01*
Y131794D01*
X35123Y132051D01*
X35358Y131893D01*
X35583Y131350D01*
X35998Y130935D01*
X36541Y130710D01*
X37128D01*
X37671Y130935D01*
X38086Y131350D01*
X38311Y131893D01*
Y132480D01*
X38185Y132784D01*
X38359Y133343D01*
X38412Y133405D01*
X51100Y138629D01*
X51513Y138348D01*
D02*
G37*
G36*
X197749Y127751D02*
X197465Y127328D01*
X197144Y127461D01*
X196557D01*
X196014Y127236D01*
X195599Y126821D01*
X195374Y126278D01*
Y125691D01*
X195599Y125148D01*
X196014Y124733D01*
X196557Y124508D01*
X197144D01*
X197687Y124733D01*
X198102Y125148D01*
X198327Y125691D01*
Y126278D01*
X198194Y126599D01*
X198617Y126883D01*
X199222Y126278D01*
Y63722D01*
X198789Y63289D01*
X198254Y63461D01*
X198102Y63828D01*
X197687Y64244D01*
X197144Y64468D01*
X196557D01*
X196014Y64244D01*
X195599Y63828D01*
X195374Y63286D01*
Y62699D01*
X195599Y62156D01*
X196014Y61740D01*
X196381Y61588D01*
X196554Y61054D01*
X194476Y58976D01*
X193976Y59184D01*
Y59294D01*
X193752Y59836D01*
X193336Y60252D01*
X192794Y60476D01*
X192206D01*
X191664Y60252D01*
X191248Y59836D01*
X191024Y59294D01*
Y58706D01*
X190886Y58500D01*
X179000D01*
Y62000D01*
Y66500D01*
Y126000D01*
X181500Y128500D01*
X188775D01*
X189109Y128000D01*
X189024Y127794D01*
Y127206D01*
X189248Y126664D01*
X189664Y126248D01*
X190206Y126024D01*
X190794D01*
X191336Y126248D01*
X191752Y126664D01*
X191976Y127206D01*
Y127794D01*
X191891Y128000D01*
X192225Y128500D01*
X197000D01*
X197749Y127751D01*
D02*
G37*
%LPC*%
G36*
X62498Y339665D02*
X61911D01*
X61368Y339441D01*
X60953Y339025D01*
X60728Y338483D01*
Y337895D01*
X60953Y337353D01*
X61368Y336937D01*
X61911Y336713D01*
X62498D01*
X63041Y336937D01*
X63456Y337353D01*
X63681Y337895D01*
Y338483D01*
X63456Y339025D01*
X63041Y339441D01*
X62498Y339665D01*
D02*
G37*
G36*
X25000Y128718D02*
X24213Y128615D01*
X23479Y128311D01*
X22849Y127828D01*
X22366Y127198D01*
X22062Y126464D01*
X21959Y125677D01*
Y117803D01*
X22062Y117016D01*
X22366Y116282D01*
X22849Y115653D01*
X23479Y115169D01*
X24213Y114865D01*
X25000Y114762D01*
X25787Y114865D01*
X26521Y115169D01*
X27151Y115653D01*
X27634Y116282D01*
X27938Y117016D01*
X28041Y117803D01*
Y125677D01*
X27938Y126464D01*
X27634Y127198D01*
X27151Y127828D01*
X26521Y128311D01*
X25787Y128615D01*
X25000Y128718D01*
D02*
G37*
G36*
X27853Y97933D02*
X27265D01*
X26723Y97708D01*
X26307Y97293D01*
X26083Y96750D01*
Y96163D01*
X26307Y95620D01*
X26723Y95205D01*
X27265Y94980D01*
X27853D01*
X28395Y95205D01*
X28811Y95620D01*
X29035Y96163D01*
Y96750D01*
X28811Y97293D01*
X28395Y97708D01*
X27853Y97933D01*
D02*
G37*
G36*
X4231Y127461D02*
X3643D01*
X3101Y127236D01*
X2685Y126821D01*
X2461Y126278D01*
Y125691D01*
X2685Y125148D01*
X3101Y124733D01*
X3643Y124508D01*
X4231D01*
X4773Y124733D01*
X5189Y125148D01*
X5413Y125691D01*
Y126278D01*
X5189Y126821D01*
X4773Y127236D01*
X4231Y127461D01*
D02*
G37*
G36*
Y123524D02*
X3643D01*
X3101Y123299D01*
X2685Y122883D01*
X2461Y122341D01*
Y121754D01*
X2685Y121211D01*
X3101Y120796D01*
X3643Y120571D01*
X4231D01*
X4773Y120796D01*
X5189Y121211D01*
X5413Y121754D01*
Y122341D01*
X5189Y122883D01*
X4773Y123299D01*
X4231Y123524D01*
D02*
G37*
G36*
Y107776D02*
X3643D01*
X3101Y107551D01*
X2685Y107135D01*
X2461Y106593D01*
Y106006D01*
X2685Y105463D01*
X3101Y105048D01*
X3643Y104823D01*
X4231D01*
X4773Y105048D01*
X5189Y105463D01*
X5413Y106006D01*
Y106593D01*
X5189Y107135D01*
X4773Y107551D01*
X4231Y107776D01*
D02*
G37*
G36*
Y103839D02*
X3643D01*
X3101Y103614D01*
X2685Y103199D01*
X2461Y102656D01*
Y102068D01*
X2685Y101526D01*
X3101Y101111D01*
X3643Y100886D01*
X4231D01*
X4773Y101111D01*
X5189Y101526D01*
X5413Y102068D01*
Y102656D01*
X5189Y103199D01*
X4773Y103614D01*
X4231Y103839D01*
D02*
G37*
G36*
Y99902D02*
X3643D01*
X3101Y99677D01*
X2685Y99261D01*
X2461Y98719D01*
Y98132D01*
X2685Y97589D01*
X3101Y97174D01*
X3643Y96949D01*
X4231D01*
X4773Y97174D01*
X5189Y97589D01*
X5413Y98132D01*
Y98719D01*
X5189Y99261D01*
X4773Y99677D01*
X4231Y99902D01*
D02*
G37*
G36*
Y95965D02*
X3643D01*
X3101Y95740D01*
X2685Y95324D01*
X2461Y94782D01*
Y94195D01*
X2685Y93652D01*
X3101Y93237D01*
X3643Y93012D01*
X4231D01*
X4773Y93237D01*
X5189Y93652D01*
X5413Y94195D01*
Y94782D01*
X5189Y95324D01*
X4773Y95740D01*
X4231Y95965D01*
D02*
G37*
G36*
Y92027D02*
X3643D01*
X3101Y91803D01*
X2685Y91387D01*
X2461Y90845D01*
Y90258D01*
X2685Y89715D01*
X3101Y89300D01*
X3643Y89075D01*
X4231D01*
X4773Y89300D01*
X5189Y89715D01*
X5413Y90258D01*
Y90845D01*
X5189Y91387D01*
X4773Y91803D01*
X4231Y92027D01*
D02*
G37*
G36*
Y88090D02*
X3643D01*
X3101Y87866D01*
X2685Y87450D01*
X2461Y86908D01*
Y86321D01*
X2685Y85778D01*
X3101Y85363D01*
X3643Y85138D01*
X4231D01*
X4773Y85363D01*
X5189Y85778D01*
X5413Y86321D01*
Y86908D01*
X5189Y87450D01*
X4773Y87866D01*
X4231Y88090D01*
D02*
G37*
G36*
Y84153D02*
X3643D01*
X3101Y83929D01*
X2685Y83513D01*
X2461Y82971D01*
Y82384D01*
X2685Y81841D01*
X3101Y81426D01*
X3643Y81201D01*
X4231D01*
X4773Y81426D01*
X5189Y81841D01*
X5413Y82384D01*
Y82971D01*
X5189Y83513D01*
X4773Y83929D01*
X4231Y84153D01*
D02*
G37*
G36*
Y80216D02*
X3643D01*
X3101Y79992D01*
X2685Y79576D01*
X2461Y79034D01*
Y78447D01*
X2685Y77904D01*
X3101Y77489D01*
X3643Y77264D01*
X4231D01*
X4773Y77489D01*
X5189Y77904D01*
X5413Y78447D01*
Y79034D01*
X5189Y79576D01*
X4773Y79992D01*
X4231Y80216D01*
D02*
G37*
G36*
Y76279D02*
X3643D01*
X3101Y76055D01*
X2685Y75639D01*
X2461Y75097D01*
Y74510D01*
X2685Y73967D01*
X3101Y73551D01*
X3643Y73327D01*
X4231D01*
X4773Y73551D01*
X5189Y73967D01*
X5413Y74510D01*
Y75097D01*
X5189Y75639D01*
X4773Y76055D01*
X4231Y76279D01*
D02*
G37*
G36*
Y72342D02*
X3643D01*
X3101Y72118D01*
X2685Y71702D01*
X2461Y71160D01*
Y70573D01*
X2685Y70030D01*
X3101Y69614D01*
X3643Y69390D01*
X4231D01*
X4773Y69614D01*
X5189Y70030D01*
X5413Y70573D01*
Y71160D01*
X5189Y71702D01*
X4773Y72118D01*
X4231Y72342D01*
D02*
G37*
G36*
Y68405D02*
X3643D01*
X3101Y68181D01*
X2685Y67765D01*
X2461Y67223D01*
Y66636D01*
X2685Y66093D01*
X3101Y65677D01*
X3643Y65453D01*
X4231D01*
X4773Y65677D01*
X5189Y66093D01*
X5413Y66636D01*
Y67223D01*
X5189Y67765D01*
X4773Y68181D01*
X4231Y68405D01*
D02*
G37*
G36*
Y64468D02*
X3643D01*
X3101Y64244D01*
X2685Y63828D01*
X2461Y63286D01*
Y62699D01*
X2685Y62156D01*
X3101Y61740D01*
X3643Y61516D01*
X4231D01*
X4773Y61740D01*
X5189Y62156D01*
X5413Y62699D01*
Y63286D01*
X5189Y63828D01*
X4773Y64244D01*
X4231Y64468D01*
D02*
G37*
G36*
Y60532D02*
X3643D01*
X3101Y60307D01*
X2685Y59891D01*
X2461Y59349D01*
Y58762D01*
X2685Y58219D01*
X3101Y57803D01*
X3643Y57579D01*
X4231D01*
X4773Y57803D01*
X5189Y58219D01*
X5413Y58762D01*
Y59349D01*
X5189Y59891D01*
X4773Y60307D01*
X4231Y60532D01*
D02*
G37*
G36*
X21000Y59990D02*
Y57000D01*
X23990D01*
X23762Y57851D01*
X23301Y58649D01*
X22649Y59301D01*
X21851Y59762D01*
X21000Y59990D01*
D02*
G37*
G36*
X20000D02*
X19149Y59762D01*
X18351Y59301D01*
X17699Y58649D01*
X17239Y57851D01*
X17010Y57000D01*
X20000D01*
Y59990D01*
D02*
G37*
G36*
X4231Y56595D02*
X3643D01*
X3101Y56370D01*
X2685Y55954D01*
X2461Y55412D01*
Y54824D01*
X2685Y54282D01*
X3101Y53866D01*
X3643Y53642D01*
X4231D01*
X4773Y53866D01*
X5189Y54282D01*
X5413Y54824D01*
Y55412D01*
X5189Y55954D01*
X4773Y56370D01*
X4231Y56595D01*
D02*
G37*
G36*
X23990Y56000D02*
X21000D01*
Y53010D01*
X21851Y53238D01*
X22649Y53699D01*
X23301Y54351D01*
X23762Y55149D01*
X23990Y56000D01*
D02*
G37*
G36*
X20000D02*
X17010D01*
X17239Y55149D01*
X17699Y54351D01*
X18351Y53699D01*
X19149Y53238D01*
X20000Y53010D01*
Y56000D01*
D02*
G37*
G36*
X4231Y52658D02*
X3643D01*
X3101Y52433D01*
X2685Y52017D01*
X2461Y51475D01*
Y50887D01*
X2685Y50345D01*
X3101Y49929D01*
X3643Y49705D01*
X4231D01*
X4773Y49929D01*
X5189Y50345D01*
X5413Y50887D01*
Y50887D01*
Y51475D01*
X5189Y52017D01*
X4773Y52433D01*
X4231Y52658D01*
D02*
G37*
G36*
X21947Y50689D02*
X21360D01*
X20817Y50464D01*
X20402Y50049D01*
X20177Y49506D01*
Y48919D01*
X20402Y48376D01*
X20817Y47961D01*
X21360Y47736D01*
X21947D01*
X22490Y47961D01*
X22905Y48376D01*
X23130Y48919D01*
Y49506D01*
X22905Y50049D01*
X22490Y50464D01*
X21947Y50689D01*
D02*
G37*
G36*
X18010D02*
X17423D01*
X16880Y50464D01*
X16465Y50049D01*
X16240Y49506D01*
Y48919D01*
X16465Y48376D01*
X16880Y47961D01*
X17423Y47736D01*
X18010D01*
X18553Y47961D01*
X18968Y48376D01*
X19193Y48919D01*
Y49506D01*
X18968Y50049D01*
X18553Y50464D01*
X18010Y50689D01*
D02*
G37*
G36*
X10576Y49590D02*
X9424D01*
X8294Y49365D01*
X7229Y48924D01*
X6271Y48284D01*
X5456Y47469D01*
X4816Y46511D01*
X4375Y45447D01*
X4150Y44316D01*
Y43164D01*
X4375Y42034D01*
X4728Y41182D01*
X4345Y40799D01*
X4231Y40846D01*
X3643D01*
X3101Y40622D01*
X2685Y40206D01*
X2461Y39664D01*
Y39076D01*
X2685Y38534D01*
X3101Y38118D01*
X3643Y37894D01*
X4231D01*
X4773Y38118D01*
X5189Y38534D01*
X5413Y39076D01*
Y39347D01*
X5913Y39554D01*
X6271Y39196D01*
X7229Y38556D01*
X8294Y38115D01*
X9424Y37890D01*
X10576D01*
X11706Y38115D01*
X12771Y38556D01*
X13729Y39196D01*
X14544Y40011D01*
X15184Y40969D01*
X15625Y42034D01*
X15850Y43164D01*
Y44316D01*
X15625Y45447D01*
X15184Y46511D01*
X14544Y47469D01*
X13729Y48284D01*
X12771Y48924D01*
X11706Y49365D01*
X10576Y49590D01*
D02*
G37*
G36*
X4231Y36909D02*
X3643D01*
X3101Y36685D01*
X2685Y36269D01*
X2461Y35727D01*
Y35139D01*
X2685Y34597D01*
X3101Y34181D01*
X3643Y33957D01*
X4231D01*
X4773Y34181D01*
X5189Y34597D01*
X5413Y35139D01*
Y35727D01*
X5189Y36269D01*
X4773Y36685D01*
X4231Y36909D01*
D02*
G37*
G36*
X14073Y34941D02*
X13486D01*
X12943Y34716D01*
X12528Y34301D01*
X12303Y33758D01*
Y33171D01*
X12528Y32628D01*
X12943Y32213D01*
X13486Y31988D01*
X14073D01*
X14616Y32213D01*
X15031Y32628D01*
X15256Y33171D01*
Y33758D01*
X15031Y34301D01*
X14616Y34716D01*
X14073Y34941D01*
D02*
G37*
G36*
X4231Y32972D02*
X3643D01*
X3101Y32748D01*
X2685Y32332D01*
X2461Y31790D01*
Y31202D01*
X2685Y30660D01*
X3101Y30244D01*
X3643Y30020D01*
X4231D01*
X4773Y30244D01*
X5189Y30660D01*
X5413Y31202D01*
Y31790D01*
X5189Y32332D01*
X4773Y32748D01*
X4231Y32972D01*
D02*
G37*
G36*
X14073Y31004D02*
X13486D01*
X12943Y30779D01*
X12528Y30364D01*
X12303Y29821D01*
Y29234D01*
X12528Y28691D01*
X12943Y28276D01*
X13486Y28051D01*
X14073D01*
X14616Y28276D01*
X15031Y28691D01*
X15256Y29234D01*
Y29821D01*
X15031Y30364D01*
X14616Y30779D01*
X14073Y31004D01*
D02*
G37*
G36*
X4231Y29035D02*
X3643D01*
X3101Y28811D01*
X2685Y28395D01*
X2461Y27853D01*
Y27265D01*
X2685Y26723D01*
X3101Y26307D01*
X3643Y26083D01*
X4231D01*
X4773Y26307D01*
X5189Y26723D01*
X5413Y27265D01*
Y27853D01*
X5189Y28395D01*
X4773Y28811D01*
X4231Y29035D01*
D02*
G37*
G36*
X14073Y27067D02*
X13486D01*
X12943Y26842D01*
X12528Y26427D01*
X12303Y25884D01*
Y25297D01*
X12528Y24754D01*
X12943Y24339D01*
X13486Y24114D01*
X14073D01*
X14616Y24339D01*
X15031Y24754D01*
X15256Y25297D01*
Y25884D01*
X15031Y26427D01*
X14616Y26842D01*
X14073Y27067D01*
D02*
G37*
G36*
X25207Y26390D02*
X24620D01*
X24077Y26165D01*
X23662Y25750D01*
X23437Y25207D01*
Y24620D01*
X23662Y24077D01*
X24077Y23662D01*
X24620Y23437D01*
X25207D01*
X25750Y23662D01*
X26165Y24077D01*
X26390Y24620D01*
Y25207D01*
X26165Y25750D01*
X25750Y26165D01*
X25207Y26390D01*
D02*
G37*
G36*
X18010Y25098D02*
X17423D01*
X16880Y24874D01*
X16465Y24458D01*
X16240Y23916D01*
Y23328D01*
X16465Y22786D01*
X16880Y22370D01*
X17423Y22146D01*
X18010D01*
X18553Y22370D01*
X18968Y22786D01*
X19193Y23328D01*
Y23916D01*
X18968Y24458D01*
X18553Y24874D01*
X18010Y25098D01*
D02*
G37*
G36*
X29144Y22453D02*
X28557D01*
X28014Y22228D01*
X27599Y21813D01*
X27374Y21270D01*
Y20683D01*
X27599Y20140D01*
X28014Y19725D01*
X28557Y19500D01*
X29144D01*
X29687Y19725D01*
X30102Y20140D01*
X30327Y20683D01*
Y21270D01*
X30102Y21813D01*
X29687Y22228D01*
X29144Y22453D01*
D02*
G37*
G36*
X45000Y128718D02*
X44213Y128615D01*
X43479Y128311D01*
X42849Y127828D01*
X42366Y127198D01*
X42062Y126464D01*
X41959Y125677D01*
Y117803D01*
X42062Y117016D01*
X42366Y116282D01*
X42849Y115653D01*
X43479Y115169D01*
X44213Y114865D01*
X45000Y114762D01*
X45787Y114865D01*
X46521Y115169D01*
X47151Y115653D01*
X47634Y116282D01*
X47938Y117016D01*
X48041Y117803D01*
Y125677D01*
X47938Y126464D01*
X47634Y127198D01*
X47151Y127828D01*
X46521Y128311D01*
X45787Y128615D01*
X45000Y128718D01*
D02*
G37*
G36*
X37294Y113976D02*
X36706D01*
X36164Y113752D01*
X35748Y113336D01*
X35524Y112794D01*
Y112206D01*
X35748Y111664D01*
X36164Y111248D01*
X36706Y111024D01*
X37294D01*
X37836Y111248D01*
X38252Y111664D01*
X38476Y112206D01*
Y112794D01*
X38252Y113336D01*
X37836Y113752D01*
X37294Y113976D01*
D02*
G37*
G36*
X197144Y123524D02*
X196557D01*
X196014Y123299D01*
X195599Y122883D01*
X195374Y122341D01*
Y121754D01*
X195599Y121211D01*
X196014Y120796D01*
X196557Y120571D01*
X197144D01*
X197687Y120796D01*
X198102Y121211D01*
X198327Y121754D01*
Y122341D01*
X198102Y122883D01*
X197687Y123299D01*
X197144Y123524D01*
D02*
G37*
G36*
Y119587D02*
X196557D01*
X196014Y119362D01*
X195599Y118947D01*
X195374Y118404D01*
Y117817D01*
X195599Y117274D01*
X196014Y116859D01*
X196557Y116634D01*
X197144D01*
X197687Y116859D01*
X198102Y117274D01*
X198327Y117817D01*
Y118404D01*
X198102Y118947D01*
X197687Y119362D01*
X197144Y119587D01*
D02*
G37*
G36*
X190576Y119866D02*
X189424D01*
X188294Y119641D01*
X187229Y119200D01*
X186271Y118560D01*
X185456Y117745D01*
X184816Y116787D01*
X184375Y115722D01*
X184150Y114592D01*
Y113440D01*
X184375Y112309D01*
X184816Y111245D01*
X185456Y110287D01*
X186271Y109472D01*
X187229Y108832D01*
X188294Y108391D01*
X189424Y108166D01*
X190576D01*
X191706Y108391D01*
X192771Y108832D01*
X193729Y109472D01*
X194544Y110287D01*
X195027Y111010D01*
X195039Y111027D01*
X195482Y110790D01*
X195462Y110742D01*
X195374Y110530D01*
Y109943D01*
X195599Y109400D01*
X196014Y108985D01*
X196557Y108760D01*
X197144D01*
X197687Y108985D01*
X198102Y109400D01*
X198327Y109943D01*
Y110530D01*
X198102Y111073D01*
X197687Y111488D01*
X197144Y111713D01*
X196557D01*
X196014Y111488D01*
X195736Y111209D01*
X195693Y111167D01*
X195269Y111450D01*
X195276Y111467D01*
X195625Y112309D01*
X195683Y112600D01*
X196238Y112829D01*
X196557Y112697D01*
X197144D01*
X197687Y112922D01*
X198102Y113337D01*
X198327Y113880D01*
Y114467D01*
X198102Y115009D01*
X197687Y115425D01*
X197144Y115650D01*
X196557D01*
X196180Y115494D01*
X195631Y115695D01*
X195625Y115722D01*
X195184Y116787D01*
X194544Y117745D01*
X193729Y118560D01*
X192771Y119200D01*
X191706Y119641D01*
X190576Y119866D01*
D02*
G37*
G36*
X197144Y107776D02*
X196557D01*
X196014Y107551D01*
X195599Y107135D01*
X195374Y106593D01*
Y106006D01*
X195599Y105463D01*
X196014Y105048D01*
X196557Y104823D01*
X197144D01*
X197687Y105048D01*
X198102Y105463D01*
X198327Y106006D01*
Y106593D01*
X198102Y107135D01*
X197687Y107551D01*
X197144Y107776D01*
D02*
G37*
G36*
Y103839D02*
X196557D01*
X196014Y103614D01*
X195599Y103199D01*
X195374Y102656D01*
Y102068D01*
X195599Y101526D01*
X196014Y101111D01*
X196557Y100886D01*
X197144D01*
X197687Y101111D01*
X198102Y101526D01*
X198327Y102068D01*
Y102656D01*
X198102Y103199D01*
X197687Y103614D01*
X197144Y103839D01*
D02*
G37*
G36*
Y99902D02*
X196557D01*
X196014Y99677D01*
X195599Y99261D01*
X195374Y98719D01*
Y98132D01*
X195599Y97589D01*
X196014Y97174D01*
X196557Y96949D01*
X197144D01*
X197687Y97174D01*
X198102Y97589D01*
X198327Y98132D01*
Y98719D01*
X198102Y99261D01*
X197687Y99677D01*
X197144Y99902D01*
D02*
G37*
G36*
Y95965D02*
X196557D01*
X196014Y95740D01*
X195599Y95324D01*
X195374Y94782D01*
Y94195D01*
X195599Y93652D01*
X196014Y93237D01*
X196557Y93012D01*
X197144D01*
X197687Y93237D01*
X198102Y93652D01*
X198327Y94195D01*
Y94782D01*
X198102Y95324D01*
X197687Y95740D01*
X197144Y95965D01*
D02*
G37*
G36*
Y92027D02*
X196557D01*
X196014Y91803D01*
X195599Y91387D01*
X195374Y90845D01*
Y90258D01*
X195599Y89715D01*
X196014Y89300D01*
X196557Y89075D01*
X197144D01*
X197687Y89300D01*
X198102Y89715D01*
X198327Y90258D01*
Y90845D01*
X198102Y91387D01*
X197687Y91803D01*
X197144Y92027D01*
D02*
G37*
G36*
Y88090D02*
X196557D01*
X196014Y87866D01*
X195599Y87450D01*
X195374Y86908D01*
Y86321D01*
X195599Y85778D01*
X196014Y85363D01*
X196557Y85138D01*
X197144D01*
X197687Y85363D01*
X198102Y85778D01*
X198327Y86321D01*
Y86908D01*
X198102Y87450D01*
X197687Y87866D01*
X197144Y88090D01*
D02*
G37*
G36*
Y84153D02*
X196557D01*
X196014Y83929D01*
X195599Y83513D01*
X195374Y82971D01*
Y82384D01*
X195599Y81841D01*
X196014Y81426D01*
X196557Y81201D01*
X197144D01*
X197687Y81426D01*
X198102Y81841D01*
X198327Y82384D01*
Y82971D01*
X198102Y83513D01*
X197687Y83929D01*
X197144Y84153D01*
D02*
G37*
G36*
Y80216D02*
X196557D01*
X196014Y79992D01*
X195599Y79576D01*
X195374Y79034D01*
Y78447D01*
X195599Y77904D01*
X196014Y77489D01*
X196557Y77264D01*
X197144D01*
X197687Y77489D01*
X198102Y77904D01*
X198327Y78447D01*
Y79034D01*
X198102Y79576D01*
X197687Y79992D01*
X197144Y80216D01*
D02*
G37*
G36*
Y76279D02*
X196557D01*
X196014Y76055D01*
X195599Y75639D01*
X195374Y75097D01*
Y74510D01*
X195599Y73967D01*
X196014Y73551D01*
X196557Y73327D01*
X197144D01*
X197687Y73551D01*
X198102Y73967D01*
X198327Y74510D01*
Y75097D01*
X198102Y75639D01*
X197687Y76055D01*
X197144Y76279D01*
D02*
G37*
G36*
Y72342D02*
X196557D01*
X196014Y72118D01*
X195599Y71702D01*
X195374Y71160D01*
Y70573D01*
X195599Y70030D01*
X196014Y69614D01*
X196557Y69390D01*
X197144D01*
X197687Y69614D01*
X198102Y70030D01*
X198327Y70573D01*
Y71160D01*
X198102Y71702D01*
X197687Y72118D01*
X197144Y72342D01*
D02*
G37*
G36*
Y68405D02*
X196557D01*
X196014Y68181D01*
X195599Y67765D01*
X195374Y67223D01*
Y66636D01*
X195599Y66093D01*
X196014Y65677D01*
X196557Y65453D01*
X197144D01*
X197687Y65677D01*
X198102Y66093D01*
X198327Y66636D01*
Y67223D01*
X198102Y67765D01*
X197687Y68181D01*
X197144Y68405D01*
D02*
G37*
%LPD*%
D10*
X105150Y265650D02*
X172047D01*
X104000Y264500D02*
X105150Y265650D01*
X172192Y265795D02*
X172812D01*
X173000Y265983D01*
X172047Y265650D02*
X172192Y265795D01*
X125000Y87598D02*
Y111000D01*
X121002Y83600D02*
X125000Y87598D01*
X44188Y143688D02*
X44921D01*
X44000Y143500D02*
X44188Y143688D01*
X44921D02*
X51130Y149898D01*
Y156285D01*
X37023Y133842D02*
X53000Y149819D01*
X51114Y156302D02*
X51130Y156285D01*
X53000Y149819D02*
Y197000D01*
X120516Y146749D02*
X121000Y147234D01*
Y147500D01*
X74000Y152237D02*
Y152503D01*
Y152237D02*
X75000Y151237D01*
X79500Y142567D02*
Y152587D01*
X75000Y118740D02*
Y151237D01*
X95000Y118740D02*
Y152587D01*
X103000Y153500D02*
X105000Y151500D01*
Y118740D02*
Y151500D01*
X36835Y132186D02*
X37023Y132375D01*
Y133842D01*
X111500Y140076D02*
Y148000D01*
X110000Y138576D02*
X111500Y140076D01*
X110000Y112000D02*
X111500Y110500D01*
X79500Y142567D02*
X85000Y137067D01*
Y118740D02*
Y137067D01*
X120516Y126362D02*
Y146749D01*
X65000Y118740D02*
Y131000D01*
X61500Y134500D02*
X65000Y131000D01*
X110000Y112000D02*
Y138576D01*
X120516Y126362D02*
X120516Y126362D01*
X120516Y115484D02*
Y126362D01*
X111500Y110500D02*
X122500D01*
X120516Y115484D02*
X125000Y111000D01*
D13*
X26181Y346972D02*
D03*
X127214Y158786D02*
D03*
X44500Y171500D02*
D03*
X37500Y56000D02*
D03*
X109000Y218500D02*
D03*
X157500Y219000D02*
D03*
X65000Y365028D02*
D03*
X20500Y56500D02*
D03*
X55500Y273500D02*
D03*
X88500Y365028D02*
D03*
X113467Y328033D02*
D03*
X99000Y244000D02*
D03*
X77500Y204500D02*
D03*
X92000Y344000D02*
D03*
X48500Y344500D02*
D03*
X149000Y343500D02*
D03*
X19000Y96000D02*
D03*
Y103000D02*
D03*
D50*
X93847Y104000D02*
X94032D01*
X83000Y93153D02*
X93847Y104000D01*
X87328Y91044D02*
X98000Y101716D01*
Y107500D01*
X86000Y91000D02*
X86044Y91044D01*
X87328D01*
X96000Y102500D02*
Y107000D01*
X94000Y100500D02*
X96000Y102500D01*
X91043Y114457D02*
X98000Y107500D01*
X89468Y113531D02*
X96000Y107000D01*
X89468Y113531D02*
Y137531D01*
X91043Y114457D02*
Y130327D01*
X150020Y73520D02*
Y110680D01*
X150870Y111530D02*
Y148904D01*
X150020Y110680D02*
X150870Y111530D01*
X143000Y66500D02*
X150020Y73520D01*
X47000Y202000D02*
Y228102D01*
X70472Y251575D01*
X79528D01*
X88500Y152500D02*
Y152587D01*
Y152500D02*
X92075Y148925D01*
X135000Y199626D02*
X137626D01*
X142500Y204500D01*
X91043Y130327D02*
X92075Y131359D01*
X85000Y142000D02*
Y152587D01*
X92075Y131359D02*
Y148925D01*
X103678Y64678D02*
X105500Y66500D01*
X143000D01*
X83000Y85355D02*
Y93153D01*
Y85355D02*
X103678Y64678D01*
X65240Y170760D02*
X67240D01*
X61630Y174370D02*
X65240Y170760D01*
X67240D02*
X71000Y167000D01*
X61630Y174370D02*
Y197500D01*
X85000Y142000D02*
X89468Y137531D01*
X141500Y215309D02*
Y215500D01*
X133764Y220000D02*
X133881D01*
X137000D02*
X141500Y215500D01*
X138849Y212651D02*
X141349D01*
X134000Y217500D02*
X138849Y212651D01*
X151500Y204500D02*
X155000Y208000D01*
X142500Y204500D02*
X151500D01*
X133764Y220000D02*
X137000D01*
X130762D02*
X133764D01*
X98229Y208238D02*
X119000D01*
X130762Y220000D01*
X161024Y264173D02*
X169055Y256142D01*
X100394Y253150D02*
X111417Y264173D01*
X161024D01*
X169055Y256142D02*
X194488D01*
D51*
X165000Y118740D02*
Y167500D01*
X136772Y37905D02*
X158905D01*
X185500Y64500D01*
X101000Y56000D02*
X115000Y42000D01*
Y37905D02*
Y42000D01*
X37500Y56000D02*
X101000D01*
X25500Y154500D02*
Y346291D01*
X26181Y346972D01*
X19358Y356142D02*
X25092Y350408D01*
Y346972D02*
Y350408D01*
X129000Y343500D02*
X149000D01*
X127000Y159000D02*
X127214Y158786D01*
X69141Y159000D02*
X127000D01*
X42248Y132107D02*
X69141Y159000D01*
X119000Y173500D02*
X159000D01*
X165000Y167500D01*
X89500Y203000D02*
X119000Y173500D01*
X16500Y145500D02*
X25500Y154500D01*
X37659Y171500D02*
X44500D01*
X36500Y151000D02*
Y171500D01*
Y229500D01*
X40387Y66500D02*
X45000Y71113D01*
Y110332D01*
X26612Y66500D02*
X40387D01*
X31500Y146000D02*
X36500Y151000D01*
Y229500D02*
X72000Y265000D01*
X20500Y60387D02*
X26612Y66500D01*
X20500Y56500D02*
Y60387D01*
X99000Y223113D02*
Y244000D01*
X103612Y218500D02*
X109000D01*
X99000Y223113D02*
X103612Y218500D01*
X157500Y219000D02*
X184500Y192000D01*
Y126000D02*
Y192000D01*
X79000Y203000D02*
X89500D01*
X77500Y204500D02*
X79000Y203000D01*
X41472Y287528D02*
Y356528D01*
Y287528D02*
X55500Y273500D01*
X31858Y366142D02*
X41472Y356528D01*
X113467Y328033D02*
X113533D01*
X129000Y343500D01*
X72000Y271000D02*
Y324000D01*
Y271000D02*
X99000Y244000D01*
X72000Y265000D02*
Y271000D01*
X5512Y356142D02*
X19358D01*
X5512Y366142D02*
X31858D01*
D53*
X140500Y188000D02*
X148500Y180000D01*
X140500Y188000D02*
Y188012D01*
X148500Y180000D02*
X151000D01*
D54*
X130000Y25884D02*
Y44500D01*
X128616Y24500D02*
X130000Y25884D01*
X122000Y24500D02*
X128616D01*
X130000Y44500D02*
X132500Y47000D01*
X154500D02*
X173000Y65500D01*
X132500Y47000D02*
X154500D01*
X173000Y65500D02*
Y109803D01*
X165000Y117803D02*
X173000Y109803D01*
X165000Y117803D02*
Y118740D01*
D58*
Y121740D02*
D03*
X105000D02*
D03*
X95000D02*
D03*
X85000D02*
D03*
X75000D02*
D03*
X65000D02*
D03*
X135000Y35740D02*
D03*
X115000D02*
D03*
D61*
X5512Y356142D02*
D03*
X194488Y256142D02*
D03*
D62*
X5512Y366142D02*
D03*
D65*
X173000Y265983D02*
D03*
X94032Y104000D02*
D03*
X121002Y83600D02*
D03*
X150870Y148904D02*
D03*
X51114Y156302D02*
D03*
X47000Y228000D02*
D03*
X121000Y147500D02*
D03*
X88500Y152587D02*
D03*
X135000Y199626D02*
D03*
X140500Y188012D02*
D03*
X151000Y180000D02*
D03*
X148500D02*
D03*
X74000Y152503D02*
D03*
X85000Y152587D02*
D03*
X79500D02*
D03*
X95000D02*
D03*
X103000Y153500D02*
D03*
X86000Y91000D02*
D03*
X36835Y132186D02*
D03*
X111500Y148000D02*
D03*
X71000Y167000D02*
D03*
X94000Y100500D02*
D03*
X44000Y143500D02*
D03*
X53000Y197000D02*
D03*
X103678Y64678D02*
D03*
X47000Y202000D02*
D03*
X61500Y134500D02*
D03*
X61630Y197500D02*
D03*
X141349Y212651D02*
D03*
X141500Y215300D02*
D03*
X155000Y208000D02*
D03*
X133700Y220000D02*
D03*
X134000Y217500D02*
D03*
X98229Y208238D02*
D03*
X122000Y24500D02*
D03*
X100394Y253150D02*
D03*
X79528Y251575D02*
D03*
X49000Y23957D02*
D03*
X51500Y23000D02*
D03*
X104000Y264500D02*
D03*
X122500Y110500D02*
D03*
M02*
