G04*
G04 #@! TF.GenerationSoftware,Altium Limited,Altium Designer,22.4.2 (48)*
G04*
G04 Layer_Color=128*
%FSLAX25Y25*%
%MOIN*%
G70*
G04*
G04 #@! TF.SameCoordinates,F1429C7B-AB02-4E32-93F6-432C4BA2DB55*
G04*
G04*
G04 #@! TF.FilePolarity,Positive*
G04*
G01*
G75*
%ADD173C,0.00200*%
D173*
X173031Y118740D02*
X176969D01*
X175000Y116772D02*
Y120709D01*
X113031Y118740D02*
X116969D01*
X115000Y116772D02*
Y120709D01*
X123031Y118740D02*
X126969D01*
X125000Y116772D02*
Y120709D01*
X133031Y118740D02*
X136969D01*
X135000Y116772D02*
Y120709D01*
X143032Y118740D02*
X146968D01*
X145000Y116772D02*
Y120709D01*
X153032Y118740D02*
X156968D01*
X155000Y116772D02*
Y120709D01*
X163031Y118740D02*
X166969D01*
X165000Y116772D02*
Y120709D01*
X103032Y118740D02*
X106968D01*
X105000Y116772D02*
Y120709D01*
X93032Y118740D02*
X96969D01*
X95000Y116772D02*
Y120709D01*
X83031Y118740D02*
X86968D01*
X85000Y116772D02*
Y120709D01*
X73032Y118740D02*
X76968D01*
X75000Y116772D02*
Y120709D01*
X63032Y118740D02*
X66969D01*
X65000Y116772D02*
Y120709D01*
X53031Y118740D02*
X56968D01*
X55000Y116772D02*
Y120709D01*
X43031Y118740D02*
X46968D01*
X45000Y116772D02*
Y120709D01*
X33031Y118740D02*
X36968D01*
X35000Y116772D02*
Y120709D01*
X23031Y118740D02*
X26969D01*
X25000Y116772D02*
Y120709D01*
X133031Y38740D02*
X136969D01*
X135000Y36772D02*
Y40709D01*
X23031Y38740D02*
X26969D01*
X25000Y36772D02*
Y40709D01*
X33031Y38740D02*
X36968D01*
X35000Y36772D02*
Y40709D01*
X43031Y38740D02*
X46968D01*
X45000Y36772D02*
Y40709D01*
X53031Y38740D02*
X56968D01*
X55000Y36772D02*
Y40709D01*
X63032Y38740D02*
X66969D01*
X65000Y36772D02*
Y40709D01*
X73032Y38740D02*
X76968D01*
X75000Y36772D02*
Y40709D01*
X83031Y38740D02*
X86968D01*
X85000Y36772D02*
Y40709D01*
X93032Y38740D02*
X96969D01*
X95000Y36772D02*
Y40709D01*
X103032Y38740D02*
X106968D01*
X105000Y36772D02*
Y40709D01*
X113031Y38740D02*
X116969D01*
X115000Y36772D02*
Y40709D01*
X123031Y38740D02*
X126969D01*
X125000Y36772D02*
Y40709D01*
X57480Y163386D02*
X63779D01*
X60630Y160236D02*
Y166535D01*
X137205Y163386D02*
X141535D01*
X139370Y161221D02*
Y165551D01*
X42717Y8268D02*
X44685D01*
X43701Y7283D02*
Y9252D01*
X68701Y8268D02*
X70669D01*
X69685Y7283D02*
Y9252D01*
X92716Y294291D02*
X107283D01*
X100000Y287008D02*
Y301575D01*
X3347Y136142D02*
X7677D01*
X5512Y133976D02*
Y138307D01*
X3347Y146142D02*
X7677D01*
X5512Y143976D02*
Y148307D01*
X3347Y156142D02*
X7677D01*
X5512Y153976D02*
Y158307D01*
X3347Y166142D02*
X7677D01*
X5512Y163976D02*
Y168307D01*
X3347Y176142D02*
X7677D01*
X5512Y173976D02*
Y178307D01*
X3347Y186142D02*
X7677D01*
X5512Y183976D02*
Y188307D01*
X3347Y196142D02*
X7677D01*
X5512Y193976D02*
Y198307D01*
X3347Y206142D02*
X7677D01*
X5512Y203976D02*
Y208307D01*
X3347Y216142D02*
X7677D01*
X5512Y213976D02*
Y218307D01*
X3347Y226142D02*
X7677D01*
X5512Y223976D02*
Y228307D01*
X3347Y236142D02*
X7677D01*
X5512Y233976D02*
Y238307D01*
X3347Y246142D02*
X7677D01*
X5512Y243976D02*
Y248307D01*
X3347Y256142D02*
X7677D01*
X5512Y253976D02*
Y258307D01*
X3347Y266142D02*
X7677D01*
X5512Y263976D02*
Y268307D01*
X3347Y276142D02*
X7677D01*
X5512Y273976D02*
Y278307D01*
X3347Y286142D02*
X7677D01*
X5512Y283976D02*
Y288307D01*
X3347Y296142D02*
X7677D01*
X5512Y293976D02*
Y298307D01*
X3347Y306142D02*
X7677D01*
X5512Y303976D02*
Y308307D01*
X3347Y316142D02*
X7677D01*
X5512Y313976D02*
Y318307D01*
X3347Y326142D02*
X7677D01*
X5512Y323976D02*
Y328307D01*
X3347Y336142D02*
X7677D01*
X5512Y333976D02*
Y338307D01*
X3347Y346142D02*
X7677D01*
X5512Y343976D02*
Y348307D01*
X3347Y356142D02*
X7677D01*
X5512Y353976D02*
Y358307D01*
X3347Y366142D02*
X7677D01*
X5512Y363976D02*
Y368307D01*
X192323Y136142D02*
X196653D01*
X194488Y133976D02*
Y138307D01*
X192323Y146142D02*
X196653D01*
X194488Y143976D02*
Y148307D01*
X192323Y156142D02*
X196653D01*
X194488Y153976D02*
Y158307D01*
X192323Y166142D02*
X196653D01*
X194488Y163976D02*
Y168307D01*
X192323Y176142D02*
X196653D01*
X194488Y173976D02*
Y178307D01*
X192323Y186142D02*
X196653D01*
X194488Y183976D02*
Y188307D01*
X192323Y196142D02*
X196653D01*
X194488Y193976D02*
Y198307D01*
X192323Y206142D02*
X196653D01*
X194488Y203976D02*
Y208307D01*
X192323Y216142D02*
X196653D01*
X194488Y213976D02*
Y218307D01*
X192323Y226142D02*
X196653D01*
X194488Y223976D02*
Y228307D01*
X192323Y236142D02*
X196653D01*
X194488Y233976D02*
Y238307D01*
X192323Y246142D02*
X196653D01*
X194488Y243976D02*
Y248307D01*
X192323Y256142D02*
X196653D01*
X194488Y253976D02*
Y258307D01*
X192323Y266142D02*
X196653D01*
X194488Y263976D02*
Y268307D01*
X192323Y276142D02*
X196653D01*
X194488Y273976D02*
Y278307D01*
X192323Y286142D02*
X196653D01*
X194488Y283976D02*
Y288307D01*
X192323Y296142D02*
X196653D01*
X194488Y293976D02*
Y298307D01*
X192323Y306142D02*
X196653D01*
X194488Y303976D02*
Y308307D01*
X192323Y316142D02*
X196653D01*
X194488Y313976D02*
Y318307D01*
X192323Y326142D02*
X196653D01*
X194488Y323976D02*
Y328307D01*
X192323Y336142D02*
X196653D01*
X194488Y333976D02*
Y338307D01*
X192323Y346142D02*
X196653D01*
X194488Y343976D02*
Y348307D01*
X192323Y356142D02*
X196653D01*
X194488Y353976D02*
Y358307D01*
X192323Y366142D02*
X196653D01*
X194488Y363976D02*
Y368307D01*
X5000Y43740D02*
X15000D01*
X10000Y38740D02*
Y48740D01*
X5000Y114016D02*
X15000D01*
X10000Y109016D02*
Y119016D01*
X185000Y114016D02*
X195000D01*
X190000Y109016D02*
Y119016D01*
X185000Y43740D02*
X195000D01*
X190000Y38740D02*
Y48740D01*
X180118Y391732D02*
X193110D01*
X186614Y385236D02*
Y398228D01*
X6890Y13780D02*
X19882D01*
X13386Y7283D02*
Y20276D01*
X180118Y13780D02*
X193110D01*
X186614Y7283D02*
Y20276D01*
X6890Y391732D02*
X19882D01*
X13386Y385236D02*
Y398228D01*
X124606Y209500D02*
X125394D01*
X125000Y209106D02*
Y209894D01*
X56346Y213779D02*
X57134D01*
X56740Y213386D02*
Y214173D01*
X169949Y97557D02*
X170736D01*
X170343Y97163D02*
Y97950D01*
X172606Y265983D02*
X173394D01*
X173000Y265589D02*
Y266377D01*
X166679Y183428D02*
X167466D01*
X167072Y183034D02*
Y183821D01*
X167606Y180000D02*
X168394D01*
X168000Y179606D02*
Y180394D01*
X34072Y140534D02*
X34860D01*
X34466Y140140D02*
Y140928D01*
X97606Y114000D02*
X98394D01*
X98000Y113606D02*
Y114394D01*
X134106Y137000D02*
X134894D01*
X134500Y136606D02*
Y137394D01*
X102606Y129500D02*
X103394D01*
X103000Y129106D02*
Y129894D01*
X93638Y104000D02*
X94425D01*
X94032Y103606D02*
Y104394D01*
X158606Y145000D02*
X159394D01*
X159000Y144606D02*
Y145394D01*
X84252Y314032D02*
X85039D01*
X84646Y313638D02*
Y314425D01*
X80315Y314032D02*
X81102D01*
X80709Y313638D02*
Y314425D01*
X57106Y316000D02*
X57894D01*
X57500Y315606D02*
Y316394D01*
X92606Y92000D02*
X93394D01*
X93000Y91606D02*
Y92394D01*
X78394Y99917D02*
X79181D01*
X78787Y99524D02*
Y100311D01*
X97135Y96443D02*
X97922D01*
X97528Y96049D02*
Y96837D01*
X100678Y98500D02*
X101465D01*
X101072Y98106D02*
Y98894D01*
X116606Y63500D02*
X117394D01*
X117000Y63106D02*
Y63894D01*
X134284Y87822D02*
X135071D01*
X134678Y87429D02*
Y88216D01*
X131534Y85072D02*
X132321D01*
X131928Y84679D02*
Y85466D01*
X110100Y77481D02*
X112899D01*
X111500Y76081D02*
Y78880D01*
X120608Y83600D02*
X121396D01*
X121002Y83206D02*
Y83994D01*
X150476Y148904D02*
X151264D01*
X150870Y148510D02*
Y149297D01*
X19307Y141134D02*
X20095D01*
X19701Y140741D02*
Y141528D01*
X50720Y156302D02*
X51507D01*
X51114Y155908D02*
Y156695D01*
X65106Y166500D02*
X65894D01*
X65500Y166106D02*
Y166894D01*
X31102Y106299D02*
X31890D01*
X31496Y105905D02*
Y106693D01*
X31102Y109252D02*
X31890D01*
X31496Y108858D02*
Y109646D01*
X52756Y70866D02*
X53543D01*
X53150Y70472D02*
Y71260D01*
X52756Y66929D02*
X53543D01*
X53150Y66535D02*
Y67323D01*
X52756Y62992D02*
X53543D01*
X53150Y62598D02*
Y63386D01*
X37008Y49213D02*
X37795D01*
X37402Y48819D02*
Y49606D01*
X33071Y49213D02*
X33858D01*
X33465Y48819D02*
Y49606D01*
X29134Y49213D02*
X29921D01*
X29528Y48819D02*
Y49606D01*
X25197Y49213D02*
X25984D01*
X25591Y48819D02*
Y49606D01*
X21260Y19685D02*
X22047D01*
X21654Y19291D02*
Y20079D01*
X17323Y23622D02*
X18110D01*
X17717Y23228D02*
Y24016D01*
X28457Y20977D02*
X29244D01*
X28850Y20583D02*
Y21370D01*
X31410Y18024D02*
X32197D01*
X31803Y17630D02*
Y18417D01*
X24520Y24914D02*
X25307D01*
X24914Y24520D02*
Y25307D01*
X22106Y43500D02*
X22894D01*
X22500Y43106D02*
Y43894D01*
X28128Y375984D02*
X30927D01*
X29528Y374585D02*
Y377384D01*
X24781Y346972D02*
X27581D01*
X26181Y345573D02*
Y348372D01*
X49606Y47000D02*
X50394D01*
X50000Y46606D02*
Y47394D01*
X47606Y45000D02*
X48394D01*
X48000Y44606D02*
Y45394D01*
X40945Y43307D02*
X41732D01*
X41339Y42913D02*
Y43701D01*
X37008Y43307D02*
X37795D01*
X37402Y42913D02*
Y43701D01*
X33071Y43307D02*
X33858D01*
X33465Y42913D02*
Y43701D01*
X29134Y43307D02*
X29921D01*
X29528Y42913D02*
Y43701D01*
X31102Y9793D02*
X31890D01*
X31496Y9399D02*
Y10187D01*
X46606Y228000D02*
X47394D01*
X47000Y227606D02*
Y228394D01*
X41520Y186562D02*
X42307D01*
X41913Y186168D02*
Y186956D01*
X47043Y184985D02*
X47831D01*
X47437Y184592D02*
Y185379D01*
X78106Y188500D02*
X78894D01*
X78500Y188106D02*
Y188894D01*
X79976Y186197D02*
X80764D01*
X80370Y185803D02*
Y186591D01*
X82558Y184327D02*
X83346D01*
X82952Y183933D02*
Y184721D01*
X85606Y184500D02*
X86394D01*
X86000Y184106D02*
Y184894D01*
X131606Y18000D02*
X132394D01*
X132000Y17606D02*
Y18394D01*
X133584Y16591D02*
X134371D01*
X133978Y16198D02*
Y16985D01*
X133606Y19500D02*
X134394D01*
X134000Y19106D02*
Y19894D01*
X120606Y147500D02*
X121394D01*
X121000Y147106D02*
Y147894D01*
X125814Y158786D02*
X128613D01*
X127214Y157387D02*
Y160186D01*
X118886Y166220D02*
X119674D01*
X119280Y165826D02*
Y166613D01*
X91606Y164413D02*
X92394D01*
X92000Y164020D02*
Y164807D01*
X90585Y166544D02*
X91373D01*
X90979Y166150D02*
Y166937D01*
X88106Y152587D02*
X88894D01*
X88500Y152193D02*
Y152980D01*
X132106Y161000D02*
X132894D01*
X132500Y160606D02*
Y161394D01*
X45106Y155000D02*
X45894D01*
X45500Y154606D02*
Y155394D01*
X111106Y95500D02*
X111894D01*
X111500Y95106D02*
Y95894D01*
X119106Y90000D02*
X119894D01*
X119500Y89606D02*
Y90394D01*
X119106Y97000D02*
X119894D01*
X119500Y96606D02*
Y97394D01*
X116106Y105500D02*
X116894D01*
X116500Y105106D02*
Y105894D01*
X116106Y113000D02*
X116894D01*
X116500Y112606D02*
Y113394D01*
X111606Y136000D02*
X112394D01*
X112000Y135606D02*
Y136394D01*
X113106Y94000D02*
X113894D01*
X113500Y93606D02*
Y94394D01*
X171606Y180500D02*
X172394D01*
X172000Y180106D02*
Y180894D01*
X70472Y228346D02*
X71260D01*
X70866Y227953D02*
Y228740D01*
X134606Y199626D02*
X135394D01*
X135000Y199232D02*
Y200020D01*
X135112Y192500D02*
X135900D01*
X135506Y192106D02*
Y192894D01*
X140106Y188012D02*
X140894D01*
X140500Y187618D02*
Y188406D01*
X134606Y184000D02*
X135394D01*
X135000Y183606D02*
Y184394D01*
X130016Y179996D02*
X131984D01*
X131000Y179012D02*
Y180980D01*
X147606Y167500D02*
X148394D01*
X148000Y167106D02*
Y167894D01*
X150606Y180000D02*
X151394D01*
X151000Y179606D02*
Y180394D01*
X148106Y180000D02*
X148894D01*
X148500Y179606D02*
Y180394D01*
X73606Y152503D02*
X74394D01*
X74000Y152110D02*
Y152897D01*
X84606Y152587D02*
X85394D01*
X85000Y152193D02*
Y152980D01*
X79106Y152587D02*
X79894D01*
X79500Y152193D02*
Y152980D01*
X94606Y152587D02*
X95394D01*
X95000Y152193D02*
Y152980D01*
X102606Y153500D02*
X103394D01*
X103000Y153106D02*
Y153894D01*
X109606Y61000D02*
X110394D01*
X110000Y60606D02*
Y61394D01*
X85606Y91000D02*
X86394D01*
X86000Y90606D02*
Y91394D01*
X40124Y139982D02*
X40912D01*
X40518Y139588D02*
Y140375D01*
X36441Y132186D02*
X37228D01*
X36835Y131793D02*
Y132580D01*
X116606Y148000D02*
X117394D01*
X117000Y147606D02*
Y148394D01*
X114106Y148000D02*
X114894D01*
X114500Y147606D02*
Y148394D01*
X108606Y148000D02*
X109394D01*
X109000Y147606D02*
Y148394D01*
X111106Y148000D02*
X111894D01*
X111500Y147606D02*
Y148394D01*
X81106Y167000D02*
X81894D01*
X81500Y166606D02*
Y167394D01*
X77606Y167000D02*
X78394D01*
X78000Y166606D02*
Y167394D01*
X73606Y167000D02*
X74394D01*
X74000Y166606D02*
Y167394D01*
X70606Y167000D02*
X71394D01*
X71000Y166606D02*
Y167394D01*
X57600Y171500D02*
X60400D01*
X59000Y170100D02*
Y172900D01*
X158106Y161000D02*
X158894D01*
X158500Y160606D02*
Y161394D01*
X93606Y100500D02*
X94394D01*
X94000Y100106D02*
Y100894D01*
X151969Y101575D02*
X152756D01*
X152362Y101181D02*
Y101969D01*
X43606Y143500D02*
X44394D01*
X44000Y143106D02*
Y143894D01*
X52606Y197000D02*
X53394D01*
X53000Y196606D02*
Y197394D01*
X41606Y189000D02*
X42394D01*
X42000Y188606D02*
Y189394D01*
X48606Y183000D02*
X49394D01*
X49000Y182606D02*
Y183394D01*
X32606Y134500D02*
X33394D01*
X33000Y134106D02*
Y134894D01*
X47043Y181000D02*
X47831D01*
X47437Y180606D02*
Y181394D01*
X48178Y178928D02*
X48965D01*
X48572Y178534D02*
Y179322D01*
X36606Y112500D02*
X37394D01*
X37000Y112106D02*
Y112894D01*
X95606Y181500D02*
X96394D01*
X96000Y181106D02*
Y181894D01*
X75804Y190823D02*
X76591D01*
X76198Y190429D02*
Y191217D01*
X97606Y179000D02*
X98394D01*
X98000Y178606D02*
Y179394D01*
X91719Y179056D02*
X92506D01*
X92113Y178663D02*
Y179450D01*
X75606Y193500D02*
X76394D01*
X76000Y193106D02*
Y193894D01*
X103284Y64678D02*
X104071D01*
X103678Y64284D02*
Y65071D01*
X82100Y70000D02*
X84900D01*
X83500Y68600D02*
Y71400D01*
X69100Y70000D02*
X71900D01*
X70500Y68600D02*
Y71400D01*
X52756Y86614D02*
X53543D01*
X53150Y86221D02*
Y87008D01*
X52756Y90000D02*
X53543D01*
X53150Y89606D02*
Y90394D01*
X52756Y82677D02*
X53543D01*
X53150Y82284D02*
Y83071D01*
X52756Y78740D02*
X53543D01*
X53150Y78347D02*
Y79134D01*
X52756Y74803D02*
X53543D01*
X53150Y74410D02*
Y75197D01*
X30606Y164500D02*
X31394D01*
X31000Y164106D02*
Y164894D01*
X43100Y171500D02*
X45900D01*
X44500Y170100D02*
Y172900D01*
X92618Y129500D02*
X93405D01*
X93012Y129106D02*
Y129894D01*
X87106Y129500D02*
X87894D01*
X87500Y129106D02*
Y129894D01*
X86964Y136858D02*
X87752D01*
X87358Y136464D02*
Y137252D01*
X23106Y142500D02*
X23894D01*
X23500Y142106D02*
Y142894D01*
X43606Y199000D02*
X44394D01*
X44000Y198606D02*
Y199394D01*
X41606Y202000D02*
X42394D01*
X42000Y201606D02*
Y202394D01*
X46606Y202000D02*
X47394D01*
X47000Y201606D02*
Y202394D01*
X81106Y136500D02*
X81894D01*
X81500Y136106D02*
Y136894D01*
X102606Y137000D02*
X103394D01*
X103000Y136606D02*
Y137394D01*
X36100Y56000D02*
X38900D01*
X37500Y54600D02*
Y57400D01*
X62456Y13287D02*
X63243D01*
X62849Y12894D02*
Y13681D01*
X60257Y13287D02*
X61044D01*
X60651Y12894D02*
Y13681D01*
X56703Y13557D02*
X57491D01*
X57097Y13164D02*
Y13951D01*
X54344Y13446D02*
X55131D01*
X54738Y13052D02*
Y13840D01*
X37516Y7500D02*
X39484D01*
X38500Y6516D02*
Y8484D01*
X104606Y166413D02*
X105394D01*
X105000Y166020D02*
Y166807D01*
X128106Y148000D02*
X128894D01*
X128500Y147606D02*
Y148394D01*
X130606Y148000D02*
X131394D01*
X131000Y147606D02*
Y148394D01*
X67106Y137500D02*
X67894D01*
X67500Y137106D02*
Y137894D01*
X61106Y134500D02*
X61894D01*
X61500Y134106D02*
Y134894D01*
X61236Y197500D02*
X62024D01*
X61630Y197106D02*
Y197894D01*
X127606Y202500D02*
X128394D01*
X128000Y202106D02*
Y202894D01*
X127606Y207000D02*
X128394D01*
X128000Y206606D02*
Y207394D01*
X155106Y203500D02*
X155894D01*
X155500Y203106D02*
Y203894D01*
X140956Y212651D02*
X141743D01*
X141349Y212257D02*
Y213044D01*
X141106Y215300D02*
X141894D01*
X141500Y214906D02*
Y215694D01*
X154606Y208000D02*
X155394D01*
X155000Y207606D02*
Y208394D01*
X141106Y210000D02*
X141894D01*
X141500Y209606D02*
Y210394D01*
X133306Y220000D02*
X134094D01*
X133700Y219606D02*
Y220394D01*
X133606Y217500D02*
X134394D01*
X134000Y217106D02*
Y217894D01*
X105606Y210207D02*
X106394D01*
X106000Y209813D02*
Y210600D01*
X131606Y213500D02*
X132394D01*
X132000Y213106D02*
Y213894D01*
X106606Y212000D02*
X107394D01*
X107000Y211606D02*
Y212394D01*
X125106Y203000D02*
X125894D01*
X125500Y202606D02*
Y203394D01*
X107600Y218500D02*
X110400D01*
X109000Y217100D02*
Y219900D01*
X156100Y219000D02*
X158900D01*
X157500Y217600D02*
Y220400D01*
X97835Y208238D02*
X98622D01*
X98229Y207844D02*
Y208632D01*
X121606Y24500D02*
X122394D01*
X122000Y24106D02*
Y24894D01*
X105606Y12000D02*
X106394D01*
X106000Y11606D02*
Y12394D01*
X101606Y12000D02*
X102394D01*
X102000Y11606D02*
Y12394D01*
X124106Y10000D02*
X124894D01*
X124500Y9606D02*
Y10394D01*
X119106Y12000D02*
X119894D01*
X119500Y11606D02*
Y12394D01*
X171106Y59000D02*
X171894D01*
X171500Y58606D02*
Y59394D01*
X151606Y59000D02*
X152394D01*
X152000Y58606D02*
Y59394D01*
X177106Y132000D02*
X177894D01*
X177500Y131606D02*
Y132394D01*
X190106Y127500D02*
X190894D01*
X190500Y127106D02*
Y127894D01*
X168106Y108500D02*
X168894D01*
X168500Y108106D02*
Y108894D01*
X165106Y106000D02*
X165894D01*
X165500Y105606D02*
Y106394D01*
X192106Y59000D02*
X192894D01*
X192500Y58606D02*
Y59394D01*
X158940Y95666D02*
X159728D01*
X159334Y95272D02*
Y96060D01*
X55100Y390500D02*
X57900D01*
X56500Y389100D02*
Y391900D01*
X63600Y365028D02*
X66400D01*
X65000Y363628D02*
Y366427D01*
X102600Y390000D02*
X105400D01*
X104000Y388600D02*
Y391400D01*
X149602Y389500D02*
X152398D01*
X151000Y388102D02*
Y390898D01*
X57106Y294500D02*
X57894D01*
X57500Y294106D02*
Y294894D01*
X86221Y216535D02*
X87008D01*
X86614Y216142D02*
Y216929D01*
X86221Y220472D02*
X87008D01*
X86614Y220079D02*
Y220866D01*
X82284Y216535D02*
X83071D01*
X82677Y216142D02*
Y216929D01*
X78347Y216535D02*
X79134D01*
X78740Y216142D02*
Y216929D01*
X82284Y220472D02*
X83071D01*
X82677Y220079D02*
Y220866D01*
X78347Y220472D02*
X79134D01*
X78740Y220079D02*
Y220866D01*
X37008Y271654D02*
X37795D01*
X37402Y271260D02*
Y272047D01*
X37008Y275590D02*
X37795D01*
X37402Y275197D02*
Y275984D01*
X37008Y279528D02*
X37795D01*
X37402Y279134D02*
Y279921D01*
X48819Y253937D02*
X49606D01*
X49213Y253543D02*
Y254331D01*
X48819Y257874D02*
X49606D01*
X49213Y257480D02*
Y258268D01*
X48819Y261811D02*
X49606D01*
X49213Y261417D02*
Y262205D01*
X48819Y265748D02*
X49606D01*
X49213Y265354D02*
Y266142D01*
X62598Y265748D02*
X63386D01*
X62992Y265354D02*
Y266142D01*
X62598Y269685D02*
X63386D01*
X62992Y269291D02*
Y270079D01*
X62598Y273622D02*
X63386D01*
X62992Y273228D02*
Y274016D01*
X62598Y277559D02*
X63386D01*
X62992Y277165D02*
Y277953D01*
X105905Y228346D02*
X106693D01*
X106299Y227953D02*
Y228740D01*
X109843Y228346D02*
X110630D01*
X110236Y227953D02*
Y228740D01*
X109843Y232283D02*
X110630D01*
X110236Y231890D02*
Y232677D01*
X105905Y232283D02*
X106693D01*
X106299Y231890D02*
Y232677D01*
X74410Y228346D02*
X75197D01*
X74803Y227953D02*
Y228740D01*
X78347Y228346D02*
X79134D01*
X78740Y227953D02*
Y228740D01*
X82284Y228346D02*
X83071D01*
X82677Y227953D02*
Y228740D01*
X82284Y232283D02*
X83071D01*
X82677Y231890D02*
Y232677D01*
X78347Y232283D02*
X79134D01*
X78740Y231890D02*
Y232677D01*
X74410Y232283D02*
X75197D01*
X74803Y231890D02*
Y232677D01*
X70472Y232283D02*
X71260D01*
X70866Y231890D02*
Y232677D01*
X70472Y248031D02*
X71260D01*
X70866Y247638D02*
Y248425D01*
X70472Y244094D02*
X71260D01*
X70866Y243701D02*
Y244488D01*
X78347Y244094D02*
X79134D01*
X78740Y243701D02*
Y244488D01*
X82284Y244094D02*
X83071D01*
X82677Y243701D02*
Y244488D01*
X82284Y248031D02*
X83071D01*
X82677Y247638D02*
Y248425D01*
X78347Y248031D02*
X79134D01*
X78740Y247638D02*
Y248425D01*
X74410Y244094D02*
X75197D01*
X74803Y243701D02*
Y244488D01*
X74410Y248031D02*
X75197D01*
X74803Y247638D02*
Y248425D01*
X74410Y253937D02*
X75197D01*
X74803Y253543D02*
Y254331D01*
X74410Y257874D02*
X75197D01*
X74803Y257480D02*
Y258268D01*
X103937Y253937D02*
X104724D01*
X104331Y253543D02*
Y254331D01*
X98032Y257874D02*
X98819D01*
X98425Y257480D02*
Y258268D01*
X101969Y259842D02*
X102756D01*
X102362Y259449D02*
Y260236D01*
X115748Y271654D02*
X116535D01*
X116142Y271260D02*
Y272047D01*
X119685Y275590D02*
X120472D01*
X120079Y275197D02*
Y275984D01*
X119685Y271654D02*
X120472D01*
X120079Y271260D02*
Y272047D01*
X123622Y271654D02*
X124409D01*
X124016Y271260D02*
Y272047D01*
X123622Y275590D02*
X124409D01*
X124016Y275197D02*
Y275984D01*
X123622Y279528D02*
X124409D01*
X124016Y279134D02*
Y279921D01*
X123622Y283465D02*
X124409D01*
X124016Y283071D02*
Y283858D01*
X145276Y283465D02*
X146063D01*
X145669Y283071D02*
Y283858D01*
X141339Y283465D02*
X142126D01*
X141732Y283071D02*
Y283858D01*
X137402Y283465D02*
X138189D01*
X137795Y283071D02*
Y283858D01*
X137402Y279528D02*
X138189D01*
X137795Y279134D02*
Y279921D01*
X141339Y279528D02*
X142126D01*
X141732Y279134D02*
Y279921D01*
X145276Y279528D02*
X146063D01*
X145669Y279134D02*
Y279921D01*
X145276Y271654D02*
X146063D01*
X145669Y271260D02*
Y272047D01*
X145276Y275590D02*
X146063D01*
X145669Y275197D02*
Y275984D01*
X137402Y275590D02*
X138189D01*
X137795Y275197D02*
Y275984D01*
X141339Y275590D02*
X142126D01*
X141732Y275197D02*
Y275984D01*
X141339Y271654D02*
X142126D01*
X141732Y271260D02*
Y272047D01*
X137402Y271654D02*
X138189D01*
X137795Y271260D02*
Y272047D01*
X80315Y311024D02*
X81102D01*
X80709Y310630D02*
Y311417D01*
X48819Y303150D02*
X49606D01*
X49213Y302756D02*
Y303543D01*
X48819Y291339D02*
X49606D01*
X49213Y290945D02*
Y291732D01*
X48819Y295276D02*
X49606D01*
X49213Y294882D02*
Y295669D01*
X48819Y299213D02*
X49606D01*
X49213Y298819D02*
Y299606D01*
X35039Y242126D02*
X35827D01*
X35433Y241732D02*
Y242520D01*
X35039Y246063D02*
X35827D01*
X35433Y245669D02*
Y246457D01*
X35039Y250000D02*
X35827D01*
X35433Y249606D02*
Y250394D01*
X35039Y253937D02*
X35827D01*
X35433Y253543D02*
Y254331D01*
X33071Y271654D02*
X33858D01*
X33465Y271260D02*
Y272047D01*
X33071Y275590D02*
X33858D01*
X33465Y275197D02*
Y275984D01*
X33071Y279528D02*
X33858D01*
X33465Y279134D02*
Y279921D01*
X33071Y283465D02*
X33858D01*
X33465Y283071D02*
Y283858D01*
X33071Y287402D02*
X33858D01*
X33465Y287008D02*
Y287795D01*
X33071Y291339D02*
X33858D01*
X33465Y290945D02*
Y291732D01*
X33071Y295276D02*
X33858D01*
X33465Y294882D02*
Y295669D01*
X33071Y299213D02*
X33858D01*
X33465Y298819D02*
Y299606D01*
X33071Y303150D02*
X33858D01*
X33465Y302756D02*
Y303543D01*
X33071Y307087D02*
X33858D01*
X33465Y306693D02*
Y307480D01*
X119685Y289370D02*
X120472D01*
X120079Y288976D02*
Y289764D01*
X119685Y293307D02*
X120472D01*
X120079Y292913D02*
Y293701D01*
X119685Y297244D02*
X120472D01*
X120079Y296850D02*
Y297638D01*
X119685Y301181D02*
X120472D01*
X120079Y300787D02*
Y301575D01*
X119685Y305118D02*
X120472D01*
X120079Y304724D02*
Y305512D01*
X119685Y309055D02*
X120472D01*
X120079Y308661D02*
Y309449D01*
X119685Y312992D02*
X120472D01*
X120079Y312598D02*
Y313386D01*
X84252Y273622D02*
X85039D01*
X84646Y273228D02*
Y274016D01*
X80315Y273622D02*
X81102D01*
X80709Y273228D02*
Y274016D01*
X80315Y277559D02*
X81102D01*
X80709Y277165D02*
Y277953D01*
X84252Y277559D02*
X85039D01*
X84646Y277165D02*
Y277953D01*
X84252Y281496D02*
X85039D01*
X84646Y281102D02*
Y281890D01*
X80315Y281496D02*
X81102D01*
X80709Y281102D02*
Y281890D01*
X115748Y285433D02*
X116535D01*
X116142Y285039D02*
Y285827D01*
X84252Y285433D02*
X85039D01*
X84646Y285039D02*
Y285827D01*
X80315Y285433D02*
X81102D01*
X80709Y285039D02*
Y285827D01*
X84252Y289370D02*
X85039D01*
X84646Y288976D02*
Y289764D01*
X80315Y289370D02*
X81102D01*
X80709Y288976D02*
Y289764D01*
X115748Y289370D02*
X116535D01*
X116142Y288976D02*
Y289764D01*
X115748Y293307D02*
X116535D01*
X116142Y292913D02*
Y293701D01*
X115748Y297244D02*
X116535D01*
X116142Y296850D02*
Y297638D01*
X80315Y297244D02*
X81102D01*
X80709Y296850D02*
Y297638D01*
X80315Y293307D02*
X81102D01*
X80709Y292913D02*
Y293701D01*
X84252Y293307D02*
X85039D01*
X84646Y292913D02*
Y293701D01*
X84252Y297244D02*
X85039D01*
X84646Y296850D02*
Y297638D01*
X84252Y301181D02*
X85039D01*
X84646Y300787D02*
Y301575D01*
X90158Y309055D02*
X90945D01*
X90551Y308661D02*
Y309449D01*
X96063Y309055D02*
X96850D01*
X96457Y308661D02*
Y309449D01*
X103937Y309055D02*
X104724D01*
X104331Y308661D02*
Y309449D01*
X96063Y312992D02*
X96850D01*
X96457Y312598D02*
Y313386D01*
X103937Y312992D02*
X104724D01*
X104331Y312598D02*
Y313386D01*
X109843Y312992D02*
X110630D01*
X110236Y312598D02*
Y313386D01*
X109843Y309055D02*
X110630D01*
X110236Y308661D02*
Y309449D01*
X115748Y301181D02*
X116535D01*
X116142Y300787D02*
Y301575D01*
X115748Y305118D02*
X116535D01*
X116142Y304724D02*
Y305512D01*
X115748Y309055D02*
X116535D01*
X116142Y308661D02*
Y309449D01*
X115748Y312992D02*
X116535D01*
X116142Y312598D02*
Y313386D01*
X100000Y320866D02*
X100787D01*
X100394Y320472D02*
Y321260D01*
X103937Y320866D02*
X104724D01*
X104331Y320472D02*
Y321260D01*
X107874Y320866D02*
X108661D01*
X108268Y320472D02*
Y321260D01*
X111811Y320866D02*
X112598D01*
X112205Y320472D02*
Y321260D01*
X115748Y320866D02*
X116535D01*
X116142Y320472D02*
Y321260D01*
X129528Y320866D02*
X130315D01*
X129921Y320472D02*
Y321260D01*
X135433Y320866D02*
X136221D01*
X135827Y320472D02*
Y321260D01*
X139370Y320866D02*
X140157D01*
X139764Y320472D02*
Y321260D01*
X143307Y320866D02*
X144095D01*
X143701Y320472D02*
Y321260D01*
X161024Y338583D02*
X161811D01*
X161417Y338189D02*
Y338976D01*
X161024Y320866D02*
X161811D01*
X161417Y320472D02*
Y321260D01*
X161024Y326772D02*
X161811D01*
X161417Y326378D02*
Y327165D01*
X161024Y332677D02*
X161811D01*
X161417Y332283D02*
Y333071D01*
X27165Y96457D02*
X27953D01*
X27559Y96063D02*
Y96850D01*
X21260Y49213D02*
X22047D01*
X21654Y48819D02*
Y49606D01*
X17323Y49213D02*
X18110D01*
X17717Y48819D02*
Y49606D01*
X27165Y9843D02*
X27953D01*
X27559Y9449D02*
Y10236D01*
X13386Y33465D02*
X14173D01*
X13780Y33071D02*
Y33858D01*
X13386Y29528D02*
X14173D01*
X13780Y29134D02*
Y29921D01*
X13386Y25591D02*
X14173D01*
X13780Y25197D02*
Y25984D01*
X85516Y22500D02*
X87484D01*
X86500Y21516D02*
Y23484D01*
X79606Y374000D02*
X80394D01*
X80000Y373606D02*
Y374394D01*
X74606Y374000D02*
X75394D01*
X75000Y373606D02*
Y374394D01*
X122106Y379000D02*
X122894D01*
X122500Y378606D02*
Y379394D01*
X126106Y379000D02*
X126894D01*
X126500Y378606D02*
Y379394D01*
X117106Y260500D02*
X117894D01*
X117500Y260106D02*
Y260894D01*
X114106Y260500D02*
X114894D01*
X114500Y260106D02*
Y260894D01*
X111106Y260500D02*
X111894D01*
X111500Y260106D02*
Y260894D01*
X126606Y205000D02*
X127394D01*
X127000Y204606D02*
Y205394D01*
X129606Y258500D02*
X130394D01*
X130000Y258106D02*
Y258894D01*
X127606Y257000D02*
X128394D01*
X128000Y256606D02*
Y257394D01*
X131606Y257000D02*
X132394D01*
X132000Y256606D02*
Y257394D01*
X129606Y256000D02*
X130394D01*
X130000Y255606D02*
Y256394D01*
X131106Y166000D02*
X131894D01*
X131500Y165606D02*
Y166394D01*
X67106Y129500D02*
X67894D01*
X67500Y129106D02*
Y129894D01*
X81106Y129500D02*
X81894D01*
X81500Y129106D02*
Y129894D01*
X3543Y125984D02*
X4331D01*
X3937Y125591D02*
Y126378D01*
X3543Y122047D02*
X4331D01*
X3937Y121653D02*
Y122441D01*
X3543Y106299D02*
X4331D01*
X3937Y105905D02*
Y106693D01*
X3543Y102362D02*
X4331D01*
X3937Y101969D02*
Y102756D01*
X3543Y98425D02*
X4331D01*
X3937Y98032D02*
Y98819D01*
X3543Y94488D02*
X4331D01*
X3937Y94095D02*
Y94882D01*
X3543Y90551D02*
X4331D01*
X3937Y90158D02*
Y90945D01*
X3543Y86614D02*
X4331D01*
X3937Y86221D02*
Y87008D01*
X3543Y82677D02*
X4331D01*
X3937Y82284D02*
Y83071D01*
X3543Y78740D02*
X4331D01*
X3937Y78347D02*
Y79134D01*
X3543Y74803D02*
X4331D01*
X3937Y74410D02*
Y75197D01*
X3543Y70866D02*
X4331D01*
X3937Y70472D02*
Y71260D01*
X3543Y66929D02*
X4331D01*
X3937Y66535D02*
Y67323D01*
X3543Y62992D02*
X4331D01*
X3937Y62598D02*
Y63386D01*
X3543Y59055D02*
X4331D01*
X3937Y58661D02*
Y59449D01*
X3543Y55118D02*
X4331D01*
X3937Y54724D02*
Y55512D01*
X3543Y51181D02*
X4331D01*
X3937Y50787D02*
Y51575D01*
X3543Y39370D02*
X4331D01*
X3937Y38976D02*
Y39764D01*
X3543Y35433D02*
X4331D01*
X3937Y35039D02*
Y35827D01*
X3543Y31496D02*
X4331D01*
X3937Y31102D02*
Y31890D01*
X3543Y27559D02*
X4331D01*
X3937Y27165D02*
Y27953D01*
X3543Y23622D02*
X4331D01*
X3937Y23228D02*
Y24016D01*
X3543Y19685D02*
X4331D01*
X3937Y19291D02*
Y20079D01*
X3543Y15748D02*
X4331D01*
X3937Y15354D02*
Y16142D01*
X3543Y11811D02*
X4331D01*
X3937Y11417D02*
Y12205D01*
X3543Y7874D02*
X4331D01*
X3937Y7480D02*
Y8268D01*
X7480Y3937D02*
X8268D01*
X7874Y3543D02*
Y4331D01*
X11417Y3937D02*
X12205D01*
X11811Y3543D02*
Y4331D01*
X15354Y3937D02*
X16142D01*
X15748Y3543D02*
Y4331D01*
X19291Y3937D02*
X20079D01*
X19685Y3543D02*
Y4331D01*
X23228Y3937D02*
X24016D01*
X23622Y3543D02*
Y4331D01*
X27165Y3937D02*
X27953D01*
X27559Y3543D02*
Y4331D01*
X31102Y3937D02*
X31890D01*
X31496Y3543D02*
Y4331D01*
X35039Y3937D02*
X35827D01*
X35433Y3543D02*
Y4331D01*
X82284Y3937D02*
X83071D01*
X82677Y3543D02*
Y4331D01*
X94095Y3937D02*
X94882D01*
X94488Y3543D02*
Y4331D01*
X98032Y3937D02*
X98819D01*
X98425Y3543D02*
Y4331D01*
X101969Y3937D02*
X102756D01*
X102362Y3543D02*
Y4331D01*
X105905Y3937D02*
X106693D01*
X106299Y3543D02*
Y4331D01*
X117717Y3937D02*
X118504D01*
X118110Y3543D02*
Y4331D01*
X121653Y3937D02*
X122441D01*
X122047Y3543D02*
Y4331D01*
X125591Y3937D02*
X126378D01*
X125984Y3543D02*
Y4331D01*
X137402Y3937D02*
X138189D01*
X137795Y3543D02*
Y4331D01*
X141339Y3937D02*
X142126D01*
X141732Y3543D02*
Y4331D01*
X145276Y3937D02*
X146063D01*
X145669Y3543D02*
Y4331D01*
X149213Y3937D02*
X150000D01*
X149606Y3543D02*
Y4331D01*
X161024Y3937D02*
X161811D01*
X161417Y3543D02*
Y4331D01*
X164961Y3937D02*
X165748D01*
X165354Y3543D02*
Y4331D01*
X168898Y3937D02*
X169685D01*
X169291Y3543D02*
Y4331D01*
X172835Y3937D02*
X173622D01*
X173228Y3543D02*
Y4331D01*
X176772Y3937D02*
X177559D01*
X177165Y3543D02*
Y4331D01*
X180709Y3937D02*
X181496D01*
X181102Y3543D02*
Y4331D01*
X184646Y3937D02*
X185433D01*
X185039Y3543D02*
Y4331D01*
X188583Y3937D02*
X189370D01*
X188976Y3543D02*
Y4331D01*
X192520Y3937D02*
X193307D01*
X192913Y3543D02*
Y4331D01*
X196457Y7874D02*
X197244D01*
X196850Y7480D02*
Y8268D01*
X196457Y11811D02*
X197244D01*
X196850Y11417D02*
Y12205D01*
X196457Y15748D02*
X197244D01*
X196850Y15354D02*
Y16142D01*
X196457Y19685D02*
X197244D01*
X196850Y19291D02*
Y20079D01*
X196457Y23622D02*
X197244D01*
X196850Y23228D02*
Y24016D01*
X196457Y27559D02*
X197244D01*
X196850Y27165D02*
Y27953D01*
X196457Y31496D02*
X197244D01*
X196850Y31102D02*
Y31890D01*
X196457Y35433D02*
X197244D01*
X196850Y35039D02*
Y35827D01*
X196457Y39370D02*
X197244D01*
X196850Y38976D02*
Y39764D01*
X196457Y47244D02*
X197244D01*
X196850Y46850D02*
Y47638D01*
X196457Y51181D02*
X197244D01*
X196850Y50787D02*
Y51575D01*
X196457Y55118D02*
X197244D01*
X196850Y54724D02*
Y55512D01*
X196457Y59055D02*
X197244D01*
X196850Y58661D02*
Y59449D01*
X196457Y62992D02*
X197244D01*
X196850Y62598D02*
Y63386D01*
X196457Y66929D02*
X197244D01*
X196850Y66535D02*
Y67323D01*
X196457Y70866D02*
X197244D01*
X196850Y70472D02*
Y71260D01*
X196457Y74803D02*
X197244D01*
X196850Y74410D02*
Y75197D01*
X196457Y78740D02*
X197244D01*
X196850Y78347D02*
Y79134D01*
X196457Y82677D02*
X197244D01*
X196850Y82284D02*
Y83071D01*
X196457Y86614D02*
X197244D01*
X196850Y86221D02*
Y87008D01*
X196457Y90551D02*
X197244D01*
X196850Y90158D02*
Y90945D01*
X196457Y94488D02*
X197244D01*
X196850Y94095D02*
Y94882D01*
X196457Y98425D02*
X197244D01*
X196850Y98032D02*
Y98819D01*
X196457Y102362D02*
X197244D01*
X196850Y101969D02*
Y102756D01*
X196457Y106299D02*
X197244D01*
X196850Y105905D02*
Y106693D01*
X196457Y110236D02*
X197244D01*
X196850Y109843D02*
Y110630D01*
X196457Y114173D02*
X197244D01*
X196850Y113779D02*
Y114567D01*
X196457Y118110D02*
X197244D01*
X196850Y117717D02*
Y118504D01*
X196457Y122047D02*
X197244D01*
X196850Y121653D02*
Y122441D01*
X196457Y125984D02*
X197244D01*
X196850Y125591D02*
Y126378D01*
X153150Y401575D02*
X153937D01*
X153543Y401181D02*
Y401968D01*
X149213Y401575D02*
X150000D01*
X149606Y401181D02*
Y401968D01*
X145276Y401575D02*
X146063D01*
X145669Y401181D02*
Y401968D01*
X141339Y401575D02*
X142126D01*
X141732Y401181D02*
Y401968D01*
X105905Y401575D02*
X106693D01*
X106299Y401181D02*
Y401968D01*
X101969Y401575D02*
X102756D01*
X102362Y401181D02*
Y401968D01*
X98032Y401575D02*
X98819D01*
X98425Y401181D02*
Y401968D01*
X94095Y401575D02*
X94882D01*
X94488Y401181D02*
Y401968D01*
X58661Y401575D02*
X59449D01*
X59055Y401181D02*
Y401968D01*
X54724Y401575D02*
X55512D01*
X55118Y401181D02*
Y401968D01*
X50787Y401575D02*
X51575D01*
X51181Y401181D02*
Y401968D01*
X46850Y401575D02*
X47638D01*
X47244Y401181D02*
Y401968D01*
X196457Y374016D02*
X197244D01*
X196850Y373622D02*
Y374410D01*
X196457Y377953D02*
X197244D01*
X196850Y377559D02*
Y378346D01*
X196457Y381890D02*
X197244D01*
X196850Y381496D02*
Y382283D01*
X196457Y385827D02*
X197244D01*
X196850Y385433D02*
Y386221D01*
X196457Y389764D02*
X197244D01*
X196850Y389370D02*
Y390158D01*
X196457Y393701D02*
X197244D01*
X196850Y393307D02*
Y394094D01*
X196457Y397638D02*
X197244D01*
X196850Y397244D02*
Y398031D01*
X192520Y401575D02*
X193307D01*
X192913Y401181D02*
Y401968D01*
X188583Y401575D02*
X189370D01*
X188976Y401181D02*
Y401968D01*
X184646Y401575D02*
X185433D01*
X185039Y401181D02*
Y401968D01*
X180709Y401575D02*
X181496D01*
X181102Y401181D02*
Y401968D01*
X176772Y401575D02*
X177559D01*
X177165Y401181D02*
Y401968D01*
X172835Y401575D02*
X173622D01*
X173228Y401181D02*
Y401968D01*
X168898Y401575D02*
X169685D01*
X169291Y401181D02*
Y401968D01*
X125591Y401575D02*
X126378D01*
X125984Y401181D02*
Y401968D01*
X121653Y401575D02*
X122441D01*
X122047Y401181D02*
Y401968D01*
X78347Y401575D02*
X79134D01*
X78740Y401181D02*
Y401968D01*
X74410Y401575D02*
X75197D01*
X74803Y401181D02*
Y401968D01*
X31102Y401575D02*
X31890D01*
X31496Y401181D02*
Y401968D01*
X27165Y401575D02*
X27953D01*
X27559Y401181D02*
Y401968D01*
X23228Y401575D02*
X24016D01*
X23622Y401181D02*
Y401968D01*
X19291Y401575D02*
X20079D01*
X19685Y401181D02*
Y401968D01*
X15354Y401575D02*
X16142D01*
X15748Y401181D02*
Y401968D01*
X11417Y401575D02*
X12205D01*
X11811Y401181D02*
Y401968D01*
X7480Y401575D02*
X8268D01*
X7874Y401181D02*
Y401968D01*
X3543Y397638D02*
X4331D01*
X3937Y397244D02*
Y398031D01*
X3543Y393701D02*
X4331D01*
X3937Y393307D02*
Y394094D01*
X3543Y389764D02*
X4331D01*
X3937Y389370D02*
Y390158D01*
X3543Y385827D02*
X4331D01*
X3937Y385433D02*
Y386221D01*
X3543Y381890D02*
X4331D01*
X3937Y381496D02*
Y382283D01*
X3543Y377953D02*
X4331D01*
X3937Y377559D02*
Y378346D01*
X3543Y374016D02*
X4331D01*
X3937Y373622D02*
Y374410D01*
X170106Y168000D02*
X170894D01*
X170500Y167606D02*
Y168394D01*
X172106Y164000D02*
X172894D01*
X172500Y163606D02*
Y164394D01*
X31102Y322047D02*
X31890D01*
X31496Y321654D02*
Y322441D01*
X127106Y330339D02*
X127894D01*
X127500Y329945D02*
Y330732D01*
X142606Y328110D02*
X143394D01*
X143000Y327716D02*
Y328504D01*
X129662Y333555D02*
X130449D01*
X130055Y333162D02*
Y333949D01*
X126766Y332676D02*
X127554D01*
X127160Y332283D02*
Y333070D01*
X138189Y81102D02*
X138976D01*
X138583Y80709D02*
Y81496D01*
X127606Y254500D02*
X128394D01*
X128000Y254106D02*
Y254894D01*
X129606Y253500D02*
X130394D01*
X130000Y253106D02*
Y253894D01*
X127606Y252000D02*
X128394D01*
X128000Y251606D02*
Y252394D01*
X131606Y252000D02*
X132394D01*
X132000Y251606D02*
Y252394D01*
X131606Y254500D02*
X132394D01*
X132000Y254106D02*
Y254894D01*
X100000Y253150D02*
X100787D01*
X100394Y252756D02*
Y253543D01*
X79134Y251575D02*
X79921D01*
X79528Y251181D02*
Y251969D01*
X61811Y338189D02*
X62598D01*
X62205Y337795D02*
Y338583D01*
X19100Y56500D02*
X21900D01*
X20500Y55100D02*
Y57900D01*
X48606Y23957D02*
X49394D01*
X49000Y23563D02*
Y24350D01*
X51106Y23000D02*
X51894D01*
X51500Y22606D02*
Y23394D01*
X54100Y273500D02*
X56900D01*
X55500Y272100D02*
Y274900D01*
X87100Y365028D02*
X89900D01*
X88500Y363628D02*
Y366427D01*
X131606Y70000D02*
X132394D01*
X132000Y69606D02*
Y70394D01*
X138606Y106000D02*
X139394D01*
X139000Y105606D02*
Y106394D01*
X112067Y328033D02*
X114866D01*
X113467Y326634D02*
Y329433D01*
X156106Y138500D02*
X156894D01*
X156500Y138106D02*
Y138894D01*
X127606Y88500D02*
X128394D01*
X128000Y88106D02*
Y88894D01*
X129606Y97000D02*
X130394D01*
X130000Y96606D02*
Y97394D01*
X120606Y86500D02*
X121394D01*
X121000Y86106D02*
Y86894D01*
X127606Y85000D02*
X128394D01*
X128000Y84606D02*
Y85394D01*
X103606Y264500D02*
X104394D01*
X104000Y264106D02*
Y264894D01*
X97600Y244000D02*
X100400D01*
X99000Y242600D02*
Y245400D01*
X76100Y204500D02*
X78900D01*
X77500Y203100D02*
Y205900D01*
X90600Y344000D02*
X93400D01*
X92000Y342600D02*
Y345400D01*
X47100Y344500D02*
X49900D01*
X48500Y343100D02*
Y345900D01*
X147600Y343500D02*
X150400D01*
X149000Y342100D02*
Y344900D01*
X17600Y96000D02*
X20400D01*
X19000Y94600D02*
Y97400D01*
X17600Y103000D02*
X20400D01*
X19000Y101600D02*
Y104400D01*
X12106Y203000D02*
X12894D01*
X12500Y202606D02*
Y203394D01*
X88516Y18614D02*
X90484D01*
X89500Y17630D02*
Y19598D01*
X122106Y110500D02*
X122894D01*
X122500Y110106D02*
Y110894D01*
X83016Y18614D02*
X84984D01*
X84000Y17630D02*
Y19598D01*
X136106Y328500D02*
X136894D01*
X136500Y328106D02*
Y328894D01*
X35016Y18000D02*
X36984D01*
X36000Y17016D02*
Y18984D01*
X129606Y251000D02*
X130394D01*
X130000Y250606D02*
Y251394D01*
X127606Y249500D02*
X128394D01*
X128000Y249106D02*
Y249894D01*
X131606Y249500D02*
X132394D01*
X132000Y249106D02*
Y249894D01*
X142606Y334000D02*
X143394D01*
X143000Y333606D02*
Y334394D01*
X142606Y331000D02*
X143394D01*
X143000Y330606D02*
Y331394D01*
X140106Y97000D02*
X140894D01*
X140500Y96606D02*
Y97394D01*
M02*
