G04*
G04 #@! TF.GenerationSoftware,Altium Limited,Altium Designer,22.4.2 (48)*
G04*
G04 Layer_Color=32768*
%FSLAX25Y25*%
%MOIN*%
G70*
G04*
G04 #@! TF.SameCoordinates,63F2D315-15D7-4541-B076-0863086383BD*
G04*
G04*
G04 #@! TF.FilePolarity,Positive*
G04*
G01*
G75*
%ADD162C,0.00000*%
G36*
X144095Y138779D02*
X55905D01*
Y176181D01*
X144095D01*
Y138779D01*
D01*
D02*
G37*
G36*
X100000Y307324D02*
X97961Y307163D01*
X95973Y306686D01*
X94083Y305903D01*
X92340Y304835D01*
X90785Y303507D01*
X89457Y301952D01*
X88388Y300208D01*
X87606Y298319D01*
X87128Y296330D01*
X86968Y294291D01*
X87128Y292253D01*
X87606Y290264D01*
X88388Y288375D01*
X88745Y287793D01*
D01*
X89457Y286631D01*
X90785Y285076D01*
X92340Y283748D01*
X94083Y282680D01*
X95973Y281897D01*
X97961Y281419D01*
X100000Y281259D01*
X102039Y281419D01*
X104027Y281897D01*
X105917Y282680D01*
X107660Y283748D01*
X109215Y285076D01*
X110543Y286631D01*
X111255Y287793D01*
D01*
X111612Y288375D01*
X112394Y290264D01*
X112872Y292253D01*
X113032Y294291D01*
X112872Y296330D01*
X112394Y298319D01*
X111612Y300208D01*
X110543Y301952D01*
X109215Y303507D01*
X107660Y304835D01*
X105917Y305903D01*
X104027Y306686D01*
X102039Y307163D01*
X100000Y307324D01*
D01*
D02*
G37*
D162*
X10000Y123740D02*
G03*
X0Y113740I0J-10000D01*
G01*
Y43740D02*
G03*
X10000Y33740I10000J0D01*
G01*
X190000D02*
G03*
X200000Y43740I0J10000D01*
G01*
Y113740D02*
G03*
X190000Y123740I-10000J0D01*
G01*
X181500D02*
X190000D01*
X0Y43740D02*
Y113740D01*
X143500Y33740D02*
X190000D01*
X200000Y43740D02*
Y113740D01*
X10000Y33740D02*
X18500D01*
X10000Y123740D02*
X18500D01*
M02*
