G04*
G04 #@! TF.GenerationSoftware,Altium Limited,Altium Designer,22.4.2 (48)*
G04*
G04 Layer_Color=255*
%FSLAX25Y25*%
%MOIN*%
G70*
G04*
G04 #@! TF.SameCoordinates,63F2D315-15D7-4541-B076-0863086383BD*
G04*
G04*
G04 #@! TF.FilePolarity,Positive*
G04*
G01*
G75*
%ADD13C,0.05000*%
%ADD14R,0.06299X0.03937*%
%ADD15R,0.02362X0.06102*%
%ADD16R,0.04724X0.06693*%
%ADD17R,0.05906X0.12598*%
%ADD18R,0.03937X0.13780*%
%ADD19R,0.01181X0.06102*%
%ADD20R,0.04724X0.10827*%
%ADD21O,0.01575X0.05315*%
%ADD22R,0.07480X0.07087*%
G04:AMPARAMS|DCode=23|XSize=62.99mil|YSize=55.12mil|CornerRadius=13.78mil|HoleSize=0mil|Usage=FLASHONLY|Rotation=180.000|XOffset=0mil|YOffset=0mil|HoleType=Round|Shape=RoundedRectangle|*
%AMROUNDEDRECTD23*
21,1,0.06299,0.02756,0,0,180.0*
21,1,0.03543,0.05512,0,0,180.0*
1,1,0.02756,-0.01772,0.01378*
1,1,0.02756,0.01772,0.01378*
1,1,0.02756,0.01772,-0.01378*
1,1,0.02756,-0.01772,-0.01378*
%
%ADD23ROUNDEDRECTD23*%
%ADD24R,0.04134X0.02559*%
%ADD25R,0.03937X0.06299*%
%ADD49C,0.03937*%
G04:AMPARAMS|DCode=57|XSize=45.67mil|YSize=122.05mil|CornerRadius=22.84mil|HoleSize=0mil|Usage=FLASHONLY|Rotation=0.000|XOffset=0mil|YOffset=0mil|HoleType=Round|Shape=RoundedRectangle|*
%AMROUNDEDRECTD57*
21,1,0.04567,0.07638,0,0,0.0*
21,1,0.00000,0.12205,0,0,0.0*
1,1,0.04567,0.00000,-0.03819*
1,1,0.04567,0.00000,-0.03819*
1,1,0.04567,0.00000,0.03819*
1,1,0.04567,0.00000,0.03819*
%
%ADD57ROUNDEDRECTD57*%
G04:AMPARAMS|DCode=58|XSize=43.31mil|YSize=122.05mil|CornerRadius=21.65mil|HoleSize=0mil|Usage=FLASHONLY|Rotation=0.000|XOffset=0mil|YOffset=0mil|HoleType=Round|Shape=RoundedRectangle|*
%AMROUNDEDRECTD58*
21,1,0.04331,0.07874,0,0,0.0*
21,1,0.00000,0.12205,0,0,0.0*
1,1,0.04331,0.00000,-0.03937*
1,1,0.04331,0.00000,-0.03937*
1,1,0.04331,0.00000,0.03937*
1,1,0.04331,0.00000,0.03937*
%
%ADD58ROUNDEDRECTD58*%
%ADD59O,0.03543X0.06299*%
%ADD60C,0.23622*%
%ADD61O,0.07874X0.06299*%
%ADD62R,0.07874X0.06299*%
%ADD63C,0.10000*%
%ADD64C,0.12992*%
D13*
X33000Y158500D02*
D03*
D14*
X154972Y152000D02*
D03*
X164028Y145110D02*
D03*
Y158890D02*
D03*
D15*
X137402Y18067D02*
D03*
X149213D02*
D03*
X145276D02*
D03*
X141339D02*
D03*
X94095D02*
D03*
X105905D02*
D03*
X101969D02*
D03*
X98032D02*
D03*
D16*
X132283Y4161D02*
D03*
X154331D02*
D03*
X88976D02*
D03*
X111024D02*
D03*
D17*
X113189Y398425D02*
D03*
X86811D02*
D03*
X65945D02*
D03*
X39567D02*
D03*
X160433D02*
D03*
X134055D02*
D03*
D18*
X103937Y376969D02*
D03*
X96063D02*
D03*
X56693D02*
D03*
X48819D02*
D03*
X151181D02*
D03*
X143307D02*
D03*
D19*
X69488Y142618D02*
D03*
X67520D02*
D03*
X71457D02*
D03*
X63583D02*
D03*
X65551D02*
D03*
X79331D02*
D03*
X77362D02*
D03*
X81299D02*
D03*
X73425D02*
D03*
X75394D02*
D03*
X85236D02*
D03*
X83268D02*
D03*
X87205D02*
D03*
X89173D02*
D03*
X97047D02*
D03*
X95079D02*
D03*
X99016D02*
D03*
X91142D02*
D03*
X93110D02*
D03*
X64567Y172343D02*
D03*
X66535D02*
D03*
X68504D02*
D03*
X70472D02*
D03*
X80315D02*
D03*
X78347D02*
D03*
X82284D02*
D03*
X72441D02*
D03*
X74410D02*
D03*
X76378D02*
D03*
X86221D02*
D03*
X84252D02*
D03*
X88189D02*
D03*
X90158D02*
D03*
X98032D02*
D03*
X96063D02*
D03*
X100000D02*
D03*
X92126D02*
D03*
X94095D02*
D03*
X106890Y142618D02*
D03*
X104921D02*
D03*
X108858D02*
D03*
X100984D02*
D03*
X102953D02*
D03*
X116732D02*
D03*
X114764D02*
D03*
X118701D02*
D03*
X110827D02*
D03*
X112795D02*
D03*
X126575D02*
D03*
X124606D02*
D03*
X128543D02*
D03*
X120669D02*
D03*
X122638D02*
D03*
X132480D02*
D03*
X130512D02*
D03*
X134449D02*
D03*
X136417D02*
D03*
X107874Y172343D02*
D03*
X105905D02*
D03*
X109843D02*
D03*
X101969D02*
D03*
X103937D02*
D03*
X115748D02*
D03*
X111811D02*
D03*
X113779D02*
D03*
X117717D02*
D03*
X121653D02*
D03*
X119685D02*
D03*
X123622D02*
D03*
X125591D02*
D03*
X133465D02*
D03*
X131496D02*
D03*
X135433D02*
D03*
X127559D02*
D03*
X129528D02*
D03*
D20*
X59252Y145669D02*
D03*
X140748D02*
D03*
D21*
X59252Y18799D02*
D03*
X61811D02*
D03*
X51575D02*
D03*
X54134D02*
D03*
X56693D02*
D03*
D22*
X51968Y8268D02*
D03*
X61417D02*
D03*
D23*
X44094Y17913D02*
D03*
X69291D02*
D03*
D24*
X147539Y329626D02*
D03*
X131201D02*
D03*
X147539Y338090D02*
D03*
X131201D02*
D03*
X68799Y329626D02*
D03*
X52461D02*
D03*
X68799Y338090D02*
D03*
X52461D02*
D03*
D25*
X139370Y306472D02*
D03*
X146260Y315528D02*
D03*
X132480D02*
D03*
X60630Y306472D02*
D03*
X67520Y315528D02*
D03*
X53740D02*
D03*
D49*
X188500Y28254D02*
D03*
X13246Y67500D02*
D03*
X27746Y392500D02*
D03*
X60630Y163386D02*
D03*
X139370D02*
D03*
D57*
X175000Y121740D02*
D03*
D58*
X115000D02*
D03*
X125000D02*
D03*
X135000D02*
D03*
X145000D02*
D03*
X155000D02*
D03*
X165000D02*
D03*
X105000D02*
D03*
X95000D02*
D03*
X85000D02*
D03*
X75000D02*
D03*
X65000D02*
D03*
X55000D02*
D03*
X45000D02*
D03*
X35000D02*
D03*
X25000D02*
D03*
X135000Y35740D02*
D03*
X25000D02*
D03*
X35000D02*
D03*
X45000D02*
D03*
X55000D02*
D03*
X65000D02*
D03*
X75000D02*
D03*
X85000D02*
D03*
X95000D02*
D03*
X105000D02*
D03*
X115000D02*
D03*
X125000D02*
D03*
D59*
X43701Y8268D02*
D03*
X69685D02*
D03*
D60*
X100000Y294291D02*
D03*
D61*
X5512Y136142D02*
D03*
Y146142D02*
D03*
Y156142D02*
D03*
Y166142D02*
D03*
Y176142D02*
D03*
Y186142D02*
D03*
Y196142D02*
D03*
Y206142D02*
D03*
Y216142D02*
D03*
Y226142D02*
D03*
Y236142D02*
D03*
Y246142D02*
D03*
Y256142D02*
D03*
Y266142D02*
D03*
Y276142D02*
D03*
Y286142D02*
D03*
Y296142D02*
D03*
Y306142D02*
D03*
Y316142D02*
D03*
Y326142D02*
D03*
Y336142D02*
D03*
Y346142D02*
D03*
Y356142D02*
D03*
X194488Y136142D02*
D03*
Y146142D02*
D03*
Y156142D02*
D03*
Y166142D02*
D03*
Y176142D02*
D03*
Y186142D02*
D03*
Y196142D02*
D03*
Y206142D02*
D03*
Y216142D02*
D03*
Y226142D02*
D03*
Y236142D02*
D03*
Y246142D02*
D03*
Y256142D02*
D03*
Y266142D02*
D03*
Y276142D02*
D03*
Y286142D02*
D03*
Y296142D02*
D03*
Y306142D02*
D03*
Y316142D02*
D03*
Y326142D02*
D03*
Y336142D02*
D03*
Y346142D02*
D03*
Y356142D02*
D03*
D62*
X5512Y366142D02*
D03*
X194488D02*
D03*
D63*
X10000Y43740D02*
D03*
Y114016D02*
D03*
X190000D02*
D03*
Y43740D02*
D03*
D64*
X186614Y391732D02*
D03*
X13386Y13780D02*
D03*
X186614D02*
D03*
X13386Y391732D02*
D03*
M02*
