G04*
G04 #@! TF.GenerationSoftware,Altium Limited,Altium Designer,22.4.2 (48)*
G04*
G04 Layer_Color=32768*
%FSLAX25Y25*%
%MOIN*%
G70*
G04*
G04 #@! TF.SameCoordinates,63F2D315-15D7-4541-B076-0863086383BD*
G04*
G04*
G04 #@! TF.FilePolarity,Positive*
G04*
G01*
G75*
%ADD166C,0.00079*%
D166*
X142766Y372411D02*
X142729D01*
X142654Y372374D01*
X142616Y372336D01*
X142579Y372261D01*
Y372111D01*
X142616Y372037D01*
X142654Y371999D01*
X142729Y371961D01*
X142804D01*
X142879Y371999D01*
X142991Y372074D01*
X143366Y372449D01*
Y371924D01*
X150485Y372449D02*
X150447Y372374D01*
X150335Y372261D01*
X151122D01*
X147319Y356898D02*
X147731D01*
X147506Y357198D01*
X147619D01*
X147694Y357235D01*
X147731Y357273D01*
X147769Y357385D01*
Y357460D01*
X147731Y357573D01*
X147656Y357647D01*
X147544Y357685D01*
X147432D01*
X147319Y357647D01*
X147282Y357610D01*
X147244Y357535D01*
X147522Y249474D02*
X147485D01*
X147410Y249437D01*
X147372Y249399D01*
X147335Y249324D01*
Y249174D01*
X147372Y249099D01*
X147410Y249062D01*
X147485Y249025D01*
X147560D01*
X147635Y249062D01*
X147747Y249137D01*
X148122Y249512D01*
Y248987D01*
X155241Y249512D02*
X155203Y249437D01*
X155091Y249324D01*
X155878D01*
X152075Y233961D02*
X152487D01*
X152262Y234261D01*
X152375D01*
X152450Y234298D01*
X152487Y234336D01*
X152525Y234448D01*
Y234523D01*
X152487Y234636D01*
X152412Y234711D01*
X152300Y234748D01*
X152187D01*
X152075Y234711D01*
X152038Y234673D01*
X152000Y234598D01*
X67625Y141831D02*
X68000Y142618D01*
X68150Y141831D02*
X67625D01*
X67449Y141981D02*
X67374Y141943D01*
X67261Y141831D01*
Y142618D01*
X65656Y141831D02*
X66031Y142618D01*
X66181Y141831D02*
X65656D01*
X65405D02*
X64993D01*
X65218Y142131D01*
X65105D01*
X65030Y142168D01*
X64993Y142206D01*
X64955Y142318D01*
Y142393D01*
X64993Y142506D01*
X65068Y142581D01*
X65180Y142618D01*
X65293D01*
X65405Y142581D01*
X65443Y142543D01*
X65480Y142468D01*
X69668Y141943D02*
X69706Y141868D01*
X69818Y141831D01*
X69893D01*
X70006Y141868D01*
X70081Y141981D01*
X70118Y142168D01*
Y142356D01*
X70081Y142506D01*
X70006Y142581D01*
X69893Y142618D01*
X69856D01*
X69743Y142581D01*
X69668Y142506D01*
X69631Y142393D01*
Y142356D01*
X69668Y142243D01*
X69743Y142168D01*
X69856Y142131D01*
X69893D01*
X70006Y142168D01*
X70081Y142243D01*
X70118Y142356D01*
X68971Y142093D02*
X69008Y142206D01*
X69083Y142281D01*
X69196Y142318D01*
X69233D01*
X69346Y142281D01*
X69421Y142206D01*
X69458Y142093D01*
Y142056D01*
X69421Y141943D01*
X69346Y141868D01*
X69233Y141831D01*
X69196D01*
X69083Y141868D01*
X69008Y141943D01*
X68971Y142093D01*
Y142281D01*
X69008Y142468D01*
X69083Y142581D01*
X69196Y142618D01*
X69271D01*
X69383Y142581D01*
X69421Y142506D01*
X63688Y141831D02*
X64063Y142618D01*
X64213Y141831D02*
X63688D01*
X63062D02*
X63437D01*
X63474Y142168D01*
X63437Y142131D01*
X63324Y142093D01*
X63212D01*
X63099Y142131D01*
X63024Y142206D01*
X62987Y142318D01*
Y142393D01*
X63024Y142506D01*
X63099Y142581D01*
X63212Y142618D01*
X63324D01*
X63437Y142581D01*
X63474Y142543D01*
X63512Y142468D01*
X77542Y141943D02*
X77580Y141868D01*
X77692Y141831D01*
X77767D01*
X77880Y141868D01*
X77955Y141981D01*
X77992Y142168D01*
Y142356D01*
X77955Y142506D01*
X77880Y142581D01*
X77767Y142618D01*
X77730D01*
X77617Y142581D01*
X77542Y142506D01*
X77505Y142393D01*
Y142356D01*
X77542Y142243D01*
X77617Y142168D01*
X77730Y142131D01*
X77767D01*
X77880Y142168D01*
X77955Y142243D01*
X77992Y142356D01*
X77332Y141981D02*
X77257Y141943D01*
X77145Y141831D01*
Y142618D01*
X75574Y141943D02*
X75611Y141868D01*
X75724Y141831D01*
X75799D01*
X75911Y141868D01*
X75986Y141981D01*
X76024Y142168D01*
Y142356D01*
X75986Y142506D01*
X75911Y142581D01*
X75799Y142618D01*
X75761D01*
X75649Y142581D01*
X75574Y142506D01*
X75536Y142393D01*
Y142356D01*
X75574Y142243D01*
X75649Y142168D01*
X75761Y142131D01*
X75799D01*
X75911Y142168D01*
X75986Y142243D01*
X76024Y142356D01*
X75289Y141831D02*
X74876D01*
X75101Y142131D01*
X74989D01*
X74914Y142168D01*
X74876Y142206D01*
X74839Y142318D01*
Y142393D01*
X74876Y142506D01*
X74951Y142581D01*
X75064Y142618D01*
X75176D01*
X75289Y142581D01*
X75326Y142543D01*
X75364Y142468D01*
X79511Y141831D02*
X79886D01*
X79923Y142168D01*
X79886Y142131D01*
X79773Y142093D01*
X79661D01*
X79548Y142131D01*
X79473Y142206D01*
X79436Y142318D01*
Y142393D01*
X79473Y142506D01*
X79548Y142581D01*
X79661Y142618D01*
X79773D01*
X79886Y142581D01*
X79923Y142543D01*
X79961Y142468D01*
X78772Y142093D02*
X78810Y142206D01*
X78885Y142281D01*
X78997Y142318D01*
X79035D01*
X79147Y142281D01*
X79222Y142206D01*
X79260Y142093D01*
Y142056D01*
X79222Y141943D01*
X79147Y141868D01*
X79035Y141831D01*
X78997D01*
X78885Y141868D01*
X78810Y141943D01*
X78772Y142093D01*
Y142281D01*
X78810Y142468D01*
X78885Y142581D01*
X78997Y142618D01*
X79072D01*
X79185Y142581D01*
X79222Y142506D01*
X71637Y141943D02*
X71674Y141868D01*
X71787Y141831D01*
X71862D01*
X71974Y141868D01*
X72049Y141981D01*
X72087Y142168D01*
Y142356D01*
X72049Y142506D01*
X71974Y142581D01*
X71862Y142618D01*
X71824D01*
X71712Y142581D01*
X71637Y142506D01*
X71599Y142393D01*
Y142356D01*
X71637Y142243D01*
X71712Y142168D01*
X71824Y142131D01*
X71862D01*
X71974Y142168D01*
X72049Y142243D01*
X72087Y142356D01*
X70902Y141831D02*
X71277Y142618D01*
X71427Y141831D02*
X70902D01*
X73605Y141943D02*
X73643Y141868D01*
X73755Y141831D01*
X73830D01*
X73943Y141868D01*
X74018Y141981D01*
X74055Y142168D01*
Y142356D01*
X74018Y142506D01*
X73943Y142581D01*
X73830Y142618D01*
X73793D01*
X73680Y142581D01*
X73605Y142506D01*
X73568Y142393D01*
Y142356D01*
X73605Y142243D01*
X73680Y142168D01*
X73793Y142131D01*
X73830D01*
X73943Y142168D01*
X74018Y142243D01*
X74055Y142356D01*
X72945Y141831D02*
X73320D01*
X73358Y142168D01*
X73320Y142131D01*
X73208Y142093D01*
X73096D01*
X72983Y142131D01*
X72908Y142206D01*
X72870Y142318D01*
Y142393D01*
X72908Y142506D01*
X72983Y142581D01*
X73096Y142618D01*
X73208D01*
X73320Y142581D01*
X73358Y142543D01*
X73395Y142468D01*
X85416Y141831D02*
X85791D01*
X85829Y142168D01*
X85791Y142131D01*
X85679Y142093D01*
X85566D01*
X85454Y142131D01*
X85379Y142206D01*
X85341Y142318D01*
Y142393D01*
X85379Y142506D01*
X85454Y142581D01*
X85566Y142618D01*
X85679D01*
X85791Y142581D01*
X85829Y142543D01*
X85866Y142468D01*
X85090Y141831D02*
X84678D01*
X84903Y142131D01*
X84790D01*
X84715Y142168D01*
X84678Y142206D01*
X84640Y142318D01*
Y142393D01*
X84678Y142506D01*
X84753Y142581D01*
X84865Y142618D01*
X84978D01*
X85090Y142581D01*
X85128Y142543D01*
X85165Y142468D01*
X89428Y141831D02*
X89803Y142356D01*
X89241D01*
X89428Y141831D02*
Y142618D01*
X88615Y142093D02*
X88652Y142206D01*
X88727Y142281D01*
X88840Y142318D01*
X88877D01*
X88990Y142281D01*
X89065Y142206D01*
X89102Y142093D01*
Y142056D01*
X89065Y141943D01*
X88990Y141868D01*
X88877Y141831D01*
X88840D01*
X88727Y141868D01*
X88652Y141943D01*
X88615Y142093D01*
Y142281D01*
X88652Y142468D01*
X88727Y142581D01*
X88840Y142618D01*
X88915D01*
X89027Y142581D01*
X89065Y142506D01*
X87385Y141831D02*
X87760D01*
X87797Y142168D01*
X87760Y142131D01*
X87647Y142093D01*
X87535D01*
X87422Y142131D01*
X87347Y142206D01*
X87310Y142318D01*
Y142393D01*
X87347Y142506D01*
X87422Y142581D01*
X87535Y142618D01*
X87647D01*
X87760Y142581D01*
X87797Y142543D01*
X87835Y142468D01*
X87134Y141981D02*
X87059Y141943D01*
X86946Y141831D01*
Y142618D01*
X91397Y141831D02*
X91772Y142356D01*
X91209D01*
X91397Y141831D02*
Y142618D01*
X90546Y141831D02*
X90921Y142618D01*
X91071Y141831D02*
X90546D01*
X81479D02*
X81854D01*
X81892Y142168D01*
X81854Y142131D01*
X81742Y142093D01*
X81629D01*
X81517Y142131D01*
X81442Y142206D01*
X81404Y142318D01*
Y142393D01*
X81442Y142506D01*
X81517Y142581D01*
X81629Y142618D01*
X81742D01*
X81854Y142581D01*
X81892Y142543D01*
X81929Y142468D01*
X80703Y141831D02*
X81078Y142618D01*
X81228Y141831D02*
X80703D01*
X83448D02*
X83823D01*
X83860Y142168D01*
X83823Y142131D01*
X83710Y142093D01*
X83598D01*
X83485Y142131D01*
X83410Y142206D01*
X83373Y142318D01*
Y142393D01*
X83410Y142506D01*
X83485Y142581D01*
X83598Y142618D01*
X83710D01*
X83823Y142581D01*
X83860Y142543D01*
X83898Y142468D01*
X82747Y141831D02*
X83122D01*
X83159Y142168D01*
X83122Y142131D01*
X83009Y142093D01*
X82897D01*
X82784Y142131D01*
X82709Y142206D01*
X82672Y142318D01*
Y142393D01*
X82709Y142506D01*
X82784Y142581D01*
X82897Y142618D01*
X83009D01*
X83122Y142581D01*
X83159Y142543D01*
X83197Y142468D01*
X99571Y141831D02*
X99158D01*
X99383Y142131D01*
X99271D01*
X99196Y142168D01*
X99158Y142206D01*
X99121Y142318D01*
Y142393D01*
X99158Y142506D01*
X99233Y142581D01*
X99346Y142618D01*
X99458D01*
X99571Y142581D01*
X99608Y142543D01*
X99646Y142468D01*
X98457Y142093D02*
X98495Y142206D01*
X98570Y142281D01*
X98682Y142318D01*
X98720D01*
X98832Y142281D01*
X98907Y142206D01*
X98945Y142093D01*
Y142056D01*
X98907Y141943D01*
X98832Y141868D01*
X98720Y141831D01*
X98682D01*
X98570Y141868D01*
X98495Y141943D01*
X98457Y142093D01*
Y142281D01*
X98495Y142468D01*
X98570Y142581D01*
X98682Y142618D01*
X98757D01*
X98870Y142581D01*
X98907Y142506D01*
X97302Y141831D02*
X97677Y142356D01*
X97115D01*
X97302Y141831D02*
Y142618D01*
X96976Y141981D02*
X96901Y141943D01*
X96789Y141831D01*
Y142618D01*
X101539Y141831D02*
X101127D01*
X101352Y142131D01*
X101239D01*
X101164Y142168D01*
X101127Y142206D01*
X101089Y142318D01*
Y142393D01*
X101127Y142506D01*
X101202Y142581D01*
X101314Y142618D01*
X101427D01*
X101539Y142581D01*
X101577Y142543D01*
X101614Y142468D01*
X100388Y141831D02*
X100763Y142618D01*
X100913Y141831D02*
X100388D01*
X93365D02*
X93740Y142356D01*
X93178D01*
X93365Y141831D02*
Y142618D01*
X92589Y141831D02*
X92964D01*
X93002Y142168D01*
X92964Y142131D01*
X92852Y142093D01*
X92739D01*
X92627Y142131D01*
X92552Y142206D01*
X92514Y142318D01*
Y142393D01*
X92552Y142506D01*
X92627Y142581D01*
X92739Y142618D01*
X92852D01*
X92964Y142581D01*
X93002Y142543D01*
X93039Y142468D01*
X95334Y141831D02*
X95709Y142356D01*
X95146D01*
X95334Y141831D02*
Y142618D01*
X94933Y141831D02*
X94520D01*
X94745Y142131D01*
X94633D01*
X94558Y142168D01*
X94520Y142206D01*
X94483Y142318D01*
Y142393D01*
X94520Y142506D01*
X94595Y142581D01*
X94708Y142618D01*
X94820D01*
X94933Y142581D01*
X94970Y142543D01*
X95008Y142468D01*
X70653Y171668D02*
X70690Y171593D01*
X70802Y171555D01*
X70877D01*
X70990Y171593D01*
X71065Y171705D01*
X71102Y171893D01*
Y172080D01*
X71065Y172230D01*
X70990Y172305D01*
X70877Y172343D01*
X70840D01*
X70727Y172305D01*
X70653Y172230D01*
X70615Y172118D01*
Y172080D01*
X70653Y171968D01*
X70727Y171893D01*
X70840Y171855D01*
X70877D01*
X70990Y171893D01*
X71065Y171968D01*
X71102Y172080D01*
X70255Y171555D02*
X70368Y171593D01*
X70405Y171668D01*
Y171743D01*
X70368Y171818D01*
X70293Y171855D01*
X70143Y171893D01*
X70030Y171930D01*
X69955Y172005D01*
X69918Y172080D01*
Y172193D01*
X69955Y172268D01*
X69993Y172305D01*
X70105Y172343D01*
X70255D01*
X70368Y172305D01*
X70405Y172268D01*
X70443Y172193D01*
Y172080D01*
X70405Y172005D01*
X70330Y171930D01*
X70218Y171893D01*
X70068Y171855D01*
X69993Y171818D01*
X69955Y171743D01*
Y171668D01*
X69993Y171593D01*
X70105Y171555D01*
X70255D01*
X68609D02*
X68984Y172343D01*
X69134Y171555D02*
X68609D01*
X68208D02*
X68320Y171593D01*
X68395Y171705D01*
X68433Y171893D01*
Y172005D01*
X68395Y172193D01*
X68320Y172305D01*
X68208Y172343D01*
X68133D01*
X68020Y172305D01*
X67945Y172193D01*
X67908Y172005D01*
Y171893D01*
X67945Y171705D01*
X68020Y171593D01*
X68133Y171555D01*
X68208D01*
X72621Y171668D02*
X72658Y171593D01*
X72771Y171555D01*
X72846D01*
X72958Y171593D01*
X73033Y171705D01*
X73071Y171893D01*
Y172080D01*
X73033Y172230D01*
X72958Y172305D01*
X72846Y172343D01*
X72808D01*
X72696Y172305D01*
X72621Y172230D01*
X72584Y172118D01*
Y172080D01*
X72621Y171968D01*
X72696Y171893D01*
X72808Y171855D01*
X72846D01*
X72958Y171893D01*
X73033Y171968D01*
X73071Y172080D01*
X71961Y171668D02*
X71999Y171593D01*
X72111Y171555D01*
X72186D01*
X72299Y171593D01*
X72374Y171705D01*
X72411Y171893D01*
Y172080D01*
X72374Y172230D01*
X72299Y172305D01*
X72186Y172343D01*
X72149D01*
X72036Y172305D01*
X71961Y172230D01*
X71924Y172118D01*
Y172080D01*
X71961Y171968D01*
X72036Y171893D01*
X72149Y171855D01*
X72186D01*
X72299Y171893D01*
X72374Y171968D01*
X72411Y172080D01*
X64672Y171555D02*
X65047Y172343D01*
X65197Y171555D02*
X64672D01*
X64121D02*
X64496Y172080D01*
X63933D01*
X64121Y171555D02*
Y172343D01*
X66641Y171555D02*
X67015Y172343D01*
X67165Y171555D02*
X66641D01*
X66427Y171743D02*
Y171705D01*
X66389Y171630D01*
X66352Y171593D01*
X66277Y171555D01*
X66127D01*
X66052Y171593D01*
X66014Y171630D01*
X65977Y171705D01*
Y171780D01*
X66014Y171855D01*
X66089Y171968D01*
X66464Y172343D01*
X65939D01*
X76558Y171668D02*
X76595Y171593D01*
X76708Y171555D01*
X76783D01*
X76895Y171593D01*
X76970Y171705D01*
X77008Y171893D01*
Y172080D01*
X76970Y172230D01*
X76895Y172305D01*
X76783Y172343D01*
X76745D01*
X76633Y172305D01*
X76558Y172230D01*
X76521Y172118D01*
Y172080D01*
X76558Y171968D01*
X76633Y171893D01*
X76745Y171855D01*
X76783D01*
X76895Y171893D01*
X76970Y171968D01*
X77008Y172080D01*
X76311Y171743D02*
Y171705D01*
X76273Y171630D01*
X76236Y171593D01*
X76161Y171555D01*
X76011D01*
X75936Y171593D01*
X75898Y171630D01*
X75861Y171705D01*
Y171780D01*
X75898Y171855D01*
X75973Y171968D01*
X76348Y172343D01*
X75823D01*
X74590Y171668D02*
X74627Y171593D01*
X74739Y171555D01*
X74814D01*
X74927Y171593D01*
X75002Y171705D01*
X75039Y171893D01*
Y172080D01*
X75002Y172230D01*
X74927Y172305D01*
X74814Y172343D01*
X74777D01*
X74664Y172305D01*
X74590Y172230D01*
X74552Y172118D01*
Y172080D01*
X74590Y171968D01*
X74664Y171893D01*
X74777Y171855D01*
X74814D01*
X74927Y171893D01*
X75002Y171968D01*
X75039Y172080D01*
X74005Y171555D02*
X74380Y172080D01*
X73817D01*
X74005Y171555D02*
Y172343D01*
X80495Y171555D02*
X80870D01*
X80907Y171893D01*
X80870Y171855D01*
X80757Y171818D01*
X80645D01*
X80532Y171855D01*
X80458Y171930D01*
X80420Y172043D01*
Y172118D01*
X80458Y172230D01*
X80532Y172305D01*
X80645Y172343D01*
X80757D01*
X80870Y172305D01*
X80907Y172268D01*
X80945Y172193D01*
X80056Y171555D02*
X80169Y171593D01*
X80206Y171668D01*
Y171743D01*
X80169Y171818D01*
X80094Y171855D01*
X79944Y171893D01*
X79831Y171930D01*
X79756Y172005D01*
X79719Y172080D01*
Y172193D01*
X79756Y172268D01*
X79794Y172305D01*
X79906Y172343D01*
X80056D01*
X80169Y172305D01*
X80206Y172268D01*
X80244Y172193D01*
Y172080D01*
X80206Y172005D01*
X80131Y171930D01*
X80019Y171893D01*
X79869Y171855D01*
X79794Y171818D01*
X79756Y171743D01*
Y171668D01*
X79794Y171593D01*
X79906Y171555D01*
X80056D01*
X78527Y171668D02*
X78564Y171593D01*
X78676Y171555D01*
X78751D01*
X78864Y171593D01*
X78939Y171705D01*
X78976Y171893D01*
Y172080D01*
X78939Y172230D01*
X78864Y172305D01*
X78751Y172343D01*
X78714D01*
X78601Y172305D01*
X78527Y172230D01*
X78489Y172118D01*
Y172080D01*
X78527Y171968D01*
X78601Y171893D01*
X78714Y171855D01*
X78751D01*
X78864Y171893D01*
X78939Y171968D01*
X78976Y172080D01*
X78092Y171555D02*
X78204Y171593D01*
X78279Y171705D01*
X78317Y171893D01*
Y172005D01*
X78279Y172193D01*
X78204Y172305D01*
X78092Y172343D01*
X78017D01*
X77904Y172305D01*
X77829Y172193D01*
X77792Y172005D01*
Y171893D01*
X77829Y171705D01*
X77904Y171593D01*
X78017Y171555D01*
X78092D01*
X86401D02*
X86775D01*
X86813Y171893D01*
X86775Y171855D01*
X86663Y171818D01*
X86550D01*
X86438Y171855D01*
X86363Y171930D01*
X86326Y172043D01*
Y172118D01*
X86363Y172230D01*
X86438Y172305D01*
X86550Y172343D01*
X86663D01*
X86775Y172305D01*
X86813Y172268D01*
X86850Y172193D01*
X86112Y171743D02*
Y171705D01*
X86074Y171630D01*
X86037Y171593D01*
X85962Y171555D01*
X85812D01*
X85737Y171593D01*
X85699Y171630D01*
X85662Y171705D01*
Y171780D01*
X85699Y171855D01*
X85774Y171968D01*
X86149Y172343D01*
X85625D01*
X90412Y171555D02*
X90787Y172080D01*
X90225D01*
X90412Y171555D02*
Y172343D01*
X89899Y171555D02*
X90011Y171593D01*
X90049Y171668D01*
Y171743D01*
X90011Y171818D01*
X89936Y171855D01*
X89786Y171893D01*
X89674Y171930D01*
X89599Y172005D01*
X89562Y172080D01*
Y172193D01*
X89599Y172268D01*
X89636Y172305D01*
X89749Y172343D01*
X89899D01*
X90011Y172305D01*
X90049Y172268D01*
X90086Y172193D01*
Y172080D01*
X90049Y172005D01*
X89974Y171930D01*
X89862Y171893D01*
X89711Y171855D01*
X89636Y171818D01*
X89599Y171743D01*
Y171668D01*
X89636Y171593D01*
X89749Y171555D01*
X89899D01*
X88369D02*
X88744D01*
X88781Y171893D01*
X88744Y171855D01*
X88631Y171818D01*
X88519D01*
X88406Y171855D01*
X88332Y171930D01*
X88294Y172043D01*
Y172118D01*
X88332Y172230D01*
X88406Y172305D01*
X88519Y172343D01*
X88631D01*
X88744Y172305D01*
X88781Y172268D01*
X88819Y172193D01*
X87893Y171555D02*
X88005Y171593D01*
X88080Y171705D01*
X88118Y171893D01*
Y172005D01*
X88080Y172193D01*
X88005Y172305D01*
X87893Y172343D01*
X87818D01*
X87705Y172305D01*
X87631Y172193D01*
X87593Y172005D01*
Y171893D01*
X87631Y171705D01*
X87705Y171593D01*
X87818Y171555D01*
X87893D01*
X92381D02*
X92756Y172080D01*
X92194D01*
X92381Y171555D02*
Y172343D01*
X91605Y171668D02*
X91642Y171593D01*
X91755Y171555D01*
X91830D01*
X91942Y171593D01*
X92017Y171705D01*
X92055Y171893D01*
Y172080D01*
X92017Y172230D01*
X91942Y172305D01*
X91830Y172343D01*
X91793D01*
X91680Y172305D01*
X91605Y172230D01*
X91568Y172118D01*
Y172080D01*
X91605Y171968D01*
X91680Y171893D01*
X91793Y171855D01*
X91830D01*
X91942Y171893D01*
X92017Y171968D01*
X92055Y172080D01*
X82464Y171555D02*
X82838D01*
X82876Y171893D01*
X82838Y171855D01*
X82726Y171818D01*
X82613D01*
X82501Y171855D01*
X82426Y171930D01*
X82389Y172043D01*
Y172118D01*
X82426Y172230D01*
X82501Y172305D01*
X82613Y172343D01*
X82726D01*
X82838Y172305D01*
X82876Y172268D01*
X82913Y172193D01*
X81762Y171668D02*
X81800Y171593D01*
X81912Y171555D01*
X81988D01*
X82100Y171593D01*
X82175Y171705D01*
X82212Y171893D01*
Y172080D01*
X82175Y172230D01*
X82100Y172305D01*
X81988Y172343D01*
X81950D01*
X81837Y172305D01*
X81762Y172230D01*
X81725Y172118D01*
Y172080D01*
X81762Y171968D01*
X81837Y171893D01*
X81950Y171855D01*
X81988D01*
X82100Y171893D01*
X82175Y171968D01*
X82212Y172080D01*
X84432Y171555D02*
X84807D01*
X84844Y171893D01*
X84807Y171855D01*
X84694Y171818D01*
X84582D01*
X84469Y171855D01*
X84395Y171930D01*
X84357Y172043D01*
Y172118D01*
X84395Y172230D01*
X84469Y172305D01*
X84582Y172343D01*
X84694D01*
X84807Y172305D01*
X84844Y172268D01*
X84882Y172193D01*
X83806Y171555D02*
X84181Y172080D01*
X83619D01*
X83806Y171555D02*
Y172343D01*
X98286Y171555D02*
X98661Y172080D01*
X98099D01*
X98286Y171555D02*
Y172343D01*
X97736Y171555D02*
X97848Y171593D01*
X97923Y171705D01*
X97960Y171893D01*
Y172005D01*
X97923Y172193D01*
X97848Y172305D01*
X97736Y172343D01*
X97660D01*
X97548Y172305D01*
X97473Y172193D01*
X97436Y172005D01*
Y171893D01*
X97473Y171705D01*
X97548Y171593D01*
X97660Y171555D01*
X97736D01*
X100555D02*
X100143D01*
X100367Y171855D01*
X100255D01*
X100180Y171893D01*
X100143Y171930D01*
X100105Y172043D01*
Y172118D01*
X100143Y172230D01*
X100218Y172305D01*
X100330Y172343D01*
X100443D01*
X100555Y172305D01*
X100592Y172268D01*
X100630Y172193D01*
X99742Y171555D02*
X99854Y171593D01*
X99891Y171668D01*
Y171743D01*
X99854Y171818D01*
X99779Y171855D01*
X99629Y171893D01*
X99516Y171930D01*
X99442Y172005D01*
X99404Y172080D01*
Y172193D01*
X99442Y172268D01*
X99479Y172305D01*
X99591Y172343D01*
X99742D01*
X99854Y172305D01*
X99891Y172268D01*
X99929Y172193D01*
Y172080D01*
X99891Y172005D01*
X99816Y171930D01*
X99704Y171893D01*
X99554Y171855D01*
X99479Y171818D01*
X99442Y171743D01*
Y171668D01*
X99479Y171593D01*
X99591Y171555D01*
X99742D01*
X94349D02*
X94724Y172080D01*
X94162D01*
X94349Y171555D02*
Y172343D01*
X93648Y171555D02*
X94023Y172080D01*
X93461D01*
X93648Y171555D02*
Y172343D01*
X96318Y171555D02*
X96693Y172080D01*
X96131D01*
X96318Y171555D02*
Y172343D01*
X95954Y171743D02*
Y171705D01*
X95917Y171630D01*
X95879Y171593D01*
X95805Y171555D01*
X95654D01*
X95579Y171593D01*
X95542Y171630D01*
X95505Y171705D01*
Y171780D01*
X95542Y171855D01*
X95617Y171968D01*
X95992Y172343D01*
X95467D01*
X105476Y141831D02*
X105064D01*
X105289Y142131D01*
X105176D01*
X105101Y142168D01*
X105064Y142206D01*
X105026Y142318D01*
Y142393D01*
X105064Y142506D01*
X105139Y142581D01*
X105251Y142618D01*
X105364D01*
X105476Y142581D01*
X105514Y142543D01*
X105551Y142468D01*
X104775Y141831D02*
X104363D01*
X104588Y142131D01*
X104475D01*
X104400Y142168D01*
X104363Y142206D01*
X104325Y142318D01*
Y142393D01*
X104363Y142506D01*
X104438Y142581D01*
X104550Y142618D01*
X104663D01*
X104775Y142581D01*
X104813Y142543D01*
X104850Y142468D01*
X103508Y141831D02*
X103095D01*
X103320Y142131D01*
X103208D01*
X103133Y142168D01*
X103095Y142206D01*
X103058Y142318D01*
Y142393D01*
X103095Y142506D01*
X103170Y142581D01*
X103283Y142618D01*
X103395D01*
X103508Y142581D01*
X103545Y142543D01*
X103583Y142468D01*
X102432Y141831D02*
X102807D01*
X102844Y142168D01*
X102807Y142131D01*
X102694Y142093D01*
X102582D01*
X102469Y142131D01*
X102394Y142206D01*
X102357Y142318D01*
Y142393D01*
X102394Y142506D01*
X102469Y142581D01*
X102582Y142618D01*
X102694D01*
X102807Y142581D01*
X102844Y142543D01*
X102882Y142468D01*
X107445Y141831D02*
X107032D01*
X107257Y142131D01*
X107145D01*
X107070Y142168D01*
X107032Y142206D01*
X106995Y142318D01*
Y142393D01*
X107032Y142506D01*
X107107Y142581D01*
X107220Y142618D01*
X107332D01*
X107445Y142581D01*
X107482Y142543D01*
X107520Y142468D01*
X106819Y141981D02*
X106744Y141943D01*
X106631Y141831D01*
Y142618D01*
X108429Y171555D02*
X108017D01*
X108241Y171855D01*
X108129D01*
X108054Y171893D01*
X108017Y171930D01*
X107979Y172043D01*
Y172118D01*
X108017Y172230D01*
X108092Y172305D01*
X108204Y172343D01*
X108317D01*
X108429Y172305D01*
X108466Y172268D01*
X108504Y172193D01*
X107578Y171555D02*
X107691Y171593D01*
X107765Y171705D01*
X107803Y171893D01*
Y172005D01*
X107765Y172193D01*
X107691Y172305D01*
X107578Y172343D01*
X107503D01*
X107391Y172305D01*
X107316Y172193D01*
X107278Y172005D01*
Y171893D01*
X107316Y171705D01*
X107391Y171593D01*
X107503Y171555D01*
X107578D01*
X109451Y142018D02*
Y141981D01*
X109413Y141906D01*
X109376Y141868D01*
X109301Y141831D01*
X109151D01*
X109076Y141868D01*
X109038Y141906D01*
X109001Y141981D01*
Y142056D01*
X109038Y142131D01*
X109113Y142243D01*
X109488Y142618D01*
X108963D01*
X108300Y142093D02*
X108337Y142206D01*
X108412Y142281D01*
X108525Y142318D01*
X108562D01*
X108675Y142281D01*
X108750Y142206D01*
X108787Y142093D01*
Y142056D01*
X108750Y141943D01*
X108675Y141868D01*
X108562Y141831D01*
X108525D01*
X108412Y141868D01*
X108337Y141943D01*
X108300Y142093D01*
Y142281D01*
X108337Y142468D01*
X108412Y142581D01*
X108525Y142618D01*
X108600D01*
X108712Y142581D01*
X108750Y142506D01*
X117325Y142018D02*
Y141981D01*
X117287Y141906D01*
X117250Y141868D01*
X117175Y141831D01*
X117025D01*
X116950Y141868D01*
X116912Y141906D01*
X116875Y141981D01*
Y142056D01*
X116912Y142131D01*
X116987Y142243D01*
X117362Y142618D01*
X116837D01*
X116661Y141981D02*
X116586Y141943D01*
X116474Y141831D01*
Y142618D01*
X115356Y142018D02*
Y141981D01*
X115319Y141906D01*
X115281Y141868D01*
X115206Y141831D01*
X115056D01*
X114981Y141868D01*
X114944Y141906D01*
X114906Y141981D01*
Y142056D01*
X114944Y142131D01*
X115019Y142243D01*
X115394Y142618D01*
X114869D01*
X114618Y141831D02*
X114205D01*
X114430Y142131D01*
X114318D01*
X114243Y142168D01*
X114205Y142206D01*
X114168Y142318D01*
Y142393D01*
X114205Y142506D01*
X114280Y142581D01*
X114393Y142618D01*
X114505D01*
X114618Y142581D01*
X114655Y142543D01*
X114693Y142468D01*
X119331Y141981D02*
X119256Y141943D01*
X119143Y141831D01*
Y142618D01*
X118266Y142093D02*
X118304Y142206D01*
X118378Y142281D01*
X118491Y142318D01*
X118528D01*
X118641Y142281D01*
X118716Y142206D01*
X118753Y142093D01*
Y142056D01*
X118716Y141943D01*
X118641Y141868D01*
X118528Y141831D01*
X118491D01*
X118378Y141868D01*
X118304Y141943D01*
X118266Y142093D01*
Y142281D01*
X118304Y142468D01*
X118378Y142581D01*
X118491Y142618D01*
X118566D01*
X118678Y142581D01*
X118716Y142506D01*
X111419Y142018D02*
Y141981D01*
X111382Y141906D01*
X111344Y141868D01*
X111269Y141831D01*
X111119D01*
X111044Y141868D01*
X111007Y141906D01*
X110969Y141981D01*
Y142056D01*
X111007Y142131D01*
X111082Y142243D01*
X111457Y142618D01*
X110932D01*
X110231Y141831D02*
X110606Y142618D01*
X110756Y141831D02*
X110231D01*
X113388Y142018D02*
Y141981D01*
X113350Y141906D01*
X113313Y141868D01*
X113238Y141831D01*
X113088D01*
X113013Y141868D01*
X112975Y141906D01*
X112938Y141981D01*
Y142056D01*
X112975Y142131D01*
X113050Y142243D01*
X113425Y142618D01*
X112900D01*
X112274Y141831D02*
X112649D01*
X112687Y142168D01*
X112649Y142131D01*
X112537Y142093D01*
X112424D01*
X112312Y142131D01*
X112237Y142206D01*
X112199Y142318D01*
Y142393D01*
X112237Y142506D01*
X112312Y142581D01*
X112424Y142618D01*
X112537D01*
X112649Y142581D01*
X112687Y142543D01*
X112724Y142468D01*
X127205Y141981D02*
X127130Y141943D01*
X127017Y141831D01*
Y142618D01*
X126627Y141981D02*
X126552Y141943D01*
X126440Y141831D01*
Y142618D01*
X125236Y141981D02*
X125161Y141943D01*
X125049Y141831D01*
Y142618D01*
X124584Y141831D02*
X124172D01*
X124397Y142131D01*
X124284D01*
X124209Y142168D01*
X124172Y142206D01*
X124134Y142318D01*
Y142393D01*
X124172Y142506D01*
X124247Y142581D01*
X124359Y142618D01*
X124471D01*
X124584Y142581D01*
X124621Y142543D01*
X124659Y142468D01*
X128371Y142093D02*
X128408Y142206D01*
X128483Y142281D01*
X128596Y142318D01*
X128633D01*
X128746Y142281D01*
X128821Y142206D01*
X128858Y142093D01*
Y142056D01*
X128821Y141943D01*
X128746Y141868D01*
X128633Y141831D01*
X128596D01*
X128483Y141868D01*
X128408Y141943D01*
X128371Y142093D01*
Y142281D01*
X128408Y142468D01*
X128483Y142581D01*
X128596Y142618D01*
X128671D01*
X128783Y142581D01*
X128821Y142506D01*
X121299Y141981D02*
X121224Y141943D01*
X121112Y141831D01*
Y142618D01*
X120197Y141831D02*
X120572Y142618D01*
X120722Y141831D02*
X120197D01*
X123268Y141981D02*
X123193Y141943D01*
X123080Y141831D01*
Y142618D01*
X122241Y141831D02*
X122616D01*
X122653Y142168D01*
X122616Y142131D01*
X122503Y142093D01*
X122390D01*
X122278Y142131D01*
X122203Y142206D01*
X122166Y142318D01*
Y142393D01*
X122203Y142506D01*
X122278Y142581D01*
X122390Y142618D01*
X122503D01*
X122616Y142581D01*
X122653Y142543D01*
X122690Y142468D01*
X132345Y141831D02*
X132720D01*
X132758Y142168D01*
X132720Y142131D01*
X132608Y142093D01*
X132495D01*
X132383Y142131D01*
X132308Y142206D01*
X132271Y142318D01*
Y142393D01*
X132308Y142506D01*
X132383Y142581D01*
X132495Y142618D01*
X132608D01*
X132720Y142581D01*
X132758Y142543D01*
X132795Y142468D01*
X130302Y141831D02*
X130677Y142618D01*
X130827Y141831D02*
X130302D01*
X134689D02*
X134276D01*
X134501Y142131D01*
X134389D01*
X134314Y142168D01*
X134276Y142206D01*
X134239Y142318D01*
Y142393D01*
X134276Y142506D01*
X134351Y142581D01*
X134464Y142618D01*
X134576D01*
X134689Y142581D01*
X134726Y142543D01*
X134764Y142468D01*
X136732Y141981D02*
X136657Y141943D01*
X136545Y141831D01*
Y142618D01*
X110435Y171743D02*
Y171705D01*
X110398Y171630D01*
X110360Y171593D01*
X110285Y171555D01*
X110135D01*
X110060Y171593D01*
X110023Y171630D01*
X109985Y171705D01*
Y171780D01*
X110023Y171855D01*
X110098Y171968D01*
X110472Y172343D01*
X109948D01*
X109584Y171555D02*
X109696Y171593D01*
X109734Y171668D01*
Y171743D01*
X109696Y171818D01*
X109622Y171855D01*
X109471Y171893D01*
X109359Y171930D01*
X109284Y172005D01*
X109247Y172080D01*
Y172193D01*
X109284Y172268D01*
X109322Y172305D01*
X109434Y172343D01*
X109584D01*
X109696Y172305D01*
X109734Y172268D01*
X109771Y172193D01*
Y172080D01*
X109734Y172005D01*
X109659Y171930D01*
X109546Y171893D01*
X109397Y171855D01*
X109322Y171818D01*
X109284Y171743D01*
Y171668D01*
X109322Y171593D01*
X109434Y171555D01*
X109584D01*
X106460D02*
X106048D01*
X106273Y171855D01*
X106161D01*
X106086Y171893D01*
X106048Y171930D01*
X106011Y172043D01*
Y172118D01*
X106048Y172230D01*
X106123Y172305D01*
X106236Y172343D01*
X106348D01*
X106460Y172305D01*
X106498Y172268D01*
X106535Y172193D01*
X105797Y171743D02*
Y171705D01*
X105759Y171630D01*
X105722Y171593D01*
X105647Y171555D01*
X105497D01*
X105422Y171593D01*
X105385Y171630D01*
X105347Y171705D01*
Y171780D01*
X105385Y171855D01*
X105459Y171968D01*
X105834Y172343D01*
X105310D01*
X112403Y171743D02*
Y171705D01*
X112366Y171630D01*
X112329Y171593D01*
X112253Y171555D01*
X112104D01*
X112029Y171593D01*
X111991Y171630D01*
X111954Y171705D01*
Y171780D01*
X111991Y171855D01*
X112066Y171968D01*
X112441Y172343D01*
X111916D01*
X111290Y171668D02*
X111328Y171593D01*
X111440Y171555D01*
X111515D01*
X111627Y171593D01*
X111702Y171705D01*
X111740Y171893D01*
Y172080D01*
X111702Y172230D01*
X111627Y172305D01*
X111515Y172343D01*
X111477D01*
X111365Y172305D01*
X111290Y172230D01*
X111253Y172118D01*
Y172080D01*
X111290Y171968D01*
X111365Y171893D01*
X111477Y171855D01*
X111515D01*
X111627Y171893D01*
X111702Y171968D01*
X111740Y172080D01*
X102524Y171555D02*
X102111D01*
X102336Y171855D01*
X102224D01*
X102149Y171893D01*
X102111Y171930D01*
X102074Y172043D01*
Y172118D01*
X102111Y172230D01*
X102186Y172305D01*
X102298Y172343D01*
X102411D01*
X102524Y172305D01*
X102561Y172268D01*
X102598Y172193D01*
X101448Y171668D02*
X101485Y171593D01*
X101597Y171555D01*
X101672D01*
X101785Y171593D01*
X101860Y171705D01*
X101897Y171893D01*
Y172080D01*
X101860Y172230D01*
X101785Y172305D01*
X101672Y172343D01*
X101635D01*
X101523Y172305D01*
X101448Y172230D01*
X101410Y172118D01*
Y172080D01*
X101448Y171968D01*
X101523Y171893D01*
X101635Y171855D01*
X101672D01*
X101785Y171893D01*
X101860Y171968D01*
X101897Y172080D01*
X104492Y171555D02*
X104080D01*
X104305Y171855D01*
X104192D01*
X104117Y171893D01*
X104080Y171930D01*
X104042Y172043D01*
Y172118D01*
X104080Y172230D01*
X104155Y172305D01*
X104267Y172343D01*
X104379D01*
X104492Y172305D01*
X104529Y172268D01*
X104567Y172193D01*
X103491Y171555D02*
X103866Y172080D01*
X103304D01*
X103491Y171555D02*
Y172343D01*
X114372Y171743D02*
Y171705D01*
X114334Y171630D01*
X114297Y171593D01*
X114222Y171555D01*
X114072D01*
X113997Y171593D01*
X113960Y171630D01*
X113922Y171705D01*
Y171780D01*
X113960Y171855D01*
X114035Y171968D01*
X114409Y172343D01*
X113885D01*
X113334Y171555D02*
X113708Y172080D01*
X113146D01*
X113334Y171555D02*
Y172343D01*
X116340Y171743D02*
Y171705D01*
X116303Y171630D01*
X116265Y171593D01*
X116191Y171555D01*
X116041D01*
X115966Y171593D01*
X115928Y171630D01*
X115891Y171705D01*
Y171780D01*
X115928Y171855D01*
X116003Y171968D01*
X116378Y172343D01*
X115853D01*
X115639Y171743D02*
Y171705D01*
X115602Y171630D01*
X115565Y171593D01*
X115489Y171555D01*
X115340D01*
X115265Y171593D01*
X115227Y171630D01*
X115190Y171705D01*
Y171780D01*
X115227Y171855D01*
X115302Y171968D01*
X115677Y172343D01*
X115152D01*
X122283Y171705D02*
X122208Y171668D01*
X122096Y171555D01*
Y172343D01*
X121256Y171668D02*
X121294Y171593D01*
X121406Y171555D01*
X121481D01*
X121594Y171593D01*
X121669Y171705D01*
X121706Y171893D01*
Y172080D01*
X121669Y172230D01*
X121594Y172305D01*
X121481Y172343D01*
X121444D01*
X121331Y172305D01*
X121256Y172230D01*
X121219Y172118D01*
Y172080D01*
X121256Y171968D01*
X121331Y171893D01*
X121444Y171855D01*
X121481D01*
X121594Y171893D01*
X121669Y171968D01*
X121706Y172080D01*
X126221Y171705D02*
X126146Y171668D01*
X126033Y171555D01*
Y172343D01*
X125606Y171743D02*
Y171705D01*
X125568Y171630D01*
X125531Y171593D01*
X125456Y171555D01*
X125306D01*
X125231Y171593D01*
X125193Y171630D01*
X125156Y171705D01*
Y171780D01*
X125193Y171855D01*
X125268Y171968D01*
X125643Y172343D01*
X125118D01*
X124252Y171705D02*
X124177Y171668D01*
X124065Y171555D01*
Y172343D01*
X123300Y171555D02*
X123675Y172080D01*
X123112D01*
X123300Y171555D02*
Y172343D01*
X128189Y171705D02*
X128114Y171668D01*
X128001Y171555D01*
Y172343D01*
X127387Y171555D02*
X127499Y171593D01*
X127574Y171705D01*
X127612Y171893D01*
Y172005D01*
X127574Y172193D01*
X127499Y172305D01*
X127387Y172343D01*
X127312D01*
X127199Y172305D01*
X127124Y172193D01*
X127087Y172005D01*
Y171893D01*
X127124Y171705D01*
X127199Y171593D01*
X127312Y171555D01*
X127387D01*
X118309Y171743D02*
Y171705D01*
X118272Y171630D01*
X118234Y171593D01*
X118159Y171555D01*
X118009D01*
X117934Y171593D01*
X117897Y171630D01*
X117859Y171705D01*
Y171780D01*
X117897Y171855D01*
X117972Y171968D01*
X118347Y172343D01*
X117822D01*
X117420Y171555D02*
X117533Y171593D01*
X117608Y171705D01*
X117646Y171893D01*
Y172005D01*
X117608Y172193D01*
X117533Y172305D01*
X117420Y172343D01*
X117346D01*
X117233Y172305D01*
X117158Y172193D01*
X117121Y172005D01*
Y171893D01*
X117158Y171705D01*
X117233Y171593D01*
X117346Y171555D01*
X117420D01*
X120315Y171705D02*
X120240Y171668D01*
X120127Y171555D01*
Y172343D01*
X119550Y171555D02*
X119663Y171593D01*
X119700Y171668D01*
Y171743D01*
X119663Y171818D01*
X119588Y171855D01*
X119438Y171893D01*
X119325Y171930D01*
X119250Y172005D01*
X119213Y172080D01*
Y172193D01*
X119250Y172268D01*
X119288Y172305D01*
X119400Y172343D01*
X119550D01*
X119663Y172305D01*
X119700Y172268D01*
X119738Y172193D01*
Y172080D01*
X119700Y172005D01*
X119625Y171930D01*
X119513Y171893D01*
X119363Y171855D01*
X119288Y171818D01*
X119250Y171743D01*
Y171668D01*
X119288Y171593D01*
X119400Y171555D01*
X119550D01*
X133405D02*
X133780Y172080D01*
X133217D01*
X133405Y171555D02*
Y172343D01*
X135711Y171743D02*
Y171705D01*
X135673Y171630D01*
X135636Y171593D01*
X135561Y171555D01*
X135411D01*
X135336Y171593D01*
X135298Y171630D01*
X135261Y171705D01*
Y171780D01*
X135298Y171855D01*
X135373Y171968D01*
X135748Y172343D01*
X135223D01*
X129655Y171555D02*
X129768Y171593D01*
X129805Y171668D01*
Y171743D01*
X129768Y171818D01*
X129693Y171855D01*
X129543Y171893D01*
X129430Y171930D01*
X129355Y172005D01*
X129318Y172080D01*
Y172193D01*
X129355Y172268D01*
X129393Y172305D01*
X129505Y172343D01*
X129655D01*
X129768Y172305D01*
X129805Y172268D01*
X129842Y172193D01*
Y172080D01*
X129805Y172005D01*
X129730Y171930D01*
X129618Y171893D01*
X129468Y171855D01*
X129393Y171818D01*
X129355Y171743D01*
Y171668D01*
X129393Y171593D01*
X129505Y171555D01*
X129655D01*
X131361Y171668D02*
X131399Y171593D01*
X131511Y171555D01*
X131586D01*
X131699Y171593D01*
X131773Y171705D01*
X131811Y171893D01*
Y172080D01*
X131773Y172230D01*
X131699Y172305D01*
X131586Y172343D01*
X131549D01*
X131436Y172305D01*
X131361Y172230D01*
X131324Y172118D01*
Y172080D01*
X131361Y171968D01*
X131436Y171893D01*
X131549Y171855D01*
X131586D01*
X131699Y171893D01*
X131773Y171968D01*
X131811Y172080D01*
X51685Y172984D02*
X51610Y173021D01*
X51498Y173134D01*
Y172346D01*
X51648Y166253D02*
Y166291D01*
X51610Y166366D01*
X51573Y166403D01*
X51498Y166441D01*
X51348D01*
X51273Y166403D01*
X51235Y166366D01*
X51198Y166291D01*
Y166216D01*
X51235Y166141D01*
X51310Y166028D01*
X51685Y165654D01*
X51160D01*
X100000Y294614D02*
X100075Y294651D01*
X100187Y294764D01*
Y293976D01*
X48278Y372411D02*
X48241D01*
X48166Y372374D01*
X48128Y372336D01*
X48091Y372261D01*
Y372111D01*
X48128Y372037D01*
X48166Y371999D01*
X48241Y371961D01*
X48316D01*
X48391Y371999D01*
X48503Y372074D01*
X48878Y372449D01*
Y371924D01*
X55997Y372449D02*
X55959Y372374D01*
X55847Y372261D01*
X56634D01*
X52831Y356898D02*
X53243D01*
X53018Y357198D01*
X53131D01*
X53206Y357235D01*
X53243Y357273D01*
X53281Y357385D01*
Y357460D01*
X53243Y357573D01*
X53168Y357647D01*
X53056Y357685D01*
X52943D01*
X52831Y357647D01*
X52793Y357610D01*
X52756Y357535D01*
X100075Y356898D02*
X100487D01*
X100262Y357198D01*
X100375D01*
X100450Y357235D01*
X100487Y357273D01*
X100525Y357385D01*
Y357460D01*
X100487Y357573D01*
X100412Y357647D01*
X100300Y357685D01*
X100187D01*
X100075Y357647D01*
X100038Y357610D01*
X100000Y357535D01*
X103241Y372449D02*
X103203Y372374D01*
X103091Y372261D01*
X103878D01*
X95522Y372411D02*
X95485D01*
X95410Y372374D01*
X95372Y372336D01*
X95335Y372261D01*
Y372111D01*
X95372Y372037D01*
X95410Y371999D01*
X95485Y371961D01*
X95560D01*
X95635Y371999D01*
X95747Y372074D01*
X96122Y372449D01*
Y371924D01*
X126253Y187852D02*
X126291D01*
X126366Y187890D01*
X126403Y187927D01*
X126441Y188002D01*
Y188152D01*
X126403Y188227D01*
X126366Y188265D01*
X126291Y188302D01*
X126216D01*
X126141Y188265D01*
X126028Y188190D01*
X125654Y187815D01*
Y188340D01*
X132984Y187815D02*
X133021Y187890D01*
X133134Y188002D01*
X132346D01*
M02*
