G04*
G04 #@! TF.GenerationSoftware,Altium Limited,Altium Designer,22.4.2 (48)*
G04*
G04 Layer_Color=16711935*
%FSLAX25Y25*%
%MOIN*%
G70*
G04*
G04 #@! TF.SameCoordinates,63F2D315-15D7-4541-B076-0863086383BD*
G04*
G04*
G04 #@! TF.FilePolarity,Positive*
G04*
G01*
G75*
%ADD10C,0.00787*%
%ADD11C,0.00500*%
%ADD160C,0.00394*%
%ADD163R,0.14173X0.02420*%
%ADD164R,0.02420X0.14173*%
D10*
X105953Y53047D02*
G03*
X105953Y53047I-394J0D01*
G01*
X79472Y98638D02*
G03*
X79472Y98638I-394J0D01*
G01*
X154894Y179870D02*
G03*
X154894Y179870I-394J0D01*
G01*
D11*
X154579Y141370D02*
Y162630D01*
X164421D01*
Y141370D02*
Y162630D01*
X154579Y141370D02*
X164421D01*
X120028Y52063D02*
Y59937D01*
X110972Y52063D02*
Y59937D01*
X120028D01*
X110972Y52063D02*
X120028D01*
X82957Y95882D02*
Y106118D01*
X90043Y95882D02*
Y106118D01*
X82957Y95882D02*
X90043D01*
X82957Y106118D02*
X90043D01*
X146626Y182626D02*
X162374D01*
X146626D02*
Y198374D01*
X162374D01*
Y182626D02*
Y198374D01*
X143457Y210669D02*
Y219331D01*
X150543Y210669D02*
Y219331D01*
X143457D02*
X150543D01*
X143457Y210669D02*
X150543D01*
X128740Y306079D02*
X150000D01*
X128740D02*
Y315921D01*
X150000D01*
Y306079D02*
Y315921D01*
X50000Y306079D02*
X71260D01*
X50000D02*
Y315921D01*
X71260D01*
Y306079D02*
Y315921D01*
D160*
X134626Y258626D02*
G03*
X134626Y258626I-1969J0D01*
G01*
X126130Y211055D02*
Y217945D01*
X129870Y211055D02*
Y217945D01*
X126130D02*
X129870D01*
X126130Y211055D02*
X129870D01*
X136201Y245831D02*
Y262169D01*
X123799Y245831D02*
Y262169D01*
X136201D01*
X123799Y245831D02*
X136201D01*
X66350Y178520D02*
Y193480D01*
X72650Y178520D02*
Y193480D01*
X66350Y178520D02*
X72650D01*
X66350Y193480D02*
X72650D01*
X50602Y4035D02*
Y10531D01*
X63398Y4035D02*
Y10531D01*
X50602Y4035D02*
X63398D01*
X50602Y10531D02*
X63398D01*
X44587Y68504D02*
Y86496D01*
X30413D02*
X44587D01*
X30413Y68504D02*
Y86496D01*
Y68504D02*
X44587D01*
X163437Y254539D02*
Y259461D01*
X155563Y254539D02*
Y259461D01*
X163437D01*
X155563Y254539D02*
X163437D01*
X113185Y206307D02*
Y219693D01*
X123815Y206307D02*
Y219693D01*
X113185D02*
X123815D01*
X113185Y206307D02*
X123815D01*
X50000Y14314D02*
Y21401D01*
X63386Y14314D02*
Y21401D01*
X50000Y14314D02*
X63386D01*
X50000Y21401D02*
X63386D01*
X115630Y256945D02*
X119370D01*
X115630Y250055D02*
X119370D01*
X115630D02*
Y256945D01*
X119370Y250055D02*
Y256945D01*
X160028Y280476D02*
Y282524D01*
X155972Y280476D02*
Y282524D01*
X160028D01*
X155972Y280476D02*
X160028D01*
X131102Y327559D02*
X147638D01*
X131102D02*
Y340158D01*
X147638D01*
Y327559D02*
Y340158D01*
X120957Y361307D02*
X128043D01*
X120957Y374693D02*
X128043D01*
Y361307D02*
Y374693D01*
X120957Y361307D02*
Y374693D01*
X141528Y340476D02*
Y342524D01*
X137472Y340476D02*
Y342524D01*
X141528D01*
X137472Y340476D02*
X141528D01*
X44528Y20476D02*
Y22524D01*
X40472Y20476D02*
Y22524D01*
X44528D01*
X40472Y20476D02*
X44528D01*
X123976Y74472D02*
Y78528D01*
X126024Y74472D02*
Y78528D01*
X123976D02*
X126024D01*
X123976Y74472D02*
X126024D01*
X131976Y95972D02*
Y100028D01*
X134024Y95972D02*
Y100028D01*
X131976D02*
X134024D01*
X131976Y95972D02*
X134024D01*
Y103972D02*
Y108028D01*
X131976Y103972D02*
Y108028D01*
Y103972D02*
X134024D01*
X131976Y108028D02*
X134024D01*
X131976Y88240D02*
Y92295D01*
X134024Y88240D02*
Y92295D01*
X131976D02*
X134024D01*
X131976Y88240D02*
X134024D01*
X119528Y333799D02*
Y337854D01*
X117480Y333799D02*
Y337854D01*
Y333799D02*
X119528D01*
X117480Y337854D02*
X119528D01*
X144024Y180705D02*
Y184760D01*
X141976Y180705D02*
Y184760D01*
Y180705D02*
X144024D01*
X141976Y184760D02*
X144024D01*
X137976Y180705D02*
Y184760D01*
X140024Y180705D02*
Y184760D01*
X137976D02*
X140024D01*
X137976Y180705D02*
X140024D01*
X151528Y200976D02*
Y203024D01*
X147472Y200976D02*
Y203024D01*
X151528D01*
X147472Y200976D02*
X151528D01*
X147472Y204976D02*
X151528D01*
X147472Y207024D02*
X151528D01*
X147472Y204976D02*
Y207024D01*
X151528Y204976D02*
Y207024D01*
X109630Y256945D02*
X113370D01*
X109630Y250055D02*
X113370D01*
X109630D02*
Y256945D01*
X113370Y250055D02*
Y256945D01*
X132472Y265476D02*
X136528D01*
X132472Y267524D02*
X136528D01*
X132472Y265476D02*
Y267524D01*
X136528Y265476D02*
Y267524D01*
X43504Y320913D02*
Y335087D01*
X61496Y320913D02*
Y335087D01*
X43504Y320913D02*
X61496D01*
X43504Y335087D02*
X61496D01*
X13413Y68504D02*
X27587D01*
X13413Y86496D02*
X27587D01*
Y68504D02*
Y86496D01*
X13413Y68504D02*
Y86496D01*
X131917Y330067D02*
X134083D01*
X131917Y325933D02*
X134083D01*
X131917D02*
Y330067D01*
X134083Y325933D02*
Y330067D01*
X129933Y337583D02*
X134067D01*
X129933Y335417D02*
X134067D01*
Y337583D01*
X129933Y335417D02*
Y337583D01*
X156067Y331917D02*
Y334083D01*
X151933Y331917D02*
Y334083D01*
X156067D01*
X151933Y331917D02*
X156067D01*
X151933Y325917D02*
X156067D01*
X151933Y328083D02*
X156067D01*
X151933Y325917D02*
Y328083D01*
X156067Y325917D02*
Y328083D01*
X126083Y83933D02*
Y88067D01*
X123917Y83933D02*
Y88067D01*
Y83933D02*
X126083D01*
X123917Y88067D02*
X126083D01*
X122933Y98417D02*
Y100583D01*
X127067Y98417D02*
Y100583D01*
X122933Y98417D02*
X127067D01*
X122933Y100583D02*
X127067D01*
X122933Y103917D02*
Y106083D01*
X127067Y103917D02*
Y106083D01*
X122933Y103917D02*
X127067D01*
X122933Y106083D02*
X127067D01*
X122933Y92917D02*
Y95083D01*
X127067Y92917D02*
Y95083D01*
X122933Y92917D02*
X127067D01*
X122933Y95083D02*
X127067D01*
X122539Y333563D02*
X124705D01*
X122539Y329429D02*
X124705D01*
X122539D02*
Y333563D01*
X124705Y329429D02*
Y333563D01*
X118417Y14933D02*
X120583D01*
X118417Y19067D02*
X120583D01*
Y14933D02*
Y19067D01*
X118417Y14933D02*
Y19067D01*
X123417Y14933D02*
X125583D01*
X123417Y19067D02*
X125583D01*
Y14933D02*
Y19067D01*
X123417Y14933D02*
Y19067D01*
X139917Y255067D02*
X142083D01*
X139917Y250933D02*
X142083D01*
X139917D02*
Y255067D01*
X142083Y250933D02*
Y255067D01*
Y261433D02*
Y265567D01*
X139917Y261433D02*
Y265567D01*
Y261433D02*
X142083D01*
X139917Y265567D02*
X142083D01*
X131567Y220917D02*
Y223083D01*
X127433Y220917D02*
Y223083D01*
X131567D01*
X127433Y220917D02*
X131567D01*
X52350Y178520D02*
Y193480D01*
X58650Y178520D02*
Y193480D01*
X52350Y178520D02*
X58650D01*
X52350Y193480D02*
X58650D01*
X52362Y327559D02*
X68898D01*
X52362D02*
Y340158D01*
X68898D01*
Y327559D02*
Y340158D01*
X136472Y223024D02*
X140528D01*
X136472Y220976D02*
X140528D01*
Y223024D01*
X136472Y220976D02*
Y223024D01*
X131472Y207524D02*
X135528D01*
X131472Y205476D02*
X135528D01*
Y207524D01*
X131472Y205476D02*
Y207524D01*
Y201476D02*
X135528D01*
X131472Y203524D02*
X135528D01*
X131472Y201476D02*
Y203524D01*
X135528Y201476D02*
Y203524D01*
X159067Y209417D02*
Y211583D01*
X154933Y209417D02*
Y211583D01*
X159067D01*
X154933Y209417D02*
X159067D01*
X163437Y262539D02*
Y267461D01*
X155563Y262539D02*
Y267461D01*
X163437D01*
X155563Y262539D02*
X163437D01*
Y270539D02*
Y275461D01*
X155563Y270539D02*
Y275461D01*
X163437D01*
X155563Y270539D02*
X163437D01*
D163*
X37500Y85286D02*
D03*
X20501Y85286D02*
D03*
D164*
X60286Y328000D02*
D03*
M02*
