G04*
G04 #@! TF.GenerationSoftware,Altium Limited,Altium Designer,21.5.0 (25)*
G04*
G04 Layer_Physical_Order=2*
G04 Layer_Color=16711680*
%FSLAX25Y25*%
%MOIN*%
G70*
G04*
G04 #@! TF.SameCoordinates,B52814C9-DCD9-4C92-8852-15DF41944D51*
G04*
G04*
G04 #@! TF.FilePolarity,Positive*
G04*
G01*
G75*
%ADD12C,0.01000*%
%ADD13C,0.00787*%
%ADD17R,0.04134X0.03740*%
%ADD33C,0.03937*%
%ADD34C,0.00700*%
%ADD35C,0.02000*%
%ADD36R,0.06299X0.06299*%
%ADD37C,0.06299*%
%ADD38R,0.06299X0.06299*%
%ADD39C,0.02362*%
%ADD40C,0.03150*%
%ADD41R,0.03543X0.03937*%
%ADD42R,0.02756X0.03543*%
%ADD43R,0.03543X0.04134*%
%ADD44R,0.05709X0.04134*%
%ADD45R,0.01378X0.03150*%
%ADD46R,0.03740X0.04134*%
%ADD47R,0.05727X0.06127*%
%ADD48R,0.14567X0.04724*%
%ADD49C,0.04000*%
G36*
X267417Y204500D02*
X266743Y203622D01*
X266177Y202255D01*
X265984Y200787D01*
X266177Y199320D01*
X266743Y197952D01*
X267644Y196778D01*
X268819Y195877D01*
X270186Y195311D01*
X271654Y195118D01*
X273121Y195311D01*
X274488Y195877D01*
X275663Y196778D01*
X276564Y197952D01*
X276784Y198485D01*
X277284Y198386D01*
Y189617D01*
X277259Y189128D01*
X276784Y189128D01*
X272315D01*
Y183791D01*
X273564D01*
Y183217D01*
X270704Y180357D01*
X270137D01*
X269766Y180729D01*
X269075Y181015D01*
X268326D01*
X267635Y180729D01*
X267106Y180199D01*
X266819Y179508D01*
Y178760D01*
X267106Y178068D01*
X267635Y177539D01*
X267710Y177508D01*
X267610Y177008D01*
X219735D01*
X219267Y176915D01*
X218870Y176650D01*
X211733Y169513D01*
X211468Y169116D01*
X211375Y168648D01*
Y12948D01*
X206997Y8569D01*
X206762Y8705D01*
X205782Y8968D01*
X204769D01*
X203790Y8705D01*
X202912Y8199D01*
X202195Y7482D01*
X201688Y6604D01*
X201426Y5625D01*
Y4611D01*
X201688Y3632D01*
X202025Y3049D01*
X201736Y2549D01*
X198815D01*
X198526Y3049D01*
X198863Y3632D01*
X199125Y4611D01*
Y5625D01*
X198863Y6604D01*
X198356Y7482D01*
X197639Y8199D01*
X196762Y8705D01*
X196346Y8817D01*
Y53724D01*
X196265Y54134D01*
X196033Y54481D01*
X114701Y135813D01*
X114354Y136045D01*
X113944Y136126D01*
X104159D01*
X103635Y136651D01*
X103584Y136671D01*
X103683Y137171D01*
X183542D01*
Y115787D01*
X183395Y115430D01*
Y114682D01*
X183542Y114325D01*
Y101717D01*
X181721D01*
Y96183D01*
X188830D01*
Y101717D01*
X187009D01*
Y114325D01*
X187157Y114682D01*
Y115430D01*
X187009Y115787D01*
Y138905D01*
Y161714D01*
X210021Y184726D01*
X266016D01*
Y183791D01*
X270959D01*
Y189128D01*
X266016D01*
Y188192D01*
X209303D01*
X208639Y188060D01*
X208077Y187685D01*
X184050Y163658D01*
X183674Y163095D01*
X183542Y162432D01*
Y140638D01*
X79695D01*
X79032Y140506D01*
X78470Y140130D01*
X77298Y138959D01*
X76922Y138397D01*
X76790Y137733D01*
Y133228D01*
X38249D01*
Y134032D01*
X39151D01*
Y133732D01*
X42515D01*
Y137795D01*
Y141859D01*
X39151D01*
Y141559D01*
X32162D01*
Y134032D01*
X34782D01*
Y131494D01*
Y128751D01*
X33946D01*
Y123217D01*
X35078D01*
Y121260D01*
X35210Y120597D01*
X35490Y120177D01*
X35422Y120050D01*
X35422D01*
Y115907D01*
X32991D01*
X32991Y115907D01*
X32327Y115775D01*
X32105Y115626D01*
X31605Y115850D01*
Y116842D01*
X15639D01*
Y110717D01*
X31605D01*
Y112046D01*
X32597D01*
X33260Y112178D01*
X33652Y112440D01*
X35422D01*
Y111639D01*
X35023Y111560D01*
X34676Y111328D01*
X32863Y109515D01*
X15925D01*
X15515Y109434D01*
X15168Y109202D01*
X15168Y109202D01*
X13023Y107056D01*
X12790Y106709D01*
X12709Y106299D01*
Y92754D01*
X12790Y92344D01*
X13023Y91997D01*
X26284Y78735D01*
X26632Y78503D01*
X27042Y78421D01*
X34963D01*
Y74198D01*
X39118D01*
Y78421D01*
X40174D01*
Y77170D01*
X42552D01*
X44930D01*
Y78421D01*
X68834D01*
X69545Y77711D01*
Y13729D01*
X69020Y13205D01*
X68734Y12514D01*
Y11765D01*
X69020Y11074D01*
X69550Y10545D01*
X70241Y10258D01*
X70989D01*
X71681Y10545D01*
X72210Y11074D01*
X72496Y11765D01*
Y12514D01*
X72210Y13205D01*
X71686Y13729D01*
Y78154D01*
X71686Y78154D01*
X71604Y78564D01*
X71372Y78911D01*
X71372Y78911D01*
X70035Y80249D01*
X69687Y80481D01*
X69278Y80562D01*
X37434D01*
X37434Y80562D01*
X37434Y80562D01*
X27485D01*
X14850Y93197D01*
Y105856D01*
X16368Y107374D01*
X33307D01*
X33716Y107455D01*
X34064Y107687D01*
X34960Y108584D01*
X35422Y108393D01*
Y108296D01*
X36054D01*
X36246Y107834D01*
X35290Y106879D01*
X34914Y106316D01*
X34782Y105653D01*
Y105129D01*
X33946D01*
Y104489D01*
X31605D01*
Y105818D01*
X15639D01*
Y99694D01*
X31605D01*
Y101023D01*
X33946D01*
Y99595D01*
X34782D01*
Y94315D01*
X32162D01*
Y86788D01*
X33992D01*
Y85582D01*
X34124Y84919D01*
X34500Y84356D01*
X35671Y83185D01*
X36233Y82809D01*
X36897Y82677D01*
X73542D01*
Y23657D01*
X73115Y23230D01*
X72760Y22614D01*
X72576Y21927D01*
Y21216D01*
X72760Y20530D01*
X73115Y19914D01*
X73542Y19487D01*
Y8563D01*
X72912Y8199D01*
X72195Y7482D01*
X71688Y6604D01*
X71426Y5625D01*
Y4611D01*
X71688Y3632D01*
X72025Y3049D01*
X71736Y2549D01*
X68815D01*
X68526Y3049D01*
X68863Y3632D01*
X69125Y4611D01*
Y5625D01*
X68863Y6604D01*
X68356Y7482D01*
X67639Y8199D01*
X66761Y8705D01*
X65782Y8968D01*
X64769D01*
X63790Y8705D01*
X62912Y8199D01*
X62195Y7482D01*
X61688Y6604D01*
X61426Y5625D01*
Y4611D01*
X61688Y3632D01*
X62025Y3049D01*
X61736Y2549D01*
X58815D01*
X58526Y3049D01*
X58863Y3632D01*
X59125Y4611D01*
Y5625D01*
X58863Y6604D01*
X58356Y7482D01*
X57639Y8199D01*
X56761Y8705D01*
X55782Y8968D01*
X54769D01*
X53790Y8705D01*
X52912Y8199D01*
X52195Y7482D01*
X51688Y6604D01*
X51426Y5625D01*
Y4611D01*
X51688Y3632D01*
X52025Y3049D01*
X51736Y2549D01*
X49125D01*
Y8968D01*
X41426D01*
Y2549D01*
X23328D01*
X23229Y3049D01*
X24848Y3720D01*
X26950Y5008D01*
X28824Y6609D01*
X30425Y8483D01*
X31713Y10585D01*
X32657Y12862D01*
X33232Y15259D01*
X33426Y17717D01*
X33232Y20174D01*
X32657Y22571D01*
X31713Y24848D01*
X30425Y26950D01*
X28824Y28824D01*
X26950Y30425D01*
X24848Y31713D01*
X22571Y32657D01*
X20174Y33232D01*
X17717Y33426D01*
X15259Y33232D01*
X14701Y33098D01*
X13441D01*
X13163Y33514D01*
X13351Y33966D01*
X13544Y35433D01*
X13351Y36900D01*
X12784Y38268D01*
X12453Y38700D01*
X12674Y39148D01*
X18189D01*
X18251Y39160D01*
X18314Y39151D01*
X18815Y39176D01*
X18999Y39222D01*
X19188Y39222D01*
X20172Y39417D01*
X20404Y39513D01*
X20650Y39562D01*
X21577Y39946D01*
X21786Y40086D01*
X22018Y40182D01*
X22852Y40739D01*
X23030Y40917D01*
X23238Y41056D01*
X23948Y41766D01*
X24087Y41974D01*
X24265Y42152D01*
X24823Y42986D01*
X24919Y43218D01*
X25058Y43427D01*
X25442Y44354D01*
X25491Y44600D01*
X25587Y44832D01*
X25783Y45816D01*
X25783Y46005D01*
X25829Y46188D01*
X25854Y46690D01*
X25844Y46753D01*
X25857Y46815D01*
X25856Y71307D01*
X25844Y71369D01*
X25853Y71432D01*
X25828Y71934D01*
X25782Y72117D01*
Y72306D01*
X25587Y73290D01*
X25491Y73522D01*
X25442Y73768D01*
X25058Y74695D01*
X24918Y74904D01*
X24822Y75136D01*
X24265Y75970D01*
X24087Y76148D01*
X23948Y76356D01*
X23238Y77066D01*
X23030Y77205D01*
X22852Y77383D01*
X22018Y77940D01*
X21786Y78036D01*
X21577Y78176D01*
X20650Y78560D01*
X20404Y78609D01*
X20172Y78705D01*
X19188Y78900D01*
X18999D01*
X18816Y78946D01*
X18314Y78971D01*
X18251Y78962D01*
X18189Y78974D01*
X2549D01*
X2549Y197716D01*
X3049Y197842D01*
X3865Y196778D01*
X5039Y195877D01*
X6407Y195311D01*
X7874Y195118D01*
X9341Y195311D01*
X10709Y195877D01*
X11883Y196778D01*
X12784Y197952D01*
X13351Y199320D01*
X13544Y200787D01*
X13351Y202255D01*
X12784Y203622D01*
X12111Y204500D01*
X12357Y205000D01*
X234128D01*
Y198392D01*
X264262D01*
Y205000D01*
X267170D01*
X267417Y204500D01*
D02*
G37*
G36*
X285307Y201261D02*
Y195924D01*
X285307D01*
X285307Y195552D01*
X285307D01*
Y190215D01*
X285875D01*
X285994Y190062D01*
X286142Y189715D01*
X285898Y189126D01*
Y188378D01*
X286184Y187686D01*
X286555Y187315D01*
Y182252D01*
X278147Y173843D01*
X278018Y173869D01*
X277853Y174411D01*
X282470Y179028D01*
X282735Y179425D01*
X282828Y179893D01*
Y187324D01*
X283199Y187695D01*
X283486Y188387D01*
Y189135D01*
X283245Y189715D01*
X283402Y190074D01*
X283517Y190215D01*
X283951D01*
Y195552D01*
X283951D01*
X283951Y195924D01*
X283951D01*
Y201261D01*
X284339Y201532D01*
X284920D01*
X285307Y201261D01*
D02*
G37*
G36*
X292727Y171588D02*
X292373Y171234D01*
X279705Y171234D01*
X279498Y171734D01*
X288644Y180880D01*
X288909Y181277D01*
X289002Y181745D01*
Y187315D01*
X289373Y187686D01*
X289660Y188378D01*
Y189126D01*
X289416Y189715D01*
X289563Y190062D01*
X289683Y190215D01*
X290250D01*
Y195552D01*
X290250D01*
X290250Y195924D01*
X290250D01*
Y201261D01*
X289002D01*
Y202170D01*
X288909Y202638D01*
X288644Y203035D01*
X288058Y203621D01*
X287661Y203886D01*
X287193Y203979D01*
X282977D01*
X282606Y204351D01*
X282245Y204500D01*
X282344Y205000D01*
X292727D01*
X292727Y171588D01*
D02*
G37*
G36*
X101554Y136671D02*
X101503Y136651D01*
X100974Y136121D01*
X100688Y135430D01*
Y134682D01*
X100974Y133990D01*
X101503Y133461D01*
X102195Y133175D01*
X102943D01*
X103635Y133461D01*
X104159Y133985D01*
X113501D01*
X194205Y53281D01*
Y8817D01*
X193790Y8705D01*
X192912Y8199D01*
X192195Y7482D01*
X191688Y6604D01*
X191426Y5625D01*
Y4611D01*
X191688Y3632D01*
X192025Y3049D01*
X191736Y2549D01*
X188815D01*
X188526Y3049D01*
X188863Y3632D01*
X189125Y4611D01*
Y5625D01*
X188863Y6604D01*
X188648Y6976D01*
X191702Y10030D01*
X191934Y10378D01*
X192016Y10787D01*
X192016Y10787D01*
Y50055D01*
X191934Y50465D01*
X191702Y50812D01*
X191702Y50812D01*
X116701Y125813D01*
X116354Y126045D01*
X115944Y126126D01*
X104159D01*
X103635Y126651D01*
X102943Y126937D01*
X102195D01*
X101503Y126651D01*
X100974Y126121D01*
X100688Y125430D01*
Y124682D01*
X100974Y123990D01*
X101503Y123461D01*
X102195Y123175D01*
X102943D01*
X103635Y123461D01*
X104159Y123985D01*
X115501D01*
X189874Y49612D01*
Y11231D01*
X187134Y8490D01*
X186761Y8705D01*
X185782Y8968D01*
X184769D01*
X183790Y8705D01*
X182912Y8199D01*
X182195Y7482D01*
X181688Y6604D01*
X181426Y5625D01*
Y4611D01*
X181688Y3632D01*
X182025Y3049D01*
X181736Y2549D01*
X178815D01*
X178526Y3049D01*
X178863Y3632D01*
X179125Y4611D01*
Y5625D01*
X178863Y6604D01*
X178356Y7482D01*
X177639Y8199D01*
X176761Y8705D01*
X175782Y8968D01*
X174769D01*
X173790Y8705D01*
X172912Y8199D01*
X172195Y7482D01*
X171688Y6604D01*
X171426Y5625D01*
Y4611D01*
X171688Y3632D01*
X172025Y3049D01*
X171736Y2549D01*
X168815D01*
X168526Y3049D01*
X168863Y3632D01*
X169125Y4611D01*
Y5625D01*
X168863Y6604D01*
X168356Y7482D01*
X167639Y8199D01*
X166762Y8705D01*
X165782Y8968D01*
X164769D01*
X163790Y8705D01*
X162912Y8199D01*
X162195Y7482D01*
X161688Y6604D01*
X161426Y5625D01*
Y4611D01*
X161688Y3632D01*
X162025Y3049D01*
X161736Y2549D01*
X158815D01*
X158526Y3049D01*
X158863Y3632D01*
X159125Y4611D01*
Y5625D01*
X158863Y6604D01*
X158356Y7482D01*
X157639Y8199D01*
X156762Y8705D01*
X155782Y8968D01*
X154769D01*
X153790Y8705D01*
X152912Y8199D01*
X152195Y7482D01*
X151688Y6604D01*
X151426Y5625D01*
Y4611D01*
X151688Y3632D01*
X152025Y3049D01*
X151736Y2549D01*
X148815D01*
X148526Y3049D01*
X148863Y3632D01*
X149125Y4611D01*
Y5625D01*
X148863Y6604D01*
X148356Y7482D01*
X147639Y8199D01*
X146762Y8705D01*
X145782Y8968D01*
X144769D01*
X143790Y8705D01*
X142912Y8199D01*
X142195Y7482D01*
X141688Y6604D01*
X141426Y5625D01*
Y4611D01*
X141688Y3632D01*
X142025Y3049D01*
X141736Y2549D01*
X138815D01*
X138526Y3049D01*
X138863Y3632D01*
X139125Y4611D01*
Y5625D01*
X138863Y6604D01*
X138356Y7482D01*
X137639Y8199D01*
X136761Y8705D01*
X135782Y8968D01*
X134769D01*
X133790Y8705D01*
X132912Y8199D01*
X132195Y7482D01*
X131688Y6604D01*
X131426Y5625D01*
Y4611D01*
X131688Y3632D01*
X132025Y3049D01*
X131736Y2549D01*
X128815D01*
X128526Y3049D01*
X128863Y3632D01*
X129125Y4611D01*
Y5625D01*
X128863Y6604D01*
X128356Y7482D01*
X127639Y8199D01*
X126761Y8705D01*
X125782Y8968D01*
X124769D01*
X123790Y8705D01*
X122912Y8199D01*
X122195Y7482D01*
X121688Y6604D01*
X121426Y5625D01*
Y4611D01*
X121688Y3632D01*
X122025Y3049D01*
X121736Y2549D01*
X118815D01*
X118526Y3049D01*
X118863Y3632D01*
X119125Y4611D01*
Y5625D01*
X118863Y6604D01*
X118356Y7482D01*
X117639Y8199D01*
X116762Y8705D01*
X115782Y8968D01*
X114769D01*
X113790Y8705D01*
X112912Y8199D01*
X112195Y7482D01*
X111688Y6604D01*
X111426Y5625D01*
Y4611D01*
X111688Y3632D01*
X112025Y3049D01*
X111736Y2549D01*
X109161D01*
X108872Y3049D01*
X109142Y3516D01*
X109425Y4572D01*
Y4618D01*
X101126D01*
Y4572D01*
X101409Y3516D01*
X101679Y3049D01*
X101390Y2549D01*
X98815D01*
X98526Y3049D01*
X98863Y3632D01*
X99125Y4611D01*
Y5625D01*
X98863Y6604D01*
X98356Y7482D01*
X97639Y8199D01*
X96762Y8705D01*
X95782Y8968D01*
X94769D01*
X93790Y8705D01*
X92912Y8199D01*
X92195Y7482D01*
X91688Y6604D01*
X91426Y5625D01*
Y4611D01*
X91688Y3632D01*
X92025Y3049D01*
X91736Y2549D01*
X88815D01*
X88526Y3049D01*
X88863Y3632D01*
X89125Y4611D01*
Y5625D01*
X88863Y6604D01*
X88356Y7482D01*
X87639Y8199D01*
X86761Y8705D01*
X85782Y8968D01*
X84769D01*
X83790Y8705D01*
X82912Y8199D01*
X82195Y7482D01*
X81688Y6604D01*
X81426Y5625D01*
Y4611D01*
X81688Y3632D01*
X82025Y3049D01*
X81736Y2549D01*
X78815D01*
X78526Y3049D01*
X78863Y3632D01*
X79125Y4611D01*
Y5625D01*
X78863Y6604D01*
X78356Y7482D01*
X77639Y8199D01*
X77009Y8563D01*
Y19487D01*
X77436Y19914D01*
X77792Y20530D01*
X77976Y21216D01*
Y21927D01*
X77792Y22614D01*
X77436Y23230D01*
X77009Y23657D01*
Y84411D01*
Y89361D01*
X80971Y93322D01*
X101838D01*
X102195Y93175D01*
X102943D01*
X103635Y93461D01*
X104164Y93990D01*
X104450Y94682D01*
Y95430D01*
X104164Y96121D01*
X103635Y96650D01*
X102943Y96937D01*
X102195D01*
X101838Y96789D01*
X80253D01*
X79589Y96657D01*
X79027Y96281D01*
X74050Y91304D01*
X73674Y90742D01*
X73542Y90079D01*
Y86144D01*
X47236D01*
X46878Y86488D01*
Y90051D01*
X43015D01*
Y90551D01*
X42515D01*
Y94615D01*
X39151D01*
Y94315D01*
X38249D01*
Y99242D01*
X38603Y99595D01*
X38979Y99595D01*
X39354Y99295D01*
X39462Y99295D01*
X41724D01*
Y102362D01*
Y105429D01*
X39450D01*
X39164Y105850D01*
X39590Y106276D01*
X39966Y106839D01*
X40098Y107502D01*
X40097Y107504D01*
X40235Y107642D01*
X40501Y108039D01*
X40551Y108296D01*
X43318D01*
Y109500D01*
X44871D01*
Y107492D01*
X49510D01*
X49886Y107192D01*
X50190Y107192D01*
X52157D01*
Y110259D01*
Y113326D01*
X50190D01*
X49886Y113326D01*
X49510Y113025D01*
X44871D01*
Y111641D01*
X43318D01*
Y112846D01*
X40615D01*
X40408Y113346D01*
X40596Y113533D01*
X40971Y114096D01*
X41103Y114759D01*
X41092Y114814D01*
X41410Y115201D01*
X41429D01*
Y117776D01*
Y120350D01*
X40240D01*
Y120050D01*
X38578D01*
X38342Y120491D01*
X38412Y120597D01*
X38544Y121260D01*
Y122864D01*
X38785Y123104D01*
X39044Y123165D01*
X39354Y122917D01*
X39462Y122917D01*
X41724D01*
Y125984D01*
Y129051D01*
X39354Y129051D01*
X38979Y128751D01*
X38854Y128751D01*
X38249D01*
Y129761D01*
X76790D01*
Y106227D01*
X76922Y105564D01*
X77298Y105002D01*
X78470Y103830D01*
X79032Y103454D01*
X79695Y103323D01*
X101838D01*
X102195Y103175D01*
X102943D01*
X103300Y103322D01*
X109272D01*
X109935Y103454D01*
X110497Y103830D01*
X111581Y104914D01*
X114664D01*
X114664Y109947D01*
X114964Y110323D01*
X114964Y110430D01*
Y112693D01*
X111897D01*
X108830D01*
X108830Y110323D01*
X109130Y109947D01*
X109130Y109823D01*
Y107365D01*
X108554Y106789D01*
X103300D01*
X102943Y106937D01*
X102195D01*
X101838Y106789D01*
X80413D01*
X80257Y106945D01*
Y131229D01*
Y137015D01*
X80413Y137171D01*
X101454D01*
X101554Y136671D01*
D02*
G37*
G36*
X270974Y170661D02*
X270430Y170436D01*
X270222Y170297D01*
X269990Y170200D01*
X269156Y169643D01*
X268978Y169465D01*
X268769Y169326D01*
X268060Y168616D01*
X267920Y168408D01*
X267743Y168230D01*
X267186Y167396D01*
X267090Y167164D01*
X266950Y166955D01*
X266566Y166028D01*
X266517Y165782D01*
X266421Y165550D01*
X266225Y164566D01*
X266225Y164377D01*
X266179Y164193D01*
X266155Y163692D01*
X266164Y163629D01*
X266152Y163567D01*
Y36267D01*
X266063D01*
Y28370D01*
X264850Y26950D01*
X263562Y24848D01*
X262619Y22571D01*
X262043Y20174D01*
X261850Y17717D01*
X262043Y15259D01*
X262619Y12862D01*
X263562Y10585D01*
X264850Y8483D01*
X266063Y7063D01*
Y2549D01*
X258815D01*
X258526Y3049D01*
X258863Y3632D01*
X259125Y4611D01*
Y5625D01*
X258863Y6604D01*
X258356Y7482D01*
X257639Y8199D01*
X256762Y8705D01*
X255782Y8968D01*
X254769D01*
X253790Y8705D01*
X252912Y8199D01*
X252195Y7482D01*
X251688Y6604D01*
X251426Y5625D01*
Y4611D01*
X251688Y3632D01*
X252025Y3049D01*
X251736Y2549D01*
X248815D01*
X248526Y3049D01*
X248863Y3632D01*
X249125Y4611D01*
Y5625D01*
X248863Y6604D01*
X248356Y7482D01*
X247639Y8199D01*
X246761Y8705D01*
X245782Y8968D01*
X244769D01*
X243790Y8705D01*
X242912Y8199D01*
X242195Y7482D01*
X241688Y6604D01*
X241426Y5625D01*
Y4611D01*
X241688Y3632D01*
X242025Y3049D01*
X241736Y2549D01*
X238815D01*
X238526Y3049D01*
X238863Y3632D01*
X239125Y4611D01*
Y5625D01*
X238863Y6604D01*
X238356Y7482D01*
X237639Y8199D01*
X236761Y8705D01*
X236499Y8776D01*
Y163260D01*
X244401Y171161D01*
X270874D01*
X270974Y170661D01*
D02*
G37*
G36*
X242178Y172399D02*
X234410Y164631D01*
X234145Y164235D01*
X234052Y163766D01*
Y8776D01*
X233790Y8705D01*
X232912Y8199D01*
X232195Y7482D01*
X231688Y6604D01*
X231426Y5625D01*
Y4611D01*
X231688Y3632D01*
X232025Y3049D01*
X231736Y2549D01*
X228815D01*
X228526Y3049D01*
X228863Y3632D01*
X229125Y4611D01*
Y5625D01*
X228863Y6604D01*
X228356Y7482D01*
X227639Y8199D01*
X226762Y8705D01*
X225782Y8968D01*
X224769D01*
X223790Y8705D01*
X222912Y8199D01*
X222195Y7482D01*
X221688Y6604D01*
X221426Y5625D01*
Y4611D01*
X221688Y3632D01*
X222025Y3049D01*
X221736Y2549D01*
X218815D01*
X218526Y3049D01*
X218863Y3632D01*
X219125Y4611D01*
Y5625D01*
X218863Y6604D01*
X218356Y7482D01*
X217639Y8199D01*
X216761Y8705D01*
X216499Y8776D01*
Y167033D01*
X222328Y172861D01*
X241987D01*
X242178Y172399D01*
D02*
G37*
G36*
X820507Y-2239D02*
X820554Y-2244D01*
X820609Y-2253D01*
X820665Y-2267D01*
X820729Y-2281D01*
X820794Y-2299D01*
X820863Y-2323D01*
X820937Y-2355D01*
X821006Y-2392D01*
X821076Y-2433D01*
X821145Y-2484D01*
X821210Y-2540D01*
X821270Y-2604D01*
X821274Y-2609D01*
X821284Y-2623D01*
X821297Y-2641D01*
X821321Y-2674D01*
X821344Y-2715D01*
X821371Y-2761D01*
X821399Y-2821D01*
X821427Y-2886D01*
X821455Y-2965D01*
X821487Y-3048D01*
X821510Y-3145D01*
X821533Y-3251D01*
X821556Y-3367D01*
X821570Y-3491D01*
X821579Y-3625D01*
X821584Y-3773D01*
Y-6905D01*
X820951D01*
Y-4027D01*
Y-4023D01*
Y-4004D01*
Y-3981D01*
Y-3949D01*
Y-3907D01*
X820946Y-3861D01*
Y-3810D01*
X820942Y-3755D01*
X820932Y-3644D01*
X820919Y-3528D01*
X820900Y-3422D01*
X820891Y-3376D01*
X820877Y-3334D01*
Y-3330D01*
X820872Y-3325D01*
X820863Y-3302D01*
X820845Y-3260D01*
X820821Y-3214D01*
X820789Y-3163D01*
X820752Y-3112D01*
X820701Y-3062D01*
X820646Y-3015D01*
X820637Y-3011D01*
X820618Y-2997D01*
X820586Y-2978D01*
X820540Y-2955D01*
X820489Y-2937D01*
X820424Y-2918D01*
X820360Y-2905D01*
X820286Y-2900D01*
X820244D01*
X820216Y-2905D01*
X820184Y-2909D01*
X820142Y-2918D01*
X820096Y-2928D01*
X820050Y-2942D01*
X819995Y-2960D01*
X819944Y-2978D01*
X819884Y-3006D01*
X819828Y-3039D01*
X819773Y-3076D01*
X819717Y-3122D01*
X819666Y-3168D01*
X819616Y-3228D01*
X819611Y-3233D01*
X819606Y-3242D01*
X819593Y-3260D01*
X819574Y-3288D01*
X819556Y-3325D01*
X819533Y-3367D01*
X819510Y-3417D01*
X819486Y-3478D01*
X819463Y-3542D01*
X819440Y-3621D01*
X819417Y-3704D01*
X819399Y-3796D01*
X819380Y-3898D01*
X819366Y-4004D01*
X819362Y-4124D01*
X819357Y-4249D01*
Y-6905D01*
X818724D01*
Y-3935D01*
Y-3930D01*
Y-3912D01*
Y-3879D01*
X818719Y-3842D01*
Y-3796D01*
X818715Y-3741D01*
X818710Y-3685D01*
X818701Y-3621D01*
X818682Y-3491D01*
X818650Y-3357D01*
X818632Y-3297D01*
X818609Y-3237D01*
X818581Y-3182D01*
X818548Y-3136D01*
Y-3131D01*
X818539Y-3126D01*
X818516Y-3099D01*
X818479Y-3062D01*
X818424Y-3015D01*
X818355Y-2974D01*
X818271Y-2937D01*
X818174Y-2909D01*
X818124Y-2905D01*
X818068Y-2900D01*
X818026D01*
X817994Y-2905D01*
X817962Y-2909D01*
X817916Y-2918D01*
X817869Y-2928D01*
X817819Y-2942D01*
X817763Y-2960D01*
X817708Y-2988D01*
X817652Y-3015D01*
X817597Y-3048D01*
X817537Y-3089D01*
X817481Y-3136D01*
X817430Y-3191D01*
X817380Y-3251D01*
X817375Y-3256D01*
X817370Y-3270D01*
X817356Y-3288D01*
X817343Y-3320D01*
X817324Y-3362D01*
X817301Y-3413D01*
X817278Y-3473D01*
X817255Y-3542D01*
X817232Y-3625D01*
X817209Y-3718D01*
X817190Y-3824D01*
X817167Y-3940D01*
X817153Y-4069D01*
X817139Y-4212D01*
X817135Y-4369D01*
X817130Y-4535D01*
Y-6905D01*
X816497D01*
Y-2336D01*
X817066D01*
Y-2969D01*
X817075Y-2960D01*
X817084Y-2942D01*
X817098Y-2914D01*
X817116Y-2886D01*
X817139Y-2854D01*
X817195Y-2775D01*
X817264Y-2688D01*
X817347Y-2595D01*
X817440Y-2507D01*
X817546Y-2429D01*
X817551Y-2424D01*
X817560Y-2420D01*
X817578Y-2410D01*
X817597Y-2396D01*
X817624Y-2382D01*
X817661Y-2369D01*
X817698Y-2350D01*
X817740Y-2332D01*
X817837Y-2295D01*
X817948Y-2267D01*
X818068Y-2244D01*
X818197Y-2235D01*
X818234D01*
X818262Y-2239D01*
X818299D01*
X818336Y-2244D01*
X818382Y-2253D01*
X818428Y-2258D01*
X818535Y-2286D01*
X818645Y-2323D01*
X818761Y-2369D01*
X818816Y-2401D01*
X818867Y-2438D01*
X818872D01*
X818881Y-2447D01*
X818895Y-2461D01*
X818913Y-2475D01*
X818932Y-2498D01*
X818960Y-2521D01*
X819020Y-2586D01*
X819080Y-2674D01*
X819145Y-2775D01*
X819205Y-2891D01*
X819255Y-3029D01*
X819260Y-3025D01*
X819265Y-3011D01*
X819279Y-2992D01*
X819297Y-2965D01*
X819315Y-2932D01*
X819343Y-2891D01*
X819403Y-2808D01*
X819482Y-2710D01*
X819569Y-2609D01*
X819666Y-2517D01*
X819717Y-2475D01*
X819773Y-2433D01*
X819777Y-2429D01*
X819787Y-2424D01*
X819800Y-2415D01*
X819824Y-2401D01*
X819851Y-2387D01*
X819884Y-2369D01*
X819921Y-2350D01*
X819962Y-2332D01*
X820059Y-2299D01*
X820170Y-2267D01*
X820290Y-2244D01*
X820355Y-2235D01*
X820470D01*
X820507Y-2239D01*
D02*
G37*
G36*
X841644Y-2239D02*
X841672Y-2244D01*
X841709Y-2248D01*
X841745Y-2253D01*
X841792Y-2267D01*
X841889Y-2295D01*
X842000Y-2341D01*
X842055Y-2369D01*
X842115Y-2401D01*
X842180Y-2438D01*
X842240Y-2484D01*
X842023Y-3205D01*
X842018D01*
X842013Y-3196D01*
X842000Y-3191D01*
X841981Y-3177D01*
X841935Y-3149D01*
X841875Y-3117D01*
X841806Y-3089D01*
X841727Y-3062D01*
X841644Y-3043D01*
X841561Y-3034D01*
X841528D01*
X841487Y-3043D01*
X841436Y-3052D01*
X841381Y-3071D01*
X841316Y-3094D01*
X841251Y-3131D01*
X841187Y-3177D01*
X841177Y-3182D01*
X841159Y-3205D01*
X841131Y-3237D01*
X841094Y-3279D01*
X841057Y-3339D01*
X841020Y-3404D01*
X840983Y-3482D01*
X840956Y-3574D01*
Y-3579D01*
X840951Y-3593D01*
X840946Y-3621D01*
X840937Y-3653D01*
X840928Y-3695D01*
X840919Y-3741D01*
X840905Y-3796D01*
X840895Y-3856D01*
X840886Y-3926D01*
X840872Y-3999D01*
X840863Y-4078D01*
X840854Y-4161D01*
X840840Y-4332D01*
X840835Y-4517D01*
Y-6905D01*
X840202D01*
Y-2336D01*
X840775D01*
Y-3034D01*
X840780Y-3029D01*
X840785Y-3011D01*
X840798Y-2988D01*
X840812Y-2955D01*
X840831Y-2918D01*
X840854Y-2872D01*
X840905Y-2771D01*
X840969Y-2664D01*
X841034Y-2558D01*
X841071Y-2507D01*
X841103Y-2466D01*
X841140Y-2424D01*
X841173Y-2392D01*
X841182Y-2387D01*
X841205Y-2369D01*
X841242Y-2341D01*
X841293Y-2313D01*
X841357Y-2286D01*
X841427Y-2258D01*
X841505Y-2239D01*
X841588Y-2235D01*
X841621D01*
X841644Y-2239D01*
D02*
G37*
G36*
X834219Y-6979D02*
Y-6984D01*
X834215Y-6989D01*
X834210Y-7002D01*
X834206Y-7021D01*
X834192Y-7063D01*
X834173Y-7127D01*
X834150Y-7197D01*
X834122Y-7280D01*
X834090Y-7372D01*
X834058Y-7469D01*
X833988Y-7672D01*
X833952Y-7774D01*
X833915Y-7871D01*
X833878Y-7964D01*
X833841Y-8047D01*
X833808Y-8121D01*
X833776Y-8185D01*
Y-8190D01*
X833767Y-8199D01*
X833762Y-8213D01*
X833748Y-8236D01*
X833716Y-8287D01*
X833670Y-8356D01*
X833614Y-8426D01*
X833554Y-8499D01*
X833485Y-8569D01*
X833411Y-8624D01*
X833402Y-8629D01*
X833374Y-8643D01*
X833333Y-8666D01*
X833277Y-8689D01*
X833208Y-8716D01*
X833129Y-8735D01*
X833041Y-8754D01*
X832949Y-8758D01*
X832917D01*
X832880Y-8754D01*
X832829Y-8744D01*
X832769Y-8735D01*
X832700Y-8721D01*
X832626Y-8698D01*
X832543Y-8666D01*
X832473Y-7936D01*
X832478D01*
X832482Y-7940D01*
X832510Y-7945D01*
X832547Y-7959D01*
X832598Y-7968D01*
X832653Y-7982D01*
X832713Y-7996D01*
X832773Y-8000D01*
X832829Y-8005D01*
X832861D01*
X832898Y-8000D01*
X832949Y-7996D01*
X833000Y-7987D01*
X833055Y-7968D01*
X833111Y-7950D01*
X833162Y-7922D01*
X833166Y-7917D01*
X833185Y-7908D01*
X833208Y-7885D01*
X833240Y-7857D01*
X833272Y-7825D01*
X833309Y-7779D01*
X833346Y-7728D01*
X833379Y-7668D01*
Y-7663D01*
X833383Y-7659D01*
X833388Y-7649D01*
X833393Y-7631D01*
X833402Y-7612D01*
X833411Y-7585D01*
X833420Y-7548D01*
X833439Y-7506D01*
X833453Y-7455D01*
X833476Y-7391D01*
X833499Y-7317D01*
X833527Y-7233D01*
X833554Y-7136D01*
X833591Y-7026D01*
X833628Y-6901D01*
X832210Y-2336D01*
X832894D01*
X833674Y-4974D01*
Y-4979D01*
X833679Y-4997D01*
X833688Y-5025D01*
X833698Y-5062D01*
X833711Y-5108D01*
X833730Y-5159D01*
X833744Y-5224D01*
X833762Y-5293D01*
X833785Y-5367D01*
X833804Y-5450D01*
X833827Y-5538D01*
X833850Y-5630D01*
X833901Y-5824D01*
X833947Y-6032D01*
Y-6028D01*
X833952Y-6009D01*
X833956Y-5982D01*
X833965Y-5940D01*
X833975Y-5894D01*
X833988Y-5838D01*
X834002Y-5774D01*
X834021Y-5704D01*
X834035Y-5626D01*
X834058Y-5543D01*
X834099Y-5372D01*
X834146Y-5182D01*
X834201Y-4993D01*
X835005Y-2336D01*
X835643D01*
X834219Y-6979D01*
D02*
G37*
G36*
X830233Y-2239D02*
X830283D01*
X830339Y-2244D01*
X830403Y-2253D01*
X830473Y-2262D01*
X830621Y-2290D01*
X830773Y-2327D01*
X830925Y-2382D01*
X830995Y-2420D01*
X831059Y-2456D01*
X831064Y-2461D01*
X831073Y-2466D01*
X831092Y-2479D01*
X831115Y-2498D01*
X831170Y-2544D01*
X831240Y-2609D01*
X831314Y-2687D01*
X831383Y-2780D01*
X831443Y-2886D01*
X831466Y-2946D01*
X831485Y-3006D01*
Y-3011D01*
X831489Y-3020D01*
X831494Y-3039D01*
X831498Y-3066D01*
X831508Y-3103D01*
X831512Y-3145D01*
X831522Y-3191D01*
X831531Y-3246D01*
X831540Y-3311D01*
X831549Y-3385D01*
X831554Y-3464D01*
X831563Y-3547D01*
X831568Y-3639D01*
X831572Y-3741D01*
X831577Y-3847D01*
Y-3963D01*
Y-4993D01*
Y-4997D01*
Y-5007D01*
Y-5020D01*
Y-5039D01*
Y-5067D01*
Y-5094D01*
Y-5168D01*
Y-5252D01*
Y-5353D01*
X831581Y-5459D01*
Y-5570D01*
X831586Y-5806D01*
X831591Y-5917D01*
Y-6028D01*
X831595Y-6129D01*
X831600Y-6222D01*
X831609Y-6300D01*
Y-6333D01*
X831614Y-6360D01*
Y-6365D01*
Y-6374D01*
X831618Y-6388D01*
X831623Y-6407D01*
X831628Y-6434D01*
X831632Y-6462D01*
X831651Y-6536D01*
X831674Y-6619D01*
X831702Y-6707D01*
X831739Y-6808D01*
X831780Y-6905D01*
X831120D01*
Y-6901D01*
X831115Y-6896D01*
X831110Y-6882D01*
X831101Y-6864D01*
X831096Y-6841D01*
X831083Y-6813D01*
X831064Y-6748D01*
X831041Y-6665D01*
X831018Y-6573D01*
X830999Y-6467D01*
X830986Y-6346D01*
X830981Y-6351D01*
X830972Y-6360D01*
X830953Y-6379D01*
X830930Y-6402D01*
X830902Y-6430D01*
X830865Y-6462D01*
X830828Y-6494D01*
X830782Y-6531D01*
X830685Y-6614D01*
X830570Y-6698D01*
X830450Y-6776D01*
X830320Y-6845D01*
X830316D01*
X830306Y-6855D01*
X830288Y-6859D01*
X830260Y-6873D01*
X830228Y-6882D01*
X830191Y-6896D01*
X830149Y-6915D01*
X830103Y-6929D01*
X829992Y-6961D01*
X829872Y-6984D01*
X829743Y-7002D01*
X829604Y-7012D01*
X829576D01*
X829549Y-7007D01*
X829507D01*
X829456Y-7002D01*
X829401Y-6993D01*
X829336Y-6984D01*
X829267Y-6966D01*
X829193Y-6947D01*
X829119Y-6924D01*
X829041Y-6896D01*
X828962Y-6864D01*
X828888Y-6822D01*
X828810Y-6776D01*
X828740Y-6721D01*
X828671Y-6661D01*
X828666Y-6656D01*
X828657Y-6642D01*
X828639Y-6624D01*
X828615Y-6596D01*
X828592Y-6559D01*
X828560Y-6517D01*
X828532Y-6467D01*
X828500Y-6411D01*
X828468Y-6346D01*
X828435Y-6273D01*
X828403Y-6194D01*
X828380Y-6111D01*
X828357Y-6019D01*
X828338Y-5921D01*
X828329Y-5820D01*
X828324Y-5709D01*
Y-5704D01*
Y-5690D01*
Y-5672D01*
X828329Y-5640D01*
Y-5607D01*
X828334Y-5566D01*
X828338Y-5520D01*
X828343Y-5473D01*
X828366Y-5362D01*
X828394Y-5247D01*
X828431Y-5122D01*
X828486Y-5007D01*
Y-5002D01*
X828495Y-4993D01*
X828505Y-4979D01*
X828514Y-4956D01*
X828551Y-4900D01*
X828602Y-4831D01*
X828666Y-4757D01*
X828740Y-4679D01*
X828828Y-4600D01*
X828930Y-4531D01*
X828934D01*
X828944Y-4522D01*
X828962Y-4512D01*
X828985Y-4503D01*
X829013Y-4489D01*
X829050Y-4471D01*
X829096Y-4452D01*
X829147Y-4434D01*
X829202Y-4411D01*
X829267Y-4392D01*
X829336Y-4369D01*
X829415Y-4346D01*
X829498Y-4327D01*
X829590Y-4309D01*
X829687Y-4291D01*
X829794Y-4272D01*
X829803D01*
X829826Y-4267D01*
X829867Y-4263D01*
X829923Y-4254D01*
X829983Y-4240D01*
X830057Y-4231D01*
X830140Y-4212D01*
X830228Y-4198D01*
X830413Y-4157D01*
X830602Y-4110D01*
X830694Y-4087D01*
X830782Y-4060D01*
X830861Y-4032D01*
X830935Y-4004D01*
X830939Y-3810D01*
Y-3805D01*
Y-3792D01*
Y-3764D01*
X830935Y-3732D01*
Y-3695D01*
X830930Y-3653D01*
X830916Y-3551D01*
X830898Y-3441D01*
X830865Y-3334D01*
X830824Y-3233D01*
X830801Y-3186D01*
X830768Y-3149D01*
X830764Y-3145D01*
X830759Y-3136D01*
X830745Y-3122D01*
X830722Y-3108D01*
X830699Y-3085D01*
X830667Y-3062D01*
X830630Y-3039D01*
X830588Y-3011D01*
X830542Y-2983D01*
X830487Y-2960D01*
X830427Y-2937D01*
X830362Y-2914D01*
X830288Y-2900D01*
X830214Y-2886D01*
X830126Y-2877D01*
X830038Y-2872D01*
X829997D01*
X829965Y-2877D01*
X829928D01*
X829886Y-2881D01*
X829789Y-2895D01*
X829683Y-2918D01*
X829572Y-2951D01*
X829466Y-2997D01*
X829419Y-3025D01*
X829373Y-3057D01*
X829368D01*
X829364Y-3066D01*
X829355Y-3076D01*
X829336Y-3094D01*
X829318Y-3117D01*
X829299Y-3140D01*
X829276Y-3173D01*
X829253Y-3214D01*
X829225Y-3256D01*
X829202Y-3306D01*
X829175Y-3362D01*
X829147Y-3427D01*
X829124Y-3496D01*
X829096Y-3570D01*
X829073Y-3653D01*
X829054Y-3745D01*
X828431Y-3644D01*
Y-3635D01*
X828435Y-3611D01*
X828444Y-3574D01*
X828458Y-3524D01*
X828472Y-3464D01*
X828495Y-3394D01*
X828518Y-3316D01*
X828546Y-3233D01*
X828578Y-3149D01*
X828620Y-3057D01*
X828662Y-2969D01*
X828712Y-2881D01*
X828768Y-2794D01*
X828828Y-2715D01*
X828893Y-2641D01*
X828967Y-2572D01*
X828971Y-2567D01*
X828985Y-2558D01*
X829008Y-2540D01*
X829045Y-2521D01*
X829087Y-2493D01*
X829138Y-2466D01*
X829198Y-2433D01*
X829267Y-2401D01*
X829345Y-2373D01*
X829433Y-2341D01*
X829530Y-2313D01*
X829632Y-2286D01*
X829747Y-2267D01*
X829867Y-2248D01*
X829997Y-2239D01*
X830136Y-2235D01*
X830191D01*
X830233Y-2239D01*
D02*
G37*
G36*
X825257Y-6162D02*
X827807D01*
Y-6905D01*
X824573D01*
Y-595D01*
X825257D01*
Y-6162D01*
D02*
G37*
G36*
X801718Y-599D02*
X801769D01*
X801824Y-604D01*
X801889Y-609D01*
X801958Y-618D01*
X802110Y-641D01*
X802263Y-673D01*
X802415Y-719D01*
X802489Y-747D01*
X802554Y-779D01*
X802559D01*
X802568Y-789D01*
X802586Y-798D01*
X802610Y-816D01*
X802642Y-835D01*
X802674Y-858D01*
X802753Y-918D01*
X802845Y-1001D01*
X802891Y-1047D01*
X802938Y-1098D01*
X802984Y-1154D01*
X803030Y-1218D01*
X803076Y-1283D01*
X803118Y-1352D01*
X803122Y-1357D01*
X803127Y-1371D01*
X803136Y-1389D01*
X803155Y-1422D01*
X803168Y-1459D01*
X803187Y-1500D01*
X803210Y-1551D01*
X803229Y-1606D01*
X803252Y-1666D01*
X803270Y-1731D01*
X803307Y-1874D01*
X803330Y-2036D01*
X803335Y-2119D01*
X803339Y-2207D01*
Y-2212D01*
Y-2225D01*
Y-2248D01*
X803335Y-2281D01*
Y-2318D01*
X803330Y-2364D01*
X803326Y-2415D01*
X803316Y-2466D01*
X803293Y-2590D01*
X803261Y-2720D01*
X803215Y-2858D01*
X803150Y-2992D01*
Y-2997D01*
X803141Y-3006D01*
X803132Y-3025D01*
X803113Y-3048D01*
X803095Y-3080D01*
X803071Y-3112D01*
X803011Y-3191D01*
X802938Y-3279D01*
X802845Y-3376D01*
X802739Y-3468D01*
X802614Y-3551D01*
X802619D01*
X802633Y-3561D01*
X802656Y-3570D01*
X802688Y-3584D01*
X802725Y-3602D01*
X802771Y-3625D01*
X802822Y-3648D01*
X802873Y-3681D01*
X802928Y-3718D01*
X802988Y-3759D01*
X803044Y-3805D01*
X803104Y-3856D01*
X803164Y-3912D01*
X803219Y-3972D01*
X803275Y-4036D01*
X803326Y-4110D01*
X803330Y-4115D01*
X803335Y-4129D01*
X803349Y-4152D01*
X803367Y-4180D01*
X803386Y-4217D01*
X803409Y-4263D01*
X803432Y-4318D01*
X803460Y-4378D01*
X803483Y-4448D01*
X803506Y-4522D01*
X803529Y-4600D01*
X803547Y-4683D01*
X803566Y-4776D01*
X803580Y-4873D01*
X803584Y-4974D01*
X803589Y-5081D01*
Y-5085D01*
Y-5104D01*
Y-5136D01*
X803584Y-5178D01*
X803580Y-5229D01*
X803575Y-5284D01*
X803570Y-5349D01*
X803561Y-5423D01*
X803547Y-5496D01*
X803533Y-5580D01*
X803492Y-5746D01*
X803464Y-5834D01*
X803432Y-5922D01*
X803395Y-6005D01*
X803353Y-6088D01*
X803349Y-6092D01*
X803344Y-6106D01*
X803330Y-6129D01*
X803312Y-6157D01*
X803289Y-6194D01*
X803256Y-6236D01*
X803224Y-6277D01*
X803187Y-6328D01*
X803095Y-6430D01*
X802988Y-6531D01*
X802864Y-6628D01*
X802799Y-6674D01*
X802725Y-6712D01*
X802720D01*
X802707Y-6721D01*
X802683Y-6730D01*
X802656Y-6744D01*
X802614Y-6758D01*
X802568Y-6771D01*
X802508Y-6790D01*
X802448Y-6808D01*
X802374Y-6827D01*
X802291Y-6845D01*
X802203Y-6859D01*
X802110Y-6873D01*
X802004Y-6887D01*
X801893Y-6896D01*
X801778Y-6901D01*
X801653Y-6905D01*
X799685D01*
Y-595D01*
X801676D01*
X801718Y-599D01*
D02*
G37*
G36*
X811235Y-2336D02*
X811877D01*
Y-2937D01*
X811235D01*
Y-5612D01*
Y-5616D01*
Y-5626D01*
Y-5649D01*
Y-5672D01*
Y-5700D01*
X811240Y-5732D01*
X811244Y-5811D01*
X811249Y-5889D01*
X811258Y-5968D01*
X811272Y-6037D01*
X811281Y-6065D01*
X811290Y-6088D01*
X811295Y-6092D01*
X811304Y-6111D01*
X811327Y-6134D01*
X811360Y-6162D01*
X811401Y-6194D01*
X811452Y-6217D01*
X811517Y-6236D01*
X811595Y-6240D01*
X811637D01*
X811669Y-6236D01*
X811711D01*
X811757Y-6226D01*
X811817Y-6222D01*
X811877Y-6213D01*
X811965Y-6896D01*
X811960D01*
X811951Y-6901D01*
X811937D01*
X811919Y-6905D01*
X811873Y-6919D01*
X811808Y-6929D01*
X811734Y-6943D01*
X811656Y-6956D01*
X811572Y-6961D01*
X811489Y-6966D01*
X811434D01*
X811406Y-6961D01*
X811374Y-6956D01*
X811300Y-6947D01*
X811212Y-6933D01*
X811124Y-6910D01*
X811036Y-6878D01*
X810953Y-6836D01*
X810944Y-6832D01*
X810921Y-6813D01*
X810884Y-6785D01*
X810842Y-6744D01*
X810796Y-6693D01*
X810750Y-6633D01*
X810708Y-6559D01*
X810676Y-6481D01*
Y-6476D01*
X810671Y-6471D01*
Y-6453D01*
X810667Y-6434D01*
X810658Y-6407D01*
X810653Y-6370D01*
X810648Y-6328D01*
X810639Y-6282D01*
X810634Y-6222D01*
X810625Y-6157D01*
X810621Y-6083D01*
X810616Y-6000D01*
X810611Y-5908D01*
X810607Y-5806D01*
X810602Y-5690D01*
Y-5570D01*
Y-2937D01*
X810135D01*
Y-2336D01*
X810602D01*
Y-1204D01*
X811235Y-738D01*
Y-2336D01*
D02*
G37*
G36*
X809225D02*
X809867D01*
Y-2937D01*
X809225D01*
Y-5612D01*
Y-5616D01*
Y-5626D01*
Y-5649D01*
Y-5672D01*
Y-5700D01*
X809230Y-5732D01*
X809235Y-5811D01*
X809239Y-5889D01*
X809248Y-5968D01*
X809262Y-6037D01*
X809272Y-6065D01*
X809281Y-6088D01*
X809285Y-6092D01*
X809295Y-6111D01*
X809318Y-6134D01*
X809350Y-6162D01*
X809392Y-6194D01*
X809443Y-6217D01*
X809507Y-6236D01*
X809586Y-6240D01*
X809627D01*
X809660Y-6236D01*
X809701D01*
X809747Y-6226D01*
X809807Y-6222D01*
X809867Y-6213D01*
X809955Y-6896D01*
X809951D01*
X809941Y-6901D01*
X809928D01*
X809909Y-6905D01*
X809863Y-6919D01*
X809798Y-6929D01*
X809724Y-6943D01*
X809646Y-6956D01*
X809563Y-6961D01*
X809479Y-6966D01*
X809424D01*
X809396Y-6961D01*
X809364Y-6956D01*
X809290Y-6947D01*
X809202Y-6933D01*
X809114Y-6910D01*
X809027Y-6878D01*
X808943Y-6836D01*
X808934Y-6832D01*
X808911Y-6813D01*
X808874Y-6785D01*
X808833Y-6744D01*
X808786Y-6693D01*
X808740Y-6633D01*
X808699Y-6559D01*
X808666Y-6481D01*
Y-6476D01*
X808662Y-6471D01*
Y-6453D01*
X808657Y-6434D01*
X808648Y-6407D01*
X808643Y-6370D01*
X808639Y-6328D01*
X808629Y-6282D01*
X808625Y-6222D01*
X808615Y-6157D01*
X808611Y-6083D01*
X808606Y-6000D01*
X808602Y-5908D01*
X808597Y-5806D01*
X808592Y-5690D01*
Y-5570D01*
Y-2937D01*
X808126D01*
Y-2336D01*
X808592D01*
Y-1204D01*
X809225Y-738D01*
Y-2336D01*
D02*
G37*
G36*
X837786Y-2239D02*
X837837Y-2244D01*
X837902Y-2253D01*
X837971Y-2267D01*
X838054Y-2286D01*
X838142Y-2313D01*
X838234Y-2346D01*
X838331Y-2382D01*
X838433Y-2433D01*
X838535Y-2493D01*
X838636Y-2563D01*
X838738Y-2646D01*
X838835Y-2743D01*
X838927Y-2849D01*
X838932Y-2858D01*
X838950Y-2877D01*
X838974Y-2914D01*
X839001Y-2965D01*
X839038Y-3025D01*
X839080Y-3103D01*
X839126Y-3196D01*
X839172Y-3297D01*
X839214Y-3417D01*
X839260Y-3547D01*
X839301Y-3695D01*
X839338Y-3852D01*
X839366Y-4023D01*
X839394Y-4207D01*
X839408Y-4406D01*
X839412Y-4619D01*
Y-4822D01*
X836617D01*
Y-4831D01*
X836622Y-4854D01*
Y-4896D01*
X836627Y-4947D01*
X836636Y-5011D01*
X836645Y-5085D01*
X836659Y-5168D01*
X836677Y-5256D01*
X836719Y-5446D01*
X836747Y-5543D01*
X836779Y-5640D01*
X836821Y-5732D01*
X836862Y-5824D01*
X836913Y-5908D01*
X836968Y-5986D01*
X836973Y-5991D01*
X836982Y-6005D01*
X837001Y-6023D01*
X837024Y-6046D01*
X837056Y-6074D01*
X837093Y-6111D01*
X837135Y-6143D01*
X837186Y-6180D01*
X837241Y-6217D01*
X837296Y-6250D01*
X837361Y-6282D01*
X837430Y-6314D01*
X837504Y-6337D01*
X837578Y-6356D01*
X837661Y-6370D01*
X837745Y-6374D01*
X837777D01*
X837814Y-6370D01*
X837860Y-6360D01*
X837920Y-6346D01*
X837985Y-6323D01*
X838059Y-6296D01*
X838137Y-6259D01*
X838216Y-6208D01*
X838299Y-6143D01*
X838382Y-6069D01*
X838465Y-5977D01*
X838544Y-5871D01*
X838581Y-5811D01*
X838613Y-5746D01*
X838650Y-5677D01*
X838682Y-5603D01*
X838710Y-5520D01*
X838738Y-5436D01*
X839394Y-5533D01*
Y-5543D01*
X839385Y-5566D01*
X839375Y-5603D01*
X839362Y-5654D01*
X839343Y-5714D01*
X839320Y-5787D01*
X839292Y-5861D01*
X839255Y-5949D01*
X839218Y-6037D01*
X839177Y-6125D01*
X839126Y-6217D01*
X839071Y-6310D01*
X839011Y-6402D01*
X838946Y-6485D01*
X838877Y-6568D01*
X838798Y-6642D01*
X838793Y-6647D01*
X838780Y-6656D01*
X838756Y-6674D01*
X838724Y-6698D01*
X838682Y-6730D01*
X838632Y-6758D01*
X838572Y-6795D01*
X838507Y-6827D01*
X838433Y-6859D01*
X838354Y-6896D01*
X838267Y-6924D01*
X838174Y-6952D01*
X838073Y-6979D01*
X837966Y-6998D01*
X837856Y-7007D01*
X837740Y-7012D01*
X837703D01*
X837661Y-7007D01*
X837606Y-7002D01*
X837541Y-6993D01*
X837463Y-6979D01*
X837375Y-6961D01*
X837283Y-6938D01*
X837181Y-6905D01*
X837075Y-6864D01*
X836968Y-6818D01*
X836862Y-6758D01*
X836756Y-6688D01*
X836650Y-6610D01*
X836548Y-6517D01*
X836451Y-6411D01*
X836446Y-6402D01*
X836428Y-6383D01*
X836405Y-6346D01*
X836372Y-6300D01*
X836335Y-6236D01*
X836294Y-6157D01*
X836252Y-6069D01*
X836206Y-5968D01*
X836160Y-5847D01*
X836118Y-5718D01*
X836077Y-5575D01*
X836040Y-5418D01*
X836007Y-5252D01*
X835984Y-5067D01*
X835966Y-4873D01*
X835961Y-4665D01*
Y-4660D01*
Y-4651D01*
Y-4637D01*
Y-4614D01*
Y-4586D01*
X835966Y-4549D01*
Y-4512D01*
X835970Y-4471D01*
X835975Y-4369D01*
X835989Y-4258D01*
X836003Y-4134D01*
X836021Y-3995D01*
X836049Y-3852D01*
X836081Y-3704D01*
X836123Y-3551D01*
X836169Y-3404D01*
X836225Y-3256D01*
X836294Y-3117D01*
X836368Y-2983D01*
X836456Y-2858D01*
X836460Y-2849D01*
X836479Y-2831D01*
X836506Y-2803D01*
X836543Y-2761D01*
X836594Y-2715D01*
X836654Y-2660D01*
X836724Y-2604D01*
X836802Y-2544D01*
X836885Y-2489D01*
X836982Y-2433D01*
X837089Y-2378D01*
X837199Y-2332D01*
X837320Y-2290D01*
X837444Y-2262D01*
X837578Y-2239D01*
X837717Y-2235D01*
X837749D01*
X837786Y-2239D01*
D02*
G37*
G36*
X814062Y-2239D02*
X814113Y-2244D01*
X814178Y-2253D01*
X814252Y-2267D01*
X814335Y-2286D01*
X814427Y-2309D01*
X814524Y-2341D01*
X814622Y-2382D01*
X814728Y-2433D01*
X814834Y-2489D01*
X814940Y-2558D01*
X815042Y-2641D01*
X815144Y-2734D01*
X815241Y-2840D01*
X815245Y-2844D01*
X815264Y-2868D01*
X815287Y-2905D01*
X815319Y-2951D01*
X815356Y-3015D01*
X815402Y-3089D01*
X815444Y-3177D01*
X815495Y-3283D01*
X815541Y-3399D01*
X815587Y-3528D01*
X815629Y-3672D01*
X815666Y-3824D01*
X815698Y-3995D01*
X815721Y-4175D01*
X815740Y-4369D01*
X815744Y-4577D01*
Y-4582D01*
Y-4591D01*
Y-4609D01*
Y-4632D01*
Y-4660D01*
X815740Y-4693D01*
Y-4734D01*
X815735Y-4780D01*
X815730Y-4882D01*
X815716Y-4997D01*
X815703Y-5127D01*
X815684Y-5270D01*
X815656Y-5418D01*
X815624Y-5566D01*
X815582Y-5718D01*
X815532Y-5871D01*
X815476Y-6019D01*
X815411Y-6162D01*
X815333Y-6291D01*
X815245Y-6411D01*
X815241Y-6416D01*
X815222Y-6439D01*
X815194Y-6467D01*
X815157Y-6504D01*
X815107Y-6550D01*
X815047Y-6601D01*
X814982Y-6656D01*
X814903Y-6712D01*
X814816Y-6767D01*
X814723Y-6822D01*
X814617Y-6873D01*
X814506Y-6919D01*
X814386Y-6956D01*
X814261Y-6984D01*
X814127Y-7007D01*
X813989Y-7012D01*
X813956D01*
X813915Y-7007D01*
X813864Y-7002D01*
X813799Y-6993D01*
X813725Y-6979D01*
X813642Y-6961D01*
X813550Y-6938D01*
X813453Y-6905D01*
X813351Y-6864D01*
X813245Y-6818D01*
X813143Y-6758D01*
X813037Y-6688D01*
X812931Y-6610D01*
X812829Y-6517D01*
X812732Y-6411D01*
X812727Y-6402D01*
X812709Y-6383D01*
X812686Y-6346D01*
X812653Y-6296D01*
X812616Y-6236D01*
X812575Y-6157D01*
X812529Y-6065D01*
X812482Y-5958D01*
X812436Y-5843D01*
X812390Y-5709D01*
X812348Y-5561D01*
X812311Y-5399D01*
X812279Y-5229D01*
X812256Y-5039D01*
X812238Y-4840D01*
X812233Y-4623D01*
Y-4619D01*
Y-4609D01*
Y-4595D01*
Y-4572D01*
Y-4545D01*
X812238Y-4508D01*
Y-4471D01*
X812242Y-4429D01*
X812247Y-4332D01*
X812261Y-4217D01*
X812274Y-4092D01*
X812293Y-3958D01*
X812321Y-3815D01*
X812353Y-3667D01*
X812395Y-3519D01*
X812441Y-3371D01*
X812496Y-3228D01*
X812566Y-3089D01*
X812640Y-2960D01*
X812727Y-2840D01*
X812732Y-2831D01*
X812750Y-2812D01*
X812778Y-2785D01*
X812815Y-2743D01*
X812866Y-2701D01*
X812926Y-2651D01*
X812995Y-2595D01*
X813074Y-2535D01*
X813157Y-2480D01*
X813254Y-2424D01*
X813360Y-2373D01*
X813471Y-2327D01*
X813591Y-2290D01*
X813716Y-2262D01*
X813850Y-2239D01*
X813989Y-2235D01*
X814021D01*
X814062Y-2239D01*
D02*
G37*
G36*
X806024D02*
X806075Y-2244D01*
X806139Y-2253D01*
X806213Y-2267D01*
X806296Y-2286D01*
X806389Y-2309D01*
X806486Y-2341D01*
X806583Y-2382D01*
X806689Y-2433D01*
X806795Y-2489D01*
X806901Y-2558D01*
X807003Y-2641D01*
X807105Y-2734D01*
X807202Y-2840D01*
X807206Y-2844D01*
X807225Y-2868D01*
X807248Y-2905D01*
X807280Y-2951D01*
X807317Y-3015D01*
X807364Y-3089D01*
X807405Y-3177D01*
X807456Y-3283D01*
X807502Y-3399D01*
X807548Y-3528D01*
X807590Y-3672D01*
X807627Y-3824D01*
X807659Y-3995D01*
X807682Y-4175D01*
X807701Y-4369D01*
X807705Y-4577D01*
Y-4582D01*
Y-4591D01*
Y-4609D01*
Y-4632D01*
Y-4660D01*
X807701Y-4693D01*
Y-4734D01*
X807696Y-4780D01*
X807691Y-4882D01*
X807678Y-4997D01*
X807664Y-5127D01*
X807645Y-5270D01*
X807618Y-5418D01*
X807585Y-5566D01*
X807544Y-5718D01*
X807493Y-5871D01*
X807437Y-6019D01*
X807373Y-6162D01*
X807294Y-6291D01*
X807206Y-6411D01*
X807202Y-6416D01*
X807183Y-6439D01*
X807156Y-6467D01*
X807119Y-6504D01*
X807068Y-6550D01*
X807008Y-6601D01*
X806943Y-6656D01*
X806864Y-6712D01*
X806777Y-6767D01*
X806684Y-6822D01*
X806578Y-6873D01*
X806467Y-6919D01*
X806347Y-6956D01*
X806222Y-6984D01*
X806088Y-7007D01*
X805950Y-7012D01*
X805917D01*
X805876Y-7007D01*
X805825Y-7002D01*
X805760Y-6993D01*
X805686Y-6979D01*
X805603Y-6961D01*
X805511Y-6938D01*
X805414Y-6905D01*
X805312Y-6864D01*
X805206Y-6818D01*
X805104Y-6758D01*
X804998Y-6688D01*
X804892Y-6610D01*
X804790Y-6517D01*
X804693Y-6411D01*
X804688Y-6402D01*
X804670Y-6383D01*
X804647Y-6346D01*
X804615Y-6296D01*
X804578Y-6236D01*
X804536Y-6157D01*
X804490Y-6065D01*
X804444Y-5958D01*
X804397Y-5843D01*
X804351Y-5709D01*
X804310Y-5561D01*
X804273Y-5399D01*
X804240Y-5229D01*
X804217Y-5039D01*
X804199Y-4840D01*
X804194Y-4623D01*
Y-4619D01*
Y-4609D01*
Y-4595D01*
Y-4572D01*
Y-4545D01*
X804199Y-4508D01*
Y-4471D01*
X804203Y-4429D01*
X804208Y-4332D01*
X804222Y-4217D01*
X804236Y-4092D01*
X804254Y-3958D01*
X804282Y-3815D01*
X804314Y-3667D01*
X804356Y-3519D01*
X804402Y-3371D01*
X804457Y-3228D01*
X804527Y-3089D01*
X804601Y-2960D01*
X804688Y-2840D01*
X804693Y-2831D01*
X804712Y-2812D01*
X804739Y-2785D01*
X804776Y-2743D01*
X804827Y-2701D01*
X804887Y-2651D01*
X804957Y-2595D01*
X805035Y-2535D01*
X805118Y-2480D01*
X805215Y-2424D01*
X805321Y-2373D01*
X805432Y-2327D01*
X805552Y-2290D01*
X805677Y-2262D01*
X805811Y-2239D01*
X805950Y-2235D01*
X805982D01*
X806024Y-2239D01*
D02*
G37*
G36*
X814312Y-11486D02*
X813679D01*
Y-10595D01*
X814312D01*
Y-11486D01*
D02*
G37*
G36*
X865312Y-10488D02*
X865358D01*
X865418Y-10493D01*
X865483Y-10502D01*
X865552Y-10511D01*
X865626Y-10521D01*
X865709Y-10535D01*
X865876Y-10571D01*
X866042Y-10627D01*
X866125Y-10659D01*
X866208Y-10696D01*
X866213Y-10701D01*
X866227Y-10706D01*
X866250Y-10719D01*
X866278Y-10733D01*
X866315Y-10756D01*
X866356Y-10784D01*
X866403Y-10816D01*
X866458Y-10849D01*
X866569Y-10937D01*
X866684Y-11038D01*
X866800Y-11158D01*
X866911Y-11297D01*
X866915Y-11301D01*
X866924Y-11315D01*
X866938Y-11338D01*
X866957Y-11366D01*
X866980Y-11408D01*
X867008Y-11454D01*
X867035Y-11509D01*
X867068Y-11574D01*
X867100Y-11643D01*
X867132Y-11722D01*
X867169Y-11810D01*
X867202Y-11907D01*
X867239Y-12008D01*
X867271Y-12115D01*
X867299Y-12230D01*
X867327Y-12355D01*
X866712Y-12563D01*
Y-12558D01*
X866707Y-12540D01*
X866698Y-12512D01*
X866689Y-12475D01*
X866680Y-12433D01*
X866661Y-12382D01*
X866647Y-12323D01*
X866624Y-12262D01*
X866583Y-12133D01*
X866527Y-12004D01*
X866467Y-11879D01*
X866435Y-11819D01*
X866398Y-11768D01*
Y-11763D01*
X866389Y-11754D01*
X866379Y-11740D01*
X866366Y-11727D01*
X866319Y-11676D01*
X866264Y-11616D01*
X866190Y-11551D01*
X866107Y-11482D01*
X866005Y-11412D01*
X865894Y-11352D01*
X865890D01*
X865880Y-11348D01*
X865862Y-11338D01*
X865839Y-11329D01*
X865811Y-11315D01*
X865774Y-11306D01*
X865737Y-11292D01*
X865691Y-11274D01*
X865589Y-11246D01*
X865469Y-11223D01*
X865340Y-11204D01*
X865201Y-11200D01*
X865146D01*
X865109Y-11204D01*
X865058Y-11209D01*
X865003Y-11214D01*
X864938Y-11223D01*
X864869Y-11232D01*
X864795Y-11251D01*
X864716Y-11269D01*
X864638Y-11288D01*
X864555Y-11315D01*
X864471Y-11348D01*
X864388Y-11385D01*
X864310Y-11426D01*
X864231Y-11477D01*
X864226Y-11482D01*
X864213Y-11491D01*
X864194Y-11505D01*
X864162Y-11528D01*
X864129Y-11556D01*
X864088Y-11592D01*
X864046Y-11634D01*
X863995Y-11685D01*
X863945Y-11740D01*
X863894Y-11805D01*
X863838Y-11874D01*
X863783Y-11948D01*
X863727Y-12036D01*
X863677Y-12124D01*
X863626Y-12221D01*
X863575Y-12327D01*
X863570Y-12332D01*
X863566Y-12355D01*
X863552Y-12387D01*
X863538Y-12429D01*
X863520Y-12484D01*
X863496Y-12553D01*
X863473Y-12632D01*
X863455Y-12720D01*
X863432Y-12817D01*
X863409Y-12923D01*
X863386Y-13039D01*
X863367Y-13163D01*
X863353Y-13293D01*
X863339Y-13436D01*
X863335Y-13579D01*
X863330Y-13732D01*
Y-13736D01*
Y-13745D01*
Y-13764D01*
Y-13787D01*
Y-13815D01*
X863335Y-13852D01*
Y-13893D01*
X863339Y-13939D01*
X863344Y-13990D01*
X863349Y-14046D01*
X863358Y-14166D01*
X863376Y-14300D01*
X863395Y-14443D01*
X863423Y-14595D01*
X863459Y-14753D01*
X863501Y-14910D01*
X863552Y-15067D01*
X863612Y-15219D01*
X863681Y-15367D01*
X863764Y-15506D01*
X863857Y-15630D01*
X863861Y-15635D01*
X863880Y-15658D01*
X863912Y-15690D01*
X863954Y-15727D01*
X864005Y-15778D01*
X864069Y-15829D01*
X864143Y-15885D01*
X864226Y-15945D01*
X864324Y-16005D01*
X864425Y-16060D01*
X864541Y-16111D01*
X864661Y-16162D01*
X864795Y-16199D01*
X864933Y-16231D01*
X865081Y-16250D01*
X865234Y-16259D01*
X865275D01*
X865303Y-16254D01*
X865340D01*
X865386Y-16250D01*
X865432Y-16245D01*
X865488Y-16236D01*
X865548Y-16226D01*
X865612Y-16213D01*
X865756Y-16180D01*
X865903Y-16134D01*
X866061Y-16069D01*
X866065Y-16065D01*
X866079Y-16060D01*
X866102Y-16051D01*
X866130Y-16032D01*
X866167Y-16014D01*
X866208Y-15995D01*
X866255Y-15968D01*
X866305Y-15940D01*
X866412Y-15871D01*
X866527Y-15792D01*
X866638Y-15704D01*
X866740Y-15607D01*
Y-14429D01*
X865220D01*
Y-13685D01*
X867410Y-13681D01*
Y-16028D01*
X867405Y-16032D01*
X867387Y-16051D01*
X867359Y-16074D01*
X867322Y-16106D01*
X867276Y-16148D01*
X867220Y-16194D01*
X867160Y-16250D01*
X867091Y-16305D01*
X867017Y-16360D01*
X866934Y-16425D01*
X866846Y-16485D01*
X866758Y-16545D01*
X866564Y-16665D01*
X866467Y-16716D01*
X866366Y-16767D01*
X866361Y-16771D01*
X866342Y-16776D01*
X866315Y-16790D01*
X866273Y-16804D01*
X866222Y-16822D01*
X866167Y-16845D01*
X866102Y-16869D01*
X866028Y-16887D01*
X865945Y-16910D01*
X865862Y-16933D01*
X865769Y-16956D01*
X865672Y-16975D01*
X865474Y-17003D01*
X865368Y-17007D01*
X865261Y-17012D01*
X865229D01*
X865187Y-17007D01*
X865132D01*
X865067Y-16998D01*
X864989Y-16993D01*
X864906Y-16979D01*
X864809Y-16966D01*
X864707Y-16942D01*
X864596Y-16919D01*
X864485Y-16887D01*
X864370Y-16850D01*
X864254Y-16808D01*
X864139Y-16758D01*
X864023Y-16698D01*
X863908Y-16633D01*
X863903Y-16628D01*
X863880Y-16614D01*
X863852Y-16591D01*
X863811Y-16564D01*
X863760Y-16522D01*
X863704Y-16476D01*
X863640Y-16416D01*
X863570Y-16351D01*
X863496Y-16277D01*
X863418Y-16199D01*
X863339Y-16106D01*
X863261Y-16009D01*
X863187Y-15898D01*
X863108Y-15783D01*
X863039Y-15663D01*
X862970Y-15529D01*
X862965Y-15519D01*
X862956Y-15496D01*
X862938Y-15455D01*
X862914Y-15399D01*
X862891Y-15330D01*
X862859Y-15242D01*
X862831Y-15145D01*
X862799Y-15034D01*
X862766Y-14914D01*
X862734Y-14780D01*
X862702Y-14637D01*
X862679Y-14485D01*
X862656Y-14323D01*
X862637Y-14147D01*
X862628Y-13967D01*
X862623Y-13782D01*
Y-13778D01*
Y-13769D01*
Y-13755D01*
Y-13736D01*
Y-13713D01*
X862628Y-13681D01*
Y-13648D01*
Y-13607D01*
X862632Y-13519D01*
X862642Y-13413D01*
X862651Y-13297D01*
X862665Y-13168D01*
X862683Y-13034D01*
X862706Y-12886D01*
X862734Y-12738D01*
X862771Y-12586D01*
X862808Y-12433D01*
X862854Y-12276D01*
X862910Y-12128D01*
X862970Y-11981D01*
X862974Y-11971D01*
X862984Y-11948D01*
X863007Y-11907D01*
X863035Y-11856D01*
X863067Y-11791D01*
X863108Y-11717D01*
X863159Y-11639D01*
X863215Y-11551D01*
X863275Y-11458D01*
X863344Y-11366D01*
X863418Y-11274D01*
X863501Y-11181D01*
X863589Y-11089D01*
X863681Y-11001D01*
X863778Y-10923D01*
X863880Y-10849D01*
X863885Y-10844D01*
X863908Y-10835D01*
X863935Y-10816D01*
X863982Y-10793D01*
X864032Y-10766D01*
X864097Y-10733D01*
X864176Y-10701D01*
X864259Y-10664D01*
X864351Y-10632D01*
X864453Y-10599D01*
X864564Y-10567D01*
X864679Y-10539D01*
X864804Y-10516D01*
X864938Y-10498D01*
X865072Y-10488D01*
X865215Y-10484D01*
X865271D01*
X865312Y-10488D01*
D02*
G37*
G36*
X846463Y-12239D02*
X846490Y-12244D01*
X846527Y-12248D01*
X846564Y-12253D01*
X846610Y-12267D01*
X846707Y-12295D01*
X846818Y-12341D01*
X846874Y-12369D01*
X846934Y-12401D01*
X846999Y-12438D01*
X847058Y-12484D01*
X846841Y-13205D01*
X846837D01*
X846832Y-13196D01*
X846818Y-13191D01*
X846800Y-13177D01*
X846754Y-13149D01*
X846694Y-13117D01*
X846624Y-13089D01*
X846546Y-13062D01*
X846463Y-13043D01*
X846379Y-13034D01*
X846347D01*
X846305Y-13043D01*
X846255Y-13052D01*
X846199Y-13071D01*
X846134Y-13094D01*
X846070Y-13131D01*
X846005Y-13177D01*
X845996Y-13182D01*
X845977Y-13205D01*
X845950Y-13237D01*
X845913Y-13279D01*
X845876Y-13339D01*
X845839Y-13404D01*
X845802Y-13482D01*
X845774Y-13575D01*
Y-13579D01*
X845770Y-13593D01*
X845765Y-13621D01*
X845756Y-13653D01*
X845746Y-13695D01*
X845737Y-13741D01*
X845723Y-13796D01*
X845714Y-13856D01*
X845705Y-13926D01*
X845691Y-13999D01*
X845682Y-14078D01*
X845673Y-14161D01*
X845659Y-14332D01*
X845654Y-14517D01*
Y-16905D01*
X845021D01*
Y-12336D01*
X845594D01*
Y-13034D01*
X845599Y-13029D01*
X845603Y-13011D01*
X845617Y-12988D01*
X845631Y-12955D01*
X845649Y-12918D01*
X845673Y-12872D01*
X845723Y-12771D01*
X845788Y-12664D01*
X845853Y-12558D01*
X845890Y-12507D01*
X845922Y-12466D01*
X845959Y-12424D01*
X845991Y-12392D01*
X846000Y-12387D01*
X846024Y-12369D01*
X846061Y-12341D01*
X846111Y-12313D01*
X846176Y-12286D01*
X846245Y-12258D01*
X846324Y-12239D01*
X846407Y-12235D01*
X846439D01*
X846463Y-12239D01*
D02*
G37*
G36*
X828782D02*
X828810Y-12244D01*
X828846Y-12248D01*
X828883Y-12253D01*
X828930Y-12267D01*
X829027Y-12295D01*
X829138Y-12341D01*
X829193Y-12369D01*
X829253Y-12401D01*
X829318Y-12438D01*
X829378Y-12484D01*
X829161Y-13205D01*
X829156D01*
X829151Y-13196D01*
X829138Y-13191D01*
X829119Y-13177D01*
X829073Y-13149D01*
X829013Y-13117D01*
X828944Y-13089D01*
X828865Y-13062D01*
X828782Y-13043D01*
X828699Y-13034D01*
X828666D01*
X828625Y-13043D01*
X828574Y-13052D01*
X828518Y-13071D01*
X828454Y-13094D01*
X828389Y-13131D01*
X828324Y-13177D01*
X828315Y-13182D01*
X828297Y-13205D01*
X828269Y-13237D01*
X828232Y-13279D01*
X828195Y-13339D01*
X828158Y-13404D01*
X828121Y-13482D01*
X828093Y-13575D01*
Y-13579D01*
X828089Y-13593D01*
X828084Y-13621D01*
X828075Y-13653D01*
X828066Y-13695D01*
X828057Y-13741D01*
X828043Y-13796D01*
X828033Y-13856D01*
X828024Y-13926D01*
X828010Y-13999D01*
X828001Y-14078D01*
X827992Y-14161D01*
X827978Y-14332D01*
X827973Y-14517D01*
Y-16905D01*
X827340D01*
Y-12336D01*
X827913D01*
Y-13034D01*
X827918Y-13029D01*
X827923Y-13011D01*
X827936Y-12988D01*
X827950Y-12955D01*
X827969Y-12919D01*
X827992Y-12872D01*
X828043Y-12771D01*
X828107Y-12664D01*
X828172Y-12558D01*
X828209Y-12507D01*
X828241Y-12466D01*
X828278Y-12424D01*
X828311Y-12392D01*
X828320Y-12387D01*
X828343Y-12369D01*
X828380Y-12341D01*
X828431Y-12313D01*
X828495Y-12286D01*
X828565Y-12258D01*
X828643Y-12239D01*
X828726Y-12235D01*
X828759D01*
X828782Y-12239D01*
D02*
G37*
G36*
X853577Y-16905D02*
X852894D01*
Y-13930D01*
X850205D01*
Y-16905D01*
X849521D01*
Y-10595D01*
X850205D01*
Y-13186D01*
X852894D01*
Y-10595D01*
X853577D01*
Y-16905D01*
D02*
G37*
G36*
X835384Y-12239D02*
X835435Y-12244D01*
X835490Y-12253D01*
X835555Y-12267D01*
X835629Y-12281D01*
X835703Y-12299D01*
X835781Y-12323D01*
X835864Y-12355D01*
X835947Y-12387D01*
X836031Y-12429D01*
X836109Y-12479D01*
X836188Y-12535D01*
X836266Y-12600D01*
X836271Y-12604D01*
X836285Y-12618D01*
X836303Y-12637D01*
X836331Y-12669D01*
X836363Y-12706D01*
X836400Y-12752D01*
X836437Y-12808D01*
X836479Y-12868D01*
X836525Y-12942D01*
X836567Y-13020D01*
X836608Y-13113D01*
X836650Y-13209D01*
X836691Y-13311D01*
X836724Y-13427D01*
X836756Y-13551D01*
X836779Y-13681D01*
X836165Y-13792D01*
Y-13787D01*
X836160Y-13773D01*
X836155Y-13750D01*
X836146Y-13718D01*
X836137Y-13676D01*
X836123Y-13634D01*
X836109Y-13588D01*
X836091Y-13533D01*
X836044Y-13422D01*
X835989Y-13307D01*
X835924Y-13200D01*
X835887Y-13149D01*
X835846Y-13103D01*
X835841Y-13099D01*
X835837Y-13094D01*
X835823Y-13080D01*
X835804Y-13066D01*
X835758Y-13029D01*
X835698Y-12988D01*
X835619Y-12946D01*
X835527Y-12909D01*
X835425Y-12881D01*
X835370Y-12877D01*
X835310Y-12872D01*
X835291D01*
X835264Y-12877D01*
X835231D01*
X835194Y-12886D01*
X835148Y-12895D01*
X835093Y-12909D01*
X835037Y-12923D01*
X834977Y-12946D01*
X834917Y-12974D01*
X834853Y-13006D01*
X834788Y-13048D01*
X834719Y-13094D01*
X834654Y-13149D01*
X834594Y-13214D01*
X834534Y-13288D01*
X834529Y-13293D01*
X834520Y-13307D01*
X834506Y-13334D01*
X834488Y-13367D01*
X834464Y-13413D01*
X834437Y-13468D01*
X834409Y-13533D01*
X834381Y-13607D01*
X834354Y-13695D01*
X834326Y-13792D01*
X834298Y-13903D01*
X834275Y-14023D01*
X834256Y-14152D01*
X834243Y-14291D01*
X834233Y-14443D01*
X834229Y-14609D01*
Y-14614D01*
Y-14619D01*
Y-14633D01*
Y-14651D01*
Y-14697D01*
X834233Y-14762D01*
X834238Y-14840D01*
X834243Y-14928D01*
X834252Y-15025D01*
X834266Y-15127D01*
X834280Y-15238D01*
X834298Y-15349D01*
X834326Y-15459D01*
X834354Y-15570D01*
X834386Y-15681D01*
X834423Y-15783D01*
X834469Y-15875D01*
X834520Y-15958D01*
X834525Y-15963D01*
X834534Y-15977D01*
X834552Y-15995D01*
X834575Y-16023D01*
X834603Y-16055D01*
X834640Y-16088D01*
X834677Y-16129D01*
X834728Y-16166D01*
X834779Y-16203D01*
X834834Y-16240D01*
X834899Y-16277D01*
X834963Y-16309D01*
X835037Y-16337D01*
X835111Y-16356D01*
X835194Y-16370D01*
X835277Y-16374D01*
X835314D01*
X835338Y-16370D01*
X835370Y-16365D01*
X835407Y-16360D01*
X835490Y-16342D01*
X835587Y-16309D01*
X835638Y-16286D01*
X835689Y-16259D01*
X835740Y-16226D01*
X835795Y-16189D01*
X835841Y-16148D01*
X835892Y-16102D01*
X835897Y-16097D01*
X835901Y-16088D01*
X835915Y-16074D01*
X835934Y-16051D01*
X835952Y-16018D01*
X835980Y-15981D01*
X836003Y-15940D01*
X836031Y-15889D01*
X836058Y-15834D01*
X836086Y-15769D01*
X836114Y-15700D01*
X836141Y-15621D01*
X836165Y-15533D01*
X836188Y-15441D01*
X836206Y-15344D01*
X836220Y-15238D01*
X836844Y-15335D01*
Y-15344D01*
X836839Y-15372D01*
X836830Y-15413D01*
X836821Y-15469D01*
X836807Y-15538D01*
X836784Y-15617D01*
X836761Y-15704D01*
X836733Y-15797D01*
X836701Y-15898D01*
X836664Y-16000D01*
X836617Y-16102D01*
X836567Y-16208D01*
X836511Y-16309D01*
X836446Y-16407D01*
X836377Y-16499D01*
X836298Y-16582D01*
X836294Y-16587D01*
X836280Y-16601D01*
X836257Y-16624D01*
X836220Y-16647D01*
X836178Y-16684D01*
X836132Y-16716D01*
X836072Y-16758D01*
X836007Y-16795D01*
X835938Y-16836D01*
X835855Y-16878D01*
X835772Y-16910D01*
X835680Y-16942D01*
X835582Y-16970D01*
X835481Y-16993D01*
X835375Y-17007D01*
X835264Y-17012D01*
X835231D01*
X835194Y-17007D01*
X835139Y-17003D01*
X835079Y-16993D01*
X835005Y-16979D01*
X834922Y-16961D01*
X834834Y-16938D01*
X834742Y-16905D01*
X834645Y-16864D01*
X834543Y-16818D01*
X834441Y-16758D01*
X834340Y-16688D01*
X834238Y-16610D01*
X834141Y-16517D01*
X834049Y-16411D01*
X834044Y-16402D01*
X834030Y-16383D01*
X834007Y-16346D01*
X833975Y-16296D01*
X833938Y-16236D01*
X833901Y-16157D01*
X833859Y-16065D01*
X833813Y-15958D01*
X833771Y-15843D01*
X833725Y-15709D01*
X833688Y-15561D01*
X833651Y-15399D01*
X833619Y-15228D01*
X833596Y-15039D01*
X833582Y-14840D01*
X833577Y-14623D01*
Y-14619D01*
Y-14609D01*
Y-14591D01*
Y-14572D01*
Y-14545D01*
X833582Y-14508D01*
Y-14471D01*
X833587Y-14429D01*
X833591Y-14327D01*
X833601Y-14217D01*
X833619Y-14087D01*
X833637Y-13953D01*
X833661Y-13810D01*
X833693Y-13662D01*
X833734Y-13514D01*
X833776Y-13367D01*
X833832Y-13223D01*
X833896Y-13085D01*
X833970Y-12955D01*
X834053Y-12835D01*
X834058Y-12831D01*
X834076Y-12808D01*
X834104Y-12780D01*
X834141Y-12743D01*
X834187Y-12697D01*
X834247Y-12646D01*
X834312Y-12590D01*
X834386Y-12535D01*
X834474Y-12479D01*
X834566Y-12424D01*
X834668Y-12373D01*
X834779Y-12327D01*
X834894Y-12290D01*
X835019Y-12262D01*
X835148Y-12239D01*
X835287Y-12235D01*
X835342D01*
X835384Y-12239D01*
D02*
G37*
G36*
X804624Y-16905D02*
X803963D01*
Y-11625D01*
X802457Y-16905D01*
X801838D01*
X800346Y-11537D01*
Y-16905D01*
X799685D01*
Y-10595D01*
X800715D01*
X801940Y-15067D01*
X802184Y-16000D01*
Y-15995D01*
X802189Y-15981D01*
X802194Y-15963D01*
X802203Y-15935D01*
X802212Y-15898D01*
X802221Y-15852D01*
X802240Y-15801D01*
X802254Y-15741D01*
X802272Y-15672D01*
X802291Y-15598D01*
X802314Y-15515D01*
X802341Y-15427D01*
X802369Y-15326D01*
X802397Y-15219D01*
X802429Y-15108D01*
X802462Y-14988D01*
X803700Y-10595D01*
X804624D01*
Y-16905D01*
D02*
G37*
G36*
X873868Y-16162D02*
X876419D01*
Y-16905D01*
X873185D01*
Y-10595D01*
X873868D01*
Y-16162D01*
D02*
G37*
G36*
X870417Y-10599D02*
X870468D01*
X870523Y-10604D01*
X870588Y-10608D01*
X870658Y-10618D01*
X870810Y-10641D01*
X870962Y-10673D01*
X871115Y-10719D01*
X871189Y-10747D01*
X871253Y-10779D01*
X871258D01*
X871267Y-10789D01*
X871286Y-10798D01*
X871309Y-10816D01*
X871341Y-10835D01*
X871374Y-10858D01*
X871452Y-10918D01*
X871544Y-11001D01*
X871591Y-11047D01*
X871637Y-11098D01*
X871683Y-11154D01*
X871729Y-11218D01*
X871776Y-11283D01*
X871817Y-11352D01*
X871822Y-11357D01*
X871826Y-11371D01*
X871836Y-11389D01*
X871854Y-11422D01*
X871868Y-11458D01*
X871886Y-11500D01*
X871910Y-11551D01*
X871928Y-11606D01*
X871951Y-11666D01*
X871970Y-11731D01*
X872007Y-11874D01*
X872030Y-12036D01*
X872034Y-12119D01*
X872039Y-12207D01*
Y-12212D01*
Y-12225D01*
Y-12248D01*
X872034Y-12281D01*
Y-12318D01*
X872030Y-12364D01*
X872025Y-12415D01*
X872016Y-12466D01*
X871993Y-12590D01*
X871960Y-12720D01*
X871914Y-12858D01*
X871849Y-12992D01*
Y-12997D01*
X871840Y-13006D01*
X871831Y-13025D01*
X871813Y-13048D01*
X871794Y-13080D01*
X871771Y-13113D01*
X871711Y-13191D01*
X871637Y-13279D01*
X871544Y-13376D01*
X871438Y-13468D01*
X871313Y-13551D01*
X871318D01*
X871332Y-13561D01*
X871355Y-13570D01*
X871387Y-13584D01*
X871424Y-13602D01*
X871471Y-13625D01*
X871521Y-13648D01*
X871572Y-13681D01*
X871628Y-13718D01*
X871688Y-13759D01*
X871743Y-13805D01*
X871803Y-13856D01*
X871863Y-13912D01*
X871919Y-13972D01*
X871974Y-14037D01*
X872025Y-14110D01*
X872030Y-14115D01*
X872034Y-14129D01*
X872048Y-14152D01*
X872067Y-14180D01*
X872085Y-14217D01*
X872108Y-14263D01*
X872131Y-14318D01*
X872159Y-14378D01*
X872182Y-14448D01*
X872205Y-14522D01*
X872228Y-14600D01*
X872247Y-14683D01*
X872265Y-14776D01*
X872279Y-14873D01*
X872284Y-14974D01*
X872288Y-15081D01*
Y-15085D01*
Y-15104D01*
Y-15136D01*
X872284Y-15178D01*
X872279Y-15228D01*
X872274Y-15284D01*
X872270Y-15349D01*
X872261Y-15423D01*
X872247Y-15496D01*
X872233Y-15580D01*
X872191Y-15746D01*
X872164Y-15834D01*
X872131Y-15921D01*
X872094Y-16005D01*
X872053Y-16088D01*
X872048Y-16092D01*
X872044Y-16106D01*
X872030Y-16129D01*
X872011Y-16157D01*
X871988Y-16194D01*
X871956Y-16236D01*
X871923Y-16277D01*
X871886Y-16328D01*
X871794Y-16430D01*
X871688Y-16531D01*
X871563Y-16628D01*
X871498Y-16675D01*
X871424Y-16712D01*
X871420D01*
X871406Y-16721D01*
X871383Y-16730D01*
X871355Y-16744D01*
X871313Y-16758D01*
X871267Y-16771D01*
X871207Y-16790D01*
X871147Y-16808D01*
X871073Y-16827D01*
X870990Y-16845D01*
X870902Y-16859D01*
X870810Y-16873D01*
X870704Y-16887D01*
X870593Y-16896D01*
X870477Y-16901D01*
X870353Y-16905D01*
X868384D01*
Y-10595D01*
X870376D01*
X870417Y-10599D01*
D02*
G37*
G36*
X861602Y-16905D02*
X860877D01*
Y-16023D01*
X861602D01*
Y-16905D01*
D02*
G37*
G36*
X856340Y-12239D02*
X856391D01*
X856446Y-12244D01*
X856511Y-12253D01*
X856580Y-12262D01*
X856728Y-12290D01*
X856881Y-12327D01*
X857033Y-12382D01*
X857102Y-12420D01*
X857167Y-12456D01*
X857172Y-12461D01*
X857181Y-12466D01*
X857199Y-12479D01*
X857222Y-12498D01*
X857278Y-12544D01*
X857347Y-12609D01*
X857421Y-12687D01*
X857491Y-12780D01*
X857551Y-12886D01*
X857574Y-12946D01*
X857592Y-13006D01*
Y-13011D01*
X857597Y-13020D01*
X857601Y-13039D01*
X857606Y-13066D01*
X857615Y-13103D01*
X857620Y-13145D01*
X857629Y-13191D01*
X857638Y-13247D01*
X857648Y-13311D01*
X857657Y-13385D01*
X857661Y-13464D01*
X857671Y-13547D01*
X857675Y-13639D01*
X857680Y-13741D01*
X857685Y-13847D01*
Y-13963D01*
Y-14993D01*
Y-14997D01*
Y-15007D01*
Y-15021D01*
Y-15039D01*
Y-15067D01*
Y-15094D01*
Y-15168D01*
Y-15251D01*
Y-15353D01*
X857689Y-15459D01*
Y-15570D01*
X857694Y-15806D01*
X857698Y-15917D01*
Y-16028D01*
X857703Y-16129D01*
X857708Y-16222D01*
X857717Y-16300D01*
Y-16333D01*
X857722Y-16360D01*
Y-16365D01*
Y-16374D01*
X857726Y-16388D01*
X857731Y-16407D01*
X857735Y-16434D01*
X857740Y-16462D01*
X857758Y-16536D01*
X857782Y-16619D01*
X857809Y-16707D01*
X857846Y-16808D01*
X857888Y-16905D01*
X857227D01*
Y-16901D01*
X857222Y-16896D01*
X857218Y-16882D01*
X857209Y-16864D01*
X857204Y-16841D01*
X857190Y-16813D01*
X857172Y-16748D01*
X857149Y-16665D01*
X857125Y-16573D01*
X857107Y-16467D01*
X857093Y-16346D01*
X857088Y-16351D01*
X857079Y-16360D01*
X857061Y-16379D01*
X857038Y-16402D01*
X857010Y-16430D01*
X856973Y-16462D01*
X856936Y-16494D01*
X856890Y-16531D01*
X856793Y-16614D01*
X856677Y-16698D01*
X856557Y-16776D01*
X856428Y-16845D01*
X856423D01*
X856414Y-16855D01*
X856396Y-16859D01*
X856368Y-16873D01*
X856336Y-16882D01*
X856299Y-16896D01*
X856257Y-16915D01*
X856211Y-16929D01*
X856100Y-16961D01*
X855980Y-16984D01*
X855850Y-17003D01*
X855712Y-17012D01*
X855684D01*
X855656Y-17007D01*
X855615D01*
X855564Y-17003D01*
X855509Y-16993D01*
X855444Y-16984D01*
X855375Y-16966D01*
X855301Y-16947D01*
X855227Y-16924D01*
X855148Y-16896D01*
X855070Y-16864D01*
X854996Y-16822D01*
X854917Y-16776D01*
X854848Y-16721D01*
X854778Y-16661D01*
X854774Y-16656D01*
X854765Y-16642D01*
X854746Y-16624D01*
X854723Y-16596D01*
X854700Y-16559D01*
X854668Y-16517D01*
X854640Y-16467D01*
X854608Y-16411D01*
X854575Y-16346D01*
X854543Y-16273D01*
X854511Y-16194D01*
X854488Y-16111D01*
X854464Y-16018D01*
X854446Y-15921D01*
X854437Y-15820D01*
X854432Y-15709D01*
Y-15704D01*
Y-15690D01*
Y-15672D01*
X854437Y-15640D01*
Y-15607D01*
X854441Y-15566D01*
X854446Y-15519D01*
X854451Y-15473D01*
X854474Y-15362D01*
X854501Y-15247D01*
X854538Y-15122D01*
X854594Y-15007D01*
Y-15002D01*
X854603Y-14993D01*
X854612Y-14979D01*
X854622Y-14956D01*
X854658Y-14900D01*
X854709Y-14831D01*
X854774Y-14757D01*
X854848Y-14679D01*
X854936Y-14600D01*
X855037Y-14531D01*
X855042D01*
X855051Y-14522D01*
X855070Y-14512D01*
X855093Y-14503D01*
X855120Y-14489D01*
X855157Y-14471D01*
X855204Y-14452D01*
X855254Y-14434D01*
X855310Y-14411D01*
X855375Y-14392D01*
X855444Y-14369D01*
X855522Y-14346D01*
X855606Y-14327D01*
X855698Y-14309D01*
X855795Y-14291D01*
X855901Y-14272D01*
X855910D01*
X855933Y-14267D01*
X855975Y-14263D01*
X856031Y-14254D01*
X856091Y-14240D01*
X856164Y-14231D01*
X856248Y-14212D01*
X856336Y-14198D01*
X856520Y-14157D01*
X856710Y-14110D01*
X856802Y-14087D01*
X856890Y-14060D01*
X856968Y-14032D01*
X857042Y-14004D01*
X857047Y-13810D01*
Y-13805D01*
Y-13792D01*
Y-13764D01*
X857042Y-13732D01*
Y-13695D01*
X857038Y-13653D01*
X857024Y-13551D01*
X857005Y-13441D01*
X856973Y-13334D01*
X856931Y-13233D01*
X856908Y-13186D01*
X856876Y-13149D01*
X856871Y-13145D01*
X856867Y-13136D01*
X856853Y-13122D01*
X856830Y-13108D01*
X856807Y-13085D01*
X856774Y-13062D01*
X856737Y-13039D01*
X856696Y-13011D01*
X856650Y-12983D01*
X856594Y-12960D01*
X856534Y-12937D01*
X856470Y-12914D01*
X856396Y-12900D01*
X856322Y-12886D01*
X856234Y-12877D01*
X856146Y-12872D01*
X856104D01*
X856072Y-12877D01*
X856035D01*
X855994Y-12881D01*
X855897Y-12895D01*
X855790Y-12918D01*
X855679Y-12951D01*
X855573Y-12997D01*
X855527Y-13025D01*
X855481Y-13057D01*
X855476D01*
X855472Y-13066D01*
X855462Y-13076D01*
X855444Y-13094D01*
X855425Y-13117D01*
X855407Y-13140D01*
X855384Y-13172D01*
X855361Y-13214D01*
X855333Y-13256D01*
X855310Y-13307D01*
X855282Y-13362D01*
X855254Y-13427D01*
X855231Y-13496D01*
X855204Y-13570D01*
X855180Y-13653D01*
X855162Y-13745D01*
X854538Y-13644D01*
Y-13634D01*
X854543Y-13611D01*
X854552Y-13575D01*
X854566Y-13524D01*
X854580Y-13464D01*
X854603Y-13394D01*
X854626Y-13316D01*
X854654Y-13233D01*
X854686Y-13149D01*
X854728Y-13057D01*
X854769Y-12969D01*
X854820Y-12881D01*
X854876Y-12794D01*
X854936Y-12715D01*
X855000Y-12641D01*
X855074Y-12572D01*
X855079Y-12567D01*
X855093Y-12558D01*
X855116Y-12540D01*
X855153Y-12521D01*
X855194Y-12493D01*
X855245Y-12466D01*
X855305Y-12433D01*
X855375Y-12401D01*
X855453Y-12373D01*
X855541Y-12341D01*
X855638Y-12313D01*
X855739Y-12286D01*
X855855Y-12267D01*
X855975Y-12248D01*
X856104Y-12239D01*
X856243Y-12235D01*
X856299D01*
X856340Y-12239D01*
D02*
G37*
G36*
X838026Y-14203D02*
X839528Y-12336D01*
X840350D01*
X838918Y-14037D01*
X840493Y-16905D01*
X839713D01*
X838470Y-14568D01*
X838026Y-15094D01*
Y-16905D01*
X837393D01*
Y-10595D01*
X838026D01*
Y-14203D01*
D02*
G37*
G36*
X831434Y-12239D02*
X831485D01*
X831540Y-12244D01*
X831605Y-12253D01*
X831674Y-12262D01*
X831822Y-12290D01*
X831974Y-12327D01*
X832127Y-12382D01*
X832196Y-12420D01*
X832261Y-12456D01*
X832265Y-12461D01*
X832275Y-12466D01*
X832293Y-12479D01*
X832316Y-12498D01*
X832372Y-12544D01*
X832441Y-12609D01*
X832515Y-12687D01*
X832584Y-12780D01*
X832644Y-12886D01*
X832667Y-12946D01*
X832686Y-13006D01*
Y-13011D01*
X832690Y-13020D01*
X832695Y-13039D01*
X832700Y-13066D01*
X832709Y-13103D01*
X832713Y-13145D01*
X832723Y-13191D01*
X832732Y-13247D01*
X832741Y-13311D01*
X832750Y-13385D01*
X832755Y-13464D01*
X832764Y-13547D01*
X832769Y-13639D01*
X832773Y-13741D01*
X832778Y-13847D01*
Y-13963D01*
Y-14993D01*
Y-14997D01*
Y-15007D01*
Y-15021D01*
Y-15039D01*
Y-15067D01*
Y-15094D01*
Y-15168D01*
Y-15251D01*
Y-15353D01*
X832783Y-15459D01*
Y-15570D01*
X832787Y-15806D01*
X832792Y-15917D01*
Y-16028D01*
X832797Y-16129D01*
X832801Y-16222D01*
X832810Y-16300D01*
Y-16333D01*
X832815Y-16360D01*
Y-16365D01*
Y-16374D01*
X832820Y-16388D01*
X832824Y-16407D01*
X832829Y-16434D01*
X832833Y-16462D01*
X832852Y-16536D01*
X832875Y-16619D01*
X832903Y-16707D01*
X832940Y-16808D01*
X832981Y-16905D01*
X832321D01*
Y-16901D01*
X832316Y-16896D01*
X832312Y-16882D01*
X832302Y-16864D01*
X832298Y-16841D01*
X832284Y-16813D01*
X832265Y-16748D01*
X832242Y-16665D01*
X832219Y-16573D01*
X832201Y-16467D01*
X832187Y-16346D01*
X832182Y-16351D01*
X832173Y-16360D01*
X832154Y-16379D01*
X832131Y-16402D01*
X832104Y-16430D01*
X832067Y-16462D01*
X832030Y-16494D01*
X831983Y-16531D01*
X831886Y-16614D01*
X831771Y-16698D01*
X831651Y-16776D01*
X831522Y-16845D01*
X831517D01*
X831508Y-16855D01*
X831489Y-16859D01*
X831461Y-16873D01*
X831429Y-16882D01*
X831392Y-16896D01*
X831351Y-16915D01*
X831304Y-16929D01*
X831193Y-16961D01*
X831073Y-16984D01*
X830944Y-17003D01*
X830805Y-17012D01*
X830778D01*
X830750Y-17007D01*
X830708D01*
X830657Y-17003D01*
X830602Y-16993D01*
X830537Y-16984D01*
X830468Y-16966D01*
X830394Y-16947D01*
X830320Y-16924D01*
X830242Y-16896D01*
X830163Y-16864D01*
X830089Y-16822D01*
X830011Y-16776D01*
X829941Y-16721D01*
X829872Y-16661D01*
X829867Y-16656D01*
X829858Y-16642D01*
X829840Y-16624D01*
X829817Y-16596D01*
X829794Y-16559D01*
X829761Y-16517D01*
X829733Y-16467D01*
X829701Y-16411D01*
X829669Y-16346D01*
X829636Y-16273D01*
X829604Y-16194D01*
X829581Y-16111D01*
X829558Y-16018D01*
X829539Y-15921D01*
X829530Y-15820D01*
X829526Y-15709D01*
Y-15704D01*
Y-15690D01*
Y-15672D01*
X829530Y-15640D01*
Y-15607D01*
X829535Y-15566D01*
X829539Y-15519D01*
X829544Y-15473D01*
X829567Y-15362D01*
X829595Y-15247D01*
X829632Y-15122D01*
X829687Y-15007D01*
Y-15002D01*
X829697Y-14993D01*
X829706Y-14979D01*
X829715Y-14956D01*
X829752Y-14900D01*
X829803Y-14831D01*
X829867Y-14757D01*
X829941Y-14679D01*
X830029Y-14600D01*
X830131Y-14531D01*
X830136D01*
X830145Y-14522D01*
X830163Y-14512D01*
X830186Y-14503D01*
X830214Y-14489D01*
X830251Y-14471D01*
X830297Y-14452D01*
X830348Y-14434D01*
X830403Y-14411D01*
X830468Y-14392D01*
X830537Y-14369D01*
X830616Y-14346D01*
X830699Y-14327D01*
X830791Y-14309D01*
X830888Y-14291D01*
X830995Y-14272D01*
X831004D01*
X831027Y-14267D01*
X831069Y-14263D01*
X831124Y-14254D01*
X831184Y-14240D01*
X831258Y-14231D01*
X831341Y-14212D01*
X831429Y-14198D01*
X831614Y-14157D01*
X831803Y-14110D01*
X831896Y-14087D01*
X831983Y-14060D01*
X832062Y-14032D01*
X832136Y-14004D01*
X832141Y-13810D01*
Y-13805D01*
Y-13792D01*
Y-13764D01*
X832136Y-13732D01*
Y-13695D01*
X832131Y-13653D01*
X832117Y-13551D01*
X832099Y-13441D01*
X832067Y-13334D01*
X832025Y-13233D01*
X832002Y-13186D01*
X831970Y-13149D01*
X831965Y-13145D01*
X831960Y-13136D01*
X831946Y-13122D01*
X831923Y-13108D01*
X831900Y-13085D01*
X831868Y-13062D01*
X831831Y-13039D01*
X831789Y-13011D01*
X831743Y-12983D01*
X831688Y-12960D01*
X831628Y-12937D01*
X831563Y-12914D01*
X831489Y-12900D01*
X831415Y-12886D01*
X831327Y-12877D01*
X831240Y-12872D01*
X831198D01*
X831166Y-12877D01*
X831129D01*
X831087Y-12881D01*
X830990Y-12895D01*
X830884Y-12918D01*
X830773Y-12951D01*
X830667Y-12997D01*
X830621Y-13025D01*
X830574Y-13057D01*
X830570D01*
X830565Y-13066D01*
X830556Y-13076D01*
X830537Y-13094D01*
X830519Y-13117D01*
X830500Y-13140D01*
X830477Y-13172D01*
X830454Y-13214D01*
X830427Y-13256D01*
X830403Y-13307D01*
X830376Y-13362D01*
X830348Y-13427D01*
X830325Y-13496D01*
X830297Y-13570D01*
X830274Y-13653D01*
X830256Y-13745D01*
X829632Y-13644D01*
Y-13634D01*
X829636Y-13611D01*
X829646Y-13575D01*
X829660Y-13524D01*
X829673Y-13464D01*
X829697Y-13394D01*
X829720Y-13316D01*
X829747Y-13233D01*
X829780Y-13149D01*
X829821Y-13057D01*
X829863Y-12969D01*
X829914Y-12881D01*
X829969Y-12794D01*
X830029Y-12715D01*
X830094Y-12641D01*
X830168Y-12572D01*
X830172Y-12567D01*
X830186Y-12558D01*
X830209Y-12540D01*
X830246Y-12521D01*
X830288Y-12493D01*
X830339Y-12466D01*
X830399Y-12433D01*
X830468Y-12401D01*
X830547Y-12373D01*
X830634Y-12341D01*
X830731Y-12313D01*
X830833Y-12286D01*
X830949Y-12267D01*
X831069Y-12248D01*
X831198Y-12239D01*
X831337Y-12235D01*
X831392D01*
X831434Y-12239D01*
D02*
G37*
G36*
X826735Y-11338D02*
X825021D01*
Y-16905D01*
X824337D01*
Y-11338D01*
X822633D01*
Y-10595D01*
X826735D01*
Y-11338D01*
D02*
G37*
G36*
X815897Y-16905D02*
X815264D01*
Y-10595D01*
X815897D01*
Y-16905D01*
D02*
G37*
G36*
X814312D02*
X813679D01*
Y-12336D01*
X814312D01*
Y-16905D01*
D02*
G37*
G36*
X859440Y-12336D02*
X860082D01*
Y-12937D01*
X859440D01*
Y-15612D01*
Y-15617D01*
Y-15626D01*
Y-15649D01*
Y-15672D01*
Y-15700D01*
X859445Y-15732D01*
X859449Y-15811D01*
X859454Y-15889D01*
X859463Y-15968D01*
X859477Y-16037D01*
X859486Y-16065D01*
X859496Y-16088D01*
X859500Y-16092D01*
X859509Y-16111D01*
X859533Y-16134D01*
X859565Y-16162D01*
X859606Y-16194D01*
X859657Y-16217D01*
X859722Y-16236D01*
X859801Y-16240D01*
X859842D01*
X859874Y-16236D01*
X859916D01*
X859962Y-16226D01*
X860022Y-16222D01*
X860082Y-16213D01*
X860170Y-16896D01*
X860166D01*
X860156Y-16901D01*
X860142D01*
X860124Y-16905D01*
X860078Y-16919D01*
X860013Y-16929D01*
X859939Y-16942D01*
X859861Y-16956D01*
X859777Y-16961D01*
X859694Y-16966D01*
X859639D01*
X859611Y-16961D01*
X859579Y-16956D01*
X859505Y-16947D01*
X859417Y-16933D01*
X859329Y-16910D01*
X859241Y-16878D01*
X859158Y-16836D01*
X859149Y-16832D01*
X859126Y-16813D01*
X859089Y-16785D01*
X859047Y-16744D01*
X859001Y-16693D01*
X858955Y-16633D01*
X858913Y-16559D01*
X858881Y-16480D01*
Y-16476D01*
X858877Y-16471D01*
Y-16453D01*
X858872Y-16434D01*
X858863Y-16407D01*
X858858Y-16370D01*
X858853Y-16328D01*
X858844Y-16282D01*
X858840Y-16222D01*
X858830Y-16157D01*
X858826Y-16083D01*
X858821Y-16000D01*
X858816Y-15908D01*
X858812Y-15806D01*
X858807Y-15690D01*
Y-15570D01*
Y-12937D01*
X858341D01*
Y-12336D01*
X858807D01*
Y-11204D01*
X859440Y-10738D01*
Y-12336D01*
D02*
G37*
G36*
X842605Y-12239D02*
X842656Y-12244D01*
X842720Y-12253D01*
X842790Y-12267D01*
X842873Y-12286D01*
X842961Y-12313D01*
X843053Y-12346D01*
X843150Y-12382D01*
X843252Y-12433D01*
X843353Y-12493D01*
X843455Y-12563D01*
X843557Y-12646D01*
X843654Y-12743D01*
X843746Y-12849D01*
X843751Y-12858D01*
X843769Y-12877D01*
X843792Y-12914D01*
X843820Y-12965D01*
X843857Y-13025D01*
X843898Y-13103D01*
X843945Y-13196D01*
X843991Y-13297D01*
X844032Y-13417D01*
X844079Y-13547D01*
X844120Y-13695D01*
X844157Y-13852D01*
X844185Y-14023D01*
X844213Y-14207D01*
X844226Y-14406D01*
X844231Y-14619D01*
Y-14822D01*
X841436D01*
Y-14831D01*
X841441Y-14854D01*
Y-14896D01*
X841445Y-14947D01*
X841455Y-15011D01*
X841464Y-15085D01*
X841478Y-15168D01*
X841496Y-15256D01*
X841538Y-15446D01*
X841565Y-15543D01*
X841598Y-15640D01*
X841639Y-15732D01*
X841681Y-15824D01*
X841732Y-15908D01*
X841787Y-15986D01*
X841792Y-15991D01*
X841801Y-16005D01*
X841819Y-16023D01*
X841842Y-16046D01*
X841875Y-16074D01*
X841912Y-16111D01*
X841953Y-16143D01*
X842004Y-16180D01*
X842060Y-16217D01*
X842115Y-16250D01*
X842180Y-16282D01*
X842249Y-16314D01*
X842323Y-16337D01*
X842397Y-16356D01*
X842480Y-16370D01*
X842563Y-16374D01*
X842596D01*
X842633Y-16370D01*
X842679Y-16360D01*
X842739Y-16346D01*
X842803Y-16323D01*
X842877Y-16296D01*
X842956Y-16259D01*
X843034Y-16208D01*
X843118Y-16143D01*
X843201Y-16069D01*
X843284Y-15977D01*
X843363Y-15871D01*
X843400Y-15811D01*
X843432Y-15746D01*
X843469Y-15677D01*
X843501Y-15603D01*
X843529Y-15519D01*
X843557Y-15436D01*
X844213Y-15533D01*
Y-15543D01*
X844203Y-15566D01*
X844194Y-15603D01*
X844180Y-15653D01*
X844162Y-15713D01*
X844139Y-15788D01*
X844111Y-15861D01*
X844074Y-15949D01*
X844037Y-16037D01*
X843995Y-16125D01*
X843945Y-16217D01*
X843889Y-16309D01*
X843829Y-16402D01*
X843764Y-16485D01*
X843695Y-16568D01*
X843617Y-16642D01*
X843612Y-16647D01*
X843598Y-16656D01*
X843575Y-16675D01*
X843543Y-16698D01*
X843501Y-16730D01*
X843450Y-16758D01*
X843390Y-16795D01*
X843326Y-16827D01*
X843252Y-16859D01*
X843173Y-16896D01*
X843085Y-16924D01*
X842993Y-16952D01*
X842891Y-16979D01*
X842785Y-16998D01*
X842674Y-17007D01*
X842559Y-17012D01*
X842522D01*
X842480Y-17007D01*
X842425Y-17003D01*
X842360Y-16993D01*
X842281Y-16979D01*
X842194Y-16961D01*
X842101Y-16938D01*
X842000Y-16905D01*
X841893Y-16864D01*
X841787Y-16818D01*
X841681Y-16758D01*
X841575Y-16688D01*
X841468Y-16610D01*
X841367Y-16517D01*
X841270Y-16411D01*
X841265Y-16402D01*
X841247Y-16383D01*
X841224Y-16346D01*
X841191Y-16300D01*
X841154Y-16236D01*
X841113Y-16157D01*
X841071Y-16069D01*
X841025Y-15968D01*
X840979Y-15847D01*
X840937Y-15718D01*
X840895Y-15575D01*
X840858Y-15418D01*
X840826Y-15251D01*
X840803Y-15067D01*
X840785Y-14873D01*
X840780Y-14665D01*
Y-14660D01*
Y-14651D01*
Y-14637D01*
Y-14614D01*
Y-14586D01*
X840785Y-14549D01*
Y-14512D01*
X840789Y-14471D01*
X840794Y-14369D01*
X840808Y-14258D01*
X840821Y-14133D01*
X840840Y-13995D01*
X840868Y-13852D01*
X840900Y-13704D01*
X840942Y-13551D01*
X840988Y-13404D01*
X841043Y-13256D01*
X841113Y-13117D01*
X841187Y-12983D01*
X841274Y-12858D01*
X841279Y-12849D01*
X841297Y-12831D01*
X841325Y-12803D01*
X841362Y-12761D01*
X841413Y-12715D01*
X841473Y-12660D01*
X841542Y-12604D01*
X841621Y-12544D01*
X841704Y-12489D01*
X841801Y-12433D01*
X841907Y-12378D01*
X842018Y-12332D01*
X842138Y-12290D01*
X842263Y-12262D01*
X842397Y-12239D01*
X842535Y-12235D01*
X842568D01*
X842605Y-12239D01*
D02*
G37*
G36*
X818498Y-12239D02*
X818548Y-12244D01*
X818613Y-12253D01*
X818682Y-12267D01*
X818766Y-12286D01*
X818853Y-12313D01*
X818946Y-12346D01*
X819043Y-12382D01*
X819145Y-12433D01*
X819246Y-12493D01*
X819348Y-12563D01*
X819449Y-12646D01*
X819546Y-12743D01*
X819639Y-12849D01*
X819643Y-12858D01*
X819662Y-12877D01*
X819685Y-12914D01*
X819713Y-12965D01*
X819750Y-13025D01*
X819791Y-13103D01*
X819837Y-13196D01*
X819884Y-13297D01*
X819925Y-13417D01*
X819971Y-13547D01*
X820013Y-13695D01*
X820050Y-13852D01*
X820078Y-14023D01*
X820105Y-14207D01*
X820119Y-14406D01*
X820124Y-14619D01*
Y-14822D01*
X817329D01*
Y-14831D01*
X817333Y-14854D01*
Y-14896D01*
X817338Y-14947D01*
X817347Y-15011D01*
X817356Y-15085D01*
X817370Y-15168D01*
X817389Y-15256D01*
X817430Y-15446D01*
X817458Y-15543D01*
X817490Y-15640D01*
X817532Y-15732D01*
X817574Y-15824D01*
X817624Y-15908D01*
X817680Y-15986D01*
X817685Y-15991D01*
X817694Y-16005D01*
X817712Y-16023D01*
X817735Y-16046D01*
X817768Y-16074D01*
X817805Y-16111D01*
X817846Y-16143D01*
X817897Y-16180D01*
X817953Y-16217D01*
X818008Y-16250D01*
X818073Y-16282D01*
X818142Y-16314D01*
X818216Y-16337D01*
X818290Y-16356D01*
X818373Y-16370D01*
X818456Y-16374D01*
X818488D01*
X818525Y-16370D01*
X818572Y-16360D01*
X818632Y-16346D01*
X818696Y-16323D01*
X818770Y-16296D01*
X818849Y-16259D01*
X818927Y-16208D01*
X819011Y-16143D01*
X819094Y-16069D01*
X819177Y-15977D01*
X819255Y-15871D01*
X819292Y-15811D01*
X819325Y-15746D01*
X819362Y-15677D01*
X819394Y-15603D01*
X819422Y-15519D01*
X819449Y-15436D01*
X820105Y-15533D01*
Y-15543D01*
X820096Y-15566D01*
X820087Y-15603D01*
X820073Y-15653D01*
X820055Y-15714D01*
X820032Y-15788D01*
X820004Y-15861D01*
X819967Y-15949D01*
X819930Y-16037D01*
X819888Y-16125D01*
X819837Y-16217D01*
X819782Y-16309D01*
X819722Y-16402D01*
X819657Y-16485D01*
X819588Y-16568D01*
X819510Y-16642D01*
X819505Y-16647D01*
X819491Y-16656D01*
X819468Y-16675D01*
X819436Y-16698D01*
X819394Y-16730D01*
X819343Y-16758D01*
X819283Y-16795D01*
X819218Y-16827D01*
X819145Y-16859D01*
X819066Y-16896D01*
X818978Y-16924D01*
X818886Y-16952D01*
X818784Y-16979D01*
X818678Y-16998D01*
X818567Y-17007D01*
X818451Y-17012D01*
X818414D01*
X818373Y-17007D01*
X818318Y-17003D01*
X818253Y-16993D01*
X818174Y-16979D01*
X818087Y-16961D01*
X817994Y-16938D01*
X817892Y-16905D01*
X817786Y-16864D01*
X817680Y-16818D01*
X817574Y-16758D01*
X817467Y-16688D01*
X817361Y-16610D01*
X817260Y-16517D01*
X817163Y-16411D01*
X817158Y-16402D01*
X817139Y-16383D01*
X817116Y-16346D01*
X817084Y-16300D01*
X817047Y-16236D01*
X817005Y-16157D01*
X816964Y-16069D01*
X816918Y-15968D01*
X816871Y-15847D01*
X816830Y-15718D01*
X816788Y-15575D01*
X816751Y-15418D01*
X816719Y-15252D01*
X816696Y-15067D01*
X816677Y-14873D01*
X816673Y-14665D01*
Y-14660D01*
Y-14651D01*
Y-14637D01*
Y-14614D01*
Y-14586D01*
X816677Y-14549D01*
Y-14512D01*
X816682Y-14471D01*
X816687Y-14369D01*
X816700Y-14258D01*
X816714Y-14133D01*
X816733Y-13995D01*
X816761Y-13852D01*
X816793Y-13704D01*
X816835Y-13551D01*
X816881Y-13404D01*
X816936Y-13256D01*
X817005Y-13117D01*
X817079Y-12983D01*
X817167Y-12858D01*
X817172Y-12849D01*
X817190Y-12831D01*
X817218Y-12803D01*
X817255Y-12761D01*
X817306Y-12715D01*
X817366Y-12660D01*
X817435Y-12604D01*
X817514Y-12544D01*
X817597Y-12489D01*
X817694Y-12433D01*
X817800Y-12378D01*
X817911Y-12332D01*
X818031Y-12290D01*
X818156Y-12262D01*
X818290Y-12239D01*
X818428Y-12235D01*
X818461D01*
X818498Y-12239D01*
D02*
G37*
G36*
X810288Y-12854D02*
X810293Y-12849D01*
X810297Y-12840D01*
X810306Y-12826D01*
X810325Y-12803D01*
X810367Y-12747D01*
X810417Y-12678D01*
X810487Y-12604D01*
X810565Y-12530D01*
X810648Y-12456D01*
X810741Y-12392D01*
X810745D01*
X810755Y-12387D01*
X810768Y-12378D01*
X810787Y-12369D01*
X810810Y-12355D01*
X810838Y-12341D01*
X810912Y-12313D01*
X810995Y-12286D01*
X811092Y-12258D01*
X811198Y-12239D01*
X811314Y-12235D01*
X811355D01*
X811388Y-12239D01*
X811425Y-12244D01*
X811471Y-12249D01*
X811522Y-12258D01*
X811577Y-12267D01*
X811702Y-12299D01*
X811766Y-12318D01*
X811836Y-12346D01*
X811905Y-12378D01*
X811974Y-12410D01*
X812039Y-12452D01*
X812108Y-12498D01*
X812113Y-12503D01*
X812122Y-12512D01*
X812145Y-12526D01*
X812168Y-12549D01*
X812201Y-12577D01*
X812233Y-12609D01*
X812274Y-12651D01*
X812316Y-12697D01*
X812362Y-12747D01*
X812409Y-12808D01*
X812455Y-12872D01*
X812506Y-12946D01*
X812552Y-13025D01*
X812598Y-13108D01*
X812644Y-13200D01*
X812686Y-13297D01*
X812690Y-13302D01*
X812695Y-13320D01*
X812704Y-13353D01*
X812718Y-13394D01*
X812737Y-13445D01*
X812755Y-13505D01*
X812774Y-13579D01*
X812797Y-13658D01*
X812815Y-13750D01*
X812834Y-13847D01*
X812852Y-13953D01*
X812871Y-14069D01*
X812884Y-14189D01*
X812894Y-14318D01*
X812903Y-14452D01*
Y-14591D01*
Y-14595D01*
Y-14605D01*
Y-14619D01*
Y-14642D01*
Y-14669D01*
X812898Y-14702D01*
Y-14739D01*
X812894Y-14780D01*
X812889Y-14882D01*
X812875Y-14993D01*
X812861Y-15118D01*
X812843Y-15252D01*
X812815Y-15395D01*
X812783Y-15538D01*
X812746Y-15690D01*
X812695Y-15838D01*
X812640Y-15986D01*
X812575Y-16125D01*
X812501Y-16259D01*
X812413Y-16383D01*
X812409Y-16388D01*
X812390Y-16411D01*
X812362Y-16443D01*
X812325Y-16480D01*
X812279Y-16531D01*
X812224Y-16582D01*
X812164Y-16637D01*
X812090Y-16698D01*
X812011Y-16758D01*
X811923Y-16813D01*
X811831Y-16864D01*
X811729Y-16915D01*
X811623Y-16952D01*
X811512Y-16984D01*
X811397Y-17003D01*
X811277Y-17012D01*
X811244D01*
X811221Y-17007D01*
X811193D01*
X811161Y-17003D01*
X811083Y-16989D01*
X810990Y-16970D01*
X810893Y-16942D01*
X810791Y-16901D01*
X810690Y-16845D01*
X810685D01*
X810681Y-16836D01*
X810667Y-16827D01*
X810648Y-16813D01*
X810598Y-16771D01*
X810537Y-16716D01*
X810468Y-16647D01*
X810390Y-16559D01*
X810316Y-16457D01*
X810242Y-16337D01*
Y-16905D01*
X809650D01*
Y-10595D01*
X810288D01*
Y-12854D01*
D02*
G37*
G36*
X807225Y-12239D02*
X807276Y-12244D01*
X807340Y-12253D01*
X807414Y-12267D01*
X807498Y-12286D01*
X807590Y-12309D01*
X807687Y-12341D01*
X807784Y-12382D01*
X807890Y-12433D01*
X807996Y-12489D01*
X808103Y-12558D01*
X808204Y-12641D01*
X808306Y-12734D01*
X808403Y-12840D01*
X808408Y-12844D01*
X808426Y-12868D01*
X808449Y-12905D01*
X808482Y-12951D01*
X808519Y-13015D01*
X808565Y-13089D01*
X808606Y-13177D01*
X808657Y-13283D01*
X808703Y-13399D01*
X808749Y-13528D01*
X808791Y-13671D01*
X808828Y-13824D01*
X808860Y-13995D01*
X808883Y-14175D01*
X808902Y-14369D01*
X808907Y-14577D01*
Y-14582D01*
Y-14591D01*
Y-14609D01*
Y-14633D01*
Y-14660D01*
X808902Y-14693D01*
Y-14734D01*
X808897Y-14780D01*
X808893Y-14882D01*
X808879Y-14998D01*
X808865Y-15127D01*
X808846Y-15270D01*
X808819Y-15418D01*
X808786Y-15566D01*
X808745Y-15718D01*
X808694Y-15871D01*
X808639Y-16018D01*
X808574Y-16162D01*
X808495Y-16291D01*
X808408Y-16411D01*
X808403Y-16416D01*
X808385Y-16439D01*
X808357Y-16467D01*
X808320Y-16504D01*
X808269Y-16550D01*
X808209Y-16601D01*
X808144Y-16656D01*
X808066Y-16712D01*
X807978Y-16767D01*
X807885Y-16822D01*
X807779Y-16873D01*
X807668Y-16919D01*
X807548Y-16956D01*
X807423Y-16984D01*
X807290Y-17007D01*
X807151Y-17012D01*
X807119D01*
X807077Y-17007D01*
X807026Y-17003D01*
X806962Y-16993D01*
X806888Y-16979D01*
X806804Y-16961D01*
X806712Y-16938D01*
X806615Y-16905D01*
X806513Y-16864D01*
X806407Y-16818D01*
X806306Y-16758D01*
X806199Y-16688D01*
X806093Y-16610D01*
X805991Y-16517D01*
X805894Y-16411D01*
X805890Y-16402D01*
X805871Y-16383D01*
X805848Y-16346D01*
X805816Y-16296D01*
X805779Y-16236D01*
X805737Y-16157D01*
X805691Y-16065D01*
X805645Y-15958D01*
X805599Y-15843D01*
X805552Y-15709D01*
X805511Y-15561D01*
X805474Y-15399D01*
X805442Y-15228D01*
X805418Y-15039D01*
X805400Y-14840D01*
X805395Y-14623D01*
Y-14619D01*
Y-14609D01*
Y-14595D01*
Y-14572D01*
Y-14545D01*
X805400Y-14508D01*
Y-14471D01*
X805405Y-14429D01*
X805409Y-14332D01*
X805423Y-14217D01*
X805437Y-14092D01*
X805455Y-13958D01*
X805483Y-13815D01*
X805515Y-13667D01*
X805557Y-13519D01*
X805603Y-13371D01*
X805659Y-13228D01*
X805728Y-13089D01*
X805802Y-12960D01*
X805890Y-12840D01*
X805894Y-12831D01*
X805913Y-12812D01*
X805941Y-12785D01*
X805978Y-12743D01*
X806028Y-12701D01*
X806088Y-12651D01*
X806158Y-12595D01*
X806236Y-12535D01*
X806319Y-12480D01*
X806416Y-12424D01*
X806523Y-12373D01*
X806633Y-12327D01*
X806754Y-12290D01*
X806878Y-12262D01*
X807012Y-12239D01*
X807151Y-12235D01*
X807183D01*
X807225Y-12239D01*
D02*
G37*
%LPC*%
G36*
X25822Y199268D02*
X25776D01*
Y195618D01*
X29425D01*
Y195664D01*
X29142Y196720D01*
X28596Y197666D01*
X27823Y198439D01*
X26877Y198985D01*
X25822Y199268D01*
D02*
G37*
G36*
X24776D02*
X24729D01*
X23674Y198985D01*
X22728Y198439D01*
X21955Y197666D01*
X21409Y196720D01*
X21126Y195664D01*
Y195618D01*
X24776D01*
Y199268D01*
D02*
G37*
G36*
X29425Y194618D02*
X25776D01*
Y190969D01*
X25822D01*
X26877Y191251D01*
X27823Y191798D01*
X28596Y192570D01*
X29142Y193516D01*
X29425Y194572D01*
Y194618D01*
D02*
G37*
G36*
X24776D02*
X21126D01*
Y194572D01*
X21409Y193516D01*
X21955Y192570D01*
X22728Y191798D01*
X23674Y191251D01*
X24729Y190969D01*
X24776D01*
Y194618D01*
D02*
G37*
G36*
X25822Y189268D02*
X25776D01*
Y185618D01*
X29425D01*
Y185664D01*
X29142Y186720D01*
X28596Y187666D01*
X27823Y188439D01*
X26877Y188985D01*
X25822Y189268D01*
D02*
G37*
G36*
X24776D02*
X24729D01*
X23674Y188985D01*
X22728Y188439D01*
X21955Y187666D01*
X21409Y186720D01*
X21126Y185664D01*
Y185618D01*
X24776D01*
Y189268D01*
D02*
G37*
G36*
X29425Y184618D02*
X25776D01*
Y180968D01*
X25822D01*
X26877Y181251D01*
X27823Y181798D01*
X28596Y182570D01*
X29142Y183516D01*
X29425Y184572D01*
Y184618D01*
D02*
G37*
G36*
X24776D02*
X21126D01*
Y184572D01*
X21409Y183516D01*
X21955Y182570D01*
X22728Y181798D01*
X23674Y181251D01*
X24729Y180968D01*
X24776D01*
Y184618D01*
D02*
G37*
G36*
X29425Y179268D02*
X25776D01*
Y175618D01*
X29425D01*
Y179268D01*
D02*
G37*
G36*
X24776D02*
X21126D01*
Y175618D01*
X24776D01*
Y179268D01*
D02*
G37*
G36*
X29425Y174618D02*
X25776D01*
Y170968D01*
X29425D01*
Y174618D01*
D02*
G37*
G36*
X24776D02*
X21126D01*
Y170968D01*
X24776D01*
Y174618D01*
D02*
G37*
G36*
X46878Y141859D02*
X43515D01*
Y138295D01*
X46878D01*
Y141859D01*
D02*
G37*
G36*
Y137295D02*
X43515D01*
Y133732D01*
X46878D01*
Y137295D01*
D02*
G37*
G36*
X188830Y94433D02*
X181721D01*
Y88900D01*
X183542D01*
Y85787D01*
X183395Y85430D01*
Y84682D01*
X183681Y83990D01*
X184210Y83461D01*
X184901Y83175D01*
X185650D01*
X186341Y83461D01*
X186870Y83990D01*
X187157Y84682D01*
Y85430D01*
X187009Y85787D01*
Y88900D01*
X188830D01*
Y94433D01*
D02*
G37*
G36*
X44930Y76170D02*
X43052D01*
Y73898D01*
X44930D01*
Y76170D01*
D02*
G37*
G36*
X42052D02*
X40174D01*
Y73898D01*
X42052D01*
Y76170D01*
D02*
G37*
G36*
X42724Y129051D02*
Y126484D01*
X45094D01*
Y129051D01*
X42724D01*
D02*
G37*
G36*
X45094Y125484D02*
X42724D01*
Y122917D01*
X45094D01*
Y125484D01*
D02*
G37*
G36*
X43618Y120350D02*
X42429D01*
Y118276D01*
X43618D01*
Y120350D01*
D02*
G37*
G36*
Y117276D02*
X42429D01*
Y115201D01*
X43618D01*
Y117276D01*
D02*
G37*
G36*
X114964Y116063D02*
X112397D01*
Y113693D01*
X114964D01*
Y116063D01*
D02*
G37*
G36*
X111397D02*
X108830D01*
Y113693D01*
X111397D01*
Y116063D01*
D02*
G37*
G36*
X53158Y113326D02*
Y110759D01*
X55429D01*
Y113326D01*
X53158D01*
D02*
G37*
G36*
X55429Y109759D02*
X53158D01*
Y107192D01*
X55429D01*
Y109759D01*
D02*
G37*
G36*
X42724Y105429D02*
Y102862D01*
X45094D01*
Y105429D01*
X42724D01*
D02*
G37*
G36*
X45094Y101862D02*
X42724D01*
Y99295D01*
X45094D01*
Y101862D01*
D02*
G37*
G36*
X46878Y94615D02*
X43515D01*
Y91051D01*
X46878D01*
Y94615D01*
D02*
G37*
G36*
X105822Y9268D02*
X105776D01*
Y5618D01*
X109425D01*
Y5664D01*
X109142Y6720D01*
X108596Y7666D01*
X107824Y8439D01*
X106877Y8985D01*
X105822Y9268D01*
D02*
G37*
G36*
X104776D02*
X104729D01*
X103674Y8985D01*
X102728Y8439D01*
X101955Y7666D01*
X101409Y6720D01*
X101126Y5664D01*
Y5618D01*
X104776D01*
Y9268D01*
D02*
G37*
G36*
X830935Y-4614D02*
X830930D01*
X830916Y-4623D01*
X830898Y-4632D01*
X830870Y-4642D01*
X830833Y-4660D01*
X830787Y-4674D01*
X830736Y-4697D01*
X830671Y-4716D01*
X830602Y-4739D01*
X830528Y-4762D01*
X830440Y-4785D01*
X830348Y-4813D01*
X830246Y-4836D01*
X830136Y-4859D01*
X830020Y-4882D01*
X829895Y-4905D01*
X829891D01*
X829877Y-4910D01*
X829858D01*
X829830Y-4919D01*
X829798Y-4924D01*
X829761Y-4933D01*
X829673Y-4951D01*
X829581Y-4974D01*
X829489Y-5002D01*
X829401Y-5034D01*
X829364Y-5048D01*
X829332Y-5067D01*
X829327Y-5071D01*
X829304Y-5081D01*
X829276Y-5104D01*
X829244Y-5131D01*
X829202Y-5168D01*
X829161Y-5210D01*
X829124Y-5261D01*
X829087Y-5316D01*
X829082Y-5325D01*
X829073Y-5344D01*
X829059Y-5376D01*
X829045Y-5423D01*
X829027Y-5478D01*
X829013Y-5543D01*
X829004Y-5612D01*
X828999Y-5690D01*
Y-5695D01*
Y-5704D01*
Y-5723D01*
X829004Y-5746D01*
Y-5774D01*
X829008Y-5806D01*
X829022Y-5880D01*
X829050Y-5963D01*
X829082Y-6051D01*
X829133Y-6134D01*
X829161Y-6176D01*
X829198Y-6213D01*
X829202D01*
X829207Y-6222D01*
X829221Y-6231D01*
X829235Y-6245D01*
X829281Y-6273D01*
X829345Y-6310D01*
X829424Y-6346D01*
X829521Y-6374D01*
X829632Y-6397D01*
X829761Y-6407D01*
X829794D01*
X829817Y-6402D01*
X829849D01*
X829881Y-6397D01*
X829965Y-6383D01*
X830062Y-6365D01*
X830163Y-6333D01*
X830269Y-6291D01*
X830376Y-6231D01*
X830380D01*
X830390Y-6222D01*
X830403Y-6213D01*
X830422Y-6199D01*
X830473Y-6162D01*
X830533Y-6106D01*
X830602Y-6037D01*
X830671Y-5958D01*
X830741Y-5866D01*
X830796Y-5760D01*
Y-5755D01*
X830801Y-5746D01*
X830810Y-5727D01*
X830819Y-5704D01*
X830828Y-5672D01*
X830842Y-5635D01*
X830852Y-5593D01*
X830865Y-5543D01*
X830879Y-5483D01*
X830893Y-5418D01*
X830902Y-5349D01*
X830912Y-5270D01*
X830921Y-5187D01*
X830930Y-5099D01*
X830935Y-5002D01*
Y-4900D01*
Y-4614D01*
D02*
G37*
G36*
X801505Y-1338D02*
X800369D01*
Y-3246D01*
X801589D01*
X801630Y-3242D01*
X801727Y-3237D01*
X801829Y-3233D01*
X801930Y-3219D01*
X802027Y-3205D01*
X802069Y-3196D01*
X802106Y-3186D01*
X802110D01*
X802120Y-3182D01*
X802134Y-3177D01*
X802152Y-3168D01*
X802198Y-3149D01*
X802258Y-3117D01*
X802323Y-3076D01*
X802392Y-3025D01*
X802457Y-2960D01*
X802517Y-2886D01*
Y-2881D01*
X802522Y-2877D01*
X802531Y-2863D01*
X802540Y-2849D01*
X802549Y-2826D01*
X802563Y-2798D01*
X802591Y-2734D01*
X802619Y-2651D01*
X802642Y-2549D01*
X802660Y-2433D01*
X802665Y-2304D01*
Y-2299D01*
Y-2290D01*
Y-2272D01*
Y-2248D01*
X802660Y-2221D01*
Y-2184D01*
X802647Y-2105D01*
X802633Y-2018D01*
X802610Y-1925D01*
X802577Y-1828D01*
X802531Y-1740D01*
Y-1736D01*
X802526Y-1731D01*
X802508Y-1703D01*
X802480Y-1662D01*
X802439Y-1616D01*
X802388Y-1565D01*
X802332Y-1514D01*
X802263Y-1463D01*
X802184Y-1426D01*
X802180D01*
X802175Y-1422D01*
X802161Y-1417D01*
X802143Y-1412D01*
X802115Y-1408D01*
X802087Y-1398D01*
X802050Y-1389D01*
X802004Y-1380D01*
X801954Y-1375D01*
X801898Y-1366D01*
X801833Y-1357D01*
X801764Y-1352D01*
X801686Y-1348D01*
X801598Y-1343D01*
X801505Y-1338D01*
D02*
G37*
G36*
X801658Y-3990D02*
X800369D01*
Y-6162D01*
X801723D01*
X801759Y-6157D01*
X801796D01*
X801893Y-6152D01*
X801995Y-6143D01*
X802097Y-6129D01*
X802198Y-6111D01*
X802240Y-6102D01*
X802281Y-6088D01*
X802286D01*
X802295Y-6083D01*
X802309Y-6074D01*
X802328Y-6065D01*
X802383Y-6037D01*
X802448Y-6000D01*
X802517Y-5945D01*
X802591Y-5884D01*
X802660Y-5806D01*
X802725Y-5718D01*
Y-5714D01*
X802730Y-5704D01*
X802739Y-5690D01*
X802748Y-5672D01*
X802762Y-5644D01*
X802776Y-5616D01*
X802790Y-5580D01*
X802804Y-5543D01*
X802831Y-5446D01*
X802859Y-5339D01*
X802878Y-5215D01*
X802882Y-5076D01*
Y-5071D01*
Y-5062D01*
Y-5039D01*
Y-5016D01*
X802878Y-4984D01*
X802873Y-4947D01*
X802864Y-4863D01*
X802845Y-4771D01*
X802822Y-4669D01*
X802785Y-4568D01*
X802734Y-4471D01*
Y-4466D01*
X802730Y-4462D01*
X802720Y-4448D01*
X802707Y-4429D01*
X802674Y-4388D01*
X802628Y-4332D01*
X802573Y-4272D01*
X802503Y-4212D01*
X802425Y-4157D01*
X802337Y-4106D01*
X802332D01*
X802328Y-4101D01*
X802309Y-4096D01*
X802291Y-4087D01*
X802263Y-4078D01*
X802231Y-4069D01*
X802194Y-4060D01*
X802147Y-4046D01*
X802097Y-4036D01*
X802041Y-4027D01*
X801977Y-4018D01*
X801907Y-4009D01*
X801829Y-3999D01*
X801746Y-3995D01*
X801658Y-3990D01*
D02*
G37*
G36*
X837712Y-2872D02*
X837671D01*
X837643Y-2877D01*
X837606Y-2881D01*
X837560Y-2891D01*
X837514Y-2900D01*
X837463Y-2918D01*
X837407Y-2937D01*
X837347Y-2960D01*
X837287Y-2988D01*
X837227Y-3020D01*
X837162Y-3062D01*
X837102Y-3112D01*
X837042Y-3163D01*
X836982Y-3228D01*
X836978Y-3233D01*
X836968Y-3246D01*
X836955Y-3265D01*
X836936Y-3293D01*
X836913Y-3330D01*
X836885Y-3371D01*
X836858Y-3422D01*
X836830Y-3482D01*
X836798Y-3547D01*
X836770Y-3616D01*
X836742Y-3695D01*
X836719Y-3782D01*
X836696Y-3875D01*
X836677Y-3972D01*
X836664Y-4073D01*
X836654Y-4184D01*
X838747D01*
Y-4180D01*
Y-4157D01*
X838743Y-4129D01*
X838738Y-4087D01*
X838729Y-4036D01*
X838719Y-3981D01*
X838710Y-3921D01*
X838696Y-3852D01*
X838664Y-3709D01*
X838622Y-3561D01*
X838562Y-3422D01*
X838530Y-3357D01*
X838493Y-3302D01*
X838488Y-3297D01*
X838479Y-3283D01*
X838461Y-3260D01*
X838438Y-3233D01*
X838405Y-3200D01*
X838368Y-3168D01*
X838327Y-3126D01*
X838280Y-3085D01*
X838225Y-3048D01*
X838165Y-3006D01*
X838100Y-2974D01*
X838031Y-2937D01*
X837962Y-2914D01*
X837883Y-2891D01*
X837800Y-2877D01*
X837712Y-2872D01*
D02*
G37*
G36*
X813970Y-2872D02*
X813952D01*
X813929Y-2877D01*
X813896D01*
X813855Y-2886D01*
X813808Y-2895D01*
X813758Y-2909D01*
X813702Y-2928D01*
X813647Y-2951D01*
X813582Y-2978D01*
X813517Y-3015D01*
X813453Y-3057D01*
X813388Y-3108D01*
X813323Y-3168D01*
X813259Y-3233D01*
X813198Y-3311D01*
X813194Y-3316D01*
X813185Y-3330D01*
X813171Y-3357D01*
X813148Y-3394D01*
X813125Y-3441D01*
X813101Y-3496D01*
X813069Y-3561D01*
X813041Y-3639D01*
X813014Y-3727D01*
X812986Y-3824D01*
X812958Y-3930D01*
X812935Y-4046D01*
X812912Y-4175D01*
X812898Y-4314D01*
X812889Y-4462D01*
X812884Y-4623D01*
Y-4628D01*
Y-4632D01*
Y-4646D01*
Y-4660D01*
Y-4706D01*
X812889Y-4766D01*
X812894Y-4840D01*
X812903Y-4928D01*
X812912Y-5021D01*
X812926Y-5122D01*
X812940Y-5229D01*
X812963Y-5335D01*
X812986Y-5446D01*
X813018Y-5556D01*
X813055Y-5663D01*
X813097Y-5764D01*
X813148Y-5857D01*
X813203Y-5945D01*
X813208Y-5949D01*
X813217Y-5963D01*
X813235Y-5986D01*
X813263Y-6009D01*
X813291Y-6046D01*
X813332Y-6078D01*
X813374Y-6120D01*
X813425Y-6157D01*
X813480Y-6199D01*
X813540Y-6240D01*
X813605Y-6273D01*
X813679Y-6305D01*
X813753Y-6333D01*
X813832Y-6356D01*
X813915Y-6370D01*
X814002Y-6374D01*
X814021D01*
X814044Y-6370D01*
X814076Y-6365D01*
X814118Y-6360D01*
X814159Y-6351D01*
X814210Y-6337D01*
X814266Y-6319D01*
X814326Y-6296D01*
X814386Y-6268D01*
X814451Y-6231D01*
X814515Y-6189D01*
X814580Y-6143D01*
X814645Y-6083D01*
X814709Y-6019D01*
X814769Y-5940D01*
X814774Y-5935D01*
X814783Y-5922D01*
X814797Y-5894D01*
X814820Y-5857D01*
X814843Y-5811D01*
X814871Y-5755D01*
X814903Y-5686D01*
X814931Y-5612D01*
X814963Y-5524D01*
X814991Y-5427D01*
X815019Y-5316D01*
X815042Y-5201D01*
X815065Y-5071D01*
X815079Y-4933D01*
X815088Y-4780D01*
X815093Y-4623D01*
Y-4619D01*
Y-4614D01*
Y-4600D01*
Y-4586D01*
Y-4540D01*
X815088Y-4480D01*
X815084Y-4406D01*
X815074Y-4323D01*
X815065Y-4226D01*
X815051Y-4129D01*
X815037Y-4023D01*
X815014Y-3912D01*
X814987Y-3805D01*
X814959Y-3695D01*
X814917Y-3588D01*
X814876Y-3487D01*
X814825Y-3394D01*
X814769Y-3306D01*
X814765Y-3302D01*
X814756Y-3288D01*
X814737Y-3265D01*
X814709Y-3237D01*
X814682Y-3205D01*
X814640Y-3168D01*
X814598Y-3131D01*
X814548Y-3089D01*
X814492Y-3048D01*
X814432Y-3011D01*
X814367Y-2974D01*
X814298Y-2942D01*
X814220Y-2914D01*
X814141Y-2891D01*
X814058Y-2877D01*
X813970Y-2872D01*
D02*
G37*
G36*
X805931D02*
X805913D01*
X805890Y-2877D01*
X805857D01*
X805816Y-2886D01*
X805770Y-2895D01*
X805719Y-2909D01*
X805663Y-2928D01*
X805608Y-2951D01*
X805543Y-2978D01*
X805478Y-3015D01*
X805414Y-3057D01*
X805349Y-3108D01*
X805285Y-3168D01*
X805220Y-3233D01*
X805160Y-3311D01*
X805155Y-3316D01*
X805146Y-3330D01*
X805132Y-3357D01*
X805109Y-3394D01*
X805086Y-3441D01*
X805063Y-3496D01*
X805030Y-3561D01*
X805003Y-3639D01*
X804975Y-3727D01*
X804947Y-3824D01*
X804920Y-3930D01*
X804896Y-4046D01*
X804873Y-4175D01*
X804859Y-4314D01*
X804850Y-4462D01*
X804846Y-4623D01*
Y-4628D01*
Y-4632D01*
Y-4646D01*
Y-4660D01*
Y-4706D01*
X804850Y-4766D01*
X804855Y-4840D01*
X804864Y-4928D01*
X804873Y-5021D01*
X804887Y-5122D01*
X804901Y-5229D01*
X804924Y-5335D01*
X804947Y-5446D01*
X804980Y-5556D01*
X805017Y-5663D01*
X805058Y-5764D01*
X805109Y-5857D01*
X805164Y-5945D01*
X805169Y-5949D01*
X805178Y-5963D01*
X805197Y-5986D01*
X805224Y-6009D01*
X805252Y-6046D01*
X805294Y-6078D01*
X805335Y-6120D01*
X805386Y-6157D01*
X805442Y-6199D01*
X805502Y-6240D01*
X805566Y-6273D01*
X805640Y-6305D01*
X805714Y-6333D01*
X805793Y-6356D01*
X805876Y-6370D01*
X805964Y-6374D01*
X805982D01*
X806005Y-6370D01*
X806038Y-6365D01*
X806079Y-6360D01*
X806121Y-6351D01*
X806172Y-6337D01*
X806227Y-6319D01*
X806287Y-6296D01*
X806347Y-6268D01*
X806412Y-6231D01*
X806476Y-6189D01*
X806541Y-6143D01*
X806606Y-6083D01*
X806670Y-6019D01*
X806730Y-5940D01*
X806735Y-5935D01*
X806744Y-5922D01*
X806758Y-5894D01*
X806781Y-5857D01*
X806804Y-5811D01*
X806832Y-5755D01*
X806864Y-5686D01*
X806892Y-5612D01*
X806925Y-5524D01*
X806952Y-5427D01*
X806980Y-5316D01*
X807003Y-5201D01*
X807026Y-5071D01*
X807040Y-4933D01*
X807049Y-4780D01*
X807054Y-4623D01*
Y-4619D01*
Y-4614D01*
Y-4600D01*
Y-4586D01*
Y-4540D01*
X807049Y-4480D01*
X807045Y-4406D01*
X807036Y-4323D01*
X807026Y-4226D01*
X807012Y-4129D01*
X806999Y-4023D01*
X806975Y-3912D01*
X806948Y-3805D01*
X806920Y-3695D01*
X806878Y-3588D01*
X806837Y-3487D01*
X806786Y-3394D01*
X806730Y-3306D01*
X806726Y-3302D01*
X806717Y-3288D01*
X806698Y-3265D01*
X806670Y-3237D01*
X806643Y-3205D01*
X806601Y-3168D01*
X806560Y-3131D01*
X806509Y-3089D01*
X806453Y-3048D01*
X806393Y-3011D01*
X806329Y-2974D01*
X806259Y-2942D01*
X806181Y-2914D01*
X806102Y-2891D01*
X806019Y-2877D01*
X805931Y-2872D01*
D02*
G37*
G36*
X870205Y-11338D02*
X869068D01*
Y-13247D01*
X870288D01*
X870329Y-13242D01*
X870426Y-13237D01*
X870528Y-13233D01*
X870630Y-13219D01*
X870727Y-13205D01*
X870768Y-13196D01*
X870805Y-13186D01*
X870810D01*
X870819Y-13182D01*
X870833Y-13177D01*
X870852Y-13168D01*
X870898Y-13149D01*
X870958Y-13117D01*
X871023Y-13076D01*
X871092Y-13025D01*
X871156Y-12960D01*
X871216Y-12886D01*
Y-12881D01*
X871221Y-12877D01*
X871230Y-12863D01*
X871240Y-12849D01*
X871249Y-12826D01*
X871263Y-12798D01*
X871290Y-12734D01*
X871318Y-12651D01*
X871341Y-12549D01*
X871360Y-12433D01*
X871364Y-12304D01*
Y-12299D01*
Y-12290D01*
Y-12272D01*
Y-12248D01*
X871360Y-12221D01*
Y-12184D01*
X871346Y-12105D01*
X871332Y-12017D01*
X871309Y-11925D01*
X871277Y-11828D01*
X871230Y-11740D01*
Y-11736D01*
X871226Y-11731D01*
X871207Y-11703D01*
X871179Y-11662D01*
X871138Y-11616D01*
X871087Y-11565D01*
X871032Y-11514D01*
X870962Y-11463D01*
X870884Y-11426D01*
X870879D01*
X870875Y-11422D01*
X870861Y-11417D01*
X870842Y-11412D01*
X870815Y-11408D01*
X870787Y-11399D01*
X870750Y-11389D01*
X870704Y-11380D01*
X870653Y-11375D01*
X870597Y-11366D01*
X870533Y-11357D01*
X870463Y-11352D01*
X870385Y-11348D01*
X870297Y-11343D01*
X870205Y-11338D01*
D02*
G37*
G36*
X870357Y-13990D02*
X869068D01*
Y-16162D01*
X870422D01*
X870459Y-16157D01*
X870496D01*
X870593Y-16152D01*
X870694Y-16143D01*
X870796Y-16129D01*
X870898Y-16111D01*
X870939Y-16102D01*
X870981Y-16088D01*
X870986D01*
X870995Y-16083D01*
X871009Y-16074D01*
X871027Y-16065D01*
X871082Y-16037D01*
X871147Y-16000D01*
X871216Y-15945D01*
X871290Y-15885D01*
X871360Y-15806D01*
X871424Y-15718D01*
Y-15713D01*
X871429Y-15704D01*
X871438Y-15690D01*
X871447Y-15672D01*
X871461Y-15644D01*
X871475Y-15617D01*
X871489Y-15580D01*
X871503Y-15543D01*
X871531Y-15446D01*
X871558Y-15339D01*
X871577Y-15215D01*
X871581Y-15076D01*
Y-15071D01*
Y-15062D01*
Y-15039D01*
Y-15016D01*
X871577Y-14984D01*
X871572Y-14947D01*
X871563Y-14863D01*
X871544Y-14771D01*
X871521Y-14669D01*
X871484Y-14568D01*
X871434Y-14471D01*
Y-14466D01*
X871429Y-14461D01*
X871420Y-14448D01*
X871406Y-14429D01*
X871374Y-14388D01*
X871327Y-14332D01*
X871272Y-14272D01*
X871203Y-14212D01*
X871124Y-14157D01*
X871036Y-14106D01*
X871032D01*
X871027Y-14101D01*
X871009Y-14096D01*
X870990Y-14087D01*
X870962Y-14078D01*
X870930Y-14069D01*
X870893Y-14060D01*
X870847Y-14046D01*
X870796Y-14037D01*
X870741Y-14027D01*
X870676Y-14018D01*
X870607Y-14009D01*
X870528Y-13999D01*
X870445Y-13995D01*
X870357Y-13990D01*
D02*
G37*
G36*
X857042Y-14614D02*
X857038D01*
X857024Y-14623D01*
X857005Y-14633D01*
X856978Y-14642D01*
X856941Y-14660D01*
X856894Y-14674D01*
X856844Y-14697D01*
X856779Y-14716D01*
X856710Y-14739D01*
X856636Y-14762D01*
X856548Y-14785D01*
X856456Y-14813D01*
X856354Y-14836D01*
X856243Y-14859D01*
X856128Y-14882D01*
X856003Y-14905D01*
X855998D01*
X855984Y-14910D01*
X855966D01*
X855938Y-14919D01*
X855906Y-14923D01*
X855869Y-14933D01*
X855781Y-14951D01*
X855689Y-14974D01*
X855596Y-15002D01*
X855509Y-15034D01*
X855472Y-15048D01*
X855439Y-15067D01*
X855435Y-15071D01*
X855412Y-15081D01*
X855384Y-15104D01*
X855351Y-15131D01*
X855310Y-15168D01*
X855268Y-15210D01*
X855231Y-15261D01*
X855194Y-15316D01*
X855190Y-15326D01*
X855180Y-15344D01*
X855167Y-15376D01*
X855153Y-15423D01*
X855134Y-15478D01*
X855120Y-15543D01*
X855111Y-15612D01*
X855107Y-15690D01*
Y-15695D01*
Y-15704D01*
Y-15723D01*
X855111Y-15746D01*
Y-15774D01*
X855116Y-15806D01*
X855130Y-15880D01*
X855157Y-15963D01*
X855190Y-16051D01*
X855241Y-16134D01*
X855268Y-16175D01*
X855305Y-16213D01*
X855310D01*
X855315Y-16222D01*
X855328Y-16231D01*
X855342Y-16245D01*
X855388Y-16273D01*
X855453Y-16309D01*
X855532Y-16346D01*
X855629Y-16374D01*
X855739Y-16397D01*
X855869Y-16407D01*
X855901D01*
X855924Y-16402D01*
X855957D01*
X855989Y-16397D01*
X856072Y-16383D01*
X856169Y-16365D01*
X856271Y-16333D01*
X856377Y-16291D01*
X856483Y-16231D01*
X856488D01*
X856497Y-16222D01*
X856511Y-16213D01*
X856530Y-16199D01*
X856580Y-16162D01*
X856640Y-16106D01*
X856710Y-16037D01*
X856779Y-15958D01*
X856848Y-15866D01*
X856904Y-15760D01*
Y-15755D01*
X856908Y-15746D01*
X856918Y-15727D01*
X856927Y-15704D01*
X856936Y-15672D01*
X856950Y-15635D01*
X856959Y-15593D01*
X856973Y-15543D01*
X856987Y-15483D01*
X857001Y-15418D01*
X857010Y-15349D01*
X857019Y-15270D01*
X857028Y-15187D01*
X857038Y-15099D01*
X857042Y-15002D01*
Y-14900D01*
Y-14614D01*
D02*
G37*
G36*
X832136D02*
X832131D01*
X832117Y-14623D01*
X832099Y-14633D01*
X832071Y-14642D01*
X832034Y-14660D01*
X831988Y-14674D01*
X831937Y-14697D01*
X831873Y-14716D01*
X831803Y-14739D01*
X831729Y-14762D01*
X831642Y-14785D01*
X831549Y-14813D01*
X831448Y-14836D01*
X831337Y-14859D01*
X831221Y-14882D01*
X831096Y-14905D01*
X831092D01*
X831078Y-14910D01*
X831059D01*
X831032Y-14919D01*
X830999Y-14923D01*
X830962Y-14933D01*
X830875Y-14951D01*
X830782Y-14974D01*
X830690Y-15002D01*
X830602Y-15034D01*
X830565Y-15048D01*
X830533Y-15067D01*
X830528Y-15071D01*
X830505Y-15081D01*
X830477Y-15104D01*
X830445Y-15131D01*
X830403Y-15168D01*
X830362Y-15210D01*
X830325Y-15261D01*
X830288Y-15316D01*
X830283Y-15326D01*
X830274Y-15344D01*
X830260Y-15376D01*
X830246Y-15423D01*
X830228Y-15478D01*
X830214Y-15543D01*
X830205Y-15612D01*
X830200Y-15690D01*
Y-15695D01*
Y-15704D01*
Y-15723D01*
X830205Y-15746D01*
Y-15774D01*
X830209Y-15806D01*
X830223Y-15880D01*
X830251Y-15963D01*
X830283Y-16051D01*
X830334Y-16134D01*
X830362Y-16175D01*
X830399Y-16213D01*
X830403D01*
X830408Y-16222D01*
X830422Y-16231D01*
X830436Y-16245D01*
X830482Y-16273D01*
X830547Y-16309D01*
X830625Y-16346D01*
X830722Y-16374D01*
X830833Y-16397D01*
X830962Y-16407D01*
X830995D01*
X831018Y-16402D01*
X831050D01*
X831083Y-16397D01*
X831166Y-16383D01*
X831263Y-16365D01*
X831364Y-16333D01*
X831471Y-16291D01*
X831577Y-16231D01*
X831581D01*
X831591Y-16222D01*
X831605Y-16213D01*
X831623Y-16199D01*
X831674Y-16162D01*
X831734Y-16106D01*
X831803Y-16037D01*
X831873Y-15958D01*
X831942Y-15866D01*
X831997Y-15760D01*
Y-15755D01*
X832002Y-15746D01*
X832011Y-15727D01*
X832020Y-15704D01*
X832030Y-15672D01*
X832043Y-15635D01*
X832053Y-15593D01*
X832067Y-15543D01*
X832080Y-15483D01*
X832094Y-15418D01*
X832104Y-15349D01*
X832113Y-15270D01*
X832122Y-15187D01*
X832131Y-15099D01*
X832136Y-15002D01*
Y-14900D01*
Y-14614D01*
D02*
G37*
G36*
X842531Y-12872D02*
X842489D01*
X842462Y-12877D01*
X842425Y-12881D01*
X842379Y-12891D01*
X842332Y-12900D01*
X842281Y-12918D01*
X842226Y-12937D01*
X842166Y-12960D01*
X842106Y-12988D01*
X842046Y-13020D01*
X841981Y-13062D01*
X841921Y-13113D01*
X841861Y-13163D01*
X841801Y-13228D01*
X841796Y-13233D01*
X841787Y-13247D01*
X841773Y-13265D01*
X841755Y-13293D01*
X841732Y-13330D01*
X841704Y-13371D01*
X841676Y-13422D01*
X841648Y-13482D01*
X841616Y-13547D01*
X841588Y-13616D01*
X841561Y-13695D01*
X841538Y-13782D01*
X841514Y-13875D01*
X841496Y-13972D01*
X841482Y-14073D01*
X841473Y-14184D01*
X843566D01*
Y-14180D01*
Y-14157D01*
X843561Y-14129D01*
X843557Y-14087D01*
X843547Y-14037D01*
X843538Y-13981D01*
X843529Y-13921D01*
X843515Y-13852D01*
X843483Y-13709D01*
X843441Y-13561D01*
X843381Y-13422D01*
X843349Y-13357D01*
X843312Y-13302D01*
X843307Y-13297D01*
X843298Y-13283D01*
X843279Y-13260D01*
X843256Y-13233D01*
X843224Y-13200D01*
X843187Y-13168D01*
X843145Y-13126D01*
X843099Y-13085D01*
X843044Y-13048D01*
X842984Y-13006D01*
X842919Y-12974D01*
X842850Y-12937D01*
X842780Y-12914D01*
X842702Y-12891D01*
X842619Y-12877D01*
X842531Y-12872D01*
D02*
G37*
G36*
X818424Y-12872D02*
X818382D01*
X818355Y-12877D01*
X818318Y-12881D01*
X818271Y-12891D01*
X818225Y-12900D01*
X818174Y-12919D01*
X818119Y-12937D01*
X818059Y-12960D01*
X817999Y-12988D01*
X817939Y-13020D01*
X817874Y-13062D01*
X817814Y-13113D01*
X817754Y-13163D01*
X817694Y-13228D01*
X817689Y-13233D01*
X817680Y-13247D01*
X817666Y-13265D01*
X817648Y-13293D01*
X817624Y-13330D01*
X817597Y-13371D01*
X817569Y-13422D01*
X817541Y-13482D01*
X817509Y-13547D01*
X817481Y-13616D01*
X817454Y-13695D01*
X817430Y-13782D01*
X817407Y-13875D01*
X817389Y-13972D01*
X817375Y-14073D01*
X817366Y-14184D01*
X819459D01*
Y-14180D01*
Y-14157D01*
X819454Y-14129D01*
X819449Y-14087D01*
X819440Y-14037D01*
X819431Y-13981D01*
X819422Y-13921D01*
X819408Y-13852D01*
X819376Y-13709D01*
X819334Y-13561D01*
X819274Y-13422D01*
X819242Y-13357D01*
X819205Y-13302D01*
X819200Y-13297D01*
X819191Y-13283D01*
X819172Y-13260D01*
X819149Y-13233D01*
X819117Y-13200D01*
X819080Y-13168D01*
X819038Y-13126D01*
X818992Y-13085D01*
X818937Y-13048D01*
X818876Y-13006D01*
X818812Y-12974D01*
X818742Y-12937D01*
X818673Y-12914D01*
X818595Y-12891D01*
X818511Y-12877D01*
X818424Y-12872D01*
D02*
G37*
G36*
X811240D02*
X811221D01*
X811203Y-12877D01*
X811175D01*
X811138Y-12886D01*
X811101Y-12895D01*
X811055Y-12909D01*
X811004Y-12928D01*
X810953Y-12951D01*
X810898Y-12979D01*
X810838Y-13015D01*
X810778Y-13057D01*
X810718Y-13108D01*
X810658Y-13168D01*
X810598Y-13237D01*
X810537Y-13316D01*
X810533Y-13320D01*
X810524Y-13334D01*
X810510Y-13362D01*
X810491Y-13399D01*
X810468Y-13445D01*
X810440Y-13501D01*
X810413Y-13565D01*
X810385Y-13639D01*
X810357Y-13727D01*
X810330Y-13819D01*
X810302Y-13926D01*
X810279Y-14037D01*
X810260Y-14161D01*
X810246Y-14295D01*
X810237Y-14438D01*
X810233Y-14591D01*
Y-14600D01*
Y-14623D01*
Y-14660D01*
Y-14706D01*
X810237Y-14766D01*
Y-14836D01*
X810242Y-14910D01*
X810246Y-14988D01*
X810265Y-15164D01*
X810283Y-15339D01*
X810302Y-15427D01*
X810316Y-15506D01*
X810334Y-15584D01*
X810357Y-15653D01*
Y-15658D01*
X810362Y-15667D01*
X810371Y-15686D01*
X810380Y-15709D01*
X810394Y-15741D01*
X810413Y-15774D01*
X810450Y-15852D01*
X810505Y-15940D01*
X810565Y-16028D01*
X810639Y-16111D01*
X810722Y-16189D01*
X810727D01*
X810732Y-16199D01*
X810745Y-16208D01*
X810764Y-16217D01*
X810815Y-16250D01*
X810879Y-16282D01*
X810958Y-16314D01*
X811046Y-16346D01*
X811143Y-16365D01*
X811249Y-16374D01*
X811267D01*
X811286Y-16370D01*
X811314Y-16365D01*
X811351Y-16360D01*
X811388Y-16351D01*
X811434Y-16337D01*
X811485Y-16319D01*
X811535Y-16296D01*
X811591Y-16268D01*
X811651Y-16231D01*
X811711Y-16189D01*
X811771Y-16139D01*
X811831Y-16079D01*
X811887Y-16014D01*
X811946Y-15935D01*
X811951Y-15931D01*
X811960Y-15917D01*
X811974Y-15889D01*
X811993Y-15852D01*
X812016Y-15806D01*
X812043Y-15751D01*
X812071Y-15681D01*
X812099Y-15607D01*
X812127Y-15519D01*
X812154Y-15423D01*
X812182Y-15312D01*
X812205Y-15196D01*
X812224Y-15067D01*
X812238Y-14928D01*
X812247Y-14776D01*
X812251Y-14619D01*
Y-14614D01*
Y-14609D01*
Y-14595D01*
Y-14577D01*
Y-14531D01*
X812247Y-14471D01*
X812242Y-14397D01*
X812238Y-14309D01*
X812228Y-14217D01*
X812214Y-14115D01*
X812201Y-14009D01*
X812177Y-13898D01*
X812154Y-13792D01*
X812127Y-13681D01*
X812094Y-13575D01*
X812053Y-13473D01*
X812007Y-13380D01*
X811956Y-13297D01*
X811951Y-13293D01*
X811942Y-13279D01*
X811928Y-13256D01*
X811905Y-13233D01*
X811877Y-13200D01*
X811840Y-13163D01*
X811803Y-13126D01*
X811757Y-13085D01*
X811706Y-13043D01*
X811656Y-13006D01*
X811595Y-12969D01*
X811531Y-12937D01*
X811461Y-12909D01*
X811392Y-12891D01*
X811318Y-12877D01*
X811240Y-12872D01*
D02*
G37*
G36*
X807133D02*
X807114D01*
X807091Y-12877D01*
X807059D01*
X807017Y-12886D01*
X806971Y-12895D01*
X806920Y-12909D01*
X806864Y-12928D01*
X806809Y-12951D01*
X806744Y-12979D01*
X806680Y-13015D01*
X806615Y-13057D01*
X806550Y-13108D01*
X806486Y-13168D01*
X806421Y-13233D01*
X806361Y-13311D01*
X806356Y-13316D01*
X806347Y-13330D01*
X806333Y-13357D01*
X806310Y-13394D01*
X806287Y-13441D01*
X806264Y-13496D01*
X806232Y-13561D01*
X806204Y-13639D01*
X806176Y-13727D01*
X806148Y-13824D01*
X806121Y-13930D01*
X806098Y-14046D01*
X806075Y-14175D01*
X806061Y-14314D01*
X806051Y-14461D01*
X806047Y-14623D01*
Y-14628D01*
Y-14633D01*
Y-14646D01*
Y-14660D01*
Y-14706D01*
X806051Y-14766D01*
X806056Y-14840D01*
X806065Y-14928D01*
X806075Y-15021D01*
X806088Y-15122D01*
X806102Y-15228D01*
X806125Y-15335D01*
X806148Y-15446D01*
X806181Y-15556D01*
X806218Y-15663D01*
X806259Y-15764D01*
X806310Y-15857D01*
X806366Y-15945D01*
X806370Y-15949D01*
X806379Y-15963D01*
X806398Y-15986D01*
X806426Y-16009D01*
X806453Y-16046D01*
X806495Y-16079D01*
X806536Y-16120D01*
X806587Y-16157D01*
X806643Y-16199D01*
X806703Y-16240D01*
X806767Y-16273D01*
X806841Y-16305D01*
X806915Y-16333D01*
X806994Y-16356D01*
X807077Y-16370D01*
X807165Y-16374D01*
X807183D01*
X807206Y-16370D01*
X807239Y-16365D01*
X807280Y-16360D01*
X807322Y-16351D01*
X807373Y-16337D01*
X807428Y-16319D01*
X807488Y-16296D01*
X807548Y-16268D01*
X807613Y-16231D01*
X807678Y-16189D01*
X807742Y-16143D01*
X807807Y-16083D01*
X807872Y-16018D01*
X807932Y-15940D01*
X807936Y-15935D01*
X807946Y-15921D01*
X807959Y-15894D01*
X807983Y-15857D01*
X808006Y-15811D01*
X808033Y-15755D01*
X808066Y-15686D01*
X808093Y-15612D01*
X808126Y-15524D01*
X808154Y-15427D01*
X808181Y-15316D01*
X808204Y-15201D01*
X808227Y-15071D01*
X808241Y-14933D01*
X808251Y-14780D01*
X808255Y-14623D01*
Y-14619D01*
Y-14614D01*
Y-14600D01*
Y-14586D01*
Y-14540D01*
X808251Y-14480D01*
X808246Y-14406D01*
X808237Y-14323D01*
X808227Y-14226D01*
X808214Y-14129D01*
X808200Y-14023D01*
X808177Y-13912D01*
X808149Y-13805D01*
X808121Y-13695D01*
X808080Y-13588D01*
X808038Y-13487D01*
X807987Y-13394D01*
X807932Y-13307D01*
X807927Y-13302D01*
X807918Y-13288D01*
X807899Y-13265D01*
X807872Y-13237D01*
X807844Y-13205D01*
X807802Y-13168D01*
X807761Y-13131D01*
X807710Y-13089D01*
X807654Y-13048D01*
X807594Y-13011D01*
X807530Y-12974D01*
X807460Y-12942D01*
X807382Y-12914D01*
X807303Y-12891D01*
X807220Y-12877D01*
X807133Y-12872D01*
D02*
G37*
%LPD*%
D12*
X243894Y172385D02*
X278418D01*
X287779Y181745D02*
Y188752D01*
X278418Y172385D02*
X287779Y181745D01*
X273710Y175785D02*
X278508Y180583D01*
X215276Y167539D02*
X221821Y174085D01*
X275796D01*
X212598Y168648D02*
X219735Y175785D01*
X275796Y174085D02*
X281605Y179893D01*
X235276Y163766D02*
X243894Y172385D01*
X219735Y175785D02*
X273710D01*
X268701Y179134D02*
X271210D01*
X274787Y182711D01*
X235276Y5118D02*
Y163766D01*
X281605Y188761D02*
X281957Y188409D01*
X215276Y5118D02*
Y167539D01*
X212598Y12441D02*
Y168648D01*
X278508Y180583D02*
Y201954D01*
X281480Y192884D02*
X281605Y192759D01*
X281480Y192884D02*
Y198592D01*
X281605Y188761D02*
Y192759D01*
X287193Y202756D02*
X287779Y202170D01*
X281540Y202756D02*
X287193D01*
X287779Y198592D02*
Y202170D01*
X279309Y202756D02*
X281540D01*
X278508Y201954D02*
X279309Y202756D01*
X205276Y5118D02*
X212598Y12441D01*
X281605Y179893D02*
Y188057D01*
X287779Y188752D02*
Y192884D01*
X274787Y182711D02*
Y186459D01*
X42044Y117890D02*
X44587D01*
X41929Y117776D02*
X42044Y117890D01*
X42257Y76670D02*
X47142D01*
X57064Y110259D02*
X57087Y110236D01*
X52264Y110259D02*
X57064D01*
X39370Y108507D02*
Y110571D01*
X38364Y107502D02*
X39370Y108507D01*
X36811Y117776D02*
Y121260D01*
X35725Y90551D02*
X36516Y91342D01*
X39370Y114759D02*
Y117776D01*
D13*
X262775Y202504D02*
X261650Y199880D01*
X260525Y202504D02*
X261650Y199880D01*
X257639Y203254D02*
X257826Y203629D01*
X258389Y203816D01*
X258764D01*
X259326Y203629D01*
X259701Y203066D01*
X259888Y202129D01*
Y201192D01*
X259701Y200442D01*
X259326Y200067D01*
X258764Y199880D01*
X258576D01*
X258014Y200067D01*
X257639Y200442D01*
X257452Y201005D01*
Y201192D01*
X257639Y201754D01*
X258014Y202129D01*
X258576Y202317D01*
X258764D01*
X259326Y202129D01*
X259701Y201754D01*
X259888Y201192D01*
D17*
X111897Y107484D02*
D03*
Y113193D02*
D03*
D33*
X7874Y35433D02*
D03*
X271654Y200787D02*
D03*
X7874D02*
D03*
D34*
X13780Y92754D02*
X27042Y79492D01*
X37434D01*
X37434Y79492D02*
X69278D01*
X70615Y78154D01*
X37336Y79393D02*
X37434Y79492D01*
X70615Y12139D02*
Y78154D01*
X37336Y76670D02*
Y79393D01*
X185276Y5118D02*
X190945Y10787D01*
Y50055D01*
X115944Y125056D02*
X190945Y50055D01*
X13780Y92754D02*
Y106299D01*
X15925Y108444D01*
X33307D01*
X35433Y110571D02*
X36811D01*
X33307Y108444D02*
X35433Y110571D01*
X102569Y135056D02*
X113944D01*
X102569Y125056D02*
X115944D01*
X47424Y110571D02*
X47736Y110259D01*
X41929Y110571D02*
X47424D01*
X113944Y135056D02*
X195276Y53724D01*
Y5118D02*
Y53724D01*
D35*
X185276Y162432D02*
X209303Y186459D01*
X268488D01*
X185276Y138905D02*
Y162432D01*
X79695Y138905D02*
X185276D01*
Y115056D02*
Y138905D01*
X75276Y84411D02*
Y90079D01*
Y21572D02*
Y84411D01*
X35725Y85582D02*
Y90551D01*
X36897Y84411D02*
X75276D01*
X35725Y85582D02*
X36897Y84411D01*
X102569Y105056D02*
X109272D01*
X111700Y107484D01*
X102569Y115056D02*
X105817D01*
X107680Y113193D02*
X111897D01*
X105817Y115056D02*
X107680Y113193D01*
X44587Y117890D02*
X47024D01*
X47244Y118110D01*
X80253Y95056D02*
X102569D01*
X185276Y98261D02*
Y115056D01*
X78524Y137733D02*
X79695Y138905D01*
X78524Y131229D02*
Y137733D01*
X79695Y105056D02*
X102569D01*
X102569Y105056D01*
X78524Y106227D02*
Y131229D01*
Y106227D02*
X79695Y105056D01*
X36516Y102362D02*
Y105653D01*
X38364Y107502D01*
X36811Y121260D02*
Y125689D01*
X36516Y91342D02*
Y102362D01*
X36122Y102756D02*
X36516Y102362D01*
X23622Y102756D02*
X36122D01*
X23622Y113779D02*
X32597D01*
X32991Y114173D01*
X38784D01*
X39370Y114759D01*
X43015Y90551D02*
X49213D01*
X42224Y102362D02*
X47244D01*
X75276Y90079D02*
X80253Y95056D01*
X75276Y5118D02*
Y21572D01*
X36516Y131494D02*
Y137005D01*
Y125984D02*
Y131494D01*
X78258D02*
X78524Y131229D01*
X36516Y131494D02*
X78258D01*
X35725Y137795D02*
X36516Y137005D01*
Y125984D02*
X36811Y125689D01*
X43015Y137795D02*
X49213D01*
X42224Y125984D02*
X47244D01*
X185276Y85056D02*
Y92356D01*
D36*
X45276Y5118D02*
D03*
D37*
X55276D02*
D03*
X65276D02*
D03*
X75276D02*
D03*
X85276D02*
D03*
X105276D02*
D03*
X115276D02*
D03*
X125276D02*
D03*
X95276D02*
D03*
X135276D02*
D03*
X145276D02*
D03*
X155276D02*
D03*
X165276D02*
D03*
X175276D02*
D03*
X185276D02*
D03*
X195276D02*
D03*
X205276D02*
D03*
X215276D02*
D03*
X225276D02*
D03*
X235276D02*
D03*
X245276D02*
D03*
X255276D02*
D03*
X25276Y195118D02*
D03*
Y185118D02*
D03*
D38*
Y175118D02*
D03*
D39*
X268701Y179134D02*
D03*
X281540Y202756D02*
D03*
X281605Y188761D02*
D03*
X102569Y135056D02*
D03*
Y125056D02*
D03*
Y95056D02*
D03*
X287779Y188752D02*
D03*
X70615Y12139D02*
D03*
X102569Y105056D02*
D03*
Y115056D02*
D03*
X185276Y85056D02*
D03*
Y115056D02*
D03*
D40*
X120571Y191929D02*
D03*
X108268Y167323D02*
D03*
X255906D02*
D03*
Y68898D02*
D03*
Y19685D02*
D03*
X243602Y191929D02*
D03*
X231299Y167323D02*
D03*
X243602Y142717D02*
D03*
X231299Y118110D02*
D03*
X243602Y93504D02*
D03*
X231299Y68898D02*
D03*
X243602Y44291D02*
D03*
X231299Y19685D02*
D03*
X218996Y191929D02*
D03*
X206693Y167323D02*
D03*
X218996Y142717D02*
D03*
X206693Y118110D02*
D03*
X218996Y93504D02*
D03*
X206693Y68898D02*
D03*
X218996Y44291D02*
D03*
X206693Y19685D02*
D03*
X194390Y191929D02*
D03*
X182087Y167323D02*
D03*
X194390Y142717D02*
D03*
Y93504D02*
D03*
X182087Y24685D02*
D03*
X169783Y191929D02*
D03*
X157480Y167323D02*
D03*
X169783Y142717D02*
D03*
X157480Y118110D02*
D03*
Y68898D02*
D03*
X169783Y44291D02*
D03*
X157480Y24685D02*
D03*
X145177Y191929D02*
D03*
X132874Y167323D02*
D03*
X145177Y142717D02*
D03*
X132874Y68898D02*
D03*
X145177Y44291D02*
D03*
X132874Y19685D02*
D03*
X120571Y142717D02*
D03*
Y93504D02*
D03*
X108268Y68898D02*
D03*
X120571Y44291D02*
D03*
X108268Y19685D02*
D03*
X95965Y191929D02*
D03*
X83661Y167323D02*
D03*
X95965Y142717D02*
D03*
X83661Y118110D02*
D03*
Y68898D02*
D03*
X95965Y44291D02*
D03*
X83661Y19685D02*
D03*
X71358Y191929D02*
D03*
X59055Y167323D02*
D03*
X71358Y142717D02*
D03*
X59055Y118110D02*
D03*
X71358Y93504D02*
D03*
X59055Y68898D02*
D03*
Y19685D02*
D03*
X46752Y191929D02*
D03*
X34449Y167323D02*
D03*
Y68898D02*
D03*
X46752Y44291D02*
D03*
X9843Y167323D02*
D03*
X22146Y142717D02*
D03*
X9843Y118110D02*
D03*
X22146Y93504D02*
D03*
X47142Y76670D02*
D03*
X57087Y110236D02*
D03*
X47244Y118110D02*
D03*
X49213Y90551D02*
D03*
X47244Y102362D02*
D03*
X49213Y137795D02*
D03*
X47244Y125984D02*
D03*
D41*
X274787Y186459D02*
D03*
X268488D02*
D03*
X281480Y198592D02*
D03*
X287779D02*
D03*
X281480Y192884D02*
D03*
X287779D02*
D03*
D42*
X37041Y76670D02*
D03*
X42552D02*
D03*
D43*
X47343Y110259D02*
D03*
X52658D02*
D03*
D44*
X185276Y91667D02*
D03*
Y98950D02*
D03*
D45*
X36811Y110571D02*
D03*
X39370D02*
D03*
X41929D02*
D03*
Y117776D02*
D03*
X39370D02*
D03*
X36811D02*
D03*
D46*
X36516Y102362D02*
D03*
X42224D02*
D03*
X36516Y125984D02*
D03*
X42224D02*
D03*
D47*
X43015Y90551D02*
D03*
X35725D02*
D03*
X43015Y137795D02*
D03*
X35725D02*
D03*
D48*
X23622Y113779D02*
D03*
Y102756D02*
D03*
D49*
X75276Y21572D02*
D03*
M02*
