G04*
G04 #@! TF.GenerationSoftware,Altium Limited,Altium Designer,22.7.1 (60)*
G04*
G04 Layer_Color=32768*
%FSLAX25Y25*%
%MOIN*%
G70*
G04*
G04 #@! TF.SameCoordinates,24E4937F-31BC-4FDA-B361-D206D476748A*
G04*
G04*
G04 #@! TF.FilePolarity,Positive*
G04*
G01*
G75*
%ADD10C,0.00787*%
%ADD161C,0.00394*%
%ADD166C,0.00197*%
D10*
X38976Y-4134D02*
X74410D01*
Y23425D01*
X38976D02*
X74410D01*
X38976Y-4134D02*
Y23425D01*
X54193Y8465D02*
X59193D01*
X56693Y5965D02*
Y10965D01*
X69500Y184031D02*
Y187969D01*
X67532Y186000D02*
X71469D01*
X127307Y23567D02*
X159244D01*
X127370Y-2933D02*
Y23567D01*
X127307Y-2933D02*
X159244D01*
Y23567D01*
X143307Y7567D02*
Y12567D01*
X140807Y10067D02*
X145807D01*
X100000Y391732D02*
Y395669D01*
X98032Y393701D02*
X101969D01*
X82284Y368504D02*
X117717D01*
Y407480D01*
X82284D02*
X117717D01*
X82284Y368504D02*
Y407480D01*
X55500Y184031D02*
Y187969D01*
X53531Y186000D02*
X57468D01*
X52756Y391732D02*
Y395669D01*
X50787Y393701D02*
X54724D01*
X35039Y368504D02*
X70473D01*
Y407480D01*
X35039D02*
X70473D01*
X35039Y368504D02*
Y407480D01*
X147244Y391732D02*
Y395669D01*
X145276Y393701D02*
X149213D01*
X129527Y368504D02*
X164961D01*
Y407480D01*
X129527D02*
X164961D01*
X129527Y368504D02*
Y407480D01*
X84000Y23567D02*
X115937D01*
X84063Y-2933D02*
Y23567D01*
X84000Y-2933D02*
X115937D01*
Y23567D01*
X100000Y7567D02*
Y12567D01*
X97500Y10067D02*
X102500D01*
D161*
X108531Y213000D02*
X112469D01*
X110500Y211032D02*
Y214968D01*
X116532Y213000D02*
X120468D01*
X118500Y211032D02*
Y214968D01*
X130500Y232031D02*
Y235968D01*
X128532Y234000D02*
X132468D01*
X130000Y252031D02*
Y255968D01*
X128032Y254000D02*
X131968D01*
X57000Y5315D02*
Y9252D01*
X55032Y7283D02*
X58969D01*
X157000Y209417D02*
Y211583D01*
X155917Y210500D02*
X158083D01*
X152177Y208335D02*
X161823D01*
X152177Y212665D02*
X161823D01*
X152177Y208335D02*
Y212665D01*
X161823Y208335D02*
Y212665D01*
X37500Y75532D02*
Y79469D01*
X35531Y77500D02*
X39469D01*
X157531Y257000D02*
X161469D01*
X159500Y255031D02*
Y258968D01*
X56693Y15889D02*
Y19826D01*
X54724Y17857D02*
X58661D01*
X115630Y253500D02*
X119370D01*
X117500Y251630D02*
Y255370D01*
X158000Y280476D02*
Y282524D01*
X156976Y281500D02*
X159024D01*
X39000Y150319D02*
Y152681D01*
X37819Y151500D02*
X40181D01*
X122531Y368000D02*
X126469D01*
X124500Y366032D02*
Y369969D01*
X139500Y340476D02*
Y342524D01*
X138476Y341500D02*
X140524D01*
X42500Y20476D02*
Y22524D01*
X41476Y21500D02*
X43524D01*
X125000Y75476D02*
Y77524D01*
X123976Y76500D02*
X126024D01*
X133000Y96976D02*
Y99024D01*
X131976Y98000D02*
X134024D01*
X133000Y104976D02*
Y107024D01*
X131976Y106000D02*
X134024D01*
X133000Y89244D02*
Y91291D01*
X131976Y90268D02*
X134024D01*
X39476Y159500D02*
X41524D01*
X40500Y158476D02*
Y160524D01*
X143000Y181709D02*
Y183756D01*
X141976Y182732D02*
X144024D01*
X139000Y181709D02*
Y183756D01*
X137976Y182732D02*
X140024D01*
X128000Y212630D02*
Y216370D01*
X126130Y214500D02*
X129870D01*
X149500Y200976D02*
Y203024D01*
X148476Y202000D02*
X150524D01*
X148476Y206000D02*
X150524D01*
X149500Y204976D02*
Y207024D01*
X109630Y253500D02*
X113370D01*
X111500Y251630D02*
Y255370D01*
X133476Y266500D02*
X135524D01*
X134500Y265476D02*
Y267524D01*
X52500Y326031D02*
Y329969D01*
X50532Y328000D02*
X54469D01*
X18531Y77500D02*
X22468D01*
X20500Y75532D02*
Y79469D01*
X131917Y328000D02*
X134083D01*
X133000Y326917D02*
Y329083D01*
X135165Y323177D02*
Y332823D01*
X130835Y323177D02*
Y332823D01*
Y323177D02*
X135165D01*
X130835Y332823D02*
X135165D01*
X127177Y334335D02*
Y338665D01*
X136823Y334335D02*
Y338665D01*
X127177Y334335D02*
X136823D01*
X127177Y338665D02*
X136823D01*
X130917Y336500D02*
X133083D01*
X132000Y335417D02*
Y337583D01*
X154000Y331917D02*
Y334083D01*
X152917Y333000D02*
X155083D01*
X149177Y330835D02*
X158823D01*
X149177Y335165D02*
X158823D01*
X149177Y330835D02*
Y335165D01*
X158823Y330835D02*
Y335165D01*
Y324835D02*
Y329165D01*
X149177Y324835D02*
Y329165D01*
X158823D01*
X149177Y324835D02*
X158823D01*
X152917Y327000D02*
X155083D01*
X154000Y325917D02*
Y328083D01*
X122835Y90823D02*
X127165D01*
X122835Y81177D02*
X127165D01*
X122835D02*
Y90823D01*
X127165Y81177D02*
Y90823D01*
X125000Y84917D02*
Y87083D01*
X123917Y86000D02*
X126083D01*
X125000Y98417D02*
Y100583D01*
X123917Y99500D02*
X126083D01*
X120177Y101665D02*
X129823D01*
X120177Y97335D02*
X129823D01*
Y101665D01*
X120177Y97335D02*
Y101665D01*
X125000Y103917D02*
Y106083D01*
X123917Y105000D02*
X126083D01*
X120177Y107165D02*
X129823D01*
X120177Y102835D02*
X129823D01*
Y107165D01*
X120177Y102835D02*
Y107165D01*
X125000Y92917D02*
Y95083D01*
X123917Y94000D02*
X126083D01*
X120177Y96165D02*
X129823D01*
X120177Y91835D02*
X129823D01*
Y96165D01*
X120177Y91835D02*
Y96165D01*
X118417Y17000D02*
X120583D01*
X119500Y15917D02*
Y18083D01*
X117335Y12177D02*
Y21823D01*
X121665Y12177D02*
Y21823D01*
X117335D02*
X121665D01*
X117335Y12177D02*
X121665D01*
X123417Y17000D02*
X125583D01*
X124500Y15917D02*
Y18083D01*
X122335Y12177D02*
Y21823D01*
X126665Y12177D02*
Y21823D01*
X122335D02*
X126665D01*
X122335Y12177D02*
X126665D01*
X139917Y253000D02*
X142083D01*
X141000Y251917D02*
Y254083D01*
X143165Y248177D02*
Y257823D01*
X138835Y248177D02*
Y257823D01*
Y248177D02*
X143165D01*
X138835Y257823D02*
X143165D01*
X138835Y268323D02*
X143165D01*
X138835Y258677D02*
X143165D01*
X138835D02*
Y268323D01*
X143165Y258677D02*
Y268323D01*
X141000Y262417D02*
Y264583D01*
X139917Y263500D02*
X142083D01*
X129500Y220917D02*
Y223083D01*
X128417Y222000D02*
X130583D01*
X124677Y219835D02*
X134323D01*
X124677Y224165D02*
X134323D01*
X124677Y219835D02*
Y224165D01*
X134323Y219835D02*
Y224165D01*
X137476Y222000D02*
X139524D01*
X138500Y220976D02*
Y223024D01*
X132476Y206500D02*
X134524D01*
X133500Y205476D02*
Y207524D01*
X132476Y202500D02*
X134524D01*
X133500Y201476D02*
Y203524D01*
X157531Y265000D02*
X161469D01*
X159500Y263032D02*
Y266968D01*
X157531Y273000D02*
X161469D01*
X159500Y271031D02*
Y274969D01*
D166*
X106760Y206307D02*
Y219693D01*
X114240Y206307D02*
Y219693D01*
X106760D02*
X114240D01*
X106760Y206307D02*
X114240D01*
X114760D02*
Y219693D01*
X122240Y206307D02*
Y219693D01*
X114760D02*
X122240D01*
X114760Y206307D02*
X122240D01*
X144905Y136386D02*
Y144850D01*
X147858D01*
Y151150D01*
X144905D02*
X147858D01*
X144905D02*
Y159614D01*
X133095D02*
X144905D01*
X133095Y158039D02*
Y159614D01*
X130535Y158039D02*
X133095D01*
X130535Y137961D02*
Y158039D01*
Y137961D02*
X133095D01*
Y136386D02*
Y137961D01*
Y136386D02*
X144905D01*
X80535Y108539D02*
X92465D01*
X80535Y93461D02*
X92465D01*
X80535D02*
Y108539D01*
X92465Y93461D02*
Y108539D01*
X66535Y295449D02*
Y303913D01*
X69488D01*
Y310213D01*
X66535D02*
X69488D01*
X66535D02*
Y318677D01*
X54724D02*
X66535D01*
X54724Y317102D02*
Y318677D01*
X52165Y317102D02*
X54724D01*
X52165Y297024D02*
Y317102D01*
Y297024D02*
X54724D01*
Y295449D02*
Y297024D01*
Y295449D02*
X66535D01*
X127756Y305095D02*
X136221D01*
Y302142D02*
Y305095D01*
Y302142D02*
X142520D01*
Y305095D01*
X150984D01*
Y316905D01*
X149409D02*
X150984D01*
X149409D02*
Y319465D01*
X129331D02*
X149409D01*
X129331Y316905D02*
Y319465D01*
X127756Y316905D02*
X129331D01*
X127756Y305095D02*
Y316905D01*
X118394Y224551D02*
X142606D01*
X118394Y243449D02*
X142606D01*
X118394Y224551D02*
Y243449D01*
X142606Y224551D02*
Y243449D01*
X121634Y243665D02*
X138366D01*
X121634Y264335D02*
X138366D01*
X121634Y243665D02*
Y264335D01*
X138366Y243665D02*
Y264335D01*
X106780Y51079D02*
X124221D01*
X106780Y60921D02*
X124221D01*
X106780Y51079D02*
Y60921D01*
X124221Y51079D02*
Y60921D01*
X64776Y176945D02*
Y195055D01*
X74224Y176945D02*
Y195055D01*
X64776D02*
X74224D01*
X64776Y176945D02*
X74224D01*
X48142Y11614D02*
X65858D01*
X48142Y2953D02*
X65858D01*
Y11614D01*
X48142Y2953D02*
Y11614D01*
X163358Y181642D02*
Y199358D01*
X145642D02*
X163358D01*
X145642Y181642D02*
Y199358D01*
Y181642D02*
X163358D01*
X29232Y62933D02*
Y92067D01*
Y62933D02*
X45768D01*
X29232Y92067D02*
X45768D01*
Y62933D02*
Y92067D01*
X153398Y253752D02*
Y260248D01*
X165602Y253752D02*
Y260248D01*
X153398Y253752D02*
X165602D01*
X153398Y260248D02*
X165602D01*
X47441Y22385D02*
X65945D01*
X47441Y13330D02*
X65945D01*
Y22385D01*
X47441Y13330D02*
Y22385D01*
X120453Y248185D02*
Y258815D01*
X114547Y248185D02*
Y258815D01*
Y248185D02*
X120453D01*
X114547Y258815D02*
X120453D01*
X154260Y279532D02*
X161740D01*
X154260Y283469D02*
X161740D01*
X154260Y279532D02*
Y283469D01*
X161740Y279532D02*
Y283469D01*
X31913Y162622D02*
X46087D01*
X31913Y140378D02*
Y162622D01*
Y140378D02*
X46087D01*
Y162622D01*
X142441Y221724D02*
X151559D01*
X142441Y208276D02*
X151559D01*
Y221724D01*
X142441Y208276D02*
Y221724D01*
X119972Y358748D02*
Y377252D01*
X129028Y358748D02*
Y377252D01*
X119972D02*
X129028D01*
X119972Y358748D02*
X129028D01*
X135760Y339531D02*
X143240D01*
X135760Y343468D02*
X143240D01*
X135760Y339531D02*
Y343468D01*
X143240Y339531D02*
Y343468D01*
X38760Y19532D02*
X46240D01*
X38760Y23469D02*
X46240D01*
X38760Y19532D02*
Y23469D01*
X46240Y19532D02*
Y23469D01*
X123031Y72760D02*
X126969D01*
X123031Y80240D02*
X126969D01*
Y72760D02*
Y80240D01*
X123031Y72760D02*
Y80240D01*
X131032Y94260D02*
X134968D01*
X131032Y101740D02*
X134968D01*
Y94260D02*
Y101740D01*
X131032Y94260D02*
Y101740D01*
X131032Y109740D02*
X134968D01*
X131032Y102260D02*
X134968D01*
X131032D02*
Y109740D01*
X134968Y102260D02*
Y109740D01*
X131032Y86528D02*
X134968D01*
X131032Y94008D02*
X134968D01*
Y86528D02*
Y94008D01*
X131032Y86528D02*
Y94008D01*
X44240Y157531D02*
Y161469D01*
X36760Y157531D02*
Y161469D01*
X44240D01*
X36760Y157531D02*
X44240D01*
X141032Y186472D02*
X144968D01*
X141032Y178992D02*
X144968D01*
X141032D02*
Y186472D01*
X144968Y178992D02*
Y186472D01*
X137031Y178992D02*
X140969D01*
X137031Y186472D02*
X140969D01*
Y178992D02*
Y186472D01*
X137031Y178992D02*
Y186472D01*
X125047Y209185D02*
X130953D01*
X125047Y219815D02*
X130953D01*
Y209185D02*
Y219815D01*
X125047Y209185D02*
Y219815D01*
X145760Y200031D02*
X153240D01*
X145760Y203969D02*
X153240D01*
X145760Y200031D02*
Y203969D01*
X153240Y200031D02*
Y203969D01*
Y204031D02*
Y207968D01*
X145760Y204031D02*
Y207968D01*
X153240D01*
X145760Y204031D02*
X153240D01*
X114453Y248185D02*
Y258815D01*
X108547Y248185D02*
Y258815D01*
Y248185D02*
X114453D01*
X108547Y258815D02*
X114453D01*
X138240Y264531D02*
Y268468D01*
X130760Y264531D02*
Y268468D01*
X138240D01*
X130760Y264531D02*
X138240D01*
X37933Y336268D02*
X67067D01*
X37933Y319732D02*
X67067D01*
Y336268D01*
X37933Y319732D02*
Y336268D01*
X12232Y62933D02*
Y92067D01*
X28768Y62933D02*
Y92067D01*
X12232D02*
X28768D01*
X12232Y62933D02*
X28768D01*
X50776Y176945D02*
Y195055D01*
X60224Y176945D02*
Y195055D01*
X50776D02*
X60224D01*
X50776Y176945D02*
X60224D01*
X134760Y220031D02*
Y223969D01*
X142240Y220031D02*
Y223969D01*
X134760Y220031D02*
X142240D01*
X134760Y223969D02*
X142240D01*
X129760Y204532D02*
Y208469D01*
X137240Y204532D02*
Y208469D01*
X129760Y204532D02*
X137240D01*
X129760Y208469D02*
X137240D01*
X137240Y200532D02*
Y204468D01*
X129760Y200532D02*
Y204468D01*
X137240D01*
X129760Y200532D02*
X137240D01*
X153398Y261752D02*
Y268248D01*
X165602Y261752D02*
Y268248D01*
X153398Y261752D02*
X165602D01*
X153398Y268248D02*
X165602D01*
X153398Y269752D02*
Y276248D01*
X165602Y269752D02*
Y276248D01*
X153398Y269752D02*
X165602D01*
X153398Y276248D02*
X165602D01*
M02*
