G04*
G04 #@! TF.GenerationSoftware,Altium Limited,Altium Designer,22.7.1 (60)*
G04*
G04 Layer_Color=128*
%FSLAX25Y25*%
%MOIN*%
G70*
G04*
G04 #@! TF.SameCoordinates,24E4937F-31BC-4FDA-B361-D206D476748A*
G04*
G04*
G04 #@! TF.FilePolarity,Positive*
G04*
G01*
G75*
%ADD62R,0.05512X0.05118*%
%ADD63R,0.06299X0.03937*%
G04:AMPARAMS|DCode=64|XSize=18.23mil|YSize=8.66mil|CornerRadius=1.08mil|HoleSize=0mil|Usage=FLASHONLY|Rotation=270.000|XOffset=0mil|YOffset=0mil|HoleType=Round|Shape=RoundedRectangle|*
%AMROUNDEDRECTD64*
21,1,0.01823,0.00650,0,0,270.0*
21,1,0.01606,0.00866,0,0,270.0*
1,1,0.00217,-0.00325,-0.00803*
1,1,0.00217,-0.00325,0.00803*
1,1,0.00217,0.00325,0.00803*
1,1,0.00217,0.00325,-0.00803*
%
%ADD64ROUNDEDRECTD64*%
G04:AMPARAMS|DCode=65|XSize=22.13mil|YSize=8.86mil|CornerRadius=1.11mil|HoleSize=0mil|Usage=FLASHONLY|Rotation=0.000|XOffset=0mil|YOffset=0mil|HoleType=Round|Shape=RoundedRectangle|*
%AMROUNDEDRECTD65*
21,1,0.02213,0.00664,0,0,0.0*
21,1,0.01991,0.00886,0,0,0.0*
1,1,0.00222,0.00996,-0.00332*
1,1,0.00222,-0.00996,-0.00332*
1,1,0.00222,-0.00996,0.00332*
1,1,0.00222,0.00996,0.00332*
%
%ADD65ROUNDEDRECTD65*%
G04:AMPARAMS|DCode=66|XSize=18.23mil|YSize=8.66mil|CornerRadius=1.08mil|HoleSize=0mil|Usage=FLASHONLY|Rotation=0.000|XOffset=0mil|YOffset=0mil|HoleType=Round|Shape=RoundedRectangle|*
%AMROUNDEDRECTD66*
21,1,0.01823,0.00650,0,0,0.0*
21,1,0.01606,0.00866,0,0,0.0*
1,1,0.00217,0.00803,-0.00325*
1,1,0.00217,-0.00803,-0.00325*
1,1,0.00217,-0.00803,0.00325*
1,1,0.00217,0.00803,0.00325*
%
%ADD66ROUNDEDRECTD66*%
%ADD67R,0.03937X0.06299*%
%ADD68R,0.09055X0.09055*%
%ADD69R,0.01968X0.00984*%
%ADD70R,0.03307X0.09449*%
%ADD71R,0.08661X0.13780*%
%ADD72C,0.00965*%
%ADD73R,0.05709X0.04528*%
%ADD74R,0.16339X0.18307*%
%ADD75R,0.00787X0.03051*%
%ADD76R,0.06221X0.11221*%
%ADD77O,0.02362X0.00945*%
%ADD78R,0.01181X0.03898*%
G04:AMPARAMS|DCode=79|XSize=44.09mil|YSize=10.63mil|CornerRadius=1.33mil|HoleSize=0mil|Usage=FLASHONLY|Rotation=0.000|XOffset=0mil|YOffset=0mil|HoleType=Round|Shape=RoundedRectangle|*
%AMROUNDEDRECTD79*
21,1,0.04409,0.00797,0,0,0.0*
21,1,0.04144,0.01063,0,0,0.0*
1,1,0.00266,0.02072,-0.00399*
1,1,0.00266,-0.02072,-0.00399*
1,1,0.00266,-0.02072,0.00399*
1,1,0.00266,0.02072,0.00399*
%
%ADD79ROUNDEDRECTD79*%
%ADD80R,0.01968X0.01673*%
%ADD81R,0.01968X0.00984*%
%ADD82R,0.04724X0.06496*%
%ADD83R,0.02953X0.02362*%
%ADD84R,0.01378X0.03150*%
%ADD85R,0.01378X0.03543*%
%ADD86R,0.02756X0.02756*%
%ADD87R,0.01968X0.05512*%
%ADD88R,0.02756X0.02953*%
%ADD89R,0.07480X0.01772*%
%ADD90R,0.02756X0.03543*%
%ADD91R,0.02559X0.04724*%
%ADD92R,0.09449X0.01772*%
%ADD93R,0.11417X0.01772*%
%ADD94R,0.02362X0.02362*%
%ADD95R,0.13386X0.03858*%
%ADD96R,0.03937X0.02756*%
%ADD97R,0.08465X0.09646*%
%ADD98R,0.03347X0.04331*%
%ADD99R,0.05118X0.07087*%
%ADD100R,0.03937X0.03543*%
%ADD101R,0.02362X0.02520*%
%ADD102R,0.07165X0.04724*%
%ADD103R,0.07087X0.05118*%
%ADD104R,0.02520X0.02362*%
%ADD105R,0.09646X0.08465*%
%ADD106R,0.02756X0.03937*%
%ADD107R,0.02362X0.02953*%
D62*
X110500Y216150D02*
D03*
Y209850D02*
D03*
X118500Y216150D02*
D03*
Y209850D02*
D03*
D63*
X143528Y148000D02*
D03*
X134472Y141110D02*
D03*
Y154890D02*
D03*
X65158Y307063D02*
D03*
X56102Y300173D02*
D03*
Y313953D02*
D03*
D64*
X84138Y105902D02*
D03*
X85713D02*
D03*
X87287D02*
D03*
X88862D02*
D03*
Y96098D02*
D03*
X87287D02*
D03*
X85713D02*
D03*
X84138D02*
D03*
D65*
X83370Y98638D02*
D03*
D66*
X83173Y100213D02*
D03*
Y101787D02*
D03*
Y103362D02*
D03*
X89827D02*
D03*
Y101787D02*
D03*
Y100213D02*
D03*
Y98638D02*
D03*
D67*
X139370Y306472D02*
D03*
X132480Y315528D02*
D03*
X146260D02*
D03*
D68*
X77500Y367358D02*
D03*
Y349642D02*
D03*
D69*
X146740Y327063D02*
D03*
X139260D02*
D03*
X146740Y329031D02*
D03*
X139260D02*
D03*
X146740Y331000D02*
D03*
X139260D02*
D03*
X146740Y332968D02*
D03*
X139260D02*
D03*
X146740Y334937D02*
D03*
X139260D02*
D03*
D70*
X143000Y331000D02*
D03*
D71*
X123216Y234000D02*
D03*
X137784D02*
D03*
D72*
X136925Y211276D02*
D03*
Y212850D02*
D03*
Y214425D02*
D03*
Y216000D02*
D03*
X138500Y211276D02*
D03*
Y212850D02*
D03*
Y214425D02*
D03*
Y216000D02*
D03*
D73*
X143366Y372764D02*
D03*
X151122D02*
D03*
X148122Y249827D02*
D03*
X155878D02*
D03*
X48878Y372764D02*
D03*
X56634D02*
D03*
X103878D02*
D03*
X96122D02*
D03*
D74*
X146744Y358000D02*
D03*
X152000Y235063D02*
D03*
X52756Y358000D02*
D03*
X100000D02*
D03*
D75*
X127284Y261087D02*
D03*
X129095D02*
D03*
X130905D02*
D03*
X132717D02*
D03*
Y246913D02*
D03*
X130905D02*
D03*
X129095D02*
D03*
X127284D02*
D03*
D76*
X130000Y254000D02*
D03*
D77*
X124488Y259906D02*
D03*
Y257937D02*
D03*
Y255968D02*
D03*
Y254000D02*
D03*
Y252031D02*
D03*
Y250063D02*
D03*
Y248095D02*
D03*
X135512D02*
D03*
Y250063D02*
D03*
Y252031D02*
D03*
Y254000D02*
D03*
Y255968D02*
D03*
Y257937D02*
D03*
Y259906D02*
D03*
D78*
X130032Y75331D02*
D03*
X132000D02*
D03*
X133968D02*
D03*
X132000Y81669D02*
D03*
X130032D02*
D03*
X133968D02*
D03*
D79*
X109968Y53047D02*
D03*
Y55016D02*
D03*
Y56984D02*
D03*
Y58953D02*
D03*
X121031D02*
D03*
Y56984D02*
D03*
Y55016D02*
D03*
Y53047D02*
D03*
D80*
X72453Y178766D02*
D03*
Y193234D02*
D03*
X66547D02*
D03*
Y178766D02*
D03*
X58453D02*
D03*
Y193234D02*
D03*
X52547D02*
D03*
Y178766D02*
D03*
D81*
X72453Y181079D02*
D03*
Y188953D02*
D03*
Y183047D02*
D03*
Y185016D02*
D03*
Y186984D02*
D03*
Y190921D02*
D03*
X66547D02*
D03*
Y186984D02*
D03*
Y185016D02*
D03*
Y183047D02*
D03*
Y188953D02*
D03*
Y181079D02*
D03*
X58453D02*
D03*
Y188953D02*
D03*
Y183047D02*
D03*
Y185016D02*
D03*
Y186984D02*
D03*
Y190921D02*
D03*
X52547D02*
D03*
Y186984D02*
D03*
Y185016D02*
D03*
Y183047D02*
D03*
Y188953D02*
D03*
Y181079D02*
D03*
D82*
X62512Y7283D02*
D03*
X51488D02*
D03*
D83*
X154736Y210500D02*
D03*
X159264D02*
D03*
X129736Y336500D02*
D03*
X134264D02*
D03*
X151736Y333000D02*
D03*
X156264D02*
D03*
Y327000D02*
D03*
X151736D02*
D03*
X127264Y99500D02*
D03*
X122736D02*
D03*
X127264Y105000D02*
D03*
X122736D02*
D03*
X127264Y94000D02*
D03*
X122736D02*
D03*
X127236Y222000D02*
D03*
X131764D02*
D03*
D84*
X143059Y198000D02*
D03*
X140500D02*
D03*
X137941D02*
D03*
Y190795D02*
D03*
X140500D02*
D03*
D85*
X143059Y190992D02*
D03*
D86*
X159055Y99410D02*
D03*
D87*
X140354Y91260D02*
D03*
Y73937D02*
D03*
D88*
X151969Y98721D02*
D03*
D89*
X168307Y100689D02*
D03*
Y56693D02*
D03*
D90*
X172165Y92598D02*
D03*
X184646Y92205D02*
D03*
Y82598D02*
D03*
X172165D02*
D03*
Y72598D02*
D03*
X184646Y72992D02*
D03*
D91*
X144587Y84764D02*
D03*
D92*
X148031Y56693D02*
D03*
D93*
X187402Y100689D02*
D03*
Y56693D02*
D03*
D94*
X191929Y87402D02*
D03*
Y77795D02*
D03*
D95*
X154500Y185835D02*
D03*
Y195165D02*
D03*
D96*
X52000Y165654D02*
D03*
Y172346D02*
D03*
D97*
X37500Y69035D02*
D03*
Y85965D02*
D03*
X20500D02*
D03*
Y69035D02*
D03*
D98*
X155858Y257000D02*
D03*
X163142D02*
D03*
X155858Y265000D02*
D03*
X163142D02*
D03*
X155858Y273000D02*
D03*
X163142D02*
D03*
D99*
X62402Y17857D02*
D03*
X50984D02*
D03*
D100*
X117500Y250842D02*
D03*
Y256157D02*
D03*
X128000Y211842D02*
D03*
Y217158D02*
D03*
X111500Y250842D02*
D03*
Y256157D02*
D03*
D101*
X156268Y281500D02*
D03*
X159732D02*
D03*
X137768Y341500D02*
D03*
X141232D02*
D03*
X40768Y21500D02*
D03*
X44232D02*
D03*
X42232Y159500D02*
D03*
X38768D02*
D03*
X147768Y202000D02*
D03*
X151232D02*
D03*
Y206000D02*
D03*
X147768D02*
D03*
X136232Y266500D02*
D03*
X132768D02*
D03*
X136768Y222000D02*
D03*
X140232D02*
D03*
X131768Y206500D02*
D03*
X135232D02*
D03*
X135232Y202500D02*
D03*
X131768D02*
D03*
D102*
X147000Y218386D02*
D03*
Y211614D02*
D03*
D103*
X124500Y373709D02*
D03*
Y362291D02*
D03*
D104*
X125000Y74768D02*
D03*
Y78232D02*
D03*
X133000Y96268D02*
D03*
Y99732D02*
D03*
Y107732D02*
D03*
Y104268D02*
D03*
Y88535D02*
D03*
Y92000D02*
D03*
X143000Y184465D02*
D03*
Y181000D02*
D03*
X139000D02*
D03*
Y184465D02*
D03*
D105*
X60965Y328000D02*
D03*
X44035D02*
D03*
D106*
X132346Y187500D02*
D03*
X125654D02*
D03*
D107*
X133000Y325736D02*
D03*
Y330264D02*
D03*
X125000Y88264D02*
D03*
Y83736D02*
D03*
X119500Y19264D02*
D03*
Y14736D02*
D03*
X124500Y19264D02*
D03*
Y14736D02*
D03*
X141000Y250736D02*
D03*
Y255264D02*
D03*
Y265764D02*
D03*
Y261236D02*
D03*
M02*
