G04*
G04 #@! TF.GenerationSoftware,Altium Limited,Altium Designer,22.7.1 (60)*
G04*
G04 Layer_Physical_Order=4*
G04 Layer_Color=16711680*
%FSLAX25Y25*%
%MOIN*%
G70*
G04*
G04 #@! TF.SameCoordinates,24E4937F-31BC-4FDA-B361-D206D476748A*
G04*
G04*
G04 #@! TF.FilePolarity,Positive*
G04*
G01*
G75*
%ADD10C,0.00787*%
%ADD12O,0.03543X0.06299*%
%ADD44C,0.03937*%
%ADD45C,0.00984*%
%ADD46C,0.00700*%
%ADD47C,0.01575*%
%ADD48C,0.03937*%
%ADD49C,0.07874*%
%ADD50C,0.02362*%
%ADD51C,0.07874*%
%ADD52R,0.07874X0.06299*%
%ADD53O,0.07874X0.06299*%
%ADD54C,0.23622*%
G04:AMPARAMS|DCode=55|XSize=43.31mil|YSize=122.05mil|CornerRadius=21.65mil|HoleSize=0mil|Usage=FLASHONLY|Rotation=0.000|XOffset=0mil|YOffset=0mil|HoleType=Round|Shape=RoundedRectangle|*
%AMROUNDEDRECTD55*
21,1,0.04331,0.07874,0,0,0.0*
21,1,0.00000,0.12205,0,0,0.0*
1,1,0.04331,0.00000,-0.03937*
1,1,0.04331,0.00000,-0.03937*
1,1,0.04331,0.00000,0.03937*
1,1,0.04331,0.00000,0.03937*
%
%ADD55ROUNDEDRECTD55*%
G04:AMPARAMS|DCode=56|XSize=45.67mil|YSize=122.05mil|CornerRadius=22.84mil|HoleSize=0mil|Usage=FLASHONLY|Rotation=0.000|XOffset=0mil|YOffset=0mil|HoleType=Round|Shape=RoundedRectangle|*
%AMROUNDEDRECTD56*
21,1,0.04567,0.07638,0,0,0.0*
21,1,0.00000,0.12205,0,0,0.0*
1,1,0.04567,0.00000,-0.03819*
1,1,0.04567,0.00000,-0.03819*
1,1,0.04567,0.00000,0.03819*
1,1,0.04567,0.00000,0.03819*
%
%ADD56ROUNDEDRECTD56*%
%ADD57C,0.10000*%
%ADD58C,0.12992*%
%ADD59C,0.01772*%
%ADD60C,0.05000*%
%ADD62R,0.05512X0.05118*%
%ADD63R,0.06299X0.03937*%
G04:AMPARAMS|DCode=64|XSize=18.23mil|YSize=8.66mil|CornerRadius=1.08mil|HoleSize=0mil|Usage=FLASHONLY|Rotation=270.000|XOffset=0mil|YOffset=0mil|HoleType=Round|Shape=RoundedRectangle|*
%AMROUNDEDRECTD64*
21,1,0.01823,0.00650,0,0,270.0*
21,1,0.01606,0.00866,0,0,270.0*
1,1,0.00217,-0.00325,-0.00803*
1,1,0.00217,-0.00325,0.00803*
1,1,0.00217,0.00325,0.00803*
1,1,0.00217,0.00325,-0.00803*
%
%ADD64ROUNDEDRECTD64*%
G04:AMPARAMS|DCode=65|XSize=22.13mil|YSize=8.86mil|CornerRadius=1.11mil|HoleSize=0mil|Usage=FLASHONLY|Rotation=0.000|XOffset=0mil|YOffset=0mil|HoleType=Round|Shape=RoundedRectangle|*
%AMROUNDEDRECTD65*
21,1,0.02213,0.00664,0,0,0.0*
21,1,0.01991,0.00886,0,0,0.0*
1,1,0.00222,0.00996,-0.00332*
1,1,0.00222,-0.00996,-0.00332*
1,1,0.00222,-0.00996,0.00332*
1,1,0.00222,0.00996,0.00332*
%
%ADD65ROUNDEDRECTD65*%
G04:AMPARAMS|DCode=66|XSize=18.23mil|YSize=8.66mil|CornerRadius=1.08mil|HoleSize=0mil|Usage=FLASHONLY|Rotation=0.000|XOffset=0mil|YOffset=0mil|HoleType=Round|Shape=RoundedRectangle|*
%AMROUNDEDRECTD66*
21,1,0.01823,0.00650,0,0,0.0*
21,1,0.01606,0.00866,0,0,0.0*
1,1,0.00217,0.00803,-0.00325*
1,1,0.00217,-0.00803,-0.00325*
1,1,0.00217,-0.00803,0.00325*
1,1,0.00217,0.00803,0.00325*
%
%ADD66ROUNDEDRECTD66*%
%ADD67R,0.03937X0.06299*%
%ADD68R,0.09055X0.09055*%
%ADD69R,0.01968X0.00984*%
%ADD70R,0.03307X0.09449*%
%ADD71R,0.08661X0.13780*%
%ADD72C,0.00965*%
%ADD73R,0.05709X0.04528*%
%ADD74R,0.16339X0.18307*%
%ADD75R,0.00787X0.03051*%
%ADD76R,0.06221X0.11221*%
%ADD77O,0.02362X0.00945*%
%ADD78R,0.01181X0.03898*%
G04:AMPARAMS|DCode=79|XSize=44.09mil|YSize=10.63mil|CornerRadius=1.33mil|HoleSize=0mil|Usage=FLASHONLY|Rotation=0.000|XOffset=0mil|YOffset=0mil|HoleType=Round|Shape=RoundedRectangle|*
%AMROUNDEDRECTD79*
21,1,0.04409,0.00797,0,0,0.0*
21,1,0.04144,0.01063,0,0,0.0*
1,1,0.00266,0.02072,-0.00399*
1,1,0.00266,-0.02072,-0.00399*
1,1,0.00266,-0.02072,0.00399*
1,1,0.00266,0.02072,0.00399*
%
%ADD79ROUNDEDRECTD79*%
%ADD80R,0.01968X0.01673*%
%ADD81R,0.01968X0.00984*%
%ADD82R,0.04724X0.06496*%
%ADD83R,0.02953X0.02362*%
%ADD84R,0.01378X0.03150*%
%ADD85R,0.01378X0.03543*%
%ADD86R,0.02756X0.02756*%
%ADD87R,0.01968X0.05512*%
%ADD88R,0.02756X0.02953*%
%ADD89R,0.07480X0.01772*%
%ADD90R,0.02756X0.03543*%
%ADD91R,0.02559X0.04724*%
%ADD92R,0.09449X0.01772*%
%ADD93R,0.11417X0.01772*%
%ADD94R,0.02362X0.02362*%
%ADD95R,0.13386X0.03858*%
%ADD96R,0.03937X0.02756*%
%ADD97R,0.08465X0.09646*%
%ADD98R,0.03347X0.04331*%
%ADD99R,0.05118X0.07087*%
%ADD100R,0.03937X0.03543*%
%ADD101R,0.02362X0.02520*%
%ADD102R,0.07165X0.04724*%
%ADD103R,0.07087X0.05118*%
%ADD104R,0.02520X0.02362*%
%ADD105R,0.09646X0.08465*%
%ADD106R,0.02756X0.03937*%
%ADD107R,0.02362X0.02953*%
%ADD108C,0.03150*%
%ADD109C,0.05906*%
%ADD110C,0.00984*%
%ADD111C,0.01968*%
G36*
X94940Y368353D02*
X96122Y368197D01*
X100803D01*
X109433Y359567D01*
Y352977D01*
X109433Y352977D01*
X109589Y351795D01*
X110000Y350803D01*
Y343500D01*
X108500Y342000D01*
X42000D01*
X42000Y366500D01*
X44000Y368500D01*
X47341D01*
X47696Y368353D01*
X48878Y368197D01*
X56634D01*
X57816Y368353D01*
X58171Y368500D01*
X72185D01*
Y362043D01*
X82815D01*
Y368500D01*
X94585D01*
X94940Y368353D01*
D02*
G37*
G36*
X192708Y404381D02*
X194381Y403687D01*
X195888Y402681D01*
X197169Y401400D01*
X198176Y399893D01*
X198869Y398219D01*
X199222Y396443D01*
Y395537D01*
Y370141D01*
X189701D01*
Y362142D01*
X199222D01*
Y358359D01*
X198940Y358235D01*
X198722Y358220D01*
X198128Y358994D01*
X197293Y359635D01*
X196320Y360038D01*
X195276Y360176D01*
X193701D01*
X192657Y360038D01*
X191684Y359635D01*
X190848Y358994D01*
X190207Y358159D01*
X189804Y357186D01*
X189667Y356142D01*
X189804Y355098D01*
X190207Y354125D01*
X190848Y353289D01*
X191684Y352648D01*
X192657Y352245D01*
X193701Y352108D01*
X195276D01*
X196320Y352245D01*
X197293Y352648D01*
X198128Y353289D01*
X198722Y354063D01*
X198940Y354049D01*
X199222Y353924D01*
Y348359D01*
X198940Y348235D01*
X198722Y348220D01*
X198128Y348994D01*
X197293Y349635D01*
X196320Y350038D01*
X195276Y350176D01*
X193701D01*
X192657Y350038D01*
X191684Y349635D01*
X190848Y348994D01*
X190207Y348159D01*
X189804Y347186D01*
X189667Y346142D01*
X189804Y345098D01*
X190207Y344125D01*
X190848Y343289D01*
X191684Y342648D01*
X192657Y342245D01*
X193701Y342108D01*
X195276D01*
X196320Y342245D01*
X197293Y342648D01*
X198128Y343289D01*
X198722Y344063D01*
X198940Y344049D01*
X199222Y343924D01*
Y338359D01*
X198940Y338234D01*
X198722Y338220D01*
X198128Y338994D01*
X197293Y339635D01*
X196320Y340038D01*
X195276Y340176D01*
X193701D01*
X192657Y340038D01*
X191684Y339635D01*
X190848Y338994D01*
X190207Y338159D01*
X189804Y337186D01*
X189667Y336142D01*
X189804Y335098D01*
X190207Y334125D01*
X190848Y333289D01*
X191684Y332648D01*
X192657Y332245D01*
X193701Y332108D01*
X195276D01*
X196320Y332245D01*
X197293Y332648D01*
X198128Y333289D01*
X198722Y334063D01*
X198940Y334049D01*
X199222Y333924D01*
Y328359D01*
X198940Y328235D01*
X198722Y328220D01*
X198128Y328994D01*
X197293Y329635D01*
X196320Y330038D01*
X195276Y330176D01*
X193701D01*
X192657Y330038D01*
X191684Y329635D01*
X190848Y328994D01*
X190207Y328159D01*
X189804Y327186D01*
X189667Y326142D01*
X189804Y325098D01*
X190207Y324125D01*
X190848Y323289D01*
X191684Y322648D01*
X192657Y322245D01*
X193701Y322108D01*
X195276D01*
X196320Y322245D01*
X197293Y322648D01*
X198128Y323289D01*
X198722Y324063D01*
X198940Y324049D01*
X199222Y323924D01*
Y318359D01*
X198940Y318234D01*
X198722Y318220D01*
X198128Y318994D01*
X197293Y319635D01*
X196320Y320038D01*
X195276Y320176D01*
X193701D01*
X192657Y320038D01*
X191684Y319635D01*
X190848Y318994D01*
X190207Y318159D01*
X189804Y317186D01*
X189667Y316142D01*
X189804Y315098D01*
X190207Y314125D01*
X190848Y313289D01*
X191684Y312648D01*
X192657Y312245D01*
X193701Y312108D01*
X195276D01*
X196320Y312245D01*
X197293Y312648D01*
X198128Y313289D01*
X198722Y314063D01*
X198940Y314049D01*
X199222Y313924D01*
Y308359D01*
X198940Y308235D01*
X198722Y308220D01*
X198128Y308994D01*
X197293Y309635D01*
X196320Y310038D01*
X195276Y310176D01*
X193701D01*
X192657Y310038D01*
X191684Y309635D01*
X190848Y308994D01*
X190207Y308159D01*
X189804Y307186D01*
X189667Y306142D01*
X189804Y305098D01*
X190207Y304125D01*
X190232Y304092D01*
X174790Y288650D01*
X174573Y288325D01*
X174496Y287941D01*
Y267301D01*
X174274Y267170D01*
X173996Y267093D01*
X173576Y267374D01*
X173000Y267488D01*
X172424Y267374D01*
X171936Y267047D01*
X171609Y266559D01*
X171495Y265983D01*
X171609Y265407D01*
X171936Y264918D01*
X171996Y264878D01*
Y196416D01*
X163290Y187710D01*
X163204Y187581D01*
X162704Y187732D01*
Y188000D01*
X162613Y188461D01*
X162352Y188851D01*
X161961Y189113D01*
X161500Y189204D01*
X147000D01*
X146539Y189113D01*
X146204Y188889D01*
X145957Y188953D01*
X145704Y189087D01*
Y191439D01*
X146166Y191631D01*
X147149Y190648D01*
X147539Y190387D01*
X148000Y190296D01*
X148000Y190296D01*
X162500D01*
X162961Y190387D01*
X163352Y190648D01*
X163613Y191039D01*
X163704Y191500D01*
Y197500D01*
X163696Y197542D01*
X163701Y197585D01*
X163650Y197772D01*
X163613Y197961D01*
X163589Y197997D01*
X163577Y198039D01*
X163459Y198191D01*
X163352Y198352D01*
X163315Y198376D01*
X163289Y198410D01*
X163121Y198505D01*
X162961Y198613D01*
X162918Y198621D01*
X162881Y198642D01*
X161381Y199142D01*
X161189Y199167D01*
X161000Y199204D01*
X150204D01*
Y207045D01*
X150229Y207082D01*
X150399Y207196D01*
X151972Y208769D01*
X152472Y208562D01*
Y208531D01*
X153206D01*
X153524Y208145D01*
X153495Y208000D01*
X153609Y207424D01*
X153936Y206936D01*
X154424Y206609D01*
X155000Y206495D01*
X155576Y206609D01*
X156064Y206936D01*
X156391Y207424D01*
X156505Y208000D01*
X156476Y208145D01*
X156794Y208531D01*
X157000D01*
Y212469D01*
X152704D01*
Y213885D01*
X152693Y213944D01*
X152699Y214003D01*
X152647Y214173D01*
X152613Y214346D01*
X152579Y214396D01*
X152562Y214453D01*
X152450Y214590D01*
X152351Y214737D01*
X152302Y214770D01*
X152264Y214816D01*
X152070Y214976D01*
X152113Y215039D01*
X152204Y215500D01*
Y217259D01*
X152704Y217428D01*
X153003Y217039D01*
X154271Y215771D01*
X155217Y215045D01*
X156318Y214589D01*
X157500Y214433D01*
X158682Y214589D01*
X159783Y215045D01*
X160729Y215771D01*
X161455Y216717D01*
X161911Y217818D01*
X162067Y219000D01*
X161911Y220182D01*
X161455Y221283D01*
X160799Y222138D01*
Y225122D01*
X160957D01*
Y245004D01*
X159414D01*
X159207Y245504D01*
X159852Y246148D01*
X160113Y246539D01*
X160204Y247000D01*
X160204Y247000D01*
Y279453D01*
X160113Y279914D01*
X159852Y280304D01*
X159461Y280565D01*
X159000Y280657D01*
X158968D01*
Y282736D01*
X158968Y282736D01*
X158876Y283197D01*
X158615Y283588D01*
X158615Y283588D01*
X157852Y284351D01*
X157461Y284613D01*
X157000Y284704D01*
X157000Y284704D01*
X150500D01*
X150039Y284613D01*
X149648Y284351D01*
X149387Y283961D01*
X149296Y283500D01*
Y256499D01*
X147001Y254204D01*
X142968D01*
Y257528D01*
X142104D01*
Y258972D01*
X142968D01*
Y263500D01*
X139032D01*
Y258972D01*
X139896D01*
Y257528D01*
X139032D01*
Y256843D01*
X138531Y256636D01*
X138438Y256729D01*
X138080Y256969D01*
X137657Y257053D01*
X136865D01*
X136712Y257155D01*
X136221Y257253D01*
X134803D01*
X134312Y257155D01*
X133895Y256877D01*
X133616Y256460D01*
X133519Y255968D01*
X133616Y255477D01*
X133895Y255060D01*
Y254908D01*
X133616Y254492D01*
X133519Y254000D01*
X133616Y253508D01*
X133687Y253402D01*
X133861Y253016D01*
X133687Y252629D01*
X133616Y252523D01*
X133519Y252031D01*
X133616Y251540D01*
X133687Y251434D01*
X133861Y251047D01*
X133687Y250661D01*
X133616Y250555D01*
X133519Y250063D01*
X133616Y249571D01*
X133895Y249155D01*
Y249003D01*
X133616Y248586D01*
X133519Y248095D01*
X133616Y247603D01*
X133895Y247186D01*
X134107Y247044D01*
Y246574D01*
X133843Y246179D01*
X133705Y245488D01*
Y241677D01*
X132665D01*
Y226323D01*
X142902D01*
X143043Y225882D01*
Y225122D01*
X151666D01*
Y223031D01*
X151166Y222671D01*
X151000Y222704D01*
X142201D01*
X141740Y222613D01*
X141349Y222352D01*
X141088Y221961D01*
X140997Y221500D01*
Y221157D01*
X138736D01*
Y224047D01*
X134799D01*
Y223104D01*
X134028D01*
Y223969D01*
X124972D01*
Y220700D01*
X108161D01*
Y222457D01*
X108069Y222918D01*
X108051Y222961D01*
X107790Y223352D01*
X107400Y223613D01*
X106939Y223704D01*
X99989D01*
X99528Y223613D01*
X99138Y223352D01*
X98876Y222961D01*
X98785Y222500D01*
Y215000D01*
X98876Y214539D01*
X99138Y214148D01*
X99528Y213887D01*
X99989Y213796D01*
X104261D01*
X105827Y212230D01*
X106217Y211969D01*
X106678Y211877D01*
X107139Y211969D01*
X107196Y211993D01*
X113164D01*
X113192Y211952D01*
X113583Y211691D01*
X114043Y211599D01*
X114957D01*
X115418Y211691D01*
X115808Y211952D01*
X115836Y211993D01*
X122043D01*
X122504Y212084D01*
X122895Y212345D01*
X123156Y212736D01*
X123248Y213197D01*
Y213942D01*
X130756D01*
X131217Y214034D01*
X131607Y214295D01*
X131869Y214686D01*
X131960Y215147D01*
Y215298D01*
X132042Y215315D01*
X132758Y215793D01*
X132913Y216025D01*
X133404Y216123D01*
X133424Y216109D01*
X134000Y215995D01*
X134576Y216109D01*
X134983Y216381D01*
X135697Y215667D01*
X135729Y215505D01*
X136010Y215085D01*
X136430Y214804D01*
X136603Y214770D01*
X136773Y214425D01*
X136603Y214081D01*
X136430Y214046D01*
X136277Y213944D01*
X136277D01*
X135854Y213860D01*
X135496Y213621D01*
X134452Y212576D01*
X134212Y212218D01*
X134128Y211796D01*
Y209704D01*
X134000D01*
X133539Y209613D01*
X133149Y209351D01*
X132885Y209088D01*
X132624Y208697D01*
X132532Y208236D01*
X132532Y208236D01*
Y204453D01*
X132532Y204453D01*
Y201264D01*
X132624Y200803D01*
X132885Y200412D01*
X132885Y200412D01*
X133291Y200005D01*
X133495Y199870D01*
X133537Y199841D01*
X133495Y199626D01*
X133609Y199050D01*
X133936Y198562D01*
X134097Y198454D01*
X134131Y198284D01*
X134370Y197926D01*
X135076Y197219D01*
X135434Y196980D01*
X135857Y196896D01*
X136465D01*
Y195638D01*
X137710D01*
X138195Y195515D01*
X138224Y195319D01*
X138241Y195121D01*
X138259Y195088D01*
X138264Y195050D01*
X138366Y194880D01*
X138458Y194704D01*
X138487Y194680D01*
X138507Y194647D01*
X138923Y194190D01*
X138946Y194173D01*
X138962Y194149D01*
X139134Y194034D01*
X139301Y193911D01*
X139329Y193904D01*
X139353Y193887D01*
X139556Y193847D01*
X139757Y193797D01*
X139785Y193801D01*
X139814Y193796D01*
X140182D01*
X140515Y193296D01*
X140457Y193157D01*
X139024D01*
Y189204D01*
X137669D01*
Y190535D01*
X137577Y190996D01*
X137316Y191387D01*
X136776Y191927D01*
X136385Y192188D01*
X136385Y192188D01*
X136154Y192234D01*
X135925Y192280D01*
X135924Y192280D01*
X135664Y192228D01*
X135452D01*
X135352Y192269D01*
X135269Y192351D01*
X134879Y192613D01*
X134418Y192704D01*
X134418Y192704D01*
X130000D01*
X129539Y192613D01*
X129148Y192351D01*
X128983Y192104D01*
X111957D01*
X102104Y201957D01*
Y209000D01*
X102020Y209422D01*
X101781Y209781D01*
X89604Y221957D01*
Y252543D01*
X102090Y265029D01*
X102551Y264783D01*
X102495Y264500D01*
X102609Y263924D01*
X102936Y263436D01*
X103424Y263109D01*
X104000Y262995D01*
X104576Y263109D01*
X105064Y263436D01*
X105105Y263496D01*
X120123D01*
X120496Y263123D01*
Y257000D01*
X120573Y256616D01*
X120790Y256290D01*
X121822Y255259D01*
X122148Y255041D01*
X122334Y255004D01*
X122586Y254541D01*
X122589Y254518D01*
X122588Y254465D01*
X122495Y254000D01*
X122251Y253756D01*
X122000Y253806D01*
X121309Y253669D01*
X120756Y253299D01*
X120256Y253402D01*
Y253402D01*
X116353D01*
X116283Y253455D01*
X115182Y253911D01*
X114000Y254067D01*
X112818Y253911D01*
X111717Y253455D01*
X111647Y253402D01*
X108744D01*
Y250702D01*
X106608Y248567D01*
X99000D01*
X97818Y248411D01*
X96717Y247955D01*
X95771Y247229D01*
X95045Y246283D01*
X94589Y245182D01*
X94433Y244000D01*
X94589Y242818D01*
X95045Y241717D01*
X95771Y240771D01*
X96717Y240045D01*
X97818Y239589D01*
X99000Y239433D01*
X108500D01*
X108500Y239433D01*
X109682Y239589D01*
X110783Y240045D01*
X111729Y240771D01*
X117229Y246271D01*
X117955Y247217D01*
X118397Y248284D01*
X120256D01*
Y249627D01*
X121433D01*
X122124Y249764D01*
X122130Y249768D01*
X122458Y249632D01*
X122637Y249505D01*
X122871Y249155D01*
Y249003D01*
X122593Y248586D01*
X122495Y248095D01*
X122593Y247603D01*
X122871Y247186D01*
X123083Y247044D01*
Y246074D01*
X122819Y245679D01*
X122682Y244988D01*
Y241677D01*
X118098D01*
Y226323D01*
X128335D01*
Y241677D01*
X126295D01*
Y244988D01*
X126157Y245679D01*
X125893Y246074D01*
Y247044D01*
X126105Y247186D01*
X126384Y247603D01*
X126481Y248095D01*
X126384Y248586D01*
X126105Y249003D01*
Y249155D01*
X126384Y249571D01*
X126481Y250063D01*
X126384Y250555D01*
X126313Y250661D01*
X126139Y251047D01*
X126313Y251434D01*
X126384Y251540D01*
X126481Y252031D01*
X126384Y252523D01*
X126313Y252629D01*
X126139Y253016D01*
X126313Y253402D01*
X126384Y253508D01*
X126481Y254000D01*
X126384Y254492D01*
X126105Y254908D01*
Y255060D01*
X126384Y255477D01*
X126481Y255968D01*
X126384Y256460D01*
X126105Y256877D01*
X125688Y257155D01*
X125197Y257253D01*
X123779D01*
X123288Y257155D01*
X123014Y256972D01*
X122947D01*
X122503Y257416D01*
Y258687D01*
X122566Y258740D01*
X123003Y258909D01*
X123288Y258719D01*
X123779Y258621D01*
X125197D01*
X125688Y258719D01*
X126105Y258997D01*
X126384Y259414D01*
X126481Y259906D01*
X126384Y260397D01*
X126105Y260814D01*
X125688Y261092D01*
X125197Y261190D01*
X123779D01*
X123288Y261092D01*
X123003Y260902D01*
X122566Y261071D01*
X122503Y261124D01*
Y263539D01*
X122427Y263923D01*
X122210Y264248D01*
X121248Y265210D01*
X120923Y265427D01*
X120539Y265504D01*
X105105D01*
X105064Y265564D01*
X104576Y265891D01*
X104000Y266005D01*
X103717Y265949D01*
X103471Y266410D01*
X128281Y291219D01*
X128520Y291578D01*
X128604Y292000D01*
Y324632D01*
X131032D01*
Y323472D01*
X134968D01*
Y327235D01*
X135296Y327376D01*
X135468Y327414D01*
X135924Y327109D01*
X136500Y326995D01*
X136988Y327092D01*
X137488Y326829D01*
Y325783D01*
X141032D01*
Y329720D01*
Y333351D01*
X141100Y333397D01*
X141351Y333648D01*
X141613Y334039D01*
X141704Y334500D01*
X141704Y334500D01*
Y339453D01*
X141613Y339914D01*
X141351Y340304D01*
X140961Y340565D01*
X140500Y340657D01*
X140468D01*
Y342573D01*
X140651Y342696D01*
X140807Y342930D01*
X140912Y343086D01*
X141103Y343548D01*
X141195Y344009D01*
X141103Y344470D01*
X140842Y344861D01*
X139851Y345851D01*
X139461Y346113D01*
X139000Y346204D01*
X139000Y346204D01*
X127231D01*
X118567Y354869D01*
Y367726D01*
X118567Y367726D01*
X118411Y368908D01*
X117955Y370009D01*
X117229Y370955D01*
X117229Y370955D01*
X112191Y375993D01*
X111245Y376719D01*
X110144Y377175D01*
X108962Y377330D01*
X108962Y377330D01*
X107330D01*
Y386903D01*
X107955Y387717D01*
X108411Y388818D01*
X108567Y390000D01*
X108411Y391182D01*
X107955Y392283D01*
X107229Y393229D01*
X106283Y393955D01*
X105182Y394411D01*
X104000Y394567D01*
X102818Y394411D01*
X101717Y393955D01*
X100771Y393229D01*
X99535Y391993D01*
X98809Y391047D01*
X98353Y389946D01*
X98197Y388764D01*
Y377330D01*
X96122D01*
X94940Y377175D01*
X93839Y376719D01*
X92893Y375993D01*
X92756Y375815D01*
X92480D01*
Y375455D01*
X92167Y375047D01*
X91711Y373946D01*
X91555Y372764D01*
X91711Y371582D01*
X92167Y370480D01*
X92379Y370204D01*
X92195Y369708D01*
X91984Y369704D01*
X82815D01*
X82354Y369613D01*
X81963Y369352D01*
X81702Y368961D01*
X81611Y368500D01*
Y363248D01*
X73389D01*
Y368500D01*
X73298Y368961D01*
X73037Y369352D01*
X72646Y369613D01*
X72185Y369704D01*
X60772D01*
X60560Y369708D01*
X60377Y370204D01*
X60589Y370480D01*
X61045Y371582D01*
X61200Y372764D01*
X61045Y373946D01*
X60589Y375047D01*
X60276Y375455D01*
Y375815D01*
X60000D01*
X59863Y375993D01*
X58917Y376719D01*
X57816Y377175D01*
X56634Y377330D01*
X53445D01*
Y380986D01*
X59729Y387271D01*
X60455Y388217D01*
X60911Y389318D01*
X61067Y390500D01*
X60911Y391682D01*
X60455Y392783D01*
X59729Y393729D01*
X58783Y394455D01*
X57682Y394911D01*
X56500Y395067D01*
X55318Y394911D01*
X54217Y394455D01*
X53271Y393729D01*
X45649Y386107D01*
X44923Y385161D01*
X44467Y384060D01*
X44311Y382878D01*
X44311Y382878D01*
Y372764D01*
X44467Y371582D01*
X44923Y370480D01*
X45135Y370204D01*
X44951Y369708D01*
X44740Y369704D01*
X44000D01*
X44000Y369704D01*
X43539Y369613D01*
X43148Y369352D01*
X43148Y369352D01*
X41148Y367352D01*
X41148Y367352D01*
X40887Y366961D01*
X40796Y366500D01*
X40796Y366500D01*
X40796Y342000D01*
X40887Y341539D01*
X41148Y341148D01*
X41539Y340887D01*
X42000Y340796D01*
X108500D01*
X108500Y340796D01*
X108961Y340887D01*
X109352Y341148D01*
X110852Y342649D01*
X111113Y343039D01*
X111204Y343500D01*
X111204Y343500D01*
Y348661D01*
X111666Y348853D01*
X120796Y339723D01*
Y339000D01*
X120887Y338539D01*
X121149Y338148D01*
X121149Y338148D01*
X121649Y337649D01*
X121649Y337649D01*
X122039Y337387D01*
X122500Y337296D01*
X122500Y337296D01*
X127472D01*
Y334531D01*
X128376D01*
X128645Y334032D01*
X128550Y333555D01*
X128665Y332979D01*
X128991Y332491D01*
X129479Y332165D01*
X130055Y332050D01*
X130532Y332145D01*
X131032Y331876D01*
Y331342D01*
X128605D01*
X128564Y331403D01*
X128076Y331730D01*
X127500Y331844D01*
X126924Y331730D01*
X126436Y331403D01*
X126109Y330915D01*
X125995Y330339D01*
X126109Y329763D01*
X126436Y329274D01*
X126924Y328948D01*
X127500Y328834D01*
X128076Y328948D01*
X128564Y329274D01*
X128605Y329335D01*
X131032D01*
Y326840D01*
X124736D01*
X124314Y326756D01*
X123956Y326517D01*
X114543Y317104D01*
X65500D01*
X65078Y317020D01*
X64719Y316781D01*
X63043Y315104D01*
X60039D01*
Y316709D01*
X57206D01*
Y318945D01*
X57122Y319367D01*
X56883Y319725D01*
X53781Y322828D01*
X53422Y323067D01*
X53000Y323151D01*
X49646D01*
Y333020D01*
X38425D01*
Y332567D01*
X32685D01*
X30748Y334504D01*
Y346972D01*
X30592Y348154D01*
X30136Y349256D01*
X29410Y350202D01*
X28464Y350927D01*
X27363Y351383D01*
X26181Y351539D01*
X24999Y351383D01*
X23898Y350927D01*
X22952Y350202D01*
X22757Y349947D01*
X22283Y350108D01*
Y369480D01*
X24221Y371418D01*
X29528D01*
X30709Y371573D01*
X31811Y372029D01*
X32757Y372755D01*
X33482Y373701D01*
X33939Y374802D01*
X34094Y375984D01*
X33939Y377166D01*
X33482Y378268D01*
X32757Y379213D01*
X31811Y379939D01*
X30709Y380395D01*
X29528Y380551D01*
X22329D01*
X22329Y380551D01*
X21147Y380395D01*
X20046Y379939D01*
X19100Y379213D01*
X14487Y374601D01*
X13762Y373655D01*
X13306Y372554D01*
X13150Y371372D01*
X13150Y371372D01*
Y318594D01*
X10821Y316265D01*
X10294Y316444D01*
X10196Y317186D01*
X9793Y318159D01*
X9152Y318994D01*
X8316Y319635D01*
X7343Y320038D01*
X6299Y320176D01*
X4724D01*
X3680Y320038D01*
X2707Y319635D01*
X1872Y318994D01*
X1328Y318285D01*
X828Y318440D01*
Y323844D01*
X1328Y323998D01*
X1872Y323289D01*
X2707Y322648D01*
X3680Y322245D01*
X4724Y322108D01*
X6299D01*
X7343Y322245D01*
X8316Y322648D01*
X9152Y323289D01*
X9793Y324125D01*
X10196Y325098D01*
X10333Y326142D01*
X10196Y327186D01*
X9793Y328159D01*
X9152Y328994D01*
X8316Y329635D01*
X7343Y330038D01*
X6299Y330176D01*
X4724D01*
X3680Y330038D01*
X2707Y329635D01*
X1872Y328994D01*
X1328Y328285D01*
X828Y328440D01*
Y333844D01*
X1328Y333998D01*
X1872Y333289D01*
X2707Y332648D01*
X3680Y332245D01*
X4724Y332108D01*
X6299D01*
X7343Y332245D01*
X8316Y332648D01*
X9152Y333289D01*
X9793Y334125D01*
X10196Y335098D01*
X10333Y336142D01*
X10196Y337186D01*
X9793Y338159D01*
X9152Y338994D01*
X8316Y339635D01*
X7343Y340038D01*
X6299Y340176D01*
X4724D01*
X3680Y340038D01*
X2707Y339635D01*
X1872Y338994D01*
X1328Y338285D01*
X828Y338440D01*
Y343844D01*
X1328Y343998D01*
X1872Y343289D01*
X2707Y342648D01*
X3680Y342245D01*
X4724Y342108D01*
X6299D01*
X7343Y342245D01*
X8316Y342648D01*
X9152Y343289D01*
X9793Y344125D01*
X10196Y345098D01*
X10333Y346142D01*
X10196Y347186D01*
X9793Y348159D01*
X9152Y348994D01*
X8316Y349635D01*
X7343Y350038D01*
X6299Y350176D01*
X4724D01*
X3680Y350038D01*
X2707Y349635D01*
X1872Y348994D01*
X1328Y348285D01*
X828Y348440D01*
Y353844D01*
X1328Y353998D01*
X1872Y353289D01*
X2707Y352648D01*
X3680Y352245D01*
X4724Y352108D01*
X6299D01*
X7343Y352245D01*
X8316Y352648D01*
X9152Y353289D01*
X9793Y354125D01*
X10196Y355098D01*
X10333Y356142D01*
X10196Y357186D01*
X9793Y358159D01*
X9152Y358994D01*
X8316Y359635D01*
X7343Y360038D01*
X6299Y360176D01*
X4724D01*
X3680Y360038D01*
X2707Y359635D01*
X1872Y358994D01*
X1328Y358285D01*
X828Y358440D01*
Y362142D01*
X10299D01*
Y370141D01*
X828D01*
Y395537D01*
Y396443D01*
X1181Y398219D01*
X1874Y399893D01*
X2881Y401400D01*
X4162Y402681D01*
X5669Y403687D01*
X7342Y404381D01*
X9119Y404734D01*
X190931D01*
X192708Y404381D01*
D02*
G37*
G36*
X139991Y344009D02*
X139799Y343547D01*
X139264D01*
Y339453D01*
X140500D01*
Y334500D01*
X140248Y334248D01*
X137488D01*
Y334098D01*
X137116Y333765D01*
X135000Y334000D01*
X132500Y335000D01*
Y338500D01*
X122500Y338500D01*
X122000Y339000D01*
Y345000D01*
X139000D01*
X139991Y344009D01*
D02*
G37*
G36*
X198940Y304049D02*
X199222Y303924D01*
Y298359D01*
X198940Y298235D01*
X198722Y298220D01*
X198128Y298994D01*
X197293Y299635D01*
X196320Y300038D01*
X195276Y300176D01*
X193701D01*
X192657Y300038D01*
X191684Y299635D01*
X190848Y298994D01*
X190207Y298159D01*
X189804Y297186D01*
X189799Y297145D01*
X186831D01*
X186611Y297632D01*
X191651Y302673D01*
X191684Y302648D01*
X192657Y302245D01*
X193701Y302108D01*
X195276D01*
X196320Y302245D01*
X197293Y302648D01*
X198128Y303289D01*
X198722Y304063D01*
X198940Y304049D01*
D02*
G37*
G36*
X22952Y329383D02*
X27564Y324771D01*
X28510Y324045D01*
X29612Y323589D01*
X30148Y323518D01*
X30231Y323399D01*
X30349Y322988D01*
X30105Y322623D01*
X29991Y322047D01*
X30105Y321471D01*
X30432Y320983D01*
X30920Y320656D01*
X31496Y320542D01*
X32072Y320656D01*
X32501Y320943D01*
X52543D01*
X54998Y318488D01*
Y316709D01*
X52165D01*
Y311197D01*
X60039D01*
Y312896D01*
X63500D01*
X63922Y312980D01*
X64281Y313219D01*
X65957Y314896D01*
X115000D01*
X115422Y314980D01*
X115781Y315219D01*
X125194Y324632D01*
X126396D01*
Y292457D01*
X87719Y253781D01*
X87480Y253422D01*
X87396Y253000D01*
Y221500D01*
X87480Y221078D01*
X87719Y220720D01*
X98224Y210215D01*
X98028Y209703D01*
X97653Y209629D01*
X97223Y209342D01*
X57219D01*
X23679Y242882D01*
Y270925D01*
X23595Y271348D01*
X23355Y271706D01*
X10128Y284933D01*
X10196Y285098D01*
X10333Y286142D01*
X10196Y287186D01*
X9793Y288159D01*
X9152Y288994D01*
X8316Y289635D01*
X7343Y290038D01*
X6299Y290176D01*
X4724D01*
X3680Y290038D01*
X2707Y289635D01*
X1872Y288994D01*
X1328Y288285D01*
X828Y288440D01*
Y293582D01*
X1328Y293752D01*
X1765Y293182D01*
X2632Y292517D01*
X3641Y292099D01*
X4512Y291984D01*
Y296142D01*
Y300299D01*
X3641Y300184D01*
X2632Y299766D01*
X1765Y299101D01*
X1328Y298532D01*
X828Y298701D01*
Y303844D01*
X1328Y303998D01*
X1872Y303289D01*
X2168Y303062D01*
X2283Y302913D01*
X3229Y302187D01*
X4330Y301731D01*
X5512Y301575D01*
X7156D01*
X7156Y301575D01*
X8338Y301731D01*
X9440Y302187D01*
X10385Y302913D01*
X20946Y313473D01*
X20946Y313473D01*
X21671Y314419D01*
X22128Y315520D01*
X22283Y316702D01*
X22283Y316702D01*
Y329477D01*
X22757Y329638D01*
X22952Y329383D01*
D02*
G37*
G36*
X189804Y295098D02*
X190207Y294125D01*
X190848Y293289D01*
X191684Y292648D01*
X192657Y292245D01*
X193701Y292108D01*
X195276D01*
X196320Y292245D01*
X197293Y292648D01*
X198128Y293289D01*
X198722Y294063D01*
X198940Y294049D01*
X199222Y293924D01*
Y288359D01*
X198940Y288234D01*
X198722Y288220D01*
X198128Y288994D01*
X197293Y289635D01*
X196320Y290038D01*
X195276Y290176D01*
X193701D01*
X192657Y290038D01*
X191684Y289635D01*
X190848Y288994D01*
X190207Y288159D01*
X189804Y287186D01*
X189799Y287145D01*
X187142D01*
X186758Y287069D01*
X186432Y286851D01*
X179004Y279423D01*
X178504Y279630D01*
Y286584D01*
X187057Y295138D01*
X189799D01*
X189804Y295098D01*
D02*
G37*
G36*
Y285098D02*
X190207Y284125D01*
X190848Y283289D01*
X191684Y282648D01*
X192657Y282245D01*
X193701Y282108D01*
X195276D01*
X196320Y282245D01*
X197293Y282648D01*
X198128Y283289D01*
X198722Y284063D01*
X198940Y284049D01*
X199222Y283924D01*
Y278359D01*
X198940Y278235D01*
X198722Y278220D01*
X198128Y278994D01*
X197293Y279635D01*
X196320Y280038D01*
X195276Y280176D01*
X193701D01*
X192657Y280038D01*
X191684Y279635D01*
X190848Y278994D01*
X190207Y278159D01*
X189804Y277186D01*
X189799Y277145D01*
X186437D01*
X186053Y277069D01*
X185727Y276851D01*
X181003Y272128D01*
X180503Y272335D01*
Y278084D01*
X187557Y285138D01*
X189799D01*
X189804Y285098D01*
D02*
G37*
G36*
Y275098D02*
X190207Y274125D01*
X190848Y273289D01*
X191684Y272648D01*
X192657Y272245D01*
X193701Y272108D01*
X195276D01*
X196320Y272245D01*
X197293Y272648D01*
X198128Y273289D01*
X198722Y274063D01*
X198940Y274049D01*
X199222Y273924D01*
Y268359D01*
X198940Y268234D01*
X198722Y268220D01*
X198128Y268994D01*
X197293Y269635D01*
X196320Y270038D01*
X195276Y270176D01*
X193701D01*
X192657Y270038D01*
X191684Y269635D01*
X190848Y268994D01*
X190207Y268159D01*
X189804Y267186D01*
X189667Y266142D01*
X189804Y265098D01*
X190207Y264125D01*
X190848Y263289D01*
X191684Y262648D01*
X192657Y262245D01*
X193701Y262108D01*
X195276D01*
X196320Y262245D01*
X197293Y262648D01*
X198128Y263289D01*
X198722Y264063D01*
X198940Y264049D01*
X199222Y263924D01*
Y258359D01*
X198940Y258235D01*
X198722Y258220D01*
X198128Y258994D01*
X197293Y259635D01*
X196320Y260038D01*
X195276Y260176D01*
X193701D01*
X192657Y260038D01*
X191684Y259635D01*
X190848Y258994D01*
X190207Y258159D01*
X189804Y257186D01*
X189667Y256142D01*
X189804Y255098D01*
X190207Y254125D01*
X190848Y253289D01*
X191684Y252648D01*
X192657Y252245D01*
X193701Y252108D01*
X195276D01*
X196320Y252245D01*
X197293Y252648D01*
X198128Y253289D01*
X198722Y254063D01*
X198940Y254049D01*
X199222Y253924D01*
Y248359D01*
X198940Y248235D01*
X198722Y248220D01*
X198128Y248994D01*
X197293Y249635D01*
X196320Y250038D01*
X195276Y250176D01*
X193701D01*
X192657Y250038D01*
X191684Y249635D01*
X190848Y248994D01*
X190207Y248159D01*
X189804Y247186D01*
X189667Y246142D01*
X189804Y245098D01*
X190207Y244125D01*
X190848Y243289D01*
X191684Y242648D01*
X192657Y242245D01*
X193701Y242108D01*
X195276D01*
X196320Y242245D01*
X197293Y242648D01*
X198128Y243289D01*
X198722Y244063D01*
X198940Y244049D01*
X199222Y243924D01*
Y238359D01*
X198940Y238234D01*
X198722Y238220D01*
X198128Y238994D01*
X197293Y239635D01*
X196320Y240038D01*
X195276Y240176D01*
X193701D01*
X192657Y240038D01*
X191684Y239635D01*
X190848Y238994D01*
X190207Y238159D01*
X189804Y237186D01*
X189667Y236142D01*
X189804Y235098D01*
X190207Y234125D01*
X190848Y233289D01*
X191684Y232648D01*
X192657Y232245D01*
X193701Y232108D01*
X195276D01*
X196320Y232245D01*
X197293Y232648D01*
X198128Y233289D01*
X198722Y234063D01*
X198940Y234049D01*
X199222Y233924D01*
Y228359D01*
X198940Y228235D01*
X198722Y228220D01*
X198128Y228994D01*
X197293Y229635D01*
X196320Y230038D01*
X195276Y230176D01*
X193701D01*
X192657Y230038D01*
X191684Y229635D01*
X190848Y228994D01*
X190207Y228159D01*
X189804Y227186D01*
X189667Y226142D01*
X189804Y225098D01*
X190207Y224125D01*
X190848Y223289D01*
X191684Y222648D01*
X192657Y222245D01*
X193701Y222108D01*
X195276D01*
X196320Y222245D01*
X197293Y222648D01*
X198128Y223289D01*
X198722Y224063D01*
X198940Y224049D01*
X199222Y223924D01*
Y218359D01*
X198940Y218234D01*
X198722Y218220D01*
X198128Y218994D01*
X197293Y219635D01*
X196320Y220038D01*
X195276Y220176D01*
X193701D01*
X192657Y220038D01*
X191684Y219635D01*
X190848Y218994D01*
X190207Y218159D01*
X189804Y217186D01*
X189667Y216142D01*
X189804Y215098D01*
X190207Y214125D01*
X190848Y213289D01*
X191684Y212648D01*
X192657Y212245D01*
X193701Y212108D01*
X195276D01*
X196320Y212245D01*
X197293Y212648D01*
X198128Y213289D01*
X198722Y214063D01*
X198940Y214049D01*
X199222Y213924D01*
Y208359D01*
X198940Y208235D01*
X198722Y208220D01*
X198128Y208994D01*
X197293Y209635D01*
X196320Y210038D01*
X195276Y210176D01*
X193701D01*
X192657Y210038D01*
X191684Y209635D01*
X190848Y208994D01*
X190207Y208159D01*
X189804Y207186D01*
X189667Y206142D01*
X189804Y205098D01*
X190207Y204125D01*
X190848Y203289D01*
X191684Y202648D01*
X192657Y202245D01*
X193701Y202108D01*
X195276D01*
X196320Y202245D01*
X197293Y202648D01*
X198128Y203289D01*
X198722Y204063D01*
X198940Y204049D01*
X199222Y203924D01*
Y198359D01*
X198940Y198234D01*
X198722Y198220D01*
X198128Y198994D01*
X197293Y199635D01*
X196320Y200038D01*
X195276Y200176D01*
X193701D01*
X192657Y200038D01*
X191684Y199635D01*
X190848Y198994D01*
X190207Y198159D01*
X189804Y197186D01*
X189667Y196142D01*
X189804Y195098D01*
X190207Y194125D01*
X190848Y193289D01*
X191684Y192648D01*
X192657Y192245D01*
X193701Y192108D01*
X195276D01*
X196320Y192245D01*
X197293Y192648D01*
X198128Y193289D01*
X198722Y194063D01*
X198940Y194049D01*
X199222Y193924D01*
Y188359D01*
X198940Y188234D01*
X198722Y188220D01*
X198128Y188994D01*
X197293Y189635D01*
X196320Y190038D01*
X195276Y190176D01*
X193701D01*
X192657Y190038D01*
X191684Y189635D01*
X190848Y188994D01*
X190207Y188159D01*
X189804Y187186D01*
X189667Y186142D01*
X189804Y185098D01*
X190207Y184125D01*
X190848Y183289D01*
X191684Y182648D01*
X192657Y182245D01*
X193701Y182108D01*
X195276D01*
X196320Y182245D01*
X197293Y182648D01*
X198128Y183289D01*
X198722Y184063D01*
X198940Y184049D01*
X199222Y183924D01*
Y178359D01*
X198940Y178234D01*
X198722Y178220D01*
X198128Y178994D01*
X197293Y179635D01*
X196320Y180038D01*
X195276Y180176D01*
X193701D01*
X192657Y180038D01*
X191684Y179635D01*
X190848Y178994D01*
X190207Y178159D01*
X189804Y177186D01*
X189667Y176142D01*
X189804Y175098D01*
X190207Y174125D01*
X190848Y173289D01*
X191684Y172648D01*
X192657Y172245D01*
X193701Y172108D01*
X195276D01*
X196320Y172245D01*
X197293Y172648D01*
X198128Y173289D01*
X198722Y174063D01*
X198940Y174049D01*
X199222Y173924D01*
Y168359D01*
X198940Y168234D01*
X198722Y168220D01*
X198128Y168994D01*
X197293Y169635D01*
X196320Y170038D01*
X195276Y170176D01*
X193701D01*
X192657Y170038D01*
X191684Y169635D01*
X190848Y168994D01*
X190207Y168159D01*
X189829Y167246D01*
X178815D01*
X174491Y171570D01*
X174391Y172076D01*
X174064Y172564D01*
X173576Y172891D01*
X173000Y173005D01*
X172495Y172905D01*
X172363Y172931D01*
X171968Y173187D01*
X171891Y173576D01*
X171692Y173874D01*
Y174273D01*
X182210Y184790D01*
X182427Y185116D01*
X182503Y185500D01*
Y270789D01*
X186853Y275138D01*
X189799D01*
X189804Y275098D01*
D02*
G37*
G36*
X1872Y283289D02*
X2707Y282648D01*
X3680Y282245D01*
X4724Y282108D01*
X6299D01*
X7343Y282245D01*
X8316Y282648D01*
X8868Y283071D01*
X21471Y270468D01*
Y263184D01*
X21009Y262993D01*
X9818Y274184D01*
X10196Y275098D01*
X10333Y276142D01*
X10196Y277186D01*
X9793Y278159D01*
X9152Y278994D01*
X8316Y279635D01*
X7343Y280038D01*
X6299Y280176D01*
X4724D01*
X3680Y280038D01*
X2707Y279635D01*
X1872Y278994D01*
X1328Y278285D01*
X828Y278440D01*
Y283844D01*
X1328Y283998D01*
X1872Y283289D01*
D02*
G37*
G36*
X18232Y256849D02*
Y239676D01*
X18268Y239499D01*
X17836Y239272D01*
X17503Y239537D01*
Y247000D01*
X17427Y247384D01*
X17210Y247710D01*
X10086Y254833D01*
X10196Y255098D01*
X10333Y256142D01*
X10196Y257186D01*
X9793Y258159D01*
X9152Y258994D01*
X8316Y259635D01*
X7343Y260038D01*
X6299Y260176D01*
X4724D01*
X3680Y260038D01*
X2707Y259635D01*
X1872Y258994D01*
X1328Y258285D01*
X828Y258440D01*
Y263844D01*
X1328Y263998D01*
X1872Y263289D01*
X2707Y262648D01*
X3680Y262245D01*
X4724Y262108D01*
X6299D01*
X7343Y262245D01*
X8316Y262648D01*
X9152Y263289D01*
X9793Y264125D01*
X9961Y264531D01*
X10452Y264629D01*
X18232Y256849D01*
D02*
G37*
G36*
X1872Y273289D02*
X2707Y272648D01*
X3680Y272245D01*
X4724Y272108D01*
X6299D01*
X7343Y272245D01*
X8257Y272623D01*
X19896Y260984D01*
Y258676D01*
X19434Y258485D01*
X11068Y266851D01*
X10742Y267069D01*
X10358Y267145D01*
X10201D01*
X10196Y267186D01*
X9793Y268159D01*
X9152Y268994D01*
X8316Y269635D01*
X7343Y270038D01*
X6299Y270176D01*
X4724D01*
X3680Y270038D01*
X2707Y269635D01*
X1872Y268994D01*
X1328Y268285D01*
X828Y268440D01*
Y273844D01*
X1328Y273998D01*
X1872Y273289D01*
D02*
G37*
G36*
X157764Y282736D02*
Y279453D01*
X159000D01*
Y247000D01*
X158000Y246000D01*
X139500D01*
Y252500D01*
X140000Y253000D01*
X147500D01*
X150500Y256000D01*
Y283500D01*
X157000D01*
X157764Y282736D01*
D02*
G37*
G36*
X1872Y253289D02*
X2707Y252648D01*
X3680Y252245D01*
X4724Y252108D01*
X6299D01*
X7343Y252245D01*
X8316Y252648D01*
X8948Y253133D01*
X15496Y246584D01*
Y240221D01*
X15034Y240029D01*
X10129Y244935D01*
X10196Y245098D01*
X10333Y246142D01*
X10196Y247186D01*
X9793Y248159D01*
X9152Y248994D01*
X8316Y249635D01*
X7343Y250038D01*
X6299Y250176D01*
X4724D01*
X3680Y250038D01*
X2707Y249635D01*
X1872Y248994D01*
X1328Y248285D01*
X828Y248440D01*
Y253844D01*
X1328Y253998D01*
X1872Y253289D01*
D02*
G37*
G36*
Y243289D02*
X2707Y242648D01*
X3680Y242245D01*
X4724Y242108D01*
X6299D01*
X7343Y242245D01*
X8316Y242648D01*
X9030Y243196D01*
X53263Y198963D01*
X53016Y198502D01*
X53000Y198505D01*
X52424Y198391D01*
X51936Y198064D01*
X51609Y197576D01*
X51495Y197000D01*
X51609Y196424D01*
X51936Y195936D01*
X52424Y195609D01*
X53000Y195495D01*
X53251Y195545D01*
X53648Y195200D01*
X53548Y194858D01*
X50776D01*
Y194338D01*
X46034D01*
X45104Y195268D01*
Y197995D01*
X45391Y198424D01*
X45505Y199000D01*
X45391Y199576D01*
X45064Y200064D01*
X44576Y200391D01*
X44000Y200505D01*
X43722Y200450D01*
X43246Y200784D01*
X43189Y201122D01*
X43391Y201424D01*
X43505Y202000D01*
X43391Y202576D01*
X43064Y203064D01*
X42576Y203391D01*
X42000Y203505D01*
X41424Y203391D01*
X40936Y203064D01*
X40609Y202576D01*
X40495Y202000D01*
X40609Y201424D01*
X40810Y201124D01*
Y194587D01*
X40894Y194164D01*
X41133Y193806D01*
X44459Y190480D01*
X44252Y189980D01*
X43121D01*
X43064Y190064D01*
X42576Y190391D01*
X42000Y190505D01*
X41424Y190391D01*
X40936Y190064D01*
X40863Y189956D01*
X36963D01*
X20068Y206851D01*
X19742Y207069D01*
X19358Y207145D01*
X10201D01*
X10196Y207186D01*
X9793Y208159D01*
X9152Y208994D01*
X8316Y209635D01*
X7343Y210038D01*
X6299Y210176D01*
X4724D01*
X3680Y210038D01*
X2707Y209635D01*
X1872Y208994D01*
X1328Y208285D01*
X828Y208440D01*
Y213844D01*
X1328Y213998D01*
X1872Y213289D01*
X2707Y212648D01*
X3680Y212245D01*
X4724Y212108D01*
X6299D01*
X7343Y212245D01*
X8316Y212648D01*
X9152Y213289D01*
X9793Y214125D01*
X10196Y215098D01*
X10333Y216142D01*
X10196Y217186D01*
X9793Y218159D01*
X9152Y218994D01*
X8316Y219635D01*
X7343Y220038D01*
X6299Y220176D01*
X4724D01*
X3680Y220038D01*
X2707Y219635D01*
X1872Y218994D01*
X1328Y218285D01*
X828Y218440D01*
Y223844D01*
X1328Y223998D01*
X1872Y223289D01*
X2707Y222648D01*
X3680Y222245D01*
X4724Y222108D01*
X6299D01*
X7343Y222245D01*
X8316Y222648D01*
X9152Y223289D01*
X9793Y224125D01*
X10196Y225098D01*
X10333Y226142D01*
X10196Y227186D01*
X9793Y228159D01*
X9152Y228994D01*
X8316Y229635D01*
X7343Y230038D01*
X6299Y230176D01*
X4724D01*
X3680Y230038D01*
X2707Y229635D01*
X1872Y228994D01*
X1328Y228285D01*
X828Y228440D01*
Y233844D01*
X1328Y233998D01*
X1872Y233289D01*
X2707Y232648D01*
X3680Y232245D01*
X4724Y232108D01*
X6299D01*
X7343Y232245D01*
X8316Y232648D01*
X9152Y233289D01*
X9793Y234125D01*
X10196Y235098D01*
X10333Y236142D01*
X10196Y237186D01*
X9793Y238159D01*
X9152Y238994D01*
X8316Y239635D01*
X7343Y240038D01*
X6299Y240176D01*
X4724D01*
X3680Y240038D01*
X2707Y239635D01*
X1872Y238994D01*
X1328Y238285D01*
X828Y238440D01*
Y243844D01*
X1328Y243998D01*
X1872Y243289D01*
D02*
G37*
G36*
X151000Y215500D02*
X142976D01*
Y215594D01*
X142752Y216136D01*
X142336Y216552D01*
X141794Y216776D01*
X141206D01*
X140664Y216552D01*
X140248Y216136D01*
X140024Y215594D01*
Y215555D01*
X139998Y215529D01*
X139153D01*
X138752Y215695D01*
X138657D01*
X138242Y215742D01*
X138195Y216157D01*
Y216253D01*
X138002Y216719D01*
X138000Y216721D01*
Y219953D01*
X142201D01*
Y221500D01*
X151000D01*
Y215500D01*
D02*
G37*
G36*
X106957Y222457D02*
Y219496D01*
X130004D01*
X130756Y218744D01*
Y215147D01*
X122043D01*
Y213197D01*
X114957D01*
Y212803D01*
X114043D01*
Y213197D01*
X106957D01*
Y213197D01*
X106678Y213082D01*
X104760Y215000D01*
X99989D01*
Y222500D01*
X106939D01*
X106957Y222457D01*
D02*
G37*
G36*
X19589Y204492D02*
X19558Y204323D01*
X19370Y204004D01*
X13605D01*
X13564Y204064D01*
X13076Y204391D01*
X12500Y204505D01*
X11924Y204391D01*
X11436Y204064D01*
X11109Y203576D01*
X10995Y203000D01*
X11109Y202424D01*
X11436Y201936D01*
X11924Y201609D01*
X12500Y201495D01*
X13076Y201609D01*
X13564Y201936D01*
X13605Y201996D01*
X19084D01*
X35290Y185790D01*
X35616Y185573D01*
X36000Y185496D01*
X40851D01*
X41337Y185171D01*
X41913Y185057D01*
X42489Y185171D01*
X42978Y185498D01*
X43038Y185587D01*
X43980D01*
X44364Y185663D01*
X44690Y185881D01*
X44790Y185981D01*
X45787D01*
X46030Y185481D01*
X45932Y184985D01*
X46046Y184409D01*
X46373Y183921D01*
X46861Y183595D01*
X47094Y183548D01*
X47499Y183021D01*
X47495Y183000D01*
X47502Y182963D01*
X47138Y182446D01*
X46861Y182391D01*
X46373Y182064D01*
X46046Y181576D01*
X45932Y181000D01*
X46046Y180424D01*
X46373Y179936D01*
X46861Y179609D01*
X46992Y179583D01*
X47181Y179504D01*
X47067Y178928D01*
X47181Y178352D01*
X47498Y177877D01*
X47482Y177793D01*
X47335Y177377D01*
X42042D01*
X22568Y196851D01*
X22242Y197069D01*
X21858Y197145D01*
X10201D01*
X10196Y197186D01*
X9793Y198159D01*
X9152Y198994D01*
X8316Y199635D01*
X7343Y200038D01*
X6299Y200176D01*
X4724D01*
X3680Y200038D01*
X2707Y199635D01*
X1872Y198994D01*
X1328Y198285D01*
X828Y198440D01*
Y203844D01*
X1328Y203998D01*
X1872Y203289D01*
X2707Y202648D01*
X3680Y202245D01*
X4724Y202108D01*
X6299D01*
X7343Y202245D01*
X8316Y202648D01*
X9152Y203289D01*
X9793Y204125D01*
X10196Y205098D01*
X10201Y205138D01*
X18943D01*
X19589Y204492D01*
D02*
G37*
G36*
X40916Y175664D02*
X41242Y175447D01*
X41626Y175371D01*
X41753D01*
X41901Y174871D01*
X41405Y174224D01*
X41048Y173362D01*
X40926Y172437D01*
X41048Y171512D01*
X41289Y170931D01*
X40971Y170431D01*
X36843D01*
X20423Y186851D01*
X20098Y187069D01*
X19714Y187145D01*
X10201D01*
X10196Y187186D01*
X9793Y188159D01*
X9152Y188994D01*
X8316Y189635D01*
X7343Y190038D01*
X6299Y190176D01*
X4724D01*
X3680Y190038D01*
X2707Y189635D01*
X1872Y188994D01*
X1328Y188285D01*
X828Y188440D01*
Y193844D01*
X1328Y193998D01*
X1872Y193289D01*
X2707Y192648D01*
X3680Y192245D01*
X4724Y192108D01*
X6299D01*
X7343Y192245D01*
X8316Y192648D01*
X9152Y193289D01*
X9793Y194125D01*
X10196Y195098D01*
X10201Y195138D01*
X21443D01*
X40916Y175664D01*
D02*
G37*
G36*
X151500Y213885D02*
Y210000D01*
X149547Y208047D01*
X149264D01*
Y207764D01*
X149000Y207500D01*
Y198000D01*
X161000D01*
X162500Y197500D01*
Y191500D01*
X148000D01*
X144500Y195000D01*
X139814D01*
X139398Y195457D01*
X139417Y195638D01*
X139417D01*
Y200362D01*
X139000D01*
Y200500D01*
X136214D01*
X135836Y200878D01*
X135294Y201102D01*
X134706D01*
X134164Y200878D01*
X134143Y200857D01*
X133736Y201264D01*
Y204453D01*
X133736D01*
Y208236D01*
X134000Y208500D01*
X142500D01*
X143000Y209000D01*
Y214296D01*
X151000D01*
X151500Y213885D01*
D02*
G37*
G36*
X61203Y196290D02*
X61528Y196073D01*
X61912Y195996D01*
X68623D01*
X68997Y195623D01*
Y188068D01*
X68920Y187959D01*
X68819Y187894D01*
X68319Y188169D01*
Y191610D01*
Y194858D01*
X64776D01*
Y194338D01*
X60224D01*
Y194858D01*
X57252D01*
Y199345D01*
X57205Y199581D01*
X57363Y199725D01*
X57665Y199828D01*
X61203Y196290D01*
D02*
G37*
G36*
X144500Y193297D02*
Y192500D01*
Y183000D01*
X134000D01*
X130000Y187000D01*
Y191500D01*
X134418D01*
X134670Y191248D01*
X135212Y191024D01*
X135800D01*
X135925Y191075D01*
X136465Y190535D01*
Y188433D01*
X136500D01*
Y188000D01*
X139024D01*
Y187718D01*
X139248Y187176D01*
X139664Y186760D01*
X140206Y186535D01*
X140794D01*
X141336Y186760D01*
X141752Y187176D01*
X141976Y187718D01*
X141976Y188433D01*
X142000Y188500D01*
X142000Y188914D01*
Y193500D01*
X144297D01*
X144500Y193297D01*
D02*
G37*
G36*
X35718Y168718D02*
X36044Y168500D01*
X36428Y168424D01*
X41157D01*
X41552Y168029D01*
X41344Y167529D01*
X34890D01*
X25710Y176710D01*
X25384Y176927D01*
X25000Y177004D01*
X10220D01*
X10196Y177186D01*
X9793Y178159D01*
X9152Y178994D01*
X8316Y179635D01*
X7343Y180038D01*
X6299Y180176D01*
X4724D01*
X3680Y180038D01*
X2707Y179635D01*
X1872Y178994D01*
X1328Y178285D01*
X828Y178440D01*
Y183844D01*
X1328Y183998D01*
X1872Y183289D01*
X2707Y182648D01*
X3680Y182245D01*
X4724Y182108D01*
X6299D01*
X7343Y182245D01*
X8316Y182648D01*
X9152Y183289D01*
X9793Y184125D01*
X10196Y185098D01*
X10201Y185138D01*
X19298D01*
X35718Y168718D01*
D02*
G37*
G36*
X161500Y178500D02*
X147000D01*
Y188000D01*
X161500D01*
Y178500D01*
D02*
G37*
G36*
X55981Y207457D02*
X56340Y207218D01*
X56762Y207134D01*
X75116D01*
X75242Y206634D01*
X74800Y206059D01*
X74489Y205307D01*
X74383Y204500D01*
X74489Y203693D01*
X74800Y202941D01*
X75296Y202296D01*
X75941Y201800D01*
X76693Y201489D01*
X77500Y201383D01*
X78307Y201489D01*
X79059Y201800D01*
X79704Y202296D01*
X80200Y202941D01*
X80511Y203693D01*
X80617Y204500D01*
X80511Y205307D01*
X80200Y206059D01*
X79758Y206634D01*
X79883Y207134D01*
X97223D01*
X97653Y206847D01*
X98229Y206733D01*
X98805Y206847D01*
X99293Y207174D01*
X99396Y207328D01*
X99896Y207176D01*
Y201500D01*
X99980Y201078D01*
X100219Y200719D01*
X110719Y190219D01*
X111078Y189980D01*
X111500Y189896D01*
X123488D01*
Y184744D01*
X123847D01*
Y182346D01*
X123985Y181655D01*
X124376Y181069D01*
X126689Y178756D01*
X127276Y178364D01*
X127967Y178227D01*
X129132D01*
X129175Y178171D01*
X129709Y177761D01*
X130332Y177503D01*
X131000Y177415D01*
X131668Y177503D01*
X132291Y177761D01*
X132825Y178171D01*
X133235Y178706D01*
X133493Y179328D01*
X133581Y179996D01*
X133493Y180664D01*
X133235Y181287D01*
X132916Y181702D01*
X133263Y182072D01*
X133539Y181887D01*
X134000Y181796D01*
X134000Y181796D01*
X144500D01*
X144961Y181887D01*
X145296Y182111D01*
X145543Y182047D01*
X145796Y181913D01*
Y178500D01*
X145887Y178039D01*
X146149Y177648D01*
X146539Y177387D01*
X147000Y177296D01*
X161500D01*
X161961Y177387D01*
X162352Y177648D01*
X162496Y177865D01*
X162996Y177714D01*
Y166916D01*
X158584Y162504D01*
X157105D01*
X157064Y162564D01*
X157003Y162605D01*
Y169011D01*
X156927Y169395D01*
X156710Y169721D01*
X156248Y170182D01*
X155923Y170400D01*
X155539Y170476D01*
X134934D01*
X134550Y170400D01*
X134224Y170182D01*
X133763Y169721D01*
X133545Y169395D01*
X133469Y169011D01*
Y157646D01*
X130962D01*
X130628Y157646D01*
X130596Y157671D01*
X130258Y157988D01*
X130258Y157988D01*
X130287Y158449D01*
X130331Y158786D01*
X130225Y159593D01*
X129913Y160345D01*
X129418Y160991D01*
X128772Y161486D01*
X128021Y161797D01*
X127214Y161904D01*
X126407Y161797D01*
X125655Y161486D01*
X125010Y160991D01*
X124514Y160345D01*
X124203Y159593D01*
X124097Y158786D01*
X124203Y157980D01*
X124514Y157228D01*
X125010Y156582D01*
X125655Y156087D01*
X126407Y155775D01*
X127214Y155669D01*
X128021Y155775D01*
X128772Y156087D01*
X129418Y156582D01*
X129913Y157228D01*
X130035Y157522D01*
X130531Y157424D01*
X130535Y157411D01*
X130535Y157191D01*
X130535Y157191D01*
X130535Y157184D01*
Y154044D01*
X130073Y153853D01*
X129248Y154678D01*
X128937Y154886D01*
X128570Y154959D01*
X107648D01*
X107281Y154886D01*
X106969Y154678D01*
X104543Y152251D01*
X104154Y152570D01*
X104243Y152702D01*
X104391Y152924D01*
X104505Y153500D01*
X104391Y154076D01*
X104064Y154564D01*
X103576Y154891D01*
X103000Y155005D01*
X102424Y154891D01*
X101936Y154564D01*
X101609Y154076D01*
X101495Y153500D01*
X101609Y152924D01*
X101936Y152436D01*
X102424Y152109D01*
X103000Y151995D01*
X103576Y152109D01*
X103798Y152257D01*
X103930Y152346D01*
X104249Y151957D01*
X103250Y150959D01*
X96122D01*
X95970Y151459D01*
X96064Y151522D01*
X96391Y152011D01*
X96505Y152587D01*
X96391Y153163D01*
X96064Y153651D01*
X95576Y153977D01*
X95000Y154092D01*
X94424Y153977D01*
X93936Y153651D01*
X93609Y153163D01*
X93495Y152587D01*
X93609Y152011D01*
X93936Y151522D01*
X94030Y151459D01*
X93879Y150959D01*
X91525D01*
X91132Y151352D01*
X90821Y151560D01*
X90454Y151633D01*
X90194D01*
X89915Y152133D01*
X90005Y152587D01*
X89891Y153163D01*
X89564Y153651D01*
X89076Y153977D01*
X88500Y154092D01*
X87924Y153977D01*
X87436Y153651D01*
X87109Y153163D01*
X86995Y152587D01*
X87003Y152545D01*
X86750Y152237D01*
X86497Y152545D01*
X86505Y152587D01*
X86391Y153163D01*
X86064Y153651D01*
X85576Y153977D01*
X85000Y154092D01*
X84928Y154078D01*
X83839Y155166D01*
X83514Y155384D01*
X83130Y155460D01*
X64597D01*
X64213Y155384D01*
X63888Y155166D01*
X62225Y153504D01*
X37659D01*
X24311Y166851D01*
X23986Y167069D01*
X23602Y167145D01*
X10201D01*
X10196Y167186D01*
X9793Y168159D01*
X9152Y168994D01*
X8316Y169635D01*
X7343Y170038D01*
X6299Y170176D01*
X4724D01*
X3680Y170038D01*
X2707Y169635D01*
X1872Y168994D01*
X1328Y168285D01*
X828Y168440D01*
Y173844D01*
X1328Y173998D01*
X1872Y173289D01*
X2707Y172648D01*
X3680Y172245D01*
X4724Y172108D01*
X6299D01*
X7343Y172245D01*
X8316Y172648D01*
X9152Y173289D01*
X9793Y174125D01*
X10154Y174996D01*
X24584D01*
X33765Y165816D01*
X34090Y165598D01*
X34474Y165522D01*
X38754D01*
X38961Y165022D01*
X37987Y164048D01*
X37748Y163690D01*
X37664Y163268D01*
Y161547D01*
X36799D01*
Y157453D01*
X40736D01*
Y161547D01*
X39872D01*
Y162811D01*
X40457Y163396D01*
X42495D01*
X42924Y163109D01*
X43500Y162995D01*
X44076Y163109D01*
X44564Y163436D01*
X44891Y163924D01*
X44895Y163945D01*
X45437Y164110D01*
X51260Y158288D01*
X51177Y158016D01*
X51047Y157793D01*
X50538Y157692D01*
X50049Y157366D01*
X49723Y156878D01*
X49608Y156302D01*
X49723Y155726D01*
X50049Y155237D01*
X50538Y154911D01*
X51114Y154796D01*
X51690Y154911D01*
X52178Y155237D01*
X52504Y155726D01*
X52619Y156302D01*
X53074Y156579D01*
X53082Y156573D01*
X53466Y156497D01*
X85087D01*
X85471Y156573D01*
X85796Y156790D01*
X91928Y162922D01*
X92000Y162908D01*
X92576Y163023D01*
X93064Y163349D01*
X93391Y163837D01*
X93505Y164413D01*
X93391Y164989D01*
X93064Y165478D01*
X92774Y165672D01*
X92370Y165968D01*
X92484Y166544D01*
X92370Y167120D01*
X92044Y167608D01*
X91555Y167934D01*
X90979Y168049D01*
X90403Y167934D01*
X89915Y167608D01*
X89588Y167120D01*
X89474Y166544D01*
X89499Y166418D01*
X83336Y160256D01*
X63900D01*
X63653Y160756D01*
X64124Y161369D01*
X64527Y162342D01*
X64664Y163386D01*
X64527Y164430D01*
X64330Y164905D01*
X64734Y165236D01*
X64924Y165109D01*
X65500Y164995D01*
X66076Y165109D01*
X66564Y165436D01*
X66891Y165924D01*
X67005Y166500D01*
X66891Y167076D01*
X66564Y167564D01*
X66076Y167891D01*
X65500Y168005D01*
X64924Y167891D01*
X64436Y167564D01*
X64109Y167076D01*
X63995Y166500D01*
X64024Y166354D01*
X63556Y166142D01*
X63482Y166238D01*
X62647Y166879D01*
X61674Y167282D01*
X60630Y167420D01*
X59586Y167282D01*
X58613Y166879D01*
X57777Y166238D01*
X57136Y165403D01*
X56733Y164430D01*
X56596Y163386D01*
X56733Y162342D01*
X57136Y161369D01*
X57607Y160756D01*
X57360Y160256D01*
X54079D01*
X51308Y163026D01*
X51499Y163488D01*
X54756D01*
Y165264D01*
X58043Y168551D01*
X58193Y168489D01*
X59000Y168383D01*
X59807Y168489D01*
X60559Y168800D01*
X61204Y169296D01*
X61700Y169941D01*
X62011Y170693D01*
X62117Y171500D01*
X62011Y172307D01*
X61700Y173059D01*
X61204Y173704D01*
X60559Y174200D01*
X59807Y174511D01*
X59890Y174996D01*
X63084D01*
X66790Y171290D01*
X67116Y171073D01*
X67500Y170996D01*
X81000D01*
X81384Y171073D01*
X81710Y171290D01*
X89416Y178997D01*
X90619D01*
X90722Y178480D01*
X91048Y177992D01*
X91537Y177666D01*
X92113Y177551D01*
X92689Y177666D01*
X93177Y177992D01*
X93385Y178303D01*
X93964Y178430D01*
X94104Y178290D01*
X94430Y178073D01*
X94814Y177997D01*
X96895D01*
X96936Y177936D01*
X97424Y177609D01*
X98000Y177495D01*
X98576Y177609D01*
X99064Y177936D01*
X99391Y178424D01*
X99505Y179000D01*
X99391Y179576D01*
X99064Y180064D01*
X98576Y180391D01*
X98000Y180505D01*
X97668Y180439D01*
X97368Y180889D01*
X97391Y180924D01*
X97505Y181500D01*
X97391Y182076D01*
X97064Y182564D01*
X96576Y182891D01*
X96000Y183005D01*
X95837Y182973D01*
X95193Y183616D01*
X94868Y183834D01*
X94484Y183910D01*
X87898D01*
X87487Y184410D01*
X87505Y184500D01*
X87391Y185076D01*
X87064Y185564D01*
X86576Y185891D01*
X86000Y186005D01*
X85424Y185891D01*
X84936Y185564D01*
X84719Y185240D01*
X84217Y185185D01*
X84140Y185205D01*
X84016Y185391D01*
X83528Y185717D01*
X82952Y185832D01*
X82376Y185717D01*
X82277Y185651D01*
X81827Y185952D01*
X81875Y186197D01*
X81761Y186773D01*
X81435Y187261D01*
X80946Y187588D01*
X80370Y187702D01*
X80315Y187691D01*
X80256Y187724D01*
X79931Y188125D01*
X80005Y188500D01*
X79891Y189076D01*
X79564Y189564D01*
X79076Y189891D01*
X78500Y190005D01*
X78017Y189909D01*
X77970Y189919D01*
X77730Y190125D01*
X77630Y190456D01*
X77703Y190823D01*
X77588Y191399D01*
X77262Y191887D01*
X77203Y191927D01*
X77064Y192436D01*
X77129Y192532D01*
X77391Y192924D01*
X77505Y193500D01*
X77391Y194076D01*
X77064Y194564D01*
X76576Y194891D01*
X76000Y195005D01*
X75424Y194891D01*
X74936Y194564D01*
X74806Y194371D01*
X74224D01*
Y194858D01*
X71004D01*
Y196039D01*
X70927Y196423D01*
X70710Y196748D01*
X69748Y197710D01*
X69423Y197927D01*
X69039Y198003D01*
X62328D01*
X61770Y198561D01*
X61935Y199104D01*
X62104Y199138D01*
X62593Y199464D01*
X62919Y199952D01*
X63034Y200528D01*
X62919Y201104D01*
X62593Y201593D01*
X62104Y201919D01*
X61528Y202034D01*
X60952Y201919D01*
X60766Y201795D01*
X22328Y240233D01*
X22354Y240377D01*
X22894Y240545D01*
X55981Y207457D01*
D02*
G37*
G36*
X84744Y177163D02*
X80584Y173003D01*
X67916D01*
X64210Y176710D01*
X63884Y176927D01*
X63500Y177004D01*
X60667D01*
X60224Y177142D01*
Y177662D01*
X64776D01*
Y177142D01*
X68298D01*
X68436Y176936D01*
X68924Y176609D01*
X69500Y176495D01*
X70076Y176609D01*
X70564Y176936D01*
X70702Y177142D01*
X74224D01*
Y177663D01*
X84537D01*
X84744Y177163D01*
D02*
G37*
G36*
X35803Y152521D02*
X35612Y152059D01*
X31100D01*
X30733Y151986D01*
X30422Y151778D01*
X27091Y148447D01*
X26883Y148136D01*
X26810Y147769D01*
Y142429D01*
X18023Y133642D01*
X17815Y133331D01*
X17742Y132964D01*
Y110954D01*
X17815Y110587D01*
X18023Y110275D01*
X19132Y109166D01*
X18941Y108704D01*
X13516D01*
X13431Y108848D01*
X13359Y109204D01*
X14157Y109859D01*
X14888Y110750D01*
X15431Y111766D01*
X15765Y112869D01*
X15878Y114016D01*
X15765Y115163D01*
X15431Y116265D01*
X14888Y117282D01*
X14157Y118172D01*
X13266Y118903D01*
X12250Y119447D01*
X11147Y119781D01*
X10000Y119894D01*
X8853Y119781D01*
X7750Y119447D01*
X6734Y118903D01*
X5843Y118172D01*
X5112Y117282D01*
X4569Y116265D01*
X4235Y115163D01*
X4122Y114016D01*
X4235Y112869D01*
X4569Y111766D01*
X5112Y110750D01*
X5843Y109859D01*
X6734Y109128D01*
X7750Y108585D01*
X8853Y108250D01*
X10000Y108137D01*
X11147Y108250D01*
X11564Y108377D01*
X11887Y107961D01*
X11796Y107500D01*
Y84500D01*
X11796Y84500D01*
X11887Y84039D01*
X12149Y83649D01*
X12149Y83649D01*
X15649Y80149D01*
X16039Y79887D01*
X16500Y79796D01*
X16500Y79796D01*
X35000D01*
X35461Y79887D01*
X35851Y80149D01*
X35989Y80354D01*
X42520D01*
Y91575D01*
X36204D01*
Y98454D01*
X39689D01*
X47041Y91103D01*
Y50897D01*
X44203Y48059D01*
X29815D01*
X29727Y48100D01*
X29435Y48416D01*
X29405Y48559D01*
Y48559D01*
X29369Y48739D01*
X29349Y48921D01*
X29323Y48968D01*
X29313Y49020D01*
X29255Y49158D01*
Y49267D01*
X29297Y49367D01*
X29351Y49421D01*
X29613Y49812D01*
X29704Y50273D01*
X29704Y50273D01*
Y74000D01*
X29613Y74461D01*
X29351Y74852D01*
X29351Y74852D01*
X26351Y77851D01*
X25961Y78113D01*
X25500Y78204D01*
X25500Y78204D01*
X11500D01*
X11458Y78196D01*
X11415Y78201D01*
X11229Y78150D01*
X11039Y78113D01*
X11003Y78088D01*
X10961Y78077D01*
X9461Y77327D01*
X9309Y77209D01*
X9149Y77101D01*
X9124Y77065D01*
X9090Y77039D01*
X8995Y76871D01*
X8887Y76711D01*
X8879Y76668D01*
X8858Y76631D01*
X8833Y76439D01*
X8796Y76250D01*
Y49590D01*
X8815Y49494D01*
X7750Y49171D01*
X6734Y48628D01*
X5843Y47897D01*
X5112Y47006D01*
X4569Y45990D01*
X4235Y44887D01*
X4122Y43740D01*
X4235Y42593D01*
X4569Y41491D01*
X5112Y40474D01*
X5843Y39584D01*
X6734Y38853D01*
X7750Y38309D01*
X8853Y37975D01*
X10000Y37862D01*
X11147Y37975D01*
X12250Y38309D01*
X13266Y38853D01*
X14157Y39584D01*
X14888Y40474D01*
X15431Y41491D01*
X15765Y42593D01*
X15878Y43740D01*
X15765Y44887D01*
X15490Y45796D01*
X15777Y46296D01*
X16688D01*
X16766Y46311D01*
X16781Y46305D01*
X17064Y46046D01*
X17151Y45878D01*
X17126Y45753D01*
Y26896D01*
X17199Y26529D01*
X17407Y26218D01*
X32434Y11191D01*
X32387Y11121D01*
X32296Y10661D01*
Y8500D01*
X32296Y8500D01*
X32387Y8039D01*
X32649Y7649D01*
X32649Y7648D01*
X39007Y1290D01*
X38816Y828D01*
X9119D01*
X7342Y1181D01*
X5669Y1874D01*
X4162Y2881D01*
X2881Y4162D01*
X1874Y5669D01*
X1181Y7342D01*
X828Y9119D01*
X828Y10025D01*
Y133582D01*
X1328Y133752D01*
X1765Y133182D01*
X2632Y132517D01*
X3641Y132099D01*
X4512Y131984D01*
Y136142D01*
Y140299D01*
X3641Y140184D01*
X2632Y139766D01*
X1765Y139101D01*
X1328Y138532D01*
X828Y138701D01*
Y143844D01*
X1328Y143998D01*
X1872Y143289D01*
X2707Y142648D01*
X3680Y142245D01*
X4724Y142108D01*
X6299D01*
X7343Y142245D01*
X8316Y142648D01*
X9152Y143289D01*
X9793Y144125D01*
X10196Y145098D01*
X10333Y146142D01*
X10196Y147186D01*
X9793Y148159D01*
X9152Y148994D01*
X8316Y149635D01*
X7343Y150038D01*
X6299Y150176D01*
X4724D01*
X3680Y150038D01*
X2707Y149635D01*
X1872Y148994D01*
X1328Y148285D01*
X828Y148440D01*
Y153844D01*
X1328Y153998D01*
X1872Y153289D01*
X2707Y152648D01*
X3680Y152245D01*
X4724Y152108D01*
X6299D01*
X7343Y152245D01*
X8316Y152648D01*
X9152Y153289D01*
X9793Y154125D01*
X10196Y155098D01*
X10333Y156142D01*
X10196Y157186D01*
X9793Y158159D01*
X9152Y158994D01*
X8316Y159635D01*
X7343Y160038D01*
X6299Y160176D01*
X4724D01*
X3680Y160038D01*
X2707Y159635D01*
X1872Y158994D01*
X1328Y158285D01*
X828Y158440D01*
Y163844D01*
X1328Y163998D01*
X1872Y163289D01*
X2707Y162648D01*
X3680Y162245D01*
X4724Y162108D01*
X6299D01*
X7343Y162245D01*
X8316Y162648D01*
X9152Y163289D01*
X9793Y164125D01*
X10196Y165098D01*
X10201Y165138D01*
X23186D01*
X35803Y152521D01*
D02*
G37*
G36*
X174496Y195983D02*
Y192297D01*
X167123Y184923D01*
X167072Y184933D01*
X166496Y184818D01*
X166008Y184492D01*
X165682Y184004D01*
X165567Y183428D01*
X165682Y182852D01*
X166008Y182363D01*
X166496Y182037D01*
X167072Y181922D01*
X167648Y182037D01*
X168137Y182363D01*
X168463Y182852D01*
X168578Y183428D01*
X168559Y183521D01*
X175996Y190958D01*
X176497Y190751D01*
Y189916D01*
X168072Y181491D01*
X168000Y181505D01*
X167424Y181391D01*
X166936Y181064D01*
X166609Y180576D01*
X166495Y180000D01*
X166609Y179424D01*
X166936Y178936D01*
X167424Y178609D01*
X168000Y178495D01*
X168576Y178609D01*
X169064Y178936D01*
X169391Y179424D01*
X169505Y180000D01*
X169491Y180072D01*
X170006Y180587D01*
X170202Y180552D01*
X170517Y180390D01*
X170609Y179924D01*
X170936Y179436D01*
X171424Y179109D01*
X172000Y178995D01*
X172576Y179109D01*
X173064Y179436D01*
X173391Y179924D01*
X173505Y180500D01*
X173491Y180572D01*
X179997Y187077D01*
X180497Y186870D01*
Y185916D01*
X169979Y175398D01*
X169761Y175072D01*
X169685Y174688D01*
Y174231D01*
X169436Y174064D01*
X169109Y173576D01*
X168995Y173000D01*
X169109Y172424D01*
X169436Y171936D01*
X169924Y171609D01*
X170500Y171495D01*
X171005Y171595D01*
X171137Y171569D01*
X171532Y171313D01*
X171609Y170924D01*
X171936Y170436D01*
X172424Y170109D01*
X172930Y170009D01*
X177578Y165361D01*
X177936Y165122D01*
X178358Y165038D01*
X189829D01*
X190207Y164125D01*
X190848Y163289D01*
X191684Y162648D01*
X192657Y162245D01*
X193701Y162108D01*
X195276D01*
X196320Y162245D01*
X197293Y162648D01*
X198128Y163289D01*
X198722Y164063D01*
X198940Y164049D01*
X199222Y163924D01*
Y158359D01*
X198940Y158234D01*
X198722Y158220D01*
X198128Y158994D01*
X197293Y159635D01*
X196320Y160038D01*
X195276Y160176D01*
X193701D01*
X192657Y160038D01*
X191684Y159635D01*
X190848Y158994D01*
X190207Y158159D01*
X189804Y157186D01*
X189667Y156142D01*
X189804Y155098D01*
X190182Y154184D01*
X180602Y144604D01*
X167500D01*
X167078Y144520D01*
X166719Y144281D01*
X157401Y134962D01*
X134516D01*
X134093Y134878D01*
X133735Y134639D01*
X127022Y127926D01*
X126521Y128311D01*
X125787Y128615D01*
X125000Y128718D01*
X124213Y128615D01*
X123479Y128311D01*
X122849Y127828D01*
X122366Y127198D01*
X122062Y126464D01*
X121959Y125677D01*
Y117803D01*
X122062Y117016D01*
X122366Y116282D01*
X122849Y115653D01*
X123479Y115169D01*
X124213Y114865D01*
X125000Y114762D01*
X125787Y114865D01*
X126521Y115169D01*
X127151Y115653D01*
X127634Y116282D01*
X127938Y117016D01*
X128041Y117803D01*
Y125677D01*
X128024Y125806D01*
X134973Y132754D01*
X141155D01*
X141351Y132254D01*
X137022Y127926D01*
X136521Y128311D01*
X135787Y128615D01*
X135000Y128718D01*
X134213Y128615D01*
X133479Y128311D01*
X132849Y127828D01*
X132366Y127198D01*
X132062Y126464D01*
X131959Y125677D01*
Y117803D01*
X132062Y117016D01*
X132366Y116282D01*
X132849Y115653D01*
X133479Y115169D01*
X134213Y114865D01*
X135000Y114762D01*
X135787Y114865D01*
X136521Y115169D01*
X137151Y115653D01*
X137634Y116282D01*
X137938Y117016D01*
X138041Y117803D01*
Y125677D01*
X138024Y125806D01*
X142727Y130509D01*
X157840D01*
X158262Y130593D01*
X158620Y130832D01*
X168417Y140628D01*
X185732D01*
X186155Y140712D01*
X186513Y140952D01*
X189582Y144021D01*
X190287D01*
X190848Y143289D01*
X191684Y142648D01*
X192657Y142245D01*
X193701Y142108D01*
X195276D01*
X196320Y142245D01*
X197293Y142648D01*
X198128Y143289D01*
X198722Y144063D01*
X198940Y144049D01*
X199222Y143924D01*
Y138359D01*
X198940Y138234D01*
X198722Y138220D01*
X198128Y138994D01*
X197293Y139635D01*
X196320Y140038D01*
X195276Y140176D01*
X193701D01*
X192657Y140038D01*
X191684Y139635D01*
X190848Y138994D01*
X190207Y138159D01*
X189829Y137246D01*
X166799D01*
X166377Y137162D01*
X166019Y136922D01*
X157022Y127926D01*
X156521Y128311D01*
X155787Y128615D01*
X155000Y128718D01*
X154213Y128615D01*
X153479Y128311D01*
X152849Y127828D01*
X152366Y127198D01*
X152062Y126464D01*
X151959Y125677D01*
Y117803D01*
X152062Y117016D01*
X152366Y116282D01*
X152849Y115653D01*
X153479Y115169D01*
X154213Y114865D01*
X155000Y114762D01*
X155787Y114865D01*
X156521Y115169D01*
X157151Y115653D01*
X157634Y116282D01*
X157938Y117016D01*
X158041Y117803D01*
Y125677D01*
X158024Y125806D01*
X167256Y135038D01*
X189829D01*
X190207Y134125D01*
X190848Y133289D01*
X191684Y132648D01*
X192657Y132245D01*
X193701Y132108D01*
X195276D01*
X196320Y132245D01*
X197293Y132648D01*
X198128Y133289D01*
X198722Y134063D01*
X198940Y134049D01*
X199222Y133924D01*
Y10025D01*
Y9119D01*
X198869Y7342D01*
X198176Y5669D01*
X197169Y4162D01*
X195888Y2881D01*
X194381Y1874D01*
X192708Y1181D01*
X190931Y828D01*
X190025Y828D01*
X57204D01*
Y10271D01*
X57190Y10343D01*
X57195Y10417D01*
X57144Y10572D01*
X57113Y10732D01*
X57072Y10793D01*
X57048Y10864D01*
X56942Y10987D01*
X56852Y11122D01*
X56853Y11622D01*
X57242Y12011D01*
X57296Y12092D01*
X57673Y12167D01*
X58161Y12493D01*
X58488Y12981D01*
X58602Y13557D01*
X58488Y14134D01*
X58161Y14622D01*
X57673Y14948D01*
X57204Y15042D01*
Y20000D01*
X57204Y20000D01*
X57113Y20461D01*
X56852Y20852D01*
X55352Y22352D01*
X54961Y22613D01*
X54500Y22704D01*
X54500Y22704D01*
X53248D01*
X53005Y23000D01*
X52891Y23576D01*
X52564Y24064D01*
X52076Y24391D01*
X51500Y24505D01*
X50929Y24392D01*
X50790Y24367D01*
X50545Y24469D01*
X50343Y24604D01*
X50198Y24821D01*
X50447Y25321D01*
X97543D01*
X100896Y21968D01*
Y13005D01*
X100609Y12576D01*
X100495Y12000D01*
X100609Y11424D01*
X100936Y10936D01*
X101424Y10609D01*
X102000Y10495D01*
X102576Y10609D01*
X103064Y10936D01*
X103391Y11424D01*
X103505Y12000D01*
X103391Y12576D01*
X103104Y13005D01*
Y22425D01*
X103020Y22848D01*
X102781Y23206D01*
X99090Y26896D01*
X99297Y27396D01*
X100098D01*
X104896Y22598D01*
Y13005D01*
X104609Y12576D01*
X104495Y12000D01*
X104609Y11424D01*
X104936Y10936D01*
X105424Y10609D01*
X106000Y10495D01*
X106576Y10609D01*
X107064Y10936D01*
X107391Y11424D01*
X107505Y12000D01*
X107391Y12576D01*
X107104Y13005D01*
Y23055D01*
X107020Y23478D01*
X106781Y23836D01*
X101336Y29280D01*
X100978Y29520D01*
X100555Y29604D01*
X97743D01*
X97497Y30104D01*
X97634Y30283D01*
X97938Y31016D01*
X98041Y31803D01*
Y39677D01*
X97938Y40464D01*
X97634Y41198D01*
X97151Y41828D01*
X96521Y42311D01*
X95787Y42615D01*
X95000Y42718D01*
X94213Y42615D01*
X93479Y42311D01*
X92849Y41828D01*
X92366Y41198D01*
X92062Y40464D01*
X91959Y39677D01*
Y31803D01*
X92062Y31016D01*
X92366Y30283D01*
X92503Y30104D01*
X92257Y29604D01*
X87743D01*
X87497Y30104D01*
X87634Y30283D01*
X87938Y31016D01*
X88041Y31803D01*
Y39677D01*
X87938Y40464D01*
X87634Y41198D01*
X87151Y41828D01*
X86521Y42311D01*
X85787Y42615D01*
X85000Y42718D01*
X84213Y42615D01*
X83479Y42311D01*
X82849Y41828D01*
X82366Y41198D01*
X82062Y40464D01*
X81959Y39677D01*
Y31803D01*
X82062Y31016D01*
X82366Y30283D01*
X82503Y30104D01*
X82257Y29604D01*
X77743D01*
X77497Y30104D01*
X77634Y30283D01*
X77938Y31016D01*
X78041Y31803D01*
Y39677D01*
X77938Y40464D01*
X77634Y41198D01*
X77151Y41828D01*
X76521Y42311D01*
X75787Y42615D01*
X75000Y42718D01*
X74213Y42615D01*
X73479Y42311D01*
X72849Y41828D01*
X72366Y41198D01*
X72062Y40464D01*
X71959Y39677D01*
Y31803D01*
X72062Y31016D01*
X72366Y30283D01*
X72503Y30104D01*
X72257Y29604D01*
X67743D01*
X67497Y30104D01*
X67634Y30283D01*
X67938Y31016D01*
X68041Y31803D01*
Y39677D01*
X67938Y40464D01*
X67634Y41198D01*
X67151Y41828D01*
X66521Y42311D01*
X65787Y42615D01*
X65000Y42718D01*
X64213Y42615D01*
X63479Y42311D01*
X62849Y41828D01*
X62366Y41198D01*
X62062Y40464D01*
X61959Y39677D01*
Y31803D01*
X62062Y31016D01*
X62366Y30283D01*
X62503Y30104D01*
X62257Y29604D01*
X57743D01*
X57497Y30104D01*
X57634Y30283D01*
X57938Y31016D01*
X58041Y31803D01*
Y39677D01*
X57938Y40464D01*
X57634Y41198D01*
X57151Y41828D01*
X56521Y42311D01*
X55787Y42615D01*
X55000Y42718D01*
X54213Y42615D01*
X53479Y42311D01*
X52849Y41828D01*
X52366Y41198D01*
X52062Y40464D01*
X51959Y39677D01*
Y31803D01*
X52062Y31016D01*
X52366Y30283D01*
X52503Y30104D01*
X52257Y29604D01*
X47743D01*
X47497Y30104D01*
X47634Y30283D01*
X47938Y31016D01*
X48041Y31803D01*
Y39677D01*
X47938Y40464D01*
X47634Y41198D01*
X47151Y41828D01*
X46521Y42311D01*
X45787Y42615D01*
X45000Y42718D01*
X44213Y42615D01*
X43479Y42311D01*
X42849Y41828D01*
X42366Y41198D01*
X42062Y40464D01*
X41959Y39677D01*
Y31803D01*
X42062Y31016D01*
X42366Y30283D01*
X42503Y30104D01*
X42257Y29604D01*
X38760D01*
X37765Y30599D01*
X37938Y31016D01*
X38041Y31803D01*
Y39677D01*
X37938Y40464D01*
X37634Y41198D01*
X37151Y41828D01*
X36521Y42311D01*
X35787Y42615D01*
X35000Y42718D01*
X34213Y42615D01*
X33479Y42311D01*
X32849Y41828D01*
X32366Y41198D01*
X32062Y40464D01*
X31959Y39677D01*
Y31803D01*
X32062Y31016D01*
X32366Y30283D01*
X32849Y29653D01*
X33479Y29169D01*
X34213Y28865D01*
X35000Y28762D01*
X35787Y28865D01*
X36204Y29038D01*
X37213Y28029D01*
X37006Y27529D01*
X28032D01*
X26796Y28765D01*
X26848Y29420D01*
X27151Y29653D01*
X27634Y30283D01*
X27938Y31016D01*
X28041Y31803D01*
Y39677D01*
X27938Y40464D01*
X27634Y41198D01*
X27151Y41828D01*
X26521Y42311D01*
X25787Y42615D01*
X25000Y42718D01*
X24213Y42615D01*
X23479Y42311D01*
X22849Y41828D01*
X22366Y41198D01*
X22062Y40464D01*
X21959Y39677D01*
Y31803D01*
X22062Y31016D01*
X22366Y30283D01*
X22849Y29653D01*
X23479Y29169D01*
X24085Y28918D01*
Y28811D01*
X24169Y28388D01*
X24409Y28030D01*
X26794Y25645D01*
X27152Y25405D01*
X27575Y25321D01*
X47553D01*
X47802Y24821D01*
X47609Y24533D01*
X47509Y24026D01*
X46663Y23181D01*
X46201Y23372D01*
Y23547D01*
X42264D01*
Y20657D01*
X40003D01*
Y21500D01*
X39912Y21961D01*
X39651Y22352D01*
X39260Y22613D01*
X38799Y22704D01*
X34000D01*
X33811Y22667D01*
X33619Y22642D01*
X33582Y22621D01*
X33539Y22613D01*
X33379Y22505D01*
X33211Y22410D01*
X33184Y22376D01*
X33149Y22352D01*
X33041Y22191D01*
X32923Y22039D01*
X32423Y21039D01*
X32412Y20997D01*
X32387Y20961D01*
X32350Y20772D01*
X32299Y20585D01*
X32304Y20542D01*
X32296Y20500D01*
Y16958D01*
X31834Y16767D01*
X20644Y27956D01*
Y44541D01*
X45263D01*
X45630Y44614D01*
X45941Y44822D01*
X50278Y49159D01*
X50486Y49470D01*
X50559Y49837D01*
Y92163D01*
X50486Y92530D01*
X50278Y92841D01*
X41614Y101505D01*
X41755Y102056D01*
X41857Y102081D01*
X47719Y96219D01*
X48078Y95980D01*
X48500Y95896D01*
X70543D01*
X71481Y94958D01*
X71839Y94718D01*
X72262Y94634D01*
X83190D01*
X83464Y94452D01*
X83813Y94382D01*
X84463D01*
X84609Y94262D01*
Y91573D01*
X84495Y91000D01*
X84609Y90424D01*
X84936Y89936D01*
X85424Y89609D01*
X86000Y89495D01*
X86576Y89609D01*
X87064Y89936D01*
X87391Y90424D01*
X87505Y91000D01*
X87391Y91576D01*
X87064Y92064D01*
X86817Y92230D01*
Y93117D01*
X87278Y93309D01*
X89460Y91127D01*
X89818Y90888D01*
X90241Y90804D01*
X92133D01*
X92424Y90609D01*
X93000Y90495D01*
X93576Y90609D01*
X94064Y90936D01*
X94391Y91424D01*
X94505Y92000D01*
X94391Y92576D01*
X94064Y93064D01*
X93576Y93391D01*
X93000Y93505D01*
X92424Y93391D01*
X91936Y93064D01*
X91900Y93012D01*
X90698D01*
X89697Y94012D01*
X89793Y94623D01*
X89833Y94649D01*
X90030Y94945D01*
X96921D01*
X97206Y95002D01*
X97528Y94938D01*
X98104Y95052D01*
X98593Y95379D01*
X98919Y95867D01*
X99034Y96443D01*
X98919Y97019D01*
X98847Y97126D01*
X99115Y97626D01*
X99880D01*
X100007Y97436D01*
X100496Y97109D01*
X101072Y96995D01*
X101648Y97109D01*
X102136Y97436D01*
X102462Y97924D01*
X102577Y98500D01*
X102462Y99076D01*
X102136Y99564D01*
X101648Y99891D01*
X101072Y100005D01*
X100496Y99891D01*
X100110Y99634D01*
X95752D01*
X95432Y100134D01*
X95505Y100500D01*
X95391Y101076D01*
X95064Y101564D01*
X94576Y101891D01*
X94000Y102005D01*
X93424Y101891D01*
X92959Y101580D01*
X92927Y101566D01*
X92842Y101578D01*
X92668Y102111D01*
X92871Y102314D01*
X92910Y102373D01*
X93455Y102609D01*
X94032Y102495D01*
X94608Y102609D01*
X95096Y102936D01*
X95422Y103424D01*
X95537Y104000D01*
X95422Y104576D01*
X95096Y105064D01*
X94608Y105391D01*
X94032Y105505D01*
X93665Y105432D01*
X93165Y105752D01*
Y107746D01*
X97928Y112509D01*
X98000Y112495D01*
X98576Y112609D01*
X99064Y112936D01*
X99105Y112996D01*
X100584D01*
X103497Y110084D01*
Y95500D01*
X103573Y95116D01*
X103790Y94790D01*
X117997Y80584D01*
Y73000D01*
X118073Y72616D01*
X118290Y72290D01*
X123481Y67100D01*
Y60724D01*
X123103Y60290D01*
X120503D01*
Y61000D01*
X120427Y61384D01*
X120210Y61710D01*
X118491Y63428D01*
X118505Y63500D01*
X118391Y64076D01*
X118064Y64564D01*
X117576Y64891D01*
X117000Y65005D01*
X116424Y64891D01*
X115936Y64564D01*
X115609Y64076D01*
X115495Y63500D01*
X115609Y62924D01*
X115936Y62436D01*
X116424Y62109D01*
X117000Y61995D01*
X117072Y62009D01*
X118467Y60614D01*
X118437Y60109D01*
X118296Y60015D01*
X118093Y59711D01*
X118021Y59351D01*
Y58554D01*
X118093Y58195D01*
X118244Y57968D01*
X118093Y57742D01*
X118021Y57383D01*
Y56586D01*
X118093Y56227D01*
X118244Y56000D01*
X118093Y55773D01*
X118021Y55414D01*
Y54617D01*
X117609Y54151D01*
X116547D01*
X116125Y54067D01*
X115767Y53828D01*
X110604Y48665D01*
X110104Y48872D01*
Y51710D01*
X112040D01*
X112399Y51782D01*
X112704Y51985D01*
X112907Y52289D01*
X112979Y52649D01*
Y53446D01*
X112907Y53805D01*
X112704Y54109D01*
X112399Y54313D01*
X112040Y54384D01*
X107897D01*
X107538Y54313D01*
X107233Y54109D01*
X107030Y53805D01*
X106958Y53446D01*
Y52649D01*
X107030Y52289D01*
X107233Y51985D01*
X107538Y51782D01*
X107896Y51710D01*
Y41677D01*
X107396Y41508D01*
X107151Y41828D01*
X106521Y42311D01*
X105787Y42615D01*
X105000Y42718D01*
X104213Y42615D01*
X103479Y42311D01*
X102849Y41828D01*
X102366Y41198D01*
X102062Y40464D01*
X101959Y39677D01*
Y31803D01*
X102062Y31016D01*
X102366Y30283D01*
X102849Y29653D01*
X103479Y29169D01*
X104213Y28865D01*
X105000Y28762D01*
X105787Y28865D01*
X106521Y29169D01*
X107151Y29653D01*
X107396Y29973D01*
X107896Y29803D01*
Y28210D01*
X107980Y27788D01*
X108220Y27429D01*
X112896Y22753D01*
Y12500D01*
X112980Y12078D01*
X113219Y11720D01*
X115719Y9219D01*
X115719Y9219D01*
X116078Y8980D01*
X116500Y8896D01*
X123495D01*
X123924Y8609D01*
X124500Y8495D01*
X125076Y8609D01*
X125564Y8936D01*
X125891Y9424D01*
X126005Y10000D01*
X125891Y10576D01*
X125604Y11005D01*
Y12472D01*
X126469D01*
Y17000D01*
Y21528D01*
X123806D01*
Y24500D01*
X123669Y25191D01*
X123277Y25777D01*
X122691Y26169D01*
X122000Y26306D01*
X121309Y26169D01*
X120723Y25777D01*
X120331Y25191D01*
X120194Y24500D01*
Y21528D01*
X117532D01*
Y21528D01*
X117104Y21702D01*
Y23437D01*
X117020Y23859D01*
X116781Y24218D01*
X112104Y28894D01*
Y29803D01*
X112604Y29973D01*
X112849Y29653D01*
X113479Y29169D01*
X114213Y28865D01*
X115000Y28762D01*
X115787Y28865D01*
X116521Y29169D01*
X117151Y29653D01*
X117634Y30283D01*
X117938Y31016D01*
X118041Y31803D01*
Y39677D01*
X117938Y40464D01*
X117634Y41198D01*
X117151Y41828D01*
X116521Y42311D01*
X115787Y42615D01*
X115000Y42718D01*
X114213Y42615D01*
X113479Y42311D01*
X112849Y41828D01*
X112604Y41508D01*
X112104Y41677D01*
Y47043D01*
X117005Y51943D01*
X118359D01*
X118601Y51782D01*
X118960Y51710D01*
X123103D01*
X123462Y51782D01*
X123767Y51985D01*
X123970Y52289D01*
X124042Y52649D01*
Y53446D01*
X123970Y53805D01*
X123819Y54031D01*
X123970Y54258D01*
X124042Y54617D01*
Y55414D01*
X124028Y55483D01*
X124025Y55810D01*
X124385Y56053D01*
X124407Y56057D01*
X124733Y56275D01*
X125194Y56736D01*
X125411Y57061D01*
X125488Y57446D01*
Y67516D01*
X125411Y67900D01*
X125194Y68225D01*
X120003Y73416D01*
Y81000D01*
X119927Y81384D01*
X119710Y81710D01*
X116500Y84919D01*
X116612Y85242D01*
X116730Y85396D01*
X119995D01*
X120064Y85350D01*
Y84749D01*
X119938Y84664D01*
X119612Y84176D01*
X119497Y83600D01*
X119612Y83024D01*
X119938Y82536D01*
X120426Y82209D01*
X121002Y82095D01*
X121578Y82209D01*
X122067Y82536D01*
X122107Y82596D01*
X123031D01*
Y81472D01*
X123996D01*
Y80201D01*
X122953D01*
Y76264D01*
X127047D01*
Y77229D01*
X128073D01*
X128654Y76648D01*
Y72594D01*
X129028D01*
Y69324D01*
X129104Y68940D01*
X129322Y68614D01*
X130516Y67420D01*
X130841Y67203D01*
X131225Y67126D01*
X172238D01*
X172622Y67203D01*
X172948Y67420D01*
X177516Y71989D01*
X182480D01*
Y70433D01*
X186811D01*
Y75551D01*
X182480D01*
Y73996D01*
X177101D01*
X176717Y73919D01*
X176391Y73702D01*
X171823Y69134D01*
X131641D01*
X131035Y69740D01*
Y72594D01*
X131409D01*
Y77733D01*
X132591D01*
Y72594D01*
X135346D01*
Y73009D01*
X135669Y73073D01*
X135995Y73290D01*
X139701Y76996D01*
X185000D01*
X185384Y77073D01*
X185710Y77290D01*
X188883Y80464D01*
X189101Y80790D01*
X189177Y81174D01*
Y84236D01*
X189101Y84620D01*
X188883Y84946D01*
X185649Y88180D01*
Y89646D01*
X186811D01*
Y94764D01*
X182480D01*
Y89646D01*
X183642D01*
Y87764D01*
X183719Y87380D01*
X183936Y87055D01*
X185371Y85619D01*
X185180Y85158D01*
X183899D01*
X179062Y89995D01*
Y96956D01*
X178985Y97340D01*
X178768Y97665D01*
X172279Y104155D01*
X171953Y104372D01*
X171569Y104448D01*
X170900D01*
X170851Y104948D01*
X171010Y104980D01*
X171369Y105219D01*
X191281Y125131D01*
X191520Y125490D01*
X191604Y125912D01*
Y126495D01*
X191891Y126924D01*
X192005Y127500D01*
X191891Y128076D01*
X191564Y128564D01*
X191076Y128891D01*
X190500Y129005D01*
X189924Y128891D01*
X189436Y128564D01*
X189109Y128076D01*
X188995Y127500D01*
X189109Y126924D01*
X189396Y126495D01*
Y126369D01*
X180465Y117439D01*
X180003Y117630D01*
Y130234D01*
X179927Y130618D01*
X179710Y130943D01*
X178947Y131706D01*
X179005Y132000D01*
X178891Y132576D01*
X178564Y133064D01*
X178076Y133391D01*
X177500Y133505D01*
X176924Y133391D01*
X176436Y133064D01*
X176109Y132576D01*
X175995Y132000D01*
X176109Y131424D01*
X176436Y130936D01*
X176924Y130609D01*
X177275Y130540D01*
X177997Y129818D01*
Y127623D01*
X177497Y127453D01*
X177235Y127794D01*
X176580Y128296D01*
X175818Y128612D01*
X175000Y128720D01*
X174182Y128612D01*
X173420Y128296D01*
X172765Y127794D01*
X172263Y127139D01*
X171947Y126377D01*
X171839Y125559D01*
Y117921D01*
X171947Y117103D01*
X172263Y116341D01*
X172765Y115686D01*
X173420Y115184D01*
X174182Y114868D01*
X175000Y114761D01*
X175155Y114781D01*
X175388Y114308D01*
X170584Y109503D01*
X169605D01*
X169564Y109564D01*
X169076Y109891D01*
X168500Y110005D01*
X167924Y109891D01*
X167436Y109564D01*
X167109Y109076D01*
X166995Y108500D01*
X167109Y107924D01*
X167323Y107604D01*
X167101Y107104D01*
X166505D01*
X166076Y107391D01*
X165500Y107505D01*
X164924Y107391D01*
X164436Y107064D01*
X164109Y106576D01*
X163995Y106000D01*
X164109Y105424D01*
X164427Y104948D01*
X164412Y104868D01*
X164265Y104448D01*
X151588D01*
X151204Y104372D01*
X150878Y104155D01*
X147459Y100736D01*
X135047D01*
Y101701D01*
X130953D01*
Y100504D01*
X129528D01*
Y101469D01*
X121003D01*
Y103032D01*
X129528D01*
Y103997D01*
X130953D01*
Y102299D01*
X135047D01*
Y103264D01*
X137268D01*
X137652Y103341D01*
X137977Y103558D01*
X138928Y104509D01*
X139000Y104495D01*
X139576Y104609D01*
X140064Y104936D01*
X140391Y105424D01*
X140505Y106000D01*
X140391Y106576D01*
X140064Y107064D01*
X139576Y107391D01*
X139000Y107505D01*
X138424Y107391D01*
X137936Y107064D01*
X137609Y106576D01*
X137495Y106000D01*
X137509Y105928D01*
X136852Y105271D01*
X135047D01*
Y106236D01*
X130953D01*
Y106003D01*
X129528D01*
Y106968D01*
X123503D01*
Y109395D01*
X123564Y109436D01*
X123891Y109924D01*
X124005Y110500D01*
X123891Y111076D01*
X123564Y111564D01*
X123076Y111891D01*
X122500Y112005D01*
X121924Y111891D01*
X121503Y111610D01*
X121226Y111687D01*
X121003Y111818D01*
Y125684D01*
X120927Y126068D01*
X120710Y126394D01*
X118031Y129072D01*
Y139489D01*
X118003Y139628D01*
Y146895D01*
X118064Y146936D01*
X118391Y147424D01*
X118505Y148000D01*
X118391Y148576D01*
X118064Y149064D01*
X117576Y149391D01*
X117000Y149505D01*
X116424Y149391D01*
X115936Y149064D01*
X115564D01*
X115076Y149391D01*
X114500Y149505D01*
X113924Y149391D01*
X113436Y149064D01*
X113301Y148863D01*
X112699D01*
X112564Y149064D01*
X112076Y149391D01*
X111500Y149505D01*
X110924Y149391D01*
X110436Y149064D01*
X110064D01*
X109576Y149391D01*
X109000Y149505D01*
X108424Y149391D01*
X107936Y149064D01*
X107609Y148576D01*
X107495Y148000D01*
X107609Y147424D01*
X107896Y146995D01*
Y127678D01*
X107396Y127508D01*
X107151Y127828D01*
X106521Y128311D01*
X105787Y128615D01*
X105000Y128718D01*
X104213Y128615D01*
X103479Y128311D01*
X102849Y127828D01*
X102366Y127198D01*
X102062Y126464D01*
X101959Y125677D01*
Y117803D01*
X102062Y117016D01*
X102366Y116282D01*
X102849Y115653D01*
X103479Y115169D01*
X104213Y114865D01*
X105000Y114762D01*
X105787Y114865D01*
X106521Y115169D01*
X107151Y115653D01*
X107396Y115973D01*
X107896Y115803D01*
Y94230D01*
X107743Y94112D01*
X107419Y94000D01*
X105503Y95916D01*
Y110500D01*
X105427Y110884D01*
X105210Y111210D01*
X101710Y114710D01*
X101384Y114927D01*
X101000Y115004D01*
X99105D01*
X99064Y115064D01*
X98576Y115391D01*
X98000Y115505D01*
X97608Y115427D01*
X97325Y115880D01*
X97634Y116282D01*
X97938Y117016D01*
X98041Y117803D01*
Y125677D01*
X97938Y126464D01*
X97634Y127198D01*
X97151Y127828D01*
X96521Y128311D01*
X95787Y128615D01*
X95000Y128718D01*
X94213Y128615D01*
X93479Y128311D01*
X92849Y127828D01*
X92366Y127198D01*
X92062Y126464D01*
X91959Y125677D01*
Y117803D01*
X92062Y117016D01*
X92366Y116282D01*
X92849Y115653D01*
X93479Y115169D01*
X94213Y114865D01*
X95000Y114762D01*
X95787Y114865D01*
X96360Y115103D01*
X96691Y114699D01*
X96609Y114576D01*
X96495Y114000D01*
X96509Y113928D01*
X91783Y109202D01*
X91283Y109409D01*
Y110212D01*
X91207Y110596D01*
X90989Y110922D01*
X89725Y112186D01*
X89399Y112404D01*
X89015Y112480D01*
X75476D01*
X75092Y112404D01*
X74767Y112186D01*
X73084Y110503D01*
X56916D01*
X51503Y115916D01*
Y117429D01*
X52004Y117462D01*
X52062Y117016D01*
X52366Y116282D01*
X52849Y115653D01*
X53479Y115169D01*
X54213Y114865D01*
X55000Y114762D01*
X55787Y114865D01*
X56521Y115169D01*
X57151Y115653D01*
X57634Y116282D01*
X57938Y117016D01*
X58041Y117803D01*
Y125677D01*
X57938Y126464D01*
X57634Y127198D01*
X57151Y127828D01*
X56521Y128311D01*
X55787Y128615D01*
X55000Y128718D01*
X54213Y128615D01*
X53479Y128311D01*
X52849Y127828D01*
X52366Y127198D01*
X52062Y126464D01*
X52002Y126004D01*
X51503Y126000D01*
X51427Y126384D01*
X51210Y126710D01*
X45004Y132916D01*
Y143584D01*
X45952Y144533D01*
X46094Y144561D01*
X46518Y144476D01*
X47094Y144591D01*
X47583Y144917D01*
X47909Y145406D01*
X48024Y145982D01*
X47909Y146558D01*
X47583Y147046D01*
X47094Y147372D01*
X46518Y147487D01*
X45942Y147372D01*
X45796Y147275D01*
X45346Y147576D01*
X45366Y147674D01*
X45293Y148041D01*
X45612Y148541D01*
X70426D01*
X71202Y147766D01*
X71513Y147558D01*
X71880Y147485D01*
X72891D01*
Y146820D01*
X72964Y146453D01*
X73172Y146142D01*
X73592Y145722D01*
X73903Y145514D01*
X74270Y145441D01*
X74630D01*
X74997Y145514D01*
X75308Y145722D01*
X75650Y146064D01*
X75992Y145722D01*
X76303Y145514D01*
X76670Y145441D01*
X77030D01*
X77397Y145514D01*
X77708Y145722D01*
X78050Y146064D01*
X78392Y145722D01*
X78703Y145514D01*
X79070Y145441D01*
X79430D01*
X79797Y145514D01*
X80108Y145722D01*
X80528Y146142D01*
X80736Y146453D01*
X80809Y146820D01*
Y147441D01*
X104310D01*
X104677Y147514D01*
X104988Y147722D01*
X108707Y151441D01*
X127510D01*
X127991Y150960D01*
Y149404D01*
X127924Y149391D01*
X127436Y149064D01*
X127109Y148576D01*
X126995Y148000D01*
X127109Y147424D01*
X127436Y146936D01*
X127924Y146609D01*
X128500Y146495D01*
X129076Y146609D01*
X129564Y146936D01*
X129936D01*
X130424Y146609D01*
X131000Y146495D01*
X131576Y146609D01*
X132064Y146936D01*
X132391Y147424D01*
X132505Y148000D01*
X132391Y148576D01*
X132064Y149064D01*
X131576Y149391D01*
X131509Y149404D01*
Y152020D01*
X131602Y152134D01*
X138409D01*
Y157646D01*
X135476D01*
Y168469D01*
X146316D01*
X146588Y167969D01*
X146495Y167500D01*
X146609Y166924D01*
X146896Y166495D01*
Y151774D01*
X146980Y151351D01*
X147044Y151256D01*
X146777Y150756D01*
X139591D01*
Y145244D01*
X142424D01*
Y143472D01*
X142508Y143050D01*
X142747Y142692D01*
X145219Y140219D01*
X145578Y139980D01*
X145500Y139505D01*
X144924Y139391D01*
X144436Y139064D01*
X144109Y138576D01*
X143995Y138000D01*
X144109Y137424D01*
X144436Y136936D01*
X144924Y136609D01*
X145500Y136495D01*
X146076Y136609D01*
X146564Y136936D01*
X146605Y136996D01*
X153500D01*
X153884Y137073D01*
X154210Y137290D01*
X159481Y142562D01*
X160213Y142466D01*
X161787D01*
X162831Y142603D01*
X163804Y143006D01*
X164640Y143648D01*
X165281Y144483D01*
X165684Y145456D01*
X165822Y146500D01*
X165684Y147544D01*
X165281Y148517D01*
X164640Y149353D01*
X163804Y149994D01*
X162831Y150397D01*
X161787Y150534D01*
X160213D01*
X159169Y150397D01*
X158195Y149994D01*
X157360Y149353D01*
X156719Y148517D01*
X156316Y147544D01*
X156178Y146500D01*
X156316Y145456D01*
X156719Y144483D01*
X157360Y143648D01*
X157383Y143302D01*
X154994Y140913D01*
X154798Y140948D01*
X154483Y141110D01*
X154391Y141576D01*
X154064Y142064D01*
X153576Y142391D01*
X153000Y142505D01*
X152424Y142391D01*
X151995Y142104D01*
X146457D01*
X144631Y143930D01*
Y145244D01*
X147465D01*
Y150095D01*
X147926Y150286D01*
X149379Y148834D01*
X149479Y148328D01*
X149806Y147839D01*
X150294Y147513D01*
X150870Y147398D01*
X151446Y147513D01*
X151935Y147839D01*
X152261Y148328D01*
X152375Y148904D01*
X152261Y149480D01*
X151935Y149968D01*
X151446Y150294D01*
X150940Y150395D01*
X149104Y152231D01*
Y166495D01*
X149391Y166924D01*
X149505Y167500D01*
X149412Y167969D01*
X149684Y168469D01*
X154997D01*
Y162605D01*
X154936Y162564D01*
X154609Y162076D01*
X154495Y161500D01*
X154609Y160924D01*
X154936Y160436D01*
X155424Y160109D01*
X156000Y159995D01*
X156213Y159820D01*
Y152500D01*
X165787D01*
Y160500D01*
X160126D01*
X159919Y161000D01*
X164710Y165790D01*
X164927Y166116D01*
X165004Y166500D01*
Y186584D01*
X173710Y195290D01*
X173927Y195616D01*
X174004Y196000D01*
X174496Y195983D01*
D02*
G37*
G36*
X198940Y154049D02*
X199222Y153924D01*
Y148359D01*
X198940Y148234D01*
X198722Y148220D01*
X198128Y148994D01*
X197293Y149635D01*
X196320Y150038D01*
X195276Y150176D01*
X193701D01*
X192657Y150038D01*
X191684Y149635D01*
X190848Y148994D01*
X190207Y148159D01*
X189804Y147186D01*
X189678Y146229D01*
X189125D01*
X188702Y146145D01*
X188344Y145905D01*
X185275Y142836D01*
X182610D01*
X182418Y143298D01*
X191744Y152623D01*
X192657Y152245D01*
X193701Y152108D01*
X195276D01*
X196320Y152245D01*
X197293Y152648D01*
X198128Y153289D01*
X198722Y154063D01*
X198940Y154049D01*
D02*
G37*
G36*
X113496Y146719D02*
Y140068D01*
X113573Y139684D01*
X113790Y139359D01*
X114646Y138503D01*
Y133065D01*
X110604Y129023D01*
X110104Y129230D01*
Y146601D01*
X110604Y146823D01*
X110924Y146609D01*
X111500Y146495D01*
X112076Y146609D01*
X112564Y146936D01*
X112637Y147045D01*
X113158Y147074D01*
X113496Y146719D01*
D02*
G37*
G36*
X42428Y148041D02*
X42355Y147674D01*
X42470Y147098D01*
X42796Y146609D01*
X43285Y146283D01*
X43861Y146168D01*
X44087Y146213D01*
X44333Y145753D01*
X43290Y144710D01*
X43073Y144384D01*
X42996Y144000D01*
Y132500D01*
X43073Y132116D01*
X43290Y131790D01*
X45957Y129124D01*
X45794Y128654D01*
X45755Y128619D01*
X45000Y128718D01*
X44213Y128615D01*
X43479Y128311D01*
X42849Y127828D01*
X42503Y127377D01*
X42004Y127547D01*
Y133000D01*
X41927Y133384D01*
X41710Y133710D01*
X35991Y139428D01*
X36005Y139500D01*
X35891Y140076D01*
X35564Y140564D01*
X35076Y140891D01*
X34500Y141005D01*
X33924Y140891D01*
X33436Y140564D01*
X33109Y140076D01*
X32995Y139500D01*
X33109Y138924D01*
X33436Y138436D01*
X33924Y138109D01*
X34500Y137995D01*
X34572Y138009D01*
X39996Y132584D01*
Y131097D01*
X39535Y130906D01*
X38326Y132115D01*
X38340Y132186D01*
X38225Y132763D01*
X37899Y133251D01*
X37411Y133577D01*
X36835Y133692D01*
X36259Y133577D01*
X35770Y133251D01*
X35444Y132763D01*
X35329Y132186D01*
X35444Y131610D01*
X35770Y131122D01*
X36259Y130796D01*
X36835Y130681D01*
X36906Y130695D01*
X38497Y129106D01*
Y126051D01*
X37997Y126018D01*
X37938Y126464D01*
X37634Y127198D01*
X37151Y127828D01*
X36521Y128311D01*
X35787Y128615D01*
X35000Y128718D01*
X34213Y128615D01*
X33479Y128311D01*
X32849Y127828D01*
X32366Y127198D01*
X32062Y126464D01*
X31959Y125677D01*
Y117803D01*
X32062Y117016D01*
X32282Y116487D01*
X31858Y116203D01*
X31104Y116957D01*
Y131043D01*
X33070Y133009D01*
X33576Y133109D01*
X34064Y133436D01*
X34391Y133924D01*
X34505Y134500D01*
X34391Y135076D01*
X34064Y135564D01*
X33576Y135891D01*
X33000Y136005D01*
X32424Y135891D01*
X31936Y135564D01*
X31609Y135076D01*
X31509Y134570D01*
X29219Y132281D01*
X28980Y131922D01*
X28896Y131500D01*
Y117112D01*
X28396Y116905D01*
X27978Y117323D01*
X28041Y117803D01*
Y125677D01*
X27938Y126464D01*
X27634Y127198D01*
X27151Y127828D01*
X26521Y128311D01*
X25787Y128615D01*
X25000Y128718D01*
X24213Y128615D01*
X23479Y128311D01*
X22849Y127828D01*
X22366Y127198D01*
X22062Y126464D01*
X21959Y125677D01*
Y117803D01*
X22062Y117016D01*
X22366Y116282D01*
X22849Y115653D01*
X23479Y115169D01*
X24213Y114865D01*
X25000Y114762D01*
X25787Y114865D01*
X26521Y115169D01*
X26797Y115382D01*
X31064Y111116D01*
X30974Y110820D01*
X30866Y110606D01*
X30432Y110316D01*
X30105Y109828D01*
X29991Y109252D01*
X30105Y108676D01*
X30432Y108188D01*
X30598Y108076D01*
Y107475D01*
X30432Y107364D01*
X30105Y106875D01*
X29991Y106299D01*
X30105Y105723D01*
X30432Y105235D01*
X30920Y104909D01*
X31496Y104794D01*
X32072Y104909D01*
X32561Y105235D01*
X32887Y105723D01*
X33001Y106299D01*
X32887Y106875D01*
X32561Y107364D01*
X32394Y107475D01*
Y108076D01*
X32561Y108188D01*
X32850Y108622D01*
X33064Y108730D01*
X33360Y108819D01*
X39547Y102632D01*
X39786Y102472D01*
X39650Y101972D01*
X31301D01*
X21260Y112013D01*
Y131904D01*
X30047Y140691D01*
X30255Y141002D01*
X30328Y141369D01*
Y146709D01*
X32160Y148541D01*
X42109D01*
X42428Y148041D01*
D02*
G37*
G36*
X118997Y125268D02*
Y99961D01*
X119073Y99577D01*
X119290Y99252D01*
X119752Y98790D01*
X120077Y98573D01*
X120461Y98497D01*
X120472D01*
Y97531D01*
X128108D01*
X128519Y97121D01*
X128495Y97000D01*
X128600Y96469D01*
X128583Y96342D01*
X128383Y95969D01*
X120472D01*
Y95791D01*
X118128D01*
X112004Y101916D01*
Y115934D01*
X112504Y116103D01*
X112849Y115653D01*
X113479Y115169D01*
X114213Y114865D01*
X115000Y114762D01*
X115787Y114865D01*
X116521Y115169D01*
X117151Y115653D01*
X117634Y116282D01*
X117938Y117016D01*
X118041Y117803D01*
Y125516D01*
X118509Y125757D01*
X118997Y125268D01*
D02*
G37*
G36*
X85183Y100756D02*
X86184Y99755D01*
Y97935D01*
X86037Y97815D01*
X85673D01*
X85294Y98245D01*
X85281Y98303D01*
X85281Y98306D01*
Y98970D01*
X85212Y99320D01*
X85013Y99617D01*
X84716Y99816D01*
X84366Y99886D01*
X82375D01*
X82024Y99816D01*
X81727Y99617D01*
X81529Y99320D01*
X81459Y98970D01*
Y98853D01*
X81210Y98604D01*
X73184D01*
X72008Y99781D01*
X71649Y100020D01*
X71227Y100104D01*
X49402D01*
X49266Y100284D01*
X49514Y100784D01*
X81774D01*
X82021Y100619D01*
X82370Y100549D01*
X83976D01*
X84326Y100619D01*
X84508Y100741D01*
X84628Y100816D01*
X85183Y100756D01*
D02*
G37*
G36*
X177055Y96540D02*
Y89580D01*
X177131Y89196D01*
X177349Y88870D01*
X182480Y83738D01*
Y80039D01*
X184967D01*
X185158Y79577D01*
X184584Y79004D01*
X139309D01*
X139260Y79057D01*
X139069Y79470D01*
X139104Y79505D01*
X139309Y79812D01*
X139647Y80038D01*
X139973Y80526D01*
X140088Y81102D01*
X139973Y81678D01*
X139887Y81807D01*
X140155Y82307D01*
X142520D01*
Y81614D01*
X146653D01*
Y87913D01*
X144775D01*
X144584Y88375D01*
X147803Y91595D01*
X170000D01*
Y90039D01*
X174331D01*
Y95157D01*
X170000D01*
Y93602D01*
X147388D01*
X147004Y93526D01*
X146678Y93308D01*
X141893Y88523D01*
X138520D01*
X135067Y91976D01*
X135047Y91989D01*
Y93968D01*
X130953D01*
Y92733D01*
X130453Y92526D01*
X129528Y93451D01*
Y95195D01*
X129914Y95512D01*
X130000Y95495D01*
X130576Y95609D01*
X131064Y95936D01*
X131391Y96424D01*
X131505Y97000D01*
X131453Y97264D01*
X131821Y97764D01*
X135047D01*
Y98729D01*
X147875D01*
X148259Y98805D01*
X148585Y99023D01*
X152003Y102441D01*
X171153D01*
X177055Y96540D01*
D02*
G37*
G36*
X129617Y90523D02*
X129943Y90305D01*
X130327Y90229D01*
X130953D01*
Y90031D01*
X134173D01*
X136685Y87520D01*
X133870Y84704D01*
X133409Y84950D01*
X133433Y85072D01*
X133318Y85648D01*
X132992Y86137D01*
X132504Y86463D01*
X131928Y86578D01*
X131352Y86463D01*
X130863Y86137D01*
X130537Y85648D01*
X130422Y85072D01*
X130456Y84905D01*
X130425Y84843D01*
X130003Y84617D01*
X129477Y85143D01*
X129391Y85576D01*
X129064Y86064D01*
X128576Y86391D01*
X128000Y86505D01*
X127469Y86400D01*
X127342Y86417D01*
X126969Y86617D01*
Y90528D01*
X126624D01*
Y92032D01*
X128108D01*
X129617Y90523D01*
D02*
G37*
G36*
X117003Y94078D02*
X117329Y93860D01*
X117713Y93784D01*
X120472D01*
Y92032D01*
X124416D01*
Y90528D01*
X123031D01*
Y86000D01*
Y84604D01*
X122107D01*
X122067Y84664D01*
X121938Y84750D01*
Y85351D01*
X122064Y85436D01*
X122391Y85924D01*
X122505Y86500D01*
X122391Y87076D01*
X122064Y87564D01*
X121576Y87891D01*
X121000Y88005D01*
X120424Y87891D01*
X119995Y87604D01*
X117122D01*
X110104Y94622D01*
Y100270D01*
X110604Y100477D01*
X117003Y94078D01*
D02*
G37*
G36*
X29563Y98735D02*
X29874Y98527D01*
X30241Y98454D01*
X35000D01*
Y81000D01*
X16500D01*
X13000Y84500D01*
Y107500D01*
X20798D01*
X29563Y98735D01*
D02*
G37*
G36*
X28500Y74000D02*
Y50273D01*
X28276Y50049D01*
X28051Y49506D01*
Y48919D01*
X28200Y48559D01*
X27966Y48110D01*
X27907Y48059D01*
X27178D01*
X26918Y48559D01*
X27067Y48919D01*
Y49506D01*
X26842Y50049D01*
X26427Y50464D01*
X25884Y50689D01*
X25297D01*
X24754Y50464D01*
X24339Y50049D01*
X24114Y49506D01*
Y48919D01*
X24263Y48559D01*
X24003Y48059D01*
X23241D01*
X22981Y48559D01*
X23130Y48919D01*
Y49506D01*
X22905Y50049D01*
X22490Y50464D01*
X21947Y50689D01*
X21360D01*
X20817Y50464D01*
X20402Y50049D01*
X20177Y49506D01*
Y48919D01*
X20326Y48559D01*
X20066Y48059D01*
X19432D01*
X19328Y48038D01*
X19196Y48163D01*
X19013Y48485D01*
X19193Y48919D01*
Y49506D01*
X18968Y50049D01*
X18553Y50464D01*
X18010Y50689D01*
X17423D01*
X16880Y50464D01*
X16465Y50049D01*
X16240Y49506D01*
Y48919D01*
X16465Y48376D01*
X16841Y48000D01*
X16821Y47820D01*
X16688Y47500D01*
X14513D01*
X13729Y48284D01*
X12771Y48924D01*
X11706Y49365D01*
X10576Y49590D01*
X10000D01*
Y76250D01*
X11500Y77000D01*
X25500D01*
X28500Y74000D01*
D02*
G37*
G36*
X56000Y20000D02*
Y14978D01*
X55798Y14845D01*
X55500Y14728D01*
X55031Y14922D01*
X54444D01*
X53901Y14697D01*
X53486Y14282D01*
X53443Y14178D01*
X46623D01*
X46165Y14636D01*
X45854Y14844D01*
X45487Y14917D01*
X41915D01*
X41548Y14844D01*
X41236Y14636D01*
X40779Y14178D01*
X34422D01*
X33500Y15100D01*
Y20500D01*
X34000Y21500D01*
X38799D01*
Y19453D01*
X46201D01*
Y20396D01*
X46543D01*
X46966Y20480D01*
X47324Y20719D01*
X48104Y21500D01*
X54500D01*
X56000Y20000D01*
D02*
G37*
G36*
X44884Y10941D02*
X45196Y10734D01*
X45563Y10661D01*
X55494D01*
X55500Y10662D01*
X56000Y10271D01*
Y828D01*
X41172D01*
X33500Y8500D01*
Y10661D01*
X41839D01*
X42206Y10734D01*
X42517Y10941D01*
X42975Y11399D01*
X44427D01*
X44884Y10941D01*
D02*
G37*
%LPC*%
G36*
X29254Y397934D02*
X28096Y397820D01*
X26983Y397482D01*
X25957Y396934D01*
X25058Y396196D01*
X24320Y395297D01*
X23772Y394271D01*
X23434Y393158D01*
X23320Y392000D01*
X23434Y390842D01*
X23772Y389729D01*
X24320Y388703D01*
X25058Y387804D01*
X25957Y387066D01*
X26983Y386518D01*
X28096Y386180D01*
X29254Y386066D01*
X30412Y386180D01*
X31525Y386518D01*
X32551Y387066D01*
X33450Y387804D01*
X34188Y388703D01*
X34736Y389729D01*
X35074Y390842D01*
X35188Y392000D01*
X35074Y393158D01*
X34736Y394271D01*
X34188Y395297D01*
X33450Y396196D01*
X32551Y396934D01*
X31525Y397482D01*
X30412Y397820D01*
X29254Y397934D01*
D02*
G37*
G36*
X186614Y399114D02*
X185174Y398972D01*
X183789Y398552D01*
X182513Y397870D01*
X181395Y396952D01*
X180477Y395833D01*
X179795Y394557D01*
X179374Y393172D01*
X179233Y391732D01*
X179374Y390292D01*
X179795Y388908D01*
X180477Y387631D01*
X181395Y386513D01*
X182513Y385595D01*
X183789Y384913D01*
X185174Y384492D01*
X186614Y384351D01*
X188054Y384492D01*
X189439Y384913D01*
X190715Y385595D01*
X191834Y386513D01*
X192752Y387631D01*
X193434Y388908D01*
X193854Y390292D01*
X193996Y391732D01*
X193854Y393172D01*
X193434Y394557D01*
X192752Y395833D01*
X191834Y396952D01*
X190715Y397870D01*
X189439Y398552D01*
X188054Y398972D01*
X186614Y399114D01*
D02*
G37*
G36*
X13386D02*
X11946Y398972D01*
X10561Y398552D01*
X9285Y397870D01*
X8166Y396952D01*
X7248Y395833D01*
X6566Y394557D01*
X6146Y393172D01*
X6004Y391732D01*
X6146Y390292D01*
X6566Y388908D01*
X7248Y387631D01*
X8166Y386513D01*
X9285Y385595D01*
X10561Y384913D01*
X11946Y384492D01*
X13386Y384351D01*
X14826Y384492D01*
X16211Y384913D01*
X17487Y385595D01*
X18605Y386513D01*
X19523Y387631D01*
X20206Y388908D01*
X20626Y390292D01*
X20767Y391732D01*
X20626Y393172D01*
X20206Y394557D01*
X19523Y395833D01*
X18605Y396952D01*
X17487Y397870D01*
X16211Y398552D01*
X14826Y398972D01*
X13386Y399114D01*
D02*
G37*
G36*
X151109Y393958D02*
X149926Y393803D01*
X148825Y393346D01*
X147879Y392621D01*
X147154Y391675D01*
X146697Y390574D01*
X146542Y389391D01*
Y377391D01*
X143427D01*
X142964Y377330D01*
X137514D01*
X137514Y377330D01*
X136332Y377175D01*
X135231Y376719D01*
X134285Y375993D01*
X134285Y375993D01*
X123930Y365638D01*
X120169D01*
Y358945D01*
X122335D01*
X122926Y358175D01*
X123872Y357450D01*
X124973Y356993D01*
X126155Y356838D01*
X127337Y356993D01*
X128438Y357450D01*
X129384Y358175D01*
X137326Y366117D01*
X137787Y365925D01*
Y348059D01*
X144433D01*
Y343500D01*
X144494Y343037D01*
X144433Y342573D01*
Y340000D01*
X144496Y339528D01*
X144426Y339000D01*
X144548Y338075D01*
X144905Y337213D01*
X145286Y336717D01*
X145039Y336216D01*
X144968D01*
Y331689D01*
X148512D01*
Y331996D01*
X149472D01*
Y331031D01*
X154000D01*
Y334968D01*
X149472D01*
Y334003D01*
X148512D01*
Y334993D01*
X149000Y335433D01*
X150182Y335589D01*
X151283Y336045D01*
X152229Y336771D01*
X152955Y337717D01*
X153411Y338818D01*
X153567Y340000D01*
Y342573D01*
X153506Y343037D01*
X153567Y343500D01*
Y348059D01*
X155701D01*
Y367941D01*
X152603D01*
X152503Y368441D01*
X153392Y368809D01*
X154338Y369535D01*
X154474Y369713D01*
X154764D01*
Y370090D01*
X155063Y370480D01*
X155519Y371582D01*
X155675Y372764D01*
X155674Y372771D01*
X155675Y372777D01*
Y389391D01*
X155519Y390574D01*
X155063Y391675D01*
X154338Y392621D01*
X153392Y393346D01*
X152290Y393803D01*
X151109Y393958D01*
D02*
G37*
G36*
X177754Y385434D02*
X176596Y385320D01*
X175483Y384982D01*
X174457Y384434D01*
X173558Y383696D01*
X172820Y382797D01*
X172272Y381771D01*
X171934Y380658D01*
X171820Y379500D01*
X171934Y378342D01*
X172272Y377229D01*
X172820Y376203D01*
X173558Y375304D01*
X174457Y374566D01*
X175483Y374018D01*
X176596Y373680D01*
X177754Y373566D01*
X178912Y373680D01*
X180025Y374018D01*
X181051Y374566D01*
X181950Y375304D01*
X182688Y376203D01*
X183236Y377229D01*
X183574Y378342D01*
X183688Y379500D01*
X183574Y380658D01*
X183236Y381771D01*
X182688Y382797D01*
X181950Y383696D01*
X181051Y384434D01*
X180025Y384982D01*
X178912Y385320D01*
X177754Y385434D01*
D02*
G37*
G36*
X148512Y330311D02*
X144968D01*
Y325783D01*
X148512D01*
Y326060D01*
X149472D01*
Y325031D01*
X154000D01*
Y328969D01*
X149472D01*
Y328066D01*
X148512D01*
Y330311D01*
D02*
G37*
G36*
X66575Y333020D02*
X55354D01*
Y322980D01*
X66575D01*
Y323433D01*
X113433D01*
X113433Y323433D01*
X114615Y323589D01*
X115717Y324045D01*
X116662Y324771D01*
X116696Y324804D01*
X117421Y325750D01*
X117878Y326851D01*
X118033Y328033D01*
X117878Y329215D01*
X117421Y330317D01*
X116696Y331262D01*
X115750Y331988D01*
X114649Y332444D01*
X113467Y332600D01*
X113213Y332567D01*
X66575D01*
Y333020D01*
D02*
G37*
G36*
X149016Y319465D02*
X143504D01*
Y311591D01*
X149016D01*
Y319465D01*
D02*
G37*
G36*
X135236D02*
X129724D01*
Y311591D01*
X131376D01*
Y307981D01*
X130924Y307891D01*
X130436Y307564D01*
X130109Y307076D01*
X129995Y306500D01*
X130109Y305924D01*
X130436Y305436D01*
X130924Y305109D01*
X131500Y304995D01*
X132076Y305109D01*
X132564Y305436D01*
X132891Y305924D01*
X132991Y306430D01*
X133261Y306700D01*
X133500Y307058D01*
X133584Y307480D01*
Y311591D01*
X135236D01*
Y319465D01*
D02*
G37*
G36*
X142126Y310409D02*
X136614D01*
Y307576D01*
X135972D01*
X135550Y307492D01*
X135192Y307253D01*
X133719Y305781D01*
X133480Y305422D01*
X133396Y305000D01*
Y303712D01*
X133109Y303282D01*
X132995Y302706D01*
X133109Y302130D01*
X133436Y301642D01*
X133924Y301315D01*
X134500Y301201D01*
X135076Y301315D01*
X135564Y301642D01*
X135891Y302130D01*
X136005Y302706D01*
X135891Y303282D01*
X135604Y303712D01*
Y304543D01*
X136114Y305053D01*
X136614Y304846D01*
Y302535D01*
X142126D01*
Y310409D01*
D02*
G37*
G36*
X134736Y268547D02*
X130799D01*
Y264453D01*
X132353D01*
Y263949D01*
X132437Y263526D01*
X132676Y263168D01*
X134254Y261591D01*
X134270Y261451D01*
X134204Y261021D01*
X133895Y260814D01*
X133616Y260397D01*
X133519Y259906D01*
X133616Y259414D01*
X133895Y258997D01*
X134312Y258719D01*
X134803Y258621D01*
X136221D01*
X136712Y258719D01*
X137129Y258997D01*
X137407Y259414D01*
X137505Y259906D01*
X137407Y260397D01*
X137129Y260814D01*
X136712Y261092D01*
X136616Y261111D01*
Y261894D01*
X136532Y262316D01*
X136292Y262674D01*
X134933Y264034D01*
X134736Y264453D01*
Y268547D01*
D02*
G37*
G36*
X100394Y254655D02*
X99818Y254540D01*
X99329Y254214D01*
X99003Y253726D01*
X98888Y253150D01*
X99003Y252574D01*
X99329Y252085D01*
X99818Y251759D01*
X100394Y251644D01*
X100970Y251759D01*
X101458Y252085D01*
X101784Y252574D01*
X101899Y253150D01*
X101784Y253726D01*
X101458Y254214D01*
X100970Y254540D01*
X100394Y254655D01*
D02*
G37*
G36*
X55000Y310505D02*
X54424Y310391D01*
X53936Y310064D01*
X53609Y309576D01*
X53495Y309000D01*
X53609Y308424D01*
X53936Y307936D01*
X54424Y307609D01*
X54930Y307509D01*
X54998Y307440D01*
Y302929D01*
X52165D01*
Y297417D01*
X60039D01*
Y299753D01*
X60539Y299802D01*
X60556Y299720D01*
X60615Y299424D01*
X60941Y298936D01*
X61429Y298609D01*
X62005Y298495D01*
X62581Y298609D01*
X63070Y298936D01*
X63396Y299424D01*
X63511Y300000D01*
X63496Y300072D01*
X65867Y302443D01*
X66085Y302768D01*
X66161Y303152D01*
Y304307D01*
X69095D01*
Y309819D01*
X61221D01*
Y304307D01*
X64154D01*
Y303568D01*
X62077Y301491D01*
X62005Y301505D01*
X61429Y301391D01*
X60941Y301064D01*
X60615Y300576D01*
X60556Y300280D01*
X60539Y300198D01*
X60039Y300247D01*
Y302929D01*
X57206D01*
Y307898D01*
X57122Y308320D01*
X56883Y308678D01*
X56491Y309070D01*
X56391Y309576D01*
X56064Y310064D01*
X55576Y310391D01*
X55000Y310505D01*
D02*
G37*
G36*
X6512Y300299D02*
Y297142D01*
X10353D01*
X10342Y297225D01*
X9924Y298234D01*
X9259Y299101D01*
X8392Y299766D01*
X7383Y300184D01*
X6512Y300299D01*
D02*
G37*
G36*
X101000Y307063D02*
Y295291D01*
X112772D01*
X112692Y296302D01*
X112222Y298262D01*
X111450Y300125D01*
X110396Y301845D01*
X109087Y303378D01*
X107553Y304688D01*
X105834Y305741D01*
X103971Y306513D01*
X102010Y306984D01*
X101000Y307063D01*
D02*
G37*
G36*
X99000D02*
X97990Y306984D01*
X96029Y306513D01*
X94166Y305741D01*
X92447Y304688D01*
X90913Y303378D01*
X89604Y301845D01*
X88550Y300125D01*
X87778Y298262D01*
X87308Y296302D01*
X87228Y295291D01*
X99000D01*
Y307063D01*
D02*
G37*
G36*
X10353Y295142D02*
X6512D01*
Y291984D01*
X7383Y292099D01*
X8392Y292517D01*
X9259Y293182D01*
X9924Y294049D01*
X10342Y295058D01*
X10353Y295142D01*
D02*
G37*
G36*
X112772Y293291D02*
X101000D01*
Y281519D01*
X102010Y281599D01*
X103971Y282070D01*
X105834Y282841D01*
X107553Y283895D01*
X109087Y285205D01*
X110396Y286738D01*
X111450Y288457D01*
X112222Y290320D01*
X112692Y292281D01*
X112772Y293291D01*
D02*
G37*
G36*
X99000D02*
X87228D01*
X87308Y292281D01*
X87778Y290320D01*
X88550Y288457D01*
X89604Y286738D01*
X90913Y285205D01*
X92447Y283895D01*
X94166Y282841D01*
X96029Y282070D01*
X97990Y281599D01*
X99000Y281519D01*
Y293291D01*
D02*
G37*
G36*
X55500Y276617D02*
X54693Y276511D01*
X53941Y276200D01*
X53296Y275704D01*
X52800Y275059D01*
X52489Y274307D01*
X52383Y273500D01*
X52489Y272693D01*
X52800Y271941D01*
X53296Y271296D01*
X53941Y270800D01*
X54693Y270489D01*
X55500Y270383D01*
X56307Y270489D01*
X57059Y270800D01*
X57704Y271296D01*
X58200Y271941D01*
X58511Y272693D01*
X58617Y273500D01*
X58511Y274307D01*
X58200Y275059D01*
X57704Y275704D01*
X57059Y276200D01*
X56307Y276511D01*
X55500Y276617D01*
D02*
G37*
G36*
X79528Y253080D02*
X78952Y252965D01*
X78463Y252639D01*
X78137Y252151D01*
X78022Y251575D01*
X78137Y250999D01*
X78463Y250510D01*
X78952Y250184D01*
X79528Y250069D01*
X80104Y250184D01*
X80592Y250510D01*
X80918Y250999D01*
X81033Y251575D01*
X80918Y252151D01*
X80592Y252639D01*
X80104Y252965D01*
X79528Y253080D01*
D02*
G37*
G36*
X47000Y229505D02*
X46424Y229391D01*
X45936Y229064D01*
X45609Y228576D01*
X45495Y228000D01*
X45609Y227424D01*
X45936Y226936D01*
X46424Y226609D01*
X47000Y226495D01*
X47576Y226609D01*
X48064Y226936D01*
X48391Y227424D01*
X48505Y228000D01*
X48391Y228576D01*
X48064Y229064D01*
X47576Y229391D01*
X47000Y229505D01*
D02*
G37*
G36*
X56740Y215285D02*
X56164Y215170D01*
X55676Y214844D01*
X55349Y214356D01*
X55235Y213779D01*
X55349Y213204D01*
X55676Y212715D01*
X56164Y212389D01*
X56740Y212274D01*
X57316Y212389D01*
X57805Y212715D01*
X58131Y213204D01*
X58245Y213779D01*
X58131Y214356D01*
X57805Y214844D01*
X57316Y215170D01*
X56740Y215285D01*
D02*
G37*
G36*
X47000Y203505D02*
X46424Y203391D01*
X45936Y203064D01*
X45609Y202576D01*
X45495Y202000D01*
X45609Y201424D01*
X45936Y200936D01*
X46424Y200609D01*
X47000Y200495D01*
X47576Y200609D01*
X48064Y200936D01*
X48391Y201424D01*
X48505Y202000D01*
X48391Y202576D01*
X48064Y203064D01*
X47576Y203391D01*
X47000Y203505D01*
D02*
G37*
G36*
X81500Y168505D02*
X80924Y168391D01*
X80436Y168064D01*
X80109Y167576D01*
X79995Y167000D01*
X80109Y166424D01*
X80436Y165936D01*
X80924Y165609D01*
X81500Y165495D01*
X82076Y165609D01*
X82564Y165936D01*
X82891Y166424D01*
X83005Y167000D01*
X82891Y167576D01*
X82564Y168064D01*
X82076Y168391D01*
X81500Y168505D01*
D02*
G37*
G36*
X78000D02*
X77424Y168391D01*
X76936Y168064D01*
X76609Y167576D01*
X76495Y167000D01*
X76609Y166424D01*
X76936Y165936D01*
X77424Y165609D01*
X78000Y165495D01*
X78576Y165609D01*
X79064Y165936D01*
X79391Y166424D01*
X79505Y167000D01*
X79391Y167576D01*
X79064Y168064D01*
X78576Y168391D01*
X78000Y168505D01*
D02*
G37*
G36*
X74000D02*
X73424Y168391D01*
X72936Y168064D01*
X72609Y167576D01*
X72495Y167000D01*
X72609Y166424D01*
X72936Y165936D01*
X73424Y165609D01*
X74000Y165495D01*
X74576Y165609D01*
X75064Y165936D01*
X75391Y166424D01*
X75505Y167000D01*
X75391Y167576D01*
X75064Y168064D01*
X74576Y168391D01*
X74000Y168505D01*
D02*
G37*
G36*
X105000Y167919D02*
X104424Y167804D01*
X103936Y167478D01*
X103609Y166989D01*
X103495Y166413D01*
X103609Y165837D01*
X103936Y165349D01*
X104424Y165023D01*
X105000Y164908D01*
X105576Y165023D01*
X106064Y165349D01*
X106391Y165837D01*
X106505Y166413D01*
X106391Y166989D01*
X106064Y167478D01*
X105576Y167804D01*
X105000Y167919D01*
D02*
G37*
G36*
X70500Y167005D02*
X69924Y166891D01*
X69436Y166564D01*
X69109Y166076D01*
X68995Y165500D01*
X69061Y165168D01*
X68611Y164868D01*
X68576Y164891D01*
X68000Y165005D01*
X67424Y164891D01*
X66936Y164564D01*
X66609Y164076D01*
X66495Y163500D01*
X66609Y162924D01*
X66936Y162436D01*
X67424Y162109D01*
X68000Y161995D01*
X68576Y162109D01*
X69064Y162436D01*
X69391Y162924D01*
X69505Y163500D01*
X69439Y163832D01*
X69889Y164132D01*
X69924Y164109D01*
X70500Y163995D01*
X71076Y164109D01*
X71564Y164436D01*
X71891Y164924D01*
X72005Y165500D01*
X71891Y166076D01*
X71564Y166564D01*
X71076Y166891D01*
X70500Y167005D01*
D02*
G37*
G36*
X23500Y144005D02*
X22924Y143891D01*
X22436Y143564D01*
X22109Y143076D01*
X21995Y142500D01*
X22109Y141924D01*
X22436Y141436D01*
X22924Y141109D01*
X23500Y140995D01*
X24076Y141109D01*
X24564Y141436D01*
X24891Y141924D01*
X25005Y142500D01*
X24891Y143076D01*
X24564Y143564D01*
X24076Y143891D01*
X23500Y144005D01*
D02*
G37*
G36*
X19701Y142640D02*
X19125Y142525D01*
X18637Y142199D01*
X18310Y141710D01*
X18196Y141134D01*
X18310Y140558D01*
X18637Y140070D01*
X19125Y139744D01*
X19701Y139629D01*
X20277Y139744D01*
X20765Y140070D01*
X21092Y140558D01*
X21206Y141134D01*
X21092Y141710D01*
X20765Y142199D01*
X20277Y142525D01*
X19701Y142640D01*
D02*
G37*
G36*
X6512Y140299D02*
Y137142D01*
X10353D01*
X10342Y137225D01*
X9924Y138234D01*
X9259Y139101D01*
X8392Y139766D01*
X7383Y140184D01*
X6512Y140299D01*
D02*
G37*
G36*
X10353Y135142D02*
X6512D01*
Y131984D01*
X7383Y132099D01*
X8392Y132517D01*
X9259Y133182D01*
X9924Y134049D01*
X10342Y135058D01*
X10353Y135142D01*
D02*
G37*
G36*
X42520Y74646D02*
X32480D01*
Y63425D01*
X32933D01*
Y56000D01*
X33089Y54818D01*
X33545Y53717D01*
X34271Y52771D01*
X35217Y52045D01*
X36318Y51589D01*
X37500Y51433D01*
X38682Y51589D01*
X39783Y52045D01*
X40729Y52771D01*
X41455Y53717D01*
X41911Y54818D01*
X42067Y56000D01*
Y63425D01*
X42520D01*
Y74646D01*
D02*
G37*
G36*
X13386Y21161D02*
X11946Y21019D01*
X10561Y20599D01*
X9285Y19917D01*
X8166Y18999D01*
X7248Y17880D01*
X6566Y16604D01*
X6146Y15220D01*
X6004Y13780D01*
X6146Y12339D01*
X6566Y10955D01*
X7248Y9679D01*
X8166Y8560D01*
X9285Y7642D01*
X10561Y6960D01*
X11946Y6540D01*
X13386Y6398D01*
X14826Y6540D01*
X16211Y6960D01*
X17487Y7642D01*
X18605Y8560D01*
X19523Y9679D01*
X20206Y10955D01*
X20626Y12339D01*
X20767Y13780D01*
X20626Y15220D01*
X20206Y16604D01*
X19523Y17880D01*
X18605Y18999D01*
X17487Y19917D01*
X16211Y20599D01*
X14826Y21019D01*
X13386Y21161D01*
D02*
G37*
G36*
X139370Y166427D02*
X138583Y166324D01*
X137849Y166020D01*
X137220Y165536D01*
X136736Y164907D01*
X136432Y164173D01*
X136329Y163386D01*
X136432Y162599D01*
X136736Y161865D01*
X137220Y161235D01*
X137849Y160752D01*
X138583Y160448D01*
X139370Y160345D01*
X140157Y160448D01*
X140891Y160752D01*
X141521Y161235D01*
X142004Y161865D01*
X142308Y162599D01*
X142411Y163386D01*
X142308Y164173D01*
X142004Y164907D01*
X141521Y165536D01*
X140891Y166020D01*
X140157Y166324D01*
X139370Y166427D01*
D02*
G37*
G36*
X121000Y149005D02*
X120424Y148891D01*
X119936Y148564D01*
X119609Y148076D01*
X119495Y147500D01*
X119609Y146924D01*
X119936Y146436D01*
X120424Y146109D01*
X121000Y145995D01*
X121576Y146109D01*
X122064Y146436D01*
X122391Y146924D01*
X122505Y147500D01*
X122391Y148076D01*
X122064Y148564D01*
X121576Y148891D01*
X121000Y149005D01*
D02*
G37*
G36*
X61500Y136005D02*
X60924Y135891D01*
X60436Y135564D01*
X60109Y135076D01*
X59995Y134500D01*
X60109Y133924D01*
X60436Y133436D01*
X60924Y133109D01*
X61500Y132995D01*
X62076Y133109D01*
X62564Y133436D01*
X62891Y133924D01*
X63005Y134500D01*
X62891Y135076D01*
X62564Y135564D01*
X62076Y135891D01*
X61500Y136005D01*
D02*
G37*
G36*
X146000Y128689D02*
Y122740D01*
X148193D01*
Y125677D01*
X148084Y126504D01*
X147765Y127273D01*
X147257Y127935D01*
X146596Y128442D01*
X146000Y128689D01*
D02*
G37*
G36*
X144000D02*
X143404Y128442D01*
X142743Y127935D01*
X142235Y127273D01*
X141916Y126504D01*
X141807Y125677D01*
Y122740D01*
X144000D01*
Y128689D01*
D02*
G37*
G36*
X148193Y120740D02*
X146000D01*
Y114791D01*
X146596Y115038D01*
X147257Y115546D01*
X147765Y116207D01*
X148084Y116977D01*
X148193Y117803D01*
Y120740D01*
D02*
G37*
G36*
X144000D02*
X141807D01*
Y117803D01*
X141916Y116977D01*
X142235Y116207D01*
X142743Y115546D01*
X143404Y115038D01*
X144000Y114791D01*
Y120740D01*
D02*
G37*
G36*
X165000Y128718D02*
X164213Y128615D01*
X163479Y128311D01*
X162849Y127828D01*
X162366Y127198D01*
X162062Y126464D01*
X161959Y125677D01*
Y117803D01*
X162062Y117016D01*
X162366Y116282D01*
X162849Y115653D01*
X163479Y115169D01*
X164213Y114865D01*
X165000Y114762D01*
X165787Y114865D01*
X166521Y115169D01*
X167151Y115653D01*
X167634Y116282D01*
X167938Y117016D01*
X168041Y117803D01*
Y125677D01*
X167938Y126464D01*
X167634Y127198D01*
X167151Y127828D01*
X166521Y128311D01*
X165787Y128615D01*
X165000Y128718D01*
D02*
G37*
G36*
X85000D02*
X84213Y128615D01*
X83479Y128311D01*
X82849Y127828D01*
X82366Y127198D01*
X82062Y126464D01*
X81959Y125677D01*
Y117803D01*
X82062Y117016D01*
X82366Y116282D01*
X82849Y115653D01*
X83479Y115169D01*
X84213Y114865D01*
X85000Y114762D01*
X85787Y114865D01*
X86521Y115169D01*
X87151Y115653D01*
X87634Y116282D01*
X87938Y117016D01*
X88041Y117803D01*
Y125677D01*
X87938Y126464D01*
X87634Y127198D01*
X87151Y127828D01*
X86521Y128311D01*
X85787Y128615D01*
X85000Y128718D01*
D02*
G37*
G36*
X75000D02*
X74213Y128615D01*
X73479Y128311D01*
X72849Y127828D01*
X72366Y127198D01*
X72062Y126464D01*
X71959Y125677D01*
Y117803D01*
X72062Y117016D01*
X72366Y116282D01*
X72849Y115653D01*
X73479Y115169D01*
X74213Y114865D01*
X75000Y114762D01*
X75787Y114865D01*
X76521Y115169D01*
X77151Y115653D01*
X77634Y116282D01*
X77938Y117016D01*
X78041Y117803D01*
Y125677D01*
X77938Y126464D01*
X77634Y127198D01*
X77151Y127828D01*
X76521Y128311D01*
X75787Y128615D01*
X75000Y128718D01*
D02*
G37*
G36*
X65000D02*
X64213Y128615D01*
X63479Y128311D01*
X62849Y127828D01*
X62366Y127198D01*
X62062Y126464D01*
X61959Y125677D01*
Y117803D01*
X62062Y117016D01*
X62366Y116282D01*
X62849Y115653D01*
X63479Y115169D01*
X64213Y114865D01*
X65000Y114762D01*
X65787Y114865D01*
X66521Y115169D01*
X67151Y115653D01*
X67634Y116282D01*
X67938Y117016D01*
X68041Y117803D01*
Y125677D01*
X67938Y126464D01*
X67634Y127198D01*
X67151Y127828D01*
X66521Y128311D01*
X65787Y128615D01*
X65000Y128718D01*
D02*
G37*
G36*
X190000Y119894D02*
X188853Y119781D01*
X187750Y119447D01*
X186734Y118903D01*
X185843Y118172D01*
X185112Y117282D01*
X184569Y116265D01*
X184235Y115163D01*
X184122Y114016D01*
X184235Y112869D01*
X184569Y111766D01*
X185112Y110750D01*
X185843Y109859D01*
X186734Y109128D01*
X187750Y108585D01*
X188853Y108250D01*
X190000Y108137D01*
X191147Y108250D01*
X192250Y108585D01*
X193266Y109128D01*
X194157Y109859D01*
X194888Y110750D01*
X195431Y111766D01*
X195765Y112869D01*
X195878Y114016D01*
X195765Y115163D01*
X195431Y116265D01*
X194888Y117282D01*
X194157Y118172D01*
X193266Y118903D01*
X192250Y119447D01*
X191147Y119781D01*
X190000Y119894D01*
D02*
G37*
G36*
X103678Y66183D02*
X103102Y66068D01*
X102613Y65742D01*
X102287Y65254D01*
X102172Y64678D01*
X102287Y64102D01*
X102574Y63672D01*
Y58399D01*
X102658Y57977D01*
X102897Y57618D01*
X104296Y56219D01*
X104654Y55980D01*
X105077Y55896D01*
X107272D01*
X107538Y55719D01*
X107897Y55647D01*
X112040D01*
X112399Y55719D01*
X112704Y55922D01*
X112907Y56227D01*
X112979Y56586D01*
Y57383D01*
X112907Y57742D01*
X112756Y57968D01*
X112907Y58195D01*
X112979Y58554D01*
Y59351D01*
X112907Y59711D01*
X112704Y60015D01*
X112399Y60218D01*
X112040Y60290D01*
X111857D01*
X111463Y60790D01*
X111505Y61000D01*
X111391Y61576D01*
X111064Y62064D01*
X110576Y62391D01*
X110000Y62505D01*
X109424Y62391D01*
X108936Y62064D01*
X108609Y61576D01*
X108495Y61000D01*
X108537Y60790D01*
X108143Y60290D01*
X107897D01*
X107538Y60218D01*
X107233Y60015D01*
X107030Y59711D01*
X106958Y59351D01*
Y58554D01*
X106538Y58104D01*
X105534D01*
X104781Y58856D01*
Y63672D01*
X105068Y64102D01*
X105183Y64678D01*
X105068Y65254D01*
X104742Y65742D01*
X104254Y66068D01*
X103678Y66183D01*
D02*
G37*
G36*
X190000Y49619D02*
X188853Y49505D01*
X187750Y49171D01*
X186734Y48628D01*
X185843Y47897D01*
X185112Y47006D01*
X184569Y45990D01*
X184235Y44887D01*
X184122Y43740D01*
X184235Y42593D01*
X184569Y41491D01*
X185112Y40474D01*
X185843Y39584D01*
X186734Y38853D01*
X187750Y38309D01*
X188853Y37975D01*
X190000Y37862D01*
X191147Y37975D01*
X192250Y38309D01*
X193266Y38853D01*
X194157Y39584D01*
X194888Y40474D01*
X195431Y41491D01*
X195765Y42593D01*
X195878Y43740D01*
X195765Y44887D01*
X195431Y45990D01*
X194888Y47006D01*
X194157Y47897D01*
X193266Y48628D01*
X192250Y49171D01*
X191147Y49505D01*
X190000Y49619D01*
D02*
G37*
G36*
X135000Y42718D02*
X134213Y42615D01*
X133479Y42311D01*
X132849Y41828D01*
X132366Y41198D01*
X132062Y40464D01*
X131959Y39677D01*
Y31803D01*
X132062Y31016D01*
X132366Y30283D01*
X132849Y29653D01*
X133479Y29169D01*
X134213Y28865D01*
X135000Y28762D01*
X135787Y28865D01*
X136521Y29169D01*
X137151Y29653D01*
X137634Y30283D01*
X137938Y31016D01*
X138041Y31803D01*
Y39677D01*
X137938Y40464D01*
X137634Y41198D01*
X137151Y41828D01*
X136521Y42311D01*
X135787Y42615D01*
X135000Y42718D01*
D02*
G37*
G36*
X125000D02*
X124213Y42615D01*
X123479Y42311D01*
X122849Y41828D01*
X122366Y41198D01*
X122062Y40464D01*
X121959Y39677D01*
Y31803D01*
X122062Y31016D01*
X122366Y30283D01*
X122849Y29653D01*
X123479Y29169D01*
X124213Y28865D01*
X125000Y28762D01*
X125787Y28865D01*
X126521Y29169D01*
X127151Y29653D01*
X127634Y30283D01*
X127938Y31016D01*
X128041Y31803D01*
Y39677D01*
X127938Y40464D01*
X127634Y41198D01*
X127151Y41828D01*
X126521Y42311D01*
X125787Y42615D01*
X125000Y42718D01*
D02*
G37*
G36*
X172754Y33434D02*
X171596Y33320D01*
X170483Y32982D01*
X169457Y32434D01*
X168558Y31696D01*
X167820Y30797D01*
X167272Y29771D01*
X166934Y28658D01*
X166820Y27500D01*
X166934Y26342D01*
X167272Y25229D01*
X167820Y24203D01*
X168558Y23304D01*
X169457Y22566D01*
X170483Y22018D01*
X171596Y21680D01*
X172754Y21566D01*
X173912Y21680D01*
X175025Y22018D01*
X176051Y22566D01*
X176950Y23304D01*
X177688Y24203D01*
X178236Y25229D01*
X178574Y26342D01*
X178688Y27500D01*
X178574Y28658D01*
X178236Y29771D01*
X177688Y30797D01*
X176950Y31696D01*
X176051Y32434D01*
X175025Y32982D01*
X173912Y33320D01*
X172754Y33434D01*
D02*
G37*
G36*
X186614Y21161D02*
X185174Y21019D01*
X183789Y20599D01*
X182513Y19917D01*
X181395Y18999D01*
X180477Y17880D01*
X179795Y16604D01*
X179374Y15220D01*
X179233Y13780D01*
X179374Y12339D01*
X179795Y10955D01*
X180477Y9679D01*
X181395Y8560D01*
X182513Y7642D01*
X183789Y6960D01*
X185174Y6540D01*
X186614Y6398D01*
X188054Y6540D01*
X189439Y6960D01*
X190715Y7642D01*
X191834Y8560D01*
X192752Y9679D01*
X193434Y10955D01*
X193854Y12339D01*
X193996Y13780D01*
X193854Y15220D01*
X193434Y16604D01*
X192752Y17880D01*
X191834Y18999D01*
X190715Y19917D01*
X189439Y20599D01*
X188054Y21019D01*
X186614Y21161D01*
D02*
G37*
G36*
X69685Y12290D02*
X69001Y12200D01*
X68363Y11936D01*
X67815Y11515D01*
X67395Y10968D01*
X67131Y10330D01*
X67041Y9646D01*
Y6890D01*
X67131Y6205D01*
X67395Y5568D01*
X67815Y5020D01*
X68363Y4600D01*
X69001Y4336D01*
X69685Y4245D01*
X70369Y4336D01*
X71007Y4600D01*
X71555Y5020D01*
X71975Y5568D01*
X72239Y6205D01*
X72329Y6890D01*
Y9646D01*
X72239Y10330D01*
X71975Y10968D01*
X71555Y11515D01*
X71007Y11936D01*
X70369Y12200D01*
X69685Y12290D01*
D02*
G37*
G36*
X174331Y85158D02*
X170000D01*
Y80039D01*
X174331D01*
Y85158D01*
D02*
G37*
G36*
X27853Y97933D02*
X27265D01*
X26723Y97708D01*
X26307Y97293D01*
X26083Y96750D01*
Y96163D01*
X26307Y95620D01*
X26723Y95205D01*
X27265Y94980D01*
X27853D01*
X28395Y95205D01*
X28811Y95620D01*
X29035Y96163D01*
Y96750D01*
X28811Y97293D01*
X28395Y97708D01*
X27853Y97933D01*
D02*
G37*
G36*
X21000Y59990D02*
Y57000D01*
X23990D01*
X23762Y57851D01*
X23301Y58649D01*
X22649Y59301D01*
X21851Y59762D01*
X21000Y59990D01*
D02*
G37*
G36*
X20000D02*
X19149Y59762D01*
X18351Y59301D01*
X17699Y58649D01*
X17239Y57851D01*
X17010Y57000D01*
X20000D01*
Y59990D01*
D02*
G37*
G36*
X23990Y56000D02*
X21000D01*
Y53010D01*
X21851Y53238D01*
X22649Y53699D01*
X23301Y54351D01*
X23762Y55149D01*
X23990Y56000D01*
D02*
G37*
G36*
X20000D02*
X17010D01*
X17239Y55149D01*
X17699Y54351D01*
X18351Y53699D01*
X19149Y53238D01*
X20000Y53010D01*
Y56000D01*
D02*
G37*
%LPD*%
D10*
X65158Y303152D02*
Y307063D01*
X62005Y300000D02*
X65158Y303152D01*
X62005Y300000D02*
Y300172D01*
X34500Y139500D02*
X41000Y133000D01*
Y116000D02*
Y133000D01*
X34474Y166526D02*
X44441D01*
X25000Y176000D02*
X34474Y166526D01*
X5654Y176000D02*
X25000D01*
X44441Y166526D02*
X53466Y157500D01*
X42500Y168500D02*
X44500D01*
X41572Y169428D02*
X42500Y168500D01*
X36428Y169428D02*
X41572D01*
X21858Y196142D02*
X41626Y176374D01*
X53540D01*
X53914Y176000D01*
X44500Y168500D02*
X49047Y163953D01*
Y163868D02*
Y163953D01*
Y163868D02*
X53663Y159252D01*
X19714Y186142D02*
X36428Y169428D01*
X69500Y178000D02*
Y186902D01*
X70000Y187402D02*
Y196039D01*
X69500Y186902D02*
X70000Y187402D01*
X69039Y197000D02*
X70000Y196039D01*
X76644Y182457D02*
X83957D01*
X76054Y183047D02*
X76644Y182457D01*
X72453Y183047D02*
X76054D01*
X63500Y176000D02*
X67500Y172000D01*
X53914Y176000D02*
X63500D01*
X67500Y172000D02*
X81000D01*
X61912Y197000D02*
X69039D01*
X19236Y239676D02*
X61912Y197000D01*
X81000Y172000D02*
X89000Y180000D01*
X37244Y152500D02*
X62641D01*
X23602Y166142D02*
X37244Y152500D01*
X62641D02*
X64597Y154457D01*
X46252Y145982D02*
X46518D01*
X45770Y145500D02*
X46252Y145982D01*
X44000Y144000D02*
X45500Y145500D01*
X45770D01*
X5512Y186142D02*
X19714D01*
X19236Y239676D02*
Y257264D01*
X16500Y239093D02*
X56248Y199345D01*
X7358Y256142D02*
X16500Y247000D01*
Y239093D02*
Y247000D01*
X10358Y266142D02*
X19236Y257264D01*
X5512Y246142D02*
X7503D01*
X54870Y198775D01*
X56248Y181772D02*
Y199345D01*
X54870Y182502D02*
Y198775D01*
X5512Y266142D02*
X10358D01*
X53663Y159252D02*
X83752D01*
X53466Y157500D02*
X85087D01*
X44000Y132500D02*
Y144000D01*
X111000Y128000D02*
X115650Y132650D01*
X117000Y139517D02*
X117028Y139489D01*
Y128657D02*
X120000Y125684D01*
X114500Y140068D02*
X115650Y138919D01*
Y132650D02*
Y138919D01*
X117000Y139517D02*
Y148000D01*
X117028Y128657D02*
Y139489D01*
X114500Y140068D02*
Y148000D01*
X153500Y138000D02*
X158831Y143331D01*
X145500Y138000D02*
X153500D01*
X158831Y143331D02*
Y143627D01*
X161000Y145796D02*
Y146500D01*
X158831Y143627D02*
X161000Y145796D01*
X134472Y154890D02*
Y169011D01*
X134934Y169472D02*
X155539D01*
X156000Y169011D01*
Y161500D02*
Y169011D01*
X134472D02*
X134934Y169472D01*
X159000Y161500D02*
X164000Y166500D01*
X156000Y161500D02*
X159000D01*
X170500Y173000D02*
X170688Y173188D01*
Y174688D01*
X181500Y185500D01*
X173000Y196000D02*
Y265983D01*
X164000Y187000D02*
X173000Y196000D01*
X167072Y183453D02*
X175500Y191881D01*
Y287941D01*
X167072Y183428D02*
Y183453D01*
X164000Y166500D02*
Y187000D01*
X175500Y287941D02*
X193701Y306142D01*
X168000Y180000D02*
X177500Y189500D01*
Y287000D02*
X186642Y296142D01*
X177500Y189500D02*
Y287000D01*
X179500Y278500D02*
X187142Y286142D01*
X172000Y180500D02*
X179500Y188000D01*
Y278500D01*
X187142Y286142D02*
X194488D01*
X181500Y185500D02*
Y271205D01*
X89015Y111476D02*
X90280Y110212D01*
Y103402D02*
Y110212D01*
X90240Y103362D02*
X90280Y103402D01*
X89827Y103362D02*
X90240D01*
X75476Y111476D02*
X89015D01*
X88000Y110000D02*
X88823Y109177D01*
Y105941D02*
Y109177D01*
X76599Y110000D02*
X88000D01*
X74429Y107831D02*
X76599Y110000D01*
X124484Y57446D02*
Y67516D01*
X119000Y73000D02*
X124484Y67516D01*
X119000Y73000D02*
Y81000D01*
X104500Y95500D02*
X119000Y81000D01*
X104500Y95500D02*
Y110500D01*
X101000Y114000D02*
X104500Y110500D01*
X98000Y114000D02*
X101000D01*
X92161Y108161D02*
X98000Y114000D01*
X111000Y101500D02*
Y128000D01*
X92161Y103024D02*
Y108161D01*
X90964Y101827D02*
X92161Y103024D01*
X89866Y101827D02*
X90964D01*
X89827Y101787D02*
X89866Y101827D01*
X48028Y101787D02*
X83173D01*
X37807Y112008D02*
X48028Y101787D01*
X89835Y98630D02*
X100942D01*
X101072Y98500D01*
X89827Y98638D02*
X89835Y98630D01*
X117000Y63500D02*
X119500Y61000D01*
Y59091D02*
X119638Y58953D01*
X119500Y59091D02*
Y61000D01*
X119638Y58953D02*
X121031D01*
Y56984D02*
X124023D01*
X124484Y57446D01*
X131964Y81705D02*
X132000Y81669D01*
X131964Y81705D02*
Y85036D01*
X131928Y85072D02*
X131964Y85036D01*
X121002Y83600D02*
X124864D01*
X125000Y83736D01*
X111000Y101500D02*
X117713Y94787D01*
X39500Y115551D02*
Y129521D01*
X50547Y106453D02*
X75000D01*
X41000Y116000D02*
X50547Y106453D01*
X50075Y104976D02*
X76589D01*
X39500Y115551D02*
X50075Y104976D01*
X49441Y103362D02*
X83173D01*
X36835Y132186D02*
X39500Y129521D01*
X35000Y117803D02*
X49441Y103362D01*
X35000Y117803D02*
Y118740D01*
X44000Y132500D02*
X50500Y126000D01*
Y115500D02*
Y126000D01*
Y115500D02*
X56500Y109500D01*
X177500Y131734D02*
X179000Y130234D01*
X171000Y108500D02*
X179000Y116500D01*
Y130234D01*
X168500Y108500D02*
X171000D01*
X47437Y184985D02*
X47452Y185001D01*
X52532D01*
X36000Y186500D02*
X41851D01*
X41913Y186562D01*
X77781Y188953D02*
X78234Y188500D01*
X72453Y188953D02*
X77781D01*
X78234Y188500D02*
X78500D01*
X76802Y186197D02*
X80370D01*
X76014Y186984D02*
X76802Y186197D01*
X76723Y184327D02*
X82952D01*
X76034Y185016D02*
X76723Y184327D01*
X83957Y182457D02*
X86000Y184500D01*
X83752Y159252D02*
X90979Y166479D01*
Y166544D01*
X85087Y157500D02*
X92000Y164413D01*
X5512Y196142D02*
X21858D01*
X5512Y176142D02*
X5654Y176000D01*
X186642Y296142D02*
X194488D01*
X83130Y154457D02*
X85000Y152587D01*
X110000Y58953D02*
X110138Y58815D01*
X110000Y58953D02*
Y61000D01*
X37266Y112500D02*
X37758Y112008D01*
X37000Y112500D02*
X37266D01*
X37758Y112008D02*
X37807D01*
X64597Y154457D02*
X83130D01*
X72552Y178666D02*
X85115D01*
X72453Y178766D02*
X72552Y178666D01*
X56500Y109500D02*
X73500D01*
X75476Y111476D01*
X77514Y105902D02*
X84138D01*
X75000Y106453D02*
X77047Y108500D01*
X45000Y117803D02*
X54972Y107831D01*
X76589Y104976D02*
X77514Y105902D01*
X54972Y107831D02*
X74429D01*
X42024Y188976D02*
X52524D01*
X42000Y189000D02*
X42024Y188976D01*
X41953Y188953D02*
X42000Y189000D01*
X36547Y188953D02*
X41953D01*
X52532Y185001D02*
X52547Y185016D01*
X47476Y181039D02*
X52508D01*
X47437Y181000D02*
X47476Y181039D01*
X52508D02*
X52646Y181177D01*
X42011Y186591D02*
X43980D01*
X44374Y186984D01*
X52547D01*
X48653Y178847D02*
X52466D01*
X48572Y178928D02*
X48653Y178847D01*
X52466D02*
X52547Y178766D01*
X19500Y203000D02*
X36000Y186500D01*
X94484Y182907D02*
X95890Y181500D01*
X96000D01*
X87407Y182907D02*
X94484D01*
X84544Y180044D02*
X87407Y182907D01*
X79700Y180044D02*
X84544D01*
X78665Y181079D02*
X79700Y180044D01*
X72453Y181079D02*
X78665D01*
X92436Y181378D02*
X94814Y179000D01*
X87827Y181378D02*
X92436D01*
X85115Y178666D02*
X87827Y181378D01*
X89000Y180000D02*
X91126D01*
X92069Y179056D01*
X92113D01*
X72453Y185016D02*
X76034D01*
X72453Y186984D02*
X76014D01*
X72453Y190921D02*
X72551Y190823D01*
X76198D01*
X94814Y179000D02*
X98000D01*
X72453Y193234D02*
X72586Y193367D01*
X75867D01*
X76000Y193500D01*
X58453Y190921D02*
X66547D01*
X77047Y108500D02*
X85787D01*
X87248Y107039D01*
Y105941D02*
X87287Y105902D01*
X87248Y105941D02*
Y107039D01*
X88823Y105941D02*
X88862Y105902D01*
X19358Y206142D02*
X36547Y188953D01*
X52524Y188976D02*
X52547Y188953D01*
X5512Y166142D02*
X23602D01*
X177500Y131734D02*
Y132000D01*
X117713Y94787D02*
X121949D01*
X45000Y117803D02*
Y118740D01*
X125000Y38740D02*
X125417Y39158D01*
X133038Y214462D02*
X133075Y214500D01*
X137000D01*
X119500Y12000D02*
Y14736D01*
X171569Y103445D02*
X178058Y96956D01*
Y89580D02*
Y96956D01*
X151588Y103445D02*
X171569D01*
X147875Y99732D02*
X151588Y103445D01*
X142309Y87520D02*
X147388Y92598D01*
X172165D01*
X127500Y330339D02*
X132339D01*
X129736Y336500D02*
X130055Y336181D01*
Y333555D02*
Y336181D01*
X132339Y330339D02*
X133000Y331000D01*
X135065Y76886D02*
X138394Y80215D01*
Y80914D02*
X138583Y81102D01*
X138394Y80215D02*
Y80914D01*
X143701Y83311D02*
X144587Y84196D01*
X135630Y81130D02*
X137811Y83311D01*
X143701D01*
X144587Y84196D02*
Y84764D01*
X133000Y99732D02*
X147875D01*
X53586Y179110D02*
X56248Y181772D01*
X53545Y181177D02*
X54870Y182502D01*
X134165Y74000D02*
X135285D01*
X139285Y78000D01*
X185000D01*
X133968Y74197D02*
Y75331D01*
Y74197D02*
X134165Y74000D01*
X172238Y68130D02*
X177101Y72992D01*
X130032Y69324D02*
Y75331D01*
X131225Y68130D02*
X172238D01*
X130032Y69324D02*
X131225Y68130D01*
X130032Y75331D02*
Y76689D01*
X133968Y76689D02*
X134165Y76886D01*
X135065D01*
X135630Y79399D02*
Y81130D01*
X134967Y78736D02*
X135630Y79399D01*
X131002Y78736D02*
X134967D01*
X185000Y78000D02*
X188174Y81174D01*
X133000Y104268D02*
X137268D01*
X139000Y106000D01*
X127264Y105000D02*
X132268D01*
X133000Y104268D01*
X133968Y81669D02*
X134165Y81866D01*
Y83581D02*
X138104Y87520D01*
X134357Y91267D02*
X138104Y87520D01*
X134165Y81866D02*
Y83581D01*
X130000Y97000D02*
Y97059D01*
X127559Y99500D02*
X130000Y97059D01*
X193701Y306142D02*
X194488D01*
X186437Y276142D02*
X194488D01*
X181500Y271205D02*
X186437Y276142D01*
X133000Y331000D02*
X139260D01*
X121949Y94787D02*
X122736Y94000D01*
X104000Y264500D02*
X120539D01*
X121500Y263539D01*
Y257000D02*
Y263539D01*
X122531Y255968D02*
X124488D01*
X121500Y257000D02*
X122531Y255968D01*
X12500Y203000D02*
X19500D01*
X5512Y206142D02*
X19358D01*
X120000Y99961D02*
Y125684D01*
X5512Y256142D02*
X7358D01*
X52892Y179110D02*
X53586D01*
X52547Y178766D02*
X52892Y179110D01*
X52646Y181177D02*
X53545D01*
X122500Y105236D02*
Y110500D01*
Y105236D02*
X122736Y105000D01*
X120461Y99500D02*
X122736D01*
X120000Y99961D02*
X120461Y99500D01*
X128488Y78232D02*
X130032Y76689D01*
X125000Y78232D02*
X128488D01*
X125000D02*
Y83736D01*
X138104Y87520D02*
X142309D01*
X133062Y91267D02*
X134357D01*
X130228Y79510D02*
Y81472D01*
Y79510D02*
X131002Y78736D01*
X130032Y81669D02*
X130228Y81472D01*
X127559Y99500D02*
X132768D01*
X127264D02*
X127559D01*
X130327Y91232D02*
X133000D01*
X132828Y91500D02*
X133062Y91267D01*
X127559Y94000D02*
X130327Y91232D01*
X136500Y328500D02*
X136766D01*
X137298Y329031D02*
X139260D01*
X136766Y328500D02*
X137298Y329031D01*
X146740Y327063D02*
X151736D01*
X146772Y333000D02*
X152236D01*
X139260Y327063D02*
Y329031D01*
X146740Y327063D02*
Y329031D01*
X184646Y87764D02*
Y92205D01*
Y92598D01*
X188174Y81174D02*
Y84236D01*
X184646Y87764D02*
X188174Y84236D01*
X127264Y105000D02*
X127728Y104535D01*
X132768Y99500D02*
X133000Y99732D01*
X178058Y89580D02*
X184646Y82992D01*
Y82598D02*
Y82992D01*
X127264Y94000D02*
X127559D01*
X177101Y72992D02*
X184646D01*
D12*
X43701Y8268D02*
D03*
X69685D02*
D03*
D44*
X172754Y27500D02*
D03*
X29254Y392000D02*
D03*
X177754Y379500D02*
D03*
X139370Y163386D02*
D03*
X60630D02*
D03*
X131000Y179996D02*
D03*
X38500Y7500D02*
D03*
X86500Y22500D02*
D03*
X89500Y18614D02*
D03*
X84000D02*
D03*
X36000Y18000D02*
D03*
D45*
X56102Y300173D02*
Y307898D01*
X55000Y309000D02*
X56102Y307898D01*
X31496Y322047D02*
X53000D01*
X56102Y318945D01*
Y313953D02*
Y318945D01*
Y313953D02*
X56150Y314000D01*
X63500D01*
X65500Y316000D01*
X115000D01*
X40000Y164500D02*
X43500D01*
X38768Y163268D02*
X40000Y164500D01*
X38768Y159500D02*
Y163268D01*
X38736Y159468D02*
X38768Y159500D01*
X21000Y240000D02*
Y261441D01*
X60321Y200679D02*
X61378D01*
X61528Y200528D01*
X21000Y240000D02*
X60321Y200679D01*
X22575Y242425D02*
Y270925D01*
Y242425D02*
X56762Y208238D01*
X98229D01*
X7358Y286142D02*
X22575Y270925D01*
X6299Y276142D02*
X21000Y261441D01*
X146000Y141000D02*
X153000D01*
X143528Y143472D02*
Y148000D01*
Y143472D02*
X146000Y141000D01*
X173000Y171500D02*
X178358Y166142D01*
X194488D01*
X135972Y306472D02*
X139370D01*
X134500Y305000D02*
X135972Y306472D01*
X134500Y302706D02*
Y305000D01*
X132480Y307480D02*
Y315528D01*
X131500Y306500D02*
X132480Y307480D01*
X127500Y292000D02*
Y325736D01*
X127500Y325736D02*
X133000D01*
X124736D02*
X127500D01*
Y325736D02*
X127500Y325736D01*
X88500Y253000D02*
X127500Y292000D01*
X88500Y221500D02*
Y253000D01*
Y221500D02*
X101000Y209000D01*
Y201500D02*
Y209000D01*
Y201500D02*
X111500Y191000D01*
X131000D01*
X115000Y316000D02*
X124736Y325736D01*
X121031Y55016D02*
Y56984D01*
X170343Y97557D02*
Y100295D01*
X30000Y131500D02*
X33000Y134500D01*
X30000Y116500D02*
Y131500D01*
X109000Y94165D02*
Y148000D01*
X116665Y86500D02*
X121000D01*
X109000Y94165D02*
X116665Y86500D01*
X134516Y133858D02*
X157858D01*
X125000Y124343D02*
X134516Y133858D01*
X157858D02*
X167500Y143500D01*
X92908Y91908D02*
X93000Y92000D01*
X90241Y91908D02*
X92908D01*
X84079Y95738D02*
X84138Y95797D01*
Y96098D01*
X72262Y95738D02*
X84079D01*
X71000Y97000D02*
X72262Y95738D01*
X71227Y99000D02*
X72727Y97500D01*
X81667D01*
X82756Y98589D01*
X79001Y99917D02*
X79296Y100213D01*
X83173D01*
X78787Y99917D02*
X79001D01*
X97315Y96443D02*
X97528D01*
X96921Y96049D02*
X97315Y96443D01*
X88921Y96049D02*
X96921D01*
X87287Y94861D02*
X90241Y91908D01*
X111000Y28437D02*
X116000Y23437D01*
X111000Y28437D02*
Y47500D01*
X116547Y53047D01*
X121031D01*
X148000Y151774D02*
X150870Y148904D01*
X148000Y151774D02*
Y167500D01*
X30000Y116500D02*
X39720Y106781D01*
X40947D01*
X48727Y99000D01*
X170588Y106000D02*
X190500Y125912D01*
Y127500D01*
X165500Y106000D02*
X170588D01*
X40328Y103412D02*
X42088D01*
X25000Y118709D02*
Y118740D01*
X27028Y116681D02*
X27059D01*
X40328Y103412D01*
X25000Y118709D02*
X27028Y116681D01*
X135000Y199626D02*
X135151Y199475D01*
Y198706D02*
X135857Y198000D01*
X137941D01*
X135151Y198706D02*
Y199475D01*
X140500Y188012D02*
Y190795D01*
X85713Y91501D02*
Y96098D01*
X86000Y91000D02*
Y91213D01*
X85713Y91501D02*
X86000Y91213D01*
X42088Y103412D02*
X48500Y97000D01*
X71000D01*
X48727Y99000D02*
X71227D01*
X142270Y131613D02*
X157840D01*
X167959Y141732D02*
X185732D01*
X167500Y143500D02*
X181059D01*
X157840Y131613D02*
X167959Y141732D01*
X185732D02*
X189125Y145125D01*
X93787Y100500D02*
X94000D01*
X89827Y100213D02*
X93499D01*
X93787Y100500D01*
X151969Y98721D02*
X152211Y98963D01*
Y101424D02*
X152362Y101575D01*
X152211Y98963D02*
Y101424D01*
X51362Y183000D02*
X51409Y183047D01*
X49000Y183000D02*
X51362D01*
X51409Y183047D02*
X52547D01*
X5512Y286142D02*
X7358D01*
X58453Y178766D02*
X66547D01*
X58453Y181079D02*
X66547D01*
X58453Y183047D02*
X66547D01*
X58453Y185016D02*
X66547D01*
X58453Y186984D02*
X66547D01*
X58453Y188953D02*
X66547D01*
X58453Y193234D02*
X66547D01*
X87287Y94861D02*
Y96098D01*
Y100213D01*
X85713Y101787D02*
Y105902D01*
Y101787D02*
X87287Y100213D01*
X103678Y58399D02*
Y64678D01*
Y58399D02*
X105077Y57000D01*
X44000Y194811D02*
X45577Y193234D01*
X44000Y194811D02*
Y199000D01*
X41913Y194587D02*
Y201913D01*
X42000Y202000D01*
X41913Y194587D02*
X45579Y190921D01*
X52547D01*
X45577Y193234D02*
X52547D01*
X105077Y57000D02*
X109968D01*
X44232Y21500D02*
X46543D01*
X49000Y23957D01*
X138500Y212850D02*
X140593D01*
X140642Y212801D01*
X141199D02*
X141349Y212651D01*
X140642Y212801D02*
X141199D01*
X138500Y211276D02*
X139625Y210151D01*
X141349D01*
X141500Y210000D01*
X140455Y214425D02*
X141338Y215309D01*
X138500Y214425D02*
X140455D01*
X141338Y215309D02*
X141500D01*
X155000Y208000D02*
Y210236D01*
X154736Y210500D02*
X155000Y210236D01*
X134131Y217527D02*
X135399D01*
X131500Y217657D02*
X134000D01*
X135399Y217527D02*
X136925Y216000D01*
X134000Y217657D02*
X134131Y217527D01*
X135232Y207500D02*
Y211796D01*
X136915Y212841D02*
X136925Y212850D01*
X136277Y212841D02*
X136915D01*
X135232Y211796D02*
X136277Y212841D01*
X132059Y222000D02*
X136768D01*
X133613Y220151D02*
X133764Y220000D01*
X133613Y220151D02*
Y220446D01*
X132059Y222000D02*
X133613Y220446D01*
X131764Y222000D02*
X132059D01*
X127236Y217921D02*
Y222000D01*
Y217921D02*
X128000Y217158D01*
X102000Y12000D02*
Y22425D01*
X98000Y26425D02*
X102000Y22425D01*
X25189Y28811D02*
X27575Y26425D01*
X98000D01*
X116000Y15500D02*
Y23437D01*
X25000Y38740D02*
X25189Y38551D01*
Y28811D02*
Y38551D01*
X117000Y14500D02*
X119441D01*
X116000Y15500D02*
X117000Y14500D01*
X171500Y57087D02*
Y59000D01*
X171106Y56693D02*
X171500Y57087D01*
X168307Y56693D02*
X171106D01*
X151606D02*
X152000Y57087D01*
Y59000D01*
X148031Y56693D02*
X151606D01*
X168307Y100689D02*
X169949D01*
X170343Y100295D01*
X192500Y57087D02*
Y59000D01*
X187402Y56693D02*
X192106D01*
X192500Y57087D01*
X159334Y95666D02*
Y95879D01*
X159000Y96213D02*
Y99354D01*
Y96213D02*
X159334Y95879D01*
X159000Y99354D02*
X159055Y99410D01*
X135000Y124343D02*
X142270Y131613D01*
X135000Y118740D02*
Y124343D01*
X166799Y136142D02*
X194488D01*
X189125Y145125D02*
X193471D01*
X194488Y146142D01*
X181059Y143500D02*
X193701Y156142D01*
X138122Y70000D02*
X139795Y71673D01*
X139862D01*
X132000Y70000D02*
X138122D01*
X139862Y71673D02*
X140354Y72165D01*
X132000Y70000D02*
Y75331D01*
X140354Y72165D02*
Y73937D01*
X155000Y124343D02*
X166799Y136142D01*
X125520Y92552D02*
X126919Y93951D01*
X125520Y88784D02*
Y92552D01*
X128059Y85000D02*
X130032Y83028D01*
Y81669D02*
Y83028D01*
X128000Y85000D02*
X128059D01*
X185617Y100689D02*
X187402D01*
X185224Y100295D02*
X185617Y100689D01*
X193701Y156142D02*
X194488D01*
X125000Y118740D02*
Y124343D01*
X155000Y118740D02*
Y124343D01*
X5512Y276142D02*
X6299D01*
X5512Y236142D02*
X6299D01*
X122000Y252000D02*
X122031Y252031D01*
X45000Y38740D02*
X45398D01*
X125000Y88264D02*
X125520Y88784D01*
X125000Y74768D02*
X125689Y75457D01*
X122031Y252031D02*
X124488D01*
Y254000D01*
Y248095D02*
Y250063D01*
X135512Y252031D02*
Y254000D01*
Y252031D02*
X135531Y252012D01*
X137067D02*
X138342Y250736D01*
X135531Y252012D02*
X137067D01*
X138342Y255264D02*
X141000D01*
X137657Y255949D02*
X138342Y255264D01*
X135531Y255949D02*
X137657D01*
X135512Y255968D02*
X135531Y255949D01*
X141000Y255264D02*
Y261236D01*
X132768Y266500D02*
X133457Y265811D01*
X135512Y259906D02*
Y261894D01*
X133457Y263949D02*
X135512Y261894D01*
X133457Y263949D02*
Y265811D01*
X135268Y259925D02*
X135287Y259906D01*
X135512D01*
X140427Y96927D02*
X140500Y97000D01*
X140427Y91333D02*
Y96927D01*
X191878Y77846D02*
X191929Y77795D01*
X140354Y91260D02*
X140427Y91333D01*
X191880Y87451D02*
X191929Y87402D01*
X172067Y72500D02*
X172165Y72598D01*
D46*
X31763Y149500D02*
X70823D01*
X18701Y132964D02*
X27769Y142032D01*
X31100Y151100D02*
X71486D01*
X20301Y111616D02*
Y132301D01*
X128500Y148000D02*
Y148290D01*
X70823Y149500D02*
X71880Y148444D01*
X128950Y148740D02*
Y151358D01*
X128500Y148290D02*
X128950Y148740D01*
X127908Y152400D02*
X128950Y151358D01*
X49600Y49837D02*
Y92163D01*
X108310Y152400D02*
X127908D01*
X104310Y148400D02*
X108310Y152400D01*
X53813Y13241D02*
X54532D01*
X53792Y13219D02*
X53813Y13241D01*
X30904Y101013D02*
X40749D01*
X54532Y13241D02*
X54738Y13446D01*
X40749Y101013D02*
X49600Y92163D01*
X45263Y45500D02*
X49600Y49837D01*
X45487Y13958D02*
X46225Y13219D01*
X41915Y13958D02*
X45487D01*
X41176Y13219D02*
X41915Y13958D01*
X46225Y13219D02*
X53792D01*
X19685Y45090D02*
X20095Y45500D01*
X45263D01*
X19685Y27559D02*
Y45090D01*
X34025Y13219D02*
X41176D01*
X19685Y27559D02*
X34025Y13219D01*
X20301Y111616D02*
X30904Y101013D01*
X81036Y148400D02*
X104310D01*
X71880Y148444D02*
X73430D01*
X73850Y148024D01*
Y146820D02*
Y148024D01*
Y146820D02*
X74270Y146400D01*
X74630D01*
X75050Y146820D01*
Y148657D01*
X75470Y149077D01*
X75830D01*
X76250Y148657D01*
Y146820D02*
Y148657D01*
Y146820D02*
X76670Y146400D01*
X77030D01*
X77450Y146820D01*
Y148657D01*
X77870Y149077D01*
X78230D01*
X78650Y148657D01*
Y146820D02*
Y148657D01*
Y146820D02*
X79070Y146400D01*
X79430D01*
X79850Y146820D01*
Y147980D01*
X80270Y148400D01*
X81036D01*
X18701Y110954D02*
Y132964D01*
X71486Y151100D02*
X71909Y150677D01*
X78827D01*
X57097Y13268D02*
Y13557D01*
X56564Y12734D02*
X57097Y13268D01*
X56564Y12689D02*
Y12734D01*
X44600Y47100D02*
X48000Y50500D01*
X128570Y154000D02*
X130550Y152020D01*
Y148740D02*
Y152020D01*
X131000Y148000D02*
Y148290D01*
X130550Y148740D02*
X131000Y148290D01*
X48000Y50500D02*
Y91500D01*
X40087Y99413D02*
X48000Y91500D01*
X30241Y99413D02*
X40087D01*
X55494Y11620D02*
X56564Y12689D01*
X103647Y150000D02*
X107648Y154000D01*
X128570D01*
X91128Y150000D02*
X103647D01*
X41839Y11620D02*
X42577Y12358D01*
X44824D02*
X45563Y11620D01*
X42577Y12358D02*
X44824D01*
X45563Y11620D02*
X55494D01*
X18085Y45753D02*
X19432Y47100D01*
X44600D01*
X18085Y26896D02*
Y45753D01*
Y26896D02*
X33362Y11620D01*
X41839D01*
X18701Y110954D02*
X30241Y99413D01*
X78827Y150677D02*
X78830Y150674D01*
X90454D01*
X91128Y150000D01*
X27769Y147769D02*
X31100Y151100D01*
X29369Y147106D02*
X31763Y149500D01*
X29369Y141369D02*
Y147106D01*
X20301Y132301D02*
X29369Y141369D01*
X27769Y142032D02*
Y147769D01*
D47*
X146937Y336937D02*
X147500Y337500D01*
X146740Y334937D02*
X146937Y335134D01*
Y336937D01*
X149000Y342573D02*
Y343500D01*
X135512Y245488D02*
Y248095D01*
Y250063D01*
X124488Y244988D02*
Y248095D01*
D48*
X114925Y38816D02*
X115000Y38740D01*
X141000Y250736D02*
X141614Y250122D01*
X147827D01*
X148122Y249827D01*
X155878D01*
D49*
X22329Y375984D02*
X29528D01*
X17717Y371372D02*
X22329Y375984D01*
X17717Y316702D02*
Y371372D01*
X26181Y332612D02*
X30794Y328000D01*
X26181Y332612D02*
Y346972D01*
X7156Y306142D02*
X17717Y316702D01*
X30794Y328000D02*
X44035D01*
X5512Y306142D02*
X7156D01*
X20205Y56500D02*
Y68740D01*
X37500Y56000D02*
Y69035D01*
X20500Y85965D02*
X37500D01*
X156232Y220268D02*
Y230831D01*
X152000Y235063D02*
X156232Y230831D01*
Y220268D02*
X157500Y219000D01*
X48878Y372764D02*
Y382878D01*
X56500Y390500D01*
X102764Y372764D02*
X103878D01*
X108962D01*
X137514D02*
X143366D01*
X126155Y361404D02*
X137514Y372764D01*
X151109Y372777D02*
Y389391D01*
X143427Y372825D02*
X151048D01*
X151109Y372764D01*
X20205Y68740D02*
X20500Y69035D01*
X48878Y372764D02*
X56634D01*
X108962D02*
X114000Y367726D01*
Y352977D02*
Y367726D01*
Y352977D02*
X124488Y342489D01*
X113433Y328000D02*
X113467Y328033D01*
X60965Y328000D02*
X113433D01*
X19000Y96000D02*
Y103000D01*
X20205Y86260D02*
Y94795D01*
Y86260D02*
X20500Y85965D01*
X19000Y96000D02*
X20205Y94795D01*
X52756Y359252D02*
X56988Y363484D01*
X52756Y358268D02*
Y359252D01*
X95768Y363216D02*
X100000Y358984D01*
Y358000D02*
Y358984D01*
X108500Y244000D02*
X114000Y249500D01*
X99000Y244000D02*
X108500D01*
X149000Y340000D02*
Y342573D01*
X146744Y358268D02*
X149000Y356012D01*
Y343500D02*
Y356012D01*
D50*
X125654Y182346D02*
X127967Y180033D01*
X130963D01*
X131000Y179996D01*
X125654Y182346D02*
Y187500D01*
X131008Y212433D02*
X133038Y214462D01*
X52591Y165654D02*
X58437Y171500D01*
X59000D01*
X52000Y165654D02*
X52591D01*
X128591Y212433D02*
X131008D01*
X128000Y211842D02*
X128591Y212433D01*
X122000Y19264D02*
Y24500D01*
Y19264D02*
X124500D01*
X119500D02*
X122000D01*
X121433Y251433D02*
X122000Y252000D01*
X111500Y250842D02*
X117500D01*
X118091Y251433D02*
X121433D01*
X117500Y250842D02*
X118091Y251433D01*
X135512Y235272D02*
X137784Y233000D01*
X135512Y235272D02*
Y245488D01*
X124488Y234272D02*
Y244988D01*
X123216Y233000D02*
X124488Y234272D01*
D51*
X102764Y372764D02*
Y388764D01*
X104000Y390000D01*
X96122Y372764D02*
X102764D01*
D52*
X161000Y156500D02*
D03*
X5512Y366142D02*
D03*
X194488D02*
D03*
D53*
X161000Y146500D02*
D03*
X5512Y356142D02*
D03*
Y346142D02*
D03*
Y336142D02*
D03*
Y326142D02*
D03*
Y316142D02*
D03*
Y306142D02*
D03*
Y296142D02*
D03*
Y286142D02*
D03*
Y276142D02*
D03*
Y266142D02*
D03*
Y256142D02*
D03*
Y246142D02*
D03*
Y236142D02*
D03*
Y226142D02*
D03*
Y216142D02*
D03*
Y206142D02*
D03*
Y196142D02*
D03*
Y186142D02*
D03*
Y176142D02*
D03*
Y166142D02*
D03*
Y156142D02*
D03*
Y146142D02*
D03*
Y136142D02*
D03*
X194488Y356142D02*
D03*
Y346142D02*
D03*
Y336142D02*
D03*
Y326142D02*
D03*
Y316142D02*
D03*
Y306142D02*
D03*
Y296142D02*
D03*
Y286142D02*
D03*
Y276142D02*
D03*
Y266142D02*
D03*
Y256142D02*
D03*
Y246142D02*
D03*
Y236142D02*
D03*
Y226142D02*
D03*
Y216142D02*
D03*
Y206142D02*
D03*
Y196142D02*
D03*
Y186142D02*
D03*
Y176142D02*
D03*
Y166142D02*
D03*
Y156142D02*
D03*
Y146142D02*
D03*
Y136142D02*
D03*
D54*
X100000Y294291D02*
D03*
D55*
X25000Y121740D02*
D03*
X35000D02*
D03*
X45000D02*
D03*
X55000D02*
D03*
X65000D02*
D03*
X75000D02*
D03*
X85000D02*
D03*
X95000D02*
D03*
X105000D02*
D03*
X165000D02*
D03*
X155000D02*
D03*
X145000D02*
D03*
X135000D02*
D03*
X125000D02*
D03*
X115000D02*
D03*
X125000Y35740D02*
D03*
X115000D02*
D03*
X105000D02*
D03*
X95000D02*
D03*
X85000D02*
D03*
X75000D02*
D03*
X65000D02*
D03*
X55000D02*
D03*
X45000D02*
D03*
X35000D02*
D03*
X25000D02*
D03*
X135000D02*
D03*
D56*
X175000Y121740D02*
D03*
D57*
X10000Y43740D02*
D03*
Y114016D02*
D03*
X190000D02*
D03*
Y43740D02*
D03*
D58*
X186614Y391732D02*
D03*
X13386Y13780D02*
D03*
X186614D02*
D03*
X13386Y391732D02*
D03*
D59*
X62005Y300000D02*
D03*
X43500Y164500D02*
D03*
X128500Y148000D02*
D03*
X54738Y13446D02*
D03*
X131000Y148000D02*
D03*
X57097Y13557D02*
D03*
X37500Y143500D02*
D03*
X23500Y142500D02*
D03*
X43861Y147674D02*
D03*
X69500Y178000D02*
D03*
X70500Y165500D02*
D03*
X68000Y163500D02*
D03*
X74000Y167000D02*
D03*
X36835Y132186D02*
D03*
X46500Y154500D02*
D03*
X46518Y145982D02*
D03*
X61528Y200528D02*
D03*
X34500Y139500D02*
D03*
X40500Y138500D02*
D03*
X98000Y135130D02*
D03*
X113000D02*
D03*
X156500Y137500D02*
D03*
X153000Y141000D02*
D03*
X145500Y138000D02*
D03*
X156000Y161500D02*
D03*
X173000Y171500D02*
D03*
X170500Y173000D02*
D03*
X55000Y309000D02*
D03*
X134500Y302706D02*
D03*
X131500Y306500D02*
D03*
X132000Y321000D02*
D03*
X104500Y212500D02*
D03*
X125000Y209500D02*
D03*
X56740Y213779D02*
D03*
X170343Y97557D02*
D03*
X173000Y265983D02*
D03*
X167072Y183428D02*
D03*
X168000Y180000D02*
D03*
X98000Y114000D02*
D03*
X103000Y129500D02*
D03*
X94032Y104000D02*
D03*
X84646Y314032D02*
D03*
X80709D02*
D03*
X93000Y92000D02*
D03*
X78787Y99917D02*
D03*
X97528Y96443D02*
D03*
X101072Y98500D02*
D03*
X117000Y63500D02*
D03*
X134678Y87822D02*
D03*
X131928Y85072D02*
D03*
X121002Y83600D02*
D03*
X150870Y148904D02*
D03*
X19701Y141134D02*
D03*
X51114Y156302D02*
D03*
X65500Y166500D02*
D03*
X31496Y106299D02*
D03*
Y109252D02*
D03*
X53150Y70866D02*
D03*
Y66929D02*
D03*
Y62992D02*
D03*
X37402Y49213D02*
D03*
X33465D02*
D03*
X29528D02*
D03*
X25591D02*
D03*
X21654Y19685D02*
D03*
X17717Y23622D02*
D03*
X28850Y20977D02*
D03*
X31803Y18024D02*
D03*
X24914Y24914D02*
D03*
X22500Y43500D02*
D03*
X50000Y47000D02*
D03*
X48000Y45000D02*
D03*
X41339Y43307D02*
D03*
X37402D02*
D03*
X33465D02*
D03*
X29528D02*
D03*
X31496Y9793D02*
D03*
X47000Y228000D02*
D03*
X41913Y186562D02*
D03*
X47437Y184985D02*
D03*
X78500Y188500D02*
D03*
X80370Y186197D02*
D03*
X82952Y184327D02*
D03*
X86000Y184500D02*
D03*
X132000Y18000D02*
D03*
X133978Y16591D02*
D03*
X134000Y19500D02*
D03*
X121000Y147500D02*
D03*
X119280Y166220D02*
D03*
X92000Y164413D02*
D03*
X90979Y166544D02*
D03*
X88500Y152587D02*
D03*
X111500Y95500D02*
D03*
X119500Y90000D02*
D03*
Y97000D02*
D03*
X116500Y105500D02*
D03*
Y113000D02*
D03*
X113500Y94000D02*
D03*
X172000Y180500D02*
D03*
X70866Y228346D02*
D03*
X135000Y199626D02*
D03*
X135506Y192500D02*
D03*
X140500Y188012D02*
D03*
X135000Y184000D02*
D03*
X148000Y167500D02*
D03*
X151000Y180000D02*
D03*
X148500D02*
D03*
X74000Y152503D02*
D03*
X85000Y152587D02*
D03*
X79500D02*
D03*
X95000D02*
D03*
X103000Y153500D02*
D03*
X110000Y61000D02*
D03*
X86000Y91000D02*
D03*
X117000Y148000D02*
D03*
X114500D02*
D03*
X109000D02*
D03*
X111500D02*
D03*
X81500Y167000D02*
D03*
X78000D02*
D03*
X94000Y100500D02*
D03*
X152362Y101575D02*
D03*
X53000Y197000D02*
D03*
X42000Y189000D02*
D03*
X49000Y183000D02*
D03*
X33000Y134500D02*
D03*
X47437Y181000D02*
D03*
X48572Y178928D02*
D03*
X37000Y112500D02*
D03*
X96000Y181500D02*
D03*
X76198Y190823D02*
D03*
X98000Y179000D02*
D03*
X92113Y179056D02*
D03*
X76000Y193500D02*
D03*
X103678Y64678D02*
D03*
X53150Y86614D02*
D03*
Y90000D02*
D03*
Y82677D02*
D03*
Y78740D02*
D03*
Y74803D02*
D03*
X93012Y129500D02*
D03*
X87500D02*
D03*
Y134000D02*
D03*
X44000Y199000D02*
D03*
X42000Y202000D02*
D03*
X47000D02*
D03*
X81500Y136500D02*
D03*
X62849Y13287D02*
D03*
X60651D02*
D03*
X105000Y166413D02*
D03*
X67500Y137500D02*
D03*
X61500Y134500D02*
D03*
X128000Y202500D02*
D03*
Y207000D02*
D03*
X155500Y203500D02*
D03*
X141349Y212651D02*
D03*
X141500Y215300D02*
D03*
X155000Y208000D02*
D03*
X141500Y210000D02*
D03*
X133700Y220000D02*
D03*
X134000Y217500D02*
D03*
X106500Y211000D02*
D03*
X132000Y213500D02*
D03*
X125500Y203000D02*
D03*
X98229Y208238D02*
D03*
X122000Y24500D02*
D03*
X106000Y12000D02*
D03*
X102000D02*
D03*
X124500Y10000D02*
D03*
X119500Y12000D02*
D03*
X171500Y59000D02*
D03*
X152000D02*
D03*
X177500Y132000D02*
D03*
X190500Y127500D02*
D03*
X168500Y108500D02*
D03*
X165500Y106000D02*
D03*
X192500Y59000D02*
D03*
X159334Y95666D02*
D03*
X86614Y216535D02*
D03*
Y220472D02*
D03*
X82677Y216535D02*
D03*
X78740D02*
D03*
X82677Y220472D02*
D03*
X78740D02*
D03*
X37402Y271654D02*
D03*
Y275590D02*
D03*
Y279528D02*
D03*
X49213Y253937D02*
D03*
Y257874D02*
D03*
Y261811D02*
D03*
Y265748D02*
D03*
X62992D02*
D03*
Y269685D02*
D03*
Y273622D02*
D03*
Y277559D02*
D03*
X106299Y228346D02*
D03*
X110236D02*
D03*
Y232283D02*
D03*
X106299D02*
D03*
X74803Y228346D02*
D03*
X78740D02*
D03*
X82677D02*
D03*
Y232283D02*
D03*
X78740D02*
D03*
X74803D02*
D03*
X70866D02*
D03*
Y248031D02*
D03*
Y244094D02*
D03*
X78740D02*
D03*
X82677D02*
D03*
Y248031D02*
D03*
X78740D02*
D03*
X74803Y244094D02*
D03*
Y248031D02*
D03*
Y253937D02*
D03*
Y257874D02*
D03*
X104331Y253937D02*
D03*
X98425Y257874D02*
D03*
X102362Y259842D02*
D03*
X116142Y271654D02*
D03*
X120079Y275590D02*
D03*
Y271654D02*
D03*
X124016D02*
D03*
Y275590D02*
D03*
Y279528D02*
D03*
Y283465D02*
D03*
X145669D02*
D03*
X141732D02*
D03*
X137795D02*
D03*
Y279528D02*
D03*
X141732D02*
D03*
X145669D02*
D03*
Y271654D02*
D03*
Y275590D02*
D03*
X137795D02*
D03*
X141732D02*
D03*
Y271654D02*
D03*
X137795D02*
D03*
X80709Y311024D02*
D03*
X49213Y303150D02*
D03*
Y291339D02*
D03*
Y295276D02*
D03*
Y299213D02*
D03*
X35433Y242126D02*
D03*
Y246063D02*
D03*
Y250000D02*
D03*
Y253937D02*
D03*
X33465Y271654D02*
D03*
Y275590D02*
D03*
Y279528D02*
D03*
Y283465D02*
D03*
Y287402D02*
D03*
Y291339D02*
D03*
Y295276D02*
D03*
Y299213D02*
D03*
Y303150D02*
D03*
Y307087D02*
D03*
X120079Y289370D02*
D03*
Y293307D02*
D03*
Y297244D02*
D03*
Y301181D02*
D03*
Y305118D02*
D03*
Y309055D02*
D03*
Y312992D02*
D03*
X84646Y273622D02*
D03*
X80709D02*
D03*
Y277559D02*
D03*
X84646D02*
D03*
Y281496D02*
D03*
X80709D02*
D03*
X116142Y285433D02*
D03*
X84646D02*
D03*
X80709D02*
D03*
X84646Y289370D02*
D03*
X80709D02*
D03*
X116142D02*
D03*
Y293307D02*
D03*
Y297244D02*
D03*
X80709D02*
D03*
Y293307D02*
D03*
X84646D02*
D03*
Y297244D02*
D03*
Y301181D02*
D03*
X90551Y309055D02*
D03*
X96457D02*
D03*
X104331D02*
D03*
X96457Y312992D02*
D03*
X104331D02*
D03*
X110236D02*
D03*
Y309055D02*
D03*
X116142Y301181D02*
D03*
Y305118D02*
D03*
Y309055D02*
D03*
Y312992D02*
D03*
X100394Y320866D02*
D03*
X104331D02*
D03*
X108268D02*
D03*
X112205D02*
D03*
X116142D02*
D03*
X135827D02*
D03*
X139764D02*
D03*
X143701D02*
D03*
X161417Y338583D02*
D03*
Y320866D02*
D03*
Y326772D02*
D03*
Y332677D02*
D03*
X27559Y96457D02*
D03*
X21654Y49213D02*
D03*
X17717D02*
D03*
X27559Y9843D02*
D03*
X13780Y33465D02*
D03*
Y29528D02*
D03*
Y25591D02*
D03*
X80000Y374000D02*
D03*
X75000D02*
D03*
X122500Y379000D02*
D03*
X126500D02*
D03*
X117500Y260500D02*
D03*
X114500D02*
D03*
X111500D02*
D03*
X127000Y205000D02*
D03*
X130000Y258500D02*
D03*
X128000Y257000D02*
D03*
X132000D02*
D03*
X130000Y256000D02*
D03*
X131500Y166000D02*
D03*
X67500Y129500D02*
D03*
X81500D02*
D03*
X3937Y125984D02*
D03*
Y122047D02*
D03*
Y106299D02*
D03*
Y102362D02*
D03*
Y98425D02*
D03*
Y94488D02*
D03*
Y90551D02*
D03*
Y86614D02*
D03*
Y82677D02*
D03*
Y78740D02*
D03*
Y74803D02*
D03*
Y70866D02*
D03*
Y66929D02*
D03*
Y62992D02*
D03*
Y59055D02*
D03*
Y55118D02*
D03*
Y51181D02*
D03*
Y39370D02*
D03*
Y35433D02*
D03*
Y31496D02*
D03*
Y27559D02*
D03*
Y23622D02*
D03*
Y19685D02*
D03*
Y15748D02*
D03*
Y11811D02*
D03*
Y7874D02*
D03*
X7874Y3937D02*
D03*
X11811D02*
D03*
X15748D02*
D03*
X19685D02*
D03*
X23622D02*
D03*
X27559D02*
D03*
X31496D02*
D03*
X35433D02*
D03*
X82677D02*
D03*
X94488D02*
D03*
X98425D02*
D03*
X102362D02*
D03*
X106299D02*
D03*
X118110D02*
D03*
X122047D02*
D03*
X125984D02*
D03*
X137795D02*
D03*
X141732D02*
D03*
X145669D02*
D03*
X149606D02*
D03*
X161417D02*
D03*
X165354D02*
D03*
X169291D02*
D03*
X173228D02*
D03*
X177165D02*
D03*
X181102D02*
D03*
X185039D02*
D03*
X188976D02*
D03*
X192913D02*
D03*
X196850Y7874D02*
D03*
Y11811D02*
D03*
Y15748D02*
D03*
Y19685D02*
D03*
Y23622D02*
D03*
Y27559D02*
D03*
Y31496D02*
D03*
Y35433D02*
D03*
Y39370D02*
D03*
Y47244D02*
D03*
Y51181D02*
D03*
Y55118D02*
D03*
Y59055D02*
D03*
Y62992D02*
D03*
Y66929D02*
D03*
Y70866D02*
D03*
Y74803D02*
D03*
Y78740D02*
D03*
Y82677D02*
D03*
Y86614D02*
D03*
Y90551D02*
D03*
Y94488D02*
D03*
Y98425D02*
D03*
Y102362D02*
D03*
Y106299D02*
D03*
Y110236D02*
D03*
Y114173D02*
D03*
Y118110D02*
D03*
Y122047D02*
D03*
Y125984D02*
D03*
X153543Y401575D02*
D03*
X149606D02*
D03*
X145669D02*
D03*
X141732D02*
D03*
X106299D02*
D03*
X102362D02*
D03*
X98425D02*
D03*
X94488D02*
D03*
X59055D02*
D03*
X55118D02*
D03*
X51181D02*
D03*
X47244D02*
D03*
X196850Y374016D02*
D03*
Y377953D02*
D03*
Y381890D02*
D03*
Y385827D02*
D03*
Y389764D02*
D03*
Y393701D02*
D03*
Y397638D02*
D03*
X192913Y401575D02*
D03*
X188976D02*
D03*
X185039D02*
D03*
X181102D02*
D03*
X177165D02*
D03*
X173228D02*
D03*
X169291D02*
D03*
X125984D02*
D03*
X122047D02*
D03*
X78740D02*
D03*
X74803D02*
D03*
X31496D02*
D03*
X27559D02*
D03*
X23622D02*
D03*
X19685D02*
D03*
X15748D02*
D03*
X11811D02*
D03*
X7874D02*
D03*
X3937Y397638D02*
D03*
Y393701D02*
D03*
Y389764D02*
D03*
Y385827D02*
D03*
Y381890D02*
D03*
Y377953D02*
D03*
Y374016D02*
D03*
X31496Y322047D02*
D03*
X127500Y330339D02*
D03*
X143000Y328110D02*
D03*
X130055Y333555D02*
D03*
X138583Y81102D02*
D03*
X128000Y254500D02*
D03*
X130000Y253500D02*
D03*
X128000Y252000D02*
D03*
X132000D02*
D03*
Y254500D02*
D03*
X100394Y253150D02*
D03*
X79528Y251575D02*
D03*
X49000Y23957D02*
D03*
X51500Y23000D02*
D03*
X132000Y70000D02*
D03*
X139000Y106000D02*
D03*
X128000Y88500D02*
D03*
X130000Y97000D02*
D03*
X121000Y86500D02*
D03*
X128000Y85000D02*
D03*
X104000Y264500D02*
D03*
X12500Y203000D02*
D03*
X122500Y110500D02*
D03*
X136500Y328500D02*
D03*
X130000Y251000D02*
D03*
X128000Y249500D02*
D03*
X132000D02*
D03*
X143000Y334000D02*
D03*
Y331000D02*
D03*
X140500Y97000D02*
D03*
D60*
X103000Y218500D02*
D03*
X44500Y172437D02*
D03*
X111500Y77481D02*
D03*
X29528Y375984D02*
D03*
X26181Y346972D02*
D03*
X127214Y158786D02*
D03*
X59000Y171500D02*
D03*
X83500Y70000D02*
D03*
X70500D02*
D03*
X37500Y56000D02*
D03*
X157500Y219000D02*
D03*
X56500Y390500D02*
D03*
X65000Y365028D02*
D03*
X104000Y390000D02*
D03*
X151000Y389500D02*
D03*
X20500Y56500D02*
D03*
X55500Y273500D02*
D03*
X88500Y365028D02*
D03*
X113467Y328033D02*
D03*
X99000Y244000D02*
D03*
X77500Y204500D02*
D03*
X92000Y344000D02*
D03*
X48500Y344500D02*
D03*
X149000Y343500D02*
D03*
X19000Y96000D02*
D03*
Y103000D02*
D03*
D62*
X110500Y216150D02*
D03*
Y209850D02*
D03*
X118500Y216150D02*
D03*
Y209850D02*
D03*
D63*
X143528Y148000D02*
D03*
X134472Y141110D02*
D03*
Y154890D02*
D03*
X65158Y307063D02*
D03*
X56102Y300173D02*
D03*
Y313953D02*
D03*
D64*
X84138Y105902D02*
D03*
X85713D02*
D03*
X87287D02*
D03*
X88862D02*
D03*
Y96098D02*
D03*
X87287D02*
D03*
X85713D02*
D03*
X84138D02*
D03*
D65*
X83370Y98638D02*
D03*
D66*
X83173Y100213D02*
D03*
Y101787D02*
D03*
Y103362D02*
D03*
X89827D02*
D03*
Y101787D02*
D03*
Y100213D02*
D03*
Y98638D02*
D03*
D67*
X139370Y306472D02*
D03*
X132480Y315528D02*
D03*
X146260D02*
D03*
D68*
X77500Y367358D02*
D03*
Y349642D02*
D03*
D69*
X146740Y327063D02*
D03*
X139260D02*
D03*
X146740Y329031D02*
D03*
X139260D02*
D03*
X146740Y331000D02*
D03*
X139260D02*
D03*
X146740Y332968D02*
D03*
X139260D02*
D03*
X146740Y334937D02*
D03*
X139260D02*
D03*
D70*
X143000Y331000D02*
D03*
D71*
X123216Y234000D02*
D03*
X137784D02*
D03*
D72*
X136925Y211276D02*
D03*
Y212850D02*
D03*
Y214425D02*
D03*
Y216000D02*
D03*
X138500Y211276D02*
D03*
Y212850D02*
D03*
Y214425D02*
D03*
Y216000D02*
D03*
D73*
X143366Y372764D02*
D03*
X151122D02*
D03*
X148122Y249827D02*
D03*
X155878D02*
D03*
X48878Y372764D02*
D03*
X56634D02*
D03*
X103878D02*
D03*
X96122D02*
D03*
D74*
X146744Y358000D02*
D03*
X152000Y235063D02*
D03*
X52756Y358000D02*
D03*
X100000D02*
D03*
D75*
X127284Y261087D02*
D03*
X129095D02*
D03*
X130905D02*
D03*
X132717D02*
D03*
Y246913D02*
D03*
X130905D02*
D03*
X129095D02*
D03*
X127284D02*
D03*
D76*
X130000Y254000D02*
D03*
D77*
X124488Y259906D02*
D03*
Y257937D02*
D03*
Y255968D02*
D03*
Y254000D02*
D03*
Y252031D02*
D03*
Y250063D02*
D03*
Y248095D02*
D03*
X135512D02*
D03*
Y250063D02*
D03*
Y252031D02*
D03*
Y254000D02*
D03*
Y255968D02*
D03*
Y257937D02*
D03*
Y259906D02*
D03*
D78*
X130032Y75331D02*
D03*
X132000D02*
D03*
X133968D02*
D03*
X132000Y81669D02*
D03*
X130032D02*
D03*
X133968D02*
D03*
D79*
X109968Y53047D02*
D03*
Y55016D02*
D03*
Y56984D02*
D03*
Y58953D02*
D03*
X121031D02*
D03*
Y56984D02*
D03*
Y55016D02*
D03*
Y53047D02*
D03*
D80*
X72453Y178766D02*
D03*
Y193234D02*
D03*
X66547D02*
D03*
Y178766D02*
D03*
X58453D02*
D03*
Y193234D02*
D03*
X52547D02*
D03*
Y178766D02*
D03*
D81*
X72453Y181079D02*
D03*
Y188953D02*
D03*
Y183047D02*
D03*
Y185016D02*
D03*
Y186984D02*
D03*
Y190921D02*
D03*
X66547D02*
D03*
Y186984D02*
D03*
Y185016D02*
D03*
Y183047D02*
D03*
Y188953D02*
D03*
Y181079D02*
D03*
X58453D02*
D03*
Y188953D02*
D03*
Y183047D02*
D03*
Y185016D02*
D03*
Y186984D02*
D03*
Y190921D02*
D03*
X52547D02*
D03*
Y186984D02*
D03*
Y185016D02*
D03*
Y183047D02*
D03*
Y188953D02*
D03*
Y181079D02*
D03*
D82*
X62512Y7283D02*
D03*
X51488D02*
D03*
D83*
X154736Y210500D02*
D03*
X159264D02*
D03*
X129736Y336500D02*
D03*
X134264D02*
D03*
X151736Y333000D02*
D03*
X156264D02*
D03*
Y327000D02*
D03*
X151736D02*
D03*
X127264Y99500D02*
D03*
X122736D02*
D03*
X127264Y105000D02*
D03*
X122736D02*
D03*
X127264Y94000D02*
D03*
X122736D02*
D03*
X127236Y222000D02*
D03*
X131764D02*
D03*
D84*
X143059Y198000D02*
D03*
X140500D02*
D03*
X137941D02*
D03*
Y190795D02*
D03*
X140500D02*
D03*
D85*
X143059Y190992D02*
D03*
D86*
X159055Y99410D02*
D03*
D87*
X140354Y91260D02*
D03*
Y73937D02*
D03*
D88*
X151969Y98721D02*
D03*
D89*
X168307Y100689D02*
D03*
Y56693D02*
D03*
D90*
X172165Y92598D02*
D03*
X184646Y92205D02*
D03*
Y82598D02*
D03*
X172165D02*
D03*
Y72598D02*
D03*
X184646Y72992D02*
D03*
D91*
X144587Y84764D02*
D03*
D92*
X148031Y56693D02*
D03*
D93*
X187402Y100689D02*
D03*
Y56693D02*
D03*
D94*
X191929Y87402D02*
D03*
Y77795D02*
D03*
D95*
X154500Y185835D02*
D03*
Y195165D02*
D03*
D96*
X52000Y165654D02*
D03*
Y172346D02*
D03*
D97*
X37500Y69035D02*
D03*
Y85965D02*
D03*
X20500D02*
D03*
Y69035D02*
D03*
D98*
X155858Y257000D02*
D03*
X163142D02*
D03*
X155858Y265000D02*
D03*
X163142D02*
D03*
X155858Y273000D02*
D03*
X163142D02*
D03*
D99*
X62402Y17857D02*
D03*
X50984D02*
D03*
D100*
X117500Y250842D02*
D03*
Y256157D02*
D03*
X128000Y211842D02*
D03*
Y217158D02*
D03*
X111500Y250842D02*
D03*
Y256157D02*
D03*
D101*
X156268Y281500D02*
D03*
X159732D02*
D03*
X137768Y341500D02*
D03*
X141232D02*
D03*
X40768Y21500D02*
D03*
X44232D02*
D03*
X42232Y159500D02*
D03*
X38768D02*
D03*
X147768Y202000D02*
D03*
X151232D02*
D03*
Y206000D02*
D03*
X147768D02*
D03*
X136232Y266500D02*
D03*
X132768D02*
D03*
X136768Y222000D02*
D03*
X140232D02*
D03*
X131768Y206500D02*
D03*
X135232D02*
D03*
X135232Y202500D02*
D03*
X131768D02*
D03*
D102*
X147000Y218386D02*
D03*
Y211614D02*
D03*
D103*
X124500Y373709D02*
D03*
Y362291D02*
D03*
D104*
X125000Y74768D02*
D03*
Y78232D02*
D03*
X133000Y96268D02*
D03*
Y99732D02*
D03*
Y107732D02*
D03*
Y104268D02*
D03*
Y88535D02*
D03*
Y92000D02*
D03*
X143000Y184465D02*
D03*
Y181000D02*
D03*
X139000D02*
D03*
Y184465D02*
D03*
D105*
X60965Y328000D02*
D03*
X44035D02*
D03*
D106*
X132346Y187500D02*
D03*
X125654D02*
D03*
D107*
X133000Y325736D02*
D03*
Y330264D02*
D03*
X125000Y88264D02*
D03*
Y83736D02*
D03*
X119500Y19264D02*
D03*
Y14736D02*
D03*
X124500Y19264D02*
D03*
Y14736D02*
D03*
X141000Y250736D02*
D03*
Y255264D02*
D03*
Y265764D02*
D03*
Y261236D02*
D03*
D108*
X118500Y216150D02*
X119705Y217354D01*
X123933Y208472D02*
X127803Y212343D01*
X128000D01*
X128197Y217354D02*
X131197D01*
X128000Y217158D02*
X128197Y217354D01*
X127606D02*
X127803Y217158D01*
X119705Y217354D02*
X127606D01*
X118500Y207488D02*
X119484Y208472D01*
X123933D01*
D109*
X44500Y172437D02*
X51909D01*
X52000Y172346D01*
X148000Y339000D02*
X149000Y340000D01*
D110*
X109000Y28210D02*
X114000Y23210D01*
X109000Y53008D02*
X109039Y53047D01*
X109000Y28210D02*
Y53008D01*
X109039Y53047D02*
X109968D01*
X114000Y12500D02*
Y23210D01*
Y12500D02*
X116500Y10000D01*
X35000Y31803D02*
X38303Y28500D01*
X100555D02*
X106000Y23055D01*
X38303Y28500D02*
X100555D01*
X106000Y12000D02*
Y23055D01*
X35000Y31803D02*
Y38740D01*
X116500Y10000D02*
X124500D01*
X35000Y38740D02*
Y38772D01*
X33454Y40317D02*
X35000Y38772D01*
X33423Y40317D02*
X33454D01*
X124500Y10000D02*
Y14736D01*
D111*
X138342Y250736D02*
X141000D01*
M02*
