G04*
G04 #@! TF.GenerationSoftware,Altium Limited,Altium Designer,22.7.1 (60)*
G04*
G04 Layer_Color=8388736*
%FSLAX25Y25*%
%MOIN*%
G70*
G04*
G04 #@! TF.SameCoordinates,24E4937F-31BC-4FDA-B361-D206D476748A*
G04*
G04*
G04 #@! TF.FilePolarity,Positive*
G04*
G01*
G75*
%ADD161C,0.00394*%
%ADD168C,0.00100*%
%ADD169C,0.00118*%
D161*
X190257Y112642D02*
Y115079D01*
X194193D01*
Y112642D01*
X192131Y115079D02*
Y113579D01*
X190257Y111986D02*
X194193D01*
X190257D02*
Y110674D01*
X190444Y110112D01*
X190819Y109737D01*
X191194Y109549D01*
X191756Y109362D01*
X192693D01*
X193256Y109549D01*
X193631Y109737D01*
X194006Y110112D01*
X194193Y110674D01*
Y111986D01*
X191194Y105669D02*
X190819Y105857D01*
X190444Y106232D01*
X190257Y106607D01*
Y107356D01*
X190444Y107731D01*
X190819Y108106D01*
X191194Y108294D01*
X191756Y108481D01*
X192693D01*
X193256Y108294D01*
X193631Y108106D01*
X194006Y107731D01*
X194193Y107356D01*
Y106607D01*
X194006Y106232D01*
X193631Y105857D01*
X193256Y105669D01*
X192693D01*
Y106607D02*
Y105669D01*
X190257Y102333D02*
Y104770D01*
X194193D01*
Y102333D01*
X192131Y104770D02*
Y103270D01*
X190257Y53469D02*
Y55905D01*
X194193D01*
Y53469D01*
X192131Y55905D02*
Y54406D01*
X190257Y52813D02*
X194193D01*
X190257D02*
Y51501D01*
X190444Y50938D01*
X190819Y50564D01*
X191194Y50376D01*
X191756Y50189D01*
X192693D01*
X193256Y50376D01*
X193631Y50564D01*
X194006Y50938D01*
X194193Y51501D01*
Y52813D01*
X191194Y46496D02*
X190819Y46684D01*
X190444Y47058D01*
X190257Y47433D01*
Y48183D01*
X190444Y48558D01*
X190819Y48933D01*
X191194Y49120D01*
X191756Y49308D01*
X192693D01*
X193256Y49120D01*
X193631Y48933D01*
X194006Y48558D01*
X194193Y48183D01*
Y47433D01*
X194006Y47058D01*
X193631Y46684D01*
X193256Y46496D01*
X192693D01*
Y47433D02*
Y46496D01*
X190257Y43160D02*
Y45597D01*
X194193D01*
Y43160D01*
X192131Y45597D02*
Y44097D01*
D168*
X143504Y89291D02*
X154134D01*
X166142Y94370D02*
X173543D01*
X166142Y90827D02*
Y94370D01*
Y90827D02*
X173543D01*
X154134Y71378D02*
Y89291D01*
X143504Y71378D02*
Y89291D01*
Y71378D02*
X154134D01*
X166142Y74370D02*
X173543D01*
X166142Y70827D02*
Y74370D01*
Y84370D02*
X173543D01*
X166142Y80827D02*
Y84370D01*
Y80827D02*
X173543D01*
X166142Y70827D02*
X173543D01*
X178248Y89350D02*
Y95059D01*
X173543Y90827D02*
Y94370D01*
X178248Y79744D02*
Y85453D01*
Y95059D02*
X191043D01*
X178248Y89350D02*
X191043D01*
Y95059D01*
X178248Y85453D02*
X191043D01*
Y79744D02*
Y85453D01*
X173543Y80827D02*
Y84370D01*
X178248Y70138D02*
Y75846D01*
X173543Y70827D02*
Y74370D01*
X178248Y79744D02*
X191043D01*
X178248Y75846D02*
X191043D01*
X178248Y70138D02*
X191043D01*
Y75846D01*
D169*
X153066Y63162D02*
X152954Y63218D01*
X152841Y63330D01*
X152785Y63443D01*
X152729Y63612D01*
Y63893D01*
X152785Y64061D01*
X152841Y64174D01*
X152954Y64286D01*
X153066Y64342D01*
X153291D01*
X153403Y64286D01*
X153516Y64174D01*
X153572Y64061D01*
X153628Y63893D01*
Y63612D01*
X153572Y63443D01*
X153516Y63330D01*
X153403Y63218D01*
X153291Y63162D01*
X153066D01*
X153904Y63555D02*
Y64342D01*
Y63780D02*
X154073Y63612D01*
X154185Y63555D01*
X154354D01*
X154466Y63612D01*
X154523Y63780D01*
Y64342D01*
X154832Y63162D02*
Y64342D01*
X155135Y63555D02*
X155473Y64342D01*
X155810Y63555D02*
X155473Y64342D01*
X155360Y64567D01*
X155248Y64680D01*
X155135Y64736D01*
X155079D01*
X157778Y63443D02*
X157722Y63330D01*
X157610Y63218D01*
X157497Y63162D01*
X157272D01*
X157160Y63218D01*
X157047Y63330D01*
X156991Y63443D01*
X156935Y63612D01*
Y63893D01*
X156991Y64061D01*
X157047Y64174D01*
X157160Y64286D01*
X157272Y64342D01*
X157497D01*
X157610Y64286D01*
X157722Y64174D01*
X157778Y64061D01*
Y63893D01*
X157497D02*
X157778D01*
X158048Y63162D02*
Y64342D01*
Y63162D02*
X158835Y64342D01*
Y63162D02*
Y64342D01*
X159162Y63162D02*
Y64342D01*
Y63162D02*
X159555D01*
X159724Y63218D01*
X159836Y63330D01*
X159893Y63443D01*
X159949Y63612D01*
Y63893D01*
X159893Y64061D01*
X159836Y64174D01*
X159724Y64286D01*
X159555Y64342D01*
X159162D01*
X161535Y63162D02*
Y64342D01*
X161141Y63162D02*
X161928D01*
X162069Y63555D02*
Y64342D01*
Y63893D02*
X162125Y63724D01*
X162237Y63612D01*
X162350Y63555D01*
X162519D01*
X163300D02*
Y64342D01*
Y63724D02*
X163188Y63612D01*
X163075Y63555D01*
X162907D01*
X162794Y63612D01*
X162682Y63724D01*
X162625Y63893D01*
Y64005D01*
X162682Y64174D01*
X162794Y64286D01*
X162907Y64342D01*
X163075D01*
X163188Y64286D01*
X163300Y64174D01*
X164290Y63724D02*
X164177Y63612D01*
X164065Y63555D01*
X163896D01*
X163784Y63612D01*
X163671Y63724D01*
X163615Y63893D01*
Y64005D01*
X163671Y64174D01*
X163784Y64286D01*
X163896Y64342D01*
X164065D01*
X164177Y64286D01*
X164290Y64174D01*
X164543Y63893D02*
X165218D01*
Y63780D01*
X165161Y63668D01*
X165105Y63612D01*
X164993Y63555D01*
X164824D01*
X164711Y63612D01*
X164599Y63724D01*
X164543Y63893D01*
Y64005D01*
X164599Y64174D01*
X164711Y64286D01*
X164824Y64342D01*
X164993D01*
X165105Y64286D01*
X165218Y64174D01*
M02*
