G04*
G04 #@! TF.GenerationSoftware,Altium Limited,Altium Designer,22.7.1 (60)*
G04*
G04 Layer_Physical_Order=2*
G04 Layer_Color=36540*
%FSLAX25Y25*%
%MOIN*%
G70*
G04*
G04 #@! TF.SameCoordinates,24E4937F-31BC-4FDA-B361-D206D476748A*
G04*
G04*
G04 #@! TF.FilePolarity,Positive*
G04*
G01*
G75*
%ADD10C,0.00787*%
%ADD44C,0.03937*%
%ADD45C,0.00984*%
%ADD47C,0.01575*%
%ADD49C,0.07874*%
%ADD50C,0.02362*%
%ADD52R,0.07874X0.06299*%
%ADD53O,0.07874X0.06299*%
G04:AMPARAMS|DCode=55|XSize=43.31mil|YSize=122.05mil|CornerRadius=21.65mil|HoleSize=0mil|Usage=FLASHONLY|Rotation=0.000|XOffset=0mil|YOffset=0mil|HoleType=Round|Shape=RoundedRectangle|*
%AMROUNDEDRECTD55*
21,1,0.04331,0.07874,0,0,0.0*
21,1,0.00000,0.12205,0,0,0.0*
1,1,0.04331,0.00000,-0.03937*
1,1,0.04331,0.00000,-0.03937*
1,1,0.04331,0.00000,0.03937*
1,1,0.04331,0.00000,0.03937*
%
%ADD55ROUNDEDRECTD55*%
%ADD59C,0.01772*%
%ADD60C,0.05000*%
%ADD61C,0.06000*%
G36*
X192708Y404381D02*
X194381Y403687D01*
X195888Y402681D01*
X197169Y401400D01*
X198176Y399893D01*
X198869Y398219D01*
X199222Y396443D01*
Y395537D01*
Y370141D01*
X189701D01*
Y362142D01*
X199222D01*
Y358359D01*
X198940Y358235D01*
X198722Y358220D01*
X198128Y358994D01*
X197293Y359635D01*
X196320Y360038D01*
X195276Y360176D01*
X193701D01*
X192657Y360038D01*
X191684Y359635D01*
X190848Y358994D01*
X190207Y358159D01*
X189804Y357186D01*
X189667Y356142D01*
X189804Y355098D01*
X190207Y354125D01*
X190848Y353289D01*
X191684Y352648D01*
X192657Y352245D01*
X193701Y352108D01*
X195276D01*
X196320Y352245D01*
X197293Y352648D01*
X198128Y353289D01*
X198722Y354063D01*
X198940Y354049D01*
X199222Y353924D01*
Y348359D01*
X198940Y348235D01*
X198722Y348220D01*
X198128Y348994D01*
X197293Y349635D01*
X196320Y350038D01*
X195276Y350176D01*
X193701D01*
X192657Y350038D01*
X191684Y349635D01*
X190848Y348994D01*
X190207Y348159D01*
X189804Y347186D01*
X189667Y346142D01*
X189804Y345098D01*
X190207Y344125D01*
X190848Y343289D01*
X191684Y342648D01*
X192657Y342245D01*
X193701Y342108D01*
X195276D01*
X196320Y342245D01*
X197293Y342648D01*
X198128Y343289D01*
X198722Y344063D01*
X198940Y344049D01*
X199222Y343924D01*
Y338359D01*
X198940Y338234D01*
X198722Y338220D01*
X198128Y338994D01*
X197293Y339635D01*
X196320Y340038D01*
X195276Y340176D01*
X193701D01*
X192657Y340038D01*
X191684Y339635D01*
X190848Y338994D01*
X190207Y338159D01*
X189804Y337186D01*
X189667Y336142D01*
X189804Y335098D01*
X190207Y334125D01*
X190848Y333289D01*
X191684Y332648D01*
X192657Y332245D01*
X193701Y332108D01*
X195276D01*
X196320Y332245D01*
X197293Y332648D01*
X198128Y333289D01*
X198722Y334063D01*
X198940Y334049D01*
X199222Y333924D01*
Y328359D01*
X198940Y328235D01*
X198722Y328220D01*
X198128Y328994D01*
X197293Y329635D01*
X196320Y330038D01*
X195276Y330176D01*
X193701D01*
X192657Y330038D01*
X191684Y329635D01*
X190848Y328994D01*
X190207Y328159D01*
X189804Y327186D01*
X189667Y326142D01*
X189804Y325098D01*
X190207Y324125D01*
X190848Y323289D01*
X191684Y322648D01*
X192657Y322245D01*
X193701Y322108D01*
X195276D01*
X196320Y322245D01*
X197293Y322648D01*
X198128Y323289D01*
X198722Y324063D01*
X198940Y324049D01*
X199222Y323924D01*
Y318359D01*
X198940Y318234D01*
X198722Y318220D01*
X198128Y318994D01*
X197293Y319635D01*
X196320Y320038D01*
X195276Y320176D01*
X193701D01*
X192657Y320038D01*
X191684Y319635D01*
X190848Y318994D01*
X190207Y318159D01*
X189804Y317186D01*
X189667Y316142D01*
X189804Y315098D01*
X190207Y314125D01*
X190848Y313289D01*
X191684Y312648D01*
X192657Y312245D01*
X193701Y312108D01*
X195276D01*
X196320Y312245D01*
X197293Y312648D01*
X198128Y313289D01*
X198722Y314063D01*
X198940Y314049D01*
X199222Y313924D01*
Y308359D01*
X198940Y308235D01*
X198722Y308220D01*
X198128Y308994D01*
X197293Y309635D01*
X196320Y310038D01*
X195276Y310176D01*
X193701D01*
X192657Y310038D01*
X191684Y309635D01*
X190848Y308994D01*
X190207Y308159D01*
X189804Y307186D01*
X189667Y306142D01*
X189804Y305098D01*
X190207Y304125D01*
X190848Y303289D01*
X191684Y302648D01*
X192657Y302245D01*
X193701Y302108D01*
X195276D01*
X196320Y302245D01*
X197293Y302648D01*
X198128Y303289D01*
X198722Y304063D01*
X198940Y304049D01*
X199222Y303924D01*
Y298359D01*
X198940Y298235D01*
X198722Y298220D01*
X198128Y298994D01*
X197293Y299635D01*
X196320Y300038D01*
X195276Y300176D01*
X193701D01*
X192657Y300038D01*
X191684Y299635D01*
X190848Y298994D01*
X190207Y298159D01*
X189804Y297186D01*
X189667Y296142D01*
X189804Y295098D01*
X190207Y294125D01*
X190848Y293289D01*
X191684Y292648D01*
X192657Y292245D01*
X193701Y292108D01*
X195276D01*
X196320Y292245D01*
X197293Y292648D01*
X198128Y293289D01*
X198722Y294063D01*
X198940Y294049D01*
X199222Y293924D01*
Y288359D01*
X198940Y288234D01*
X198722Y288220D01*
X198128Y288994D01*
X197293Y289635D01*
X196320Y290038D01*
X195276Y290176D01*
X193701D01*
X192657Y290038D01*
X191684Y289635D01*
X190848Y288994D01*
X190207Y288159D01*
X189804Y287186D01*
X189667Y286142D01*
X189804Y285098D01*
X190207Y284125D01*
X190848Y283289D01*
X191684Y282648D01*
X192657Y282245D01*
X193701Y282108D01*
X195276D01*
X196320Y282245D01*
X197293Y282648D01*
X198128Y283289D01*
X198722Y284063D01*
X198940Y284049D01*
X199222Y283924D01*
Y278359D01*
X198940Y278235D01*
X198722Y278220D01*
X198128Y278994D01*
X197293Y279635D01*
X196320Y280038D01*
X195276Y280176D01*
X193701D01*
X192657Y280038D01*
X191684Y279635D01*
X190848Y278994D01*
X190207Y278159D01*
X189804Y277186D01*
X189667Y276142D01*
X189804Y275098D01*
X190207Y274125D01*
X190848Y273289D01*
X191684Y272648D01*
X192657Y272245D01*
X193701Y272108D01*
X195276D01*
X196320Y272245D01*
X197293Y272648D01*
X198128Y273289D01*
X198722Y274063D01*
X198940Y274049D01*
X199222Y273924D01*
Y268359D01*
X198940Y268234D01*
X198722Y268220D01*
X198128Y268994D01*
X197293Y269635D01*
X196320Y270038D01*
X195276Y270176D01*
X193701D01*
X192657Y270038D01*
X191684Y269635D01*
X190848Y268994D01*
X190207Y268159D01*
X189804Y267186D01*
X189667Y266142D01*
X189804Y265098D01*
X190207Y264125D01*
X190848Y263289D01*
X191684Y262648D01*
X192657Y262245D01*
X193701Y262108D01*
X195276D01*
X196320Y262245D01*
X197293Y262648D01*
X198128Y263289D01*
X198722Y264063D01*
X198940Y264049D01*
X199222Y263924D01*
Y258359D01*
X198940Y258235D01*
X198722Y258220D01*
X198128Y258994D01*
X197293Y259635D01*
X196320Y260038D01*
X195276Y260176D01*
X193701D01*
X192657Y260038D01*
X191684Y259635D01*
X190848Y258994D01*
X190207Y258159D01*
X189829Y257246D01*
X169512D01*
X162574Y264184D01*
X162765Y264646D01*
X172047D01*
X172275Y264692D01*
X172424Y264592D01*
X173000Y264478D01*
X173576Y264592D01*
X174064Y264918D01*
X174391Y265407D01*
X174505Y265983D01*
X174391Y266559D01*
X174064Y267047D01*
X173576Y267374D01*
X173000Y267488D01*
X172424Y267374D01*
X171936Y267047D01*
X171672Y266653D01*
X105150D01*
X104766Y266577D01*
X104440Y266359D01*
X104072Y265991D01*
X104000Y266005D01*
X103424Y265891D01*
X102936Y265564D01*
X102609Y265076D01*
X102495Y264500D01*
X102609Y263924D01*
X102936Y263436D01*
X103424Y263109D01*
X104000Y262995D01*
X104576Y263109D01*
X105064Y263436D01*
X105391Y263924D01*
X105505Y264500D01*
X105986Y264646D01*
X109676D01*
X109867Y264184D01*
X100324Y254641D01*
X99818Y254540D01*
X99329Y254214D01*
X99003Y253726D01*
X98888Y253150D01*
X99003Y252574D01*
X99329Y252085D01*
X99818Y251759D01*
X100394Y251644D01*
X100970Y251759D01*
X101458Y252085D01*
X101784Y252574D01*
X101885Y253080D01*
X111875Y263069D01*
X160566D01*
X168275Y255361D01*
X168633Y255122D01*
X169055Y255038D01*
X189829D01*
X190207Y254125D01*
X190848Y253289D01*
X191684Y252648D01*
X192657Y252245D01*
X193701Y252108D01*
X195276D01*
X196320Y252245D01*
X197293Y252648D01*
X198128Y253289D01*
X198722Y254063D01*
X198940Y254049D01*
X199222Y253924D01*
Y248359D01*
X198940Y248235D01*
X198722Y248220D01*
X198128Y248994D01*
X197293Y249635D01*
X196320Y250038D01*
X195276Y250176D01*
X193701D01*
X192657Y250038D01*
X191684Y249635D01*
X190848Y248994D01*
X190207Y248159D01*
X189804Y247186D01*
X189667Y246142D01*
X189804Y245098D01*
X190207Y244125D01*
X190848Y243289D01*
X191684Y242648D01*
X192657Y242245D01*
X193701Y242108D01*
X195276D01*
X196320Y242245D01*
X197293Y242648D01*
X198128Y243289D01*
X198722Y244063D01*
X198940Y244049D01*
X199222Y243924D01*
Y238359D01*
X198940Y238234D01*
X198722Y238220D01*
X198128Y238994D01*
X197293Y239635D01*
X196320Y240038D01*
X195276Y240176D01*
X193701D01*
X192657Y240038D01*
X191684Y239635D01*
X190848Y238994D01*
X190207Y238159D01*
X189804Y237186D01*
X189667Y236142D01*
X189804Y235098D01*
X190207Y234125D01*
X190848Y233289D01*
X191684Y232648D01*
X192657Y232245D01*
X193701Y232108D01*
X195276D01*
X196320Y232245D01*
X197293Y232648D01*
X198128Y233289D01*
X198722Y234063D01*
X198940Y234049D01*
X199222Y233924D01*
Y228359D01*
X198940Y228235D01*
X198722Y228220D01*
X198128Y228994D01*
X197293Y229635D01*
X196320Y230038D01*
X195276Y230176D01*
X193701D01*
X192657Y230038D01*
X191684Y229635D01*
X190848Y228994D01*
X190207Y228159D01*
X189804Y227186D01*
X189667Y226142D01*
X189804Y225098D01*
X190207Y224125D01*
X190848Y223289D01*
X191684Y222648D01*
X192657Y222245D01*
X193701Y222108D01*
X195276D01*
X196320Y222245D01*
X197293Y222648D01*
X198128Y223289D01*
X198722Y224063D01*
X198940Y224049D01*
X199222Y223924D01*
Y218359D01*
X198940Y218234D01*
X198722Y218220D01*
X198128Y218994D01*
X197293Y219635D01*
X196320Y220038D01*
X195276Y220176D01*
X193701D01*
X192657Y220038D01*
X191684Y219635D01*
X190848Y218994D01*
X190207Y218159D01*
X189804Y217186D01*
X189667Y216142D01*
X189804Y215098D01*
X190207Y214125D01*
X190848Y213289D01*
X191684Y212648D01*
X192657Y212245D01*
X193701Y212108D01*
X195276D01*
X196320Y212245D01*
X197293Y212648D01*
X198128Y213289D01*
X198722Y214063D01*
X198940Y214049D01*
X199222Y213924D01*
Y208359D01*
X198940Y208235D01*
X198722Y208220D01*
X198128Y208994D01*
X197293Y209635D01*
X196320Y210038D01*
X195276Y210176D01*
X193701D01*
X192657Y210038D01*
X191684Y209635D01*
X190848Y208994D01*
X190207Y208159D01*
X189804Y207186D01*
X189667Y206142D01*
X189804Y205098D01*
X190207Y204125D01*
X190848Y203289D01*
X191684Y202648D01*
X192657Y202245D01*
X193701Y202108D01*
X195276D01*
X196320Y202245D01*
X197293Y202648D01*
X198128Y203289D01*
X198722Y204063D01*
X198940Y204049D01*
X199222Y203924D01*
Y198359D01*
X198940Y198234D01*
X198722Y198220D01*
X198128Y198994D01*
X197293Y199635D01*
X196320Y200038D01*
X195276Y200176D01*
X193701D01*
X192657Y200038D01*
X191684Y199635D01*
X190848Y198994D01*
X190207Y198159D01*
X189804Y197186D01*
X189667Y196142D01*
X189804Y195098D01*
X190207Y194125D01*
X190848Y193289D01*
X191684Y192648D01*
X192657Y192245D01*
X193701Y192108D01*
X195276D01*
X196320Y192245D01*
X197293Y192648D01*
X198128Y193289D01*
X198722Y194063D01*
X198940Y194049D01*
X199222Y193924D01*
Y188359D01*
X198940Y188234D01*
X198722Y188220D01*
X198128Y188994D01*
X197293Y189635D01*
X196320Y190038D01*
X195276Y190176D01*
X193701D01*
X192657Y190038D01*
X191684Y189635D01*
X190848Y188994D01*
X190207Y188159D01*
X189804Y187186D01*
X189667Y186142D01*
X189804Y185098D01*
X190207Y184125D01*
X190848Y183289D01*
X191684Y182648D01*
X192657Y182245D01*
X193701Y182108D01*
X195276D01*
X196320Y182245D01*
X197293Y182648D01*
X198128Y183289D01*
X198722Y184063D01*
X198940Y184049D01*
X199222Y183924D01*
Y178359D01*
X198940Y178234D01*
X198722Y178220D01*
X198128Y178994D01*
X197293Y179635D01*
X196320Y180038D01*
X195276Y180176D01*
X193701D01*
X192657Y180038D01*
X191684Y179635D01*
X190848Y178994D01*
X190207Y178159D01*
X189804Y177186D01*
X189667Y176142D01*
X189804Y175098D01*
X190207Y174125D01*
X190848Y173289D01*
X191684Y172648D01*
X192657Y172245D01*
X193701Y172108D01*
X195276D01*
X196320Y172245D01*
X197293Y172648D01*
X198128Y173289D01*
X198722Y174063D01*
X198940Y174049D01*
X199222Y173924D01*
Y168359D01*
X198940Y168234D01*
X198722Y168220D01*
X198128Y168994D01*
X197293Y169635D01*
X196320Y170038D01*
X195276Y170176D01*
X193701D01*
X192657Y170038D01*
X191684Y169635D01*
X190848Y168994D01*
X190207Y168159D01*
X189804Y167186D01*
X189667Y166142D01*
X189804Y165098D01*
X190207Y164125D01*
X190848Y163289D01*
X191684Y162648D01*
X192657Y162245D01*
X193701Y162108D01*
X195276D01*
X196320Y162245D01*
X197293Y162648D01*
X198128Y163289D01*
X198722Y164063D01*
X198940Y164049D01*
X199222Y163924D01*
Y158359D01*
X198940Y158234D01*
X198722Y158220D01*
X198128Y158994D01*
X197293Y159635D01*
X196320Y160038D01*
X195276Y160176D01*
X193701D01*
X192657Y160038D01*
X191684Y159635D01*
X190848Y158994D01*
X190207Y158159D01*
X189804Y157186D01*
X189667Y156142D01*
X189804Y155098D01*
X190207Y154125D01*
X190848Y153289D01*
X191684Y152648D01*
X192657Y152245D01*
X193701Y152108D01*
X195276D01*
X196320Y152245D01*
X197293Y152648D01*
X198128Y153289D01*
X198722Y154063D01*
X198940Y154049D01*
X199222Y153924D01*
Y148359D01*
X198940Y148234D01*
X198722Y148220D01*
X198128Y148994D01*
X197293Y149635D01*
X196320Y150038D01*
X195276Y150176D01*
X193701D01*
X192657Y150038D01*
X191684Y149635D01*
X190848Y148994D01*
X190207Y148159D01*
X189804Y147186D01*
X189667Y146142D01*
X189804Y145098D01*
X190207Y144125D01*
X190848Y143289D01*
X191684Y142648D01*
X192657Y142245D01*
X193701Y142108D01*
X195276D01*
X196320Y142245D01*
X197293Y142648D01*
X198128Y143289D01*
X198722Y144063D01*
X198940Y144049D01*
X199222Y143924D01*
Y138359D01*
X198940Y138234D01*
X198722Y138220D01*
X198128Y138994D01*
X197293Y139635D01*
X196320Y140038D01*
X195276Y140176D01*
X193701D01*
X192657Y140038D01*
X191684Y139635D01*
X190848Y138994D01*
X190207Y138159D01*
X189804Y137186D01*
X189667Y136142D01*
X189804Y135098D01*
X190207Y134125D01*
X190848Y133289D01*
X191684Y132648D01*
X192657Y132245D01*
X193701Y132108D01*
X195276D01*
X196320Y132245D01*
X197293Y132648D01*
X198128Y133289D01*
X198722Y134063D01*
X198940Y134049D01*
X199222Y133924D01*
Y128587D01*
X198859Y128459D01*
X198722Y128448D01*
X198666Y128504D01*
X198600Y128603D01*
X197852Y129351D01*
X197461Y129613D01*
X197000Y129704D01*
X197000Y129704D01*
X192225D01*
X192109Y129681D01*
X191990D01*
X191880Y129636D01*
X191764Y129613D01*
X191665Y129547D01*
X191556Y129501D01*
X191472Y129417D01*
X191374Y129351D01*
X191308Y129253D01*
X191224Y129169D01*
X191042Y128897D01*
X190500Y129005D01*
X189958Y128897D01*
X189776Y129169D01*
X189692Y129253D01*
X189627Y129351D01*
X189528Y129417D01*
X189444Y129501D01*
X189334Y129547D01*
X189236Y129613D01*
X189120Y129636D01*
X189067Y129658D01*
Y192000D01*
X189067Y192000D01*
X188911Y193182D01*
X188455Y194283D01*
X187729Y195229D01*
X187729Y195229D01*
X160729Y222229D01*
X159783Y222955D01*
X158682Y223411D01*
X157500Y223567D01*
X156318Y223411D01*
X155217Y222955D01*
X154271Y222229D01*
X153545Y221283D01*
X153089Y220182D01*
X152933Y219000D01*
X153089Y217818D01*
X153545Y216717D01*
X154271Y215771D01*
X179933Y190108D01*
Y128636D01*
X178324Y127028D01*
X177752Y127102D01*
X177737Y127139D01*
X177235Y127794D01*
X176580Y128296D01*
X175818Y128612D01*
X175000Y128720D01*
X174182Y128612D01*
X173420Y128296D01*
X172765Y127794D01*
X172263Y127139D01*
X171947Y126377D01*
X171839Y125559D01*
Y117921D01*
X171947Y117103D01*
X172263Y116341D01*
X172765Y115686D01*
X173420Y115184D01*
X174182Y114868D01*
X175000Y114761D01*
X175818Y114868D01*
X176580Y115184D01*
X177235Y115686D01*
X177296Y115766D01*
X177796Y115596D01*
Y66500D01*
Y63254D01*
X157014Y42472D01*
X136772D01*
X136286Y42408D01*
X135787Y42615D01*
X135000Y42718D01*
X134213Y42615D01*
X133479Y42311D01*
X132849Y41828D01*
X132366Y41198D01*
X132306Y41054D01*
X131806Y41153D01*
Y43752D01*
X133248Y45194D01*
X154500D01*
X155191Y45331D01*
X155777Y45723D01*
X174277Y64223D01*
X174669Y64809D01*
X174806Y65500D01*
Y109803D01*
X174669Y110494D01*
X174277Y111080D01*
X168931Y116426D01*
X168955Y116457D01*
X169411Y117558D01*
X169567Y118740D01*
Y130608D01*
X174729Y135771D01*
X174729Y135771D01*
X175455Y136717D01*
X175911Y137818D01*
X176067Y139000D01*
X176067Y139000D01*
Y161000D01*
X176067Y161000D01*
X175911Y162182D01*
X175455Y163283D01*
X174729Y164229D01*
X174729Y164229D01*
X162229Y176729D01*
X161283Y177455D01*
X160182Y177911D01*
X159000Y178067D01*
X159000Y178067D01*
X151411D01*
X151362Y178567D01*
X151576Y178609D01*
X152064Y178936D01*
X152391Y179424D01*
X152505Y180000D01*
X152391Y180576D01*
X152064Y181064D01*
X151576Y181391D01*
X151000Y181505D01*
X150496Y181405D01*
X149082D01*
X141874Y188613D01*
X141564Y189076D01*
X141076Y189402D01*
X140500Y189517D01*
X139924Y189402D01*
X139436Y189076D01*
X139109Y188588D01*
X138995Y188012D01*
X139109Y187436D01*
X139436Y186947D01*
X139828Y186685D01*
X147150Y179363D01*
X147436Y178936D01*
X147924Y178609D01*
X148138Y178567D01*
X148089Y178067D01*
X133375D01*
X133129Y178567D01*
X133235Y178706D01*
X133493Y179328D01*
X133581Y179996D01*
X133493Y180664D01*
X133235Y181287D01*
X132825Y181821D01*
X132291Y182231D01*
X131668Y182489D01*
X131000Y182577D01*
X130332Y182489D01*
X129709Y182231D01*
X129175Y181821D01*
X128765Y181287D01*
X128507Y180664D01*
X128419Y179996D01*
X128507Y179328D01*
X128765Y178706D01*
X128871Y178567D01*
X128625Y178067D01*
X120892D01*
X92729Y206229D01*
X91783Y206955D01*
X90682Y207411D01*
X89500Y207567D01*
X89500Y207567D01*
X80892D01*
X80729Y207729D01*
X79783Y208455D01*
X78682Y208911D01*
X77500Y209067D01*
X76318Y208911D01*
X75217Y208455D01*
X74271Y207729D01*
X73545Y206783D01*
X73089Y205682D01*
X72933Y204500D01*
X73089Y203318D01*
X73545Y202217D01*
X74271Y201271D01*
X75771Y199771D01*
X75771Y199771D01*
X76717Y199045D01*
X77818Y198589D01*
X79000Y198433D01*
X79000Y198433D01*
X87608D01*
X115771Y170271D01*
X115771Y170271D01*
X116717Y169545D01*
X117818Y169089D01*
X119000Y168933D01*
X119000Y168933D01*
X146627D01*
X146681Y168868D01*
X146848Y168433D01*
X146609Y168076D01*
X146495Y167500D01*
X146609Y166924D01*
X146936Y166436D01*
X147424Y166109D01*
X148000Y165995D01*
X148576Y166109D01*
X149064Y166436D01*
X149391Y166924D01*
X149505Y167500D01*
X149391Y168076D01*
X149152Y168433D01*
X149319Y168868D01*
X149373Y168933D01*
X157108D01*
X165080Y160961D01*
X164889Y160500D01*
X157625D01*
X157406Y161000D01*
X157505Y161500D01*
X157391Y162076D01*
X157064Y162564D01*
X156576Y162891D01*
X156000Y163005D01*
X155424Y162891D01*
X154936Y162564D01*
X154609Y162076D01*
X154495Y161500D01*
X154609Y160924D01*
X154936Y160436D01*
X155424Y160109D01*
X156000Y159995D01*
X156213Y159820D01*
Y152500D01*
X165787D01*
Y159601D01*
X166249Y159793D01*
X166933Y159108D01*
Y140892D01*
X161771Y135729D01*
X161045Y134783D01*
X160589Y133682D01*
X160433Y132500D01*
X160433Y132500D01*
Y118740D01*
X160589Y117558D01*
X161045Y116457D01*
X161771Y115511D01*
X162717Y114785D01*
X163818Y114329D01*
X165000Y114173D01*
X165950Y114299D01*
X171194Y109055D01*
Y66248D01*
X153752Y48806D01*
X132500D01*
X131809Y48669D01*
X131223Y48277D01*
X128723Y45777D01*
X128331Y45191D01*
X128194Y44500D01*
Y41153D01*
X127694Y41054D01*
X127634Y41198D01*
X127151Y41828D01*
X126521Y42311D01*
X125787Y42615D01*
X125000Y42718D01*
X124213Y42615D01*
X123479Y42311D01*
X122849Y41828D01*
X122366Y41198D01*
X122062Y40464D01*
X121959Y39677D01*
Y31803D01*
X122062Y31016D01*
X122366Y30283D01*
X122849Y29653D01*
X123479Y29169D01*
X124213Y28865D01*
X125000Y28762D01*
X125787Y28865D01*
X126521Y29169D01*
X127151Y29653D01*
X127634Y30283D01*
X127694Y30427D01*
X128194Y30327D01*
Y26632D01*
X127868Y26306D01*
X122000D01*
X121309Y26169D01*
X120723Y25777D01*
X120331Y25191D01*
X120194Y24500D01*
X120331Y23809D01*
X120723Y23223D01*
X121309Y22831D01*
X122000Y22694D01*
X128616D01*
X129307Y22831D01*
X129894Y23223D01*
X131277Y24607D01*
X131669Y25192D01*
X131806Y25884D01*
Y30327D01*
X132306Y30427D01*
X132366Y30283D01*
X132849Y29653D01*
X133479Y29169D01*
X134213Y28865D01*
X135000Y28762D01*
X135787Y28865D01*
X136521Y29169D01*
X137151Y29653D01*
X137634Y30283D01*
X137938Y31016D01*
X138041Y31803D01*
Y33339D01*
X158905D01*
X158905Y33339D01*
X160087Y33494D01*
X161189Y33951D01*
X162135Y34676D01*
X184754Y57296D01*
X190886D01*
X191002Y57319D01*
X191121D01*
X191230Y57364D01*
X191347Y57387D01*
X191445Y57453D01*
X191555Y57499D01*
X191639Y57583D01*
X191737Y57648D01*
X191803Y57747D01*
X191887Y57831D01*
X192025Y58037D01*
X192070Y58147D01*
X192136Y58245D01*
X192159Y58362D01*
X192205Y58471D01*
Y58590D01*
X192215Y58640D01*
X192510Y58826D01*
X192517Y58824D01*
X192899Y58670D01*
X193125Y58332D01*
X193516Y58071D01*
X194016Y57864D01*
X194476Y57772D01*
X194728Y57822D01*
X194937Y57864D01*
X195328Y58125D01*
X197405Y60202D01*
X197509Y60358D01*
X197626Y60505D01*
X197639Y60552D01*
X197666Y60593D01*
X197703Y60777D01*
X197754Y60957D01*
X197748Y61006D01*
X197758Y61054D01*
X197722Y61238D01*
X197700Y61424D01*
X197537Y61929D01*
X197680Y62163D01*
X197914Y62306D01*
X198419Y62143D01*
X198605Y62121D01*
X198789Y62085D01*
X199007Y61939D01*
X199222Y61674D01*
Y10025D01*
Y9119D01*
X198869Y7342D01*
X198176Y5669D01*
X197169Y4162D01*
X195888Y2881D01*
X194381Y1874D01*
X192708Y1181D01*
X190931Y828D01*
X190025Y828D01*
X9119D01*
X7342Y1181D01*
X5669Y1874D01*
X4162Y2881D01*
X2881Y4162D01*
X1874Y5669D01*
X1181Y7342D01*
X828Y9119D01*
X828Y10025D01*
Y21844D01*
X1328Y21997D01*
X1342Y21988D01*
X1426Y21904D01*
X1535Y21859D01*
X1634Y21793D01*
X1750Y21770D01*
X1860Y21724D01*
X2039Y21545D01*
X2085Y21435D01*
X2108Y21319D01*
X2174Y21220D01*
X2219Y21111D01*
X2303Y21027D01*
X2369Y20928D01*
X2987Y20310D01*
X3378Y20049D01*
X3839Y19957D01*
X4041Y19789D01*
X4209Y19587D01*
X4301Y19126D01*
X4562Y18735D01*
X4562Y18735D01*
X5148Y18148D01*
X5539Y17887D01*
X6000Y17796D01*
X6000Y17796D01*
X6717D01*
X6974Y17367D01*
X6566Y16604D01*
X6146Y15220D01*
X6004Y13780D01*
X6146Y12339D01*
X6566Y10955D01*
X7248Y9679D01*
X8166Y8560D01*
X9285Y7642D01*
X10561Y6960D01*
X11946Y6540D01*
X13386Y6398D01*
X14826Y6540D01*
X16211Y6960D01*
X17487Y7642D01*
X18605Y8560D01*
X19523Y9679D01*
X20206Y10955D01*
X20626Y12339D01*
X20767Y13780D01*
X20626Y15220D01*
X20206Y16604D01*
X19809Y17346D01*
X19937Y17616D01*
X20123Y17819D01*
X20151D01*
X20260Y17864D01*
X20377Y17887D01*
X20475Y17953D01*
X20585Y17999D01*
X20669Y18083D01*
X20767Y18148D01*
X20833Y18247D01*
X20917Y18331D01*
X21179Y18722D01*
X21224Y18832D01*
X21290Y18930D01*
X21313Y19047D01*
X21358Y19157D01*
Y19196D01*
X21575Y19362D01*
X21654Y19394D01*
X21732Y19362D01*
X21949Y19196D01*
Y19157D01*
X21994Y19047D01*
X22017Y18930D01*
X22083Y18832D01*
X22129Y18722D01*
X22390Y18331D01*
X22474Y18247D01*
X22540Y18148D01*
X22638Y18083D01*
X22722Y17999D01*
X22832Y17953D01*
X22931Y17887D01*
X23047Y17864D01*
X23156Y17819D01*
X23275D01*
X23391Y17796D01*
X30692D01*
X30692Y17796D01*
X31152Y17887D01*
X31543Y18148D01*
X31543Y18148D01*
X32063Y18148D01*
X32454Y17887D01*
X32915Y17796D01*
X32915Y17796D01*
X33446D01*
X33507Y17332D01*
X33765Y16709D01*
X34175Y16175D01*
X34709Y15765D01*
X35332Y15507D01*
X36000Y15419D01*
X36668Y15507D01*
X37291Y15765D01*
X37825Y16175D01*
X38235Y16709D01*
X38493Y17332D01*
X38554Y17796D01*
X52500D01*
X52500Y17796D01*
X52961Y17887D01*
X53351Y18148D01*
X53351Y18148D01*
X54852Y19648D01*
X54852Y19648D01*
X55113Y20039D01*
X55204Y20500D01*
X55204Y20500D01*
Y26500D01*
X55113Y26961D01*
X54852Y27351D01*
X54852Y27352D01*
X53643Y28560D01*
X53926Y28984D01*
X54213Y28865D01*
X55000Y28762D01*
X55787Y28865D01*
X56521Y29169D01*
X57151Y29653D01*
X57634Y30283D01*
X57938Y31016D01*
X58041Y31803D01*
Y39677D01*
X57938Y40464D01*
X57634Y41198D01*
X57151Y41828D01*
X56521Y42311D01*
X55787Y42615D01*
X55000Y42718D01*
X54213Y42615D01*
X53479Y42311D01*
X52849Y41828D01*
X52366Y41198D01*
X52062Y40464D01*
X51959Y39677D01*
Y31803D01*
X52062Y31016D01*
X52269Y30516D01*
X52243Y30465D01*
X52103Y30290D01*
X51889Y30127D01*
X51771Y30150D01*
X51585Y30201D01*
X51542Y30196D01*
X51500Y30204D01*
X48143D01*
X47809Y30704D01*
X47938Y31016D01*
X48041Y31803D01*
Y39677D01*
X47938Y40464D01*
X47634Y41198D01*
X47151Y41828D01*
X46521Y42311D01*
X45787Y42615D01*
X45000Y42718D01*
X44213Y42615D01*
X43479Y42311D01*
X42849Y41828D01*
X42366Y41198D01*
X42062Y40464D01*
X41959Y39677D01*
Y31803D01*
X42062Y31016D01*
X42191Y30704D01*
X41857Y30204D01*
X38143D01*
X37809Y30704D01*
X37938Y31016D01*
X38041Y31803D01*
Y39677D01*
X37938Y40464D01*
X37634Y41198D01*
X37151Y41828D01*
X36521Y42311D01*
X35787Y42615D01*
X35000Y42718D01*
X34213Y42615D01*
X33479Y42311D01*
X32849Y41828D01*
X32366Y41198D01*
X32062Y40464D01*
X31959Y39677D01*
Y31803D01*
X32062Y31016D01*
X32191Y30704D01*
X31857Y30204D01*
X28143D01*
X27809Y30704D01*
X27938Y31016D01*
X28041Y31803D01*
Y39677D01*
X27938Y40464D01*
X27634Y41198D01*
X27151Y41828D01*
X26521Y42311D01*
X25787Y42615D01*
X25000Y42718D01*
X24213Y42615D01*
X23479Y42311D01*
X22849Y41828D01*
X22366Y41198D01*
X22062Y40464D01*
X21959Y39677D01*
Y31803D01*
X22062Y31016D01*
X22191Y30704D01*
X21857Y30204D01*
X21204D01*
Y41501D01*
X21929Y42226D01*
X22085Y42460D01*
X22190Y42616D01*
X22281Y43077D01*
X22228Y43346D01*
Y43554D01*
X22269Y43654D01*
X22346Y43731D01*
X22446Y43772D01*
X22654D01*
X22923Y43719D01*
X23384Y43810D01*
X23774Y44071D01*
X26126Y46423D01*
X26226Y46572D01*
X26339Y46712D01*
X26355Y46766D01*
X26387Y46813D01*
X26422Y46990D01*
X26473Y47162D01*
X26467Y47218D01*
X26478Y47274D01*
X26443Y47451D01*
X26425Y47629D01*
X26260Y48165D01*
X26372Y48369D01*
X26434Y48431D01*
X26638Y48544D01*
X27174Y48378D01*
X27352Y48360D01*
X27529Y48325D01*
X27585Y48336D01*
X27641Y48330D01*
X27813Y48381D01*
X27990Y48416D01*
X28037Y48448D01*
X28091Y48464D01*
X28231Y48577D01*
X28380Y48677D01*
X29351Y49648D01*
X29613Y50039D01*
X29704Y50500D01*
X29704Y50500D01*
Y61933D01*
X40387D01*
X40387Y61933D01*
X41569Y62089D01*
X42671Y62545D01*
X43617Y63271D01*
X48229Y67883D01*
X48955Y68829D01*
X49411Y69931D01*
X49567Y71113D01*
X49567Y71113D01*
Y101082D01*
X51963Y104278D01*
X52025Y104405D01*
X52105Y104522D01*
X52125Y104615D01*
X52167Y104701D01*
X52174Y104843D01*
X52204Y104982D01*
X52366Y115507D01*
X52679Y115610D01*
X52868Y115638D01*
X53479Y115169D01*
X54213Y114865D01*
X55000Y114762D01*
X55787Y114865D01*
X56521Y115169D01*
X57151Y115653D01*
X57634Y116282D01*
X57938Y117016D01*
X58041Y117803D01*
Y125677D01*
X57938Y126464D01*
X57634Y127198D01*
X57151Y127828D01*
X56521Y128311D01*
X55787Y128615D01*
X55000Y128718D01*
X54213Y128615D01*
X53479Y128311D01*
X53058Y127988D01*
X52562Y128237D01*
X52683Y136084D01*
X57542Y140944D01*
X57666D01*
X57666Y140943D01*
X58848Y141099D01*
X59949Y141555D01*
X60895Y142281D01*
X72797Y154183D01*
X72939Y154172D01*
X73066Y153682D01*
X73058Y153650D01*
X72936Y153568D01*
X72609Y153079D01*
X72495Y152503D01*
X72609Y151927D01*
X72936Y151439D01*
X73424Y151113D01*
X73775Y151043D01*
X73997Y150821D01*
Y128525D01*
X73479Y128311D01*
X72849Y127828D01*
X72366Y127198D01*
X72062Y126464D01*
X71959Y125677D01*
Y117803D01*
X72062Y117016D01*
X72366Y116282D01*
X72849Y115653D01*
X73479Y115169D01*
X74213Y114865D01*
X75000Y114762D01*
X75787Y114865D01*
X76521Y115169D01*
X77151Y115653D01*
X77634Y116282D01*
X77938Y117016D01*
X78041Y117803D01*
Y125677D01*
X77938Y126464D01*
X77634Y127198D01*
X77151Y127828D01*
X76521Y128311D01*
X76003Y128525D01*
Y151237D01*
X75927Y151621D01*
X75710Y151947D01*
X75447Y152209D01*
X75505Y152503D01*
X75391Y153079D01*
X75064Y153568D01*
X74647Y153847D01*
X74659Y154138D01*
X74730Y154347D01*
X78577D01*
X78728Y153847D01*
X78436Y153651D01*
X78109Y153163D01*
X77995Y152587D01*
X78109Y152011D01*
X78436Y151522D01*
X78496Y151481D01*
Y142567D01*
X78573Y142183D01*
X78790Y141858D01*
X83996Y136651D01*
Y128525D01*
X83479Y128311D01*
X82849Y127828D01*
X82366Y127198D01*
X82062Y126464D01*
X81959Y125677D01*
Y117803D01*
X82062Y117016D01*
X82366Y116282D01*
X82849Y115653D01*
X83479Y115169D01*
X84213Y114865D01*
X85000Y114762D01*
X85787Y114865D01*
X86521Y115169D01*
X87151Y115653D01*
X87634Y116282D01*
X87865Y116840D01*
X88365Y116740D01*
Y113531D01*
X88449Y113109D01*
X88688Y112751D01*
X94896Y106543D01*
Y105754D01*
X94396Y105433D01*
X94032Y105505D01*
X93455Y105391D01*
X92967Y105064D01*
X92641Y104576D01*
X92586Y104300D01*
X82219Y93934D01*
X81980Y93576D01*
X81896Y93153D01*
Y85355D01*
X81980Y84933D01*
X82219Y84575D01*
X102186Y64608D01*
X102287Y64102D01*
X102613Y63613D01*
X103102Y63287D01*
X103678Y63172D01*
X104254Y63287D01*
X104742Y63613D01*
X105068Y64102D01*
X105169Y64608D01*
X105957Y65396D01*
X116402D01*
X116451Y64896D01*
X116424Y64891D01*
X115936Y64564D01*
X115609Y64076D01*
X115495Y63500D01*
X115609Y62924D01*
X115936Y62436D01*
X116424Y62109D01*
X117000Y61995D01*
X117576Y62109D01*
X118064Y62436D01*
X118391Y62924D01*
X118505Y63500D01*
X118391Y64076D01*
X118064Y64564D01*
X117576Y64891D01*
X117549Y64896D01*
X117598Y65396D01*
X143000D01*
X143422Y65480D01*
X143781Y65719D01*
X150800Y72739D01*
X151040Y73097D01*
X151124Y73520D01*
Y110223D01*
X151651Y110750D01*
X151890Y111108D01*
X151974Y111530D01*
Y115972D01*
X152474Y116142D01*
X152849Y115653D01*
X153479Y115169D01*
X154213Y114865D01*
X155000Y114762D01*
X155787Y114865D01*
X156521Y115169D01*
X157151Y115653D01*
X157634Y116282D01*
X157938Y117016D01*
X158041Y117803D01*
Y125677D01*
X157938Y126464D01*
X157634Y127198D01*
X157151Y127828D01*
X156521Y128311D01*
X155787Y128615D01*
X155000Y128718D01*
X154213Y128615D01*
X153479Y128311D01*
X152849Y127828D01*
X152474Y127338D01*
X151974Y127508D01*
Y139380D01*
X152336Y139573D01*
X152474Y139599D01*
X153000Y139495D01*
X153576Y139609D01*
X154064Y139936D01*
X154391Y140424D01*
X154505Y141000D01*
X154391Y141576D01*
X154064Y142064D01*
X153576Y142391D01*
X153000Y142505D01*
X152474Y142401D01*
X152336Y142427D01*
X151974Y142620D01*
Y147898D01*
X152261Y148328D01*
X152375Y148904D01*
X152261Y149480D01*
X151935Y149968D01*
X151446Y150294D01*
X150870Y150409D01*
X150294Y150294D01*
X149806Y149968D01*
X149479Y149480D01*
X149365Y148904D01*
X149479Y148328D01*
X149766Y147898D01*
Y111988D01*
X149239Y111460D01*
X149000Y111102D01*
X148916Y110680D01*
Y73977D01*
X142543Y67604D01*
X105500D01*
X105078Y67520D01*
X104719Y67281D01*
X103678Y66239D01*
X84104Y85812D01*
Y90402D01*
X84604Y90451D01*
X84609Y90424D01*
X84936Y89936D01*
X85424Y89609D01*
X86000Y89495D01*
X86576Y89609D01*
X87064Y89936D01*
X87068Y89940D01*
X87328D01*
X87751Y90024D01*
X88109Y90264D01*
X98781Y100936D01*
X99020Y101294D01*
X99104Y101716D01*
Y107500D01*
X99020Y107922D01*
X98781Y108281D01*
X92147Y114914D01*
Y115746D01*
X92647Y115916D01*
X92849Y115653D01*
X93479Y115169D01*
X94213Y114865D01*
X95000Y114762D01*
X95787Y114865D01*
X96360Y115103D01*
X96691Y114699D01*
X96609Y114576D01*
X96495Y114000D01*
X96609Y113424D01*
X96936Y112936D01*
X97424Y112609D01*
X98000Y112495D01*
X98576Y112609D01*
X99064Y112936D01*
X99391Y113424D01*
X99505Y114000D01*
X99391Y114576D01*
X99064Y115064D01*
X98576Y115391D01*
X98000Y115505D01*
X97608Y115427D01*
X97325Y115880D01*
X97634Y116282D01*
X97938Y117016D01*
X98041Y117803D01*
Y125677D01*
X97938Y126464D01*
X97634Y127198D01*
X97151Y127828D01*
X96521Y128311D01*
X96004Y128525D01*
Y151481D01*
X96064Y151522D01*
X96391Y152011D01*
X96505Y152587D01*
X96391Y153163D01*
X96064Y153651D01*
X95771Y153847D01*
X95923Y154347D01*
X101235D01*
X101564Y153847D01*
X101495Y153500D01*
X101609Y152924D01*
X101936Y152436D01*
X102424Y152109D01*
X103000Y151995D01*
X103072Y152009D01*
X103997Y151084D01*
Y128525D01*
X103479Y128311D01*
X102849Y127828D01*
X102366Y127198D01*
X102062Y126464D01*
X101959Y125677D01*
Y117803D01*
X102062Y117016D01*
X102366Y116282D01*
X102849Y115653D01*
X103479Y115169D01*
X104213Y114865D01*
X105000Y114762D01*
X105787Y114865D01*
X106521Y115169D01*
X107151Y115653D01*
X107634Y116282D01*
X107938Y117016D01*
X108041Y117803D01*
Y125677D01*
X107938Y126464D01*
X107634Y127198D01*
X107151Y127828D01*
X106521Y128311D01*
X106003Y128525D01*
Y151500D01*
X105927Y151884D01*
X105710Y152210D01*
X104491Y153428D01*
X104505Y153500D01*
X104436Y153847D01*
X104765Y154347D01*
X126248D01*
X127214Y154220D01*
X128396Y154375D01*
X129497Y154831D01*
X130443Y155557D01*
X131169Y156503D01*
X131625Y157604D01*
X131780Y158786D01*
X131625Y159968D01*
X131169Y161070D01*
X130443Y162015D01*
X130316Y162143D01*
X129370Y162868D01*
X128269Y163324D01*
X127087Y163480D01*
X127086Y163480D01*
X93708D01*
X93419Y163980D01*
X93505Y164413D01*
X93391Y164989D01*
X93064Y165478D01*
X92576Y165804D01*
X92425Y165834D01*
X92370Y165968D01*
X92484Y166544D01*
X92370Y167120D01*
X92044Y167608D01*
X91555Y167934D01*
X90979Y168049D01*
X90403Y167934D01*
X89915Y167608D01*
X89588Y167120D01*
X89474Y166544D01*
X89588Y165968D01*
X89915Y165479D01*
X90403Y165153D01*
X90554Y165123D01*
X90609Y164989D01*
X90495Y164413D01*
X90581Y163980D01*
X90293Y163480D01*
X71069D01*
X71069Y163480D01*
X70234Y163370D01*
X69831Y163703D01*
X70293Y164036D01*
X70500Y163995D01*
X71076Y164109D01*
X71564Y164436D01*
X71891Y164924D01*
X72005Y165500D01*
X71891Y166076D01*
X71564Y166564D01*
X71504Y166605D01*
Y175539D01*
X71427Y175923D01*
X71210Y176249D01*
X70692Y176767D01*
Y177126D01*
X70891Y177424D01*
X71005Y178000D01*
X70891Y178576D01*
X70564Y179064D01*
X70076Y179391D01*
X69500Y179505D01*
X68924Y179391D01*
X68436Y179064D01*
X68109Y178576D01*
X67995Y178000D01*
X68109Y177424D01*
X68436Y176936D01*
X68685Y176769D01*
Y176351D01*
X68761Y175967D01*
X68979Y175641D01*
X69497Y175124D01*
Y168752D01*
X69033Y168453D01*
X68997Y168457D01*
X68781Y168781D01*
X62604Y174957D01*
Y199481D01*
X62919Y199952D01*
X63034Y200528D01*
X62919Y201104D01*
X62593Y201593D01*
X62104Y201919D01*
X61528Y202034D01*
X60952Y201919D01*
X60464Y201593D01*
X60138Y201104D01*
X60023Y200528D01*
X60138Y199952D01*
X60396Y199566D01*
Y174808D01*
X59909Y174469D01*
X59807Y174511D01*
X59000Y174617D01*
X58193Y174511D01*
X57441Y174200D01*
X56796Y173704D01*
X56300Y173059D01*
X55989Y172307D01*
X55883Y171500D01*
X55989Y170693D01*
X56300Y169941D01*
X56796Y169296D01*
X57441Y168800D01*
X58193Y168489D01*
X59000Y168383D01*
X59807Y168489D01*
X60559Y168800D01*
X61204Y169296D01*
X61700Y169941D01*
X62011Y170693D01*
X62117Y171500D01*
X62100Y171632D01*
X62573Y171865D01*
X66029Y168410D01*
X65783Y167949D01*
X65500Y168005D01*
X64924Y167891D01*
X64436Y167564D01*
X64109Y167076D01*
X63995Y166500D01*
X64024Y166354D01*
X63556Y166142D01*
X63482Y166238D01*
X62647Y166879D01*
X61674Y167282D01*
X60630Y167420D01*
X59586Y167282D01*
X58613Y166879D01*
X57777Y166238D01*
X57136Y165403D01*
X56733Y164430D01*
X56596Y163386D01*
X56733Y162342D01*
X57136Y161369D01*
X57777Y160533D01*
X58613Y159892D01*
X59586Y159489D01*
X60630Y159352D01*
X61674Y159489D01*
X62647Y159892D01*
X63482Y160533D01*
X64124Y161369D01*
X64527Y162342D01*
X64664Y163386D01*
X64527Y164430D01*
X64330Y164905D01*
X64734Y165236D01*
X64924Y165109D01*
X65500Y164995D01*
X66076Y165109D01*
X66396Y165323D01*
X66896Y165101D01*
Y164505D01*
X66609Y164076D01*
X66495Y163500D01*
X66609Y162924D01*
X66936Y162436D01*
X67230Y162239D01*
X67350Y161653D01*
X55774Y150077D01*
X55651D01*
X55651Y150077D01*
X54504Y149926D01*
X54457Y149930D01*
X54004Y150270D01*
Y195895D01*
X54064Y195936D01*
X54391Y196424D01*
X54505Y197000D01*
X54391Y197576D01*
X54064Y198064D01*
X53576Y198391D01*
X53000Y198505D01*
X52424Y198391D01*
X51936Y198064D01*
X51609Y197576D01*
X51495Y197000D01*
X51609Y196424D01*
X51936Y195936D01*
X51996Y195895D01*
Y158043D01*
X51496Y157731D01*
X51114Y157807D01*
X50538Y157692D01*
X50049Y157366D01*
X49723Y156878D01*
X49608Y156302D01*
X49723Y155726D01*
X50049Y155237D01*
X50110Y155196D01*
Y150993D01*
X46590Y147473D01*
X46518Y147487D01*
X45942Y147372D01*
X45796Y147275D01*
X45346Y147576D01*
X45366Y147674D01*
X45251Y148250D01*
X44965Y148679D01*
Y161646D01*
X44881Y162068D01*
X44641Y162426D01*
X44604Y162463D01*
Y163495D01*
X44891Y163924D01*
X45005Y164500D01*
X44891Y165076D01*
X44564Y165564D01*
X44076Y165891D01*
X43500Y166005D01*
X42924Y165891D01*
X42436Y165564D01*
X42109Y165076D01*
X41995Y164500D01*
X42109Y163924D01*
X42396Y163495D01*
Y162006D01*
X42480Y161584D01*
X42719Y161226D01*
X42757Y161188D01*
Y148679D01*
X42470Y148250D01*
X42355Y147674D01*
X42470Y147098D01*
X42796Y146609D01*
X43285Y146283D01*
X43861Y146168D01*
X44437Y146283D01*
X44582Y146380D01*
X45032Y146080D01*
X45013Y145982D01*
X45127Y145406D01*
X45454Y144917D01*
X45539Y144860D01*
X45633Y144265D01*
X45417Y144003D01*
X40500D01*
X40116Y143927D01*
X39790Y143710D01*
X36330Y140250D01*
X36325Y140247D01*
X35753Y140307D01*
X35721Y140330D01*
X35564Y140564D01*
X35476Y140624D01*
X35381Y141115D01*
X38193Y145219D01*
X38209Y145256D01*
X38236Y145286D01*
X38301Y145471D01*
X38378Y145651D01*
X38379Y145692D01*
X38392Y145730D01*
X38381Y145925D01*
X38384Y146121D01*
X38369Y146159D01*
X38367Y146199D01*
X38299Y146341D01*
X39729Y147771D01*
X39729Y147771D01*
X40455Y148717D01*
X40911Y149818D01*
X41067Y151000D01*
X41067Y151000D01*
Y166933D01*
X43563D01*
X43563Y166933D01*
X44745Y167089D01*
X45846Y167545D01*
X46792Y168271D01*
X47729Y169208D01*
X48455Y170154D01*
X48911Y171255D01*
X49067Y172437D01*
X48911Y173619D01*
X48455Y174720D01*
X47729Y175666D01*
X46783Y176392D01*
X45682Y176848D01*
X44500Y177004D01*
X43318Y176848D01*
X42217Y176392D01*
X41793Y176067D01*
X41067D01*
Y184797D01*
X41567Y185126D01*
X41913Y185057D01*
X42489Y185171D01*
X42978Y185498D01*
X43304Y185986D01*
X43419Y186562D01*
X43304Y187138D01*
X42978Y187627D01*
X43173Y188098D01*
X43391Y188424D01*
X43505Y189000D01*
X43391Y189576D01*
X43064Y190064D01*
X42576Y190391D01*
X42000Y190505D01*
X41567Y190419D01*
X41067Y190708D01*
Y200292D01*
X41567Y200581D01*
X42000Y200495D01*
X42576Y200609D01*
X43064Y200936D01*
X43391Y201424D01*
X43505Y202000D01*
X43391Y202576D01*
X43064Y203064D01*
X42576Y203391D01*
X42000Y203505D01*
X41567Y203419D01*
X41067Y203708D01*
Y227608D01*
X75000Y261542D01*
X94433Y242108D01*
Y222500D01*
X94433Y222500D01*
X94589Y221318D01*
X95045Y220217D01*
X95771Y219271D01*
X99771Y215271D01*
X100717Y214545D01*
X101818Y214089D01*
X103000Y213933D01*
X104182Y214089D01*
X105283Y214545D01*
X106229Y215271D01*
X106955Y216217D01*
X107411Y217318D01*
X107567Y218500D01*
X107411Y219682D01*
X106955Y220783D01*
X106229Y221729D01*
X103567Y224392D01*
Y244000D01*
X103567Y244000D01*
X103411Y245182D01*
X102955Y246283D01*
X102229Y247229D01*
X102229Y247229D01*
X76567Y272892D01*
Y318796D01*
X98613D01*
X98730Y318819D01*
X98848D01*
X98958Y318864D01*
X99074Y318887D01*
X99173Y318953D01*
X99282Y318999D01*
X99366Y319083D01*
X99465Y319148D01*
X99531Y319247D01*
X99615Y319331D01*
X99949Y319831D01*
X99994Y319941D01*
X100060Y320039D01*
X100083Y320156D01*
X100128Y320265D01*
Y320384D01*
X100132Y320403D01*
X100202Y320446D01*
X100394Y320527D01*
X100545Y320464D01*
X100660Y320319D01*
Y320267D01*
X100705Y320157D01*
X100728Y320041D01*
X100794Y319942D01*
X100839Y319832D01*
X101101Y319440D01*
X101185Y319356D01*
X101251Y319258D01*
X101350Y319192D01*
X101434Y319108D01*
X101543Y319063D01*
X101642Y318997D01*
X101758Y318974D01*
X101868Y318928D01*
X101987D01*
X102103Y318905D01*
X102622D01*
X102738Y318928D01*
X102857D01*
X102966Y318974D01*
X103083Y318997D01*
X103181Y319063D01*
X103291Y319108D01*
X103375Y319192D01*
X103473Y319258D01*
X103539Y319356D01*
X103623Y319440D01*
X103885Y319832D01*
X103930Y319942D01*
X103996Y320041D01*
X104019Y320157D01*
X104065Y320267D01*
Y320385D01*
X104068Y320402D01*
X104149Y320452D01*
X104331Y320528D01*
X104513Y320452D01*
X104593Y320402D01*
X104597Y320385D01*
Y320267D01*
X104642Y320157D01*
X104665Y320041D01*
X104731Y319942D01*
X104776Y319832D01*
X105038Y319440D01*
X105122Y319356D01*
X105188Y319258D01*
X105287Y319192D01*
X105371Y319108D01*
X105480Y319063D01*
X105579Y318997D01*
X105695Y318974D01*
X105805Y318928D01*
X105923D01*
X106040Y318905D01*
X106559D01*
X106675Y318928D01*
X106794D01*
X106903Y318974D01*
X107019Y318997D01*
X107118Y319063D01*
X107228Y319108D01*
X107312Y319192D01*
X107410Y319258D01*
X107476Y319356D01*
X107560Y319440D01*
X107822Y319832D01*
X107867Y319942D01*
X107933Y320041D01*
X107956Y320157D01*
X108002Y320267D01*
Y320385D01*
X108025Y320502D01*
X108002Y320618D01*
Y320737D01*
X108262Y321138D01*
X108500D01*
X108961Y321230D01*
X109352Y321491D01*
X109613Y321882D01*
X109704Y322342D01*
Y324722D01*
X110178Y324882D01*
X110238Y324804D01*
X111183Y324078D01*
X112285Y323622D01*
X113467Y323467D01*
X113533D01*
X113533Y323467D01*
X114715Y323622D01*
X115817Y324078D01*
X116762Y324804D01*
X130892Y338933D01*
X149000D01*
X150182Y339089D01*
X151283Y339545D01*
X152229Y340271D01*
X152955Y341217D01*
X153411Y342318D01*
X153567Y343500D01*
X153411Y344682D01*
X152955Y345783D01*
X152229Y346729D01*
X151283Y347455D01*
X150182Y347911D01*
X149000Y348067D01*
X129000D01*
X127818Y347911D01*
X126717Y347455D01*
X125771Y346729D01*
X125771Y346729D01*
X110524Y331482D01*
X110238Y331262D01*
X110178Y331184D01*
X109704Y331345D01*
Y369000D01*
X109613Y369461D01*
X109352Y369851D01*
X108961Y370113D01*
X108500Y370204D01*
X45000D01*
X44539Y370113D01*
X44148Y369851D01*
X43887Y369461D01*
X43796Y369000D01*
Y361316D01*
X43334Y361124D01*
X35087Y369371D01*
X34142Y370096D01*
X33040Y370553D01*
X31858Y370708D01*
X31858Y370708D01*
X5512D01*
X4330Y370553D01*
X3337Y370141D01*
X828D01*
Y395537D01*
Y396443D01*
X1181Y398219D01*
X1874Y399893D01*
X2881Y401400D01*
X4162Y402681D01*
X5669Y403687D01*
X7342Y404381D01*
X9119Y404734D01*
X190931D01*
X192708Y404381D01*
D02*
G37*
G36*
X1872Y353289D02*
X2168Y353062D01*
X2283Y352913D01*
X3229Y352187D01*
X4330Y351731D01*
X5512Y351575D01*
X17467D01*
X20526Y348516D01*
Y346972D01*
X20681Y345791D01*
X20933Y345181D01*
Y156392D01*
X14208Y149666D01*
X14141Y149673D01*
X13925Y149702D01*
X13908Y149697D01*
X13891Y149699D01*
X13682Y149637D01*
X13471Y149582D01*
X13457Y149571D01*
X13440Y149566D01*
X13270Y149429D01*
X13097Y149297D01*
X10730Y146614D01*
X10252Y146760D01*
X10196Y147186D01*
X9793Y148159D01*
X9152Y148994D01*
X8316Y149635D01*
X7343Y150038D01*
X6299Y150176D01*
X4724D01*
X3680Y150038D01*
X2707Y149635D01*
X1872Y148994D01*
X1328Y148285D01*
X828Y148440D01*
Y153844D01*
X1328Y153998D01*
X1872Y153289D01*
X2707Y152648D01*
X3680Y152245D01*
X4724Y152108D01*
X6299D01*
X7343Y152245D01*
X8316Y152648D01*
X9152Y153289D01*
X9793Y154125D01*
X10196Y155098D01*
X10333Y156142D01*
X10196Y157186D01*
X9793Y158159D01*
X9152Y158994D01*
X8316Y159635D01*
X7343Y160038D01*
X6299Y160176D01*
X4724D01*
X3680Y160038D01*
X2707Y159635D01*
X1872Y158994D01*
X1328Y158285D01*
X828Y158440D01*
Y163844D01*
X1328Y163998D01*
X1872Y163289D01*
X2707Y162648D01*
X3680Y162245D01*
X4724Y162108D01*
X6299D01*
X7343Y162245D01*
X8316Y162648D01*
X9152Y163289D01*
X9793Y164125D01*
X10196Y165098D01*
X10333Y166142D01*
X10196Y167186D01*
X9793Y168159D01*
X9152Y168994D01*
X8316Y169635D01*
X7343Y170038D01*
X6299Y170176D01*
X4724D01*
X3680Y170038D01*
X2707Y169635D01*
X1872Y168994D01*
X1328Y168285D01*
X828Y168440D01*
Y173844D01*
X1328Y173998D01*
X1872Y173289D01*
X2707Y172648D01*
X3680Y172245D01*
X4724Y172108D01*
X6299D01*
X7343Y172245D01*
X8316Y172648D01*
X9152Y173289D01*
X9793Y174125D01*
X10196Y175098D01*
X10333Y176142D01*
X10196Y177186D01*
X9793Y178159D01*
X9152Y178994D01*
X8316Y179635D01*
X7343Y180038D01*
X6299Y180176D01*
X4724D01*
X3680Y180038D01*
X2707Y179635D01*
X1872Y178994D01*
X1328Y178285D01*
X828Y178440D01*
Y183844D01*
X1328Y183998D01*
X1872Y183289D01*
X2707Y182648D01*
X3680Y182245D01*
X4724Y182108D01*
X6299D01*
X7343Y182245D01*
X8316Y182648D01*
X9152Y183289D01*
X9793Y184125D01*
X10196Y185098D01*
X10333Y186142D01*
X10196Y187186D01*
X9793Y188159D01*
X9152Y188994D01*
X8316Y189635D01*
X7343Y190038D01*
X6299Y190176D01*
X4724D01*
X3680Y190038D01*
X2707Y189635D01*
X1872Y188994D01*
X1328Y188285D01*
X828Y188440D01*
Y193844D01*
X1328Y193998D01*
X1872Y193289D01*
X2707Y192648D01*
X3680Y192245D01*
X4724Y192108D01*
X6299D01*
X7343Y192245D01*
X8316Y192648D01*
X9152Y193289D01*
X9793Y194125D01*
X10196Y195098D01*
X10333Y196142D01*
X10196Y197186D01*
X9793Y198159D01*
X9152Y198994D01*
X8316Y199635D01*
X7343Y200038D01*
X6299Y200176D01*
X4724D01*
X3680Y200038D01*
X2707Y199635D01*
X1872Y198994D01*
X1328Y198285D01*
X828Y198440D01*
Y203844D01*
X1328Y203998D01*
X1872Y203289D01*
X2707Y202648D01*
X3680Y202245D01*
X4724Y202108D01*
X6299D01*
X7343Y202245D01*
X8316Y202648D01*
X9152Y203289D01*
X9793Y204125D01*
X10196Y205098D01*
X10333Y206142D01*
X10196Y207186D01*
X9793Y208159D01*
X9152Y208994D01*
X8316Y209635D01*
X7343Y210038D01*
X6299Y210176D01*
X4724D01*
X3680Y210038D01*
X2707Y209635D01*
X1872Y208994D01*
X1328Y208285D01*
X828Y208440D01*
Y213844D01*
X1328Y213998D01*
X1872Y213289D01*
X2707Y212648D01*
X3680Y212245D01*
X4724Y212108D01*
X6299D01*
X7343Y212245D01*
X8316Y212648D01*
X9152Y213289D01*
X9793Y214125D01*
X10196Y215098D01*
X10333Y216142D01*
X10196Y217186D01*
X9793Y218159D01*
X9152Y218994D01*
X8316Y219635D01*
X7343Y220038D01*
X6299Y220176D01*
X4724D01*
X3680Y220038D01*
X2707Y219635D01*
X1872Y218994D01*
X1328Y218285D01*
X828Y218440D01*
Y223844D01*
X1328Y223998D01*
X1872Y223289D01*
X2707Y222648D01*
X3680Y222245D01*
X4724Y222108D01*
X6299D01*
X7343Y222245D01*
X8316Y222648D01*
X9152Y223289D01*
X9793Y224125D01*
X10196Y225098D01*
X10333Y226142D01*
X10196Y227186D01*
X9793Y228159D01*
X9152Y228994D01*
X8316Y229635D01*
X7343Y230038D01*
X6299Y230176D01*
X4724D01*
X3680Y230038D01*
X2707Y229635D01*
X1872Y228994D01*
X1328Y228285D01*
X828Y228440D01*
Y233844D01*
X1328Y233998D01*
X1872Y233289D01*
X2707Y232648D01*
X3680Y232245D01*
X4724Y232108D01*
X6299D01*
X7343Y232245D01*
X8316Y232648D01*
X9152Y233289D01*
X9793Y234125D01*
X10196Y235098D01*
X10333Y236142D01*
X10196Y237186D01*
X9793Y238159D01*
X9152Y238994D01*
X8316Y239635D01*
X7343Y240038D01*
X6299Y240176D01*
X4724D01*
X3680Y240038D01*
X2707Y239635D01*
X1872Y238994D01*
X1328Y238285D01*
X828Y238440D01*
Y243844D01*
X1328Y243998D01*
X1872Y243289D01*
X2707Y242648D01*
X3680Y242245D01*
X4724Y242108D01*
X6299D01*
X7343Y242245D01*
X8316Y242648D01*
X9152Y243289D01*
X9793Y244125D01*
X10196Y245098D01*
X10333Y246142D01*
X10196Y247186D01*
X9793Y248159D01*
X9152Y248994D01*
X8316Y249635D01*
X7343Y250038D01*
X6299Y250176D01*
X4724D01*
X3680Y250038D01*
X2707Y249635D01*
X1872Y248994D01*
X1328Y248285D01*
X828Y248440D01*
Y253844D01*
X1328Y253998D01*
X1872Y253289D01*
X2707Y252648D01*
X3680Y252245D01*
X4724Y252108D01*
X6299D01*
X7343Y252245D01*
X8316Y252648D01*
X9152Y253289D01*
X9793Y254125D01*
X10196Y255098D01*
X10333Y256142D01*
X10196Y257186D01*
X9793Y258159D01*
X9152Y258994D01*
X8316Y259635D01*
X7343Y260038D01*
X6299Y260176D01*
X4724D01*
X3680Y260038D01*
X2707Y259635D01*
X1872Y258994D01*
X1328Y258285D01*
X828Y258440D01*
Y263844D01*
X1328Y263998D01*
X1872Y263289D01*
X2707Y262648D01*
X3680Y262245D01*
X4724Y262108D01*
X6299D01*
X7343Y262245D01*
X8316Y262648D01*
X9152Y263289D01*
X9793Y264125D01*
X10196Y265098D01*
X10333Y266142D01*
X10196Y267186D01*
X9793Y268159D01*
X9152Y268994D01*
X8316Y269635D01*
X7343Y270038D01*
X6299Y270176D01*
X4724D01*
X3680Y270038D01*
X2707Y269635D01*
X1872Y268994D01*
X1328Y268285D01*
X828Y268440D01*
Y273844D01*
X1328Y273998D01*
X1872Y273289D01*
X2707Y272648D01*
X3680Y272245D01*
X4724Y272108D01*
X6299D01*
X7343Y272245D01*
X8316Y272648D01*
X9152Y273289D01*
X9793Y274125D01*
X10196Y275098D01*
X10333Y276142D01*
X10196Y277186D01*
X9793Y278159D01*
X9152Y278994D01*
X8316Y279635D01*
X7343Y280038D01*
X6299Y280176D01*
X4724D01*
X3680Y280038D01*
X2707Y279635D01*
X1872Y278994D01*
X1328Y278285D01*
X828Y278440D01*
Y283844D01*
X1328Y283998D01*
X1872Y283289D01*
X2707Y282648D01*
X3680Y282245D01*
X4724Y282108D01*
X6299D01*
X7343Y282245D01*
X8316Y282648D01*
X9152Y283289D01*
X9793Y284125D01*
X10196Y285098D01*
X10333Y286142D01*
X10196Y287186D01*
X9793Y288159D01*
X9152Y288994D01*
X8316Y289635D01*
X7343Y290038D01*
X6299Y290176D01*
X4724D01*
X3680Y290038D01*
X2707Y289635D01*
X1872Y288994D01*
X1328Y288285D01*
X828Y288440D01*
Y293582D01*
X1328Y293752D01*
X1765Y293182D01*
X2632Y292517D01*
X3641Y292099D01*
X4512Y291984D01*
Y296142D01*
Y300299D01*
X3641Y300184D01*
X2632Y299766D01*
X1765Y299101D01*
X1328Y298532D01*
X828Y298701D01*
Y303844D01*
X1328Y303998D01*
X1872Y303289D01*
X2707Y302648D01*
X3680Y302245D01*
X4724Y302108D01*
X6299D01*
X7343Y302245D01*
X8316Y302648D01*
X9152Y303289D01*
X9793Y304125D01*
X10196Y305098D01*
X10333Y306142D01*
X10196Y307186D01*
X9793Y308159D01*
X9152Y308994D01*
X8316Y309635D01*
X7343Y310038D01*
X6299Y310176D01*
X4724D01*
X3680Y310038D01*
X2707Y309635D01*
X1872Y308994D01*
X1328Y308285D01*
X828Y308440D01*
Y313844D01*
X1328Y313998D01*
X1872Y313289D01*
X2707Y312648D01*
X3680Y312245D01*
X4724Y312108D01*
X6299D01*
X7343Y312245D01*
X8316Y312648D01*
X9152Y313289D01*
X9793Y314125D01*
X10196Y315098D01*
X10333Y316142D01*
X10196Y317186D01*
X9793Y318159D01*
X9152Y318994D01*
X8316Y319635D01*
X7343Y320038D01*
X6299Y320176D01*
X4724D01*
X3680Y320038D01*
X2707Y319635D01*
X1872Y318994D01*
X1328Y318285D01*
X828Y318440D01*
Y323844D01*
X1328Y323998D01*
X1872Y323289D01*
X2707Y322648D01*
X3680Y322245D01*
X4724Y322108D01*
X6299D01*
X7343Y322245D01*
X8316Y322648D01*
X9152Y323289D01*
X9793Y324125D01*
X10196Y325098D01*
X10333Y326142D01*
X10196Y327186D01*
X9793Y328159D01*
X9152Y328994D01*
X8316Y329635D01*
X7343Y330038D01*
X6299Y330176D01*
X4724D01*
X3680Y330038D01*
X2707Y329635D01*
X1872Y328994D01*
X1328Y328285D01*
X828Y328440D01*
Y333844D01*
X1328Y333998D01*
X1872Y333289D01*
X2707Y332648D01*
X3680Y332245D01*
X4724Y332108D01*
X6299D01*
X7343Y332245D01*
X8316Y332648D01*
X9152Y333289D01*
X9793Y334125D01*
X10196Y335098D01*
X10333Y336142D01*
X10196Y337186D01*
X9793Y338159D01*
X9152Y338994D01*
X8316Y339635D01*
X7343Y340038D01*
X6299Y340176D01*
X4724D01*
X3680Y340038D01*
X2707Y339635D01*
X1872Y338994D01*
X1328Y338285D01*
X828Y338440D01*
Y343844D01*
X1328Y343998D01*
X1872Y343289D01*
X2707Y342648D01*
X3680Y342245D01*
X4724Y342108D01*
X6299D01*
X7343Y342245D01*
X8316Y342648D01*
X9152Y343289D01*
X9793Y344125D01*
X10196Y345098D01*
X10333Y346142D01*
X10196Y347186D01*
X9793Y348159D01*
X9152Y348994D01*
X8316Y349635D01*
X7343Y350038D01*
X6299Y350176D01*
X4724D01*
X3680Y350038D01*
X2707Y349635D01*
X1872Y348994D01*
X1328Y348285D01*
X828Y348440D01*
Y353844D01*
X1328Y353998D01*
X1872Y353289D01*
D02*
G37*
G36*
X4330Y361731D02*
X5512Y361575D01*
X29967D01*
X36906Y354636D01*
Y287528D01*
X36906Y287528D01*
X37061Y286346D01*
X37518Y285244D01*
X38243Y284298D01*
X52271Y270271D01*
X53217Y269545D01*
X54318Y269089D01*
X55500Y268933D01*
X56682Y269089D01*
X57783Y269545D01*
X58729Y270271D01*
X59455Y271217D01*
X59911Y272318D01*
X60067Y273500D01*
X59911Y274682D01*
X59455Y275783D01*
X58729Y276729D01*
X46039Y289419D01*
Y318796D01*
X67433D01*
Y271000D01*
X67433Y271000D01*
X67433Y271000D01*
Y266892D01*
X33271Y232729D01*
X32545Y231783D01*
X32089Y230682D01*
X31933Y229500D01*
X31933Y229500D01*
Y152892D01*
X29746Y150704D01*
X29000D01*
X28837Y150943D01*
X28732Y151165D01*
X28729Y151271D01*
X29455Y152217D01*
X29911Y153318D01*
X30067Y154500D01*
X30067Y154500D01*
Y320671D01*
X30124Y320720D01*
X30567Y320893D01*
X30920Y320656D01*
X31496Y320542D01*
X32072Y320656D01*
X32561Y320983D01*
X32887Y321471D01*
X33001Y322047D01*
X32887Y322623D01*
X32561Y323112D01*
X32072Y323438D01*
X31496Y323552D01*
X30920Y323438D01*
X30567Y323202D01*
X30124Y323375D01*
X30067Y323423D01*
Y344599D01*
X30136Y344689D01*
X30592Y345791D01*
X30748Y346972D01*
X30592Y348154D01*
X30136Y349256D01*
X29659Y349878D01*
Y350408D01*
X29659Y350408D01*
X29503Y351590D01*
X29047Y352691D01*
X28321Y353637D01*
X28321Y353637D01*
X22587Y359371D01*
X21642Y360097D01*
X20540Y360553D01*
X19358Y360708D01*
X19358Y360708D01*
X5512D01*
X4330Y360553D01*
X3229Y360097D01*
X2283Y359371D01*
X2168Y359222D01*
X1872Y358994D01*
X1328Y358285D01*
X828Y358440D01*
Y362142D01*
X3337D01*
X4330Y361731D01*
D02*
G37*
G36*
X108500Y322342D02*
X107974D01*
X107431Y322118D01*
X107016Y321702D01*
X106791Y321160D01*
Y320572D01*
X106821Y320502D01*
X106559Y320109D01*
X106040D01*
X105778Y320502D01*
X105807Y320572D01*
Y321160D01*
X105582Y321702D01*
X105167Y322118D01*
X104624Y322342D01*
X104037D01*
X103494Y322118D01*
X103079Y321702D01*
X102854Y321160D01*
Y320572D01*
X102884Y320502D01*
X102622Y320109D01*
X102103D01*
X101841Y320502D01*
X101870Y320572D01*
Y321160D01*
X101645Y321702D01*
X101230Y322118D01*
X100687Y322342D01*
X100100D01*
X99557Y322118D01*
X99142Y321702D01*
X98917Y321160D01*
Y320572D01*
X98947Y320500D01*
X98613Y320000D01*
X46039D01*
Y356527D01*
X46039Y356528D01*
X45884Y357710D01*
X45427Y358811D01*
X45000Y359368D01*
Y369000D01*
X108500D01*
Y322342D01*
D02*
G37*
G36*
X37200Y145900D02*
X33676Y140757D01*
X33664Y140752D01*
X33248Y140336D01*
X33024Y139794D01*
Y139230D01*
X30500Y132500D01*
Y110344D01*
X30244Y110088D01*
X30020Y109546D01*
Y108958D01*
X30244Y108416D01*
X30500Y108160D01*
Y107391D01*
X30244Y107135D01*
X30020Y106593D01*
Y106006D01*
X30244Y105463D01*
X30500Y105207D01*
Y96500D01*
X26500Y92500D01*
X19000D01*
X16704Y94337D01*
Y103180D01*
X17500Y137000D01*
X19945Y139658D01*
X19995D01*
X20537Y139883D01*
X20953Y140298D01*
X21177Y140841D01*
Y140997D01*
X21761Y141632D01*
X22364Y141548D01*
X22664Y141248D01*
X23206Y141024D01*
X23794D01*
X24336Y141248D01*
X24752Y141664D01*
X24976Y142206D01*
Y142794D01*
X24752Y143336D01*
X24336Y143752D01*
X24287Y143772D01*
X24179Y144260D01*
X29000Y149500D01*
X34500D01*
X37200Y145900D01*
D02*
G37*
G36*
X45217Y141534D02*
X39018Y135336D01*
X38593Y134782D01*
X38338Y134677D01*
X37838Y135012D01*
Y138919D01*
X40916Y141997D01*
X45026D01*
X45217Y141534D01*
D02*
G37*
G36*
X20000Y143500D02*
X19375Y142597D01*
X18865Y142386D01*
X18449Y141971D01*
X18225Y141428D01*
Y140936D01*
X15500Y137000D01*
Y117214D01*
X15000Y117062D01*
X14544Y117745D01*
X13729Y118560D01*
X12771Y119200D01*
X11706Y119641D01*
X10576Y119866D01*
X9424D01*
X8294Y119641D01*
X7229Y119200D01*
X6271Y118560D01*
X5456Y117745D01*
X4816Y116787D01*
X4375Y115722D01*
X4150Y114592D01*
Y113440D01*
X4375Y112309D01*
X4816Y111245D01*
X5456Y110287D01*
X6271Y109472D01*
X7229Y108832D01*
X8294Y108391D01*
X9424Y108166D01*
X10576D01*
X11706Y108391D01*
X12771Y108832D01*
X13729Y109472D01*
X14544Y110287D01*
X15000Y110969D01*
X15500Y110817D01*
Y66500D01*
X28500D01*
Y50500D01*
X27529Y49529D01*
X26989Y49696D01*
X26842Y50049D01*
X26427Y50464D01*
X25884Y50689D01*
X25297D01*
X24754Y50464D01*
X24339Y50049D01*
X24114Y49506D01*
Y48919D01*
X24339Y48376D01*
X24754Y47961D01*
X25107Y47815D01*
X25274Y47274D01*
X22923Y44923D01*
X22794Y44976D01*
X22206D01*
X21664Y44752D01*
X21248Y44336D01*
X21024Y43794D01*
Y43206D01*
X21077Y43077D01*
X20000Y42000D01*
Y29000D01*
X23888D01*
X24213Y28865D01*
X25000Y28762D01*
X25787Y28865D01*
X26112Y29000D01*
X31477D01*
X33888D01*
X34213Y28865D01*
X35000Y28762D01*
X35787Y28865D01*
X36112Y29000D01*
X43888D01*
X44213Y28865D01*
X45000Y28762D01*
X45787Y28865D01*
X46112Y29000D01*
X51500D01*
X51500Y29000D01*
X54000Y26500D01*
Y20500D01*
X52500Y19000D01*
X38378D01*
X38048Y19571D01*
X37571Y20048D01*
X36988Y20385D01*
X36337Y20559D01*
X35663D01*
X35012Y20385D01*
X34429Y20048D01*
X33952Y19571D01*
X33622Y19000D01*
X32915D01*
X32640Y19275D01*
X32097Y19500D01*
X31510D01*
X30967Y19275D01*
X30692Y19000D01*
X23391D01*
X23130Y19391D01*
Y19979D01*
X22905Y20521D01*
X22490Y20937D01*
X21947Y21161D01*
X21360D01*
X20817Y20937D01*
X20402Y20521D01*
X20177Y19979D01*
Y19391D01*
X19916Y19000D01*
X18554D01*
X18069Y19486D01*
X16865Y20290D01*
X15529Y20843D01*
X14109Y21126D01*
X12662D01*
X11243Y20843D01*
X9906Y20290D01*
X8703Y19486D01*
X8217Y19000D01*
X6000D01*
X5413Y19587D01*
Y19979D01*
X5189Y20521D01*
X4773Y20937D01*
X4231Y21161D01*
X3839D01*
X3220Y21780D01*
X3503Y22204D01*
X3643Y22146D01*
X4231D01*
X4773Y22370D01*
X5189Y22786D01*
X5413Y23328D01*
Y23916D01*
X5189Y24458D01*
X4773Y24874D01*
X4231Y25098D01*
X3643D01*
X3101Y24874D01*
X2685Y24458D01*
X2461Y23916D01*
Y23328D01*
X2519Y23189D01*
X2095Y22905D01*
X1000Y24000D01*
Y50500D01*
Y52000D01*
Y133604D01*
X1500Y133774D01*
X1872Y133289D01*
X2707Y132648D01*
X3680Y132245D01*
X4724Y132108D01*
X6299D01*
X7343Y132245D01*
X8316Y132648D01*
X9152Y133289D01*
X9793Y134125D01*
X10196Y135098D01*
X10333Y136142D01*
X10196Y137186D01*
X9793Y138159D01*
X9152Y138994D01*
X8316Y139635D01*
X7343Y140038D01*
X7145Y140064D01*
X6970Y140533D01*
X14000Y148500D01*
X20000Y143500D01*
D02*
G37*
G36*
X51513Y138348D02*
X51000Y105000D01*
X43743Y95324D01*
X43243Y95314D01*
X34500Y106000D01*
Y114448D01*
X34876Y114778D01*
X35000Y114762D01*
X35787Y114865D01*
X36521Y115169D01*
X37151Y115653D01*
X37634Y116282D01*
X37938Y117016D01*
X38041Y117803D01*
Y125677D01*
X37938Y126464D01*
X37634Y127198D01*
X37151Y127828D01*
X36521Y128311D01*
X35787Y128615D01*
X35000Y128718D01*
X34876Y128702D01*
X34500Y129032D01*
Y131794D01*
X35123Y132051D01*
X35358Y131893D01*
X35583Y131350D01*
X35998Y130935D01*
X36541Y130710D01*
X37128D01*
X37671Y130935D01*
X38086Y131350D01*
X38311Y131893D01*
Y132480D01*
X38190Y132773D01*
X38373Y133389D01*
X51100Y138629D01*
X51513Y138348D01*
D02*
G37*
G36*
X94229Y153847D02*
X93936Y153651D01*
X93609Y153163D01*
X93495Y152587D01*
X93609Y152011D01*
X93936Y151522D01*
X93997Y151481D01*
Y128525D01*
X93479Y128311D01*
X92849Y127828D01*
X92647Y127564D01*
X92147Y127734D01*
Y129870D01*
X92855Y130578D01*
X93095Y130936D01*
X93179Y131359D01*
Y148925D01*
X93095Y149348D01*
X92855Y149706D01*
X90000Y152561D01*
X90005Y152587D01*
X89891Y153163D01*
X89564Y153651D01*
X89271Y153847D01*
X89423Y154347D01*
X94077D01*
X94229Y153847D01*
D02*
G37*
G36*
X84228D02*
X83936Y153651D01*
X83609Y153163D01*
X83495Y152587D01*
X83609Y152011D01*
X83896Y151581D01*
Y142000D01*
X83980Y141578D01*
X84219Y141219D01*
X88365Y137074D01*
Y126740D01*
X87865Y126641D01*
X87634Y127198D01*
X87151Y127828D01*
X86521Y128311D01*
X86004Y128525D01*
Y137067D01*
X85927Y137451D01*
X85710Y137777D01*
X80503Y142983D01*
Y151481D01*
X80564Y151522D01*
X80891Y152011D01*
X81005Y152587D01*
X80891Y153163D01*
X80564Y153651D01*
X80272Y153847D01*
X80423Y154347D01*
X84077D01*
X84228Y153847D01*
D02*
G37*
G36*
X197749Y127751D02*
X197465Y127328D01*
X197144Y127461D01*
X196557D01*
X196014Y127236D01*
X195599Y126821D01*
X195374Y126278D01*
Y125691D01*
X195599Y125148D01*
X196014Y124733D01*
X196557Y124508D01*
X197144D01*
X197687Y124733D01*
X198102Y125148D01*
X198327Y125691D01*
Y126278D01*
X198194Y126599D01*
X198617Y126883D01*
X199222Y126278D01*
Y63722D01*
X198789Y63289D01*
X198254Y63461D01*
X198102Y63828D01*
X197687Y64244D01*
X197144Y64468D01*
X196557D01*
X196014Y64244D01*
X195599Y63828D01*
X195374Y63286D01*
Y62699D01*
X195599Y62156D01*
X196014Y61740D01*
X196381Y61588D01*
X196554Y61054D01*
X194476Y58976D01*
X193976Y59184D01*
Y59294D01*
X193752Y59836D01*
X193336Y60252D01*
X192794Y60476D01*
X192206D01*
X191664Y60252D01*
X191248Y59836D01*
X191024Y59294D01*
Y58706D01*
X190886Y58500D01*
X179000D01*
Y62000D01*
Y66500D01*
Y126000D01*
X181500Y128500D01*
X188775D01*
X189109Y128000D01*
X189024Y127794D01*
Y127206D01*
X189248Y126664D01*
X189664Y126248D01*
X190206Y126024D01*
X190794D01*
X191336Y126248D01*
X191752Y126664D01*
X191976Y127206D01*
Y127794D01*
X191891Y128000D01*
X192225Y128500D01*
X197000D01*
X197749Y127751D01*
D02*
G37*
%LPC*%
G36*
X56500Y393617D02*
X55693Y393511D01*
X54941Y393200D01*
X54296Y392704D01*
X53800Y392059D01*
X53489Y391307D01*
X53383Y390500D01*
X53489Y389693D01*
X53800Y388941D01*
X54296Y388296D01*
X54941Y387800D01*
X55693Y387489D01*
X56500Y387383D01*
X57307Y387489D01*
X58059Y387800D01*
X58704Y388296D01*
X59200Y388941D01*
X59511Y389693D01*
X59617Y390500D01*
X59511Y391307D01*
X59200Y392059D01*
X58704Y392704D01*
X58059Y393200D01*
X57307Y393511D01*
X56500Y393617D01*
D02*
G37*
G36*
X104000Y393117D02*
X103193Y393011D01*
X102441Y392700D01*
X101796Y392204D01*
X101300Y391559D01*
X100989Y390807D01*
X100883Y390000D01*
X100989Y389193D01*
X101300Y388441D01*
X101796Y387796D01*
X102441Y387300D01*
X103193Y386989D01*
X104000Y386883D01*
X104807Y386989D01*
X105559Y387300D01*
X106204Y387796D01*
X106700Y388441D01*
X107011Y389193D01*
X107117Y390000D01*
X107011Y390807D01*
X106700Y391559D01*
X106204Y392204D01*
X105559Y392700D01*
X104807Y393011D01*
X104000Y393117D01*
D02*
G37*
G36*
X151000Y392617D02*
X150193Y392511D01*
X149441Y392200D01*
X148796Y391704D01*
X148300Y391059D01*
X147989Y390307D01*
X147883Y389500D01*
X147989Y388693D01*
X148300Y387941D01*
X148796Y387296D01*
X149441Y386800D01*
X150193Y386489D01*
X151000Y386383D01*
X151807Y386489D01*
X152559Y386800D01*
X153204Y387296D01*
X153700Y387941D01*
X154011Y388693D01*
X154117Y389500D01*
X154011Y390307D01*
X153700Y391059D01*
X153204Y391704D01*
X152559Y392200D01*
X151807Y392511D01*
X151000Y392617D01*
D02*
G37*
G36*
X186614Y399114D02*
X185174Y398972D01*
X183789Y398552D01*
X182513Y397870D01*
X181395Y396952D01*
X180477Y395833D01*
X179795Y394557D01*
X179374Y393172D01*
X179233Y391732D01*
X179374Y390292D01*
X179795Y388908D01*
X180477Y387631D01*
X181395Y386513D01*
X182513Y385595D01*
X183789Y384913D01*
X185174Y384492D01*
X186614Y384351D01*
X188054Y384492D01*
X189439Y384913D01*
X190715Y385595D01*
X191834Y386513D01*
X192752Y387631D01*
X193434Y388908D01*
X193854Y390292D01*
X193996Y391732D01*
X193854Y393172D01*
X193434Y394557D01*
X192752Y395833D01*
X191834Y396952D01*
X190715Y397870D01*
X189439Y398552D01*
X188054Y398972D01*
X186614Y399114D01*
D02*
G37*
G36*
X13386D02*
X11946Y398972D01*
X10561Y398552D01*
X9285Y397870D01*
X8166Y396952D01*
X7248Y395833D01*
X6566Y394557D01*
X6146Y393172D01*
X6004Y391732D01*
X6146Y390292D01*
X6566Y388908D01*
X7248Y387631D01*
X8166Y386513D01*
X9285Y385595D01*
X10561Y384913D01*
X11946Y384492D01*
X13386Y384351D01*
X14826Y384492D01*
X16211Y384913D01*
X17487Y385595D01*
X18605Y386513D01*
X19523Y387631D01*
X20206Y388908D01*
X20626Y390292D01*
X20767Y391732D01*
X20626Y393172D01*
X20206Y394557D01*
X19523Y395833D01*
X18605Y396952D01*
X17487Y397870D01*
X16211Y398552D01*
X14826Y398972D01*
X13386Y399114D01*
D02*
G37*
G36*
X29528Y379101D02*
X28721Y378995D01*
X27969Y378684D01*
X27323Y378188D01*
X26828Y377543D01*
X26517Y376791D01*
X26410Y375984D01*
X26517Y375177D01*
X26828Y374426D01*
X27323Y373780D01*
X27969Y373285D01*
X28721Y372973D01*
X29528Y372867D01*
X30334Y372973D01*
X31086Y373285D01*
X31732Y373780D01*
X32227Y374426D01*
X32539Y375177D01*
X32645Y375984D01*
X32539Y376791D01*
X32227Y377543D01*
X31732Y378188D01*
X31086Y378684D01*
X30334Y378995D01*
X29528Y379101D01*
D02*
G37*
G36*
X130055Y335061D02*
X129479Y334946D01*
X128991Y334620D01*
X128665Y334131D01*
X128550Y333555D01*
X128665Y332979D01*
X128991Y332491D01*
X129479Y332165D01*
X130055Y332050D01*
X130631Y332165D01*
X131120Y332491D01*
X131446Y332979D01*
X131561Y333555D01*
X131446Y334131D01*
X131120Y334620D01*
X130631Y334946D01*
X130055Y335061D01*
D02*
G37*
G36*
X127500Y331844D02*
X126924Y331730D01*
X126436Y331403D01*
X126109Y330915D01*
X125995Y330339D01*
X126109Y329763D01*
X126436Y329274D01*
X126924Y328948D01*
X127500Y328834D01*
X128076Y328948D01*
X128564Y329274D01*
X128891Y329763D01*
X129005Y330339D01*
X128891Y330915D01*
X128564Y331403D01*
X128076Y331730D01*
X127500Y331844D01*
D02*
G37*
G36*
X136500Y330005D02*
X135924Y329891D01*
X135436Y329564D01*
X135109Y329076D01*
X134995Y328500D01*
X135109Y327924D01*
X135436Y327436D01*
X135924Y327109D01*
X136500Y326995D01*
X137076Y327109D01*
X137564Y327436D01*
X137891Y327924D01*
X138005Y328500D01*
X137891Y329076D01*
X137564Y329564D01*
X137076Y329891D01*
X136500Y330005D01*
D02*
G37*
G36*
X131500Y308005D02*
X130924Y307891D01*
X130436Y307564D01*
X130109Y307076D01*
X129995Y306500D01*
X130109Y305924D01*
X130436Y305436D01*
X130924Y305109D01*
X131500Y304995D01*
X132076Y305109D01*
X132564Y305436D01*
X132891Y305924D01*
X133005Y306500D01*
X132891Y307076D01*
X132564Y307564D01*
X132076Y307891D01*
X131500Y308005D01*
D02*
G37*
G36*
X134500Y304211D02*
X133924Y304097D01*
X133436Y303771D01*
X133109Y303282D01*
X132995Y302706D01*
X133109Y302130D01*
X133436Y301642D01*
X133924Y301315D01*
X134500Y301201D01*
X135076Y301315D01*
X135564Y301642D01*
X135891Y302130D01*
X136005Y302706D01*
X135891Y303282D01*
X135564Y303771D01*
X135076Y304097D01*
X134500Y304211D01*
D02*
G37*
G36*
X101000Y302516D02*
Y295291D01*
X108225D01*
X108164Y295915D01*
X107690Y297477D01*
X106921Y298916D01*
X105886Y300177D01*
X104624Y301212D01*
X103185Y301981D01*
X101624Y302455D01*
X101000Y302516D01*
D02*
G37*
G36*
X99000D02*
X98376Y302455D01*
X96815Y301981D01*
X95376Y301212D01*
X94114Y300177D01*
X93079Y298916D01*
X92310Y297477D01*
X91836Y295915D01*
X91775Y295291D01*
X99000D01*
Y302516D01*
D02*
G37*
G36*
X108225Y293291D02*
X101000D01*
Y286066D01*
X101624Y286128D01*
X103185Y286601D01*
X104624Y287371D01*
X105886Y288406D01*
X106921Y289667D01*
X107690Y291106D01*
X108164Y292668D01*
X108225Y293291D01*
D02*
G37*
G36*
X99000D02*
X91775D01*
X91836Y292668D01*
X92310Y291106D01*
X93079Y289667D01*
X94114Y288406D01*
X95376Y287371D01*
X96815Y286601D01*
X98376Y286128D01*
X99000Y286066D01*
Y293291D01*
D02*
G37*
G36*
X79528Y253080D02*
X78952Y252965D01*
X78522Y252679D01*
X70472D01*
X70050Y252595D01*
X69692Y252355D01*
X46802Y229466D01*
X46424Y229391D01*
X45936Y229064D01*
X45609Y228576D01*
X45495Y228000D01*
X45609Y227424D01*
X45896Y226995D01*
Y203005D01*
X45609Y202576D01*
X45495Y202000D01*
X45609Y201424D01*
X45936Y200936D01*
X46424Y200609D01*
X47000Y200495D01*
X47576Y200609D01*
X48064Y200936D01*
X48391Y201424D01*
X48505Y202000D01*
X48391Y202576D01*
X48104Y203005D01*
Y226995D01*
X48391Y227424D01*
X48505Y228000D01*
X48498Y228039D01*
X70930Y250471D01*
X78522D01*
X78952Y250184D01*
X79528Y250069D01*
X80104Y250184D01*
X80592Y250510D01*
X80918Y250999D01*
X81033Y251575D01*
X80918Y252151D01*
X80592Y252639D01*
X80104Y252965D01*
X79528Y253080D01*
D02*
G37*
G36*
X56740Y215285D02*
X56164Y215170D01*
X55676Y214844D01*
X55349Y214356D01*
X55235Y213779D01*
X55349Y213204D01*
X55676Y212715D01*
X56164Y212389D01*
X56740Y212274D01*
X57316Y212389D01*
X57805Y212715D01*
X58131Y213204D01*
X58245Y213779D01*
X58131Y214356D01*
X57805Y214844D01*
X57316Y215170D01*
X56740Y215285D01*
D02*
G37*
G36*
X133700Y221505D02*
X133124Y221391D01*
X132695Y221104D01*
X130762D01*
X130340Y221020D01*
X129981Y220781D01*
X118543Y209342D01*
X99234D01*
X98805Y209629D01*
X98229Y209743D01*
X97653Y209629D01*
X97164Y209302D01*
X96838Y208814D01*
X96723Y208238D01*
X96838Y207662D01*
X97164Y207174D01*
X97653Y206847D01*
X98229Y206733D01*
X98805Y206847D01*
X99234Y207134D01*
X119000D01*
X119422Y207218D01*
X119781Y207457D01*
X131219Y218896D01*
X132601D01*
X132872Y218470D01*
X132609Y218076D01*
X132495Y217500D01*
X132609Y216924D01*
X132936Y216436D01*
X133424Y216109D01*
X133930Y216009D01*
X138069Y211870D01*
X138427Y211631D01*
X138849Y211547D01*
X140344D01*
X140773Y211260D01*
X141349Y211145D01*
X141925Y211260D01*
X142414Y211586D01*
X142740Y212075D01*
X142855Y212651D01*
X142740Y213227D01*
X142498Y213590D01*
X142515Y214203D01*
X142564Y214236D01*
X142891Y214724D01*
X143005Y215300D01*
X142891Y215876D01*
X142564Y216364D01*
X142076Y216691D01*
X141819Y216742D01*
X137781Y220781D01*
X137422Y221020D01*
X137000Y221104D01*
X134705D01*
X134276Y221391D01*
X133700Y221505D01*
D02*
G37*
G36*
X155000Y209505D02*
X154424Y209391D01*
X153936Y209064D01*
X153609Y208576D01*
X153509Y208070D01*
X151043Y205604D01*
X142500D01*
X142078Y205520D01*
X141719Y205281D01*
X137169Y200730D01*
X136005D01*
X135576Y201017D01*
X135000Y201131D01*
X134424Y201017D01*
X133936Y200690D01*
X133609Y200202D01*
X133495Y199626D01*
X133609Y199050D01*
X133936Y198562D01*
X134424Y198235D01*
X135000Y198121D01*
X135576Y198235D01*
X136005Y198522D01*
X137626D01*
X138048Y198606D01*
X138407Y198845D01*
X142957Y203396D01*
X151500D01*
X151922Y203480D01*
X152281Y203719D01*
X155070Y206509D01*
X155576Y206609D01*
X156064Y206936D01*
X156391Y207424D01*
X156505Y208000D01*
X156391Y208576D01*
X156064Y209064D01*
X155576Y209391D01*
X155000Y209505D01*
D02*
G37*
G36*
X44000Y200505D02*
X43424Y200391D01*
X42936Y200064D01*
X42609Y199576D01*
X42495Y199000D01*
X42609Y198424D01*
X42936Y197936D01*
X43424Y197609D01*
X44000Y197495D01*
X44576Y197609D01*
X45064Y197936D01*
X45391Y198424D01*
X45505Y199000D01*
X45391Y199576D01*
X45064Y200064D01*
X44576Y200391D01*
X44000Y200505D01*
D02*
G37*
G36*
X76000Y195005D02*
X75424Y194891D01*
X74936Y194564D01*
X74609Y194076D01*
X74495Y193500D01*
X74609Y192924D01*
X74936Y192436D01*
X74995Y192396D01*
X75133Y191887D01*
X75069Y191791D01*
X74807Y191399D01*
X74692Y190823D01*
X74807Y190247D01*
X75133Y189758D01*
X75622Y189432D01*
X76198Y189318D01*
X76742Y189426D01*
X76879Y189320D01*
X77002Y189190D01*
X77105Y189052D01*
X76995Y188500D01*
X77109Y187924D01*
X77436Y187436D01*
X77924Y187109D01*
X78500Y186995D01*
X78555Y187006D01*
X78614Y186973D01*
X78939Y186572D01*
X78865Y186197D01*
X78979Y185621D01*
X79306Y185132D01*
X79794Y184806D01*
X80370Y184692D01*
X80946Y184806D01*
X81045Y184872D01*
X81495Y184572D01*
X81446Y184327D01*
X81561Y183751D01*
X81887Y183262D01*
X82376Y182936D01*
X82952Y182822D01*
X83528Y182936D01*
X84016Y183262D01*
X84233Y183587D01*
X84735Y183642D01*
X84812Y183621D01*
X84936Y183436D01*
X85424Y183109D01*
X86000Y182995D01*
X86576Y183109D01*
X87064Y183436D01*
X87391Y183924D01*
X87505Y184500D01*
X87391Y185076D01*
X87064Y185564D01*
X86576Y185891D01*
X86000Y186005D01*
X85424Y185891D01*
X84936Y185564D01*
X84719Y185240D01*
X84217Y185185D01*
X84140Y185205D01*
X84016Y185391D01*
X83528Y185717D01*
X82952Y185832D01*
X82376Y185717D01*
X82277Y185651D01*
X81827Y185952D01*
X81875Y186197D01*
X81761Y186773D01*
X81435Y187261D01*
X80946Y187588D01*
X80370Y187702D01*
X80315Y187691D01*
X80256Y187724D01*
X79931Y188125D01*
X80005Y188500D01*
X79891Y189076D01*
X79564Y189564D01*
X79076Y189891D01*
X78500Y190005D01*
X77956Y189897D01*
X77819Y190003D01*
X77696Y190133D01*
X77593Y190271D01*
X77703Y190823D01*
X77588Y191399D01*
X77262Y191887D01*
X77203Y191927D01*
X77064Y192436D01*
X77129Y192532D01*
X77391Y192924D01*
X77505Y193500D01*
X77391Y194076D01*
X77064Y194564D01*
X76576Y194891D01*
X76000Y195005D01*
D02*
G37*
G36*
X135000Y185505D02*
X134424Y185391D01*
X133936Y185064D01*
X133609Y184576D01*
X133495Y184000D01*
X133609Y183424D01*
X133936Y182936D01*
X134424Y182609D01*
X135000Y182495D01*
X135576Y182609D01*
X136064Y182936D01*
X136391Y183424D01*
X136505Y184000D01*
X136391Y184576D01*
X136064Y185064D01*
X135576Y185391D01*
X135000Y185505D01*
D02*
G37*
G36*
X167072Y184933D02*
X166496Y184818D01*
X166008Y184492D01*
X165682Y184004D01*
X165567Y183428D01*
X165682Y182852D01*
X166008Y182363D01*
X166496Y182037D01*
X167072Y181922D01*
X167648Y182037D01*
X168137Y182363D01*
X168463Y182852D01*
X168578Y183428D01*
X168463Y184004D01*
X168137Y184492D01*
X167648Y184818D01*
X167072Y184933D01*
D02*
G37*
G36*
X172000Y182005D02*
X171424Y181891D01*
X170936Y181564D01*
X170609Y181076D01*
X170495Y180500D01*
X170609Y179924D01*
X170936Y179436D01*
X171424Y179109D01*
X172000Y178995D01*
X172576Y179109D01*
X173064Y179436D01*
X173391Y179924D01*
X173505Y180500D01*
X173391Y181076D01*
X173064Y181564D01*
X172576Y181891D01*
X172000Y182005D01*
D02*
G37*
G36*
X168000Y181505D02*
X167424Y181391D01*
X166936Y181064D01*
X166609Y180576D01*
X166495Y180000D01*
X166609Y179424D01*
X166936Y178936D01*
X167424Y178609D01*
X168000Y178495D01*
X168576Y178609D01*
X169064Y178936D01*
X169391Y179424D01*
X169505Y180000D01*
X169391Y180576D01*
X169064Y181064D01*
X168576Y181391D01*
X168000Y181505D01*
D02*
G37*
G36*
X92113Y180562D02*
X91537Y180447D01*
X91048Y180121D01*
X90722Y179632D01*
X90608Y179056D01*
X90722Y178480D01*
X91048Y177992D01*
X91537Y177666D01*
X92113Y177551D01*
X92689Y177666D01*
X93177Y177992D01*
X93503Y178480D01*
X93618Y179056D01*
X93503Y179632D01*
X93177Y180121D01*
X92689Y180447D01*
X92113Y180562D01*
D02*
G37*
G36*
X96000Y183005D02*
X95424Y182891D01*
X94936Y182564D01*
X94609Y182076D01*
X94495Y181500D01*
X94609Y180924D01*
X94936Y180436D01*
X95424Y180109D01*
X96000Y179995D01*
X96332Y180061D01*
X96632Y179611D01*
X96609Y179576D01*
X96495Y179000D01*
X96609Y178424D01*
X96936Y177936D01*
X97424Y177609D01*
X98000Y177495D01*
X98576Y177609D01*
X99064Y177936D01*
X99391Y178424D01*
X99505Y179000D01*
X99391Y179576D01*
X99064Y180064D01*
X98576Y180391D01*
X98000Y180505D01*
X97668Y180439D01*
X97368Y180889D01*
X97391Y180924D01*
X97505Y181500D01*
X97391Y182076D01*
X97064Y182564D01*
X96576Y182891D01*
X96000Y183005D01*
D02*
G37*
G36*
X47437Y186491D02*
X46861Y186376D01*
X46373Y186050D01*
X46046Y185561D01*
X45932Y184985D01*
X46046Y184409D01*
X46373Y183921D01*
X46861Y183595D01*
X47094Y183548D01*
X47499Y183021D01*
X47495Y183000D01*
X47502Y182963D01*
X47138Y182446D01*
X46861Y182391D01*
X46373Y182064D01*
X46046Y181576D01*
X45932Y181000D01*
X46046Y180424D01*
X46373Y179936D01*
X46861Y179609D01*
X46992Y179583D01*
X47181Y179504D01*
X47067Y178928D01*
X47181Y178352D01*
X47507Y177864D01*
X47996Y177538D01*
X48572Y177423D01*
X49148Y177538D01*
X49636Y177864D01*
X49962Y178352D01*
X50077Y178928D01*
X49962Y179504D01*
X49636Y179993D01*
X49148Y180319D01*
X49017Y180345D01*
X48828Y180424D01*
X48942Y181000D01*
X48935Y181037D01*
X49299Y181554D01*
X49576Y181609D01*
X50064Y181936D01*
X50391Y182424D01*
X50505Y183000D01*
X50391Y183576D01*
X50064Y184064D01*
X49576Y184391D01*
X49343Y184437D01*
X48938Y184964D01*
X48942Y184985D01*
X48828Y185561D01*
X48501Y186050D01*
X48013Y186376D01*
X47437Y186491D01*
D02*
G37*
G36*
X170500Y174505D02*
X169924Y174391D01*
X169436Y174064D01*
X169109Y173576D01*
X168995Y173000D01*
X169109Y172424D01*
X169436Y171936D01*
X169924Y171609D01*
X170500Y171495D01*
X171005Y171595D01*
X171137Y171569D01*
X171532Y171313D01*
X171609Y170924D01*
X171936Y170436D01*
X172424Y170109D01*
X173000Y169995D01*
X173576Y170109D01*
X174064Y170436D01*
X174391Y170924D01*
X174505Y171500D01*
X174391Y172076D01*
X174064Y172564D01*
X173576Y172891D01*
X173000Y173005D01*
X172495Y172905D01*
X172363Y172931D01*
X171968Y173187D01*
X171891Y173576D01*
X171564Y174064D01*
X171076Y174391D01*
X170500Y174505D01*
D02*
G37*
G36*
X81500Y168505D02*
X80924Y168391D01*
X80436Y168064D01*
X80109Y167576D01*
X79995Y167000D01*
X80109Y166424D01*
X80436Y165936D01*
X80924Y165609D01*
X81500Y165495D01*
X82076Y165609D01*
X82564Y165936D01*
X82891Y166424D01*
X83005Y167000D01*
X82891Y167576D01*
X82564Y168064D01*
X82076Y168391D01*
X81500Y168505D01*
D02*
G37*
G36*
X78000D02*
X77424Y168391D01*
X76936Y168064D01*
X76609Y167576D01*
X76495Y167000D01*
X76609Y166424D01*
X76936Y165936D01*
X77424Y165609D01*
X78000Y165495D01*
X78576Y165609D01*
X79064Y165936D01*
X79391Y166424D01*
X79505Y167000D01*
X79391Y167576D01*
X79064Y168064D01*
X78576Y168391D01*
X78000Y168505D01*
D02*
G37*
G36*
X74000D02*
X73424Y168391D01*
X72936Y168064D01*
X72609Y167576D01*
X72495Y167000D01*
X72609Y166424D01*
X72936Y165936D01*
X73424Y165609D01*
X74000Y165495D01*
X74576Y165609D01*
X75064Y165936D01*
X75391Y166424D01*
X75505Y167000D01*
X75391Y167576D01*
X75064Y168064D01*
X74576Y168391D01*
X74000Y168505D01*
D02*
G37*
G36*
X105000Y167919D02*
X104424Y167804D01*
X103936Y167478D01*
X103609Y166989D01*
X103495Y166413D01*
X103609Y165837D01*
X103936Y165349D01*
X104424Y165023D01*
X105000Y164908D01*
X105576Y165023D01*
X106064Y165349D01*
X106391Y165837D01*
X106505Y166413D01*
X106391Y166989D01*
X106064Y167478D01*
X105576Y167804D01*
X105000Y167919D01*
D02*
G37*
G36*
X139370Y166427D02*
X138583Y166324D01*
X137849Y166020D01*
X137220Y165536D01*
X136736Y164907D01*
X136432Y164173D01*
X136329Y163386D01*
X136432Y162599D01*
X136736Y161865D01*
X137220Y161235D01*
X137849Y160752D01*
X138583Y160448D01*
X139370Y160345D01*
X140157Y160448D01*
X140891Y160752D01*
X141521Y161235D01*
X142004Y161865D01*
X142308Y162599D01*
X142411Y163386D01*
X142308Y164173D01*
X142004Y164907D01*
X141521Y165536D01*
X140891Y166020D01*
X140157Y166324D01*
X139370Y166427D01*
D02*
G37*
G36*
X131000Y149505D02*
X130424Y149391D01*
X129936Y149064D01*
X129564D01*
X129076Y149391D01*
X128500Y149505D01*
X127924Y149391D01*
X127436Y149064D01*
X127109Y148576D01*
X126995Y148000D01*
X127109Y147424D01*
X127436Y146936D01*
X127924Y146609D01*
X128500Y146495D01*
X129076Y146609D01*
X129564Y146936D01*
X129936D01*
X130424Y146609D01*
X131000Y146495D01*
X131576Y146609D01*
X132064Y146936D01*
X132391Y147424D01*
X132505Y148000D01*
X132391Y148576D01*
X132064Y149064D01*
X131576Y149391D01*
X131000Y149505D01*
D02*
G37*
G36*
X117000D02*
X116424Y149391D01*
X115936Y149064D01*
X115564D01*
X115076Y149391D01*
X114500Y149505D01*
X113924Y149391D01*
X113436Y149064D01*
X113301Y148863D01*
X112699D01*
X112564Y149064D01*
X112076Y149391D01*
X111500Y149505D01*
X110924Y149391D01*
X110436Y149064D01*
X110064D01*
X109576Y149391D01*
X109000Y149505D01*
X108424Y149391D01*
X107936Y149064D01*
X107609Y148576D01*
X107495Y148000D01*
X107609Y147424D01*
X107936Y146936D01*
X108424Y146609D01*
X109000Y146495D01*
X109576Y146609D01*
X109996Y146890D01*
X110274Y146813D01*
X110496Y146682D01*
Y140491D01*
X109290Y139285D01*
X109073Y138960D01*
X108996Y138576D01*
Y112000D01*
X109073Y111616D01*
X109290Y111290D01*
X110790Y109790D01*
X111116Y109573D01*
X111500Y109496D01*
X121395D01*
X121436Y109436D01*
X121924Y109109D01*
X122500Y108995D01*
X123076Y109109D01*
X123496Y109390D01*
X123774Y109313D01*
X123996Y109182D01*
Y88013D01*
X122908Y86925D01*
X122435Y87036D01*
X122375Y87099D01*
X122064Y87564D01*
X121576Y87891D01*
X121000Y88005D01*
X120424Y87891D01*
X119936Y87564D01*
X119609Y87076D01*
X119495Y86500D01*
X119609Y85924D01*
X119936Y85436D01*
X120064Y85350D01*
Y84749D01*
X119938Y84664D01*
X119612Y84176D01*
X119497Y83600D01*
X119612Y83024D01*
X119938Y82536D01*
X120426Y82209D01*
X121002Y82095D01*
X121578Y82209D01*
X122067Y82536D01*
X122393Y83024D01*
X122508Y83600D01*
X122493Y83672D01*
X125710Y86888D01*
X125927Y87214D01*
X126004Y87598D01*
Y111000D01*
X125927Y111384D01*
X125710Y111710D01*
X121519Y115900D01*
Y117310D01*
X122019Y117342D01*
X122062Y117016D01*
X122366Y116282D01*
X122849Y115653D01*
X123479Y115169D01*
X124213Y114865D01*
X125000Y114762D01*
X125787Y114865D01*
X126521Y115169D01*
X127151Y115653D01*
X127634Y116282D01*
X127938Y117016D01*
X128041Y117803D01*
Y125677D01*
X127938Y126464D01*
X127634Y127198D01*
X127151Y127828D01*
X126521Y128311D01*
X125787Y128615D01*
X125000Y128718D01*
X124213Y128615D01*
X123479Y128311D01*
X122849Y127828D01*
X122366Y127198D01*
X122122Y126608D01*
X121730Y126391D01*
X121543Y126350D01*
X121519Y126362D01*
Y146098D01*
X121576Y146109D01*
X122064Y146436D01*
X122391Y146924D01*
X122505Y147500D01*
X122391Y148076D01*
X122064Y148564D01*
X121576Y148891D01*
X121000Y149005D01*
X120424Y148891D01*
X119936Y148564D01*
X119609Y148076D01*
X119495Y147500D01*
X119578Y147081D01*
X119512Y146749D01*
Y126362D01*
X119512Y126362D01*
Y115484D01*
X119589Y115100D01*
X119806Y114775D01*
X122138Y112443D01*
X121973Y111900D01*
X121924Y111891D01*
X121436Y111564D01*
X121395Y111504D01*
X111916D01*
X111003Y112416D01*
Y138160D01*
X112210Y139366D01*
X112427Y139692D01*
X112504Y140076D01*
Y146895D01*
X112564Y146936D01*
X112699Y147137D01*
X113301D01*
X113436Y146936D01*
X113924Y146609D01*
X114500Y146495D01*
X115076Y146609D01*
X115564Y146936D01*
X115936D01*
X116424Y146609D01*
X117000Y146495D01*
X117576Y146609D01*
X118064Y146936D01*
X118391Y147424D01*
X118505Y148000D01*
X118391Y148576D01*
X118064Y149064D01*
X117576Y149391D01*
X117000Y149505D01*
D02*
G37*
G36*
X161787Y150534D02*
X160213D01*
X159169Y150397D01*
X158195Y149994D01*
X157360Y149353D01*
X156719Y148517D01*
X156316Y147544D01*
X156178Y146500D01*
X156316Y145456D01*
X156719Y144483D01*
X157360Y143648D01*
X158195Y143006D01*
X159169Y142603D01*
X160213Y142466D01*
X161787D01*
X162831Y142603D01*
X163804Y143006D01*
X164640Y143648D01*
X165281Y144483D01*
X165684Y145456D01*
X165822Y146500D01*
X165684Y147544D01*
X165281Y148517D01*
X164640Y149353D01*
X163804Y149994D01*
X162831Y150397D01*
X161787Y150534D01*
D02*
G37*
G36*
X145500Y139505D02*
X144924Y139391D01*
X144436Y139064D01*
X144109Y138576D01*
X143995Y138000D01*
X144109Y137424D01*
X144436Y136936D01*
X144924Y136609D01*
X145500Y136495D01*
X146076Y136609D01*
X146564Y136936D01*
X146891Y137424D01*
X147005Y138000D01*
X146891Y138576D01*
X146564Y139064D01*
X146076Y139391D01*
X145500Y139505D01*
D02*
G37*
G36*
X177500Y133505D02*
X176924Y133391D01*
X176436Y133064D01*
X176109Y132576D01*
X175995Y132000D01*
X176109Y131424D01*
X176436Y130936D01*
X176924Y130609D01*
X177500Y130495D01*
X178076Y130609D01*
X178564Y130936D01*
X178891Y131424D01*
X179005Y132000D01*
X178891Y132576D01*
X178564Y133064D01*
X178076Y133391D01*
X177500Y133505D01*
D02*
G37*
G36*
X146000Y128689D02*
Y122740D01*
X148193D01*
Y125677D01*
X148084Y126504D01*
X147765Y127273D01*
X147257Y127935D01*
X146596Y128442D01*
X146000Y128689D01*
D02*
G37*
G36*
X144000D02*
X143404Y128442D01*
X142743Y127935D01*
X142235Y127273D01*
X141916Y126504D01*
X141807Y125677D01*
Y122740D01*
X144000D01*
Y128689D01*
D02*
G37*
G36*
X148193Y120740D02*
X146000D01*
Y114791D01*
X146596Y115038D01*
X147257Y115546D01*
X147765Y116207D01*
X148084Y116977D01*
X148193Y117803D01*
Y120740D01*
D02*
G37*
G36*
X144000D02*
X141807D01*
Y117803D01*
X141916Y116977D01*
X142235Y116207D01*
X142743Y115546D01*
X143404Y115038D01*
X144000Y114791D01*
Y120740D01*
D02*
G37*
G36*
X135000Y128718D02*
X134213Y128615D01*
X133479Y128311D01*
X132849Y127828D01*
X132366Y127198D01*
X132062Y126464D01*
X131959Y125677D01*
Y117803D01*
X132062Y117016D01*
X132366Y116282D01*
X132849Y115653D01*
X133479Y115169D01*
X134213Y114865D01*
X135000Y114762D01*
X135787Y114865D01*
X136521Y115169D01*
X137151Y115653D01*
X137634Y116282D01*
X137938Y117016D01*
X138041Y117803D01*
Y125677D01*
X137938Y126464D01*
X137634Y127198D01*
X137151Y127828D01*
X136521Y128311D01*
X135787Y128615D01*
X135000Y128718D01*
D02*
G37*
G36*
X115000D02*
X114213Y128615D01*
X113479Y128311D01*
X112849Y127828D01*
X112366Y127198D01*
X112062Y126464D01*
X111959Y125677D01*
Y117803D01*
X112062Y117016D01*
X112366Y116282D01*
X112849Y115653D01*
X113479Y115169D01*
X114213Y114865D01*
X115000Y114762D01*
X115787Y114865D01*
X116521Y115169D01*
X117151Y115653D01*
X117634Y116282D01*
X117938Y117016D01*
X118041Y117803D01*
Y125677D01*
X117938Y126464D01*
X117634Y127198D01*
X117151Y127828D01*
X116521Y128311D01*
X115787Y128615D01*
X115000Y128718D01*
D02*
G37*
G36*
X61500Y136005D02*
X60924Y135891D01*
X60436Y135564D01*
X60109Y135076D01*
X59995Y134500D01*
X60109Y133924D01*
X60436Y133436D01*
X60924Y133109D01*
X61500Y132995D01*
X61572Y133009D01*
X63996Y130584D01*
Y128525D01*
X63479Y128311D01*
X62849Y127828D01*
X62366Y127198D01*
X62062Y126464D01*
X61959Y125677D01*
Y117803D01*
X62062Y117016D01*
X62366Y116282D01*
X62849Y115653D01*
X63479Y115169D01*
X64213Y114865D01*
X65000Y114762D01*
X65787Y114865D01*
X66521Y115169D01*
X67151Y115653D01*
X67634Y116282D01*
X67938Y117016D01*
X68041Y117803D01*
Y125677D01*
X67938Y126464D01*
X67634Y127198D01*
X67151Y127828D01*
X66521Y128311D01*
X66004Y128525D01*
Y131000D01*
X65927Y131384D01*
X65710Y131710D01*
X62991Y134428D01*
X63005Y134500D01*
X62891Y135076D01*
X62564Y135564D01*
X62076Y135891D01*
X61500Y136005D01*
D02*
G37*
G36*
X168500Y110005D02*
X167924Y109891D01*
X167436Y109564D01*
X167109Y109076D01*
X166995Y108500D01*
X167109Y107924D01*
X167436Y107436D01*
X167924Y107109D01*
X168500Y106995D01*
X169076Y107109D01*
X169564Y107436D01*
X169891Y107924D01*
X170005Y108500D01*
X169891Y109076D01*
X169564Y109564D01*
X169076Y109891D01*
X168500Y110005D01*
D02*
G37*
G36*
X165500Y107505D02*
X164924Y107391D01*
X164436Y107064D01*
X164109Y106576D01*
X163995Y106000D01*
X164109Y105424D01*
X164436Y104936D01*
X164924Y104609D01*
X165500Y104495D01*
X166076Y104609D01*
X166564Y104936D01*
X166891Y105424D01*
X167005Y106000D01*
X166891Y106576D01*
X166564Y107064D01*
X166076Y107391D01*
X165500Y107505D01*
D02*
G37*
G36*
X139000D02*
X138424Y107391D01*
X137936Y107064D01*
X137609Y106576D01*
X137495Y106000D01*
X137609Y105424D01*
X137936Y104936D01*
X138424Y104609D01*
X139000Y104495D01*
X139576Y104609D01*
X140064Y104936D01*
X140391Y105424D01*
X140505Y106000D01*
X140391Y106576D01*
X140064Y107064D01*
X139576Y107391D01*
X139000Y107505D01*
D02*
G37*
G36*
X101072Y100005D02*
X100496Y99891D01*
X100007Y99564D01*
X99681Y99076D01*
X99566Y98500D01*
X99681Y97924D01*
X100007Y97436D01*
X100496Y97109D01*
X101072Y96995D01*
X101648Y97109D01*
X102136Y97436D01*
X102462Y97924D01*
X102577Y98500D01*
X102462Y99076D01*
X102136Y99564D01*
X101648Y99891D01*
X101072Y100005D01*
D02*
G37*
G36*
X130000Y98505D02*
X129424Y98391D01*
X128936Y98064D01*
X128609Y97576D01*
X128495Y97000D01*
X128609Y96424D01*
X128936Y95936D01*
X129424Y95609D01*
X130000Y95495D01*
X130576Y95609D01*
X131064Y95936D01*
X131391Y96424D01*
X131505Y97000D01*
X131391Y97576D01*
X131064Y98064D01*
X130576Y98391D01*
X130000Y98505D01*
D02*
G37*
G36*
X97528Y97948D02*
X96952Y97834D01*
X96464Y97507D01*
X96138Y97019D01*
X96023Y96443D01*
X96138Y95867D01*
X96464Y95379D01*
X96952Y95052D01*
X97528Y94938D01*
X98104Y95052D01*
X98593Y95379D01*
X98919Y95867D01*
X99034Y96443D01*
X98919Y97019D01*
X98593Y97507D01*
X98104Y97834D01*
X97528Y97948D01*
D02*
G37*
G36*
X93000Y93505D02*
X92424Y93391D01*
X91936Y93064D01*
X91609Y92576D01*
X91495Y92000D01*
X91609Y91424D01*
X91936Y90936D01*
X92424Y90609D01*
X93000Y90495D01*
X93576Y90609D01*
X94064Y90936D01*
X94391Y91424D01*
X94505Y92000D01*
X94391Y92576D01*
X94064Y93064D01*
X93576Y93391D01*
X93000Y93505D01*
D02*
G37*
G36*
X131928Y86578D02*
X131352Y86463D01*
X130863Y86137D01*
X130537Y85648D01*
X130422Y85072D01*
X130537Y84496D01*
X130863Y84008D01*
X131352Y83682D01*
X131928Y83567D01*
X132504Y83682D01*
X132992Y84008D01*
X133318Y84496D01*
X133433Y85072D01*
X133318Y85648D01*
X132992Y86137D01*
X132504Y86463D01*
X131928Y86578D01*
D02*
G37*
G36*
X128000Y86505D02*
X127424Y86391D01*
X126936Y86064D01*
X126609Y85576D01*
X126495Y85000D01*
X126609Y84424D01*
X126936Y83936D01*
X127424Y83609D01*
X128000Y83495D01*
X128576Y83609D01*
X129064Y83936D01*
X129391Y84424D01*
X129505Y85000D01*
X129391Y85576D01*
X129064Y86064D01*
X128576Y86391D01*
X128000Y86505D01*
D02*
G37*
G36*
X138583Y82608D02*
X138007Y82493D01*
X137518Y82167D01*
X137192Y81678D01*
X137077Y81102D01*
X137192Y80526D01*
X137518Y80038D01*
X138007Y79712D01*
X138583Y79597D01*
X139159Y79712D01*
X139647Y80038D01*
X139973Y80526D01*
X140088Y81102D01*
X139973Y81678D01*
X139647Y82167D01*
X139159Y82493D01*
X138583Y82608D01*
D02*
G37*
G36*
X110000Y62505D02*
X109424Y62391D01*
X108936Y62064D01*
X108609Y61576D01*
X108495Y61000D01*
X108609Y60424D01*
X108936Y59936D01*
X109424Y59609D01*
X110000Y59495D01*
X110576Y59609D01*
X111064Y59936D01*
X111391Y60424D01*
X111505Y61000D01*
X111391Y61576D01*
X111064Y62064D01*
X110576Y62391D01*
X110000Y62505D01*
D02*
G37*
G36*
X190000Y49619D02*
X188853Y49505D01*
X187750Y49171D01*
X186734Y48628D01*
X185843Y47897D01*
X185112Y47006D01*
X184569Y45990D01*
X184235Y44887D01*
X184122Y43740D01*
X184235Y42593D01*
X184569Y41491D01*
X185112Y40474D01*
X185843Y39584D01*
X186734Y38853D01*
X187750Y38309D01*
X188853Y37975D01*
X190000Y37862D01*
X191147Y37975D01*
X192250Y38309D01*
X193266Y38853D01*
X194157Y39584D01*
X194888Y40474D01*
X195431Y41491D01*
X195765Y42593D01*
X195878Y43740D01*
X195765Y44887D01*
X195431Y45990D01*
X194888Y47006D01*
X194157Y47897D01*
X193266Y48628D01*
X192250Y49171D01*
X191147Y49505D01*
X190000Y49619D01*
D02*
G37*
G36*
X101000Y60567D02*
X101000Y60567D01*
X37500D01*
X36318Y60411D01*
X35217Y59955D01*
X34271Y59229D01*
X33545Y58283D01*
X33089Y57182D01*
X32933Y56000D01*
X33089Y54818D01*
X33545Y53717D01*
X34271Y52771D01*
X35217Y52045D01*
X36318Y51589D01*
X37500Y51433D01*
X99108D01*
X110433Y40108D01*
Y37905D01*
X110589Y36724D01*
X111045Y35622D01*
X111771Y34676D01*
X111959Y34532D01*
Y31803D01*
X112062Y31016D01*
X112366Y30283D01*
X112849Y29653D01*
X113479Y29169D01*
X114213Y28865D01*
X115000Y28762D01*
X115787Y28865D01*
X116521Y29169D01*
X117151Y29653D01*
X117634Y30283D01*
X117938Y31016D01*
X118041Y31803D01*
Y34532D01*
X118229Y34676D01*
X118955Y35622D01*
X119411Y36724D01*
X119567Y37905D01*
Y42000D01*
X119567Y42000D01*
X119411Y43182D01*
X118955Y44283D01*
X118229Y45229D01*
X118229Y45229D01*
X104229Y59229D01*
X103283Y59955D01*
X102182Y60411D01*
X101000Y60567D01*
D02*
G37*
G36*
X105000Y42718D02*
X104213Y42615D01*
X103479Y42311D01*
X102849Y41828D01*
X102366Y41198D01*
X102062Y40464D01*
X101959Y39677D01*
Y31803D01*
X102062Y31016D01*
X102366Y30283D01*
X102849Y29653D01*
X103479Y29169D01*
X104213Y28865D01*
X105000Y28762D01*
X105787Y28865D01*
X106521Y29169D01*
X107151Y29653D01*
X107634Y30283D01*
X107938Y31016D01*
X108041Y31803D01*
Y39677D01*
X107938Y40464D01*
X107634Y41198D01*
X107151Y41828D01*
X106521Y42311D01*
X105787Y42615D01*
X105000Y42718D01*
D02*
G37*
G36*
X95000D02*
X94213Y42615D01*
X93479Y42311D01*
X92849Y41828D01*
X92366Y41198D01*
X92062Y40464D01*
X91959Y39677D01*
Y31803D01*
X92062Y31016D01*
X92366Y30283D01*
X92849Y29653D01*
X93479Y29169D01*
X94213Y28865D01*
X95000Y28762D01*
X95787Y28865D01*
X96521Y29169D01*
X97151Y29653D01*
X97634Y30283D01*
X97938Y31016D01*
X98041Y31803D01*
Y39677D01*
X97938Y40464D01*
X97634Y41198D01*
X97151Y41828D01*
X96521Y42311D01*
X95787Y42615D01*
X95000Y42718D01*
D02*
G37*
G36*
X85000D02*
X84213Y42615D01*
X83479Y42311D01*
X82849Y41828D01*
X82366Y41198D01*
X82062Y40464D01*
X81959Y39677D01*
Y31803D01*
X82062Y31016D01*
X82366Y30283D01*
X82849Y29653D01*
X83479Y29169D01*
X84213Y28865D01*
X85000Y28762D01*
X85787Y28865D01*
X86521Y29169D01*
X87151Y29653D01*
X87634Y30283D01*
X87938Y31016D01*
X88041Y31803D01*
Y39677D01*
X87938Y40464D01*
X87634Y41198D01*
X87151Y41828D01*
X86521Y42311D01*
X85787Y42615D01*
X85000Y42718D01*
D02*
G37*
G36*
X75000D02*
X74213Y42615D01*
X73479Y42311D01*
X72849Y41828D01*
X72366Y41198D01*
X72062Y40464D01*
X71959Y39677D01*
Y31803D01*
X72062Y31016D01*
X72366Y30283D01*
X72849Y29653D01*
X73479Y29169D01*
X74213Y28865D01*
X75000Y28762D01*
X75787Y28865D01*
X76521Y29169D01*
X77151Y29653D01*
X77634Y30283D01*
X77938Y31016D01*
X78041Y31803D01*
Y39677D01*
X77938Y40464D01*
X77634Y41198D01*
X77151Y41828D01*
X76521Y42311D01*
X75787Y42615D01*
X75000Y42718D01*
D02*
G37*
G36*
X65000D02*
X64213Y42615D01*
X63479Y42311D01*
X62849Y41828D01*
X62366Y41198D01*
X62062Y40464D01*
X61959Y39677D01*
Y31803D01*
X62062Y31016D01*
X62366Y30283D01*
X62849Y29653D01*
X63479Y29169D01*
X64213Y28865D01*
X65000Y28762D01*
X65787Y28865D01*
X66521Y29169D01*
X67151Y29653D01*
X67634Y30283D01*
X67938Y31016D01*
X68041Y31803D01*
Y39677D01*
X67938Y40464D01*
X67634Y41198D01*
X67151Y41828D01*
X66521Y42311D01*
X65787Y42615D01*
X65000Y42718D01*
D02*
G37*
G36*
X57097Y15063D02*
X56521Y14948D01*
X56237Y14759D01*
X55802Y14510D01*
X55313Y14837D01*
X54738Y14951D01*
X54162Y14837D01*
X53673Y14510D01*
X53347Y14022D01*
X53232Y13446D01*
X53347Y12870D01*
X53673Y12382D01*
X54162Y12055D01*
X54738Y11941D01*
X55313Y12055D01*
X55802Y12382D01*
X56340Y12287D01*
X56521Y12167D01*
X57097Y12052D01*
X57673Y12167D01*
X58161Y12493D01*
X58488Y12981D01*
X58602Y13557D01*
X58488Y14134D01*
X58161Y14622D01*
X57673Y14948D01*
X57097Y15063D01*
D02*
G37*
G36*
X119500Y13505D02*
X118924Y13391D01*
X118436Y13064D01*
X118109Y12576D01*
X117995Y12000D01*
X118109Y11424D01*
X118436Y10936D01*
X118924Y10609D01*
X119500Y10495D01*
X120076Y10609D01*
X120564Y10936D01*
X120891Y11424D01*
X121005Y12000D01*
X120891Y12576D01*
X120564Y13064D01*
X120076Y13391D01*
X119500Y13505D01*
D02*
G37*
G36*
X106000D02*
X105424Y13391D01*
X104936Y13064D01*
X104609Y12576D01*
X104495Y12000D01*
X104609Y11424D01*
X104936Y10936D01*
X105424Y10609D01*
X106000Y10495D01*
X106576Y10609D01*
X107064Y10936D01*
X107391Y11424D01*
X107505Y12000D01*
X107391Y12576D01*
X107064Y13064D01*
X106576Y13391D01*
X106000Y13505D01*
D02*
G37*
G36*
X102000D02*
X101424Y13391D01*
X100936Y13064D01*
X100609Y12576D01*
X100495Y12000D01*
X100609Y11424D01*
X100936Y10936D01*
X101424Y10609D01*
X102000Y10495D01*
X102576Y10609D01*
X103064Y10936D01*
X103391Y11424D01*
X103505Y12000D01*
X103391Y12576D01*
X103064Y13064D01*
X102576Y13391D01*
X102000Y13505D01*
D02*
G37*
G36*
X43701Y12290D02*
X43016Y12200D01*
X42379Y11936D01*
X41831Y11515D01*
X41411Y10968D01*
X41147Y10330D01*
X41056Y9646D01*
Y9193D01*
X40556Y9024D01*
X40325Y9325D01*
X39791Y9735D01*
X39168Y9993D01*
X38500Y10081D01*
X37832Y9993D01*
X37209Y9735D01*
X36675Y9325D01*
X36265Y8791D01*
X36007Y8168D01*
X35919Y7500D01*
X36007Y6832D01*
X36265Y6209D01*
X36675Y5675D01*
X37209Y5265D01*
X37832Y5007D01*
X38500Y4919D01*
X39168Y5007D01*
X39791Y5265D01*
X40325Y5675D01*
X40664Y6117D01*
X40775Y6137D01*
X40997Y6122D01*
X41211Y6051D01*
X41411Y5568D01*
X41831Y5020D01*
X42379Y4600D01*
X43016Y4336D01*
X43701Y4245D01*
X44385Y4336D01*
X45023Y4600D01*
X45571Y5020D01*
X45991Y5568D01*
X46255Y6205D01*
X46345Y6890D01*
Y9646D01*
X46255Y10330D01*
X45991Y10968D01*
X45571Y11515D01*
X45023Y11936D01*
X44385Y12200D01*
X43701Y12290D01*
D02*
G37*
G36*
X124500Y11505D02*
X123924Y11391D01*
X123436Y11064D01*
X123109Y10576D01*
X122995Y10000D01*
X123109Y9424D01*
X123436Y8936D01*
X123924Y8609D01*
X124500Y8495D01*
X125076Y8609D01*
X125564Y8936D01*
X125891Y9424D01*
X126005Y10000D01*
X125891Y10576D01*
X125564Y11064D01*
X125076Y11391D01*
X124500Y11505D01*
D02*
G37*
G36*
X186614Y21161D02*
X185174Y21019D01*
X183789Y20599D01*
X182513Y19917D01*
X181395Y18999D01*
X180477Y17880D01*
X179795Y16604D01*
X179374Y15220D01*
X179233Y13780D01*
X179374Y12339D01*
X179795Y10955D01*
X180477Y9679D01*
X181395Y8560D01*
X182513Y7642D01*
X183789Y6960D01*
X185174Y6540D01*
X186614Y6398D01*
X188054Y6540D01*
X189439Y6960D01*
X190715Y7642D01*
X191834Y8560D01*
X192752Y9679D01*
X193434Y10955D01*
X193854Y12339D01*
X193996Y13780D01*
X193854Y15220D01*
X193434Y16604D01*
X192752Y17880D01*
X191834Y18999D01*
X190715Y19917D01*
X189439Y20599D01*
X188054Y21019D01*
X186614Y21161D01*
D02*
G37*
G36*
X69685Y12290D02*
X69001Y12200D01*
X68363Y11936D01*
X67815Y11515D01*
X67395Y10968D01*
X67131Y10330D01*
X67041Y9646D01*
Y6890D01*
X67131Y6205D01*
X67395Y5568D01*
X67815Y5020D01*
X68363Y4600D01*
X69001Y4336D01*
X69685Y4245D01*
X70369Y4336D01*
X71007Y4600D01*
X71555Y5020D01*
X71975Y5568D01*
X72239Y6205D01*
X72329Y6890D01*
Y9646D01*
X72239Y10330D01*
X71975Y10968D01*
X71555Y11515D01*
X71007Y11936D01*
X70369Y12200D01*
X69685Y12290D01*
D02*
G37*
G36*
X6512Y300299D02*
Y297142D01*
X10353D01*
X10342Y297225D01*
X9924Y298234D01*
X9259Y299101D01*
X8392Y299766D01*
X7383Y300184D01*
X6512Y300299D01*
D02*
G37*
G36*
X10353Y295142D02*
X6512D01*
Y291984D01*
X7383Y292099D01*
X8392Y292517D01*
X9259Y293182D01*
X9924Y294049D01*
X10342Y295058D01*
X10353Y295142D01*
D02*
G37*
G36*
X12500Y204505D02*
X11924Y204391D01*
X11436Y204064D01*
X11109Y203576D01*
X10995Y203000D01*
X11109Y202424D01*
X11436Y201936D01*
X11924Y201609D01*
X12500Y201495D01*
X13076Y201609D01*
X13564Y201936D01*
X13891Y202424D01*
X14005Y203000D01*
X13891Y203576D01*
X13564Y204064D01*
X13076Y204391D01*
X12500Y204505D01*
D02*
G37*
G36*
X55000Y310505D02*
X54424Y310391D01*
X53936Y310064D01*
X53609Y309576D01*
X53495Y309000D01*
X53609Y308424D01*
X53936Y307936D01*
X54424Y307609D01*
X55000Y307495D01*
X55576Y307609D01*
X56064Y307936D01*
X56391Y308424D01*
X56505Y309000D01*
X56391Y309576D01*
X56064Y310064D01*
X55576Y310391D01*
X55000Y310505D01*
D02*
G37*
G36*
X62005Y301505D02*
X61429Y301391D01*
X60941Y301064D01*
X60615Y300576D01*
X60500Y300000D01*
X60615Y299424D01*
X60941Y298936D01*
X61429Y298609D01*
X62005Y298495D01*
X62581Y298609D01*
X63070Y298936D01*
X63396Y299424D01*
X63511Y300000D01*
X63396Y300576D01*
X63070Y301064D01*
X62581Y301391D01*
X62005Y301505D01*
D02*
G37*
G36*
X25000Y128718D02*
X24213Y128615D01*
X23479Y128311D01*
X22849Y127828D01*
X22366Y127198D01*
X22062Y126464D01*
X21959Y125677D01*
Y117803D01*
X22062Y117016D01*
X22366Y116282D01*
X22849Y115653D01*
X23479Y115169D01*
X24213Y114865D01*
X25000Y114762D01*
X25787Y114865D01*
X26521Y115169D01*
X27151Y115653D01*
X27634Y116282D01*
X27938Y117016D01*
X28041Y117803D01*
Y125677D01*
X27938Y126464D01*
X27634Y127198D01*
X27151Y127828D01*
X26521Y128311D01*
X25787Y128615D01*
X25000Y128718D01*
D02*
G37*
G36*
X27853Y97933D02*
X27265D01*
X26723Y97708D01*
X26307Y97293D01*
X26083Y96750D01*
Y96163D01*
X26307Y95620D01*
X26723Y95205D01*
X27265Y94980D01*
X27853D01*
X28395Y95205D01*
X28811Y95620D01*
X29035Y96163D01*
Y96750D01*
X28811Y97293D01*
X28395Y97708D01*
X27853Y97933D01*
D02*
G37*
G36*
X4231Y127461D02*
X3643D01*
X3101Y127236D01*
X2685Y126821D01*
X2461Y126278D01*
Y125691D01*
X2685Y125148D01*
X3101Y124733D01*
X3643Y124508D01*
X4231D01*
X4773Y124733D01*
X5189Y125148D01*
X5413Y125691D01*
Y126278D01*
X5189Y126821D01*
X4773Y127236D01*
X4231Y127461D01*
D02*
G37*
G36*
Y123524D02*
X3643D01*
X3101Y123299D01*
X2685Y122883D01*
X2461Y122341D01*
Y121754D01*
X2685Y121211D01*
X3101Y120796D01*
X3643Y120571D01*
X4231D01*
X4773Y120796D01*
X5189Y121211D01*
X5413Y121754D01*
Y122341D01*
X5189Y122883D01*
X4773Y123299D01*
X4231Y123524D01*
D02*
G37*
G36*
Y107776D02*
X3643D01*
X3101Y107551D01*
X2685Y107135D01*
X2461Y106593D01*
Y106006D01*
X2685Y105463D01*
X3101Y105048D01*
X3643Y104823D01*
X4231D01*
X4773Y105048D01*
X5189Y105463D01*
X5413Y106006D01*
Y106593D01*
X5189Y107135D01*
X4773Y107551D01*
X4231Y107776D01*
D02*
G37*
G36*
Y103839D02*
X3643D01*
X3101Y103614D01*
X2685Y103199D01*
X2461Y102656D01*
Y102068D01*
X2685Y101526D01*
X3101Y101111D01*
X3643Y100886D01*
X4231D01*
X4773Y101111D01*
X5189Y101526D01*
X5413Y102068D01*
Y102656D01*
X5189Y103199D01*
X4773Y103614D01*
X4231Y103839D01*
D02*
G37*
G36*
Y99902D02*
X3643D01*
X3101Y99677D01*
X2685Y99261D01*
X2461Y98719D01*
Y98132D01*
X2685Y97589D01*
X3101Y97174D01*
X3643Y96949D01*
X4231D01*
X4773Y97174D01*
X5189Y97589D01*
X5413Y98132D01*
Y98719D01*
X5189Y99261D01*
X4773Y99677D01*
X4231Y99902D01*
D02*
G37*
G36*
Y95965D02*
X3643D01*
X3101Y95740D01*
X2685Y95324D01*
X2461Y94782D01*
Y94195D01*
X2685Y93652D01*
X3101Y93237D01*
X3643Y93012D01*
X4231D01*
X4773Y93237D01*
X5189Y93652D01*
X5413Y94195D01*
Y94782D01*
X5189Y95324D01*
X4773Y95740D01*
X4231Y95965D01*
D02*
G37*
G36*
Y92027D02*
X3643D01*
X3101Y91803D01*
X2685Y91387D01*
X2461Y90845D01*
Y90258D01*
X2685Y89715D01*
X3101Y89300D01*
X3643Y89075D01*
X4231D01*
X4773Y89300D01*
X5189Y89715D01*
X5413Y90258D01*
Y90845D01*
X5189Y91387D01*
X4773Y91803D01*
X4231Y92027D01*
D02*
G37*
G36*
Y88090D02*
X3643D01*
X3101Y87866D01*
X2685Y87450D01*
X2461Y86908D01*
Y86321D01*
X2685Y85778D01*
X3101Y85363D01*
X3643Y85138D01*
X4231D01*
X4773Y85363D01*
X5189Y85778D01*
X5413Y86321D01*
Y86908D01*
X5189Y87450D01*
X4773Y87866D01*
X4231Y88090D01*
D02*
G37*
G36*
Y84153D02*
X3643D01*
X3101Y83929D01*
X2685Y83513D01*
X2461Y82971D01*
Y82384D01*
X2685Y81841D01*
X3101Y81426D01*
X3643Y81201D01*
X4231D01*
X4773Y81426D01*
X5189Y81841D01*
X5413Y82384D01*
Y82971D01*
X5189Y83513D01*
X4773Y83929D01*
X4231Y84153D01*
D02*
G37*
G36*
Y80216D02*
X3643D01*
X3101Y79992D01*
X2685Y79576D01*
X2461Y79034D01*
Y78447D01*
X2685Y77904D01*
X3101Y77489D01*
X3643Y77264D01*
X4231D01*
X4773Y77489D01*
X5189Y77904D01*
X5413Y78447D01*
Y79034D01*
X5189Y79576D01*
X4773Y79992D01*
X4231Y80216D01*
D02*
G37*
G36*
Y76279D02*
X3643D01*
X3101Y76055D01*
X2685Y75639D01*
X2461Y75097D01*
Y74510D01*
X2685Y73967D01*
X3101Y73551D01*
X3643Y73327D01*
X4231D01*
X4773Y73551D01*
X5189Y73967D01*
X5413Y74510D01*
Y75097D01*
X5189Y75639D01*
X4773Y76055D01*
X4231Y76279D01*
D02*
G37*
G36*
Y72342D02*
X3643D01*
X3101Y72118D01*
X2685Y71702D01*
X2461Y71160D01*
Y70573D01*
X2685Y70030D01*
X3101Y69614D01*
X3643Y69390D01*
X4231D01*
X4773Y69614D01*
X5189Y70030D01*
X5413Y70573D01*
Y71160D01*
X5189Y71702D01*
X4773Y72118D01*
X4231Y72342D01*
D02*
G37*
G36*
Y68405D02*
X3643D01*
X3101Y68181D01*
X2685Y67765D01*
X2461Y67223D01*
Y66636D01*
X2685Y66093D01*
X3101Y65677D01*
X3643Y65453D01*
X4231D01*
X4773Y65677D01*
X5189Y66093D01*
X5413Y66636D01*
Y67223D01*
X5189Y67765D01*
X4773Y68181D01*
X4231Y68405D01*
D02*
G37*
G36*
Y64468D02*
X3643D01*
X3101Y64244D01*
X2685Y63828D01*
X2461Y63286D01*
Y62699D01*
X2685Y62156D01*
X3101Y61740D01*
X3643Y61516D01*
X4231D01*
X4773Y61740D01*
X5189Y62156D01*
X5413Y62699D01*
Y63286D01*
X5189Y63828D01*
X4773Y64244D01*
X4231Y64468D01*
D02*
G37*
G36*
Y60532D02*
X3643D01*
X3101Y60307D01*
X2685Y59891D01*
X2461Y59349D01*
Y58762D01*
X2685Y58219D01*
X3101Y57803D01*
X3643Y57579D01*
X4231D01*
X4773Y57803D01*
X5189Y58219D01*
X5413Y58762D01*
Y59349D01*
X5189Y59891D01*
X4773Y60307D01*
X4231Y60532D01*
D02*
G37*
G36*
X21000Y59990D02*
Y57000D01*
X23990D01*
X23762Y57851D01*
X23301Y58649D01*
X22649Y59301D01*
X21851Y59762D01*
X21000Y59990D01*
D02*
G37*
G36*
X20000D02*
X19149Y59762D01*
X18351Y59301D01*
X17699Y58649D01*
X17239Y57851D01*
X17010Y57000D01*
X20000D01*
Y59990D01*
D02*
G37*
G36*
X4231Y56595D02*
X3643D01*
X3101Y56370D01*
X2685Y55954D01*
X2461Y55412D01*
Y54824D01*
X2685Y54282D01*
X3101Y53866D01*
X3643Y53642D01*
X4231D01*
X4773Y53866D01*
X5189Y54282D01*
X5413Y54824D01*
Y55412D01*
X5189Y55954D01*
X4773Y56370D01*
X4231Y56595D01*
D02*
G37*
G36*
X23990Y56000D02*
X21000D01*
Y53010D01*
X21851Y53238D01*
X22649Y53699D01*
X23301Y54351D01*
X23762Y55149D01*
X23990Y56000D01*
D02*
G37*
G36*
X20000D02*
X17010D01*
X17239Y55149D01*
X17699Y54351D01*
X18351Y53699D01*
X19149Y53238D01*
X20000Y53010D01*
Y56000D01*
D02*
G37*
G36*
X4231Y52658D02*
X3643D01*
X3101Y52433D01*
X2685Y52017D01*
X2461Y51475D01*
Y50887D01*
X2685Y50345D01*
X3101Y49929D01*
X3643Y49705D01*
X4231D01*
X4773Y49929D01*
X5189Y50345D01*
X5413Y50887D01*
Y50887D01*
Y51475D01*
X5189Y52017D01*
X4773Y52433D01*
X4231Y52658D01*
D02*
G37*
G36*
X21947Y50689D02*
X21360D01*
X20817Y50464D01*
X20402Y50049D01*
X20177Y49506D01*
Y48919D01*
X20402Y48376D01*
X20817Y47961D01*
X21360Y47736D01*
X21947D01*
X22490Y47961D01*
X22905Y48376D01*
X23130Y48919D01*
Y49506D01*
X22905Y50049D01*
X22490Y50464D01*
X21947Y50689D01*
D02*
G37*
G36*
X18010D02*
X17423D01*
X16880Y50464D01*
X16465Y50049D01*
X16240Y49506D01*
Y48919D01*
X16465Y48376D01*
X16880Y47961D01*
X17423Y47736D01*
X18010D01*
X18553Y47961D01*
X18968Y48376D01*
X19193Y48919D01*
Y49506D01*
X18968Y50049D01*
X18553Y50464D01*
X18010Y50689D01*
D02*
G37*
G36*
X10576Y49590D02*
X9424D01*
X8294Y49365D01*
X7229Y48924D01*
X6271Y48284D01*
X5456Y47469D01*
X4816Y46511D01*
X4375Y45447D01*
X4150Y44316D01*
Y43164D01*
X4375Y42034D01*
X4728Y41182D01*
X4345Y40799D01*
X4231Y40846D01*
X3643D01*
X3101Y40622D01*
X2685Y40206D01*
X2461Y39664D01*
Y39076D01*
X2685Y38534D01*
X3101Y38118D01*
X3643Y37894D01*
X4231D01*
X4773Y38118D01*
X5189Y38534D01*
X5413Y39076D01*
Y39347D01*
X5913Y39554D01*
X6271Y39196D01*
X7229Y38556D01*
X8294Y38115D01*
X9424Y37890D01*
X10576D01*
X11706Y38115D01*
X12771Y38556D01*
X13729Y39196D01*
X14544Y40011D01*
X15184Y40969D01*
X15625Y42034D01*
X15850Y43164D01*
Y44316D01*
X15625Y45447D01*
X15184Y46511D01*
X14544Y47469D01*
X13729Y48284D01*
X12771Y48924D01*
X11706Y49365D01*
X10576Y49590D01*
D02*
G37*
G36*
X4231Y36909D02*
X3643D01*
X3101Y36685D01*
X2685Y36269D01*
X2461Y35727D01*
Y35139D01*
X2685Y34597D01*
X3101Y34181D01*
X3643Y33957D01*
X4231D01*
X4773Y34181D01*
X5189Y34597D01*
X5413Y35139D01*
Y35727D01*
X5189Y36269D01*
X4773Y36685D01*
X4231Y36909D01*
D02*
G37*
G36*
X14073Y34941D02*
X13486D01*
X12943Y34716D01*
X12528Y34301D01*
X12303Y33758D01*
Y33171D01*
X12528Y32628D01*
X12943Y32213D01*
X13486Y31988D01*
X14073D01*
X14616Y32213D01*
X15031Y32628D01*
X15256Y33171D01*
Y33758D01*
X15031Y34301D01*
X14616Y34716D01*
X14073Y34941D01*
D02*
G37*
G36*
X4231Y32972D02*
X3643D01*
X3101Y32748D01*
X2685Y32332D01*
X2461Y31790D01*
Y31202D01*
X2685Y30660D01*
X3101Y30244D01*
X3643Y30020D01*
X4231D01*
X4773Y30244D01*
X5189Y30660D01*
X5413Y31202D01*
Y31790D01*
X5189Y32332D01*
X4773Y32748D01*
X4231Y32972D01*
D02*
G37*
G36*
X14073Y31004D02*
X13486D01*
X12943Y30779D01*
X12528Y30364D01*
X12303Y29821D01*
Y29234D01*
X12528Y28691D01*
X12943Y28276D01*
X13486Y28051D01*
X14073D01*
X14616Y28276D01*
X15031Y28691D01*
X15256Y29234D01*
Y29821D01*
X15031Y30364D01*
X14616Y30779D01*
X14073Y31004D01*
D02*
G37*
G36*
X4231Y29035D02*
X3643D01*
X3101Y28811D01*
X2685Y28395D01*
X2461Y27853D01*
Y27265D01*
X2685Y26723D01*
X3101Y26307D01*
X3643Y26083D01*
X4231D01*
X4773Y26307D01*
X5189Y26723D01*
X5413Y27265D01*
Y27853D01*
X5189Y28395D01*
X4773Y28811D01*
X4231Y29035D01*
D02*
G37*
G36*
X14073Y27067D02*
X13486D01*
X12943Y26842D01*
X12528Y26427D01*
X12303Y25884D01*
Y25297D01*
X12528Y24754D01*
X12943Y24339D01*
X13486Y24114D01*
X14073D01*
X14616Y24339D01*
X15031Y24754D01*
X15256Y25297D01*
Y25884D01*
X15031Y26427D01*
X14616Y26842D01*
X14073Y27067D01*
D02*
G37*
G36*
X25207Y26390D02*
X24620D01*
X24077Y26165D01*
X23662Y25750D01*
X23437Y25207D01*
Y24620D01*
X23662Y24077D01*
X24077Y23662D01*
X24620Y23437D01*
X25207D01*
X25750Y23662D01*
X26165Y24077D01*
X26390Y24620D01*
Y25207D01*
X26165Y25750D01*
X25750Y26165D01*
X25207Y26390D01*
D02*
G37*
G36*
X18010Y25098D02*
X17423D01*
X16880Y24874D01*
X16465Y24458D01*
X16240Y23916D01*
Y23328D01*
X16465Y22786D01*
X16880Y22370D01*
X17423Y22146D01*
X18010D01*
X18553Y22370D01*
X18968Y22786D01*
X19193Y23328D01*
Y23916D01*
X18968Y24458D01*
X18553Y24874D01*
X18010Y25098D01*
D02*
G37*
G36*
X29144Y22453D02*
X28557D01*
X28014Y22228D01*
X27599Y21813D01*
X27374Y21270D01*
Y20683D01*
X27599Y20140D01*
X28014Y19725D01*
X28557Y19500D01*
X29144D01*
X29687Y19725D01*
X30102Y20140D01*
X30327Y20683D01*
Y21270D01*
X30102Y21813D01*
X29687Y22228D01*
X29144Y22453D01*
D02*
G37*
G36*
X45000Y128718D02*
X44213Y128615D01*
X43479Y128311D01*
X42849Y127828D01*
X42366Y127198D01*
X42062Y126464D01*
X41959Y125677D01*
Y117803D01*
X42062Y117016D01*
X42366Y116282D01*
X42849Y115653D01*
X43479Y115169D01*
X44213Y114865D01*
X45000Y114762D01*
X45787Y114865D01*
X46521Y115169D01*
X47151Y115653D01*
X47634Y116282D01*
X47938Y117016D01*
X48041Y117803D01*
Y125677D01*
X47938Y126464D01*
X47634Y127198D01*
X47151Y127828D01*
X46521Y128311D01*
X45787Y128615D01*
X45000Y128718D01*
D02*
G37*
G36*
X37294Y113976D02*
X36706D01*
X36164Y113752D01*
X35748Y113336D01*
X35524Y112794D01*
Y112206D01*
X35748Y111664D01*
X36164Y111248D01*
X36706Y111024D01*
X37294D01*
X37836Y111248D01*
X38252Y111664D01*
X38476Y112206D01*
Y112794D01*
X38252Y113336D01*
X37836Y113752D01*
X37294Y113976D01*
D02*
G37*
G36*
X197144Y123524D02*
X196557D01*
X196014Y123299D01*
X195599Y122883D01*
X195374Y122341D01*
Y121754D01*
X195599Y121211D01*
X196014Y120796D01*
X196557Y120571D01*
X197144D01*
X197687Y120796D01*
X198102Y121211D01*
X198327Y121754D01*
Y122341D01*
X198102Y122883D01*
X197687Y123299D01*
X197144Y123524D01*
D02*
G37*
G36*
Y119587D02*
X196557D01*
X196014Y119362D01*
X195599Y118947D01*
X195374Y118404D01*
Y117817D01*
X195599Y117274D01*
X196014Y116859D01*
X196557Y116634D01*
X197144D01*
X197687Y116859D01*
X198102Y117274D01*
X198327Y117817D01*
Y118404D01*
X198102Y118947D01*
X197687Y119362D01*
X197144Y119587D01*
D02*
G37*
G36*
X190576Y119866D02*
X189424D01*
X188294Y119641D01*
X187229Y119200D01*
X186271Y118560D01*
X185456Y117745D01*
X184816Y116787D01*
X184375Y115722D01*
X184150Y114592D01*
Y113440D01*
X184375Y112309D01*
X184816Y111245D01*
X185456Y110287D01*
X186271Y109472D01*
X187229Y108832D01*
X188294Y108391D01*
X189424Y108166D01*
X190576D01*
X191706Y108391D01*
X192771Y108832D01*
X193729Y109472D01*
X194544Y110287D01*
X195027Y111010D01*
X195039Y111027D01*
X195482Y110790D01*
X195462Y110742D01*
X195374Y110530D01*
Y109943D01*
X195599Y109400D01*
X196014Y108985D01*
X196557Y108760D01*
X197144D01*
X197687Y108985D01*
X198102Y109400D01*
X198327Y109943D01*
Y110530D01*
X198102Y111073D01*
X197687Y111488D01*
X197144Y111713D01*
X196557D01*
X196014Y111488D01*
X195736Y111209D01*
X195693Y111167D01*
X195269Y111450D01*
X195276Y111467D01*
X195625Y112309D01*
X195683Y112600D01*
X196238Y112829D01*
X196557Y112697D01*
X197144D01*
X197687Y112922D01*
X198102Y113337D01*
X198327Y113880D01*
Y114467D01*
X198102Y115009D01*
X197687Y115425D01*
X197144Y115650D01*
X196557D01*
X196180Y115494D01*
X195631Y115695D01*
X195625Y115722D01*
X195184Y116787D01*
X194544Y117745D01*
X193729Y118560D01*
X192771Y119200D01*
X191706Y119641D01*
X190576Y119866D01*
D02*
G37*
G36*
X197144Y107776D02*
X196557D01*
X196014Y107551D01*
X195599Y107135D01*
X195374Y106593D01*
Y106006D01*
X195599Y105463D01*
X196014Y105048D01*
X196557Y104823D01*
X197144D01*
X197687Y105048D01*
X198102Y105463D01*
X198327Y106006D01*
Y106593D01*
X198102Y107135D01*
X197687Y107551D01*
X197144Y107776D01*
D02*
G37*
G36*
Y103839D02*
X196557D01*
X196014Y103614D01*
X195599Y103199D01*
X195374Y102656D01*
Y102068D01*
X195599Y101526D01*
X196014Y101111D01*
X196557Y100886D01*
X197144D01*
X197687Y101111D01*
X198102Y101526D01*
X198327Y102068D01*
Y102656D01*
X198102Y103199D01*
X197687Y103614D01*
X197144Y103839D01*
D02*
G37*
G36*
Y99902D02*
X196557D01*
X196014Y99677D01*
X195599Y99261D01*
X195374Y98719D01*
Y98132D01*
X195599Y97589D01*
X196014Y97174D01*
X196557Y96949D01*
X197144D01*
X197687Y97174D01*
X198102Y97589D01*
X198327Y98132D01*
Y98719D01*
X198102Y99261D01*
X197687Y99677D01*
X197144Y99902D01*
D02*
G37*
G36*
Y95965D02*
X196557D01*
X196014Y95740D01*
X195599Y95324D01*
X195374Y94782D01*
Y94195D01*
X195599Y93652D01*
X196014Y93237D01*
X196557Y93012D01*
X197144D01*
X197687Y93237D01*
X198102Y93652D01*
X198327Y94195D01*
Y94782D01*
X198102Y95324D01*
X197687Y95740D01*
X197144Y95965D01*
D02*
G37*
G36*
Y92027D02*
X196557D01*
X196014Y91803D01*
X195599Y91387D01*
X195374Y90845D01*
Y90258D01*
X195599Y89715D01*
X196014Y89300D01*
X196557Y89075D01*
X197144D01*
X197687Y89300D01*
X198102Y89715D01*
X198327Y90258D01*
Y90845D01*
X198102Y91387D01*
X197687Y91803D01*
X197144Y92027D01*
D02*
G37*
G36*
Y88090D02*
X196557D01*
X196014Y87866D01*
X195599Y87450D01*
X195374Y86908D01*
Y86321D01*
X195599Y85778D01*
X196014Y85363D01*
X196557Y85138D01*
X197144D01*
X197687Y85363D01*
X198102Y85778D01*
X198327Y86321D01*
Y86908D01*
X198102Y87450D01*
X197687Y87866D01*
X197144Y88090D01*
D02*
G37*
G36*
Y84153D02*
X196557D01*
X196014Y83929D01*
X195599Y83513D01*
X195374Y82971D01*
Y82384D01*
X195599Y81841D01*
X196014Y81426D01*
X196557Y81201D01*
X197144D01*
X197687Y81426D01*
X198102Y81841D01*
X198327Y82384D01*
Y82971D01*
X198102Y83513D01*
X197687Y83929D01*
X197144Y84153D01*
D02*
G37*
G36*
Y80216D02*
X196557D01*
X196014Y79992D01*
X195599Y79576D01*
X195374Y79034D01*
Y78447D01*
X195599Y77904D01*
X196014Y77489D01*
X196557Y77264D01*
X197144D01*
X197687Y77489D01*
X198102Y77904D01*
X198327Y78447D01*
Y79034D01*
X198102Y79576D01*
X197687Y79992D01*
X197144Y80216D01*
D02*
G37*
G36*
Y76279D02*
X196557D01*
X196014Y76055D01*
X195599Y75639D01*
X195374Y75097D01*
Y74510D01*
X195599Y73967D01*
X196014Y73551D01*
X196557Y73327D01*
X197144D01*
X197687Y73551D01*
X198102Y73967D01*
X198327Y74510D01*
Y75097D01*
X198102Y75639D01*
X197687Y76055D01*
X197144Y76279D01*
D02*
G37*
G36*
Y72342D02*
X196557D01*
X196014Y72118D01*
X195599Y71702D01*
X195374Y71160D01*
Y70573D01*
X195599Y70030D01*
X196014Y69614D01*
X196557Y69390D01*
X197144D01*
X197687Y69614D01*
X198102Y70030D01*
X198327Y70573D01*
Y71160D01*
X198102Y71702D01*
X197687Y72118D01*
X197144Y72342D01*
D02*
G37*
G36*
Y68405D02*
X196557D01*
X196014Y68181D01*
X195599Y67765D01*
X195374Y67223D01*
Y66636D01*
X195599Y66093D01*
X196014Y65677D01*
X196557Y65453D01*
X197144D01*
X197687Y65677D01*
X198102Y66093D01*
X198327Y66636D01*
Y67223D01*
X198102Y67765D01*
X197687Y68181D01*
X197144Y68405D01*
D02*
G37*
%LPD*%
D10*
X46090Y142910D02*
X53000Y149819D01*
X46000Y143000D02*
X46090Y142910D01*
X40500Y143000D02*
X46000D01*
X36835Y139335D02*
X40500Y143000D01*
X36835Y132186D02*
Y139335D01*
X69688Y176351D02*
X70500Y175539D01*
X69688Y176351D02*
Y177812D01*
X69500Y178000D02*
X69688Y177812D01*
X70500Y165500D02*
Y175539D01*
X51114Y150577D02*
Y156302D01*
X46518Y145982D02*
X51114Y150577D01*
X53000Y149819D02*
Y197000D01*
X105150Y265650D02*
X172047D01*
X104000Y264500D02*
X105150Y265650D01*
X172192Y265795D02*
X172812D01*
X173000Y265983D01*
X172047Y265650D02*
X172192Y265795D01*
X125000Y87598D02*
Y111000D01*
X121002Y83600D02*
X125000Y87598D01*
X120516Y146749D02*
X121000Y147234D01*
Y147500D01*
X74000Y152237D02*
Y152503D01*
Y152237D02*
X75000Y151237D01*
X79500Y142567D02*
Y152587D01*
X75000Y118740D02*
Y151237D01*
X95000Y118740D02*
Y152587D01*
X103000Y153500D02*
X105000Y151500D01*
Y118740D02*
Y151500D01*
X111500Y140076D02*
Y148000D01*
X110000Y138576D02*
X111500Y140076D01*
X110000Y112000D02*
X111500Y110500D01*
X79500Y142567D02*
X85000Y137067D01*
Y118740D02*
Y137067D01*
X120516Y126362D02*
Y146749D01*
X65000Y118740D02*
Y131000D01*
X61500Y134500D02*
X65000Y131000D01*
X110000Y112000D02*
Y138576D01*
X120516Y126362D02*
X120516Y126362D01*
X120516Y115484D02*
Y126362D01*
X111500Y110500D02*
X122500D01*
X120516Y115484D02*
X125000Y111000D01*
D44*
X86500Y22500D02*
D03*
X89500Y18614D02*
D03*
X84000D02*
D03*
D45*
X43500Y162006D02*
Y164500D01*
Y162006D02*
X43861Y161646D01*
Y147674D02*
Y161646D01*
X61500Y174500D02*
X68000Y168000D01*
Y163500D02*
Y168000D01*
X61500Y174500D02*
Y200500D01*
X61528Y200528D01*
X93847Y104000D02*
X94032D01*
X83000Y93153D02*
X93847Y104000D01*
X87328Y91044D02*
X98000Y101716D01*
Y107500D01*
X86000Y91000D02*
X86044Y91044D01*
X87328D01*
X96000Y102500D02*
Y107000D01*
X94000Y100500D02*
X96000Y102500D01*
X91043Y114457D02*
X98000Y107500D01*
X89468Y113531D02*
X96000Y107000D01*
X89468Y113531D02*
Y137531D01*
X91043Y114457D02*
Y130327D01*
X150020Y73520D02*
Y110680D01*
X150870Y111530D02*
Y148904D01*
X150020Y110680D02*
X150870Y111530D01*
X143000Y66500D02*
X150020Y73520D01*
X47000Y202000D02*
Y228102D01*
X70472Y251575D01*
X79528D01*
X88500Y152500D02*
Y152587D01*
Y152500D02*
X92075Y148925D01*
X135000Y199626D02*
X137626D01*
X142500Y204500D01*
X91043Y130327D02*
X92075Y131359D01*
X85000Y142000D02*
Y152587D01*
X92075Y131359D02*
Y148925D01*
X103678Y64678D02*
X105500Y66500D01*
X143000D01*
X83000Y85355D02*
Y93153D01*
Y85355D02*
X103678Y64678D01*
X85000Y142000D02*
X89468Y137531D01*
X141500Y215309D02*
Y215500D01*
X133764Y220000D02*
X133881D01*
X137000D02*
X141500Y215500D01*
X138849Y212651D02*
X141349D01*
X134000Y217500D02*
X138849Y212651D01*
X151500Y204500D02*
X155000Y208000D01*
X142500Y204500D02*
X151500D01*
X133764Y220000D02*
X137000D01*
X130762D02*
X133764D01*
X98229Y208238D02*
X119000D01*
X130762Y220000D01*
X161024Y264173D02*
X169055Y256142D01*
X100394Y253150D02*
X111417Y264173D01*
X161024D01*
X169055Y256142D02*
X194488D01*
D47*
X140500Y188000D02*
X148500Y180000D01*
X140500Y188000D02*
Y188012D01*
X148500Y180000D02*
X151000D01*
D49*
X37659Y171500D02*
X43563D01*
X44500Y172437D01*
X36500Y151000D02*
Y229500D01*
X55651Y145510D02*
X57666D01*
X71069Y158913D01*
X127087D01*
X127214Y158786D01*
X42248Y132107D02*
X55651Y145510D01*
X165000Y118740D02*
Y132500D01*
X171500Y139000D01*
Y161000D01*
X159000Y173500D02*
X171500Y161000D01*
X99000Y222500D02*
Y244000D01*
Y222500D02*
X103000Y218500D01*
X136772Y37905D02*
X158905D01*
X185500Y64500D01*
X101000Y56000D02*
X115000Y42000D01*
Y37905D02*
Y42000D01*
X37500Y56000D02*
X101000D01*
X25500Y154500D02*
Y346291D01*
X26181Y346972D01*
X19358Y356142D02*
X25092Y350408D01*
Y346972D02*
Y350408D01*
X129000Y343500D02*
X149000D01*
X119000Y173500D02*
X159000D01*
X89500Y203000D02*
X119000Y173500D01*
X16500Y145500D02*
X25500Y154500D01*
X40387Y66500D02*
X45000Y71113D01*
Y110332D01*
X26612Y66500D02*
X40387D01*
X31500Y146000D02*
X36500Y151000D01*
Y229500D02*
X72000Y265000D01*
X20500Y60387D02*
X26612Y66500D01*
X20500Y56500D02*
Y60387D01*
X157500Y219000D02*
X184500Y192000D01*
Y126000D02*
Y192000D01*
X79000Y203000D02*
X89500D01*
X77500Y204500D02*
X79000Y203000D01*
X41472Y287528D02*
Y356528D01*
Y287528D02*
X55500Y273500D01*
X31858Y366142D02*
X41472Y356528D01*
X113467Y328033D02*
X113533D01*
X129000Y343500D01*
X72000Y271000D02*
Y324000D01*
Y271000D02*
X99000Y244000D01*
X72000Y265000D02*
Y271000D01*
X5512Y356142D02*
X19358D01*
X5512Y366142D02*
X31858D01*
D50*
X130000Y25884D02*
Y44500D01*
X128616Y24500D02*
X130000Y25884D01*
X122000Y24500D02*
X128616D01*
X130000Y44500D02*
X132500Y47000D01*
X154500D02*
X173000Y65500D01*
X132500Y47000D02*
X154500D01*
X173000Y65500D02*
Y109803D01*
X165000Y117803D02*
X173000Y109803D01*
X165000Y117803D02*
Y118740D01*
D52*
X5512Y366142D02*
D03*
D53*
Y356142D02*
D03*
Y296142D02*
D03*
X194488Y256142D02*
D03*
D55*
X65000Y121740D02*
D03*
X75000D02*
D03*
X85000D02*
D03*
X95000D02*
D03*
X105000D02*
D03*
X165000D02*
D03*
X145000D02*
D03*
X115000Y35740D02*
D03*
X135000D02*
D03*
D59*
X43500Y164500D02*
D03*
X37500Y143500D02*
D03*
X43861Y147674D02*
D03*
X69500Y178000D02*
D03*
X70500Y165500D02*
D03*
X68000Y163500D02*
D03*
X36835Y132186D02*
D03*
X46500Y154500D02*
D03*
X46518Y145982D02*
D03*
X61528Y200528D02*
D03*
X40500Y138500D02*
D03*
X98000Y135130D02*
D03*
X113000D02*
D03*
X156500Y137500D02*
D03*
X132000Y321000D02*
D03*
X104500Y212500D02*
D03*
X125000Y209500D02*
D03*
X170343Y97557D02*
D03*
X173000Y265983D02*
D03*
X103000Y129500D02*
D03*
X94032Y104000D02*
D03*
X84646Y314032D02*
D03*
X80709D02*
D03*
X78787Y99917D02*
D03*
X134678Y87822D02*
D03*
X121002Y83600D02*
D03*
X150870Y148904D02*
D03*
X51114Y156302D02*
D03*
X53150Y70866D02*
D03*
Y66929D02*
D03*
Y62992D02*
D03*
X37402Y49213D02*
D03*
X33465D02*
D03*
X29528D02*
D03*
X21654Y19685D02*
D03*
X31803Y18024D02*
D03*
X22500Y43500D02*
D03*
X50000Y47000D02*
D03*
X48000Y45000D02*
D03*
X41339Y43307D02*
D03*
X37402D02*
D03*
X33465D02*
D03*
X29528D02*
D03*
X31496Y9793D02*
D03*
X47000Y228000D02*
D03*
X132000Y18000D02*
D03*
X133978Y16591D02*
D03*
X134000Y19500D02*
D03*
X121000Y147500D02*
D03*
X119280Y166220D02*
D03*
X88500Y152587D02*
D03*
X111500Y95500D02*
D03*
X119500Y90000D02*
D03*
Y97000D02*
D03*
X116500Y105500D02*
D03*
Y113000D02*
D03*
X113500Y94000D02*
D03*
X70866Y228346D02*
D03*
X135000Y199626D02*
D03*
X135506Y192500D02*
D03*
X140500Y188012D02*
D03*
X151000Y180000D02*
D03*
X148500D02*
D03*
X74000Y152503D02*
D03*
X85000Y152587D02*
D03*
X79500D02*
D03*
X95000D02*
D03*
X103000Y153500D02*
D03*
X86000Y91000D02*
D03*
X111500Y148000D02*
D03*
X94000Y100500D02*
D03*
X152362Y101575D02*
D03*
X53000Y197000D02*
D03*
X103678Y64678D02*
D03*
X53150Y86614D02*
D03*
Y90000D02*
D03*
Y82677D02*
D03*
Y78740D02*
D03*
Y74803D02*
D03*
X93012Y129500D02*
D03*
X87500D02*
D03*
Y134000D02*
D03*
X47000Y202000D02*
D03*
X81500Y136500D02*
D03*
X62849Y13287D02*
D03*
X60651D02*
D03*
X67500Y137500D02*
D03*
X61500Y134500D02*
D03*
X128000Y202500D02*
D03*
Y207000D02*
D03*
X155500Y203500D02*
D03*
X141349Y212651D02*
D03*
X141500Y215300D02*
D03*
X155000Y208000D02*
D03*
X141500Y210000D02*
D03*
X133700Y220000D02*
D03*
X134000Y217500D02*
D03*
X106500Y211000D02*
D03*
X132000Y213500D02*
D03*
X125500Y203000D02*
D03*
X98229Y208238D02*
D03*
X122000Y24500D02*
D03*
X171500Y59000D02*
D03*
X152000D02*
D03*
X192500D02*
D03*
X159334Y95666D02*
D03*
X86614Y216535D02*
D03*
Y220472D02*
D03*
X82677Y216535D02*
D03*
X78740D02*
D03*
X82677Y220472D02*
D03*
X78740D02*
D03*
X37402Y271654D02*
D03*
Y275590D02*
D03*
Y279528D02*
D03*
X49213Y253937D02*
D03*
Y257874D02*
D03*
Y261811D02*
D03*
Y265748D02*
D03*
X62992D02*
D03*
Y269685D02*
D03*
Y273622D02*
D03*
Y277559D02*
D03*
X106299Y228346D02*
D03*
X110236D02*
D03*
Y232283D02*
D03*
X106299D02*
D03*
X74803Y228346D02*
D03*
X78740D02*
D03*
X82677D02*
D03*
Y232283D02*
D03*
X78740D02*
D03*
X74803D02*
D03*
X70866D02*
D03*
Y248031D02*
D03*
Y244094D02*
D03*
X78740D02*
D03*
X82677D02*
D03*
Y248031D02*
D03*
X78740D02*
D03*
X74803Y244094D02*
D03*
Y248031D02*
D03*
Y253937D02*
D03*
Y257874D02*
D03*
X104331Y253937D02*
D03*
X98425Y257874D02*
D03*
X102362Y259842D02*
D03*
X116142Y271654D02*
D03*
X120079Y275590D02*
D03*
Y271654D02*
D03*
X124016D02*
D03*
Y275590D02*
D03*
Y279528D02*
D03*
Y283465D02*
D03*
X145669D02*
D03*
X141732D02*
D03*
X137795D02*
D03*
Y279528D02*
D03*
X141732D02*
D03*
X145669D02*
D03*
Y271654D02*
D03*
Y275590D02*
D03*
X137795D02*
D03*
X141732D02*
D03*
Y271654D02*
D03*
X137795D02*
D03*
X80709Y311024D02*
D03*
X49213Y303150D02*
D03*
Y291339D02*
D03*
Y295276D02*
D03*
Y299213D02*
D03*
X35433Y242126D02*
D03*
Y246063D02*
D03*
Y250000D02*
D03*
Y253937D02*
D03*
X33465Y271654D02*
D03*
Y275590D02*
D03*
Y279528D02*
D03*
Y283465D02*
D03*
Y287402D02*
D03*
Y291339D02*
D03*
Y295276D02*
D03*
Y299213D02*
D03*
Y303150D02*
D03*
Y307087D02*
D03*
X120079Y289370D02*
D03*
Y293307D02*
D03*
Y297244D02*
D03*
Y301181D02*
D03*
Y305118D02*
D03*
Y309055D02*
D03*
Y312992D02*
D03*
X84646Y273622D02*
D03*
X80709D02*
D03*
Y277559D02*
D03*
X84646D02*
D03*
Y281496D02*
D03*
X80709D02*
D03*
X116142Y285433D02*
D03*
X84646D02*
D03*
X80709D02*
D03*
X84646Y289370D02*
D03*
X80709D02*
D03*
X116142D02*
D03*
Y293307D02*
D03*
Y297244D02*
D03*
X80709D02*
D03*
Y293307D02*
D03*
X84646D02*
D03*
Y297244D02*
D03*
Y301181D02*
D03*
X90551Y309055D02*
D03*
X96457D02*
D03*
X104331D02*
D03*
X96457Y312992D02*
D03*
X104331D02*
D03*
X110236D02*
D03*
Y309055D02*
D03*
X116142Y301181D02*
D03*
Y305118D02*
D03*
Y309055D02*
D03*
Y312992D02*
D03*
X100394Y320866D02*
D03*
X104331D02*
D03*
X108268D02*
D03*
X112205D02*
D03*
X116142D02*
D03*
X135827D02*
D03*
X139764D02*
D03*
X143701D02*
D03*
X161417Y338583D02*
D03*
Y320866D02*
D03*
Y326772D02*
D03*
Y332677D02*
D03*
X27559Y9843D02*
D03*
X80000Y374000D02*
D03*
X75000D02*
D03*
X122500Y379000D02*
D03*
X126500D02*
D03*
X117500Y260500D02*
D03*
X114500D02*
D03*
X111500D02*
D03*
X127000Y205000D02*
D03*
X130000Y258500D02*
D03*
X128000Y257000D02*
D03*
X132000D02*
D03*
X130000Y256000D02*
D03*
X131500Y166000D02*
D03*
X67500Y129500D02*
D03*
X81500D02*
D03*
X3937Y19685D02*
D03*
Y15748D02*
D03*
Y11811D02*
D03*
Y7874D02*
D03*
X7874Y3937D02*
D03*
X11811D02*
D03*
X15748D02*
D03*
X19685D02*
D03*
X23622D02*
D03*
X27559D02*
D03*
X31496D02*
D03*
X35433D02*
D03*
X82677D02*
D03*
X94488D02*
D03*
X98425D02*
D03*
X102362D02*
D03*
X106299D02*
D03*
X118110D02*
D03*
X122047D02*
D03*
X125984D02*
D03*
X137795D02*
D03*
X141732D02*
D03*
X145669D02*
D03*
X149606D02*
D03*
X161417D02*
D03*
X165354D02*
D03*
X169291D02*
D03*
X173228D02*
D03*
X177165D02*
D03*
X181102D02*
D03*
X185039D02*
D03*
X188976D02*
D03*
X192913D02*
D03*
X196850Y7874D02*
D03*
Y11811D02*
D03*
Y15748D02*
D03*
Y19685D02*
D03*
Y23622D02*
D03*
Y27559D02*
D03*
Y31496D02*
D03*
Y35433D02*
D03*
Y39370D02*
D03*
Y47244D02*
D03*
Y51181D02*
D03*
Y55118D02*
D03*
Y59055D02*
D03*
X153543Y401575D02*
D03*
X149606D02*
D03*
X145669D02*
D03*
X141732D02*
D03*
X106299D02*
D03*
X102362D02*
D03*
X98425D02*
D03*
X94488D02*
D03*
X59055D02*
D03*
X55118D02*
D03*
X51181D02*
D03*
X47244D02*
D03*
X196850Y374016D02*
D03*
Y377953D02*
D03*
Y381890D02*
D03*
Y385827D02*
D03*
Y389764D02*
D03*
Y393701D02*
D03*
Y397638D02*
D03*
X192913Y401575D02*
D03*
X188976D02*
D03*
X185039D02*
D03*
X181102D02*
D03*
X177165D02*
D03*
X173228D02*
D03*
X169291D02*
D03*
X125984D02*
D03*
X122047D02*
D03*
X78740D02*
D03*
X74803D02*
D03*
X31496D02*
D03*
X27559D02*
D03*
X23622D02*
D03*
X19685D02*
D03*
X15748D02*
D03*
X11811D02*
D03*
X7874D02*
D03*
X3937Y397638D02*
D03*
Y393701D02*
D03*
Y389764D02*
D03*
Y385827D02*
D03*
Y381890D02*
D03*
Y377953D02*
D03*
Y374016D02*
D03*
X143000Y328110D02*
D03*
X128000Y254500D02*
D03*
X130000Y253500D02*
D03*
X128000Y252000D02*
D03*
X132000D02*
D03*
Y254500D02*
D03*
X100394Y253150D02*
D03*
X79528Y251575D02*
D03*
X49000Y23957D02*
D03*
X51500Y23000D02*
D03*
X132000Y70000D02*
D03*
X128000Y88500D02*
D03*
X104000Y264500D02*
D03*
X122500Y110500D02*
D03*
X130000Y251000D02*
D03*
X128000Y249500D02*
D03*
X132000D02*
D03*
X143000Y334000D02*
D03*
Y331000D02*
D03*
X140500Y97000D02*
D03*
D60*
X103000Y218500D02*
D03*
X44500Y172437D02*
D03*
X111500Y77481D02*
D03*
X26181Y346972D02*
D03*
X127214Y158786D02*
D03*
X83500Y70000D02*
D03*
X70500D02*
D03*
X37500Y56000D02*
D03*
X157500Y219000D02*
D03*
X65000Y365028D02*
D03*
X20500Y56500D02*
D03*
X55500Y273500D02*
D03*
X88500Y365028D02*
D03*
X113467Y328033D02*
D03*
X99000Y244000D02*
D03*
X77500Y204500D02*
D03*
X92000Y344000D02*
D03*
X48500Y344500D02*
D03*
X149000Y343500D02*
D03*
X19000Y96000D02*
D03*
Y103000D02*
D03*
D61*
X100000Y294291D02*
D03*
M02*
