G04*
G04 #@! TF.GenerationSoftware,Altium Limited,Altium Designer,22.7.1 (60)*
G04*
G04 Layer_Color=255*
%FSLAX25Y25*%
%MOIN*%
G70*
G04*
G04 #@! TF.SameCoordinates,24E4937F-31BC-4FDA-B361-D206D476748A*
G04*
G04*
G04 #@! TF.FilePolarity,Positive*
G04*
G01*
G75*
%ADD12O,0.03543X0.06299*%
%ADD13R,0.07480X0.07087*%
G04:AMPARAMS|DCode=14|XSize=62.99mil|YSize=55.12mil|CornerRadius=13.78mil|HoleSize=0mil|Usage=FLASHONLY|Rotation=0.000|XOffset=0mil|YOffset=0mil|HoleType=Round|Shape=RoundedRectangle|*
%AMROUNDEDRECTD14*
21,1,0.06299,0.02756,0,0,0.0*
21,1,0.03543,0.05512,0,0,0.0*
1,1,0.02756,0.01772,-0.01378*
1,1,0.02756,-0.01772,-0.01378*
1,1,0.02756,-0.01772,0.01378*
1,1,0.02756,0.01772,0.01378*
%
%ADD14ROUNDEDRECTD14*%
%ADD15O,0.01575X0.05315*%
%ADD16R,0.04724X0.06693*%
%ADD17R,0.02362X0.06102*%
%ADD18R,0.05906X0.12598*%
%ADD19R,0.03937X0.13780*%
%ADD20R,0.01181X0.06102*%
%ADD21R,0.04724X0.10827*%
%ADD22R,0.02559X0.04134*%
%ADD44C,0.03937*%
%ADD52R,0.07874X0.06299*%
%ADD53O,0.07874X0.06299*%
%ADD54C,0.23622*%
G04:AMPARAMS|DCode=55|XSize=43.31mil|YSize=122.05mil|CornerRadius=21.65mil|HoleSize=0mil|Usage=FLASHONLY|Rotation=0.000|XOffset=0mil|YOffset=0mil|HoleType=Round|Shape=RoundedRectangle|*
%AMROUNDEDRECTD55*
21,1,0.04331,0.07874,0,0,0.0*
21,1,0.00000,0.12205,0,0,0.0*
1,1,0.04331,0.00000,-0.03937*
1,1,0.04331,0.00000,-0.03937*
1,1,0.04331,0.00000,0.03937*
1,1,0.04331,0.00000,0.03937*
%
%ADD55ROUNDEDRECTD55*%
G04:AMPARAMS|DCode=56|XSize=45.67mil|YSize=122.05mil|CornerRadius=22.84mil|HoleSize=0mil|Usage=FLASHONLY|Rotation=0.000|XOffset=0mil|YOffset=0mil|HoleType=Round|Shape=RoundedRectangle|*
%AMROUNDEDRECTD56*
21,1,0.04567,0.07638,0,0,0.0*
21,1,0.00000,0.12205,0,0,0.0*
1,1,0.04567,0.00000,-0.03819*
1,1,0.04567,0.00000,-0.03819*
1,1,0.04567,0.00000,0.03819*
1,1,0.04567,0.00000,0.03819*
%
%ADD56ROUNDEDRECTD56*%
%ADD57C,0.10000*%
%ADD58C,0.12992*%
D12*
X43701Y8268D02*
D03*
X69685D02*
D03*
D13*
X61417D02*
D03*
X51968D02*
D03*
D14*
X69291Y17913D02*
D03*
X44094D02*
D03*
D15*
X56693Y18799D02*
D03*
X54134D02*
D03*
X51575D02*
D03*
X61811D02*
D03*
X59252D02*
D03*
D16*
X154331Y4161D02*
D03*
X132283D02*
D03*
X111024D02*
D03*
X88976D02*
D03*
D17*
X141339Y18067D02*
D03*
X145276D02*
D03*
X149213D02*
D03*
X137402D02*
D03*
X98032D02*
D03*
X101969D02*
D03*
X105905D02*
D03*
X94095D02*
D03*
D18*
X86811Y398425D02*
D03*
X113189D02*
D03*
X39567D02*
D03*
X65945D02*
D03*
X134055D02*
D03*
X160433D02*
D03*
D19*
X96063Y376969D02*
D03*
X103937D02*
D03*
X48819D02*
D03*
X56693D02*
D03*
X143307D02*
D03*
X151181D02*
D03*
D20*
X129528Y172343D02*
D03*
X127559D02*
D03*
X135433D02*
D03*
X131496D02*
D03*
X133465D02*
D03*
X125591D02*
D03*
X123622D02*
D03*
X119685D02*
D03*
X121653D02*
D03*
X117717D02*
D03*
X113779D02*
D03*
X111811D02*
D03*
X115748D02*
D03*
X103937D02*
D03*
X101969D02*
D03*
X109843D02*
D03*
X105905D02*
D03*
X107874D02*
D03*
X136417Y142618D02*
D03*
X134449D02*
D03*
X130512D02*
D03*
X132480D02*
D03*
X122638D02*
D03*
X120669D02*
D03*
X128543D02*
D03*
X124606D02*
D03*
X126575D02*
D03*
X112795D02*
D03*
X110827D02*
D03*
X118701D02*
D03*
X114764D02*
D03*
X116732D02*
D03*
X102953D02*
D03*
X100984D02*
D03*
X108858D02*
D03*
X104921D02*
D03*
X106890D02*
D03*
X94095Y172343D02*
D03*
X92126D02*
D03*
X100000D02*
D03*
X96063D02*
D03*
X98032D02*
D03*
X90158D02*
D03*
X88189D02*
D03*
X84252D02*
D03*
X86221D02*
D03*
X76378D02*
D03*
X74410D02*
D03*
X72441D02*
D03*
X82284D02*
D03*
X78347D02*
D03*
X80315D02*
D03*
X70472D02*
D03*
X68504D02*
D03*
X66535D02*
D03*
X64567D02*
D03*
X93110Y142618D02*
D03*
X91142D02*
D03*
X99016D02*
D03*
X95079D02*
D03*
X97047D02*
D03*
X89173D02*
D03*
X87205D02*
D03*
X83268D02*
D03*
X85236D02*
D03*
X75394D02*
D03*
X73425D02*
D03*
X81299D02*
D03*
X77362D02*
D03*
X79331D02*
D03*
X65551D02*
D03*
X63583D02*
D03*
X71457D02*
D03*
X67520D02*
D03*
X69488D02*
D03*
D21*
X140748Y145669D02*
D03*
X59252D02*
D03*
D22*
X34768Y143331D02*
D03*
Y159669D02*
D03*
X43232Y143331D02*
D03*
Y159669D02*
D03*
D44*
X188500Y28254D02*
D03*
X13246Y67500D02*
D03*
X27746Y392500D02*
D03*
X139370Y163386D02*
D03*
X60630D02*
D03*
D52*
X161000Y156500D02*
D03*
X5512Y366142D02*
D03*
X194488D02*
D03*
D53*
X161000Y146500D02*
D03*
X5512Y356142D02*
D03*
Y346142D02*
D03*
Y336142D02*
D03*
Y326142D02*
D03*
Y316142D02*
D03*
Y306142D02*
D03*
Y296142D02*
D03*
Y286142D02*
D03*
Y276142D02*
D03*
Y266142D02*
D03*
Y256142D02*
D03*
Y246142D02*
D03*
Y236142D02*
D03*
Y226142D02*
D03*
Y216142D02*
D03*
Y206142D02*
D03*
Y196142D02*
D03*
Y186142D02*
D03*
Y176142D02*
D03*
Y166142D02*
D03*
Y156142D02*
D03*
Y146142D02*
D03*
Y136142D02*
D03*
X194488Y356142D02*
D03*
Y346142D02*
D03*
Y336142D02*
D03*
Y326142D02*
D03*
Y316142D02*
D03*
Y306142D02*
D03*
Y296142D02*
D03*
Y286142D02*
D03*
Y276142D02*
D03*
Y266142D02*
D03*
Y256142D02*
D03*
Y246142D02*
D03*
Y236142D02*
D03*
Y226142D02*
D03*
Y216142D02*
D03*
Y206142D02*
D03*
Y196142D02*
D03*
Y186142D02*
D03*
Y176142D02*
D03*
Y166142D02*
D03*
Y156142D02*
D03*
Y146142D02*
D03*
Y136142D02*
D03*
D54*
X100000Y294291D02*
D03*
D55*
X25000Y121740D02*
D03*
X35000D02*
D03*
X45000D02*
D03*
X55000D02*
D03*
X65000D02*
D03*
X75000D02*
D03*
X85000D02*
D03*
X95000D02*
D03*
X105000D02*
D03*
X165000D02*
D03*
X155000D02*
D03*
X145000D02*
D03*
X135000D02*
D03*
X125000D02*
D03*
X115000D02*
D03*
X125000Y35740D02*
D03*
X115000D02*
D03*
X105000D02*
D03*
X95000D02*
D03*
X85000D02*
D03*
X75000D02*
D03*
X65000D02*
D03*
X55000D02*
D03*
X45000D02*
D03*
X35000D02*
D03*
X25000D02*
D03*
X135000D02*
D03*
D56*
X175000Y121740D02*
D03*
D57*
X10000Y43740D02*
D03*
Y114016D02*
D03*
X190000D02*
D03*
Y43740D02*
D03*
D58*
X186614Y391732D02*
D03*
X13386Y13780D02*
D03*
X186614D02*
D03*
X13386Y391732D02*
D03*
M02*
