G04*
G04 #@! TF.GenerationSoftware,Altium Limited,Altium Designer,22.7.1 (60)*
G04*
G04 Layer_Color=16711935*
%FSLAX25Y25*%
%MOIN*%
G70*
G04*
G04 #@! TF.SameCoordinates,24E4937F-31BC-4FDA-B361-D206D476748A*
G04*
G04*
G04 #@! TF.FilePolarity,Positive*
G04*
G01*
G75*
%ADD10C,0.00787*%
%ADD160C,0.00500*%
%ADD161C,0.00394*%
%ADD164R,0.14173X0.02420*%
%ADD165R,0.02420X0.14173*%
D10*
X79472Y98638D02*
G03*
X79472Y98638I-394J0D01*
G01*
X105953Y53047D02*
G03*
X105953Y53047I-394J0D01*
G01*
X154894Y179870D02*
G03*
X154894Y179870I-394J0D01*
G01*
D160*
X143921Y137370D02*
Y158630D01*
X134079D02*
X143921D01*
X134079Y137370D02*
Y158630D01*
Y137370D02*
X143921D01*
X82957Y106118D02*
X90043D01*
X82957Y95882D02*
X90043D01*
Y106118D01*
X82957Y95882D02*
Y106118D01*
X65551Y296433D02*
Y317693D01*
X55709D02*
X65551D01*
X55709Y296433D02*
Y317693D01*
Y296433D02*
X65551D01*
X128740Y306079D02*
X150000D01*
Y315921D01*
X128740D02*
X150000D01*
X128740Y306079D02*
Y315921D01*
X110972Y52063D02*
X120028D01*
X110972Y59937D02*
X120028D01*
X110972Y52063D02*
Y59937D01*
X120028Y52063D02*
Y59937D01*
X162374Y182626D02*
Y198374D01*
X146626D02*
X162374D01*
X146626Y182626D02*
Y198374D01*
Y182626D02*
X162374D01*
X143457Y210669D02*
X150543D01*
X143457Y219331D02*
X150543D01*
Y210669D02*
Y219331D01*
X143457Y210669D02*
Y219331D01*
D161*
X134626Y258626D02*
G03*
X134626Y258626I-1969J0D01*
G01*
X107744Y208669D02*
Y217331D01*
X113256Y208669D02*
Y217331D01*
X107744D02*
X113256D01*
X107744Y208669D02*
X113256D01*
X115744D02*
Y217331D01*
X121256Y208669D02*
Y217331D01*
X115744D02*
X121256D01*
X115744Y208669D02*
X121256D01*
X123799Y245831D02*
X136201D01*
X123799Y262169D02*
X136201D01*
X123799Y245831D02*
Y262169D01*
X136201Y245831D02*
Y262169D01*
X66350Y193480D02*
X72650D01*
X66350Y178520D02*
X72650D01*
Y193480D01*
X66350Y178520D02*
Y193480D01*
X50602Y10531D02*
X63398D01*
X50602Y4035D02*
X63398D01*
Y10531D01*
X50602Y4035D02*
Y10531D01*
X154933Y209417D02*
X159067D01*
X154933Y211583D02*
X159067D01*
X154933Y209417D02*
Y211583D01*
X159067Y209417D02*
Y211583D01*
X30413Y68504D02*
X44587D01*
X30413D02*
Y86496D01*
X44587D01*
Y68504D02*
Y86496D01*
X155563Y254539D02*
X163437D01*
X155563Y259461D02*
X163437D01*
X155563Y254539D02*
Y259461D01*
X163437Y254539D02*
Y259461D01*
X50000Y21401D02*
X63386D01*
X50000Y14314D02*
X63386D01*
Y21401D01*
X50000Y14314D02*
Y21401D01*
X119370Y250055D02*
Y256945D01*
X115630Y250055D02*
Y256945D01*
Y250055D02*
X119370D01*
X115630Y256945D02*
X119370D01*
X155972Y280476D02*
X160028D01*
X155972Y282524D02*
X160028D01*
X155972Y280476D02*
Y282524D01*
X160028Y280476D02*
Y282524D01*
X32701Y159768D02*
X45299D01*
X32701Y143232D02*
Y159768D01*
Y143232D02*
X45299D01*
Y159768D01*
X120957Y361307D02*
Y374693D01*
X128043Y361307D02*
Y374693D01*
X120957D02*
X128043D01*
X120957Y361307D02*
X128043D01*
X137472Y340476D02*
X141528D01*
X137472Y342524D02*
X141528D01*
X137472Y340476D02*
Y342524D01*
X141528Y340476D02*
Y342524D01*
X40472Y20476D02*
X44528D01*
X40472Y22524D02*
X44528D01*
X40472Y20476D02*
Y22524D01*
X44528Y20476D02*
Y22524D01*
X123976Y74472D02*
X126024D01*
X123976Y78528D02*
X126024D01*
Y74472D02*
Y78528D01*
X123976Y74472D02*
Y78528D01*
X131976Y95972D02*
X134024D01*
X131976Y100028D02*
X134024D01*
Y95972D02*
Y100028D01*
X131976Y95972D02*
Y100028D01*
Y108028D02*
X134024D01*
X131976Y103972D02*
X134024D01*
X131976D02*
Y108028D01*
X134024Y103972D02*
Y108028D01*
X131976Y88240D02*
X134024D01*
X131976Y92295D02*
X134024D01*
Y88240D02*
Y92295D01*
X131976Y88240D02*
Y92295D01*
X42528Y158476D02*
Y160524D01*
X38472Y158476D02*
Y160524D01*
X42528D01*
X38472Y158476D02*
X42528D01*
X141976Y184760D02*
X144024D01*
X141976Y180705D02*
X144024D01*
X141976D02*
Y184760D01*
X144024Y180705D02*
Y184760D01*
X137976Y180705D02*
X140024D01*
X137976Y184760D02*
X140024D01*
Y180705D02*
Y184760D01*
X137976Y180705D02*
Y184760D01*
X126130Y211055D02*
X129870D01*
X126130Y217945D02*
X129870D01*
Y211055D02*
Y217945D01*
X126130Y211055D02*
Y217945D01*
X147472Y200976D02*
X151528D01*
X147472Y203024D02*
X151528D01*
X147472Y200976D02*
Y203024D01*
X151528Y200976D02*
Y203024D01*
Y204976D02*
Y207024D01*
X147472Y204976D02*
Y207024D01*
X151528D01*
X147472Y204976D02*
X151528D01*
X113370Y250055D02*
Y256945D01*
X109630Y250055D02*
Y256945D01*
Y250055D02*
X113370D01*
X109630Y256945D02*
X113370D01*
X136528Y265476D02*
Y267524D01*
X132472Y265476D02*
Y267524D01*
X136528D01*
X132472Y265476D02*
X136528D01*
X43504Y335087D02*
X61496D01*
X43504Y320913D02*
X61496D01*
Y335087D01*
X43504Y320913D02*
Y335087D01*
X13413Y68504D02*
Y86496D01*
X27587Y68504D02*
Y86496D01*
X13413D02*
X27587D01*
X13413Y68504D02*
X27587D01*
X134083Y325933D02*
Y330067D01*
X131917Y325933D02*
Y330067D01*
Y325933D02*
X134083D01*
X131917Y330067D02*
X134083D01*
X129933Y335417D02*
Y337583D01*
X134067Y335417D02*
Y337583D01*
X129933Y335417D02*
X134067D01*
X129933Y337583D02*
X134067D01*
X151933Y331917D02*
X156067D01*
X151933Y334083D02*
X156067D01*
X151933Y331917D02*
Y334083D01*
X156067Y331917D02*
Y334083D01*
Y325917D02*
Y328083D01*
X151933Y325917D02*
Y328083D01*
X156067D01*
X151933Y325917D02*
X156067D01*
X123917Y88067D02*
X126083D01*
X123917Y83933D02*
X126083D01*
X123917D02*
Y88067D01*
X126083Y83933D02*
Y88067D01*
X122933Y100583D02*
X127067D01*
X122933Y98417D02*
X127067D01*
Y100583D01*
X122933Y98417D02*
Y100583D01*
Y106083D02*
X127067D01*
X122933Y103917D02*
X127067D01*
Y106083D01*
X122933Y103917D02*
Y106083D01*
Y95083D02*
X127067D01*
X122933Y92917D02*
X127067D01*
Y95083D01*
X122933Y92917D02*
Y95083D01*
X118417Y14933D02*
Y19067D01*
X120583Y14933D02*
Y19067D01*
X118417D02*
X120583D01*
X118417Y14933D02*
X120583D01*
X123417D02*
Y19067D01*
X125583Y14933D02*
Y19067D01*
X123417D02*
X125583D01*
X123417Y14933D02*
X125583D01*
X142083Y250933D02*
Y255067D01*
X139917Y250933D02*
Y255067D01*
Y250933D02*
X142083D01*
X139917Y255067D02*
X142083D01*
X139917Y265567D02*
X142083D01*
X139917Y261433D02*
X142083D01*
X139917D02*
Y265567D01*
X142083Y261433D02*
Y265567D01*
X127433Y220917D02*
X131567D01*
X127433Y223083D02*
X131567D01*
X127433Y220917D02*
Y223083D01*
X131567Y220917D02*
Y223083D01*
X52350Y193480D02*
X58650D01*
X52350Y178520D02*
X58650D01*
Y193480D01*
X52350Y178520D02*
Y193480D01*
X136472Y220976D02*
Y223024D01*
X140528Y220976D02*
Y223024D01*
X136472Y220976D02*
X140528D01*
X136472Y223024D02*
X140528D01*
X131472Y205476D02*
Y207524D01*
X135528Y205476D02*
Y207524D01*
X131472Y205476D02*
X135528D01*
X131472Y207524D02*
X135528D01*
Y201476D02*
Y203524D01*
X131472Y201476D02*
Y203524D01*
X135528D01*
X131472Y201476D02*
X135528D01*
X155563Y262539D02*
X163437D01*
X155563Y267461D02*
X163437D01*
X155563Y262539D02*
Y267461D01*
X163437Y262539D02*
Y267461D01*
X155563Y270539D02*
X163437D01*
X155563Y275461D02*
X163437D01*
X155563Y270539D02*
Y275461D01*
X163437Y270539D02*
Y275461D01*
D164*
X37500Y85286D02*
D03*
X20501Y85286D02*
D03*
D165*
X60286Y328000D02*
D03*
M02*
