G04*
G04 #@! TF.GenerationSoftware,Altium Limited,Altium Designer,22.7.1 (60)*
G04*
G04 Layer_Color=8388736*
%FSLAX25Y25*%
%MOIN*%
G70*
G04*
G04 #@! TF.SameCoordinates,24E4937F-31BC-4FDA-B361-D206D476748A*
G04*
G04*
G04 #@! TF.FilePolarity,Negative*
G04*
G01*
G75*
%ADD23R,0.07677X0.07284*%
G04:AMPARAMS|DCode=24|XSize=64.96mil|YSize=57.09mil|CornerRadius=14.76mil|HoleSize=0mil|Usage=FLASHONLY|Rotation=0.000|XOffset=0mil|YOffset=0mil|HoleType=Round|Shape=RoundedRectangle|*
%AMROUNDEDRECTD24*
21,1,0.06496,0.02756,0,0,0.0*
21,1,0.03543,0.05709,0,0,0.0*
1,1,0.02953,0.01772,-0.01378*
1,1,0.02953,-0.01772,-0.01378*
1,1,0.02953,-0.01772,0.01378*
1,1,0.02953,0.01772,0.01378*
%
%ADD24ROUNDEDRECTD24*%
%ADD25O,0.01772X0.05512*%
%ADD26R,0.04921X0.06890*%
%ADD27R,0.02559X0.06299*%
%ADD28R,0.06102X0.12795*%
%ADD29R,0.04134X0.13976*%
%ADD30R,0.01378X0.06299*%
%ADD31R,0.04921X0.11024*%
%ADD32R,0.03347X0.04921*%
%ADD33C,0.11811*%
%ADD34R,0.08071X0.06496*%
%ADD35O,0.08071X0.06496*%
%ADD36O,0.03740X0.06496*%
%ADD37C,0.04134*%
%ADD38C,0.23819*%
G04:AMPARAMS|DCode=39|XSize=45.28mil|YSize=124.02mil|CornerRadius=22.64mil|HoleSize=0mil|Usage=FLASHONLY|Rotation=0.000|XOffset=0mil|YOffset=0mil|HoleType=Round|Shape=RoundedRectangle|*
%AMROUNDEDRECTD39*
21,1,0.04528,0.07874,0,0,0.0*
21,1,0.00000,0.12402,0,0,0.0*
1,1,0.04528,0.00000,-0.03937*
1,1,0.04528,0.00000,-0.03937*
1,1,0.04528,0.00000,0.03937*
1,1,0.04528,0.00000,0.03937*
%
%ADD39ROUNDEDRECTD39*%
G04:AMPARAMS|DCode=40|XSize=47.64mil|YSize=124.02mil|CornerRadius=23.82mil|HoleSize=0mil|Usage=FLASHONLY|Rotation=0.000|XOffset=0mil|YOffset=0mil|HoleType=Round|Shape=RoundedRectangle|*
%AMROUNDEDRECTD40*
21,1,0.04764,0.07638,0,0,0.0*
21,1,0.00000,0.12402,0,0,0.0*
1,1,0.04764,0.00000,-0.03819*
1,1,0.04764,0.00000,-0.03819*
1,1,0.04764,0.00000,0.03819*
1,1,0.04764,0.00000,0.03819*
%
%ADD40ROUNDEDRECTD40*%
%ADD41C,0.10197*%
%ADD42C,0.13189*%
%ADD43C,0.01968*%
D23*
X61417Y8268D02*
D03*
X51968D02*
D03*
D24*
X69291Y17913D02*
D03*
X44094D02*
D03*
D25*
X56693Y18799D02*
D03*
X54134D02*
D03*
X51575D02*
D03*
X61811D02*
D03*
X59252D02*
D03*
D26*
X154331Y4161D02*
D03*
X132283D02*
D03*
X111024D02*
D03*
X88976D02*
D03*
D27*
X141339Y18067D02*
D03*
X145276D02*
D03*
X149213D02*
D03*
X137402D02*
D03*
X98032D02*
D03*
X101969D02*
D03*
X105905D02*
D03*
X94095D02*
D03*
D28*
X86811Y398425D02*
D03*
X113189D02*
D03*
X39567D02*
D03*
X65945D02*
D03*
X134055D02*
D03*
X160433D02*
D03*
D29*
X96063Y376969D02*
D03*
X103937D02*
D03*
X48819D02*
D03*
X56693D02*
D03*
X143307D02*
D03*
X151181D02*
D03*
D30*
X129528Y172343D02*
D03*
X127559D02*
D03*
X135433D02*
D03*
X131496D02*
D03*
X133465D02*
D03*
X125591D02*
D03*
X123622D02*
D03*
X119685D02*
D03*
X121653D02*
D03*
X117717D02*
D03*
X113779D02*
D03*
X111811D02*
D03*
X115748D02*
D03*
X103937D02*
D03*
X101969D02*
D03*
X109843D02*
D03*
X105905D02*
D03*
X107874D02*
D03*
X136417Y142618D02*
D03*
X134449D02*
D03*
X130512D02*
D03*
X132480D02*
D03*
X122638D02*
D03*
X120669D02*
D03*
X128543D02*
D03*
X124606D02*
D03*
X126575D02*
D03*
X112795D02*
D03*
X110827D02*
D03*
X118701D02*
D03*
X114764D02*
D03*
X116732D02*
D03*
X102953D02*
D03*
X100984D02*
D03*
X108858D02*
D03*
X104921D02*
D03*
X106890D02*
D03*
X94095Y172343D02*
D03*
X92126D02*
D03*
X100000D02*
D03*
X96063D02*
D03*
X98032D02*
D03*
X90158D02*
D03*
X88189D02*
D03*
X84252D02*
D03*
X86221D02*
D03*
X76378D02*
D03*
X74410D02*
D03*
X72441D02*
D03*
X82284D02*
D03*
X78347D02*
D03*
X80315D02*
D03*
X70472D02*
D03*
X68504D02*
D03*
X66535D02*
D03*
X64567D02*
D03*
X93110Y142618D02*
D03*
X91142D02*
D03*
X99016D02*
D03*
X95079D02*
D03*
X97047D02*
D03*
X89173D02*
D03*
X87205D02*
D03*
X83268D02*
D03*
X85236D02*
D03*
X75394D02*
D03*
X73425D02*
D03*
X81299D02*
D03*
X77362D02*
D03*
X79331D02*
D03*
X65551D02*
D03*
X63583D02*
D03*
X71457D02*
D03*
X67520D02*
D03*
X69488D02*
D03*
D31*
X140748Y145669D02*
D03*
X59252D02*
D03*
D32*
X34768Y143331D02*
D03*
Y159669D02*
D03*
X43232Y143331D02*
D03*
Y159669D02*
D03*
D33*
X188500Y28254D02*
D03*
X13246Y67500D02*
D03*
X27746Y392500D02*
D03*
D34*
X161000Y156500D02*
D03*
X5512Y366142D02*
D03*
X194488D02*
D03*
D35*
X161000Y146500D02*
D03*
X5512Y356142D02*
D03*
Y346142D02*
D03*
Y336142D02*
D03*
Y326142D02*
D03*
Y316142D02*
D03*
Y306142D02*
D03*
Y296142D02*
D03*
Y286142D02*
D03*
Y276142D02*
D03*
Y266142D02*
D03*
Y256142D02*
D03*
Y246142D02*
D03*
Y236142D02*
D03*
Y226142D02*
D03*
Y216142D02*
D03*
Y206142D02*
D03*
Y196142D02*
D03*
Y186142D02*
D03*
Y176142D02*
D03*
Y166142D02*
D03*
Y156142D02*
D03*
Y146142D02*
D03*
Y136142D02*
D03*
X194488Y356142D02*
D03*
Y346142D02*
D03*
Y336142D02*
D03*
Y326142D02*
D03*
Y316142D02*
D03*
Y306142D02*
D03*
Y296142D02*
D03*
Y286142D02*
D03*
Y276142D02*
D03*
Y266142D02*
D03*
Y256142D02*
D03*
Y246142D02*
D03*
Y236142D02*
D03*
Y226142D02*
D03*
Y216142D02*
D03*
Y206142D02*
D03*
Y196142D02*
D03*
Y186142D02*
D03*
Y176142D02*
D03*
Y166142D02*
D03*
Y156142D02*
D03*
Y146142D02*
D03*
Y136142D02*
D03*
D36*
X43701Y8268D02*
D03*
X69685D02*
D03*
D37*
X139370Y163386D02*
D03*
X60630D02*
D03*
D38*
X100000Y294291D02*
D03*
D39*
X25000Y121740D02*
D03*
X35000D02*
D03*
X45000D02*
D03*
X55000D02*
D03*
X65000D02*
D03*
X75000D02*
D03*
X85000D02*
D03*
X95000D02*
D03*
X105000D02*
D03*
X165000D02*
D03*
X155000D02*
D03*
X145000D02*
D03*
X135000D02*
D03*
X125000D02*
D03*
X115000D02*
D03*
X125000Y35740D02*
D03*
X115000D02*
D03*
X105000D02*
D03*
X95000D02*
D03*
X85000D02*
D03*
X75000D02*
D03*
X65000D02*
D03*
X55000D02*
D03*
X45000D02*
D03*
X35000D02*
D03*
X25000D02*
D03*
X135000D02*
D03*
D40*
X175000Y121740D02*
D03*
D41*
X10000Y43740D02*
D03*
Y114016D02*
D03*
X190000D02*
D03*
Y43740D02*
D03*
D42*
X186614Y391732D02*
D03*
X13386Y13780D02*
D03*
X186614D02*
D03*
X13386Y391732D02*
D03*
D43*
X62005Y300000D02*
D03*
X43500Y164500D02*
D03*
X43861Y147674D02*
D03*
X69500Y178000D02*
D03*
X70500Y165500D02*
D03*
X153000Y141000D02*
D03*
X145500Y138000D02*
D03*
X55000Y309000D02*
D03*
X134500Y302706D02*
D03*
X131500Y306500D02*
D03*
M02*
