G04*
G04 #@! TF.GenerationSoftware,Altium Limited,Altium Designer,22.7.1 (60)*
G04*
G04 Layer_Color=16711935*
%FSLAX25Y25*%
%MOIN*%
G70*
G04*
G04 #@! TF.SameCoordinates,24E4937F-31BC-4FDA-B361-D206D476748A*
G04*
G04*
G04 #@! TF.FilePolarity,Negative*
G04*
G01*
G75*
%ADD33C,0.11811*%
%ADD34R,0.08071X0.06496*%
%ADD35O,0.08071X0.06496*%
%ADD36O,0.03740X0.06496*%
%ADD37C,0.04134*%
%ADD38C,0.23819*%
G04:AMPARAMS|DCode=39|XSize=45.28mil|YSize=124.02mil|CornerRadius=22.64mil|HoleSize=0mil|Usage=FLASHONLY|Rotation=0.000|XOffset=0mil|YOffset=0mil|HoleType=Round|Shape=RoundedRectangle|*
%AMROUNDEDRECTD39*
21,1,0.04528,0.07874,0,0,0.0*
21,1,0.00000,0.12402,0,0,0.0*
1,1,0.04528,0.00000,-0.03937*
1,1,0.04528,0.00000,-0.03937*
1,1,0.04528,0.00000,0.03937*
1,1,0.04528,0.00000,0.03937*
%
%ADD39ROUNDEDRECTD39*%
G04:AMPARAMS|DCode=40|XSize=47.64mil|YSize=124.02mil|CornerRadius=23.82mil|HoleSize=0mil|Usage=FLASHONLY|Rotation=0.000|XOffset=0mil|YOffset=0mil|HoleType=Round|Shape=RoundedRectangle|*
%AMROUNDEDRECTD40*
21,1,0.04764,0.07638,0,0,0.0*
21,1,0.00000,0.12402,0,0,0.0*
1,1,0.04764,0.00000,-0.03819*
1,1,0.04764,0.00000,-0.03819*
1,1,0.04764,0.00000,0.03819*
1,1,0.04764,0.00000,0.03819*
%
%ADD40ROUNDEDRECTD40*%
%ADD41C,0.10197*%
%ADD42C,0.13189*%
%ADD43C,0.01968*%
%ADD112R,0.05709X0.05315*%
%ADD113R,0.06496X0.04134*%
G04:AMPARAMS|DCode=114|XSize=20.2mil|YSize=10.63mil|CornerRadius=2.07mil|HoleSize=0mil|Usage=FLASHONLY|Rotation=270.000|XOffset=0mil|YOffset=0mil|HoleType=Round|Shape=RoundedRectangle|*
%AMROUNDEDRECTD114*
21,1,0.02020,0.00650,0,0,270.0*
21,1,0.01606,0.01063,0,0,270.0*
1,1,0.00413,-0.00325,-0.00803*
1,1,0.00413,-0.00325,0.00803*
1,1,0.00413,0.00325,0.00803*
1,1,0.00413,0.00325,-0.00803*
%
%ADD114ROUNDEDRECTD114*%
G04:AMPARAMS|DCode=115|XSize=24.1mil|YSize=10.83mil|CornerRadius=2.09mil|HoleSize=0mil|Usage=FLASHONLY|Rotation=0.000|XOffset=0mil|YOffset=0mil|HoleType=Round|Shape=RoundedRectangle|*
%AMROUNDEDRECTD115*
21,1,0.02410,0.00664,0,0,0.0*
21,1,0.01991,0.01083,0,0,0.0*
1,1,0.00418,0.00996,-0.00332*
1,1,0.00418,-0.00996,-0.00332*
1,1,0.00418,-0.00996,0.00332*
1,1,0.00418,0.00996,0.00332*
%
%ADD115ROUNDEDRECTD115*%
G04:AMPARAMS|DCode=116|XSize=20.2mil|YSize=10.63mil|CornerRadius=2.07mil|HoleSize=0mil|Usage=FLASHONLY|Rotation=0.000|XOffset=0mil|YOffset=0mil|HoleType=Round|Shape=RoundedRectangle|*
%AMROUNDEDRECTD116*
21,1,0.02020,0.00650,0,0,0.0*
21,1,0.01606,0.01063,0,0,0.0*
1,1,0.00413,0.00803,-0.00325*
1,1,0.00413,-0.00803,-0.00325*
1,1,0.00413,-0.00803,0.00325*
1,1,0.00413,0.00803,0.00325*
%
%ADD116ROUNDEDRECTD116*%
%ADD117R,0.04134X0.06496*%
%ADD118R,0.09252X0.09252*%
%ADD119R,0.02165X0.01181*%
%ADD120R,0.03504X0.09646*%
%ADD121R,0.08858X0.13976*%
%ADD122C,0.01161*%
%ADD123R,0.05906X0.04724*%
%ADD124R,0.16535X0.18504*%
%ADD125R,0.00984X0.03248*%
%ADD126R,0.06417X0.11417*%
%ADD127O,0.02559X0.01142*%
%ADD128R,0.01378X0.04095*%
G04:AMPARAMS|DCode=129|XSize=46.06mil|YSize=12.6mil|CornerRadius=2.31mil|HoleSize=0mil|Usage=FLASHONLY|Rotation=0.000|XOffset=0mil|YOffset=0mil|HoleType=Round|Shape=RoundedRectangle|*
%AMROUNDEDRECTD129*
21,1,0.04606,0.00797,0,0,0.0*
21,1,0.04144,0.01260,0,0,0.0*
1,1,0.00463,0.02072,-0.00399*
1,1,0.00463,-0.02072,-0.00399*
1,1,0.00463,-0.02072,0.00399*
1,1,0.00463,0.02072,0.00399*
%
%ADD129ROUNDEDRECTD129*%
%ADD130R,0.02221X0.01925*%
%ADD131R,0.02221X0.01236*%
%ADD132R,0.04921X0.06693*%
%ADD133R,0.03150X0.02559*%
%ADD134R,0.01575X0.03347*%
%ADD135R,0.01575X0.03740*%
%ADD136R,0.02953X0.02953*%
%ADD137R,0.02165X0.05709*%
%ADD138R,0.02953X0.03150*%
%ADD139R,0.07677X0.01968*%
%ADD140R,0.02953X0.03740*%
%ADD141R,0.02756X0.04921*%
%ADD142R,0.09646X0.01968*%
%ADD143R,0.11614X0.01968*%
%ADD144R,0.02559X0.02559*%
%ADD145R,0.13583X0.04055*%
%ADD146R,0.04134X0.02953*%
%ADD147R,0.08661X0.09843*%
%ADD148R,0.03543X0.04528*%
%ADD149R,0.05315X0.07284*%
%ADD150R,0.04134X0.03740*%
%ADD151R,0.02559X0.02717*%
%ADD152R,0.07362X0.04921*%
%ADD153R,0.07284X0.05315*%
%ADD154R,0.02717X0.02559*%
%ADD155R,0.09843X0.08661*%
%ADD156R,0.02953X0.04134*%
%ADD157R,0.02559X0.03150*%
D33*
X172754Y27500D02*
D03*
X29254Y392000D02*
D03*
X177754Y379500D02*
D03*
D34*
X161000Y156500D02*
D03*
X5512Y366142D02*
D03*
X194488D02*
D03*
D35*
X161000Y146500D02*
D03*
X5512Y356142D02*
D03*
Y346142D02*
D03*
Y336142D02*
D03*
Y326142D02*
D03*
Y316142D02*
D03*
Y306142D02*
D03*
Y296142D02*
D03*
Y286142D02*
D03*
Y276142D02*
D03*
Y266142D02*
D03*
Y256142D02*
D03*
Y246142D02*
D03*
Y236142D02*
D03*
Y226142D02*
D03*
Y216142D02*
D03*
Y206142D02*
D03*
Y196142D02*
D03*
Y186142D02*
D03*
Y176142D02*
D03*
Y166142D02*
D03*
Y156142D02*
D03*
Y146142D02*
D03*
Y136142D02*
D03*
X194488Y356142D02*
D03*
Y346142D02*
D03*
Y336142D02*
D03*
Y326142D02*
D03*
Y316142D02*
D03*
Y306142D02*
D03*
Y296142D02*
D03*
Y286142D02*
D03*
Y276142D02*
D03*
Y266142D02*
D03*
Y256142D02*
D03*
Y246142D02*
D03*
Y236142D02*
D03*
Y226142D02*
D03*
Y216142D02*
D03*
Y206142D02*
D03*
Y196142D02*
D03*
Y186142D02*
D03*
Y176142D02*
D03*
Y166142D02*
D03*
Y156142D02*
D03*
Y146142D02*
D03*
Y136142D02*
D03*
D36*
X43701Y8268D02*
D03*
X69685D02*
D03*
D37*
X139370Y163386D02*
D03*
X60630D02*
D03*
D38*
X100000Y294291D02*
D03*
D39*
X25000Y121740D02*
D03*
X35000D02*
D03*
X45000D02*
D03*
X55000D02*
D03*
X65000D02*
D03*
X75000D02*
D03*
X85000D02*
D03*
X95000D02*
D03*
X105000D02*
D03*
X165000D02*
D03*
X155000D02*
D03*
X145000D02*
D03*
X135000D02*
D03*
X125000D02*
D03*
X115000D02*
D03*
X125000Y35740D02*
D03*
X115000D02*
D03*
X105000D02*
D03*
X95000D02*
D03*
X85000D02*
D03*
X75000D02*
D03*
X65000D02*
D03*
X55000D02*
D03*
X45000D02*
D03*
X35000D02*
D03*
X25000D02*
D03*
X135000D02*
D03*
D40*
X175000Y121740D02*
D03*
D41*
X10000Y43740D02*
D03*
Y114016D02*
D03*
X190000D02*
D03*
Y43740D02*
D03*
D42*
X186614Y391732D02*
D03*
X13386Y13780D02*
D03*
X186614D02*
D03*
X13386Y391732D02*
D03*
D43*
X62005Y300000D02*
D03*
X43500Y164500D02*
D03*
X43861Y147674D02*
D03*
X69500Y178000D02*
D03*
X70500Y165500D02*
D03*
X153000Y141000D02*
D03*
X145500Y138000D02*
D03*
X55000Y309000D02*
D03*
X134500Y302706D02*
D03*
X131500Y306500D02*
D03*
D112*
X110500Y216150D02*
D03*
Y209850D02*
D03*
X118500Y216150D02*
D03*
Y209850D02*
D03*
D113*
X143528Y148000D02*
D03*
X134472Y141110D02*
D03*
Y154890D02*
D03*
X65158Y307063D02*
D03*
X56102Y300173D02*
D03*
Y313953D02*
D03*
D114*
X84138Y105902D02*
D03*
X85713D02*
D03*
X87287D02*
D03*
X88862D02*
D03*
Y96098D02*
D03*
X87287D02*
D03*
X85713D02*
D03*
X84138D02*
D03*
D115*
X83370Y98638D02*
D03*
D116*
X83173Y100213D02*
D03*
Y101787D02*
D03*
Y103362D02*
D03*
X89827D02*
D03*
Y101787D02*
D03*
Y100213D02*
D03*
Y98638D02*
D03*
D117*
X139370Y306472D02*
D03*
X132480Y315528D02*
D03*
X146260D02*
D03*
D118*
X77500Y367358D02*
D03*
Y349642D02*
D03*
D119*
X146740Y327063D02*
D03*
X139260D02*
D03*
X146740Y329031D02*
D03*
X139260D02*
D03*
X146740Y331000D02*
D03*
X139260D02*
D03*
X146740Y332968D02*
D03*
X139260D02*
D03*
X146740Y334937D02*
D03*
X139260D02*
D03*
D120*
X143000Y331000D02*
D03*
D121*
X123216Y234000D02*
D03*
X137784D02*
D03*
D122*
X136925Y211276D02*
D03*
Y212850D02*
D03*
Y214425D02*
D03*
Y216000D02*
D03*
X138500Y211276D02*
D03*
Y212850D02*
D03*
Y214425D02*
D03*
Y216000D02*
D03*
D123*
X143366Y372764D02*
D03*
X151122D02*
D03*
X148122Y249827D02*
D03*
X155878D02*
D03*
X48878Y372764D02*
D03*
X56634D02*
D03*
X103878D02*
D03*
X96122D02*
D03*
D124*
X146744Y358000D02*
D03*
X152000Y235063D02*
D03*
X52756Y358000D02*
D03*
X100000D02*
D03*
D125*
X127284Y261087D02*
D03*
X129095D02*
D03*
X130905D02*
D03*
X132717D02*
D03*
Y246913D02*
D03*
X130905D02*
D03*
X129095D02*
D03*
X127284D02*
D03*
D126*
X130000Y254000D02*
D03*
D127*
X124488Y259906D02*
D03*
Y257937D02*
D03*
Y255968D02*
D03*
Y254000D02*
D03*
Y252031D02*
D03*
Y250063D02*
D03*
Y248095D02*
D03*
X135512D02*
D03*
Y250063D02*
D03*
Y252031D02*
D03*
Y254000D02*
D03*
Y255968D02*
D03*
Y257937D02*
D03*
Y259906D02*
D03*
D128*
X130032Y75331D02*
D03*
X132000D02*
D03*
X133968D02*
D03*
X132000Y81669D02*
D03*
X130032D02*
D03*
X133968D02*
D03*
D129*
X109968Y53047D02*
D03*
Y55016D02*
D03*
Y56984D02*
D03*
Y58953D02*
D03*
X121031D02*
D03*
Y56984D02*
D03*
Y55016D02*
D03*
Y53047D02*
D03*
D130*
X72453Y178766D02*
D03*
Y193234D02*
D03*
X66547D02*
D03*
Y178766D02*
D03*
X58453D02*
D03*
Y193234D02*
D03*
X52547D02*
D03*
Y178766D02*
D03*
D131*
X72453Y181079D02*
D03*
Y188953D02*
D03*
Y183047D02*
D03*
Y185016D02*
D03*
Y186984D02*
D03*
Y190921D02*
D03*
X66547D02*
D03*
Y186984D02*
D03*
Y185016D02*
D03*
Y183047D02*
D03*
Y188953D02*
D03*
Y181079D02*
D03*
X58453D02*
D03*
Y188953D02*
D03*
Y183047D02*
D03*
Y185016D02*
D03*
Y186984D02*
D03*
Y190921D02*
D03*
X52547D02*
D03*
Y186984D02*
D03*
Y185016D02*
D03*
Y183047D02*
D03*
Y188953D02*
D03*
Y181079D02*
D03*
D132*
X62512Y7283D02*
D03*
X51488D02*
D03*
D133*
X154736Y210500D02*
D03*
X159264D02*
D03*
X129736Y336500D02*
D03*
X134264D02*
D03*
X151736Y333000D02*
D03*
X156264D02*
D03*
Y327000D02*
D03*
X151736D02*
D03*
X127264Y99500D02*
D03*
X122736D02*
D03*
X127264Y105000D02*
D03*
X122736D02*
D03*
X127264Y94000D02*
D03*
X122736D02*
D03*
X127236Y222000D02*
D03*
X131764D02*
D03*
D134*
X143059Y198000D02*
D03*
X140500D02*
D03*
X137941D02*
D03*
Y190795D02*
D03*
X140500D02*
D03*
D135*
X143059Y190992D02*
D03*
D136*
X159055Y99410D02*
D03*
D137*
X140354Y91260D02*
D03*
Y73937D02*
D03*
D138*
X151969Y98721D02*
D03*
D139*
X168307Y100689D02*
D03*
Y56693D02*
D03*
D140*
X172165Y92598D02*
D03*
X184646Y92205D02*
D03*
Y82598D02*
D03*
X172165D02*
D03*
Y72598D02*
D03*
X184646Y72992D02*
D03*
D141*
X144587Y84764D02*
D03*
D142*
X148031Y56693D02*
D03*
D143*
X187402Y100689D02*
D03*
Y56693D02*
D03*
D144*
X191929Y87402D02*
D03*
Y77795D02*
D03*
D145*
X154500Y185835D02*
D03*
Y195165D02*
D03*
D146*
X52000Y165654D02*
D03*
Y172346D02*
D03*
D147*
X37500Y69035D02*
D03*
Y85965D02*
D03*
X20500D02*
D03*
Y69035D02*
D03*
D148*
X155858Y257000D02*
D03*
X163142D02*
D03*
X155858Y265000D02*
D03*
X163142D02*
D03*
X155858Y273000D02*
D03*
X163142D02*
D03*
D149*
X62402Y17857D02*
D03*
X50984D02*
D03*
D150*
X117500Y250842D02*
D03*
Y256157D02*
D03*
X128000Y211842D02*
D03*
Y217158D02*
D03*
X111500Y250842D02*
D03*
Y256157D02*
D03*
D151*
X156268Y281500D02*
D03*
X159732D02*
D03*
X137768Y341500D02*
D03*
X141232D02*
D03*
X40768Y21500D02*
D03*
X44232D02*
D03*
X42232Y159500D02*
D03*
X38768D02*
D03*
X147768Y202000D02*
D03*
X151232D02*
D03*
Y206000D02*
D03*
X147768D02*
D03*
X136232Y266500D02*
D03*
X132768D02*
D03*
X136768Y222000D02*
D03*
X140232D02*
D03*
X131768Y206500D02*
D03*
X135232D02*
D03*
X135232Y202500D02*
D03*
X131768D02*
D03*
D152*
X147000Y218386D02*
D03*
Y211614D02*
D03*
D153*
X124500Y373709D02*
D03*
Y362291D02*
D03*
D154*
X125000Y74768D02*
D03*
Y78232D02*
D03*
X133000Y96268D02*
D03*
Y99732D02*
D03*
Y107732D02*
D03*
Y104268D02*
D03*
Y88535D02*
D03*
Y92000D02*
D03*
X143000Y184465D02*
D03*
Y181000D02*
D03*
X139000D02*
D03*
Y184465D02*
D03*
D155*
X60965Y328000D02*
D03*
X44035D02*
D03*
D156*
X132346Y187500D02*
D03*
X125654D02*
D03*
D157*
X133000Y325736D02*
D03*
Y330264D02*
D03*
X125000Y88264D02*
D03*
Y83736D02*
D03*
X119500Y19264D02*
D03*
Y14736D02*
D03*
X124500Y19264D02*
D03*
Y14736D02*
D03*
X141000Y250736D02*
D03*
Y255264D02*
D03*
Y265764D02*
D03*
Y261236D02*
D03*
M02*
