G04*
G04 #@! TF.GenerationSoftware,Altium Limited,Altium Designer,24.5.2 (23)*
G04*
G04 Layer_Color=128*
%FSLAX25Y25*%
%MOIN*%
G70*
G04*
G04 #@! TF.SameCoordinates,14D8FD4F-CE48-4F7E-93F5-DD934605E96C*
G04*
G04*
G04 #@! TF.FilePolarity,Positive*
G04*
G01*
G75*
%ADD56C,0.00200*%
G36*
X246110Y-30393D02*
X245477D01*
Y-29492D01*
X246110D01*
Y-30393D01*
D02*
G37*
G36*
X271017Y-29386D02*
X271063D01*
X271123Y-29391D01*
X271187Y-29400D01*
X271257Y-29409D01*
X271331Y-29418D01*
X271414Y-29432D01*
X271580Y-29469D01*
X271746Y-29525D01*
X271830Y-29557D01*
X271913Y-29594D01*
X271917Y-29599D01*
X271931Y-29603D01*
X271954Y-29617D01*
X271982Y-29631D01*
X272019Y-29654D01*
X272061Y-29682D01*
X272107Y-29714D01*
X272162Y-29746D01*
X272273Y-29834D01*
X272389Y-29936D01*
X272504Y-30056D01*
X272615Y-30195D01*
X272620Y-30199D01*
X272629Y-30213D01*
X272643Y-30236D01*
X272661Y-30264D01*
X272684Y-30305D01*
X272712Y-30351D01*
X272740Y-30407D01*
X272772Y-30472D01*
X272804Y-30541D01*
X272837Y-30619D01*
X272874Y-30707D01*
X272906Y-30804D01*
X272943Y-30906D01*
X272975Y-31012D01*
X273003Y-31128D01*
X273031Y-31252D01*
X272416Y-31460D01*
Y-31456D01*
X272412Y-31437D01*
X272403Y-31409D01*
X272393Y-31373D01*
X272384Y-31331D01*
X272365Y-31280D01*
X272352Y-31220D01*
X272329Y-31160D01*
X272287Y-31031D01*
X272232Y-30901D01*
X272171Y-30777D01*
X272139Y-30716D01*
X272102Y-30666D01*
Y-30661D01*
X272093Y-30652D01*
X272084Y-30638D01*
X272070Y-30624D01*
X272024Y-30573D01*
X271968Y-30513D01*
X271894Y-30449D01*
X271811Y-30379D01*
X271709Y-30310D01*
X271599Y-30250D01*
X271594D01*
X271585Y-30245D01*
X271566Y-30236D01*
X271543Y-30227D01*
X271515Y-30213D01*
X271479Y-30204D01*
X271442Y-30190D01*
X271395Y-30171D01*
X271294Y-30144D01*
X271174Y-30121D01*
X271044Y-30102D01*
X270906Y-30097D01*
X270850D01*
X270813Y-30102D01*
X270762Y-30107D01*
X270707Y-30111D01*
X270642Y-30121D01*
X270573Y-30130D01*
X270499Y-30148D01*
X270421Y-30167D01*
X270342Y-30185D01*
X270259Y-30213D01*
X270176Y-30245D01*
X270093Y-30282D01*
X270014Y-30324D01*
X269935Y-30375D01*
X269931Y-30379D01*
X269917Y-30389D01*
X269899Y-30402D01*
X269866Y-30426D01*
X269834Y-30453D01*
X269792Y-30490D01*
X269751Y-30532D01*
X269700Y-30582D01*
X269649Y-30638D01*
X269598Y-30703D01*
X269543Y-30772D01*
X269487Y-30846D01*
X269432Y-30934D01*
X269381Y-31021D01*
X269330Y-31119D01*
X269279Y-31225D01*
X269275Y-31229D01*
X269270Y-31252D01*
X269256Y-31285D01*
X269242Y-31326D01*
X269224Y-31382D01*
X269201Y-31451D01*
X269178Y-31530D01*
X269159Y-31617D01*
X269136Y-31714D01*
X269113Y-31821D01*
X269090Y-31936D01*
X269072Y-32061D01*
X269058Y-32190D01*
X269044Y-32333D01*
X269039Y-32477D01*
X269035Y-32629D01*
Y-32634D01*
Y-32643D01*
Y-32662D01*
Y-32685D01*
Y-32712D01*
X269039Y-32749D01*
Y-32791D01*
X269044Y-32837D01*
X269048Y-32888D01*
X269053Y-32943D01*
X269062Y-33064D01*
X269081Y-33198D01*
X269099Y-33341D01*
X269127Y-33493D01*
X269164Y-33650D01*
X269205Y-33807D01*
X269256Y-33964D01*
X269316Y-34117D01*
X269386Y-34265D01*
X269469Y-34403D01*
X269561Y-34528D01*
X269566Y-34533D01*
X269584Y-34556D01*
X269617Y-34588D01*
X269658Y-34625D01*
X269709Y-34676D01*
X269774Y-34727D01*
X269848Y-34782D01*
X269931Y-34842D01*
X270028Y-34902D01*
X270129Y-34958D01*
X270245Y-35008D01*
X270365Y-35059D01*
X270499Y-35096D01*
X270638Y-35129D01*
X270785Y-35147D01*
X270938Y-35156D01*
X270980D01*
X271007Y-35152D01*
X271044D01*
X271090Y-35147D01*
X271137Y-35142D01*
X271192Y-35133D01*
X271252Y-35124D01*
X271317Y-35110D01*
X271460Y-35078D01*
X271608Y-35032D01*
X271765Y-34967D01*
X271770Y-34962D01*
X271783Y-34958D01*
X271807Y-34948D01*
X271834Y-34930D01*
X271871Y-34912D01*
X271913Y-34893D01*
X271959Y-34865D01*
X272010Y-34838D01*
X272116Y-34768D01*
X272232Y-34690D01*
X272342Y-34602D01*
X272444Y-34505D01*
Y-33327D01*
X270924D01*
Y-32583D01*
X273114Y-32578D01*
Y-34925D01*
X273109Y-34930D01*
X273091Y-34948D01*
X273063Y-34971D01*
X273026Y-35004D01*
X272980Y-35045D01*
X272925Y-35092D01*
X272865Y-35147D01*
X272795Y-35203D01*
X272721Y-35258D01*
X272638Y-35323D01*
X272550Y-35383D01*
X272463Y-35443D01*
X272269Y-35563D01*
X272171Y-35614D01*
X272070Y-35664D01*
X272065Y-35669D01*
X272047Y-35674D01*
X272019Y-35688D01*
X271977Y-35702D01*
X271927Y-35720D01*
X271871Y-35743D01*
X271807Y-35766D01*
X271733Y-35785D01*
X271649Y-35808D01*
X271566Y-35831D01*
X271474Y-35854D01*
X271377Y-35872D01*
X271178Y-35900D01*
X271072Y-35905D01*
X270966Y-35909D01*
X270933D01*
X270892Y-35905D01*
X270836D01*
X270772Y-35895D01*
X270693Y-35891D01*
X270610Y-35877D01*
X270513Y-35863D01*
X270411Y-35840D01*
X270300Y-35817D01*
X270189Y-35785D01*
X270074Y-35748D01*
X269958Y-35706D01*
X269843Y-35655D01*
X269727Y-35595D01*
X269612Y-35531D01*
X269607Y-35526D01*
X269584Y-35512D01*
X269557Y-35489D01*
X269515Y-35461D01*
X269464Y-35420D01*
X269409Y-35373D01*
X269344Y-35313D01*
X269275Y-35249D01*
X269201Y-35175D01*
X269122Y-35096D01*
X269044Y-35004D01*
X268965Y-34907D01*
X268891Y-34796D01*
X268813Y-34681D01*
X268743Y-34560D01*
X268674Y-34426D01*
X268670Y-34417D01*
X268660Y-34394D01*
X268642Y-34352D01*
X268619Y-34297D01*
X268596Y-34228D01*
X268563Y-34140D01*
X268536Y-34043D01*
X268503Y-33932D01*
X268471Y-33812D01*
X268439Y-33678D01*
X268406Y-33535D01*
X268383Y-33382D01*
X268360Y-33221D01*
X268341Y-33045D01*
X268332Y-32865D01*
X268328Y-32680D01*
Y-32675D01*
Y-32666D01*
Y-32652D01*
Y-32634D01*
Y-32611D01*
X268332Y-32578D01*
Y-32546D01*
Y-32504D01*
X268337Y-32417D01*
X268346Y-32310D01*
X268355Y-32195D01*
X268369Y-32066D01*
X268388Y-31932D01*
X268411Y-31784D01*
X268439Y-31636D01*
X268476Y-31483D01*
X268513Y-31331D01*
X268559Y-31174D01*
X268614Y-31026D01*
X268674Y-30878D01*
X268679Y-30869D01*
X268688Y-30846D01*
X268711Y-30804D01*
X268739Y-30753D01*
X268771Y-30689D01*
X268813Y-30615D01*
X268864Y-30536D01*
X268919Y-30449D01*
X268979Y-30356D01*
X269048Y-30264D01*
X269122Y-30171D01*
X269205Y-30079D01*
X269293Y-29987D01*
X269386Y-29899D01*
X269483Y-29820D01*
X269584Y-29746D01*
X269589Y-29742D01*
X269612Y-29732D01*
X269640Y-29714D01*
X269686Y-29691D01*
X269737Y-29663D01*
X269801Y-29631D01*
X269880Y-29599D01*
X269963Y-29561D01*
X270056Y-29529D01*
X270157Y-29497D01*
X270268Y-29465D01*
X270384Y-29437D01*
X270508Y-29414D01*
X270642Y-29395D01*
X270776Y-29386D01*
X270919Y-29381D01*
X270975D01*
X271017Y-29386D01*
D02*
G37*
G36*
X265389D02*
X265436D01*
X265496Y-29391D01*
X265560Y-29400D01*
X265630Y-29409D01*
X265704Y-29418D01*
X265787Y-29432D01*
X265953Y-29469D01*
X266119Y-29525D01*
X266202Y-29557D01*
X266286Y-29594D01*
X266290Y-29599D01*
X266304Y-29603D01*
X266327Y-29617D01*
X266355Y-29631D01*
X266392Y-29654D01*
X266434Y-29682D01*
X266480Y-29714D01*
X266535Y-29746D01*
X266646Y-29834D01*
X266761Y-29936D01*
X266877Y-30056D01*
X266988Y-30195D01*
X266992Y-30199D01*
X267002Y-30213D01*
X267016Y-30236D01*
X267034Y-30264D01*
X267057Y-30305D01*
X267085Y-30351D01*
X267113Y-30407D01*
X267145Y-30472D01*
X267177Y-30541D01*
X267210Y-30619D01*
X267247Y-30707D01*
X267279Y-30804D01*
X267316Y-30906D01*
X267348Y-31012D01*
X267376Y-31128D01*
X267404Y-31252D01*
X266789Y-31460D01*
Y-31456D01*
X266785Y-31437D01*
X266775Y-31409D01*
X266766Y-31373D01*
X266757Y-31331D01*
X266738Y-31280D01*
X266724Y-31220D01*
X266701Y-31160D01*
X266660Y-31031D01*
X266604Y-30901D01*
X266544Y-30777D01*
X266512Y-30716D01*
X266475Y-30666D01*
Y-30661D01*
X266466Y-30652D01*
X266457Y-30638D01*
X266443Y-30624D01*
X266396Y-30573D01*
X266341Y-30513D01*
X266267Y-30449D01*
X266184Y-30379D01*
X266082Y-30310D01*
X265971Y-30250D01*
X265967D01*
X265958Y-30245D01*
X265939Y-30236D01*
X265916Y-30227D01*
X265888Y-30213D01*
X265851Y-30204D01*
X265814Y-30190D01*
X265768Y-30171D01*
X265667Y-30144D01*
X265546Y-30121D01*
X265417Y-30102D01*
X265279Y-30097D01*
X265223D01*
X265186Y-30102D01*
X265135Y-30107D01*
X265080Y-30111D01*
X265015Y-30121D01*
X264946Y-30130D01*
X264872Y-30148D01*
X264793Y-30167D01*
X264715Y-30185D01*
X264632Y-30213D01*
X264548Y-30245D01*
X264465Y-30282D01*
X264387Y-30324D01*
X264308Y-30375D01*
X264304Y-30379D01*
X264290Y-30389D01*
X264271Y-30402D01*
X264239Y-30426D01*
X264207Y-30453D01*
X264165Y-30490D01*
X264124Y-30532D01*
X264073Y-30582D01*
X264022Y-30638D01*
X263971Y-30703D01*
X263916Y-30772D01*
X263860Y-30846D01*
X263805Y-30934D01*
X263754Y-31021D01*
X263703Y-31119D01*
X263652Y-31225D01*
X263648Y-31229D01*
X263643Y-31252D01*
X263629Y-31285D01*
X263615Y-31326D01*
X263597Y-31382D01*
X263574Y-31451D01*
X263551Y-31530D01*
X263532Y-31617D01*
X263509Y-31714D01*
X263486Y-31821D01*
X263463Y-31936D01*
X263444Y-32061D01*
X263431Y-32190D01*
X263417Y-32333D01*
X263412Y-32477D01*
X263407Y-32629D01*
Y-32634D01*
Y-32643D01*
Y-32662D01*
Y-32685D01*
Y-32712D01*
X263412Y-32749D01*
Y-32791D01*
X263417Y-32837D01*
X263421Y-32888D01*
X263426Y-32943D01*
X263435Y-33064D01*
X263454Y-33198D01*
X263472Y-33341D01*
X263500Y-33493D01*
X263537Y-33650D01*
X263578Y-33807D01*
X263629Y-33964D01*
X263689Y-34117D01*
X263758Y-34265D01*
X263842Y-34403D01*
X263934Y-34528D01*
X263939Y-34533D01*
X263957Y-34556D01*
X263989Y-34588D01*
X264031Y-34625D01*
X264082Y-34676D01*
X264147Y-34727D01*
X264220Y-34782D01*
X264304Y-34842D01*
X264401Y-34902D01*
X264502Y-34958D01*
X264618Y-35008D01*
X264738Y-35059D01*
X264872Y-35096D01*
X265010Y-35129D01*
X265158Y-35147D01*
X265311Y-35156D01*
X265352D01*
X265380Y-35152D01*
X265417D01*
X265463Y-35147D01*
X265510Y-35142D01*
X265565Y-35133D01*
X265625Y-35124D01*
X265690Y-35110D01*
X265833Y-35078D01*
X265981Y-35032D01*
X266138Y-34967D01*
X266142Y-34962D01*
X266156Y-34958D01*
X266179Y-34948D01*
X266207Y-34930D01*
X266244Y-34912D01*
X266286Y-34893D01*
X266332Y-34865D01*
X266383Y-34838D01*
X266489Y-34768D01*
X266604Y-34690D01*
X266715Y-34602D01*
X266817Y-34505D01*
Y-33327D01*
X265297D01*
Y-32583D01*
X267487Y-32578D01*
Y-34925D01*
X267482Y-34930D01*
X267464Y-34948D01*
X267436Y-34971D01*
X267399Y-35004D01*
X267353Y-35045D01*
X267297Y-35092D01*
X267237Y-35147D01*
X267168Y-35203D01*
X267094Y-35258D01*
X267011Y-35323D01*
X266923Y-35383D01*
X266835Y-35443D01*
X266641Y-35563D01*
X266544Y-35614D01*
X266443Y-35664D01*
X266438Y-35669D01*
X266420Y-35674D01*
X266392Y-35688D01*
X266350Y-35702D01*
X266300Y-35720D01*
X266244Y-35743D01*
X266179Y-35766D01*
X266106Y-35785D01*
X266022Y-35808D01*
X265939Y-35831D01*
X265847Y-35854D01*
X265750Y-35872D01*
X265551Y-35900D01*
X265445Y-35905D01*
X265338Y-35909D01*
X265306D01*
X265265Y-35905D01*
X265209D01*
X265144Y-35895D01*
X265066Y-35891D01*
X264983Y-35877D01*
X264886Y-35863D01*
X264784Y-35840D01*
X264673Y-35817D01*
X264562Y-35785D01*
X264447Y-35748D01*
X264331Y-35706D01*
X264216Y-35655D01*
X264100Y-35595D01*
X263985Y-35531D01*
X263980Y-35526D01*
X263957Y-35512D01*
X263929Y-35489D01*
X263888Y-35461D01*
X263837Y-35420D01*
X263782Y-35373D01*
X263717Y-35313D01*
X263648Y-35249D01*
X263574Y-35175D01*
X263495Y-35096D01*
X263417Y-35004D01*
X263338Y-34907D01*
X263264Y-34796D01*
X263186Y-34681D01*
X263116Y-34560D01*
X263047Y-34426D01*
X263042Y-34417D01*
X263033Y-34394D01*
X263015Y-34352D01*
X262992Y-34297D01*
X262968Y-34228D01*
X262936Y-34140D01*
X262908Y-34043D01*
X262876Y-33932D01*
X262844Y-33812D01*
X262811Y-33678D01*
X262779Y-33535D01*
X262756Y-33382D01*
X262733Y-33221D01*
X262714Y-33045D01*
X262705Y-32865D01*
X262701Y-32680D01*
Y-32675D01*
Y-32666D01*
Y-32652D01*
Y-32634D01*
Y-32611D01*
X262705Y-32578D01*
Y-32546D01*
Y-32504D01*
X262710Y-32417D01*
X262719Y-32310D01*
X262728Y-32195D01*
X262742Y-32066D01*
X262761Y-31932D01*
X262784Y-31784D01*
X262811Y-31636D01*
X262848Y-31483D01*
X262885Y-31331D01*
X262931Y-31174D01*
X262987Y-31026D01*
X263047Y-30878D01*
X263052Y-30869D01*
X263061Y-30846D01*
X263084Y-30804D01*
X263112Y-30753D01*
X263144Y-30689D01*
X263186Y-30615D01*
X263236Y-30536D01*
X263292Y-30449D01*
X263352Y-30356D01*
X263421Y-30264D01*
X263495Y-30171D01*
X263578Y-30079D01*
X263666Y-29987D01*
X263758Y-29899D01*
X263856Y-29820D01*
X263957Y-29746D01*
X263962Y-29742D01*
X263985Y-29732D01*
X264013Y-29714D01*
X264059Y-29691D01*
X264110Y-29663D01*
X264174Y-29631D01*
X264253Y-29599D01*
X264336Y-29561D01*
X264428Y-29529D01*
X264530Y-29497D01*
X264641Y-29465D01*
X264756Y-29437D01*
X264881Y-29414D01*
X265015Y-29395D01*
X265149Y-29386D01*
X265292Y-29381D01*
X265348D01*
X265389Y-29386D01*
D02*
G37*
G36*
X254759Y-35803D02*
X254163D01*
X252740Y-31234D01*
X253414D01*
X254218Y-33969D01*
Y-33974D01*
X254223Y-33988D01*
X254232Y-34015D01*
X254241Y-34048D01*
X254255Y-34089D01*
X254269Y-34140D01*
X254283Y-34195D01*
X254301Y-34260D01*
X254320Y-34325D01*
X254338Y-34399D01*
X254380Y-34556D01*
X254417Y-34718D01*
X254458Y-34888D01*
Y-34884D01*
X254463Y-34870D01*
X254468Y-34851D01*
X254472Y-34824D01*
X254482Y-34791D01*
X254491Y-34750D01*
X254505Y-34699D01*
X254519Y-34644D01*
X254532Y-34584D01*
X254551Y-34519D01*
X254569Y-34449D01*
X254592Y-34371D01*
X254615Y-34292D01*
X254639Y-34205D01*
X254689Y-34025D01*
X255530Y-31234D01*
X256182D01*
X254759Y-35803D01*
D02*
G37*
G36*
X240451D02*
X239790D01*
Y-30523D01*
X238284Y-35803D01*
X237665D01*
X236173Y-30435D01*
Y-35803D01*
X235512D01*
Y-29492D01*
X236542D01*
X237766Y-33964D01*
X238011Y-34898D01*
Y-34893D01*
X238016Y-34879D01*
X238020Y-34861D01*
X238030Y-34833D01*
X238039Y-34796D01*
X238048Y-34750D01*
X238067Y-34699D01*
X238081Y-34639D01*
X238099Y-34570D01*
X238118Y-34496D01*
X238141Y-34413D01*
X238168Y-34325D01*
X238196Y-34223D01*
X238224Y-34117D01*
X238256Y-34006D01*
X238288Y-33886D01*
X239527Y-29492D01*
X240451D01*
Y-35803D01*
D02*
G37*
G36*
X276233Y-35803D02*
X275595D01*
Y-30869D01*
X275590Y-30874D01*
X275586Y-30878D01*
X275572Y-30897D01*
X275553Y-30915D01*
X275530Y-30938D01*
X275507Y-30966D01*
X275438Y-31031D01*
X275355Y-31114D01*
X275253Y-31202D01*
X275138Y-31299D01*
X275004Y-31400D01*
X274999Y-31405D01*
X274985Y-31414D01*
X274967Y-31428D01*
X274939Y-31442D01*
X274907Y-31465D01*
X274870Y-31493D01*
X274828Y-31520D01*
X274782Y-31553D01*
X274676Y-31617D01*
X274560Y-31682D01*
X274445Y-31747D01*
X274324Y-31802D01*
Y-31054D01*
X274329Y-31049D01*
X274347Y-31040D01*
X274375Y-31021D01*
X274412Y-30998D01*
X274458Y-30971D01*
X274509Y-30934D01*
X274569Y-30897D01*
X274634Y-30850D01*
X274708Y-30800D01*
X274782Y-30744D01*
X274934Y-30615D01*
X275091Y-30476D01*
X275248Y-30319D01*
X275253Y-30315D01*
X275267Y-30301D01*
X275285Y-30278D01*
X275313Y-30245D01*
X275350Y-30204D01*
X275387Y-30158D01*
X275429Y-30107D01*
X275470Y-30051D01*
X275516Y-29987D01*
X275567Y-29922D01*
X275660Y-29779D01*
X275747Y-29626D01*
X275784Y-29548D01*
X275817Y-29469D01*
X276233D01*
Y-35803D01*
D02*
G37*
G36*
X261680Y-35803D02*
X260954D01*
Y-34921D01*
X261680D01*
Y-35803D01*
D02*
G37*
G36*
X259231Y-33581D02*
X259933D01*
Y-34292D01*
X259231D01*
Y-35803D01*
X258593D01*
Y-34292D01*
X256353D01*
Y-33581D01*
X258709Y-29492D01*
X259231D01*
Y-33581D01*
D02*
G37*
G36*
X248679Y-31137D02*
X248730Y-31142D01*
X248794Y-31151D01*
X248868Y-31165D01*
X248951Y-31183D01*
X249044Y-31206D01*
X249141Y-31239D01*
X249238Y-31280D01*
X249344Y-31331D01*
X249450Y-31386D01*
X249557Y-31456D01*
X249658Y-31539D01*
X249760Y-31631D01*
X249857Y-31738D01*
X249862Y-31742D01*
X249880Y-31765D01*
X249903Y-31802D01*
X249935Y-31848D01*
X249972Y-31913D01*
X250019Y-31987D01*
X250060Y-32075D01*
X250111Y-32181D01*
X250157Y-32297D01*
X250203Y-32426D01*
X250245Y-32569D01*
X250282Y-32722D01*
X250314Y-32893D01*
X250337Y-33073D01*
X250356Y-33267D01*
X250360Y-33475D01*
Y-33479D01*
Y-33489D01*
Y-33507D01*
Y-33530D01*
Y-33558D01*
X250356Y-33590D01*
Y-33632D01*
X250351Y-33678D01*
X250347Y-33780D01*
X250333Y-33895D01*
X250319Y-34025D01*
X250300Y-34168D01*
X250273Y-34315D01*
X250240Y-34463D01*
X250199Y-34616D01*
X250148Y-34768D01*
X250093Y-34916D01*
X250028Y-35059D01*
X249949Y-35189D01*
X249862Y-35309D01*
X249857Y-35313D01*
X249838Y-35337D01*
X249811Y-35364D01*
X249774Y-35401D01*
X249723Y-35447D01*
X249663Y-35498D01*
X249598Y-35554D01*
X249520Y-35609D01*
X249432Y-35665D01*
X249340Y-35720D01*
X249233Y-35771D01*
X249122Y-35817D01*
X249002Y-35854D01*
X248878Y-35882D01*
X248744Y-35905D01*
X248605Y-35909D01*
X248573D01*
X248531Y-35905D01*
X248480Y-35900D01*
X248415Y-35891D01*
X248342Y-35877D01*
X248258Y-35859D01*
X248166Y-35835D01*
X248069Y-35803D01*
X247967Y-35762D01*
X247861Y-35715D01*
X247759Y-35655D01*
X247653Y-35586D01*
X247547Y-35508D01*
X247445Y-35415D01*
X247348Y-35309D01*
X247344Y-35300D01*
X247325Y-35281D01*
X247302Y-35244D01*
X247270Y-35193D01*
X247233Y-35133D01*
X247191Y-35055D01*
X247145Y-34962D01*
X247099Y-34856D01*
X247053Y-34741D01*
X247006Y-34607D01*
X246965Y-34459D01*
X246928Y-34297D01*
X246896Y-34126D01*
X246872Y-33937D01*
X246854Y-33738D01*
X246849Y-33521D01*
Y-33516D01*
Y-33507D01*
Y-33493D01*
Y-33470D01*
Y-33442D01*
X246854Y-33405D01*
Y-33368D01*
X246859Y-33327D01*
X246863Y-33230D01*
X246877Y-33114D01*
X246891Y-32990D01*
X246909Y-32856D01*
X246937Y-32712D01*
X246969Y-32564D01*
X247011Y-32417D01*
X247057Y-32269D01*
X247113Y-32126D01*
X247182Y-31987D01*
X247256Y-31858D01*
X247344Y-31738D01*
X247348Y-31728D01*
X247367Y-31710D01*
X247394Y-31682D01*
X247431Y-31640D01*
X247482Y-31599D01*
X247542Y-31548D01*
X247612Y-31493D01*
X247690Y-31433D01*
X247773Y-31377D01*
X247870Y-31322D01*
X247977Y-31271D01*
X248087Y-31225D01*
X248208Y-31188D01*
X248332Y-31160D01*
X248466Y-31137D01*
X248605Y-31132D01*
X248637D01*
X248679Y-31137D01*
D02*
G37*
G36*
X243052D02*
X243103Y-31142D01*
X243167Y-31151D01*
X243241Y-31165D01*
X243324Y-31183D01*
X243417Y-31206D01*
X243514Y-31239D01*
X243611Y-31280D01*
X243717Y-31331D01*
X243823Y-31386D01*
X243929Y-31456D01*
X244031Y-31539D01*
X244133Y-31631D01*
X244230Y-31738D01*
X244234Y-31742D01*
X244253Y-31765D01*
X244276Y-31802D01*
X244308Y-31848D01*
X244345Y-31913D01*
X244391Y-31987D01*
X244433Y-32075D01*
X244484Y-32181D01*
X244530Y-32297D01*
X244576Y-32426D01*
X244618Y-32569D01*
X244655Y-32722D01*
X244687Y-32893D01*
X244710Y-33073D01*
X244729Y-33267D01*
X244733Y-33475D01*
Y-33479D01*
Y-33489D01*
Y-33507D01*
Y-33530D01*
Y-33558D01*
X244729Y-33590D01*
Y-33632D01*
X244724Y-33678D01*
X244720Y-33780D01*
X244706Y-33895D01*
X244692Y-34025D01*
X244673Y-34168D01*
X244646Y-34315D01*
X244613Y-34463D01*
X244572Y-34616D01*
X244521Y-34768D01*
X244465Y-34916D01*
X244401Y-35059D01*
X244322Y-35189D01*
X244234Y-35309D01*
X244230Y-35313D01*
X244211Y-35337D01*
X244184Y-35364D01*
X244147Y-35401D01*
X244096Y-35447D01*
X244036Y-35498D01*
X243971Y-35554D01*
X243893Y-35609D01*
X243805Y-35665D01*
X243712Y-35720D01*
X243606Y-35771D01*
X243495Y-35817D01*
X243375Y-35854D01*
X243250Y-35882D01*
X243116Y-35905D01*
X242978Y-35909D01*
X242945D01*
X242904Y-35905D01*
X242853Y-35900D01*
X242788Y-35891D01*
X242714Y-35877D01*
X242631Y-35859D01*
X242539Y-35835D01*
X242442Y-35803D01*
X242340Y-35762D01*
X242234Y-35715D01*
X242132Y-35655D01*
X242026Y-35586D01*
X241920Y-35508D01*
X241818Y-35415D01*
X241721Y-35309D01*
X241717Y-35300D01*
X241698Y-35281D01*
X241675Y-35244D01*
X241642Y-35193D01*
X241606Y-35133D01*
X241564Y-35055D01*
X241518Y-34962D01*
X241472Y-34856D01*
X241425Y-34741D01*
X241379Y-34607D01*
X241338Y-34459D01*
X241301Y-34297D01*
X241268Y-34126D01*
X241245Y-33937D01*
X241227Y-33738D01*
X241222Y-33521D01*
Y-33516D01*
Y-33507D01*
Y-33493D01*
Y-33470D01*
Y-33442D01*
X241227Y-33405D01*
Y-33368D01*
X241231Y-33327D01*
X241236Y-33230D01*
X241250Y-33114D01*
X241264Y-32990D01*
X241282Y-32856D01*
X241310Y-32712D01*
X241342Y-32564D01*
X241384Y-32417D01*
X241430Y-32269D01*
X241486Y-32126D01*
X241555Y-31987D01*
X241629Y-31858D01*
X241717Y-31738D01*
X241721Y-31728D01*
X241740Y-31710D01*
X241767Y-31682D01*
X241804Y-31640D01*
X241855Y-31599D01*
X241915Y-31548D01*
X241984Y-31493D01*
X242063Y-31433D01*
X242146Y-31377D01*
X242243Y-31322D01*
X242349Y-31271D01*
X242460Y-31225D01*
X242580Y-31188D01*
X242705Y-31160D01*
X242839Y-31137D01*
X242978Y-31132D01*
X243010D01*
X243052Y-31137D01*
D02*
G37*
G36*
X246110Y-36048D02*
Y-36053D01*
Y-36057D01*
Y-36071D01*
Y-36090D01*
Y-36136D01*
X246106Y-36200D01*
X246101Y-36274D01*
X246096Y-36362D01*
X246092Y-36455D01*
X246082Y-36556D01*
X246050Y-36769D01*
X246032Y-36875D01*
X246008Y-36977D01*
X245981Y-37074D01*
X245948Y-37166D01*
X245911Y-37249D01*
X245870Y-37319D01*
X245865Y-37323D01*
X245861Y-37332D01*
X245847Y-37351D01*
X245824Y-37369D01*
X245801Y-37397D01*
X245768Y-37425D01*
X245736Y-37457D01*
X245694Y-37485D01*
X245648Y-37517D01*
X245593Y-37549D01*
X245537Y-37577D01*
X245473Y-37605D01*
X245408Y-37623D01*
X245334Y-37642D01*
X245255Y-37651D01*
X245172Y-37656D01*
X245131D01*
X245080Y-37651D01*
X245015Y-37646D01*
X244937Y-37637D01*
X244853Y-37619D01*
X244766Y-37600D01*
X244673Y-37573D01*
X244793Y-36912D01*
X244803Y-36917D01*
X244826Y-36921D01*
X244858Y-36930D01*
X244900Y-36944D01*
X244951Y-36958D01*
X244997Y-36967D01*
X245047Y-36972D01*
X245089Y-36977D01*
X245098D01*
X245121Y-36972D01*
X245158Y-36967D01*
X245200Y-36958D01*
X245246Y-36935D01*
X245297Y-36907D01*
X245343Y-36870D01*
X245380Y-36815D01*
X245385Y-36806D01*
X245389Y-36796D01*
X245394Y-36783D01*
X245403Y-36759D01*
X245412Y-36732D01*
X245422Y-36699D01*
X245431Y-36658D01*
X245436Y-36612D01*
X245445Y-36556D01*
X245454Y-36492D01*
X245463Y-36418D01*
X245468Y-36339D01*
X245473Y-36247D01*
X245477Y-36145D01*
Y-36034D01*
Y-31234D01*
X246110D01*
Y-36048D01*
D02*
G37*
G36*
X260178Y-20384D02*
X259545D01*
Y-19492D01*
X260178D01*
Y-20384D01*
D02*
G37*
G36*
X243699D02*
X243066D01*
Y-19492D01*
X243699D01*
Y-20384D01*
D02*
G37*
G36*
X252518Y-19386D02*
X252564D01*
X252624Y-19391D01*
X252689Y-19400D01*
X252758Y-19409D01*
X252832Y-19418D01*
X252915Y-19432D01*
X253082Y-19469D01*
X253248Y-19525D01*
X253331Y-19557D01*
X253414Y-19594D01*
X253419Y-19599D01*
X253433Y-19603D01*
X253456Y-19617D01*
X253484Y-19631D01*
X253521Y-19654D01*
X253562Y-19682D01*
X253608Y-19714D01*
X253664Y-19746D01*
X253775Y-19834D01*
X253890Y-19936D01*
X254006Y-20056D01*
X254117Y-20195D01*
X254121Y-20199D01*
X254130Y-20213D01*
X254144Y-20236D01*
X254163Y-20264D01*
X254186Y-20305D01*
X254214Y-20352D01*
X254241Y-20407D01*
X254274Y-20472D01*
X254306Y-20541D01*
X254338Y-20619D01*
X254375Y-20707D01*
X254408Y-20804D01*
X254445Y-20906D01*
X254477Y-21012D01*
X254505Y-21128D01*
X254532Y-21252D01*
X253918Y-21460D01*
Y-21456D01*
X253913Y-21437D01*
X253904Y-21409D01*
X253895Y-21373D01*
X253886Y-21331D01*
X253867Y-21280D01*
X253853Y-21220D01*
X253830Y-21160D01*
X253788Y-21031D01*
X253733Y-20901D01*
X253673Y-20777D01*
X253641Y-20717D01*
X253604Y-20666D01*
Y-20661D01*
X253594Y-20652D01*
X253585Y-20638D01*
X253571Y-20624D01*
X253525Y-20573D01*
X253470Y-20513D01*
X253396Y-20449D01*
X253313Y-20379D01*
X253211Y-20310D01*
X253100Y-20250D01*
X253096D01*
X253086Y-20245D01*
X253068Y-20236D01*
X253045Y-20227D01*
X253017Y-20213D01*
X252980Y-20204D01*
X252943Y-20190D01*
X252897Y-20171D01*
X252795Y-20144D01*
X252675Y-20121D01*
X252546Y-20102D01*
X252407Y-20098D01*
X252352D01*
X252315Y-20102D01*
X252264Y-20107D01*
X252208Y-20111D01*
X252144Y-20121D01*
X252075Y-20130D01*
X252001Y-20148D01*
X251922Y-20167D01*
X251844Y-20185D01*
X251760Y-20213D01*
X251677Y-20245D01*
X251594Y-20282D01*
X251516Y-20324D01*
X251437Y-20375D01*
X251432Y-20379D01*
X251418Y-20389D01*
X251400Y-20402D01*
X251368Y-20425D01*
X251335Y-20453D01*
X251294Y-20490D01*
X251252Y-20532D01*
X251201Y-20583D01*
X251150Y-20638D01*
X251100Y-20703D01*
X251044Y-20772D01*
X250989Y-20846D01*
X250933Y-20934D01*
X250883Y-21021D01*
X250832Y-21118D01*
X250781Y-21225D01*
X250776Y-21229D01*
X250772Y-21252D01*
X250758Y-21285D01*
X250744Y-21326D01*
X250726Y-21382D01*
X250702Y-21451D01*
X250679Y-21530D01*
X250661Y-21617D01*
X250638Y-21714D01*
X250615Y-21821D01*
X250591Y-21936D01*
X250573Y-22061D01*
X250559Y-22190D01*
X250545Y-22333D01*
X250541Y-22477D01*
X250536Y-22629D01*
Y-22634D01*
Y-22643D01*
Y-22661D01*
Y-22685D01*
Y-22712D01*
X250541Y-22749D01*
Y-22791D01*
X250545Y-22837D01*
X250550Y-22888D01*
X250554Y-22943D01*
X250564Y-23064D01*
X250582Y-23198D01*
X250601Y-23341D01*
X250628Y-23493D01*
X250665Y-23650D01*
X250707Y-23807D01*
X250758Y-23964D01*
X250818Y-24117D01*
X250887Y-24265D01*
X250970Y-24403D01*
X251063Y-24528D01*
X251067Y-24533D01*
X251086Y-24556D01*
X251118Y-24588D01*
X251160Y-24625D01*
X251211Y-24676D01*
X251275Y-24727D01*
X251349Y-24782D01*
X251432Y-24842D01*
X251529Y-24902D01*
X251631Y-24958D01*
X251747Y-25008D01*
X251867Y-25059D01*
X252001Y-25096D01*
X252139Y-25129D01*
X252287Y-25147D01*
X252439Y-25156D01*
X252481D01*
X252509Y-25152D01*
X252546D01*
X252592Y-25147D01*
X252638Y-25142D01*
X252694Y-25133D01*
X252754Y-25124D01*
X252818Y-25110D01*
X252961Y-25078D01*
X253109Y-25032D01*
X253267Y-24967D01*
X253271Y-24962D01*
X253285Y-24958D01*
X253308Y-24948D01*
X253336Y-24930D01*
X253373Y-24912D01*
X253414Y-24893D01*
X253461Y-24865D01*
X253511Y-24838D01*
X253618Y-24768D01*
X253733Y-24690D01*
X253844Y-24602D01*
X253946Y-24505D01*
Y-23327D01*
X252426D01*
Y-22583D01*
X254615Y-22578D01*
Y-24925D01*
X254611Y-24930D01*
X254592Y-24948D01*
X254565Y-24972D01*
X254528Y-25004D01*
X254482Y-25045D01*
X254426Y-25092D01*
X254366Y-25147D01*
X254297Y-25203D01*
X254223Y-25258D01*
X254140Y-25323D01*
X254052Y-25383D01*
X253964Y-25443D01*
X253770Y-25563D01*
X253673Y-25614D01*
X253571Y-25665D01*
X253567Y-25669D01*
X253548Y-25674D01*
X253521Y-25688D01*
X253479Y-25701D01*
X253428Y-25720D01*
X253373Y-25743D01*
X253308Y-25766D01*
X253234Y-25785D01*
X253151Y-25808D01*
X253068Y-25831D01*
X252975Y-25854D01*
X252878Y-25872D01*
X252680Y-25900D01*
X252573Y-25905D01*
X252467Y-25909D01*
X252435D01*
X252393Y-25905D01*
X252338D01*
X252273Y-25896D01*
X252195Y-25891D01*
X252112Y-25877D01*
X252014Y-25863D01*
X251913Y-25840D01*
X251802Y-25817D01*
X251691Y-25785D01*
X251576Y-25748D01*
X251460Y-25706D01*
X251344Y-25655D01*
X251229Y-25595D01*
X251114Y-25531D01*
X251109Y-25526D01*
X251086Y-25512D01*
X251058Y-25489D01*
X251016Y-25461D01*
X250966Y-25420D01*
X250910Y-25374D01*
X250846Y-25313D01*
X250776Y-25249D01*
X250702Y-25175D01*
X250624Y-25096D01*
X250545Y-25004D01*
X250467Y-24907D01*
X250393Y-24796D01*
X250314Y-24680D01*
X250245Y-24560D01*
X250176Y-24426D01*
X250171Y-24417D01*
X250162Y-24394D01*
X250143Y-24352D01*
X250120Y-24297D01*
X250097Y-24228D01*
X250065Y-24140D01*
X250037Y-24043D01*
X250005Y-23932D01*
X249972Y-23812D01*
X249940Y-23678D01*
X249908Y-23535D01*
X249885Y-23382D01*
X249862Y-23221D01*
X249843Y-23045D01*
X249834Y-22865D01*
X249829Y-22680D01*
Y-22675D01*
Y-22666D01*
Y-22652D01*
Y-22634D01*
Y-22611D01*
X249834Y-22578D01*
Y-22546D01*
Y-22504D01*
X249838Y-22417D01*
X249848Y-22310D01*
X249857Y-22195D01*
X249871Y-22066D01*
X249889Y-21932D01*
X249912Y-21784D01*
X249940Y-21636D01*
X249977Y-21483D01*
X250014Y-21331D01*
X250060Y-21174D01*
X250116Y-21026D01*
X250176Y-20878D01*
X250180Y-20869D01*
X250190Y-20846D01*
X250213Y-20804D01*
X250240Y-20753D01*
X250273Y-20689D01*
X250314Y-20615D01*
X250365Y-20536D01*
X250421Y-20449D01*
X250481Y-20356D01*
X250550Y-20264D01*
X250624Y-20171D01*
X250707Y-20079D01*
X250795Y-19987D01*
X250887Y-19899D01*
X250984Y-19820D01*
X251086Y-19746D01*
X251091Y-19742D01*
X251114Y-19733D01*
X251141Y-19714D01*
X251187Y-19691D01*
X251238Y-19663D01*
X251303Y-19631D01*
X251381Y-19599D01*
X251465Y-19561D01*
X251557Y-19529D01*
X251659Y-19497D01*
X251770Y-19465D01*
X251885Y-19437D01*
X252010Y-19414D01*
X252144Y-19395D01*
X252278Y-19386D01*
X252421Y-19381D01*
X252477D01*
X252518Y-19386D01*
D02*
G37*
G36*
X264170Y-25803D02*
X263574Y-25803D01*
Y-25235D01*
X263564Y-25244D01*
X263555Y-25263D01*
X263541Y-25286D01*
X263523Y-25313D01*
X263504Y-25346D01*
X263454Y-25420D01*
X263389Y-25498D01*
X263310Y-25586D01*
X263223Y-25665D01*
X263126Y-25738D01*
X263121D01*
X263112Y-25748D01*
X263098Y-25752D01*
X263079Y-25766D01*
X263056Y-25780D01*
X263024Y-25794D01*
X262955Y-25822D01*
X262867Y-25854D01*
X262765Y-25882D01*
X262659Y-25900D01*
X262543Y-25909D01*
X262516D01*
X262479Y-25905D01*
X262433Y-25900D01*
X262377Y-25891D01*
X262308Y-25877D01*
X262234Y-25859D01*
X262151Y-25831D01*
X262068Y-25798D01*
X261975Y-25757D01*
X261878Y-25706D01*
X261781Y-25646D01*
X261684Y-25577D01*
X261587Y-25494D01*
X261490Y-25397D01*
X261398Y-25286D01*
X261393Y-25276D01*
X261379Y-25258D01*
X261351Y-25221D01*
X261324Y-25170D01*
X261287Y-25106D01*
X261245Y-25027D01*
X261204Y-24935D01*
X261157Y-24828D01*
X261111Y-24713D01*
X261070Y-24579D01*
X261028Y-24436D01*
X260991Y-24274D01*
X260963Y-24108D01*
X260940Y-23923D01*
X260922Y-23729D01*
X260917Y-23521D01*
Y-23512D01*
Y-23489D01*
Y-23447D01*
X260922Y-23392D01*
Y-23322D01*
X260926Y-23248D01*
X260936Y-23160D01*
X260945Y-23064D01*
X260954Y-22962D01*
X260968Y-22860D01*
X261005Y-22638D01*
X261060Y-22417D01*
X261093Y-22306D01*
X261130Y-22204D01*
X261134Y-22199D01*
X261139Y-22181D01*
X261153Y-22153D01*
X261167Y-22116D01*
X261190Y-22070D01*
X261217Y-22019D01*
X261245Y-21959D01*
X261282Y-21899D01*
X261365Y-21765D01*
X261462Y-21631D01*
X261573Y-21507D01*
X261638Y-21447D01*
X261703Y-21396D01*
X261707Y-21391D01*
X261721Y-21386D01*
X261740Y-21373D01*
X261767Y-21354D01*
X261800Y-21336D01*
X261841Y-21313D01*
X261887Y-21289D01*
X261938Y-21262D01*
X261994Y-21239D01*
X262054Y-21215D01*
X262192Y-21174D01*
X262262Y-21155D01*
X262340Y-21142D01*
X262419Y-21137D01*
X262497Y-21132D01*
X262530D01*
X262553Y-21137D01*
X262580D01*
X262613Y-21142D01*
X262687Y-21151D01*
X262779Y-21174D01*
X262876Y-21202D01*
X262978Y-21243D01*
X263079Y-21299D01*
X263084D01*
X263093Y-21308D01*
X263107Y-21317D01*
X263126Y-21331D01*
X263172Y-21368D01*
X263236Y-21419D01*
X263306Y-21483D01*
X263380Y-21567D01*
X263458Y-21659D01*
X263527Y-21765D01*
Y-19492D01*
X264170Y-19492D01*
Y-25803D01*
D02*
G37*
G36*
X283782Y-21137D02*
X283819Y-21142D01*
X283865Y-21146D01*
X283915Y-21155D01*
X283971Y-21165D01*
X284096Y-21197D01*
X284160Y-21215D01*
X284230Y-21243D01*
X284299Y-21275D01*
X284368Y-21308D01*
X284433Y-21350D01*
X284502Y-21396D01*
X284507Y-21400D01*
X284516Y-21409D01*
X284539Y-21423D01*
X284562Y-21447D01*
X284595Y-21474D01*
X284627Y-21507D01*
X284669Y-21548D01*
X284710Y-21594D01*
X284756Y-21645D01*
X284803Y-21705D01*
X284849Y-21770D01*
X284900Y-21844D01*
X284946Y-21922D01*
X284992Y-22005D01*
X285038Y-22098D01*
X285080Y-22195D01*
X285084Y-22199D01*
X285089Y-22218D01*
X285098Y-22250D01*
X285112Y-22292D01*
X285131Y-22343D01*
X285149Y-22403D01*
X285168Y-22477D01*
X285191Y-22555D01*
X285209Y-22648D01*
X285228Y-22745D01*
X285246Y-22851D01*
X285265Y-22966D01*
X285279Y-23087D01*
X285288Y-23211D01*
X285297Y-23345D01*
Y-23484D01*
Y-23489D01*
Y-23498D01*
Y-23512D01*
Y-23535D01*
Y-23562D01*
X285292Y-23595D01*
Y-23632D01*
X285288Y-23678D01*
X285283Y-23775D01*
X285269Y-23886D01*
X285255Y-24011D01*
X285237Y-24145D01*
X285209Y-24288D01*
X285177Y-24436D01*
X285140Y-24584D01*
X285089Y-24736D01*
X285034Y-24884D01*
X284969Y-25022D01*
X284895Y-25156D01*
X284807Y-25281D01*
X284803Y-25286D01*
X284784Y-25309D01*
X284756Y-25341D01*
X284719Y-25378D01*
X284673Y-25429D01*
X284618Y-25480D01*
X284553Y-25535D01*
X284479Y-25595D01*
X284401Y-25655D01*
X284313Y-25711D01*
X284216Y-25762D01*
X284119Y-25812D01*
X284013Y-25849D01*
X283897Y-25882D01*
X283782Y-25900D01*
X283662Y-25909D01*
X283634D01*
X283611Y-25905D01*
X283588D01*
X283555Y-25900D01*
X283481Y-25891D01*
X283398Y-25872D01*
X283306Y-25845D01*
X283209Y-25812D01*
X283112Y-25762D01*
X283107D01*
X283102Y-25752D01*
X283089Y-25748D01*
X283070Y-25734D01*
X283024Y-25697D01*
X282964Y-25651D01*
X282894Y-25591D01*
X282825Y-25517D01*
X282751Y-25433D01*
X282677Y-25337D01*
Y-27554D01*
X282045D01*
Y-21234D01*
X282631D01*
Y-21830D01*
X282636Y-21825D01*
X282640Y-21812D01*
X282654Y-21793D01*
X282668Y-21770D01*
X282687Y-21737D01*
X282714Y-21705D01*
X282770Y-21627D01*
X282839Y-21539D01*
X282918Y-21451D01*
X283010Y-21368D01*
X283056Y-21331D01*
X283102Y-21299D01*
X283107D01*
X283116Y-21289D01*
X283130Y-21285D01*
X283149Y-21271D01*
X283176Y-21262D01*
X283204Y-21248D01*
X283278Y-21215D01*
X283366Y-21183D01*
X283467Y-21160D01*
X283583Y-21142D01*
X283708Y-21132D01*
X283749D01*
X283782Y-21137D01*
D02*
G37*
G36*
X331063Y-21137D02*
X331109Y-21142D01*
X331164Y-21151D01*
X331220Y-21165D01*
X331284Y-21179D01*
X331349Y-21197D01*
X331418Y-21220D01*
X331492Y-21252D01*
X331562Y-21289D01*
X331631Y-21331D01*
X331700Y-21382D01*
X331765Y-21437D01*
X331825Y-21502D01*
X331830Y-21507D01*
X331839Y-21520D01*
X331853Y-21539D01*
X331876Y-21571D01*
X331899Y-21613D01*
X331927Y-21659D01*
X331954Y-21719D01*
X331982Y-21784D01*
X332010Y-21862D01*
X332042Y-21945D01*
X332065Y-22042D01*
X332088Y-22149D01*
X332111Y-22264D01*
X332125Y-22389D01*
X332135Y-22523D01*
X332139Y-22671D01*
Y-25803D01*
X331506D01*
Y-22925D01*
Y-22920D01*
Y-22902D01*
Y-22879D01*
Y-22846D01*
Y-22805D01*
X331502Y-22759D01*
Y-22708D01*
X331497Y-22652D01*
X331488Y-22541D01*
X331474Y-22426D01*
X331455Y-22320D01*
X331446Y-22273D01*
X331432Y-22232D01*
Y-22227D01*
X331428Y-22223D01*
X331418Y-22199D01*
X331400Y-22158D01*
X331377Y-22112D01*
X331345Y-22061D01*
X331308Y-22010D01*
X331257Y-21959D01*
X331201Y-21913D01*
X331192Y-21908D01*
X331173Y-21895D01*
X331141Y-21876D01*
X331095Y-21853D01*
X331044Y-21835D01*
X330979Y-21816D01*
X330915Y-21802D01*
X330841Y-21798D01*
X330799D01*
X330772Y-21802D01*
X330739Y-21807D01*
X330698Y-21816D01*
X330651Y-21825D01*
X330605Y-21839D01*
X330550Y-21858D01*
X330499Y-21876D01*
X330439Y-21904D01*
X330383Y-21936D01*
X330328Y-21973D01*
X330273Y-22019D01*
X330222Y-22065D01*
X330171Y-22126D01*
X330166Y-22130D01*
X330162Y-22140D01*
X330148Y-22158D01*
X330129Y-22186D01*
X330111Y-22223D01*
X330088Y-22264D01*
X330065Y-22315D01*
X330042Y-22375D01*
X330018Y-22440D01*
X329995Y-22518D01*
X329972Y-22602D01*
X329954Y-22694D01*
X329935Y-22795D01*
X329922Y-22902D01*
X329917Y-23022D01*
X329912Y-23147D01*
Y-25803D01*
X329279D01*
Y-22832D01*
Y-22828D01*
Y-22809D01*
Y-22777D01*
X329275Y-22740D01*
Y-22694D01*
X329270Y-22638D01*
X329265Y-22583D01*
X329256Y-22518D01*
X329238Y-22389D01*
X329205Y-22255D01*
X329187Y-22195D01*
X329164Y-22135D01*
X329136Y-22079D01*
X329104Y-22033D01*
Y-22029D01*
X329095Y-22024D01*
X329071Y-21996D01*
X329034Y-21959D01*
X328979Y-21913D01*
X328910Y-21871D01*
X328827Y-21835D01*
X328730Y-21807D01*
X328679Y-21802D01*
X328623Y-21798D01*
X328582D01*
X328549Y-21802D01*
X328517Y-21807D01*
X328471Y-21816D01*
X328425Y-21825D01*
X328374Y-21839D01*
X328318Y-21858D01*
X328263Y-21885D01*
X328207Y-21913D01*
X328152Y-21945D01*
X328092Y-21987D01*
X328036Y-22033D01*
X327986Y-22089D01*
X327935Y-22149D01*
X327930Y-22153D01*
X327926Y-22167D01*
X327912Y-22186D01*
X327898Y-22218D01*
X327880Y-22260D01*
X327856Y-22310D01*
X327833Y-22370D01*
X327810Y-22440D01*
X327787Y-22523D01*
X327764Y-22615D01*
X327746Y-22722D01*
X327722Y-22837D01*
X327709Y-22966D01*
X327695Y-23110D01*
X327690Y-23267D01*
X327685Y-23433D01*
Y-25803D01*
X327052D01*
Y-21234D01*
X327621D01*
Y-21867D01*
X327630Y-21858D01*
X327639Y-21839D01*
X327653Y-21811D01*
X327672Y-21784D01*
X327695Y-21751D01*
X327750Y-21673D01*
X327819Y-21585D01*
X327903Y-21493D01*
X327995Y-21405D01*
X328101Y-21326D01*
X328106Y-21322D01*
X328115Y-21317D01*
X328134Y-21308D01*
X328152Y-21294D01*
X328180Y-21280D01*
X328217Y-21266D01*
X328254Y-21248D01*
X328295Y-21229D01*
X328392Y-21192D01*
X328503Y-21165D01*
X328623Y-21142D01*
X328753Y-21132D01*
X328790D01*
X328817Y-21137D01*
X328854D01*
X328891Y-21142D01*
X328937Y-21151D01*
X328984Y-21155D01*
X329090Y-21183D01*
X329201Y-21220D01*
X329316Y-21266D01*
X329372Y-21299D01*
X329423Y-21336D01*
X329427D01*
X329436Y-21345D01*
X329450Y-21359D01*
X329469Y-21373D01*
X329487Y-21396D01*
X329515Y-21419D01*
X329575Y-21483D01*
X329635Y-21571D01*
X329700Y-21673D01*
X329760Y-21788D01*
X329811Y-21927D01*
X329815Y-21922D01*
X329820Y-21908D01*
X329834Y-21890D01*
X329852Y-21862D01*
X329871Y-21830D01*
X329898Y-21788D01*
X329959Y-21705D01*
X330037Y-21608D01*
X330125Y-21507D01*
X330222Y-21414D01*
X330273Y-21373D01*
X330328Y-21331D01*
X330333Y-21326D01*
X330342Y-21322D01*
X330356Y-21313D01*
X330379Y-21299D01*
X330407Y-21285D01*
X330439Y-21266D01*
X330476Y-21248D01*
X330518Y-21229D01*
X330614Y-21197D01*
X330725Y-21165D01*
X330845Y-21142D01*
X330910Y-21132D01*
X331026D01*
X331063Y-21137D01*
D02*
G37*
G36*
X352199D02*
X352227Y-21142D01*
X352264Y-21146D01*
X352301Y-21151D01*
X352347Y-21165D01*
X352444Y-21192D01*
X352555Y-21239D01*
X352610Y-21266D01*
X352670Y-21299D01*
X352735Y-21336D01*
X352795Y-21382D01*
X352578Y-22103D01*
X352573D01*
X352569Y-22093D01*
X352555Y-22089D01*
X352536Y-22075D01*
X352490Y-22047D01*
X352430Y-22015D01*
X352361Y-21987D01*
X352282Y-21959D01*
X352199Y-21941D01*
X352116Y-21932D01*
X352084D01*
X352042Y-21941D01*
X351991Y-21950D01*
X351936Y-21969D01*
X351871Y-21992D01*
X351806Y-22029D01*
X351742Y-22075D01*
X351732Y-22079D01*
X351714Y-22103D01*
X351686Y-22135D01*
X351649Y-22176D01*
X351612Y-22237D01*
X351575Y-22301D01*
X351538Y-22380D01*
X351511Y-22472D01*
Y-22477D01*
X351506Y-22491D01*
X351501Y-22518D01*
X351492Y-22551D01*
X351483Y-22592D01*
X351474Y-22638D01*
X351460Y-22694D01*
X351451Y-22754D01*
X351442Y-22823D01*
X351428Y-22897D01*
X351418Y-22976D01*
X351409Y-23059D01*
X351395Y-23230D01*
X351391Y-23415D01*
Y-25803D01*
X350758D01*
Y-21234D01*
X351331D01*
Y-21932D01*
X351335Y-21927D01*
X351340Y-21908D01*
X351354Y-21885D01*
X351367Y-21853D01*
X351386Y-21816D01*
X351409Y-21770D01*
X351460Y-21668D01*
X351525Y-21562D01*
X351589Y-21456D01*
X351626Y-21405D01*
X351659Y-21363D01*
X351696Y-21322D01*
X351728Y-21289D01*
X351737Y-21285D01*
X351760Y-21266D01*
X351797Y-21239D01*
X351848Y-21211D01*
X351913Y-21183D01*
X351982Y-21155D01*
X352061Y-21137D01*
X352144Y-21132D01*
X352176D01*
X352199Y-21137D01*
D02*
G37*
G36*
X305191Y-21137D02*
X305218Y-21142D01*
X305255Y-21146D01*
X305292Y-21151D01*
X305339Y-21165D01*
X305435Y-21192D01*
X305546Y-21239D01*
X305602Y-21266D01*
X305662Y-21299D01*
X305727Y-21336D01*
X305787Y-21382D01*
X305570Y-22103D01*
X305565D01*
X305560Y-22093D01*
X305546Y-22089D01*
X305528Y-22075D01*
X305482Y-22047D01*
X305422Y-22015D01*
X305352Y-21987D01*
X305274Y-21959D01*
X305191Y-21941D01*
X305107Y-21932D01*
X305075D01*
X305034Y-21941D01*
X304983Y-21950D01*
X304927Y-21969D01*
X304863Y-21992D01*
X304798Y-22029D01*
X304733Y-22075D01*
X304724Y-22079D01*
X304706Y-22103D01*
X304678Y-22135D01*
X304641Y-22176D01*
X304604Y-22237D01*
X304567Y-22301D01*
X304530Y-22380D01*
X304502Y-22472D01*
Y-22477D01*
X304498Y-22491D01*
X304493Y-22518D01*
X304484Y-22551D01*
X304474Y-22592D01*
X304465Y-22638D01*
X304451Y-22694D01*
X304442Y-22754D01*
X304433Y-22823D01*
X304419Y-22897D01*
X304410Y-22976D01*
X304401Y-23059D01*
X304387Y-23230D01*
X304382Y-23415D01*
Y-25803D01*
X303749D01*
Y-21234D01*
X304322D01*
Y-21932D01*
X304327Y-21927D01*
X304331Y-21908D01*
X304345Y-21885D01*
X304359Y-21853D01*
X304378Y-21816D01*
X304401Y-21770D01*
X304451Y-21668D01*
X304516Y-21562D01*
X304581Y-21456D01*
X304618Y-21405D01*
X304650Y-21363D01*
X304687Y-21322D01*
X304719Y-21289D01*
X304729Y-21285D01*
X304752Y-21266D01*
X304789Y-21239D01*
X304839Y-21211D01*
X304904Y-21183D01*
X304974Y-21155D01*
X305052Y-21137D01*
X305135Y-21132D01*
X305168D01*
X305191Y-21137D01*
D02*
G37*
G36*
X242100Y-21137D02*
X242128Y-21142D01*
X242165Y-21146D01*
X242202Y-21151D01*
X242248Y-21165D01*
X242345Y-21192D01*
X242456Y-21239D01*
X242511Y-21266D01*
X242571Y-21299D01*
X242636Y-21336D01*
X242696Y-21382D01*
X242479Y-22103D01*
X242474D01*
X242470Y-22093D01*
X242456Y-22089D01*
X242437Y-22075D01*
X242391Y-22047D01*
X242331Y-22015D01*
X242262Y-21987D01*
X242183Y-21959D01*
X242100Y-21941D01*
X242017Y-21932D01*
X241984D01*
X241943Y-21941D01*
X241892Y-21950D01*
X241837Y-21969D01*
X241772Y-21992D01*
X241707Y-22029D01*
X241642Y-22075D01*
X241633Y-22079D01*
X241615Y-22103D01*
X241587Y-22135D01*
X241550Y-22176D01*
X241513Y-22237D01*
X241476Y-22301D01*
X241439Y-22380D01*
X241411Y-22472D01*
Y-22477D01*
X241407Y-22491D01*
X241402Y-22518D01*
X241393Y-22551D01*
X241384Y-22592D01*
X241375Y-22638D01*
X241361Y-22694D01*
X241352Y-22754D01*
X241342Y-22823D01*
X241328Y-22897D01*
X241319Y-22976D01*
X241310Y-23059D01*
X241296Y-23230D01*
X241291Y-23415D01*
Y-25803D01*
X240658D01*
Y-21234D01*
X241231D01*
Y-21932D01*
X241236Y-21927D01*
X241241Y-21908D01*
X241254Y-21885D01*
X241268Y-21853D01*
X241287Y-21816D01*
X241310Y-21770D01*
X241361Y-21668D01*
X241425Y-21562D01*
X241490Y-21456D01*
X241527Y-21405D01*
X241559Y-21363D01*
X241596Y-21322D01*
X241629Y-21289D01*
X241638Y-21285D01*
X241661Y-21266D01*
X241698Y-21239D01*
X241749Y-21211D01*
X241813Y-21183D01*
X241883Y-21155D01*
X241961Y-21137D01*
X242044Y-21132D01*
X242077D01*
X242100Y-21137D01*
D02*
G37*
G36*
X344775Y-25877D02*
Y-25882D01*
X344770Y-25886D01*
X344766Y-25900D01*
X344761Y-25919D01*
X344747Y-25960D01*
X344729Y-26025D01*
X344706Y-26094D01*
X344678Y-26177D01*
X344645Y-26270D01*
X344613Y-26367D01*
X344544Y-26570D01*
X344507Y-26672D01*
X344470Y-26769D01*
X344433Y-26861D01*
X344396Y-26944D01*
X344364Y-27018D01*
X344331Y-27083D01*
Y-27088D01*
X344322Y-27097D01*
X344317Y-27111D01*
X344304Y-27134D01*
X344271Y-27185D01*
X344225Y-27254D01*
X344170Y-27323D01*
X344110Y-27397D01*
X344040Y-27466D01*
X343966Y-27522D01*
X343957Y-27526D01*
X343929Y-27540D01*
X343888Y-27563D01*
X343832Y-27586D01*
X343763Y-27614D01*
X343685Y-27633D01*
X343597Y-27651D01*
X343504Y-27656D01*
X343472D01*
X343435Y-27651D01*
X343384Y-27642D01*
X343324Y-27633D01*
X343255Y-27619D01*
X343181Y-27596D01*
X343098Y-27563D01*
X343028Y-26833D01*
X343033D01*
X343038Y-26838D01*
X343065Y-26843D01*
X343102Y-26856D01*
X343153Y-26866D01*
X343209Y-26880D01*
X343269Y-26893D01*
X343329Y-26898D01*
X343384Y-26903D01*
X343417D01*
X343454Y-26898D01*
X343504Y-26893D01*
X343555Y-26884D01*
X343611Y-26866D01*
X343666Y-26847D01*
X343717Y-26820D01*
X343722Y-26815D01*
X343740Y-26806D01*
X343763Y-26783D01*
X343795Y-26755D01*
X343828Y-26722D01*
X343865Y-26676D01*
X343902Y-26625D01*
X343934Y-26565D01*
Y-26561D01*
X343939Y-26556D01*
X343943Y-26547D01*
X343948Y-26528D01*
X343957Y-26510D01*
X343966Y-26482D01*
X343976Y-26445D01*
X343994Y-26404D01*
X344008Y-26353D01*
X344031Y-26288D01*
X344054Y-26214D01*
X344082Y-26131D01*
X344110Y-26034D01*
X344146Y-25923D01*
X344183Y-25798D01*
X342765Y-21234D01*
X343449D01*
X344230Y-23872D01*
Y-23877D01*
X344234Y-23895D01*
X344244Y-23923D01*
X344253Y-23960D01*
X344267Y-24006D01*
X344285Y-24057D01*
X344299Y-24121D01*
X344317Y-24191D01*
X344340Y-24265D01*
X344359Y-24348D01*
X344382Y-24436D01*
X344405Y-24528D01*
X344456Y-24722D01*
X344502Y-24930D01*
Y-24925D01*
X344507Y-24907D01*
X344512Y-24879D01*
X344521Y-24837D01*
X344530Y-24791D01*
X344544Y-24736D01*
X344558Y-24671D01*
X344576Y-24602D01*
X344590Y-24523D01*
X344613Y-24440D01*
X344655Y-24269D01*
X344701Y-24080D01*
X344756Y-23890D01*
X345560Y-21234D01*
X346198D01*
X344775Y-25877D01*
D02*
G37*
G36*
X297766Y-25877D02*
Y-25882D01*
X297762Y-25886D01*
X297757Y-25900D01*
X297752Y-25919D01*
X297739Y-25960D01*
X297720Y-26025D01*
X297697Y-26094D01*
X297669Y-26177D01*
X297637Y-26270D01*
X297605Y-26367D01*
X297535Y-26570D01*
X297498Y-26672D01*
X297461Y-26769D01*
X297424Y-26861D01*
X297388Y-26944D01*
X297355Y-27018D01*
X297323Y-27083D01*
Y-27088D01*
X297313Y-27097D01*
X297309Y-27111D01*
X297295Y-27134D01*
X297263Y-27185D01*
X297217Y-27254D01*
X297161Y-27323D01*
X297101Y-27397D01*
X297032Y-27466D01*
X296958Y-27522D01*
X296949Y-27526D01*
X296921Y-27540D01*
X296879Y-27563D01*
X296824Y-27586D01*
X296755Y-27614D01*
X296676Y-27633D01*
X296588Y-27651D01*
X296496Y-27656D01*
X296463D01*
X296427Y-27651D01*
X296376Y-27642D01*
X296316Y-27633D01*
X296246Y-27619D01*
X296172Y-27596D01*
X296089Y-27563D01*
X296020Y-26833D01*
X296025D01*
X296029Y-26838D01*
X296057Y-26843D01*
X296094Y-26856D01*
X296145Y-26866D01*
X296200Y-26880D01*
X296260Y-26893D01*
X296320Y-26898D01*
X296376Y-26903D01*
X296408D01*
X296445Y-26898D01*
X296496Y-26893D01*
X296547Y-26884D01*
X296602Y-26866D01*
X296657Y-26847D01*
X296708Y-26820D01*
X296713Y-26815D01*
X296731Y-26806D01*
X296755Y-26783D01*
X296787Y-26755D01*
X296819Y-26722D01*
X296856Y-26676D01*
X296893Y-26625D01*
X296925Y-26565D01*
Y-26561D01*
X296930Y-26556D01*
X296935Y-26547D01*
X296939Y-26528D01*
X296949Y-26510D01*
X296958Y-26482D01*
X296967Y-26445D01*
X296986Y-26404D01*
X296999Y-26353D01*
X297023Y-26288D01*
X297046Y-26214D01*
X297073Y-26131D01*
X297101Y-26034D01*
X297138Y-25923D01*
X297175Y-25798D01*
X295757Y-21234D01*
X296440D01*
X297221Y-23872D01*
Y-23877D01*
X297226Y-23895D01*
X297235Y-23923D01*
X297244Y-23960D01*
X297258Y-24006D01*
X297277Y-24057D01*
X297290Y-24122D01*
X297309Y-24191D01*
X297332Y-24265D01*
X297351Y-24348D01*
X297374Y-24436D01*
X297397Y-24528D01*
X297447Y-24722D01*
X297494Y-24930D01*
Y-24925D01*
X297498Y-24907D01*
X297503Y-24879D01*
X297512Y-24838D01*
X297521Y-24791D01*
X297535Y-24736D01*
X297549Y-24671D01*
X297568Y-24602D01*
X297582Y-24523D01*
X297605Y-24440D01*
X297646Y-24269D01*
X297692Y-24080D01*
X297748Y-23890D01*
X298552Y-21234D01*
X299189D01*
X297766Y-25877D01*
D02*
G37*
G36*
X258547Y-25803D02*
X257979D01*
Y-25138D01*
X257974Y-25142D01*
X257970Y-25156D01*
X257956Y-25175D01*
X257942Y-25203D01*
X257919Y-25235D01*
X257891Y-25272D01*
X257831Y-25355D01*
X257752Y-25452D01*
X257665Y-25549D01*
X257568Y-25637D01*
X257457Y-25720D01*
X257452D01*
X257443Y-25729D01*
X257429Y-25738D01*
X257406Y-25748D01*
X257378Y-25762D01*
X257346Y-25780D01*
X257304Y-25798D01*
X257263Y-25812D01*
X257166Y-25849D01*
X257050Y-25882D01*
X256926Y-25900D01*
X256787Y-25909D01*
X256745D01*
X256713Y-25905D01*
X256676Y-25900D01*
X256630Y-25896D01*
X256579Y-25891D01*
X256528Y-25882D01*
X256408Y-25854D01*
X256279Y-25808D01*
X256214Y-25785D01*
X256154Y-25752D01*
X256089Y-25715D01*
X256029Y-25674D01*
X256025Y-25669D01*
X256015Y-25665D01*
X256001Y-25651D01*
X255978Y-25632D01*
X255955Y-25605D01*
X255923Y-25577D01*
X255858Y-25508D01*
X255789Y-25420D01*
X255720Y-25318D01*
X255660Y-25198D01*
X255632Y-25133D01*
X255609Y-25069D01*
Y-25064D01*
X255604Y-25050D01*
X255600Y-25032D01*
X255595Y-24999D01*
X255586Y-24962D01*
X255576Y-24921D01*
X255567Y-24865D01*
X255558Y-24805D01*
X255549Y-24740D01*
X255539Y-24667D01*
X255530Y-24584D01*
X255521Y-24496D01*
X255516Y-24399D01*
X255512Y-24297D01*
X255507Y-24186D01*
Y-24071D01*
Y-21234D01*
X256140D01*
Y-23775D01*
Y-23784D01*
Y-23807D01*
Y-23840D01*
Y-23890D01*
Y-23946D01*
X256145Y-24011D01*
Y-24084D01*
X256149Y-24158D01*
X256159Y-24316D01*
X256168Y-24473D01*
X256177Y-24546D01*
X256186Y-24611D01*
X256196Y-24671D01*
X256209Y-24722D01*
Y-24727D01*
X256214Y-24731D01*
X256223Y-24759D01*
X256242Y-24805D01*
X256270Y-24856D01*
X256302Y-24916D01*
X256348Y-24981D01*
X256403Y-25045D01*
X256468Y-25101D01*
X256477Y-25106D01*
X256501Y-25124D01*
X256542Y-25147D01*
X256597Y-25170D01*
X256662Y-25198D01*
X256736Y-25221D01*
X256819Y-25240D01*
X256907Y-25244D01*
X256926D01*
X256953Y-25240D01*
X256981D01*
X257023Y-25230D01*
X257069Y-25226D01*
X257119Y-25212D01*
X257170Y-25198D01*
X257230Y-25179D01*
X257291Y-25152D01*
X257355Y-25124D01*
X257415Y-25087D01*
X257480Y-25045D01*
X257540Y-24995D01*
X257600Y-24935D01*
X257656Y-24870D01*
X257660Y-24865D01*
X257665Y-24856D01*
X257679Y-24833D01*
X257697Y-24805D01*
X257716Y-24768D01*
X257734Y-24722D01*
X257757Y-24667D01*
X257785Y-24602D01*
X257808Y-24523D01*
X257831Y-24440D01*
X257850Y-24343D01*
X257868Y-24232D01*
X257887Y-24117D01*
X257900Y-23983D01*
X257905Y-23840D01*
X257910Y-23687D01*
Y-21234D01*
X258547D01*
Y-25803D01*
D02*
G37*
G36*
X340788Y-21137D02*
X340839D01*
X340894Y-21142D01*
X340959Y-21151D01*
X341028Y-21160D01*
X341176Y-21188D01*
X341328Y-21225D01*
X341481Y-21280D01*
X341550Y-21317D01*
X341615Y-21354D01*
X341619Y-21359D01*
X341629Y-21363D01*
X341647Y-21377D01*
X341670Y-21396D01*
X341726Y-21442D01*
X341795Y-21507D01*
X341869Y-21585D01*
X341938Y-21678D01*
X341998Y-21784D01*
X342021Y-21844D01*
X342040Y-21904D01*
Y-21908D01*
X342044Y-21918D01*
X342049Y-21936D01*
X342054Y-21964D01*
X342063Y-22001D01*
X342068Y-22042D01*
X342077Y-22089D01*
X342086Y-22144D01*
X342095Y-22209D01*
X342104Y-22283D01*
X342109Y-22361D01*
X342118Y-22444D01*
X342123Y-22537D01*
X342128Y-22638D01*
X342132Y-22745D01*
Y-22860D01*
Y-23890D01*
Y-23895D01*
Y-23904D01*
Y-23918D01*
Y-23937D01*
Y-23964D01*
Y-23992D01*
Y-24066D01*
Y-24149D01*
Y-24251D01*
X342137Y-24357D01*
Y-24468D01*
X342141Y-24704D01*
X342146Y-24814D01*
Y-24925D01*
X342151Y-25027D01*
X342155Y-25119D01*
X342164Y-25198D01*
Y-25230D01*
X342169Y-25258D01*
Y-25263D01*
Y-25272D01*
X342174Y-25286D01*
X342178Y-25304D01*
X342183Y-25332D01*
X342188Y-25360D01*
X342206Y-25433D01*
X342229Y-25517D01*
X342257Y-25605D01*
X342294Y-25706D01*
X342335Y-25803D01*
X341675D01*
Y-25798D01*
X341670Y-25794D01*
X341666Y-25780D01*
X341656Y-25762D01*
X341652Y-25738D01*
X341638Y-25711D01*
X341619Y-25646D01*
X341596Y-25563D01*
X341573Y-25471D01*
X341555Y-25364D01*
X341541Y-25244D01*
X341536Y-25249D01*
X341527Y-25258D01*
X341509Y-25276D01*
X341485Y-25300D01*
X341458Y-25327D01*
X341421Y-25360D01*
X341384Y-25392D01*
X341337Y-25429D01*
X341241Y-25512D01*
X341125Y-25595D01*
X341005Y-25674D01*
X340876Y-25743D01*
X340871D01*
X340862Y-25752D01*
X340843Y-25757D01*
X340815Y-25771D01*
X340783Y-25780D01*
X340746Y-25794D01*
X340705Y-25812D01*
X340658Y-25826D01*
X340547Y-25859D01*
X340427Y-25882D01*
X340298Y-25900D01*
X340159Y-25909D01*
X340132D01*
X340104Y-25905D01*
X340062D01*
X340012Y-25900D01*
X339956Y-25891D01*
X339892Y-25882D01*
X339822Y-25863D01*
X339748Y-25845D01*
X339674Y-25822D01*
X339596Y-25794D01*
X339517Y-25762D01*
X339443Y-25720D01*
X339365Y-25674D01*
X339296Y-25618D01*
X339226Y-25558D01*
X339222Y-25554D01*
X339212Y-25540D01*
X339194Y-25521D01*
X339171Y-25494D01*
X339148Y-25457D01*
X339115Y-25415D01*
X339088Y-25364D01*
X339055Y-25309D01*
X339023Y-25244D01*
X338991Y-25170D01*
X338958Y-25092D01*
X338935Y-25008D01*
X338912Y-24916D01*
X338894Y-24819D01*
X338884Y-24717D01*
X338880Y-24607D01*
Y-24602D01*
Y-24588D01*
Y-24570D01*
X338884Y-24537D01*
Y-24505D01*
X338889Y-24463D01*
X338894Y-24417D01*
X338898Y-24371D01*
X338921Y-24260D01*
X338949Y-24145D01*
X338986Y-24020D01*
X339041Y-23904D01*
Y-23900D01*
X339051Y-23890D01*
X339060Y-23877D01*
X339069Y-23854D01*
X339106Y-23798D01*
X339157Y-23729D01*
X339222Y-23655D01*
X339296Y-23576D01*
X339383Y-23498D01*
X339485Y-23428D01*
X339490D01*
X339499Y-23419D01*
X339517Y-23410D01*
X339540Y-23401D01*
X339568Y-23387D01*
X339605Y-23368D01*
X339651Y-23350D01*
X339702Y-23331D01*
X339757Y-23308D01*
X339822Y-23290D01*
X339892Y-23267D01*
X339970Y-23244D01*
X340053Y-23225D01*
X340146Y-23207D01*
X340243Y-23188D01*
X340349Y-23170D01*
X340358D01*
X340381Y-23165D01*
X340423Y-23160D01*
X340478Y-23151D01*
X340538Y-23137D01*
X340612Y-23128D01*
X340695Y-23110D01*
X340783Y-23096D01*
X340968Y-23054D01*
X341157Y-23008D01*
X341250Y-22985D01*
X341337Y-22957D01*
X341416Y-22930D01*
X341490Y-22902D01*
X341495Y-22708D01*
Y-22703D01*
Y-22689D01*
Y-22661D01*
X341490Y-22629D01*
Y-22592D01*
X341485Y-22551D01*
X341472Y-22449D01*
X341453Y-22338D01*
X341421Y-22232D01*
X341379Y-22130D01*
X341356Y-22084D01*
X341324Y-22047D01*
X341319Y-22042D01*
X341314Y-22033D01*
X341301Y-22019D01*
X341278Y-22005D01*
X341254Y-21982D01*
X341222Y-21959D01*
X341185Y-21936D01*
X341143Y-21908D01*
X341097Y-21881D01*
X341042Y-21858D01*
X340982Y-21835D01*
X340917Y-21811D01*
X340843Y-21798D01*
X340769Y-21784D01*
X340682Y-21775D01*
X340594Y-21770D01*
X340552D01*
X340520Y-21775D01*
X340483D01*
X340441Y-21779D01*
X340344Y-21793D01*
X340238Y-21816D01*
X340127Y-21848D01*
X340021Y-21895D01*
X339975Y-21922D01*
X339928Y-21955D01*
X339924D01*
X339919Y-21964D01*
X339910Y-21973D01*
X339892Y-21992D01*
X339873Y-22015D01*
X339855Y-22038D01*
X339831Y-22070D01*
X339808Y-22112D01*
X339781Y-22153D01*
X339757Y-22204D01*
X339730Y-22260D01*
X339702Y-22324D01*
X339679Y-22394D01*
X339651Y-22467D01*
X339628Y-22551D01*
X339610Y-22643D01*
X338986Y-22541D01*
Y-22532D01*
X338991Y-22509D01*
X339000Y-22472D01*
X339014Y-22421D01*
X339028Y-22361D01*
X339051Y-22292D01*
X339074Y-22213D01*
X339102Y-22130D01*
X339134Y-22047D01*
X339175Y-21955D01*
X339217Y-21867D01*
X339268Y-21779D01*
X339323Y-21691D01*
X339383Y-21613D01*
X339448Y-21539D01*
X339522Y-21470D01*
X339527Y-21465D01*
X339540Y-21456D01*
X339563Y-21437D01*
X339600Y-21419D01*
X339642Y-21391D01*
X339693Y-21363D01*
X339753Y-21331D01*
X339822Y-21299D01*
X339901Y-21271D01*
X339988Y-21239D01*
X340086Y-21211D01*
X340187Y-21183D01*
X340303Y-21165D01*
X340423Y-21146D01*
X340552Y-21137D01*
X340691Y-21132D01*
X340746D01*
X340788Y-21137D01*
D02*
G37*
G36*
X335812Y-25059D02*
X338362D01*
Y-25803D01*
X335128D01*
Y-19492D01*
X335812D01*
Y-25059D01*
D02*
G37*
G36*
X312273Y-19497D02*
X312324D01*
X312379Y-19501D01*
X312444Y-19506D01*
X312513Y-19515D01*
X312666Y-19538D01*
X312818Y-19571D01*
X312971Y-19617D01*
X313045Y-19645D01*
X313109Y-19677D01*
X313114D01*
X313123Y-19686D01*
X313142Y-19695D01*
X313165Y-19714D01*
X313197Y-19733D01*
X313229Y-19756D01*
X313308Y-19816D01*
X313400Y-19899D01*
X313447Y-19945D01*
X313493Y-19996D01*
X313539Y-20051D01*
X313585Y-20116D01*
X313631Y-20181D01*
X313673Y-20250D01*
X313678Y-20255D01*
X313682Y-20268D01*
X313691Y-20287D01*
X313710Y-20319D01*
X313724Y-20356D01*
X313742Y-20398D01*
X313765Y-20449D01*
X313784Y-20504D01*
X313807Y-20564D01*
X313825Y-20629D01*
X313862Y-20772D01*
X313885Y-20934D01*
X313890Y-21017D01*
X313895Y-21105D01*
Y-21109D01*
Y-21123D01*
Y-21146D01*
X313890Y-21179D01*
Y-21215D01*
X313885Y-21262D01*
X313881Y-21313D01*
X313872Y-21363D01*
X313848Y-21488D01*
X313816Y-21617D01*
X313770Y-21756D01*
X313705Y-21890D01*
Y-21895D01*
X313696Y-21904D01*
X313687Y-21922D01*
X313668Y-21945D01*
X313650Y-21978D01*
X313627Y-22010D01*
X313567Y-22089D01*
X313493Y-22176D01*
X313400Y-22274D01*
X313294Y-22366D01*
X313169Y-22449D01*
X313174D01*
X313188Y-22458D01*
X313211Y-22467D01*
X313243Y-22481D01*
X313280Y-22500D01*
X313327Y-22523D01*
X313377Y-22546D01*
X313428Y-22578D01*
X313484Y-22615D01*
X313544Y-22657D01*
X313599Y-22703D01*
X313659Y-22754D01*
X313719Y-22809D01*
X313775Y-22869D01*
X313830Y-22934D01*
X313881Y-23008D01*
X313885Y-23013D01*
X313890Y-23027D01*
X313904Y-23050D01*
X313922Y-23077D01*
X313941Y-23114D01*
X313964Y-23160D01*
X313987Y-23216D01*
X314015Y-23276D01*
X314038Y-23345D01*
X314061Y-23419D01*
X314084Y-23498D01*
X314103Y-23581D01*
X314121Y-23673D01*
X314135Y-23770D01*
X314140Y-23872D01*
X314144Y-23978D01*
Y-23983D01*
Y-24001D01*
Y-24034D01*
X314140Y-24075D01*
X314135Y-24126D01*
X314130Y-24182D01*
X314126Y-24246D01*
X314117Y-24320D01*
X314103Y-24394D01*
X314089Y-24477D01*
X314047Y-24644D01*
X314019Y-24731D01*
X313987Y-24819D01*
X313950Y-24902D01*
X313909Y-24985D01*
X313904Y-24990D01*
X313899Y-25004D01*
X313885Y-25027D01*
X313867Y-25055D01*
X313844Y-25092D01*
X313812Y-25133D01*
X313779Y-25175D01*
X313742Y-25226D01*
X313650Y-25327D01*
X313544Y-25429D01*
X313419Y-25526D01*
X313354Y-25572D01*
X313280Y-25609D01*
X313276D01*
X313262Y-25618D01*
X313239Y-25628D01*
X313211Y-25641D01*
X313169Y-25655D01*
X313123Y-25669D01*
X313063Y-25688D01*
X313003Y-25706D01*
X312929Y-25725D01*
X312846Y-25743D01*
X312758Y-25757D01*
X312666Y-25771D01*
X312560Y-25785D01*
X312449Y-25794D01*
X312333Y-25798D01*
X312208Y-25803D01*
X310240D01*
Y-19492D01*
X312231D01*
X312273Y-19497D01*
D02*
G37*
G36*
X293779Y-21137D02*
X293830D01*
X293885Y-21142D01*
X293950Y-21151D01*
X294020Y-21160D01*
X294167Y-21188D01*
X294320Y-21225D01*
X294472Y-21280D01*
X294542Y-21317D01*
X294606Y-21354D01*
X294611Y-21359D01*
X294620Y-21363D01*
X294639Y-21377D01*
X294662Y-21396D01*
X294717Y-21442D01*
X294786Y-21507D01*
X294860Y-21585D01*
X294930Y-21678D01*
X294990Y-21784D01*
X295013Y-21844D01*
X295031Y-21904D01*
Y-21908D01*
X295036Y-21918D01*
X295040Y-21936D01*
X295045Y-21964D01*
X295054Y-22001D01*
X295059Y-22042D01*
X295068Y-22089D01*
X295077Y-22144D01*
X295087Y-22209D01*
X295096Y-22283D01*
X295101Y-22361D01*
X295110Y-22444D01*
X295114Y-22537D01*
X295119Y-22638D01*
X295124Y-22745D01*
Y-22860D01*
Y-23890D01*
Y-23895D01*
Y-23904D01*
Y-23918D01*
Y-23937D01*
Y-23964D01*
Y-23992D01*
Y-24066D01*
Y-24149D01*
Y-24251D01*
X295128Y-24357D01*
Y-24468D01*
X295133Y-24704D01*
X295138Y-24814D01*
Y-24925D01*
X295142Y-25027D01*
X295147Y-25119D01*
X295156Y-25198D01*
Y-25230D01*
X295161Y-25258D01*
Y-25263D01*
Y-25272D01*
X295165Y-25286D01*
X295170Y-25304D01*
X295175Y-25332D01*
X295179Y-25360D01*
X295198Y-25433D01*
X295221Y-25517D01*
X295248Y-25605D01*
X295285Y-25706D01*
X295327Y-25803D01*
X294666D01*
Y-25798D01*
X294662Y-25794D01*
X294657Y-25780D01*
X294648Y-25762D01*
X294643Y-25738D01*
X294629Y-25711D01*
X294611Y-25646D01*
X294588Y-25563D01*
X294565Y-25471D01*
X294546Y-25364D01*
X294532Y-25244D01*
X294528Y-25249D01*
X294518Y-25258D01*
X294500Y-25276D01*
X294477Y-25300D01*
X294449Y-25327D01*
X294412Y-25360D01*
X294375Y-25392D01*
X294329Y-25429D01*
X294232Y-25512D01*
X294116Y-25595D01*
X293996Y-25674D01*
X293867Y-25743D01*
X293862D01*
X293853Y-25752D01*
X293835Y-25757D01*
X293807Y-25771D01*
X293775Y-25780D01*
X293738Y-25794D01*
X293696Y-25812D01*
X293650Y-25826D01*
X293539Y-25859D01*
X293419Y-25882D01*
X293289Y-25900D01*
X293151Y-25909D01*
X293123D01*
X293095Y-25905D01*
X293054D01*
X293003Y-25900D01*
X292948Y-25891D01*
X292883Y-25882D01*
X292814Y-25863D01*
X292740Y-25845D01*
X292666Y-25822D01*
X292587Y-25794D01*
X292509Y-25762D01*
X292435Y-25720D01*
X292356Y-25674D01*
X292287Y-25618D01*
X292218Y-25558D01*
X292213Y-25554D01*
X292204Y-25540D01*
X292185Y-25521D01*
X292162Y-25494D01*
X292139Y-25457D01*
X292107Y-25415D01*
X292079Y-25364D01*
X292047Y-25309D01*
X292014Y-25244D01*
X291982Y-25170D01*
X291950Y-25092D01*
X291927Y-25008D01*
X291903Y-24916D01*
X291885Y-24819D01*
X291876Y-24717D01*
X291871Y-24607D01*
Y-24602D01*
Y-24588D01*
Y-24570D01*
X291876Y-24537D01*
Y-24505D01*
X291880Y-24463D01*
X291885Y-24417D01*
X291890Y-24371D01*
X291913Y-24260D01*
X291940Y-24145D01*
X291977Y-24020D01*
X292033Y-23904D01*
Y-23900D01*
X292042Y-23890D01*
X292051Y-23877D01*
X292061Y-23854D01*
X292098Y-23798D01*
X292148Y-23729D01*
X292213Y-23655D01*
X292287Y-23576D01*
X292375Y-23498D01*
X292476Y-23428D01*
X292481D01*
X292490Y-23419D01*
X292509Y-23410D01*
X292532Y-23401D01*
X292560Y-23387D01*
X292597Y-23368D01*
X292643Y-23350D01*
X292694Y-23331D01*
X292749Y-23308D01*
X292814Y-23290D01*
X292883Y-23267D01*
X292962Y-23244D01*
X293045Y-23225D01*
X293137Y-23207D01*
X293234Y-23188D01*
X293340Y-23170D01*
X293350D01*
X293373Y-23165D01*
X293414Y-23160D01*
X293470Y-23151D01*
X293530Y-23137D01*
X293604Y-23128D01*
X293687Y-23110D01*
X293775Y-23096D01*
X293959Y-23054D01*
X294149Y-23008D01*
X294241Y-22985D01*
X294329Y-22957D01*
X294408Y-22930D01*
X294481Y-22902D01*
X294486Y-22708D01*
Y-22703D01*
Y-22689D01*
Y-22661D01*
X294481Y-22629D01*
Y-22592D01*
X294477Y-22551D01*
X294463Y-22449D01*
X294444Y-22338D01*
X294412Y-22232D01*
X294371Y-22130D01*
X294348Y-22084D01*
X294315Y-22047D01*
X294311Y-22042D01*
X294306Y-22033D01*
X294292Y-22019D01*
X294269Y-22005D01*
X294246Y-21982D01*
X294214Y-21959D01*
X294177Y-21936D01*
X294135Y-21908D01*
X294089Y-21881D01*
X294033Y-21858D01*
X293973Y-21835D01*
X293909Y-21812D01*
X293835Y-21798D01*
X293761Y-21784D01*
X293673Y-21775D01*
X293585Y-21770D01*
X293544D01*
X293511Y-21775D01*
X293474D01*
X293433Y-21779D01*
X293336Y-21793D01*
X293230Y-21816D01*
X293119Y-21848D01*
X293012Y-21895D01*
X292966Y-21922D01*
X292920Y-21955D01*
X292915D01*
X292911Y-21964D01*
X292901Y-21973D01*
X292883Y-21992D01*
X292864Y-22015D01*
X292846Y-22038D01*
X292823Y-22070D01*
X292800Y-22112D01*
X292772Y-22153D01*
X292749Y-22204D01*
X292721Y-22260D01*
X292694Y-22324D01*
X292670Y-22394D01*
X292643Y-22467D01*
X292620Y-22551D01*
X292601Y-22643D01*
X291977Y-22541D01*
Y-22532D01*
X291982Y-22509D01*
X291991Y-22472D01*
X292005Y-22421D01*
X292019Y-22361D01*
X292042Y-22292D01*
X292065Y-22213D01*
X292093Y-22130D01*
X292125Y-22047D01*
X292167Y-21955D01*
X292208Y-21867D01*
X292259Y-21779D01*
X292315Y-21691D01*
X292375Y-21613D01*
X292439Y-21539D01*
X292513Y-21470D01*
X292518Y-21465D01*
X292532Y-21456D01*
X292555Y-21437D01*
X292592Y-21419D01*
X292634Y-21391D01*
X292684Y-21363D01*
X292744Y-21331D01*
X292814Y-21299D01*
X292892Y-21271D01*
X292980Y-21239D01*
X293077Y-21211D01*
X293179Y-21183D01*
X293294Y-21165D01*
X293414Y-21146D01*
X293544Y-21137D01*
X293682Y-21132D01*
X293738D01*
X293779Y-21137D01*
D02*
G37*
G36*
X288804Y-25059D02*
X291354D01*
Y-25803D01*
X288120D01*
Y-19492D01*
X288804D01*
Y-25059D01*
D02*
G37*
G36*
X277420Y-20236D02*
X275706D01*
Y-25803D01*
X275022D01*
Y-20236D01*
X273317D01*
Y-19492D01*
X277420D01*
Y-20236D01*
D02*
G37*
G36*
X260178Y-25803D02*
X259545D01*
Y-21234D01*
X260178D01*
Y-25803D01*
D02*
G37*
G36*
X246891D02*
X246258D01*
Y-19492D01*
X246891D01*
Y-25803D01*
D02*
G37*
G36*
X245283D02*
X244650D01*
Y-19492D01*
X245283D01*
Y-25803D01*
D02*
G37*
G36*
X243699D02*
X243066D01*
Y-21234D01*
X243699D01*
Y-25803D01*
D02*
G37*
G36*
X237461Y-19497D02*
X237522D01*
X237595Y-19501D01*
X237669Y-19506D01*
X237836Y-19520D01*
X238002Y-19543D01*
X238081Y-19557D01*
X238159Y-19571D01*
X238233Y-19589D01*
X238302Y-19612D01*
X238307D01*
X238321Y-19622D01*
X238349Y-19626D01*
X238376Y-19640D01*
X238418Y-19658D01*
X238464Y-19682D01*
X238515Y-19705D01*
X238570Y-19737D01*
X238630Y-19769D01*
X238690Y-19811D01*
X238755Y-19857D01*
X238824Y-19908D01*
X238889Y-19963D01*
X238954Y-20023D01*
X239018Y-20088D01*
X239083Y-20162D01*
X239088Y-20167D01*
X239097Y-20181D01*
X239115Y-20204D01*
X239139Y-20236D01*
X239166Y-20273D01*
X239199Y-20319D01*
X239235Y-20375D01*
X239272Y-20439D01*
X239314Y-20509D01*
X239356Y-20587D01*
X239397Y-20670D01*
X239443Y-20758D01*
X239485Y-20855D01*
X239527Y-20957D01*
X239563Y-21063D01*
X239600Y-21174D01*
Y-21179D01*
X239610Y-21202D01*
X239619Y-21234D01*
X239628Y-21280D01*
X239647Y-21340D01*
X239661Y-21409D01*
X239679Y-21488D01*
X239698Y-21580D01*
X239711Y-21682D01*
X239730Y-21793D01*
X239748Y-21908D01*
X239762Y-22038D01*
X239772Y-22172D01*
X239781Y-22315D01*
X239790Y-22463D01*
Y-22615D01*
Y-22620D01*
Y-22629D01*
Y-22643D01*
Y-22661D01*
Y-22689D01*
Y-22717D01*
X239785Y-22754D01*
Y-22795D01*
X239781Y-22888D01*
X239772Y-22994D01*
X239762Y-23114D01*
X239748Y-23244D01*
X239735Y-23382D01*
X239711Y-23530D01*
X239688Y-23683D01*
X239656Y-23835D01*
X239619Y-23988D01*
X239577Y-24145D01*
X239527Y-24292D01*
X239471Y-24436D01*
X239467Y-24445D01*
X239457Y-24468D01*
X239439Y-24505D01*
X239416Y-24556D01*
X239383Y-24616D01*
X239346Y-24685D01*
X239300Y-24764D01*
X239254Y-24847D01*
X239199Y-24935D01*
X239134Y-25022D01*
X239069Y-25110D01*
X239000Y-25193D01*
X238921Y-25281D01*
X238838Y-25360D01*
X238755Y-25429D01*
X238663Y-25494D01*
X238658Y-25498D01*
X238640Y-25508D01*
X238612Y-25521D01*
X238575Y-25540D01*
X238524Y-25567D01*
X238464Y-25591D01*
X238399Y-25618D01*
X238321Y-25646D01*
X238233Y-25678D01*
X238136Y-25706D01*
X238030Y-25729D01*
X237914Y-25752D01*
X237794Y-25775D01*
X237660Y-25789D01*
X237522Y-25798D01*
X237378Y-25803D01*
X235512D01*
Y-19492D01*
X237406D01*
X237461Y-19497D01*
D02*
G37*
G36*
X321790Y-21234D02*
X322432D01*
Y-21835D01*
X321790D01*
Y-24509D01*
Y-24514D01*
Y-24523D01*
Y-24546D01*
Y-24570D01*
Y-24597D01*
X321795Y-24630D01*
X321799Y-24708D01*
X321804Y-24787D01*
X321813Y-24865D01*
X321827Y-24935D01*
X321836Y-24962D01*
X321846Y-24985D01*
X321850Y-24990D01*
X321860Y-25008D01*
X321883Y-25032D01*
X321915Y-25059D01*
X321957Y-25092D01*
X322007Y-25115D01*
X322072Y-25133D01*
X322151Y-25138D01*
X322192D01*
X322225Y-25133D01*
X322266D01*
X322312Y-25124D01*
X322372Y-25119D01*
X322432Y-25110D01*
X322520Y-25794D01*
X322516D01*
X322506Y-25798D01*
X322493D01*
X322474Y-25803D01*
X322428Y-25817D01*
X322363Y-25826D01*
X322289Y-25840D01*
X322211Y-25854D01*
X322128Y-25859D01*
X322044Y-25863D01*
X321989D01*
X321961Y-25859D01*
X321929Y-25854D01*
X321855Y-25845D01*
X321767Y-25831D01*
X321679Y-25808D01*
X321592Y-25775D01*
X321509Y-25734D01*
X321499Y-25729D01*
X321476Y-25711D01*
X321439Y-25683D01*
X321398Y-25641D01*
X321351Y-25591D01*
X321305Y-25530D01*
X321264Y-25457D01*
X321231Y-25378D01*
Y-25374D01*
X321227Y-25369D01*
Y-25350D01*
X321222Y-25332D01*
X321213Y-25304D01*
X321208Y-25267D01*
X321204Y-25226D01*
X321194Y-25179D01*
X321190Y-25119D01*
X321181Y-25055D01*
X321176Y-24981D01*
X321171Y-24898D01*
X321167Y-24805D01*
X321162Y-24704D01*
X321157Y-24588D01*
Y-24468D01*
Y-21835D01*
X320691D01*
Y-21234D01*
X321157D01*
Y-20102D01*
X321790Y-19635D01*
Y-21234D01*
D02*
G37*
G36*
X319781Y-21234D02*
X320423D01*
Y-21835D01*
X319781D01*
Y-24509D01*
Y-24514D01*
Y-24523D01*
Y-24546D01*
Y-24570D01*
Y-24597D01*
X319785Y-24630D01*
X319790Y-24708D01*
X319795Y-24787D01*
X319804Y-24865D01*
X319818Y-24935D01*
X319827Y-24962D01*
X319836Y-24985D01*
X319841Y-24990D01*
X319850Y-25008D01*
X319873Y-25032D01*
X319905Y-25059D01*
X319947Y-25092D01*
X319998Y-25115D01*
X320062Y-25133D01*
X320141Y-25138D01*
X320182D01*
X320215Y-25133D01*
X320256D01*
X320303Y-25124D01*
X320363Y-25119D01*
X320423Y-25110D01*
X320511Y-25794D01*
X320506D01*
X320497Y-25798D01*
X320483D01*
X320464Y-25803D01*
X320418Y-25817D01*
X320354Y-25826D01*
X320280Y-25840D01*
X320201Y-25854D01*
X320118Y-25859D01*
X320035Y-25863D01*
X319979D01*
X319952Y-25859D01*
X319919Y-25854D01*
X319845Y-25845D01*
X319758Y-25831D01*
X319670Y-25808D01*
X319582Y-25775D01*
X319499Y-25734D01*
X319490Y-25729D01*
X319466Y-25711D01*
X319429Y-25683D01*
X319388Y-25641D01*
X319342Y-25591D01*
X319296Y-25531D01*
X319254Y-25457D01*
X319222Y-25378D01*
Y-25374D01*
X319217Y-25369D01*
Y-25350D01*
X319212Y-25332D01*
X319203Y-25304D01*
X319198Y-25267D01*
X319194Y-25226D01*
X319185Y-25179D01*
X319180Y-25119D01*
X319171Y-25055D01*
X319166Y-24981D01*
X319162Y-24898D01*
X319157Y-24805D01*
X319152Y-24704D01*
X319148Y-24588D01*
Y-24468D01*
Y-21835D01*
X318681D01*
Y-21234D01*
X319148D01*
Y-20102D01*
X319781Y-19635D01*
Y-21234D01*
D02*
G37*
G36*
X348341Y-21137D02*
X348392Y-21142D01*
X348457Y-21151D01*
X348526Y-21165D01*
X348609Y-21183D01*
X348697Y-21211D01*
X348790Y-21243D01*
X348887Y-21280D01*
X348988Y-21331D01*
X349090Y-21391D01*
X349191Y-21460D01*
X349293Y-21543D01*
X349390Y-21641D01*
X349483Y-21747D01*
X349487Y-21756D01*
X349506Y-21775D01*
X349529Y-21811D01*
X349556Y-21862D01*
X349593Y-21922D01*
X349635Y-22001D01*
X349681Y-22093D01*
X349727Y-22195D01*
X349769Y-22315D01*
X349815Y-22444D01*
X349857Y-22592D01*
X349894Y-22749D01*
X349921Y-22920D01*
X349949Y-23105D01*
X349963Y-23304D01*
X349968Y-23516D01*
Y-23720D01*
X347173D01*
Y-23729D01*
X347177Y-23752D01*
Y-23793D01*
X347182Y-23844D01*
X347191Y-23909D01*
X347200Y-23983D01*
X347214Y-24066D01*
X347233Y-24154D01*
X347274Y-24343D01*
X347302Y-24440D01*
X347334Y-24537D01*
X347376Y-24630D01*
X347417Y-24722D01*
X347468Y-24805D01*
X347524Y-24884D01*
X347528Y-24888D01*
X347538Y-24902D01*
X347556Y-24921D01*
X347579Y-24944D01*
X347611Y-24972D01*
X347649Y-25008D01*
X347690Y-25041D01*
X347741Y-25078D01*
X347796Y-25115D01*
X347852Y-25147D01*
X347916Y-25179D01*
X347986Y-25212D01*
X348060Y-25235D01*
X348134Y-25253D01*
X348217Y-25267D01*
X348300Y-25272D01*
X348332D01*
X348369Y-25267D01*
X348415Y-25258D01*
X348475Y-25244D01*
X348540Y-25221D01*
X348614Y-25193D01*
X348693Y-25156D01*
X348771Y-25106D01*
X348854Y-25041D01*
X348937Y-24967D01*
X349021Y-24874D01*
X349099Y-24768D01*
X349136Y-24708D01*
X349168Y-24644D01*
X349205Y-24574D01*
X349238Y-24500D01*
X349266Y-24417D01*
X349293Y-24334D01*
X349949Y-24431D01*
Y-24440D01*
X349940Y-24463D01*
X349931Y-24500D01*
X349917Y-24551D01*
X349898Y-24611D01*
X349875Y-24685D01*
X349848Y-24759D01*
X349811Y-24847D01*
X349774Y-24935D01*
X349732Y-25022D01*
X349681Y-25115D01*
X349626Y-25207D01*
X349566Y-25300D01*
X349501Y-25383D01*
X349432Y-25466D01*
X349353Y-25540D01*
X349349Y-25544D01*
X349335Y-25554D01*
X349312Y-25572D01*
X349279Y-25595D01*
X349238Y-25628D01*
X349187Y-25655D01*
X349127Y-25692D01*
X349062Y-25725D01*
X348988Y-25757D01*
X348910Y-25794D01*
X348822Y-25822D01*
X348729Y-25849D01*
X348628Y-25877D01*
X348522Y-25896D01*
X348411Y-25905D01*
X348295Y-25909D01*
X348258D01*
X348217Y-25905D01*
X348161Y-25900D01*
X348097Y-25891D01*
X348018Y-25877D01*
X347930Y-25859D01*
X347838Y-25835D01*
X347736Y-25803D01*
X347630Y-25762D01*
X347524Y-25715D01*
X347417Y-25655D01*
X347311Y-25586D01*
X347205Y-25508D01*
X347103Y-25415D01*
X347006Y-25309D01*
X347002Y-25300D01*
X346983Y-25281D01*
X346960Y-25244D01*
X346928Y-25198D01*
X346891Y-25133D01*
X346849Y-25055D01*
X346808Y-24967D01*
X346761Y-24865D01*
X346715Y-24745D01*
X346674Y-24616D01*
X346632Y-24473D01*
X346595Y-24316D01*
X346563Y-24149D01*
X346540Y-23964D01*
X346521Y-23770D01*
X346517Y-23562D01*
Y-23558D01*
Y-23549D01*
Y-23535D01*
Y-23512D01*
Y-23484D01*
X346521Y-23447D01*
Y-23410D01*
X346526Y-23368D01*
X346530Y-23267D01*
X346544Y-23156D01*
X346558Y-23031D01*
X346577Y-22893D01*
X346604Y-22749D01*
X346637Y-22602D01*
X346678Y-22449D01*
X346724Y-22301D01*
X346780Y-22153D01*
X346849Y-22015D01*
X346923Y-21881D01*
X347011Y-21756D01*
X347016Y-21747D01*
X347034Y-21728D01*
X347062Y-21701D01*
X347099Y-21659D01*
X347149Y-21613D01*
X347210Y-21557D01*
X347279Y-21502D01*
X347357Y-21442D01*
X347441Y-21386D01*
X347538Y-21331D01*
X347644Y-21275D01*
X347755Y-21229D01*
X347875Y-21188D01*
X348000Y-21160D01*
X348134Y-21137D01*
X348272Y-21132D01*
X348305D01*
X348341Y-21137D01*
D02*
G37*
G36*
X324618D02*
X324669Y-21142D01*
X324733Y-21151D01*
X324807Y-21165D01*
X324890Y-21183D01*
X324983Y-21206D01*
X325080Y-21239D01*
X325177Y-21280D01*
X325283Y-21331D01*
X325389Y-21386D01*
X325496Y-21456D01*
X325597Y-21539D01*
X325699Y-21631D01*
X325796Y-21737D01*
X325800Y-21742D01*
X325819Y-21765D01*
X325842Y-21802D01*
X325874Y-21848D01*
X325911Y-21913D01*
X325957Y-21987D01*
X325999Y-22075D01*
X326050Y-22181D01*
X326096Y-22297D01*
X326142Y-22426D01*
X326184Y-22569D01*
X326221Y-22722D01*
X326253Y-22893D01*
X326276Y-23073D01*
X326295Y-23267D01*
X326299Y-23475D01*
Y-23479D01*
Y-23489D01*
Y-23507D01*
Y-23530D01*
Y-23558D01*
X326295Y-23590D01*
Y-23632D01*
X326290Y-23678D01*
X326286Y-23780D01*
X326272Y-23895D01*
X326258Y-24024D01*
X326239Y-24168D01*
X326212Y-24316D01*
X326179Y-24463D01*
X326138Y-24616D01*
X326087Y-24768D01*
X326031Y-24916D01*
X325967Y-25059D01*
X325888Y-25189D01*
X325800Y-25309D01*
X325796Y-25313D01*
X325777Y-25337D01*
X325750Y-25364D01*
X325713Y-25401D01*
X325662Y-25447D01*
X325602Y-25498D01*
X325537Y-25554D01*
X325459Y-25609D01*
X325371Y-25664D01*
X325278Y-25720D01*
X325172Y-25771D01*
X325061Y-25817D01*
X324941Y-25854D01*
X324816Y-25882D01*
X324682Y-25905D01*
X324544Y-25909D01*
X324512D01*
X324470Y-25905D01*
X324419Y-25900D01*
X324354Y-25891D01*
X324281Y-25877D01*
X324197Y-25859D01*
X324105Y-25835D01*
X324008Y-25803D01*
X323906Y-25762D01*
X323800Y-25715D01*
X323698Y-25655D01*
X323592Y-25586D01*
X323486Y-25508D01*
X323384Y-25415D01*
X323287Y-25309D01*
X323283Y-25300D01*
X323264Y-25281D01*
X323241Y-25244D01*
X323209Y-25193D01*
X323172Y-25133D01*
X323130Y-25055D01*
X323084Y-24962D01*
X323038Y-24856D01*
X322991Y-24740D01*
X322945Y-24607D01*
X322904Y-24459D01*
X322867Y-24297D01*
X322834Y-24126D01*
X322811Y-23937D01*
X322793Y-23738D01*
X322788Y-23521D01*
Y-23516D01*
Y-23507D01*
Y-23493D01*
Y-23470D01*
Y-23442D01*
X322793Y-23405D01*
Y-23368D01*
X322797Y-23327D01*
X322802Y-23230D01*
X322816Y-23114D01*
X322830Y-22989D01*
X322848Y-22856D01*
X322876Y-22712D01*
X322908Y-22565D01*
X322950Y-22417D01*
X322996Y-22269D01*
X323052Y-22126D01*
X323121Y-21987D01*
X323195Y-21858D01*
X323283Y-21737D01*
X323287Y-21728D01*
X323306Y-21710D01*
X323333Y-21682D01*
X323370Y-21641D01*
X323421Y-21599D01*
X323481Y-21548D01*
X323551Y-21493D01*
X323629Y-21433D01*
X323712Y-21377D01*
X323809Y-21322D01*
X323916Y-21271D01*
X324026Y-21225D01*
X324147Y-21188D01*
X324271Y-21160D01*
X324405Y-21137D01*
X324544Y-21132D01*
X324576D01*
X324618Y-21137D01*
D02*
G37*
G36*
X316579Y-21137D02*
X316630Y-21142D01*
X316694Y-21151D01*
X316768Y-21165D01*
X316851Y-21183D01*
X316944Y-21206D01*
X317041Y-21239D01*
X317138Y-21280D01*
X317244Y-21331D01*
X317351Y-21386D01*
X317457Y-21456D01*
X317558Y-21539D01*
X317660Y-21631D01*
X317757Y-21737D01*
X317762Y-21742D01*
X317780Y-21765D01*
X317803Y-21802D01*
X317836Y-21848D01*
X317873Y-21913D01*
X317919Y-21987D01*
X317960Y-22075D01*
X318011Y-22181D01*
X318057Y-22297D01*
X318104Y-22426D01*
X318145Y-22569D01*
X318182Y-22722D01*
X318214Y-22893D01*
X318237Y-23073D01*
X318256Y-23267D01*
X318261Y-23475D01*
Y-23479D01*
Y-23489D01*
Y-23507D01*
Y-23530D01*
Y-23558D01*
X318256Y-23590D01*
Y-23632D01*
X318251Y-23678D01*
X318247Y-23780D01*
X318233Y-23895D01*
X318219Y-24024D01*
X318201Y-24168D01*
X318173Y-24316D01*
X318141Y-24463D01*
X318099Y-24616D01*
X318048Y-24768D01*
X317993Y-24916D01*
X317928Y-25059D01*
X317849Y-25189D01*
X317762Y-25309D01*
X317757Y-25313D01*
X317739Y-25337D01*
X317711Y-25364D01*
X317674Y-25401D01*
X317623Y-25447D01*
X317563Y-25498D01*
X317498Y-25554D01*
X317420Y-25609D01*
X317332Y-25664D01*
X317240Y-25720D01*
X317133Y-25771D01*
X317022Y-25817D01*
X316902Y-25854D01*
X316778Y-25882D01*
X316644Y-25905D01*
X316505Y-25909D01*
X316473D01*
X316431Y-25905D01*
X316380Y-25900D01*
X316316Y-25891D01*
X316242Y-25877D01*
X316159Y-25859D01*
X316066Y-25835D01*
X315969Y-25803D01*
X315867Y-25762D01*
X315761Y-25715D01*
X315660Y-25655D01*
X315553Y-25586D01*
X315447Y-25508D01*
X315345Y-25415D01*
X315248Y-25309D01*
X315244Y-25300D01*
X315225Y-25281D01*
X315202Y-25244D01*
X315170Y-25193D01*
X315133Y-25133D01*
X315091Y-25055D01*
X315045Y-24962D01*
X314999Y-24856D01*
X314953Y-24740D01*
X314907Y-24607D01*
X314865Y-24459D01*
X314828Y-24297D01*
X314796Y-24126D01*
X314773Y-23937D01*
X314754Y-23738D01*
X314749Y-23521D01*
Y-23516D01*
Y-23507D01*
Y-23493D01*
Y-23470D01*
Y-23442D01*
X314754Y-23405D01*
Y-23368D01*
X314759Y-23327D01*
X314763Y-23230D01*
X314777Y-23114D01*
X314791Y-22990D01*
X314809Y-22856D01*
X314837Y-22712D01*
X314869Y-22565D01*
X314911Y-22417D01*
X314957Y-22269D01*
X315013Y-22126D01*
X315082Y-21987D01*
X315156Y-21858D01*
X315244Y-21737D01*
X315248Y-21728D01*
X315267Y-21710D01*
X315295Y-21682D01*
X315332Y-21641D01*
X315382Y-21599D01*
X315442Y-21548D01*
X315512Y-21493D01*
X315590Y-21433D01*
X315673Y-21377D01*
X315770Y-21322D01*
X315877Y-21271D01*
X315988Y-21225D01*
X316108Y-21188D01*
X316232Y-21160D01*
X316366Y-21137D01*
X316505Y-21132D01*
X316537D01*
X316579Y-21137D01*
D02*
G37*
G36*
X301333D02*
X301384Y-21142D01*
X301448Y-21151D01*
X301518Y-21165D01*
X301601Y-21183D01*
X301689Y-21211D01*
X301781Y-21243D01*
X301878Y-21280D01*
X301980Y-21331D01*
X302081Y-21391D01*
X302183Y-21460D01*
X302285Y-21543D01*
X302382Y-21641D01*
X302474Y-21747D01*
X302479Y-21756D01*
X302497Y-21775D01*
X302520Y-21812D01*
X302548Y-21862D01*
X302585Y-21922D01*
X302626Y-22001D01*
X302673Y-22093D01*
X302719Y-22195D01*
X302761Y-22315D01*
X302807Y-22444D01*
X302848Y-22592D01*
X302885Y-22749D01*
X302913Y-22920D01*
X302941Y-23105D01*
X302955Y-23304D01*
X302959Y-23516D01*
Y-23720D01*
X300164D01*
Y-23729D01*
X300169Y-23752D01*
Y-23793D01*
X300173Y-23844D01*
X300183Y-23909D01*
X300192Y-23983D01*
X300206Y-24066D01*
X300224Y-24154D01*
X300266Y-24343D01*
X300293Y-24440D01*
X300326Y-24537D01*
X300367Y-24630D01*
X300409Y-24722D01*
X300460Y-24805D01*
X300515Y-24884D01*
X300520Y-24888D01*
X300529Y-24902D01*
X300548Y-24921D01*
X300571Y-24944D01*
X300603Y-24972D01*
X300640Y-25008D01*
X300681Y-25041D01*
X300732Y-25078D01*
X300788Y-25115D01*
X300843Y-25147D01*
X300908Y-25179D01*
X300977Y-25212D01*
X301051Y-25235D01*
X301125Y-25253D01*
X301208Y-25267D01*
X301291Y-25272D01*
X301324D01*
X301361Y-25267D01*
X301407Y-25258D01*
X301467Y-25244D01*
X301532Y-25221D01*
X301606Y-25193D01*
X301684Y-25156D01*
X301763Y-25106D01*
X301846Y-25041D01*
X301929Y-24967D01*
X302012Y-24874D01*
X302091Y-24768D01*
X302128Y-24708D01*
X302160Y-24644D01*
X302197Y-24574D01*
X302229Y-24500D01*
X302257Y-24417D01*
X302285Y-24334D01*
X302941Y-24431D01*
Y-24440D01*
X302931Y-24463D01*
X302922Y-24500D01*
X302908Y-24551D01*
X302890Y-24611D01*
X302867Y-24685D01*
X302839Y-24759D01*
X302802Y-24847D01*
X302765Y-24935D01*
X302724Y-25022D01*
X302673Y-25115D01*
X302617Y-25207D01*
X302557Y-25300D01*
X302493Y-25383D01*
X302423Y-25466D01*
X302345Y-25540D01*
X302340Y-25544D01*
X302326Y-25554D01*
X302303Y-25572D01*
X302271Y-25595D01*
X302229Y-25628D01*
X302178Y-25655D01*
X302118Y-25692D01*
X302054Y-25725D01*
X301980Y-25757D01*
X301901Y-25794D01*
X301813Y-25822D01*
X301721Y-25849D01*
X301619Y-25877D01*
X301513Y-25896D01*
X301402Y-25905D01*
X301287Y-25909D01*
X301250D01*
X301208Y-25905D01*
X301153Y-25900D01*
X301088Y-25891D01*
X301009Y-25877D01*
X300922Y-25859D01*
X300829Y-25835D01*
X300728Y-25803D01*
X300622Y-25762D01*
X300515Y-25715D01*
X300409Y-25655D01*
X300303Y-25586D01*
X300196Y-25508D01*
X300095Y-25415D01*
X299998Y-25309D01*
X299993Y-25300D01*
X299975Y-25281D01*
X299952Y-25244D01*
X299919Y-25198D01*
X299882Y-25133D01*
X299841Y-25055D01*
X299799Y-24967D01*
X299753Y-24865D01*
X299707Y-24745D01*
X299665Y-24616D01*
X299623Y-24473D01*
X299587Y-24316D01*
X299554Y-24149D01*
X299531Y-23964D01*
X299513Y-23770D01*
X299508Y-23562D01*
Y-23558D01*
Y-23549D01*
Y-23535D01*
Y-23512D01*
Y-23484D01*
X299513Y-23447D01*
Y-23410D01*
X299517Y-23368D01*
X299522Y-23267D01*
X299536Y-23156D01*
X299550Y-23031D01*
X299568Y-22893D01*
X299596Y-22749D01*
X299628Y-22602D01*
X299670Y-22449D01*
X299716Y-22301D01*
X299771Y-22153D01*
X299841Y-22015D01*
X299915Y-21881D01*
X300002Y-21756D01*
X300007Y-21747D01*
X300026Y-21728D01*
X300053Y-21701D01*
X300090Y-21659D01*
X300141Y-21613D01*
X300201Y-21557D01*
X300270Y-21502D01*
X300349Y-21442D01*
X300432Y-21386D01*
X300529Y-21331D01*
X300635Y-21275D01*
X300746Y-21229D01*
X300866Y-21188D01*
X300991Y-21160D01*
X301125Y-21137D01*
X301264Y-21132D01*
X301296D01*
X301333Y-21137D01*
D02*
G37*
G36*
X279610D02*
X279661Y-21142D01*
X279725Y-21151D01*
X279799Y-21165D01*
X279882Y-21183D01*
X279975Y-21206D01*
X280072Y-21239D01*
X280169Y-21280D01*
X280275Y-21331D01*
X280381Y-21386D01*
X280487Y-21456D01*
X280589Y-21539D01*
X280691Y-21631D01*
X280788Y-21737D01*
X280792Y-21742D01*
X280811Y-21765D01*
X280834Y-21802D01*
X280866Y-21848D01*
X280903Y-21913D01*
X280949Y-21987D01*
X280991Y-22075D01*
X281042Y-22181D01*
X281088Y-22297D01*
X281134Y-22426D01*
X281176Y-22569D01*
X281213Y-22722D01*
X281245Y-22893D01*
X281268Y-23073D01*
X281287Y-23267D01*
X281291Y-23475D01*
Y-23479D01*
Y-23489D01*
Y-23507D01*
Y-23530D01*
Y-23558D01*
X281287Y-23590D01*
Y-23632D01*
X281282Y-23678D01*
X281277Y-23780D01*
X281264Y-23895D01*
X281250Y-24024D01*
X281231Y-24168D01*
X281204Y-24316D01*
X281171Y-24463D01*
X281130Y-24616D01*
X281079Y-24768D01*
X281023Y-24916D01*
X280959Y-25059D01*
X280880Y-25189D01*
X280792Y-25309D01*
X280788Y-25313D01*
X280769Y-25337D01*
X280742Y-25364D01*
X280705Y-25401D01*
X280654Y-25447D01*
X280594Y-25498D01*
X280529Y-25554D01*
X280451Y-25609D01*
X280363Y-25664D01*
X280270Y-25720D01*
X280164Y-25771D01*
X280053Y-25817D01*
X279933Y-25854D01*
X279808Y-25882D01*
X279674Y-25905D01*
X279536Y-25909D01*
X279503D01*
X279462Y-25905D01*
X279411Y-25900D01*
X279346Y-25891D01*
X279272Y-25877D01*
X279189Y-25859D01*
X279097Y-25835D01*
X279000Y-25803D01*
X278898Y-25762D01*
X278792Y-25715D01*
X278690Y-25655D01*
X278584Y-25586D01*
X278478Y-25508D01*
X278376Y-25415D01*
X278279Y-25309D01*
X278274Y-25300D01*
X278256Y-25281D01*
X278233Y-25244D01*
X278201Y-25193D01*
X278164Y-25133D01*
X278122Y-25055D01*
X278076Y-24962D01*
X278030Y-24856D01*
X277983Y-24740D01*
X277937Y-24607D01*
X277896Y-24459D01*
X277859Y-24297D01*
X277826Y-24126D01*
X277803Y-23937D01*
X277785Y-23738D01*
X277780Y-23521D01*
Y-23516D01*
Y-23507D01*
Y-23493D01*
Y-23470D01*
Y-23442D01*
X277785Y-23405D01*
Y-23368D01*
X277789Y-23327D01*
X277794Y-23230D01*
X277808Y-23114D01*
X277822Y-22990D01*
X277840Y-22856D01*
X277868Y-22712D01*
X277900Y-22565D01*
X277942Y-22417D01*
X277988Y-22269D01*
X278044Y-22126D01*
X278113Y-21987D01*
X278187Y-21858D01*
X278274Y-21737D01*
X278279Y-21728D01*
X278298Y-21710D01*
X278325Y-21682D01*
X278362Y-21641D01*
X278413Y-21599D01*
X278473Y-21548D01*
X278542Y-21493D01*
X278621Y-21433D01*
X278704Y-21377D01*
X278801Y-21322D01*
X278907Y-21271D01*
X279018Y-21225D01*
X279138Y-21188D01*
X279263Y-21160D01*
X279397Y-21137D01*
X279536Y-21132D01*
X279568D01*
X279610Y-21137D01*
D02*
G37*
G36*
X266775D02*
X266826Y-21142D01*
X266891Y-21151D01*
X266960Y-21165D01*
X267043Y-21183D01*
X267131Y-21211D01*
X267224Y-21243D01*
X267320Y-21280D01*
X267422Y-21331D01*
X267524Y-21391D01*
X267625Y-21460D01*
X267727Y-21543D01*
X267824Y-21641D01*
X267916Y-21747D01*
X267921Y-21756D01*
X267940Y-21775D01*
X267963Y-21812D01*
X267990Y-21862D01*
X268027Y-21922D01*
X268069Y-22001D01*
X268115Y-22093D01*
X268161Y-22195D01*
X268203Y-22315D01*
X268249Y-22444D01*
X268291Y-22592D01*
X268328Y-22749D01*
X268355Y-22920D01*
X268383Y-23105D01*
X268397Y-23304D01*
X268402Y-23516D01*
Y-23720D01*
X265606D01*
Y-23729D01*
X265611Y-23752D01*
Y-23793D01*
X265616Y-23844D01*
X265625Y-23909D01*
X265634Y-23983D01*
X265648Y-24066D01*
X265667Y-24154D01*
X265708Y-24343D01*
X265736Y-24440D01*
X265768Y-24537D01*
X265810Y-24630D01*
X265851Y-24722D01*
X265902Y-24805D01*
X265958Y-24884D01*
X265962Y-24888D01*
X265971Y-24902D01*
X265990Y-24921D01*
X266013Y-24944D01*
X266045Y-24972D01*
X266082Y-25008D01*
X266124Y-25041D01*
X266175Y-25078D01*
X266230Y-25115D01*
X266286Y-25147D01*
X266350Y-25179D01*
X266420Y-25212D01*
X266494Y-25235D01*
X266567Y-25253D01*
X266651Y-25267D01*
X266734Y-25272D01*
X266766D01*
X266803Y-25267D01*
X266849Y-25258D01*
X266909Y-25244D01*
X266974Y-25221D01*
X267048Y-25193D01*
X267126Y-25156D01*
X267205Y-25106D01*
X267288Y-25041D01*
X267371Y-24967D01*
X267455Y-24874D01*
X267533Y-24768D01*
X267570Y-24708D01*
X267602Y-24644D01*
X267639Y-24574D01*
X267672Y-24500D01*
X267699Y-24417D01*
X267727Y-24334D01*
X268383Y-24431D01*
Y-24440D01*
X268374Y-24463D01*
X268365Y-24500D01*
X268351Y-24551D01*
X268332Y-24611D01*
X268309Y-24685D01*
X268282Y-24759D01*
X268245Y-24847D01*
X268208Y-24935D01*
X268166Y-25022D01*
X268115Y-25115D01*
X268060Y-25207D01*
X268000Y-25300D01*
X267935Y-25383D01*
X267866Y-25466D01*
X267787Y-25540D01*
X267782Y-25544D01*
X267769Y-25554D01*
X267746Y-25572D01*
X267713Y-25595D01*
X267672Y-25628D01*
X267621Y-25655D01*
X267561Y-25692D01*
X267496Y-25725D01*
X267422Y-25757D01*
X267344Y-25794D01*
X267256Y-25822D01*
X267163Y-25849D01*
X267062Y-25877D01*
X266955Y-25896D01*
X266845Y-25905D01*
X266729Y-25909D01*
X266692D01*
X266651Y-25905D01*
X266595Y-25900D01*
X266530Y-25891D01*
X266452Y-25877D01*
X266364Y-25859D01*
X266272Y-25835D01*
X266170Y-25803D01*
X266064Y-25762D01*
X265958Y-25715D01*
X265851Y-25655D01*
X265745Y-25586D01*
X265639Y-25508D01*
X265537Y-25415D01*
X265440Y-25309D01*
X265436Y-25300D01*
X265417Y-25281D01*
X265394Y-25244D01*
X265362Y-25198D01*
X265325Y-25133D01*
X265283Y-25055D01*
X265242Y-24967D01*
X265195Y-24865D01*
X265149Y-24745D01*
X265107Y-24616D01*
X265066Y-24473D01*
X265029Y-24316D01*
X264997Y-24149D01*
X264973Y-23964D01*
X264955Y-23770D01*
X264950Y-23562D01*
Y-23558D01*
Y-23549D01*
Y-23535D01*
Y-23512D01*
Y-23484D01*
X264955Y-23447D01*
Y-23410D01*
X264960Y-23368D01*
X264964Y-23267D01*
X264978Y-23156D01*
X264992Y-23031D01*
X265010Y-22893D01*
X265038Y-22749D01*
X265071Y-22602D01*
X265112Y-22449D01*
X265158Y-22301D01*
X265214Y-22153D01*
X265283Y-22015D01*
X265357Y-21881D01*
X265445Y-21756D01*
X265449Y-21747D01*
X265468Y-21728D01*
X265496Y-21701D01*
X265533Y-21659D01*
X265583Y-21613D01*
X265643Y-21557D01*
X265713Y-21502D01*
X265791Y-21442D01*
X265874Y-21386D01*
X265971Y-21331D01*
X266078Y-21275D01*
X266189Y-21229D01*
X266309Y-21188D01*
X266434Y-21160D01*
X266567Y-21137D01*
X266706Y-21132D01*
X266738D01*
X266775Y-21137D01*
D02*
G37*
G36*
X307066Y-25803D02*
Y-25808D01*
Y-25826D01*
Y-25854D01*
Y-25886D01*
X307062Y-25928D01*
X307057Y-25979D01*
X307052Y-26034D01*
X307048Y-26094D01*
X307029Y-26224D01*
X307002Y-26353D01*
X306965Y-26482D01*
X306942Y-26547D01*
X306914Y-26602D01*
Y-26607D01*
X306905Y-26616D01*
X306900Y-26630D01*
X306886Y-26649D01*
X306849Y-26704D01*
X306803Y-26769D01*
X306738Y-26838D01*
X306664Y-26912D01*
X306577Y-26986D01*
X306475Y-27051D01*
X306295Y-26718D01*
X306299D01*
X306304Y-26713D01*
X306327Y-26699D01*
X306364Y-26672D01*
X306406Y-26639D01*
X306456Y-26598D01*
X306503Y-26542D01*
X306549Y-26478D01*
X306591Y-26408D01*
Y-26404D01*
X306595Y-26399D01*
X306600Y-26385D01*
X306609Y-26371D01*
X306614Y-26348D01*
X306623Y-26321D01*
X306632Y-26293D01*
X306641Y-26256D01*
X306651Y-26214D01*
X306664Y-26173D01*
X306674Y-26122D01*
X306678Y-26066D01*
X306687Y-26006D01*
X306692Y-25946D01*
X306697Y-25877D01*
X306701Y-25803D01*
X306341D01*
Y-24921D01*
X307066D01*
Y-25803D01*
D02*
G37*
G36*
X353419Y-19391D02*
X353428Y-19409D01*
X353447Y-19437D01*
X353470Y-19478D01*
X353497Y-19529D01*
X353530Y-19589D01*
X353567Y-19658D01*
X353608Y-19737D01*
X353654Y-19825D01*
X353705Y-19922D01*
X353756Y-20028D01*
X353807Y-20139D01*
X353867Y-20264D01*
X353922Y-20389D01*
X353978Y-20523D01*
X354038Y-20666D01*
X354098Y-20813D01*
X354153Y-20966D01*
X354214Y-21128D01*
X354269Y-21289D01*
X354320Y-21456D01*
X354371Y-21631D01*
X354468Y-21987D01*
X354546Y-22357D01*
X354578Y-22546D01*
X354606Y-22736D01*
X354629Y-22930D01*
X354648Y-23123D01*
X354657Y-23322D01*
X354662Y-23516D01*
Y-23521D01*
Y-23530D01*
Y-23549D01*
Y-23572D01*
Y-23599D01*
X354657Y-23632D01*
Y-23673D01*
Y-23720D01*
X354652Y-23770D01*
Y-23826D01*
X354643Y-23950D01*
X354629Y-24094D01*
X354615Y-24251D01*
X354597Y-24417D01*
X354569Y-24597D01*
X354541Y-24787D01*
X354504Y-24981D01*
X354463Y-25184D01*
X354412Y-25387D01*
X354352Y-25591D01*
X354287Y-25794D01*
Y-25798D01*
X354283Y-25808D01*
X354278Y-25822D01*
X354269Y-25840D01*
X354260Y-25868D01*
X354250Y-25900D01*
X354237Y-25932D01*
X354223Y-25974D01*
X354186Y-26066D01*
X354144Y-26177D01*
X354093Y-26298D01*
X354038Y-26432D01*
X353978Y-26575D01*
X353909Y-26722D01*
X353839Y-26880D01*
X353761Y-27037D01*
X353594Y-27351D01*
X353507Y-27508D01*
X353414Y-27656D01*
X352957D01*
X352961Y-27651D01*
X352971Y-27633D01*
X352984Y-27605D01*
X353003Y-27563D01*
X353026Y-27512D01*
X353054Y-27452D01*
X353086Y-27379D01*
X353123Y-27300D01*
X353160Y-27212D01*
X353202Y-27115D01*
X353243Y-27009D01*
X353290Y-26893D01*
X353336Y-26773D01*
X353386Y-26644D01*
X353433Y-26505D01*
X353484Y-26362D01*
X353534Y-26214D01*
X353580Y-26062D01*
X353631Y-25905D01*
X353678Y-25738D01*
X353765Y-25397D01*
X353844Y-25041D01*
X353913Y-24671D01*
X353941Y-24482D01*
X353964Y-24292D01*
X353982Y-24103D01*
X353996Y-23909D01*
X354006Y-23715D01*
X354010Y-23521D01*
Y-23512D01*
Y-23489D01*
Y-23456D01*
Y-23405D01*
X354006Y-23345D01*
Y-23271D01*
X354001Y-23193D01*
X353996Y-23100D01*
X353992Y-23003D01*
X353982Y-22897D01*
X353978Y-22786D01*
X353964Y-22671D01*
X353941Y-22431D01*
X353904Y-22181D01*
Y-22172D01*
X353899Y-22153D01*
X353895Y-22116D01*
X353885Y-22070D01*
X353876Y-22010D01*
X353862Y-21941D01*
X353844Y-21862D01*
X353830Y-21779D01*
X353807Y-21687D01*
X353788Y-21590D01*
X353738Y-21382D01*
X353682Y-21169D01*
X353618Y-20957D01*
Y-20952D01*
X353608Y-20929D01*
X353599Y-20897D01*
X353580Y-20855D01*
X353562Y-20795D01*
X353534Y-20726D01*
X353502Y-20643D01*
X353470Y-20550D01*
X353424Y-20444D01*
X353377Y-20328D01*
X353322Y-20199D01*
X353262Y-20056D01*
X353197Y-19908D01*
X353123Y-19742D01*
X353045Y-19571D01*
X352957Y-19386D01*
X353414D01*
X353419Y-19391D01*
D02*
G37*
G36*
X272874Y-19391D02*
X272869Y-19395D01*
X272860Y-19409D01*
X272851Y-19432D01*
X272841Y-19455D01*
X272828Y-19483D01*
X272795Y-19552D01*
X272754Y-19635D01*
X272712Y-19737D01*
X272661Y-19843D01*
X272610Y-19963D01*
X272555Y-20084D01*
X272495Y-20213D01*
X272389Y-20476D01*
X272333Y-20606D01*
X272287Y-20730D01*
X272241Y-20846D01*
X272204Y-20957D01*
Y-20961D01*
X272195Y-20980D01*
X272185Y-21012D01*
X272176Y-21054D01*
X272158Y-21105D01*
X272139Y-21169D01*
X272121Y-21239D01*
X272102Y-21317D01*
X272079Y-21405D01*
X272056Y-21502D01*
X272033Y-21604D01*
X272005Y-21710D01*
X271982Y-21821D01*
X271959Y-21936D01*
X271917Y-22181D01*
Y-22190D01*
X271913Y-22209D01*
X271908Y-22246D01*
X271903Y-22297D01*
X271894Y-22357D01*
X271885Y-22426D01*
X271876Y-22509D01*
X271867Y-22597D01*
X271857Y-22694D01*
X271848Y-22800D01*
X271839Y-22911D01*
X271830Y-23027D01*
X271820Y-23271D01*
X271816Y-23521D01*
Y-23526D01*
Y-23544D01*
Y-23572D01*
Y-23613D01*
X271820Y-23664D01*
X271825Y-23724D01*
Y-23798D01*
X271834Y-23877D01*
X271839Y-23964D01*
X271848Y-24066D01*
X271857Y-24172D01*
X271871Y-24283D01*
X271885Y-24408D01*
X271903Y-24537D01*
X271927Y-24671D01*
X271950Y-24814D01*
X271973Y-24962D01*
X272005Y-25115D01*
X272038Y-25276D01*
X272075Y-25438D01*
X272158Y-25780D01*
X272208Y-25960D01*
X272264Y-26140D01*
X272319Y-26321D01*
X272384Y-26505D01*
X272453Y-26695D01*
X272523Y-26884D01*
X272601Y-27078D01*
X272689Y-27268D01*
X272777Y-27462D01*
X272874Y-27656D01*
X272416D01*
X272412Y-27646D01*
X272393Y-27623D01*
X272370Y-27582D01*
X272338Y-27522D01*
X272296Y-27448D01*
X272245Y-27365D01*
X272190Y-27263D01*
X272130Y-27148D01*
X272065Y-27023D01*
X271996Y-26884D01*
X271927Y-26732D01*
X271853Y-26570D01*
X271774Y-26399D01*
X271700Y-26219D01*
X271626Y-26030D01*
X271552Y-25831D01*
Y-25826D01*
X271548Y-25817D01*
X271543Y-25803D01*
X271534Y-25780D01*
X271529Y-25757D01*
X271515Y-25725D01*
X271506Y-25683D01*
X271492Y-25641D01*
X271479Y-25595D01*
X271465Y-25544D01*
X271446Y-25484D01*
X271428Y-25424D01*
X271395Y-25286D01*
X271358Y-25138D01*
X271321Y-24972D01*
X271289Y-24791D01*
X271257Y-24597D01*
X271224Y-24399D01*
X271201Y-24186D01*
X271183Y-23969D01*
X271169Y-23747D01*
X271164Y-23516D01*
Y-23512D01*
Y-23493D01*
Y-23461D01*
X271169Y-23424D01*
Y-23373D01*
X271174Y-23308D01*
X271178Y-23239D01*
X271183Y-23156D01*
X271192Y-23068D01*
X271201Y-22966D01*
X271215Y-22860D01*
X271229Y-22745D01*
X271248Y-22625D01*
X271271Y-22495D01*
X271294Y-22357D01*
X271321Y-22213D01*
X271354Y-22066D01*
X271386Y-21913D01*
X271428Y-21751D01*
X271469Y-21590D01*
X271520Y-21419D01*
X271571Y-21248D01*
X271631Y-21072D01*
X271691Y-20892D01*
X271760Y-20707D01*
X271834Y-20523D01*
X271917Y-20338D01*
X272005Y-20148D01*
X272098Y-19959D01*
X272195Y-19769D01*
X272301Y-19575D01*
X272416Y-19386D01*
X272874D01*
Y-19391D01*
D02*
G37*
G36*
X11148Y-35646D02*
X10552D01*
X9129Y-31076D01*
X9804D01*
X10608Y-33812D01*
Y-33816D01*
X10612Y-33830D01*
X10622Y-33858D01*
X10631Y-33890D01*
X10645Y-33932D01*
X10659Y-33983D01*
X10672Y-34038D01*
X10691Y-34103D01*
X10709Y-34167D01*
X10728Y-34241D01*
X10769Y-34398D01*
X10806Y-34560D01*
X10848Y-34731D01*
Y-34726D01*
X10853Y-34712D01*
X10857Y-34694D01*
X10862Y-34666D01*
X10871Y-34634D01*
X10880Y-34592D01*
X10894Y-34541D01*
X10908Y-34486D01*
X10922Y-34426D01*
X10940Y-34361D01*
X10959Y-34292D01*
X10982Y-34214D01*
X11005Y-34135D01*
X11028Y-34047D01*
X11079Y-33867D01*
X11920Y-31076D01*
X12571D01*
X11148Y-35646D01*
D02*
G37*
G36*
X15620Y-33424D02*
X16323D01*
Y-34135D01*
X15620D01*
Y-35646D01*
X14983D01*
Y-34135D01*
X12742D01*
Y-33424D01*
X15098Y-29335D01*
X15620D01*
Y-33424D01*
D02*
G37*
G36*
X19732Y-20393D02*
X19099D01*
Y-19492D01*
X19732D01*
Y-20393D01*
D02*
G37*
G36*
X14073Y-25803D02*
X13412D01*
Y-20523D01*
X11906Y-25803D01*
X11287D01*
X9794Y-20435D01*
Y-25803D01*
X9134D01*
Y-19492D01*
X10164D01*
X11388Y-23964D01*
X11633Y-24898D01*
Y-24893D01*
X11638Y-24879D01*
X11643Y-24861D01*
X11652Y-24833D01*
X11661Y-24796D01*
X11670Y-24750D01*
X11689Y-24699D01*
X11703Y-24639D01*
X11721Y-24570D01*
X11739Y-24496D01*
X11763Y-24412D01*
X11790Y-24325D01*
X11818Y-24223D01*
X11846Y-24117D01*
X11878Y-24006D01*
X11910Y-23886D01*
X13149Y-19492D01*
X14073D01*
Y-25803D01*
D02*
G37*
G36*
X34983D02*
X34345D01*
Y-20869D01*
X34341Y-20874D01*
X34336Y-20878D01*
X34322Y-20897D01*
X34304Y-20915D01*
X34280Y-20938D01*
X34257Y-20966D01*
X34188Y-21031D01*
X34105Y-21114D01*
X34003Y-21202D01*
X33888Y-21299D01*
X33754Y-21400D01*
X33749Y-21405D01*
X33735Y-21414D01*
X33717Y-21428D01*
X33689Y-21442D01*
X33657Y-21465D01*
X33620Y-21493D01*
X33578Y-21520D01*
X33532Y-21553D01*
X33426Y-21617D01*
X33310Y-21682D01*
X33195Y-21747D01*
X33075Y-21802D01*
Y-21054D01*
X33079Y-21049D01*
X33098Y-21040D01*
X33125Y-21021D01*
X33163Y-20998D01*
X33209Y-20971D01*
X33259Y-20934D01*
X33320Y-20897D01*
X33384Y-20851D01*
X33458Y-20800D01*
X33532Y-20744D01*
X33685Y-20615D01*
X33842Y-20476D01*
X33999Y-20319D01*
X34003Y-20315D01*
X34017Y-20301D01*
X34036Y-20278D01*
X34063Y-20245D01*
X34100Y-20204D01*
X34137Y-20157D01*
X34179Y-20107D01*
X34220Y-20051D01*
X34267Y-19987D01*
X34317Y-19922D01*
X34410Y-19779D01*
X34498Y-19626D01*
X34535Y-19548D01*
X34567Y-19469D01*
X34983D01*
Y-25803D01*
D02*
G37*
G36*
X31684D02*
X30959D01*
Y-24921D01*
X31684D01*
Y-25803D01*
D02*
G37*
G36*
X28954D02*
X28316D01*
Y-20869D01*
X28311Y-20874D01*
X28307Y-20878D01*
X28293Y-20897D01*
X28275Y-20915D01*
X28251Y-20938D01*
X28228Y-20966D01*
X28159Y-21031D01*
X28076Y-21114D01*
X27974Y-21202D01*
X27859Y-21299D01*
X27725Y-21400D01*
X27720Y-21405D01*
X27706Y-21414D01*
X27688Y-21428D01*
X27660Y-21442D01*
X27628Y-21465D01*
X27591Y-21493D01*
X27549Y-21520D01*
X27503Y-21553D01*
X27397Y-21617D01*
X27281Y-21682D01*
X27166Y-21747D01*
X27046Y-21802D01*
Y-21054D01*
X27050Y-21049D01*
X27069Y-21040D01*
X27096Y-21021D01*
X27133Y-20998D01*
X27180Y-20971D01*
X27230Y-20934D01*
X27290Y-20897D01*
X27355Y-20851D01*
X27429Y-20800D01*
X27503Y-20744D01*
X27655Y-20615D01*
X27812Y-20476D01*
X27970Y-20319D01*
X27974Y-20315D01*
X27988Y-20301D01*
X28007Y-20278D01*
X28034Y-20245D01*
X28071Y-20204D01*
X28108Y-20157D01*
X28150Y-20107D01*
X28191Y-20051D01*
X28238Y-19987D01*
X28288Y-19922D01*
X28381Y-19779D01*
X28469Y-19626D01*
X28506Y-19548D01*
X28538Y-19469D01*
X28954D01*
Y-25803D01*
D02*
G37*
G36*
X22301Y-21137D02*
X22352Y-21142D01*
X22416Y-21151D01*
X22490Y-21165D01*
X22573Y-21183D01*
X22666Y-21206D01*
X22763Y-21239D01*
X22860Y-21280D01*
X22966Y-21331D01*
X23072Y-21386D01*
X23179Y-21456D01*
X23280Y-21539D01*
X23382Y-21631D01*
X23479Y-21737D01*
X23484Y-21742D01*
X23502Y-21765D01*
X23525Y-21802D01*
X23558Y-21848D01*
X23595Y-21913D01*
X23641Y-21987D01*
X23682Y-22075D01*
X23733Y-22181D01*
X23779Y-22297D01*
X23825Y-22426D01*
X23867Y-22569D01*
X23904Y-22722D01*
X23936Y-22893D01*
X23959Y-23073D01*
X23978Y-23267D01*
X23982Y-23475D01*
Y-23479D01*
Y-23489D01*
Y-23507D01*
Y-23530D01*
Y-23558D01*
X23978Y-23590D01*
Y-23632D01*
X23973Y-23678D01*
X23969Y-23780D01*
X23955Y-23895D01*
X23941Y-24024D01*
X23923Y-24168D01*
X23895Y-24316D01*
X23862Y-24463D01*
X23821Y-24616D01*
X23770Y-24768D01*
X23715Y-24916D01*
X23650Y-25059D01*
X23571Y-25189D01*
X23484Y-25309D01*
X23479Y-25313D01*
X23460Y-25337D01*
X23433Y-25364D01*
X23396Y-25401D01*
X23345Y-25447D01*
X23285Y-25498D01*
X23220Y-25554D01*
X23142Y-25609D01*
X23054Y-25665D01*
X22962Y-25720D01*
X22855Y-25771D01*
X22744Y-25817D01*
X22624Y-25854D01*
X22500Y-25882D01*
X22366Y-25905D01*
X22227Y-25909D01*
X22195D01*
X22153Y-25905D01*
X22102Y-25900D01*
X22038Y-25891D01*
X21964Y-25877D01*
X21880Y-25859D01*
X21788Y-25835D01*
X21691Y-25803D01*
X21589Y-25762D01*
X21483Y-25715D01*
X21382Y-25655D01*
X21275Y-25586D01*
X21169Y-25508D01*
X21067Y-25415D01*
X20970Y-25309D01*
X20966Y-25300D01*
X20947Y-25281D01*
X20924Y-25244D01*
X20892Y-25193D01*
X20855Y-25133D01*
X20813Y-25055D01*
X20767Y-24962D01*
X20721Y-24856D01*
X20675Y-24740D01*
X20628Y-24607D01*
X20587Y-24459D01*
X20550Y-24297D01*
X20517Y-24126D01*
X20494Y-23937D01*
X20476Y-23738D01*
X20471Y-23521D01*
Y-23516D01*
Y-23507D01*
Y-23493D01*
Y-23470D01*
Y-23442D01*
X20476Y-23405D01*
Y-23368D01*
X20481Y-23327D01*
X20485Y-23230D01*
X20499Y-23114D01*
X20513Y-22990D01*
X20531Y-22856D01*
X20559Y-22712D01*
X20592Y-22565D01*
X20633Y-22417D01*
X20679Y-22269D01*
X20735Y-22126D01*
X20804Y-21987D01*
X20878Y-21858D01*
X20966Y-21737D01*
X20970Y-21728D01*
X20989Y-21710D01*
X21016Y-21682D01*
X21054Y-21641D01*
X21104Y-21599D01*
X21164Y-21548D01*
X21234Y-21493D01*
X21312Y-21433D01*
X21395Y-21377D01*
X21492Y-21322D01*
X21599Y-21271D01*
X21710Y-21225D01*
X21830Y-21188D01*
X21954Y-21160D01*
X22088Y-21137D01*
X22227Y-21132D01*
X22259D01*
X22301Y-21137D01*
D02*
G37*
G36*
X16674D02*
X16725Y-21142D01*
X16789Y-21151D01*
X16863Y-21165D01*
X16946Y-21183D01*
X17039Y-21206D01*
X17136Y-21239D01*
X17233Y-21280D01*
X17339Y-21331D01*
X17445Y-21386D01*
X17551Y-21456D01*
X17653Y-21539D01*
X17755Y-21631D01*
X17852Y-21737D01*
X17856Y-21742D01*
X17875Y-21765D01*
X17898Y-21802D01*
X17930Y-21848D01*
X17967Y-21913D01*
X18013Y-21987D01*
X18055Y-22075D01*
X18106Y-22181D01*
X18152Y-22297D01*
X18198Y-22426D01*
X18240Y-22569D01*
X18277Y-22722D01*
X18309Y-22893D01*
X18332Y-23073D01*
X18351Y-23267D01*
X18355Y-23475D01*
Y-23479D01*
Y-23489D01*
Y-23507D01*
Y-23530D01*
Y-23558D01*
X18351Y-23590D01*
Y-23632D01*
X18346Y-23678D01*
X18341Y-23780D01*
X18328Y-23895D01*
X18314Y-24024D01*
X18295Y-24168D01*
X18268Y-24316D01*
X18235Y-24463D01*
X18194Y-24616D01*
X18143Y-24768D01*
X18087Y-24916D01*
X18023Y-25059D01*
X17944Y-25189D01*
X17856Y-25309D01*
X17852Y-25313D01*
X17833Y-25337D01*
X17806Y-25364D01*
X17769Y-25401D01*
X17718Y-25447D01*
X17658Y-25498D01*
X17593Y-25554D01*
X17515Y-25609D01*
X17427Y-25665D01*
X17334Y-25720D01*
X17228Y-25771D01*
X17117Y-25817D01*
X16997Y-25854D01*
X16872Y-25882D01*
X16738Y-25905D01*
X16600Y-25909D01*
X16567D01*
X16526Y-25905D01*
X16475Y-25900D01*
X16410Y-25891D01*
X16336Y-25877D01*
X16253Y-25859D01*
X16161Y-25835D01*
X16064Y-25803D01*
X15962Y-25762D01*
X15856Y-25715D01*
X15754Y-25655D01*
X15648Y-25586D01*
X15542Y-25508D01*
X15440Y-25415D01*
X15343Y-25309D01*
X15338Y-25300D01*
X15320Y-25281D01*
X15297Y-25244D01*
X15265Y-25193D01*
X15228Y-25133D01*
X15186Y-25055D01*
X15140Y-24962D01*
X15094Y-24856D01*
X15047Y-24740D01*
X15001Y-24607D01*
X14960Y-24459D01*
X14923Y-24297D01*
X14890Y-24126D01*
X14867Y-23937D01*
X14849Y-23738D01*
X14844Y-23521D01*
Y-23516D01*
Y-23507D01*
Y-23493D01*
Y-23470D01*
Y-23442D01*
X14849Y-23405D01*
Y-23368D01*
X14853Y-23327D01*
X14858Y-23230D01*
X14872Y-23114D01*
X14886Y-22990D01*
X14904Y-22856D01*
X14932Y-22712D01*
X14964Y-22565D01*
X15006Y-22417D01*
X15052Y-22269D01*
X15108Y-22126D01*
X15177Y-21987D01*
X15251Y-21858D01*
X15338Y-21737D01*
X15343Y-21728D01*
X15362Y-21710D01*
X15389Y-21682D01*
X15426Y-21641D01*
X15477Y-21599D01*
X15537Y-21548D01*
X15607Y-21493D01*
X15685Y-21433D01*
X15768Y-21377D01*
X15865Y-21322D01*
X15971Y-21271D01*
X16082Y-21225D01*
X16203Y-21188D01*
X16327Y-21160D01*
X16461Y-21137D01*
X16600Y-21132D01*
X16632D01*
X16674Y-21137D01*
D02*
G37*
G36*
X19732Y-26048D02*
Y-26053D01*
Y-26057D01*
Y-26071D01*
Y-26090D01*
Y-26136D01*
X19727Y-26201D01*
X19723Y-26274D01*
X19718Y-26362D01*
X19714Y-26455D01*
X19704Y-26556D01*
X19672Y-26769D01*
X19654Y-26875D01*
X19631Y-26977D01*
X19603Y-27074D01*
X19570Y-27166D01*
X19534Y-27249D01*
X19492Y-27319D01*
X19487Y-27323D01*
X19483Y-27332D01*
X19469Y-27351D01*
X19446Y-27369D01*
X19423Y-27397D01*
X19390Y-27425D01*
X19358Y-27457D01*
X19316Y-27485D01*
X19270Y-27517D01*
X19215Y-27549D01*
X19159Y-27577D01*
X19095Y-27605D01*
X19030Y-27623D01*
X18956Y-27642D01*
X18877Y-27651D01*
X18794Y-27656D01*
X18753D01*
X18702Y-27651D01*
X18637Y-27646D01*
X18559Y-27637D01*
X18475Y-27619D01*
X18388Y-27600D01*
X18295Y-27573D01*
X18415Y-26912D01*
X18425Y-26917D01*
X18448Y-26921D01*
X18480Y-26930D01*
X18522Y-26944D01*
X18573Y-26958D01*
X18619Y-26967D01*
X18669Y-26972D01*
X18711Y-26977D01*
X18720D01*
X18744Y-26972D01*
X18780Y-26967D01*
X18822Y-26958D01*
X18868Y-26935D01*
X18919Y-26907D01*
X18965Y-26870D01*
X19002Y-26815D01*
X19007Y-26806D01*
X19011Y-26796D01*
X19016Y-26783D01*
X19025Y-26759D01*
X19035Y-26732D01*
X19044Y-26699D01*
X19053Y-26658D01*
X19058Y-26612D01*
X19067Y-26556D01*
X19076Y-26491D01*
X19085Y-26418D01*
X19090Y-26339D01*
X19095Y-26247D01*
X19099Y-26145D01*
Y-26034D01*
Y-21234D01*
X19732D01*
Y-26048D01*
D02*
G37*
%LPC*%
G36*
X258593Y-30740D02*
X256972Y-33581D01*
X258593D01*
Y-30740D01*
D02*
G37*
G36*
X248586Y-31770D02*
X248568D01*
X248545Y-31775D01*
X248513D01*
X248471Y-31784D01*
X248425Y-31793D01*
X248374Y-31807D01*
X248318Y-31825D01*
X248263Y-31848D01*
X248198Y-31876D01*
X248134Y-31913D01*
X248069Y-31955D01*
X248004Y-32006D01*
X247940Y-32066D01*
X247875Y-32130D01*
X247815Y-32209D01*
X247810Y-32213D01*
X247801Y-32227D01*
X247787Y-32255D01*
X247764Y-32292D01*
X247741Y-32338D01*
X247718Y-32394D01*
X247686Y-32458D01*
X247658Y-32537D01*
X247630Y-32625D01*
X247602Y-32722D01*
X247575Y-32828D01*
X247551Y-32943D01*
X247528Y-33073D01*
X247515Y-33211D01*
X247505Y-33359D01*
X247501Y-33521D01*
Y-33525D01*
Y-33530D01*
Y-33544D01*
Y-33558D01*
Y-33604D01*
X247505Y-33664D01*
X247510Y-33738D01*
X247519Y-33826D01*
X247528Y-33918D01*
X247542Y-34020D01*
X247556Y-34126D01*
X247579Y-34232D01*
X247602Y-34343D01*
X247635Y-34454D01*
X247672Y-34560D01*
X247713Y-34662D01*
X247764Y-34754D01*
X247819Y-34842D01*
X247824Y-34847D01*
X247833Y-34861D01*
X247852Y-34884D01*
X247880Y-34907D01*
X247907Y-34944D01*
X247949Y-34976D01*
X247990Y-35018D01*
X248041Y-35055D01*
X248097Y-35096D01*
X248157Y-35138D01*
X248221Y-35170D01*
X248295Y-35203D01*
X248369Y-35230D01*
X248448Y-35253D01*
X248531Y-35267D01*
X248619Y-35272D01*
X248637D01*
X248660Y-35267D01*
X248693Y-35263D01*
X248734Y-35258D01*
X248776Y-35249D01*
X248827Y-35235D01*
X248882Y-35216D01*
X248942Y-35193D01*
X249002Y-35166D01*
X249067Y-35129D01*
X249132Y-35087D01*
X249196Y-35041D01*
X249261Y-34981D01*
X249326Y-34916D01*
X249386Y-34838D01*
X249390Y-34833D01*
X249399Y-34819D01*
X249413Y-34791D01*
X249436Y-34754D01*
X249460Y-34708D01*
X249487Y-34653D01*
X249520Y-34584D01*
X249547Y-34510D01*
X249580Y-34422D01*
X249607Y-34325D01*
X249635Y-34214D01*
X249658Y-34098D01*
X249681Y-33969D01*
X249695Y-33830D01*
X249704Y-33678D01*
X249709Y-33521D01*
Y-33516D01*
Y-33512D01*
Y-33498D01*
Y-33484D01*
Y-33438D01*
X249704Y-33378D01*
X249700Y-33304D01*
X249691Y-33221D01*
X249681Y-33124D01*
X249668Y-33026D01*
X249654Y-32920D01*
X249630Y-32809D01*
X249603Y-32703D01*
X249575Y-32592D01*
X249534Y-32486D01*
X249492Y-32384D01*
X249441Y-32292D01*
X249386Y-32204D01*
X249381Y-32199D01*
X249372Y-32186D01*
X249353Y-32163D01*
X249326Y-32135D01*
X249298Y-32103D01*
X249256Y-32066D01*
X249215Y-32029D01*
X249164Y-31987D01*
X249109Y-31945D01*
X249048Y-31909D01*
X248984Y-31872D01*
X248914Y-31839D01*
X248836Y-31811D01*
X248757Y-31788D01*
X248674Y-31775D01*
X248586Y-31770D01*
D02*
G37*
G36*
X242959D02*
X242941D01*
X242918Y-31775D01*
X242885D01*
X242844Y-31784D01*
X242798Y-31793D01*
X242747Y-31807D01*
X242691Y-31825D01*
X242636Y-31848D01*
X242571Y-31876D01*
X242507Y-31913D01*
X242442Y-31955D01*
X242377Y-32006D01*
X242312Y-32066D01*
X242248Y-32130D01*
X242188Y-32209D01*
X242183Y-32213D01*
X242174Y-32227D01*
X242160Y-32255D01*
X242137Y-32292D01*
X242114Y-32338D01*
X242091Y-32394D01*
X242058Y-32458D01*
X242031Y-32537D01*
X242003Y-32625D01*
X241975Y-32722D01*
X241948Y-32828D01*
X241924Y-32943D01*
X241901Y-33073D01*
X241887Y-33211D01*
X241878Y-33359D01*
X241874Y-33521D01*
Y-33525D01*
Y-33530D01*
Y-33544D01*
Y-33558D01*
Y-33604D01*
X241878Y-33664D01*
X241883Y-33738D01*
X241892Y-33826D01*
X241901Y-33918D01*
X241915Y-34020D01*
X241929Y-34126D01*
X241952Y-34232D01*
X241975Y-34343D01*
X242007Y-34454D01*
X242044Y-34560D01*
X242086Y-34662D01*
X242137Y-34754D01*
X242192Y-34842D01*
X242197Y-34847D01*
X242206Y-34861D01*
X242225Y-34884D01*
X242252Y-34907D01*
X242280Y-34944D01*
X242322Y-34976D01*
X242363Y-35018D01*
X242414Y-35055D01*
X242470Y-35096D01*
X242530Y-35138D01*
X242594Y-35170D01*
X242668Y-35203D01*
X242742Y-35230D01*
X242821Y-35253D01*
X242904Y-35267D01*
X242992Y-35272D01*
X243010D01*
X243033Y-35267D01*
X243066Y-35263D01*
X243107Y-35258D01*
X243149Y-35249D01*
X243199Y-35235D01*
X243255Y-35216D01*
X243315Y-35193D01*
X243375Y-35166D01*
X243440Y-35129D01*
X243504Y-35087D01*
X243569Y-35041D01*
X243634Y-34981D01*
X243699Y-34916D01*
X243759Y-34838D01*
X243763Y-34833D01*
X243772Y-34819D01*
X243786Y-34791D01*
X243809Y-34754D01*
X243832Y-34708D01*
X243860Y-34653D01*
X243893Y-34584D01*
X243920Y-34510D01*
X243953Y-34422D01*
X243980Y-34325D01*
X244008Y-34214D01*
X244031Y-34098D01*
X244054Y-33969D01*
X244068Y-33830D01*
X244077Y-33678D01*
X244082Y-33521D01*
Y-33516D01*
Y-33512D01*
Y-33498D01*
Y-33484D01*
Y-33438D01*
X244077Y-33378D01*
X244073Y-33304D01*
X244063Y-33221D01*
X244054Y-33124D01*
X244040Y-33026D01*
X244026Y-32920D01*
X244003Y-32809D01*
X243976Y-32703D01*
X243948Y-32592D01*
X243906Y-32486D01*
X243865Y-32384D01*
X243814Y-32292D01*
X243759Y-32204D01*
X243754Y-32199D01*
X243745Y-32186D01*
X243726Y-32163D01*
X243699Y-32135D01*
X243671Y-32103D01*
X243629Y-32066D01*
X243588Y-32029D01*
X243537Y-31987D01*
X243481Y-31945D01*
X243421Y-31909D01*
X243357Y-31872D01*
X243287Y-31839D01*
X243209Y-31811D01*
X243130Y-31788D01*
X243047Y-31775D01*
X242959Y-31770D01*
D02*
G37*
G36*
X262543Y-21770D02*
X262525D01*
X262507Y-21775D01*
X262474D01*
X262442Y-21784D01*
X262400Y-21793D01*
X262354Y-21807D01*
X262308Y-21821D01*
X262252Y-21844D01*
X262197Y-21871D01*
X262141Y-21908D01*
X262081Y-21950D01*
X262026Y-21996D01*
X261966Y-22056D01*
X261911Y-22121D01*
X261855Y-22195D01*
X261850Y-22199D01*
X261841Y-22213D01*
X261827Y-22241D01*
X261809Y-22274D01*
X261790Y-22320D01*
X261763Y-22375D01*
X261740Y-22444D01*
X261712Y-22518D01*
X261684Y-22606D01*
X261661Y-22708D01*
X261633Y-22814D01*
X261615Y-22934D01*
X261596Y-23068D01*
X261582Y-23207D01*
X261573Y-23359D01*
X261569Y-23526D01*
Y-23530D01*
Y-23535D01*
Y-23549D01*
Y-23562D01*
Y-23609D01*
X261573Y-23669D01*
X261578Y-23743D01*
X261587Y-23830D01*
X261596Y-23923D01*
X261606Y-24024D01*
X261624Y-24126D01*
X261643Y-24237D01*
X261666Y-24348D01*
X261698Y-24454D01*
X261730Y-24560D01*
X261772Y-24662D01*
X261818Y-24754D01*
X261874Y-24842D01*
X261878Y-24847D01*
X261887Y-24861D01*
X261906Y-24884D01*
X261929Y-24907D01*
X261957Y-24944D01*
X261994Y-24976D01*
X262031Y-25018D01*
X262077Y-25055D01*
X262128Y-25096D01*
X262183Y-25138D01*
X262243Y-25170D01*
X262303Y-25203D01*
X262372Y-25230D01*
X262442Y-25253D01*
X262516Y-25267D01*
X262590Y-25272D01*
X262608D01*
X262627Y-25267D01*
X262659D01*
X262691Y-25258D01*
X262733Y-25249D01*
X262779Y-25240D01*
X262830Y-25221D01*
X262881Y-25198D01*
X262936Y-25170D01*
X262996Y-25138D01*
X263052Y-25096D01*
X263112Y-25050D01*
X263172Y-24995D01*
X263232Y-24935D01*
X263287Y-24861D01*
X263292Y-24856D01*
X263301Y-24842D01*
X263315Y-24819D01*
X263333Y-24782D01*
X263357Y-24740D01*
X263384Y-24685D01*
X263407Y-24625D01*
X263440Y-24551D01*
X263467Y-24468D01*
X263491Y-24376D01*
X263518Y-24274D01*
X263541Y-24163D01*
X263560Y-24038D01*
X263574Y-23909D01*
X263583Y-23766D01*
X263588Y-23613D01*
Y-23609D01*
Y-23604D01*
Y-23590D01*
Y-23572D01*
Y-23521D01*
X263583Y-23456D01*
X263578Y-23378D01*
X263574Y-23285D01*
X263564Y-23184D01*
X263551Y-23077D01*
X263532Y-22966D01*
X263514Y-22851D01*
X263491Y-22731D01*
X263463Y-22615D01*
X263426Y-22504D01*
X263384Y-22398D01*
X263338Y-22301D01*
X263287Y-22213D01*
X263283Y-22209D01*
X263273Y-22195D01*
X263255Y-22172D01*
X263236Y-22144D01*
X263204Y-22112D01*
X263172Y-22075D01*
X263130Y-22033D01*
X263084Y-21992D01*
X263033Y-21950D01*
X262978Y-21908D01*
X262913Y-21871D01*
X262848Y-21839D01*
X262779Y-21812D01*
X262705Y-21788D01*
X262627Y-21775D01*
X262543Y-21770D01*
D02*
G37*
G36*
X283629Y-21737D02*
X283611D01*
X283592Y-21742D01*
X283564Y-21747D01*
X283532Y-21751D01*
X283490Y-21761D01*
X283449Y-21775D01*
X283398Y-21798D01*
X283347Y-21821D01*
X283292Y-21853D01*
X283232Y-21890D01*
X283172Y-21936D01*
X283112Y-21987D01*
X283052Y-22052D01*
X282992Y-22121D01*
X282931Y-22204D01*
X282927Y-22209D01*
X282918Y-22227D01*
X282904Y-22250D01*
X282885Y-22292D01*
X282858Y-22338D01*
X282835Y-22398D01*
X282807Y-22467D01*
X282779Y-22546D01*
X282747Y-22634D01*
X282719Y-22736D01*
X282696Y-22846D01*
X282673Y-22966D01*
X282650Y-23096D01*
X282636Y-23239D01*
X282627Y-23387D01*
X282622Y-23549D01*
Y-23553D01*
Y-23558D01*
Y-23572D01*
Y-23585D01*
Y-23632D01*
X282627Y-23692D01*
X282631Y-23766D01*
X282636Y-23854D01*
X282645Y-23946D01*
X282659Y-24043D01*
X282673Y-24149D01*
X282696Y-24255D01*
X282719Y-24366D01*
X282747Y-24473D01*
X282779Y-24579D01*
X282821Y-24680D01*
X282867Y-24773D01*
X282918Y-24856D01*
X282922Y-24861D01*
X282931Y-24874D01*
X282950Y-24893D01*
X282968Y-24921D01*
X283001Y-24953D01*
X283033Y-24985D01*
X283075Y-25027D01*
X283116Y-25064D01*
X283167Y-25101D01*
X283223Y-25138D01*
X283283Y-25175D01*
X283343Y-25207D01*
X283412Y-25235D01*
X283481Y-25253D01*
X283555Y-25267D01*
X283634Y-25272D01*
X283652D01*
X283671Y-25267D01*
X283703Y-25263D01*
X283735Y-25258D01*
X283777Y-25249D01*
X283823Y-25235D01*
X283874Y-25216D01*
X283925Y-25193D01*
X283985Y-25166D01*
X284040Y-25129D01*
X284100Y-25087D01*
X284160Y-25041D01*
X284225Y-24981D01*
X284280Y-24916D01*
X284341Y-24838D01*
X284345Y-24833D01*
X284354Y-24819D01*
X284368Y-24791D01*
X284387Y-24754D01*
X284410Y-24708D01*
X284438Y-24653D01*
X284465Y-24584D01*
X284493Y-24505D01*
X284521Y-24417D01*
X284548Y-24320D01*
X284576Y-24209D01*
X284599Y-24089D01*
X284618Y-23960D01*
X284632Y-23817D01*
X284641Y-23664D01*
X284646Y-23498D01*
Y-23493D01*
Y-23489D01*
Y-23475D01*
Y-23456D01*
Y-23410D01*
X284641Y-23350D01*
X284636Y-23276D01*
X284632Y-23193D01*
X284622Y-23096D01*
X284609Y-22994D01*
X284595Y-22888D01*
X284572Y-22782D01*
X284548Y-22671D01*
X284521Y-22560D01*
X284488Y-22454D01*
X284447Y-22352D01*
X284401Y-22260D01*
X284350Y-22172D01*
X284345Y-22167D01*
X284336Y-22153D01*
X284322Y-22130D01*
X284299Y-22103D01*
X284267Y-22070D01*
X284234Y-22033D01*
X284193Y-21996D01*
X284151Y-21955D01*
X284100Y-21913D01*
X284045Y-21876D01*
X283985Y-21839D01*
X283920Y-21807D01*
X283856Y-21779D01*
X283782Y-21756D01*
X283708Y-21742D01*
X283629Y-21737D01*
D02*
G37*
G36*
X341490Y-23512D02*
X341485D01*
X341472Y-23521D01*
X341453Y-23530D01*
X341425Y-23539D01*
X341388Y-23558D01*
X341342Y-23572D01*
X341291Y-23595D01*
X341227Y-23613D01*
X341157Y-23636D01*
X341083Y-23660D01*
X340996Y-23683D01*
X340903Y-23710D01*
X340802Y-23733D01*
X340691Y-23756D01*
X340575Y-23780D01*
X340451Y-23803D01*
X340446D01*
X340432Y-23807D01*
X340413D01*
X340386Y-23817D01*
X340353Y-23821D01*
X340317Y-23830D01*
X340229Y-23849D01*
X340136Y-23872D01*
X340044Y-23900D01*
X339956Y-23932D01*
X339919Y-23946D01*
X339887Y-23964D01*
X339882Y-23969D01*
X339859Y-23978D01*
X339831Y-24001D01*
X339799Y-24029D01*
X339757Y-24066D01*
X339716Y-24108D01*
X339679Y-24158D01*
X339642Y-24214D01*
X339637Y-24223D01*
X339628Y-24242D01*
X339614Y-24274D01*
X339600Y-24320D01*
X339582Y-24376D01*
X339568Y-24440D01*
X339559Y-24509D01*
X339554Y-24588D01*
Y-24593D01*
Y-24602D01*
Y-24620D01*
X339559Y-24644D01*
Y-24671D01*
X339563Y-24704D01*
X339577Y-24778D01*
X339605Y-24861D01*
X339637Y-24948D01*
X339688Y-25032D01*
X339716Y-25073D01*
X339753Y-25110D01*
X339757D01*
X339762Y-25119D01*
X339776Y-25129D01*
X339790Y-25142D01*
X339836Y-25170D01*
X339901Y-25207D01*
X339979Y-25244D01*
X340076Y-25272D01*
X340187Y-25295D01*
X340317Y-25304D01*
X340349D01*
X340372Y-25300D01*
X340404D01*
X340437Y-25295D01*
X340520Y-25281D01*
X340617Y-25263D01*
X340718Y-25230D01*
X340825Y-25189D01*
X340931Y-25129D01*
X340936D01*
X340945Y-25119D01*
X340959Y-25110D01*
X340977Y-25096D01*
X341028Y-25059D01*
X341088Y-25004D01*
X341157Y-24935D01*
X341227Y-24856D01*
X341296Y-24764D01*
X341351Y-24657D01*
Y-24653D01*
X341356Y-24644D01*
X341365Y-24625D01*
X341374Y-24602D01*
X341384Y-24570D01*
X341398Y-24533D01*
X341407Y-24491D01*
X341421Y-24440D01*
X341435Y-24380D01*
X341448Y-24316D01*
X341458Y-24246D01*
X341467Y-24168D01*
X341476Y-24084D01*
X341485Y-23997D01*
X341490Y-23900D01*
Y-23798D01*
Y-23512D01*
D02*
G37*
G36*
X312061Y-20236D02*
X310924D01*
Y-22144D01*
X312144D01*
X312185Y-22140D01*
X312282Y-22135D01*
X312384Y-22130D01*
X312486Y-22116D01*
X312583Y-22103D01*
X312624Y-22093D01*
X312661Y-22084D01*
X312666D01*
X312675Y-22079D01*
X312689Y-22075D01*
X312707Y-22066D01*
X312754Y-22047D01*
X312814Y-22015D01*
X312878Y-21973D01*
X312948Y-21922D01*
X313012Y-21858D01*
X313072Y-21784D01*
Y-21779D01*
X313077Y-21775D01*
X313086Y-21761D01*
X313095Y-21747D01*
X313105Y-21724D01*
X313119Y-21696D01*
X313146Y-21631D01*
X313174Y-21548D01*
X313197Y-21447D01*
X313216Y-21331D01*
X313220Y-21202D01*
Y-21197D01*
Y-21188D01*
Y-21169D01*
Y-21146D01*
X313216Y-21118D01*
Y-21081D01*
X313202Y-21003D01*
X313188Y-20915D01*
X313165Y-20823D01*
X313132Y-20726D01*
X313086Y-20638D01*
Y-20633D01*
X313082Y-20629D01*
X313063Y-20601D01*
X313035Y-20559D01*
X312994Y-20513D01*
X312943Y-20462D01*
X312888Y-20412D01*
X312818Y-20361D01*
X312740Y-20324D01*
X312735D01*
X312731Y-20319D01*
X312717Y-20315D01*
X312698Y-20310D01*
X312670Y-20305D01*
X312643Y-20296D01*
X312606Y-20287D01*
X312560Y-20278D01*
X312509Y-20273D01*
X312453Y-20264D01*
X312389Y-20255D01*
X312319Y-20250D01*
X312241Y-20245D01*
X312153Y-20241D01*
X312061Y-20236D01*
D02*
G37*
G36*
X312213Y-22888D02*
X310924D01*
Y-25059D01*
X312278D01*
X312315Y-25055D01*
X312352D01*
X312449Y-25050D01*
X312550Y-25041D01*
X312652Y-25027D01*
X312754Y-25008D01*
X312795Y-24999D01*
X312837Y-24985D01*
X312841D01*
X312851Y-24981D01*
X312864Y-24972D01*
X312883Y-24962D01*
X312938Y-24935D01*
X313003Y-24898D01*
X313072Y-24842D01*
X313146Y-24782D01*
X313216Y-24704D01*
X313280Y-24616D01*
Y-24611D01*
X313285Y-24602D01*
X313294Y-24588D01*
X313303Y-24570D01*
X313317Y-24542D01*
X313331Y-24514D01*
X313345Y-24477D01*
X313359Y-24440D01*
X313387Y-24343D01*
X313414Y-24237D01*
X313433Y-24112D01*
X313437Y-23974D01*
Y-23969D01*
Y-23960D01*
Y-23937D01*
Y-23914D01*
X313433Y-23881D01*
X313428Y-23844D01*
X313419Y-23761D01*
X313400Y-23669D01*
X313377Y-23567D01*
X313340Y-23465D01*
X313289Y-23368D01*
Y-23364D01*
X313285Y-23359D01*
X313276Y-23345D01*
X313262Y-23327D01*
X313229Y-23285D01*
X313183Y-23230D01*
X313128Y-23170D01*
X313058Y-23110D01*
X312980Y-23054D01*
X312892Y-23003D01*
X312888D01*
X312883Y-22999D01*
X312864Y-22994D01*
X312846Y-22985D01*
X312818Y-22976D01*
X312786Y-22966D01*
X312749Y-22957D01*
X312703Y-22943D01*
X312652Y-22934D01*
X312597Y-22925D01*
X312532Y-22916D01*
X312462Y-22906D01*
X312384Y-22897D01*
X312301Y-22893D01*
X312213Y-22888D01*
D02*
G37*
G36*
X294481Y-23512D02*
X294477D01*
X294463Y-23521D01*
X294444Y-23530D01*
X294417Y-23539D01*
X294380Y-23558D01*
X294334Y-23572D01*
X294283Y-23595D01*
X294218Y-23613D01*
X294149Y-23636D01*
X294075Y-23660D01*
X293987Y-23683D01*
X293895Y-23710D01*
X293793Y-23733D01*
X293682Y-23756D01*
X293567Y-23780D01*
X293442Y-23803D01*
X293437D01*
X293424Y-23807D01*
X293405D01*
X293377Y-23817D01*
X293345Y-23821D01*
X293308Y-23830D01*
X293220Y-23849D01*
X293128Y-23872D01*
X293035Y-23900D01*
X292948Y-23932D01*
X292911Y-23946D01*
X292878Y-23964D01*
X292874Y-23969D01*
X292851Y-23978D01*
X292823Y-24001D01*
X292791Y-24029D01*
X292749Y-24066D01*
X292707Y-24108D01*
X292670Y-24158D01*
X292634Y-24214D01*
X292629Y-24223D01*
X292620Y-24242D01*
X292606Y-24274D01*
X292592Y-24320D01*
X292573Y-24376D01*
X292560Y-24440D01*
X292550Y-24509D01*
X292546Y-24588D01*
Y-24593D01*
Y-24602D01*
Y-24620D01*
X292550Y-24644D01*
Y-24671D01*
X292555Y-24704D01*
X292569Y-24778D01*
X292597Y-24861D01*
X292629Y-24948D01*
X292680Y-25032D01*
X292707Y-25073D01*
X292744Y-25110D01*
X292749D01*
X292754Y-25119D01*
X292768Y-25129D01*
X292781Y-25142D01*
X292828Y-25170D01*
X292892Y-25207D01*
X292971Y-25244D01*
X293068Y-25272D01*
X293179Y-25295D01*
X293308Y-25304D01*
X293340D01*
X293363Y-25300D01*
X293396D01*
X293428Y-25295D01*
X293511Y-25281D01*
X293608Y-25263D01*
X293710Y-25230D01*
X293816Y-25189D01*
X293922Y-25129D01*
X293927D01*
X293936Y-25119D01*
X293950Y-25110D01*
X293969Y-25096D01*
X294020Y-25059D01*
X294080Y-25004D01*
X294149Y-24935D01*
X294218Y-24856D01*
X294287Y-24764D01*
X294343Y-24657D01*
Y-24653D01*
X294348Y-24644D01*
X294357Y-24625D01*
X294366Y-24602D01*
X294375Y-24570D01*
X294389Y-24533D01*
X294398Y-24491D01*
X294412Y-24440D01*
X294426Y-24380D01*
X294440Y-24316D01*
X294449Y-24246D01*
X294458Y-24168D01*
X294468Y-24084D01*
X294477Y-23997D01*
X294481Y-23900D01*
Y-23798D01*
Y-23512D01*
D02*
G37*
G36*
X237387Y-20236D02*
X236196D01*
Y-25059D01*
X237360D01*
X237406Y-25055D01*
X237461D01*
X237522Y-25045D01*
X237595Y-25041D01*
X237669Y-25032D01*
X237836Y-25004D01*
X238002Y-24967D01*
X238081Y-24944D01*
X238159Y-24912D01*
X238233Y-24879D01*
X238302Y-24842D01*
X238307Y-24838D01*
X238316Y-24833D01*
X238335Y-24819D01*
X238358Y-24801D01*
X238390Y-24778D01*
X238422Y-24750D01*
X238459Y-24713D01*
X238501Y-24671D01*
X238543Y-24630D01*
X238584Y-24574D01*
X238630Y-24519D01*
X238672Y-24454D01*
X238718Y-24389D01*
X238760Y-24311D01*
X238797Y-24232D01*
X238834Y-24145D01*
X238838Y-24135D01*
X238843Y-24117D01*
X238857Y-24080D01*
X238871Y-24029D01*
X238894Y-23969D01*
X238912Y-23895D01*
X238935Y-23807D01*
X238958Y-23710D01*
X238981Y-23604D01*
X239004Y-23489D01*
X239028Y-23359D01*
X239046Y-23225D01*
X239060Y-23082D01*
X239074Y-22930D01*
X239078Y-22772D01*
X239083Y-22606D01*
Y-22602D01*
Y-22597D01*
Y-22583D01*
Y-22565D01*
Y-22541D01*
Y-22514D01*
X239078Y-22449D01*
X239074Y-22366D01*
X239069Y-22274D01*
X239060Y-22167D01*
X239051Y-22056D01*
X239037Y-21941D01*
X239018Y-21816D01*
X239000Y-21691D01*
X238972Y-21567D01*
X238940Y-21442D01*
X238908Y-21322D01*
X238866Y-21206D01*
X238820Y-21100D01*
X238815Y-21095D01*
X238806Y-21077D01*
X238792Y-21049D01*
X238773Y-21012D01*
X238746Y-20966D01*
X238718Y-20915D01*
X238681Y-20860D01*
X238640Y-20800D01*
X238593Y-20740D01*
X238543Y-20680D01*
X238427Y-20560D01*
X238362Y-20499D01*
X238298Y-20449D01*
X238224Y-20402D01*
X238150Y-20365D01*
X238145D01*
X238136Y-20361D01*
X238122Y-20352D01*
X238099Y-20347D01*
X238067Y-20333D01*
X238034Y-20324D01*
X237988Y-20315D01*
X237937Y-20301D01*
X237882Y-20287D01*
X237817Y-20278D01*
X237743Y-20264D01*
X237665Y-20255D01*
X237582Y-20250D01*
X237485Y-20241D01*
X237387Y-20236D01*
D02*
G37*
G36*
X348268Y-21770D02*
X348226D01*
X348198Y-21775D01*
X348161Y-21779D01*
X348115Y-21788D01*
X348069Y-21798D01*
X348018Y-21816D01*
X347963Y-21835D01*
X347903Y-21858D01*
X347843Y-21885D01*
X347782Y-21918D01*
X347718Y-21959D01*
X347658Y-22010D01*
X347598Y-22061D01*
X347538Y-22126D01*
X347533Y-22130D01*
X347524Y-22144D01*
X347510Y-22163D01*
X347491Y-22190D01*
X347468Y-22227D01*
X347441Y-22269D01*
X347413Y-22320D01*
X347385Y-22380D01*
X347353Y-22444D01*
X347325Y-22514D01*
X347297Y-22592D01*
X347274Y-22680D01*
X347251Y-22772D01*
X347233Y-22869D01*
X347219Y-22971D01*
X347210Y-23082D01*
X349302D01*
Y-23077D01*
Y-23054D01*
X349298Y-23027D01*
X349293Y-22985D01*
X349284Y-22934D01*
X349275Y-22879D01*
X349266Y-22819D01*
X349252Y-22749D01*
X349219Y-22606D01*
X349178Y-22458D01*
X349118Y-22320D01*
X349085Y-22255D01*
X349048Y-22199D01*
X349044Y-22195D01*
X349035Y-22181D01*
X349016Y-22158D01*
X348993Y-22130D01*
X348960Y-22098D01*
X348924Y-22065D01*
X348882Y-22024D01*
X348836Y-21982D01*
X348780Y-21945D01*
X348720Y-21904D01*
X348656Y-21871D01*
X348586Y-21835D01*
X348517Y-21811D01*
X348439Y-21788D01*
X348355Y-21775D01*
X348268Y-21770D01*
D02*
G37*
G36*
X324525D02*
X324507D01*
X324484Y-21775D01*
X324451D01*
X324410Y-21784D01*
X324364Y-21793D01*
X324313Y-21807D01*
X324257Y-21825D01*
X324202Y-21848D01*
X324137Y-21876D01*
X324073Y-21913D01*
X324008Y-21955D01*
X323943Y-22005D01*
X323879Y-22065D01*
X323814Y-22130D01*
X323754Y-22209D01*
X323749Y-22213D01*
X323740Y-22227D01*
X323726Y-22255D01*
X323703Y-22292D01*
X323680Y-22338D01*
X323657Y-22394D01*
X323624Y-22458D01*
X323597Y-22537D01*
X323569Y-22625D01*
X323541Y-22722D01*
X323514Y-22828D01*
X323491Y-22943D01*
X323467Y-23073D01*
X323453Y-23211D01*
X323444Y-23359D01*
X323440Y-23521D01*
Y-23526D01*
Y-23530D01*
Y-23544D01*
Y-23558D01*
Y-23604D01*
X323444Y-23664D01*
X323449Y-23738D01*
X323458Y-23826D01*
X323467Y-23918D01*
X323481Y-24020D01*
X323495Y-24126D01*
X323518Y-24232D01*
X323541Y-24343D01*
X323574Y-24454D01*
X323611Y-24560D01*
X323652Y-24662D01*
X323703Y-24754D01*
X323758Y-24842D01*
X323763Y-24847D01*
X323772Y-24861D01*
X323791Y-24884D01*
X323818Y-24907D01*
X323846Y-24944D01*
X323888Y-24976D01*
X323929Y-25018D01*
X323980Y-25055D01*
X324036Y-25096D01*
X324096Y-25138D01*
X324160Y-25170D01*
X324234Y-25203D01*
X324308Y-25230D01*
X324387Y-25253D01*
X324470Y-25267D01*
X324558Y-25272D01*
X324576D01*
X324599Y-25267D01*
X324632Y-25263D01*
X324673Y-25258D01*
X324715Y-25249D01*
X324766Y-25235D01*
X324821Y-25216D01*
X324881Y-25193D01*
X324941Y-25166D01*
X325006Y-25129D01*
X325071Y-25087D01*
X325135Y-25041D01*
X325200Y-24981D01*
X325265Y-24916D01*
X325325Y-24837D01*
X325329Y-24833D01*
X325339Y-24819D01*
X325352Y-24791D01*
X325375Y-24754D01*
X325398Y-24708D01*
X325426Y-24653D01*
X325459Y-24583D01*
X325486Y-24509D01*
X325519Y-24422D01*
X325546Y-24325D01*
X325574Y-24214D01*
X325597Y-24098D01*
X325620Y-23969D01*
X325634Y-23830D01*
X325643Y-23678D01*
X325648Y-23521D01*
Y-23516D01*
Y-23512D01*
Y-23498D01*
Y-23484D01*
Y-23438D01*
X325643Y-23378D01*
X325639Y-23304D01*
X325629Y-23221D01*
X325620Y-23123D01*
X325606Y-23027D01*
X325593Y-22920D01*
X325570Y-22809D01*
X325542Y-22703D01*
X325514Y-22592D01*
X325472Y-22486D01*
X325431Y-22384D01*
X325380Y-22292D01*
X325325Y-22204D01*
X325320Y-22199D01*
X325311Y-22186D01*
X325292Y-22163D01*
X325265Y-22135D01*
X325237Y-22103D01*
X325195Y-22065D01*
X325154Y-22029D01*
X325103Y-21987D01*
X325047Y-21945D01*
X324987Y-21908D01*
X324923Y-21871D01*
X324853Y-21839D01*
X324775Y-21811D01*
X324696Y-21788D01*
X324613Y-21775D01*
X324525Y-21770D01*
D02*
G37*
G36*
X316487Y-21770D02*
X316468D01*
X316445Y-21775D01*
X316413D01*
X316371Y-21784D01*
X316325Y-21793D01*
X316274Y-21807D01*
X316219Y-21825D01*
X316163Y-21848D01*
X316098Y-21876D01*
X316034Y-21913D01*
X315969Y-21955D01*
X315904Y-22005D01*
X315840Y-22066D01*
X315775Y-22130D01*
X315715Y-22209D01*
X315710Y-22213D01*
X315701Y-22227D01*
X315687Y-22255D01*
X315664Y-22292D01*
X315641Y-22338D01*
X315618Y-22394D01*
X315586Y-22458D01*
X315558Y-22537D01*
X315530Y-22625D01*
X315503Y-22722D01*
X315475Y-22828D01*
X315452Y-22943D01*
X315429Y-23073D01*
X315415Y-23211D01*
X315406Y-23359D01*
X315401Y-23521D01*
Y-23526D01*
Y-23530D01*
Y-23544D01*
Y-23558D01*
Y-23604D01*
X315406Y-23664D01*
X315410Y-23738D01*
X315419Y-23826D01*
X315429Y-23918D01*
X315442Y-24020D01*
X315456Y-24126D01*
X315479Y-24232D01*
X315503Y-24343D01*
X315535Y-24454D01*
X315572Y-24560D01*
X315613Y-24662D01*
X315664Y-24754D01*
X315720Y-24842D01*
X315724Y-24847D01*
X315734Y-24861D01*
X315752Y-24884D01*
X315780Y-24907D01*
X315807Y-24944D01*
X315849Y-24976D01*
X315891Y-25018D01*
X315941Y-25055D01*
X315997Y-25096D01*
X316057Y-25138D01*
X316122Y-25170D01*
X316196Y-25203D01*
X316269Y-25230D01*
X316348Y-25253D01*
X316431Y-25267D01*
X316519Y-25272D01*
X316537D01*
X316561Y-25267D01*
X316593Y-25263D01*
X316634Y-25258D01*
X316676Y-25249D01*
X316727Y-25235D01*
X316782Y-25216D01*
X316842Y-25193D01*
X316902Y-25166D01*
X316967Y-25129D01*
X317032Y-25087D01*
X317096Y-25041D01*
X317161Y-24981D01*
X317226Y-24916D01*
X317286Y-24838D01*
X317290Y-24833D01*
X317300Y-24819D01*
X317314Y-24791D01*
X317337Y-24754D01*
X317360Y-24708D01*
X317387Y-24653D01*
X317420Y-24584D01*
X317447Y-24509D01*
X317480Y-24422D01*
X317508Y-24325D01*
X317535Y-24214D01*
X317558Y-24098D01*
X317582Y-23969D01*
X317595Y-23830D01*
X317605Y-23678D01*
X317609Y-23521D01*
Y-23516D01*
Y-23512D01*
Y-23498D01*
Y-23484D01*
Y-23438D01*
X317605Y-23378D01*
X317600Y-23304D01*
X317591Y-23221D01*
X317582Y-23123D01*
X317568Y-23027D01*
X317554Y-22920D01*
X317531Y-22809D01*
X317503Y-22703D01*
X317475Y-22592D01*
X317434Y-22486D01*
X317392Y-22384D01*
X317341Y-22292D01*
X317286Y-22204D01*
X317281Y-22199D01*
X317272Y-22186D01*
X317253Y-22163D01*
X317226Y-22135D01*
X317198Y-22103D01*
X317156Y-22066D01*
X317115Y-22029D01*
X317064Y-21987D01*
X317009Y-21945D01*
X316949Y-21908D01*
X316884Y-21871D01*
X316815Y-21839D01*
X316736Y-21812D01*
X316657Y-21788D01*
X316574Y-21775D01*
X316487Y-21770D01*
D02*
G37*
G36*
X301259D02*
X301218D01*
X301190Y-21775D01*
X301153Y-21779D01*
X301107Y-21788D01*
X301060Y-21798D01*
X301009Y-21816D01*
X300954Y-21835D01*
X300894Y-21858D01*
X300834Y-21885D01*
X300774Y-21918D01*
X300709Y-21959D01*
X300649Y-22010D01*
X300589Y-22061D01*
X300529Y-22126D01*
X300524Y-22130D01*
X300515Y-22144D01*
X300501Y-22163D01*
X300483Y-22190D01*
X300460Y-22227D01*
X300432Y-22269D01*
X300404Y-22320D01*
X300377Y-22380D01*
X300344Y-22444D01*
X300317Y-22514D01*
X300289Y-22592D01*
X300266Y-22680D01*
X300243Y-22772D01*
X300224Y-22869D01*
X300210Y-22971D01*
X300201Y-23082D01*
X302294D01*
Y-23077D01*
Y-23054D01*
X302289Y-23027D01*
X302285Y-22985D01*
X302275Y-22934D01*
X302266Y-22879D01*
X302257Y-22819D01*
X302243Y-22749D01*
X302211Y-22606D01*
X302169Y-22458D01*
X302109Y-22320D01*
X302077Y-22255D01*
X302040Y-22199D01*
X302035Y-22195D01*
X302026Y-22181D01*
X302008Y-22158D01*
X301984Y-22130D01*
X301952Y-22098D01*
X301915Y-22066D01*
X301873Y-22024D01*
X301827Y-21982D01*
X301772Y-21945D01*
X301712Y-21904D01*
X301647Y-21871D01*
X301578Y-21835D01*
X301508Y-21812D01*
X301430Y-21788D01*
X301347Y-21775D01*
X301259Y-21770D01*
D02*
G37*
G36*
X279517D02*
X279499D01*
X279476Y-21775D01*
X279443D01*
X279402Y-21784D01*
X279356Y-21793D01*
X279305Y-21807D01*
X279249Y-21825D01*
X279194Y-21848D01*
X279129Y-21876D01*
X279065Y-21913D01*
X279000Y-21955D01*
X278935Y-22005D01*
X278871Y-22066D01*
X278806Y-22130D01*
X278746Y-22209D01*
X278741Y-22213D01*
X278732Y-22227D01*
X278718Y-22255D01*
X278695Y-22292D01*
X278672Y-22338D01*
X278649Y-22394D01*
X278616Y-22458D01*
X278589Y-22537D01*
X278561Y-22625D01*
X278533Y-22722D01*
X278505Y-22828D01*
X278482Y-22943D01*
X278459Y-23073D01*
X278446Y-23211D01*
X278436Y-23359D01*
X278432Y-23521D01*
Y-23526D01*
Y-23530D01*
Y-23544D01*
Y-23558D01*
Y-23604D01*
X278436Y-23664D01*
X278441Y-23738D01*
X278450Y-23826D01*
X278459Y-23918D01*
X278473Y-24020D01*
X278487Y-24126D01*
X278510Y-24232D01*
X278533Y-24343D01*
X278566Y-24454D01*
X278603Y-24560D01*
X278644Y-24662D01*
X278695Y-24754D01*
X278750Y-24842D01*
X278755Y-24847D01*
X278764Y-24861D01*
X278783Y-24884D01*
X278810Y-24907D01*
X278838Y-24944D01*
X278880Y-24976D01*
X278921Y-25018D01*
X278972Y-25055D01*
X279028Y-25096D01*
X279088Y-25138D01*
X279152Y-25170D01*
X279226Y-25203D01*
X279300Y-25230D01*
X279379Y-25253D01*
X279462Y-25267D01*
X279550Y-25272D01*
X279568D01*
X279591Y-25267D01*
X279624Y-25263D01*
X279665Y-25258D01*
X279707Y-25249D01*
X279757Y-25235D01*
X279813Y-25216D01*
X279873Y-25193D01*
X279933Y-25166D01*
X279998Y-25129D01*
X280063Y-25087D01*
X280127Y-25041D01*
X280192Y-24981D01*
X280257Y-24916D01*
X280317Y-24838D01*
X280321Y-24833D01*
X280330Y-24819D01*
X280344Y-24791D01*
X280367Y-24754D01*
X280391Y-24708D01*
X280418Y-24653D01*
X280451Y-24584D01*
X280478Y-24509D01*
X280511Y-24422D01*
X280538Y-24325D01*
X280566Y-24214D01*
X280589Y-24098D01*
X280612Y-23969D01*
X280626Y-23830D01*
X280635Y-23678D01*
X280640Y-23521D01*
Y-23516D01*
Y-23512D01*
Y-23498D01*
Y-23484D01*
Y-23438D01*
X280635Y-23378D01*
X280631Y-23304D01*
X280622Y-23221D01*
X280612Y-23123D01*
X280598Y-23027D01*
X280585Y-22920D01*
X280561Y-22809D01*
X280534Y-22703D01*
X280506Y-22592D01*
X280464Y-22486D01*
X280423Y-22384D01*
X280372Y-22292D01*
X280317Y-22204D01*
X280312Y-22199D01*
X280303Y-22186D01*
X280284Y-22163D01*
X280257Y-22135D01*
X280229Y-22103D01*
X280187Y-22066D01*
X280146Y-22029D01*
X280095Y-21987D01*
X280039Y-21945D01*
X279979Y-21908D01*
X279915Y-21871D01*
X279845Y-21839D01*
X279767Y-21812D01*
X279688Y-21788D01*
X279605Y-21775D01*
X279517Y-21770D01*
D02*
G37*
G36*
X266701D02*
X266660D01*
X266632Y-21775D01*
X266595Y-21779D01*
X266549Y-21788D01*
X266503Y-21798D01*
X266452Y-21816D01*
X266396Y-21835D01*
X266336Y-21858D01*
X266276Y-21885D01*
X266216Y-21918D01*
X266152Y-21959D01*
X266092Y-22010D01*
X266032Y-22061D01*
X265971Y-22126D01*
X265967Y-22130D01*
X265958Y-22144D01*
X265944Y-22163D01*
X265925Y-22190D01*
X265902Y-22227D01*
X265874Y-22269D01*
X265847Y-22320D01*
X265819Y-22380D01*
X265787Y-22444D01*
X265759Y-22514D01*
X265731Y-22592D01*
X265708Y-22680D01*
X265685Y-22772D01*
X265667Y-22869D01*
X265653Y-22971D01*
X265643Y-23082D01*
X267736D01*
Y-23077D01*
Y-23054D01*
X267732Y-23027D01*
X267727Y-22985D01*
X267718Y-22934D01*
X267709Y-22879D01*
X267699Y-22819D01*
X267686Y-22749D01*
X267653Y-22606D01*
X267612Y-22458D01*
X267551Y-22320D01*
X267519Y-22255D01*
X267482Y-22199D01*
X267478Y-22195D01*
X267468Y-22181D01*
X267450Y-22158D01*
X267427Y-22130D01*
X267394Y-22098D01*
X267357Y-22066D01*
X267316Y-22024D01*
X267270Y-21982D01*
X267214Y-21945D01*
X267154Y-21904D01*
X267090Y-21871D01*
X267020Y-21835D01*
X266951Y-21812D01*
X266872Y-21788D01*
X266789Y-21775D01*
X266701Y-21770D01*
D02*
G37*
G36*
X14983Y-30582D02*
X13361Y-33424D01*
X14983D01*
Y-30582D01*
D02*
G37*
G36*
X22208Y-21770D02*
X22190D01*
X22167Y-21775D01*
X22135D01*
X22093Y-21784D01*
X22047Y-21793D01*
X21996Y-21807D01*
X21940Y-21825D01*
X21885Y-21848D01*
X21820Y-21876D01*
X21756Y-21913D01*
X21691Y-21955D01*
X21626Y-22005D01*
X21562Y-22066D01*
X21497Y-22130D01*
X21437Y-22209D01*
X21432Y-22213D01*
X21423Y-22227D01*
X21409Y-22255D01*
X21386Y-22292D01*
X21363Y-22338D01*
X21340Y-22394D01*
X21308Y-22458D01*
X21280Y-22537D01*
X21252Y-22625D01*
X21224Y-22722D01*
X21197Y-22828D01*
X21174Y-22943D01*
X21150Y-23073D01*
X21137Y-23211D01*
X21127Y-23359D01*
X21123Y-23521D01*
Y-23526D01*
Y-23530D01*
Y-23544D01*
Y-23558D01*
Y-23604D01*
X21127Y-23664D01*
X21132Y-23738D01*
X21141Y-23826D01*
X21150Y-23918D01*
X21164Y-24020D01*
X21178Y-24126D01*
X21201Y-24232D01*
X21224Y-24343D01*
X21257Y-24454D01*
X21294Y-24560D01*
X21335Y-24662D01*
X21386Y-24754D01*
X21441Y-24842D01*
X21446Y-24847D01*
X21455Y-24861D01*
X21474Y-24884D01*
X21502Y-24907D01*
X21529Y-24944D01*
X21571Y-24976D01*
X21612Y-25018D01*
X21663Y-25055D01*
X21719Y-25096D01*
X21779Y-25138D01*
X21844Y-25170D01*
X21917Y-25203D01*
X21991Y-25230D01*
X22070Y-25253D01*
X22153Y-25267D01*
X22241Y-25272D01*
X22259D01*
X22282Y-25267D01*
X22315Y-25263D01*
X22356Y-25258D01*
X22398Y-25249D01*
X22449Y-25235D01*
X22504Y-25216D01*
X22564Y-25193D01*
X22624Y-25166D01*
X22689Y-25129D01*
X22754Y-25087D01*
X22818Y-25041D01*
X22883Y-24981D01*
X22948Y-24916D01*
X23008Y-24838D01*
X23012Y-24833D01*
X23022Y-24819D01*
X23035Y-24791D01*
X23058Y-24754D01*
X23082Y-24708D01*
X23109Y-24653D01*
X23142Y-24584D01*
X23169Y-24509D01*
X23202Y-24422D01*
X23230Y-24325D01*
X23257Y-24214D01*
X23280Y-24098D01*
X23303Y-23969D01*
X23317Y-23830D01*
X23326Y-23678D01*
X23331Y-23521D01*
Y-23516D01*
Y-23512D01*
Y-23498D01*
Y-23484D01*
Y-23438D01*
X23326Y-23378D01*
X23322Y-23304D01*
X23313Y-23221D01*
X23303Y-23124D01*
X23290Y-23027D01*
X23276Y-22920D01*
X23253Y-22809D01*
X23225Y-22703D01*
X23197Y-22592D01*
X23156Y-22486D01*
X23114Y-22384D01*
X23063Y-22292D01*
X23008Y-22204D01*
X23003Y-22199D01*
X22994Y-22186D01*
X22975Y-22163D01*
X22948Y-22135D01*
X22920Y-22103D01*
X22878Y-22066D01*
X22837Y-22029D01*
X22786Y-21987D01*
X22730Y-21945D01*
X22670Y-21908D01*
X22606Y-21871D01*
X22536Y-21839D01*
X22458Y-21812D01*
X22379Y-21788D01*
X22296Y-21775D01*
X22208Y-21770D01*
D02*
G37*
G36*
X16581D02*
X16563D01*
X16540Y-21775D01*
X16507D01*
X16466Y-21784D01*
X16420Y-21793D01*
X16369Y-21807D01*
X16313Y-21825D01*
X16258Y-21848D01*
X16193Y-21876D01*
X16128Y-21913D01*
X16064Y-21955D01*
X15999Y-22005D01*
X15935Y-22066D01*
X15870Y-22130D01*
X15810Y-22209D01*
X15805Y-22213D01*
X15796Y-22227D01*
X15782Y-22255D01*
X15759Y-22292D01*
X15736Y-22338D01*
X15713Y-22394D01*
X15680Y-22458D01*
X15653Y-22537D01*
X15625Y-22625D01*
X15597Y-22722D01*
X15570Y-22828D01*
X15546Y-22943D01*
X15523Y-23073D01*
X15509Y-23211D01*
X15500Y-23359D01*
X15496Y-23521D01*
Y-23526D01*
Y-23530D01*
Y-23544D01*
Y-23558D01*
Y-23604D01*
X15500Y-23664D01*
X15505Y-23738D01*
X15514Y-23826D01*
X15523Y-23918D01*
X15537Y-24020D01*
X15551Y-24126D01*
X15574Y-24232D01*
X15597Y-24343D01*
X15630Y-24454D01*
X15666Y-24560D01*
X15708Y-24662D01*
X15759Y-24754D01*
X15814Y-24842D01*
X15819Y-24847D01*
X15828Y-24861D01*
X15847Y-24884D01*
X15874Y-24907D01*
X15902Y-24944D01*
X15944Y-24976D01*
X15985Y-25018D01*
X16036Y-25055D01*
X16092Y-25096D01*
X16152Y-25138D01*
X16216Y-25170D01*
X16290Y-25203D01*
X16364Y-25230D01*
X16443Y-25253D01*
X16526Y-25267D01*
X16614Y-25272D01*
X16632D01*
X16655Y-25267D01*
X16688Y-25263D01*
X16729Y-25258D01*
X16771Y-25249D01*
X16822Y-25235D01*
X16877Y-25216D01*
X16937Y-25193D01*
X16997Y-25166D01*
X17062Y-25129D01*
X17127Y-25087D01*
X17191Y-25041D01*
X17256Y-24981D01*
X17321Y-24916D01*
X17381Y-24838D01*
X17385Y-24833D01*
X17394Y-24819D01*
X17408Y-24791D01*
X17431Y-24754D01*
X17455Y-24708D01*
X17482Y-24653D01*
X17515Y-24584D01*
X17542Y-24509D01*
X17575Y-24422D01*
X17602Y-24325D01*
X17630Y-24214D01*
X17653Y-24098D01*
X17676Y-23969D01*
X17690Y-23830D01*
X17699Y-23678D01*
X17704Y-23521D01*
Y-23516D01*
Y-23512D01*
Y-23498D01*
Y-23484D01*
Y-23438D01*
X17699Y-23378D01*
X17695Y-23304D01*
X17685Y-23221D01*
X17676Y-23124D01*
X17662Y-23027D01*
X17649Y-22920D01*
X17625Y-22809D01*
X17598Y-22703D01*
X17570Y-22592D01*
X17528Y-22486D01*
X17487Y-22384D01*
X17436Y-22292D01*
X17381Y-22204D01*
X17376Y-22199D01*
X17367Y-22186D01*
X17348Y-22163D01*
X17321Y-22135D01*
X17293Y-22103D01*
X17251Y-22066D01*
X17210Y-22029D01*
X17159Y-21987D01*
X17103Y-21945D01*
X17043Y-21908D01*
X16979Y-21871D01*
X16909Y-21839D01*
X16831Y-21812D01*
X16752Y-21788D01*
X16669Y-21775D01*
X16581Y-21770D01*
D02*
G37*
%LPD*%
D56*
X93032Y25500D02*
X96969D01*
X95000Y23531D02*
Y27468D01*
X83031Y25500D02*
X86968D01*
X85000Y23531D02*
Y27468D01*
X73032Y75000D02*
X76968D01*
X75000Y73032D02*
Y76968D01*
X83031Y75000D02*
X86968D01*
X85000Y73032D02*
Y76968D01*
X93032Y75000D02*
X96969D01*
X95000Y73032D02*
Y76968D01*
X13032Y75000D02*
X16969D01*
X15000Y73032D02*
Y76968D01*
X3032Y75000D02*
X6968D01*
X5000Y73032D02*
Y76968D01*
X13032Y25000D02*
X16969D01*
X15000Y23031D02*
Y26969D01*
X3032Y25000D02*
X6968D01*
X5000Y23031D02*
Y26969D01*
X85276Y10000D02*
X94724D01*
X90000Y5276D02*
Y14724D01*
X5276Y10000D02*
X14724D01*
X10000Y5276D02*
Y14724D01*
X85276Y90000D02*
X94724D01*
X90000Y85276D02*
Y94724D01*
X5276Y90000D02*
X14724D01*
X10000Y85276D02*
Y94724D01*
X96487Y68610D02*
X97687D01*
X97087Y68010D02*
Y69210D01*
X76700Y33588D02*
X78300D01*
X77500Y32787D02*
Y34387D01*
X89400Y72000D02*
X90600D01*
X90000Y71400D02*
Y72600D01*
X21200Y33588D02*
X22800D01*
X22000Y32787D02*
Y34387D01*
X49400Y95000D02*
X50600D01*
X50000Y94400D02*
Y95600D01*
X40148Y72500D02*
X41348D01*
X40748Y71900D02*
Y73100D01*
X96836Y81805D02*
X98036D01*
X97436Y81205D02*
Y82405D01*
X21200Y41000D02*
X22800D01*
X22000Y40200D02*
Y41800D01*
X78200Y59000D02*
X79800D01*
X79000Y58200D02*
Y59800D01*
X28200Y41000D02*
X29800D01*
X29000Y40200D02*
Y41800D01*
X19700Y3500D02*
X21300D01*
X20500Y2700D02*
Y4300D01*
X78700Y3500D02*
X80300D01*
X79500Y2700D02*
Y4300D01*
X40313Y21549D02*
X41513D01*
X40913Y20949D02*
Y22149D01*
X70200Y58954D02*
X71800D01*
X71000Y58154D02*
Y59754D01*
X64700Y58954D02*
X66300D01*
X65500Y58154D02*
Y59754D01*
X33700Y41000D02*
X35300D01*
X34500Y40200D02*
Y41800D01*
X34802Y66189D02*
X36002D01*
X35402Y65589D02*
Y66789D01*
X49576Y73387D02*
X50776D01*
X50176Y72787D02*
Y73988D01*
X53700Y71038D02*
X54900D01*
X54300Y70438D02*
Y71637D01*
X40313Y78512D02*
X41513D01*
X40913Y77912D02*
Y79112D01*
X92200Y50000D02*
X93800D01*
X93000Y49200D02*
Y50800D01*
X59242Y70551D02*
X60443D01*
X59842Y69951D02*
Y71151D01*
X45081Y70256D02*
X46281D01*
X45682Y69656D02*
Y70856D01*
M02*
