M48
;Layer_Color=9474304
;FILE_FORMAT=2:5
INCH,LZ
;TYPE=PLATED
T01F00S00C0.01200
T02F00S00C0.01600
T03F00S00C0.03937
;TYPE=NON_PLATED
T04F00S00C0.09449
%
T01
X0040913Y0021549
X0035402Y0066189
X0040748Y00725
X0040913Y0078512
X0045682Y0070256
X0050176Y0073387
X00543Y0071038
X0059842Y0070551
X009Y0072
X0097087Y006861
X0097436Y0081805
X005Y0095
T02
X00205Y00035
X0022Y0033588
Y0041
X0029
X00345
X00655Y0058954
X0071
X0079Y0059
X0093Y005
X00775Y0033588
X00795Y00035
T03
X0005Y0025
X0015
Y0075
X0005
X0075
X0085
X0095
Y00255
X0085
T04
X001Y001
X009
Y009
X001
M30
