G04*
G04 #@! TF.GenerationSoftware,Altium Limited,Altium Designer,24.5.2 (23)*
G04*
G04 Layer_Physical_Order=2*
G04 Layer_Color=16711680*
%FSLAX25Y25*%
%MOIN*%
G70*
G04*
G04 #@! TF.SameCoordinates,14D8FD4F-CE48-4F7E-93F5-DD934605E96C*
G04*
G04*
G04 #@! TF.FilePolarity,Positive*
G04*
G01*
G75*
%ADD41C,0.00700*%
%ADD43C,0.06299*%
%ADD44R,0.06299X0.06299*%
%ADD45C,0.02600*%
%ADD46C,0.03200*%
%ADD47C,0.04000*%
%ADD48C,0.02000*%
G36*
X85847Y98480D02*
X85275Y98183D01*
X84580Y97740D01*
X83926Y97238D01*
X83318Y96682D01*
X82762Y96074D01*
X82260Y95420D01*
X81817Y94725D01*
X81436Y93993D01*
X81121Y93232D01*
X80873Y92446D01*
X80694Y91641D01*
X80587Y90824D01*
X80551Y90000D01*
X80587Y89176D01*
X80694Y88359D01*
X80873Y87554D01*
X81121Y86768D01*
X81436Y86007D01*
X81817Y85275D01*
X82260Y84580D01*
X82762Y83926D01*
X83318Y83318D01*
X83926Y82762D01*
X84580Y82260D01*
X85275Y81817D01*
X86007Y81436D01*
X86768Y81121D01*
X87554Y80873D01*
X88359Y80694D01*
X89176Y80587D01*
X90000Y80551D01*
X90824Y80587D01*
X91641Y80694D01*
X92446Y80873D01*
X93232Y81121D01*
X93993Y81436D01*
X94725Y81817D01*
X95420Y82260D01*
X96074Y82762D01*
X96682Y83318D01*
X97238Y83926D01*
X97740Y84580D01*
X98183Y85275D01*
X98480Y85846D01*
X98980Y85724D01*
Y76756D01*
X98480Y76657D01*
X98460Y76706D01*
X98208Y77143D01*
X97900Y77544D01*
X97544Y77900D01*
X97143Y78208D01*
X96706Y78460D01*
X96240Y78653D01*
X95753Y78784D01*
X95252Y78850D01*
X94748D01*
X94247Y78784D01*
X93760Y78653D01*
X93294Y78460D01*
X92857Y78208D01*
X92456Y77900D01*
X92099Y77544D01*
X91792Y77143D01*
X91540Y76706D01*
X91510Y76634D01*
X90920Y76517D01*
X87488Y79949D01*
X87269Y80117D01*
X87014Y80223D01*
X86739Y80259D01*
X83261D01*
X83224Y80254D01*
X82129Y81349D01*
X81910Y81517D01*
X81654Y81623D01*
X81380Y81659D01*
X49914D01*
X49914Y81659D01*
X49640Y81623D01*
X49385Y81517D01*
X49165Y81349D01*
X47388Y79571D01*
X42611D01*
X42467Y79787D01*
X42188Y80065D01*
X41861Y80284D01*
X41497Y80435D01*
X41110Y80512D01*
X40716D01*
X40330Y80435D01*
X39966Y80284D01*
X39639Y80065D01*
X39360Y79787D01*
X39141Y79459D01*
X38990Y79095D01*
X38913Y78709D01*
Y78315D01*
X38990Y77928D01*
X39141Y77564D01*
X39360Y77237D01*
X39639Y76958D01*
X39966Y76739D01*
X40330Y76589D01*
X40716Y76512D01*
X41110D01*
X41497Y76589D01*
X41861Y76739D01*
X42188Y76958D01*
X42467Y77237D01*
X42611Y77453D01*
X46767D01*
Y72924D01*
X46556Y72764D01*
X46267Y72647D01*
X46183Y72682D01*
X46000Y72706D01*
X46000Y72706D01*
X43000D01*
X42811Y72699D01*
X42671Y73083D01*
X42520Y73447D01*
X42301Y73775D01*
X42023Y74054D01*
X41695Y74272D01*
X41331Y74423D01*
X40945Y74500D01*
X40551D01*
X40165Y74423D01*
X39801Y74272D01*
X39473Y74054D01*
X39195Y73775D01*
X39050Y73559D01*
X37002D01*
X36573Y73988D01*
X36696Y74368D01*
X36763Y74787D01*
Y75213D01*
X36696Y75632D01*
X36565Y76036D01*
X36372Y76415D01*
X36122Y76759D01*
X35822Y77060D01*
X35478Y77309D01*
X35099Y77502D01*
X34695Y77634D01*
X34275Y77700D01*
X33850D01*
X33431Y77634D01*
X33027Y77502D01*
X32648Y77309D01*
X32304Y77060D01*
X32004Y76759D01*
X31754Y76415D01*
X31561Y76036D01*
X31429Y75632D01*
X31363Y75213D01*
Y74787D01*
X31429Y74368D01*
X31561Y73964D01*
X31754Y73585D01*
X32004Y73241D01*
X32304Y72940D01*
X32648Y72691D01*
X33027Y72498D01*
X33431Y72366D01*
X33850Y72300D01*
X34275D01*
X34695Y72366D01*
X35075Y72490D01*
X35814Y71751D01*
X36033Y71583D01*
X36289Y71477D01*
X36563Y71441D01*
X39050D01*
X39195Y71225D01*
X39473Y70947D01*
X39801Y70728D01*
X40165Y70577D01*
X40551Y70500D01*
X40945D01*
X41331Y70577D01*
X41695Y70728D01*
X41794Y70793D01*
X42294Y70526D01*
Y68000D01*
X42294Y68000D01*
X42318Y67817D01*
X42388Y67647D01*
X42501Y67501D01*
X45501Y64501D01*
X45647Y64389D01*
X45817Y64318D01*
X46000Y64294D01*
X46000Y64294D01*
X60000D01*
X60000Y64294D01*
X60183Y64318D01*
X60353Y64389D01*
X60499Y64501D01*
X63499Y67501D01*
X63612Y67647D01*
X63682Y67817D01*
X63706Y68000D01*
X63706Y68000D01*
Y72000D01*
X63682Y72183D01*
X63612Y72353D01*
X63499Y72499D01*
X63353Y72611D01*
X63183Y72682D01*
X63000Y72706D01*
X59000D01*
X59000Y72706D01*
X58817Y72682D01*
X58647Y72611D01*
X58501Y72499D01*
X56783Y70782D01*
X56735Y70787D01*
X56300Y71006D01*
Y71234D01*
X56224Y71621D01*
X56073Y71985D01*
X55854Y72312D01*
X55575Y72591D01*
X55248Y72810D01*
X54884Y72961D01*
X54497Y73037D01*
X54103D01*
X53717Y72961D01*
X53353Y72810D01*
X53026Y72591D01*
X52747Y72312D01*
X52737Y72297D01*
X52418Y72239D01*
X52325Y72255D01*
X52070Y72732D01*
X52100Y72804D01*
X52176Y73190D01*
Y73584D01*
X52100Y73971D01*
X51949Y74335D01*
X51730Y74662D01*
X51451Y74941D01*
X51236Y75085D01*
Y77250D01*
X52126Y78140D01*
X70850D01*
Y75500D01*
X79150D01*
Y78140D01*
X80362D01*
X81634Y76869D01*
X81540Y76706D01*
X81347Y76240D01*
X81216Y75753D01*
X81150Y75252D01*
Y74748D01*
X81216Y74247D01*
X81347Y73760D01*
X81540Y73294D01*
X81792Y72857D01*
X82099Y72456D01*
X82456Y72100D01*
X82857Y71792D01*
X83294Y71540D01*
X83760Y71347D01*
X84247Y71216D01*
X84748Y71150D01*
X85252D01*
X85753Y71216D01*
X86240Y71347D01*
X86706Y71540D01*
X87143Y71792D01*
X87544Y72100D01*
X87901Y72456D01*
X88208Y72857D01*
X88460Y73294D01*
X88653Y73760D01*
X88784Y74247D01*
X88850Y74748D01*
Y74885D01*
X89350Y75092D01*
X90190Y74251D01*
X90410Y74083D01*
X90665Y73977D01*
X90939Y73941D01*
X90939Y73941D01*
X91298D01*
X91347Y73760D01*
X91540Y73294D01*
X91792Y72857D01*
X92099Y72456D01*
X92456Y72100D01*
X92857Y71792D01*
X93294Y71540D01*
X93760Y71347D01*
X94247Y71216D01*
X94748Y71150D01*
X95252D01*
X95753Y71216D01*
X96240Y71347D01*
X96706Y71540D01*
X97143Y71792D01*
X97544Y72100D01*
X97900Y72456D01*
X98208Y72857D01*
X98460Y73294D01*
X98480Y73343D01*
X98980Y73244D01*
Y27905D01*
X98480Y27771D01*
X98458Y27810D01*
X98127Y28242D01*
X97742Y28626D01*
X97310Y28958D01*
X96839Y29230D01*
X96337Y29438D01*
X95811Y29579D01*
X95500Y29620D01*
Y25500D01*
Y21380D01*
X95811Y21421D01*
X96337Y21562D01*
X96839Y21770D01*
X97310Y22042D01*
X97742Y22374D01*
X98127Y22758D01*
X98458Y23190D01*
X98480Y23229D01*
X98980Y23095D01*
Y14276D01*
X98480Y14154D01*
X98183Y14725D01*
X97740Y15420D01*
X97238Y16074D01*
X96682Y16682D01*
X96074Y17239D01*
X95420Y17740D01*
X94725Y18183D01*
X93993Y18564D01*
X93232Y18879D01*
X92446Y19127D01*
X91641Y19306D01*
X90824Y19413D01*
X90000Y19449D01*
X89176Y19413D01*
X88359Y19306D01*
X87554Y19127D01*
X86768Y18879D01*
X86007Y18564D01*
X85275Y18183D01*
X84580Y17740D01*
X83926Y17239D01*
X83318Y16682D01*
X82762Y16074D01*
X82260Y15420D01*
X81817Y14725D01*
X81436Y13993D01*
X81121Y13232D01*
X80873Y12446D01*
X80694Y11641D01*
X80587Y10824D01*
X80551Y10000D01*
X80587Y9176D01*
X80694Y8359D01*
X80873Y7554D01*
X81121Y6768D01*
X81436Y6007D01*
X81817Y5275D01*
X82260Y4580D01*
X82762Y3926D01*
X83318Y3318D01*
X83926Y2761D01*
X84580Y2260D01*
X85275Y1817D01*
X85847Y1519D01*
X85724Y1020D01*
X14276D01*
X14154Y1519D01*
X14725Y1817D01*
X15420Y2260D01*
X16074Y2761D01*
X16682Y3318D01*
X17239Y3926D01*
X17740Y4580D01*
X18183Y5275D01*
X18564Y6007D01*
X18879Y6768D01*
X19127Y7554D01*
X19306Y8359D01*
X19413Y9176D01*
X19449Y10000D01*
X19413Y10824D01*
X19306Y11641D01*
X19127Y12446D01*
X18879Y13232D01*
X18564Y13993D01*
X18183Y14725D01*
X17740Y15420D01*
X17239Y16074D01*
X16682Y16682D01*
X16074Y17239D01*
X15420Y17740D01*
X14725Y18183D01*
X13993Y18564D01*
X13232Y18879D01*
X12446Y19127D01*
X11641Y19306D01*
X10824Y19413D01*
X10000Y19449D01*
X9176Y19413D01*
X8359Y19306D01*
X7554Y19127D01*
X6768Y18879D01*
X6007Y18564D01*
X5275Y18183D01*
X4580Y17740D01*
X3926Y17239D01*
X3318Y16682D01*
X2761Y16074D01*
X2260Y15420D01*
X1817Y14725D01*
X1519Y14154D01*
X1020Y14276D01*
Y20850D01*
X4500D01*
Y25000D01*
Y29150D01*
X1020D01*
Y70850D01*
X4500D01*
Y75000D01*
Y79150D01*
X1020D01*
Y85724D01*
X1519Y85846D01*
X1817Y85275D01*
X2260Y84580D01*
X2761Y83926D01*
X3318Y83318D01*
X3926Y82762D01*
X4580Y82260D01*
X5275Y81817D01*
X6007Y81436D01*
X6768Y81121D01*
X7554Y80873D01*
X8359Y80694D01*
X9176Y80587D01*
X10000Y80551D01*
X10824Y80587D01*
X11641Y80694D01*
X12446Y80873D01*
X13232Y81121D01*
X13993Y81436D01*
X14725Y81817D01*
X15420Y82260D01*
X16074Y82762D01*
X16682Y83318D01*
X17239Y83926D01*
X17740Y84580D01*
X18183Y85275D01*
X18564Y86007D01*
X18879Y86768D01*
X19127Y87554D01*
X19306Y88359D01*
X19413Y89176D01*
X19449Y90000D01*
X19413Y90824D01*
X19306Y91641D01*
X19127Y92446D01*
X18879Y93232D01*
X18564Y93993D01*
X18183Y94725D01*
X17740Y95420D01*
X17239Y96074D01*
X16682Y96682D01*
X16074Y97238D01*
X15420Y97740D01*
X14725Y98183D01*
X14154Y98480D01*
X14276Y98980D01*
X85724D01*
X85847Y98480D01*
D02*
G37*
G36*
X63000Y68000D02*
X60000Y65000D01*
X46000D01*
X43000Y68000D01*
Y72000D01*
X46000D01*
X49000Y69000D01*
X56000D01*
X59000Y72000D01*
X63000D01*
Y68000D01*
D02*
G37*
G36*
X19732Y-20393D02*
X19099D01*
Y-19492D01*
X19732D01*
Y-20393D01*
D02*
G37*
G36*
X256334Y-21137D02*
X256380Y-21142D01*
X256436Y-21151D01*
X256491Y-21165D01*
X256556Y-21179D01*
X256621Y-21197D01*
X256690Y-21220D01*
X256764Y-21252D01*
X256833Y-21289D01*
X256902Y-21331D01*
X256972Y-21382D01*
X257036Y-21437D01*
X257097Y-21502D01*
X257101Y-21507D01*
X257110Y-21520D01*
X257124Y-21539D01*
X257147Y-21571D01*
X257170Y-21613D01*
X257198Y-21659D01*
X257226Y-21719D01*
X257254Y-21784D01*
X257281Y-21862D01*
X257314Y-21945D01*
X257337Y-22042D01*
X257360Y-22149D01*
X257383Y-22264D01*
X257397Y-22389D01*
X257406Y-22523D01*
X257411Y-22671D01*
Y-25803D01*
X256778D01*
Y-22925D01*
Y-22920D01*
Y-22902D01*
Y-22879D01*
Y-22846D01*
Y-22805D01*
X256773Y-22759D01*
Y-22708D01*
X256768Y-22652D01*
X256759Y-22541D01*
X256745Y-22426D01*
X256727Y-22320D01*
X256718Y-22274D01*
X256704Y-22232D01*
Y-22227D01*
X256699Y-22223D01*
X256690Y-22199D01*
X256671Y-22158D01*
X256648Y-22112D01*
X256616Y-22061D01*
X256579Y-22010D01*
X256528Y-21959D01*
X256473Y-21913D01*
X256464Y-21908D01*
X256445Y-21895D01*
X256413Y-21876D01*
X256366Y-21853D01*
X256316Y-21835D01*
X256251Y-21816D01*
X256186Y-21802D01*
X256112Y-21798D01*
X256071D01*
X256043Y-21802D01*
X256011Y-21807D01*
X255969Y-21816D01*
X255923Y-21825D01*
X255877Y-21839D01*
X255821Y-21858D01*
X255770Y-21876D01*
X255710Y-21904D01*
X255655Y-21936D01*
X255600Y-21973D01*
X255544Y-22019D01*
X255493Y-22066D01*
X255443Y-22126D01*
X255438Y-22130D01*
X255433Y-22140D01*
X255419Y-22158D01*
X255401Y-22186D01*
X255382Y-22223D01*
X255359Y-22264D01*
X255336Y-22315D01*
X255313Y-22375D01*
X255290Y-22440D01*
X255267Y-22518D01*
X255244Y-22602D01*
X255225Y-22694D01*
X255207Y-22795D01*
X255193Y-22902D01*
X255188Y-23022D01*
X255184Y-23147D01*
Y-25803D01*
X254551D01*
Y-22832D01*
Y-22828D01*
Y-22809D01*
Y-22777D01*
X254546Y-22740D01*
Y-22694D01*
X254542Y-22638D01*
X254537Y-22583D01*
X254528Y-22518D01*
X254509Y-22389D01*
X254477Y-22255D01*
X254458Y-22195D01*
X254435Y-22135D01*
X254408Y-22079D01*
X254375Y-22033D01*
Y-22029D01*
X254366Y-22024D01*
X254343Y-21996D01*
X254306Y-21959D01*
X254251Y-21913D01*
X254181Y-21871D01*
X254098Y-21835D01*
X254001Y-21807D01*
X253950Y-21802D01*
X253895Y-21798D01*
X253853D01*
X253821Y-21802D01*
X253788Y-21807D01*
X253742Y-21816D01*
X253696Y-21825D01*
X253645Y-21839D01*
X253590Y-21858D01*
X253534Y-21885D01*
X253479Y-21913D01*
X253424Y-21945D01*
X253363Y-21987D01*
X253308Y-22033D01*
X253257Y-22089D01*
X253206Y-22149D01*
X253202Y-22153D01*
X253197Y-22167D01*
X253183Y-22186D01*
X253169Y-22218D01*
X253151Y-22260D01*
X253128Y-22310D01*
X253105Y-22370D01*
X253082Y-22440D01*
X253059Y-22523D01*
X253035Y-22615D01*
X253017Y-22722D01*
X252994Y-22837D01*
X252980Y-22966D01*
X252966Y-23110D01*
X252961Y-23267D01*
X252957Y-23433D01*
Y-25803D01*
X252324D01*
Y-21234D01*
X252892D01*
Y-21867D01*
X252902Y-21858D01*
X252911Y-21839D01*
X252925Y-21812D01*
X252943Y-21784D01*
X252966Y-21751D01*
X253022Y-21673D01*
X253091Y-21585D01*
X253174Y-21493D01*
X253267Y-21405D01*
X253373Y-21326D01*
X253377Y-21322D01*
X253387Y-21317D01*
X253405Y-21308D01*
X253424Y-21294D01*
X253451Y-21280D01*
X253488Y-21266D01*
X253525Y-21248D01*
X253567Y-21229D01*
X253664Y-21192D01*
X253775Y-21165D01*
X253895Y-21142D01*
X254024Y-21132D01*
X254061D01*
X254089Y-21137D01*
X254126D01*
X254163Y-21142D01*
X254209Y-21151D01*
X254255Y-21155D01*
X254361Y-21183D01*
X254472Y-21220D01*
X254588Y-21266D01*
X254643Y-21299D01*
X254694Y-21336D01*
X254699D01*
X254708Y-21345D01*
X254722Y-21359D01*
X254740Y-21373D01*
X254759Y-21396D01*
X254786Y-21419D01*
X254847Y-21483D01*
X254907Y-21571D01*
X254971Y-21673D01*
X255031Y-21788D01*
X255082Y-21927D01*
X255087Y-21922D01*
X255091Y-21908D01*
X255105Y-21890D01*
X255124Y-21862D01*
X255142Y-21830D01*
X255170Y-21788D01*
X255230Y-21705D01*
X255309Y-21608D01*
X255396Y-21507D01*
X255493Y-21414D01*
X255544Y-21373D01*
X255600Y-21331D01*
X255604Y-21326D01*
X255613Y-21322D01*
X255627Y-21313D01*
X255650Y-21299D01*
X255678Y-21285D01*
X255710Y-21266D01*
X255747Y-21248D01*
X255789Y-21229D01*
X255886Y-21197D01*
X255997Y-21165D01*
X256117Y-21142D01*
X256182Y-21132D01*
X256297D01*
X256334Y-21137D01*
D02*
G37*
G36*
X277471Y-21137D02*
X277498Y-21142D01*
X277535Y-21146D01*
X277572Y-21151D01*
X277619Y-21165D01*
X277715Y-21192D01*
X277826Y-21239D01*
X277882Y-21266D01*
X277942Y-21299D01*
X278007Y-21336D01*
X278067Y-21382D01*
X277850Y-22103D01*
X277845D01*
X277840Y-22093D01*
X277826Y-22089D01*
X277808Y-22075D01*
X277762Y-22047D01*
X277702Y-22015D01*
X277632Y-21987D01*
X277554Y-21959D01*
X277471Y-21941D01*
X277387Y-21932D01*
X277355D01*
X277314Y-21941D01*
X277263Y-21950D01*
X277207Y-21969D01*
X277143Y-21992D01*
X277078Y-22029D01*
X277013Y-22075D01*
X277004Y-22079D01*
X276986Y-22103D01*
X276958Y-22135D01*
X276921Y-22176D01*
X276884Y-22237D01*
X276847Y-22301D01*
X276810Y-22380D01*
X276782Y-22472D01*
Y-22477D01*
X276778Y-22491D01*
X276773Y-22518D01*
X276764Y-22551D01*
X276755Y-22592D01*
X276745Y-22638D01*
X276731Y-22694D01*
X276722Y-22754D01*
X276713Y-22823D01*
X276699Y-22897D01*
X276690Y-22976D01*
X276681Y-23059D01*
X276667Y-23230D01*
X276662Y-23415D01*
Y-25803D01*
X276029D01*
Y-21234D01*
X276602D01*
Y-21932D01*
X276607Y-21927D01*
X276611Y-21908D01*
X276625Y-21885D01*
X276639Y-21853D01*
X276658Y-21816D01*
X276681Y-21770D01*
X276731Y-21668D01*
X276796Y-21562D01*
X276861Y-21456D01*
X276898Y-21405D01*
X276930Y-21363D01*
X276967Y-21322D01*
X276999Y-21289D01*
X277009Y-21285D01*
X277032Y-21266D01*
X277069Y-21239D01*
X277119Y-21211D01*
X277184Y-21183D01*
X277254Y-21155D01*
X277332Y-21137D01*
X277415Y-21132D01*
X277448D01*
X277471Y-21137D01*
D02*
G37*
G36*
X14073Y-25803D02*
X13412D01*
Y-20523D01*
X11906Y-25803D01*
X11287D01*
X9794Y-20435D01*
Y-25803D01*
X9134D01*
Y-19492D01*
X10164D01*
X11388Y-23964D01*
X11633Y-24898D01*
Y-24893D01*
X11638Y-24879D01*
X11643Y-24861D01*
X11652Y-24833D01*
X11661Y-24796D01*
X11670Y-24750D01*
X11689Y-24699D01*
X11703Y-24639D01*
X11721Y-24570D01*
X11739Y-24496D01*
X11763Y-24412D01*
X11790Y-24325D01*
X11818Y-24223D01*
X11846Y-24117D01*
X11878Y-24006D01*
X11910Y-23886D01*
X13149Y-19492D01*
X14073D01*
Y-25803D01*
D02*
G37*
G36*
X270046Y-25877D02*
Y-25882D01*
X270042Y-25886D01*
X270037Y-25900D01*
X270033Y-25919D01*
X270019Y-25960D01*
X270000Y-26025D01*
X269977Y-26094D01*
X269949Y-26177D01*
X269917Y-26270D01*
X269885Y-26367D01*
X269815Y-26570D01*
X269778Y-26672D01*
X269741Y-26769D01*
X269704Y-26861D01*
X269668Y-26944D01*
X269635Y-27018D01*
X269603Y-27083D01*
Y-27088D01*
X269594Y-27097D01*
X269589Y-27111D01*
X269575Y-27134D01*
X269543Y-27185D01*
X269496Y-27254D01*
X269441Y-27323D01*
X269381Y-27397D01*
X269312Y-27466D01*
X269238Y-27522D01*
X269229Y-27526D01*
X269201Y-27540D01*
X269159Y-27563D01*
X269104Y-27586D01*
X269035Y-27614D01*
X268956Y-27633D01*
X268868Y-27651D01*
X268776Y-27656D01*
X268743D01*
X268706Y-27651D01*
X268656Y-27642D01*
X268596Y-27633D01*
X268526Y-27619D01*
X268452Y-27596D01*
X268369Y-27563D01*
X268300Y-26833D01*
X268305D01*
X268309Y-26838D01*
X268337Y-26843D01*
X268374Y-26856D01*
X268425Y-26866D01*
X268480Y-26880D01*
X268540Y-26893D01*
X268600Y-26898D01*
X268656Y-26903D01*
X268688D01*
X268725Y-26898D01*
X268776Y-26893D01*
X268827Y-26884D01*
X268882Y-26866D01*
X268937Y-26847D01*
X268988Y-26820D01*
X268993Y-26815D01*
X269011Y-26806D01*
X269035Y-26783D01*
X269067Y-26755D01*
X269099Y-26722D01*
X269136Y-26676D01*
X269173Y-26625D01*
X269205Y-26565D01*
Y-26561D01*
X269210Y-26556D01*
X269215Y-26547D01*
X269219Y-26528D01*
X269229Y-26510D01*
X269238Y-26482D01*
X269247Y-26445D01*
X269266Y-26404D01*
X269279Y-26353D01*
X269303Y-26288D01*
X269326Y-26214D01*
X269353Y-26131D01*
X269381Y-26034D01*
X269418Y-25923D01*
X269455Y-25798D01*
X268037Y-21234D01*
X268720D01*
X269501Y-23872D01*
Y-23877D01*
X269506Y-23895D01*
X269515Y-23923D01*
X269524Y-23960D01*
X269538Y-24006D01*
X269557Y-24057D01*
X269570Y-24122D01*
X269589Y-24191D01*
X269612Y-24265D01*
X269631Y-24348D01*
X269654Y-24436D01*
X269677Y-24528D01*
X269727Y-24722D01*
X269774Y-24930D01*
Y-24925D01*
X269778Y-24907D01*
X269783Y-24879D01*
X269792Y-24838D01*
X269801Y-24791D01*
X269815Y-24736D01*
X269829Y-24671D01*
X269848Y-24602D01*
X269862Y-24523D01*
X269885Y-24440D01*
X269926Y-24269D01*
X269972Y-24080D01*
X270028Y-23890D01*
X270832Y-21234D01*
X271469D01*
X270046Y-25877D01*
D02*
G37*
G36*
X266059Y-21137D02*
X266110D01*
X266165Y-21142D01*
X266230Y-21151D01*
X266300Y-21160D01*
X266447Y-21188D01*
X266600Y-21225D01*
X266752Y-21280D01*
X266822Y-21317D01*
X266886Y-21354D01*
X266891Y-21359D01*
X266900Y-21363D01*
X266919Y-21377D01*
X266942Y-21396D01*
X266997Y-21442D01*
X267066Y-21507D01*
X267140Y-21585D01*
X267210Y-21678D01*
X267270Y-21784D01*
X267293Y-21844D01*
X267311Y-21904D01*
Y-21908D01*
X267316Y-21918D01*
X267320Y-21936D01*
X267325Y-21964D01*
X267334Y-22001D01*
X267339Y-22042D01*
X267348Y-22089D01*
X267357Y-22144D01*
X267367Y-22209D01*
X267376Y-22283D01*
X267381Y-22361D01*
X267390Y-22444D01*
X267394Y-22537D01*
X267399Y-22638D01*
X267404Y-22745D01*
Y-22860D01*
Y-23890D01*
Y-23895D01*
Y-23904D01*
Y-23918D01*
Y-23937D01*
Y-23964D01*
Y-23992D01*
Y-24066D01*
Y-24149D01*
Y-24251D01*
X267408Y-24357D01*
Y-24468D01*
X267413Y-24704D01*
X267418Y-24814D01*
Y-24925D01*
X267422Y-25027D01*
X267427Y-25119D01*
X267436Y-25198D01*
Y-25230D01*
X267441Y-25258D01*
Y-25263D01*
Y-25272D01*
X267445Y-25286D01*
X267450Y-25304D01*
X267455Y-25332D01*
X267459Y-25360D01*
X267478Y-25433D01*
X267501Y-25517D01*
X267528Y-25605D01*
X267565Y-25706D01*
X267607Y-25803D01*
X266946D01*
Y-25798D01*
X266942Y-25794D01*
X266937Y-25780D01*
X266928Y-25762D01*
X266923Y-25738D01*
X266909Y-25711D01*
X266891Y-25646D01*
X266868Y-25563D01*
X266845Y-25471D01*
X266826Y-25364D01*
X266812Y-25244D01*
X266808Y-25249D01*
X266798Y-25258D01*
X266780Y-25276D01*
X266757Y-25300D01*
X266729Y-25327D01*
X266692Y-25360D01*
X266655Y-25392D01*
X266609Y-25429D01*
X266512Y-25512D01*
X266396Y-25595D01*
X266276Y-25674D01*
X266147Y-25743D01*
X266142D01*
X266133Y-25752D01*
X266115Y-25757D01*
X266087Y-25771D01*
X266055Y-25780D01*
X266018Y-25794D01*
X265976Y-25812D01*
X265930Y-25826D01*
X265819Y-25859D01*
X265699Y-25882D01*
X265569Y-25900D01*
X265431Y-25909D01*
X265403D01*
X265375Y-25905D01*
X265334D01*
X265283Y-25900D01*
X265228Y-25891D01*
X265163Y-25882D01*
X265094Y-25863D01*
X265020Y-25845D01*
X264946Y-25822D01*
X264867Y-25794D01*
X264789Y-25762D01*
X264715Y-25720D01*
X264636Y-25674D01*
X264567Y-25618D01*
X264498Y-25558D01*
X264493Y-25554D01*
X264484Y-25540D01*
X264465Y-25521D01*
X264442Y-25494D01*
X264419Y-25457D01*
X264387Y-25415D01*
X264359Y-25364D01*
X264327Y-25309D01*
X264294Y-25244D01*
X264262Y-25170D01*
X264230Y-25092D01*
X264207Y-25008D01*
X264183Y-24916D01*
X264165Y-24819D01*
X264156Y-24717D01*
X264151Y-24607D01*
Y-24602D01*
Y-24588D01*
Y-24570D01*
X264156Y-24537D01*
Y-24505D01*
X264160Y-24463D01*
X264165Y-24417D01*
X264170Y-24371D01*
X264193Y-24260D01*
X264220Y-24145D01*
X264258Y-24020D01*
X264313Y-23904D01*
Y-23900D01*
X264322Y-23890D01*
X264331Y-23877D01*
X264341Y-23854D01*
X264378Y-23798D01*
X264428Y-23729D01*
X264493Y-23655D01*
X264567Y-23576D01*
X264655Y-23498D01*
X264756Y-23428D01*
X264761D01*
X264770Y-23419D01*
X264789Y-23410D01*
X264812Y-23401D01*
X264840Y-23387D01*
X264877Y-23368D01*
X264923Y-23350D01*
X264973Y-23331D01*
X265029Y-23308D01*
X265094Y-23290D01*
X265163Y-23267D01*
X265242Y-23244D01*
X265325Y-23225D01*
X265417Y-23207D01*
X265514Y-23188D01*
X265620Y-23170D01*
X265630D01*
X265653Y-23165D01*
X265694Y-23160D01*
X265750Y-23151D01*
X265810Y-23137D01*
X265884Y-23128D01*
X265967Y-23110D01*
X266055Y-23096D01*
X266239Y-23054D01*
X266429Y-23008D01*
X266521Y-22985D01*
X266609Y-22957D01*
X266688Y-22930D01*
X266761Y-22902D01*
X266766Y-22708D01*
Y-22703D01*
Y-22689D01*
Y-22661D01*
X266761Y-22629D01*
Y-22592D01*
X266757Y-22551D01*
X266743Y-22449D01*
X266724Y-22338D01*
X266692Y-22232D01*
X266651Y-22130D01*
X266628Y-22084D01*
X266595Y-22047D01*
X266590Y-22042D01*
X266586Y-22033D01*
X266572Y-22019D01*
X266549Y-22005D01*
X266526Y-21982D01*
X266494Y-21959D01*
X266457Y-21936D01*
X266415Y-21908D01*
X266369Y-21881D01*
X266313Y-21858D01*
X266253Y-21835D01*
X266189Y-21812D01*
X266115Y-21798D01*
X266041Y-21784D01*
X265953Y-21775D01*
X265865Y-21770D01*
X265824D01*
X265791Y-21775D01*
X265754D01*
X265713Y-21779D01*
X265616Y-21793D01*
X265510Y-21816D01*
X265399Y-21848D01*
X265292Y-21895D01*
X265246Y-21922D01*
X265200Y-21955D01*
X265195D01*
X265191Y-21964D01*
X265181Y-21973D01*
X265163Y-21992D01*
X265144Y-22015D01*
X265126Y-22038D01*
X265103Y-22070D01*
X265080Y-22112D01*
X265052Y-22153D01*
X265029Y-22204D01*
X265001Y-22260D01*
X264973Y-22324D01*
X264950Y-22394D01*
X264923Y-22467D01*
X264900Y-22551D01*
X264881Y-22643D01*
X264258Y-22541D01*
Y-22532D01*
X264262Y-22509D01*
X264271Y-22472D01*
X264285Y-22421D01*
X264299Y-22361D01*
X264322Y-22292D01*
X264345Y-22213D01*
X264373Y-22130D01*
X264405Y-22047D01*
X264447Y-21955D01*
X264489Y-21867D01*
X264539Y-21779D01*
X264595Y-21691D01*
X264655Y-21613D01*
X264720Y-21539D01*
X264793Y-21470D01*
X264798Y-21465D01*
X264812Y-21456D01*
X264835Y-21437D01*
X264872Y-21419D01*
X264914Y-21391D01*
X264964Y-21363D01*
X265024Y-21331D01*
X265094Y-21299D01*
X265172Y-21271D01*
X265260Y-21239D01*
X265357Y-21211D01*
X265459Y-21183D01*
X265574Y-21165D01*
X265694Y-21146D01*
X265824Y-21137D01*
X265962Y-21132D01*
X266018D01*
X266059Y-21137D01*
D02*
G37*
G36*
X34983Y-25803D02*
X34345D01*
Y-20869D01*
X34341Y-20874D01*
X34336Y-20878D01*
X34322Y-20897D01*
X34304Y-20915D01*
X34280Y-20938D01*
X34257Y-20966D01*
X34188Y-21031D01*
X34105Y-21114D01*
X34003Y-21202D01*
X33888Y-21299D01*
X33754Y-21400D01*
X33749Y-21405D01*
X33735Y-21414D01*
X33717Y-21428D01*
X33689Y-21442D01*
X33657Y-21465D01*
X33620Y-21493D01*
X33578Y-21520D01*
X33532Y-21553D01*
X33426Y-21617D01*
X33310Y-21682D01*
X33195Y-21747D01*
X33075Y-21802D01*
Y-21054D01*
X33079Y-21049D01*
X33098Y-21040D01*
X33125Y-21021D01*
X33163Y-20998D01*
X33209Y-20971D01*
X33259Y-20934D01*
X33320Y-20897D01*
X33384Y-20851D01*
X33458Y-20800D01*
X33532Y-20744D01*
X33685Y-20615D01*
X33842Y-20476D01*
X33999Y-20319D01*
X34003Y-20315D01*
X34017Y-20301D01*
X34036Y-20278D01*
X34063Y-20245D01*
X34100Y-20204D01*
X34137Y-20157D01*
X34179Y-20107D01*
X34220Y-20051D01*
X34267Y-19987D01*
X34317Y-19922D01*
X34410Y-19779D01*
X34498Y-19626D01*
X34535Y-19548D01*
X34567Y-19469D01*
X34983D01*
Y-25803D01*
D02*
G37*
G36*
X261084Y-25059D02*
X263634D01*
Y-25803D01*
X260400D01*
Y-19492D01*
X261084D01*
Y-25059D01*
D02*
G37*
G36*
X31684Y-25803D02*
X30959D01*
Y-24921D01*
X31684D01*
Y-25803D01*
D02*
G37*
G36*
X28954D02*
X28316D01*
Y-20869D01*
X28311Y-20874D01*
X28307Y-20878D01*
X28293Y-20897D01*
X28275Y-20915D01*
X28251Y-20938D01*
X28228Y-20966D01*
X28159Y-21031D01*
X28076Y-21114D01*
X27974Y-21202D01*
X27859Y-21299D01*
X27725Y-21400D01*
X27720Y-21405D01*
X27706Y-21414D01*
X27688Y-21428D01*
X27660Y-21442D01*
X27628Y-21465D01*
X27591Y-21493D01*
X27549Y-21520D01*
X27503Y-21553D01*
X27397Y-21617D01*
X27281Y-21682D01*
X27166Y-21747D01*
X27046Y-21802D01*
Y-21054D01*
X27050Y-21049D01*
X27069Y-21040D01*
X27096Y-21021D01*
X27133Y-20998D01*
X27180Y-20971D01*
X27230Y-20934D01*
X27290Y-20897D01*
X27355Y-20851D01*
X27429Y-20800D01*
X27503Y-20744D01*
X27655Y-20615D01*
X27812Y-20476D01*
X27970Y-20319D01*
X27974Y-20315D01*
X27988Y-20301D01*
X28007Y-20278D01*
X28034Y-20245D01*
X28071Y-20204D01*
X28108Y-20157D01*
X28150Y-20107D01*
X28191Y-20051D01*
X28238Y-19987D01*
X28288Y-19922D01*
X28381Y-19779D01*
X28469Y-19626D01*
X28506Y-19548D01*
X28538Y-19469D01*
X28954D01*
Y-25803D01*
D02*
G37*
G36*
X237545Y-19497D02*
X237595D01*
X237651Y-19501D01*
X237716Y-19506D01*
X237785Y-19515D01*
X237937Y-19538D01*
X238090Y-19571D01*
X238242Y-19617D01*
X238316Y-19645D01*
X238381Y-19677D01*
X238385D01*
X238395Y-19686D01*
X238413Y-19695D01*
X238436Y-19714D01*
X238469Y-19733D01*
X238501Y-19756D01*
X238580Y-19816D01*
X238672Y-19899D01*
X238718Y-19945D01*
X238764Y-19996D01*
X238810Y-20051D01*
X238857Y-20116D01*
X238903Y-20181D01*
X238945Y-20250D01*
X238949Y-20255D01*
X238954Y-20268D01*
X238963Y-20287D01*
X238981Y-20319D01*
X238995Y-20356D01*
X239014Y-20398D01*
X239037Y-20449D01*
X239055Y-20504D01*
X239078Y-20564D01*
X239097Y-20629D01*
X239134Y-20772D01*
X239157Y-20934D01*
X239162Y-21017D01*
X239166Y-21105D01*
Y-21109D01*
Y-21123D01*
Y-21146D01*
X239162Y-21179D01*
Y-21215D01*
X239157Y-21262D01*
X239152Y-21313D01*
X239143Y-21363D01*
X239120Y-21488D01*
X239088Y-21617D01*
X239041Y-21756D01*
X238977Y-21890D01*
Y-21895D01*
X238968Y-21904D01*
X238958Y-21922D01*
X238940Y-21945D01*
X238921Y-21978D01*
X238898Y-22010D01*
X238838Y-22089D01*
X238764Y-22176D01*
X238672Y-22274D01*
X238566Y-22366D01*
X238441Y-22449D01*
X238445D01*
X238459Y-22458D01*
X238482Y-22467D01*
X238515Y-22481D01*
X238552Y-22500D01*
X238598Y-22523D01*
X238649Y-22546D01*
X238700Y-22578D01*
X238755Y-22615D01*
X238815Y-22657D01*
X238871Y-22703D01*
X238931Y-22754D01*
X238991Y-22809D01*
X239046Y-22870D01*
X239102Y-22934D01*
X239152Y-23008D01*
X239157Y-23013D01*
X239162Y-23027D01*
X239176Y-23050D01*
X239194Y-23077D01*
X239212Y-23114D01*
X239235Y-23160D01*
X239259Y-23216D01*
X239286Y-23276D01*
X239310Y-23345D01*
X239333Y-23419D01*
X239356Y-23498D01*
X239374Y-23581D01*
X239393Y-23673D01*
X239406Y-23770D01*
X239411Y-23872D01*
X239416Y-23978D01*
Y-23983D01*
Y-24001D01*
Y-24034D01*
X239411Y-24075D01*
X239406Y-24126D01*
X239402Y-24182D01*
X239397Y-24246D01*
X239388Y-24320D01*
X239374Y-24394D01*
X239360Y-24477D01*
X239319Y-24644D01*
X239291Y-24731D01*
X239259Y-24819D01*
X239222Y-24902D01*
X239180Y-24985D01*
X239176Y-24990D01*
X239171Y-25004D01*
X239157Y-25027D01*
X239139Y-25055D01*
X239115Y-25092D01*
X239083Y-25133D01*
X239051Y-25175D01*
X239014Y-25226D01*
X238921Y-25327D01*
X238815Y-25429D01*
X238690Y-25526D01*
X238626Y-25572D01*
X238552Y-25609D01*
X238547D01*
X238533Y-25618D01*
X238510Y-25628D01*
X238482Y-25641D01*
X238441Y-25655D01*
X238395Y-25669D01*
X238335Y-25688D01*
X238275Y-25706D01*
X238201Y-25725D01*
X238118Y-25743D01*
X238030Y-25757D01*
X237937Y-25771D01*
X237831Y-25785D01*
X237720Y-25794D01*
X237605Y-25798D01*
X237480Y-25803D01*
X235512D01*
Y-19492D01*
X237503D01*
X237545Y-19497D01*
D02*
G37*
G36*
X247062Y-21234D02*
X247704D01*
Y-21835D01*
X247062D01*
Y-24509D01*
Y-24514D01*
Y-24523D01*
Y-24546D01*
Y-24570D01*
Y-24597D01*
X247066Y-24630D01*
X247071Y-24708D01*
X247076Y-24787D01*
X247085Y-24865D01*
X247099Y-24935D01*
X247108Y-24962D01*
X247117Y-24985D01*
X247122Y-24990D01*
X247131Y-25008D01*
X247154Y-25032D01*
X247186Y-25059D01*
X247228Y-25092D01*
X247279Y-25115D01*
X247344Y-25133D01*
X247422Y-25138D01*
X247464D01*
X247496Y-25133D01*
X247538D01*
X247584Y-25124D01*
X247644Y-25119D01*
X247704Y-25110D01*
X247792Y-25794D01*
X247787D01*
X247778Y-25798D01*
X247764D01*
X247746Y-25803D01*
X247699Y-25817D01*
X247635Y-25826D01*
X247561Y-25840D01*
X247482Y-25854D01*
X247399Y-25859D01*
X247316Y-25863D01*
X247260D01*
X247233Y-25859D01*
X247200Y-25854D01*
X247127Y-25845D01*
X247039Y-25831D01*
X246951Y-25808D01*
X246863Y-25775D01*
X246780Y-25734D01*
X246771Y-25729D01*
X246748Y-25711D01*
X246711Y-25683D01*
X246669Y-25641D01*
X246623Y-25591D01*
X246577Y-25531D01*
X246535Y-25457D01*
X246503Y-25378D01*
Y-25374D01*
X246498Y-25369D01*
Y-25350D01*
X246494Y-25332D01*
X246484Y-25304D01*
X246480Y-25267D01*
X246475Y-25226D01*
X246466Y-25179D01*
X246461Y-25119D01*
X246452Y-25055D01*
X246447Y-24981D01*
X246443Y-24898D01*
X246438Y-24805D01*
X246433Y-24704D01*
X246429Y-24588D01*
Y-24468D01*
Y-21835D01*
X245962D01*
Y-21234D01*
X246429D01*
Y-20102D01*
X247062Y-19636D01*
Y-21234D01*
D02*
G37*
G36*
X245052D02*
X245694D01*
Y-21835D01*
X245052D01*
Y-24509D01*
Y-24514D01*
Y-24523D01*
Y-24546D01*
Y-24570D01*
Y-24597D01*
X245057Y-24630D01*
X245061Y-24708D01*
X245066Y-24787D01*
X245075Y-24865D01*
X245089Y-24935D01*
X245098Y-24962D01*
X245108Y-24985D01*
X245112Y-24990D01*
X245121Y-25008D01*
X245145Y-25032D01*
X245177Y-25059D01*
X245218Y-25092D01*
X245269Y-25115D01*
X245334Y-25133D01*
X245412Y-25138D01*
X245454D01*
X245486Y-25133D01*
X245528D01*
X245574Y-25124D01*
X245634Y-25119D01*
X245694Y-25110D01*
X245782Y-25794D01*
X245777D01*
X245768Y-25798D01*
X245754D01*
X245736Y-25803D01*
X245690Y-25817D01*
X245625Y-25826D01*
X245551Y-25840D01*
X245473Y-25854D01*
X245389Y-25859D01*
X245306Y-25863D01*
X245251D01*
X245223Y-25859D01*
X245191Y-25854D01*
X245117Y-25845D01*
X245029Y-25831D01*
X244941Y-25808D01*
X244853Y-25775D01*
X244770Y-25734D01*
X244761Y-25729D01*
X244738Y-25711D01*
X244701Y-25683D01*
X244659Y-25641D01*
X244613Y-25591D01*
X244567Y-25531D01*
X244525Y-25457D01*
X244493Y-25378D01*
Y-25374D01*
X244489Y-25369D01*
Y-25350D01*
X244484Y-25332D01*
X244475Y-25304D01*
X244470Y-25267D01*
X244465Y-25226D01*
X244456Y-25179D01*
X244451Y-25119D01*
X244442Y-25055D01*
X244438Y-24981D01*
X244433Y-24898D01*
X244428Y-24805D01*
X244424Y-24704D01*
X244419Y-24588D01*
Y-24468D01*
Y-21835D01*
X243953D01*
Y-21234D01*
X244419D01*
Y-20102D01*
X245052Y-19636D01*
Y-21234D01*
D02*
G37*
G36*
X273613Y-21137D02*
X273664Y-21142D01*
X273728Y-21151D01*
X273798Y-21165D01*
X273881Y-21183D01*
X273969Y-21211D01*
X274061Y-21243D01*
X274158Y-21280D01*
X274260Y-21331D01*
X274361Y-21391D01*
X274463Y-21460D01*
X274565Y-21543D01*
X274662Y-21641D01*
X274754Y-21747D01*
X274759Y-21756D01*
X274777Y-21775D01*
X274800Y-21812D01*
X274828Y-21862D01*
X274865Y-21922D01*
X274907Y-22001D01*
X274953Y-22093D01*
X274999Y-22195D01*
X275041Y-22315D01*
X275087Y-22444D01*
X275128Y-22592D01*
X275165Y-22749D01*
X275193Y-22920D01*
X275221Y-23105D01*
X275235Y-23304D01*
X275239Y-23516D01*
Y-23720D01*
X272444D01*
Y-23729D01*
X272449Y-23752D01*
Y-23793D01*
X272453Y-23844D01*
X272463Y-23909D01*
X272472Y-23983D01*
X272486Y-24066D01*
X272504Y-24154D01*
X272546Y-24343D01*
X272573Y-24440D01*
X272606Y-24537D01*
X272647Y-24630D01*
X272689Y-24722D01*
X272740Y-24805D01*
X272795Y-24884D01*
X272800Y-24888D01*
X272809Y-24902D01*
X272828Y-24921D01*
X272851Y-24944D01*
X272883Y-24972D01*
X272920Y-25008D01*
X272961Y-25041D01*
X273012Y-25078D01*
X273068Y-25115D01*
X273123Y-25147D01*
X273188Y-25179D01*
X273257Y-25212D01*
X273331Y-25235D01*
X273405Y-25253D01*
X273488Y-25267D01*
X273571Y-25272D01*
X273604D01*
X273641Y-25267D01*
X273687Y-25258D01*
X273747Y-25244D01*
X273812Y-25221D01*
X273885Y-25193D01*
X273964Y-25156D01*
X274043Y-25106D01*
X274126Y-25041D01*
X274209Y-24967D01*
X274292Y-24874D01*
X274371Y-24768D01*
X274408Y-24708D01*
X274440Y-24644D01*
X274477Y-24574D01*
X274509Y-24500D01*
X274537Y-24417D01*
X274565Y-24334D01*
X275221Y-24431D01*
Y-24440D01*
X275212Y-24463D01*
X275202Y-24500D01*
X275188Y-24551D01*
X275170Y-24611D01*
X275147Y-24685D01*
X275119Y-24759D01*
X275082Y-24847D01*
X275045Y-24935D01*
X275004Y-25022D01*
X274953Y-25115D01*
X274897Y-25207D01*
X274837Y-25300D01*
X274773Y-25383D01*
X274703Y-25466D01*
X274625Y-25540D01*
X274620Y-25544D01*
X274606Y-25554D01*
X274583Y-25572D01*
X274551Y-25595D01*
X274509Y-25628D01*
X274458Y-25655D01*
X274398Y-25692D01*
X274334Y-25725D01*
X274260Y-25757D01*
X274181Y-25794D01*
X274093Y-25822D01*
X274001Y-25849D01*
X273899Y-25877D01*
X273793Y-25896D01*
X273682Y-25905D01*
X273567Y-25909D01*
X273530D01*
X273488Y-25905D01*
X273433Y-25900D01*
X273368Y-25891D01*
X273290Y-25877D01*
X273202Y-25859D01*
X273109Y-25835D01*
X273008Y-25803D01*
X272902Y-25762D01*
X272795Y-25715D01*
X272689Y-25655D01*
X272583Y-25586D01*
X272476Y-25508D01*
X272375Y-25415D01*
X272278Y-25309D01*
X272273Y-25300D01*
X272255Y-25281D01*
X272232Y-25244D01*
X272199Y-25198D01*
X272162Y-25133D01*
X272121Y-25055D01*
X272079Y-24967D01*
X272033Y-24865D01*
X271987Y-24745D01*
X271945Y-24616D01*
X271903Y-24473D01*
X271867Y-24316D01*
X271834Y-24149D01*
X271811Y-23964D01*
X271793Y-23770D01*
X271788Y-23562D01*
Y-23558D01*
Y-23549D01*
Y-23535D01*
Y-23512D01*
Y-23484D01*
X271793Y-23447D01*
Y-23410D01*
X271797Y-23368D01*
X271802Y-23267D01*
X271816Y-23156D01*
X271830Y-23031D01*
X271848Y-22893D01*
X271876Y-22749D01*
X271908Y-22602D01*
X271950Y-22449D01*
X271996Y-22301D01*
X272051Y-22153D01*
X272121Y-22015D01*
X272195Y-21881D01*
X272282Y-21756D01*
X272287Y-21747D01*
X272305Y-21728D01*
X272333Y-21701D01*
X272370Y-21659D01*
X272421Y-21613D01*
X272481Y-21557D01*
X272550Y-21502D01*
X272629Y-21442D01*
X272712Y-21386D01*
X272809Y-21331D01*
X272915Y-21275D01*
X273026Y-21229D01*
X273146Y-21188D01*
X273271Y-21160D01*
X273405Y-21137D01*
X273544Y-21132D01*
X273576D01*
X273613Y-21137D01*
D02*
G37*
G36*
X249889Y-21137D02*
X249940Y-21142D01*
X250005Y-21151D01*
X250079Y-21165D01*
X250162Y-21183D01*
X250254Y-21206D01*
X250351Y-21239D01*
X250448Y-21280D01*
X250554Y-21331D01*
X250661Y-21386D01*
X250767Y-21456D01*
X250869Y-21539D01*
X250970Y-21631D01*
X251067Y-21737D01*
X251072Y-21742D01*
X251091Y-21765D01*
X251114Y-21802D01*
X251146Y-21848D01*
X251183Y-21913D01*
X251229Y-21987D01*
X251271Y-22075D01*
X251322Y-22181D01*
X251368Y-22297D01*
X251414Y-22426D01*
X251455Y-22569D01*
X251492Y-22722D01*
X251525Y-22893D01*
X251548Y-23073D01*
X251566Y-23267D01*
X251571Y-23475D01*
Y-23479D01*
Y-23489D01*
Y-23507D01*
Y-23530D01*
Y-23558D01*
X251566Y-23590D01*
Y-23632D01*
X251562Y-23678D01*
X251557Y-23780D01*
X251543Y-23895D01*
X251529Y-24024D01*
X251511Y-24168D01*
X251483Y-24316D01*
X251451Y-24463D01*
X251409Y-24616D01*
X251358Y-24768D01*
X251303Y-24916D01*
X251238Y-25059D01*
X251160Y-25189D01*
X251072Y-25309D01*
X251067Y-25313D01*
X251049Y-25337D01*
X251021Y-25364D01*
X250984Y-25401D01*
X250933Y-25447D01*
X250873Y-25498D01*
X250809Y-25554D01*
X250730Y-25609D01*
X250642Y-25665D01*
X250550Y-25720D01*
X250444Y-25771D01*
X250333Y-25817D01*
X250213Y-25854D01*
X250088Y-25882D01*
X249954Y-25905D01*
X249815Y-25909D01*
X249783D01*
X249741Y-25905D01*
X249691Y-25900D01*
X249626Y-25891D01*
X249552Y-25877D01*
X249469Y-25859D01*
X249376Y-25835D01*
X249279Y-25803D01*
X249178Y-25762D01*
X249072Y-25715D01*
X248970Y-25655D01*
X248864Y-25586D01*
X248757Y-25508D01*
X248656Y-25415D01*
X248559Y-25309D01*
X248554Y-25300D01*
X248536Y-25281D01*
X248513Y-25244D01*
X248480Y-25193D01*
X248443Y-25133D01*
X248402Y-25055D01*
X248355Y-24962D01*
X248309Y-24856D01*
X248263Y-24740D01*
X248217Y-24607D01*
X248175Y-24459D01*
X248138Y-24297D01*
X248106Y-24126D01*
X248083Y-23937D01*
X248064Y-23738D01*
X248060Y-23521D01*
Y-23516D01*
Y-23507D01*
Y-23493D01*
Y-23470D01*
Y-23442D01*
X248064Y-23405D01*
Y-23368D01*
X248069Y-23327D01*
X248074Y-23230D01*
X248087Y-23114D01*
X248101Y-22990D01*
X248120Y-22856D01*
X248148Y-22712D01*
X248180Y-22565D01*
X248221Y-22417D01*
X248268Y-22269D01*
X248323Y-22126D01*
X248392Y-21987D01*
X248466Y-21858D01*
X248554Y-21737D01*
X248559Y-21728D01*
X248577Y-21710D01*
X248605Y-21682D01*
X248642Y-21641D01*
X248693Y-21599D01*
X248753Y-21548D01*
X248822Y-21493D01*
X248901Y-21433D01*
X248984Y-21377D01*
X249081Y-21322D01*
X249187Y-21271D01*
X249298Y-21225D01*
X249418Y-21188D01*
X249543Y-21160D01*
X249677Y-21137D01*
X249815Y-21132D01*
X249848D01*
X249889Y-21137D01*
D02*
G37*
G36*
X22301D02*
X22352Y-21142D01*
X22416Y-21151D01*
X22490Y-21165D01*
X22573Y-21183D01*
X22666Y-21206D01*
X22763Y-21239D01*
X22860Y-21280D01*
X22966Y-21331D01*
X23072Y-21386D01*
X23179Y-21456D01*
X23280Y-21539D01*
X23382Y-21631D01*
X23479Y-21737D01*
X23484Y-21742D01*
X23502Y-21765D01*
X23525Y-21802D01*
X23558Y-21848D01*
X23595Y-21913D01*
X23641Y-21987D01*
X23682Y-22075D01*
X23733Y-22181D01*
X23779Y-22297D01*
X23825Y-22426D01*
X23867Y-22569D01*
X23904Y-22722D01*
X23936Y-22893D01*
X23959Y-23073D01*
X23978Y-23267D01*
X23982Y-23475D01*
Y-23479D01*
Y-23489D01*
Y-23507D01*
Y-23530D01*
Y-23558D01*
X23978Y-23590D01*
Y-23632D01*
X23973Y-23678D01*
X23969Y-23780D01*
X23955Y-23895D01*
X23941Y-24024D01*
X23923Y-24168D01*
X23895Y-24316D01*
X23862Y-24463D01*
X23821Y-24616D01*
X23770Y-24768D01*
X23715Y-24916D01*
X23650Y-25059D01*
X23571Y-25189D01*
X23484Y-25309D01*
X23479Y-25313D01*
X23460Y-25337D01*
X23433Y-25364D01*
X23396Y-25401D01*
X23345Y-25447D01*
X23285Y-25498D01*
X23220Y-25554D01*
X23142Y-25609D01*
X23054Y-25665D01*
X22962Y-25720D01*
X22855Y-25771D01*
X22744Y-25817D01*
X22624Y-25854D01*
X22500Y-25882D01*
X22366Y-25905D01*
X22227Y-25909D01*
X22195D01*
X22153Y-25905D01*
X22102Y-25900D01*
X22038Y-25891D01*
X21964Y-25877D01*
X21880Y-25859D01*
X21788Y-25835D01*
X21691Y-25803D01*
X21589Y-25762D01*
X21483Y-25715D01*
X21382Y-25655D01*
X21275Y-25586D01*
X21169Y-25508D01*
X21067Y-25415D01*
X20970Y-25309D01*
X20966Y-25300D01*
X20947Y-25281D01*
X20924Y-25244D01*
X20892Y-25193D01*
X20855Y-25133D01*
X20813Y-25055D01*
X20767Y-24962D01*
X20721Y-24856D01*
X20675Y-24740D01*
X20628Y-24607D01*
X20587Y-24459D01*
X20550Y-24297D01*
X20517Y-24126D01*
X20494Y-23937D01*
X20476Y-23738D01*
X20471Y-23521D01*
Y-23516D01*
Y-23507D01*
Y-23493D01*
Y-23470D01*
Y-23442D01*
X20476Y-23405D01*
Y-23368D01*
X20481Y-23327D01*
X20485Y-23230D01*
X20499Y-23114D01*
X20513Y-22990D01*
X20531Y-22856D01*
X20559Y-22712D01*
X20592Y-22565D01*
X20633Y-22417D01*
X20679Y-22269D01*
X20735Y-22126D01*
X20804Y-21987D01*
X20878Y-21858D01*
X20966Y-21737D01*
X20970Y-21728D01*
X20989Y-21710D01*
X21016Y-21682D01*
X21054Y-21641D01*
X21104Y-21599D01*
X21164Y-21548D01*
X21234Y-21493D01*
X21312Y-21433D01*
X21395Y-21377D01*
X21492Y-21322D01*
X21599Y-21271D01*
X21710Y-21225D01*
X21830Y-21188D01*
X21954Y-21160D01*
X22088Y-21137D01*
X22227Y-21132D01*
X22259D01*
X22301Y-21137D01*
D02*
G37*
G36*
X16674D02*
X16725Y-21142D01*
X16789Y-21151D01*
X16863Y-21165D01*
X16946Y-21183D01*
X17039Y-21206D01*
X17136Y-21239D01*
X17233Y-21280D01*
X17339Y-21331D01*
X17445Y-21386D01*
X17551Y-21456D01*
X17653Y-21539D01*
X17755Y-21631D01*
X17852Y-21737D01*
X17856Y-21742D01*
X17875Y-21765D01*
X17898Y-21802D01*
X17930Y-21848D01*
X17967Y-21913D01*
X18013Y-21987D01*
X18055Y-22075D01*
X18106Y-22181D01*
X18152Y-22297D01*
X18198Y-22426D01*
X18240Y-22569D01*
X18277Y-22722D01*
X18309Y-22893D01*
X18332Y-23073D01*
X18351Y-23267D01*
X18355Y-23475D01*
Y-23479D01*
Y-23489D01*
Y-23507D01*
Y-23530D01*
Y-23558D01*
X18351Y-23590D01*
Y-23632D01*
X18346Y-23678D01*
X18341Y-23780D01*
X18328Y-23895D01*
X18314Y-24024D01*
X18295Y-24168D01*
X18268Y-24316D01*
X18235Y-24463D01*
X18194Y-24616D01*
X18143Y-24768D01*
X18087Y-24916D01*
X18023Y-25059D01*
X17944Y-25189D01*
X17856Y-25309D01*
X17852Y-25313D01*
X17833Y-25337D01*
X17806Y-25364D01*
X17769Y-25401D01*
X17718Y-25447D01*
X17658Y-25498D01*
X17593Y-25554D01*
X17515Y-25609D01*
X17427Y-25665D01*
X17334Y-25720D01*
X17228Y-25771D01*
X17117Y-25817D01*
X16997Y-25854D01*
X16872Y-25882D01*
X16738Y-25905D01*
X16600Y-25909D01*
X16567D01*
X16526Y-25905D01*
X16475Y-25900D01*
X16410Y-25891D01*
X16336Y-25877D01*
X16253Y-25859D01*
X16161Y-25835D01*
X16064Y-25803D01*
X15962Y-25762D01*
X15856Y-25715D01*
X15754Y-25655D01*
X15648Y-25586D01*
X15542Y-25508D01*
X15440Y-25415D01*
X15343Y-25309D01*
X15338Y-25300D01*
X15320Y-25281D01*
X15297Y-25244D01*
X15265Y-25193D01*
X15228Y-25133D01*
X15186Y-25055D01*
X15140Y-24962D01*
X15094Y-24856D01*
X15047Y-24740D01*
X15001Y-24607D01*
X14960Y-24459D01*
X14923Y-24297D01*
X14890Y-24126D01*
X14867Y-23937D01*
X14849Y-23738D01*
X14844Y-23521D01*
Y-23516D01*
Y-23507D01*
Y-23493D01*
Y-23470D01*
Y-23442D01*
X14849Y-23405D01*
Y-23368D01*
X14853Y-23327D01*
X14858Y-23230D01*
X14872Y-23114D01*
X14886Y-22990D01*
X14904Y-22856D01*
X14932Y-22712D01*
X14964Y-22565D01*
X15006Y-22417D01*
X15052Y-22269D01*
X15108Y-22126D01*
X15177Y-21987D01*
X15251Y-21858D01*
X15338Y-21737D01*
X15343Y-21728D01*
X15362Y-21710D01*
X15389Y-21682D01*
X15426Y-21641D01*
X15477Y-21599D01*
X15537Y-21548D01*
X15607Y-21493D01*
X15685Y-21433D01*
X15768Y-21377D01*
X15865Y-21322D01*
X15971Y-21271D01*
X16082Y-21225D01*
X16203Y-21188D01*
X16327Y-21160D01*
X16461Y-21137D01*
X16600Y-21132D01*
X16632D01*
X16674Y-21137D01*
D02*
G37*
G36*
X241850D02*
X241901Y-21142D01*
X241966Y-21151D01*
X242040Y-21165D01*
X242123Y-21183D01*
X242215Y-21206D01*
X242312Y-21239D01*
X242409Y-21280D01*
X242516Y-21331D01*
X242622Y-21386D01*
X242728Y-21456D01*
X242830Y-21539D01*
X242932Y-21631D01*
X243028Y-21737D01*
X243033Y-21742D01*
X243052Y-21765D01*
X243075Y-21802D01*
X243107Y-21848D01*
X243144Y-21913D01*
X243190Y-21987D01*
X243232Y-22075D01*
X243283Y-22181D01*
X243329Y-22297D01*
X243375Y-22426D01*
X243417Y-22569D01*
X243454Y-22722D01*
X243486Y-22893D01*
X243509Y-23073D01*
X243528Y-23267D01*
X243532Y-23475D01*
Y-23479D01*
Y-23489D01*
Y-23507D01*
Y-23530D01*
Y-23558D01*
X243528Y-23590D01*
Y-23632D01*
X243523Y-23678D01*
X243518Y-23780D01*
X243504Y-23895D01*
X243491Y-24024D01*
X243472Y-24168D01*
X243444Y-24316D01*
X243412Y-24463D01*
X243370Y-24616D01*
X243320Y-24768D01*
X243264Y-24916D01*
X243199Y-25059D01*
X243121Y-25189D01*
X243033Y-25309D01*
X243028Y-25313D01*
X243010Y-25337D01*
X242982Y-25364D01*
X242945Y-25401D01*
X242895Y-25447D01*
X242834Y-25498D01*
X242770Y-25554D01*
X242691Y-25609D01*
X242603Y-25665D01*
X242511Y-25720D01*
X242405Y-25771D01*
X242294Y-25817D01*
X242174Y-25854D01*
X242049Y-25882D01*
X241915Y-25905D01*
X241776Y-25909D01*
X241744D01*
X241703Y-25905D01*
X241652Y-25900D01*
X241587Y-25891D01*
X241513Y-25877D01*
X241430Y-25859D01*
X241338Y-25835D01*
X241241Y-25803D01*
X241139Y-25762D01*
X241033Y-25715D01*
X240931Y-25655D01*
X240825Y-25586D01*
X240719Y-25508D01*
X240617Y-25415D01*
X240520Y-25309D01*
X240515Y-25300D01*
X240497Y-25281D01*
X240474Y-25244D01*
X240441Y-25193D01*
X240404Y-25133D01*
X240363Y-25055D01*
X240317Y-24962D01*
X240270Y-24856D01*
X240224Y-24740D01*
X240178Y-24607D01*
X240136Y-24459D01*
X240100Y-24297D01*
X240067Y-24126D01*
X240044Y-23937D01*
X240026Y-23738D01*
X240021Y-23521D01*
Y-23516D01*
Y-23507D01*
Y-23493D01*
Y-23470D01*
Y-23442D01*
X240026Y-23405D01*
Y-23368D01*
X240030Y-23327D01*
X240035Y-23230D01*
X240049Y-23114D01*
X240062Y-22990D01*
X240081Y-22856D01*
X240109Y-22712D01*
X240141Y-22565D01*
X240183Y-22417D01*
X240229Y-22269D01*
X240284Y-22126D01*
X240354Y-21987D01*
X240427Y-21858D01*
X240515Y-21737D01*
X240520Y-21728D01*
X240538Y-21710D01*
X240566Y-21682D01*
X240603Y-21641D01*
X240654Y-21599D01*
X240714Y-21548D01*
X240783Y-21493D01*
X240862Y-21433D01*
X240945Y-21377D01*
X241042Y-21322D01*
X241148Y-21271D01*
X241259Y-21225D01*
X241379Y-21188D01*
X241504Y-21160D01*
X241638Y-21137D01*
X241776Y-21132D01*
X241809D01*
X241850Y-21137D01*
D02*
G37*
G36*
X19732Y-26048D02*
Y-26053D01*
Y-26057D01*
Y-26071D01*
Y-26090D01*
Y-26136D01*
X19727Y-26201D01*
X19723Y-26274D01*
X19718Y-26362D01*
X19714Y-26455D01*
X19704Y-26556D01*
X19672Y-26769D01*
X19654Y-26875D01*
X19631Y-26977D01*
X19603Y-27074D01*
X19570Y-27166D01*
X19534Y-27249D01*
X19492Y-27319D01*
X19487Y-27323D01*
X19483Y-27332D01*
X19469Y-27351D01*
X19446Y-27369D01*
X19423Y-27397D01*
X19390Y-27425D01*
X19358Y-27457D01*
X19316Y-27485D01*
X19270Y-27517D01*
X19215Y-27549D01*
X19159Y-27577D01*
X19095Y-27605D01*
X19030Y-27623D01*
X18956Y-27642D01*
X18877Y-27651D01*
X18794Y-27656D01*
X18753D01*
X18702Y-27651D01*
X18637Y-27646D01*
X18559Y-27637D01*
X18475Y-27619D01*
X18388Y-27600D01*
X18295Y-27573D01*
X18415Y-26912D01*
X18425Y-26917D01*
X18448Y-26921D01*
X18480Y-26930D01*
X18522Y-26944D01*
X18573Y-26958D01*
X18619Y-26967D01*
X18669Y-26972D01*
X18711Y-26977D01*
X18720D01*
X18744Y-26972D01*
X18780Y-26967D01*
X18822Y-26958D01*
X18868Y-26935D01*
X18919Y-26907D01*
X18965Y-26870D01*
X19002Y-26815D01*
X19007Y-26806D01*
X19011Y-26796D01*
X19016Y-26783D01*
X19025Y-26759D01*
X19035Y-26732D01*
X19044Y-26699D01*
X19053Y-26658D01*
X19058Y-26612D01*
X19067Y-26556D01*
X19076Y-26491D01*
X19085Y-26418D01*
X19090Y-26339D01*
X19095Y-26247D01*
X19099Y-26145D01*
Y-26034D01*
Y-21234D01*
X19732D01*
Y-26048D01*
D02*
G37*
G36*
X246110Y-30393D02*
X245477D01*
Y-29492D01*
X246110D01*
Y-30393D01*
D02*
G37*
G36*
X265389Y-29386D02*
X265436D01*
X265496Y-29391D01*
X265560Y-29400D01*
X265630Y-29409D01*
X265704Y-29418D01*
X265787Y-29432D01*
X265953Y-29469D01*
X266119Y-29525D01*
X266202Y-29557D01*
X266286Y-29594D01*
X266290Y-29599D01*
X266304Y-29603D01*
X266327Y-29617D01*
X266355Y-29631D01*
X266392Y-29654D01*
X266434Y-29682D01*
X266480Y-29714D01*
X266535Y-29746D01*
X266646Y-29834D01*
X266761Y-29936D01*
X266877Y-30056D01*
X266988Y-30195D01*
X266992Y-30199D01*
X267002Y-30213D01*
X267016Y-30236D01*
X267034Y-30264D01*
X267057Y-30305D01*
X267085Y-30351D01*
X267113Y-30407D01*
X267145Y-30472D01*
X267177Y-30541D01*
X267210Y-30619D01*
X267247Y-30707D01*
X267279Y-30804D01*
X267316Y-30906D01*
X267348Y-31012D01*
X267376Y-31128D01*
X267404Y-31252D01*
X266789Y-31460D01*
Y-31456D01*
X266785Y-31437D01*
X266775Y-31409D01*
X266766Y-31373D01*
X266757Y-31331D01*
X266738Y-31280D01*
X266724Y-31220D01*
X266701Y-31160D01*
X266660Y-31031D01*
X266604Y-30901D01*
X266544Y-30777D01*
X266512Y-30716D01*
X266475Y-30666D01*
Y-30661D01*
X266466Y-30652D01*
X266457Y-30638D01*
X266443Y-30624D01*
X266396Y-30573D01*
X266341Y-30513D01*
X266267Y-30449D01*
X266184Y-30379D01*
X266082Y-30310D01*
X265971Y-30250D01*
X265967D01*
X265958Y-30245D01*
X265939Y-30236D01*
X265916Y-30227D01*
X265888Y-30213D01*
X265851Y-30204D01*
X265814Y-30190D01*
X265768Y-30171D01*
X265667Y-30144D01*
X265546Y-30121D01*
X265417Y-30102D01*
X265279Y-30097D01*
X265223D01*
X265186Y-30102D01*
X265135Y-30107D01*
X265080Y-30111D01*
X265015Y-30121D01*
X264946Y-30130D01*
X264872Y-30148D01*
X264793Y-30167D01*
X264715Y-30185D01*
X264632Y-30213D01*
X264548Y-30245D01*
X264465Y-30282D01*
X264387Y-30324D01*
X264308Y-30375D01*
X264304Y-30379D01*
X264290Y-30389D01*
X264271Y-30402D01*
X264239Y-30426D01*
X264207Y-30453D01*
X264165Y-30490D01*
X264124Y-30532D01*
X264073Y-30582D01*
X264022Y-30638D01*
X263971Y-30703D01*
X263916Y-30772D01*
X263860Y-30846D01*
X263805Y-30934D01*
X263754Y-31021D01*
X263703Y-31119D01*
X263652Y-31225D01*
X263648Y-31229D01*
X263643Y-31252D01*
X263629Y-31285D01*
X263615Y-31326D01*
X263597Y-31382D01*
X263574Y-31451D01*
X263551Y-31530D01*
X263532Y-31617D01*
X263509Y-31714D01*
X263486Y-31821D01*
X263463Y-31936D01*
X263444Y-32061D01*
X263431Y-32190D01*
X263417Y-32333D01*
X263412Y-32477D01*
X263407Y-32629D01*
Y-32634D01*
Y-32643D01*
Y-32662D01*
Y-32685D01*
Y-32712D01*
X263412Y-32749D01*
Y-32791D01*
X263417Y-32837D01*
X263421Y-32888D01*
X263426Y-32943D01*
X263435Y-33064D01*
X263454Y-33198D01*
X263472Y-33341D01*
X263500Y-33493D01*
X263537Y-33650D01*
X263578Y-33807D01*
X263629Y-33964D01*
X263689Y-34117D01*
X263758Y-34265D01*
X263842Y-34403D01*
X263934Y-34528D01*
X263939Y-34533D01*
X263957Y-34556D01*
X263989Y-34588D01*
X264031Y-34625D01*
X264082Y-34676D01*
X264147Y-34727D01*
X264220Y-34782D01*
X264304Y-34842D01*
X264401Y-34902D01*
X264502Y-34958D01*
X264618Y-35008D01*
X264738Y-35059D01*
X264872Y-35096D01*
X265010Y-35129D01*
X265158Y-35147D01*
X265311Y-35156D01*
X265352D01*
X265380Y-35152D01*
X265417D01*
X265463Y-35147D01*
X265510Y-35142D01*
X265565Y-35133D01*
X265625Y-35124D01*
X265690Y-35110D01*
X265833Y-35078D01*
X265981Y-35032D01*
X266138Y-34967D01*
X266142Y-34962D01*
X266156Y-34958D01*
X266179Y-34948D01*
X266207Y-34930D01*
X266244Y-34912D01*
X266286Y-34893D01*
X266332Y-34865D01*
X266383Y-34838D01*
X266489Y-34768D01*
X266604Y-34690D01*
X266715Y-34602D01*
X266817Y-34505D01*
Y-33327D01*
X265297D01*
Y-32583D01*
X267487Y-32578D01*
Y-34925D01*
X267482Y-34930D01*
X267464Y-34948D01*
X267436Y-34971D01*
X267399Y-35004D01*
X267353Y-35045D01*
X267297Y-35092D01*
X267237Y-35147D01*
X267168Y-35203D01*
X267094Y-35258D01*
X267011Y-35323D01*
X266923Y-35383D01*
X266835Y-35443D01*
X266641Y-35563D01*
X266544Y-35614D01*
X266443Y-35664D01*
X266438Y-35669D01*
X266420Y-35674D01*
X266392Y-35688D01*
X266350Y-35702D01*
X266300Y-35720D01*
X266244Y-35743D01*
X266179Y-35766D01*
X266106Y-35785D01*
X266022Y-35808D01*
X265939Y-35831D01*
X265847Y-35854D01*
X265750Y-35872D01*
X265551Y-35900D01*
X265445Y-35905D01*
X265338Y-35909D01*
X265306D01*
X265265Y-35905D01*
X265209D01*
X265144Y-35895D01*
X265066Y-35891D01*
X264983Y-35877D01*
X264886Y-35863D01*
X264784Y-35840D01*
X264673Y-35817D01*
X264562Y-35785D01*
X264447Y-35748D01*
X264331Y-35706D01*
X264216Y-35655D01*
X264100Y-35595D01*
X263985Y-35531D01*
X263980Y-35526D01*
X263957Y-35512D01*
X263929Y-35489D01*
X263888Y-35461D01*
X263837Y-35420D01*
X263782Y-35373D01*
X263717Y-35313D01*
X263648Y-35249D01*
X263574Y-35175D01*
X263495Y-35096D01*
X263417Y-35004D01*
X263338Y-34907D01*
X263264Y-34796D01*
X263186Y-34681D01*
X263116Y-34560D01*
X263047Y-34426D01*
X263042Y-34417D01*
X263033Y-34394D01*
X263015Y-34352D01*
X262992Y-34297D01*
X262968Y-34228D01*
X262936Y-34140D01*
X262908Y-34043D01*
X262876Y-33932D01*
X262844Y-33812D01*
X262811Y-33678D01*
X262779Y-33535D01*
X262756Y-33382D01*
X262733Y-33221D01*
X262714Y-33045D01*
X262705Y-32865D01*
X262701Y-32680D01*
Y-32675D01*
Y-32666D01*
Y-32652D01*
Y-32634D01*
Y-32611D01*
X262705Y-32578D01*
Y-32546D01*
Y-32504D01*
X262710Y-32417D01*
X262719Y-32310D01*
X262728Y-32195D01*
X262742Y-32066D01*
X262761Y-31932D01*
X262784Y-31784D01*
X262811Y-31636D01*
X262848Y-31483D01*
X262885Y-31331D01*
X262931Y-31174D01*
X262987Y-31026D01*
X263047Y-30878D01*
X263052Y-30869D01*
X263061Y-30846D01*
X263084Y-30804D01*
X263112Y-30753D01*
X263144Y-30689D01*
X263186Y-30615D01*
X263236Y-30536D01*
X263292Y-30449D01*
X263352Y-30356D01*
X263421Y-30264D01*
X263495Y-30171D01*
X263578Y-30079D01*
X263666Y-29987D01*
X263758Y-29899D01*
X263856Y-29820D01*
X263957Y-29746D01*
X263962Y-29742D01*
X263985Y-29732D01*
X264013Y-29714D01*
X264059Y-29691D01*
X264110Y-29663D01*
X264174Y-29631D01*
X264253Y-29599D01*
X264336Y-29561D01*
X264428Y-29529D01*
X264530Y-29497D01*
X264641Y-29465D01*
X264756Y-29437D01*
X264881Y-29414D01*
X265015Y-29395D01*
X265149Y-29386D01*
X265292Y-29381D01*
X265348D01*
X265389Y-29386D01*
D02*
G37*
G36*
X11148Y-35646D02*
X10552D01*
X9129Y-31076D01*
X9804D01*
X10608Y-33812D01*
Y-33816D01*
X10612Y-33830D01*
X10622Y-33858D01*
X10631Y-33890D01*
X10645Y-33932D01*
X10659Y-33983D01*
X10672Y-34038D01*
X10691Y-34103D01*
X10709Y-34167D01*
X10728Y-34241D01*
X10769Y-34398D01*
X10806Y-34560D01*
X10848Y-34731D01*
Y-34726D01*
X10853Y-34712D01*
X10857Y-34694D01*
X10862Y-34666D01*
X10871Y-34634D01*
X10880Y-34592D01*
X10894Y-34541D01*
X10908Y-34486D01*
X10922Y-34426D01*
X10940Y-34361D01*
X10959Y-34292D01*
X10982Y-34214D01*
X11005Y-34135D01*
X11028Y-34047D01*
X11079Y-33867D01*
X11920Y-31076D01*
X12571D01*
X11148Y-35646D01*
D02*
G37*
G36*
X254759Y-35803D02*
X254163D01*
X252740Y-31234D01*
X253414D01*
X254218Y-33969D01*
Y-33974D01*
X254223Y-33988D01*
X254232Y-34015D01*
X254241Y-34048D01*
X254255Y-34089D01*
X254269Y-34140D01*
X254283Y-34195D01*
X254301Y-34260D01*
X254320Y-34325D01*
X254338Y-34399D01*
X254380Y-34556D01*
X254417Y-34718D01*
X254458Y-34888D01*
Y-34884D01*
X254463Y-34870D01*
X254468Y-34851D01*
X254472Y-34824D01*
X254482Y-34791D01*
X254491Y-34750D01*
X254505Y-34699D01*
X254519Y-34644D01*
X254532Y-34584D01*
X254551Y-34519D01*
X254569Y-34449D01*
X254592Y-34371D01*
X254615Y-34292D01*
X254639Y-34205D01*
X254689Y-34025D01*
X255530Y-31234D01*
X256182D01*
X254759Y-35803D01*
D02*
G37*
G36*
X240451D02*
X239790D01*
Y-30523D01*
X238284Y-35803D01*
X237665D01*
X236173Y-30435D01*
Y-35803D01*
X235512D01*
Y-29492D01*
X236542D01*
X237766Y-33964D01*
X238011Y-34898D01*
Y-34893D01*
X238016Y-34879D01*
X238020Y-34861D01*
X238030Y-34833D01*
X238039Y-34796D01*
X238048Y-34750D01*
X238067Y-34699D01*
X238081Y-34639D01*
X238099Y-34570D01*
X238118Y-34496D01*
X238141Y-34413D01*
X238168Y-34325D01*
X238196Y-34223D01*
X238224Y-34117D01*
X238256Y-34006D01*
X238288Y-33886D01*
X239527Y-29492D01*
X240451D01*
Y-35803D01*
D02*
G37*
G36*
X15620Y-33424D02*
X16323D01*
Y-34135D01*
X15620D01*
Y-35646D01*
X14983D01*
Y-34135D01*
X12742D01*
Y-33424D01*
X15098Y-29335D01*
X15620D01*
Y-33424D01*
D02*
G37*
G36*
X273946Y-35059D02*
X276496D01*
Y-35803D01*
X273262D01*
Y-29492D01*
X273946D01*
Y-35059D01*
D02*
G37*
G36*
X270495Y-29497D02*
X270545D01*
X270601Y-29502D01*
X270665Y-29506D01*
X270735Y-29515D01*
X270887Y-29538D01*
X271040Y-29571D01*
X271192Y-29617D01*
X271266Y-29645D01*
X271331Y-29677D01*
X271335D01*
X271344Y-29686D01*
X271363Y-29695D01*
X271386Y-29714D01*
X271418Y-29732D01*
X271451Y-29756D01*
X271529Y-29816D01*
X271622Y-29899D01*
X271668Y-29945D01*
X271714Y-29996D01*
X271760Y-30051D01*
X271807Y-30116D01*
X271853Y-30181D01*
X271894Y-30250D01*
X271899Y-30255D01*
X271903Y-30268D01*
X271913Y-30287D01*
X271931Y-30319D01*
X271945Y-30356D01*
X271964Y-30398D01*
X271987Y-30449D01*
X272005Y-30504D01*
X272028Y-30564D01*
X272047Y-30629D01*
X272084Y-30772D01*
X272107Y-30934D01*
X272112Y-31017D01*
X272116Y-31105D01*
Y-31109D01*
Y-31123D01*
Y-31146D01*
X272112Y-31179D01*
Y-31216D01*
X272107Y-31262D01*
X272102Y-31313D01*
X272093Y-31363D01*
X272070Y-31488D01*
X272038Y-31617D01*
X271991Y-31756D01*
X271927Y-31890D01*
Y-31895D01*
X271917Y-31904D01*
X271908Y-31922D01*
X271890Y-31945D01*
X271871Y-31978D01*
X271848Y-32010D01*
X271788Y-32089D01*
X271714Y-32176D01*
X271622Y-32274D01*
X271515Y-32366D01*
X271391Y-32449D01*
X271395D01*
X271409Y-32458D01*
X271432Y-32467D01*
X271465Y-32481D01*
X271502Y-32500D01*
X271548Y-32523D01*
X271599Y-32546D01*
X271649Y-32578D01*
X271705Y-32615D01*
X271765Y-32657D01*
X271820Y-32703D01*
X271881Y-32754D01*
X271940Y-32809D01*
X271996Y-32869D01*
X272051Y-32934D01*
X272102Y-33008D01*
X272107Y-33013D01*
X272112Y-33026D01*
X272125Y-33050D01*
X272144Y-33077D01*
X272162Y-33114D01*
X272185Y-33160D01*
X272208Y-33216D01*
X272236Y-33276D01*
X272259Y-33345D01*
X272282Y-33419D01*
X272305Y-33498D01*
X272324Y-33581D01*
X272342Y-33673D01*
X272356Y-33770D01*
X272361Y-33872D01*
X272365Y-33978D01*
Y-33983D01*
Y-34001D01*
Y-34034D01*
X272361Y-34075D01*
X272356Y-34126D01*
X272352Y-34181D01*
X272347Y-34246D01*
X272338Y-34320D01*
X272324Y-34394D01*
X272310Y-34477D01*
X272269Y-34644D01*
X272241Y-34731D01*
X272208Y-34819D01*
X272171Y-34902D01*
X272130Y-34985D01*
X272125Y-34990D01*
X272121Y-35004D01*
X272107Y-35027D01*
X272088Y-35055D01*
X272065Y-35092D01*
X272033Y-35133D01*
X272001Y-35175D01*
X271964Y-35226D01*
X271871Y-35327D01*
X271765Y-35429D01*
X271640Y-35526D01*
X271575Y-35572D01*
X271502Y-35609D01*
X271497D01*
X271483Y-35618D01*
X271460Y-35628D01*
X271432Y-35641D01*
X271391Y-35655D01*
X271344Y-35669D01*
X271285Y-35688D01*
X271224Y-35706D01*
X271150Y-35725D01*
X271067Y-35743D01*
X270980Y-35757D01*
X270887Y-35771D01*
X270781Y-35785D01*
X270670Y-35794D01*
X270554Y-35798D01*
X270430Y-35803D01*
X268462D01*
Y-29492D01*
X270453D01*
X270495Y-29497D01*
D02*
G37*
G36*
X261680Y-35803D02*
X260954D01*
Y-34921D01*
X261680D01*
Y-35803D01*
D02*
G37*
G36*
X259231Y-33581D02*
X259933D01*
Y-34292D01*
X259231D01*
Y-35803D01*
X258593D01*
Y-34292D01*
X256353D01*
Y-33581D01*
X258709Y-29492D01*
X259231D01*
Y-33581D01*
D02*
G37*
G36*
X248679Y-31137D02*
X248730Y-31142D01*
X248794Y-31151D01*
X248868Y-31165D01*
X248951Y-31183D01*
X249044Y-31206D01*
X249141Y-31239D01*
X249238Y-31280D01*
X249344Y-31331D01*
X249450Y-31386D01*
X249557Y-31456D01*
X249658Y-31539D01*
X249760Y-31631D01*
X249857Y-31738D01*
X249862Y-31742D01*
X249880Y-31765D01*
X249903Y-31802D01*
X249935Y-31848D01*
X249972Y-31913D01*
X250019Y-31987D01*
X250060Y-32075D01*
X250111Y-32181D01*
X250157Y-32297D01*
X250203Y-32426D01*
X250245Y-32569D01*
X250282Y-32722D01*
X250314Y-32893D01*
X250337Y-33073D01*
X250356Y-33267D01*
X250360Y-33475D01*
Y-33479D01*
Y-33489D01*
Y-33507D01*
Y-33530D01*
Y-33558D01*
X250356Y-33590D01*
Y-33632D01*
X250351Y-33678D01*
X250347Y-33780D01*
X250333Y-33895D01*
X250319Y-34025D01*
X250300Y-34168D01*
X250273Y-34315D01*
X250240Y-34463D01*
X250199Y-34616D01*
X250148Y-34768D01*
X250093Y-34916D01*
X250028Y-35059D01*
X249949Y-35189D01*
X249862Y-35309D01*
X249857Y-35313D01*
X249838Y-35337D01*
X249811Y-35364D01*
X249774Y-35401D01*
X249723Y-35447D01*
X249663Y-35498D01*
X249598Y-35554D01*
X249520Y-35609D01*
X249432Y-35665D01*
X249340Y-35720D01*
X249233Y-35771D01*
X249122Y-35817D01*
X249002Y-35854D01*
X248878Y-35882D01*
X248744Y-35905D01*
X248605Y-35909D01*
X248573D01*
X248531Y-35905D01*
X248480Y-35900D01*
X248415Y-35891D01*
X248342Y-35877D01*
X248258Y-35859D01*
X248166Y-35835D01*
X248069Y-35803D01*
X247967Y-35762D01*
X247861Y-35715D01*
X247759Y-35655D01*
X247653Y-35586D01*
X247547Y-35508D01*
X247445Y-35415D01*
X247348Y-35309D01*
X247344Y-35300D01*
X247325Y-35281D01*
X247302Y-35244D01*
X247270Y-35193D01*
X247233Y-35133D01*
X247191Y-35055D01*
X247145Y-34962D01*
X247099Y-34856D01*
X247053Y-34741D01*
X247006Y-34607D01*
X246965Y-34459D01*
X246928Y-34297D01*
X246896Y-34126D01*
X246872Y-33937D01*
X246854Y-33738D01*
X246849Y-33521D01*
Y-33516D01*
Y-33507D01*
Y-33493D01*
Y-33470D01*
Y-33442D01*
X246854Y-33405D01*
Y-33368D01*
X246859Y-33327D01*
X246863Y-33230D01*
X246877Y-33114D01*
X246891Y-32990D01*
X246909Y-32856D01*
X246937Y-32712D01*
X246969Y-32564D01*
X247011Y-32417D01*
X247057Y-32269D01*
X247113Y-32126D01*
X247182Y-31987D01*
X247256Y-31858D01*
X247344Y-31738D01*
X247348Y-31728D01*
X247367Y-31710D01*
X247394Y-31682D01*
X247431Y-31640D01*
X247482Y-31599D01*
X247542Y-31548D01*
X247612Y-31493D01*
X247690Y-31433D01*
X247773Y-31377D01*
X247870Y-31322D01*
X247977Y-31271D01*
X248087Y-31225D01*
X248208Y-31188D01*
X248332Y-31160D01*
X248466Y-31137D01*
X248605Y-31132D01*
X248637D01*
X248679Y-31137D01*
D02*
G37*
G36*
X243052D02*
X243103Y-31142D01*
X243167Y-31151D01*
X243241Y-31165D01*
X243324Y-31183D01*
X243417Y-31206D01*
X243514Y-31239D01*
X243611Y-31280D01*
X243717Y-31331D01*
X243823Y-31386D01*
X243929Y-31456D01*
X244031Y-31539D01*
X244133Y-31631D01*
X244230Y-31738D01*
X244234Y-31742D01*
X244253Y-31765D01*
X244276Y-31802D01*
X244308Y-31848D01*
X244345Y-31913D01*
X244391Y-31987D01*
X244433Y-32075D01*
X244484Y-32181D01*
X244530Y-32297D01*
X244576Y-32426D01*
X244618Y-32569D01*
X244655Y-32722D01*
X244687Y-32893D01*
X244710Y-33073D01*
X244729Y-33267D01*
X244733Y-33475D01*
Y-33479D01*
Y-33489D01*
Y-33507D01*
Y-33530D01*
Y-33558D01*
X244729Y-33590D01*
Y-33632D01*
X244724Y-33678D01*
X244720Y-33780D01*
X244706Y-33895D01*
X244692Y-34025D01*
X244673Y-34168D01*
X244646Y-34315D01*
X244613Y-34463D01*
X244572Y-34616D01*
X244521Y-34768D01*
X244465Y-34916D01*
X244401Y-35059D01*
X244322Y-35189D01*
X244234Y-35309D01*
X244230Y-35313D01*
X244211Y-35337D01*
X244184Y-35364D01*
X244147Y-35401D01*
X244096Y-35447D01*
X244036Y-35498D01*
X243971Y-35554D01*
X243893Y-35609D01*
X243805Y-35665D01*
X243712Y-35720D01*
X243606Y-35771D01*
X243495Y-35817D01*
X243375Y-35854D01*
X243250Y-35882D01*
X243116Y-35905D01*
X242978Y-35909D01*
X242945D01*
X242904Y-35905D01*
X242853Y-35900D01*
X242788Y-35891D01*
X242714Y-35877D01*
X242631Y-35859D01*
X242539Y-35835D01*
X242442Y-35803D01*
X242340Y-35762D01*
X242234Y-35715D01*
X242132Y-35655D01*
X242026Y-35586D01*
X241920Y-35508D01*
X241818Y-35415D01*
X241721Y-35309D01*
X241717Y-35300D01*
X241698Y-35281D01*
X241675Y-35244D01*
X241642Y-35193D01*
X241606Y-35133D01*
X241564Y-35055D01*
X241518Y-34962D01*
X241472Y-34856D01*
X241425Y-34741D01*
X241379Y-34607D01*
X241338Y-34459D01*
X241301Y-34297D01*
X241268Y-34126D01*
X241245Y-33937D01*
X241227Y-33738D01*
X241222Y-33521D01*
Y-33516D01*
Y-33507D01*
Y-33493D01*
Y-33470D01*
Y-33442D01*
X241227Y-33405D01*
Y-33368D01*
X241231Y-33327D01*
X241236Y-33230D01*
X241250Y-33114D01*
X241264Y-32990D01*
X241282Y-32856D01*
X241310Y-32712D01*
X241342Y-32564D01*
X241384Y-32417D01*
X241430Y-32269D01*
X241486Y-32126D01*
X241555Y-31987D01*
X241629Y-31858D01*
X241717Y-31738D01*
X241721Y-31728D01*
X241740Y-31710D01*
X241767Y-31682D01*
X241804Y-31640D01*
X241855Y-31599D01*
X241915Y-31548D01*
X241984Y-31493D01*
X242063Y-31433D01*
X242146Y-31377D01*
X242243Y-31322D01*
X242349Y-31271D01*
X242460Y-31225D01*
X242580Y-31188D01*
X242705Y-31160D01*
X242839Y-31137D01*
X242978Y-31132D01*
X243010D01*
X243052Y-31137D01*
D02*
G37*
G36*
X246110Y-36048D02*
Y-36053D01*
Y-36057D01*
Y-36071D01*
Y-36090D01*
Y-36136D01*
X246106Y-36200D01*
X246101Y-36274D01*
X246096Y-36362D01*
X246092Y-36455D01*
X246082Y-36556D01*
X246050Y-36769D01*
X246032Y-36875D01*
X246008Y-36977D01*
X245981Y-37074D01*
X245948Y-37166D01*
X245911Y-37249D01*
X245870Y-37319D01*
X245865Y-37323D01*
X245861Y-37332D01*
X245847Y-37351D01*
X245824Y-37369D01*
X245801Y-37397D01*
X245768Y-37425D01*
X245736Y-37457D01*
X245694Y-37485D01*
X245648Y-37517D01*
X245593Y-37549D01*
X245537Y-37577D01*
X245473Y-37605D01*
X245408Y-37623D01*
X245334Y-37642D01*
X245255Y-37651D01*
X245172Y-37656D01*
X245131D01*
X245080Y-37651D01*
X245015Y-37646D01*
X244937Y-37637D01*
X244853Y-37619D01*
X244766Y-37600D01*
X244673Y-37573D01*
X244793Y-36912D01*
X244803Y-36917D01*
X244826Y-36921D01*
X244858Y-36930D01*
X244900Y-36944D01*
X244951Y-36958D01*
X244997Y-36967D01*
X245047Y-36972D01*
X245089Y-36977D01*
X245098D01*
X245121Y-36972D01*
X245158Y-36967D01*
X245200Y-36958D01*
X245246Y-36935D01*
X245297Y-36907D01*
X245343Y-36870D01*
X245380Y-36815D01*
X245385Y-36806D01*
X245389Y-36796D01*
X245394Y-36783D01*
X245403Y-36759D01*
X245412Y-36732D01*
X245422Y-36699D01*
X245431Y-36658D01*
X245436Y-36612D01*
X245445Y-36556D01*
X245454Y-36492D01*
X245463Y-36418D01*
X245468Y-36339D01*
X245473Y-36247D01*
X245477Y-36145D01*
Y-36034D01*
Y-31234D01*
X246110D01*
Y-36048D01*
D02*
G37*
%LPC*%
G36*
X9150Y79150D02*
X5500D01*
Y75500D01*
X9150D01*
Y79150D01*
D02*
G37*
G36*
X15252Y78850D02*
X14748D01*
X14247Y78784D01*
X13760Y78653D01*
X13294Y78460D01*
X12857Y78208D01*
X12456Y77900D01*
X12100Y77544D01*
X11792Y77143D01*
X11540Y76706D01*
X11347Y76240D01*
X11216Y75753D01*
X11150Y75252D01*
Y74748D01*
X11216Y74247D01*
X11347Y73760D01*
X11540Y73294D01*
X11792Y72857D01*
X12100Y72456D01*
X12456Y72100D01*
X12857Y71792D01*
X13294Y71540D01*
X13760Y71347D01*
X14247Y71216D01*
X14748Y71150D01*
X15252D01*
X15753Y71216D01*
X16240Y71347D01*
X16706Y71540D01*
X17143Y71792D01*
X17544Y72100D01*
X17900Y72456D01*
X18208Y72857D01*
X18460Y73294D01*
X18653Y73760D01*
X18784Y74247D01*
X18850Y74748D01*
Y75252D01*
X18784Y75753D01*
X18653Y76240D01*
X18460Y76706D01*
X18208Y77143D01*
X17900Y77544D01*
X17544Y77900D01*
X17143Y78208D01*
X16706Y78460D01*
X16240Y78653D01*
X15753Y78784D01*
X15252Y78850D01*
D02*
G37*
G36*
X79150Y74500D02*
X75500D01*
Y70850D01*
X79150D01*
Y74500D01*
D02*
G37*
G36*
X74500D02*
X70850D01*
Y70850D01*
X74500D01*
Y74500D01*
D02*
G37*
G36*
X9150D02*
X5500D01*
Y70850D01*
X9150D01*
Y74500D01*
D02*
G37*
G36*
X22181Y35888D02*
X21819D01*
X21461Y35831D01*
X21117Y35719D01*
X20795Y35555D01*
X20502Y35342D01*
X20246Y35086D01*
X20033Y34793D01*
X19869Y34470D01*
X19757Y34126D01*
X19700Y33768D01*
Y33406D01*
X19757Y33049D01*
X19869Y32705D01*
X20033Y32382D01*
X20246Y32089D01*
X20292Y32043D01*
Y26708D01*
X18459D01*
X18208Y27143D01*
X17900Y27544D01*
X17544Y27900D01*
X17143Y28208D01*
X16706Y28460D01*
X16240Y28653D01*
X15753Y28784D01*
X15252Y28850D01*
X14748D01*
X14247Y28784D01*
X13760Y28653D01*
X13294Y28460D01*
X12857Y28208D01*
X12456Y27900D01*
X12100Y27544D01*
X11792Y27143D01*
X11540Y26706D01*
X11347Y26240D01*
X11216Y25753D01*
X11150Y25252D01*
Y24748D01*
X11216Y24247D01*
X11347Y23760D01*
X11540Y23294D01*
X11792Y22857D01*
X12100Y22456D01*
X12456Y22099D01*
X12857Y21792D01*
X13294Y21540D01*
X13760Y21347D01*
X14247Y21216D01*
X14748Y21150D01*
X15252D01*
X15753Y21216D01*
X16240Y21347D01*
X16706Y21540D01*
X17143Y21792D01*
X17544Y22099D01*
X17900Y22456D01*
X18208Y22857D01*
X18459Y23292D01*
X21121D01*
X21455Y23325D01*
X21775Y23422D01*
X22070Y23580D01*
X22329Y23792D01*
X23208Y24671D01*
X23420Y24930D01*
X23578Y25225D01*
X23675Y25545D01*
X23708Y25879D01*
Y32043D01*
X23754Y32089D01*
X23967Y32382D01*
X24132Y32705D01*
X24243Y33049D01*
X24300Y33406D01*
Y33768D01*
X24243Y34126D01*
X24132Y34470D01*
X23967Y34793D01*
X23754Y35086D01*
X23498Y35342D01*
X23205Y35555D01*
X22883Y35719D01*
X22539Y35831D01*
X22181Y35888D01*
D02*
G37*
G36*
X94500Y29620D02*
X94189Y29579D01*
X93663Y29438D01*
X93161Y29230D01*
X92690Y28958D01*
X92258Y28626D01*
X91874Y28242D01*
X91542Y27810D01*
X91270Y27339D01*
X91062Y26837D01*
X90921Y26311D01*
X90880Y26000D01*
X94500D01*
Y29620D01*
D02*
G37*
G36*
X9150Y29150D02*
X5500D01*
Y25500D01*
X9150D01*
Y29150D01*
D02*
G37*
G36*
X77681Y35888D02*
X77319D01*
X76961Y35831D01*
X76617Y35719D01*
X76294Y35555D01*
X76002Y35342D01*
X75746Y35086D01*
X75533Y34793D01*
X75368Y34470D01*
X75257Y34126D01*
X75200Y33768D01*
Y33406D01*
X75257Y33049D01*
X75368Y32705D01*
X75533Y32382D01*
X75746Y32089D01*
X75792Y32043D01*
Y26379D01*
X75825Y26045D01*
X75922Y25725D01*
X76080Y25430D01*
X76292Y25171D01*
X77171Y24292D01*
X77430Y24080D01*
X77725Y23922D01*
X78045Y23825D01*
X78379Y23792D01*
X81150D01*
Y21650D01*
X88850D01*
Y29350D01*
X81150D01*
Y27208D01*
X79208D01*
Y32043D01*
X79254Y32089D01*
X79467Y32382D01*
X79632Y32705D01*
X79743Y33049D01*
X79800Y33406D01*
Y33768D01*
X79743Y34126D01*
X79632Y34470D01*
X79467Y34793D01*
X79254Y35086D01*
X78998Y35342D01*
X78706Y35555D01*
X78383Y35719D01*
X78039Y35831D01*
X77681Y35888D01*
D02*
G37*
G36*
X94500Y25000D02*
X90880D01*
X90921Y24689D01*
X91062Y24163D01*
X91270Y23661D01*
X91542Y23190D01*
X91874Y22758D01*
X92258Y22374D01*
X92690Y22042D01*
X93161Y21770D01*
X93663Y21562D01*
X94189Y21421D01*
X94500Y21380D01*
Y25000D01*
D02*
G37*
G36*
X9150Y24500D02*
X5500D01*
Y20850D01*
X9150D01*
Y24500D01*
D02*
G37*
G36*
X266761Y-23512D02*
X266757D01*
X266743Y-23521D01*
X266724Y-23530D01*
X266697Y-23539D01*
X266660Y-23558D01*
X266614Y-23572D01*
X266563Y-23595D01*
X266498Y-23613D01*
X266429Y-23636D01*
X266355Y-23660D01*
X266267Y-23683D01*
X266175Y-23710D01*
X266073Y-23733D01*
X265962Y-23756D01*
X265847Y-23780D01*
X265722Y-23803D01*
X265717D01*
X265704Y-23807D01*
X265685D01*
X265657Y-23817D01*
X265625Y-23821D01*
X265588Y-23830D01*
X265500Y-23849D01*
X265408Y-23872D01*
X265315Y-23900D01*
X265228Y-23932D01*
X265191Y-23946D01*
X265158Y-23964D01*
X265154Y-23969D01*
X265131Y-23978D01*
X265103Y-24001D01*
X265071Y-24029D01*
X265029Y-24066D01*
X264987Y-24108D01*
X264950Y-24158D01*
X264914Y-24214D01*
X264909Y-24223D01*
X264900Y-24242D01*
X264886Y-24274D01*
X264872Y-24320D01*
X264853Y-24376D01*
X264840Y-24440D01*
X264830Y-24509D01*
X264826Y-24588D01*
Y-24593D01*
Y-24602D01*
Y-24620D01*
X264830Y-24644D01*
Y-24671D01*
X264835Y-24704D01*
X264849Y-24778D01*
X264877Y-24861D01*
X264909Y-24948D01*
X264960Y-25032D01*
X264987Y-25073D01*
X265024Y-25110D01*
X265029D01*
X265034Y-25119D01*
X265048Y-25129D01*
X265061Y-25142D01*
X265107Y-25170D01*
X265172Y-25207D01*
X265251Y-25244D01*
X265348Y-25272D01*
X265459Y-25295D01*
X265588Y-25304D01*
X265620D01*
X265643Y-25300D01*
X265676D01*
X265708Y-25295D01*
X265791Y-25281D01*
X265888Y-25263D01*
X265990Y-25230D01*
X266096Y-25189D01*
X266202Y-25129D01*
X266207D01*
X266216Y-25119D01*
X266230Y-25110D01*
X266249Y-25096D01*
X266300Y-25059D01*
X266359Y-25004D01*
X266429Y-24935D01*
X266498Y-24856D01*
X266567Y-24764D01*
X266623Y-24657D01*
Y-24653D01*
X266628Y-24644D01*
X266637Y-24625D01*
X266646Y-24602D01*
X266655Y-24570D01*
X266669Y-24533D01*
X266678Y-24491D01*
X266692Y-24440D01*
X266706Y-24380D01*
X266720Y-24316D01*
X266729Y-24246D01*
X266738Y-24168D01*
X266748Y-24084D01*
X266757Y-23997D01*
X266761Y-23900D01*
Y-23798D01*
Y-23512D01*
D02*
G37*
G36*
X237332Y-20236D02*
X236196D01*
Y-22144D01*
X237415D01*
X237457Y-22140D01*
X237554Y-22135D01*
X237655Y-22130D01*
X237757Y-22116D01*
X237854Y-22103D01*
X237896Y-22093D01*
X237933Y-22084D01*
X237937D01*
X237947Y-22079D01*
X237960Y-22075D01*
X237979Y-22066D01*
X238025Y-22047D01*
X238085Y-22015D01*
X238150Y-21973D01*
X238219Y-21922D01*
X238284Y-21858D01*
X238344Y-21784D01*
Y-21779D01*
X238349Y-21775D01*
X238358Y-21761D01*
X238367Y-21747D01*
X238376Y-21724D01*
X238390Y-21696D01*
X238418Y-21631D01*
X238445Y-21548D01*
X238469Y-21447D01*
X238487Y-21331D01*
X238492Y-21202D01*
Y-21197D01*
Y-21188D01*
Y-21169D01*
Y-21146D01*
X238487Y-21118D01*
Y-21081D01*
X238473Y-21003D01*
X238459Y-20915D01*
X238436Y-20823D01*
X238404Y-20726D01*
X238358Y-20638D01*
Y-20633D01*
X238353Y-20629D01*
X238335Y-20601D01*
X238307Y-20560D01*
X238265Y-20513D01*
X238214Y-20462D01*
X238159Y-20412D01*
X238090Y-20361D01*
X238011Y-20324D01*
X238007D01*
X238002Y-20319D01*
X237988Y-20315D01*
X237970Y-20310D01*
X237942Y-20305D01*
X237914Y-20296D01*
X237877Y-20287D01*
X237831Y-20278D01*
X237780Y-20273D01*
X237725Y-20264D01*
X237660Y-20255D01*
X237591Y-20250D01*
X237512Y-20245D01*
X237424Y-20241D01*
X237332Y-20236D01*
D02*
G37*
G36*
X237485Y-22888D02*
X236196D01*
Y-25059D01*
X237549D01*
X237586Y-25055D01*
X237623D01*
X237720Y-25050D01*
X237822Y-25041D01*
X237924Y-25027D01*
X238025Y-25008D01*
X238067Y-24999D01*
X238108Y-24985D01*
X238113D01*
X238122Y-24981D01*
X238136Y-24972D01*
X238154Y-24962D01*
X238210Y-24935D01*
X238275Y-24898D01*
X238344Y-24842D01*
X238418Y-24782D01*
X238487Y-24704D01*
X238552Y-24616D01*
Y-24611D01*
X238556Y-24602D01*
X238566Y-24588D01*
X238575Y-24570D01*
X238589Y-24542D01*
X238603Y-24514D01*
X238616Y-24477D01*
X238630Y-24440D01*
X238658Y-24343D01*
X238686Y-24237D01*
X238704Y-24112D01*
X238709Y-23974D01*
Y-23969D01*
Y-23960D01*
Y-23937D01*
Y-23914D01*
X238704Y-23881D01*
X238700Y-23844D01*
X238690Y-23761D01*
X238672Y-23669D01*
X238649Y-23567D01*
X238612Y-23465D01*
X238561Y-23368D01*
Y-23364D01*
X238556Y-23359D01*
X238547Y-23345D01*
X238533Y-23327D01*
X238501Y-23285D01*
X238455Y-23230D01*
X238399Y-23170D01*
X238330Y-23110D01*
X238251Y-23054D01*
X238164Y-23003D01*
X238159D01*
X238154Y-22999D01*
X238136Y-22994D01*
X238118Y-22985D01*
X238090Y-22976D01*
X238057Y-22966D01*
X238020Y-22957D01*
X237974Y-22943D01*
X237924Y-22934D01*
X237868Y-22925D01*
X237803Y-22916D01*
X237734Y-22906D01*
X237655Y-22897D01*
X237572Y-22893D01*
X237485Y-22888D01*
D02*
G37*
G36*
X273539Y-21770D02*
X273497D01*
X273470Y-21775D01*
X273433Y-21779D01*
X273387Y-21788D01*
X273340Y-21798D01*
X273290Y-21816D01*
X273234Y-21835D01*
X273174Y-21858D01*
X273114Y-21885D01*
X273054Y-21918D01*
X272989Y-21959D01*
X272929Y-22010D01*
X272869Y-22061D01*
X272809Y-22126D01*
X272804Y-22130D01*
X272795Y-22144D01*
X272781Y-22163D01*
X272763Y-22190D01*
X272740Y-22227D01*
X272712Y-22269D01*
X272684Y-22320D01*
X272657Y-22380D01*
X272624Y-22444D01*
X272597Y-22514D01*
X272569Y-22592D01*
X272546Y-22680D01*
X272523Y-22772D01*
X272504Y-22869D01*
X272490Y-22971D01*
X272481Y-23082D01*
X274574D01*
Y-23077D01*
Y-23054D01*
X274569Y-23027D01*
X274565Y-22985D01*
X274555Y-22934D01*
X274546Y-22879D01*
X274537Y-22819D01*
X274523Y-22749D01*
X274491Y-22606D01*
X274449Y-22458D01*
X274389Y-22320D01*
X274357Y-22255D01*
X274320Y-22199D01*
X274315Y-22195D01*
X274306Y-22181D01*
X274288Y-22158D01*
X274264Y-22130D01*
X274232Y-22098D01*
X274195Y-22066D01*
X274153Y-22024D01*
X274107Y-21982D01*
X274052Y-21945D01*
X273992Y-21904D01*
X273927Y-21871D01*
X273858Y-21835D01*
X273788Y-21812D01*
X273710Y-21788D01*
X273627Y-21775D01*
X273539Y-21770D01*
D02*
G37*
G36*
X249797Y-21770D02*
X249778D01*
X249755Y-21775D01*
X249723D01*
X249681Y-21784D01*
X249635Y-21793D01*
X249584Y-21807D01*
X249529Y-21825D01*
X249474Y-21848D01*
X249409Y-21876D01*
X249344Y-21913D01*
X249279Y-21955D01*
X249215Y-22005D01*
X249150Y-22066D01*
X249085Y-22130D01*
X249025Y-22209D01*
X249021Y-22213D01*
X249011Y-22227D01*
X248998Y-22255D01*
X248974Y-22292D01*
X248951Y-22338D01*
X248928Y-22394D01*
X248896Y-22458D01*
X248868Y-22537D01*
X248840Y-22625D01*
X248813Y-22722D01*
X248785Y-22828D01*
X248762Y-22943D01*
X248739Y-23073D01*
X248725Y-23211D01*
X248716Y-23359D01*
X248711Y-23521D01*
Y-23526D01*
Y-23530D01*
Y-23544D01*
Y-23558D01*
Y-23604D01*
X248716Y-23664D01*
X248720Y-23738D01*
X248730Y-23826D01*
X248739Y-23918D01*
X248753Y-24020D01*
X248767Y-24126D01*
X248790Y-24232D01*
X248813Y-24343D01*
X248845Y-24454D01*
X248882Y-24560D01*
X248924Y-24662D01*
X248974Y-24754D01*
X249030Y-24842D01*
X249035Y-24847D01*
X249044Y-24861D01*
X249062Y-24884D01*
X249090Y-24907D01*
X249118Y-24944D01*
X249159Y-24976D01*
X249201Y-25018D01*
X249252Y-25055D01*
X249307Y-25096D01*
X249367Y-25138D01*
X249432Y-25170D01*
X249506Y-25203D01*
X249580Y-25230D01*
X249658Y-25253D01*
X249741Y-25267D01*
X249829Y-25272D01*
X249848D01*
X249871Y-25267D01*
X249903Y-25263D01*
X249945Y-25258D01*
X249986Y-25249D01*
X250037Y-25235D01*
X250093Y-25216D01*
X250153Y-25193D01*
X250213Y-25166D01*
X250277Y-25129D01*
X250342Y-25087D01*
X250407Y-25041D01*
X250471Y-24981D01*
X250536Y-24916D01*
X250596Y-24838D01*
X250601Y-24833D01*
X250610Y-24819D01*
X250624Y-24791D01*
X250647Y-24754D01*
X250670Y-24708D01*
X250698Y-24653D01*
X250730Y-24584D01*
X250758Y-24509D01*
X250790Y-24422D01*
X250818Y-24325D01*
X250846Y-24214D01*
X250869Y-24098D01*
X250892Y-23969D01*
X250906Y-23830D01*
X250915Y-23678D01*
X250920Y-23521D01*
Y-23516D01*
Y-23512D01*
Y-23498D01*
Y-23484D01*
Y-23438D01*
X250915Y-23378D01*
X250910Y-23304D01*
X250901Y-23221D01*
X250892Y-23124D01*
X250878Y-23027D01*
X250864Y-22920D01*
X250841Y-22809D01*
X250813Y-22703D01*
X250785Y-22592D01*
X250744Y-22486D01*
X250702Y-22384D01*
X250652Y-22292D01*
X250596Y-22204D01*
X250591Y-22199D01*
X250582Y-22186D01*
X250564Y-22163D01*
X250536Y-22135D01*
X250508Y-22103D01*
X250467Y-22066D01*
X250425Y-22029D01*
X250374Y-21987D01*
X250319Y-21945D01*
X250259Y-21908D01*
X250194Y-21871D01*
X250125Y-21839D01*
X250046Y-21812D01*
X249968Y-21788D01*
X249885Y-21775D01*
X249797Y-21770D01*
D02*
G37*
G36*
X22208D02*
X22190D01*
X22167Y-21775D01*
X22135D01*
X22093Y-21784D01*
X22047Y-21793D01*
X21996Y-21807D01*
X21940Y-21825D01*
X21885Y-21848D01*
X21820Y-21876D01*
X21756Y-21913D01*
X21691Y-21955D01*
X21626Y-22005D01*
X21562Y-22066D01*
X21497Y-22130D01*
X21437Y-22209D01*
X21432Y-22213D01*
X21423Y-22227D01*
X21409Y-22255D01*
X21386Y-22292D01*
X21363Y-22338D01*
X21340Y-22394D01*
X21308Y-22458D01*
X21280Y-22537D01*
X21252Y-22625D01*
X21224Y-22722D01*
X21197Y-22828D01*
X21174Y-22943D01*
X21150Y-23073D01*
X21137Y-23211D01*
X21127Y-23359D01*
X21123Y-23521D01*
Y-23526D01*
Y-23530D01*
Y-23544D01*
Y-23558D01*
Y-23604D01*
X21127Y-23664D01*
X21132Y-23738D01*
X21141Y-23826D01*
X21150Y-23918D01*
X21164Y-24020D01*
X21178Y-24126D01*
X21201Y-24232D01*
X21224Y-24343D01*
X21257Y-24454D01*
X21294Y-24560D01*
X21335Y-24662D01*
X21386Y-24754D01*
X21441Y-24842D01*
X21446Y-24847D01*
X21455Y-24861D01*
X21474Y-24884D01*
X21502Y-24907D01*
X21529Y-24944D01*
X21571Y-24976D01*
X21612Y-25018D01*
X21663Y-25055D01*
X21719Y-25096D01*
X21779Y-25138D01*
X21844Y-25170D01*
X21917Y-25203D01*
X21991Y-25230D01*
X22070Y-25253D01*
X22153Y-25267D01*
X22241Y-25272D01*
X22259D01*
X22282Y-25267D01*
X22315Y-25263D01*
X22356Y-25258D01*
X22398Y-25249D01*
X22449Y-25235D01*
X22504Y-25216D01*
X22564Y-25193D01*
X22624Y-25166D01*
X22689Y-25129D01*
X22754Y-25087D01*
X22818Y-25041D01*
X22883Y-24981D01*
X22948Y-24916D01*
X23008Y-24838D01*
X23012Y-24833D01*
X23022Y-24819D01*
X23035Y-24791D01*
X23058Y-24754D01*
X23082Y-24708D01*
X23109Y-24653D01*
X23142Y-24584D01*
X23169Y-24509D01*
X23202Y-24422D01*
X23230Y-24325D01*
X23257Y-24214D01*
X23280Y-24098D01*
X23303Y-23969D01*
X23317Y-23830D01*
X23326Y-23678D01*
X23331Y-23521D01*
Y-23516D01*
Y-23512D01*
Y-23498D01*
Y-23484D01*
Y-23438D01*
X23326Y-23378D01*
X23322Y-23304D01*
X23313Y-23221D01*
X23303Y-23124D01*
X23290Y-23027D01*
X23276Y-22920D01*
X23253Y-22809D01*
X23225Y-22703D01*
X23197Y-22592D01*
X23156Y-22486D01*
X23114Y-22384D01*
X23063Y-22292D01*
X23008Y-22204D01*
X23003Y-22199D01*
X22994Y-22186D01*
X22975Y-22163D01*
X22948Y-22135D01*
X22920Y-22103D01*
X22878Y-22066D01*
X22837Y-22029D01*
X22786Y-21987D01*
X22730Y-21945D01*
X22670Y-21908D01*
X22606Y-21871D01*
X22536Y-21839D01*
X22458Y-21812D01*
X22379Y-21788D01*
X22296Y-21775D01*
X22208Y-21770D01*
D02*
G37*
G36*
X16581D02*
X16563D01*
X16540Y-21775D01*
X16507D01*
X16466Y-21784D01*
X16420Y-21793D01*
X16369Y-21807D01*
X16313Y-21825D01*
X16258Y-21848D01*
X16193Y-21876D01*
X16128Y-21913D01*
X16064Y-21955D01*
X15999Y-22005D01*
X15935Y-22066D01*
X15870Y-22130D01*
X15810Y-22209D01*
X15805Y-22213D01*
X15796Y-22227D01*
X15782Y-22255D01*
X15759Y-22292D01*
X15736Y-22338D01*
X15713Y-22394D01*
X15680Y-22458D01*
X15653Y-22537D01*
X15625Y-22625D01*
X15597Y-22722D01*
X15570Y-22828D01*
X15546Y-22943D01*
X15523Y-23073D01*
X15509Y-23211D01*
X15500Y-23359D01*
X15496Y-23521D01*
Y-23526D01*
Y-23530D01*
Y-23544D01*
Y-23558D01*
Y-23604D01*
X15500Y-23664D01*
X15505Y-23738D01*
X15514Y-23826D01*
X15523Y-23918D01*
X15537Y-24020D01*
X15551Y-24126D01*
X15574Y-24232D01*
X15597Y-24343D01*
X15630Y-24454D01*
X15666Y-24560D01*
X15708Y-24662D01*
X15759Y-24754D01*
X15814Y-24842D01*
X15819Y-24847D01*
X15828Y-24861D01*
X15847Y-24884D01*
X15874Y-24907D01*
X15902Y-24944D01*
X15944Y-24976D01*
X15985Y-25018D01*
X16036Y-25055D01*
X16092Y-25096D01*
X16152Y-25138D01*
X16216Y-25170D01*
X16290Y-25203D01*
X16364Y-25230D01*
X16443Y-25253D01*
X16526Y-25267D01*
X16614Y-25272D01*
X16632D01*
X16655Y-25267D01*
X16688Y-25263D01*
X16729Y-25258D01*
X16771Y-25249D01*
X16822Y-25235D01*
X16877Y-25216D01*
X16937Y-25193D01*
X16997Y-25166D01*
X17062Y-25129D01*
X17127Y-25087D01*
X17191Y-25041D01*
X17256Y-24981D01*
X17321Y-24916D01*
X17381Y-24838D01*
X17385Y-24833D01*
X17394Y-24819D01*
X17408Y-24791D01*
X17431Y-24754D01*
X17455Y-24708D01*
X17482Y-24653D01*
X17515Y-24584D01*
X17542Y-24509D01*
X17575Y-24422D01*
X17602Y-24325D01*
X17630Y-24214D01*
X17653Y-24098D01*
X17676Y-23969D01*
X17690Y-23830D01*
X17699Y-23678D01*
X17704Y-23521D01*
Y-23516D01*
Y-23512D01*
Y-23498D01*
Y-23484D01*
Y-23438D01*
X17699Y-23378D01*
X17695Y-23304D01*
X17685Y-23221D01*
X17676Y-23124D01*
X17662Y-23027D01*
X17649Y-22920D01*
X17625Y-22809D01*
X17598Y-22703D01*
X17570Y-22592D01*
X17528Y-22486D01*
X17487Y-22384D01*
X17436Y-22292D01*
X17381Y-22204D01*
X17376Y-22199D01*
X17367Y-22186D01*
X17348Y-22163D01*
X17321Y-22135D01*
X17293Y-22103D01*
X17251Y-22066D01*
X17210Y-22029D01*
X17159Y-21987D01*
X17103Y-21945D01*
X17043Y-21908D01*
X16979Y-21871D01*
X16909Y-21839D01*
X16831Y-21812D01*
X16752Y-21788D01*
X16669Y-21775D01*
X16581Y-21770D01*
D02*
G37*
G36*
X241758D02*
X241740D01*
X241717Y-21775D01*
X241684D01*
X241642Y-21784D01*
X241596Y-21793D01*
X241546Y-21807D01*
X241490Y-21825D01*
X241435Y-21848D01*
X241370Y-21876D01*
X241305Y-21913D01*
X241241Y-21955D01*
X241176Y-22005D01*
X241111Y-22066D01*
X241047Y-22130D01*
X240986Y-22209D01*
X240982Y-22213D01*
X240973Y-22227D01*
X240959Y-22255D01*
X240936Y-22292D01*
X240913Y-22338D01*
X240890Y-22394D01*
X240857Y-22458D01*
X240829Y-22537D01*
X240802Y-22625D01*
X240774Y-22722D01*
X240746Y-22828D01*
X240723Y-22943D01*
X240700Y-23073D01*
X240686Y-23211D01*
X240677Y-23359D01*
X240672Y-23521D01*
Y-23526D01*
Y-23530D01*
Y-23544D01*
Y-23558D01*
Y-23604D01*
X240677Y-23664D01*
X240682Y-23738D01*
X240691Y-23826D01*
X240700Y-23918D01*
X240714Y-24020D01*
X240728Y-24126D01*
X240751Y-24232D01*
X240774Y-24343D01*
X240806Y-24454D01*
X240843Y-24560D01*
X240885Y-24662D01*
X240936Y-24754D01*
X240991Y-24842D01*
X240996Y-24847D01*
X241005Y-24861D01*
X241023Y-24884D01*
X241051Y-24907D01*
X241079Y-24944D01*
X241121Y-24976D01*
X241162Y-25018D01*
X241213Y-25055D01*
X241268Y-25096D01*
X241328Y-25138D01*
X241393Y-25170D01*
X241467Y-25203D01*
X241541Y-25230D01*
X241619Y-25253D01*
X241703Y-25267D01*
X241790Y-25272D01*
X241809D01*
X241832Y-25267D01*
X241864Y-25263D01*
X241906Y-25258D01*
X241948Y-25249D01*
X241998Y-25235D01*
X242054Y-25216D01*
X242114Y-25193D01*
X242174Y-25166D01*
X242238Y-25129D01*
X242303Y-25087D01*
X242368Y-25041D01*
X242433Y-24981D01*
X242497Y-24916D01*
X242557Y-24838D01*
X242562Y-24833D01*
X242571Y-24819D01*
X242585Y-24791D01*
X242608Y-24754D01*
X242631Y-24708D01*
X242659Y-24653D01*
X242691Y-24584D01*
X242719Y-24509D01*
X242751Y-24422D01*
X242779Y-24325D01*
X242807Y-24214D01*
X242830Y-24098D01*
X242853Y-23969D01*
X242867Y-23830D01*
X242876Y-23678D01*
X242881Y-23521D01*
Y-23516D01*
Y-23512D01*
Y-23498D01*
Y-23484D01*
Y-23438D01*
X242876Y-23378D01*
X242871Y-23304D01*
X242862Y-23221D01*
X242853Y-23124D01*
X242839Y-23027D01*
X242825Y-22920D01*
X242802Y-22809D01*
X242774Y-22703D01*
X242747Y-22592D01*
X242705Y-22486D01*
X242664Y-22384D01*
X242613Y-22292D01*
X242557Y-22204D01*
X242553Y-22199D01*
X242543Y-22186D01*
X242525Y-22163D01*
X242497Y-22135D01*
X242470Y-22103D01*
X242428Y-22066D01*
X242386Y-22029D01*
X242336Y-21987D01*
X242280Y-21945D01*
X242220Y-21908D01*
X242155Y-21871D01*
X242086Y-21839D01*
X242007Y-21812D01*
X241929Y-21788D01*
X241846Y-21775D01*
X241758Y-21770D01*
D02*
G37*
G36*
X14983Y-30582D02*
X13361Y-33424D01*
X14983D01*
Y-30582D01*
D02*
G37*
G36*
X270282Y-30236D02*
X269145D01*
Y-32144D01*
X270365D01*
X270407Y-32140D01*
X270504Y-32135D01*
X270605Y-32130D01*
X270707Y-32116D01*
X270804Y-32103D01*
X270846Y-32093D01*
X270883Y-32084D01*
X270887D01*
X270896Y-32079D01*
X270910Y-32075D01*
X270929Y-32066D01*
X270975Y-32047D01*
X271035Y-32015D01*
X271100Y-31973D01*
X271169Y-31922D01*
X271234Y-31858D01*
X271294Y-31784D01*
Y-31779D01*
X271298Y-31775D01*
X271308Y-31761D01*
X271317Y-31747D01*
X271326Y-31724D01*
X271340Y-31696D01*
X271368Y-31631D01*
X271395Y-31548D01*
X271418Y-31446D01*
X271437Y-31331D01*
X271442Y-31202D01*
Y-31197D01*
Y-31188D01*
Y-31169D01*
Y-31146D01*
X271437Y-31119D01*
Y-31082D01*
X271423Y-31003D01*
X271409Y-30915D01*
X271386Y-30823D01*
X271354Y-30726D01*
X271308Y-30638D01*
Y-30633D01*
X271303Y-30629D01*
X271285Y-30601D01*
X271257Y-30559D01*
X271215Y-30513D01*
X271164Y-30462D01*
X271109Y-30412D01*
X271040Y-30361D01*
X270961Y-30324D01*
X270956D01*
X270952Y-30319D01*
X270938Y-30315D01*
X270919Y-30310D01*
X270892Y-30305D01*
X270864Y-30296D01*
X270827Y-30287D01*
X270781Y-30278D01*
X270730Y-30273D01*
X270675Y-30264D01*
X270610Y-30255D01*
X270541Y-30250D01*
X270462Y-30245D01*
X270374Y-30241D01*
X270282Y-30236D01*
D02*
G37*
G36*
X270434Y-32888D02*
X269145D01*
Y-35059D01*
X270499D01*
X270536Y-35055D01*
X270573D01*
X270670Y-35050D01*
X270772Y-35041D01*
X270873Y-35027D01*
X270975Y-35008D01*
X271017Y-34999D01*
X271058Y-34985D01*
X271063D01*
X271072Y-34981D01*
X271086Y-34971D01*
X271104Y-34962D01*
X271160Y-34935D01*
X271224Y-34898D01*
X271294Y-34842D01*
X271368Y-34782D01*
X271437Y-34704D01*
X271502Y-34616D01*
Y-34611D01*
X271506Y-34602D01*
X271515Y-34588D01*
X271525Y-34570D01*
X271539Y-34542D01*
X271552Y-34514D01*
X271566Y-34477D01*
X271580Y-34440D01*
X271608Y-34343D01*
X271636Y-34237D01*
X271654Y-34112D01*
X271659Y-33974D01*
Y-33969D01*
Y-33960D01*
Y-33937D01*
Y-33914D01*
X271654Y-33881D01*
X271649Y-33844D01*
X271640Y-33761D01*
X271622Y-33669D01*
X271599Y-33567D01*
X271562Y-33465D01*
X271511Y-33368D01*
Y-33364D01*
X271506Y-33359D01*
X271497Y-33345D01*
X271483Y-33327D01*
X271451Y-33285D01*
X271405Y-33230D01*
X271349Y-33170D01*
X271280Y-33110D01*
X271201Y-33054D01*
X271113Y-33003D01*
X271109D01*
X271104Y-32999D01*
X271086Y-32994D01*
X271067Y-32985D01*
X271040Y-32976D01*
X271007Y-32967D01*
X270970Y-32957D01*
X270924Y-32943D01*
X270873Y-32934D01*
X270818Y-32925D01*
X270753Y-32916D01*
X270684Y-32906D01*
X270605Y-32897D01*
X270522Y-32893D01*
X270434Y-32888D01*
D02*
G37*
G36*
X258593Y-30740D02*
X256972Y-33581D01*
X258593D01*
Y-30740D01*
D02*
G37*
G36*
X248586Y-31770D02*
X248568D01*
X248545Y-31775D01*
X248513D01*
X248471Y-31784D01*
X248425Y-31793D01*
X248374Y-31807D01*
X248318Y-31825D01*
X248263Y-31848D01*
X248198Y-31876D01*
X248134Y-31913D01*
X248069Y-31955D01*
X248004Y-32006D01*
X247940Y-32066D01*
X247875Y-32130D01*
X247815Y-32209D01*
X247810Y-32213D01*
X247801Y-32227D01*
X247787Y-32255D01*
X247764Y-32292D01*
X247741Y-32338D01*
X247718Y-32394D01*
X247686Y-32458D01*
X247658Y-32537D01*
X247630Y-32625D01*
X247602Y-32722D01*
X247575Y-32828D01*
X247551Y-32943D01*
X247528Y-33073D01*
X247515Y-33211D01*
X247505Y-33359D01*
X247501Y-33521D01*
Y-33525D01*
Y-33530D01*
Y-33544D01*
Y-33558D01*
Y-33604D01*
X247505Y-33664D01*
X247510Y-33738D01*
X247519Y-33826D01*
X247528Y-33918D01*
X247542Y-34020D01*
X247556Y-34126D01*
X247579Y-34232D01*
X247602Y-34343D01*
X247635Y-34454D01*
X247672Y-34560D01*
X247713Y-34662D01*
X247764Y-34754D01*
X247819Y-34842D01*
X247824Y-34847D01*
X247833Y-34861D01*
X247852Y-34884D01*
X247880Y-34907D01*
X247907Y-34944D01*
X247949Y-34976D01*
X247990Y-35018D01*
X248041Y-35055D01*
X248097Y-35096D01*
X248157Y-35138D01*
X248221Y-35170D01*
X248295Y-35203D01*
X248369Y-35230D01*
X248448Y-35253D01*
X248531Y-35267D01*
X248619Y-35272D01*
X248637D01*
X248660Y-35267D01*
X248693Y-35263D01*
X248734Y-35258D01*
X248776Y-35249D01*
X248827Y-35235D01*
X248882Y-35216D01*
X248942Y-35193D01*
X249002Y-35166D01*
X249067Y-35129D01*
X249132Y-35087D01*
X249196Y-35041D01*
X249261Y-34981D01*
X249326Y-34916D01*
X249386Y-34838D01*
X249390Y-34833D01*
X249399Y-34819D01*
X249413Y-34791D01*
X249436Y-34754D01*
X249460Y-34708D01*
X249487Y-34653D01*
X249520Y-34584D01*
X249547Y-34510D01*
X249580Y-34422D01*
X249607Y-34325D01*
X249635Y-34214D01*
X249658Y-34098D01*
X249681Y-33969D01*
X249695Y-33830D01*
X249704Y-33678D01*
X249709Y-33521D01*
Y-33516D01*
Y-33512D01*
Y-33498D01*
Y-33484D01*
Y-33438D01*
X249704Y-33378D01*
X249700Y-33304D01*
X249691Y-33221D01*
X249681Y-33124D01*
X249668Y-33026D01*
X249654Y-32920D01*
X249630Y-32809D01*
X249603Y-32703D01*
X249575Y-32592D01*
X249534Y-32486D01*
X249492Y-32384D01*
X249441Y-32292D01*
X249386Y-32204D01*
X249381Y-32199D01*
X249372Y-32186D01*
X249353Y-32163D01*
X249326Y-32135D01*
X249298Y-32103D01*
X249256Y-32066D01*
X249215Y-32029D01*
X249164Y-31987D01*
X249109Y-31945D01*
X249048Y-31909D01*
X248984Y-31872D01*
X248914Y-31839D01*
X248836Y-31811D01*
X248757Y-31788D01*
X248674Y-31775D01*
X248586Y-31770D01*
D02*
G37*
G36*
X242959D02*
X242941D01*
X242918Y-31775D01*
X242885D01*
X242844Y-31784D01*
X242798Y-31793D01*
X242747Y-31807D01*
X242691Y-31825D01*
X242636Y-31848D01*
X242571Y-31876D01*
X242507Y-31913D01*
X242442Y-31955D01*
X242377Y-32006D01*
X242312Y-32066D01*
X242248Y-32130D01*
X242188Y-32209D01*
X242183Y-32213D01*
X242174Y-32227D01*
X242160Y-32255D01*
X242137Y-32292D01*
X242114Y-32338D01*
X242091Y-32394D01*
X242058Y-32458D01*
X242031Y-32537D01*
X242003Y-32625D01*
X241975Y-32722D01*
X241948Y-32828D01*
X241924Y-32943D01*
X241901Y-33073D01*
X241887Y-33211D01*
X241878Y-33359D01*
X241874Y-33521D01*
Y-33525D01*
Y-33530D01*
Y-33544D01*
Y-33558D01*
Y-33604D01*
X241878Y-33664D01*
X241883Y-33738D01*
X241892Y-33826D01*
X241901Y-33918D01*
X241915Y-34020D01*
X241929Y-34126D01*
X241952Y-34232D01*
X241975Y-34343D01*
X242007Y-34454D01*
X242044Y-34560D01*
X242086Y-34662D01*
X242137Y-34754D01*
X242192Y-34842D01*
X242197Y-34847D01*
X242206Y-34861D01*
X242225Y-34884D01*
X242252Y-34907D01*
X242280Y-34944D01*
X242322Y-34976D01*
X242363Y-35018D01*
X242414Y-35055D01*
X242470Y-35096D01*
X242530Y-35138D01*
X242594Y-35170D01*
X242668Y-35203D01*
X242742Y-35230D01*
X242821Y-35253D01*
X242904Y-35267D01*
X242992Y-35272D01*
X243010D01*
X243033Y-35267D01*
X243066Y-35263D01*
X243107Y-35258D01*
X243149Y-35249D01*
X243199Y-35235D01*
X243255Y-35216D01*
X243315Y-35193D01*
X243375Y-35166D01*
X243440Y-35129D01*
X243504Y-35087D01*
X243569Y-35041D01*
X243634Y-34981D01*
X243699Y-34916D01*
X243759Y-34838D01*
X243763Y-34833D01*
X243772Y-34819D01*
X243786Y-34791D01*
X243809Y-34754D01*
X243832Y-34708D01*
X243860Y-34653D01*
X243893Y-34584D01*
X243920Y-34510D01*
X243953Y-34422D01*
X243980Y-34325D01*
X244008Y-34214D01*
X244031Y-34098D01*
X244054Y-33969D01*
X244068Y-33830D01*
X244077Y-33678D01*
X244082Y-33521D01*
Y-33516D01*
Y-33512D01*
Y-33498D01*
Y-33484D01*
Y-33438D01*
X244077Y-33378D01*
X244073Y-33304D01*
X244063Y-33221D01*
X244054Y-33124D01*
X244040Y-33026D01*
X244026Y-32920D01*
X244003Y-32809D01*
X243976Y-32703D01*
X243948Y-32592D01*
X243906Y-32486D01*
X243865Y-32384D01*
X243814Y-32292D01*
X243759Y-32204D01*
X243754Y-32199D01*
X243745Y-32186D01*
X243726Y-32163D01*
X243699Y-32135D01*
X243671Y-32103D01*
X243629Y-32066D01*
X243588Y-32029D01*
X243537Y-31987D01*
X243481Y-31945D01*
X243421Y-31909D01*
X243357Y-31872D01*
X243287Y-31839D01*
X243209Y-31811D01*
X243130Y-31788D01*
X243047Y-31775D01*
X242959Y-31770D01*
D02*
G37*
%LPD*%
D41*
X86739Y79200D02*
X90939Y75000D01*
X95000D01*
X83261Y79200D02*
X86739D01*
X81380Y80600D02*
X82803Y79177D01*
X83238D01*
X83261Y79200D01*
X49914Y80600D02*
X81380D01*
X80800Y79200D02*
X85000Y75000D01*
X51688Y79200D02*
X80800D01*
X50176Y77688D02*
X51688Y79200D01*
X50176Y73387D02*
Y77688D01*
X36563Y72500D02*
X40748D01*
X34063Y75000D02*
X36563Y72500D01*
X47826Y78512D02*
X49914Y80600D01*
X47488Y78512D02*
X47826D01*
X40913D02*
X47488D01*
X49203Y71038D02*
X54300D01*
X47826Y72414D02*
Y78174D01*
X47488Y78512D02*
X47826Y78174D01*
Y72414D02*
X49203Y71038D01*
X47937Y68000D02*
X57291D01*
X45682Y70256D02*
X47937Y68000D01*
X57291D02*
X59842Y70551D01*
D43*
X95000Y25500D02*
D03*
X85000Y75000D02*
D03*
X95000D02*
D03*
X15000D02*
D03*
Y25000D02*
D03*
D44*
X85000Y25500D02*
D03*
X75000Y75000D02*
D03*
X5000D02*
D03*
Y25000D02*
D03*
D45*
X97087Y68610D02*
D03*
X90000Y72000D02*
D03*
X50000Y95000D02*
D03*
X40748Y72500D02*
D03*
X97436Y81805D02*
D03*
X40913Y21549D02*
D03*
X35402Y66189D02*
D03*
X50176Y73387D02*
D03*
X54300Y71038D02*
D03*
X40913Y78512D02*
D03*
X59842Y70551D02*
D03*
X45682Y70256D02*
D03*
D46*
X77500Y33588D02*
D03*
X22000D02*
D03*
Y41000D02*
D03*
X79000Y59000D02*
D03*
X29000Y41000D02*
D03*
X20500Y3500D02*
D03*
X79500D02*
D03*
X71000Y58954D02*
D03*
X65500D02*
D03*
X34500Y41000D02*
D03*
X93000Y50000D02*
D03*
D47*
X34063Y75000D02*
D03*
D48*
X77500Y26379D02*
Y33588D01*
Y26379D02*
X78379Y25500D01*
X85000D01*
X21121Y25000D02*
X22000Y25879D01*
X15000Y25000D02*
X21121D01*
X22000Y25879D02*
Y33588D01*
M02*
