G04*
G04 #@! TF.GenerationSoftware,Altium Limited,Altium Designer,24.5.2 (23)*
G04*
G04 Layer_Color=8421504*
%FSLAX25Y25*%
%MOIN*%
G70*
G04*
G04 #@! TF.SameCoordinates,14D8FD4F-CE48-4F7E-93F5-DD934605E96C*
G04*
G04*
G04 #@! TF.FilePolarity,Positive*
G04*
G01*
G75*
%ADD14R,0.02953X0.02165*%
%ADD15R,0.05512X0.12008*%
%ADD16R,0.05315X0.04528*%
%ADD17R,0.13583X0.03740*%
%ADD18R,0.13189X0.05709*%
%ADD19R,0.00984X0.03150*%
%ADD20R,0.03740X0.05315*%
%ADD21R,0.04528X0.06496*%
%ADD22R,0.02165X0.05906*%
G36*
X246110Y-30393D02*
X245477D01*
Y-29492D01*
X246110D01*
Y-30393D01*
D02*
G37*
G36*
X265389Y-29386D02*
X265436D01*
X265496Y-29391D01*
X265560Y-29400D01*
X265630Y-29409D01*
X265704Y-29418D01*
X265787Y-29432D01*
X265953Y-29469D01*
X266119Y-29525D01*
X266202Y-29557D01*
X266286Y-29594D01*
X266290Y-29599D01*
X266304Y-29603D01*
X266327Y-29617D01*
X266355Y-29631D01*
X266392Y-29654D01*
X266434Y-29682D01*
X266480Y-29714D01*
X266535Y-29746D01*
X266646Y-29834D01*
X266761Y-29936D01*
X266877Y-30056D01*
X266988Y-30195D01*
X266992Y-30199D01*
X267002Y-30213D01*
X267016Y-30236D01*
X267034Y-30264D01*
X267057Y-30305D01*
X267085Y-30351D01*
X267113Y-30407D01*
X267145Y-30472D01*
X267177Y-30541D01*
X267210Y-30619D01*
X267247Y-30707D01*
X267279Y-30804D01*
X267316Y-30906D01*
X267348Y-31012D01*
X267376Y-31128D01*
X267404Y-31252D01*
X266789Y-31460D01*
Y-31456D01*
X266785Y-31437D01*
X266775Y-31409D01*
X266766Y-31373D01*
X266757Y-31331D01*
X266738Y-31280D01*
X266724Y-31220D01*
X266701Y-31160D01*
X266660Y-31031D01*
X266604Y-30901D01*
X266544Y-30777D01*
X266512Y-30716D01*
X266475Y-30666D01*
Y-30661D01*
X266466Y-30652D01*
X266457Y-30638D01*
X266443Y-30624D01*
X266396Y-30573D01*
X266341Y-30513D01*
X266267Y-30449D01*
X266184Y-30379D01*
X266082Y-30310D01*
X265971Y-30250D01*
X265967D01*
X265958Y-30245D01*
X265939Y-30236D01*
X265916Y-30227D01*
X265888Y-30213D01*
X265851Y-30204D01*
X265814Y-30190D01*
X265768Y-30171D01*
X265667Y-30144D01*
X265546Y-30121D01*
X265417Y-30102D01*
X265279Y-30097D01*
X265223D01*
X265186Y-30102D01*
X265135Y-30107D01*
X265080Y-30111D01*
X265015Y-30121D01*
X264946Y-30130D01*
X264872Y-30148D01*
X264793Y-30167D01*
X264715Y-30185D01*
X264632Y-30213D01*
X264548Y-30245D01*
X264465Y-30282D01*
X264387Y-30324D01*
X264308Y-30375D01*
X264304Y-30379D01*
X264290Y-30389D01*
X264271Y-30402D01*
X264239Y-30426D01*
X264207Y-30453D01*
X264165Y-30490D01*
X264124Y-30532D01*
X264073Y-30582D01*
X264022Y-30638D01*
X263971Y-30703D01*
X263916Y-30772D01*
X263860Y-30846D01*
X263805Y-30934D01*
X263754Y-31021D01*
X263703Y-31119D01*
X263652Y-31225D01*
X263648Y-31229D01*
X263643Y-31252D01*
X263629Y-31285D01*
X263615Y-31326D01*
X263597Y-31382D01*
X263574Y-31451D01*
X263551Y-31530D01*
X263532Y-31617D01*
X263509Y-31714D01*
X263486Y-31821D01*
X263463Y-31936D01*
X263444Y-32061D01*
X263431Y-32190D01*
X263417Y-32333D01*
X263412Y-32477D01*
X263407Y-32629D01*
Y-32634D01*
Y-32643D01*
Y-32662D01*
Y-32685D01*
Y-32712D01*
X263412Y-32749D01*
Y-32791D01*
X263417Y-32837D01*
X263421Y-32888D01*
X263426Y-32943D01*
X263435Y-33064D01*
X263454Y-33198D01*
X263472Y-33341D01*
X263500Y-33493D01*
X263537Y-33650D01*
X263578Y-33807D01*
X263629Y-33964D01*
X263689Y-34117D01*
X263758Y-34265D01*
X263842Y-34403D01*
X263934Y-34528D01*
X263939Y-34533D01*
X263957Y-34556D01*
X263989Y-34588D01*
X264031Y-34625D01*
X264082Y-34676D01*
X264147Y-34727D01*
X264220Y-34782D01*
X264304Y-34842D01*
X264401Y-34902D01*
X264502Y-34958D01*
X264618Y-35008D01*
X264738Y-35059D01*
X264872Y-35096D01*
X265010Y-35129D01*
X265158Y-35147D01*
X265311Y-35156D01*
X265352D01*
X265380Y-35152D01*
X265417D01*
X265463Y-35147D01*
X265510Y-35142D01*
X265565Y-35133D01*
X265625Y-35124D01*
X265690Y-35110D01*
X265833Y-35078D01*
X265981Y-35032D01*
X266138Y-34967D01*
X266142Y-34962D01*
X266156Y-34958D01*
X266179Y-34948D01*
X266207Y-34930D01*
X266244Y-34912D01*
X266286Y-34893D01*
X266332Y-34865D01*
X266383Y-34838D01*
X266489Y-34768D01*
X266604Y-34690D01*
X266715Y-34602D01*
X266817Y-34505D01*
Y-33327D01*
X265297D01*
Y-32583D01*
X267487Y-32578D01*
Y-34925D01*
X267482Y-34930D01*
X267464Y-34948D01*
X267436Y-34971D01*
X267399Y-35004D01*
X267353Y-35045D01*
X267297Y-35092D01*
X267237Y-35147D01*
X267168Y-35203D01*
X267094Y-35258D01*
X267011Y-35323D01*
X266923Y-35383D01*
X266835Y-35443D01*
X266641Y-35563D01*
X266544Y-35614D01*
X266443Y-35664D01*
X266438Y-35669D01*
X266420Y-35674D01*
X266392Y-35688D01*
X266350Y-35702D01*
X266300Y-35720D01*
X266244Y-35743D01*
X266179Y-35766D01*
X266106Y-35785D01*
X266022Y-35808D01*
X265939Y-35831D01*
X265847Y-35854D01*
X265750Y-35872D01*
X265551Y-35900D01*
X265445Y-35905D01*
X265338Y-35909D01*
X265306D01*
X265265Y-35905D01*
X265209D01*
X265144Y-35895D01*
X265066Y-35891D01*
X264983Y-35877D01*
X264886Y-35863D01*
X264784Y-35840D01*
X264673Y-35817D01*
X264562Y-35785D01*
X264447Y-35748D01*
X264331Y-35706D01*
X264216Y-35655D01*
X264100Y-35595D01*
X263985Y-35531D01*
X263980Y-35526D01*
X263957Y-35512D01*
X263929Y-35489D01*
X263888Y-35461D01*
X263837Y-35420D01*
X263782Y-35373D01*
X263717Y-35313D01*
X263648Y-35249D01*
X263574Y-35175D01*
X263495Y-35096D01*
X263417Y-35004D01*
X263338Y-34907D01*
X263264Y-34796D01*
X263186Y-34681D01*
X263116Y-34560D01*
X263047Y-34426D01*
X263042Y-34417D01*
X263033Y-34394D01*
X263015Y-34352D01*
X262992Y-34297D01*
X262968Y-34228D01*
X262936Y-34140D01*
X262908Y-34043D01*
X262876Y-33932D01*
X262844Y-33812D01*
X262811Y-33678D01*
X262779Y-33535D01*
X262756Y-33382D01*
X262733Y-33221D01*
X262714Y-33045D01*
X262705Y-32865D01*
X262701Y-32680D01*
Y-32675D01*
Y-32666D01*
Y-32652D01*
Y-32634D01*
Y-32611D01*
X262705Y-32578D01*
Y-32546D01*
Y-32504D01*
X262710Y-32417D01*
X262719Y-32310D01*
X262728Y-32195D01*
X262742Y-32066D01*
X262761Y-31932D01*
X262784Y-31784D01*
X262811Y-31636D01*
X262848Y-31483D01*
X262885Y-31331D01*
X262931Y-31174D01*
X262987Y-31026D01*
X263047Y-30878D01*
X263052Y-30869D01*
X263061Y-30846D01*
X263084Y-30804D01*
X263112Y-30753D01*
X263144Y-30689D01*
X263186Y-30615D01*
X263236Y-30536D01*
X263292Y-30449D01*
X263352Y-30356D01*
X263421Y-30264D01*
X263495Y-30171D01*
X263578Y-30079D01*
X263666Y-29987D01*
X263758Y-29899D01*
X263856Y-29820D01*
X263957Y-29746D01*
X263962Y-29742D01*
X263985Y-29732D01*
X264013Y-29714D01*
X264059Y-29691D01*
X264110Y-29663D01*
X264174Y-29631D01*
X264253Y-29599D01*
X264336Y-29561D01*
X264428Y-29529D01*
X264530Y-29497D01*
X264641Y-29465D01*
X264756Y-29437D01*
X264881Y-29414D01*
X265015Y-29395D01*
X265149Y-29386D01*
X265292Y-29381D01*
X265348D01*
X265389Y-29386D01*
D02*
G37*
G36*
X254759Y-35803D02*
X254163D01*
X252740Y-31234D01*
X253414D01*
X254218Y-33969D01*
Y-33974D01*
X254223Y-33988D01*
X254232Y-34015D01*
X254241Y-34048D01*
X254255Y-34089D01*
X254269Y-34140D01*
X254283Y-34195D01*
X254301Y-34260D01*
X254320Y-34325D01*
X254338Y-34399D01*
X254380Y-34556D01*
X254417Y-34718D01*
X254458Y-34888D01*
Y-34884D01*
X254463Y-34870D01*
X254468Y-34851D01*
X254472Y-34824D01*
X254482Y-34791D01*
X254491Y-34750D01*
X254505Y-34699D01*
X254519Y-34644D01*
X254532Y-34584D01*
X254551Y-34519D01*
X254569Y-34449D01*
X254592Y-34371D01*
X254615Y-34292D01*
X254639Y-34205D01*
X254689Y-34025D01*
X255530Y-31234D01*
X256182D01*
X254759Y-35803D01*
D02*
G37*
G36*
X240451D02*
X239790D01*
Y-30523D01*
X238284Y-35803D01*
X237665D01*
X236173Y-30435D01*
Y-35803D01*
X235512D01*
Y-29492D01*
X236542D01*
X237766Y-33964D01*
X238011Y-34898D01*
Y-34893D01*
X238016Y-34879D01*
X238020Y-34861D01*
X238030Y-34833D01*
X238039Y-34796D01*
X238048Y-34750D01*
X238067Y-34699D01*
X238081Y-34639D01*
X238099Y-34570D01*
X238118Y-34496D01*
X238141Y-34413D01*
X238168Y-34325D01*
X238196Y-34223D01*
X238224Y-34117D01*
X238256Y-34006D01*
X238288Y-33886D01*
X239527Y-29492D01*
X240451D01*
Y-35803D01*
D02*
G37*
G36*
X275013Y-29497D02*
X275078D01*
X275151Y-29502D01*
X275225Y-29506D01*
X275392Y-29525D01*
X275563Y-29543D01*
X275641Y-29557D01*
X275720Y-29575D01*
X275794Y-29594D01*
X275858Y-29617D01*
X275863D01*
X275877Y-29626D01*
X275900Y-29635D01*
X275932Y-29649D01*
X275969Y-29668D01*
X276015Y-29691D01*
X276062Y-29719D01*
X276117Y-29751D01*
X276172Y-29792D01*
X276233Y-29834D01*
X276288Y-29885D01*
X276348Y-29940D01*
X276408Y-30000D01*
X276468Y-30070D01*
X276523Y-30144D01*
X276574Y-30222D01*
X276579Y-30227D01*
X276588Y-30241D01*
X276597Y-30268D01*
X276616Y-30301D01*
X276634Y-30342D01*
X276658Y-30398D01*
X276685Y-30458D01*
X276708Y-30523D01*
X276731Y-30601D01*
X276759Y-30684D01*
X276782Y-30772D01*
X276801Y-30869D01*
X276819Y-30971D01*
X276833Y-31077D01*
X276838Y-31188D01*
X276842Y-31308D01*
Y-31313D01*
Y-31317D01*
Y-31345D01*
X276838Y-31391D01*
Y-31451D01*
X276829Y-31520D01*
X276819Y-31608D01*
X276805Y-31701D01*
X276787Y-31802D01*
X276764Y-31909D01*
X276736Y-32024D01*
X276699Y-32140D01*
X276658Y-32255D01*
X276607Y-32370D01*
X276547Y-32486D01*
X276482Y-32592D01*
X276403Y-32699D01*
X276399Y-32703D01*
X276385Y-32722D01*
X276357Y-32749D01*
X276320Y-32782D01*
X276270Y-32823D01*
X276209Y-32869D01*
X276135Y-32916D01*
X276052Y-32967D01*
X275955Y-33017D01*
X275844Y-33064D01*
X275724Y-33110D01*
X275586Y-33151D01*
X275438Y-33184D01*
X275272Y-33211D01*
X275096Y-33230D01*
X274902Y-33234D01*
X273581D01*
Y-35803D01*
X272897D01*
Y-29492D01*
X274953D01*
X275013Y-29497D01*
D02*
G37*
G36*
X272208Y-30236D02*
X270495D01*
Y-35803D01*
X269811D01*
Y-30236D01*
X268106D01*
Y-29492D01*
X272208D01*
Y-30236D01*
D02*
G37*
G36*
X261680Y-35803D02*
X260954D01*
Y-34921D01*
X261680D01*
Y-35803D01*
D02*
G37*
G36*
X259231Y-33581D02*
X259933D01*
Y-34292D01*
X259231D01*
Y-35803D01*
X258593D01*
Y-34292D01*
X256353D01*
Y-33581D01*
X258709Y-29492D01*
X259231D01*
Y-33581D01*
D02*
G37*
G36*
X248679Y-31137D02*
X248730Y-31142D01*
X248794Y-31151D01*
X248868Y-31165D01*
X248951Y-31183D01*
X249044Y-31206D01*
X249141Y-31239D01*
X249238Y-31280D01*
X249344Y-31331D01*
X249450Y-31386D01*
X249557Y-31456D01*
X249658Y-31539D01*
X249760Y-31631D01*
X249857Y-31738D01*
X249862Y-31742D01*
X249880Y-31765D01*
X249903Y-31802D01*
X249935Y-31848D01*
X249972Y-31913D01*
X250019Y-31987D01*
X250060Y-32075D01*
X250111Y-32181D01*
X250157Y-32297D01*
X250203Y-32426D01*
X250245Y-32569D01*
X250282Y-32722D01*
X250314Y-32893D01*
X250337Y-33073D01*
X250356Y-33267D01*
X250360Y-33475D01*
Y-33479D01*
Y-33489D01*
Y-33507D01*
Y-33530D01*
Y-33558D01*
X250356Y-33590D01*
Y-33632D01*
X250351Y-33678D01*
X250347Y-33780D01*
X250333Y-33895D01*
X250319Y-34025D01*
X250300Y-34168D01*
X250273Y-34315D01*
X250240Y-34463D01*
X250199Y-34616D01*
X250148Y-34768D01*
X250093Y-34916D01*
X250028Y-35059D01*
X249949Y-35189D01*
X249862Y-35309D01*
X249857Y-35313D01*
X249838Y-35337D01*
X249811Y-35364D01*
X249774Y-35401D01*
X249723Y-35447D01*
X249663Y-35498D01*
X249598Y-35554D01*
X249520Y-35609D01*
X249432Y-35665D01*
X249340Y-35720D01*
X249233Y-35771D01*
X249122Y-35817D01*
X249002Y-35854D01*
X248878Y-35882D01*
X248744Y-35905D01*
X248605Y-35909D01*
X248573D01*
X248531Y-35905D01*
X248480Y-35900D01*
X248415Y-35891D01*
X248342Y-35877D01*
X248258Y-35859D01*
X248166Y-35835D01*
X248069Y-35803D01*
X247967Y-35762D01*
X247861Y-35715D01*
X247759Y-35655D01*
X247653Y-35586D01*
X247547Y-35508D01*
X247445Y-35415D01*
X247348Y-35309D01*
X247344Y-35300D01*
X247325Y-35281D01*
X247302Y-35244D01*
X247270Y-35193D01*
X247233Y-35133D01*
X247191Y-35055D01*
X247145Y-34962D01*
X247099Y-34856D01*
X247053Y-34741D01*
X247006Y-34607D01*
X246965Y-34459D01*
X246928Y-34297D01*
X246896Y-34126D01*
X246872Y-33937D01*
X246854Y-33738D01*
X246849Y-33521D01*
Y-33516D01*
Y-33507D01*
Y-33493D01*
Y-33470D01*
Y-33442D01*
X246854Y-33405D01*
Y-33368D01*
X246859Y-33327D01*
X246863Y-33230D01*
X246877Y-33114D01*
X246891Y-32990D01*
X246909Y-32856D01*
X246937Y-32712D01*
X246969Y-32564D01*
X247011Y-32417D01*
X247057Y-32269D01*
X247113Y-32126D01*
X247182Y-31987D01*
X247256Y-31858D01*
X247344Y-31738D01*
X247348Y-31728D01*
X247367Y-31710D01*
X247394Y-31682D01*
X247431Y-31640D01*
X247482Y-31599D01*
X247542Y-31548D01*
X247612Y-31493D01*
X247690Y-31433D01*
X247773Y-31377D01*
X247870Y-31322D01*
X247977Y-31271D01*
X248087Y-31225D01*
X248208Y-31188D01*
X248332Y-31160D01*
X248466Y-31137D01*
X248605Y-31132D01*
X248637D01*
X248679Y-31137D01*
D02*
G37*
G36*
X243052D02*
X243103Y-31142D01*
X243167Y-31151D01*
X243241Y-31165D01*
X243324Y-31183D01*
X243417Y-31206D01*
X243514Y-31239D01*
X243611Y-31280D01*
X243717Y-31331D01*
X243823Y-31386D01*
X243929Y-31456D01*
X244031Y-31539D01*
X244133Y-31631D01*
X244230Y-31738D01*
X244234Y-31742D01*
X244253Y-31765D01*
X244276Y-31802D01*
X244308Y-31848D01*
X244345Y-31913D01*
X244391Y-31987D01*
X244433Y-32075D01*
X244484Y-32181D01*
X244530Y-32297D01*
X244576Y-32426D01*
X244618Y-32569D01*
X244655Y-32722D01*
X244687Y-32893D01*
X244710Y-33073D01*
X244729Y-33267D01*
X244733Y-33475D01*
Y-33479D01*
Y-33489D01*
Y-33507D01*
Y-33530D01*
Y-33558D01*
X244729Y-33590D01*
Y-33632D01*
X244724Y-33678D01*
X244720Y-33780D01*
X244706Y-33895D01*
X244692Y-34025D01*
X244673Y-34168D01*
X244646Y-34315D01*
X244613Y-34463D01*
X244572Y-34616D01*
X244521Y-34768D01*
X244465Y-34916D01*
X244401Y-35059D01*
X244322Y-35189D01*
X244234Y-35309D01*
X244230Y-35313D01*
X244211Y-35337D01*
X244184Y-35364D01*
X244147Y-35401D01*
X244096Y-35447D01*
X244036Y-35498D01*
X243971Y-35554D01*
X243893Y-35609D01*
X243805Y-35665D01*
X243712Y-35720D01*
X243606Y-35771D01*
X243495Y-35817D01*
X243375Y-35854D01*
X243250Y-35882D01*
X243116Y-35905D01*
X242978Y-35909D01*
X242945D01*
X242904Y-35905D01*
X242853Y-35900D01*
X242788Y-35891D01*
X242714Y-35877D01*
X242631Y-35859D01*
X242539Y-35835D01*
X242442Y-35803D01*
X242340Y-35762D01*
X242234Y-35715D01*
X242132Y-35655D01*
X242026Y-35586D01*
X241920Y-35508D01*
X241818Y-35415D01*
X241721Y-35309D01*
X241717Y-35300D01*
X241698Y-35281D01*
X241675Y-35244D01*
X241642Y-35193D01*
X241606Y-35133D01*
X241564Y-35055D01*
X241518Y-34962D01*
X241472Y-34856D01*
X241425Y-34741D01*
X241379Y-34607D01*
X241338Y-34459D01*
X241301Y-34297D01*
X241268Y-34126D01*
X241245Y-33937D01*
X241227Y-33738D01*
X241222Y-33521D01*
Y-33516D01*
Y-33507D01*
Y-33493D01*
Y-33470D01*
Y-33442D01*
X241227Y-33405D01*
Y-33368D01*
X241231Y-33327D01*
X241236Y-33230D01*
X241250Y-33114D01*
X241264Y-32990D01*
X241282Y-32856D01*
X241310Y-32712D01*
X241342Y-32564D01*
X241384Y-32417D01*
X241430Y-32269D01*
X241486Y-32126D01*
X241555Y-31987D01*
X241629Y-31858D01*
X241717Y-31738D01*
X241721Y-31728D01*
X241740Y-31710D01*
X241767Y-31682D01*
X241804Y-31640D01*
X241855Y-31599D01*
X241915Y-31548D01*
X241984Y-31493D01*
X242063Y-31433D01*
X242146Y-31377D01*
X242243Y-31322D01*
X242349Y-31271D01*
X242460Y-31225D01*
X242580Y-31188D01*
X242705Y-31160D01*
X242839Y-31137D01*
X242978Y-31132D01*
X243010D01*
X243052Y-31137D01*
D02*
G37*
G36*
X246110Y-36048D02*
Y-36053D01*
Y-36057D01*
Y-36071D01*
Y-36090D01*
Y-36136D01*
X246106Y-36200D01*
X246101Y-36274D01*
X246096Y-36362D01*
X246092Y-36455D01*
X246082Y-36556D01*
X246050Y-36769D01*
X246032Y-36875D01*
X246008Y-36977D01*
X245981Y-37074D01*
X245948Y-37166D01*
X245911Y-37249D01*
X245870Y-37319D01*
X245865Y-37323D01*
X245861Y-37332D01*
X245847Y-37351D01*
X245824Y-37369D01*
X245801Y-37397D01*
X245768Y-37425D01*
X245736Y-37457D01*
X245694Y-37485D01*
X245648Y-37517D01*
X245593Y-37549D01*
X245537Y-37577D01*
X245473Y-37605D01*
X245408Y-37623D01*
X245334Y-37642D01*
X245255Y-37651D01*
X245172Y-37656D01*
X245131D01*
X245080Y-37651D01*
X245015Y-37646D01*
X244937Y-37637D01*
X244853Y-37619D01*
X244766Y-37600D01*
X244673Y-37573D01*
X244793Y-36912D01*
X244803Y-36917D01*
X244826Y-36921D01*
X244858Y-36930D01*
X244900Y-36944D01*
X244951Y-36958D01*
X244997Y-36967D01*
X245047Y-36972D01*
X245089Y-36977D01*
X245098D01*
X245121Y-36972D01*
X245158Y-36967D01*
X245200Y-36958D01*
X245246Y-36935D01*
X245297Y-36907D01*
X245343Y-36870D01*
X245380Y-36815D01*
X245385Y-36806D01*
X245389Y-36796D01*
X245394Y-36783D01*
X245403Y-36759D01*
X245412Y-36732D01*
X245422Y-36699D01*
X245431Y-36658D01*
X245436Y-36612D01*
X245445Y-36556D01*
X245454Y-36492D01*
X245463Y-36418D01*
X245468Y-36339D01*
X245473Y-36247D01*
X245477Y-36145D01*
Y-36034D01*
Y-31234D01*
X246110D01*
Y-36048D01*
D02*
G37*
G36*
X245976Y-21137D02*
X246013Y-21142D01*
X246059Y-21146D01*
X246110Y-21155D01*
X246165Y-21165D01*
X246290Y-21197D01*
X246355Y-21215D01*
X246424Y-21243D01*
X246494Y-21276D01*
X246563Y-21308D01*
X246627Y-21350D01*
X246697Y-21396D01*
X246702Y-21400D01*
X246711Y-21409D01*
X246734Y-21423D01*
X246757Y-21447D01*
X246789Y-21474D01*
X246822Y-21507D01*
X246863Y-21548D01*
X246905Y-21594D01*
X246951Y-21645D01*
X246997Y-21705D01*
X247043Y-21770D01*
X247094Y-21844D01*
X247140Y-21922D01*
X247186Y-22005D01*
X247233Y-22098D01*
X247274Y-22195D01*
X247279Y-22199D01*
X247284Y-22218D01*
X247293Y-22250D01*
X247307Y-22292D01*
X247325Y-22343D01*
X247344Y-22403D01*
X247362Y-22477D01*
X247385Y-22555D01*
X247404Y-22648D01*
X247422Y-22745D01*
X247441Y-22851D01*
X247459Y-22966D01*
X247473Y-23087D01*
X247482Y-23211D01*
X247492Y-23345D01*
Y-23484D01*
Y-23489D01*
Y-23498D01*
Y-23512D01*
Y-23535D01*
Y-23562D01*
X247487Y-23595D01*
Y-23632D01*
X247482Y-23678D01*
X247478Y-23775D01*
X247464Y-23886D01*
X247450Y-24011D01*
X247431Y-24145D01*
X247404Y-24288D01*
X247371Y-24436D01*
X247334Y-24584D01*
X247284Y-24736D01*
X247228Y-24884D01*
X247164Y-25022D01*
X247090Y-25156D01*
X247002Y-25281D01*
X246997Y-25286D01*
X246979Y-25309D01*
X246951Y-25341D01*
X246914Y-25378D01*
X246868Y-25429D01*
X246812Y-25480D01*
X246748Y-25535D01*
X246674Y-25595D01*
X246595Y-25655D01*
X246507Y-25711D01*
X246410Y-25762D01*
X246313Y-25812D01*
X246207Y-25849D01*
X246092Y-25882D01*
X245976Y-25900D01*
X245856Y-25909D01*
X245828D01*
X245805Y-25905D01*
X245782D01*
X245750Y-25900D01*
X245676Y-25891D01*
X245593Y-25872D01*
X245500Y-25845D01*
X245403Y-25812D01*
X245306Y-25762D01*
X245302D01*
X245297Y-25752D01*
X245283Y-25748D01*
X245265Y-25734D01*
X245218Y-25697D01*
X245158Y-25651D01*
X245089Y-25591D01*
X245020Y-25517D01*
X244946Y-25433D01*
X244872Y-25337D01*
Y-27554D01*
X244239D01*
Y-21234D01*
X244826D01*
Y-21830D01*
X244830Y-21825D01*
X244835Y-21812D01*
X244849Y-21793D01*
X244863Y-21770D01*
X244881Y-21737D01*
X244909Y-21705D01*
X244964Y-21627D01*
X245034Y-21539D01*
X245112Y-21451D01*
X245205Y-21368D01*
X245251Y-21331D01*
X245297Y-21299D01*
X245302D01*
X245311Y-21289D01*
X245325Y-21285D01*
X245343Y-21271D01*
X245371Y-21262D01*
X245399Y-21248D01*
X245473Y-21215D01*
X245560Y-21183D01*
X245662Y-21160D01*
X245777Y-21142D01*
X245902Y-21132D01*
X245944D01*
X245976Y-21137D01*
D02*
G37*
G36*
X260478D02*
X260520Y-21142D01*
X260571Y-21146D01*
X260622Y-21151D01*
X260737Y-21169D01*
X260862Y-21197D01*
X260986Y-21234D01*
X261107Y-21285D01*
X261111D01*
X261121Y-21289D01*
X261139Y-21299D01*
X261157Y-21313D01*
X261185Y-21326D01*
X261217Y-21345D01*
X261287Y-21391D01*
X261365Y-21451D01*
X261444Y-21520D01*
X261522Y-21599D01*
X261592Y-21691D01*
Y-21696D01*
X261601Y-21705D01*
X261610Y-21719D01*
X261619Y-21737D01*
X261633Y-21765D01*
X261647Y-21798D01*
X261666Y-21835D01*
X261684Y-21876D01*
X261703Y-21927D01*
X261726Y-21978D01*
X261744Y-22038D01*
X261763Y-22103D01*
X261781Y-22176D01*
X261800Y-22250D01*
X261813Y-22329D01*
X261827Y-22417D01*
X261208Y-22518D01*
Y-22509D01*
X261204Y-22486D01*
X261194Y-22449D01*
X261185Y-22403D01*
X261167Y-22343D01*
X261144Y-22283D01*
X261111Y-22213D01*
X261074Y-22144D01*
X261028Y-22075D01*
X260968Y-22005D01*
X260903Y-21945D01*
X260825Y-21885D01*
X260737Y-21839D01*
X260635Y-21802D01*
X260520Y-21779D01*
X260390Y-21770D01*
X260349D01*
X260321Y-21775D01*
X260289D01*
X260247Y-21779D01*
X260159Y-21788D01*
X260058Y-21812D01*
X259956Y-21839D01*
X259855Y-21881D01*
X259813Y-21908D01*
X259771Y-21936D01*
X259762Y-21945D01*
X259739Y-21964D01*
X259707Y-22001D01*
X259674Y-22052D01*
X259637Y-22112D01*
X259605Y-22186D01*
X259582Y-22269D01*
X259577Y-22315D01*
X259573Y-22361D01*
Y-22366D01*
Y-22370D01*
Y-22384D01*
X259577Y-22403D01*
X259582Y-22449D01*
X259596Y-22504D01*
X259619Y-22569D01*
X259656Y-22634D01*
X259702Y-22698D01*
X259767Y-22759D01*
X259771Y-22763D01*
X259781Y-22768D01*
X259794Y-22777D01*
X259813Y-22786D01*
X259836Y-22795D01*
X259864Y-22809D01*
X259896Y-22823D01*
X259938Y-22842D01*
X259989Y-22865D01*
X260044Y-22888D01*
X260109Y-22911D01*
X260183Y-22939D01*
X260266Y-22966D01*
X260358Y-22999D01*
X260460Y-23031D01*
X260464D01*
X260469Y-23036D01*
X260492Y-23040D01*
X260534Y-23054D01*
X260589Y-23073D01*
X260649Y-23091D01*
X260723Y-23119D01*
X260802Y-23147D01*
X260885Y-23174D01*
X261056Y-23239D01*
X261144Y-23271D01*
X261222Y-23304D01*
X261301Y-23336D01*
X261370Y-23368D01*
X261430Y-23401D01*
X261481Y-23428D01*
X261485D01*
X261490Y-23433D01*
X261518Y-23456D01*
X261559Y-23489D01*
X261615Y-23535D01*
X261670Y-23595D01*
X261730Y-23664D01*
X261790Y-23743D01*
X261841Y-23835D01*
Y-23840D01*
X261846Y-23844D01*
X261855Y-23863D01*
X261860Y-23881D01*
X261874Y-23904D01*
X261883Y-23932D01*
X261906Y-24006D01*
X261929Y-24094D01*
X261952Y-24200D01*
X261966Y-24316D01*
X261971Y-24445D01*
Y-24454D01*
Y-24473D01*
X261966Y-24509D01*
Y-24556D01*
X261957Y-24611D01*
X261947Y-24676D01*
X261934Y-24745D01*
X261920Y-24824D01*
X261897Y-24907D01*
X261869Y-24995D01*
X261837Y-25082D01*
X261795Y-25170D01*
X261749Y-25258D01*
X261693Y-25346D01*
X261629Y-25429D01*
X261555Y-25508D01*
X261550Y-25512D01*
X261536Y-25526D01*
X261513Y-25544D01*
X261481Y-25572D01*
X261435Y-25600D01*
X261384Y-25632D01*
X261324Y-25669D01*
X261259Y-25706D01*
X261180Y-25748D01*
X261093Y-25780D01*
X261000Y-25817D01*
X260899Y-25845D01*
X260792Y-25872D01*
X260672Y-25891D01*
X260552Y-25905D01*
X260418Y-25909D01*
X260386D01*
X260358Y-25905D01*
X260331D01*
X260294Y-25900D01*
X260252Y-25896D01*
X260206Y-25886D01*
X260099Y-25863D01*
X259979Y-25831D01*
X259850Y-25785D01*
X259716Y-25725D01*
X259647Y-25688D01*
X259582Y-25646D01*
X259513Y-25600D01*
X259443Y-25549D01*
X259379Y-25494D01*
X259314Y-25429D01*
X259249Y-25364D01*
X259189Y-25286D01*
X259134Y-25207D01*
X259078Y-25119D01*
X259032Y-25022D01*
X258986Y-24921D01*
X258945Y-24814D01*
X258908Y-24694D01*
X258880Y-24570D01*
X258857Y-24436D01*
X259490Y-24316D01*
Y-24320D01*
X259494Y-24339D01*
Y-24362D01*
X259504Y-24394D01*
X259508Y-24436D01*
X259522Y-24482D01*
X259531Y-24533D01*
X259550Y-24588D01*
X259587Y-24704D01*
X259642Y-24824D01*
X259707Y-24939D01*
X259748Y-24990D01*
X259790Y-25036D01*
X259794Y-25041D01*
X259804Y-25045D01*
X259818Y-25059D01*
X259836Y-25073D01*
X259859Y-25092D01*
X259892Y-25110D01*
X259928Y-25133D01*
X259965Y-25152D01*
X260012Y-25175D01*
X260063Y-25198D01*
X260118Y-25216D01*
X260178Y-25235D01*
X260307Y-25263D01*
X260381Y-25267D01*
X260455Y-25272D01*
X260497D01*
X260525Y-25267D01*
X260557D01*
X260598Y-25263D01*
X260691Y-25244D01*
X260792Y-25221D01*
X260899Y-25184D01*
X261000Y-25133D01*
X261047Y-25106D01*
X261093Y-25069D01*
X261097Y-25064D01*
X261102Y-25059D01*
X261130Y-25032D01*
X261167Y-24985D01*
X261208Y-24925D01*
X261250Y-24851D01*
X261282Y-24764D01*
X261310Y-24662D01*
X261315Y-24607D01*
X261319Y-24551D01*
Y-24546D01*
Y-24537D01*
Y-24523D01*
X261315Y-24505D01*
X261310Y-24459D01*
X261296Y-24394D01*
X261273Y-24329D01*
X261236Y-24260D01*
X261190Y-24191D01*
X261125Y-24131D01*
X261121Y-24126D01*
X261097Y-24112D01*
X261079Y-24103D01*
X261056Y-24089D01*
X261028Y-24075D01*
X260996Y-24057D01*
X260954Y-24038D01*
X260908Y-24020D01*
X260857Y-24001D01*
X260797Y-23978D01*
X260728Y-23950D01*
X260654Y-23927D01*
X260571Y-23900D01*
X260478Y-23872D01*
X260469Y-23867D01*
X260446Y-23863D01*
X260409Y-23849D01*
X260358Y-23835D01*
X260298Y-23817D01*
X260233Y-23794D01*
X260155Y-23766D01*
X260076Y-23738D01*
X259910Y-23678D01*
X259748Y-23613D01*
X259670Y-23581D01*
X259600Y-23549D01*
X259540Y-23521D01*
X259485Y-23489D01*
X259480D01*
X259476Y-23479D01*
X259462Y-23470D01*
X259443Y-23461D01*
X259397Y-23424D01*
X259342Y-23373D01*
X259282Y-23313D01*
X259217Y-23239D01*
X259152Y-23156D01*
X259097Y-23059D01*
Y-23054D01*
X259092Y-23045D01*
X259083Y-23031D01*
X259078Y-23013D01*
X259065Y-22985D01*
X259055Y-22957D01*
X259032Y-22883D01*
X259004Y-22791D01*
X258986Y-22689D01*
X258967Y-22578D01*
X258963Y-22454D01*
Y-22449D01*
Y-22426D01*
X258967Y-22398D01*
Y-22357D01*
X258977Y-22306D01*
X258981Y-22250D01*
X258995Y-22186D01*
X259009Y-22116D01*
X259028Y-22042D01*
X259055Y-21964D01*
X259083Y-21885D01*
X259120Y-21802D01*
X259162Y-21724D01*
X259212Y-21650D01*
X259273Y-21571D01*
X259337Y-21502D01*
X259342Y-21497D01*
X259356Y-21488D01*
X259374Y-21470D01*
X259406Y-21442D01*
X259443Y-21414D01*
X259490Y-21386D01*
X259545Y-21350D01*
X259605Y-21317D01*
X259679Y-21285D01*
X259753Y-21248D01*
X259841Y-21220D01*
X259933Y-21188D01*
X260030Y-21165D01*
X260136Y-21146D01*
X260252Y-21137D01*
X260372Y-21132D01*
X260441D01*
X260478Y-21137D01*
D02*
G37*
G36*
X256773D02*
X256824D01*
X256879Y-21142D01*
X256944Y-21151D01*
X257013Y-21160D01*
X257161Y-21188D01*
X257314Y-21225D01*
X257466Y-21280D01*
X257535Y-21317D01*
X257600Y-21354D01*
X257605Y-21359D01*
X257614Y-21363D01*
X257632Y-21377D01*
X257656Y-21396D01*
X257711Y-21442D01*
X257780Y-21507D01*
X257854Y-21585D01*
X257923Y-21678D01*
X257983Y-21784D01*
X258007Y-21844D01*
X258025Y-21904D01*
Y-21908D01*
X258030Y-21918D01*
X258034Y-21936D01*
X258039Y-21964D01*
X258048Y-22001D01*
X258053Y-22042D01*
X258062Y-22089D01*
X258071Y-22144D01*
X258081Y-22209D01*
X258090Y-22283D01*
X258094Y-22361D01*
X258104Y-22444D01*
X258108Y-22537D01*
X258113Y-22638D01*
X258118Y-22745D01*
Y-22860D01*
Y-23890D01*
Y-23895D01*
Y-23904D01*
Y-23918D01*
Y-23937D01*
Y-23964D01*
Y-23992D01*
Y-24066D01*
Y-24149D01*
Y-24251D01*
X258122Y-24357D01*
Y-24468D01*
X258127Y-24704D01*
X258131Y-24814D01*
Y-24925D01*
X258136Y-25027D01*
X258141Y-25119D01*
X258150Y-25198D01*
Y-25230D01*
X258154Y-25258D01*
Y-25263D01*
Y-25272D01*
X258159Y-25286D01*
X258164Y-25304D01*
X258168Y-25332D01*
X258173Y-25360D01*
X258191Y-25433D01*
X258214Y-25517D01*
X258242Y-25605D01*
X258279Y-25706D01*
X258321Y-25803D01*
X257660D01*
Y-25798D01*
X257656Y-25794D01*
X257651Y-25780D01*
X257642Y-25762D01*
X257637Y-25738D01*
X257623Y-25711D01*
X257605Y-25646D01*
X257582Y-25563D01*
X257558Y-25471D01*
X257540Y-25364D01*
X257526Y-25244D01*
X257522Y-25249D01*
X257512Y-25258D01*
X257494Y-25276D01*
X257471Y-25300D01*
X257443Y-25327D01*
X257406Y-25360D01*
X257369Y-25392D01*
X257323Y-25429D01*
X257226Y-25512D01*
X257110Y-25595D01*
X256990Y-25674D01*
X256861Y-25743D01*
X256856D01*
X256847Y-25752D01*
X256828Y-25757D01*
X256801Y-25771D01*
X256768Y-25780D01*
X256732Y-25794D01*
X256690Y-25812D01*
X256644Y-25826D01*
X256533Y-25859D01*
X256413Y-25882D01*
X256283Y-25900D01*
X256145Y-25909D01*
X256117D01*
X256089Y-25905D01*
X256048D01*
X255997Y-25900D01*
X255941Y-25891D01*
X255877Y-25882D01*
X255807Y-25863D01*
X255734Y-25845D01*
X255660Y-25822D01*
X255581Y-25794D01*
X255503Y-25762D01*
X255429Y-25720D01*
X255350Y-25674D01*
X255281Y-25618D01*
X255211Y-25558D01*
X255207Y-25554D01*
X255198Y-25540D01*
X255179Y-25521D01*
X255156Y-25494D01*
X255133Y-25457D01*
X255101Y-25415D01*
X255073Y-25364D01*
X255041Y-25309D01*
X255008Y-25244D01*
X254976Y-25170D01*
X254943Y-25092D01*
X254920Y-25008D01*
X254897Y-24916D01*
X254879Y-24819D01*
X254870Y-24717D01*
X254865Y-24607D01*
Y-24602D01*
Y-24588D01*
Y-24570D01*
X254870Y-24537D01*
Y-24505D01*
X254874Y-24463D01*
X254879Y-24417D01*
X254884Y-24371D01*
X254907Y-24260D01*
X254934Y-24145D01*
X254971Y-24020D01*
X255027Y-23904D01*
Y-23900D01*
X255036Y-23890D01*
X255045Y-23877D01*
X255054Y-23854D01*
X255091Y-23798D01*
X255142Y-23729D01*
X255207Y-23655D01*
X255281Y-23576D01*
X255369Y-23498D01*
X255470Y-23428D01*
X255475D01*
X255484Y-23419D01*
X255503Y-23410D01*
X255526Y-23401D01*
X255553Y-23387D01*
X255590Y-23368D01*
X255637Y-23350D01*
X255687Y-23332D01*
X255743Y-23308D01*
X255807Y-23290D01*
X255877Y-23267D01*
X255955Y-23244D01*
X256038Y-23225D01*
X256131Y-23207D01*
X256228Y-23188D01*
X256334Y-23170D01*
X256343D01*
X256366Y-23165D01*
X256408Y-23160D01*
X256464Y-23151D01*
X256524Y-23137D01*
X256597Y-23128D01*
X256681Y-23110D01*
X256768Y-23096D01*
X256953Y-23054D01*
X257143Y-23008D01*
X257235Y-22985D01*
X257323Y-22957D01*
X257401Y-22930D01*
X257475Y-22902D01*
X257480Y-22708D01*
Y-22703D01*
Y-22689D01*
Y-22661D01*
X257475Y-22629D01*
Y-22592D01*
X257471Y-22551D01*
X257457Y-22449D01*
X257438Y-22338D01*
X257406Y-22232D01*
X257364Y-22130D01*
X257341Y-22084D01*
X257309Y-22047D01*
X257304Y-22042D01*
X257300Y-22033D01*
X257286Y-22019D01*
X257263Y-22005D01*
X257240Y-21982D01*
X257207Y-21959D01*
X257170Y-21936D01*
X257129Y-21908D01*
X257083Y-21881D01*
X257027Y-21858D01*
X256967Y-21835D01*
X256902Y-21812D01*
X256828Y-21798D01*
X256755Y-21784D01*
X256667Y-21775D01*
X256579Y-21770D01*
X256537D01*
X256505Y-21775D01*
X256468D01*
X256427Y-21779D01*
X256329Y-21793D01*
X256223Y-21816D01*
X256112Y-21848D01*
X256006Y-21895D01*
X255960Y-21922D01*
X255914Y-21955D01*
X255909D01*
X255905Y-21964D01*
X255895Y-21973D01*
X255877Y-21992D01*
X255858Y-22015D01*
X255840Y-22038D01*
X255817Y-22070D01*
X255794Y-22112D01*
X255766Y-22153D01*
X255743Y-22204D01*
X255715Y-22260D01*
X255687Y-22324D01*
X255664Y-22394D01*
X255637Y-22467D01*
X255613Y-22551D01*
X255595Y-22643D01*
X254971Y-22541D01*
Y-22532D01*
X254976Y-22509D01*
X254985Y-22472D01*
X254999Y-22421D01*
X255013Y-22361D01*
X255036Y-22292D01*
X255059Y-22213D01*
X255087Y-22130D01*
X255119Y-22047D01*
X255161Y-21955D01*
X255202Y-21867D01*
X255253Y-21779D01*
X255309Y-21691D01*
X255369Y-21613D01*
X255433Y-21539D01*
X255507Y-21470D01*
X255512Y-21465D01*
X255526Y-21456D01*
X255549Y-21437D01*
X255586Y-21419D01*
X255627Y-21391D01*
X255678Y-21363D01*
X255738Y-21331D01*
X255807Y-21299D01*
X255886Y-21271D01*
X255974Y-21239D01*
X256071Y-21211D01*
X256172Y-21183D01*
X256288Y-21165D01*
X256408Y-21146D01*
X256537Y-21137D01*
X256676Y-21132D01*
X256732D01*
X256773Y-21137D01*
D02*
G37*
G36*
X252467Y-19497D02*
X252532D01*
X252606Y-19501D01*
X252680Y-19506D01*
X252846Y-19525D01*
X253017Y-19543D01*
X253096Y-19557D01*
X253174Y-19575D01*
X253248Y-19594D01*
X253313Y-19617D01*
X253317D01*
X253331Y-19626D01*
X253354Y-19636D01*
X253387Y-19649D01*
X253424Y-19668D01*
X253470Y-19691D01*
X253516Y-19719D01*
X253571Y-19751D01*
X253627Y-19793D01*
X253687Y-19834D01*
X253742Y-19885D01*
X253802Y-19940D01*
X253862Y-20000D01*
X253923Y-20070D01*
X253978Y-20144D01*
X254029Y-20222D01*
X254033Y-20227D01*
X254043Y-20241D01*
X254052Y-20268D01*
X254070Y-20301D01*
X254089Y-20342D01*
X254112Y-20398D01*
X254140Y-20458D01*
X254163Y-20523D01*
X254186Y-20601D01*
X254214Y-20684D01*
X254237Y-20772D01*
X254255Y-20869D01*
X254274Y-20971D01*
X254288Y-21077D01*
X254292Y-21188D01*
X254297Y-21308D01*
Y-21313D01*
Y-21317D01*
Y-21345D01*
X254292Y-21391D01*
Y-21451D01*
X254283Y-21520D01*
X254274Y-21608D01*
X254260Y-21701D01*
X254241Y-21802D01*
X254218Y-21908D01*
X254190Y-22024D01*
X254153Y-22140D01*
X254112Y-22255D01*
X254061Y-22370D01*
X254001Y-22486D01*
X253936Y-22592D01*
X253858Y-22698D01*
X253853Y-22703D01*
X253839Y-22722D01*
X253812Y-22749D01*
X253775Y-22782D01*
X253724Y-22823D01*
X253664Y-22870D01*
X253590Y-22916D01*
X253507Y-22966D01*
X253410Y-23017D01*
X253299Y-23064D01*
X253179Y-23110D01*
X253040Y-23151D01*
X252892Y-23184D01*
X252726Y-23211D01*
X252550Y-23230D01*
X252356Y-23234D01*
X251035D01*
Y-25803D01*
X250351D01*
Y-19492D01*
X252407D01*
X252467Y-19497D01*
D02*
G37*
G36*
X239614Y-20236D02*
X237900D01*
Y-25803D01*
X237217D01*
Y-20236D01*
X235512D01*
Y-19492D01*
X239614D01*
Y-20236D01*
D02*
G37*
G36*
X263491Y-21234D02*
X264133Y-21234D01*
Y-21835D01*
X263491Y-21835D01*
Y-24509D01*
Y-24514D01*
Y-24523D01*
Y-24546D01*
Y-24570D01*
Y-24597D01*
X263495Y-24630D01*
X263500Y-24708D01*
X263504Y-24787D01*
X263514Y-24865D01*
X263527Y-24935D01*
X263537Y-24962D01*
X263546Y-24985D01*
X263551Y-24990D01*
X263560Y-25008D01*
X263583Y-25032D01*
X263615Y-25059D01*
X263657Y-25092D01*
X263708Y-25115D01*
X263772Y-25133D01*
X263851Y-25138D01*
X263893D01*
X263925Y-25133D01*
X263966D01*
X264013Y-25124D01*
X264073Y-25119D01*
X264133Y-25110D01*
X264220Y-25794D01*
X264216D01*
X264207Y-25798D01*
X264193D01*
X264174Y-25803D01*
X264128Y-25817D01*
X264063Y-25826D01*
X263989Y-25840D01*
X263911Y-25854D01*
X263828Y-25859D01*
X263745Y-25863D01*
X263689D01*
X263662Y-25859D01*
X263629Y-25854D01*
X263555Y-25845D01*
X263467Y-25831D01*
X263380Y-25808D01*
X263292Y-25775D01*
X263209Y-25734D01*
X263199Y-25729D01*
X263176Y-25711D01*
X263139Y-25683D01*
X263098Y-25641D01*
X263052Y-25591D01*
X263005Y-25531D01*
X262964Y-25457D01*
X262931Y-25378D01*
Y-25374D01*
X262927Y-25369D01*
Y-25350D01*
X262922Y-25332D01*
X262913Y-25304D01*
X262908Y-25267D01*
X262904Y-25226D01*
X262895Y-25179D01*
X262890Y-25119D01*
X262881Y-25055D01*
X262876Y-24981D01*
X262872Y-24898D01*
X262867Y-24805D01*
X262862Y-24704D01*
X262858Y-24588D01*
Y-24468D01*
Y-21835D01*
X262391D01*
Y-21234D01*
X262858D01*
Y-20102D01*
X263491Y-19636D01*
Y-21234D01*
D02*
G37*
G36*
X266336Y-21137D02*
X266387Y-21142D01*
X266452Y-21151D01*
X266521Y-21165D01*
X266604Y-21183D01*
X266692Y-21211D01*
X266785Y-21243D01*
X266882Y-21280D01*
X266983Y-21331D01*
X267085Y-21391D01*
X267186Y-21460D01*
X267288Y-21543D01*
X267385Y-21641D01*
X267478Y-21747D01*
X267482Y-21756D01*
X267501Y-21775D01*
X267524Y-21812D01*
X267551Y-21862D01*
X267588Y-21922D01*
X267630Y-22001D01*
X267676Y-22093D01*
X267722Y-22195D01*
X267764Y-22315D01*
X267810Y-22444D01*
X267852Y-22592D01*
X267889Y-22749D01*
X267916Y-22920D01*
X267944Y-23105D01*
X267958Y-23304D01*
X267963Y-23516D01*
Y-23720D01*
X265168D01*
Y-23729D01*
X265172Y-23752D01*
Y-23793D01*
X265177Y-23844D01*
X265186Y-23909D01*
X265195Y-23983D01*
X265209Y-24066D01*
X265228Y-24154D01*
X265269Y-24343D01*
X265297Y-24440D01*
X265329Y-24537D01*
X265371Y-24630D01*
X265412Y-24722D01*
X265463Y-24805D01*
X265519Y-24884D01*
X265523Y-24888D01*
X265533Y-24902D01*
X265551Y-24921D01*
X265574Y-24944D01*
X265606Y-24972D01*
X265643Y-25008D01*
X265685Y-25041D01*
X265736Y-25078D01*
X265791Y-25115D01*
X265847Y-25147D01*
X265911Y-25179D01*
X265981Y-25212D01*
X266055Y-25235D01*
X266128Y-25253D01*
X266212Y-25267D01*
X266295Y-25272D01*
X266327D01*
X266364Y-25267D01*
X266410Y-25258D01*
X266470Y-25244D01*
X266535Y-25221D01*
X266609Y-25193D01*
X266688Y-25156D01*
X266766Y-25106D01*
X266849Y-25041D01*
X266932Y-24967D01*
X267016Y-24874D01*
X267094Y-24768D01*
X267131Y-24708D01*
X267163Y-24644D01*
X267200Y-24574D01*
X267233Y-24500D01*
X267260Y-24417D01*
X267288Y-24334D01*
X267944Y-24431D01*
Y-24440D01*
X267935Y-24463D01*
X267926Y-24500D01*
X267912Y-24551D01*
X267893Y-24611D01*
X267870Y-24685D01*
X267843Y-24759D01*
X267806Y-24847D01*
X267769Y-24935D01*
X267727Y-25022D01*
X267676Y-25115D01*
X267621Y-25207D01*
X267561Y-25300D01*
X267496Y-25383D01*
X267427Y-25466D01*
X267348Y-25540D01*
X267344Y-25544D01*
X267330Y-25554D01*
X267307Y-25572D01*
X267274Y-25595D01*
X267233Y-25628D01*
X267182Y-25655D01*
X267122Y-25692D01*
X267057Y-25725D01*
X266983Y-25757D01*
X266905Y-25794D01*
X266817Y-25822D01*
X266724Y-25849D01*
X266623Y-25877D01*
X266517Y-25896D01*
X266406Y-25905D01*
X266290Y-25909D01*
X266253D01*
X266212Y-25905D01*
X266156Y-25900D01*
X266092Y-25891D01*
X266013Y-25877D01*
X265925Y-25859D01*
X265833Y-25835D01*
X265731Y-25803D01*
X265625Y-25762D01*
X265519Y-25715D01*
X265412Y-25655D01*
X265306Y-25586D01*
X265200Y-25508D01*
X265098Y-25415D01*
X265001Y-25309D01*
X264997Y-25300D01*
X264978Y-25281D01*
X264955Y-25244D01*
X264923Y-25198D01*
X264886Y-25133D01*
X264844Y-25055D01*
X264803Y-24967D01*
X264756Y-24865D01*
X264710Y-24745D01*
X264669Y-24616D01*
X264627Y-24473D01*
X264590Y-24316D01*
X264558Y-24149D01*
X264535Y-23964D01*
X264516Y-23770D01*
X264511Y-23562D01*
Y-23558D01*
Y-23549D01*
Y-23535D01*
Y-23512D01*
Y-23484D01*
X264516Y-23447D01*
Y-23410D01*
X264521Y-23368D01*
X264525Y-23267D01*
X264539Y-23156D01*
X264553Y-23031D01*
X264572Y-22893D01*
X264599Y-22749D01*
X264632Y-22602D01*
X264673Y-22449D01*
X264720Y-22301D01*
X264775Y-22153D01*
X264844Y-22015D01*
X264918Y-21881D01*
X265006Y-21756D01*
X265010Y-21747D01*
X265029Y-21728D01*
X265057Y-21701D01*
X265094Y-21659D01*
X265144Y-21613D01*
X265205Y-21557D01*
X265274Y-21502D01*
X265352Y-21442D01*
X265436Y-21386D01*
X265533Y-21331D01*
X265639Y-21275D01*
X265750Y-21229D01*
X265870Y-21188D01*
X265995Y-21160D01*
X266128Y-21137D01*
X266267Y-21132D01*
X266300D01*
X266336Y-21137D01*
D02*
G37*
G36*
X241804Y-21137D02*
X241855Y-21142D01*
X241920Y-21151D01*
X241994Y-21165D01*
X242077Y-21183D01*
X242169Y-21206D01*
X242266Y-21239D01*
X242363Y-21280D01*
X242470Y-21331D01*
X242576Y-21386D01*
X242682Y-21456D01*
X242784Y-21539D01*
X242885Y-21631D01*
X242982Y-21737D01*
X242987Y-21742D01*
X243005Y-21765D01*
X243028Y-21802D01*
X243061Y-21848D01*
X243098Y-21913D01*
X243144Y-21987D01*
X243186Y-22075D01*
X243236Y-22181D01*
X243283Y-22297D01*
X243329Y-22426D01*
X243370Y-22569D01*
X243407Y-22722D01*
X243440Y-22893D01*
X243463Y-23073D01*
X243481Y-23267D01*
X243486Y-23475D01*
Y-23479D01*
Y-23489D01*
Y-23507D01*
Y-23530D01*
Y-23558D01*
X243481Y-23590D01*
Y-23632D01*
X243477Y-23678D01*
X243472Y-23780D01*
X243458Y-23895D01*
X243444Y-24024D01*
X243426Y-24168D01*
X243398Y-24316D01*
X243366Y-24463D01*
X243324Y-24616D01*
X243273Y-24768D01*
X243218Y-24916D01*
X243153Y-25059D01*
X243075Y-25189D01*
X242987Y-25309D01*
X242982Y-25313D01*
X242964Y-25337D01*
X242936Y-25364D01*
X242899Y-25401D01*
X242848Y-25447D01*
X242788Y-25498D01*
X242724Y-25554D01*
X242645Y-25609D01*
X242557Y-25665D01*
X242465Y-25720D01*
X242359Y-25771D01*
X242248Y-25817D01*
X242128Y-25854D01*
X242003Y-25882D01*
X241869Y-25905D01*
X241730Y-25909D01*
X241698D01*
X241656Y-25905D01*
X241606Y-25900D01*
X241541Y-25891D01*
X241467Y-25877D01*
X241384Y-25859D01*
X241291Y-25835D01*
X241194Y-25803D01*
X241093Y-25762D01*
X240986Y-25715D01*
X240885Y-25655D01*
X240779Y-25586D01*
X240672Y-25508D01*
X240571Y-25415D01*
X240474Y-25309D01*
X240469Y-25300D01*
X240451Y-25281D01*
X240427Y-25244D01*
X240395Y-25193D01*
X240358Y-25133D01*
X240317Y-25055D01*
X240270Y-24962D01*
X240224Y-24856D01*
X240178Y-24740D01*
X240132Y-24607D01*
X240090Y-24459D01*
X240053Y-24297D01*
X240021Y-24126D01*
X239998Y-23937D01*
X239979Y-23738D01*
X239975Y-23521D01*
Y-23516D01*
Y-23507D01*
Y-23493D01*
Y-23470D01*
Y-23442D01*
X239979Y-23405D01*
Y-23368D01*
X239984Y-23327D01*
X239989Y-23230D01*
X240002Y-23114D01*
X240016Y-22990D01*
X240035Y-22856D01*
X240062Y-22712D01*
X240095Y-22565D01*
X240136Y-22417D01*
X240183Y-22269D01*
X240238Y-22126D01*
X240307Y-21987D01*
X240381Y-21858D01*
X240469Y-21737D01*
X240474Y-21728D01*
X240492Y-21710D01*
X240520Y-21682D01*
X240557Y-21641D01*
X240608Y-21599D01*
X240668Y-21548D01*
X240737Y-21493D01*
X240816Y-21433D01*
X240899Y-21377D01*
X240996Y-21322D01*
X241102Y-21271D01*
X241213Y-21225D01*
X241333Y-21188D01*
X241458Y-21160D01*
X241592Y-21137D01*
X241730Y-21132D01*
X241763D01*
X241804Y-21137D01*
D02*
G37*
G36*
X11148Y-35646D02*
X10552D01*
X9129Y-31076D01*
X9804D01*
X10608Y-33812D01*
Y-33816D01*
X10612Y-33830D01*
X10622Y-33858D01*
X10631Y-33890D01*
X10645Y-33932D01*
X10659Y-33983D01*
X10672Y-34038D01*
X10691Y-34103D01*
X10709Y-34167D01*
X10728Y-34241D01*
X10769Y-34398D01*
X10806Y-34560D01*
X10848Y-34731D01*
Y-34726D01*
X10853Y-34712D01*
X10857Y-34694D01*
X10862Y-34666D01*
X10871Y-34634D01*
X10880Y-34592D01*
X10894Y-34541D01*
X10908Y-34486D01*
X10922Y-34426D01*
X10940Y-34361D01*
X10959Y-34292D01*
X10982Y-34214D01*
X11005Y-34135D01*
X11028Y-34047D01*
X11079Y-33867D01*
X11920Y-31076D01*
X12571D01*
X11148Y-35646D01*
D02*
G37*
G36*
X15620Y-33424D02*
X16323D01*
Y-34135D01*
X15620D01*
Y-35646D01*
X14983D01*
Y-34135D01*
X12742D01*
Y-33424D01*
X15098Y-29335D01*
X15620D01*
Y-33424D01*
D02*
G37*
G36*
X19732Y-20393D02*
X19099D01*
Y-19492D01*
X19732D01*
Y-20393D01*
D02*
G37*
G36*
X14073Y-25803D02*
X13412D01*
Y-20523D01*
X11906Y-25803D01*
X11287D01*
X9794Y-20435D01*
Y-25803D01*
X9134D01*
Y-19492D01*
X10164D01*
X11388Y-23964D01*
X11633Y-24898D01*
Y-24893D01*
X11638Y-24879D01*
X11643Y-24861D01*
X11652Y-24833D01*
X11661Y-24796D01*
X11670Y-24750D01*
X11689Y-24699D01*
X11703Y-24639D01*
X11721Y-24570D01*
X11739Y-24496D01*
X11763Y-24412D01*
X11790Y-24325D01*
X11818Y-24223D01*
X11846Y-24117D01*
X11878Y-24006D01*
X11910Y-23886D01*
X13149Y-19492D01*
X14073D01*
Y-25803D01*
D02*
G37*
G36*
X34983D02*
X34345D01*
Y-20869D01*
X34341Y-20874D01*
X34336Y-20878D01*
X34322Y-20897D01*
X34304Y-20915D01*
X34280Y-20938D01*
X34257Y-20966D01*
X34188Y-21031D01*
X34105Y-21114D01*
X34003Y-21202D01*
X33888Y-21299D01*
X33754Y-21400D01*
X33749Y-21405D01*
X33735Y-21414D01*
X33717Y-21428D01*
X33689Y-21442D01*
X33657Y-21465D01*
X33620Y-21493D01*
X33578Y-21520D01*
X33532Y-21553D01*
X33426Y-21617D01*
X33310Y-21682D01*
X33195Y-21747D01*
X33075Y-21802D01*
Y-21054D01*
X33079Y-21049D01*
X33098Y-21040D01*
X33125Y-21021D01*
X33163Y-20998D01*
X33209Y-20971D01*
X33259Y-20934D01*
X33320Y-20897D01*
X33384Y-20851D01*
X33458Y-20800D01*
X33532Y-20744D01*
X33685Y-20615D01*
X33842Y-20476D01*
X33999Y-20319D01*
X34003Y-20315D01*
X34017Y-20301D01*
X34036Y-20278D01*
X34063Y-20245D01*
X34100Y-20204D01*
X34137Y-20157D01*
X34179Y-20107D01*
X34220Y-20051D01*
X34267Y-19987D01*
X34317Y-19922D01*
X34410Y-19779D01*
X34498Y-19626D01*
X34535Y-19548D01*
X34567Y-19469D01*
X34983D01*
Y-25803D01*
D02*
G37*
G36*
X31684D02*
X30959D01*
Y-24921D01*
X31684D01*
Y-25803D01*
D02*
G37*
G36*
X28954D02*
X28316D01*
Y-20869D01*
X28311Y-20874D01*
X28307Y-20878D01*
X28293Y-20897D01*
X28275Y-20915D01*
X28251Y-20938D01*
X28228Y-20966D01*
X28159Y-21031D01*
X28076Y-21114D01*
X27974Y-21202D01*
X27859Y-21299D01*
X27725Y-21400D01*
X27720Y-21405D01*
X27706Y-21414D01*
X27688Y-21428D01*
X27660Y-21442D01*
X27628Y-21465D01*
X27591Y-21493D01*
X27549Y-21520D01*
X27503Y-21553D01*
X27397Y-21617D01*
X27281Y-21682D01*
X27166Y-21747D01*
X27046Y-21802D01*
Y-21054D01*
X27050Y-21049D01*
X27069Y-21040D01*
X27096Y-21021D01*
X27133Y-20998D01*
X27180Y-20971D01*
X27230Y-20934D01*
X27290Y-20897D01*
X27355Y-20851D01*
X27429Y-20800D01*
X27503Y-20744D01*
X27655Y-20615D01*
X27812Y-20476D01*
X27970Y-20319D01*
X27974Y-20315D01*
X27988Y-20301D01*
X28007Y-20278D01*
X28034Y-20245D01*
X28071Y-20204D01*
X28108Y-20157D01*
X28150Y-20107D01*
X28191Y-20051D01*
X28238Y-19987D01*
X28288Y-19922D01*
X28381Y-19779D01*
X28469Y-19626D01*
X28506Y-19548D01*
X28538Y-19469D01*
X28954D01*
Y-25803D01*
D02*
G37*
G36*
X22301Y-21137D02*
X22352Y-21142D01*
X22416Y-21151D01*
X22490Y-21165D01*
X22573Y-21183D01*
X22666Y-21206D01*
X22763Y-21239D01*
X22860Y-21280D01*
X22966Y-21331D01*
X23072Y-21386D01*
X23179Y-21456D01*
X23280Y-21539D01*
X23382Y-21631D01*
X23479Y-21737D01*
X23484Y-21742D01*
X23502Y-21765D01*
X23525Y-21802D01*
X23558Y-21848D01*
X23595Y-21913D01*
X23641Y-21987D01*
X23682Y-22075D01*
X23733Y-22181D01*
X23779Y-22297D01*
X23825Y-22426D01*
X23867Y-22569D01*
X23904Y-22722D01*
X23936Y-22893D01*
X23959Y-23073D01*
X23978Y-23267D01*
X23982Y-23475D01*
Y-23479D01*
Y-23489D01*
Y-23507D01*
Y-23530D01*
Y-23558D01*
X23978Y-23590D01*
Y-23632D01*
X23973Y-23678D01*
X23969Y-23780D01*
X23955Y-23895D01*
X23941Y-24024D01*
X23923Y-24168D01*
X23895Y-24316D01*
X23862Y-24463D01*
X23821Y-24616D01*
X23770Y-24768D01*
X23715Y-24916D01*
X23650Y-25059D01*
X23571Y-25189D01*
X23484Y-25309D01*
X23479Y-25313D01*
X23460Y-25337D01*
X23433Y-25364D01*
X23396Y-25401D01*
X23345Y-25447D01*
X23285Y-25498D01*
X23220Y-25554D01*
X23142Y-25609D01*
X23054Y-25665D01*
X22962Y-25720D01*
X22855Y-25771D01*
X22744Y-25817D01*
X22624Y-25854D01*
X22500Y-25882D01*
X22366Y-25905D01*
X22227Y-25909D01*
X22195D01*
X22153Y-25905D01*
X22102Y-25900D01*
X22038Y-25891D01*
X21964Y-25877D01*
X21880Y-25859D01*
X21788Y-25835D01*
X21691Y-25803D01*
X21589Y-25762D01*
X21483Y-25715D01*
X21382Y-25655D01*
X21275Y-25586D01*
X21169Y-25508D01*
X21067Y-25415D01*
X20970Y-25309D01*
X20966Y-25300D01*
X20947Y-25281D01*
X20924Y-25244D01*
X20892Y-25193D01*
X20855Y-25133D01*
X20813Y-25055D01*
X20767Y-24962D01*
X20721Y-24856D01*
X20675Y-24740D01*
X20628Y-24607D01*
X20587Y-24459D01*
X20550Y-24297D01*
X20517Y-24126D01*
X20494Y-23937D01*
X20476Y-23738D01*
X20471Y-23521D01*
Y-23516D01*
Y-23507D01*
Y-23493D01*
Y-23470D01*
Y-23442D01*
X20476Y-23405D01*
Y-23368D01*
X20481Y-23327D01*
X20485Y-23230D01*
X20499Y-23114D01*
X20513Y-22990D01*
X20531Y-22856D01*
X20559Y-22712D01*
X20592Y-22565D01*
X20633Y-22417D01*
X20679Y-22269D01*
X20735Y-22126D01*
X20804Y-21987D01*
X20878Y-21858D01*
X20966Y-21737D01*
X20970Y-21728D01*
X20989Y-21710D01*
X21016Y-21682D01*
X21054Y-21641D01*
X21104Y-21599D01*
X21164Y-21548D01*
X21234Y-21493D01*
X21312Y-21433D01*
X21395Y-21377D01*
X21492Y-21322D01*
X21599Y-21271D01*
X21710Y-21225D01*
X21830Y-21188D01*
X21954Y-21160D01*
X22088Y-21137D01*
X22227Y-21132D01*
X22259D01*
X22301Y-21137D01*
D02*
G37*
G36*
X16674D02*
X16725Y-21142D01*
X16789Y-21151D01*
X16863Y-21165D01*
X16946Y-21183D01*
X17039Y-21206D01*
X17136Y-21239D01*
X17233Y-21280D01*
X17339Y-21331D01*
X17445Y-21386D01*
X17551Y-21456D01*
X17653Y-21539D01*
X17755Y-21631D01*
X17852Y-21737D01*
X17856Y-21742D01*
X17875Y-21765D01*
X17898Y-21802D01*
X17930Y-21848D01*
X17967Y-21913D01*
X18013Y-21987D01*
X18055Y-22075D01*
X18106Y-22181D01*
X18152Y-22297D01*
X18198Y-22426D01*
X18240Y-22569D01*
X18277Y-22722D01*
X18309Y-22893D01*
X18332Y-23073D01*
X18351Y-23267D01*
X18355Y-23475D01*
Y-23479D01*
Y-23489D01*
Y-23507D01*
Y-23530D01*
Y-23558D01*
X18351Y-23590D01*
Y-23632D01*
X18346Y-23678D01*
X18341Y-23780D01*
X18328Y-23895D01*
X18314Y-24024D01*
X18295Y-24168D01*
X18268Y-24316D01*
X18235Y-24463D01*
X18194Y-24616D01*
X18143Y-24768D01*
X18087Y-24916D01*
X18023Y-25059D01*
X17944Y-25189D01*
X17856Y-25309D01*
X17852Y-25313D01*
X17833Y-25337D01*
X17806Y-25364D01*
X17769Y-25401D01*
X17718Y-25447D01*
X17658Y-25498D01*
X17593Y-25554D01*
X17515Y-25609D01*
X17427Y-25665D01*
X17334Y-25720D01*
X17228Y-25771D01*
X17117Y-25817D01*
X16997Y-25854D01*
X16872Y-25882D01*
X16738Y-25905D01*
X16600Y-25909D01*
X16567D01*
X16526Y-25905D01*
X16475Y-25900D01*
X16410Y-25891D01*
X16336Y-25877D01*
X16253Y-25859D01*
X16161Y-25835D01*
X16064Y-25803D01*
X15962Y-25762D01*
X15856Y-25715D01*
X15754Y-25655D01*
X15648Y-25586D01*
X15542Y-25508D01*
X15440Y-25415D01*
X15343Y-25309D01*
X15338Y-25300D01*
X15320Y-25281D01*
X15297Y-25244D01*
X15265Y-25193D01*
X15228Y-25133D01*
X15186Y-25055D01*
X15140Y-24962D01*
X15094Y-24856D01*
X15047Y-24740D01*
X15001Y-24607D01*
X14960Y-24459D01*
X14923Y-24297D01*
X14890Y-24126D01*
X14867Y-23937D01*
X14849Y-23738D01*
X14844Y-23521D01*
Y-23516D01*
Y-23507D01*
Y-23493D01*
Y-23470D01*
Y-23442D01*
X14849Y-23405D01*
Y-23368D01*
X14853Y-23327D01*
X14858Y-23230D01*
X14872Y-23114D01*
X14886Y-22990D01*
X14904Y-22856D01*
X14932Y-22712D01*
X14964Y-22565D01*
X15006Y-22417D01*
X15052Y-22269D01*
X15108Y-22126D01*
X15177Y-21987D01*
X15251Y-21858D01*
X15338Y-21737D01*
X15343Y-21728D01*
X15362Y-21710D01*
X15389Y-21682D01*
X15426Y-21641D01*
X15477Y-21599D01*
X15537Y-21548D01*
X15607Y-21493D01*
X15685Y-21433D01*
X15768Y-21377D01*
X15865Y-21322D01*
X15971Y-21271D01*
X16082Y-21225D01*
X16203Y-21188D01*
X16327Y-21160D01*
X16461Y-21137D01*
X16600Y-21132D01*
X16632D01*
X16674Y-21137D01*
D02*
G37*
G36*
X19732Y-26048D02*
Y-26053D01*
Y-26057D01*
Y-26071D01*
Y-26090D01*
Y-26136D01*
X19727Y-26201D01*
X19723Y-26274D01*
X19718Y-26362D01*
X19714Y-26455D01*
X19704Y-26556D01*
X19672Y-26769D01*
X19654Y-26875D01*
X19631Y-26977D01*
X19603Y-27074D01*
X19570Y-27166D01*
X19534Y-27249D01*
X19492Y-27319D01*
X19487Y-27323D01*
X19483Y-27332D01*
X19469Y-27351D01*
X19446Y-27369D01*
X19423Y-27397D01*
X19390Y-27425D01*
X19358Y-27457D01*
X19316Y-27485D01*
X19270Y-27517D01*
X19215Y-27549D01*
X19159Y-27577D01*
X19095Y-27605D01*
X19030Y-27623D01*
X18956Y-27642D01*
X18877Y-27651D01*
X18794Y-27656D01*
X18753D01*
X18702Y-27651D01*
X18637Y-27646D01*
X18559Y-27637D01*
X18475Y-27619D01*
X18388Y-27600D01*
X18295Y-27573D01*
X18415Y-26912D01*
X18425Y-26917D01*
X18448Y-26921D01*
X18480Y-26930D01*
X18522Y-26944D01*
X18573Y-26958D01*
X18619Y-26967D01*
X18669Y-26972D01*
X18711Y-26977D01*
X18720D01*
X18744Y-26972D01*
X18780Y-26967D01*
X18822Y-26958D01*
X18868Y-26935D01*
X18919Y-26907D01*
X18965Y-26870D01*
X19002Y-26815D01*
X19007Y-26806D01*
X19011Y-26796D01*
X19016Y-26783D01*
X19025Y-26759D01*
X19035Y-26732D01*
X19044Y-26699D01*
X19053Y-26658D01*
X19058Y-26612D01*
X19067Y-26556D01*
X19076Y-26491D01*
X19085Y-26418D01*
X19090Y-26339D01*
X19095Y-26247D01*
X19099Y-26145D01*
Y-26034D01*
Y-21234D01*
X19732D01*
Y-26048D01*
D02*
G37*
%LPC*%
G36*
X274999Y-30236D02*
X273581D01*
Y-32491D01*
X274976D01*
X275017Y-32486D01*
X275073Y-32481D01*
X275133Y-32477D01*
X275198Y-32467D01*
X275267Y-32454D01*
X275419Y-32421D01*
X275498Y-32398D01*
X275572Y-32370D01*
X275646Y-32338D01*
X275715Y-32301D01*
X275780Y-32260D01*
X275840Y-32209D01*
X275844Y-32204D01*
X275854Y-32195D01*
X275868Y-32176D01*
X275886Y-32153D01*
X275909Y-32126D01*
X275932Y-32089D01*
X275960Y-32043D01*
X275988Y-31992D01*
X276015Y-31936D01*
X276043Y-31872D01*
X276066Y-31802D01*
X276089Y-31724D01*
X276108Y-31640D01*
X276122Y-31548D01*
X276131Y-31451D01*
X276135Y-31345D01*
Y-31340D01*
Y-31326D01*
Y-31308D01*
Y-31280D01*
X276131Y-31248D01*
X276126Y-31211D01*
X276117Y-31123D01*
X276098Y-31021D01*
X276075Y-30915D01*
X276039Y-30809D01*
X275988Y-30703D01*
Y-30698D01*
X275983Y-30689D01*
X275974Y-30675D01*
X275964Y-30661D01*
X275932Y-30615D01*
X275891Y-30555D01*
X275840Y-30495D01*
X275780Y-30435D01*
X275715Y-30379D01*
X275641Y-30338D01*
X275632Y-30333D01*
X275618Y-30328D01*
X275600Y-30324D01*
X275576Y-30315D01*
X275549Y-30305D01*
X275512Y-30296D01*
X275475Y-30287D01*
X275424Y-30278D01*
X275373Y-30268D01*
X275313Y-30259D01*
X275244Y-30250D01*
X275170Y-30245D01*
X275087Y-30241D01*
X274999Y-30236D01*
D02*
G37*
G36*
X258593Y-30740D02*
X256972Y-33581D01*
X258593D01*
Y-30740D01*
D02*
G37*
G36*
X248586Y-31770D02*
X248568D01*
X248545Y-31775D01*
X248513D01*
X248471Y-31784D01*
X248425Y-31793D01*
X248374Y-31807D01*
X248318Y-31825D01*
X248263Y-31848D01*
X248198Y-31876D01*
X248134Y-31913D01*
X248069Y-31955D01*
X248004Y-32006D01*
X247940Y-32066D01*
X247875Y-32130D01*
X247815Y-32209D01*
X247810Y-32213D01*
X247801Y-32227D01*
X247787Y-32255D01*
X247764Y-32292D01*
X247741Y-32338D01*
X247718Y-32394D01*
X247686Y-32458D01*
X247658Y-32537D01*
X247630Y-32625D01*
X247602Y-32722D01*
X247575Y-32828D01*
X247551Y-32943D01*
X247528Y-33073D01*
X247515Y-33211D01*
X247505Y-33359D01*
X247501Y-33521D01*
Y-33525D01*
Y-33530D01*
Y-33544D01*
Y-33558D01*
Y-33604D01*
X247505Y-33664D01*
X247510Y-33738D01*
X247519Y-33826D01*
X247528Y-33918D01*
X247542Y-34020D01*
X247556Y-34126D01*
X247579Y-34232D01*
X247602Y-34343D01*
X247635Y-34454D01*
X247672Y-34560D01*
X247713Y-34662D01*
X247764Y-34754D01*
X247819Y-34842D01*
X247824Y-34847D01*
X247833Y-34861D01*
X247852Y-34884D01*
X247880Y-34907D01*
X247907Y-34944D01*
X247949Y-34976D01*
X247990Y-35018D01*
X248041Y-35055D01*
X248097Y-35096D01*
X248157Y-35138D01*
X248221Y-35170D01*
X248295Y-35203D01*
X248369Y-35230D01*
X248448Y-35253D01*
X248531Y-35267D01*
X248619Y-35272D01*
X248637D01*
X248660Y-35267D01*
X248693Y-35263D01*
X248734Y-35258D01*
X248776Y-35249D01*
X248827Y-35235D01*
X248882Y-35216D01*
X248942Y-35193D01*
X249002Y-35166D01*
X249067Y-35129D01*
X249132Y-35087D01*
X249196Y-35041D01*
X249261Y-34981D01*
X249326Y-34916D01*
X249386Y-34838D01*
X249390Y-34833D01*
X249399Y-34819D01*
X249413Y-34791D01*
X249436Y-34754D01*
X249460Y-34708D01*
X249487Y-34653D01*
X249520Y-34584D01*
X249547Y-34510D01*
X249580Y-34422D01*
X249607Y-34325D01*
X249635Y-34214D01*
X249658Y-34098D01*
X249681Y-33969D01*
X249695Y-33830D01*
X249704Y-33678D01*
X249709Y-33521D01*
Y-33516D01*
Y-33512D01*
Y-33498D01*
Y-33484D01*
Y-33438D01*
X249704Y-33378D01*
X249700Y-33304D01*
X249691Y-33221D01*
X249681Y-33124D01*
X249668Y-33026D01*
X249654Y-32920D01*
X249630Y-32809D01*
X249603Y-32703D01*
X249575Y-32592D01*
X249534Y-32486D01*
X249492Y-32384D01*
X249441Y-32292D01*
X249386Y-32204D01*
X249381Y-32199D01*
X249372Y-32186D01*
X249353Y-32163D01*
X249326Y-32135D01*
X249298Y-32103D01*
X249256Y-32066D01*
X249215Y-32029D01*
X249164Y-31987D01*
X249109Y-31945D01*
X249048Y-31909D01*
X248984Y-31872D01*
X248914Y-31839D01*
X248836Y-31811D01*
X248757Y-31788D01*
X248674Y-31775D01*
X248586Y-31770D01*
D02*
G37*
G36*
X242959D02*
X242941D01*
X242918Y-31775D01*
X242885D01*
X242844Y-31784D01*
X242798Y-31793D01*
X242747Y-31807D01*
X242691Y-31825D01*
X242636Y-31848D01*
X242571Y-31876D01*
X242507Y-31913D01*
X242442Y-31955D01*
X242377Y-32006D01*
X242312Y-32066D01*
X242248Y-32130D01*
X242188Y-32209D01*
X242183Y-32213D01*
X242174Y-32227D01*
X242160Y-32255D01*
X242137Y-32292D01*
X242114Y-32338D01*
X242091Y-32394D01*
X242058Y-32458D01*
X242031Y-32537D01*
X242003Y-32625D01*
X241975Y-32722D01*
X241948Y-32828D01*
X241924Y-32943D01*
X241901Y-33073D01*
X241887Y-33211D01*
X241878Y-33359D01*
X241874Y-33521D01*
Y-33525D01*
Y-33530D01*
Y-33544D01*
Y-33558D01*
Y-33604D01*
X241878Y-33664D01*
X241883Y-33738D01*
X241892Y-33826D01*
X241901Y-33918D01*
X241915Y-34020D01*
X241929Y-34126D01*
X241952Y-34232D01*
X241975Y-34343D01*
X242007Y-34454D01*
X242044Y-34560D01*
X242086Y-34662D01*
X242137Y-34754D01*
X242192Y-34842D01*
X242197Y-34847D01*
X242206Y-34861D01*
X242225Y-34884D01*
X242252Y-34907D01*
X242280Y-34944D01*
X242322Y-34976D01*
X242363Y-35018D01*
X242414Y-35055D01*
X242470Y-35096D01*
X242530Y-35138D01*
X242594Y-35170D01*
X242668Y-35203D01*
X242742Y-35230D01*
X242821Y-35253D01*
X242904Y-35267D01*
X242992Y-35272D01*
X243010D01*
X243033Y-35267D01*
X243066Y-35263D01*
X243107Y-35258D01*
X243149Y-35249D01*
X243199Y-35235D01*
X243255Y-35216D01*
X243315Y-35193D01*
X243375Y-35166D01*
X243440Y-35129D01*
X243504Y-35087D01*
X243569Y-35041D01*
X243634Y-34981D01*
X243699Y-34916D01*
X243759Y-34838D01*
X243763Y-34833D01*
X243772Y-34819D01*
X243786Y-34791D01*
X243809Y-34754D01*
X243832Y-34708D01*
X243860Y-34653D01*
X243893Y-34584D01*
X243920Y-34510D01*
X243953Y-34422D01*
X243980Y-34325D01*
X244008Y-34214D01*
X244031Y-34098D01*
X244054Y-33969D01*
X244068Y-33830D01*
X244077Y-33678D01*
X244082Y-33521D01*
Y-33516D01*
Y-33512D01*
Y-33498D01*
Y-33484D01*
Y-33438D01*
X244077Y-33378D01*
X244073Y-33304D01*
X244063Y-33221D01*
X244054Y-33124D01*
X244040Y-33026D01*
X244026Y-32920D01*
X244003Y-32809D01*
X243976Y-32703D01*
X243948Y-32592D01*
X243906Y-32486D01*
X243865Y-32384D01*
X243814Y-32292D01*
X243759Y-32204D01*
X243754Y-32199D01*
X243745Y-32186D01*
X243726Y-32163D01*
X243699Y-32135D01*
X243671Y-32103D01*
X243629Y-32066D01*
X243588Y-32029D01*
X243537Y-31987D01*
X243481Y-31945D01*
X243421Y-31909D01*
X243357Y-31872D01*
X243287Y-31839D01*
X243209Y-31811D01*
X243130Y-31788D01*
X243047Y-31775D01*
X242959Y-31770D01*
D02*
G37*
G36*
X245824Y-21737D02*
X245805D01*
X245787Y-21742D01*
X245759Y-21747D01*
X245727Y-21751D01*
X245685Y-21761D01*
X245643Y-21775D01*
X245593Y-21798D01*
X245542Y-21821D01*
X245486Y-21853D01*
X245426Y-21890D01*
X245366Y-21936D01*
X245306Y-21987D01*
X245246Y-22052D01*
X245186Y-22121D01*
X245126Y-22204D01*
X245121Y-22209D01*
X245112Y-22227D01*
X245098Y-22250D01*
X245080Y-22292D01*
X245052Y-22338D01*
X245029Y-22398D01*
X245001Y-22467D01*
X244974Y-22546D01*
X244941Y-22634D01*
X244914Y-22736D01*
X244890Y-22846D01*
X244867Y-22966D01*
X244844Y-23096D01*
X244830Y-23239D01*
X244821Y-23387D01*
X244816Y-23549D01*
Y-23553D01*
Y-23558D01*
Y-23572D01*
Y-23586D01*
Y-23632D01*
X244821Y-23692D01*
X244826Y-23766D01*
X244830Y-23854D01*
X244840Y-23946D01*
X244853Y-24043D01*
X244867Y-24149D01*
X244890Y-24255D01*
X244914Y-24366D01*
X244941Y-24473D01*
X244974Y-24579D01*
X245015Y-24680D01*
X245061Y-24773D01*
X245112Y-24856D01*
X245117Y-24861D01*
X245126Y-24874D01*
X245145Y-24893D01*
X245163Y-24921D01*
X245195Y-24953D01*
X245228Y-24985D01*
X245269Y-25027D01*
X245311Y-25064D01*
X245362Y-25101D01*
X245417Y-25138D01*
X245477Y-25175D01*
X245537Y-25207D01*
X245606Y-25235D01*
X245676Y-25253D01*
X245750Y-25267D01*
X245828Y-25272D01*
X245847D01*
X245865Y-25267D01*
X245898Y-25263D01*
X245930Y-25258D01*
X245971Y-25249D01*
X246018Y-25235D01*
X246069Y-25216D01*
X246119Y-25193D01*
X246179Y-25166D01*
X246235Y-25129D01*
X246295Y-25087D01*
X246355Y-25041D01*
X246420Y-24981D01*
X246475Y-24916D01*
X246535Y-24838D01*
X246540Y-24833D01*
X246549Y-24819D01*
X246563Y-24791D01*
X246581Y-24754D01*
X246604Y-24708D01*
X246632Y-24653D01*
X246660Y-24584D01*
X246688Y-24505D01*
X246715Y-24417D01*
X246743Y-24320D01*
X246771Y-24209D01*
X246794Y-24089D01*
X246812Y-23960D01*
X246826Y-23817D01*
X246835Y-23664D01*
X246840Y-23498D01*
Y-23493D01*
Y-23489D01*
Y-23475D01*
Y-23456D01*
Y-23410D01*
X246835Y-23350D01*
X246831Y-23276D01*
X246826Y-23193D01*
X246817Y-23096D01*
X246803Y-22994D01*
X246789Y-22888D01*
X246766Y-22782D01*
X246743Y-22671D01*
X246715Y-22560D01*
X246683Y-22454D01*
X246641Y-22352D01*
X246595Y-22260D01*
X246544Y-22172D01*
X246540Y-22167D01*
X246531Y-22153D01*
X246517Y-22130D01*
X246494Y-22103D01*
X246461Y-22070D01*
X246429Y-22033D01*
X246387Y-21996D01*
X246346Y-21955D01*
X246295Y-21913D01*
X246239Y-21876D01*
X246179Y-21839D01*
X246115Y-21807D01*
X246050Y-21779D01*
X245976Y-21756D01*
X245902Y-21742D01*
X245824Y-21737D01*
D02*
G37*
G36*
X257475Y-23512D02*
X257471D01*
X257457Y-23521D01*
X257438Y-23530D01*
X257411Y-23539D01*
X257374Y-23558D01*
X257327Y-23572D01*
X257277Y-23595D01*
X257212Y-23613D01*
X257143Y-23636D01*
X257069Y-23660D01*
X256981Y-23683D01*
X256889Y-23710D01*
X256787Y-23733D01*
X256676Y-23756D01*
X256560Y-23780D01*
X256436Y-23803D01*
X256431D01*
X256417Y-23807D01*
X256399D01*
X256371Y-23817D01*
X256339Y-23821D01*
X256302Y-23830D01*
X256214Y-23849D01*
X256122Y-23872D01*
X256029Y-23900D01*
X255941Y-23932D01*
X255905Y-23946D01*
X255872Y-23964D01*
X255868Y-23969D01*
X255844Y-23978D01*
X255817Y-24001D01*
X255784Y-24029D01*
X255743Y-24066D01*
X255701Y-24108D01*
X255664Y-24158D01*
X255627Y-24214D01*
X255623Y-24223D01*
X255613Y-24242D01*
X255600Y-24274D01*
X255586Y-24320D01*
X255567Y-24376D01*
X255553Y-24440D01*
X255544Y-24509D01*
X255539Y-24588D01*
Y-24593D01*
Y-24602D01*
Y-24620D01*
X255544Y-24644D01*
Y-24671D01*
X255549Y-24704D01*
X255563Y-24778D01*
X255590Y-24861D01*
X255623Y-24948D01*
X255674Y-25032D01*
X255701Y-25073D01*
X255738Y-25110D01*
X255743D01*
X255747Y-25119D01*
X255761Y-25129D01*
X255775Y-25142D01*
X255821Y-25170D01*
X255886Y-25207D01*
X255965Y-25244D01*
X256062Y-25272D01*
X256172Y-25295D01*
X256302Y-25304D01*
X256334D01*
X256357Y-25300D01*
X256390D01*
X256422Y-25295D01*
X256505Y-25281D01*
X256602Y-25263D01*
X256704Y-25230D01*
X256810Y-25189D01*
X256916Y-25129D01*
X256921D01*
X256930Y-25119D01*
X256944Y-25110D01*
X256962Y-25096D01*
X257013Y-25059D01*
X257073Y-25004D01*
X257143Y-24935D01*
X257212Y-24856D01*
X257281Y-24764D01*
X257337Y-24657D01*
Y-24653D01*
X257341Y-24644D01*
X257351Y-24625D01*
X257360Y-24602D01*
X257369Y-24570D01*
X257383Y-24533D01*
X257392Y-24491D01*
X257406Y-24440D01*
X257420Y-24380D01*
X257434Y-24316D01*
X257443Y-24246D01*
X257452Y-24168D01*
X257461Y-24084D01*
X257471Y-23997D01*
X257475Y-23900D01*
Y-23798D01*
Y-23512D01*
D02*
G37*
G36*
X252453Y-20236D02*
X251035D01*
Y-22491D01*
X252430D01*
X252472Y-22486D01*
X252527Y-22481D01*
X252587Y-22477D01*
X252652Y-22467D01*
X252721Y-22454D01*
X252874Y-22421D01*
X252952Y-22398D01*
X253026Y-22370D01*
X253100Y-22338D01*
X253169Y-22301D01*
X253234Y-22260D01*
X253294Y-22209D01*
X253299Y-22204D01*
X253308Y-22195D01*
X253322Y-22176D01*
X253340Y-22153D01*
X253363Y-22126D01*
X253387Y-22089D01*
X253414Y-22042D01*
X253442Y-21992D01*
X253470Y-21936D01*
X253498Y-21871D01*
X253521Y-21802D01*
X253544Y-21724D01*
X253562Y-21641D01*
X253576Y-21548D01*
X253585Y-21451D01*
X253590Y-21345D01*
Y-21340D01*
Y-21326D01*
Y-21308D01*
Y-21280D01*
X253585Y-21248D01*
X253581Y-21211D01*
X253571Y-21123D01*
X253553Y-21021D01*
X253530Y-20915D01*
X253493Y-20809D01*
X253442Y-20703D01*
Y-20698D01*
X253437Y-20689D01*
X253428Y-20675D01*
X253419Y-20661D01*
X253387Y-20615D01*
X253345Y-20555D01*
X253294Y-20495D01*
X253234Y-20435D01*
X253169Y-20379D01*
X253096Y-20338D01*
X253086Y-20333D01*
X253072Y-20328D01*
X253054Y-20324D01*
X253031Y-20315D01*
X253003Y-20305D01*
X252966Y-20296D01*
X252929Y-20287D01*
X252878Y-20278D01*
X252828Y-20268D01*
X252767Y-20259D01*
X252698Y-20250D01*
X252624Y-20245D01*
X252541Y-20241D01*
X252453Y-20236D01*
D02*
G37*
G36*
X266263Y-21770D02*
X266221D01*
X266193Y-21775D01*
X266156Y-21779D01*
X266110Y-21788D01*
X266064Y-21798D01*
X266013Y-21816D01*
X265958Y-21835D01*
X265898Y-21858D01*
X265838Y-21885D01*
X265777Y-21918D01*
X265713Y-21959D01*
X265653Y-22010D01*
X265593Y-22061D01*
X265533Y-22126D01*
X265528Y-22130D01*
X265519Y-22144D01*
X265505Y-22163D01*
X265486Y-22190D01*
X265463Y-22227D01*
X265436Y-22269D01*
X265408Y-22320D01*
X265380Y-22380D01*
X265348Y-22444D01*
X265320Y-22514D01*
X265292Y-22592D01*
X265269Y-22680D01*
X265246Y-22772D01*
X265228Y-22869D01*
X265214Y-22971D01*
X265205Y-23082D01*
X267297D01*
Y-23077D01*
Y-23054D01*
X267293Y-23027D01*
X267288Y-22985D01*
X267279Y-22934D01*
X267270Y-22879D01*
X267260Y-22819D01*
X267247Y-22749D01*
X267214Y-22606D01*
X267173Y-22458D01*
X267113Y-22320D01*
X267080Y-22255D01*
X267043Y-22199D01*
X267039Y-22195D01*
X267029Y-22181D01*
X267011Y-22158D01*
X266988Y-22130D01*
X266955Y-22098D01*
X266919Y-22066D01*
X266877Y-22024D01*
X266831Y-21982D01*
X266775Y-21945D01*
X266715Y-21904D01*
X266651Y-21871D01*
X266581Y-21835D01*
X266512Y-21812D01*
X266434Y-21788D01*
X266350Y-21775D01*
X266263Y-21770D01*
D02*
G37*
G36*
X241712Y-21770D02*
X241693D01*
X241670Y-21775D01*
X241638D01*
X241596Y-21784D01*
X241550Y-21793D01*
X241499Y-21807D01*
X241444Y-21825D01*
X241389Y-21848D01*
X241324Y-21876D01*
X241259Y-21913D01*
X241194Y-21955D01*
X241130Y-22005D01*
X241065Y-22066D01*
X241000Y-22130D01*
X240940Y-22209D01*
X240936Y-22213D01*
X240927Y-22227D01*
X240913Y-22255D01*
X240890Y-22292D01*
X240866Y-22338D01*
X240843Y-22394D01*
X240811Y-22458D01*
X240783Y-22537D01*
X240756Y-22625D01*
X240728Y-22722D01*
X240700Y-22828D01*
X240677Y-22943D01*
X240654Y-23073D01*
X240640Y-23211D01*
X240631Y-23359D01*
X240626Y-23521D01*
Y-23526D01*
Y-23530D01*
Y-23544D01*
Y-23558D01*
Y-23604D01*
X240631Y-23664D01*
X240635Y-23738D01*
X240645Y-23826D01*
X240654Y-23918D01*
X240668Y-24020D01*
X240682Y-24126D01*
X240705Y-24232D01*
X240728Y-24343D01*
X240760Y-24454D01*
X240797Y-24560D01*
X240839Y-24662D01*
X240890Y-24754D01*
X240945Y-24842D01*
X240950Y-24847D01*
X240959Y-24861D01*
X240977Y-24884D01*
X241005Y-24907D01*
X241033Y-24944D01*
X241074Y-24976D01*
X241116Y-25018D01*
X241167Y-25055D01*
X241222Y-25096D01*
X241282Y-25138D01*
X241347Y-25170D01*
X241421Y-25203D01*
X241495Y-25230D01*
X241573Y-25253D01*
X241656Y-25267D01*
X241744Y-25272D01*
X241763D01*
X241786Y-25267D01*
X241818Y-25263D01*
X241860Y-25258D01*
X241901Y-25249D01*
X241952Y-25235D01*
X242007Y-25216D01*
X242068Y-25193D01*
X242128Y-25166D01*
X242192Y-25129D01*
X242257Y-25087D01*
X242322Y-25041D01*
X242386Y-24981D01*
X242451Y-24916D01*
X242511Y-24838D01*
X242516Y-24833D01*
X242525Y-24819D01*
X242539Y-24791D01*
X242562Y-24754D01*
X242585Y-24708D01*
X242613Y-24653D01*
X242645Y-24584D01*
X242673Y-24509D01*
X242705Y-24422D01*
X242733Y-24325D01*
X242761Y-24214D01*
X242784Y-24098D01*
X242807Y-23969D01*
X242821Y-23830D01*
X242830Y-23678D01*
X242834Y-23521D01*
Y-23516D01*
Y-23512D01*
Y-23498D01*
Y-23484D01*
Y-23438D01*
X242830Y-23378D01*
X242825Y-23304D01*
X242816Y-23221D01*
X242807Y-23124D01*
X242793Y-23027D01*
X242779Y-22920D01*
X242756Y-22809D01*
X242728Y-22703D01*
X242701Y-22592D01*
X242659Y-22486D01*
X242617Y-22384D01*
X242567Y-22292D01*
X242511Y-22204D01*
X242507Y-22199D01*
X242497Y-22186D01*
X242479Y-22163D01*
X242451Y-22135D01*
X242423Y-22103D01*
X242382Y-22066D01*
X242340Y-22029D01*
X242289Y-21987D01*
X242234Y-21945D01*
X242174Y-21908D01*
X242109Y-21871D01*
X242040Y-21839D01*
X241961Y-21812D01*
X241883Y-21788D01*
X241800Y-21775D01*
X241712Y-21770D01*
D02*
G37*
G36*
X14983Y-30582D02*
X13361Y-33424D01*
X14983D01*
Y-30582D01*
D02*
G37*
G36*
X22208Y-21770D02*
X22190D01*
X22167Y-21775D01*
X22135D01*
X22093Y-21784D01*
X22047Y-21793D01*
X21996Y-21807D01*
X21940Y-21825D01*
X21885Y-21848D01*
X21820Y-21876D01*
X21756Y-21913D01*
X21691Y-21955D01*
X21626Y-22005D01*
X21562Y-22066D01*
X21497Y-22130D01*
X21437Y-22209D01*
X21432Y-22213D01*
X21423Y-22227D01*
X21409Y-22255D01*
X21386Y-22292D01*
X21363Y-22338D01*
X21340Y-22394D01*
X21308Y-22458D01*
X21280Y-22537D01*
X21252Y-22625D01*
X21224Y-22722D01*
X21197Y-22828D01*
X21174Y-22943D01*
X21150Y-23073D01*
X21137Y-23211D01*
X21127Y-23359D01*
X21123Y-23521D01*
Y-23526D01*
Y-23530D01*
Y-23544D01*
Y-23558D01*
Y-23604D01*
X21127Y-23664D01*
X21132Y-23738D01*
X21141Y-23826D01*
X21150Y-23918D01*
X21164Y-24020D01*
X21178Y-24126D01*
X21201Y-24232D01*
X21224Y-24343D01*
X21257Y-24454D01*
X21294Y-24560D01*
X21335Y-24662D01*
X21386Y-24754D01*
X21441Y-24842D01*
X21446Y-24847D01*
X21455Y-24861D01*
X21474Y-24884D01*
X21502Y-24907D01*
X21529Y-24944D01*
X21571Y-24976D01*
X21612Y-25018D01*
X21663Y-25055D01*
X21719Y-25096D01*
X21779Y-25138D01*
X21844Y-25170D01*
X21917Y-25203D01*
X21991Y-25230D01*
X22070Y-25253D01*
X22153Y-25267D01*
X22241Y-25272D01*
X22259D01*
X22282Y-25267D01*
X22315Y-25263D01*
X22356Y-25258D01*
X22398Y-25249D01*
X22449Y-25235D01*
X22504Y-25216D01*
X22564Y-25193D01*
X22624Y-25166D01*
X22689Y-25129D01*
X22754Y-25087D01*
X22818Y-25041D01*
X22883Y-24981D01*
X22948Y-24916D01*
X23008Y-24838D01*
X23012Y-24833D01*
X23022Y-24819D01*
X23035Y-24791D01*
X23058Y-24754D01*
X23082Y-24708D01*
X23109Y-24653D01*
X23142Y-24584D01*
X23169Y-24509D01*
X23202Y-24422D01*
X23230Y-24325D01*
X23257Y-24214D01*
X23280Y-24098D01*
X23303Y-23969D01*
X23317Y-23830D01*
X23326Y-23678D01*
X23331Y-23521D01*
Y-23516D01*
Y-23512D01*
Y-23498D01*
Y-23484D01*
Y-23438D01*
X23326Y-23378D01*
X23322Y-23304D01*
X23313Y-23221D01*
X23303Y-23124D01*
X23290Y-23027D01*
X23276Y-22920D01*
X23253Y-22809D01*
X23225Y-22703D01*
X23197Y-22592D01*
X23156Y-22486D01*
X23114Y-22384D01*
X23063Y-22292D01*
X23008Y-22204D01*
X23003Y-22199D01*
X22994Y-22186D01*
X22975Y-22163D01*
X22948Y-22135D01*
X22920Y-22103D01*
X22878Y-22066D01*
X22837Y-22029D01*
X22786Y-21987D01*
X22730Y-21945D01*
X22670Y-21908D01*
X22606Y-21871D01*
X22536Y-21839D01*
X22458Y-21812D01*
X22379Y-21788D01*
X22296Y-21775D01*
X22208Y-21770D01*
D02*
G37*
G36*
X16581D02*
X16563D01*
X16540Y-21775D01*
X16507D01*
X16466Y-21784D01*
X16420Y-21793D01*
X16369Y-21807D01*
X16313Y-21825D01*
X16258Y-21848D01*
X16193Y-21876D01*
X16128Y-21913D01*
X16064Y-21955D01*
X15999Y-22005D01*
X15935Y-22066D01*
X15870Y-22130D01*
X15810Y-22209D01*
X15805Y-22213D01*
X15796Y-22227D01*
X15782Y-22255D01*
X15759Y-22292D01*
X15736Y-22338D01*
X15713Y-22394D01*
X15680Y-22458D01*
X15653Y-22537D01*
X15625Y-22625D01*
X15597Y-22722D01*
X15570Y-22828D01*
X15546Y-22943D01*
X15523Y-23073D01*
X15509Y-23211D01*
X15500Y-23359D01*
X15496Y-23521D01*
Y-23526D01*
Y-23530D01*
Y-23544D01*
Y-23558D01*
Y-23604D01*
X15500Y-23664D01*
X15505Y-23738D01*
X15514Y-23826D01*
X15523Y-23918D01*
X15537Y-24020D01*
X15551Y-24126D01*
X15574Y-24232D01*
X15597Y-24343D01*
X15630Y-24454D01*
X15666Y-24560D01*
X15708Y-24662D01*
X15759Y-24754D01*
X15814Y-24842D01*
X15819Y-24847D01*
X15828Y-24861D01*
X15847Y-24884D01*
X15874Y-24907D01*
X15902Y-24944D01*
X15944Y-24976D01*
X15985Y-25018D01*
X16036Y-25055D01*
X16092Y-25096D01*
X16152Y-25138D01*
X16216Y-25170D01*
X16290Y-25203D01*
X16364Y-25230D01*
X16443Y-25253D01*
X16526Y-25267D01*
X16614Y-25272D01*
X16632D01*
X16655Y-25267D01*
X16688Y-25263D01*
X16729Y-25258D01*
X16771Y-25249D01*
X16822Y-25235D01*
X16877Y-25216D01*
X16937Y-25193D01*
X16997Y-25166D01*
X17062Y-25129D01*
X17127Y-25087D01*
X17191Y-25041D01*
X17256Y-24981D01*
X17321Y-24916D01*
X17381Y-24838D01*
X17385Y-24833D01*
X17394Y-24819D01*
X17408Y-24791D01*
X17431Y-24754D01*
X17455Y-24708D01*
X17482Y-24653D01*
X17515Y-24584D01*
X17542Y-24509D01*
X17575Y-24422D01*
X17602Y-24325D01*
X17630Y-24214D01*
X17653Y-24098D01*
X17676Y-23969D01*
X17690Y-23830D01*
X17699Y-23678D01*
X17704Y-23521D01*
Y-23516D01*
Y-23512D01*
Y-23498D01*
Y-23484D01*
Y-23438D01*
X17699Y-23378D01*
X17695Y-23304D01*
X17685Y-23221D01*
X17676Y-23124D01*
X17662Y-23027D01*
X17649Y-22920D01*
X17625Y-22809D01*
X17598Y-22703D01*
X17570Y-22592D01*
X17528Y-22486D01*
X17487Y-22384D01*
X17436Y-22292D01*
X17381Y-22204D01*
X17376Y-22199D01*
X17367Y-22186D01*
X17348Y-22163D01*
X17321Y-22135D01*
X17293Y-22103D01*
X17251Y-22066D01*
X17210Y-22029D01*
X17159Y-21987D01*
X17103Y-21945D01*
X17043Y-21908D01*
X16979Y-21871D01*
X16909Y-21839D01*
X16831Y-21812D01*
X16752Y-21788D01*
X16669Y-21775D01*
X16581Y-21770D01*
D02*
G37*
%LPD*%
D14*
X76500Y91059D02*
D03*
Y85941D02*
D03*
X71500Y91059D02*
D03*
Y85941D02*
D03*
D15*
X40748Y35500D02*
D03*
X59252D02*
D03*
D16*
X40157Y59496D02*
D03*
Y66189D02*
D03*
X59842D02*
D03*
Y59496D02*
D03*
D17*
X30437Y53937D02*
D03*
Y46063D02*
D03*
X69462D02*
D03*
Y53937D02*
D03*
D18*
X7799Y63189D02*
D03*
Y36811D02*
D03*
X92099D02*
D03*
Y63189D02*
D03*
D19*
X46063Y59102D02*
D03*
X48031Y59102D02*
D03*
X50000D02*
D03*
X51968D02*
D03*
X53937Y59102D02*
D03*
Y66583D02*
D03*
X51968D02*
D03*
X50000Y66583D02*
D03*
X48031Y66583D02*
D03*
X46063D02*
D03*
D20*
X52953Y49803D02*
D03*
X47047D02*
D03*
D21*
X38976Y92417D02*
D03*
X61024D02*
D03*
Y7583D02*
D03*
X38976D02*
D03*
D22*
X51968Y78512D02*
D03*
X48031D02*
D03*
X44094Y78512D02*
D03*
X55905D02*
D03*
X48031Y21488D02*
D03*
X51968D02*
D03*
X55905D02*
D03*
X44094D02*
D03*
M02*
