G04*
G04 #@! TF.GenerationSoftware,Altium Limited,Altium Designer,24.5.2 (23)*
G04*
G04 Layer_Color=128*
%FSLAX25Y25*%
%MOIN*%
G70*
G04*
G04 #@! TF.SameCoordinates,14D8FD4F-CE48-4F7E-93F5-DD934605E96C*
G04*
G04*
G04 #@! TF.FilePolarity,Positive*
G04*
G01*
G75*
G36*
X246110Y-30393D02*
X245477D01*
Y-29492D01*
X246110D01*
Y-30393D01*
D02*
G37*
G36*
X265389Y-29386D02*
X265436D01*
X265496Y-29391D01*
X265560Y-29400D01*
X265630Y-29409D01*
X265704Y-29418D01*
X265787Y-29432D01*
X265953Y-29469D01*
X266119Y-29525D01*
X266202Y-29557D01*
X266286Y-29594D01*
X266290Y-29599D01*
X266304Y-29603D01*
X266327Y-29617D01*
X266355Y-29631D01*
X266392Y-29654D01*
X266434Y-29682D01*
X266480Y-29714D01*
X266535Y-29746D01*
X266646Y-29834D01*
X266761Y-29936D01*
X266877Y-30056D01*
X266988Y-30195D01*
X266992Y-30199D01*
X267002Y-30213D01*
X267016Y-30236D01*
X267034Y-30264D01*
X267057Y-30305D01*
X267085Y-30351D01*
X267113Y-30407D01*
X267145Y-30472D01*
X267177Y-30541D01*
X267210Y-30619D01*
X267247Y-30707D01*
X267279Y-30804D01*
X267316Y-30906D01*
X267348Y-31012D01*
X267376Y-31128D01*
X267404Y-31252D01*
X266789Y-31460D01*
Y-31456D01*
X266785Y-31437D01*
X266775Y-31409D01*
X266766Y-31373D01*
X266757Y-31331D01*
X266738Y-31280D01*
X266724Y-31220D01*
X266701Y-31160D01*
X266660Y-31031D01*
X266604Y-30901D01*
X266544Y-30777D01*
X266512Y-30716D01*
X266475Y-30666D01*
Y-30661D01*
X266466Y-30652D01*
X266457Y-30638D01*
X266443Y-30624D01*
X266396Y-30573D01*
X266341Y-30513D01*
X266267Y-30449D01*
X266184Y-30379D01*
X266082Y-30310D01*
X265971Y-30250D01*
X265967D01*
X265958Y-30245D01*
X265939Y-30236D01*
X265916Y-30227D01*
X265888Y-30213D01*
X265851Y-30204D01*
X265814Y-30190D01*
X265768Y-30171D01*
X265667Y-30144D01*
X265546Y-30121D01*
X265417Y-30102D01*
X265279Y-30097D01*
X265223D01*
X265186Y-30102D01*
X265135Y-30107D01*
X265080Y-30111D01*
X265015Y-30121D01*
X264946Y-30130D01*
X264872Y-30148D01*
X264793Y-30167D01*
X264715Y-30185D01*
X264632Y-30213D01*
X264548Y-30245D01*
X264465Y-30282D01*
X264387Y-30324D01*
X264308Y-30375D01*
X264304Y-30379D01*
X264290Y-30389D01*
X264271Y-30402D01*
X264239Y-30426D01*
X264207Y-30453D01*
X264165Y-30490D01*
X264124Y-30532D01*
X264073Y-30582D01*
X264022Y-30638D01*
X263971Y-30703D01*
X263916Y-30772D01*
X263860Y-30846D01*
X263805Y-30934D01*
X263754Y-31021D01*
X263703Y-31119D01*
X263652Y-31225D01*
X263648Y-31229D01*
X263643Y-31252D01*
X263629Y-31285D01*
X263615Y-31326D01*
X263597Y-31382D01*
X263574Y-31451D01*
X263551Y-31530D01*
X263532Y-31617D01*
X263509Y-31714D01*
X263486Y-31821D01*
X263463Y-31936D01*
X263444Y-32061D01*
X263431Y-32190D01*
X263417Y-32333D01*
X263412Y-32477D01*
X263407Y-32629D01*
Y-32634D01*
Y-32643D01*
Y-32662D01*
Y-32685D01*
Y-32712D01*
X263412Y-32749D01*
Y-32791D01*
X263417Y-32837D01*
X263421Y-32888D01*
X263426Y-32943D01*
X263435Y-33064D01*
X263454Y-33198D01*
X263472Y-33341D01*
X263500Y-33493D01*
X263537Y-33650D01*
X263578Y-33807D01*
X263629Y-33964D01*
X263689Y-34117D01*
X263758Y-34265D01*
X263842Y-34403D01*
X263934Y-34528D01*
X263939Y-34533D01*
X263957Y-34556D01*
X263989Y-34588D01*
X264031Y-34625D01*
X264082Y-34676D01*
X264147Y-34727D01*
X264220Y-34782D01*
X264304Y-34842D01*
X264401Y-34902D01*
X264502Y-34958D01*
X264618Y-35008D01*
X264738Y-35059D01*
X264872Y-35096D01*
X265010Y-35129D01*
X265158Y-35147D01*
X265311Y-35156D01*
X265352D01*
X265380Y-35152D01*
X265417D01*
X265463Y-35147D01*
X265510Y-35142D01*
X265565Y-35133D01*
X265625Y-35124D01*
X265690Y-35110D01*
X265833Y-35078D01*
X265981Y-35032D01*
X266138Y-34967D01*
X266142Y-34962D01*
X266156Y-34958D01*
X266179Y-34948D01*
X266207Y-34930D01*
X266244Y-34912D01*
X266286Y-34893D01*
X266332Y-34865D01*
X266383Y-34838D01*
X266489Y-34768D01*
X266604Y-34690D01*
X266715Y-34602D01*
X266817Y-34505D01*
Y-33327D01*
X265297D01*
Y-32583D01*
X267487Y-32578D01*
Y-34925D01*
X267482Y-34930D01*
X267464Y-34948D01*
X267436Y-34971D01*
X267399Y-35004D01*
X267353Y-35045D01*
X267297Y-35092D01*
X267237Y-35147D01*
X267168Y-35203D01*
X267094Y-35258D01*
X267011Y-35323D01*
X266923Y-35383D01*
X266835Y-35443D01*
X266641Y-35563D01*
X266544Y-35614D01*
X266443Y-35664D01*
X266438Y-35669D01*
X266420Y-35674D01*
X266392Y-35688D01*
X266350Y-35702D01*
X266300Y-35720D01*
X266244Y-35743D01*
X266179Y-35766D01*
X266106Y-35785D01*
X266022Y-35808D01*
X265939Y-35831D01*
X265847Y-35854D01*
X265750Y-35872D01*
X265551Y-35900D01*
X265445Y-35905D01*
X265338Y-35909D01*
X265306D01*
X265265Y-35905D01*
X265209D01*
X265144Y-35895D01*
X265066Y-35891D01*
X264983Y-35877D01*
X264886Y-35863D01*
X264784Y-35840D01*
X264673Y-35817D01*
X264562Y-35785D01*
X264447Y-35748D01*
X264331Y-35706D01*
X264216Y-35655D01*
X264100Y-35595D01*
X263985Y-35531D01*
X263980Y-35526D01*
X263957Y-35512D01*
X263929Y-35489D01*
X263888Y-35461D01*
X263837Y-35420D01*
X263782Y-35373D01*
X263717Y-35313D01*
X263648Y-35249D01*
X263574Y-35175D01*
X263495Y-35096D01*
X263417Y-35004D01*
X263338Y-34907D01*
X263264Y-34796D01*
X263186Y-34681D01*
X263116Y-34560D01*
X263047Y-34426D01*
X263042Y-34417D01*
X263033Y-34394D01*
X263015Y-34352D01*
X262992Y-34297D01*
X262968Y-34228D01*
X262936Y-34140D01*
X262908Y-34043D01*
X262876Y-33932D01*
X262844Y-33812D01*
X262811Y-33678D01*
X262779Y-33535D01*
X262756Y-33382D01*
X262733Y-33221D01*
X262714Y-33045D01*
X262705Y-32865D01*
X262701Y-32680D01*
Y-32675D01*
Y-32666D01*
Y-32652D01*
Y-32634D01*
Y-32611D01*
X262705Y-32578D01*
Y-32546D01*
Y-32504D01*
X262710Y-32417D01*
X262719Y-32310D01*
X262728Y-32195D01*
X262742Y-32066D01*
X262761Y-31932D01*
X262784Y-31784D01*
X262811Y-31636D01*
X262848Y-31483D01*
X262885Y-31331D01*
X262931Y-31174D01*
X262987Y-31026D01*
X263047Y-30878D01*
X263052Y-30869D01*
X263061Y-30846D01*
X263084Y-30804D01*
X263112Y-30753D01*
X263144Y-30689D01*
X263186Y-30615D01*
X263236Y-30536D01*
X263292Y-30449D01*
X263352Y-30356D01*
X263421Y-30264D01*
X263495Y-30171D01*
X263578Y-30079D01*
X263666Y-29987D01*
X263758Y-29899D01*
X263856Y-29820D01*
X263957Y-29746D01*
X263962Y-29742D01*
X263985Y-29732D01*
X264013Y-29714D01*
X264059Y-29691D01*
X264110Y-29663D01*
X264174Y-29631D01*
X264253Y-29599D01*
X264336Y-29561D01*
X264428Y-29529D01*
X264530Y-29497D01*
X264641Y-29465D01*
X264756Y-29437D01*
X264881Y-29414D01*
X265015Y-29395D01*
X265149Y-29386D01*
X265292Y-29381D01*
X265348D01*
X265389Y-29386D01*
D02*
G37*
G36*
X254759Y-35803D02*
X254163D01*
X252740Y-31234D01*
X253414D01*
X254218Y-33969D01*
Y-33974D01*
X254223Y-33988D01*
X254232Y-34015D01*
X254241Y-34048D01*
X254255Y-34089D01*
X254269Y-34140D01*
X254283Y-34195D01*
X254301Y-34260D01*
X254320Y-34325D01*
X254338Y-34399D01*
X254380Y-34556D01*
X254417Y-34718D01*
X254458Y-34888D01*
Y-34884D01*
X254463Y-34870D01*
X254468Y-34851D01*
X254472Y-34824D01*
X254482Y-34791D01*
X254491Y-34750D01*
X254505Y-34699D01*
X254519Y-34644D01*
X254532Y-34584D01*
X254551Y-34519D01*
X254569Y-34449D01*
X254592Y-34371D01*
X254615Y-34292D01*
X254639Y-34205D01*
X254689Y-34025D01*
X255530Y-31234D01*
X256182D01*
X254759Y-35803D01*
D02*
G37*
G36*
X240451D02*
X239790D01*
Y-30523D01*
X238284Y-35803D01*
X237665D01*
X236173Y-30435D01*
Y-35803D01*
X235512D01*
Y-29492D01*
X236542D01*
X237766Y-33964D01*
X238011Y-34898D01*
Y-34893D01*
X238016Y-34879D01*
X238020Y-34861D01*
X238030Y-34833D01*
X238039Y-34796D01*
X238048Y-34750D01*
X238067Y-34699D01*
X238081Y-34639D01*
X238099Y-34570D01*
X238118Y-34496D01*
X238141Y-34413D01*
X238168Y-34325D01*
X238196Y-34223D01*
X238224Y-34117D01*
X238256Y-34006D01*
X238288Y-33886D01*
X239527Y-29492D01*
X240451D01*
Y-35803D01*
D02*
G37*
G36*
X275415Y-29497D02*
X275479D01*
X275553Y-29502D01*
X275627Y-29506D01*
X275794Y-29525D01*
X275964Y-29543D01*
X276043Y-29557D01*
X276122Y-29575D01*
X276196Y-29594D01*
X276260Y-29617D01*
X276265D01*
X276279Y-29626D01*
X276302Y-29635D01*
X276334Y-29649D01*
X276371Y-29668D01*
X276417Y-29691D01*
X276464Y-29719D01*
X276519Y-29751D01*
X276574Y-29792D01*
X276634Y-29834D01*
X276690Y-29885D01*
X276750Y-29940D01*
X276810Y-30000D01*
X276870Y-30070D01*
X276925Y-30144D01*
X276976Y-30222D01*
X276981Y-30227D01*
X276990Y-30241D01*
X276999Y-30268D01*
X277018Y-30301D01*
X277036Y-30342D01*
X277060Y-30398D01*
X277087Y-30458D01*
X277110Y-30523D01*
X277133Y-30601D01*
X277161Y-30684D01*
X277184Y-30772D01*
X277203Y-30869D01*
X277221Y-30971D01*
X277235Y-31077D01*
X277240Y-31188D01*
X277244Y-31308D01*
Y-31313D01*
Y-31317D01*
Y-31345D01*
X277240Y-31391D01*
Y-31451D01*
X277230Y-31520D01*
X277221Y-31608D01*
X277207Y-31701D01*
X277189Y-31802D01*
X277166Y-31909D01*
X277138Y-32024D01*
X277101Y-32140D01*
X277060Y-32255D01*
X277009Y-32370D01*
X276949Y-32486D01*
X276884Y-32592D01*
X276805Y-32699D01*
X276801Y-32703D01*
X276787Y-32722D01*
X276759Y-32749D01*
X276722Y-32782D01*
X276671Y-32823D01*
X276611Y-32869D01*
X276537Y-32916D01*
X276454Y-32967D01*
X276357Y-33017D01*
X276246Y-33064D01*
X276126Y-33110D01*
X275988Y-33151D01*
X275840Y-33184D01*
X275674Y-33211D01*
X275498Y-33230D01*
X275304Y-33234D01*
X273983D01*
Y-35803D01*
X273299D01*
Y-29492D01*
X275355D01*
X275415Y-29497D01*
D02*
G37*
G36*
X270495D02*
X270545D01*
X270601Y-29502D01*
X270665Y-29506D01*
X270735Y-29515D01*
X270887Y-29538D01*
X271040Y-29571D01*
X271192Y-29617D01*
X271266Y-29645D01*
X271331Y-29677D01*
X271335D01*
X271344Y-29686D01*
X271363Y-29695D01*
X271386Y-29714D01*
X271418Y-29732D01*
X271451Y-29756D01*
X271529Y-29816D01*
X271622Y-29899D01*
X271668Y-29945D01*
X271714Y-29996D01*
X271760Y-30051D01*
X271807Y-30116D01*
X271853Y-30181D01*
X271894Y-30250D01*
X271899Y-30255D01*
X271903Y-30268D01*
X271913Y-30287D01*
X271931Y-30319D01*
X271945Y-30356D01*
X271964Y-30398D01*
X271987Y-30449D01*
X272005Y-30504D01*
X272028Y-30564D01*
X272047Y-30629D01*
X272084Y-30772D01*
X272107Y-30934D01*
X272112Y-31017D01*
X272116Y-31105D01*
Y-31109D01*
Y-31123D01*
Y-31146D01*
X272112Y-31179D01*
Y-31216D01*
X272107Y-31262D01*
X272102Y-31313D01*
X272093Y-31363D01*
X272070Y-31488D01*
X272038Y-31617D01*
X271991Y-31756D01*
X271927Y-31890D01*
Y-31895D01*
X271917Y-31904D01*
X271908Y-31922D01*
X271890Y-31945D01*
X271871Y-31978D01*
X271848Y-32010D01*
X271788Y-32089D01*
X271714Y-32176D01*
X271622Y-32274D01*
X271515Y-32366D01*
X271391Y-32449D01*
X271395D01*
X271409Y-32458D01*
X271432Y-32467D01*
X271465Y-32481D01*
X271502Y-32500D01*
X271548Y-32523D01*
X271599Y-32546D01*
X271649Y-32578D01*
X271705Y-32615D01*
X271765Y-32657D01*
X271820Y-32703D01*
X271881Y-32754D01*
X271940Y-32809D01*
X271996Y-32869D01*
X272051Y-32934D01*
X272102Y-33008D01*
X272107Y-33013D01*
X272112Y-33026D01*
X272125Y-33050D01*
X272144Y-33077D01*
X272162Y-33114D01*
X272185Y-33160D01*
X272208Y-33216D01*
X272236Y-33276D01*
X272259Y-33345D01*
X272282Y-33419D01*
X272305Y-33498D01*
X272324Y-33581D01*
X272342Y-33673D01*
X272356Y-33770D01*
X272361Y-33872D01*
X272365Y-33978D01*
Y-33983D01*
Y-34001D01*
Y-34034D01*
X272361Y-34075D01*
X272356Y-34126D01*
X272352Y-34181D01*
X272347Y-34246D01*
X272338Y-34320D01*
X272324Y-34394D01*
X272310Y-34477D01*
X272269Y-34644D01*
X272241Y-34731D01*
X272208Y-34819D01*
X272171Y-34902D01*
X272130Y-34985D01*
X272125Y-34990D01*
X272121Y-35004D01*
X272107Y-35027D01*
X272088Y-35055D01*
X272065Y-35092D01*
X272033Y-35133D01*
X272001Y-35175D01*
X271964Y-35226D01*
X271871Y-35327D01*
X271765Y-35429D01*
X271640Y-35526D01*
X271575Y-35572D01*
X271502Y-35609D01*
X271497D01*
X271483Y-35618D01*
X271460Y-35628D01*
X271432Y-35641D01*
X271391Y-35655D01*
X271344Y-35669D01*
X271285Y-35688D01*
X271224Y-35706D01*
X271150Y-35725D01*
X271067Y-35743D01*
X270980Y-35757D01*
X270887Y-35771D01*
X270781Y-35785D01*
X270670Y-35794D01*
X270554Y-35798D01*
X270430Y-35803D01*
X268462D01*
Y-29492D01*
X270453D01*
X270495Y-29497D01*
D02*
G37*
G36*
X261680Y-35803D02*
X260954D01*
Y-34921D01*
X261680D01*
Y-35803D01*
D02*
G37*
G36*
X259231Y-33581D02*
X259933D01*
Y-34292D01*
X259231D01*
Y-35803D01*
X258593D01*
Y-34292D01*
X256353D01*
Y-33581D01*
X258709Y-29492D01*
X259231D01*
Y-33581D01*
D02*
G37*
G36*
X248679Y-31137D02*
X248730Y-31142D01*
X248794Y-31151D01*
X248868Y-31165D01*
X248951Y-31183D01*
X249044Y-31206D01*
X249141Y-31239D01*
X249238Y-31280D01*
X249344Y-31331D01*
X249450Y-31386D01*
X249557Y-31456D01*
X249658Y-31539D01*
X249760Y-31631D01*
X249857Y-31738D01*
X249862Y-31742D01*
X249880Y-31765D01*
X249903Y-31802D01*
X249935Y-31848D01*
X249972Y-31913D01*
X250019Y-31987D01*
X250060Y-32075D01*
X250111Y-32181D01*
X250157Y-32297D01*
X250203Y-32426D01*
X250245Y-32569D01*
X250282Y-32722D01*
X250314Y-32893D01*
X250337Y-33073D01*
X250356Y-33267D01*
X250360Y-33475D01*
Y-33479D01*
Y-33489D01*
Y-33507D01*
Y-33530D01*
Y-33558D01*
X250356Y-33590D01*
Y-33632D01*
X250351Y-33678D01*
X250347Y-33780D01*
X250333Y-33895D01*
X250319Y-34025D01*
X250300Y-34168D01*
X250273Y-34315D01*
X250240Y-34463D01*
X250199Y-34616D01*
X250148Y-34768D01*
X250093Y-34916D01*
X250028Y-35059D01*
X249949Y-35189D01*
X249862Y-35309D01*
X249857Y-35313D01*
X249838Y-35337D01*
X249811Y-35364D01*
X249774Y-35401D01*
X249723Y-35447D01*
X249663Y-35498D01*
X249598Y-35554D01*
X249520Y-35609D01*
X249432Y-35665D01*
X249340Y-35720D01*
X249233Y-35771D01*
X249122Y-35817D01*
X249002Y-35854D01*
X248878Y-35882D01*
X248744Y-35905D01*
X248605Y-35909D01*
X248573D01*
X248531Y-35905D01*
X248480Y-35900D01*
X248415Y-35891D01*
X248342Y-35877D01*
X248258Y-35859D01*
X248166Y-35835D01*
X248069Y-35803D01*
X247967Y-35762D01*
X247861Y-35715D01*
X247759Y-35655D01*
X247653Y-35586D01*
X247547Y-35508D01*
X247445Y-35415D01*
X247348Y-35309D01*
X247344Y-35300D01*
X247325Y-35281D01*
X247302Y-35244D01*
X247270Y-35193D01*
X247233Y-35133D01*
X247191Y-35055D01*
X247145Y-34962D01*
X247099Y-34856D01*
X247053Y-34741D01*
X247006Y-34607D01*
X246965Y-34459D01*
X246928Y-34297D01*
X246896Y-34126D01*
X246872Y-33937D01*
X246854Y-33738D01*
X246849Y-33521D01*
Y-33516D01*
Y-33507D01*
Y-33493D01*
Y-33470D01*
Y-33442D01*
X246854Y-33405D01*
Y-33368D01*
X246859Y-33327D01*
X246863Y-33230D01*
X246877Y-33114D01*
X246891Y-32990D01*
X246909Y-32856D01*
X246937Y-32712D01*
X246969Y-32564D01*
X247011Y-32417D01*
X247057Y-32269D01*
X247113Y-32126D01*
X247182Y-31987D01*
X247256Y-31858D01*
X247344Y-31738D01*
X247348Y-31728D01*
X247367Y-31710D01*
X247394Y-31682D01*
X247431Y-31640D01*
X247482Y-31599D01*
X247542Y-31548D01*
X247612Y-31493D01*
X247690Y-31433D01*
X247773Y-31377D01*
X247870Y-31322D01*
X247977Y-31271D01*
X248087Y-31225D01*
X248208Y-31188D01*
X248332Y-31160D01*
X248466Y-31137D01*
X248605Y-31132D01*
X248637D01*
X248679Y-31137D01*
D02*
G37*
G36*
X243052D02*
X243103Y-31142D01*
X243167Y-31151D01*
X243241Y-31165D01*
X243324Y-31183D01*
X243417Y-31206D01*
X243514Y-31239D01*
X243611Y-31280D01*
X243717Y-31331D01*
X243823Y-31386D01*
X243929Y-31456D01*
X244031Y-31539D01*
X244133Y-31631D01*
X244230Y-31738D01*
X244234Y-31742D01*
X244253Y-31765D01*
X244276Y-31802D01*
X244308Y-31848D01*
X244345Y-31913D01*
X244391Y-31987D01*
X244433Y-32075D01*
X244484Y-32181D01*
X244530Y-32297D01*
X244576Y-32426D01*
X244618Y-32569D01*
X244655Y-32722D01*
X244687Y-32893D01*
X244710Y-33073D01*
X244729Y-33267D01*
X244733Y-33475D01*
Y-33479D01*
Y-33489D01*
Y-33507D01*
Y-33530D01*
Y-33558D01*
X244729Y-33590D01*
Y-33632D01*
X244724Y-33678D01*
X244720Y-33780D01*
X244706Y-33895D01*
X244692Y-34025D01*
X244673Y-34168D01*
X244646Y-34315D01*
X244613Y-34463D01*
X244572Y-34616D01*
X244521Y-34768D01*
X244465Y-34916D01*
X244401Y-35059D01*
X244322Y-35189D01*
X244234Y-35309D01*
X244230Y-35313D01*
X244211Y-35337D01*
X244184Y-35364D01*
X244147Y-35401D01*
X244096Y-35447D01*
X244036Y-35498D01*
X243971Y-35554D01*
X243893Y-35609D01*
X243805Y-35665D01*
X243712Y-35720D01*
X243606Y-35771D01*
X243495Y-35817D01*
X243375Y-35854D01*
X243250Y-35882D01*
X243116Y-35905D01*
X242978Y-35909D01*
X242945D01*
X242904Y-35905D01*
X242853Y-35900D01*
X242788Y-35891D01*
X242714Y-35877D01*
X242631Y-35859D01*
X242539Y-35835D01*
X242442Y-35803D01*
X242340Y-35762D01*
X242234Y-35715D01*
X242132Y-35655D01*
X242026Y-35586D01*
X241920Y-35508D01*
X241818Y-35415D01*
X241721Y-35309D01*
X241717Y-35300D01*
X241698Y-35281D01*
X241675Y-35244D01*
X241642Y-35193D01*
X241606Y-35133D01*
X241564Y-35055D01*
X241518Y-34962D01*
X241472Y-34856D01*
X241425Y-34741D01*
X241379Y-34607D01*
X241338Y-34459D01*
X241301Y-34297D01*
X241268Y-34126D01*
X241245Y-33937D01*
X241227Y-33738D01*
X241222Y-33521D01*
Y-33516D01*
Y-33507D01*
Y-33493D01*
Y-33470D01*
Y-33442D01*
X241227Y-33405D01*
Y-33368D01*
X241231Y-33327D01*
X241236Y-33230D01*
X241250Y-33114D01*
X241264Y-32990D01*
X241282Y-32856D01*
X241310Y-32712D01*
X241342Y-32564D01*
X241384Y-32417D01*
X241430Y-32269D01*
X241486Y-32126D01*
X241555Y-31987D01*
X241629Y-31858D01*
X241717Y-31738D01*
X241721Y-31728D01*
X241740Y-31710D01*
X241767Y-31682D01*
X241804Y-31640D01*
X241855Y-31599D01*
X241915Y-31548D01*
X241984Y-31493D01*
X242063Y-31433D01*
X242146Y-31377D01*
X242243Y-31322D01*
X242349Y-31271D01*
X242460Y-31225D01*
X242580Y-31188D01*
X242705Y-31160D01*
X242839Y-31137D01*
X242978Y-31132D01*
X243010D01*
X243052Y-31137D01*
D02*
G37*
G36*
X246110Y-36048D02*
Y-36053D01*
Y-36057D01*
Y-36071D01*
Y-36090D01*
Y-36136D01*
X246106Y-36200D01*
X246101Y-36274D01*
X246096Y-36362D01*
X246092Y-36455D01*
X246082Y-36556D01*
X246050Y-36769D01*
X246032Y-36875D01*
X246008Y-36977D01*
X245981Y-37074D01*
X245948Y-37166D01*
X245911Y-37249D01*
X245870Y-37319D01*
X245865Y-37323D01*
X245861Y-37332D01*
X245847Y-37351D01*
X245824Y-37369D01*
X245801Y-37397D01*
X245768Y-37425D01*
X245736Y-37457D01*
X245694Y-37485D01*
X245648Y-37517D01*
X245593Y-37549D01*
X245537Y-37577D01*
X245473Y-37605D01*
X245408Y-37623D01*
X245334Y-37642D01*
X245255Y-37651D01*
X245172Y-37656D01*
X245131D01*
X245080Y-37651D01*
X245015Y-37646D01*
X244937Y-37637D01*
X244853Y-37619D01*
X244766Y-37600D01*
X244673Y-37573D01*
X244793Y-36912D01*
X244803Y-36917D01*
X244826Y-36921D01*
X244858Y-36930D01*
X244900Y-36944D01*
X244951Y-36958D01*
X244997Y-36967D01*
X245047Y-36972D01*
X245089Y-36977D01*
X245098D01*
X245121Y-36972D01*
X245158Y-36967D01*
X245200Y-36958D01*
X245246Y-36935D01*
X245297Y-36907D01*
X245343Y-36870D01*
X245380Y-36815D01*
X245385Y-36806D01*
X245389Y-36796D01*
X245394Y-36783D01*
X245403Y-36759D01*
X245412Y-36732D01*
X245422Y-36699D01*
X245431Y-36658D01*
X245436Y-36612D01*
X245445Y-36556D01*
X245454Y-36492D01*
X245463Y-36418D01*
X245468Y-36339D01*
X245473Y-36247D01*
X245477Y-36145D01*
Y-36034D01*
Y-31234D01*
X246110D01*
Y-36048D01*
D02*
G37*
G36*
X256334Y-21137D02*
X256380Y-21142D01*
X256436Y-21151D01*
X256491Y-21165D01*
X256556Y-21179D01*
X256621Y-21197D01*
X256690Y-21220D01*
X256764Y-21252D01*
X256833Y-21289D01*
X256902Y-21331D01*
X256972Y-21382D01*
X257036Y-21437D01*
X257097Y-21502D01*
X257101Y-21507D01*
X257110Y-21520D01*
X257124Y-21539D01*
X257147Y-21571D01*
X257170Y-21613D01*
X257198Y-21659D01*
X257226Y-21719D01*
X257254Y-21784D01*
X257281Y-21862D01*
X257314Y-21945D01*
X257337Y-22042D01*
X257360Y-22149D01*
X257383Y-22264D01*
X257397Y-22389D01*
X257406Y-22523D01*
X257411Y-22671D01*
Y-25803D01*
X256778D01*
Y-22925D01*
Y-22920D01*
Y-22902D01*
Y-22879D01*
Y-22846D01*
Y-22805D01*
X256773Y-22759D01*
Y-22708D01*
X256768Y-22652D01*
X256759Y-22541D01*
X256745Y-22426D01*
X256727Y-22320D01*
X256718Y-22274D01*
X256704Y-22232D01*
Y-22227D01*
X256699Y-22223D01*
X256690Y-22199D01*
X256671Y-22158D01*
X256648Y-22112D01*
X256616Y-22061D01*
X256579Y-22010D01*
X256528Y-21959D01*
X256473Y-21913D01*
X256464Y-21908D01*
X256445Y-21895D01*
X256413Y-21876D01*
X256366Y-21853D01*
X256316Y-21835D01*
X256251Y-21816D01*
X256186Y-21802D01*
X256112Y-21798D01*
X256071D01*
X256043Y-21802D01*
X256011Y-21807D01*
X255969Y-21816D01*
X255923Y-21825D01*
X255877Y-21839D01*
X255821Y-21858D01*
X255770Y-21876D01*
X255710Y-21904D01*
X255655Y-21936D01*
X255600Y-21973D01*
X255544Y-22019D01*
X255493Y-22066D01*
X255443Y-22126D01*
X255438Y-22130D01*
X255433Y-22140D01*
X255419Y-22158D01*
X255401Y-22186D01*
X255382Y-22223D01*
X255359Y-22264D01*
X255336Y-22315D01*
X255313Y-22375D01*
X255290Y-22440D01*
X255267Y-22518D01*
X255244Y-22602D01*
X255225Y-22694D01*
X255207Y-22795D01*
X255193Y-22902D01*
X255188Y-23022D01*
X255184Y-23147D01*
Y-25803D01*
X254551D01*
Y-22832D01*
Y-22828D01*
Y-22809D01*
Y-22777D01*
X254546Y-22740D01*
Y-22694D01*
X254542Y-22638D01*
X254537Y-22583D01*
X254528Y-22518D01*
X254509Y-22389D01*
X254477Y-22255D01*
X254458Y-22195D01*
X254435Y-22135D01*
X254408Y-22079D01*
X254375Y-22033D01*
Y-22029D01*
X254366Y-22024D01*
X254343Y-21996D01*
X254306Y-21959D01*
X254251Y-21913D01*
X254181Y-21871D01*
X254098Y-21835D01*
X254001Y-21807D01*
X253950Y-21802D01*
X253895Y-21798D01*
X253853D01*
X253821Y-21802D01*
X253788Y-21807D01*
X253742Y-21816D01*
X253696Y-21825D01*
X253645Y-21839D01*
X253590Y-21858D01*
X253534Y-21885D01*
X253479Y-21913D01*
X253424Y-21945D01*
X253363Y-21987D01*
X253308Y-22033D01*
X253257Y-22089D01*
X253206Y-22149D01*
X253202Y-22153D01*
X253197Y-22167D01*
X253183Y-22186D01*
X253169Y-22218D01*
X253151Y-22260D01*
X253128Y-22310D01*
X253105Y-22370D01*
X253082Y-22440D01*
X253059Y-22523D01*
X253035Y-22615D01*
X253017Y-22722D01*
X252994Y-22837D01*
X252980Y-22966D01*
X252966Y-23110D01*
X252961Y-23267D01*
X252957Y-23433D01*
Y-25803D01*
X252324D01*
Y-21234D01*
X252892D01*
Y-21867D01*
X252902Y-21858D01*
X252911Y-21839D01*
X252925Y-21812D01*
X252943Y-21784D01*
X252966Y-21751D01*
X253022Y-21673D01*
X253091Y-21585D01*
X253174Y-21493D01*
X253267Y-21405D01*
X253373Y-21326D01*
X253377Y-21322D01*
X253387Y-21317D01*
X253405Y-21308D01*
X253424Y-21294D01*
X253451Y-21280D01*
X253488Y-21266D01*
X253525Y-21248D01*
X253567Y-21229D01*
X253664Y-21192D01*
X253775Y-21165D01*
X253895Y-21142D01*
X254024Y-21132D01*
X254061D01*
X254089Y-21137D01*
X254126D01*
X254163Y-21142D01*
X254209Y-21151D01*
X254255Y-21155D01*
X254361Y-21183D01*
X254472Y-21220D01*
X254588Y-21266D01*
X254643Y-21299D01*
X254694Y-21336D01*
X254699D01*
X254708Y-21345D01*
X254722Y-21359D01*
X254740Y-21373D01*
X254759Y-21396D01*
X254786Y-21419D01*
X254847Y-21483D01*
X254907Y-21571D01*
X254971Y-21673D01*
X255031Y-21788D01*
X255082Y-21927D01*
X255087Y-21922D01*
X255091Y-21908D01*
X255105Y-21890D01*
X255124Y-21862D01*
X255142Y-21830D01*
X255170Y-21788D01*
X255230Y-21705D01*
X255309Y-21608D01*
X255396Y-21507D01*
X255493Y-21414D01*
X255544Y-21373D01*
X255600Y-21331D01*
X255604Y-21326D01*
X255613Y-21322D01*
X255627Y-21313D01*
X255650Y-21299D01*
X255678Y-21285D01*
X255710Y-21266D01*
X255747Y-21248D01*
X255789Y-21229D01*
X255886Y-21197D01*
X255997Y-21165D01*
X256117Y-21142D01*
X256182Y-21132D01*
X256297D01*
X256334Y-21137D01*
D02*
G37*
G36*
X270564Y-21137D02*
X270605Y-21142D01*
X270656Y-21146D01*
X270707Y-21151D01*
X270823Y-21169D01*
X270947Y-21197D01*
X271072Y-21234D01*
X271192Y-21285D01*
X271197D01*
X271206Y-21289D01*
X271224Y-21299D01*
X271243Y-21313D01*
X271271Y-21326D01*
X271303Y-21345D01*
X271372Y-21391D01*
X271451Y-21451D01*
X271529Y-21520D01*
X271608Y-21599D01*
X271677Y-21691D01*
Y-21696D01*
X271686Y-21705D01*
X271696Y-21719D01*
X271705Y-21737D01*
X271719Y-21765D01*
X271733Y-21798D01*
X271751Y-21835D01*
X271770Y-21876D01*
X271788Y-21927D01*
X271811Y-21978D01*
X271830Y-22038D01*
X271848Y-22103D01*
X271867Y-22176D01*
X271885Y-22250D01*
X271899Y-22329D01*
X271913Y-22417D01*
X271294Y-22518D01*
Y-22509D01*
X271289Y-22486D01*
X271280Y-22449D01*
X271271Y-22403D01*
X271252Y-22343D01*
X271229Y-22283D01*
X271197Y-22213D01*
X271160Y-22144D01*
X271113Y-22075D01*
X271054Y-22005D01*
X270989Y-21945D01*
X270910Y-21885D01*
X270823Y-21839D01*
X270721Y-21802D01*
X270605Y-21779D01*
X270476Y-21770D01*
X270434D01*
X270407Y-21775D01*
X270374D01*
X270333Y-21779D01*
X270245Y-21788D01*
X270143Y-21812D01*
X270042Y-21839D01*
X269940Y-21881D01*
X269899Y-21908D01*
X269857Y-21936D01*
X269848Y-21945D01*
X269825Y-21964D01*
X269792Y-22001D01*
X269760Y-22052D01*
X269723Y-22112D01*
X269691Y-22186D01*
X269668Y-22269D01*
X269663Y-22315D01*
X269658Y-22361D01*
Y-22366D01*
Y-22370D01*
Y-22384D01*
X269663Y-22403D01*
X269668Y-22449D01*
X269681Y-22504D01*
X269704Y-22569D01*
X269741Y-22634D01*
X269788Y-22698D01*
X269852Y-22759D01*
X269857Y-22763D01*
X269866Y-22768D01*
X269880Y-22777D01*
X269899Y-22786D01*
X269922Y-22795D01*
X269949Y-22809D01*
X269982Y-22823D01*
X270023Y-22842D01*
X270074Y-22865D01*
X270129Y-22888D01*
X270194Y-22911D01*
X270268Y-22939D01*
X270351Y-22966D01*
X270444Y-22999D01*
X270545Y-23031D01*
X270550D01*
X270554Y-23036D01*
X270578Y-23040D01*
X270619Y-23054D01*
X270675Y-23073D01*
X270735Y-23091D01*
X270809Y-23119D01*
X270887Y-23147D01*
X270970Y-23174D01*
X271141Y-23239D01*
X271229Y-23271D01*
X271308Y-23304D01*
X271386Y-23336D01*
X271455Y-23368D01*
X271515Y-23401D01*
X271566Y-23428D01*
X271571D01*
X271575Y-23433D01*
X271603Y-23456D01*
X271645Y-23489D01*
X271700Y-23535D01*
X271756Y-23595D01*
X271816Y-23664D01*
X271876Y-23743D01*
X271927Y-23835D01*
Y-23840D01*
X271931Y-23844D01*
X271940Y-23863D01*
X271945Y-23881D01*
X271959Y-23904D01*
X271968Y-23932D01*
X271991Y-24006D01*
X272014Y-24094D01*
X272038Y-24200D01*
X272051Y-24316D01*
X272056Y-24445D01*
Y-24454D01*
Y-24473D01*
X272051Y-24509D01*
Y-24556D01*
X272042Y-24611D01*
X272033Y-24676D01*
X272019Y-24745D01*
X272005Y-24824D01*
X271982Y-24907D01*
X271954Y-24995D01*
X271922Y-25082D01*
X271881Y-25170D01*
X271834Y-25258D01*
X271779Y-25346D01*
X271714Y-25429D01*
X271640Y-25508D01*
X271636Y-25512D01*
X271622Y-25526D01*
X271599Y-25544D01*
X271566Y-25572D01*
X271520Y-25600D01*
X271469Y-25632D01*
X271409Y-25669D01*
X271344Y-25706D01*
X271266Y-25748D01*
X271178Y-25780D01*
X271086Y-25817D01*
X270984Y-25845D01*
X270878Y-25872D01*
X270758Y-25891D01*
X270638Y-25905D01*
X270504Y-25909D01*
X270471D01*
X270444Y-25905D01*
X270416D01*
X270379Y-25900D01*
X270337Y-25896D01*
X270291Y-25886D01*
X270185Y-25863D01*
X270065Y-25831D01*
X269935Y-25785D01*
X269801Y-25725D01*
X269732Y-25688D01*
X269668Y-25646D01*
X269598Y-25600D01*
X269529Y-25549D01*
X269464Y-25494D01*
X269399Y-25429D01*
X269335Y-25364D01*
X269275Y-25286D01*
X269219Y-25207D01*
X269164Y-25119D01*
X269118Y-25022D01*
X269072Y-24921D01*
X269030Y-24814D01*
X268993Y-24694D01*
X268965Y-24570D01*
X268942Y-24436D01*
X269575Y-24316D01*
Y-24320D01*
X269580Y-24339D01*
Y-24362D01*
X269589Y-24394D01*
X269594Y-24436D01*
X269607Y-24482D01*
X269617Y-24533D01*
X269635Y-24588D01*
X269672Y-24704D01*
X269727Y-24824D01*
X269792Y-24939D01*
X269834Y-24990D01*
X269875Y-25036D01*
X269880Y-25041D01*
X269889Y-25045D01*
X269903Y-25059D01*
X269922Y-25073D01*
X269945Y-25092D01*
X269977Y-25110D01*
X270014Y-25133D01*
X270051Y-25152D01*
X270097Y-25175D01*
X270148Y-25198D01*
X270203Y-25216D01*
X270264Y-25235D01*
X270393Y-25263D01*
X270467Y-25267D01*
X270541Y-25272D01*
X270582D01*
X270610Y-25267D01*
X270642D01*
X270684Y-25263D01*
X270776Y-25244D01*
X270878Y-25221D01*
X270984Y-25184D01*
X271086Y-25133D01*
X271132Y-25106D01*
X271178Y-25069D01*
X271183Y-25064D01*
X271187Y-25059D01*
X271215Y-25032D01*
X271252Y-24985D01*
X271294Y-24925D01*
X271335Y-24851D01*
X271368Y-24764D01*
X271395Y-24662D01*
X271400Y-24607D01*
X271405Y-24551D01*
Y-24546D01*
Y-24537D01*
Y-24523D01*
X271400Y-24505D01*
X271395Y-24459D01*
X271381Y-24394D01*
X271358Y-24329D01*
X271321Y-24260D01*
X271275Y-24191D01*
X271211Y-24131D01*
X271206Y-24126D01*
X271183Y-24112D01*
X271164Y-24103D01*
X271141Y-24089D01*
X271113Y-24075D01*
X271081Y-24057D01*
X271040Y-24038D01*
X270993Y-24020D01*
X270943Y-24001D01*
X270883Y-23978D01*
X270813Y-23950D01*
X270739Y-23927D01*
X270656Y-23900D01*
X270564Y-23872D01*
X270554Y-23867D01*
X270531Y-23863D01*
X270495Y-23849D01*
X270444Y-23835D01*
X270384Y-23817D01*
X270319Y-23793D01*
X270240Y-23766D01*
X270162Y-23738D01*
X269995Y-23678D01*
X269834Y-23613D01*
X269755Y-23581D01*
X269686Y-23549D01*
X269626Y-23521D01*
X269570Y-23489D01*
X269566D01*
X269561Y-23479D01*
X269547Y-23470D01*
X269529Y-23461D01*
X269483Y-23424D01*
X269427Y-23373D01*
X269367Y-23313D01*
X269303Y-23239D01*
X269238Y-23156D01*
X269182Y-23059D01*
Y-23054D01*
X269178Y-23045D01*
X269168Y-23031D01*
X269164Y-23013D01*
X269150Y-22985D01*
X269141Y-22957D01*
X269118Y-22883D01*
X269090Y-22791D01*
X269072Y-22689D01*
X269053Y-22578D01*
X269048Y-22454D01*
Y-22449D01*
Y-22426D01*
X269053Y-22398D01*
Y-22357D01*
X269062Y-22306D01*
X269067Y-22250D01*
X269081Y-22186D01*
X269095Y-22116D01*
X269113Y-22042D01*
X269141Y-21964D01*
X269168Y-21885D01*
X269205Y-21802D01*
X269247Y-21724D01*
X269298Y-21650D01*
X269358Y-21571D01*
X269423Y-21502D01*
X269427Y-21497D01*
X269441Y-21488D01*
X269460Y-21470D01*
X269492Y-21442D01*
X269529Y-21414D01*
X269575Y-21386D01*
X269631Y-21350D01*
X269691Y-21317D01*
X269764Y-21285D01*
X269838Y-21248D01*
X269926Y-21220D01*
X270019Y-21188D01*
X270116Y-21165D01*
X270222Y-21146D01*
X270337Y-21137D01*
X270458Y-21132D01*
X270527D01*
X270564Y-21137D01*
D02*
G37*
G36*
X266859D02*
X266909D01*
X266965Y-21142D01*
X267029Y-21151D01*
X267099Y-21160D01*
X267247Y-21188D01*
X267399Y-21225D01*
X267551Y-21280D01*
X267621Y-21317D01*
X267686Y-21354D01*
X267690Y-21359D01*
X267699Y-21363D01*
X267718Y-21377D01*
X267741Y-21396D01*
X267796Y-21442D01*
X267866Y-21507D01*
X267940Y-21585D01*
X268009Y-21678D01*
X268069Y-21784D01*
X268092Y-21844D01*
X268110Y-21904D01*
Y-21908D01*
X268115Y-21918D01*
X268120Y-21936D01*
X268124Y-21964D01*
X268134Y-22001D01*
X268138Y-22042D01*
X268147Y-22089D01*
X268157Y-22144D01*
X268166Y-22209D01*
X268175Y-22283D01*
X268180Y-22361D01*
X268189Y-22444D01*
X268194Y-22537D01*
X268198Y-22638D01*
X268203Y-22745D01*
Y-22860D01*
Y-23890D01*
Y-23895D01*
Y-23904D01*
Y-23918D01*
Y-23937D01*
Y-23964D01*
Y-23992D01*
Y-24066D01*
Y-24149D01*
Y-24251D01*
X268208Y-24357D01*
Y-24468D01*
X268212Y-24704D01*
X268217Y-24814D01*
Y-24925D01*
X268221Y-25027D01*
X268226Y-25119D01*
X268235Y-25198D01*
Y-25230D01*
X268240Y-25258D01*
Y-25263D01*
Y-25272D01*
X268245Y-25286D01*
X268249Y-25304D01*
X268254Y-25332D01*
X268258Y-25360D01*
X268277Y-25433D01*
X268300Y-25517D01*
X268328Y-25605D01*
X268365Y-25706D01*
X268406Y-25803D01*
X267746D01*
Y-25798D01*
X267741Y-25794D01*
X267736Y-25780D01*
X267727Y-25762D01*
X267722Y-25738D01*
X267709Y-25711D01*
X267690Y-25646D01*
X267667Y-25563D01*
X267644Y-25471D01*
X267625Y-25364D01*
X267612Y-25244D01*
X267607Y-25249D01*
X267598Y-25258D01*
X267579Y-25276D01*
X267556Y-25300D01*
X267528Y-25327D01*
X267491Y-25360D01*
X267455Y-25392D01*
X267408Y-25429D01*
X267311Y-25512D01*
X267196Y-25595D01*
X267076Y-25674D01*
X266946Y-25743D01*
X266942D01*
X266932Y-25752D01*
X266914Y-25757D01*
X266886Y-25771D01*
X266854Y-25780D01*
X266817Y-25794D01*
X266775Y-25812D01*
X266729Y-25826D01*
X266618Y-25859D01*
X266498Y-25882D01*
X266369Y-25900D01*
X266230Y-25909D01*
X266202D01*
X266175Y-25905D01*
X266133D01*
X266082Y-25900D01*
X266027Y-25891D01*
X265962Y-25882D01*
X265893Y-25863D01*
X265819Y-25845D01*
X265745Y-25822D01*
X265667Y-25794D01*
X265588Y-25762D01*
X265514Y-25720D01*
X265436Y-25674D01*
X265366Y-25618D01*
X265297Y-25558D01*
X265292Y-25554D01*
X265283Y-25540D01*
X265265Y-25521D01*
X265242Y-25494D01*
X265218Y-25457D01*
X265186Y-25415D01*
X265158Y-25364D01*
X265126Y-25309D01*
X265094Y-25244D01*
X265061Y-25170D01*
X265029Y-25092D01*
X265006Y-25008D01*
X264983Y-24916D01*
X264964Y-24819D01*
X264955Y-24717D01*
X264950Y-24607D01*
Y-24602D01*
Y-24588D01*
Y-24570D01*
X264955Y-24537D01*
Y-24505D01*
X264960Y-24463D01*
X264964Y-24417D01*
X264969Y-24371D01*
X264992Y-24260D01*
X265020Y-24145D01*
X265057Y-24020D01*
X265112Y-23904D01*
Y-23900D01*
X265121Y-23890D01*
X265131Y-23877D01*
X265140Y-23854D01*
X265177Y-23798D01*
X265228Y-23729D01*
X265292Y-23655D01*
X265366Y-23576D01*
X265454Y-23498D01*
X265556Y-23428D01*
X265560D01*
X265569Y-23419D01*
X265588Y-23410D01*
X265611Y-23401D01*
X265639Y-23387D01*
X265676Y-23368D01*
X265722Y-23350D01*
X265773Y-23331D01*
X265828Y-23308D01*
X265893Y-23290D01*
X265962Y-23267D01*
X266041Y-23244D01*
X266124Y-23225D01*
X266216Y-23207D01*
X266313Y-23188D01*
X266420Y-23170D01*
X266429D01*
X266452Y-23165D01*
X266494Y-23160D01*
X266549Y-23151D01*
X266609Y-23137D01*
X266683Y-23128D01*
X266766Y-23110D01*
X266854Y-23096D01*
X267039Y-23054D01*
X267228Y-23008D01*
X267320Y-22985D01*
X267408Y-22957D01*
X267487Y-22930D01*
X267561Y-22902D01*
X267565Y-22708D01*
Y-22703D01*
Y-22689D01*
Y-22661D01*
X267561Y-22629D01*
Y-22592D01*
X267556Y-22551D01*
X267542Y-22449D01*
X267524Y-22338D01*
X267491Y-22232D01*
X267450Y-22130D01*
X267427Y-22084D01*
X267394Y-22047D01*
X267390Y-22042D01*
X267385Y-22033D01*
X267371Y-22019D01*
X267348Y-22005D01*
X267325Y-21982D01*
X267293Y-21959D01*
X267256Y-21936D01*
X267214Y-21908D01*
X267168Y-21881D01*
X267113Y-21858D01*
X267053Y-21835D01*
X266988Y-21812D01*
X266914Y-21798D01*
X266840Y-21784D01*
X266752Y-21775D01*
X266665Y-21770D01*
X266623D01*
X266590Y-21775D01*
X266554D01*
X266512Y-21779D01*
X266415Y-21793D01*
X266309Y-21816D01*
X266198Y-21848D01*
X266092Y-21895D01*
X266045Y-21922D01*
X265999Y-21955D01*
X265995D01*
X265990Y-21964D01*
X265981Y-21973D01*
X265962Y-21992D01*
X265944Y-22015D01*
X265925Y-22038D01*
X265902Y-22070D01*
X265879Y-22112D01*
X265851Y-22153D01*
X265828Y-22204D01*
X265800Y-22260D01*
X265773Y-22324D01*
X265750Y-22394D01*
X265722Y-22467D01*
X265699Y-22551D01*
X265680Y-22643D01*
X265057Y-22541D01*
Y-22532D01*
X265061Y-22509D01*
X265071Y-22472D01*
X265084Y-22421D01*
X265098Y-22361D01*
X265121Y-22292D01*
X265144Y-22213D01*
X265172Y-22130D01*
X265205Y-22047D01*
X265246Y-21955D01*
X265288Y-21867D01*
X265338Y-21779D01*
X265394Y-21691D01*
X265454Y-21613D01*
X265519Y-21539D01*
X265593Y-21470D01*
X265597Y-21465D01*
X265611Y-21456D01*
X265634Y-21437D01*
X265671Y-21419D01*
X265713Y-21391D01*
X265764Y-21363D01*
X265824Y-21331D01*
X265893Y-21299D01*
X265971Y-21271D01*
X266059Y-21239D01*
X266156Y-21211D01*
X266258Y-21183D01*
X266373Y-21165D01*
X266494Y-21146D01*
X266623Y-21137D01*
X266761Y-21132D01*
X266817D01*
X266859Y-21137D01*
D02*
G37*
G36*
X262553Y-19497D02*
X262617D01*
X262691Y-19501D01*
X262765Y-19506D01*
X262931Y-19525D01*
X263102Y-19543D01*
X263181Y-19557D01*
X263260Y-19575D01*
X263333Y-19594D01*
X263398Y-19617D01*
X263403D01*
X263417Y-19626D01*
X263440Y-19636D01*
X263472Y-19649D01*
X263509Y-19668D01*
X263555Y-19691D01*
X263601Y-19719D01*
X263657Y-19751D01*
X263712Y-19793D01*
X263772Y-19834D01*
X263828Y-19885D01*
X263888Y-19940D01*
X263948Y-20000D01*
X264008Y-20070D01*
X264063Y-20144D01*
X264114Y-20222D01*
X264119Y-20227D01*
X264128Y-20241D01*
X264137Y-20268D01*
X264156Y-20301D01*
X264174Y-20342D01*
X264197Y-20398D01*
X264225Y-20458D01*
X264248Y-20523D01*
X264271Y-20601D01*
X264299Y-20684D01*
X264322Y-20772D01*
X264341Y-20869D01*
X264359Y-20971D01*
X264373Y-21077D01*
X264378Y-21188D01*
X264382Y-21308D01*
Y-21313D01*
Y-21317D01*
Y-21345D01*
X264378Y-21391D01*
Y-21451D01*
X264368Y-21520D01*
X264359Y-21608D01*
X264345Y-21701D01*
X264327Y-21802D01*
X264304Y-21908D01*
X264276Y-22024D01*
X264239Y-22140D01*
X264197Y-22255D01*
X264147Y-22370D01*
X264087Y-22486D01*
X264022Y-22592D01*
X263943Y-22698D01*
X263939Y-22703D01*
X263925Y-22722D01*
X263897Y-22749D01*
X263860Y-22782D01*
X263809Y-22823D01*
X263749Y-22870D01*
X263675Y-22916D01*
X263592Y-22966D01*
X263495Y-23017D01*
X263384Y-23064D01*
X263264Y-23110D01*
X263126Y-23151D01*
X262978Y-23184D01*
X262811Y-23211D01*
X262636Y-23230D01*
X262442Y-23234D01*
X261121D01*
Y-25803D01*
X260437D01*
Y-19492D01*
X262493D01*
X262553Y-19497D01*
D02*
G37*
G36*
X237545D02*
X237595D01*
X237651Y-19501D01*
X237716Y-19506D01*
X237785Y-19515D01*
X237937Y-19538D01*
X238090Y-19571D01*
X238242Y-19617D01*
X238316Y-19645D01*
X238381Y-19677D01*
X238385D01*
X238395Y-19686D01*
X238413Y-19695D01*
X238436Y-19714D01*
X238469Y-19733D01*
X238501Y-19756D01*
X238580Y-19816D01*
X238672Y-19899D01*
X238718Y-19945D01*
X238764Y-19996D01*
X238810Y-20051D01*
X238857Y-20116D01*
X238903Y-20181D01*
X238945Y-20250D01*
X238949Y-20255D01*
X238954Y-20268D01*
X238963Y-20287D01*
X238981Y-20319D01*
X238995Y-20356D01*
X239014Y-20398D01*
X239037Y-20449D01*
X239055Y-20504D01*
X239078Y-20564D01*
X239097Y-20629D01*
X239134Y-20772D01*
X239157Y-20934D01*
X239162Y-21017D01*
X239166Y-21105D01*
Y-21109D01*
Y-21123D01*
Y-21146D01*
X239162Y-21179D01*
Y-21215D01*
X239157Y-21262D01*
X239152Y-21313D01*
X239143Y-21363D01*
X239120Y-21488D01*
X239088Y-21617D01*
X239041Y-21756D01*
X238977Y-21890D01*
Y-21895D01*
X238968Y-21904D01*
X238958Y-21922D01*
X238940Y-21945D01*
X238921Y-21978D01*
X238898Y-22010D01*
X238838Y-22089D01*
X238764Y-22176D01*
X238672Y-22274D01*
X238566Y-22366D01*
X238441Y-22449D01*
X238445D01*
X238459Y-22458D01*
X238482Y-22467D01*
X238515Y-22481D01*
X238552Y-22500D01*
X238598Y-22523D01*
X238649Y-22546D01*
X238700Y-22578D01*
X238755Y-22615D01*
X238815Y-22657D01*
X238871Y-22703D01*
X238931Y-22754D01*
X238991Y-22809D01*
X239046Y-22870D01*
X239102Y-22934D01*
X239152Y-23008D01*
X239157Y-23013D01*
X239162Y-23027D01*
X239176Y-23050D01*
X239194Y-23077D01*
X239212Y-23114D01*
X239235Y-23160D01*
X239259Y-23216D01*
X239286Y-23276D01*
X239310Y-23345D01*
X239333Y-23419D01*
X239356Y-23498D01*
X239374Y-23581D01*
X239393Y-23673D01*
X239406Y-23770D01*
X239411Y-23872D01*
X239416Y-23978D01*
Y-23983D01*
Y-24001D01*
Y-24034D01*
X239411Y-24075D01*
X239406Y-24126D01*
X239402Y-24182D01*
X239397Y-24246D01*
X239388Y-24320D01*
X239374Y-24394D01*
X239360Y-24477D01*
X239319Y-24644D01*
X239291Y-24731D01*
X239259Y-24819D01*
X239222Y-24902D01*
X239180Y-24985D01*
X239176Y-24990D01*
X239171Y-25004D01*
X239157Y-25027D01*
X239139Y-25055D01*
X239115Y-25092D01*
X239083Y-25133D01*
X239051Y-25175D01*
X239014Y-25226D01*
X238921Y-25327D01*
X238815Y-25429D01*
X238690Y-25526D01*
X238626Y-25572D01*
X238552Y-25609D01*
X238547D01*
X238533Y-25618D01*
X238510Y-25628D01*
X238482Y-25641D01*
X238441Y-25655D01*
X238395Y-25669D01*
X238335Y-25688D01*
X238275Y-25706D01*
X238201Y-25725D01*
X238118Y-25743D01*
X238030Y-25757D01*
X237937Y-25771D01*
X237831Y-25785D01*
X237720Y-25794D01*
X237605Y-25798D01*
X237480Y-25803D01*
X235512D01*
Y-19492D01*
X237503D01*
X237545Y-19497D01*
D02*
G37*
G36*
X273576Y-21234D02*
X274218D01*
Y-21835D01*
X273576D01*
Y-24509D01*
Y-24514D01*
Y-24523D01*
Y-24546D01*
Y-24570D01*
Y-24597D01*
X273581Y-24630D01*
X273585Y-24708D01*
X273590Y-24787D01*
X273599Y-24865D01*
X273613Y-24935D01*
X273622Y-24962D01*
X273631Y-24985D01*
X273636Y-24990D01*
X273645Y-25008D01*
X273668Y-25032D01*
X273701Y-25059D01*
X273742Y-25092D01*
X273793Y-25115D01*
X273858Y-25133D01*
X273936Y-25138D01*
X273978D01*
X274010Y-25133D01*
X274052D01*
X274098Y-25124D01*
X274158Y-25119D01*
X274218Y-25110D01*
X274306Y-25794D01*
X274301D01*
X274292Y-25798D01*
X274278D01*
X274260Y-25803D01*
X274214Y-25817D01*
X274149Y-25826D01*
X274075Y-25840D01*
X273996Y-25854D01*
X273913Y-25859D01*
X273830Y-25863D01*
X273775D01*
X273747Y-25859D01*
X273715Y-25854D01*
X273641Y-25845D01*
X273553Y-25831D01*
X273465Y-25808D01*
X273377Y-25775D01*
X273294Y-25734D01*
X273285Y-25729D01*
X273262Y-25711D01*
X273225Y-25683D01*
X273183Y-25641D01*
X273137Y-25591D01*
X273091Y-25531D01*
X273049Y-25457D01*
X273017Y-25378D01*
Y-25374D01*
X273012Y-25369D01*
Y-25350D01*
X273008Y-25332D01*
X272998Y-25304D01*
X272994Y-25267D01*
X272989Y-25226D01*
X272980Y-25179D01*
X272975Y-25119D01*
X272966Y-25055D01*
X272961Y-24981D01*
X272957Y-24898D01*
X272952Y-24805D01*
X272948Y-24704D01*
X272943Y-24588D01*
Y-24468D01*
Y-21835D01*
X272476D01*
Y-21234D01*
X272943D01*
Y-20102D01*
X273576Y-19635D01*
Y-21234D01*
D02*
G37*
G36*
X247062Y-21234D02*
X247704D01*
Y-21835D01*
X247062D01*
Y-24509D01*
Y-24514D01*
Y-24523D01*
Y-24546D01*
Y-24570D01*
Y-24597D01*
X247066Y-24630D01*
X247071Y-24708D01*
X247076Y-24787D01*
X247085Y-24865D01*
X247099Y-24935D01*
X247108Y-24962D01*
X247117Y-24985D01*
X247122Y-24990D01*
X247131Y-25008D01*
X247154Y-25032D01*
X247186Y-25059D01*
X247228Y-25092D01*
X247279Y-25115D01*
X247344Y-25133D01*
X247422Y-25138D01*
X247464D01*
X247496Y-25133D01*
X247538D01*
X247584Y-25124D01*
X247644Y-25119D01*
X247704Y-25110D01*
X247792Y-25794D01*
X247787D01*
X247778Y-25798D01*
X247764D01*
X247746Y-25803D01*
X247699Y-25817D01*
X247635Y-25826D01*
X247561Y-25840D01*
X247482Y-25854D01*
X247399Y-25859D01*
X247316Y-25863D01*
X247260D01*
X247233Y-25859D01*
X247200Y-25854D01*
X247127Y-25845D01*
X247039Y-25831D01*
X246951Y-25808D01*
X246863Y-25775D01*
X246780Y-25734D01*
X246771Y-25729D01*
X246748Y-25711D01*
X246711Y-25683D01*
X246669Y-25641D01*
X246623Y-25591D01*
X246577Y-25531D01*
X246535Y-25457D01*
X246503Y-25378D01*
Y-25374D01*
X246498Y-25369D01*
Y-25350D01*
X246494Y-25332D01*
X246484Y-25304D01*
X246480Y-25267D01*
X246475Y-25226D01*
X246466Y-25179D01*
X246461Y-25119D01*
X246452Y-25055D01*
X246447Y-24981D01*
X246443Y-24898D01*
X246438Y-24805D01*
X246433Y-24704D01*
X246429Y-24588D01*
Y-24468D01*
Y-21835D01*
X245962D01*
Y-21234D01*
X246429D01*
Y-20102D01*
X247062Y-19636D01*
Y-21234D01*
D02*
G37*
G36*
X245052D02*
X245694D01*
Y-21835D01*
X245052D01*
Y-24509D01*
Y-24514D01*
Y-24523D01*
Y-24546D01*
Y-24570D01*
Y-24597D01*
X245057Y-24630D01*
X245061Y-24708D01*
X245066Y-24787D01*
X245075Y-24865D01*
X245089Y-24935D01*
X245098Y-24962D01*
X245108Y-24985D01*
X245112Y-24990D01*
X245121Y-25008D01*
X245145Y-25032D01*
X245177Y-25059D01*
X245218Y-25092D01*
X245269Y-25115D01*
X245334Y-25133D01*
X245412Y-25138D01*
X245454D01*
X245486Y-25133D01*
X245528D01*
X245574Y-25124D01*
X245634Y-25119D01*
X245694Y-25110D01*
X245782Y-25794D01*
X245777D01*
X245768Y-25798D01*
X245754D01*
X245736Y-25803D01*
X245690Y-25817D01*
X245625Y-25826D01*
X245551Y-25840D01*
X245473Y-25854D01*
X245389Y-25859D01*
X245306Y-25863D01*
X245251D01*
X245223Y-25859D01*
X245191Y-25854D01*
X245117Y-25845D01*
X245029Y-25831D01*
X244941Y-25808D01*
X244853Y-25775D01*
X244770Y-25734D01*
X244761Y-25729D01*
X244738Y-25711D01*
X244701Y-25683D01*
X244659Y-25641D01*
X244613Y-25591D01*
X244567Y-25531D01*
X244525Y-25457D01*
X244493Y-25378D01*
Y-25374D01*
X244489Y-25369D01*
Y-25350D01*
X244484Y-25332D01*
X244475Y-25304D01*
X244470Y-25267D01*
X244465Y-25226D01*
X244456Y-25179D01*
X244451Y-25119D01*
X244442Y-25055D01*
X244438Y-24981D01*
X244433Y-24898D01*
X244428Y-24805D01*
X244424Y-24704D01*
X244419Y-24588D01*
Y-24468D01*
Y-21835D01*
X243953D01*
Y-21234D01*
X244419D01*
Y-20102D01*
X245052Y-19636D01*
Y-21234D01*
D02*
G37*
G36*
X276422Y-21137D02*
X276473Y-21142D01*
X276537Y-21151D01*
X276607Y-21165D01*
X276690Y-21183D01*
X276778Y-21211D01*
X276870Y-21243D01*
X276967Y-21280D01*
X277069Y-21331D01*
X277170Y-21391D01*
X277272Y-21460D01*
X277374Y-21543D01*
X277471Y-21641D01*
X277563Y-21747D01*
X277568Y-21756D01*
X277586Y-21775D01*
X277609Y-21812D01*
X277637Y-21862D01*
X277674Y-21922D01*
X277715Y-22001D01*
X277762Y-22093D01*
X277808Y-22195D01*
X277850Y-22315D01*
X277896Y-22444D01*
X277937Y-22592D01*
X277974Y-22749D01*
X278002Y-22920D01*
X278030Y-23105D01*
X278044Y-23304D01*
X278048Y-23516D01*
Y-23720D01*
X275253D01*
Y-23729D01*
X275258Y-23752D01*
Y-23793D01*
X275262Y-23844D01*
X275272Y-23909D01*
X275281Y-23983D01*
X275295Y-24066D01*
X275313Y-24154D01*
X275355Y-24343D01*
X275382Y-24440D01*
X275415Y-24537D01*
X275456Y-24630D01*
X275498Y-24722D01*
X275549Y-24805D01*
X275604Y-24884D01*
X275609Y-24888D01*
X275618Y-24902D01*
X275637Y-24921D01*
X275660Y-24944D01*
X275692Y-24972D01*
X275729Y-25008D01*
X275770Y-25041D01*
X275821Y-25078D01*
X275877Y-25115D01*
X275932Y-25147D01*
X275997Y-25179D01*
X276066Y-25212D01*
X276140Y-25235D01*
X276214Y-25253D01*
X276297Y-25267D01*
X276380Y-25272D01*
X276413D01*
X276450Y-25267D01*
X276496Y-25258D01*
X276556Y-25244D01*
X276621Y-25221D01*
X276694Y-25193D01*
X276773Y-25156D01*
X276852Y-25106D01*
X276935Y-25041D01*
X277018Y-24967D01*
X277101Y-24874D01*
X277180Y-24768D01*
X277217Y-24708D01*
X277249Y-24644D01*
X277286Y-24574D01*
X277318Y-24500D01*
X277346Y-24417D01*
X277374Y-24334D01*
X278030Y-24431D01*
Y-24440D01*
X278020Y-24463D01*
X278011Y-24500D01*
X277997Y-24551D01*
X277979Y-24611D01*
X277956Y-24685D01*
X277928Y-24759D01*
X277891Y-24847D01*
X277854Y-24935D01*
X277813Y-25022D01*
X277762Y-25115D01*
X277706Y-25207D01*
X277646Y-25300D01*
X277582Y-25383D01*
X277512Y-25466D01*
X277434Y-25540D01*
X277429Y-25544D01*
X277415Y-25554D01*
X277392Y-25572D01*
X277360Y-25595D01*
X277318Y-25628D01*
X277267Y-25655D01*
X277207Y-25692D01*
X277143Y-25725D01*
X277069Y-25757D01*
X276990Y-25794D01*
X276902Y-25822D01*
X276810Y-25849D01*
X276708Y-25877D01*
X276602Y-25896D01*
X276491Y-25905D01*
X276376Y-25909D01*
X276339D01*
X276297Y-25905D01*
X276242Y-25900D01*
X276177Y-25891D01*
X276098Y-25877D01*
X276011Y-25859D01*
X275918Y-25835D01*
X275817Y-25803D01*
X275710Y-25762D01*
X275604Y-25715D01*
X275498Y-25655D01*
X275392Y-25586D01*
X275285Y-25508D01*
X275184Y-25415D01*
X275087Y-25309D01*
X275082Y-25300D01*
X275064Y-25281D01*
X275041Y-25244D01*
X275008Y-25198D01*
X274971Y-25133D01*
X274930Y-25055D01*
X274888Y-24967D01*
X274842Y-24865D01*
X274796Y-24745D01*
X274754Y-24616D01*
X274712Y-24473D01*
X274676Y-24316D01*
X274643Y-24149D01*
X274620Y-23964D01*
X274602Y-23770D01*
X274597Y-23562D01*
Y-23558D01*
Y-23549D01*
Y-23535D01*
Y-23512D01*
Y-23484D01*
X274602Y-23447D01*
Y-23410D01*
X274606Y-23368D01*
X274611Y-23267D01*
X274625Y-23156D01*
X274639Y-23031D01*
X274657Y-22893D01*
X274685Y-22749D01*
X274717Y-22602D01*
X274759Y-22449D01*
X274805Y-22301D01*
X274860Y-22153D01*
X274930Y-22015D01*
X275004Y-21881D01*
X275091Y-21756D01*
X275096Y-21747D01*
X275114Y-21728D01*
X275142Y-21701D01*
X275179Y-21659D01*
X275230Y-21613D01*
X275290Y-21557D01*
X275359Y-21502D01*
X275438Y-21442D01*
X275521Y-21386D01*
X275618Y-21331D01*
X275724Y-21275D01*
X275835Y-21229D01*
X275955Y-21188D01*
X276080Y-21160D01*
X276214Y-21137D01*
X276353Y-21132D01*
X276385D01*
X276422Y-21137D01*
D02*
G37*
G36*
X249889Y-21137D02*
X249940Y-21142D01*
X250005Y-21151D01*
X250079Y-21165D01*
X250162Y-21183D01*
X250254Y-21206D01*
X250351Y-21239D01*
X250448Y-21280D01*
X250554Y-21331D01*
X250661Y-21386D01*
X250767Y-21456D01*
X250869Y-21539D01*
X250970Y-21631D01*
X251067Y-21737D01*
X251072Y-21742D01*
X251091Y-21765D01*
X251114Y-21802D01*
X251146Y-21848D01*
X251183Y-21913D01*
X251229Y-21987D01*
X251271Y-22075D01*
X251322Y-22181D01*
X251368Y-22297D01*
X251414Y-22426D01*
X251455Y-22569D01*
X251492Y-22722D01*
X251525Y-22893D01*
X251548Y-23073D01*
X251566Y-23267D01*
X251571Y-23475D01*
Y-23479D01*
Y-23489D01*
Y-23507D01*
Y-23530D01*
Y-23558D01*
X251566Y-23590D01*
Y-23632D01*
X251562Y-23678D01*
X251557Y-23780D01*
X251543Y-23895D01*
X251529Y-24024D01*
X251511Y-24168D01*
X251483Y-24316D01*
X251451Y-24463D01*
X251409Y-24616D01*
X251358Y-24768D01*
X251303Y-24916D01*
X251238Y-25059D01*
X251160Y-25189D01*
X251072Y-25309D01*
X251067Y-25313D01*
X251049Y-25337D01*
X251021Y-25364D01*
X250984Y-25401D01*
X250933Y-25447D01*
X250873Y-25498D01*
X250809Y-25554D01*
X250730Y-25609D01*
X250642Y-25665D01*
X250550Y-25720D01*
X250444Y-25771D01*
X250333Y-25817D01*
X250213Y-25854D01*
X250088Y-25882D01*
X249954Y-25905D01*
X249815Y-25909D01*
X249783D01*
X249741Y-25905D01*
X249691Y-25900D01*
X249626Y-25891D01*
X249552Y-25877D01*
X249469Y-25859D01*
X249376Y-25835D01*
X249279Y-25803D01*
X249178Y-25762D01*
X249072Y-25715D01*
X248970Y-25655D01*
X248864Y-25586D01*
X248757Y-25508D01*
X248656Y-25415D01*
X248559Y-25309D01*
X248554Y-25300D01*
X248536Y-25281D01*
X248513Y-25244D01*
X248480Y-25193D01*
X248443Y-25133D01*
X248402Y-25055D01*
X248355Y-24962D01*
X248309Y-24856D01*
X248263Y-24740D01*
X248217Y-24607D01*
X248175Y-24459D01*
X248138Y-24297D01*
X248106Y-24126D01*
X248083Y-23937D01*
X248064Y-23738D01*
X248060Y-23521D01*
Y-23516D01*
Y-23507D01*
Y-23493D01*
Y-23470D01*
Y-23442D01*
X248064Y-23405D01*
Y-23368D01*
X248069Y-23327D01*
X248074Y-23230D01*
X248087Y-23114D01*
X248101Y-22990D01*
X248120Y-22856D01*
X248148Y-22712D01*
X248180Y-22565D01*
X248221Y-22417D01*
X248268Y-22269D01*
X248323Y-22126D01*
X248392Y-21987D01*
X248466Y-21858D01*
X248554Y-21737D01*
X248559Y-21728D01*
X248577Y-21710D01*
X248605Y-21682D01*
X248642Y-21641D01*
X248693Y-21599D01*
X248753Y-21548D01*
X248822Y-21493D01*
X248901Y-21433D01*
X248984Y-21377D01*
X249081Y-21322D01*
X249187Y-21271D01*
X249298Y-21225D01*
X249418Y-21188D01*
X249543Y-21160D01*
X249677Y-21137D01*
X249815Y-21132D01*
X249848D01*
X249889Y-21137D01*
D02*
G37*
G36*
X241850D02*
X241901Y-21142D01*
X241966Y-21151D01*
X242040Y-21165D01*
X242123Y-21183D01*
X242215Y-21206D01*
X242312Y-21239D01*
X242409Y-21280D01*
X242516Y-21331D01*
X242622Y-21386D01*
X242728Y-21456D01*
X242830Y-21539D01*
X242932Y-21631D01*
X243028Y-21737D01*
X243033Y-21742D01*
X243052Y-21765D01*
X243075Y-21802D01*
X243107Y-21848D01*
X243144Y-21913D01*
X243190Y-21987D01*
X243232Y-22075D01*
X243283Y-22181D01*
X243329Y-22297D01*
X243375Y-22426D01*
X243417Y-22569D01*
X243454Y-22722D01*
X243486Y-22893D01*
X243509Y-23073D01*
X243528Y-23267D01*
X243532Y-23475D01*
Y-23479D01*
Y-23489D01*
Y-23507D01*
Y-23530D01*
Y-23558D01*
X243528Y-23590D01*
Y-23632D01*
X243523Y-23678D01*
X243518Y-23780D01*
X243504Y-23895D01*
X243491Y-24024D01*
X243472Y-24168D01*
X243444Y-24316D01*
X243412Y-24463D01*
X243370Y-24616D01*
X243320Y-24768D01*
X243264Y-24916D01*
X243199Y-25059D01*
X243121Y-25189D01*
X243033Y-25309D01*
X243028Y-25313D01*
X243010Y-25337D01*
X242982Y-25364D01*
X242945Y-25401D01*
X242895Y-25447D01*
X242834Y-25498D01*
X242770Y-25554D01*
X242691Y-25609D01*
X242603Y-25665D01*
X242511Y-25720D01*
X242405Y-25771D01*
X242294Y-25817D01*
X242174Y-25854D01*
X242049Y-25882D01*
X241915Y-25905D01*
X241776Y-25909D01*
X241744D01*
X241703Y-25905D01*
X241652Y-25900D01*
X241587Y-25891D01*
X241513Y-25877D01*
X241430Y-25859D01*
X241338Y-25835D01*
X241241Y-25803D01*
X241139Y-25762D01*
X241033Y-25715D01*
X240931Y-25655D01*
X240825Y-25586D01*
X240719Y-25508D01*
X240617Y-25415D01*
X240520Y-25309D01*
X240515Y-25300D01*
X240497Y-25281D01*
X240474Y-25244D01*
X240441Y-25193D01*
X240404Y-25133D01*
X240363Y-25055D01*
X240317Y-24962D01*
X240270Y-24856D01*
X240224Y-24740D01*
X240178Y-24607D01*
X240136Y-24459D01*
X240100Y-24297D01*
X240067Y-24126D01*
X240044Y-23937D01*
X240026Y-23738D01*
X240021Y-23521D01*
Y-23516D01*
Y-23507D01*
Y-23493D01*
Y-23470D01*
Y-23442D01*
X240026Y-23405D01*
Y-23368D01*
X240030Y-23327D01*
X240035Y-23230D01*
X240049Y-23114D01*
X240062Y-22990D01*
X240081Y-22856D01*
X240109Y-22712D01*
X240141Y-22565D01*
X240183Y-22417D01*
X240229Y-22269D01*
X240284Y-22126D01*
X240354Y-21987D01*
X240427Y-21858D01*
X240515Y-21737D01*
X240520Y-21728D01*
X240538Y-21710D01*
X240566Y-21682D01*
X240603Y-21641D01*
X240654Y-21599D01*
X240714Y-21548D01*
X240783Y-21493D01*
X240862Y-21433D01*
X240945Y-21377D01*
X241042Y-21322D01*
X241148Y-21271D01*
X241259Y-21225D01*
X241379Y-21188D01*
X241504Y-21160D01*
X241638Y-21137D01*
X241776Y-21132D01*
X241809D01*
X241850Y-21137D01*
D02*
G37*
G36*
X11148Y-35646D02*
X10552D01*
X9129Y-31076D01*
X9804D01*
X10608Y-33812D01*
Y-33816D01*
X10612Y-33830D01*
X10622Y-33858D01*
X10631Y-33890D01*
X10645Y-33932D01*
X10659Y-33983D01*
X10672Y-34038D01*
X10691Y-34103D01*
X10709Y-34167D01*
X10728Y-34241D01*
X10769Y-34398D01*
X10806Y-34560D01*
X10848Y-34731D01*
Y-34726D01*
X10853Y-34712D01*
X10857Y-34694D01*
X10862Y-34666D01*
X10871Y-34634D01*
X10880Y-34592D01*
X10894Y-34541D01*
X10908Y-34486D01*
X10922Y-34426D01*
X10940Y-34361D01*
X10959Y-34292D01*
X10982Y-34214D01*
X11005Y-34135D01*
X11028Y-34047D01*
X11079Y-33867D01*
X11920Y-31076D01*
X12571D01*
X11148Y-35646D01*
D02*
G37*
G36*
X15620Y-33424D02*
X16323D01*
Y-34135D01*
X15620D01*
Y-35646D01*
X14983D01*
Y-34135D01*
X12742D01*
Y-33424D01*
X15098Y-29335D01*
X15620D01*
Y-33424D01*
D02*
G37*
G36*
X19732Y-20393D02*
X19099D01*
Y-19492D01*
X19732D01*
Y-20393D01*
D02*
G37*
G36*
X14073Y-25803D02*
X13412D01*
Y-20523D01*
X11906Y-25803D01*
X11287D01*
X9794Y-20435D01*
Y-25803D01*
X9134D01*
Y-19492D01*
X10164D01*
X11388Y-23964D01*
X11633Y-24898D01*
Y-24893D01*
X11638Y-24879D01*
X11643Y-24861D01*
X11652Y-24833D01*
X11661Y-24796D01*
X11670Y-24750D01*
X11689Y-24699D01*
X11703Y-24639D01*
X11721Y-24570D01*
X11739Y-24496D01*
X11763Y-24412D01*
X11790Y-24325D01*
X11818Y-24223D01*
X11846Y-24117D01*
X11878Y-24006D01*
X11910Y-23886D01*
X13149Y-19492D01*
X14073D01*
Y-25803D01*
D02*
G37*
G36*
X34983D02*
X34345D01*
Y-20869D01*
X34341Y-20874D01*
X34336Y-20878D01*
X34322Y-20897D01*
X34304Y-20915D01*
X34280Y-20938D01*
X34257Y-20966D01*
X34188Y-21031D01*
X34105Y-21114D01*
X34003Y-21202D01*
X33888Y-21299D01*
X33754Y-21400D01*
X33749Y-21405D01*
X33735Y-21414D01*
X33717Y-21428D01*
X33689Y-21442D01*
X33657Y-21465D01*
X33620Y-21493D01*
X33578Y-21520D01*
X33532Y-21553D01*
X33426Y-21617D01*
X33310Y-21682D01*
X33195Y-21747D01*
X33075Y-21802D01*
Y-21054D01*
X33079Y-21049D01*
X33098Y-21040D01*
X33125Y-21021D01*
X33163Y-20998D01*
X33209Y-20971D01*
X33259Y-20934D01*
X33320Y-20897D01*
X33384Y-20851D01*
X33458Y-20800D01*
X33532Y-20744D01*
X33685Y-20615D01*
X33842Y-20476D01*
X33999Y-20319D01*
X34003Y-20315D01*
X34017Y-20301D01*
X34036Y-20278D01*
X34063Y-20245D01*
X34100Y-20204D01*
X34137Y-20157D01*
X34179Y-20107D01*
X34220Y-20051D01*
X34267Y-19987D01*
X34317Y-19922D01*
X34410Y-19779D01*
X34498Y-19626D01*
X34535Y-19548D01*
X34567Y-19469D01*
X34983D01*
Y-25803D01*
D02*
G37*
G36*
X31684D02*
X30959D01*
Y-24921D01*
X31684D01*
Y-25803D01*
D02*
G37*
G36*
X28954D02*
X28316D01*
Y-20869D01*
X28311Y-20874D01*
X28307Y-20878D01*
X28293Y-20897D01*
X28275Y-20915D01*
X28251Y-20938D01*
X28228Y-20966D01*
X28159Y-21031D01*
X28076Y-21114D01*
X27974Y-21202D01*
X27859Y-21299D01*
X27725Y-21400D01*
X27720Y-21405D01*
X27706Y-21414D01*
X27688Y-21428D01*
X27660Y-21442D01*
X27628Y-21465D01*
X27591Y-21493D01*
X27549Y-21520D01*
X27503Y-21553D01*
X27397Y-21617D01*
X27281Y-21682D01*
X27166Y-21747D01*
X27046Y-21802D01*
Y-21054D01*
X27050Y-21049D01*
X27069Y-21040D01*
X27096Y-21021D01*
X27133Y-20998D01*
X27180Y-20971D01*
X27230Y-20934D01*
X27290Y-20897D01*
X27355Y-20851D01*
X27429Y-20800D01*
X27503Y-20744D01*
X27655Y-20615D01*
X27812Y-20476D01*
X27970Y-20319D01*
X27974Y-20315D01*
X27988Y-20301D01*
X28007Y-20278D01*
X28034Y-20245D01*
X28071Y-20204D01*
X28108Y-20157D01*
X28150Y-20107D01*
X28191Y-20051D01*
X28238Y-19987D01*
X28288Y-19922D01*
X28381Y-19779D01*
X28469Y-19626D01*
X28506Y-19548D01*
X28538Y-19469D01*
X28954D01*
Y-25803D01*
D02*
G37*
G36*
X22301Y-21137D02*
X22352Y-21142D01*
X22416Y-21151D01*
X22490Y-21165D01*
X22573Y-21183D01*
X22666Y-21206D01*
X22763Y-21239D01*
X22860Y-21280D01*
X22966Y-21331D01*
X23072Y-21386D01*
X23179Y-21456D01*
X23280Y-21539D01*
X23382Y-21631D01*
X23479Y-21737D01*
X23484Y-21742D01*
X23502Y-21765D01*
X23525Y-21802D01*
X23558Y-21848D01*
X23595Y-21913D01*
X23641Y-21987D01*
X23682Y-22075D01*
X23733Y-22181D01*
X23779Y-22297D01*
X23825Y-22426D01*
X23867Y-22569D01*
X23904Y-22722D01*
X23936Y-22893D01*
X23959Y-23073D01*
X23978Y-23267D01*
X23982Y-23475D01*
Y-23479D01*
Y-23489D01*
Y-23507D01*
Y-23530D01*
Y-23558D01*
X23978Y-23590D01*
Y-23632D01*
X23973Y-23678D01*
X23969Y-23780D01*
X23955Y-23895D01*
X23941Y-24024D01*
X23923Y-24168D01*
X23895Y-24316D01*
X23862Y-24463D01*
X23821Y-24616D01*
X23770Y-24768D01*
X23715Y-24916D01*
X23650Y-25059D01*
X23571Y-25189D01*
X23484Y-25309D01*
X23479Y-25313D01*
X23460Y-25337D01*
X23433Y-25364D01*
X23396Y-25401D01*
X23345Y-25447D01*
X23285Y-25498D01*
X23220Y-25554D01*
X23142Y-25609D01*
X23054Y-25665D01*
X22962Y-25720D01*
X22855Y-25771D01*
X22744Y-25817D01*
X22624Y-25854D01*
X22500Y-25882D01*
X22366Y-25905D01*
X22227Y-25909D01*
X22195D01*
X22153Y-25905D01*
X22102Y-25900D01*
X22038Y-25891D01*
X21964Y-25877D01*
X21880Y-25859D01*
X21788Y-25835D01*
X21691Y-25803D01*
X21589Y-25762D01*
X21483Y-25715D01*
X21382Y-25655D01*
X21275Y-25586D01*
X21169Y-25508D01*
X21067Y-25415D01*
X20970Y-25309D01*
X20966Y-25300D01*
X20947Y-25281D01*
X20924Y-25244D01*
X20892Y-25193D01*
X20855Y-25133D01*
X20813Y-25055D01*
X20767Y-24962D01*
X20721Y-24856D01*
X20675Y-24740D01*
X20628Y-24607D01*
X20587Y-24459D01*
X20550Y-24297D01*
X20517Y-24126D01*
X20494Y-23937D01*
X20476Y-23738D01*
X20471Y-23521D01*
Y-23516D01*
Y-23507D01*
Y-23493D01*
Y-23470D01*
Y-23442D01*
X20476Y-23405D01*
Y-23368D01*
X20481Y-23327D01*
X20485Y-23230D01*
X20499Y-23114D01*
X20513Y-22990D01*
X20531Y-22856D01*
X20559Y-22712D01*
X20592Y-22565D01*
X20633Y-22417D01*
X20679Y-22269D01*
X20735Y-22126D01*
X20804Y-21987D01*
X20878Y-21858D01*
X20966Y-21737D01*
X20970Y-21728D01*
X20989Y-21710D01*
X21016Y-21682D01*
X21054Y-21641D01*
X21104Y-21599D01*
X21164Y-21548D01*
X21234Y-21493D01*
X21312Y-21433D01*
X21395Y-21377D01*
X21492Y-21322D01*
X21599Y-21271D01*
X21710Y-21225D01*
X21830Y-21188D01*
X21954Y-21160D01*
X22088Y-21137D01*
X22227Y-21132D01*
X22259D01*
X22301Y-21137D01*
D02*
G37*
G36*
X16674D02*
X16725Y-21142D01*
X16789Y-21151D01*
X16863Y-21165D01*
X16946Y-21183D01*
X17039Y-21206D01*
X17136Y-21239D01*
X17233Y-21280D01*
X17339Y-21331D01*
X17445Y-21386D01*
X17551Y-21456D01*
X17653Y-21539D01*
X17755Y-21631D01*
X17852Y-21737D01*
X17856Y-21742D01*
X17875Y-21765D01*
X17898Y-21802D01*
X17930Y-21848D01*
X17967Y-21913D01*
X18013Y-21987D01*
X18055Y-22075D01*
X18106Y-22181D01*
X18152Y-22297D01*
X18198Y-22426D01*
X18240Y-22569D01*
X18277Y-22722D01*
X18309Y-22893D01*
X18332Y-23073D01*
X18351Y-23267D01*
X18355Y-23475D01*
Y-23479D01*
Y-23489D01*
Y-23507D01*
Y-23530D01*
Y-23558D01*
X18351Y-23590D01*
Y-23632D01*
X18346Y-23678D01*
X18341Y-23780D01*
X18328Y-23895D01*
X18314Y-24024D01*
X18295Y-24168D01*
X18268Y-24316D01*
X18235Y-24463D01*
X18194Y-24616D01*
X18143Y-24768D01*
X18087Y-24916D01*
X18023Y-25059D01*
X17944Y-25189D01*
X17856Y-25309D01*
X17852Y-25313D01*
X17833Y-25337D01*
X17806Y-25364D01*
X17769Y-25401D01*
X17718Y-25447D01*
X17658Y-25498D01*
X17593Y-25554D01*
X17515Y-25609D01*
X17427Y-25665D01*
X17334Y-25720D01*
X17228Y-25771D01*
X17117Y-25817D01*
X16997Y-25854D01*
X16872Y-25882D01*
X16738Y-25905D01*
X16600Y-25909D01*
X16567D01*
X16526Y-25905D01*
X16475Y-25900D01*
X16410Y-25891D01*
X16336Y-25877D01*
X16253Y-25859D01*
X16161Y-25835D01*
X16064Y-25803D01*
X15962Y-25762D01*
X15856Y-25715D01*
X15754Y-25655D01*
X15648Y-25586D01*
X15542Y-25508D01*
X15440Y-25415D01*
X15343Y-25309D01*
X15338Y-25300D01*
X15320Y-25281D01*
X15297Y-25244D01*
X15265Y-25193D01*
X15228Y-25133D01*
X15186Y-25055D01*
X15140Y-24962D01*
X15094Y-24856D01*
X15047Y-24740D01*
X15001Y-24607D01*
X14960Y-24459D01*
X14923Y-24297D01*
X14890Y-24126D01*
X14867Y-23937D01*
X14849Y-23738D01*
X14844Y-23521D01*
Y-23516D01*
Y-23507D01*
Y-23493D01*
Y-23470D01*
Y-23442D01*
X14849Y-23405D01*
Y-23368D01*
X14853Y-23327D01*
X14858Y-23230D01*
X14872Y-23114D01*
X14886Y-22990D01*
X14904Y-22856D01*
X14932Y-22712D01*
X14964Y-22565D01*
X15006Y-22417D01*
X15052Y-22269D01*
X15108Y-22126D01*
X15177Y-21987D01*
X15251Y-21858D01*
X15338Y-21737D01*
X15343Y-21728D01*
X15362Y-21710D01*
X15389Y-21682D01*
X15426Y-21641D01*
X15477Y-21599D01*
X15537Y-21548D01*
X15607Y-21493D01*
X15685Y-21433D01*
X15768Y-21377D01*
X15865Y-21322D01*
X15971Y-21271D01*
X16082Y-21225D01*
X16203Y-21188D01*
X16327Y-21160D01*
X16461Y-21137D01*
X16600Y-21132D01*
X16632D01*
X16674Y-21137D01*
D02*
G37*
G36*
X19732Y-26048D02*
Y-26053D01*
Y-26057D01*
Y-26071D01*
Y-26090D01*
Y-26136D01*
X19727Y-26201D01*
X19723Y-26274D01*
X19718Y-26362D01*
X19714Y-26455D01*
X19704Y-26556D01*
X19672Y-26769D01*
X19654Y-26875D01*
X19631Y-26977D01*
X19603Y-27074D01*
X19570Y-27166D01*
X19534Y-27249D01*
X19492Y-27319D01*
X19487Y-27323D01*
X19483Y-27332D01*
X19469Y-27351D01*
X19446Y-27369D01*
X19423Y-27397D01*
X19390Y-27425D01*
X19358Y-27457D01*
X19316Y-27485D01*
X19270Y-27517D01*
X19215Y-27549D01*
X19159Y-27577D01*
X19095Y-27605D01*
X19030Y-27623D01*
X18956Y-27642D01*
X18877Y-27651D01*
X18794Y-27656D01*
X18753D01*
X18702Y-27651D01*
X18637Y-27646D01*
X18559Y-27637D01*
X18475Y-27619D01*
X18388Y-27600D01*
X18295Y-27573D01*
X18415Y-26912D01*
X18425Y-26917D01*
X18448Y-26921D01*
X18480Y-26930D01*
X18522Y-26944D01*
X18573Y-26958D01*
X18619Y-26967D01*
X18669Y-26972D01*
X18711Y-26977D01*
X18720D01*
X18744Y-26972D01*
X18780Y-26967D01*
X18822Y-26958D01*
X18868Y-26935D01*
X18919Y-26907D01*
X18965Y-26870D01*
X19002Y-26815D01*
X19007Y-26806D01*
X19011Y-26796D01*
X19016Y-26783D01*
X19025Y-26759D01*
X19035Y-26732D01*
X19044Y-26699D01*
X19053Y-26658D01*
X19058Y-26612D01*
X19067Y-26556D01*
X19076Y-26491D01*
X19085Y-26418D01*
X19090Y-26339D01*
X19095Y-26247D01*
X19099Y-26145D01*
Y-26034D01*
Y-21234D01*
X19732D01*
Y-26048D01*
D02*
G37*
%LPC*%
G36*
X275401Y-30236D02*
X273983D01*
Y-32491D01*
X275378D01*
X275419Y-32486D01*
X275475Y-32481D01*
X275535Y-32477D01*
X275600Y-32467D01*
X275669Y-32454D01*
X275821Y-32421D01*
X275900Y-32398D01*
X275974Y-32370D01*
X276048Y-32338D01*
X276117Y-32301D01*
X276182Y-32260D01*
X276242Y-32209D01*
X276246Y-32204D01*
X276256Y-32195D01*
X276270Y-32176D01*
X276288Y-32153D01*
X276311Y-32126D01*
X276334Y-32089D01*
X276362Y-32043D01*
X276390Y-31992D01*
X276417Y-31936D01*
X276445Y-31872D01*
X276468Y-31802D01*
X276491Y-31724D01*
X276510Y-31640D01*
X276523Y-31548D01*
X276533Y-31451D01*
X276537Y-31345D01*
Y-31340D01*
Y-31326D01*
Y-31308D01*
Y-31280D01*
X276533Y-31248D01*
X276528Y-31211D01*
X276519Y-31123D01*
X276501Y-31021D01*
X276477Y-30915D01*
X276440Y-30809D01*
X276390Y-30703D01*
Y-30698D01*
X276385Y-30689D01*
X276376Y-30675D01*
X276366Y-30661D01*
X276334Y-30615D01*
X276292Y-30555D01*
X276242Y-30495D01*
X276182Y-30435D01*
X276117Y-30379D01*
X276043Y-30338D01*
X276034Y-30333D01*
X276020Y-30328D01*
X276002Y-30324D01*
X275978Y-30315D01*
X275951Y-30305D01*
X275914Y-30296D01*
X275877Y-30287D01*
X275826Y-30278D01*
X275775Y-30268D01*
X275715Y-30259D01*
X275646Y-30250D01*
X275572Y-30245D01*
X275489Y-30241D01*
X275401Y-30236D01*
D02*
G37*
G36*
X270282D02*
X269145D01*
Y-32144D01*
X270365D01*
X270407Y-32140D01*
X270504Y-32135D01*
X270605Y-32130D01*
X270707Y-32116D01*
X270804Y-32103D01*
X270846Y-32093D01*
X270883Y-32084D01*
X270887D01*
X270896Y-32079D01*
X270910Y-32075D01*
X270929Y-32066D01*
X270975Y-32047D01*
X271035Y-32015D01*
X271100Y-31973D01*
X271169Y-31922D01*
X271234Y-31858D01*
X271294Y-31784D01*
Y-31779D01*
X271298Y-31775D01*
X271308Y-31761D01*
X271317Y-31747D01*
X271326Y-31724D01*
X271340Y-31696D01*
X271368Y-31631D01*
X271395Y-31548D01*
X271418Y-31446D01*
X271437Y-31331D01*
X271442Y-31202D01*
Y-31197D01*
Y-31188D01*
Y-31169D01*
Y-31146D01*
X271437Y-31119D01*
Y-31082D01*
X271423Y-31003D01*
X271409Y-30915D01*
X271386Y-30823D01*
X271354Y-30726D01*
X271308Y-30638D01*
Y-30633D01*
X271303Y-30629D01*
X271285Y-30601D01*
X271257Y-30559D01*
X271215Y-30513D01*
X271164Y-30462D01*
X271109Y-30412D01*
X271040Y-30361D01*
X270961Y-30324D01*
X270956D01*
X270952Y-30319D01*
X270938Y-30315D01*
X270919Y-30310D01*
X270892Y-30305D01*
X270864Y-30296D01*
X270827Y-30287D01*
X270781Y-30278D01*
X270730Y-30273D01*
X270675Y-30264D01*
X270610Y-30255D01*
X270541Y-30250D01*
X270462Y-30245D01*
X270374Y-30241D01*
X270282Y-30236D01*
D02*
G37*
G36*
X270434Y-32888D02*
X269145D01*
Y-35059D01*
X270499D01*
X270536Y-35055D01*
X270573D01*
X270670Y-35050D01*
X270772Y-35041D01*
X270873Y-35027D01*
X270975Y-35008D01*
X271017Y-34999D01*
X271058Y-34985D01*
X271063D01*
X271072Y-34981D01*
X271086Y-34971D01*
X271104Y-34962D01*
X271160Y-34935D01*
X271224Y-34898D01*
X271294Y-34842D01*
X271368Y-34782D01*
X271437Y-34704D01*
X271502Y-34616D01*
Y-34611D01*
X271506Y-34602D01*
X271515Y-34588D01*
X271525Y-34570D01*
X271539Y-34542D01*
X271552Y-34514D01*
X271566Y-34477D01*
X271580Y-34440D01*
X271608Y-34343D01*
X271636Y-34237D01*
X271654Y-34112D01*
X271659Y-33974D01*
Y-33969D01*
Y-33960D01*
Y-33937D01*
Y-33914D01*
X271654Y-33881D01*
X271649Y-33844D01*
X271640Y-33761D01*
X271622Y-33669D01*
X271599Y-33567D01*
X271562Y-33465D01*
X271511Y-33368D01*
Y-33364D01*
X271506Y-33359D01*
X271497Y-33345D01*
X271483Y-33327D01*
X271451Y-33285D01*
X271405Y-33230D01*
X271349Y-33170D01*
X271280Y-33110D01*
X271201Y-33054D01*
X271113Y-33003D01*
X271109D01*
X271104Y-32999D01*
X271086Y-32994D01*
X271067Y-32985D01*
X271040Y-32976D01*
X271007Y-32967D01*
X270970Y-32957D01*
X270924Y-32943D01*
X270873Y-32934D01*
X270818Y-32925D01*
X270753Y-32916D01*
X270684Y-32906D01*
X270605Y-32897D01*
X270522Y-32893D01*
X270434Y-32888D01*
D02*
G37*
G36*
X258593Y-30740D02*
X256972Y-33581D01*
X258593D01*
Y-30740D01*
D02*
G37*
G36*
X248586Y-31770D02*
X248568D01*
X248545Y-31775D01*
X248513D01*
X248471Y-31784D01*
X248425Y-31793D01*
X248374Y-31807D01*
X248318Y-31825D01*
X248263Y-31848D01*
X248198Y-31876D01*
X248134Y-31913D01*
X248069Y-31955D01*
X248004Y-32006D01*
X247940Y-32066D01*
X247875Y-32130D01*
X247815Y-32209D01*
X247810Y-32213D01*
X247801Y-32227D01*
X247787Y-32255D01*
X247764Y-32292D01*
X247741Y-32338D01*
X247718Y-32394D01*
X247686Y-32458D01*
X247658Y-32537D01*
X247630Y-32625D01*
X247602Y-32722D01*
X247575Y-32828D01*
X247551Y-32943D01*
X247528Y-33073D01*
X247515Y-33211D01*
X247505Y-33359D01*
X247501Y-33521D01*
Y-33525D01*
Y-33530D01*
Y-33544D01*
Y-33558D01*
Y-33604D01*
X247505Y-33664D01*
X247510Y-33738D01*
X247519Y-33826D01*
X247528Y-33918D01*
X247542Y-34020D01*
X247556Y-34126D01*
X247579Y-34232D01*
X247602Y-34343D01*
X247635Y-34454D01*
X247672Y-34560D01*
X247713Y-34662D01*
X247764Y-34754D01*
X247819Y-34842D01*
X247824Y-34847D01*
X247833Y-34861D01*
X247852Y-34884D01*
X247880Y-34907D01*
X247907Y-34944D01*
X247949Y-34976D01*
X247990Y-35018D01*
X248041Y-35055D01*
X248097Y-35096D01*
X248157Y-35138D01*
X248221Y-35170D01*
X248295Y-35203D01*
X248369Y-35230D01*
X248448Y-35253D01*
X248531Y-35267D01*
X248619Y-35272D01*
X248637D01*
X248660Y-35267D01*
X248693Y-35263D01*
X248734Y-35258D01*
X248776Y-35249D01*
X248827Y-35235D01*
X248882Y-35216D01*
X248942Y-35193D01*
X249002Y-35166D01*
X249067Y-35129D01*
X249132Y-35087D01*
X249196Y-35041D01*
X249261Y-34981D01*
X249326Y-34916D01*
X249386Y-34838D01*
X249390Y-34833D01*
X249399Y-34819D01*
X249413Y-34791D01*
X249436Y-34754D01*
X249460Y-34708D01*
X249487Y-34653D01*
X249520Y-34584D01*
X249547Y-34510D01*
X249580Y-34422D01*
X249607Y-34325D01*
X249635Y-34214D01*
X249658Y-34098D01*
X249681Y-33969D01*
X249695Y-33830D01*
X249704Y-33678D01*
X249709Y-33521D01*
Y-33516D01*
Y-33512D01*
Y-33498D01*
Y-33484D01*
Y-33438D01*
X249704Y-33378D01*
X249700Y-33304D01*
X249691Y-33221D01*
X249681Y-33124D01*
X249668Y-33026D01*
X249654Y-32920D01*
X249630Y-32809D01*
X249603Y-32703D01*
X249575Y-32592D01*
X249534Y-32486D01*
X249492Y-32384D01*
X249441Y-32292D01*
X249386Y-32204D01*
X249381Y-32199D01*
X249372Y-32186D01*
X249353Y-32163D01*
X249326Y-32135D01*
X249298Y-32103D01*
X249256Y-32066D01*
X249215Y-32029D01*
X249164Y-31987D01*
X249109Y-31945D01*
X249048Y-31909D01*
X248984Y-31872D01*
X248914Y-31839D01*
X248836Y-31811D01*
X248757Y-31788D01*
X248674Y-31775D01*
X248586Y-31770D01*
D02*
G37*
G36*
X242959D02*
X242941D01*
X242918Y-31775D01*
X242885D01*
X242844Y-31784D01*
X242798Y-31793D01*
X242747Y-31807D01*
X242691Y-31825D01*
X242636Y-31848D01*
X242571Y-31876D01*
X242507Y-31913D01*
X242442Y-31955D01*
X242377Y-32006D01*
X242312Y-32066D01*
X242248Y-32130D01*
X242188Y-32209D01*
X242183Y-32213D01*
X242174Y-32227D01*
X242160Y-32255D01*
X242137Y-32292D01*
X242114Y-32338D01*
X242091Y-32394D01*
X242058Y-32458D01*
X242031Y-32537D01*
X242003Y-32625D01*
X241975Y-32722D01*
X241948Y-32828D01*
X241924Y-32943D01*
X241901Y-33073D01*
X241887Y-33211D01*
X241878Y-33359D01*
X241874Y-33521D01*
Y-33525D01*
Y-33530D01*
Y-33544D01*
Y-33558D01*
Y-33604D01*
X241878Y-33664D01*
X241883Y-33738D01*
X241892Y-33826D01*
X241901Y-33918D01*
X241915Y-34020D01*
X241929Y-34126D01*
X241952Y-34232D01*
X241975Y-34343D01*
X242007Y-34454D01*
X242044Y-34560D01*
X242086Y-34662D01*
X242137Y-34754D01*
X242192Y-34842D01*
X242197Y-34847D01*
X242206Y-34861D01*
X242225Y-34884D01*
X242252Y-34907D01*
X242280Y-34944D01*
X242322Y-34976D01*
X242363Y-35018D01*
X242414Y-35055D01*
X242470Y-35096D01*
X242530Y-35138D01*
X242594Y-35170D01*
X242668Y-35203D01*
X242742Y-35230D01*
X242821Y-35253D01*
X242904Y-35267D01*
X242992Y-35272D01*
X243010D01*
X243033Y-35267D01*
X243066Y-35263D01*
X243107Y-35258D01*
X243149Y-35249D01*
X243199Y-35235D01*
X243255Y-35216D01*
X243315Y-35193D01*
X243375Y-35166D01*
X243440Y-35129D01*
X243504Y-35087D01*
X243569Y-35041D01*
X243634Y-34981D01*
X243699Y-34916D01*
X243759Y-34838D01*
X243763Y-34833D01*
X243772Y-34819D01*
X243786Y-34791D01*
X243809Y-34754D01*
X243832Y-34708D01*
X243860Y-34653D01*
X243893Y-34584D01*
X243920Y-34510D01*
X243953Y-34422D01*
X243980Y-34325D01*
X244008Y-34214D01*
X244031Y-34098D01*
X244054Y-33969D01*
X244068Y-33830D01*
X244077Y-33678D01*
X244082Y-33521D01*
Y-33516D01*
Y-33512D01*
Y-33498D01*
Y-33484D01*
Y-33438D01*
X244077Y-33378D01*
X244073Y-33304D01*
X244063Y-33221D01*
X244054Y-33124D01*
X244040Y-33026D01*
X244026Y-32920D01*
X244003Y-32809D01*
X243976Y-32703D01*
X243948Y-32592D01*
X243906Y-32486D01*
X243865Y-32384D01*
X243814Y-32292D01*
X243759Y-32204D01*
X243754Y-32199D01*
X243745Y-32186D01*
X243726Y-32163D01*
X243699Y-32135D01*
X243671Y-32103D01*
X243629Y-32066D01*
X243588Y-32029D01*
X243537Y-31987D01*
X243481Y-31945D01*
X243421Y-31909D01*
X243357Y-31872D01*
X243287Y-31839D01*
X243209Y-31811D01*
X243130Y-31788D01*
X243047Y-31775D01*
X242959Y-31770D01*
D02*
G37*
G36*
X267561Y-23512D02*
X267556D01*
X267542Y-23521D01*
X267524Y-23530D01*
X267496Y-23539D01*
X267459Y-23558D01*
X267413Y-23572D01*
X267362Y-23595D01*
X267297Y-23613D01*
X267228Y-23636D01*
X267154Y-23660D01*
X267066Y-23683D01*
X266974Y-23710D01*
X266872Y-23733D01*
X266761Y-23756D01*
X266646Y-23780D01*
X266521Y-23803D01*
X266517D01*
X266503Y-23807D01*
X266484D01*
X266457Y-23817D01*
X266424Y-23821D01*
X266387Y-23830D01*
X266300Y-23849D01*
X266207Y-23872D01*
X266115Y-23900D01*
X266027Y-23932D01*
X265990Y-23946D01*
X265958Y-23964D01*
X265953Y-23969D01*
X265930Y-23978D01*
X265902Y-24001D01*
X265870Y-24029D01*
X265828Y-24066D01*
X265787Y-24108D01*
X265750Y-24158D01*
X265713Y-24214D01*
X265708Y-24223D01*
X265699Y-24242D01*
X265685Y-24274D01*
X265671Y-24320D01*
X265653Y-24376D01*
X265639Y-24440D01*
X265630Y-24509D01*
X265625Y-24588D01*
Y-24593D01*
Y-24602D01*
Y-24620D01*
X265630Y-24644D01*
Y-24671D01*
X265634Y-24704D01*
X265648Y-24778D01*
X265676Y-24861D01*
X265708Y-24948D01*
X265759Y-25032D01*
X265787Y-25073D01*
X265824Y-25110D01*
X265828D01*
X265833Y-25119D01*
X265847Y-25129D01*
X265861Y-25142D01*
X265907Y-25170D01*
X265971Y-25207D01*
X266050Y-25244D01*
X266147Y-25272D01*
X266258Y-25295D01*
X266387Y-25304D01*
X266420D01*
X266443Y-25300D01*
X266475D01*
X266507Y-25295D01*
X266590Y-25281D01*
X266688Y-25263D01*
X266789Y-25230D01*
X266896Y-25189D01*
X267002Y-25129D01*
X267006D01*
X267016Y-25119D01*
X267029Y-25110D01*
X267048Y-25096D01*
X267099Y-25059D01*
X267159Y-25004D01*
X267228Y-24935D01*
X267297Y-24856D01*
X267367Y-24764D01*
X267422Y-24657D01*
Y-24653D01*
X267427Y-24644D01*
X267436Y-24625D01*
X267445Y-24602D01*
X267455Y-24570D01*
X267468Y-24533D01*
X267478Y-24491D01*
X267491Y-24440D01*
X267505Y-24380D01*
X267519Y-24316D01*
X267528Y-24246D01*
X267538Y-24168D01*
X267547Y-24084D01*
X267556Y-23997D01*
X267561Y-23900D01*
Y-23798D01*
Y-23512D01*
D02*
G37*
G36*
X262539Y-20236D02*
X261121D01*
Y-22491D01*
X262516D01*
X262557Y-22486D01*
X262613Y-22481D01*
X262673Y-22477D01*
X262737Y-22467D01*
X262807Y-22454D01*
X262959Y-22421D01*
X263038Y-22398D01*
X263112Y-22370D01*
X263186Y-22338D01*
X263255Y-22301D01*
X263320Y-22260D01*
X263380Y-22209D01*
X263384Y-22204D01*
X263393Y-22195D01*
X263407Y-22176D01*
X263426Y-22153D01*
X263449Y-22126D01*
X263472Y-22089D01*
X263500Y-22042D01*
X263527Y-21992D01*
X263555Y-21936D01*
X263583Y-21871D01*
X263606Y-21802D01*
X263629Y-21724D01*
X263648Y-21641D01*
X263662Y-21548D01*
X263671Y-21451D01*
X263675Y-21345D01*
Y-21340D01*
Y-21326D01*
Y-21308D01*
Y-21280D01*
X263671Y-21248D01*
X263666Y-21211D01*
X263657Y-21123D01*
X263638Y-21021D01*
X263615Y-20915D01*
X263578Y-20809D01*
X263527Y-20703D01*
Y-20698D01*
X263523Y-20689D01*
X263514Y-20675D01*
X263504Y-20661D01*
X263472Y-20615D01*
X263431Y-20555D01*
X263380Y-20495D01*
X263320Y-20435D01*
X263255Y-20379D01*
X263181Y-20338D01*
X263172Y-20333D01*
X263158Y-20328D01*
X263139Y-20324D01*
X263116Y-20315D01*
X263089Y-20305D01*
X263052Y-20296D01*
X263015Y-20287D01*
X262964Y-20278D01*
X262913Y-20268D01*
X262853Y-20259D01*
X262784Y-20250D01*
X262710Y-20245D01*
X262627Y-20241D01*
X262539Y-20236D01*
D02*
G37*
G36*
X237332D02*
X236196D01*
Y-22144D01*
X237415D01*
X237457Y-22140D01*
X237554Y-22135D01*
X237655Y-22130D01*
X237757Y-22116D01*
X237854Y-22103D01*
X237896Y-22093D01*
X237933Y-22084D01*
X237937D01*
X237947Y-22079D01*
X237960Y-22075D01*
X237979Y-22066D01*
X238025Y-22047D01*
X238085Y-22015D01*
X238150Y-21973D01*
X238219Y-21922D01*
X238284Y-21858D01*
X238344Y-21784D01*
Y-21779D01*
X238349Y-21775D01*
X238358Y-21761D01*
X238367Y-21747D01*
X238376Y-21724D01*
X238390Y-21696D01*
X238418Y-21631D01*
X238445Y-21548D01*
X238469Y-21447D01*
X238487Y-21331D01*
X238492Y-21202D01*
Y-21197D01*
Y-21188D01*
Y-21169D01*
Y-21146D01*
X238487Y-21118D01*
Y-21081D01*
X238473Y-21003D01*
X238459Y-20915D01*
X238436Y-20823D01*
X238404Y-20726D01*
X238358Y-20638D01*
Y-20633D01*
X238353Y-20629D01*
X238335Y-20601D01*
X238307Y-20560D01*
X238265Y-20513D01*
X238214Y-20462D01*
X238159Y-20412D01*
X238090Y-20361D01*
X238011Y-20324D01*
X238007D01*
X238002Y-20319D01*
X237988Y-20315D01*
X237970Y-20310D01*
X237942Y-20305D01*
X237914Y-20296D01*
X237877Y-20287D01*
X237831Y-20278D01*
X237780Y-20273D01*
X237725Y-20264D01*
X237660Y-20255D01*
X237591Y-20250D01*
X237512Y-20245D01*
X237424Y-20241D01*
X237332Y-20236D01*
D02*
G37*
G36*
X237485Y-22888D02*
X236196D01*
Y-25059D01*
X237549D01*
X237586Y-25055D01*
X237623D01*
X237720Y-25050D01*
X237822Y-25041D01*
X237924Y-25027D01*
X238025Y-25008D01*
X238067Y-24999D01*
X238108Y-24985D01*
X238113D01*
X238122Y-24981D01*
X238136Y-24972D01*
X238154Y-24962D01*
X238210Y-24935D01*
X238275Y-24898D01*
X238344Y-24842D01*
X238418Y-24782D01*
X238487Y-24704D01*
X238552Y-24616D01*
Y-24611D01*
X238556Y-24602D01*
X238566Y-24588D01*
X238575Y-24570D01*
X238589Y-24542D01*
X238603Y-24514D01*
X238616Y-24477D01*
X238630Y-24440D01*
X238658Y-24343D01*
X238686Y-24237D01*
X238704Y-24112D01*
X238709Y-23974D01*
Y-23969D01*
Y-23960D01*
Y-23937D01*
Y-23914D01*
X238704Y-23881D01*
X238700Y-23844D01*
X238690Y-23761D01*
X238672Y-23669D01*
X238649Y-23567D01*
X238612Y-23465D01*
X238561Y-23368D01*
Y-23364D01*
X238556Y-23359D01*
X238547Y-23345D01*
X238533Y-23327D01*
X238501Y-23285D01*
X238455Y-23230D01*
X238399Y-23170D01*
X238330Y-23110D01*
X238251Y-23054D01*
X238164Y-23003D01*
X238159D01*
X238154Y-22999D01*
X238136Y-22994D01*
X238118Y-22985D01*
X238090Y-22976D01*
X238057Y-22966D01*
X238020Y-22957D01*
X237974Y-22943D01*
X237924Y-22934D01*
X237868Y-22925D01*
X237803Y-22916D01*
X237734Y-22906D01*
X237655Y-22897D01*
X237572Y-22893D01*
X237485Y-22888D01*
D02*
G37*
G36*
X276348Y-21770D02*
X276306D01*
X276279Y-21775D01*
X276242Y-21779D01*
X276196Y-21788D01*
X276149Y-21798D01*
X276098Y-21816D01*
X276043Y-21835D01*
X275983Y-21858D01*
X275923Y-21885D01*
X275863Y-21918D01*
X275798Y-21959D01*
X275738Y-22010D01*
X275678Y-22061D01*
X275618Y-22126D01*
X275613Y-22130D01*
X275604Y-22144D01*
X275590Y-22163D01*
X275572Y-22190D01*
X275549Y-22227D01*
X275521Y-22269D01*
X275493Y-22320D01*
X275466Y-22380D01*
X275433Y-22444D01*
X275406Y-22514D01*
X275378Y-22592D01*
X275355Y-22680D01*
X275332Y-22772D01*
X275313Y-22869D01*
X275299Y-22971D01*
X275290Y-23082D01*
X277383D01*
Y-23077D01*
Y-23054D01*
X277378Y-23027D01*
X277374Y-22985D01*
X277364Y-22934D01*
X277355Y-22879D01*
X277346Y-22819D01*
X277332Y-22749D01*
X277300Y-22606D01*
X277258Y-22458D01*
X277198Y-22320D01*
X277166Y-22255D01*
X277129Y-22199D01*
X277124Y-22195D01*
X277115Y-22181D01*
X277096Y-22158D01*
X277073Y-22130D01*
X277041Y-22098D01*
X277004Y-22066D01*
X276962Y-22024D01*
X276916Y-21982D01*
X276861Y-21945D01*
X276801Y-21904D01*
X276736Y-21871D01*
X276667Y-21835D01*
X276597Y-21812D01*
X276519Y-21788D01*
X276436Y-21775D01*
X276348Y-21770D01*
D02*
G37*
G36*
X249797Y-21770D02*
X249778D01*
X249755Y-21775D01*
X249723D01*
X249681Y-21784D01*
X249635Y-21793D01*
X249584Y-21807D01*
X249529Y-21825D01*
X249474Y-21848D01*
X249409Y-21876D01*
X249344Y-21913D01*
X249279Y-21955D01*
X249215Y-22005D01*
X249150Y-22066D01*
X249085Y-22130D01*
X249025Y-22209D01*
X249021Y-22213D01*
X249011Y-22227D01*
X248998Y-22255D01*
X248974Y-22292D01*
X248951Y-22338D01*
X248928Y-22394D01*
X248896Y-22458D01*
X248868Y-22537D01*
X248840Y-22625D01*
X248813Y-22722D01*
X248785Y-22828D01*
X248762Y-22943D01*
X248739Y-23073D01*
X248725Y-23211D01*
X248716Y-23359D01*
X248711Y-23521D01*
Y-23526D01*
Y-23530D01*
Y-23544D01*
Y-23558D01*
Y-23604D01*
X248716Y-23664D01*
X248720Y-23738D01*
X248730Y-23826D01*
X248739Y-23918D01*
X248753Y-24020D01*
X248767Y-24126D01*
X248790Y-24232D01*
X248813Y-24343D01*
X248845Y-24454D01*
X248882Y-24560D01*
X248924Y-24662D01*
X248974Y-24754D01*
X249030Y-24842D01*
X249035Y-24847D01*
X249044Y-24861D01*
X249062Y-24884D01*
X249090Y-24907D01*
X249118Y-24944D01*
X249159Y-24976D01*
X249201Y-25018D01*
X249252Y-25055D01*
X249307Y-25096D01*
X249367Y-25138D01*
X249432Y-25170D01*
X249506Y-25203D01*
X249580Y-25230D01*
X249658Y-25253D01*
X249741Y-25267D01*
X249829Y-25272D01*
X249848D01*
X249871Y-25267D01*
X249903Y-25263D01*
X249945Y-25258D01*
X249986Y-25249D01*
X250037Y-25235D01*
X250093Y-25216D01*
X250153Y-25193D01*
X250213Y-25166D01*
X250277Y-25129D01*
X250342Y-25087D01*
X250407Y-25041D01*
X250471Y-24981D01*
X250536Y-24916D01*
X250596Y-24838D01*
X250601Y-24833D01*
X250610Y-24819D01*
X250624Y-24791D01*
X250647Y-24754D01*
X250670Y-24708D01*
X250698Y-24653D01*
X250730Y-24584D01*
X250758Y-24509D01*
X250790Y-24422D01*
X250818Y-24325D01*
X250846Y-24214D01*
X250869Y-24098D01*
X250892Y-23969D01*
X250906Y-23830D01*
X250915Y-23678D01*
X250920Y-23521D01*
Y-23516D01*
Y-23512D01*
Y-23498D01*
Y-23484D01*
Y-23438D01*
X250915Y-23378D01*
X250910Y-23304D01*
X250901Y-23221D01*
X250892Y-23124D01*
X250878Y-23027D01*
X250864Y-22920D01*
X250841Y-22809D01*
X250813Y-22703D01*
X250785Y-22592D01*
X250744Y-22486D01*
X250702Y-22384D01*
X250652Y-22292D01*
X250596Y-22204D01*
X250591Y-22199D01*
X250582Y-22186D01*
X250564Y-22163D01*
X250536Y-22135D01*
X250508Y-22103D01*
X250467Y-22066D01*
X250425Y-22029D01*
X250374Y-21987D01*
X250319Y-21945D01*
X250259Y-21908D01*
X250194Y-21871D01*
X250125Y-21839D01*
X250046Y-21812D01*
X249968Y-21788D01*
X249885Y-21775D01*
X249797Y-21770D01*
D02*
G37*
G36*
X241758D02*
X241740D01*
X241717Y-21775D01*
X241684D01*
X241642Y-21784D01*
X241596Y-21793D01*
X241546Y-21807D01*
X241490Y-21825D01*
X241435Y-21848D01*
X241370Y-21876D01*
X241305Y-21913D01*
X241241Y-21955D01*
X241176Y-22005D01*
X241111Y-22066D01*
X241047Y-22130D01*
X240986Y-22209D01*
X240982Y-22213D01*
X240973Y-22227D01*
X240959Y-22255D01*
X240936Y-22292D01*
X240913Y-22338D01*
X240890Y-22394D01*
X240857Y-22458D01*
X240829Y-22537D01*
X240802Y-22625D01*
X240774Y-22722D01*
X240746Y-22828D01*
X240723Y-22943D01*
X240700Y-23073D01*
X240686Y-23211D01*
X240677Y-23359D01*
X240672Y-23521D01*
Y-23526D01*
Y-23530D01*
Y-23544D01*
Y-23558D01*
Y-23604D01*
X240677Y-23664D01*
X240682Y-23738D01*
X240691Y-23826D01*
X240700Y-23918D01*
X240714Y-24020D01*
X240728Y-24126D01*
X240751Y-24232D01*
X240774Y-24343D01*
X240806Y-24454D01*
X240843Y-24560D01*
X240885Y-24662D01*
X240936Y-24754D01*
X240991Y-24842D01*
X240996Y-24847D01*
X241005Y-24861D01*
X241023Y-24884D01*
X241051Y-24907D01*
X241079Y-24944D01*
X241121Y-24976D01*
X241162Y-25018D01*
X241213Y-25055D01*
X241268Y-25096D01*
X241328Y-25138D01*
X241393Y-25170D01*
X241467Y-25203D01*
X241541Y-25230D01*
X241619Y-25253D01*
X241703Y-25267D01*
X241790Y-25272D01*
X241809D01*
X241832Y-25267D01*
X241864Y-25263D01*
X241906Y-25258D01*
X241948Y-25249D01*
X241998Y-25235D01*
X242054Y-25216D01*
X242114Y-25193D01*
X242174Y-25166D01*
X242238Y-25129D01*
X242303Y-25087D01*
X242368Y-25041D01*
X242433Y-24981D01*
X242497Y-24916D01*
X242557Y-24838D01*
X242562Y-24833D01*
X242571Y-24819D01*
X242585Y-24791D01*
X242608Y-24754D01*
X242631Y-24708D01*
X242659Y-24653D01*
X242691Y-24584D01*
X242719Y-24509D01*
X242751Y-24422D01*
X242779Y-24325D01*
X242807Y-24214D01*
X242830Y-24098D01*
X242853Y-23969D01*
X242867Y-23830D01*
X242876Y-23678D01*
X242881Y-23521D01*
Y-23516D01*
Y-23512D01*
Y-23498D01*
Y-23484D01*
Y-23438D01*
X242876Y-23378D01*
X242871Y-23304D01*
X242862Y-23221D01*
X242853Y-23124D01*
X242839Y-23027D01*
X242825Y-22920D01*
X242802Y-22809D01*
X242774Y-22703D01*
X242747Y-22592D01*
X242705Y-22486D01*
X242664Y-22384D01*
X242613Y-22292D01*
X242557Y-22204D01*
X242553Y-22199D01*
X242543Y-22186D01*
X242525Y-22163D01*
X242497Y-22135D01*
X242470Y-22103D01*
X242428Y-22066D01*
X242386Y-22029D01*
X242336Y-21987D01*
X242280Y-21945D01*
X242220Y-21908D01*
X242155Y-21871D01*
X242086Y-21839D01*
X242007Y-21812D01*
X241929Y-21788D01*
X241846Y-21775D01*
X241758Y-21770D01*
D02*
G37*
G36*
X14983Y-30582D02*
X13361Y-33424D01*
X14983D01*
Y-30582D01*
D02*
G37*
G36*
X22208Y-21770D02*
X22190D01*
X22167Y-21775D01*
X22135D01*
X22093Y-21784D01*
X22047Y-21793D01*
X21996Y-21807D01*
X21940Y-21825D01*
X21885Y-21848D01*
X21820Y-21876D01*
X21756Y-21913D01*
X21691Y-21955D01*
X21626Y-22005D01*
X21562Y-22066D01*
X21497Y-22130D01*
X21437Y-22209D01*
X21432Y-22213D01*
X21423Y-22227D01*
X21409Y-22255D01*
X21386Y-22292D01*
X21363Y-22338D01*
X21340Y-22394D01*
X21308Y-22458D01*
X21280Y-22537D01*
X21252Y-22625D01*
X21224Y-22722D01*
X21197Y-22828D01*
X21174Y-22943D01*
X21150Y-23073D01*
X21137Y-23211D01*
X21127Y-23359D01*
X21123Y-23521D01*
Y-23526D01*
Y-23530D01*
Y-23544D01*
Y-23558D01*
Y-23604D01*
X21127Y-23664D01*
X21132Y-23738D01*
X21141Y-23826D01*
X21150Y-23918D01*
X21164Y-24020D01*
X21178Y-24126D01*
X21201Y-24232D01*
X21224Y-24343D01*
X21257Y-24454D01*
X21294Y-24560D01*
X21335Y-24662D01*
X21386Y-24754D01*
X21441Y-24842D01*
X21446Y-24847D01*
X21455Y-24861D01*
X21474Y-24884D01*
X21502Y-24907D01*
X21529Y-24944D01*
X21571Y-24976D01*
X21612Y-25018D01*
X21663Y-25055D01*
X21719Y-25096D01*
X21779Y-25138D01*
X21844Y-25170D01*
X21917Y-25203D01*
X21991Y-25230D01*
X22070Y-25253D01*
X22153Y-25267D01*
X22241Y-25272D01*
X22259D01*
X22282Y-25267D01*
X22315Y-25263D01*
X22356Y-25258D01*
X22398Y-25249D01*
X22449Y-25235D01*
X22504Y-25216D01*
X22564Y-25193D01*
X22624Y-25166D01*
X22689Y-25129D01*
X22754Y-25087D01*
X22818Y-25041D01*
X22883Y-24981D01*
X22948Y-24916D01*
X23008Y-24838D01*
X23012Y-24833D01*
X23022Y-24819D01*
X23035Y-24791D01*
X23058Y-24754D01*
X23082Y-24708D01*
X23109Y-24653D01*
X23142Y-24584D01*
X23169Y-24509D01*
X23202Y-24422D01*
X23230Y-24325D01*
X23257Y-24214D01*
X23280Y-24098D01*
X23303Y-23969D01*
X23317Y-23830D01*
X23326Y-23678D01*
X23331Y-23521D01*
Y-23516D01*
Y-23512D01*
Y-23498D01*
Y-23484D01*
Y-23438D01*
X23326Y-23378D01*
X23322Y-23304D01*
X23313Y-23221D01*
X23303Y-23124D01*
X23290Y-23027D01*
X23276Y-22920D01*
X23253Y-22809D01*
X23225Y-22703D01*
X23197Y-22592D01*
X23156Y-22486D01*
X23114Y-22384D01*
X23063Y-22292D01*
X23008Y-22204D01*
X23003Y-22199D01*
X22994Y-22186D01*
X22975Y-22163D01*
X22948Y-22135D01*
X22920Y-22103D01*
X22878Y-22066D01*
X22837Y-22029D01*
X22786Y-21987D01*
X22730Y-21945D01*
X22670Y-21908D01*
X22606Y-21871D01*
X22536Y-21839D01*
X22458Y-21812D01*
X22379Y-21788D01*
X22296Y-21775D01*
X22208Y-21770D01*
D02*
G37*
G36*
X16581D02*
X16563D01*
X16540Y-21775D01*
X16507D01*
X16466Y-21784D01*
X16420Y-21793D01*
X16369Y-21807D01*
X16313Y-21825D01*
X16258Y-21848D01*
X16193Y-21876D01*
X16128Y-21913D01*
X16064Y-21955D01*
X15999Y-22005D01*
X15935Y-22066D01*
X15870Y-22130D01*
X15810Y-22209D01*
X15805Y-22213D01*
X15796Y-22227D01*
X15782Y-22255D01*
X15759Y-22292D01*
X15736Y-22338D01*
X15713Y-22394D01*
X15680Y-22458D01*
X15653Y-22537D01*
X15625Y-22625D01*
X15597Y-22722D01*
X15570Y-22828D01*
X15546Y-22943D01*
X15523Y-23073D01*
X15509Y-23211D01*
X15500Y-23359D01*
X15496Y-23521D01*
Y-23526D01*
Y-23530D01*
Y-23544D01*
Y-23558D01*
Y-23604D01*
X15500Y-23664D01*
X15505Y-23738D01*
X15514Y-23826D01*
X15523Y-23918D01*
X15537Y-24020D01*
X15551Y-24126D01*
X15574Y-24232D01*
X15597Y-24343D01*
X15630Y-24454D01*
X15666Y-24560D01*
X15708Y-24662D01*
X15759Y-24754D01*
X15814Y-24842D01*
X15819Y-24847D01*
X15828Y-24861D01*
X15847Y-24884D01*
X15874Y-24907D01*
X15902Y-24944D01*
X15944Y-24976D01*
X15985Y-25018D01*
X16036Y-25055D01*
X16092Y-25096D01*
X16152Y-25138D01*
X16216Y-25170D01*
X16290Y-25203D01*
X16364Y-25230D01*
X16443Y-25253D01*
X16526Y-25267D01*
X16614Y-25272D01*
X16632D01*
X16655Y-25267D01*
X16688Y-25263D01*
X16729Y-25258D01*
X16771Y-25249D01*
X16822Y-25235D01*
X16877Y-25216D01*
X16937Y-25193D01*
X16997Y-25166D01*
X17062Y-25129D01*
X17127Y-25087D01*
X17191Y-25041D01*
X17256Y-24981D01*
X17321Y-24916D01*
X17381Y-24838D01*
X17385Y-24833D01*
X17394Y-24819D01*
X17408Y-24791D01*
X17431Y-24754D01*
X17455Y-24708D01*
X17482Y-24653D01*
X17515Y-24584D01*
X17542Y-24509D01*
X17575Y-24422D01*
X17602Y-24325D01*
X17630Y-24214D01*
X17653Y-24098D01*
X17676Y-23969D01*
X17690Y-23830D01*
X17699Y-23678D01*
X17704Y-23521D01*
Y-23516D01*
Y-23512D01*
Y-23498D01*
Y-23484D01*
Y-23438D01*
X17699Y-23378D01*
X17695Y-23304D01*
X17685Y-23221D01*
X17676Y-23124D01*
X17662Y-23027D01*
X17649Y-22920D01*
X17625Y-22809D01*
X17598Y-22703D01*
X17570Y-22592D01*
X17528Y-22486D01*
X17487Y-22384D01*
X17436Y-22292D01*
X17381Y-22204D01*
X17376Y-22199D01*
X17367Y-22186D01*
X17348Y-22163D01*
X17321Y-22135D01*
X17293Y-22103D01*
X17251Y-22066D01*
X17210Y-22029D01*
X17159Y-21987D01*
X17103Y-21945D01*
X17043Y-21908D01*
X16979Y-21871D01*
X16909Y-21839D01*
X16831Y-21812D01*
X16752Y-21788D01*
X16669Y-21775D01*
X16581Y-21770D01*
D02*
G37*
%LPD*%
M02*
