G04*
G04 #@! TF.GenerationSoftware,Altium Limited,Altium Designer,25.8.1 (18)*
G04*
G04 Layer_Color=32768*
%FSAX25Y25*%
%MOIN*%
G70*
G04*
G04 #@! TF.SameCoordinates,BE805E25-8328-4095-8AD4-E1B6FE3B792C*
G04*
G04*
G04 #@! TF.FilePolarity,Positive*
G04*
G01*
G75*
%ADD16C,0.01000*%
%ADD214C,0.00984*%
D16*
X-0012000Y0113441D02*
X-0010000Y0107441D01*
X-0008000Y0113441D01*
X-0010000Y0333228D02*
X-0008000Y0327228D01*
X-0012000Y0327228D02*
X-0010000Y0333228D01*
X-0010000Y0107441D02*
X-0010000Y0202197D01*
X-0010000Y0234503D02*
X-0010000Y0333228D01*
X-0011000Y0107441D02*
X0007504Y0107441D01*
X-0011000Y0333228D02*
X0007504Y0333228D01*
X0000000Y0107441D02*
X0000000Y0331906D01*
X0291791Y0329906D02*
X0291791Y0331835D01*
X0015000Y0340724D02*
X0015000Y0371079D01*
X0276791Y0340724D02*
X0276791Y0371079D01*
X-0026000Y-0027559D02*
X0016394Y-0027559D01*
X-0026000Y0348228D02*
X0013606Y0348228D01*
X-0011000Y-0012559D02*
X0007504Y-0012559D01*
X-0011000Y0107441D02*
X0007504Y0107441D01*
X0039370Y0387888D02*
X0039370Y0381890D01*
X0042369Y0381890D01*
X0043369Y0382889D01*
X0043369Y0386888D01*
X0042369Y0387888D01*
X0039370Y0387888D01*
X0045368Y0381890D02*
X0047368Y0381890D01*
X0046368Y0381890D01*
X0046368Y0385889D01*
X0045368Y0385889D01*
X0050366Y0381890D02*
X0050366Y0385889D01*
X0051366Y0385889D01*
X0052366Y0384889D01*
X0052366Y0381890D01*
X0052366Y0384889D01*
X0053365Y0385889D01*
X0054365Y0384889D01*
X0054365Y0381890D01*
X0059364Y0381890D02*
X0057364Y0381890D01*
X0056365Y0382889D01*
X0056365Y0384889D01*
X0057364Y0385889D01*
X0059364Y0385889D01*
X0060363Y0384889D01*
X0060363Y0383889D01*
X0056365Y0383889D01*
X0062363Y0381890D02*
X0062363Y0385889D01*
X0065362Y0385889D01*
X0066361Y0384889D01*
X0066361Y0381890D01*
X0068361Y0381890D02*
X0071360Y0381890D01*
X0072359Y0382889D01*
X0071360Y0383889D01*
X0069360Y0383889D01*
X0068361Y0384889D01*
X0069360Y0385889D01*
X0072359Y0385889D01*
X0074359Y0381890D02*
X0076358Y0381890D01*
X0075358Y0381890D01*
X0075358Y0385889D01*
X0074359Y0385889D01*
X0080357Y0381890D02*
X0082356Y0381890D01*
X0083356Y0382889D01*
X0083356Y0384889D01*
X0082356Y0385889D01*
X0080357Y0385889D01*
X0079357Y0384889D01*
X0079357Y0382889D01*
X0080357Y0381890D01*
X0085355Y0381890D02*
X0085355Y0385889D01*
X0088354Y0385889D01*
X0089354Y0384889D01*
X0089354Y0381890D01*
X0091353Y0381890D02*
X0094352Y0381890D01*
X0095352Y0382889D01*
X0094352Y0383889D01*
X0092353Y0383889D01*
X0091353Y0384889D01*
X0092353Y0385889D01*
X0095352Y0385889D01*
X0103349Y0381890D02*
X0105349Y0381890D01*
X0104349Y0381890D01*
X0104349Y0385889D01*
X0103349Y0385889D01*
X0108348Y0381890D02*
X0108348Y0385889D01*
X0111347Y0385889D01*
X0112346Y0384889D01*
X0112346Y0381890D01*
X0120344Y0381890D02*
X0120344Y0385889D01*
X0121344Y0385889D01*
X0122343Y0384889D01*
X0122343Y0381890D01*
X0122343Y0384889D01*
X0123343Y0385889D01*
X0124343Y0384889D01*
X0124343Y0381890D01*
X0126342Y0381890D02*
X0128341Y0381890D01*
X0127342Y0381890D01*
X0127342Y0385889D01*
X0126342Y0385889D01*
X0131340Y0381890D02*
X0133340Y0381890D01*
X0132340Y0381890D01*
X0132340Y0387888D01*
X0131340Y0387888D01*
X0136339Y0381890D02*
X0138338Y0381890D01*
X0137338Y0381890D01*
X0137338Y0387888D01*
X0136339Y0387888D01*
X0141337Y0381890D02*
X0143336Y0381890D01*
X0142337Y0381890D01*
X0142337Y0385889D01*
X0141337Y0385889D01*
X0146335Y0381890D02*
X0146335Y0385889D01*
X0147335Y0385889D01*
X0148335Y0384889D01*
X0148335Y0381890D01*
X0148335Y0384889D01*
X0149335Y0385889D01*
X0150334Y0384889D01*
X0150334Y0381890D01*
X0155333Y0381890D02*
X0153333Y0381890D01*
X0152333Y0382889D01*
X0152333Y0384889D01*
X0153333Y0385889D01*
X0155333Y0385889D01*
X0156332Y0384889D01*
X0156332Y0383889D01*
X0152333Y0383889D01*
X0159331Y0386888D02*
X0159331Y0385889D01*
X0158332Y0385889D01*
X0160331Y0385889D01*
X0159331Y0385889D01*
X0159331Y0382889D01*
X0160331Y0381890D01*
X0166329Y0381890D02*
X0164330Y0381890D01*
X0163330Y0382889D01*
X0163330Y0384889D01*
X0164330Y0385889D01*
X0166329Y0385889D01*
X0167329Y0384889D01*
X0167329Y0383889D01*
X0163330Y0383889D01*
X0169328Y0385889D02*
X0169328Y0381890D01*
X0169328Y0383889D01*
X0170328Y0384889D01*
X0171327Y0385889D01*
X0172327Y0385889D01*
X0175326Y0381890D02*
X0178325Y0381890D01*
X0179325Y0382889D01*
X0178325Y0383889D01*
X0176326Y0383889D01*
X0175326Y0384889D01*
X0176326Y0385889D01*
X0179325Y0385889D01*
X0189322Y0381890D02*
X0187322Y0381890D01*
X0187322Y0387888D01*
X0189322Y0387888D01*
X0192321Y0381890D02*
X0192321Y0385889D01*
X0193320Y0385889D01*
X0194320Y0384889D01*
X0194320Y0381890D01*
X0194320Y0384889D01*
X0195320Y0385889D01*
X0196319Y0384889D01*
X0196319Y0381890D01*
X0198319Y0381890D02*
X0198319Y0385889D01*
X0199318Y0385889D01*
X0200318Y0384889D01*
X0200318Y0381890D01*
X0200318Y0384889D01*
X0201318Y0385889D01*
X0202317Y0384889D01*
X0202317Y0381890D01*
X0204317Y0381890D02*
X0206316Y0381890D01*
X0206316Y0387888D01*
X0204317Y0387888D01*
D214*
X0000000Y0330906D02*
X0006000Y0332906D01*
X0000000Y0330906D02*
X0006000Y0328906D01*
X0285791Y0328906D02*
X0291791Y0330906D01*
X0285791Y0332906D02*
X0291791Y0330906D01*
X0000000Y0330906D02*
X0128283Y0330906D01*
X0159540Y0330906D02*
X0291791Y0330906D01*
X0015000Y0370079D02*
X0021000Y0372079D01*
X0015000Y0370079D02*
X0021000Y0368079D01*
X0270791Y0368079D02*
X0276791Y0370079D01*
X0270791Y0372079D02*
X0276791Y0370079D01*
X0015000Y0370079D02*
X0127759Y0370079D01*
X0160064Y0370079D02*
X0276791Y0370079D01*
X-0027000Y-0021559D02*
X-0025000Y-0027559D01*
X-0023000Y-0021559D01*
X-0025000Y0348228D02*
X-0023000Y0342228D01*
X-0027000Y0342228D02*
X-0025000Y0348228D01*
X-0025000Y-0027559D02*
X-0025000Y0142198D01*
X-0025000Y0174503D02*
X-0025000Y0348228D01*
X-0012000Y-0006559D02*
X-0010000Y-0012559D01*
X-0008000Y-0006559D01*
X-0010000Y0107441D02*
X-0008000Y0101441D01*
X-0012000Y0101441D02*
X-0010000Y0107441D01*
X-0010000Y-0012559D02*
X-0010000Y0029304D01*
X-0010000Y0061610D02*
X-0010000Y0107441D01*
X-0012164Y0208380D02*
X-0012164Y0204182D01*
X-0009016Y0204182D01*
X-0010065Y0206281D01*
X-0010065Y0207330D01*
X-0009016Y0208380D01*
X-0006917Y0208380D01*
X-0005867Y0207330D01*
X-0005867Y0205231D01*
X-0006917Y0204182D01*
X-0012164Y0210479D02*
X-0012164Y0214677D01*
X-0011115Y0214677D01*
X-0006917Y0210479D01*
X-0005867Y0210479D01*
X-0005867Y0216776D02*
X-0006917Y0216776D01*
X-0006917Y0217826D01*
X-0005867Y0217826D01*
X-0005867Y0216776D01*
X-0011115Y0222024D02*
X-0012164Y0223073D01*
X-0012164Y0225172D01*
X-0011115Y0226222D01*
X-0010065Y0226222D01*
X-0009016Y0225172D01*
X-0009016Y0224123D01*
X-0009016Y0225172D01*
X-0007966Y0226222D01*
X-0006917Y0226222D01*
X-0005867Y0225172D01*
X-0005867Y0223073D01*
X-0006917Y0222024D01*
X-0012164Y0232519D02*
X-0012164Y0228321D01*
X-0009016Y0228321D01*
X-0010065Y0230420D01*
X-0010065Y0231469D01*
X-0009016Y0232519D01*
X-0006917Y0232519D01*
X-0005867Y0231469D01*
X-0005867Y0229370D01*
X-0006917Y0228321D01*
X0130268Y0333070D02*
X0134466Y0333070D01*
X0134466Y0332020D01*
X0130268Y0327822D01*
X0130268Y0326773D01*
X0139713Y0326773D02*
X0139713Y0333070D01*
X0136565Y0329921D01*
X0140763Y0329921D01*
X0142862Y0326773D02*
X0142862Y0327822D01*
X0143911Y0327822D01*
X0143911Y0326773D01*
X0142862Y0326773D01*
X0148109Y0326773D02*
X0150209Y0326773D01*
X0149159Y0326773D01*
X0149159Y0333070D01*
X0148109Y0332020D01*
X0157555Y0326773D02*
X0153357Y0326773D01*
X0157555Y0330971D01*
X0157555Y0332020D01*
X0156506Y0333070D01*
X0154407Y0333070D01*
X0153357Y0332020D01*
X0133941Y0372243D02*
X0131842Y0371194D01*
X0129743Y0369094D01*
X0129743Y0366995D01*
X0130792Y0365946D01*
X0132891Y0365946D01*
X0133941Y0366995D01*
X0133941Y0368045D01*
X0132891Y0369094D01*
X0129743Y0369094D01*
X0140238Y0372243D02*
X0138139Y0371194D01*
X0136040Y0369094D01*
X0136040Y0366995D01*
X0137090Y0365946D01*
X0139189Y0365946D01*
X0140238Y0366995D01*
X0140238Y0368045D01*
X0139189Y0369094D01*
X0136040Y0369094D01*
X0142337Y0365946D02*
X0142337Y0366995D01*
X0143387Y0366995D01*
X0143387Y0365946D01*
X0142337Y0365946D01*
X0151783Y0372243D02*
X0147585Y0372243D01*
X0147585Y0369094D01*
X0149684Y0370144D01*
X0150733Y0370144D01*
X0151783Y0369094D01*
X0151783Y0366995D01*
X0150733Y0365946D01*
X0148634Y0365946D01*
X0147585Y0366995D01*
X0153882Y0371194D02*
X0154931Y0372243D01*
X0157030Y0372243D01*
X0158080Y0371194D01*
X0158080Y0366995D01*
X0157030Y0365946D01*
X0154931Y0365946D01*
X0153882Y0366995D01*
X0153882Y0371194D01*
X-0021917Y0144182D02*
X-0020867Y0145231D01*
X-0020867Y0147330D01*
X-0021917Y0148380D01*
X-0026115Y0148380D01*
X-0027164Y0147330D01*
X-0027164Y0145231D01*
X-0026115Y0144182D01*
X-0025065Y0144182D01*
X-0024016Y0145231D01*
X-0024016Y0148380D01*
X-0027164Y0154677D02*
X-0027164Y0150479D01*
X-0024016Y0150479D01*
X-0025065Y0152578D01*
X-0025065Y0153628D01*
X-0024016Y0154677D01*
X-0021917Y0154677D01*
X-0020867Y0153628D01*
X-0020867Y0151528D01*
X-0021917Y0150479D01*
X-0020867Y0156776D02*
X-0021917Y0156776D01*
X-0021917Y0157826D01*
X-0020867Y0157826D01*
X-0020867Y0156776D01*
X-0020867Y0165172D02*
X-0027164Y0165172D01*
X-0024016Y0162024D01*
X-0024016Y0166222D01*
X-0027164Y0172519D02*
X-0027164Y0168321D01*
X-0024016Y0168321D01*
X-0025065Y0170420D01*
X-0025065Y0171469D01*
X-0024016Y0172519D01*
X-0021917Y0172519D01*
X-0020867Y0171469D01*
X-0020867Y0169370D01*
X-0021917Y0168321D01*
X-0011115Y0031288D02*
X-0012164Y0032338D01*
X-0012164Y0034437D01*
X-0011115Y0035486D01*
X-0010065Y0035486D01*
X-0009016Y0034437D01*
X-0009016Y0033387D01*
X-0009016Y0034437D01*
X-0007966Y0035486D01*
X-0006917Y0035486D01*
X-0005867Y0034437D01*
X-0005867Y0032338D01*
X-0006917Y0031288D01*
X-0011115Y0037585D02*
X-0012164Y0038635D01*
X-0012164Y0040734D01*
X-0011115Y0041783D01*
X-0006917Y0041783D01*
X-0005867Y0040734D01*
X-0005867Y0038635D01*
X-0006917Y0037585D01*
X-0011115Y0037585D01*
X-0005867Y0043882D02*
X-0006917Y0043882D01*
X-0006917Y0044932D01*
X-0005867Y0044932D01*
X-0005867Y0043882D01*
X-0005867Y0052279D02*
X-0012164Y0052279D01*
X-0009016Y0049130D01*
X-0009016Y0053328D01*
X-0011115Y0055427D02*
X-0012164Y0056477D01*
X-0012164Y0058576D01*
X-0011115Y0059625D01*
X-0010065Y0059625D01*
X-0009016Y0058576D01*
X-0007966Y0059625D01*
X-0006917Y0059625D01*
X-0005867Y0058576D01*
X-0005867Y0056477D01*
X-0006917Y0055427D01*
X-0007966Y0055427D01*
X-0009016Y0056477D01*
X-0010065Y0055427D01*
X-0011115Y0055427D01*
X-0009016Y0056477D02*
X-0009016Y0058576D01*
M02*
