G04*
G04 #@! TF.GenerationSoftware,Altium Limited,Altium Designer,25.8.1 (18)*
G04*
G04 Layer_Physical_Order=2*
G04 Layer_Color=36540*
%FSAX25Y25*%
%MOIN*%
G70*
G04*
G04 #@! TF.SameCoordinates,BE805E25-8328-4095-8AD4-E1B6FE3B792C*
G04*
G04*
G04 #@! TF.FilePolarity,Positive*
G04*
G01*
G75*
%ADD67C,0.05906*%
%ADD68C,0.06299*%
%ADD75R,0.05906X0.05906*%
%ADD107C,0.05118*%
%ADD114C,0.02362*%
%ADD115C,0.06000*%
G36*
X0272487Y0346475D02*
X0270468Y0345639D01*
X0268604Y0344497D01*
X0266942Y0343077D01*
X0265523Y0341415D01*
X0264381Y0339552D01*
X0263544Y0337532D01*
X0263034Y0335407D01*
X0262863Y0333228D01*
X0263034Y0331049D01*
X0263544Y0328924D01*
X0264381Y0326905D01*
X0265523Y0325041D01*
X0266942Y0323379D01*
X0268604Y0321960D01*
X0270468Y0320818D01*
X0272487Y0319981D01*
X0274612Y0319471D01*
X0276791Y0319300D01*
X0278970Y0319471D01*
X0281096Y0319981D01*
X0283115Y0320818D01*
X0284979Y0321960D01*
X0286641Y0323379D01*
X0288060Y0325041D01*
X0289202Y0326905D01*
X0290038Y0328924D01*
X0290587Y0328751D01*
X0290587Y0150935D01*
X0228937Y0150935D01*
X0228937Y0060527D01*
X0228763Y0060411D01*
X0228589Y0060150D01*
X0228528Y0059843D01*
X0228528Y0051575D01*
X0228589Y0051268D01*
X0228763Y0051007D01*
X0228937Y0050891D01*
X0228937Y0050591D01*
X0236811Y0050591D01*
X0236811Y0050772D01*
X0236812Y0050772D01*
X0237119Y0050833D01*
X0237379Y0051007D01*
X0237553Y0051268D01*
X0237614Y0051575D01*
X0237614Y0059843D01*
X0238138Y0060236D01*
X0240930Y0060236D01*
X0240930Y0048244D01*
X0202657Y0048244D01*
X0202576Y0049065D01*
X0202102Y0050626D01*
X0201333Y0052065D01*
X0200298Y0053327D01*
X0199037Y0054362D01*
X0197598Y0055131D01*
X0196036Y0055604D01*
X0194413Y0055765D01*
X0192789Y0055604D01*
X0191227Y0055131D01*
X0189788Y0054362D01*
X0188527Y0053327D01*
X0187492Y0052065D01*
X0186723Y0050626D01*
X0186249Y0049065D01*
X0186089Y0047441D01*
X0186249Y0045817D01*
X0186723Y0044256D01*
X0187492Y0042817D01*
X0188527Y0041555D01*
X0189788Y0040520D01*
X0191227Y0039751D01*
X0192789Y0039277D01*
X0193489Y0039208D01*
X0193489Y-0013819D01*
X0186181Y-0013819D01*
X0186181Y-0021299D01*
X0193489Y-0021299D01*
X0193489Y-0026355D01*
X0019477Y-0026355D01*
X0019304Y-0025806D01*
X0021324Y-0024970D01*
X0023187Y-0023828D01*
X0024849Y-0022408D01*
X0026269Y-0020746D01*
X0027411Y-0018883D01*
X0028247Y-0016863D01*
X0028757Y-0014738D01*
X0028929Y-0012559D01*
X0028757Y-0010380D01*
X0028247Y-0008255D01*
X0027411Y-0006236D01*
X0026269Y-0004372D01*
X0024849Y-0002710D01*
X0023187Y-0001290D01*
X0021324Y-0000148D01*
X0019304Y0000688D01*
X0017179Y0001198D01*
X0015000Y0001370D01*
X0012821Y0001198D01*
X0010696Y0000688D01*
X0008676Y-0000148D01*
X0006813Y-0001290D01*
X0005151Y-0002710D01*
X0003731Y-0004372D01*
X0002589Y-0006236D01*
X0001753Y-0008255D01*
X0001204Y-0008082D01*
X0001204Y0010827D01*
X0001204Y0102964D01*
X0001753Y0103137D01*
X0002589Y0101117D01*
X0003731Y0099254D01*
X0005151Y0097592D01*
X0006813Y0096172D01*
X0008676Y0095030D01*
X0010696Y0094194D01*
X0012821Y0093684D01*
X0015000Y0093512D01*
X0017179Y0093684D01*
X0019304Y0094194D01*
X0021324Y0095030D01*
X0023187Y0096172D01*
X0024849Y0097592D01*
X0026269Y0099254D01*
X0027411Y0101117D01*
X0028247Y0103137D01*
X0028757Y0105262D01*
X0028929Y0107441D01*
X0028757Y0109620D01*
X0028247Y0111745D01*
X0027411Y0113765D01*
X0026269Y0115628D01*
X0024849Y0117290D01*
X0023187Y0118710D01*
X0021324Y0119852D01*
X0019304Y0120688D01*
X0017179Y0121198D01*
X0015000Y0121370D01*
X0012821Y0121198D01*
X0010696Y0120688D01*
X0008676Y0119852D01*
X0006813Y0118710D01*
X0005151Y0117290D01*
X0003731Y0115628D01*
X0002589Y0113765D01*
X0001753Y0111745D01*
X0001204Y0111918D01*
X0001204Y0328751D01*
X0001753Y0328924D01*
X0002589Y0326905D01*
X0003731Y0325041D01*
X0005151Y0323379D01*
X0006813Y0321959D01*
X0008676Y0320817D01*
X0010696Y0319981D01*
X0012821Y0319471D01*
X0015000Y0319299D01*
X0017179Y0319471D01*
X0019304Y0319981D01*
X0021324Y0320817D01*
X0023187Y0321959D01*
X0024849Y0323379D01*
X0026269Y0325041D01*
X0027411Y0326905D01*
X0028247Y0328924D01*
X0028757Y0331049D01*
X0028929Y0333228D01*
X0028757Y0335407D01*
X0028247Y0337532D01*
X0027411Y0339552D01*
X0026269Y0341415D01*
X0024849Y0343077D01*
X0023187Y0344497D01*
X0021324Y0345639D01*
X0019304Y0346475D01*
X0019477Y0347024D01*
X0272314Y0347024D01*
X0272487Y0346475D01*
X0272487Y0346475D02*
G37*
%LPC*%
G36*
X0233862Y0344580D02*
X0233094Y0344427D01*
X0232443Y0343992D01*
X0232008Y0343341D01*
X0231855Y0342573D01*
X0232008Y0341805D01*
X0232443Y0341154D01*
X0233094Y0340719D01*
X0233862Y0340566D01*
X0234630Y0340719D01*
X0235281Y0341154D01*
X0235716Y0341805D01*
X0235869Y0342573D01*
X0235716Y0343341D01*
X0235281Y0343992D01*
X0234630Y0344427D01*
X0233862Y0344580D01*
X0233862Y0344580D02*
G37*
G36*
X0192205Y0342041D02*
X0191485Y0341947D01*
X0190815Y0341669D01*
X0190239Y0341227D01*
X0189797Y0340652D01*
X0189520Y0339981D01*
X0189425Y0339262D01*
X0189425Y0336112D01*
X0189520Y0335393D01*
X0189797Y0334722D01*
X0190239Y0334147D01*
X0190815Y0333705D01*
X0191485Y0333427D01*
X0192205Y0333332D01*
X0192924Y0333427D01*
X0193595Y0333705D01*
X0194170Y0334147D01*
X0194612Y0334722D01*
X0194890Y0335393D01*
X0194984Y0336112D01*
X0194984Y0339262D01*
X0194890Y0339981D01*
X0194612Y0340652D01*
X0194170Y0341227D01*
X0193595Y0341669D01*
X0192924Y0341947D01*
X0192205Y0342041D01*
X0192205Y0342041D02*
G37*
G36*
X0158189Y0342041D02*
X0157470Y0341947D01*
X0156799Y0341669D01*
X0156223Y0341227D01*
X0155782Y0340652D01*
X0155504Y0339981D01*
X0155409Y0339262D01*
X0155409Y0336112D01*
X0155504Y0335393D01*
X0155782Y0334722D01*
X0156223Y0334147D01*
X0156799Y0333705D01*
X0157470Y0333427D01*
X0158189Y0333332D01*
X0158908Y0333427D01*
X0159579Y0333705D01*
X0160154Y0334147D01*
X0160596Y0334722D01*
X0160874Y0335393D01*
X0160969Y0336112D01*
X0160969Y0339262D01*
X0160874Y0339981D01*
X0160596Y0340652D01*
X0160154Y0341227D01*
X0159579Y0341669D01*
X0158908Y0341947D01*
X0158189Y0342041D01*
X0158189Y0342041D02*
G37*
G36*
X0120453Y0336542D02*
X0120453Y0332914D01*
X0124081Y0332914D01*
X0124003Y0333505D01*
X0123585Y0334514D01*
X0122920Y0335381D01*
X0122053Y0336047D01*
X0121044Y0336465D01*
X0120453Y0336542D01*
X0120453Y0336542D02*
G37*
G36*
X0110453Y0336542D02*
X0110453Y0332914D01*
X0114081Y0332914D01*
X0114003Y0333505D01*
X0113585Y0334514D01*
X0112920Y0335381D01*
X0112053Y0336047D01*
X0111044Y0336465D01*
X0110453Y0336542D01*
X0110453Y0336542D02*
G37*
G36*
X0119468Y0336542D02*
X0118877Y0336465D01*
X0117868Y0336047D01*
X0117001Y0335381D01*
X0116336Y0334514D01*
X0115918Y0333505D01*
X0115840Y0332914D01*
X0119468Y0332914D01*
X0119468Y0336542D01*
X0119468Y0336542D02*
G37*
G36*
X0109468Y0336542D02*
X0108877Y0336465D01*
X0107868Y0336047D01*
X0107001Y0335381D01*
X0106336Y0334514D01*
X0105918Y0333505D01*
X0105840Y0332914D01*
X0109468Y0332914D01*
X0109468Y0336542D01*
X0109468Y0336542D02*
G37*
G36*
X0143898Y0336359D02*
X0136024Y0336359D01*
X0136024Y0328485D01*
X0143898Y0328485D01*
X0143898Y0336359D01*
X0143898Y0336359D02*
G37*
G36*
X0129961Y0336393D02*
X0128933Y0336258D01*
X0127975Y0335861D01*
X0127153Y0335230D01*
X0126522Y0334407D01*
X0126125Y0333450D01*
X0125990Y0332422D01*
X0126125Y0331394D01*
X0126522Y0330436D01*
X0127153Y0329614D01*
X0127975Y0328983D01*
X0128933Y0328586D01*
X0129961Y0328451D01*
X0130988Y0328586D01*
X0131946Y0328983D01*
X0132768Y0329614D01*
X0133400Y0330436D01*
X0133796Y0331394D01*
X0133932Y0332422D01*
X0133796Y0333450D01*
X0133400Y0334407D01*
X0132768Y0335230D01*
X0131946Y0335861D01*
X0130988Y0336258D01*
X0129961Y0336393D01*
X0129961Y0336393D02*
G37*
G36*
X0124081Y0331930D02*
X0120453Y0331930D01*
X0120453Y0328301D01*
X0121044Y0328379D01*
X0122053Y0328797D01*
X0122920Y0329462D01*
X0123585Y0330329D01*
X0124003Y0331339D01*
X0124081Y0331930D01*
X0124081Y0331930D02*
G37*
G36*
X0114081Y0331930D02*
X0110453Y0331930D01*
X0110453Y0328301D01*
X0111044Y0328379D01*
X0112053Y0328797D01*
X0112920Y0329462D01*
X0113585Y0330329D01*
X0114003Y0331339D01*
X0114081Y0331930D01*
X0114081Y0331930D02*
G37*
G36*
X0119468Y0331930D02*
X0115840Y0331930D01*
X0115918Y0331339D01*
X0116336Y0330329D01*
X0117001Y0329462D01*
X0117868Y0328797D01*
X0118877Y0328379D01*
X0119468Y0328301D01*
X0119468Y0331930D01*
X0119468Y0331930D02*
G37*
G36*
X0109468Y0331930D02*
X0105840Y0331930D01*
X0105918Y0331339D01*
X0106336Y0330329D01*
X0107001Y0329462D01*
X0107868Y0328797D01*
X0108877Y0328379D01*
X0109468Y0328301D01*
X0109468Y0331930D01*
X0109468Y0331930D02*
G37*
G36*
X0071663Y0327639D02*
X0070895Y0327486D01*
X0070244Y0327051D01*
X0069922Y0326570D01*
X0069846Y0326546D01*
X0069341Y0326546D01*
X0069265Y0326570D01*
X0068944Y0327051D01*
X0068292Y0327486D01*
X0067524Y0327639D01*
X0066756Y0327486D01*
X0066105Y0327051D01*
X0065783Y0326570D01*
X0065708Y0326546D01*
X0065202Y0326546D01*
X0065127Y0326570D01*
X0064805Y0327051D01*
X0064154Y0327486D01*
X0063386Y0327639D01*
X0062618Y0327486D01*
X0061967Y0327051D01*
X0061532Y0326400D01*
X0061379Y0325632D01*
X0061532Y0324864D01*
X0061964Y0324217D01*
X0062052Y0324079D01*
X0062052Y0323641D01*
X0061964Y0323504D01*
X0061532Y0322857D01*
X0061379Y0322089D01*
X0061532Y0321321D01*
X0061967Y0320670D01*
X0062618Y0320234D01*
X0063386Y0320082D01*
X0064154Y0320234D01*
X0064805Y0320670D01*
X0065127Y0321151D01*
X0065202Y0321175D01*
X0065708Y0321175D01*
X0065783Y0321151D01*
X0066105Y0320670D01*
X0066523Y0320390D01*
X0066573Y0319733D01*
X0066563Y0319707D01*
X0066297Y0319529D01*
X0065862Y0318878D01*
X0065710Y0318110D01*
X0065862Y0317342D01*
X0066297Y0316691D01*
X0066948Y0316256D01*
X0067716Y0316103D01*
X0068485Y0316256D01*
X0069136Y0316691D01*
X0069571Y0317342D01*
X0069724Y0318110D01*
X0069571Y0318878D01*
X0069136Y0319529D01*
X0068718Y0319809D01*
X0068668Y0320466D01*
X0068678Y0320492D01*
X0068944Y0320670D01*
X0069265Y0321151D01*
X0069341Y0321175D01*
X0069846Y0321175D01*
X0069922Y0321151D01*
X0070244Y0320670D01*
X0070895Y0320234D01*
X0071663Y0320082D01*
X0072431Y0320234D01*
X0073082Y0320670D01*
X0073517Y0321321D01*
X0073670Y0322089D01*
X0073517Y0322857D01*
X0073082Y0323508D01*
X0072996Y0323565D01*
X0072996Y0324156D01*
X0073082Y0324213D01*
X0073517Y0324864D01*
X0073670Y0325632D01*
X0073517Y0326400D01*
X0073082Y0327051D01*
X0072431Y0327486D01*
X0071663Y0327639D01*
X0071663Y0327639D02*
G37*
G36*
X0085433Y0323810D02*
X0084665Y0323657D01*
X0084018Y0323225D01*
X0083881Y0323137D01*
X0083442Y0323137D01*
X0083305Y0323225D01*
X0082658Y0323657D01*
X0081890Y0323810D01*
X0081122Y0323657D01*
X0080471Y0323222D01*
X0080036Y0322571D01*
X0079883Y0321803D01*
X0080036Y0321035D01*
X0080471Y0320384D01*
X0080612Y0320289D01*
X0080612Y0319699D01*
X0080471Y0319604D01*
X0080036Y0318953D01*
X0079883Y0318185D01*
X0080036Y0317417D01*
X0080471Y0316766D01*
X0080612Y0316671D01*
X0080612Y0316081D01*
X0080471Y0315986D01*
X0080036Y0315335D01*
X0079883Y0314567D01*
X0080036Y0313799D01*
X0080471Y0313148D01*
X0081122Y0312713D01*
X0081890Y0312560D01*
X0082658Y0312713D01*
X0083305Y0313145D01*
X0083442Y0313233D01*
X0083881Y0313233D01*
X0084018Y0313145D01*
X0084665Y0312713D01*
X0085433Y0312560D01*
X0086201Y0312713D01*
X0086852Y0313148D01*
X0087287Y0313799D01*
X0087440Y0314567D01*
X0087287Y0315335D01*
X0086852Y0315986D01*
X0086711Y0316081D01*
X0086711Y0316671D01*
X0086852Y0316766D01*
X0087287Y0317417D01*
X0087440Y0318185D01*
X0087287Y0318953D01*
X0086852Y0319604D01*
X0086711Y0319699D01*
X0086711Y0320289D01*
X0086852Y0320384D01*
X0087287Y0321035D01*
X0087440Y0321803D01*
X0087287Y0322571D01*
X0086852Y0323222D01*
X0086201Y0323657D01*
X0085433Y0323810D01*
X0085433Y0323810D02*
G37*
G36*
X0186575Y0325306D02*
X0185768Y0325146D01*
X0185085Y0324689D01*
X0184628Y0324005D01*
X0184467Y0323199D01*
X0184628Y0322392D01*
X0185085Y0321709D01*
X0185768Y0321252D01*
X0186575Y0321091D01*
X0187381Y0321252D01*
X0188065Y0321709D01*
X0188522Y0322392D01*
X0188682Y0323199D01*
X0188522Y0324005D01*
X0188065Y0324689D01*
X0187381Y0325146D01*
X0186575Y0325306D01*
X0186575Y0325306D02*
G37*
G36*
X0163819Y0325306D02*
X0163012Y0325146D01*
X0162329Y0324689D01*
X0161872Y0324005D01*
X0161712Y0323199D01*
X0161872Y0322392D01*
X0162329Y0321709D01*
X0163012Y0321252D01*
X0163819Y0321091D01*
X0164625Y0321252D01*
X0165309Y0321709D01*
X0165766Y0322392D01*
X0165926Y0323199D01*
X0165766Y0324005D01*
X0165309Y0324689D01*
X0164625Y0325146D01*
X0163819Y0325306D01*
X0163819Y0325306D02*
G37*
G36*
X0192205Y0326175D02*
X0191485Y0326081D01*
X0190815Y0325803D01*
X0190239Y0325361D01*
X0189797Y0324785D01*
X0189520Y0324115D01*
X0189425Y0323396D01*
X0189425Y0319065D01*
X0189520Y0318345D01*
X0189797Y0317675D01*
X0190239Y0317099D01*
X0190815Y0316658D01*
X0191485Y0316380D01*
X0192205Y0316285D01*
X0192924Y0316380D01*
X0193595Y0316658D01*
X0194170Y0317099D01*
X0194612Y0317675D01*
X0194890Y0318345D01*
X0194984Y0319065D01*
X0194984Y0323396D01*
X0194890Y0324115D01*
X0194612Y0324785D01*
X0194170Y0325361D01*
X0193595Y0325803D01*
X0192924Y0326081D01*
X0192205Y0326175D01*
X0192205Y0326175D02*
G37*
G36*
X0158189Y0326175D02*
X0157470Y0326081D01*
X0156799Y0325803D01*
X0156223Y0325361D01*
X0155782Y0324785D01*
X0155504Y0324115D01*
X0155409Y0323396D01*
X0155409Y0319065D01*
X0155504Y0318345D01*
X0155782Y0317675D01*
X0156223Y0317099D01*
X0156799Y0316658D01*
X0157470Y0316380D01*
X0158189Y0316285D01*
X0158908Y0316380D01*
X0159579Y0316658D01*
X0160154Y0317099D01*
X0160596Y0317675D01*
X0160874Y0318345D01*
X0160969Y0319065D01*
X0160969Y0323396D01*
X0160874Y0324115D01*
X0160596Y0324785D01*
X0160154Y0325361D01*
X0159579Y0325803D01*
X0158908Y0326081D01*
X0158189Y0326175D01*
X0158189Y0326175D02*
G37*
G36*
X0178543Y0312243D02*
X0177775Y0312090D01*
X0177124Y0311655D01*
X0177010Y0311655D01*
X0176359Y0312090D01*
X0175591Y0312243D01*
X0174822Y0312090D01*
X0174171Y0311655D01*
X0173736Y0311004D01*
X0173583Y0310236D01*
X0173736Y0309468D01*
X0174171Y0308817D01*
X0174822Y0308382D01*
X0175591Y0308229D01*
X0176359Y0308382D01*
X0177010Y0308817D01*
X0177124Y0308817D01*
X0177775Y0308382D01*
X0178543Y0308229D01*
X0179311Y0308382D01*
X0179963Y0308817D01*
X0180398Y0309468D01*
X0180550Y0310236D01*
X0180398Y0311004D01*
X0179963Y0311655D01*
X0179311Y0312090D01*
X0178543Y0312243D01*
X0178543Y0312243D02*
G37*
G36*
X0165157Y0315393D02*
X0164389Y0315240D01*
X0163738Y0314805D01*
X0163303Y0314154D01*
X0163150Y0313386D01*
X0163303Y0312618D01*
X0163738Y0311967D01*
X0164389Y0311531D01*
X0165157Y0311379D01*
X0165926Y0311531D01*
X0166577Y0311967D01*
X0167012Y0312618D01*
X0167165Y0313386D01*
X0167012Y0314154D01*
X0166577Y0314805D01*
X0165926Y0315240D01*
X0165157Y0315393D01*
X0165157Y0315393D02*
G37*
G36*
X0188386Y0312046D02*
X0187618Y0311894D01*
X0186967Y0311459D01*
X0186531Y0310807D01*
X0186379Y0310039D01*
X0186531Y0309271D01*
X0186967Y0308620D01*
X0187618Y0308185D01*
X0188386Y0308032D01*
X0189154Y0308185D01*
X0189805Y0308620D01*
X0190240Y0309271D01*
X0190393Y0310039D01*
X0190240Y0310807D01*
X0189805Y0311459D01*
X0189154Y0311894D01*
X0188386Y0312046D01*
X0188386Y0312046D02*
G37*
G36*
X0094882Y0313818D02*
X0094114Y0313665D01*
X0093463Y0313230D01*
X0093028Y0312579D01*
X0092875Y0311811D01*
X0093028Y0311043D01*
X0093463Y0310392D01*
X0093463Y0310081D01*
X0093028Y0309430D01*
X0092875Y0308661D01*
X0093028Y0307893D01*
X0093278Y0307518D01*
X0093383Y0307183D01*
X0093104Y0306691D01*
X0092531Y0306681D01*
X0092364Y0306931D01*
X0091713Y0307366D01*
X0090945Y0307519D01*
X0090177Y0307366D01*
X0089526Y0306931D01*
X0089091Y0306280D01*
X0088938Y0305512D01*
X0089091Y0304744D01*
X0089341Y0304368D01*
X0089477Y0303937D01*
X0089341Y0303505D01*
X0089091Y0303130D01*
X0088938Y0302362D01*
X0089091Y0301594D01*
X0089526Y0300943D01*
X0090177Y0300508D01*
X0090945Y0300355D01*
X0091713Y0300508D01*
X0092364Y0300943D01*
X0092558Y0301234D01*
X0093269Y0301234D01*
X0093463Y0300943D01*
X0094114Y0300508D01*
X0094882Y0300355D01*
X0095650Y0300508D01*
X0096301Y0300943D01*
X0096736Y0301594D01*
X0096889Y0302362D01*
X0096736Y0303130D01*
X0096485Y0303505D01*
X0096350Y0303937D01*
X0096485Y0304368D01*
X0096736Y0304744D01*
X0096889Y0305512D01*
X0096736Y0306280D01*
X0096485Y0306655D01*
X0096350Y0307087D01*
X0096485Y0307518D01*
X0096736Y0307893D01*
X0096889Y0308661D01*
X0096736Y0309430D01*
X0096301Y0310081D01*
X0096301Y0310392D01*
X0096736Y0311043D01*
X0096889Y0311811D01*
X0096736Y0312579D01*
X0096301Y0313230D01*
X0095650Y0313665D01*
X0094882Y0313818D01*
X0094882Y0313818D02*
G37*
G36*
X0094882Y0296889D02*
X0094114Y0296736D01*
X0093463Y0296301D01*
X0093028Y0295650D01*
X0092875Y0294882D01*
X0093028Y0294114D01*
X0093463Y0293463D01*
X0093475Y0292864D01*
X0093112Y0292478D01*
X0092533Y0292505D01*
X0092364Y0292758D01*
X0091713Y0293193D01*
X0090945Y0293346D01*
X0090177Y0293193D01*
X0089526Y0292758D01*
X0089091Y0292107D01*
X0088938Y0291339D01*
X0089091Y0290570D01*
X0089523Y0289923D01*
X0089611Y0289786D01*
X0089611Y0289348D01*
X0089523Y0289211D01*
X0089091Y0288563D01*
X0088938Y0287795D01*
X0089091Y0287027D01*
X0089526Y0286376D01*
X0090177Y0285941D01*
X0090945Y0285788D01*
X0091713Y0285941D01*
X0092364Y0286376D01*
X0092558Y0286667D01*
X0093269Y0286667D01*
X0093463Y0286376D01*
X0093548Y0286319D01*
X0093548Y0285728D01*
X0093463Y0285671D01*
X0093028Y0285020D01*
X0092875Y0284252D01*
X0093028Y0283484D01*
X0093463Y0282833D01*
X0094114Y0282398D01*
X0094882Y0282245D01*
X0095650Y0282398D01*
X0096301Y0282833D01*
X0096736Y0283484D01*
X0096889Y0284252D01*
X0096736Y0285020D01*
X0096301Y0285671D01*
X0096215Y0285728D01*
X0096215Y0286319D01*
X0096301Y0286376D01*
X0096736Y0287027D01*
X0096889Y0287795D01*
X0096736Y0288563D01*
X0096304Y0289211D01*
X0096215Y0289348D01*
X0096215Y0289786D01*
X0096304Y0289923D01*
X0096736Y0290570D01*
X0096889Y0291339D01*
X0096736Y0292107D01*
X0096301Y0292758D01*
X0096215Y0292815D01*
X0096215Y0293406D01*
X0096301Y0293463D01*
X0096736Y0294114D01*
X0096889Y0294882D01*
X0096736Y0295650D01*
X0096301Y0296301D01*
X0095650Y0296736D01*
X0094882Y0296889D01*
X0094882Y0296889D02*
G37*
G36*
X0124606Y0290196D02*
X0123838Y0290043D01*
X0123187Y0289608D01*
X0123091Y0289465D01*
X0122381Y0289465D01*
X0122285Y0289608D01*
X0121634Y0290043D01*
X0120866Y0290196D01*
X0120098Y0290043D01*
X0119447Y0289608D01*
X0119012Y0288957D01*
X0118859Y0288189D01*
X0119012Y0287421D01*
X0119447Y0286770D01*
X0119606Y0286663D01*
X0119606Y0286073D01*
X0119447Y0285966D01*
X0119012Y0285315D01*
X0118859Y0284547D01*
X0119012Y0283779D01*
X0119447Y0283128D01*
X0119606Y0283022D01*
X0119606Y0282431D01*
X0119447Y0282325D01*
X0119012Y0281674D01*
X0118859Y0280906D01*
X0119012Y0280137D01*
X0119447Y0279486D01*
X0120098Y0279051D01*
X0120866Y0278898D01*
X0121634Y0279051D01*
X0122285Y0279486D01*
X0122381Y0279630D01*
X0123091Y0279630D01*
X0123187Y0279486D01*
X0123838Y0279051D01*
X0124606Y0278898D01*
X0125374Y0279051D01*
X0126025Y0279486D01*
X0126461Y0280137D01*
X0126613Y0280906D01*
X0126461Y0281674D01*
X0126025Y0282325D01*
X0125866Y0282431D01*
X0125866Y0283022D01*
X0126025Y0283128D01*
X0126461Y0283779D01*
X0126613Y0284547D01*
X0126461Y0285315D01*
X0126025Y0285966D01*
X0125866Y0286073D01*
X0125866Y0286663D01*
X0126025Y0286770D01*
X0126461Y0287421D01*
X0126613Y0288189D01*
X0126461Y0288957D01*
X0126025Y0289608D01*
X0125374Y0290043D01*
X0124606Y0290196D01*
X0124606Y0290196D02*
G37*
G36*
X0059252Y0291771D02*
X0058484Y0291618D01*
X0057833Y0291183D01*
X0057398Y0290532D01*
X0057245Y0289764D01*
X0057298Y0289497D01*
X0056796Y0288995D01*
X0056693Y0289015D01*
X0055925Y0288862D01*
X0055274Y0288427D01*
X0054839Y0287776D01*
X0054686Y0287008D01*
X0054739Y0286741D01*
X0054237Y0286239D01*
X0054134Y0286259D01*
X0053366Y0286106D01*
X0052715Y0285671D01*
X0052280Y0285020D01*
X0052127Y0284252D01*
X0052188Y0283944D01*
X0051686Y0283442D01*
X0051378Y0283503D01*
X0050610Y0283350D01*
X0049959Y0282915D01*
X0049524Y0282264D01*
X0049371Y0281496D01*
X0049524Y0280728D01*
X0049728Y0280422D01*
X0049302Y0279996D01*
X0048996Y0280201D01*
X0048228Y0280353D01*
X0047460Y0280201D01*
X0046809Y0279766D01*
X0046374Y0279115D01*
X0046221Y0278346D01*
X0046374Y0277578D01*
X0046809Y0276927D01*
X0047460Y0276492D01*
X0048228Y0276339D01*
X0048996Y0276492D01*
X0049648Y0276927D01*
X0050083Y0277578D01*
X0050235Y0278346D01*
X0050083Y0279115D01*
X0049878Y0279420D01*
X0050304Y0279846D01*
X0050610Y0279642D01*
X0051378Y0279489D01*
X0052146Y0279642D01*
X0052797Y0280077D01*
X0053232Y0280728D01*
X0053385Y0281496D01*
X0053324Y0281804D01*
X0053826Y0282306D01*
X0054134Y0282245D01*
X0054902Y0282398D01*
X0055553Y0282833D01*
X0055988Y0283484D01*
X0056141Y0284252D01*
X0056088Y0284519D01*
X0056590Y0285021D01*
X0056693Y0285001D01*
X0057461Y0285154D01*
X0058112Y0285589D01*
X0058547Y0286240D01*
X0058700Y0287008D01*
X0058647Y0287275D01*
X0059149Y0287777D01*
X0059252Y0287757D01*
X0060020Y0287910D01*
X0060671Y0288345D01*
X0061106Y0288996D01*
X0061259Y0289764D01*
X0061106Y0290532D01*
X0060671Y0291183D01*
X0060020Y0291618D01*
X0059252Y0291771D01*
X0059252Y0291771D02*
G37*
G36*
X0183071Y0291771D02*
X0182303Y0291618D01*
X0181652Y0291183D01*
X0181217Y0290532D01*
X0181064Y0289764D01*
X0181217Y0288996D01*
X0181652Y0288345D01*
X0182303Y0287910D01*
X0183071Y0287757D01*
X0183839Y0287910D01*
X0184490Y0288345D01*
X0184925Y0288996D01*
X0185078Y0289764D01*
X0184925Y0290532D01*
X0184490Y0291183D01*
X0183839Y0291618D01*
X0183071Y0291771D01*
X0183071Y0291771D02*
G37*
G36*
X0167913Y0291771D02*
X0167145Y0291618D01*
X0166494Y0291183D01*
X0166059Y0290532D01*
X0165906Y0289764D01*
X0166059Y0288996D01*
X0166494Y0288345D01*
X0167145Y0287910D01*
X0167913Y0287757D01*
X0168682Y0287910D01*
X0169333Y0288345D01*
X0169768Y0288996D01*
X0169921Y0289764D01*
X0169768Y0290532D01*
X0169333Y0291183D01*
X0168682Y0291618D01*
X0167913Y0291771D01*
X0167913Y0291771D02*
G37*
G36*
X0069685Y0287046D02*
X0068917Y0286894D01*
X0068266Y0286459D01*
X0067831Y0285807D01*
X0067678Y0285039D01*
X0067831Y0284271D01*
X0068266Y0283620D01*
X0068917Y0283185D01*
X0069685Y0283032D01*
X0070453Y0283185D01*
X0071104Y0283620D01*
X0071539Y0284271D01*
X0071692Y0285039D01*
X0071539Y0285807D01*
X0071104Y0286459D01*
X0070453Y0286894D01*
X0069685Y0287046D01*
X0069685Y0287046D02*
G37*
G36*
X0183071Y0286062D02*
X0182303Y0285909D01*
X0181652Y0285474D01*
X0181217Y0284823D01*
X0181064Y0284055D01*
X0181217Y0283287D01*
X0181652Y0282636D01*
X0182303Y0282201D01*
X0183071Y0282048D01*
X0183839Y0282201D01*
X0184490Y0282636D01*
X0184925Y0283287D01*
X0185078Y0284055D01*
X0184925Y0284823D01*
X0184490Y0285474D01*
X0183839Y0285909D01*
X0183071Y0286062D01*
X0183071Y0286062D02*
G37*
G36*
X0167717Y0286062D02*
X0166948Y0285909D01*
X0166297Y0285474D01*
X0165862Y0284823D01*
X0165709Y0284055D01*
X0165862Y0283287D01*
X0166297Y0282636D01*
X0166948Y0282201D01*
X0167717Y0282048D01*
X0168485Y0282201D01*
X0169136Y0282636D01*
X0169571Y0283287D01*
X0169724Y0284055D01*
X0169571Y0284823D01*
X0169136Y0285474D01*
X0168485Y0285909D01*
X0167717Y0286062D01*
X0167717Y0286062D02*
G37*
G36*
X0135630Y0271692D02*
X0134862Y0271539D01*
X0134211Y0271104D01*
X0134196Y0271082D01*
X0133605Y0271082D01*
X0133590Y0271104D01*
X0132939Y0271539D01*
X0132171Y0271692D01*
X0131403Y0271539D01*
X0130752Y0271104D01*
X0130317Y0270453D01*
X0130164Y0269685D01*
X0130317Y0268917D01*
X0130752Y0268266D01*
X0130752Y0267955D01*
X0130317Y0267303D01*
X0130164Y0266535D01*
X0130317Y0265767D01*
X0130752Y0265116D01*
X0130752Y0264805D01*
X0130317Y0264154D01*
X0130164Y0263386D01*
X0130317Y0262618D01*
X0130568Y0262243D01*
X0130703Y0261811D01*
X0130568Y0261380D01*
X0130317Y0261004D01*
X0130164Y0260236D01*
X0130317Y0259468D01*
X0130752Y0258817D01*
X0131403Y0258382D01*
X0132171Y0258229D01*
X0132939Y0258382D01*
X0133590Y0258817D01*
X0133605Y0258839D01*
X0134196Y0258839D01*
X0134211Y0258817D01*
X0134862Y0258382D01*
X0135630Y0258229D01*
X0136398Y0258382D01*
X0137049Y0258817D01*
X0137484Y0259468D01*
X0137637Y0260236D01*
X0137484Y0261004D01*
X0137049Y0261655D01*
X0137049Y0261967D01*
X0137484Y0262618D01*
X0137637Y0263386D01*
X0137484Y0264154D01*
X0137049Y0264805D01*
X0137049Y0265116D01*
X0137484Y0265767D01*
X0137637Y0266535D01*
X0137484Y0267303D01*
X0137049Y0267955D01*
X0137049Y0268266D01*
X0137484Y0268917D01*
X0137637Y0269685D01*
X0137484Y0270453D01*
X0137049Y0271104D01*
X0136398Y0271539D01*
X0135630Y0271692D01*
X0135630Y0271692D02*
G37*
G36*
X0116732Y0271884D02*
X0115705Y0271749D01*
X0114747Y0271352D01*
X0113924Y0270721D01*
X0113293Y0269899D01*
X0112897Y0268941D01*
X0112761Y0267913D01*
X0112897Y0266886D01*
X0113293Y0265928D01*
X0113924Y0265106D01*
X0114747Y0264474D01*
X0115705Y0264078D01*
X0116732Y0263942D01*
X0117760Y0264078D01*
X0118718Y0264474D01*
X0119540Y0265106D01*
X0120171Y0265928D01*
X0120568Y0266886D01*
X0120703Y0267913D01*
X0120568Y0268941D01*
X0120171Y0269899D01*
X0119540Y0270721D01*
X0118718Y0271352D01*
X0117760Y0271749D01*
X0116732Y0271884D01*
X0116732Y0271884D02*
G37*
G36*
X0142323Y0253976D02*
X0141555Y0253823D01*
X0140904Y0253388D01*
X0140469Y0252737D01*
X0140316Y0251969D01*
X0140469Y0251200D01*
X0140904Y0250549D01*
X0141555Y0250114D01*
X0142323Y0249961D01*
X0143091Y0250114D01*
X0143742Y0250549D01*
X0144102Y0251088D01*
X0144565Y0251075D01*
X0144717Y0251026D01*
X0144799Y0250610D01*
X0145234Y0249959D01*
X0145886Y0249524D01*
X0146653Y0249371D01*
X0147422Y0249524D01*
X0148073Y0249959D01*
X0148508Y0250610D01*
X0148661Y0251378D01*
X0148508Y0252146D01*
X0148073Y0252797D01*
X0147422Y0253232D01*
X0146653Y0253385D01*
X0145886Y0253232D01*
X0145234Y0252797D01*
X0144874Y0252258D01*
X0144411Y0252272D01*
X0144260Y0252321D01*
X0144177Y0252737D01*
X0143742Y0253388D01*
X0143091Y0253823D01*
X0142323Y0253976D01*
X0142323Y0253976D02*
G37*
G36*
X0169488Y0252401D02*
X0168720Y0252248D01*
X0168069Y0251813D01*
X0167634Y0251162D01*
X0167481Y0250394D01*
X0167634Y0249626D01*
X0168069Y0248974D01*
X0167939Y0248351D01*
X0167736Y0248311D01*
X0167085Y0247876D01*
X0166650Y0247225D01*
X0166497Y0246457D01*
X0166650Y0245689D01*
X0167085Y0245038D01*
X0167736Y0244602D01*
X0168504Y0244450D01*
X0169272Y0244602D01*
X0169923Y0245038D01*
X0170358Y0245689D01*
X0170511Y0246457D01*
X0170358Y0247225D01*
X0169923Y0247876D01*
X0170054Y0248499D01*
X0170256Y0248539D01*
X0170907Y0248974D01*
X0171343Y0249626D01*
X0171495Y0250394D01*
X0171343Y0251162D01*
X0170907Y0251813D01*
X0170256Y0252248D01*
X0169488Y0252401D01*
X0169488Y0252401D02*
G37*
G36*
X0168504Y0243346D02*
X0167736Y0243193D01*
X0167085Y0242758D01*
X0166650Y0242107D01*
X0166497Y0241339D01*
X0166650Y0240570D01*
X0167085Y0239919D01*
X0167736Y0239484D01*
X0168504Y0239332D01*
X0169272Y0239484D01*
X0169923Y0239919D01*
X0170358Y0240570D01*
X0170511Y0241339D01*
X0170358Y0242107D01*
X0169923Y0242758D01*
X0169272Y0243193D01*
X0168504Y0243346D01*
X0168504Y0243346D02*
G37*
G36*
X0274705Y0236818D02*
X0274705Y0229035D01*
X0282488Y0229035D01*
X0282376Y0230167D01*
X0281903Y0231729D01*
X0281133Y0233168D01*
X0280098Y0234429D01*
X0278837Y0235464D01*
X0277398Y0236233D01*
X0275836Y0236707D01*
X0274705Y0236818D01*
X0274705Y0236818D02*
G37*
G36*
X0273721Y0236818D02*
X0272589Y0236707D01*
X0271027Y0236233D01*
X0269588Y0235464D01*
X0268327Y0234429D01*
X0267292Y0233168D01*
X0266523Y0231729D01*
X0266049Y0230167D01*
X0265937Y0229035D01*
X0273721Y0229035D01*
X0273721Y0236818D01*
X0273721Y0236818D02*
G37*
G36*
X0282488Y0228051D02*
X0274705Y0228051D01*
X0274705Y0220268D01*
X0275836Y0220380D01*
X0277398Y0220853D01*
X0278837Y0221623D01*
X0280098Y0222658D01*
X0281133Y0223919D01*
X0281903Y0225358D01*
X0282376Y0226920D01*
X0282488Y0228051D01*
X0282488Y0228051D02*
G37*
G36*
X0273721Y0228051D02*
X0265937Y0228051D01*
X0266049Y0226920D01*
X0266523Y0225358D01*
X0267292Y0223919D01*
X0268327Y0222658D01*
X0269588Y0221623D01*
X0271027Y0220853D01*
X0272589Y0220380D01*
X0273721Y0220268D01*
X0273721Y0228051D01*
X0273721Y0228051D02*
G37*
G36*
X0182283Y0206928D02*
X0181515Y0206776D01*
X0180864Y0206341D01*
X0180429Y0205689D01*
X0180276Y0204921D01*
X0180429Y0204153D01*
X0180864Y0203502D01*
X0181515Y0203067D01*
X0182283Y0202914D01*
X0183052Y0203067D01*
X0183703Y0203502D01*
X0184138Y0204153D01*
X0184291Y0204921D01*
X0184138Y0205689D01*
X0183703Y0206341D01*
X0183052Y0206776D01*
X0182283Y0206928D01*
X0182283Y0206928D02*
G37*
G36*
X0171063Y0206928D02*
X0170295Y0206776D01*
X0169644Y0206341D01*
X0169209Y0205689D01*
X0169056Y0204921D01*
X0169209Y0204153D01*
X0169644Y0203502D01*
X0170295Y0203067D01*
X0171063Y0202914D01*
X0171831Y0203067D01*
X0172482Y0203502D01*
X0172917Y0204153D01*
X0173070Y0204921D01*
X0172917Y0205689D01*
X0172482Y0206341D01*
X0171831Y0206776D01*
X0171063Y0206928D01*
X0171063Y0206928D02*
G37*
G36*
X0210630Y0206732D02*
X0209862Y0206579D01*
X0209211Y0206144D01*
X0208776Y0205492D01*
X0208623Y0204724D01*
X0208776Y0203956D01*
X0209211Y0203305D01*
X0209862Y0202870D01*
X0210630Y0202717D01*
X0211398Y0202870D01*
X0212049Y0203305D01*
X0212484Y0203956D01*
X0212637Y0204724D01*
X0212484Y0205492D01*
X0212049Y0206144D01*
X0211398Y0206579D01*
X0210630Y0206732D01*
X0210630Y0206732D02*
G37*
G36*
X0089764Y0205944D02*
X0088996Y0205791D01*
X0088345Y0205356D01*
X0087910Y0204705D01*
X0087757Y0203937D01*
X0087910Y0203169D01*
X0088345Y0202518D01*
X0088996Y0202083D01*
X0089764Y0201930D01*
X0090532Y0202083D01*
X0091183Y0202518D01*
X0091618Y0203169D01*
X0091771Y0203937D01*
X0091618Y0204705D01*
X0091183Y0205356D01*
X0090532Y0205791D01*
X0089764Y0205944D01*
X0089764Y0205944D02*
G37*
G36*
X0133071Y0196102D02*
X0132303Y0195949D01*
X0131652Y0195514D01*
X0131217Y0194863D01*
X0131064Y0194095D01*
X0131217Y0193326D01*
X0131652Y0192675D01*
X0132303Y0192240D01*
X0133071Y0192087D01*
X0133839Y0192240D01*
X0134490Y0192675D01*
X0134925Y0193326D01*
X0135078Y0194095D01*
X0134925Y0194863D01*
X0134490Y0195514D01*
X0133839Y0195949D01*
X0133071Y0196102D01*
X0133071Y0196102D02*
G37*
G36*
X0116732Y0192151D02*
X0115962Y0192050D01*
X0115243Y0191753D01*
X0114626Y0191279D01*
X0114153Y0190662D01*
X0113856Y0189944D01*
X0113754Y0189173D01*
X0113856Y0188402D01*
X0114153Y0187684D01*
X0114626Y0187067D01*
X0115243Y0186594D01*
X0115962Y0186296D01*
X0116732Y0186195D01*
X0117503Y0186296D01*
X0118221Y0186594D01*
X0118838Y0187067D01*
X0119311Y0187684D01*
X0119609Y0188402D01*
X0119711Y0189173D01*
X0119609Y0189944D01*
X0119311Y0190662D01*
X0118838Y0191279D01*
X0118221Y0191753D01*
X0117503Y0192050D01*
X0116732Y0192151D01*
X0116732Y0192151D02*
G37*
G36*
X0075295Y0180690D02*
X0075295Y0177657D01*
X0078328Y0177657D01*
X0078271Y0178094D01*
X0077912Y0178960D01*
X0077342Y0179704D01*
X0076598Y0180274D01*
X0075732Y0180633D01*
X0075295Y0180690D01*
X0075295Y0180690D02*
G37*
G36*
X0074311Y0180690D02*
X0073874Y0180633D01*
X0073008Y0180274D01*
X0072265Y0179704D01*
X0071694Y0178960D01*
X0071336Y0178094D01*
X0071278Y0177657D01*
X0074311Y0177657D01*
X0074311Y0180690D01*
X0074311Y0180690D02*
G37*
G36*
X0058465Y0180512D02*
X0051772Y0180512D01*
X0051772Y0173819D01*
X0058465Y0173819D01*
X0058465Y0180512D01*
X0058465Y0180512D02*
G37*
G36*
X0016732Y0180512D02*
X0010039Y0180512D01*
X0010039Y0173819D01*
X0016732Y0173819D01*
X0016732Y0180512D01*
X0016732Y0180512D02*
G37*
G36*
X0033071Y0180541D02*
X0032197Y0180426D01*
X0031383Y0180088D01*
X0030684Y0179552D01*
X0030148Y0178853D01*
X0029811Y0178039D01*
X0029695Y0177165D01*
X0029811Y0176292D01*
X0030148Y0175478D01*
X0030684Y0174779D01*
X0031383Y0174242D01*
X0032197Y0173905D01*
X0033071Y0173790D01*
X0033944Y0173905D01*
X0034758Y0174242D01*
X0035458Y0174779D01*
X0035994Y0175478D01*
X0036331Y0176292D01*
X0036446Y0177165D01*
X0036331Y0178039D01*
X0035994Y0178853D01*
X0035458Y0179552D01*
X0034758Y0180088D01*
X0033944Y0180426D01*
X0033071Y0180541D01*
X0033071Y0180541D02*
G37*
G36*
X0078328Y0176673D02*
X0075295Y0176673D01*
X0075295Y0173640D01*
X0075732Y0173698D01*
X0076598Y0174056D01*
X0077342Y0174627D01*
X0077912Y0175371D01*
X0078271Y0176236D01*
X0078328Y0176673D01*
X0078328Y0176673D02*
G37*
G36*
X0074311Y0176673D02*
X0071278Y0176673D01*
X0071336Y0176236D01*
X0071694Y0175371D01*
X0072265Y0174627D01*
X0073008Y0174056D01*
X0073874Y0173698D01*
X0074311Y0173640D01*
X0074311Y0176673D01*
X0074311Y0176673D02*
G37*
G36*
X0023228Y0173267D02*
X0022460Y0173114D01*
X0021809Y0172679D01*
X0021374Y0172028D01*
X0021221Y0171260D01*
X0021374Y0170492D01*
X0021809Y0169841D01*
X0022460Y0169405D01*
X0023228Y0169253D01*
X0023996Y0169405D01*
X0024648Y0169841D01*
X0025083Y0170492D01*
X0025235Y0171260D01*
X0025083Y0172028D01*
X0024648Y0172679D01*
X0023996Y0173114D01*
X0023228Y0173267D01*
X0023228Y0173267D02*
G37*
G36*
X0113386Y0171889D02*
X0112618Y0171736D01*
X0111967Y0171301D01*
X0111531Y0170650D01*
X0111379Y0169882D01*
X0111531Y0169114D01*
X0111967Y0168463D01*
X0112618Y0168028D01*
X0113386Y0167875D01*
X0114154Y0168028D01*
X0114805Y0168463D01*
X0115240Y0169114D01*
X0115393Y0169882D01*
X0115240Y0170650D01*
X0114805Y0171301D01*
X0114154Y0171736D01*
X0113386Y0171889D01*
X0113386Y0171889D02*
G37*
G36*
X0108071Y0171889D02*
X0107303Y0171736D01*
X0106652Y0171301D01*
X0106217Y0170650D01*
X0106064Y0169882D01*
X0106217Y0169114D01*
X0106652Y0168463D01*
X0107303Y0168028D01*
X0108071Y0167875D01*
X0108839Y0168028D01*
X0109490Y0168463D01*
X0109925Y0169114D01*
X0110078Y0169882D01*
X0109925Y0170650D01*
X0109490Y0171301D01*
X0108839Y0171736D01*
X0108071Y0171889D01*
X0108071Y0171889D02*
G37*
G36*
X0069291Y0173070D02*
X0068523Y0172917D01*
X0067872Y0172482D01*
X0067437Y0171831D01*
X0067284Y0171063D01*
X0067437Y0170295D01*
X0067872Y0169644D01*
X0068523Y0169209D01*
X0069291Y0169056D01*
X0069489Y0169095D01*
X0069602Y0168523D01*
X0070038Y0167872D01*
X0070689Y0167437D01*
X0071457Y0167284D01*
X0072225Y0167437D01*
X0072876Y0167872D01*
X0073311Y0168523D01*
X0073464Y0169291D01*
X0073311Y0170059D01*
X0072876Y0170711D01*
X0072225Y0171146D01*
X0071457Y0171298D01*
X0071259Y0171259D01*
X0071146Y0171831D01*
X0070711Y0172482D01*
X0070059Y0172917D01*
X0069291Y0173070D01*
X0069291Y0173070D02*
G37*
G36*
X0031496Y0169527D02*
X0030728Y0169374D01*
X0030077Y0168939D01*
X0029642Y0168288D01*
X0029489Y0167520D01*
X0029642Y0166752D01*
X0030077Y0166101D01*
X0030728Y0165665D01*
X0031496Y0165513D01*
X0032264Y0165665D01*
X0032915Y0166101D01*
X0033350Y0166752D01*
X0033503Y0167520D01*
X0033350Y0168288D01*
X0032915Y0168939D01*
X0032264Y0169374D01*
X0031496Y0169527D01*
X0031496Y0169527D02*
G37*
G36*
X0142348Y0165983D02*
X0141579Y0165831D01*
X0140928Y0165396D01*
X0140603Y0164908D01*
X0140513Y0164881D01*
X0140036Y0164881D01*
X0139946Y0164908D01*
X0139620Y0165396D01*
X0138969Y0165831D01*
X0138201Y0165983D01*
X0137433Y0165831D01*
X0136782Y0165396D01*
X0136456Y0164908D01*
X0136367Y0164881D01*
X0135889Y0164881D01*
X0135800Y0164908D01*
X0135474Y0165396D01*
X0134823Y0165831D01*
X0134055Y0165983D01*
X0133287Y0165831D01*
X0132636Y0165396D01*
X0132201Y0164744D01*
X0132048Y0163976D01*
X0132201Y0163208D01*
X0132636Y0162557D01*
X0132975Y0162331D01*
X0132975Y0161628D01*
X0132636Y0161401D01*
X0132201Y0160750D01*
X0132048Y0159982D01*
X0132201Y0159214D01*
X0132636Y0158563D01*
X0133287Y0158128D01*
X0134055Y0157975D01*
X0134823Y0158128D01*
X0135474Y0158563D01*
X0135800Y0159051D01*
X0135889Y0159077D01*
X0136367Y0159077D01*
X0136456Y0159051D01*
X0136782Y0158563D01*
X0137433Y0158128D01*
X0138201Y0157975D01*
X0138969Y0158128D01*
X0139620Y0158563D01*
X0139946Y0159051D01*
X0140036Y0159077D01*
X0140513Y0159077D01*
X0140603Y0159051D01*
X0140928Y0158563D01*
X0141579Y0158128D01*
X0142348Y0157975D01*
X0143116Y0158128D01*
X0143767Y0158563D01*
X0144202Y0159214D01*
X0144355Y0159982D01*
X0144202Y0160750D01*
X0143767Y0161401D01*
X0143428Y0161628D01*
X0143428Y0162331D01*
X0143767Y0162557D01*
X0144202Y0163208D01*
X0144355Y0163976D01*
X0144202Y0164744D01*
X0143767Y0165396D01*
X0143116Y0165831D01*
X0142348Y0165983D01*
X0142348Y0165983D02*
G37*
G36*
X0057819Y0164070D02*
X0057051Y0163917D01*
X0056400Y0163482D01*
X0055965Y0162831D01*
X0055812Y0162063D01*
X0055965Y0161295D01*
X0056400Y0160643D01*
X0057051Y0160208D01*
X0057819Y0160055D01*
X0058587Y0160208D01*
X0058839Y0160377D01*
X0059365Y0160573D01*
X0059756Y0160356D01*
X0060059Y0160154D01*
X0060827Y0160001D01*
X0061595Y0160154D01*
X0062246Y0160589D01*
X0062681Y0161240D01*
X0062834Y0162008D01*
X0062681Y0162776D01*
X0062246Y0163427D01*
X0061595Y0163862D01*
X0060827Y0164015D01*
X0060059Y0163862D01*
X0059807Y0163694D01*
X0059281Y0163498D01*
X0058890Y0163715D01*
X0058587Y0163917D01*
X0057819Y0164070D01*
X0057819Y0164070D02*
G37*
G36*
X0037963Y0159703D02*
X0037195Y0159550D01*
X0036544Y0159115D01*
X0036210Y0158615D01*
X0036087Y0158582D01*
X0035676Y0158582D01*
X0035554Y0158615D01*
X0035219Y0159115D01*
X0034568Y0159550D01*
X0033800Y0159703D01*
X0033032Y0159550D01*
X0032381Y0159115D01*
X0032047Y0158615D01*
X0031924Y0158582D01*
X0031514Y0158582D01*
X0031391Y0158615D01*
X0031057Y0159115D01*
X0030406Y0159550D01*
X0029638Y0159703D01*
X0028870Y0159550D01*
X0028218Y0159115D01*
X0028100Y0158938D01*
X0027509Y0158938D01*
X0027404Y0159096D01*
X0026752Y0159531D01*
X0025984Y0159684D01*
X0025216Y0159531D01*
X0024565Y0159096D01*
X0024130Y0158445D01*
X0023977Y0157677D01*
X0024130Y0156909D01*
X0024565Y0156258D01*
X0025216Y0155823D01*
X0025984Y0155670D01*
X0026752Y0155823D01*
X0027404Y0156258D01*
X0027522Y0156435D01*
X0028113Y0156435D01*
X0028218Y0156277D01*
X0028870Y0155842D01*
X0029638Y0155689D01*
X0030406Y0155842D01*
X0031057Y0156277D01*
X0031391Y0156777D01*
X0031514Y0156810D01*
X0031924Y0156810D01*
X0032047Y0156777D01*
X0032381Y0156277D01*
X0033032Y0155842D01*
X0033800Y0155689D01*
X0034568Y0155842D01*
X0035219Y0156277D01*
X0035554Y0156777D01*
X0035676Y0156810D01*
X0036087Y0156810D01*
X0036210Y0156777D01*
X0036544Y0156277D01*
X0037195Y0155842D01*
X0037963Y0155689D01*
X0038731Y0155842D01*
X0039382Y0156277D01*
X0039716Y0156777D01*
X0039839Y0156810D01*
X0040250Y0156810D01*
X0040373Y0156777D01*
X0040707Y0156277D01*
X0040850Y0156181D01*
X0040850Y0155471D01*
X0040707Y0155375D01*
X0040272Y0154724D01*
X0040119Y0153956D01*
X0040272Y0153188D01*
X0040707Y0152537D01*
X0041358Y0152102D01*
X0042126Y0151949D01*
X0042894Y0152102D01*
X0043545Y0152537D01*
X0043980Y0153188D01*
X0044133Y0153956D01*
X0043980Y0154724D01*
X0043545Y0155375D01*
X0043402Y0155471D01*
X0043402Y0156181D01*
X0043545Y0156277D01*
X0043980Y0156928D01*
X0044133Y0157696D01*
X0043980Y0158464D01*
X0043545Y0159115D01*
X0042894Y0159550D01*
X0042126Y0159703D01*
X0041358Y0159550D01*
X0040707Y0159115D01*
X0040373Y0158615D01*
X0040250Y0158582D01*
X0039839Y0158582D01*
X0039716Y0158615D01*
X0039382Y0159115D01*
X0038731Y0159550D01*
X0037963Y0159703D01*
X0037963Y0159703D02*
G37*
G36*
X0050591Y0157421D02*
X0049823Y0157268D01*
X0049171Y0156833D01*
X0048736Y0156182D01*
X0048583Y0155413D01*
X0048736Y0154645D01*
X0049171Y0153994D01*
X0049823Y0153559D01*
X0050591Y0153406D01*
X0051359Y0153559D01*
X0052010Y0153994D01*
X0052445Y0154645D01*
X0052598Y0155413D01*
X0052445Y0156182D01*
X0052010Y0156833D01*
X0051359Y0157268D01*
X0050591Y0157421D01*
X0050591Y0157421D02*
G37*
G36*
X0189961Y0153582D02*
X0189193Y0153429D01*
X0188541Y0152994D01*
X0188106Y0152343D01*
X0187954Y0151575D01*
X0188106Y0150807D01*
X0188541Y0150156D01*
X0189193Y0149721D01*
X0189961Y0149568D01*
X0190729Y0149721D01*
X0191380Y0150156D01*
X0191815Y0150807D01*
X0191968Y0151575D01*
X0191815Y0152343D01*
X0191380Y0152994D01*
X0190729Y0153429D01*
X0189961Y0153582D01*
X0189961Y0153582D02*
G37*
G36*
X0199803Y0153188D02*
X0199035Y0153035D01*
X0198384Y0152600D01*
X0197949Y0151949D01*
X0197796Y0151181D01*
X0197949Y0150413D01*
X0198384Y0149762D01*
X0199035Y0149327D01*
X0199803Y0149174D01*
X0200571Y0149327D01*
X0201222Y0149762D01*
X0201657Y0150413D01*
X0201810Y0151181D01*
X0201657Y0151949D01*
X0201222Y0152600D01*
X0200571Y0153035D01*
X0199803Y0153188D01*
X0199803Y0153188D02*
G37*
G36*
X0067323Y0152991D02*
X0066555Y0152839D01*
X0065904Y0152403D01*
X0065469Y0151752D01*
X0065316Y0150984D01*
X0065469Y0150216D01*
X0065882Y0149597D01*
X0065677Y0149459D01*
X0065242Y0148808D01*
X0065089Y0148040D01*
X0065242Y0147272D01*
X0065677Y0146621D01*
X0066328Y0146186D01*
X0067096Y0146033D01*
X0067864Y0146186D01*
X0068516Y0146621D01*
X0068951Y0147272D01*
X0069103Y0148040D01*
X0068951Y0148808D01*
X0068537Y0149428D01*
X0068742Y0149565D01*
X0069177Y0150216D01*
X0069330Y0150984D01*
X0069177Y0151752D01*
X0068742Y0152403D01*
X0068091Y0152839D01*
X0067323Y0152991D01*
X0067323Y0152991D02*
G37*
G36*
X0083465Y0145117D02*
X0082696Y0144965D01*
X0082049Y0144532D01*
X0081912Y0144444D01*
X0081474Y0144444D01*
X0081337Y0144532D01*
X0080689Y0144965D01*
X0079921Y0145117D01*
X0079153Y0144965D01*
X0078506Y0144532D01*
X0078369Y0144444D01*
X0077931Y0144444D01*
X0077793Y0144532D01*
X0077146Y0144965D01*
X0076378Y0145117D01*
X0075610Y0144965D01*
X0074959Y0144529D01*
X0074524Y0143878D01*
X0074371Y0143110D01*
X0074524Y0142342D01*
X0074959Y0141691D01*
X0075044Y0141634D01*
X0075044Y0141043D01*
X0074959Y0140986D01*
X0074524Y0140335D01*
X0074371Y0139567D01*
X0074524Y0138799D01*
X0074959Y0138148D01*
X0075610Y0137713D01*
X0076378Y0137560D01*
X0077146Y0137713D01*
X0077797Y0138148D01*
X0077929Y0138345D01*
X0078502Y0138345D01*
X0079153Y0137909D01*
X0079921Y0137757D01*
X0080689Y0137909D01*
X0081337Y0138342D01*
X0081474Y0138430D01*
X0081912Y0138430D01*
X0082049Y0138342D01*
X0082696Y0137909D01*
X0083465Y0137757D01*
X0084233Y0137909D01*
X0084884Y0138345D01*
X0085319Y0138996D01*
X0085472Y0139764D01*
X0085319Y0140532D01*
X0084884Y0141183D01*
X0084884Y0141691D01*
X0085319Y0142342D01*
X0085472Y0143110D01*
X0085319Y0143878D01*
X0084884Y0144529D01*
X0084233Y0144965D01*
X0083465Y0145117D01*
X0083465Y0145117D02*
G37*
G36*
X0055709Y0139999D02*
X0054941Y0139846D01*
X0054289Y0139411D01*
X0053854Y0138760D01*
X0053702Y0137992D01*
X0053854Y0137224D01*
X0054289Y0136573D01*
X0054941Y0136138D01*
X0055709Y0135985D01*
X0056477Y0136138D01*
X0057128Y0136573D01*
X0057563Y0137224D01*
X0057716Y0137992D01*
X0057563Y0138760D01*
X0057128Y0139411D01*
X0056477Y0139846D01*
X0055709Y0139999D01*
X0055709Y0139999D02*
G37*
G36*
X0131299Y0136456D02*
X0130531Y0136303D01*
X0129880Y0135868D01*
X0129445Y0135217D01*
X0129435Y0135167D01*
X0128833Y0135167D01*
X0128823Y0135217D01*
X0128388Y0135868D01*
X0127737Y0136303D01*
X0126969Y0136456D01*
X0126200Y0136303D01*
X0125549Y0135868D01*
X0125114Y0135217D01*
X0125104Y0135167D01*
X0124502Y0135167D01*
X0124492Y0135217D01*
X0124057Y0135868D01*
X0123406Y0136303D01*
X0122638Y0136456D01*
X0121870Y0136303D01*
X0121219Y0135868D01*
X0120783Y0135217D01*
X0120631Y0134449D01*
X0120783Y0133681D01*
X0121219Y0133030D01*
X0121870Y0132595D01*
X0121920Y0132585D01*
X0121920Y0131982D01*
X0121870Y0131972D01*
X0121219Y0131537D01*
X0120783Y0130886D01*
X0120631Y0130118D01*
X0120783Y0129350D01*
X0121219Y0128699D01*
X0121870Y0128264D01*
X0122638Y0128111D01*
X0123406Y0128264D01*
X0124057Y0128699D01*
X0124492Y0129350D01*
X0124502Y0129400D01*
X0125104Y0129400D01*
X0125114Y0129350D01*
X0125549Y0128699D01*
X0126200Y0128264D01*
X0126969Y0128111D01*
X0127737Y0128264D01*
X0128388Y0128699D01*
X0128823Y0129350D01*
X0128833Y0129400D01*
X0129435Y0129400D01*
X0129445Y0129350D01*
X0129880Y0128699D01*
X0130531Y0128264D01*
X0131299Y0128111D01*
X0132067Y0128264D01*
X0132718Y0128699D01*
X0133153Y0129350D01*
X0133306Y0130118D01*
X0133153Y0130886D01*
X0132718Y0131537D01*
X0132067Y0131972D01*
X0132017Y0131982D01*
X0132017Y0132585D01*
X0132067Y0132595D01*
X0132718Y0133030D01*
X0133153Y0133681D01*
X0133306Y0134449D01*
X0133153Y0135217D01*
X0132718Y0135868D01*
X0132067Y0136303D01*
X0131299Y0136456D01*
X0131299Y0136456D02*
G37*
G36*
X0199961Y0137365D02*
X0198676Y0137196D01*
X0197479Y0136700D01*
X0196451Y0135912D01*
X0195662Y0134883D01*
X0195280Y0133962D01*
X0194641Y0133962D01*
X0194259Y0134883D01*
X0193471Y0135912D01*
X0192443Y0136700D01*
X0191245Y0137196D01*
X0189961Y0137365D01*
X0188676Y0137196D01*
X0187479Y0136700D01*
X0186451Y0135912D01*
X0185662Y0134883D01*
X0185280Y0133962D01*
X0184641Y0133962D01*
X0184259Y0134883D01*
X0183470Y0135912D01*
X0182442Y0136700D01*
X0181245Y0137196D01*
X0179961Y0137365D01*
X0178676Y0137196D01*
X0177479Y0136700D01*
X0176451Y0135912D01*
X0175662Y0134883D01*
X0175280Y0133962D01*
X0174641Y0133962D01*
X0174259Y0134883D01*
X0173470Y0135912D01*
X0172442Y0136700D01*
X0171245Y0137196D01*
X0169961Y0137365D01*
X0168676Y0137196D01*
X0167479Y0136700D01*
X0166451Y0135912D01*
X0165662Y0134883D01*
X0165166Y0133686D01*
X0164997Y0132402D01*
X0165166Y0131117D01*
X0165662Y0129920D01*
X0166451Y0128892D01*
X0167479Y0128103D01*
X0168400Y0127721D01*
X0168400Y0127082D01*
X0167479Y0126700D01*
X0166451Y0125911D01*
X0165662Y0124883D01*
X0165166Y0123686D01*
X0164997Y0122402D01*
X0165166Y0121117D01*
X0165662Y0119920D01*
X0166451Y0118892D01*
X0167479Y0118103D01*
X0168676Y0117607D01*
X0169961Y0117438D01*
X0171245Y0117607D01*
X0172442Y0118103D01*
X0173470Y0118892D01*
X0174259Y0119920D01*
X0174641Y0120841D01*
X0175280Y0120841D01*
X0175662Y0119920D01*
X0176451Y0118892D01*
X0177479Y0118103D01*
X0178676Y0117607D01*
X0179961Y0117438D01*
X0181245Y0117607D01*
X0182442Y0118103D01*
X0183470Y0118892D01*
X0184259Y0119920D01*
X0184641Y0120841D01*
X0185280Y0120841D01*
X0185662Y0119920D01*
X0186451Y0118892D01*
X0187479Y0118103D01*
X0188676Y0117607D01*
X0189961Y0117438D01*
X0191245Y0117607D01*
X0192443Y0118103D01*
X0193471Y0118892D01*
X0194259Y0119920D01*
X0194641Y0120841D01*
X0195280Y0120841D01*
X0195662Y0119920D01*
X0196451Y0118892D01*
X0197479Y0118103D01*
X0198676Y0117607D01*
X0199961Y0117438D01*
X0201245Y0117607D01*
X0202443Y0118103D01*
X0203470Y0118892D01*
X0204259Y0119920D01*
X0204641Y0120841D01*
X0205280Y0120841D01*
X0205662Y0119920D01*
X0206451Y0118892D01*
X0207479Y0118103D01*
X0208676Y0117607D01*
X0209961Y0117438D01*
X0211245Y0117607D01*
X0212442Y0118103D01*
X0213471Y0118892D01*
X0214259Y0119920D01*
X0214755Y0121117D01*
X0214924Y0122402D01*
X0214755Y0123686D01*
X0214259Y0124883D01*
X0213471Y0125911D01*
X0212442Y0126700D01*
X0211985Y0126890D01*
X0212103Y0127480D01*
X0214882Y0127480D01*
X0214882Y0137323D01*
X0205039Y0137323D01*
X0205039Y0134544D01*
X0204449Y0134426D01*
X0204259Y0134883D01*
X0203470Y0135912D01*
X0202443Y0136700D01*
X0201245Y0137196D01*
X0199961Y0137365D01*
X0199961Y0137365D02*
G37*
G36*
X0193913Y0116354D02*
X0190453Y0116354D01*
X0190453Y0112894D01*
X0193913Y0112894D01*
X0193913Y0116354D01*
X0193913Y0116354D02*
G37*
G36*
X0189469Y0116354D02*
X0186008Y0116354D01*
X0186008Y0112894D01*
X0189469Y0112894D01*
X0189469Y0116354D01*
X0189469Y0116354D02*
G37*
G36*
X0040453Y0116324D02*
X0040453Y0112894D01*
X0043883Y0112894D01*
X0043812Y0113433D01*
X0043413Y0114395D01*
X0042780Y0115221D01*
X0041954Y0115854D01*
X0040993Y0116253D01*
X0040453Y0116324D01*
X0040453Y0116324D02*
G37*
G36*
X0039469Y0116324D02*
X0038929Y0116253D01*
X0037967Y0115854D01*
X0037141Y0115221D01*
X0036508Y0114395D01*
X0036110Y0113433D01*
X0036039Y0112894D01*
X0039469Y0112894D01*
X0039469Y0116324D01*
X0039469Y0116324D02*
G37*
G36*
X0200000Y0114212D02*
X0199232Y0114059D01*
X0198581Y0113624D01*
X0198146Y0112973D01*
X0197993Y0112205D01*
X0198146Y0111437D01*
X0198581Y0110785D01*
X0199232Y0110350D01*
X0200000Y0110198D01*
X0200768Y0110350D01*
X0201419Y0110785D01*
X0201854Y0111437D01*
X0202007Y0112205D01*
X0201854Y0112973D01*
X0201419Y0113624D01*
X0200768Y0114059D01*
X0200000Y0114212D01*
X0200000Y0114212D02*
G37*
G36*
X0179961Y0116174D02*
X0178984Y0116045D01*
X0178074Y0115669D01*
X0177293Y0115069D01*
X0176694Y0114288D01*
X0176317Y0113378D01*
X0176188Y0112402D01*
X0176317Y0111425D01*
X0176694Y0110515D01*
X0177293Y0109734D01*
X0178074Y0109134D01*
X0178984Y0108758D01*
X0179961Y0108629D01*
X0180937Y0108758D01*
X0181847Y0109134D01*
X0182628Y0109734D01*
X0183228Y0110515D01*
X0183605Y0111425D01*
X0183733Y0112402D01*
X0183605Y0113378D01*
X0183228Y0114288D01*
X0182628Y0115069D01*
X0181847Y0115669D01*
X0180937Y0116045D01*
X0179961Y0116174D01*
X0179961Y0116174D02*
G37*
G36*
X0169961Y0116174D02*
X0168984Y0116045D01*
X0168074Y0115669D01*
X0167293Y0115069D01*
X0166694Y0114288D01*
X0166317Y0113378D01*
X0166188Y0112402D01*
X0166317Y0111425D01*
X0166694Y0110515D01*
X0167293Y0109734D01*
X0168074Y0109134D01*
X0168984Y0108758D01*
X0169961Y0108629D01*
X0170937Y0108758D01*
X0171847Y0109134D01*
X0172628Y0109734D01*
X0173228Y0110515D01*
X0173605Y0111425D01*
X0173733Y0112402D01*
X0173605Y0113378D01*
X0173228Y0114288D01*
X0172628Y0115069D01*
X0171847Y0115669D01*
X0170937Y0116045D01*
X0169961Y0116174D01*
X0169961Y0116174D02*
G37*
G36*
X0159961Y0116174D02*
X0158984Y0116045D01*
X0158074Y0115669D01*
X0157293Y0115069D01*
X0156694Y0114288D01*
X0156317Y0113378D01*
X0156188Y0112402D01*
X0156317Y0111425D01*
X0156694Y0110515D01*
X0157293Y0109734D01*
X0158074Y0109134D01*
X0158984Y0108758D01*
X0159961Y0108629D01*
X0160937Y0108758D01*
X0161847Y0109134D01*
X0162628Y0109734D01*
X0163228Y0110515D01*
X0163604Y0111425D01*
X0163733Y0112402D01*
X0163604Y0113378D01*
X0163228Y0114288D01*
X0162628Y0115069D01*
X0161847Y0115669D01*
X0160937Y0116045D01*
X0159961Y0116174D01*
X0159961Y0116174D02*
G37*
G36*
X0149961Y0116174D02*
X0148984Y0116045D01*
X0148074Y0115669D01*
X0147293Y0115069D01*
X0146694Y0114288D01*
X0146317Y0113378D01*
X0146188Y0112402D01*
X0146317Y0111425D01*
X0146694Y0110515D01*
X0147293Y0109734D01*
X0148074Y0109134D01*
X0148984Y0108758D01*
X0149961Y0108629D01*
X0150937Y0108758D01*
X0151847Y0109134D01*
X0152628Y0109734D01*
X0153228Y0110515D01*
X0153604Y0111425D01*
X0153733Y0112402D01*
X0153604Y0113378D01*
X0153228Y0114288D01*
X0152628Y0115069D01*
X0151847Y0115669D01*
X0150937Y0116045D01*
X0149961Y0116174D01*
X0149961Y0116174D02*
G37*
G36*
X0139961Y0116174D02*
X0138984Y0116045D01*
X0138074Y0115669D01*
X0137293Y0115069D01*
X0136694Y0114288D01*
X0136317Y0113378D01*
X0136188Y0112402D01*
X0136317Y0111425D01*
X0136694Y0110515D01*
X0137293Y0109734D01*
X0138074Y0109134D01*
X0138984Y0108758D01*
X0139961Y0108629D01*
X0140937Y0108758D01*
X0141847Y0109134D01*
X0142628Y0109734D01*
X0143228Y0110515D01*
X0143605Y0111425D01*
X0143733Y0112402D01*
X0143605Y0113378D01*
X0143228Y0114288D01*
X0142628Y0115069D01*
X0141847Y0115669D01*
X0140937Y0116045D01*
X0139961Y0116174D01*
X0139961Y0116174D02*
G37*
G36*
X0129961Y0116174D02*
X0128984Y0116045D01*
X0128074Y0115669D01*
X0127293Y0115069D01*
X0126694Y0114288D01*
X0126317Y0113378D01*
X0126188Y0112402D01*
X0126317Y0111425D01*
X0126694Y0110515D01*
X0127293Y0109734D01*
X0128074Y0109134D01*
X0128984Y0108758D01*
X0129961Y0108629D01*
X0130937Y0108758D01*
X0131847Y0109134D01*
X0132628Y0109734D01*
X0133228Y0110515D01*
X0133605Y0111425D01*
X0133733Y0112402D01*
X0133605Y0113378D01*
X0133228Y0114288D01*
X0132628Y0115069D01*
X0131847Y0115669D01*
X0130937Y0116045D01*
X0129961Y0116174D01*
X0129961Y0116174D02*
G37*
G36*
X0119961Y0116174D02*
X0118984Y0116045D01*
X0118074Y0115669D01*
X0117293Y0115069D01*
X0116694Y0114288D01*
X0116317Y0113378D01*
X0116188Y0112402D01*
X0116317Y0111425D01*
X0116694Y0110515D01*
X0117293Y0109734D01*
X0118074Y0109134D01*
X0118984Y0108758D01*
X0119961Y0108629D01*
X0120937Y0108758D01*
X0121847Y0109134D01*
X0122628Y0109734D01*
X0123228Y0110515D01*
X0123605Y0111425D01*
X0123733Y0112402D01*
X0123605Y0113378D01*
X0123228Y0114288D01*
X0122628Y0115069D01*
X0121847Y0115669D01*
X0120937Y0116045D01*
X0119961Y0116174D01*
X0119961Y0116174D02*
G37*
G36*
X0109961Y0116174D02*
X0108984Y0116045D01*
X0108074Y0115669D01*
X0107293Y0115069D01*
X0106694Y0114288D01*
X0106317Y0113378D01*
X0106188Y0112402D01*
X0106317Y0111425D01*
X0106694Y0110515D01*
X0107293Y0109734D01*
X0108074Y0109134D01*
X0108984Y0108758D01*
X0109961Y0108629D01*
X0110937Y0108758D01*
X0111847Y0109134D01*
X0112628Y0109734D01*
X0113228Y0110515D01*
X0113604Y0111425D01*
X0113733Y0112402D01*
X0113604Y0113378D01*
X0113228Y0114288D01*
X0112628Y0115069D01*
X0111847Y0115669D01*
X0110937Y0116045D01*
X0109961Y0116174D01*
X0109961Y0116174D02*
G37*
G36*
X0099961Y0116174D02*
X0098984Y0116045D01*
X0098074Y0115669D01*
X0097293Y0115069D01*
X0096694Y0114288D01*
X0096317Y0113378D01*
X0096188Y0112402D01*
X0096317Y0111425D01*
X0096694Y0110515D01*
X0097293Y0109734D01*
X0098074Y0109134D01*
X0098984Y0108758D01*
X0099961Y0108629D01*
X0100937Y0108758D01*
X0101847Y0109134D01*
X0102628Y0109734D01*
X0103228Y0110515D01*
X0103604Y0111425D01*
X0103733Y0112402D01*
X0103604Y0113378D01*
X0103228Y0114288D01*
X0102628Y0115069D01*
X0101847Y0115669D01*
X0100937Y0116045D01*
X0099961Y0116174D01*
X0099961Y0116174D02*
G37*
G36*
X0089961Y0116174D02*
X0088984Y0116045D01*
X0088074Y0115669D01*
X0087293Y0115069D01*
X0086694Y0114288D01*
X0086317Y0113378D01*
X0086188Y0112402D01*
X0086317Y0111425D01*
X0086694Y0110515D01*
X0087293Y0109734D01*
X0088074Y0109134D01*
X0088984Y0108758D01*
X0089961Y0108629D01*
X0090937Y0108758D01*
X0091847Y0109134D01*
X0092628Y0109734D01*
X0093228Y0110515D01*
X0093604Y0111425D01*
X0093733Y0112402D01*
X0093604Y0113378D01*
X0093228Y0114288D01*
X0092628Y0115069D01*
X0091847Y0115669D01*
X0090937Y0116045D01*
X0089961Y0116174D01*
X0089961Y0116174D02*
G37*
G36*
X0079961Y0116174D02*
X0078984Y0116045D01*
X0078074Y0115669D01*
X0077293Y0115069D01*
X0076694Y0114288D01*
X0076317Y0113378D01*
X0076188Y0112402D01*
X0076317Y0111425D01*
X0076694Y0110515D01*
X0077293Y0109734D01*
X0078074Y0109134D01*
X0078984Y0108758D01*
X0079961Y0108629D01*
X0080937Y0108758D01*
X0081847Y0109134D01*
X0082628Y0109734D01*
X0083228Y0110515D01*
X0083605Y0111425D01*
X0083733Y0112402D01*
X0083605Y0113378D01*
X0083228Y0114288D01*
X0082628Y0115069D01*
X0081847Y0115669D01*
X0080937Y0116045D01*
X0079961Y0116174D01*
X0079961Y0116174D02*
G37*
G36*
X0069961Y0116174D02*
X0068984Y0116045D01*
X0068074Y0115669D01*
X0067293Y0115069D01*
X0066694Y0114288D01*
X0066317Y0113378D01*
X0066188Y0112402D01*
X0066317Y0111425D01*
X0066694Y0110515D01*
X0067293Y0109734D01*
X0068074Y0109134D01*
X0068984Y0108758D01*
X0069961Y0108629D01*
X0070937Y0108758D01*
X0071847Y0109134D01*
X0072628Y0109734D01*
X0073228Y0110515D01*
X0073605Y0111425D01*
X0073733Y0112402D01*
X0073605Y0113378D01*
X0073228Y0114288D01*
X0072628Y0115069D01*
X0071847Y0115669D01*
X0070937Y0116045D01*
X0069961Y0116174D01*
X0069961Y0116174D02*
G37*
G36*
X0059961Y0116174D02*
X0058984Y0116045D01*
X0058074Y0115669D01*
X0057293Y0115069D01*
X0056694Y0114288D01*
X0056317Y0113378D01*
X0056188Y0112402D01*
X0056317Y0111425D01*
X0056694Y0110515D01*
X0057293Y0109734D01*
X0058074Y0109134D01*
X0058984Y0108758D01*
X0059961Y0108629D01*
X0060937Y0108758D01*
X0061847Y0109134D01*
X0062628Y0109734D01*
X0063228Y0110515D01*
X0063604Y0111425D01*
X0063733Y0112402D01*
X0063604Y0113378D01*
X0063228Y0114288D01*
X0062628Y0115069D01*
X0061847Y0115669D01*
X0060937Y0116045D01*
X0059961Y0116174D01*
X0059961Y0116174D02*
G37*
G36*
X0049961Y0116174D02*
X0048984Y0116045D01*
X0048074Y0115669D01*
X0047293Y0115069D01*
X0046694Y0114288D01*
X0046317Y0113378D01*
X0046188Y0112402D01*
X0046317Y0111425D01*
X0046694Y0110515D01*
X0047293Y0109734D01*
X0048074Y0109134D01*
X0048984Y0108758D01*
X0049961Y0108629D01*
X0050937Y0108758D01*
X0051847Y0109134D01*
X0052628Y0109734D01*
X0053228Y0110515D01*
X0053605Y0111425D01*
X0053733Y0112402D01*
X0053605Y0113378D01*
X0053228Y0114288D01*
X0052628Y0115069D01*
X0051847Y0115669D01*
X0050937Y0116045D01*
X0049961Y0116174D01*
X0049961Y0116174D02*
G37*
G36*
X0043883Y0111909D02*
X0040453Y0111909D01*
X0040453Y0108479D01*
X0040993Y0108551D01*
X0041954Y0108949D01*
X0042780Y0109582D01*
X0043413Y0110408D01*
X0043812Y0111370D01*
X0043883Y0111909D01*
X0043883Y0111909D02*
G37*
G36*
X0039469Y0111909D02*
X0036039Y0111909D01*
X0036110Y0111370D01*
X0036508Y0110408D01*
X0037141Y0109582D01*
X0037967Y0108949D01*
X0038929Y0108551D01*
X0039469Y0108479D01*
X0039469Y0111909D01*
X0039469Y0111909D02*
G37*
G36*
X0193913Y0111909D02*
X0190453Y0111909D01*
X0190453Y0108449D01*
X0193913Y0108449D01*
X0193913Y0111909D01*
X0193913Y0111909D02*
G37*
G36*
X0189469Y0111909D02*
X0186008Y0111909D01*
X0186008Y0108449D01*
X0189469Y0108449D01*
X0189469Y0111909D01*
X0189469Y0111909D02*
G37*
G36*
X0199803Y0109487D02*
X0199035Y0109335D01*
X0198384Y0108899D01*
X0197949Y0108248D01*
X0197796Y0107480D01*
X0197949Y0106712D01*
X0198384Y0106061D01*
X0199035Y0105626D01*
X0199803Y0105473D01*
X0200571Y0105626D01*
X0201222Y0106061D01*
X0201657Y0106712D01*
X0201810Y0107480D01*
X0201657Y0108248D01*
X0201222Y0108899D01*
X0200571Y0109335D01*
X0199803Y0109487D01*
X0199803Y0109487D02*
G37*
G36*
X0070079Y0098267D02*
X0069311Y0098114D01*
X0068660Y0097679D01*
X0068225Y0097028D01*
X0068072Y0096260D01*
X0068225Y0095492D01*
X0068660Y0094841D01*
X0069311Y0094406D01*
X0070079Y0094253D01*
X0070847Y0094406D01*
X0071498Y0094841D01*
X0071933Y0095492D01*
X0072086Y0096260D01*
X0071933Y0097028D01*
X0071498Y0097679D01*
X0070847Y0098114D01*
X0070079Y0098267D01*
X0070079Y0098267D02*
G37*
G36*
X0079921Y0098070D02*
X0079153Y0097917D01*
X0078502Y0097482D01*
X0078067Y0096831D01*
X0077914Y0096063D01*
X0078067Y0095295D01*
X0078502Y0094644D01*
X0079153Y0094209D01*
X0079921Y0094056D01*
X0080689Y0094209D01*
X0081340Y0094644D01*
X0081775Y0095295D01*
X0081928Y0096063D01*
X0081775Y0096831D01*
X0081340Y0097482D01*
X0080689Y0097917D01*
X0079921Y0098070D01*
X0079921Y0098070D02*
G37*
G36*
X0170079Y0095511D02*
X0169311Y0095358D01*
X0168659Y0094923D01*
X0168225Y0094272D01*
X0168072Y0093504D01*
X0168225Y0092736D01*
X0168659Y0092085D01*
X0169311Y0091650D01*
X0170079Y0091497D01*
X0170847Y0091650D01*
X0171498Y0092085D01*
X0171933Y0092736D01*
X0172086Y0093504D01*
X0171933Y0094272D01*
X0171498Y0094923D01*
X0170847Y0095358D01*
X0170079Y0095511D01*
X0170079Y0095511D02*
G37*
G36*
X0160236Y0095314D02*
X0159468Y0095161D01*
X0158817Y0094726D01*
X0158382Y0094075D01*
X0158229Y0093307D01*
X0158382Y0092539D01*
X0158817Y0091888D01*
X0159468Y0091453D01*
X0160236Y0091300D01*
X0161004Y0091453D01*
X0161655Y0091888D01*
X0162091Y0092539D01*
X0162243Y0093307D01*
X0162091Y0094075D01*
X0161655Y0094726D01*
X0161004Y0095161D01*
X0160236Y0095314D01*
X0160236Y0095314D02*
G37*
G36*
X0130118Y0091968D02*
X0129350Y0091815D01*
X0128699Y0091380D01*
X0128264Y0090729D01*
X0128111Y0089961D01*
X0128264Y0089193D01*
X0128699Y0088541D01*
X0129350Y0088106D01*
X0130118Y0087954D01*
X0130886Y0088106D01*
X0131537Y0088541D01*
X0131972Y0089193D01*
X0132125Y0089961D01*
X0131972Y0090729D01*
X0131537Y0091380D01*
X0130886Y0091815D01*
X0130118Y0091968D01*
X0130118Y0091968D02*
G37*
G36*
X0120079Y0091968D02*
X0119311Y0091815D01*
X0118659Y0091380D01*
X0118225Y0090729D01*
X0118072Y0089961D01*
X0118225Y0089193D01*
X0118659Y0088541D01*
X0119311Y0088106D01*
X0120079Y0087954D01*
X0120847Y0088106D01*
X0121498Y0088541D01*
X0121933Y0089193D01*
X0122086Y0089961D01*
X0121933Y0090729D01*
X0121498Y0091380D01*
X0120847Y0091815D01*
X0120079Y0091968D01*
X0120079Y0091968D02*
G37*
G36*
X0150000Y0091771D02*
X0149232Y0091618D01*
X0148581Y0091183D01*
X0148146Y0090532D01*
X0147993Y0089764D01*
X0148146Y0088996D01*
X0148581Y0088345D01*
X0149232Y0087910D01*
X0150000Y0087757D01*
X0150768Y0087910D01*
X0151419Y0088345D01*
X0151854Y0088996D01*
X0152007Y0089764D01*
X0151854Y0090532D01*
X0151419Y0091183D01*
X0150768Y0091618D01*
X0150000Y0091771D01*
X0150000Y0091771D02*
G37*
G36*
X0140157Y0091771D02*
X0139389Y0091618D01*
X0138738Y0091183D01*
X0138303Y0090532D01*
X0138150Y0089764D01*
X0138303Y0088996D01*
X0138738Y0088345D01*
X0139389Y0087910D01*
X0140157Y0087757D01*
X0140926Y0087910D01*
X0141577Y0088345D01*
X0142012Y0088996D01*
X0142165Y0089764D01*
X0142012Y0090532D01*
X0141577Y0091183D01*
X0140926Y0091618D01*
X0140157Y0091771D01*
X0140157Y0091771D02*
G37*
G36*
X0063583Y0090782D02*
X0062555Y0090647D01*
X0061597Y0090250D01*
X0060775Y0089619D01*
X0060144Y0088797D01*
X0059747Y0087839D01*
X0059612Y0086811D01*
X0059747Y0085783D01*
X0060144Y0084825D01*
X0060775Y0084003D01*
X0061597Y0083372D01*
X0062555Y0082975D01*
X0063583Y0082840D01*
X0064610Y0082975D01*
X0065568Y0083372D01*
X0066391Y0084003D01*
X0067022Y0084825D01*
X0067418Y0085783D01*
X0067554Y0086811D01*
X0067418Y0087839D01*
X0067022Y0088797D01*
X0066391Y0089619D01*
X0065568Y0090250D01*
X0064610Y0090647D01*
X0063583Y0090782D01*
X0063583Y0090782D02*
G37*
G36*
X0056901Y0082137D02*
X0056133Y0081984D01*
X0055482Y0081549D01*
X0055047Y0080898D01*
X0054894Y0080130D01*
X0055047Y0079362D01*
X0055482Y0078711D01*
X0056133Y0078275D01*
X0056901Y0078123D01*
X0057669Y0078275D01*
X0058321Y0078711D01*
X0058756Y0079362D01*
X0058908Y0080130D01*
X0058756Y0080898D01*
X0058321Y0081549D01*
X0057669Y0081984D01*
X0056901Y0082137D01*
X0056901Y0082137D02*
G37*
G36*
X0076877Y0084322D02*
X0076109Y0084169D01*
X0075458Y0083734D01*
X0075023Y0083083D01*
X0074870Y0082315D01*
X0075023Y0081547D01*
X0075429Y0080940D01*
X0075162Y0080540D01*
X0075009Y0079772D01*
X0075162Y0079004D01*
X0075597Y0078353D01*
X0076248Y0077918D01*
X0077016Y0077765D01*
X0077784Y0077918D01*
X0078435Y0078353D01*
X0078870Y0079004D01*
X0079023Y0079772D01*
X0078870Y0080540D01*
X0078465Y0081148D01*
X0078731Y0081547D01*
X0078884Y0082315D01*
X0078731Y0083083D01*
X0078296Y0083734D01*
X0077645Y0084169D01*
X0076877Y0084322D01*
X0076877Y0084322D02*
G37*
G36*
X0027559Y0081141D02*
X0026791Y0080988D01*
X0026140Y0080553D01*
X0025705Y0079902D01*
X0025552Y0079134D01*
X0025705Y0078366D01*
X0026140Y0077715D01*
X0026791Y0077280D01*
X0027559Y0077127D01*
X0028327Y0077280D01*
X0028978Y0077715D01*
X0029413Y0078366D01*
X0029566Y0079134D01*
X0029413Y0079902D01*
X0028978Y0080553D01*
X0028327Y0080988D01*
X0027559Y0081141D01*
X0027559Y0081141D02*
G37*
G36*
X0047638Y0079960D02*
X0046870Y0079807D01*
X0046219Y0079372D01*
X0045783Y0078721D01*
X0045631Y0077953D01*
X0045783Y0077185D01*
X0046219Y0076534D01*
X0046088Y0075911D01*
X0045730Y0075374D01*
X0045577Y0074606D01*
X0045730Y0073838D01*
X0046165Y0073187D01*
X0046816Y0072752D01*
X0047584Y0072599D01*
X0048352Y0072752D01*
X0049003Y0073187D01*
X0049439Y0073838D01*
X0049591Y0074606D01*
X0049439Y0075374D01*
X0049003Y0076025D01*
X0049134Y0076649D01*
X0049492Y0077185D01*
X0049645Y0077953D01*
X0049492Y0078721D01*
X0049057Y0079372D01*
X0048406Y0079807D01*
X0047638Y0079960D01*
X0047638Y0079960D02*
G37*
G36*
X0055118Y0073070D02*
X0054350Y0072917D01*
X0053699Y0072482D01*
X0053264Y0071831D01*
X0053111Y0071063D01*
X0053264Y0070295D01*
X0053699Y0069644D01*
X0054350Y0069209D01*
X0055118Y0069056D01*
X0055886Y0069209D01*
X0056537Y0069644D01*
X0056972Y0070295D01*
X0057125Y0071063D01*
X0056972Y0071831D01*
X0056537Y0072482D01*
X0055886Y0072917D01*
X0055118Y0073070D01*
X0055118Y0073070D02*
G37*
G36*
X0034843Y0076613D02*
X0034075Y0076461D01*
X0033423Y0076025D01*
X0032988Y0075374D01*
X0032835Y0074606D01*
X0032988Y0073838D01*
X0033423Y0073187D01*
X0034075Y0072752D01*
X0034769Y0072614D01*
X0034962Y0072346D01*
X0035102Y0072049D01*
X0034957Y0071831D01*
X0034804Y0071063D01*
X0034957Y0070295D01*
X0035392Y0069644D01*
X0036043Y0069209D01*
X0036811Y0069056D01*
X0037579Y0069209D01*
X0038230Y0069644D01*
X0038665Y0070295D01*
X0038818Y0071063D01*
X0038665Y0071831D01*
X0038230Y0072482D01*
X0037579Y0072917D01*
X0036884Y0073055D01*
X0036691Y0073324D01*
X0036551Y0073620D01*
X0036697Y0073838D01*
X0036850Y0074606D01*
X0036697Y0075374D01*
X0036262Y0076025D01*
X0035611Y0076461D01*
X0034843Y0076613D01*
X0034843Y0076613D02*
G37*
G36*
X0064382Y0070314D02*
X0063614Y0070161D01*
X0062963Y0069726D01*
X0062527Y0069075D01*
X0062375Y0068307D01*
X0062527Y0067539D01*
X0062963Y0066888D01*
X0062963Y0066773D01*
X0062527Y0066122D01*
X0062375Y0065354D01*
X0062527Y0064586D01*
X0062963Y0063935D01*
X0063614Y0063500D01*
X0064382Y0063347D01*
X0065150Y0063500D01*
X0065801Y0063935D01*
X0066236Y0064586D01*
X0066389Y0065354D01*
X0066236Y0066122D01*
X0065801Y0066773D01*
X0065801Y0066888D01*
X0066236Y0067539D01*
X0066389Y0068307D01*
X0066236Y0069075D01*
X0065801Y0069726D01*
X0065150Y0070161D01*
X0064382Y0070314D01*
X0064382Y0070314D02*
G37*
G36*
X0098032Y0059684D02*
X0097263Y0059531D01*
X0096612Y0059096D01*
X0096104Y0059096D01*
X0095453Y0059531D01*
X0094685Y0059684D01*
X0093917Y0059531D01*
X0093266Y0059096D01*
X0092831Y0058445D01*
X0092678Y0057677D01*
X0092831Y0056909D01*
X0093266Y0056258D01*
X0093266Y0055750D01*
X0092831Y0055099D01*
X0092678Y0054331D01*
X0092831Y0053563D01*
X0093266Y0052912D01*
X0093266Y0052403D01*
X0092831Y0051752D01*
X0092678Y0050984D01*
X0092831Y0050216D01*
X0093266Y0049565D01*
X0093917Y0049130D01*
X0094685Y0048977D01*
X0095453Y0049130D01*
X0096104Y0049565D01*
X0096612Y0049565D01*
X0097263Y0049130D01*
X0098032Y0048977D01*
X0098800Y0049130D01*
X0099451Y0049565D01*
X0099886Y0050216D01*
X0100039Y0050984D01*
X0099886Y0051752D01*
X0099451Y0052403D01*
X0099451Y0052912D01*
X0099886Y0053563D01*
X0100039Y0054331D01*
X0099886Y0055099D01*
X0099451Y0055750D01*
X0099451Y0056258D01*
X0099886Y0056909D01*
X0100039Y0057677D01*
X0099886Y0058445D01*
X0099451Y0059096D01*
X0098800Y0059531D01*
X0098032Y0059684D01*
X0098032Y0059684D02*
G37*
G36*
X0112402Y0057125D02*
X0111634Y0056972D01*
X0110982Y0056537D01*
X0110671Y0056537D01*
X0110020Y0056972D01*
X0109252Y0057125D01*
X0108484Y0056972D01*
X0107833Y0056537D01*
X0107325Y0056537D01*
X0106674Y0056972D01*
X0105905Y0057125D01*
X0105137Y0056972D01*
X0104486Y0056537D01*
X0104051Y0055886D01*
X0103898Y0055118D01*
X0104051Y0054350D01*
X0104486Y0053699D01*
X0104257Y0053142D01*
X0103854Y0052540D01*
X0103702Y0051772D01*
X0103854Y0051004D01*
X0104289Y0050352D01*
X0104941Y0049917D01*
X0105709Y0049765D01*
X0106477Y0049917D01*
X0107124Y0050350D01*
X0107261Y0050438D01*
X0107699Y0050438D01*
X0107836Y0050350D01*
X0108484Y0049917D01*
X0109252Y0049765D01*
X0110020Y0049917D01*
X0110671Y0050352D01*
X0111179Y0050352D01*
X0111830Y0049917D01*
X0112598Y0049765D01*
X0113366Y0049917D01*
X0114018Y0050352D01*
X0114453Y0051004D01*
X0114605Y0051772D01*
X0114453Y0052540D01*
X0114050Y0053142D01*
X0113821Y0053699D01*
X0114256Y0054350D01*
X0114409Y0055118D01*
X0114256Y0055886D01*
X0113821Y0056537D01*
X0113170Y0056972D01*
X0112402Y0057125D01*
X0112402Y0057125D02*
G37*
G36*
X0006102Y0054763D02*
X0005334Y0054610D01*
X0004683Y0054175D01*
X0004248Y0053524D01*
X0004095Y0052756D01*
X0004248Y0051988D01*
X0004683Y0051337D01*
X0005334Y0050902D01*
X0006102Y0050749D01*
X0006870Y0050902D01*
X0007522Y0051337D01*
X0007957Y0051988D01*
X0008109Y0052756D01*
X0007957Y0053524D01*
X0007522Y0054175D01*
X0006870Y0054610D01*
X0006102Y0054763D01*
X0006102Y0054763D02*
G37*
G36*
X0079724Y0049448D02*
X0078956Y0049295D01*
X0078305Y0048860D01*
X0077870Y0048209D01*
X0077717Y0047441D01*
X0077870Y0046673D01*
X0078305Y0046022D01*
X0078956Y0045587D01*
X0079724Y0045434D01*
X0080493Y0045587D01*
X0081144Y0046022D01*
X0081579Y0046673D01*
X0081731Y0047441D01*
X0081579Y0048209D01*
X0081144Y0048860D01*
X0080493Y0049295D01*
X0079724Y0049448D01*
X0079724Y0049448D02*
G37*
G36*
X0130905Y0049448D02*
X0130137Y0049295D01*
X0129486Y0048860D01*
X0129051Y0048209D01*
X0128898Y0047441D01*
X0129051Y0046673D01*
X0129486Y0046022D01*
X0130137Y0045587D01*
X0130905Y0045434D01*
X0131674Y0045587D01*
X0132325Y0046022D01*
X0132760Y0046673D01*
X0132913Y0047441D01*
X0132760Y0048209D01*
X0132325Y0048860D01*
X0131674Y0049295D01*
X0130905Y0049448D01*
X0130905Y0049448D02*
G37*
G36*
X0094095Y0045708D02*
X0093326Y0045555D01*
X0092675Y0045120D01*
X0092240Y0044469D01*
X0092087Y0043701D01*
X0092240Y0042933D01*
X0092675Y0042282D01*
X0093326Y0041846D01*
X0094095Y0041694D01*
X0094863Y0041846D01*
X0095514Y0042282D01*
X0095949Y0042933D01*
X0096102Y0043701D01*
X0095949Y0044469D01*
X0095514Y0045120D01*
X0094863Y0045555D01*
X0094095Y0045708D01*
X0094095Y0045708D02*
G37*
G36*
X0047835Y0049842D02*
X0047067Y0049689D01*
X0046415Y0049254D01*
X0045980Y0048603D01*
X0045828Y0047835D01*
X0045980Y0047067D01*
X0046415Y0046415D01*
X0047067Y0045980D01*
X0047513Y0045891D01*
X0047998Y0045304D01*
X0047996Y0045294D01*
X0047839Y0044728D01*
X0047835Y0044724D01*
X0047067Y0044571D01*
X0046415Y0044136D01*
X0045980Y0043485D01*
X0045828Y0042717D01*
X0045980Y0041948D01*
X0046415Y0041297D01*
X0047067Y0040862D01*
X0047835Y0040709D01*
X0048603Y0040862D01*
X0049254Y0041297D01*
X0049689Y0041948D01*
X0049838Y0042698D01*
X0049996Y0043264D01*
X0050000Y0043268D01*
X0050768Y0043421D01*
X0051419Y0043856D01*
X0051854Y0044507D01*
X0052007Y0045275D01*
X0051854Y0046044D01*
X0051419Y0046695D01*
X0050768Y0047130D01*
X0050321Y0047219D01*
X0049836Y0047806D01*
X0049842Y0047835D01*
X0049689Y0048603D01*
X0049254Y0049254D01*
X0048603Y0049689D01*
X0047835Y0049842D01*
X0047835Y0049842D02*
G37*
G36*
X0085433Y0043346D02*
X0084665Y0043193D01*
X0084014Y0042758D01*
X0083579Y0042107D01*
X0083426Y0041339D01*
X0083579Y0040571D01*
X0084014Y0039919D01*
X0084665Y0039484D01*
X0085433Y0039331D01*
X0086201Y0039484D01*
X0086852Y0039919D01*
X0087287Y0040571D01*
X0087440Y0041339D01*
X0087287Y0042107D01*
X0086852Y0042758D01*
X0086201Y0043193D01*
X0085433Y0043346D01*
X0085433Y0043346D02*
G37*
G36*
X0028967Y0041638D02*
X0024636Y0041638D01*
X0023916Y0041543D01*
X0023246Y0041265D01*
X0022670Y0040824D01*
X0022229Y0040248D01*
X0021951Y0039578D01*
X0021856Y0038858D01*
X0021951Y0038139D01*
X0022229Y0037468D01*
X0022670Y0036893D01*
X0023246Y0036451D01*
X0023916Y0036173D01*
X0024636Y0036079D01*
X0028967Y0036079D01*
X0029686Y0036173D01*
X0030356Y0036451D01*
X0030932Y0036893D01*
X0031374Y0037468D01*
X0031651Y0038139D01*
X0031746Y0038858D01*
X0031651Y0039578D01*
X0031374Y0040248D01*
X0030932Y0040824D01*
X0030356Y0041265D01*
X0029686Y0041543D01*
X0028967Y0041638D01*
X0028967Y0041638D02*
G37*
G36*
X0011919Y0041638D02*
X0008770Y0041638D01*
X0008050Y0041543D01*
X0007380Y0041265D01*
X0006804Y0040824D01*
X0006362Y0040248D01*
X0006085Y0039578D01*
X0005990Y0038858D01*
X0006085Y0038139D01*
X0006362Y0037468D01*
X0006804Y0036893D01*
X0007380Y0036451D01*
X0008050Y0036173D01*
X0008770Y0036079D01*
X0011919Y0036079D01*
X0012639Y0036173D01*
X0013309Y0036451D01*
X0013885Y0036893D01*
X0014327Y0037468D01*
X0014604Y0038139D01*
X0014699Y0038858D01*
X0014604Y0039578D01*
X0014327Y0040248D01*
X0013885Y0040824D01*
X0013309Y0041265D01*
X0012639Y0041543D01*
X0011919Y0041638D01*
X0011919Y0041638D02*
G37*
G36*
X0052559Y0040393D02*
X0051791Y0040240D01*
X0051140Y0039805D01*
X0050705Y0039154D01*
X0050616Y0038707D01*
X0050055Y0038244D01*
X0049982Y0038224D01*
X0049232Y0038075D01*
X0048581Y0037640D01*
X0048146Y0036988D01*
X0047993Y0036220D01*
X0047489Y0035993D01*
X0047067Y0035909D01*
X0046415Y0035474D01*
X0045980Y0034823D01*
X0045827Y0034055D01*
X0045980Y0033287D01*
X0046415Y0032636D01*
X0047067Y0032201D01*
X0047835Y0032048D01*
X0048603Y0032201D01*
X0049254Y0032636D01*
X0049689Y0033287D01*
X0049842Y0034055D01*
X0050346Y0034282D01*
X0050768Y0034366D01*
X0051419Y0034801D01*
X0051854Y0035452D01*
X0051943Y0035899D01*
X0052504Y0036362D01*
X0052577Y0036382D01*
X0053327Y0036531D01*
X0053978Y0036966D01*
X0054413Y0037618D01*
X0054566Y0038386D01*
X0054413Y0039154D01*
X0053978Y0039805D01*
X0053327Y0040240D01*
X0052559Y0040393D01*
X0052559Y0040393D02*
G37*
G36*
X0035630Y0035472D02*
X0034862Y0035319D01*
X0034211Y0034884D01*
X0033776Y0034233D01*
X0033623Y0033465D01*
X0033776Y0032697D01*
X0034211Y0032045D01*
X0034862Y0031610D01*
X0035630Y0031457D01*
X0036398Y0031610D01*
X0037049Y0032045D01*
X0037484Y0032697D01*
X0037637Y0033465D01*
X0037484Y0034233D01*
X0037049Y0034884D01*
X0036398Y0035319D01*
X0035630Y0035472D01*
X0035630Y0035472D02*
G37*
G36*
X0024833Y0035336D02*
X0024026Y0035175D01*
X0023343Y0034718D01*
X0022886Y0034035D01*
X0022725Y0033228D01*
X0022886Y0032422D01*
X0023343Y0031738D01*
X0024026Y0031281D01*
X0024833Y0031121D01*
X0025639Y0031281D01*
X0026323Y0031738D01*
X0026780Y0032422D01*
X0026940Y0033228D01*
X0026780Y0034035D01*
X0026323Y0034718D01*
X0025639Y0035175D01*
X0024833Y0035336D01*
X0024833Y0035336D02*
G37*
G36*
X0065157Y0031141D02*
X0064389Y0030988D01*
X0063738Y0030553D01*
X0063607Y0030356D01*
X0063427Y0030356D01*
X0062776Y0030791D01*
X0062008Y0030944D01*
X0061240Y0030791D01*
X0060589Y0030356D01*
X0060154Y0029705D01*
X0060001Y0028937D01*
X0060154Y0028169D01*
X0060589Y0027518D01*
X0061240Y0027083D01*
X0062008Y0026930D01*
X0062776Y0027083D01*
X0063427Y0027518D01*
X0063559Y0027714D01*
X0063738Y0027714D01*
X0064389Y0027279D01*
X0065157Y0027127D01*
X0065925Y0027279D01*
X0066577Y0027714D01*
X0067012Y0028366D01*
X0067164Y0029134D01*
X0067012Y0029902D01*
X0066577Y0030553D01*
X0065925Y0030988D01*
X0065157Y0031141D01*
X0065157Y0031141D02*
G37*
G36*
X0078448Y0036354D02*
X0077680Y0036202D01*
X0077028Y0035767D01*
X0076593Y0035115D01*
X0076441Y0034347D01*
X0076593Y0033579D01*
X0077028Y0032928D01*
X0077680Y0032493D01*
X0078215Y0032387D01*
X0078215Y0031784D01*
X0078169Y0031775D01*
X0077518Y0031340D01*
X0077083Y0030689D01*
X0076930Y0029921D01*
X0077083Y0029153D01*
X0077518Y0028502D01*
X0078169Y0028067D01*
X0078937Y0027914D01*
X0079705Y0028067D01*
X0080356Y0028502D01*
X0080791Y0029153D01*
X0080944Y0029921D01*
X0080791Y0030689D01*
X0080356Y0031340D01*
X0079705Y0031775D01*
X0079170Y0031882D01*
X0079170Y0032484D01*
X0079216Y0032493D01*
X0079867Y0032928D01*
X0080302Y0033579D01*
X0080455Y0034347D01*
X0080302Y0035115D01*
X0079867Y0035767D01*
X0079216Y0036202D01*
X0078448Y0036354D01*
X0078448Y0036354D02*
G37*
G36*
X0033858Y0028975D02*
X0033090Y0028823D01*
X0032439Y0028388D01*
X0032004Y0027736D01*
X0031851Y0026969D01*
X0032004Y0026200D01*
X0032439Y0025549D01*
X0033090Y0025114D01*
X0033858Y0024961D01*
X0034626Y0025114D01*
X0035278Y0025549D01*
X0035713Y0026200D01*
X0035865Y0026969D01*
X0035713Y0027736D01*
X0035278Y0028388D01*
X0034626Y0028823D01*
X0033858Y0028975D01*
X0033858Y0028975D02*
G37*
G36*
X0048425Y0027795D02*
X0047657Y0027642D01*
X0047006Y0027207D01*
X0046571Y0026555D01*
X0046418Y0025787D01*
X0046571Y0025019D01*
X0047006Y0024368D01*
X0047657Y0023933D01*
X0048425Y0023780D01*
X0049193Y0023933D01*
X0049844Y0024368D01*
X0050279Y0025019D01*
X0050432Y0025787D01*
X0050279Y0026555D01*
X0049844Y0027207D01*
X0049193Y0027642D01*
X0048425Y0027795D01*
X0048425Y0027795D02*
G37*
G36*
X0064370Y0025629D02*
X0063602Y0025476D01*
X0062951Y0025041D01*
X0062516Y0024390D01*
X0062363Y0023622D01*
X0062516Y0022854D01*
X0062951Y0022203D01*
X0062951Y0022088D01*
X0062516Y0021437D01*
X0062363Y0020669D01*
X0062516Y0019901D01*
X0062951Y0019250D01*
X0062951Y0019136D01*
X0062516Y0018485D01*
X0062363Y0017717D01*
X0062516Y0016948D01*
X0062951Y0016297D01*
X0063602Y0015862D01*
X0064370Y0015710D01*
X0065138Y0015862D01*
X0065789Y0016297D01*
X0066224Y0016948D01*
X0066377Y0017717D01*
X0066224Y0018485D01*
X0065789Y0019136D01*
X0065789Y0019250D01*
X0066224Y0019901D01*
X0066377Y0020669D01*
X0066224Y0021437D01*
X0065789Y0022088D01*
X0065789Y0022203D01*
X0066224Y0022854D01*
X0066377Y0023622D01*
X0066224Y0024390D01*
X0065789Y0025041D01*
X0065138Y0025476D01*
X0064370Y0025629D01*
X0064370Y0025629D02*
G37*
G36*
X0094094Y0018739D02*
X0093326Y0018586D01*
X0092675Y0018151D01*
X0092240Y0017500D01*
X0092087Y0016732D01*
X0092240Y0015964D01*
X0092675Y0015313D01*
X0093326Y0014878D01*
X0094094Y0014725D01*
X0094862Y0014878D01*
X0095513Y0015313D01*
X0095949Y0015964D01*
X0096101Y0016732D01*
X0095949Y0017500D01*
X0095513Y0018151D01*
X0094862Y0018586D01*
X0094094Y0018739D01*
X0094094Y0018739D02*
G37*
G36*
X0182087Y0013818D02*
X0181318Y0013665D01*
X0180671Y0013233D01*
X0180534Y0013145D01*
X0180096Y0013145D01*
X0179959Y0013233D01*
X0179311Y0013665D01*
X0178543Y0013818D01*
X0177775Y0013665D01*
X0177124Y0013230D01*
X0176689Y0012579D01*
X0176536Y0011811D01*
X0176689Y0011043D01*
X0176985Y0010600D01*
X0177078Y0010187D01*
X0176985Y0009774D01*
X0176689Y0009331D01*
X0176536Y0008563D01*
X0176689Y0007795D01*
X0176985Y0007352D01*
X0177078Y0006939D01*
X0176985Y0006526D01*
X0176689Y0006083D01*
X0176536Y0005315D01*
X0176689Y0004547D01*
X0177124Y0003896D01*
X0177775Y0003461D01*
X0178543Y0003308D01*
X0179311Y0003461D01*
X0179959Y0003893D01*
X0180096Y0003981D01*
X0180534Y0003981D01*
X0180671Y0003893D01*
X0181318Y0003461D01*
X0182087Y0003308D01*
X0182855Y0003461D01*
X0183506Y0003896D01*
X0183941Y0004547D01*
X0184094Y0005315D01*
X0183941Y0006083D01*
X0183645Y0006526D01*
X0183552Y0006939D01*
X0183645Y0007352D01*
X0183941Y0007795D01*
X0184094Y0008563D01*
X0183941Y0009331D01*
X0183645Y0009774D01*
X0183552Y0010187D01*
X0183645Y0010600D01*
X0183941Y0011043D01*
X0184094Y0011811D01*
X0183941Y0012579D01*
X0183506Y0013230D01*
X0182855Y0013665D01*
X0182087Y0013818D01*
X0182087Y0013818D02*
G37*
G36*
X0033661Y0016968D02*
X0032893Y0016815D01*
X0032242Y0016380D01*
X0031807Y0015729D01*
X0031654Y0014961D01*
X0031807Y0014193D01*
X0032242Y0013541D01*
X0032893Y0013106D01*
X0033661Y0012954D01*
X0034429Y0013106D01*
X0035081Y0013541D01*
X0035516Y0014193D01*
X0035668Y0014961D01*
X0035516Y0015729D01*
X0035081Y0016380D01*
X0034429Y0016815D01*
X0033661Y0016968D01*
X0033661Y0016968D02*
G37*
G36*
X0146457Y0013031D02*
X0145689Y0012878D01*
X0145245Y0012582D01*
X0144833Y0012489D01*
X0144420Y0012582D01*
X0143977Y0012878D01*
X0143209Y0013031D01*
X0142441Y0012878D01*
X0141997Y0012582D01*
X0141585Y0012489D01*
X0141172Y0012582D01*
X0140729Y0012878D01*
X0139961Y0013031D01*
X0139193Y0012878D01*
X0138541Y0012443D01*
X0138106Y0011792D01*
X0137954Y0011024D01*
X0138106Y0010255D01*
X0138539Y0009608D01*
X0138627Y0009471D01*
X0138627Y0009033D01*
X0138539Y0008896D01*
X0138106Y0008248D01*
X0137954Y0007480D01*
X0138106Y0006712D01*
X0138541Y0006061D01*
X0139193Y0005626D01*
X0139961Y0005473D01*
X0140729Y0005626D01*
X0141172Y0005922D01*
X0141585Y0006015D01*
X0141997Y0005922D01*
X0142441Y0005626D01*
X0143209Y0005473D01*
X0143977Y0005626D01*
X0144420Y0005922D01*
X0144833Y0006015D01*
X0145245Y0005922D01*
X0145689Y0005626D01*
X0146457Y0005473D01*
X0147225Y0005626D01*
X0147876Y0006061D01*
X0148311Y0006712D01*
X0148464Y0007480D01*
X0148311Y0008248D01*
X0147878Y0008896D01*
X0147790Y0009033D01*
X0147790Y0009471D01*
X0147878Y0009608D01*
X0148311Y0010255D01*
X0148464Y0011024D01*
X0148311Y0011792D01*
X0147876Y0012443D01*
X0147225Y0012878D01*
X0146457Y0013031D01*
X0146457Y0013031D02*
G37*
G36*
X0077362Y0016377D02*
X0076594Y0016224D01*
X0075943Y0015789D01*
X0075508Y0015138D01*
X0075355Y0014370D01*
X0075508Y0013602D01*
X0075668Y0013363D01*
X0075913Y0012894D01*
X0075668Y0012425D01*
X0075508Y0012185D01*
X0075355Y0011417D01*
X0075508Y0010649D01*
X0075943Y0009998D01*
X0076594Y0009563D01*
X0077362Y0009410D01*
X0078130Y0009563D01*
X0078781Y0009998D01*
X0079216Y0010649D01*
X0079369Y0011417D01*
X0079216Y0012185D01*
X0079057Y0012425D01*
X0078811Y0012894D01*
X0079057Y0013363D01*
X0079216Y0013602D01*
X0079369Y0014370D01*
X0079216Y0015138D01*
X0078781Y0015789D01*
X0078130Y0016224D01*
X0077362Y0016377D01*
X0077362Y0016377D02*
G37*
G36*
X0024833Y0012580D02*
X0024026Y0012419D01*
X0023343Y0011963D01*
X0022886Y0011279D01*
X0022725Y0010472D01*
X0022886Y0009666D01*
X0023343Y0008982D01*
X0024026Y0008525D01*
X0024833Y0008365D01*
X0025639Y0008525D01*
X0026323Y0008982D01*
X0026780Y0009666D01*
X0026940Y0010472D01*
X0026780Y0011279D01*
X0026323Y0011963D01*
X0025639Y0012419D01*
X0024833Y0012580D01*
X0024833Y0012580D02*
G37*
G36*
X0055512Y0011456D02*
X0054744Y0011303D01*
X0054093Y0010868D01*
X0053657Y0010217D01*
X0053505Y0009449D01*
X0053657Y0008681D01*
X0054093Y0008029D01*
X0054744Y0007594D01*
X0055512Y0007442D01*
X0056280Y0007594D01*
X0056931Y0008029D01*
X0057366Y0008681D01*
X0057519Y0009449D01*
X0057366Y0010217D01*
X0056931Y0010868D01*
X0056280Y0011303D01*
X0055512Y0011456D01*
X0055512Y0011456D02*
G37*
G36*
X0063583Y0011049D02*
X0062812Y0010948D01*
X0062094Y0010650D01*
X0061477Y0010177D01*
X0061004Y0009560D01*
X0060706Y0008842D01*
X0060604Y0008071D01*
X0060706Y0007300D01*
X0061004Y0006582D01*
X0061477Y0005965D01*
X0062094Y0005492D01*
X0062812Y0005194D01*
X0063583Y0005093D01*
X0064354Y0005194D01*
X0065072Y0005492D01*
X0065689Y0005965D01*
X0066162Y0006582D01*
X0066459Y0007300D01*
X0066561Y0008071D01*
X0066459Y0008842D01*
X0066162Y0009560D01*
X0065689Y0010177D01*
X0065072Y0010650D01*
X0064354Y0010948D01*
X0063583Y0011049D01*
X0063583Y0011049D02*
G37*
G36*
X0053347Y0006141D02*
X0052578Y0005988D01*
X0051927Y0005553D01*
X0051492Y0004902D01*
X0051339Y0004134D01*
X0051492Y0003366D01*
X0051927Y0002715D01*
X0052578Y0002280D01*
X0053347Y0002127D01*
X0054115Y0002280D01*
X0054766Y0002715D01*
X0055201Y0003366D01*
X0055353Y0004134D01*
X0055201Y0004902D01*
X0054766Y0005553D01*
X0054115Y0005988D01*
X0053347Y0006141D01*
X0053347Y0006141D02*
G37*
G36*
X0028967Y0007622D02*
X0024636Y0007622D01*
X0023916Y0007527D01*
X0023246Y0007250D01*
X0022670Y0006808D01*
X0022229Y0006232D01*
X0021951Y0005562D01*
X0021856Y0004843D01*
X0021951Y0004123D01*
X0022229Y0003453D01*
X0022670Y0002877D01*
X0023246Y0002435D01*
X0023916Y0002158D01*
X0024636Y0002063D01*
X0028967Y0002063D01*
X0029686Y0002158D01*
X0030356Y0002435D01*
X0030932Y0002877D01*
X0031374Y0003453D01*
X0031651Y0004123D01*
X0031746Y0004843D01*
X0031651Y0005562D01*
X0031374Y0006232D01*
X0030932Y0006808D01*
X0030356Y0007250D01*
X0029686Y0007527D01*
X0028967Y0007622D01*
X0028967Y0007622D02*
G37*
G36*
X0011919Y0007622D02*
X0008770Y0007622D01*
X0008050Y0007527D01*
X0007380Y0007250D01*
X0006804Y0006808D01*
X0006362Y0006232D01*
X0006085Y0005562D01*
X0005990Y0004843D01*
X0006085Y0004123D01*
X0006362Y0003453D01*
X0006804Y0002877D01*
X0007380Y0002435D01*
X0008050Y0002158D01*
X0008770Y0002063D01*
X0011919Y0002063D01*
X0012639Y0002158D01*
X0013309Y0002435D01*
X0013885Y0002877D01*
X0014327Y0003453D01*
X0014604Y0004123D01*
X0014699Y0004843D01*
X0014604Y0005562D01*
X0014327Y0006232D01*
X0013885Y0006808D01*
X0013309Y0007250D01*
X0012639Y0007527D01*
X0011919Y0007622D01*
X0011919Y0007622D02*
G37*
G36*
X0095866Y0002401D02*
X0095098Y0002248D01*
X0094447Y0001813D01*
X0094012Y0001162D01*
X0093859Y0000394D01*
X0094012Y-0000374D01*
X0094447Y-0001025D01*
X0095098Y-0001461D01*
X0095866Y-0001613D01*
X0096634Y-0001461D01*
X0097285Y-0001025D01*
X0097720Y-0000374D01*
X0097873Y0000394D01*
X0097720Y0001162D01*
X0097285Y0001813D01*
X0096634Y0002248D01*
X0095866Y0002401D01*
X0095866Y0002401D02*
G37*
G36*
X0126771Y-0004686D02*
X0126003Y-0004839D01*
X0125352Y-0005274D01*
X0124917Y-0005925D01*
X0124764Y-0006693D01*
X0124917Y-0007461D01*
X0125352Y-0008112D01*
X0126003Y-0008547D01*
X0126771Y-0008700D01*
X0127540Y-0008547D01*
X0128191Y-0008112D01*
X0128626Y-0007461D01*
X0128779Y-0006693D01*
X0128626Y-0005925D01*
X0128191Y-0005274D01*
X0127540Y-0004839D01*
X0126771Y-0004686D01*
X0126771Y-0004686D02*
G37*
G36*
X0040413Y-0013637D02*
X0040413Y-0017067D01*
X0043843Y-0017067D01*
X0043772Y-0016527D01*
X0043374Y-0015566D01*
X0042740Y-0014740D01*
X0041915Y-0014106D01*
X0040953Y-0013708D01*
X0040413Y-0013637D01*
X0040413Y-0013637D02*
G37*
G36*
X0039429Y-0013637D02*
X0038889Y-0013708D01*
X0037928Y-0014106D01*
X0037102Y-0014740D01*
X0036468Y-0015566D01*
X0036070Y-0016527D01*
X0035999Y-0017067D01*
X0039429Y-0017067D01*
X0039429Y-0013637D01*
X0039429Y-0013637D02*
G37*
G36*
X0179921Y-0013787D02*
X0178945Y-0013915D01*
X0178035Y-0014292D01*
X0177254Y-0014892D01*
X0176654Y-0015673D01*
X0176277Y-0016583D01*
X0176149Y-0017559D01*
X0176277Y-0018535D01*
X0176654Y-0019445D01*
X0177254Y-0020227D01*
X0178035Y-0020826D01*
X0178945Y-0021203D01*
X0179921Y-0021331D01*
X0180898Y-0021203D01*
X0181807Y-0020826D01*
X0182589Y-0020227D01*
X0183188Y-0019445D01*
X0183565Y-0018535D01*
X0183694Y-0017559D01*
X0183565Y-0016583D01*
X0183188Y-0015673D01*
X0182589Y-0014892D01*
X0181807Y-0014292D01*
X0180898Y-0013915D01*
X0179921Y-0013787D01*
X0179921Y-0013787D02*
G37*
G36*
X0169921Y-0013787D02*
X0168945Y-0013915D01*
X0168035Y-0014292D01*
X0167254Y-0014892D01*
X0166654Y-0015673D01*
X0166277Y-0016583D01*
X0166149Y-0017559D01*
X0166277Y-0018535D01*
X0166654Y-0019445D01*
X0167254Y-0020227D01*
X0168035Y-0020826D01*
X0168945Y-0021203D01*
X0169921Y-0021331D01*
X0170898Y-0021203D01*
X0171808Y-0020826D01*
X0172589Y-0020227D01*
X0173188Y-0019445D01*
X0173565Y-0018535D01*
X0173694Y-0017559D01*
X0173565Y-0016583D01*
X0173188Y-0015673D01*
X0172589Y-0014892D01*
X0171808Y-0014292D01*
X0170898Y-0013915D01*
X0169921Y-0013787D01*
X0169921Y-0013787D02*
G37*
G36*
X0159921Y-0013787D02*
X0158945Y-0013915D01*
X0158035Y-0014292D01*
X0157254Y-0014892D01*
X0156654Y-0015673D01*
X0156277Y-0016583D01*
X0156149Y-0017559D01*
X0156277Y-0018535D01*
X0156654Y-0019445D01*
X0157254Y-0020227D01*
X0158035Y-0020826D01*
X0158945Y-0021203D01*
X0159921Y-0021331D01*
X0160898Y-0021203D01*
X0161808Y-0020826D01*
X0162589Y-0020227D01*
X0163188Y-0019445D01*
X0163565Y-0018535D01*
X0163694Y-0017559D01*
X0163565Y-0016583D01*
X0163188Y-0015673D01*
X0162589Y-0014892D01*
X0161808Y-0014292D01*
X0160898Y-0013915D01*
X0159921Y-0013787D01*
X0159921Y-0013787D02*
G37*
G36*
X0149921Y-0013787D02*
X0148945Y-0013915D01*
X0148035Y-0014292D01*
X0147254Y-0014892D01*
X0146654Y-0015673D01*
X0146277Y-0016583D01*
X0146149Y-0017559D01*
X0146277Y-0018535D01*
X0146654Y-0019445D01*
X0147254Y-0020227D01*
X0148035Y-0020826D01*
X0148945Y-0021203D01*
X0149921Y-0021331D01*
X0150898Y-0021203D01*
X0151807Y-0020826D01*
X0152589Y-0020227D01*
X0153188Y-0019445D01*
X0153565Y-0018535D01*
X0153694Y-0017559D01*
X0153565Y-0016583D01*
X0153188Y-0015673D01*
X0152589Y-0014892D01*
X0151807Y-0014292D01*
X0150898Y-0013915D01*
X0149921Y-0013787D01*
X0149921Y-0013787D02*
G37*
G36*
X0139921Y-0013787D02*
X0138945Y-0013915D01*
X0138035Y-0014292D01*
X0137254Y-0014892D01*
X0136654Y-0015673D01*
X0136277Y-0016583D01*
X0136149Y-0017559D01*
X0136277Y-0018535D01*
X0136654Y-0019445D01*
X0137254Y-0020227D01*
X0138035Y-0020826D01*
X0138945Y-0021203D01*
X0139921Y-0021331D01*
X0140898Y-0021203D01*
X0141807Y-0020826D01*
X0142589Y-0020227D01*
X0143188Y-0019445D01*
X0143565Y-0018535D01*
X0143694Y-0017559D01*
X0143565Y-0016583D01*
X0143188Y-0015673D01*
X0142589Y-0014892D01*
X0141807Y-0014292D01*
X0140898Y-0013915D01*
X0139921Y-0013787D01*
X0139921Y-0013787D02*
G37*
G36*
X0129921Y-0013787D02*
X0128945Y-0013915D01*
X0128035Y-0014292D01*
X0127254Y-0014892D01*
X0126654Y-0015673D01*
X0126277Y-0016583D01*
X0126149Y-0017559D01*
X0126277Y-0018535D01*
X0126654Y-0019445D01*
X0127254Y-0020227D01*
X0128035Y-0020826D01*
X0128945Y-0021203D01*
X0129921Y-0021331D01*
X0130898Y-0021203D01*
X0131807Y-0020826D01*
X0132589Y-0020227D01*
X0133188Y-0019445D01*
X0133565Y-0018535D01*
X0133694Y-0017559D01*
X0133565Y-0016583D01*
X0133188Y-0015673D01*
X0132589Y-0014892D01*
X0131807Y-0014292D01*
X0130898Y-0013915D01*
X0129921Y-0013787D01*
X0129921Y-0013787D02*
G37*
G36*
X0119921Y-0013787D02*
X0118945Y-0013915D01*
X0118035Y-0014292D01*
X0117254Y-0014892D01*
X0116654Y-0015673D01*
X0116277Y-0016583D01*
X0116149Y-0017559D01*
X0116277Y-0018535D01*
X0116654Y-0019445D01*
X0117254Y-0020227D01*
X0118035Y-0020826D01*
X0118945Y-0021203D01*
X0119921Y-0021331D01*
X0120898Y-0021203D01*
X0121808Y-0020826D01*
X0122589Y-0020227D01*
X0123188Y-0019445D01*
X0123565Y-0018535D01*
X0123694Y-0017559D01*
X0123565Y-0016583D01*
X0123188Y-0015673D01*
X0122589Y-0014892D01*
X0121808Y-0014292D01*
X0120898Y-0013915D01*
X0119921Y-0013787D01*
X0119921Y-0013787D02*
G37*
G36*
X0109921Y-0013787D02*
X0108945Y-0013915D01*
X0108035Y-0014292D01*
X0107254Y-0014892D01*
X0106654Y-0015673D01*
X0106277Y-0016583D01*
X0106149Y-0017559D01*
X0106277Y-0018535D01*
X0106654Y-0019445D01*
X0107254Y-0020227D01*
X0108035Y-0020826D01*
X0108945Y-0021203D01*
X0109921Y-0021331D01*
X0110898Y-0021203D01*
X0111808Y-0020826D01*
X0112589Y-0020227D01*
X0113188Y-0019445D01*
X0113565Y-0018535D01*
X0113694Y-0017559D01*
X0113565Y-0016583D01*
X0113188Y-0015673D01*
X0112589Y-0014892D01*
X0111808Y-0014292D01*
X0110898Y-0013915D01*
X0109921Y-0013787D01*
X0109921Y-0013787D02*
G37*
G36*
X0099921Y-0013787D02*
X0098945Y-0013915D01*
X0098035Y-0014292D01*
X0097254Y-0014892D01*
X0096654Y-0015673D01*
X0096277Y-0016583D01*
X0096149Y-0017559D01*
X0096277Y-0018535D01*
X0096654Y-0019445D01*
X0097254Y-0020227D01*
X0098035Y-0020826D01*
X0098945Y-0021203D01*
X0099921Y-0021331D01*
X0100898Y-0021203D01*
X0101807Y-0020826D01*
X0102589Y-0020227D01*
X0103188Y-0019445D01*
X0103565Y-0018535D01*
X0103694Y-0017559D01*
X0103565Y-0016583D01*
X0103188Y-0015673D01*
X0102589Y-0014892D01*
X0101807Y-0014292D01*
X0100898Y-0013915D01*
X0099921Y-0013787D01*
X0099921Y-0013787D02*
G37*
G36*
X0089921Y-0013787D02*
X0088945Y-0013915D01*
X0088035Y-0014292D01*
X0087254Y-0014892D01*
X0086654Y-0015673D01*
X0086277Y-0016583D01*
X0086149Y-0017559D01*
X0086277Y-0018535D01*
X0086654Y-0019445D01*
X0087254Y-0020227D01*
X0088035Y-0020826D01*
X0088945Y-0021203D01*
X0089921Y-0021331D01*
X0090898Y-0021203D01*
X0091808Y-0020826D01*
X0092589Y-0020227D01*
X0093188Y-0019445D01*
X0093565Y-0018535D01*
X0093694Y-0017559D01*
X0093565Y-0016583D01*
X0093188Y-0015673D01*
X0092589Y-0014892D01*
X0091808Y-0014292D01*
X0090898Y-0013915D01*
X0089921Y-0013787D01*
X0089921Y-0013787D02*
G37*
G36*
X0079921Y-0013787D02*
X0078945Y-0013915D01*
X0078035Y-0014292D01*
X0077254Y-0014892D01*
X0076654Y-0015673D01*
X0076277Y-0016583D01*
X0076149Y-0017559D01*
X0076277Y-0018535D01*
X0076654Y-0019445D01*
X0077254Y-0020227D01*
X0078035Y-0020826D01*
X0078945Y-0021203D01*
X0079921Y-0021331D01*
X0080898Y-0021203D01*
X0081808Y-0020826D01*
X0082589Y-0020227D01*
X0083188Y-0019445D01*
X0083565Y-0018535D01*
X0083694Y-0017559D01*
X0083565Y-0016583D01*
X0083188Y-0015673D01*
X0082589Y-0014892D01*
X0081808Y-0014292D01*
X0080898Y-0013915D01*
X0079921Y-0013787D01*
X0079921Y-0013787D02*
G37*
G36*
X0069921Y-0013787D02*
X0068945Y-0013915D01*
X0068035Y-0014292D01*
X0067254Y-0014892D01*
X0066654Y-0015673D01*
X0066277Y-0016583D01*
X0066149Y-0017559D01*
X0066277Y-0018535D01*
X0066654Y-0019445D01*
X0067254Y-0020227D01*
X0068035Y-0020826D01*
X0068945Y-0021203D01*
X0069921Y-0021331D01*
X0070898Y-0021203D01*
X0071807Y-0020826D01*
X0072589Y-0020227D01*
X0073188Y-0019445D01*
X0073565Y-0018535D01*
X0073694Y-0017559D01*
X0073565Y-0016583D01*
X0073188Y-0015673D01*
X0072589Y-0014892D01*
X0071807Y-0014292D01*
X0070898Y-0013915D01*
X0069921Y-0013787D01*
X0069921Y-0013787D02*
G37*
G36*
X0059921Y-0013787D02*
X0058945Y-0013915D01*
X0058035Y-0014292D01*
X0057254Y-0014892D01*
X0056654Y-0015673D01*
X0056277Y-0016583D01*
X0056149Y-0017559D01*
X0056277Y-0018535D01*
X0056654Y-0019445D01*
X0057254Y-0020227D01*
X0058035Y-0020826D01*
X0058945Y-0021203D01*
X0059921Y-0021331D01*
X0060898Y-0021203D01*
X0061808Y-0020826D01*
X0062589Y-0020227D01*
X0063188Y-0019445D01*
X0063565Y-0018535D01*
X0063694Y-0017559D01*
X0063565Y-0016583D01*
X0063188Y-0015673D01*
X0062589Y-0014892D01*
X0061808Y-0014292D01*
X0060898Y-0013915D01*
X0059921Y-0013787D01*
X0059921Y-0013787D02*
G37*
G36*
X0049921Y-0013787D02*
X0048945Y-0013915D01*
X0048035Y-0014292D01*
X0047254Y-0014892D01*
X0046654Y-0015673D01*
X0046277Y-0016583D01*
X0046149Y-0017559D01*
X0046277Y-0018535D01*
X0046654Y-0019445D01*
X0047254Y-0020227D01*
X0048035Y-0020826D01*
X0048945Y-0021203D01*
X0049921Y-0021331D01*
X0050898Y-0021203D01*
X0051807Y-0020826D01*
X0052589Y-0020227D01*
X0053188Y-0019445D01*
X0053565Y-0018535D01*
X0053694Y-0017559D01*
X0053565Y-0016583D01*
X0053188Y-0015673D01*
X0052589Y-0014892D01*
X0051807Y-0014292D01*
X0050898Y-0013915D01*
X0049921Y-0013787D01*
X0049921Y-0013787D02*
G37*
G36*
X0043843Y-0018051D02*
X0040413Y-0018051D01*
X0040413Y-0021481D01*
X0040953Y-0021410D01*
X0041915Y-0021012D01*
X0042740Y-0020378D01*
X0043374Y-0019553D01*
X0043772Y-0018591D01*
X0043843Y-0018051D01*
X0043843Y-0018051D02*
G37*
G36*
X0039429Y-0018051D02*
X0035999Y-0018051D01*
X0036070Y-0018591D01*
X0036468Y-0019553D01*
X0037102Y-0020378D01*
X0037928Y-0021012D01*
X0038889Y-0021410D01*
X0039429Y-0021481D01*
X0039429Y-0018051D01*
X0039429Y-0018051D02*
G37*
%LPD*%
D67*
X0039961Y0112402D02*
D03*
X0039921Y-0017559D02*
D03*
D68*
X0119961Y0332422D02*
D03*
X0109961Y0332422D02*
D03*
D75*
X0189961Y0112402D02*
D03*
D107*
X0074803Y0177165D02*
D03*
D114*
X0220866Y0321654D02*
D03*
X0248622Y0322835D02*
D03*
X0228937Y0343110D02*
D03*
X0213583Y0342913D02*
D03*
X0248622Y0343307D02*
D03*
X0192402Y0345748D02*
D03*
X0222638Y0311220D02*
D03*
X0193110Y0286614D02*
D03*
X0193110Y0274803D02*
D03*
X0273031Y0247244D02*
D03*
X0263583Y0214173D02*
D03*
X0262992Y0242717D02*
D03*
X0256496Y0234449D02*
D03*
X0256299Y0224213D02*
D03*
X0189370Y0314567D02*
D03*
X0193110Y0310039D02*
D03*
X0182677Y0304331D02*
D03*
X0193110Y0298228D02*
D03*
X0180590Y0345748D02*
D03*
X0168780Y0345748D02*
D03*
X0170276Y0304331D02*
D03*
X0121535Y0345748D02*
D03*
X0109724Y0345748D02*
D03*
X0145157Y0345748D02*
D03*
X0133346Y0345748D02*
D03*
X0086102Y0345748D02*
D03*
X0074291Y0345748D02*
D03*
X0097913Y0345748D02*
D03*
X0159843Y0314173D02*
D03*
X0156968Y0345748D02*
D03*
X0136221Y0248228D02*
D03*
X0114961Y0252362D02*
D03*
X0114961Y0261811D02*
D03*
X0101575Y0261811D02*
D03*
X0101575Y0252756D02*
D03*
X0117126Y0236417D02*
D03*
X0101575Y0232480D02*
D03*
X0118110Y0220472D02*
D03*
X0101575Y0223622D02*
D03*
X0101378Y0241535D02*
D03*
X0076968Y0301575D02*
D03*
X0074213Y0297835D02*
D03*
X0076968Y0294291D02*
D03*
X0084252Y0292520D02*
D03*
X0273819Y0209842D02*
D03*
X0193110Y0169488D02*
D03*
X0193110Y0157677D02*
D03*
X0150197Y0119882D02*
D03*
X0140157Y0119882D02*
D03*
X0160039Y0119882D02*
D03*
X0224016Y0112205D02*
D03*
X0223622Y0096063D02*
D03*
X0131299Y0154134D02*
D03*
X0126969Y0154134D02*
D03*
X0119685Y0213386D02*
D03*
X0116732Y0196063D02*
D03*
X0122638Y0154134D02*
D03*
X0137795Y0137795D02*
D03*
X0131299Y0149803D02*
D03*
X0129921Y0119882D02*
D03*
X0126969Y0149803D02*
D03*
X0122638Y0149803D02*
D03*
X0120079Y0119882D02*
D03*
X0223622Y0089764D02*
D03*
X0193189Y0060709D02*
D03*
X0193189Y0034173D02*
D03*
X0182087Y0019291D02*
D03*
X0192402Y-0025079D02*
D03*
X0181102Y0047244D02*
D03*
X0178347Y0019291D02*
D03*
X0144226Y-0012598D02*
D03*
X0123622Y-0010039D02*
D03*
X0115748Y-0008661D02*
D03*
X0134646Y-0012598D02*
D03*
X0168780Y-0025079D02*
D03*
X0156968Y-0025079D02*
D03*
X0180590Y-0025079D02*
D03*
X0133346Y-0025079D02*
D03*
X0121535Y-0025079D02*
D03*
X0145157Y-0025079D02*
D03*
X0102559Y0203740D02*
D03*
X0101772Y0213583D02*
D03*
X0110236Y0119882D02*
D03*
X0102362Y0195276D02*
D03*
X0100000Y0119882D02*
D03*
X0110630Y0075590D02*
D03*
X0105512Y0026772D02*
D03*
X0100787Y0042913D02*
D03*
X0100984Y0026772D02*
D03*
X0089961Y0195079D02*
D03*
X0090158Y0119882D02*
D03*
X0079912Y0119937D02*
D03*
X0083465Y0050197D02*
D03*
X0093110Y0039567D02*
D03*
X0083268Y0044488D02*
D03*
X0077362Y0037093D02*
D03*
X0101772Y0016535D02*
D03*
X0101772Y0019291D02*
D03*
X0109724Y-0025079D02*
D03*
X0102362Y0008858D02*
D03*
X0077559Y0026969D02*
D03*
X0077362Y0018110D02*
D03*
X0092716Y0008661D02*
D03*
X0086102Y-0025079D02*
D03*
X0086024Y-0004134D02*
D03*
X0097913Y-0025079D02*
D03*
X0074606Y0007874D02*
D03*
X0073819Y-0003543D02*
D03*
X0074291Y-0025079D02*
D03*
X0071260Y0301575D02*
D03*
X0071260Y0294291D02*
D03*
X0068307Y0297835D02*
D03*
X0065551Y0301575D02*
D03*
X0062480Y0345748D02*
D03*
X0065551Y0294291D02*
D03*
X0068701Y0265945D02*
D03*
X0068701Y0268898D02*
D03*
X0067323Y0274803D02*
D03*
X0050669Y0345748D02*
D03*
X0050787Y0310236D02*
D03*
X0047244Y0168307D02*
D03*
X0046063Y0162795D02*
D03*
X0064370Y0159449D02*
D03*
X0069882Y0119882D02*
D03*
X0063976Y0096850D02*
D03*
X0061811Y0131299D02*
D03*
X0060236Y0119882D02*
D03*
X0059252Y0131299D02*
D03*
X0054528Y0102756D02*
D03*
X0050197Y0119882D02*
D03*
X0046457Y0094488D02*
D03*
X0038976Y0310236D02*
D03*
X0038858Y0345748D02*
D03*
X0027047Y0345748D02*
D03*
X0027165Y0310236D02*
D03*
X0043701Y0139370D02*
D03*
X0002677Y0285748D02*
D03*
X0019488Y0144291D02*
D03*
X0002677Y0273937D02*
D03*
X0002677Y0309370D02*
D03*
X0002677Y0321181D02*
D03*
X0002677Y0297559D02*
D03*
X0023425Y0137008D02*
D03*
X0023425Y0133268D02*
D03*
X0019488Y0137008D02*
D03*
X0019488Y0140748D02*
D03*
X0019488Y0133268D02*
D03*
X0039961Y0119882D02*
D03*
X0027047Y0119961D02*
D03*
X0026772Y0094488D02*
D03*
X0002677Y0093976D02*
D03*
X0002677Y0119488D02*
D03*
X0023031Y0082677D02*
D03*
X0002677Y0082165D02*
D03*
X0059646Y0058268D02*
D03*
X0059252Y0075787D02*
D03*
X0065157Y0044882D02*
D03*
X0062402Y0036811D02*
D03*
X0067520Y0036811D02*
D03*
X0067716Y0015748D02*
D03*
X0062205Y-0010630D02*
D03*
X0053543Y-0005118D02*
D03*
X0062480Y-0025079D02*
D03*
X0050669Y-0025079D02*
D03*
X0047835Y0019685D02*
D03*
X0048031Y0012795D02*
D03*
X0037992Y0048819D02*
D03*
X0021850Y0048819D02*
D03*
X0002677Y0070354D02*
D03*
X0002677Y0058543D02*
D03*
X0008465Y0047244D02*
D03*
X0037992Y0037992D02*
D03*
X0032874Y0037598D02*
D03*
X0035236Y0009252D02*
D03*
X0035433Y-0000591D02*
D03*
X0032677Y-0012205D02*
D03*
X0038858Y-0025079D02*
D03*
X0020866Y0009055D02*
D03*
X0027047Y-0025079D02*
D03*
X0014961Y0026378D02*
D03*
X0002677Y0047126D02*
D03*
X0002677Y0034921D02*
D03*
X0014961Y0015157D02*
D03*
X0002677Y0011299D02*
D03*
X0002677Y0023110D02*
D03*
X0002677Y-0000512D02*
D03*
D115*
X0274213Y0228543D02*
D03*
M02*
