G04*
G04 #@! TF.GenerationSoftware,Altium Limited,Altium Designer,25.8.1 (18)*
G04*
G04 Layer_Color=16711935*
%FSAX25Y25*%
%MOIN*%
G70*
G04*
G04 #@! TF.SameCoordinates,BE805E25-8328-4095-8AD4-E1B6FE3B792C*
G04*
G04*
G04 #@! TF.FilePolarity,Negative*
G04*
G01*
G75*
%ADD42R,0.02756X0.02362*%
%ADD44C,0.24410*%
%ADD46R,0.03740X0.03937*%
%ADD51R,0.06142X0.07323*%
%ADD58R,0.03937X0.03740*%
%ADD62O,0.07874X0.04724*%
%ADD63O,0.09055X0.04724*%
%ADD64C,0.08661*%
%ADD65C,0.07087*%
%ADD66R,0.06693X0.06693*%
%ADD67C,0.05906*%
%ADD68C,0.06299*%
%ADD69C,0.09055*%
%ADD70C,0.06693*%
%ADD71C,0.00787*%
%ADD72R,0.07087X0.07087*%
%ADD73O,0.04724X0.09055*%
%ADD74O,0.04724X0.07874*%
%ADD75R,0.05906X0.05906*%
%ADD76R,0.09055X0.09055*%
%ADD77C,0.03150*%
%ADD144R,0.16500X0.22100*%
%ADD145R,0.05500X0.05700*%
%ADD150R,0.01968X0.05315*%
%ADD151R,0.03937X0.01968*%
%ADD152R,0.07480X0.06890*%
G04:AMPARAMS|DCode=153|XSize=27.56mil|YSize=13.78mil|CornerRadius=4.43mil|HoleSize=0mil|Usage=FLASHONLY|Rotation=180.000|XOffset=0mil|YOffset=0mil|HoleType=Round|Shape=RoundedRectangle|*
%AMROUNDEDRECTD153*
21,1,0.02756,0.00492,0,0,180.0*
21,1,0.01870,0.01378,0,0,180.0*
1,1,0.00886,-0.00935,0.00246*
1,1,0.00886,0.00935,0.00246*
1,1,0.00886,0.00935,-0.00246*
1,1,0.00886,-0.00935,-0.00246*
%
%ADD153ROUNDEDRECTD153*%
%ADD154R,0.04331X0.05512*%
%ADD155R,0.15551X0.11614*%
%ADD156R,0.07323X0.06142*%
%ADD157R,0.01968X0.03937*%
G04:AMPARAMS|DCode=158|XSize=31.5mil|YSize=11.81mil|CornerRadius=3.94mil|HoleSize=0mil|Usage=FLASHONLY|Rotation=0.000|XOffset=0mil|YOffset=0mil|HoleType=Round|Shape=RoundedRectangle|*
%AMROUNDEDRECTD158*
21,1,0.03150,0.00394,0,0,0.0*
21,1,0.02362,0.01181,0,0,0.0*
1,1,0.00787,0.01181,-0.00197*
1,1,0.00787,-0.01181,-0.00197*
1,1,0.00787,-0.01181,0.00197*
1,1,0.00787,0.01181,0.00197*
%
%ADD158ROUNDEDRECTD158*%
G04:AMPARAMS|DCode=159|XSize=36.42mil|YSize=11.81mil|CornerRadius=3.94mil|HoleSize=0mil|Usage=FLASHONLY|Rotation=270.000|XOffset=0mil|YOffset=0mil|HoleType=Round|Shape=RoundedRectangle|*
%AMROUNDEDRECTD159*
21,1,0.03642,0.00394,0,0,270.0*
21,1,0.02854,0.01181,0,0,270.0*
1,1,0.00787,-0.00197,-0.01427*
1,1,0.00787,-0.00197,0.01427*
1,1,0.00787,0.00197,0.01427*
1,1,0.00787,0.00197,-0.01427*
%
%ADD159ROUNDEDRECTD159*%
G04:AMPARAMS|DCode=160|XSize=43.31mil|YSize=11.81mil|CornerRadius=3.94mil|HoleSize=0mil|Usage=FLASHONLY|Rotation=180.000|XOffset=0mil|YOffset=0mil|HoleType=Round|Shape=RoundedRectangle|*
%AMROUNDEDRECTD160*
21,1,0.04331,0.00394,0,0,180.0*
21,1,0.03543,0.01181,0,0,180.0*
1,1,0.00787,-0.01772,0.00197*
1,1,0.00787,0.01772,0.00197*
1,1,0.00787,0.01772,-0.00197*
1,1,0.00787,-0.01772,-0.00197*
%
%ADD160ROUNDEDRECTD160*%
%ADD161R,0.02362X0.02756*%
%ADD162R,0.10236X0.02559*%
%ADD163R,0.12205X0.02559*%
%ADD164R,0.08268X0.02559*%
%ADD165R,0.04685X0.01968*%
%ADD166R,0.02756X0.06299*%
%ADD167R,0.03543X0.03740*%
%ADD168R,0.03543X0.04331*%
%ADD169R,0.03543X0.03543*%
%ADD170R,0.03150X0.03150*%
G04:AMPARAMS|DCode=171|XSize=34.45mil|YSize=11.81mil|CornerRadius=3.94mil|HoleSize=0mil|Usage=FLASHONLY|Rotation=90.000|XOffset=0mil|YOffset=0mil|HoleType=Round|Shape=RoundedRectangle|*
%AMROUNDEDRECTD171*
21,1,0.03445,0.00394,0,0,90.0*
21,1,0.02657,0.01181,0,0,90.0*
1,1,0.00787,0.00197,0.01329*
1,1,0.00787,0.00197,-0.01329*
1,1,0.00787,-0.00197,-0.01329*
1,1,0.00787,-0.00197,0.01329*
%
%ADD171ROUNDEDRECTD171*%
G04:AMPARAMS|DCode=172|XSize=28.31mil|YSize=11.81mil|CornerRadius=3.94mil|HoleSize=0mil|Usage=FLASHONLY|Rotation=180.000|XOffset=0mil|YOffset=0mil|HoleType=Round|Shape=RoundedRectangle|*
%AMROUNDEDRECTD172*
21,1,0.02831,0.00394,0,0,180.0*
21,1,0.02043,0.01181,0,0,180.0*
1,1,0.00787,-0.01022,0.00197*
1,1,0.00787,0.01022,0.00197*
1,1,0.00787,0.01022,-0.00197*
1,1,0.00787,-0.01022,-0.00197*
%
%ADD172ROUNDEDRECTD172*%
G04:AMPARAMS|DCode=173|XSize=27.56mil|YSize=11.81mil|CornerRadius=3.94mil|HoleSize=0mil|Usage=FLASHONLY|Rotation=0.000|XOffset=0mil|YOffset=0mil|HoleType=Round|Shape=RoundedRectangle|*
%AMROUNDEDRECTD173*
21,1,0.02756,0.00394,0,0,0.0*
21,1,0.01968,0.01181,0,0,0.0*
1,1,0.00787,0.00984,-0.00197*
1,1,0.00787,-0.00984,-0.00197*
1,1,0.00787,-0.00984,0.00197*
1,1,0.00787,0.00984,0.00197*
%
%ADD173ROUNDEDRECTD173*%
G04:AMPARAMS|DCode=174|XSize=27.56mil|YSize=11.81mil|CornerRadius=3.94mil|HoleSize=0mil|Usage=FLASHONLY|Rotation=270.000|XOffset=0mil|YOffset=0mil|HoleType=Round|Shape=RoundedRectangle|*
%AMROUNDEDRECTD174*
21,1,0.02756,0.00394,0,0,270.0*
21,1,0.01968,0.01181,0,0,270.0*
1,1,0.00787,-0.00197,-0.00984*
1,1,0.00787,-0.00197,0.00984*
1,1,0.00787,0.00197,0.00984*
1,1,0.00787,0.00197,-0.00984*
%
%ADD174ROUNDEDRECTD174*%
G04:AMPARAMS|DCode=175|XSize=28.54mil|YSize=11.81mil|CornerRadius=3.94mil|HoleSize=0mil|Usage=FLASHONLY|Rotation=90.000|XOffset=0mil|YOffset=0mil|HoleType=Round|Shape=RoundedRectangle|*
%AMROUNDEDRECTD175*
21,1,0.02854,0.00394,0,0,90.0*
21,1,0.02067,0.01181,0,0,90.0*
1,1,0.00787,0.00197,0.01034*
1,1,0.00787,0.00197,-0.01034*
1,1,0.00787,-0.00197,-0.01034*
1,1,0.00787,-0.00197,0.01034*
%
%ADD175ROUNDEDRECTD175*%
%ADD176R,0.03347X0.05512*%
%ADD177O,0.03150X0.06299*%
%ADD178R,0.06693X0.04921*%
%ADD179R,0.06693X0.10236*%
%ADD180R,0.13780X0.04252*%
D42*
X0182480Y0308465D02*
D03*
X0170079Y0308465D02*
D03*
X0089961Y0028543D02*
D03*
X0067323Y0278741D02*
D03*
X0059842Y0315354D02*
D03*
X0055905Y0315354D02*
D03*
X0061949Y0278740D02*
D03*
X0044685Y0145079D02*
D03*
X0089961Y0024606D02*
D03*
X0182480Y0312402D02*
D03*
X0049213Y0149016D02*
D03*
X0049213Y0145079D02*
D03*
X0093504Y0028543D02*
D03*
X0093504Y0024606D02*
D03*
X0067716Y0315354D02*
D03*
X0067716Y0311417D02*
D03*
X0059842Y0311417D02*
D03*
X0063780Y0311418D02*
D03*
X0063780Y0315355D02*
D03*
X0170079Y0312402D02*
D03*
X0061949Y0282677D02*
D03*
X0067323Y0282678D02*
D03*
X0055905Y0311417D02*
D03*
X0044685Y0149016D02*
D03*
D44*
X0274213Y0228543D02*
D03*
X0194413Y0047441D02*
D03*
D46*
X0065945Y0141732D02*
D03*
X0071653Y0141732D02*
D03*
D51*
X0216535Y0321654D02*
D03*
X0216535Y0311024D02*
D03*
X0119685Y0314173D02*
D03*
X0050394Y0332677D02*
D03*
X0052362Y0168307D02*
D03*
X0066929Y0133268D02*
D03*
X0204724Y0321654D02*
D03*
X0204724Y0311024D02*
D03*
X0062205Y0332677D02*
D03*
X0078740Y0133268D02*
D03*
X0131496Y0314173D02*
D03*
X0064173Y0168307D02*
D03*
X0071653Y0332677D02*
D03*
X0083465Y0332677D02*
D03*
D58*
X0046063Y0160138D02*
D03*
X0059449Y0135433D02*
D03*
X0170079Y0140945D02*
D03*
X0013583Y0184744D02*
D03*
X0013583Y0190453D02*
D03*
X0114961Y0023917D02*
D03*
X0114961Y0029626D02*
D03*
X0170079Y0146653D02*
D03*
X0059449Y0141142D02*
D03*
X0105118Y-0006594D02*
D03*
X0105118Y-0000886D02*
D03*
X0209842Y0140945D02*
D03*
X0209842Y0146653D02*
D03*
X0199803Y0140945D02*
D03*
X0199803Y0146653D02*
D03*
X0189961Y0140945D02*
D03*
X0189961Y0146653D02*
D03*
X0179921Y0140945D02*
D03*
X0179921Y0146653D02*
D03*
X0046063Y0154429D02*
D03*
D62*
X0010345Y0004843D02*
D03*
X0010345Y0038858D02*
D03*
D63*
X0026801Y0038858D02*
D03*
X0026801Y0004843D02*
D03*
D64*
X0178347Y0277559D02*
D03*
X0030512Y-0004134D02*
D03*
X0203937Y0337795D02*
D03*
D65*
X0119961Y0332422D02*
D03*
X0109961Y0332422D02*
D03*
X0129961Y0332422D02*
D03*
D66*
X0189961Y0112402D02*
D03*
X0189921Y-0017559D02*
D03*
D67*
X0074803Y0177165D02*
D03*
X0033071Y0177165D02*
D03*
D68*
X0039961Y0112402D02*
D03*
X0039921Y-0017559D02*
D03*
X0049961Y0112402D02*
D03*
X0059961Y0112402D02*
D03*
X0069961Y0112402D02*
D03*
X0079961Y0112402D02*
D03*
X0089961Y0112402D02*
D03*
X0099961Y0112402D02*
D03*
X0109961Y0112402D02*
D03*
X0119961Y0112402D02*
D03*
X0129961Y0112402D02*
D03*
X0139961Y0112402D02*
D03*
X0149961Y0112402D02*
D03*
X0159961Y0112402D02*
D03*
X0169961Y0112402D02*
D03*
X0169921Y-0017559D02*
D03*
X0159921Y-0017559D02*
D03*
X0149921Y-0017559D02*
D03*
X0139921Y-0017559D02*
D03*
X0129921Y-0017559D02*
D03*
X0119921Y-0017559D02*
D03*
X0109921Y-0017559D02*
D03*
X0099921Y-0017559D02*
D03*
X0089921Y-0017559D02*
D03*
X0079921Y-0017559D02*
D03*
X0069921Y-0017559D02*
D03*
X0059921Y-0017559D02*
D03*
X0049921Y-0017559D02*
D03*
D69*
X0169961Y0132402D02*
D03*
X0209961Y0122402D02*
D03*
X0199961Y0122402D02*
D03*
X0199961Y0132402D02*
D03*
X0189961Y0122402D02*
D03*
X0189961Y0132402D02*
D03*
X0179961Y0122402D02*
D03*
X0179961Y0132402D02*
D03*
X0169961Y0122402D02*
D03*
D70*
X0179961Y0112402D02*
D03*
X0179921Y-0017559D02*
D03*
D71*
X0063583Y0086811D02*
D03*
X0063583Y0008071D02*
D03*
X0116732Y0267913D02*
D03*
X0116732Y0189173D02*
D03*
X0163819Y0323199D02*
D03*
X0186575Y0323199D02*
D03*
X0024833Y0010472D02*
D03*
X0024833Y0033228D02*
D03*
X0276791Y0333228D02*
D03*
X0015000Y0333228D02*
D03*
X0276791Y-0012559D02*
D03*
X0015000Y0107441D02*
D03*
X0015000Y-0012559D02*
D03*
D72*
X0139961Y0332422D02*
D03*
D73*
X0158189Y0321230D02*
D03*
X0192205Y0321230D02*
D03*
D03*
X0158189Y0321230D02*
D03*
D74*
X0158189Y0337687D02*
D03*
X0192205Y0337687D02*
D03*
X0158189Y0337687D02*
D03*
X0192205Y0337687D02*
D03*
D75*
X0055118Y0177165D02*
D03*
X0013386Y0177165D02*
D03*
D76*
X0209961Y0132402D02*
D03*
D77*
X0076968Y0301575D02*
D03*
X0074213Y0297835D02*
D03*
X0076968Y0294291D02*
D03*
X0105512Y0026772D02*
D03*
X0100984Y0026772D02*
D03*
X0071260Y0301575D02*
D03*
X0071260Y0294291D02*
D03*
X0068307Y0297835D02*
D03*
X0065551Y0301575D02*
D03*
X0065551Y0294291D02*
D03*
D144*
X0137402Y0288676D02*
D03*
D145*
X0133268Y0303176D02*
D03*
X0141535Y0303176D02*
D03*
D150*
X0188386Y0319006D02*
D03*
X0187205Y0319006D02*
D03*
X0163189Y0319006D02*
D03*
X0162008Y0319006D02*
D03*
X0176181Y0319006D02*
D03*
X0172244Y0319006D02*
D03*
X0165157Y0319006D02*
D03*
X0184055Y0319006D02*
D03*
X0168307Y0319006D02*
D03*
X0182087Y0319006D02*
D03*
X0170276Y0319006D02*
D03*
X0180118Y0319006D02*
D03*
X0178150Y0319006D02*
D03*
X0174213Y0319006D02*
D03*
X0166339Y0319006D02*
D03*
X0185236Y0319006D02*
D03*
D151*
X0081102Y0295079D02*
D03*
X0061417Y0295079D02*
D03*
X0061417Y0297047D02*
D03*
X0061417Y0299016D02*
D03*
X0061417Y0300984D02*
D03*
X0081102Y0300984D02*
D03*
X0081102Y0299016D02*
D03*
X0081102Y0297047D02*
D03*
D152*
X0103150Y0026772D02*
D03*
D153*
X0108661Y0027756D02*
D03*
X0097638Y0027756D02*
D03*
X0097638Y0025787D02*
D03*
X0108661Y0029724D02*
D03*
X0108661Y0025787D02*
D03*
X0108661Y0023819D02*
D03*
X0097638Y0023819D02*
D03*
X0097638Y0029724D02*
D03*
D154*
X0092323Y0034646D02*
D03*
X0098425Y0017717D02*
D03*
X0044685Y0130118D02*
D03*
X0105905Y0017717D02*
D03*
X0052165Y0130118D02*
D03*
X0099803Y0034646D02*
D03*
D155*
X0071260Y0298031D02*
D03*
D156*
X0075197Y0268898D02*
D03*
X0050787Y0304331D02*
D03*
X0038976Y0304331D02*
D03*
X0027165Y0304331D02*
D03*
X0050787Y0292520D02*
D03*
X0038976Y0292520D02*
D03*
X0027165Y0292520D02*
D03*
X0075197Y0280709D02*
D03*
D157*
X0066339Y0290158D02*
D03*
X0070276Y0305906D02*
D03*
X0076181Y0290158D02*
D03*
X0074213Y0290158D02*
D03*
X0072244Y0290158D02*
D03*
X0070276Y0290158D02*
D03*
X0068307Y0290158D02*
D03*
X0066339Y0305906D02*
D03*
X0068307Y0305906D02*
D03*
X0072244Y0305906D02*
D03*
X0074213Y0305906D02*
D03*
X0076181Y0305906D02*
D03*
D158*
X0062795Y0156398D02*
D03*
X0054134Y0156398D02*
D03*
X0054134Y0148524D02*
D03*
X0062795Y0148524D02*
D03*
D159*
X0061811Y0157630D02*
D03*
X0055118Y0157630D02*
D03*
D160*
X0062207Y0154823D02*
D03*
X0062207Y0151673D02*
D03*
X0062207Y0153248D02*
D03*
X0054724Y0154823D02*
D03*
X0054724Y0153248D02*
D03*
D161*
X0049016Y0140945D02*
D03*
X0049016Y0136417D02*
D03*
X0057677Y0033268D02*
D03*
X0057677Y0026181D02*
D03*
X0057677Y0014764D02*
D03*
X0014961Y0019094D02*
D03*
X0014961Y0022638D02*
D03*
X0052953Y0136417D02*
D03*
X0027165Y0167520D02*
D03*
X0023228Y0167520D02*
D03*
X0053740Y0022638D02*
D03*
X0057677Y0022638D02*
D03*
X0053740Y0029724D02*
D03*
X0057677Y0029724D02*
D03*
X0053740Y0019094D02*
D03*
X0057677Y0019094D02*
D03*
X0053740Y0026181D02*
D03*
X0053740Y0033268D02*
D03*
X0053740Y0014764D02*
D03*
X0070276Y0147047D02*
D03*
X0074213Y0147047D02*
D03*
X0018898Y0022638D02*
D03*
X0018898Y0019094D02*
D03*
X0041732Y0037795D02*
D03*
X0045669Y0037795D02*
D03*
X0052953Y0140945D02*
D03*
D162*
X0047244Y0092913D02*
D03*
D163*
X0007874Y0092913D02*
D03*
X0007874Y0048917D02*
D03*
D164*
X0026969Y0092913D02*
D03*
X0026969Y0048917D02*
D03*
D165*
X0060256Y0044882D02*
D03*
X0053917Y0046850D02*
D03*
X0053917Y0042913D02*
D03*
X0053917Y0044882D02*
D03*
X0060256Y0046850D02*
D03*
X0060256Y0042913D02*
D03*
D166*
X0054921Y0075669D02*
D03*
X0054921Y0058346D02*
D03*
D167*
X0043307Y0050886D02*
D03*
D168*
X0023110Y0077008D02*
D03*
X0010630Y0076614D02*
D03*
X0023110Y0067008D02*
D03*
X0010630Y0067008D02*
D03*
X0010630Y0057402D02*
D03*
X0023110Y0057008D02*
D03*
D169*
X0036220Y0050197D02*
D03*
D170*
X0003347Y0062205D02*
D03*
X0003347Y0071811D02*
D03*
D171*
X0055118Y0147390D02*
D03*
X0061811Y0147390D02*
D03*
D172*
X0062957Y0150098D02*
D03*
D173*
X0053937Y0151673D02*
D03*
X0053937Y0150098D02*
D03*
D174*
X0060012Y0158071D02*
D03*
X0058437Y0158071D02*
D03*
X0056862Y0158071D02*
D03*
D175*
X0056862Y0147095D02*
D03*
X0058437Y0147095D02*
D03*
X0060012Y0147095D02*
D03*
D176*
X0050689Y0064842D02*
D03*
D177*
X0158189Y0337687D02*
D03*
D178*
X0095472Y0160728D02*
D03*
X0106299Y0160728D02*
D03*
D179*
X0095472Y0151378D02*
D03*
X0106299Y0151378D02*
D03*
D180*
X0077756Y0163858D02*
D03*
X0077756Y0154528D02*
D03*
M02*
