G04*
G04 #@! TF.GenerationSoftware,Altium Limited,Altium Designer,25.8.1 (18)*
G04*
G04 Layer_Physical_Order=4*
G04 Layer_Color=16711680*
%FSAX25Y25*%
%MOIN*%
G70*
G04*
G04 #@! TF.SameCoordinates,BE805E25-8328-4095-8AD4-E1B6FE3B792C*
G04*
G04*
G04 #@! TF.FilePolarity,Positive*
G04*
G01*
G75*
%ADD11C,0.00787*%
%ADD15C,0.00591*%
%ADD40C,0.03937*%
%ADD67C,0.05906*%
%ADD68C,0.06299*%
%ADD75R,0.05906X0.05906*%
%ADD79R,0.02362X0.01968*%
%ADD81C,0.23622*%
%ADD83R,0.02953X0.03150*%
%ADD87R,0.05512X0.06693*%
%ADD95R,0.03150X0.02953*%
%ADD99O,0.07087X0.03937*%
%ADD100O,0.08268X0.03937*%
%ADD101C,0.01181*%
%ADD102C,0.03937*%
%ADD103C,0.01968*%
%ADD104C,0.03150*%
%ADD105C,0.01019*%
%ADD107C,0.05118*%
%ADD108C,0.08268*%
%ADD109R,0.06299X0.06299*%
%ADD110O,0.03937X0.08268*%
%ADD111O,0.03937X0.07087*%
%ADD112R,0.05118X0.05118*%
%ADD113R,0.08268X0.08268*%
%ADD114C,0.02362*%
%ADD116R,0.01181X0.04528*%
%ADD117R,0.03150X0.01181*%
%ADD118R,0.07087X0.06496*%
G04:AMPARAMS|DCode=119|XSize=23.62mil|YSize=9.84mil|CornerRadius=2.46mil|HoleSize=0mil|Usage=FLASHONLY|Rotation=180.000|XOffset=0mil|YOffset=0mil|HoleType=Round|Shape=RoundedRectangle|*
%AMROUNDEDRECTD119*
21,1,0.02362,0.00492,0,0,180.0*
21,1,0.01870,0.00984,0,0,180.0*
1,1,0.00492,-0.00935,0.00246*
1,1,0.00492,0.00935,0.00246*
1,1,0.00492,0.00935,-0.00246*
1,1,0.00492,-0.00935,-0.00246*
%
%ADD119ROUNDEDRECTD119*%
%ADD120R,0.03543X0.04724*%
%ADD121R,0.14764X0.10827*%
%ADD122R,0.06693X0.05512*%
%ADD123R,0.01181X0.03150*%
G04:AMPARAMS|DCode=124|XSize=27.56mil|YSize=7.87mil|CornerRadius=1.97mil|HoleSize=0mil|Usage=FLASHONLY|Rotation=0.000|XOffset=0mil|YOffset=0mil|HoleType=Round|Shape=RoundedRectangle|*
%AMROUNDEDRECTD124*
21,1,0.02756,0.00394,0,0,0.0*
21,1,0.02362,0.00787,0,0,0.0*
1,1,0.00394,0.01181,-0.00197*
1,1,0.00394,-0.01181,-0.00197*
1,1,0.00394,-0.01181,0.00197*
1,1,0.00394,0.01181,0.00197*
%
%ADD124ROUNDEDRECTD124*%
G04:AMPARAMS|DCode=125|XSize=32.48mil|YSize=7.87mil|CornerRadius=1.97mil|HoleSize=0mil|Usage=FLASHONLY|Rotation=270.000|XOffset=0mil|YOffset=0mil|HoleType=Round|Shape=RoundedRectangle|*
%AMROUNDEDRECTD125*
21,1,0.03248,0.00394,0,0,270.0*
21,1,0.02854,0.00787,0,0,270.0*
1,1,0.00394,-0.00197,-0.01427*
1,1,0.00394,-0.00197,0.01427*
1,1,0.00394,0.00197,0.01427*
1,1,0.00394,0.00197,-0.01427*
%
%ADD125ROUNDEDRECTD125*%
G04:AMPARAMS|DCode=126|XSize=39.37mil|YSize=7.87mil|CornerRadius=1.97mil|HoleSize=0mil|Usage=FLASHONLY|Rotation=180.000|XOffset=0mil|YOffset=0mil|HoleType=Round|Shape=RoundedRectangle|*
%AMROUNDEDRECTD126*
21,1,0.03937,0.00394,0,0,180.0*
21,1,0.03543,0.00787,0,0,180.0*
1,1,0.00394,-0.01772,0.00197*
1,1,0.00394,0.01772,0.00197*
1,1,0.00394,0.01772,-0.00197*
1,1,0.00394,-0.01772,-0.00197*
%
%ADD126ROUNDEDRECTD126*%
%ADD127R,0.01968X0.02362*%
%ADD128R,0.09449X0.01772*%
%ADD129R,0.11417X0.01772*%
%ADD130R,0.07480X0.01772*%
%ADD131R,0.03898X0.01181*%
%ADD132R,0.01968X0.05512*%
%ADD133R,0.02756X0.02953*%
%ADD134R,0.02756X0.03543*%
%ADD135R,0.02756X0.02756*%
%ADD136R,0.02362X0.02362*%
G04:AMPARAMS|DCode=137|XSize=30.51mil|YSize=7.87mil|CornerRadius=1.97mil|HoleSize=0mil|Usage=FLASHONLY|Rotation=90.000|XOffset=0mil|YOffset=0mil|HoleType=Round|Shape=RoundedRectangle|*
%AMROUNDEDRECTD137*
21,1,0.03051,0.00394,0,0,90.0*
21,1,0.02657,0.00787,0,0,90.0*
1,1,0.00394,0.00197,0.01329*
1,1,0.00394,0.00197,-0.01329*
1,1,0.00394,-0.00197,-0.01329*
1,1,0.00394,-0.00197,0.01329*
%
%ADD137ROUNDEDRECTD137*%
G04:AMPARAMS|DCode=138|XSize=24.37mil|YSize=7.87mil|CornerRadius=1.97mil|HoleSize=0mil|Usage=FLASHONLY|Rotation=180.000|XOffset=0mil|YOffset=0mil|HoleType=Round|Shape=RoundedRectangle|*
%AMROUNDEDRECTD138*
21,1,0.02437,0.00394,0,0,180.0*
21,1,0.02043,0.00787,0,0,180.0*
1,1,0.00394,-0.01022,0.00197*
1,1,0.00394,0.01022,0.00197*
1,1,0.00394,0.01022,-0.00197*
1,1,0.00394,-0.01022,-0.00197*
%
%ADD138ROUNDEDRECTD138*%
G04:AMPARAMS|DCode=139|XSize=23.62mil|YSize=7.87mil|CornerRadius=1.97mil|HoleSize=0mil|Usage=FLASHONLY|Rotation=0.000|XOffset=0mil|YOffset=0mil|HoleType=Round|Shape=RoundedRectangle|*
%AMROUNDEDRECTD139*
21,1,0.02362,0.00394,0,0,0.0*
21,1,0.01968,0.00787,0,0,0.0*
1,1,0.00394,0.00984,-0.00197*
1,1,0.00394,-0.00984,-0.00197*
1,1,0.00394,-0.00984,0.00197*
1,1,0.00394,0.00984,0.00197*
%
%ADD139ROUNDEDRECTD139*%
G04:AMPARAMS|DCode=140|XSize=23.62mil|YSize=7.87mil|CornerRadius=1.97mil|HoleSize=0mil|Usage=FLASHONLY|Rotation=270.000|XOffset=0mil|YOffset=0mil|HoleType=Round|Shape=RoundedRectangle|*
%AMROUNDEDRECTD140*
21,1,0.02362,0.00394,0,0,270.0*
21,1,0.01968,0.00787,0,0,270.0*
1,1,0.00394,-0.00197,-0.00984*
1,1,0.00394,-0.00197,0.00984*
1,1,0.00394,0.00197,0.00984*
1,1,0.00394,0.00197,-0.00984*
%
%ADD140ROUNDEDRECTD140*%
G04:AMPARAMS|DCode=141|XSize=24.61mil|YSize=7.87mil|CornerRadius=1.97mil|HoleSize=0mil|Usage=FLASHONLY|Rotation=90.000|XOffset=0mil|YOffset=0mil|HoleType=Round|Shape=RoundedRectangle|*
%AMROUNDEDRECTD141*
21,1,0.02461,0.00394,0,0,90.0*
21,1,0.02067,0.00787,0,0,90.0*
1,1,0.00394,0.00197,0.01034*
1,1,0.00394,0.00197,-0.01034*
1,1,0.00394,-0.00197,-0.01034*
1,1,0.00394,-0.00197,0.01034*
%
%ADD141ROUNDEDRECTD141*%
%ADD142R,0.02559X0.04724*%
%ADD143O,0.02362X0.05512*%
%ADD144R,0.16500X0.22100*%
%ADD145R,0.05500X0.05700*%
%ADD146R,0.05906X0.04134*%
%ADD147R,0.05906X0.09449*%
%ADD148R,0.13386X0.03858*%
%ADD149C,0.02756*%
G36*
X0123622Y0346850D02*
X0123622Y0335464D01*
X0123031Y0335219D01*
X0122509Y0335742D01*
X0121562Y0336289D01*
X0120507Y0336571D01*
X0120453Y0336571D01*
X0120453Y0332422D01*
X0120453Y0328272D01*
X0120507Y0328272D01*
X0121562Y0328555D01*
X0122509Y0329101D01*
X0123031Y0329624D01*
X0123622Y0329380D01*
X0123622Y0319035D01*
X0123441Y0318520D01*
X0123031Y0318520D01*
X0120177Y0318520D01*
X0120177Y0314173D01*
X0120177Y0309827D01*
X0123031Y0309827D01*
X0123441Y0309827D01*
X0123622Y0309311D01*
X0123622Y0309055D01*
X0122441Y0307874D01*
X0112205Y0307874D01*
X0112163Y0307916D01*
X0112163Y0313034D01*
X0095472Y0329724D01*
X0095472Y0347024D01*
X0123448Y0347024D01*
X0123622Y0346850D01*
X0123622Y0346850D02*
G37*
G36*
X0053150Y0337024D02*
X0050886Y0337024D01*
X0050886Y0332677D01*
X0050886Y0328331D01*
X0053150Y0328331D01*
X0053150Y0319291D01*
X0054331Y0318110D01*
X0058978Y0318110D01*
X0059055Y0318095D01*
X0061417Y0318095D01*
X0061417Y0317339D01*
X0060334Y0317339D01*
X0060334Y0315354D01*
X0059350Y0315354D01*
X0059350Y0317339D01*
X0056398Y0317339D01*
X0056398Y0315354D01*
X0055905Y0315354D01*
X0055905Y0314862D01*
X0053724Y0314862D01*
X0053724Y0313370D01*
X0053740Y0313370D01*
X0053740Y0311417D01*
X0053937Y0311221D01*
X0053937Y0309646D01*
X0055512Y0309646D01*
X0056693Y0308465D01*
X0056693Y0301575D01*
X0055134Y0301575D01*
X0055134Y0303839D01*
X0050787Y0303839D01*
X0046441Y0303839D01*
X0046441Y0301575D01*
X0043323Y0301575D01*
X0043323Y0303839D01*
X0038976Y0303839D01*
X0034630Y0303839D01*
X0034630Y0301575D01*
X0031512Y0301575D01*
X0031512Y0303839D01*
X0027165Y0303839D01*
X0022819Y0303839D01*
X0022819Y0301575D01*
X0001204Y0301575D01*
X0001204Y0328751D01*
X0001753Y0328924D01*
X0002589Y0326905D01*
X0003731Y0325041D01*
X0005151Y0323379D01*
X0006813Y0321959D01*
X0008676Y0320817D01*
X0010696Y0319981D01*
X0012821Y0319471D01*
X0015000Y0319299D01*
X0017179Y0319471D01*
X0019304Y0319981D01*
X0021324Y0320817D01*
X0023187Y0321959D01*
X0024849Y0323379D01*
X0026269Y0325041D01*
X0027411Y0326905D01*
X0028247Y0328924D01*
X0028757Y0331049D01*
X0028929Y0333228D01*
X0028757Y0335407D01*
X0028247Y0337532D01*
X0027411Y0339552D01*
X0026269Y0341415D01*
X0024849Y0343077D01*
X0023187Y0344497D01*
X0021324Y0345639D01*
X0020866Y0345828D01*
X0020866Y0347024D01*
X0053150Y0347024D01*
X0053150Y0337024D01*
X0053150Y0337024D02*
G37*
G36*
X0075197Y0337024D02*
X0072146Y0337024D01*
X0072146Y0332677D01*
X0072146Y0328331D01*
X0075197Y0328331D01*
X0075197Y0315354D01*
X0070866Y0311024D01*
X0070866Y0308480D01*
X0070768Y0308480D01*
X0070768Y0305906D01*
X0069784Y0305906D01*
X0069784Y0308480D01*
X0069685Y0308480D01*
X0069685Y0316552D01*
X0069685Y0317126D01*
X0069684Y0317717D01*
X0069685Y0317719D01*
X0069685Y0318502D01*
X0069385Y0319225D01*
X0068832Y0319779D01*
X0068108Y0320079D01*
X0067325Y0320079D01*
X0066602Y0319779D01*
X0066048Y0319225D01*
X0065912Y0318898D01*
X0059055Y0318898D01*
X0059055Y0328331D01*
X0061713Y0328331D01*
X0061713Y0332677D01*
X0061713Y0337024D01*
X0059055Y0337024D01*
X0059055Y0343307D01*
X0075197Y0343307D01*
X0075197Y0337024D01*
X0075197Y0337024D02*
G37*
G36*
X0091339Y0314764D02*
X0081693Y0305118D01*
X0077772Y0305118D01*
X0077772Y0305413D01*
X0076181Y0305413D01*
X0076181Y0305906D01*
X0075689Y0305906D01*
X0075689Y0308480D01*
X0074705Y0308480D01*
X0074705Y0305906D01*
X0073721Y0305906D01*
X0073721Y0308480D01*
X0072736Y0308480D01*
X0072736Y0305906D01*
X0071752Y0305906D01*
X0071752Y0308480D01*
X0071669Y0308480D01*
X0071669Y0310645D01*
X0079134Y0318110D01*
X0079134Y0328293D01*
X0079709Y0328331D01*
X0079724Y0328331D01*
X0082972Y0328331D01*
X0082972Y0332677D01*
X0082972Y0337024D01*
X0079724Y0337024D01*
X0079709Y0337024D01*
X0079134Y0337062D01*
X0079134Y0343307D01*
X0091339Y0343307D01*
X0091339Y0314764D01*
X0091339Y0314764D02*
G37*
G36*
X0107874Y0298425D02*
X0083677Y0298425D01*
X0083677Y0298524D01*
X0081102Y0298524D01*
X0081102Y0299508D01*
X0083677Y0299508D01*
X0083677Y0300492D01*
X0081102Y0300492D01*
X0081102Y0300984D01*
X0080610Y0300984D01*
X0080610Y0302575D01*
X0079528Y0302575D01*
X0079528Y0303543D01*
X0081496Y0303543D01*
X0092913Y0314961D01*
X0107874Y0314961D01*
X0107874Y0298425D01*
X0107874Y0298425D02*
G37*
G36*
X0058842Y0299508D02*
X0061417Y0299508D01*
X0061417Y0298524D01*
X0058842Y0298524D01*
X0058842Y0297425D01*
X0059055Y0297425D01*
X0059055Y0296669D01*
X0058842Y0296669D01*
X0058842Y0295571D01*
X0061417Y0295571D01*
X0061417Y0295079D01*
X0061909Y0295079D01*
X0061909Y0293488D01*
X0062992Y0293488D01*
X0062992Y0289764D01*
X0049606Y0276378D01*
X0020079Y0276378D01*
X0020079Y0295669D01*
X0022819Y0295669D01*
X0022819Y0293012D01*
X0027165Y0293012D01*
X0031512Y0293012D01*
X0031512Y0295669D01*
X0034630Y0295669D01*
X0034630Y0293012D01*
X0038976Y0293012D01*
X0043323Y0293012D01*
X0043323Y0295669D01*
X0046441Y0295669D01*
X0046441Y0293012D01*
X0050787Y0293012D01*
X0055134Y0293012D01*
X0055134Y0296276D01*
X0055118Y0296276D01*
X0055118Y0299606D01*
X0058842Y0299606D01*
X0058842Y0299508D01*
X0058842Y0299508D02*
G37*
G36*
X0107905Y0297597D02*
X0107905Y0280537D01*
X0094069Y0280537D01*
X0087205Y0287402D01*
X0078287Y0287402D01*
X0077772Y0287583D01*
X0077772Y0289665D01*
X0076181Y0289665D01*
X0076181Y0290650D01*
X0077772Y0290650D01*
X0077772Y0291732D01*
X0079134Y0291732D01*
X0079232Y0291831D01*
X0079429Y0291831D01*
X0079429Y0292028D01*
X0079528Y0292126D01*
X0079528Y0293701D01*
X0080967Y0293701D01*
X0081102Y0293674D01*
X0081505Y0293674D01*
X0082284Y0292895D01*
X0082284Y0292128D01*
X0082583Y0291405D01*
X0083137Y0290851D01*
X0083860Y0290551D01*
X0084644Y0290551D01*
X0085367Y0290851D01*
X0085921Y0291405D01*
X0086221Y0292128D01*
X0086221Y0292911D01*
X0085921Y0293635D01*
X0085367Y0294188D01*
X0084679Y0294474D01*
X0083677Y0295475D01*
X0083677Y0296555D01*
X0081102Y0296555D01*
X0081102Y0297539D01*
X0083677Y0297539D01*
X0083677Y0297622D01*
X0107874Y0297622D01*
X0107905Y0297597D01*
X0107905Y0297597D02*
G37*
G36*
X0149606Y0273622D02*
X0118898Y0273622D01*
X0114173Y0278346D01*
X0114173Y0294294D01*
X0115116Y0295237D01*
X0115116Y0295237D01*
X0115074Y0295389D01*
X0117323Y0297638D01*
X0128152Y0297638D01*
X0128152Y0289168D01*
X0137402Y0289168D01*
X0146652Y0289168D01*
X0146652Y0297638D01*
X0149606Y0297638D01*
X0149606Y0273622D01*
X0149606Y0273622D02*
G37*
G36*
X0065142Y0279233D02*
X0067323Y0279233D01*
X0067323Y0278740D01*
X0067815Y0278740D01*
X0067815Y0276756D01*
X0069504Y0276756D01*
X0069504Y0276756D01*
X0070079Y0276717D01*
X0070079Y0272638D01*
X0070669Y0272047D01*
X0070850Y0272047D01*
X0070850Y0269390D01*
X0075197Y0269390D01*
X0075197Y0268898D01*
X0075197Y0268898D01*
X0075197Y0269390D01*
X0079543Y0269390D01*
X0079543Y0272047D01*
X0080709Y0272047D01*
X0080709Y0264173D01*
X0079528Y0262992D01*
X0061024Y0262992D01*
X0057087Y0266929D01*
X0057087Y0279528D01*
X0059768Y0279528D01*
X0059768Y0279232D01*
X0061949Y0279232D01*
X0064130Y0279232D01*
X0064130Y0279528D01*
X0065142Y0279528D01*
X0065142Y0279233D01*
X0065142Y0279233D02*
G37*
G36*
X0072736Y0287583D02*
X0073721Y0287583D01*
X0073721Y0290158D01*
X0074705Y0290158D01*
X0074705Y0287583D01*
X0075410Y0287583D01*
X0076575Y0286417D01*
X0079724Y0286417D01*
X0080315Y0285827D01*
X0080315Y0277559D01*
X0079543Y0277559D01*
X0079543Y0280217D01*
X0075197Y0280217D01*
X0075197Y0280709D01*
X0074705Y0280709D01*
X0074705Y0284465D01*
X0071653Y0284465D01*
X0071653Y0287583D01*
X0071752Y0287583D01*
X0071752Y0290158D01*
X0072736Y0290158D01*
X0072736Y0287583D01*
X0072736Y0287583D02*
G37*
G36*
X0114155Y0271654D02*
X0114314Y0271067D01*
X0114314Y0271063D01*
X0113582Y0270331D01*
X0113064Y0269433D01*
X0112795Y0268432D01*
X0112795Y0267395D01*
X0113064Y0266394D01*
X0113582Y0265496D01*
X0114315Y0264763D01*
X0114996Y0264370D01*
X0114837Y0263779D01*
X0114569Y0263779D01*
X0113846Y0263480D01*
X0113292Y0262926D01*
X0112992Y0262203D01*
X0112992Y0261420D01*
X0113292Y0260696D01*
X0113846Y0260142D01*
X0114569Y0259842D01*
X0115352Y0259842D01*
X0116076Y0260142D01*
X0116629Y0260696D01*
X0116929Y0261420D01*
X0116929Y0262203D01*
X0116629Y0262926D01*
X0116139Y0263416D01*
X0116140Y0263423D01*
X0116248Y0263791D01*
X0116351Y0263976D01*
X0117251Y0263976D01*
X0118252Y0264245D01*
X0119150Y0264763D01*
X0119883Y0265496D01*
X0120401Y0266394D01*
X0120669Y0267395D01*
X0120669Y0268432D01*
X0120401Y0269433D01*
X0119883Y0270331D01*
X0119150Y0271063D01*
X0119150Y0271067D01*
X0119309Y0271654D01*
X0140748Y0271654D01*
X0141929Y0270472D01*
X0141929Y0262992D01*
X0141929Y0253936D01*
X0141208Y0253637D01*
X0140654Y0253084D01*
X0140354Y0252360D01*
X0140354Y0251577D01*
X0140654Y0250853D01*
X0141208Y0250300D01*
X0141929Y0250001D01*
X0141929Y0191929D01*
X0138779Y0188779D01*
X0119689Y0188779D01*
X0119685Y0188785D01*
X0119685Y0189562D01*
X0119484Y0190313D01*
X0119095Y0190986D01*
X0118545Y0191536D01*
X0117872Y0191925D01*
X0117121Y0192126D01*
X0116343Y0192126D01*
X0115593Y0191925D01*
X0114919Y0191536D01*
X0114369Y0190986D01*
X0113981Y0190313D01*
X0113779Y0189562D01*
X0113779Y0188785D01*
X0113776Y0188779D01*
X0016158Y0188779D01*
X0016158Y0189961D01*
X0011008Y0189961D01*
X0011008Y0188779D01*
X0005315Y0188779D01*
X0005315Y0253740D01*
X0010433Y0258858D01*
X0080118Y0258858D01*
X0092913Y0271654D01*
X0114155Y0271654D01*
X0114155Y0271654D02*
G37*
G36*
X0088583Y0177756D02*
X0088583Y0171260D01*
X0072835Y0171260D01*
X0068701Y0175394D01*
X0068701Y0183465D01*
X0082874Y0183465D01*
X0088583Y0177756D01*
X0088583Y0177756D02*
G37*
G36*
X0068307Y0174409D02*
X0073032Y0169685D01*
X0087402Y0169685D01*
X0087402Y0163189D01*
X0085994Y0161782D01*
X0085449Y0162008D01*
X0085449Y0163366D01*
X0077756Y0163366D01*
X0070063Y0163366D01*
X0070063Y0162008D01*
X0069517Y0161782D01*
X0068307Y0162992D01*
X0063386Y0162992D01*
X0062963Y0163415D01*
X0063189Y0163961D01*
X0063681Y0163961D01*
X0063681Y0168307D01*
X0063681Y0172653D01*
X0061417Y0172653D01*
X0061417Y0174409D01*
X0068307Y0174409D01*
X0068307Y0174409D02*
G37*
G36*
X0120079Y0174803D02*
X0120079Y0170079D01*
X0118307Y0168307D01*
X0102165Y0168307D01*
X0100394Y0166535D01*
X0100394Y0158661D01*
X0099425Y0158661D01*
X0099425Y0160236D01*
X0095473Y0160236D01*
X0091520Y0160236D01*
X0091520Y0158661D01*
X0089764Y0158661D01*
X0089764Y0172047D01*
X0093701Y0175984D01*
X0118898Y0175984D01*
X0120079Y0174803D01*
X0120079Y0174803D02*
G37*
G36*
X0144291Y0168110D02*
X0144291Y0159055D01*
X0143307Y0158071D01*
X0110252Y0158071D01*
X0110252Y0160236D01*
X0106299Y0160236D01*
X0106299Y0160728D01*
X0105807Y0160728D01*
X0105807Y0163795D01*
X0102347Y0163795D01*
X0102347Y0163795D01*
X0101772Y0163833D01*
X0101772Y0165748D01*
X0103150Y0167126D01*
X0119488Y0167126D01*
X0123622Y0171260D01*
X0141142Y0171260D01*
X0144291Y0168110D01*
X0144291Y0168110D02*
G37*
G36*
X0087402Y0150197D02*
X0083071Y0145866D01*
X0076197Y0145866D01*
X0076197Y0146555D01*
X0074213Y0146555D01*
X0074213Y0147047D01*
X0073721Y0147047D01*
X0073721Y0149228D01*
X0072622Y0149228D01*
X0072244Y0149606D01*
X0069882Y0149606D01*
X0069175Y0150313D01*
X0069291Y0150593D01*
X0069291Y0151376D01*
X0068992Y0152099D01*
X0068438Y0152653D01*
X0067714Y0152953D01*
X0066931Y0152953D01*
X0066648Y0152836D01*
X0066437Y0152877D01*
X0066437Y0152877D01*
X0065725Y0152877D01*
X0065720Y0152881D01*
X0065673Y0153022D01*
X0065700Y0153154D01*
X0065882Y0153407D01*
X0066101Y0153601D01*
X0066175Y0153631D01*
X0066252Y0153646D01*
X0066318Y0153690D01*
X0066391Y0153720D01*
X0066447Y0153776D01*
X0066513Y0153820D01*
X0066557Y0153886D01*
X0066612Y0153942D01*
X0066643Y0154015D01*
X0066687Y0154081D01*
X0066702Y0154158D01*
X0066732Y0154231D01*
X0066732Y0154311D01*
X0066748Y0154388D01*
X0066748Y0155724D01*
X0067520Y0156496D01*
X0070063Y0156496D01*
X0070063Y0155020D01*
X0077756Y0155020D01*
X0085449Y0155020D01*
X0085449Y0156496D01*
X0087402Y0156496D01*
X0087402Y0150197D01*
X0087402Y0150197D02*
G37*
G36*
X0065945Y0160236D02*
X0065945Y0154388D01*
X0065622Y0154452D01*
X0065164Y0154452D01*
X0065199Y0154626D01*
X0065199Y0155020D01*
X0065106Y0155487D01*
X0065022Y0155612D01*
X0065104Y0155734D01*
X0065138Y0155905D01*
X0062795Y0155905D01*
X0062795Y0156890D01*
X0065138Y0156890D01*
X0065104Y0157062D01*
X0064839Y0157457D01*
X0064443Y0157722D01*
X0063976Y0157815D01*
X0063228Y0157815D01*
X0063228Y0159057D01*
X0063135Y0159524D01*
X0062871Y0159920D01*
X0062475Y0160185D01*
X0062008Y0160277D01*
X0061793Y0160277D01*
X0061942Y0160339D01*
X0062496Y0160893D01*
X0062713Y0161417D01*
X0064764Y0161417D01*
X0065945Y0160236D01*
X0065945Y0160236D02*
G37*
G36*
X0112008Y0130640D02*
X0108927Y0127559D01*
X0080318Y0127559D01*
X0080003Y0128150D01*
X0080038Y0128202D01*
X0080145Y0128740D01*
X0080145Y0128921D01*
X0082496Y0128921D01*
X0082496Y0132776D01*
X0078740Y0132776D01*
X0078740Y0133268D01*
X0078248Y0133268D01*
X0078248Y0137614D01*
X0074984Y0137614D01*
X0074984Y0137598D01*
X0072047Y0137598D01*
X0071079Y0138567D01*
X0071085Y0138736D01*
X0071161Y0138920D01*
X0071161Y0141732D01*
X0071161Y0144307D01*
X0071076Y0144307D01*
X0070679Y0144892D01*
X0070734Y0145023D01*
X0070809Y0145079D01*
X0072047Y0145079D01*
X0072047Y0145079D01*
X0072441Y0145079D01*
X0072441Y0145079D01*
X0075984Y0145079D01*
X0075984Y0145079D01*
X0075984Y0145079D01*
X0076140Y0145075D01*
X0076197Y0145063D01*
X0076568Y0145063D01*
X0083071Y0145063D01*
X0083378Y0145124D01*
X0083604Y0145276D01*
X0083858Y0145276D01*
X0089764Y0151181D01*
X0089764Y0156299D01*
X0091520Y0156299D01*
X0091520Y0151870D01*
X0095473Y0151870D01*
X0099425Y0151870D01*
X0099425Y0156299D01*
X0102347Y0156299D01*
X0102347Y0151870D01*
X0106299Y0151870D01*
X0110252Y0151870D01*
X0110252Y0156299D01*
X0112008Y0156299D01*
X0112008Y0130640D01*
X0112008Y0130640D02*
G37*
G36*
X0043701Y0158661D02*
X0043701Y0157874D01*
X0043898Y0157874D01*
X0043898Y0156905D01*
X0043488Y0156905D01*
X0043488Y0154921D01*
X0046063Y0154921D01*
X0046063Y0154429D01*
X0046555Y0154429D01*
X0046555Y0151953D01*
X0048228Y0151953D01*
X0048228Y0151181D01*
X0029331Y0151181D01*
X0025197Y0155315D01*
X0025197Y0159646D01*
X0026378Y0160827D01*
X0041535Y0160827D01*
X0043701Y0158661D01*
X0043701Y0158661D02*
G37*
G36*
X0063468Y0142224D02*
X0065945Y0142224D01*
X0065945Y0141732D01*
X0066437Y0141732D01*
X0066437Y0139157D01*
X0068421Y0139157D01*
X0068421Y0139157D01*
X0068421Y0139157D01*
X0068855Y0138822D01*
X0069472Y0138205D01*
X0069450Y0137614D01*
X0067421Y0137614D01*
X0067421Y0133268D01*
X0067421Y0128921D01*
X0069488Y0128921D01*
X0069488Y0127559D01*
X0058071Y0127559D01*
X0056693Y0128937D01*
X0056693Y0132441D01*
X0056874Y0132957D01*
X0058957Y0132957D01*
X0058957Y0135433D01*
X0059449Y0135433D01*
X0059449Y0135925D01*
X0062024Y0135925D01*
X0062024Y0137909D01*
X0062024Y0137909D01*
X0061822Y0138397D01*
X0062402Y0138976D01*
X0062402Y0143504D01*
X0063468Y0143504D01*
X0063468Y0142224D01*
X0063468Y0142224D02*
G37*
G36*
X0149606Y0321457D02*
X0165945Y0305118D01*
X0165945Y0284922D01*
X0165748Y0284447D01*
X0165748Y0283664D01*
X0165945Y0283188D01*
X0165945Y0149790D01*
X0162015Y0145859D01*
X0161775Y0145501D01*
X0161691Y0145079D01*
X0161691Y0144565D01*
X0144291Y0127165D01*
X0119291Y0127165D01*
X0119291Y0137008D01*
X0120276Y0137992D01*
X0135827Y0137992D01*
X0135827Y0137404D01*
X0136126Y0136680D01*
X0136680Y0136126D01*
X0137404Y0135827D01*
X0138187Y0135827D01*
X0138910Y0136126D01*
X0139464Y0136680D01*
X0139764Y0137404D01*
X0139764Y0138187D01*
X0139532Y0138745D01*
X0152165Y0151378D01*
X0152165Y0180315D01*
X0152362Y0180512D01*
X0152362Y0299016D01*
X0150984Y0300394D01*
X0146439Y0300394D01*
X0146439Y0300513D01*
X0145285Y0300513D01*
X0145285Y0302684D01*
X0141535Y0302684D01*
X0137785Y0302684D01*
X0137785Y0300513D01*
X0137018Y0300513D01*
X0137018Y0302684D01*
X0133268Y0302684D01*
X0129518Y0302684D01*
X0129518Y0301668D01*
X0128927Y0301357D01*
X0128740Y0301486D01*
X0128740Y0309827D01*
X0131004Y0309827D01*
X0131004Y0314173D01*
X0131004Y0318520D01*
X0128740Y0318520D01*
X0128740Y0319685D01*
X0124803Y0323622D01*
X0124803Y0342126D01*
X0126181Y0343504D01*
X0149606Y0343504D01*
X0149606Y0321457D01*
X0149606Y0321457D02*
G37*
G36*
X0042504Y0145571D02*
X0044685Y0145571D01*
X0044685Y0145079D01*
X0045177Y0145079D01*
X0045177Y0143095D01*
X0046454Y0143095D01*
X0046866Y0143095D01*
X0047032Y0142572D01*
X0047032Y0141437D01*
X0049016Y0141437D01*
X0049016Y0140453D01*
X0047032Y0140453D01*
X0047032Y0138764D01*
X0047032Y0138764D01*
X0047032Y0138598D01*
X0047032Y0138598D01*
X0047032Y0136909D01*
X0049016Y0136909D01*
X0049016Y0136417D01*
X0049508Y0136417D01*
X0049508Y0133845D01*
X0049591Y0133646D01*
X0048425Y0132480D01*
X0047457Y0132480D01*
X0047457Y0133480D01*
X0045177Y0133480D01*
X0045177Y0130118D01*
X0044685Y0130118D01*
X0044685Y0129626D01*
X0041913Y0129626D01*
X0041913Y0127229D01*
X0041323Y0126984D01*
X0040551Y0127756D01*
X0040551Y0145866D01*
X0040633Y0146063D01*
X0042504Y0146063D01*
X0042504Y0145571D01*
X0042504Y0145571D02*
G37*
G36*
X0053347Y0092913D02*
X0040945Y0092913D01*
X0040945Y0095276D01*
X0053347Y0095276D01*
X0053347Y0092913D01*
X0053347Y0092913D02*
G37*
G36*
X0080512Y0083661D02*
X0081693Y0082480D01*
X0081693Y0079331D01*
X0080512Y0078150D01*
X0076968Y0078150D01*
X0075787Y0079331D01*
X0075787Y0082480D01*
X0076968Y0083661D01*
X0080512Y0083661D01*
X0080512Y0083661D02*
G37*
G36*
X0194488Y0058464D02*
X0192126Y0058464D01*
X0192126Y0061999D01*
X0194488Y0061999D01*
X0194488Y0058464D01*
X0194488Y0058464D02*
G37*
G36*
X0032874Y0092913D02*
X0003347Y0092913D01*
X0003347Y0092126D01*
X0003150Y0092126D01*
X0003150Y0049606D01*
X0003543Y0049606D01*
X0003543Y0048031D01*
X0001378Y0048031D01*
X0001378Y0092913D01*
X0001378Y0093737D01*
X0021099Y0093737D01*
X0022835Y0095472D01*
X0032874Y0095472D01*
X0032874Y0092913D01*
X0032874Y0092913D02*
G37*
G36*
X0183071Y0046260D02*
X0180905Y0046260D01*
X0180905Y0048228D01*
X0183071Y0048228D01*
X0183071Y0046260D01*
X0183071Y0046260D02*
G37*
G36*
X0097441Y0040354D02*
X0097441Y0038386D01*
X0096063Y0037008D01*
X0095094Y0037008D01*
X0095094Y0038008D01*
X0092815Y0038008D01*
X0092815Y0034646D01*
X0092323Y0034646D01*
X0092323Y0034154D01*
X0089551Y0034154D01*
X0089551Y0031283D01*
X0091025Y0031283D01*
X0091328Y0030693D01*
X0091209Y0030528D01*
X0090453Y0030528D01*
X0090453Y0028543D01*
X0089961Y0028543D01*
X0089961Y0028051D01*
X0087779Y0028051D01*
X0087779Y0026559D01*
X0087779Y0026559D01*
X0087779Y0026559D01*
X0087795Y0025975D01*
X0087795Y0018307D01*
X0086024Y0016535D01*
X0076378Y0016535D01*
X0070866Y0011024D01*
X0057677Y0011024D01*
X0056890Y0011811D01*
X0056890Y0012583D01*
X0057185Y0012583D01*
X0057185Y0014764D01*
X0057677Y0014764D01*
X0057677Y0015256D01*
X0059661Y0015256D01*
X0059661Y0015725D01*
X0063583Y0015725D01*
X0063583Y0015725D01*
X0063888Y0015786D01*
X0063978Y0015748D01*
X0064762Y0015748D01*
X0065485Y0016048D01*
X0066039Y0016601D01*
X0066337Y0017321D01*
X0066535Y0017520D01*
X0066535Y0024213D01*
X0066256Y0024213D01*
X0066039Y0024737D01*
X0065485Y0025291D01*
X0064762Y0025591D01*
X0063978Y0025591D01*
X0063255Y0025291D01*
X0062790Y0024826D01*
X0059661Y0024826D01*
X0059661Y0025689D01*
X0057677Y0025689D01*
X0057677Y0026673D01*
X0059661Y0026673D01*
X0059661Y0027953D01*
X0060285Y0027953D01*
X0060339Y0027822D01*
X0060893Y0027268D01*
X0061616Y0026969D01*
X0062399Y0026969D01*
X0063123Y0027268D01*
X0063677Y0027822D01*
X0063684Y0027823D01*
X0064042Y0027465D01*
X0064766Y0027165D01*
X0065549Y0027165D01*
X0066272Y0027465D01*
X0066760Y0027953D01*
X0074655Y0027953D01*
X0074727Y0028025D01*
X0074803Y0027953D01*
X0077559Y0027953D01*
X0077848Y0028242D01*
X0078545Y0027953D01*
X0079328Y0027953D01*
X0080052Y0028252D01*
X0080606Y0028806D01*
X0080905Y0029530D01*
X0080905Y0030313D01*
X0080616Y0031010D01*
X0091535Y0041929D01*
X0093228Y0041929D01*
X0093703Y0041732D01*
X0094486Y0041732D01*
X0094961Y0041929D01*
X0095866Y0041929D01*
X0097441Y0040354D01*
X0097441Y0040354D02*
G37*
G36*
X0194488Y0032883D02*
X0192126Y0032883D01*
X0192126Y0036417D01*
X0194488Y0036417D01*
X0194488Y0032883D01*
X0194488Y0032883D02*
G37*
G36*
X0109843Y0022835D02*
X0107677Y0020669D01*
X0107677Y0019488D01*
X0104134Y0019488D01*
X0104134Y0020079D01*
X0107480Y0023425D01*
X0107480Y0024016D01*
X0109843Y0024016D01*
X0109843Y0022835D01*
X0109843Y0022835D02*
G37*
G36*
X0150000Y0001969D02*
X0148425Y0000394D01*
X0148228Y0000591D01*
X0113976Y0000591D01*
X0110630Y0003937D01*
X0093504Y0003937D01*
X0088583Y-0000984D01*
X0051968Y-0000984D01*
X0049606Y0001378D01*
X0049803Y0001575D01*
X0049803Y0006102D01*
X0053740Y0006102D01*
X0056693Y0003150D01*
X0085039Y0003150D01*
X0089567Y0007677D01*
X0090993Y0007677D01*
X0091048Y0007546D01*
X0091602Y0006993D01*
X0092325Y0006693D01*
X0093108Y0006693D01*
X0093832Y0006993D01*
X0094385Y0007546D01*
X0094440Y0007677D01*
X0100759Y0007677D01*
X0101247Y0007189D01*
X0101971Y0006890D01*
X0102754Y0006890D01*
X0103477Y0007189D01*
X0103965Y0007677D01*
X0130118Y0007677D01*
X0136811Y0014370D01*
X0150000Y0014370D01*
X0150000Y0001969D01*
X0150000Y0001969D02*
G37*
G36*
X0006299Y0035433D02*
X0011614Y0035433D01*
X0016142Y0030906D01*
X0016142Y0024819D01*
X0015453Y0024819D01*
X0015453Y0022638D01*
X0014961Y0022638D01*
X0014961Y0022146D01*
X0012976Y0022146D01*
X0012976Y0020457D01*
X0012976Y0019587D01*
X0014961Y0019587D01*
X0014961Y0019094D01*
X0015453Y0019094D01*
X0015453Y0016913D01*
X0016142Y0016913D01*
X0016142Y0010827D01*
X0013583Y0008268D01*
X0007677Y0008268D01*
X0004921Y0005512D01*
X0001204Y0005512D01*
X0001204Y0010827D01*
X0001204Y0036417D01*
X0005315Y0036417D01*
X0006299Y0035433D01*
X0006299Y0035433D02*
G37*
G36*
X0183661Y-0014951D02*
X0183133Y-0015117D01*
X0183071Y-0015119D01*
X0182348Y-0014396D01*
X0181447Y-0013876D01*
X0180442Y-0013606D01*
X0180413Y-0013606D01*
X0180413Y-0017559D01*
X0180413Y-0021512D01*
X0180442Y-0021512D01*
X0181447Y-0021242D01*
X0182348Y-0020722D01*
X0183071Y-0019999D01*
X0183133Y-0020001D01*
X0183661Y-0020167D01*
X0183661Y-0025591D01*
X0182639Y-0025591D01*
X0182559Y-0025470D01*
X0182559Y-0024687D01*
X0182259Y-0023964D01*
X0181706Y-0023410D01*
X0180982Y-0023110D01*
X0180199Y-0023110D01*
X0179475Y-0023410D01*
X0178922Y-0023964D01*
X0178622Y-0024687D01*
X0178622Y-0025470D01*
X0178542Y-0025591D01*
X0176575Y-0025591D01*
X0176575Y-0020638D01*
X0177165Y-0020393D01*
X0177494Y-0020722D01*
X0178396Y-0021242D01*
X0179401Y-0021512D01*
X0179429Y-0021512D01*
X0179429Y-0017559D01*
X0179429Y-0013606D01*
X0179401Y-0013606D01*
X0178396Y-0013876D01*
X0177494Y-0014396D01*
X0177165Y-0014725D01*
X0176575Y-0014480D01*
X0176575Y0015551D01*
X0183661Y0015551D01*
X0183661Y-0014951D01*
X0183661Y-0014951D02*
G37*
G36*
X0164173Y0017717D02*
X0164173Y-0015733D01*
X0163638Y-0016012D01*
X0163583Y-0015995D01*
X0163084Y-0015132D01*
X0162348Y-0014396D01*
X0161447Y-0013876D01*
X0160442Y-0013606D01*
X0160413Y-0013606D01*
X0160413Y-0017559D01*
X0160413Y-0021512D01*
X0160442Y-0021512D01*
X0161447Y-0021242D01*
X0162348Y-0020722D01*
X0163084Y-0019986D01*
X0163583Y-0019123D01*
X0163638Y-0019106D01*
X0164173Y-0019385D01*
X0164173Y-0025394D01*
X0158937Y-0025394D01*
X0158937Y-0024687D01*
X0158637Y-0023964D01*
X0158083Y-0023410D01*
X0157360Y-0023110D01*
X0156577Y-0023110D01*
X0155853Y-0023410D01*
X0155300Y-0023964D01*
X0155000Y-0024687D01*
X0155000Y-0025394D01*
X0152756Y-0025394D01*
X0152756Y-0020014D01*
X0152914Y-0019856D01*
X0153407Y-0019003D01*
X0153661Y-0018052D01*
X0153661Y-0017067D01*
X0153407Y-0016115D01*
X0152914Y-0015263D01*
X0152756Y-0015104D01*
X0152756Y0016535D01*
X0150000Y0019291D01*
X0136417Y0019291D01*
X0128150Y0011024D01*
X0104134Y0011024D01*
X0103557Y0010447D01*
X0103477Y0010527D01*
X0102754Y0010827D01*
X0101971Y0010827D01*
X0101247Y0010527D01*
X0100693Y0009973D01*
X0100639Y0009843D01*
X0094319Y0009843D01*
X0093832Y0010330D01*
X0093108Y0010630D01*
X0092325Y0010630D01*
X0091602Y0010330D01*
X0091114Y0009843D01*
X0089567Y0009843D01*
X0084055Y0004134D01*
X0057087Y0004134D01*
X0052559Y0008661D01*
X0052559Y0011614D01*
X0056102Y0011614D01*
X0056132Y0011585D01*
X0056148Y0011504D01*
X0056322Y0011243D01*
X0057109Y0010456D01*
X0057370Y0010282D01*
X0057451Y0010266D01*
X0058661Y0009055D01*
X0060304Y0009055D01*
X0060664Y0008587D01*
X0060630Y0008460D01*
X0060630Y0007682D01*
X0060831Y0006931D01*
X0061220Y0006258D01*
X0061770Y0005708D01*
X0062443Y0005319D01*
X0063194Y0005118D01*
X0063971Y0005118D01*
X0064722Y0005319D01*
X0065396Y0005708D01*
X0065946Y0006258D01*
X0066334Y0006931D01*
X0066535Y0007682D01*
X0066535Y0008460D01*
X0066501Y0008587D01*
X0066861Y0009055D01*
X0071260Y0009055D01*
X0074410Y0012205D01*
X0074410Y0013431D01*
X0076710Y0015733D01*
X0081905Y0015733D01*
X0083465Y0014173D01*
X0104134Y0014173D01*
X0104134Y0014354D01*
X0105413Y0014354D01*
X0105413Y0017717D01*
X0105905Y0017717D01*
X0105905Y0018209D01*
X0108677Y0018209D01*
X0108677Y0019882D01*
X0118110Y0019882D01*
X0128347Y0030118D01*
X0151772Y0030118D01*
X0164173Y0017717D01*
X0164173Y0017717D02*
G37*
G36*
X0193489Y0029149D02*
X0193489Y-0013606D01*
X0190413Y-0013606D01*
X0190413Y-0017559D01*
X0190413Y-0021512D01*
X0193489Y-0021512D01*
X0193489Y-0022867D01*
X0192998Y-0023195D01*
X0192793Y-0023110D01*
X0192010Y-0023110D01*
X0191286Y-0023410D01*
X0190733Y-0023964D01*
X0190433Y-0024687D01*
X0190433Y-0025470D01*
X0190221Y-0025787D01*
X0184646Y-0025787D01*
X0184646Y0021457D01*
X0156890Y0049213D01*
X0131772Y0049213D01*
X0131297Y0049409D01*
X0130514Y0049409D01*
X0130039Y0049213D01*
X0122244Y0049213D01*
X0113386Y0058071D01*
X0100197Y0058071D01*
X0100197Y0049213D01*
X0098819Y0047835D01*
X0085630Y0047835D01*
X0084758Y0048706D01*
X0085133Y0049082D01*
X0085433Y0049805D01*
X0085433Y0050588D01*
X0085133Y0051312D01*
X0084580Y0051866D01*
X0083856Y0052165D01*
X0083073Y0052165D01*
X0082677Y0052430D01*
X0082677Y0063445D01*
X0082845Y0063898D01*
X0082947Y0064000D01*
X0082947Y0064000D01*
X0082928Y0064030D01*
X0085236Y0066339D01*
X0156299Y0066339D01*
X0193489Y0029149D01*
X0193489Y0029149D02*
G37*
G36*
X0113189Y0057087D02*
X0117717Y0052559D01*
X0117717Y0046063D01*
X0129500Y0046063D01*
X0129790Y0045772D01*
X0130514Y0045472D01*
X0131297Y0045472D01*
X0132021Y0045772D01*
X0132311Y0046063D01*
X0156693Y0046063D01*
X0175197Y0027559D01*
X0175197Y-0025591D01*
X0170828Y-0025591D01*
X0170748Y-0025470D01*
X0170748Y-0024687D01*
X0170448Y-0023964D01*
X0169895Y-0023410D01*
X0169171Y-0023110D01*
X0168388Y-0023110D01*
X0167664Y-0023410D01*
X0167111Y-0023964D01*
X0166811Y-0024687D01*
X0166811Y-0025470D01*
X0166731Y-0025591D01*
X0165138Y-0025591D01*
X0164976Y-0025394D01*
X0164976Y-0019385D01*
X0164952Y-0019265D01*
X0164939Y-0019144D01*
X0164922Y-0019113D01*
X0164915Y-0019078D01*
X0164847Y-0018976D01*
X0164788Y-0018869D01*
X0164764Y-0018849D01*
X0164764Y-0016269D01*
X0164788Y-0016249D01*
X0164847Y-0016142D01*
X0164915Y-0016040D01*
X0164922Y-0016005D01*
X0164939Y-0015974D01*
X0164952Y-0015853D01*
X0164976Y-0015733D01*
X0164976Y0017717D01*
X0164976Y0017717D01*
X0164915Y0018024D01*
X0164764Y0018250D01*
X0164764Y0019291D01*
X0151772Y0032283D01*
X0102575Y0032283D01*
X0102575Y0034154D01*
X0101575Y0034154D01*
X0101575Y0032283D01*
X0100000Y0032283D01*
X0098819Y0031102D01*
X0098819Y0029921D01*
X0096457Y0029921D01*
X0096457Y0033071D01*
X0098032Y0034646D01*
X0099803Y0034646D01*
X0099803Y0034646D01*
X0099311Y0034646D01*
X0099311Y0038008D01*
X0098771Y0038008D01*
X0098650Y0038094D01*
X0098465Y0038622D01*
X0099213Y0039370D01*
X0102362Y0039370D01*
X0102362Y0041704D01*
X0102456Y0041798D01*
X0102756Y0042522D01*
X0102756Y0043305D01*
X0102456Y0044028D01*
X0102362Y0044122D01*
X0102362Y0056102D01*
X0103347Y0057087D01*
X0113189Y0057087D01*
X0113189Y0057087D02*
G37*
%LPC*%
G36*
X0110507Y0336571D02*
X0110453Y0336571D01*
X0110453Y0332914D01*
X0114110Y0332914D01*
X0114110Y0332968D01*
X0113827Y0334023D01*
X0113281Y0334970D01*
X0112508Y0335742D01*
X0111562Y0336289D01*
X0110507Y0336571D01*
X0110507Y0336571D02*
G37*
G36*
X0119468Y0336571D02*
X0119414Y0336571D01*
X0118359Y0336289D01*
X0117413Y0335742D01*
X0116640Y0334970D01*
X0116094Y0334023D01*
X0115811Y0332968D01*
X0115811Y0332914D01*
X0119468Y0332914D01*
X0119468Y0336571D01*
X0119468Y0336571D02*
G37*
G36*
X0109468Y0336571D02*
X0109414Y0336571D01*
X0108359Y0336289D01*
X0107413Y0335742D01*
X0106640Y0334970D01*
X0106094Y0334023D01*
X0105811Y0332968D01*
X0105811Y0332914D01*
X0109468Y0332914D01*
X0109468Y0336571D01*
X0109468Y0336571D02*
G37*
G36*
X0119468Y0331930D02*
X0115811Y0331930D01*
X0115811Y0331875D01*
X0116094Y0330820D01*
X0116640Y0329874D01*
X0117413Y0329101D01*
X0118359Y0328555D01*
X0119414Y0328272D01*
X0119468Y0328272D01*
X0119468Y0331930D01*
X0119468Y0331930D02*
G37*
G36*
X0114110Y0331930D02*
X0110453Y0331930D01*
X0110453Y0328272D01*
X0110507Y0328272D01*
X0111562Y0328555D01*
X0112508Y0329101D01*
X0113281Y0329874D01*
X0113827Y0330820D01*
X0114110Y0331875D01*
X0114110Y0331930D01*
X0114110Y0331930D02*
G37*
G36*
X0109468Y0331930D02*
X0105811Y0331930D01*
X0105811Y0331875D01*
X0106094Y0330820D01*
X0106640Y0329874D01*
X0107413Y0329101D01*
X0108359Y0328555D01*
X0109414Y0328272D01*
X0109468Y0328272D01*
X0109468Y0331930D01*
X0109468Y0331930D02*
G37*
G36*
X0119193Y0318520D02*
X0115929Y0318520D01*
X0115929Y0314665D01*
X0119193Y0314665D01*
X0119193Y0318520D01*
X0119193Y0318520D02*
G37*
G36*
X0119193Y0313681D02*
X0115929Y0313681D01*
X0115929Y0309827D01*
X0119193Y0309827D01*
X0119193Y0313681D01*
X0119193Y0313681D02*
G37*
G36*
X0049902Y0337024D02*
X0046638Y0337024D01*
X0046638Y0333169D01*
X0049902Y0333169D01*
X0049902Y0337024D01*
X0049902Y0337024D02*
G37*
G36*
X0049902Y0332185D02*
X0046638Y0332185D01*
X0046638Y0328331D01*
X0049902Y0328331D01*
X0049902Y0332185D01*
X0049902Y0332185D02*
G37*
G36*
X0055413Y0317339D02*
X0053724Y0317339D01*
X0053724Y0315846D01*
X0055413Y0315846D01*
X0055413Y0317339D01*
X0055413Y0317339D02*
G37*
G36*
X0031512Y0308087D02*
X0027657Y0308087D01*
X0027657Y0304823D01*
X0031512Y0304823D01*
X0031512Y0308087D01*
X0031512Y0308087D02*
G37*
G36*
X0026673Y0308087D02*
X0022819Y0308087D01*
X0022819Y0304823D01*
X0026673Y0304823D01*
X0026673Y0308087D01*
X0026673Y0308087D02*
G37*
G36*
X0043323Y0308087D02*
X0039469Y0308087D01*
X0039469Y0304823D01*
X0043323Y0304823D01*
X0043323Y0308087D01*
X0043323Y0308087D02*
G37*
G36*
X0038484Y0308087D02*
X0034630Y0308087D01*
X0034630Y0304823D01*
X0038484Y0304823D01*
X0038484Y0308087D01*
X0038484Y0308087D02*
G37*
G36*
X0055134Y0308087D02*
X0051279Y0308087D01*
X0051279Y0304823D01*
X0055134Y0304823D01*
X0055134Y0308087D01*
X0055134Y0308087D02*
G37*
G36*
X0050295Y0308087D02*
X0046441Y0308087D01*
X0046441Y0304823D01*
X0050295Y0304823D01*
X0050295Y0308087D01*
X0050295Y0308087D02*
G37*
G36*
X0071161Y0337024D02*
X0067898Y0337024D01*
X0067898Y0333169D01*
X0071161Y0333169D01*
X0071161Y0337024D01*
X0071161Y0337024D02*
G37*
G36*
X0065961Y0337024D02*
X0062697Y0337024D01*
X0062697Y0333169D01*
X0065961Y0333169D01*
X0065961Y0337024D01*
X0065961Y0337024D02*
G37*
G36*
X0071161Y0332185D02*
X0067898Y0332185D01*
X0067898Y0328331D01*
X0071161Y0328331D01*
X0071161Y0332185D01*
X0071161Y0332185D02*
G37*
G36*
X0065961Y0332185D02*
X0062697Y0332185D01*
X0062697Y0328331D01*
X0065961Y0328331D01*
X0065961Y0332185D01*
X0065961Y0332185D02*
G37*
G36*
X0083957Y0337024D02*
X0083957Y0333169D01*
X0087221Y0333169D01*
X0087221Y0337024D01*
X0083957Y0337024D01*
X0083957Y0337024D02*
G37*
G36*
X0087221Y0332185D02*
X0083957Y0332185D01*
X0083957Y0328331D01*
X0087221Y0328331D01*
X0087221Y0332185D01*
X0087221Y0332185D02*
G37*
G36*
X0077772Y0308480D02*
X0076673Y0308480D01*
X0076673Y0306398D01*
X0077772Y0306398D01*
X0077772Y0308480D01*
X0077772Y0308480D02*
G37*
G36*
X0083677Y0302575D02*
X0081595Y0302575D01*
X0081595Y0301476D01*
X0083677Y0301476D01*
X0083677Y0302575D01*
X0083677Y0302575D02*
G37*
G36*
X0060925Y0294587D02*
X0058842Y0294587D01*
X0058842Y0293488D01*
X0060925Y0293488D01*
X0060925Y0294587D01*
X0060925Y0294587D02*
G37*
G36*
X0055134Y0292028D02*
X0051279Y0292028D01*
X0051279Y0288764D01*
X0055134Y0288764D01*
X0055134Y0292028D01*
X0055134Y0292028D02*
G37*
G36*
X0050295Y0292028D02*
X0046441Y0292028D01*
X0046441Y0288764D01*
X0050295Y0288764D01*
X0050295Y0292028D01*
X0050295Y0292028D02*
G37*
G36*
X0043323Y0292028D02*
X0039468Y0292028D01*
X0039468Y0288764D01*
X0043323Y0288764D01*
X0043323Y0292028D01*
X0043323Y0292028D02*
G37*
G36*
X0038484Y0292028D02*
X0034630Y0292028D01*
X0034630Y0288764D01*
X0038484Y0288764D01*
X0038484Y0292028D01*
X0038484Y0292028D02*
G37*
G36*
X0031512Y0292028D02*
X0027657Y0292028D01*
X0027657Y0288764D01*
X0031512Y0288764D01*
X0031512Y0292028D01*
X0031512Y0292028D02*
G37*
G36*
X0026673Y0292028D02*
X0022819Y0292028D01*
X0022819Y0288764D01*
X0026673Y0288764D01*
X0026673Y0292028D01*
X0026673Y0292028D02*
G37*
G36*
X0146652Y0288184D02*
X0137894Y0288184D01*
X0137894Y0276626D01*
X0146652Y0276626D01*
X0146652Y0288184D01*
X0146652Y0288184D02*
G37*
G36*
X0136909Y0288184D02*
X0128152Y0288184D01*
X0128152Y0276626D01*
X0136909Y0276626D01*
X0136909Y0288184D01*
X0136909Y0288184D02*
G37*
G36*
X0066831Y0278248D02*
X0065142Y0278248D01*
X0065142Y0276756D01*
X0066831Y0276756D01*
X0066831Y0278248D01*
X0066831Y0278248D02*
G37*
G36*
X0064130Y0278248D02*
X0062441Y0278248D01*
X0062441Y0276756D01*
X0064130Y0276756D01*
X0064130Y0278248D01*
X0064130Y0278248D02*
G37*
G36*
X0061457Y0278248D02*
X0059768Y0278248D01*
X0059768Y0276756D01*
X0061457Y0276756D01*
X0061457Y0278248D01*
X0061457Y0278248D02*
G37*
G36*
X0079543Y0268406D02*
X0075689Y0268406D01*
X0075689Y0265142D01*
X0079543Y0265142D01*
X0079543Y0268406D01*
X0079543Y0268406D02*
G37*
G36*
X0074705Y0268406D02*
X0070850Y0268406D01*
X0070850Y0265142D01*
X0074705Y0265142D01*
X0074705Y0268406D01*
X0074705Y0268406D02*
G37*
G36*
X0079543Y0284465D02*
X0075689Y0284465D01*
X0075689Y0281201D01*
X0079543Y0281201D01*
X0079543Y0284465D01*
X0079543Y0284465D02*
G37*
G36*
X0101966Y0263779D02*
X0101183Y0263779D01*
X0100460Y0263480D01*
X0099906Y0262926D01*
X0099606Y0262203D01*
X0099606Y0261420D01*
X0099906Y0260696D01*
X0100460Y0260142D01*
X0101183Y0259842D01*
X0101966Y0259842D01*
X0102690Y0260142D01*
X0103244Y0260696D01*
X0103543Y0261420D01*
X0103543Y0262203D01*
X0103244Y0262926D01*
X0102690Y0263480D01*
X0101966Y0263779D01*
X0101966Y0263779D02*
G37*
G36*
X0101966Y0254724D02*
X0101183Y0254724D01*
X0100460Y0254425D01*
X0099906Y0253871D01*
X0099606Y0253148D01*
X0099606Y0252364D01*
X0099906Y0251641D01*
X0100460Y0251087D01*
X0101183Y0250787D01*
X0101966Y0250787D01*
X0102690Y0251087D01*
X0103244Y0251641D01*
X0103543Y0252364D01*
X0103543Y0253148D01*
X0103244Y0253871D01*
X0102690Y0254425D01*
X0101966Y0254724D01*
X0101966Y0254724D02*
G37*
G36*
X0115352Y0254331D02*
X0114569Y0254331D01*
X0113846Y0254031D01*
X0113292Y0253477D01*
X0112992Y0252754D01*
X0112992Y0251971D01*
X0113292Y0251247D01*
X0113846Y0250693D01*
X0114569Y0250394D01*
X0115352Y0250394D01*
X0116076Y0250693D01*
X0116629Y0251247D01*
X0116929Y0251971D01*
X0116929Y0252754D01*
X0116629Y0253477D01*
X0116076Y0254031D01*
X0115352Y0254331D01*
X0115352Y0254331D02*
G37*
G36*
X0136612Y0250197D02*
X0135829Y0250197D01*
X0135105Y0249897D01*
X0134552Y0249343D01*
X0134252Y0248620D01*
X0134252Y0247837D01*
X0134552Y0247113D01*
X0135105Y0246560D01*
X0135829Y0246260D01*
X0136612Y0246260D01*
X0137336Y0246560D01*
X0137889Y0247113D01*
X0138189Y0247837D01*
X0138189Y0248620D01*
X0137889Y0249343D01*
X0137336Y0249897D01*
X0136612Y0250197D01*
X0136612Y0250197D02*
G37*
G36*
X0101769Y0243504D02*
X0100986Y0243504D01*
X0100263Y0243204D01*
X0099709Y0242651D01*
X0099410Y0241927D01*
X0099410Y0241144D01*
X0099709Y0240420D01*
X0100263Y0239867D01*
X0100986Y0239567D01*
X0101769Y0239567D01*
X0102493Y0239867D01*
X0103047Y0240420D01*
X0103347Y0241144D01*
X0103347Y0241927D01*
X0103047Y0242651D01*
X0102493Y0243204D01*
X0101769Y0243504D01*
X0101769Y0243504D02*
G37*
G36*
X0117517Y0238386D02*
X0116734Y0238386D01*
X0116011Y0238086D01*
X0115457Y0237532D01*
X0115157Y0236809D01*
X0115157Y0236026D01*
X0115457Y0235302D01*
X0116011Y0234749D01*
X0116734Y0234449D01*
X0117517Y0234449D01*
X0118241Y0234749D01*
X0118795Y0235302D01*
X0119095Y0236026D01*
X0119095Y0236809D01*
X0118795Y0237532D01*
X0118241Y0238086D01*
X0117517Y0238386D01*
X0117517Y0238386D02*
G37*
G36*
X0101966Y0234449D02*
X0101183Y0234449D01*
X0100460Y0234149D01*
X0099906Y0233595D01*
X0099606Y0232872D01*
X0099606Y0232089D01*
X0099906Y0231365D01*
X0100460Y0230812D01*
X0101183Y0230512D01*
X0101966Y0230512D01*
X0102690Y0230812D01*
X0103244Y0231365D01*
X0103543Y0232089D01*
X0103543Y0232872D01*
X0103244Y0233595D01*
X0102690Y0234149D01*
X0101966Y0234449D01*
X0101966Y0234449D02*
G37*
G36*
X0101966Y0225590D02*
X0101183Y0225590D01*
X0100460Y0225291D01*
X0099906Y0224737D01*
X0099606Y0224014D01*
X0099606Y0223231D01*
X0099906Y0222507D01*
X0100460Y0221953D01*
X0101183Y0221654D01*
X0101966Y0221654D01*
X0102690Y0221953D01*
X0103244Y0222507D01*
X0103543Y0223231D01*
X0103543Y0224014D01*
X0103244Y0224737D01*
X0102690Y0225291D01*
X0101966Y0225590D01*
X0101966Y0225590D02*
G37*
G36*
X0118502Y0222441D02*
X0117719Y0222441D01*
X0116995Y0222141D01*
X0116441Y0221587D01*
X0116142Y0220864D01*
X0116142Y0220081D01*
X0116441Y0219357D01*
X0116995Y0218804D01*
X0117719Y0218504D01*
X0118502Y0218504D01*
X0119225Y0218804D01*
X0119779Y0219357D01*
X0120079Y0220081D01*
X0120079Y0220864D01*
X0119779Y0221587D01*
X0119225Y0222141D01*
X0118502Y0222441D01*
X0118502Y0222441D02*
G37*
G36*
X0102163Y0215551D02*
X0101380Y0215551D01*
X0100657Y0215251D01*
X0100103Y0214698D01*
X0099803Y0213974D01*
X0099803Y0213191D01*
X0100103Y0212468D01*
X0100657Y0211914D01*
X0101380Y0211614D01*
X0102163Y0211614D01*
X0102887Y0211914D01*
X0103440Y0212468D01*
X0103740Y0213191D01*
X0103740Y0213974D01*
X0103440Y0214698D01*
X0102887Y0215251D01*
X0102163Y0215551D01*
X0102163Y0215551D02*
G37*
G36*
X0120077Y0215354D02*
X0119293Y0215354D01*
X0118570Y0215055D01*
X0118016Y0214501D01*
X0117717Y0213777D01*
X0117717Y0212994D01*
X0118016Y0212271D01*
X0118570Y0211717D01*
X0119293Y0211417D01*
X0120077Y0211417D01*
X0120800Y0211717D01*
X0121354Y0212271D01*
X0121653Y0212994D01*
X0121653Y0213777D01*
X0121354Y0214501D01*
X0120800Y0215055D01*
X0120077Y0215354D01*
X0120077Y0215354D02*
G37*
G36*
X0090155Y0205906D02*
X0089372Y0205906D01*
X0088649Y0205606D01*
X0088095Y0205052D01*
X0087795Y0204329D01*
X0087795Y0203545D01*
X0088095Y0202822D01*
X0088649Y0202268D01*
X0089372Y0201969D01*
X0090155Y0201969D01*
X0090879Y0202268D01*
X0091433Y0202822D01*
X0091732Y0203545D01*
X0091732Y0204329D01*
X0091433Y0205052D01*
X0090879Y0205606D01*
X0090155Y0205906D01*
X0090155Y0205906D02*
G37*
G36*
X0102951Y0205709D02*
X0102167Y0205709D01*
X0101444Y0205409D01*
X0100890Y0204855D01*
X0100591Y0204132D01*
X0100591Y0203349D01*
X0100890Y0202625D01*
X0101444Y0202071D01*
X0102167Y0201772D01*
X0102951Y0201772D01*
X0103674Y0202071D01*
X0104228Y0202625D01*
X0104528Y0203349D01*
X0104528Y0204132D01*
X0104228Y0204855D01*
X0103674Y0205409D01*
X0102951Y0205709D01*
X0102951Y0205709D02*
G37*
G36*
X0117124Y0198031D02*
X0116341Y0198031D01*
X0115617Y0197732D01*
X0115064Y0197178D01*
X0114764Y0196455D01*
X0114764Y0195671D01*
X0115064Y0194948D01*
X0115617Y0194394D01*
X0116341Y0194095D01*
X0117124Y0194095D01*
X0117847Y0194394D01*
X0118401Y0194948D01*
X0118701Y0195671D01*
X0118701Y0196455D01*
X0118401Y0197178D01*
X0117847Y0197732D01*
X0117124Y0198031D01*
X0117124Y0198031D02*
G37*
G36*
X0102754Y0197244D02*
X0101971Y0197244D01*
X0101247Y0196944D01*
X0100693Y0196391D01*
X0100394Y0195667D01*
X0100394Y0194884D01*
X0100693Y0194160D01*
X0101247Y0193607D01*
X0101971Y0193307D01*
X0102754Y0193307D01*
X0103477Y0193607D01*
X0104031Y0194160D01*
X0104331Y0194884D01*
X0104331Y0195667D01*
X0104031Y0196391D01*
X0103477Y0196944D01*
X0102754Y0197244D01*
X0102754Y0197244D02*
G37*
G36*
X0090352Y0197047D02*
X0089569Y0197047D01*
X0088846Y0196748D01*
X0088292Y0196194D01*
X0087992Y0195470D01*
X0087992Y0194687D01*
X0088292Y0193964D01*
X0088846Y0193410D01*
X0089569Y0193110D01*
X0090352Y0193110D01*
X0091076Y0193410D01*
X0091629Y0193964D01*
X0091929Y0194687D01*
X0091929Y0195470D01*
X0091629Y0196194D01*
X0091076Y0196748D01*
X0090352Y0197047D01*
X0090352Y0197047D02*
G37*
G36*
X0133462Y0196063D02*
X0132679Y0196063D01*
X0131956Y0195763D01*
X0131402Y0195210D01*
X0131102Y0194486D01*
X0131102Y0193703D01*
X0131402Y0192979D01*
X0131956Y0192426D01*
X0132679Y0192126D01*
X0133462Y0192126D01*
X0134186Y0192426D01*
X0134740Y0192979D01*
X0135039Y0193703D01*
X0135039Y0194486D01*
X0134740Y0195210D01*
X0134186Y0195763D01*
X0133462Y0196063D01*
X0133462Y0196063D02*
G37*
G36*
X0016158Y0192929D02*
X0014075Y0192929D01*
X0014075Y0190945D01*
X0016158Y0190945D01*
X0016158Y0192929D01*
X0016158Y0192929D02*
G37*
G36*
X0013091Y0192929D02*
X0011008Y0192929D01*
X0011008Y0190945D01*
X0013091Y0190945D01*
X0013091Y0192929D01*
X0013091Y0192929D02*
G37*
G36*
X0075295Y0180718D02*
X0075295Y0177657D01*
X0078356Y0177657D01*
X0078120Y0178539D01*
X0077651Y0179351D01*
X0076989Y0180013D01*
X0076177Y0180482D01*
X0075295Y0180718D01*
X0075295Y0180718D02*
G37*
G36*
X0074311Y0180718D02*
X0073429Y0180482D01*
X0072618Y0180013D01*
X0071955Y0179351D01*
X0071487Y0178539D01*
X0071250Y0177657D01*
X0074311Y0177657D01*
X0074311Y0180718D01*
X0074311Y0180718D02*
G37*
G36*
X0078356Y0176673D02*
X0075295Y0176673D01*
X0075295Y0173613D01*
X0076177Y0173849D01*
X0076989Y0174317D01*
X0077651Y0174980D01*
X0078120Y0175792D01*
X0078356Y0176673D01*
X0078356Y0176673D02*
G37*
G36*
X0074311Y0176673D02*
X0071250Y0176673D01*
X0071487Y0175792D01*
X0071955Y0174980D01*
X0072618Y0174317D01*
X0073429Y0173849D01*
X0074311Y0173613D01*
X0074311Y0176673D01*
X0074311Y0176673D02*
G37*
G36*
X0067929Y0172653D02*
X0064665Y0172653D01*
X0064665Y0168799D01*
X0067929Y0168799D01*
X0067929Y0172653D01*
X0067929Y0172653D02*
G37*
G36*
X0085449Y0166787D02*
X0078248Y0166787D01*
X0078248Y0164350D01*
X0085449Y0164350D01*
X0085449Y0166787D01*
X0085449Y0166787D02*
G37*
G36*
X0077264Y0166787D02*
X0070063Y0166787D01*
X0070063Y0164350D01*
X0077264Y0164350D01*
X0077264Y0166787D01*
X0077264Y0166787D02*
G37*
G36*
X0067929Y0167815D02*
X0064665Y0167815D01*
X0064665Y0163961D01*
X0067929Y0163961D01*
X0067929Y0167815D01*
X0067929Y0167815D02*
G37*
G36*
X0099425Y0163795D02*
X0095965Y0163795D01*
X0095965Y0161221D01*
X0099425Y0161221D01*
X0099425Y0163795D01*
X0099425Y0163795D02*
G37*
G36*
X0094980Y0163795D02*
X0091520Y0163795D01*
X0091520Y0161221D01*
X0094980Y0161221D01*
X0094980Y0163795D01*
X0094980Y0163795D02*
G37*
G36*
X0110252Y0163795D02*
X0106791Y0163795D01*
X0106791Y0161221D01*
X0110252Y0161221D01*
X0110252Y0163795D01*
X0110252Y0163795D02*
G37*
G36*
X0085449Y0154035D02*
X0078248Y0154035D01*
X0078248Y0151598D01*
X0085449Y0151598D01*
X0085449Y0154035D01*
X0085449Y0154035D02*
G37*
G36*
X0077264Y0154035D02*
X0070063Y0154035D01*
X0070063Y0151598D01*
X0077264Y0151598D01*
X0077264Y0154035D01*
X0077264Y0154035D02*
G37*
G36*
X0076197Y0149228D02*
X0074705Y0149228D01*
X0074705Y0147539D01*
X0076197Y0147539D01*
X0076197Y0149228D01*
X0076197Y0149228D02*
G37*
G36*
X0110252Y0150886D02*
X0106791Y0150886D01*
X0106791Y0145653D01*
X0110252Y0145653D01*
X0110252Y0150886D01*
X0110252Y0150886D02*
G37*
G36*
X0105807Y0150886D02*
X0102347Y0150886D01*
X0102347Y0145653D01*
X0105807Y0145653D01*
X0105807Y0150886D01*
X0105807Y0150886D02*
G37*
G36*
X0099425Y0150886D02*
X0095965Y0150886D01*
X0095965Y0145653D01*
X0099425Y0145653D01*
X0099425Y0150886D01*
X0099425Y0150886D02*
G37*
G36*
X0094980Y0150886D02*
X0091520Y0150886D01*
X0091520Y0145653D01*
X0094980Y0145653D01*
X0094980Y0150886D01*
X0094980Y0150886D02*
G37*
G36*
X0074130Y0144307D02*
X0072146Y0144307D01*
X0072146Y0142224D01*
X0074130Y0142224D01*
X0074130Y0144307D01*
X0074130Y0144307D02*
G37*
G36*
X0074130Y0141240D02*
X0072146Y0141240D01*
X0072146Y0139157D01*
X0074130Y0139157D01*
X0074130Y0141240D01*
X0074130Y0141240D02*
G37*
G36*
X0082496Y0137614D02*
X0079232Y0137614D01*
X0079232Y0133760D01*
X0082496Y0133760D01*
X0082496Y0137614D01*
X0082496Y0137614D02*
G37*
G36*
X0045571Y0153937D02*
X0043488Y0153937D01*
X0043488Y0151953D01*
X0045571Y0151953D01*
X0045571Y0153937D01*
X0045571Y0153937D02*
G37*
G36*
X0065453Y0141240D02*
X0063468Y0141240D01*
X0063468Y0139157D01*
X0065453Y0139157D01*
X0065453Y0141240D01*
X0065453Y0141240D02*
G37*
G36*
X0066437Y0137614D02*
X0063173Y0137614D01*
X0063173Y0133760D01*
X0066437Y0133760D01*
X0066437Y0137614D01*
X0066437Y0137614D02*
G37*
G36*
X0062024Y0134941D02*
X0059941Y0134941D01*
X0059941Y0132957D01*
X0062024Y0132957D01*
X0062024Y0134941D01*
X0062024Y0134941D02*
G37*
G36*
X0066437Y0132776D02*
X0063173Y0132776D01*
X0063173Y0128921D01*
X0066437Y0128921D01*
X0066437Y0132776D01*
X0066437Y0132776D02*
G37*
G36*
X0130507Y0336571D02*
X0130453Y0336571D01*
X0130453Y0332914D01*
X0134110Y0332914D01*
X0134110Y0332968D01*
X0133827Y0334023D01*
X0133281Y0334970D01*
X0132509Y0335742D01*
X0131562Y0336289D01*
X0130507Y0336571D01*
X0130507Y0336571D02*
G37*
G36*
X0144110Y0336571D02*
X0140453Y0336571D01*
X0140453Y0332914D01*
X0144110Y0332914D01*
X0144110Y0336571D01*
X0144110Y0336571D02*
G37*
G36*
X0129469Y0336571D02*
X0129414Y0336571D01*
X0128359Y0336289D01*
X0127413Y0335742D01*
X0126640Y0334970D01*
X0126094Y0334023D01*
X0125811Y0332968D01*
X0125811Y0332914D01*
X0129469Y0332914D01*
X0129469Y0336571D01*
X0129469Y0336571D02*
G37*
G36*
X0139469Y0336571D02*
X0135811Y0336571D01*
X0135811Y0332914D01*
X0139469Y0332914D01*
X0139469Y0336571D01*
X0139469Y0336571D02*
G37*
G36*
X0144110Y0331930D02*
X0140453Y0331930D01*
X0140453Y0328272D01*
X0144110Y0328272D01*
X0144110Y0331930D01*
X0144110Y0331930D02*
G37*
G36*
X0139469Y0331930D02*
X0135811Y0331930D01*
X0135811Y0328272D01*
X0139469Y0328272D01*
X0139469Y0331930D01*
X0139469Y0331930D02*
G37*
G36*
X0134110Y0331930D02*
X0130453Y0331930D01*
X0130453Y0328272D01*
X0130507Y0328272D01*
X0131562Y0328555D01*
X0132509Y0329101D01*
X0133281Y0329874D01*
X0133827Y0330820D01*
X0134110Y0331875D01*
X0134110Y0331930D01*
X0134110Y0331930D02*
G37*
G36*
X0129469Y0331930D02*
X0125811Y0331930D01*
X0125811Y0331875D01*
X0126094Y0330820D01*
X0126640Y0329874D01*
X0127413Y0329101D01*
X0128359Y0328555D01*
X0129414Y0328272D01*
X0129469Y0328272D01*
X0129469Y0331930D01*
X0129469Y0331930D02*
G37*
G36*
X0135252Y0318520D02*
X0131988Y0318520D01*
X0131988Y0314665D01*
X0135252Y0314665D01*
X0135252Y0318520D01*
X0135252Y0318520D02*
G37*
G36*
X0135252Y0313681D02*
X0131988Y0313681D01*
X0131988Y0309827D01*
X0135252Y0309827D01*
X0135252Y0313681D01*
X0135252Y0313681D02*
G37*
G36*
X0145285Y0307026D02*
X0142027Y0307026D01*
X0142027Y0303668D01*
X0145285Y0303668D01*
X0145285Y0307026D01*
X0145285Y0307026D02*
G37*
G36*
X0141043Y0307026D02*
X0137785Y0307026D01*
X0137785Y0303668D01*
X0141043Y0303668D01*
X0141043Y0307026D01*
X0141043Y0307026D02*
G37*
G36*
X0137018Y0307026D02*
X0133760Y0307026D01*
X0133760Y0303668D01*
X0137018Y0303668D01*
X0137018Y0307026D01*
X0137018Y0307026D02*
G37*
G36*
X0132775Y0307026D02*
X0129518Y0307026D01*
X0129518Y0303668D01*
X0132775Y0303668D01*
X0132775Y0307026D01*
X0132775Y0307026D02*
G37*
G36*
X0044193Y0144587D02*
X0042504Y0144587D01*
X0042504Y0143095D01*
X0044193Y0143095D01*
X0044193Y0144587D01*
X0044193Y0144587D02*
G37*
G36*
X0048524Y0135925D02*
X0047032Y0135925D01*
X0047032Y0134236D01*
X0048524Y0134236D01*
X0048524Y0135925D01*
X0048524Y0135925D02*
G37*
G36*
X0044193Y0133480D02*
X0041913Y0133480D01*
X0041913Y0130610D01*
X0044193Y0130610D01*
X0044193Y0133480D01*
X0044193Y0133480D02*
G37*
G36*
X0091831Y0038008D02*
X0089551Y0038008D01*
X0089551Y0035138D01*
X0091831Y0035138D01*
X0091831Y0038008D01*
X0091831Y0038008D02*
G37*
G36*
X0089468Y0030528D02*
X0087779Y0030528D01*
X0087779Y0029035D01*
X0089468Y0029035D01*
X0089468Y0030528D01*
X0089468Y0030528D02*
G37*
G36*
X0059661Y0014272D02*
X0058169Y0014272D01*
X0058169Y0012583D01*
X0059661Y0012583D01*
X0059661Y0014272D01*
X0059661Y0014272D02*
G37*
G36*
X0014469Y0024819D02*
X0012976Y0024819D01*
X0012976Y0023130D01*
X0014469Y0023130D01*
X0014469Y0024819D01*
X0014469Y0024819D02*
G37*
G36*
X0014469Y0018602D02*
X0012976Y0018602D01*
X0012976Y0016913D01*
X0014469Y0016913D01*
X0014469Y0018602D01*
X0014469Y0018602D02*
G37*
G36*
X0108677Y0017224D02*
X0106398Y0017224D01*
X0106398Y0014354D01*
X0108677Y0014354D01*
X0108677Y0017224D01*
X0108677Y0017224D02*
G37*
G36*
X0074998Y0009843D02*
X0074215Y0009843D01*
X0073491Y0009543D01*
X0072938Y0008989D01*
X0072638Y0008266D01*
X0072638Y0007482D01*
X0072938Y0006759D01*
X0073491Y0006205D01*
X0074215Y0005906D01*
X0074998Y0005906D01*
X0075721Y0006205D01*
X0076275Y0006759D01*
X0076575Y0007482D01*
X0076575Y0008266D01*
X0076275Y0008989D01*
X0075721Y0009543D01*
X0074998Y0009843D01*
X0074998Y0009843D02*
G37*
G36*
X0159429Y-0013606D02*
X0159401Y-0013606D01*
X0158396Y-0013876D01*
X0157494Y-0014396D01*
X0156758Y-0015132D01*
X0156238Y-0016033D01*
X0155968Y-0017039D01*
X0155968Y-0017067D01*
X0159429Y-0017067D01*
X0159429Y-0013606D01*
X0159429Y-0013606D02*
G37*
G36*
X0159429Y-0018051D02*
X0155968Y-0018051D01*
X0155968Y-0018079D01*
X0156238Y-0019085D01*
X0156758Y-0019986D01*
X0157494Y-0020722D01*
X0158396Y-0021242D01*
X0159401Y-0021512D01*
X0159429Y-0021512D01*
X0159429Y-0018051D01*
X0159429Y-0018051D02*
G37*
G36*
X0189429Y-0013606D02*
X0185968Y-0013606D01*
X0185968Y-0017067D01*
X0189429Y-0017067D01*
X0189429Y-0013606D01*
X0189429Y-0013606D02*
G37*
G36*
X0189429Y-0018051D02*
X0185968Y-0018051D01*
X0185968Y-0021512D01*
X0189429Y-0021512D01*
X0189429Y-0018051D01*
X0189429Y-0018051D02*
G37*
G36*
X0102575Y0038008D02*
X0100295Y0038008D01*
X0100295Y0035138D01*
X0102575Y0035138D01*
X0102575Y0038008D01*
X0102575Y0038008D02*
G37*
G36*
X0170442Y-0013606D02*
X0170413Y-0013606D01*
X0170413Y-0017067D01*
X0173874Y-0017067D01*
X0173874Y-0017039D01*
X0173605Y-0016033D01*
X0173084Y-0015132D01*
X0172348Y-0014396D01*
X0171447Y-0013876D01*
X0170442Y-0013606D01*
X0170442Y-0013606D02*
G37*
G36*
X0169429Y-0013606D02*
X0169401Y-0013606D01*
X0168396Y-0013876D01*
X0167494Y-0014396D01*
X0166758Y-0015132D01*
X0166238Y-0016033D01*
X0165969Y-0017039D01*
X0165969Y-0017067D01*
X0169429Y-0017067D01*
X0169429Y-0013606D01*
X0169429Y-0013606D02*
G37*
G36*
X0173874Y-0018051D02*
X0170413Y-0018051D01*
X0170413Y-0021512D01*
X0170442Y-0021512D01*
X0171447Y-0021242D01*
X0172348Y-0020722D01*
X0173084Y-0019986D01*
X0173605Y-0019085D01*
X0173874Y-0018079D01*
X0173874Y-0018051D01*
X0173874Y-0018051D02*
G37*
G36*
X0169429Y-0018051D02*
X0165969Y-0018051D01*
X0165969Y-0018079D01*
X0166238Y-0019085D01*
X0166758Y-0019986D01*
X0167494Y-0020722D01*
X0168396Y-0021242D01*
X0169401Y-0021512D01*
X0169429Y-0021512D01*
X0169429Y-0018051D01*
X0169429Y-0018051D02*
G37*
%LPD*%
D11*
X0233862Y0227956D02*
X0233862Y0342573D01*
X0210630Y0204724D02*
X0233862Y0227956D01*
X0171063Y0204921D02*
X0182283Y0204921D01*
X0179961Y0132047D02*
X0179961Y0140905D01*
X0167717Y0284055D02*
X0183071Y0284055D01*
X0026969Y0048917D02*
X0037894Y0048917D01*
X0097638Y0027756D02*
X0100984Y0027756D01*
X0097638Y0025787D02*
X0102165Y0025787D01*
X0104134Y0027756D02*
X0108661Y0027756D01*
X0102362Y0025984D02*
X0103150Y0026772D01*
X0100394Y0019291D02*
X0101772Y0019291D01*
X0100000Y0016535D02*
X0101772Y0016535D01*
X0065256Y0154823D02*
X0065354Y0154921D01*
X0062207Y0154823D02*
X0065256Y0154823D01*
X0061811Y0157630D02*
X0061811Y0159843D01*
X0062205Y0160236D01*
X0041240Y0048819D02*
X0043307Y0050886D01*
X0037992Y0048819D02*
X0041240Y0048819D01*
X0037894Y0048917D02*
X0037992Y0048819D01*
X0021850Y0048819D02*
X0021949Y0048917D01*
X0026969Y0048917D01*
X0167913Y0289764D02*
X0183071Y0289764D01*
X0169961Y0140827D02*
X0170079Y0140945D01*
X0169961Y0131811D02*
X0169961Y0140827D01*
X0113583Y0130512D02*
X0113583Y0137992D01*
X0118504Y0142913D02*
X0136811Y0142913D01*
X0113583Y0137992D02*
X0118504Y0142913D01*
X0119882Y0140748D02*
X0138386Y0140748D01*
X0116339Y0137205D02*
X0119882Y0140748D01*
X0116339Y0129527D02*
X0116339Y0137205D01*
X0080709Y0125394D02*
X0108465Y0125394D01*
X0113583Y0130512D01*
X0090354Y0123425D02*
X0110236Y0123425D01*
X0116339Y0129527D01*
X0138386Y0140748D02*
X0149606Y0151969D01*
X0019685Y0173425D02*
X0028937Y0173425D01*
X0010433Y0133203D02*
X0010433Y0164173D01*
X0019685Y0173425D01*
X0057819Y0161636D02*
X0057819Y0162063D01*
X0057819Y0161636D02*
X0058437Y0161019D01*
X0058437Y0158465D02*
X0058437Y0161019D01*
X0055118Y0157630D02*
X0055118Y0160039D01*
X0051378Y0161024D02*
X0054134Y0161024D01*
X0055118Y0160039D01*
X0044227Y0099410D02*
X0058071Y0099410D01*
X0010433Y0133203D02*
X0044227Y0099410D01*
X0031496Y0167323D02*
X0031693Y0167126D01*
X0031496Y0167323D02*
X0031496Y0170866D01*
X0028937Y0173425D02*
X0031496Y0170866D01*
X0058071Y0099410D02*
X0059055Y0098425D01*
X0059055Y0097835D02*
X0059055Y0098425D01*
X0059055Y0097835D02*
X0069291Y0087598D01*
X0069291Y0072949D02*
X0069291Y0087598D01*
X0069291Y0072949D02*
X0079724Y0062516D01*
X0079724Y0047441D02*
X0079724Y0062516D01*
X0031791Y0167224D02*
X0033268Y0165748D01*
X0060256Y0042913D02*
X0060256Y0042913D01*
X0050689Y0052658D02*
X0053937Y0049409D01*
X0050689Y0052658D02*
X0050689Y0064842D01*
X0060453Y0042716D02*
X0066054Y0042716D01*
X0064931Y0147143D02*
X0066199Y0145875D01*
X0067096Y0148040D02*
X0067096Y0148149D01*
X0069300Y0145875D02*
X0070276Y0146850D01*
X0066199Y0145875D02*
X0069300Y0145875D01*
X0065146Y0150098D02*
X0067096Y0148149D01*
X0067126Y0150984D02*
X0067323Y0150984D01*
X0066437Y0151673D02*
X0067126Y0150984D01*
X0062207Y0151673D02*
X0066437Y0151673D01*
X0064931Y0147143D02*
X0064931Y0147372D01*
X0062957Y0150098D02*
X0065146Y0150098D01*
X0062795Y0148524D02*
X0063779Y0148524D01*
X0064931Y0147372D01*
X0062207Y0153248D02*
X0065622Y0153248D01*
X0070276Y0146850D02*
X0070276Y0147047D01*
X0070940Y0115625D02*
X0080709Y0125394D01*
X0078740Y0111811D02*
X0090354Y0123425D01*
X0046654Y0165748D02*
X0051378Y0161024D01*
X0033268Y0165748D02*
X0046654Y0165748D01*
X0060039Y0160794D02*
X0060827Y0161582D01*
X0060827Y0162008D01*
X0060039Y0158661D02*
X0060039Y0160794D01*
X0051607Y0154823D02*
X0054724Y0154823D01*
X0048414Y0154429D02*
X0049595Y0153248D01*
X0054724Y0153248D01*
X0050591Y0155413D02*
X0051017Y0155413D01*
X0051607Y0154823D01*
X0046063Y0154429D02*
X0048414Y0154429D01*
X0049409Y0149016D02*
X0050492Y0150098D01*
X0049409Y0149016D02*
X0049409Y0149016D01*
X0050492Y0150098D02*
X0053937Y0150098D01*
X0023228Y0167520D02*
X0023228Y0171260D01*
X0059449Y0141142D02*
X0060012Y0141705D01*
X0060012Y0147095D01*
X0052953Y0140748D02*
X0052953Y0141142D01*
X0053543Y0141732D01*
X0053911Y0141732D01*
X0056862Y0144683D01*
X0056862Y0147095D01*
X0054657Y0144882D02*
X0055118Y0145343D01*
X0055118Y0147390D01*
X0049409Y0144882D02*
X0054657Y0144882D01*
X0044685Y0149016D02*
X0049409Y0149016D01*
X0049213Y0145079D02*
X0049409Y0144882D01*
X0142323Y0251969D02*
X0144685Y0254331D01*
X0147835Y0254331D01*
X0146850Y0152953D02*
X0146850Y0251181D01*
X0146653Y0251378D02*
X0146850Y0251181D01*
X0149606Y0151969D02*
X0149606Y0252559D01*
X0147835Y0254331D02*
X0149606Y0252559D01*
X0196131Y0140945D02*
X0199803Y0140945D01*
X0195669Y0141406D02*
X0196131Y0140945D01*
X0199961Y0131732D02*
X0199961Y0132402D01*
X0195669Y0141406D02*
X0195669Y0229724D01*
X0199961Y0131732D02*
X0200000Y0131693D01*
X0199803Y0140945D02*
X0199961Y0140787D01*
X0199961Y0132402D02*
X0199961Y0140787D01*
X0199980Y0112224D02*
X0199980Y0122382D01*
X0200000Y0122402D01*
X0199980Y0112224D02*
X0200000Y0112205D01*
X0209646Y0122244D02*
X0210630Y0123228D01*
X0209842Y0132283D02*
X0210236Y0131890D01*
X0204724Y0141732D02*
X0205512Y0140945D01*
X0192913Y0250394D02*
X0204724Y0238583D01*
X0204724Y0141732D02*
X0204724Y0238583D01*
X0205512Y0140945D02*
X0209842Y0140945D01*
X0199803Y0146653D02*
X0199803Y0151181D01*
X0136811Y0142913D02*
X0146850Y0152953D01*
X0212402Y0146653D02*
X0217323Y0141732D01*
X0217323Y0128150D02*
X0217323Y0141732D01*
X0209842Y0146653D02*
X0212402Y0146653D01*
X0210630Y0123228D02*
X0212402Y0123228D01*
X0217323Y0128150D01*
X0169488Y0250394D02*
X0192913Y0250394D01*
X0168504Y0246457D02*
X0178937Y0246457D01*
X0195669Y0229724D01*
X0176181Y0241339D02*
X0185433Y0232087D01*
X0168504Y0241339D02*
X0176181Y0241339D01*
X0185433Y0141732D02*
X0185433Y0232087D01*
X0185433Y0141732D02*
X0186221Y0140945D01*
X0189961Y0140945D01*
X0209842Y0132283D02*
X0209842Y0140945D01*
X0189961Y0132087D02*
X0190157Y0131890D01*
X0189961Y0132087D02*
X0189961Y0140945D01*
X0179961Y0132047D02*
X0180118Y0131890D01*
X0179921Y0140945D02*
X0179961Y0140905D01*
X0069685Y0111811D02*
X0069685Y0112283D01*
X0069961Y0112402D02*
X0070940Y0113381D01*
X0070079Y0096260D02*
X0070079Y0112283D01*
X0070940Y0113381D02*
X0070940Y0115625D01*
X0069961Y0112402D02*
X0070079Y0112283D01*
X0079921Y0096063D02*
X0079921Y0112362D01*
X0047584Y0074463D02*
X0047584Y0074606D01*
X0047638Y0077953D02*
X0050197Y0080512D01*
X0047584Y0074463D02*
X0050984Y0071063D01*
X0050197Y0080512D02*
X0053145Y0080512D01*
X0050984Y0071063D02*
X0055118Y0071063D01*
X0055118Y0071063D01*
X0053145Y0080512D02*
X0053527Y0080130D01*
X0056901Y0080130D01*
X0055098Y0067520D02*
X0059133Y0067520D01*
X0052933Y0069685D02*
X0055098Y0067520D01*
X0041339Y0069685D02*
X0052933Y0069685D01*
X0039567Y0068307D02*
X0052362Y0068307D01*
X0055315Y0065354D02*
X0064382Y0065354D01*
X0052362Y0068307D02*
X0055315Y0065354D01*
X0023228Y0026969D02*
X0033858Y0026969D01*
X0018898Y0022638D02*
X0023228Y0026969D01*
X0023032Y0014961D02*
X0033661Y0014961D01*
X0059921Y0068307D02*
X0064382Y0068307D01*
X0059133Y0067520D02*
X0059921Y0068307D01*
X0069685Y0285039D02*
X0070276Y0285630D01*
X0070276Y0290158D01*
X0050000Y0029907D02*
X0050000Y0036220D01*
X0050000Y0029907D02*
X0053726Y0026181D01*
X0048425Y0037795D02*
X0050000Y0036220D01*
X0045669Y0037795D02*
X0048425Y0037795D01*
X0041929Y0040551D02*
X0055709Y0040551D01*
X0035236Y0040551D02*
X0041929Y0040551D01*
X0041732Y0040354D02*
X0041929Y0040551D01*
X0041732Y0037795D02*
X0041732Y0040354D01*
X0034823Y0042913D02*
X0048031Y0042913D01*
X0119882Y-0017520D02*
X0119921Y-0017559D01*
X0036417Y0074606D02*
X0041339Y0069685D01*
X0036811Y0071063D02*
X0039567Y0068307D01*
X0034843Y0074606D02*
X0036417Y0074606D01*
X0020276Y0046654D02*
X0048047Y0046654D01*
X0053756Y0033267D02*
X0053756Y0037189D01*
X0052559Y0038386D02*
X0053756Y0037189D01*
X0047835Y0046866D02*
X0047835Y0047835D01*
X0047835Y0046866D02*
X0048047Y0046654D01*
X0053740Y0033252D02*
X0053756Y0033267D01*
X0053740Y0029724D02*
X0053740Y0033252D01*
X0016624Y0046152D02*
X0018878Y0043898D01*
X0015157Y0045669D02*
X0018307Y0042520D01*
X0033268Y0042520D02*
X0035236Y0040551D01*
X0018307Y0042520D02*
X0033268Y0042520D01*
X0033838Y0043898D02*
X0034823Y0042913D01*
X0018878Y0043898D02*
X0033838Y0043898D01*
X0034449Y0045276D02*
X0034843Y0044882D01*
X0053740Y0015748D02*
X0053740Y0019291D01*
X0047835Y0042717D02*
X0048031Y0042913D01*
X0057087Y0045866D02*
X0058071Y0046850D01*
X0058287Y0046850D01*
X0048031Y0042913D02*
X0053917Y0042913D01*
X0049606Y0044882D02*
X0050000Y0045275D01*
X0034843Y0044882D02*
X0049606Y0044882D01*
X0052953Y0020079D02*
X0053740Y0019291D01*
X0052165Y0020079D02*
X0052953Y0020079D01*
X0057677Y0022835D02*
X0058464Y0023622D01*
X0064370Y0023622D01*
X0064370Y0023622D01*
X0050393Y0044882D02*
X0053917Y0044882D01*
X0050000Y0045275D02*
X0050393Y0044882D01*
X0048834Y0047441D02*
X0051969Y0047441D01*
X0052559Y0046850D01*
X0053917Y0046850D01*
X0055709Y0040551D02*
X0057087Y0041929D01*
X0057087Y0045866D01*
X0018002Y0046979D02*
X0019705Y0045276D01*
X0034449Y0045276D01*
X0019685Y0047244D02*
X0020276Y0046654D01*
X0053937Y0049409D02*
X0064567Y0049409D01*
X0051181Y0021063D02*
X0052165Y0020079D01*
X0063583Y0016929D02*
X0064370Y0017717D01*
X0057677Y0019094D02*
X0057691Y0019094D01*
X0059266Y0020669D01*
X0064370Y0020669D01*
X0057677Y0029724D02*
X0057677Y0029724D01*
X0060827Y0029724D01*
X0061811Y0028740D01*
X0062008Y0028937D01*
X0062008Y0028937D01*
X0067323Y0043985D02*
X0067323Y0046654D01*
X0064567Y0049409D02*
X0067323Y0046654D01*
X0060256Y0042913D02*
X0060453Y0042716D01*
X0066054Y0042716D02*
X0067323Y0043985D01*
X0065157Y0029134D02*
X0065158Y0029134D01*
X0065158Y0042716D01*
X0053726Y0026181D02*
X0053740Y0026181D01*
X0053740Y0026181D01*
X0053740Y0022835D02*
X0053740Y0026181D01*
X0047835Y0029921D02*
X0047835Y0034055D01*
X0051181Y0021063D02*
X0051181Y0026575D01*
X0047835Y0029921D02*
X0051181Y0026575D01*
X0019685Y0047244D02*
X0019685Y0051181D01*
X0018002Y0046979D02*
X0018002Y0051899D01*
X0015157Y0045669D02*
X0015157Y0049620D01*
X0016624Y0046152D02*
X0016624Y0050103D01*
X0012789Y0053937D02*
X0016624Y0050103D01*
X0012219Y0052559D02*
X0015157Y0049620D01*
X0006693Y0072677D02*
X0010630Y0076614D01*
X0008071Y0064449D02*
X0010630Y0067008D01*
X0008071Y0055419D02*
X0008071Y0064449D01*
X0008071Y0055419D02*
X0009553Y0053937D01*
X0012789Y0053937D01*
X0018002Y0051899D02*
X0023110Y0057008D01*
X0006693Y0052559D02*
X0006693Y0072677D01*
X0006693Y0052559D02*
X0012219Y0052559D01*
X0019685Y0051181D02*
X0021457Y0052953D01*
X0025787Y0052953D01*
X0026969Y0054134D01*
X0026969Y0059842D01*
X0010630Y0057402D02*
X0014252Y0061024D01*
X0025787Y0061024D01*
X0026969Y0059842D01*
X0056285Y0016929D02*
X0063583Y0016929D01*
X0055709Y0017506D02*
X0056285Y0016929D01*
X0055709Y0017506D02*
X0055709Y0040551D01*
X0018898Y0019094D02*
X0023032Y0014961D01*
X0119921Y-0017559D02*
X0119921Y-0008110D01*
X0129921Y-0017559D02*
X0129921Y-0009843D01*
X0126771Y-0007086D02*
X0126771Y-0006693D01*
X0126771Y-0007086D02*
X0129921Y-0009843D01*
X0097638Y0029724D02*
X0097638Y0032480D01*
X0099803Y0034646D01*
X0093504Y0028543D02*
X0094685Y0029724D01*
X0097638Y0029724D01*
X0089961Y0024606D02*
X0093504Y0024606D01*
X0108760Y0029626D02*
X0114961Y0029626D01*
X0112303Y0023917D02*
X0114961Y0023917D01*
X0110433Y0025787D02*
X0112303Y0023917D01*
X0108661Y0025787D02*
X0110433Y0025787D01*
X0117913Y-0006102D02*
X0119921Y-0008110D01*
X0113976Y-0006102D02*
X0117913Y-0006102D01*
X0111417Y-0003543D02*
X0113976Y-0006102D01*
X0097835Y0000197D02*
X0099213Y0001575D01*
X0107874Y0001575D01*
X0111417Y-0001969D01*
X0111417Y-0003543D02*
X0111417Y-0001969D01*
X0094094Y0024016D02*
X0094291Y0023819D01*
X0097638Y0000394D02*
X0097835Y0000197D01*
X0095866Y0000394D02*
X0097638Y0000394D01*
X0093504Y0024606D02*
X0094094Y0024016D01*
X0094094Y0016732D02*
X0094094Y0024016D01*
X0094291Y0023819D02*
X0097638Y0023819D01*
D15*
X0190157Y0121850D02*
X0190512Y0121850D01*
X0195447Y0116915D01*
X0195447Y0111837D02*
X0195447Y0116915D01*
X0195447Y0111837D02*
X0199803Y0107480D01*
X0189961Y0146653D02*
X0189961Y0151575D01*
X0162795Y0129724D02*
X0162795Y0145079D01*
X0168307Y0150591D01*
X0156496Y0123425D02*
X0162795Y0129724D01*
X0168307Y0150591D02*
X0179575Y0150591D01*
X0179921Y0146653D02*
X0179921Y0150245D01*
X0179575Y0150591D02*
X0179921Y0150245D01*
X0139370Y0112598D02*
X0140354Y0112598D01*
X0144291Y0116535D01*
X0144291Y0121063D01*
X0146653Y0123425D01*
X0156496Y0123425D01*
X0164567Y0127795D02*
X0164567Y0143898D01*
X0167177Y0146507D02*
X0169933Y0146507D01*
X0164567Y0143898D02*
X0167177Y0146507D01*
X0164567Y0127795D02*
X0169961Y0122402D01*
X0169933Y0146507D02*
X0170079Y0146653D01*
X0184646Y0117087D02*
X0190197Y0122638D01*
X0184646Y0093701D02*
X0184646Y0117087D01*
X0173425Y0082480D02*
X0184646Y0093701D01*
X0127559Y0082480D02*
X0173425Y0082480D01*
X0120079Y0089961D02*
X0127559Y0082480D01*
X0180591Y0123031D02*
X0181102Y0123031D01*
X0174606Y0117047D02*
X0180591Y0123031D01*
X0174606Y0091142D02*
X0174606Y0117047D01*
X0169095Y0085630D02*
X0174606Y0091142D01*
X0144291Y0085630D02*
X0169095Y0085630D01*
X0140157Y0089764D02*
X0144291Y0085630D01*
X0154735Y0117176D02*
X0164735Y0117176D01*
X0170000Y0122441D01*
X0149961Y0112402D02*
X0154735Y0117176D01*
X0169961Y0112402D02*
X0170020Y0112343D01*
X0170020Y0093563D02*
X0170079Y0093504D01*
X0170020Y0093563D02*
X0170020Y0112343D01*
X0159961Y0112402D02*
X0160098Y0112264D01*
X0160098Y0093445D02*
X0160236Y0093307D01*
X0160098Y0093445D02*
X0160098Y0112264D01*
X0149980Y0089784D02*
X0149980Y0112382D01*
X0149980Y0089784D02*
X0150000Y0089764D01*
X0149961Y0112402D02*
X0149980Y0112382D01*
X0140059Y0089862D02*
X0140059Y0111909D01*
X0139960Y0112008D02*
X0140059Y0111909D01*
X0140059Y0089862D02*
X0140157Y0089764D01*
X0130039Y0090039D02*
X0130039Y0112244D01*
X0130039Y0090039D02*
X0130118Y0089961D01*
X0129921Y0112362D02*
X0130039Y0112244D01*
X0120020Y0090020D02*
X0120020Y0112185D01*
X0120020Y0090020D02*
X0120079Y0089961D01*
X0119882Y0112323D02*
X0120020Y0112185D01*
X0056102Y0311417D02*
X0056791Y0310728D01*
X0056791Y0310531D02*
X0056791Y0310728D01*
X0056791Y0310531D02*
X0061417Y0305906D01*
X0061417Y0300984D02*
X0061417Y0305906D01*
X0055905Y0311417D02*
X0056102Y0311417D01*
X0068307Y0305906D02*
X0068307Y0310827D01*
X0067716Y0318110D02*
X0067716Y0318110D01*
X0067716Y0315354D02*
X0067716Y0318110D01*
X0061949Y0282677D02*
X0067323Y0282677D01*
X0068307Y0289961D02*
X0068504Y0290158D01*
X0068307Y0286762D02*
X0068307Y0289961D01*
X0067323Y0285778D02*
X0068307Y0286762D01*
X0067323Y0282678D02*
X0067323Y0285778D01*
X0067716Y0315355D02*
X0067716Y0315354D01*
X0063780Y0315355D02*
X0067716Y0315355D01*
X0063779Y0311417D02*
X0063779Y0311417D01*
X0059842Y0311417D02*
X0063779Y0311417D01*
X0063977Y0311417D02*
X0066339Y0309056D01*
X0066339Y0305906D02*
X0066339Y0309056D01*
X0067716Y0311417D02*
X0068307Y0310827D01*
D40*
X0178347Y0277559D02*
D03*
X0030512Y-0004134D02*
D03*
X0203937Y0337795D02*
D03*
D67*
X0039961Y0112402D02*
D03*
X0039921Y-0017559D02*
D03*
X0049961Y0112402D02*
D03*
X0059961Y0112402D02*
D03*
X0069961Y0112402D02*
D03*
X0079961Y0112402D02*
D03*
X0089961Y0112402D02*
D03*
X0099961Y0112402D02*
D03*
X0109961Y0112402D02*
D03*
X0119961Y0112402D02*
D03*
X0129961Y0112402D02*
D03*
X0139961Y0112402D02*
D03*
X0149961Y0112402D02*
D03*
X0159961Y0112402D02*
D03*
X0169961Y0112402D02*
D03*
X0179961Y0112402D02*
D03*
X0179921Y-0017559D02*
D03*
X0169921Y-0017559D02*
D03*
X0159921Y-0017559D02*
D03*
X0149921Y-0017559D02*
D03*
X0139921Y-0017559D02*
D03*
X0129921Y-0017559D02*
D03*
X0119921Y-0017559D02*
D03*
X0109921Y-0017559D02*
D03*
X0099921Y-0017559D02*
D03*
X0089921Y-0017559D02*
D03*
X0079921Y-0017559D02*
D03*
X0069921Y-0017559D02*
D03*
X0059921Y-0017559D02*
D03*
X0049921Y-0017559D02*
D03*
D68*
X0119961Y0332422D02*
D03*
X0109961Y0332422D02*
D03*
X0129961Y0332422D02*
D03*
D75*
X0189961Y0112402D02*
D03*
X0189921Y-0017559D02*
D03*
D79*
X0182480Y0308465D02*
D03*
X0170079Y0308465D02*
D03*
X0089961Y0028543D02*
D03*
X0067323Y0278741D02*
D03*
X0059842Y0315354D02*
D03*
X0055905Y0315354D02*
D03*
X0061949Y0278740D02*
D03*
X0044685Y0145079D02*
D03*
X0089961Y0024606D02*
D03*
X0182480Y0312402D02*
D03*
X0049213Y0149016D02*
D03*
X0049213Y0145079D02*
D03*
X0093504Y0028543D02*
D03*
X0093504Y0024606D02*
D03*
X0067716Y0315354D02*
D03*
X0067716Y0311417D02*
D03*
X0059842Y0311417D02*
D03*
X0063780Y0311418D02*
D03*
X0063780Y0315355D02*
D03*
X0170079Y0312402D02*
D03*
X0061949Y0282677D02*
D03*
X0067323Y0282678D02*
D03*
X0055905Y0311417D02*
D03*
X0044685Y0149016D02*
D03*
D81*
X0274213Y0228543D02*
D03*
X0194413Y0047441D02*
D03*
D83*
X0065945Y0141732D02*
D03*
X0071653Y0141732D02*
D03*
D87*
X0216535Y0321654D02*
D03*
X0216535Y0311024D02*
D03*
X0119685Y0314173D02*
D03*
X0050394Y0332677D02*
D03*
X0052362Y0168307D02*
D03*
X0066929Y0133268D02*
D03*
X0204724Y0321654D02*
D03*
X0204724Y0311024D02*
D03*
X0062205Y0332677D02*
D03*
X0078740Y0133268D02*
D03*
X0131496Y0314173D02*
D03*
X0064173Y0168307D02*
D03*
X0071653Y0332677D02*
D03*
X0083465Y0332677D02*
D03*
D95*
X0046063Y0160138D02*
D03*
X0059449Y0135433D02*
D03*
X0170079Y0140945D02*
D03*
X0013583Y0184744D02*
D03*
X0013583Y0190453D02*
D03*
X0114961Y0023917D02*
D03*
X0114961Y0029626D02*
D03*
X0170079Y0146653D02*
D03*
X0059449Y0141142D02*
D03*
X0105118Y-0006594D02*
D03*
X0105118Y-0000886D02*
D03*
X0209842Y0140945D02*
D03*
X0209842Y0146653D02*
D03*
X0199803Y0140945D02*
D03*
X0199803Y0146653D02*
D03*
X0189961Y0140945D02*
D03*
X0189961Y0146653D02*
D03*
X0179921Y0140945D02*
D03*
X0179921Y0146653D02*
D03*
X0046063Y0154429D02*
D03*
D99*
X0010345Y0004843D02*
D03*
X0010345Y0038858D02*
D03*
D100*
X0026801Y0038858D02*
D03*
X0026801Y0004843D02*
D03*
D101*
X0035630Y0032874D02*
X0041339Y0032874D01*
X0054921Y0075669D02*
X0059331Y0075669D01*
X0062176Y0036585D02*
X0062598Y0037008D01*
X0059331Y0075669D02*
X0059449Y0075787D01*
X0101772Y0019291D02*
X0101772Y0025984D01*
X0170177Y0304429D02*
X0170472Y0304134D01*
X0163189Y0317333D02*
X0163189Y0319006D01*
X0162008Y0316152D02*
X0162008Y0319006D01*
X0182579Y0304035D02*
X0182579Y0308366D01*
X0187205Y0316732D02*
X0187205Y0319006D01*
X0188386Y0315551D02*
X0188386Y0319006D01*
X0188386Y0315551D02*
X0189370Y0314567D01*
X0187205Y0316732D02*
X0188386Y0315551D01*
X0182579Y0304035D02*
X0182677Y0303937D01*
X0162008Y0316152D02*
X0163189Y0317333D01*
X0182480Y0308465D02*
X0182579Y0308366D01*
X0170079Y0308465D02*
X0170177Y0308366D01*
X0160029Y0314173D02*
X0162008Y0316152D01*
X0170177Y0304429D02*
X0170177Y0308366D01*
X0159843Y0314173D02*
X0160029Y0314173D01*
X0081102Y0295079D02*
X0082087Y0295079D01*
X0084252Y0292520D02*
X0084252Y0292913D01*
X0082087Y0295079D02*
X0084252Y0292913D01*
X0101772Y0016535D02*
X0101772Y0019291D01*
X0066339Y0290158D02*
X0066339Y0293110D01*
X0044488Y0145079D02*
X0044685Y0145079D01*
X0023110Y0077008D02*
X0023110Y0082598D01*
X0023031Y0082677D02*
X0023110Y0082598D01*
X0065157Y0044882D02*
X0065157Y0044882D01*
X0060256Y0044882D02*
X0065157Y0044882D01*
X0059567Y0058346D02*
X0059646Y0058268D01*
X0060798Y0036585D02*
X0062176Y0036585D01*
X0057677Y0033268D02*
X0057677Y0033465D01*
X0054921Y0058346D02*
X0059567Y0058346D01*
X0057677Y0033465D02*
X0060798Y0036585D01*
X0014961Y0131755D02*
X0014961Y0157087D01*
X0027165Y0164961D02*
X0027165Y0167520D01*
X0021654Y0163779D02*
X0025984Y0163779D01*
X0014961Y0157087D02*
X0021654Y0163779D01*
X0025984Y0163779D02*
X0027165Y0164961D01*
X0014961Y0131755D02*
X0024078Y0122638D01*
X0072638Y0122638D01*
X0078740Y0128740D02*
X0078740Y0133268D01*
X0072638Y0122638D02*
X0078740Y0128740D01*
X0091142Y0043701D02*
X0094095Y0043701D01*
X0079056Y0031615D02*
X0091142Y0043701D01*
X0079056Y0030041D02*
X0079056Y0031615D01*
X0078448Y0034353D02*
X0085433Y0041339D01*
X0078937Y0029921D02*
X0079056Y0030041D01*
X0078448Y0034347D02*
X0078448Y0034353D01*
X0185236Y0313189D02*
X0185236Y0319006D01*
X0185236Y0313189D02*
X0188386Y0310039D01*
X0184055Y0316339D02*
X0184055Y0319006D01*
X0184055Y0316339D02*
X0184843Y0315551D01*
X0182087Y0316987D02*
X0182087Y0319006D01*
X0182480Y0312402D02*
X0182480Y0315408D01*
X0182283Y0315605D02*
X0182480Y0315408D01*
X0182087Y0316987D02*
X0182283Y0316790D01*
X0182283Y0315605D02*
X0182283Y0316790D01*
X0165157Y0313386D02*
X0165157Y0319006D01*
X0166339Y0314886D02*
X0166339Y0319006D01*
X0165157Y0313386D02*
X0165157Y0313386D01*
X0165157Y0313705D02*
X0166339Y0314886D01*
X0165157Y0313386D02*
X0165157Y0313705D01*
X0170079Y0312402D02*
X0170079Y0317136D01*
X0170276Y0317333D01*
X0170276Y0319006D01*
X0041339Y0032874D02*
X0048425Y0025787D01*
X0099921Y-0017559D02*
X0099921Y-0011792D01*
X0105118Y-0006594D01*
X0105118Y-0000886D02*
X0109921Y-0005689D01*
X0109921Y-0017559D02*
X0109921Y-0005689D01*
D102*
X0013386Y0177165D02*
X0013386Y0183858D01*
D103*
X0047047Y0168307D02*
X0052362Y0168307D01*
X0046049Y0160152D02*
X0046063Y0160138D01*
X0046063Y0162795D02*
X0046063Y0162795D01*
X0046049Y0162781D02*
X0046063Y0162795D01*
X0046049Y0160152D02*
X0046049Y0162781D01*
X0054255Y0137917D02*
X0055633Y0137917D01*
X0055709Y0137992D01*
X0052953Y0130905D02*
X0052953Y0136614D01*
X0054255Y0137917D01*
X0052165Y0130118D02*
X0052953Y0130905D01*
D104*
X0169882Y-0017520D02*
X0169921Y-0017559D01*
X0192018Y0337687D02*
X0192126Y0337795D01*
X0158189Y0337687D02*
X0192018Y0337687D01*
X0204724Y0310630D02*
X0204724Y0310630D01*
X0204724Y0321654D01*
X0192416Y0321442D02*
X0204907Y0321442D01*
X0192205Y0321230D02*
X0192416Y0321442D01*
X0192205Y0321230D02*
X0192205Y0337687D01*
X0158189Y0319370D02*
X0158268Y0319291D01*
X0158189Y0319370D02*
X0158189Y0337687D01*
D105*
X0178543Y0310236D02*
X0178543Y0312996D01*
X0175591Y0310236D02*
X0175737Y0310383D01*
X0175737Y0312946D01*
X0176246Y0313455D01*
X0176246Y0315158D01*
X0178084Y0315158D02*
X0178084Y0318941D01*
X0178084Y0313455D02*
X0178543Y0312996D01*
X0178084Y0313455D02*
X0178084Y0315158D01*
X0176246Y0315158D02*
X0176246Y0318941D01*
X0172244Y0315754D02*
X0172841Y0315158D01*
X0172244Y0315754D02*
X0172244Y0319006D01*
X0172841Y0315158D02*
X0176181Y0315158D01*
X0174891Y0322916D02*
X0177275Y0322916D01*
X0177872Y0322319D01*
X0174294Y0322319D02*
X0174891Y0322916D01*
X0177872Y0319741D02*
X0177872Y0322319D01*
X0174294Y0319087D02*
X0174294Y0322319D01*
X0176181Y0319006D02*
X0176246Y0318941D01*
X0178084Y0318941D02*
X0178150Y0319006D01*
X0177872Y0319741D02*
X0178068Y0319544D01*
X0174213Y0319006D02*
X0174294Y0319087D01*
D107*
X0074803Y0177165D02*
D03*
X0033071Y0177165D02*
D03*
D108*
X0169961Y0132402D02*
D03*
X0209961Y0122402D02*
D03*
X0199961Y0122402D02*
D03*
X0199961Y0132402D02*
D03*
X0189961Y0122402D02*
D03*
X0189961Y0132402D02*
D03*
X0179961Y0122402D02*
D03*
X0179961Y0132402D02*
D03*
X0169961Y0122402D02*
D03*
D109*
X0139961Y0332422D02*
D03*
D110*
X0158189Y0321230D02*
D03*
X0192205Y0321230D02*
D03*
D03*
X0158189Y0321230D02*
D03*
D111*
X0158189Y0337687D02*
D03*
X0192205Y0337687D02*
D03*
X0158189Y0337687D02*
D03*
X0192205Y0337687D02*
D03*
D112*
X0055118Y0177165D02*
D03*
X0013386Y0177165D02*
D03*
D113*
X0209961Y0132402D02*
D03*
D114*
X0220866Y0321654D02*
D03*
X0248622Y0322835D02*
D03*
X0233862Y0342573D02*
D03*
X0228937Y0343110D02*
D03*
X0213583Y0342913D02*
D03*
X0248622Y0343307D02*
D03*
X0210630Y0204724D02*
D03*
X0171063Y0204921D02*
D03*
X0182283Y0204921D02*
D03*
X0183071Y0284055D02*
D03*
X0167717Y0284055D02*
D03*
X0192402Y0345748D02*
D03*
X0222638Y0311220D02*
D03*
X0193110Y0286614D02*
D03*
X0193110Y0274803D02*
D03*
X0273031Y0247244D02*
D03*
X0263583Y0214173D02*
D03*
X0262992Y0242717D02*
D03*
X0256496Y0234449D02*
D03*
X0256299Y0224213D02*
D03*
X0189370Y0314567D02*
D03*
X0193110Y0310039D02*
D03*
X0182677Y0304331D02*
D03*
X0193110Y0298228D02*
D03*
X0180590Y0345748D02*
D03*
X0168780Y0345748D02*
D03*
X0170276Y0304331D02*
D03*
X0121535Y0345748D02*
D03*
X0109724Y0345748D02*
D03*
X0145157Y0345748D02*
D03*
X0133346Y0345748D02*
D03*
X0086102Y0345748D02*
D03*
X0074291Y0345748D02*
D03*
X0097913Y0345748D02*
D03*
X0159843Y0314173D02*
D03*
X0156968Y0345748D02*
D03*
X0136221Y0248228D02*
D03*
X0114961Y0252362D02*
D03*
X0114961Y0261811D02*
D03*
X0101575Y0261811D02*
D03*
X0101575Y0252756D02*
D03*
X0117126Y0236417D02*
D03*
X0101575Y0232480D02*
D03*
X0118110Y0220472D02*
D03*
X0101575Y0223622D02*
D03*
X0101378Y0241535D02*
D03*
X0076968Y0301575D02*
D03*
X0074213Y0297835D02*
D03*
X0076968Y0294291D02*
D03*
X0084252Y0292520D02*
D03*
X0273819Y0209842D02*
D03*
X0193110Y0169488D02*
D03*
X0193110Y0157677D02*
D03*
X0150197Y0119882D02*
D03*
X0140157Y0119882D02*
D03*
X0160039Y0119882D02*
D03*
X0224016Y0112205D02*
D03*
X0223622Y0096063D02*
D03*
X0131299Y0154134D02*
D03*
X0126969Y0154134D02*
D03*
X0119685Y0213386D02*
D03*
X0116732Y0196063D02*
D03*
X0122638Y0154134D02*
D03*
X0137795Y0137795D02*
D03*
X0131299Y0149803D02*
D03*
X0129921Y0119882D02*
D03*
X0126969Y0149803D02*
D03*
X0122638Y0149803D02*
D03*
X0120079Y0119882D02*
D03*
X0223622Y0089764D02*
D03*
X0193189Y0060709D02*
D03*
X0193189Y0034173D02*
D03*
X0182087Y0019291D02*
D03*
X0192402Y-0025079D02*
D03*
X0181102Y0047244D02*
D03*
X0178347Y0019291D02*
D03*
X0144226Y-0012598D02*
D03*
X0123622Y-0010039D02*
D03*
X0115748Y-0008661D02*
D03*
X0134646Y-0012598D02*
D03*
X0168780Y-0025079D02*
D03*
X0156968Y-0025079D02*
D03*
X0180590Y-0025079D02*
D03*
X0133346Y-0025079D02*
D03*
X0121535Y-0025079D02*
D03*
X0145157Y-0025079D02*
D03*
X0102559Y0203740D02*
D03*
X0101772Y0213583D02*
D03*
X0110236Y0119882D02*
D03*
X0102362Y0195276D02*
D03*
X0100000Y0119882D02*
D03*
X0110630Y0075590D02*
D03*
X0105512Y0026772D02*
D03*
X0100787Y0042913D02*
D03*
X0100984Y0026772D02*
D03*
X0089961Y0195079D02*
D03*
X0090158Y0119882D02*
D03*
X0079912Y0119937D02*
D03*
X0083465Y0050197D02*
D03*
X0093110Y0039567D02*
D03*
X0083268Y0044488D02*
D03*
X0077362Y0037093D02*
D03*
X0101772Y0016535D02*
D03*
X0101772Y0019291D02*
D03*
X0109724Y-0025079D02*
D03*
X0102362Y0008858D02*
D03*
X0077559Y0026969D02*
D03*
X0077362Y0018110D02*
D03*
X0092716Y0008661D02*
D03*
X0086102Y-0025079D02*
D03*
X0086024Y-0004134D02*
D03*
X0097913Y-0025079D02*
D03*
X0074606Y0007874D02*
D03*
X0073819Y-0003543D02*
D03*
X0074291Y-0025079D02*
D03*
X0071260Y0301575D02*
D03*
X0071260Y0294291D02*
D03*
X0068307Y0297835D02*
D03*
X0065551Y0301575D02*
D03*
X0062480Y0345748D02*
D03*
X0065551Y0294291D02*
D03*
X0068701Y0265945D02*
D03*
X0068701Y0268898D02*
D03*
X0067323Y0274803D02*
D03*
X0050669Y0345748D02*
D03*
X0050787Y0310236D02*
D03*
X0047244Y0168307D02*
D03*
X0046063Y0162795D02*
D03*
X0064370Y0159449D02*
D03*
X0069882Y0119882D02*
D03*
X0063976Y0096850D02*
D03*
X0061811Y0131299D02*
D03*
X0060236Y0119882D02*
D03*
X0059252Y0131299D02*
D03*
X0054528Y0102756D02*
D03*
X0050197Y0119882D02*
D03*
X0046457Y0094488D02*
D03*
X0038976Y0310236D02*
D03*
X0038858Y0345748D02*
D03*
X0027047Y0345748D02*
D03*
X0027165Y0310236D02*
D03*
X0043701Y0139370D02*
D03*
X0002677Y0285748D02*
D03*
X0019488Y0144291D02*
D03*
X0002677Y0273937D02*
D03*
X0002677Y0309370D02*
D03*
X0002677Y0321181D02*
D03*
X0002677Y0297559D02*
D03*
X0023425Y0137008D02*
D03*
X0023425Y0133268D02*
D03*
X0019488Y0137008D02*
D03*
X0019488Y0140748D02*
D03*
X0019488Y0133268D02*
D03*
X0039961Y0119882D02*
D03*
X0027047Y0119961D02*
D03*
X0026772Y0094488D02*
D03*
X0002677Y0093976D02*
D03*
X0002677Y0119488D02*
D03*
X0023031Y0082677D02*
D03*
X0002677Y0082165D02*
D03*
X0059646Y0058268D02*
D03*
X0059252Y0075787D02*
D03*
X0065157Y0044882D02*
D03*
X0062402Y0036811D02*
D03*
X0067520Y0036811D02*
D03*
X0067716Y0015748D02*
D03*
X0062205Y-0010630D02*
D03*
X0053543Y-0005118D02*
D03*
X0062480Y-0025079D02*
D03*
X0050669Y-0025079D02*
D03*
X0047835Y0019685D02*
D03*
X0048031Y0012795D02*
D03*
X0037992Y0048819D02*
D03*
X0021850Y0048819D02*
D03*
X0002677Y0070354D02*
D03*
X0002677Y0058543D02*
D03*
X0008465Y0047244D02*
D03*
X0037992Y0037992D02*
D03*
X0032874Y0037598D02*
D03*
X0035236Y0009252D02*
D03*
X0035433Y-0000591D02*
D03*
X0032677Y-0012205D02*
D03*
X0038858Y-0025079D02*
D03*
X0020866Y0009055D02*
D03*
X0027047Y-0025079D02*
D03*
X0014961Y0026378D02*
D03*
X0002677Y0047126D02*
D03*
X0002677Y0034921D02*
D03*
X0014961Y0015157D02*
D03*
X0002677Y0011299D02*
D03*
X0002677Y0023110D02*
D03*
X0002677Y-0000512D02*
D03*
X0183071Y0289764D02*
D03*
X0167913Y0289764D02*
D03*
X0057819Y0162063D02*
D03*
X0025984Y0157677D02*
D03*
X0029638Y0157696D02*
D03*
X0077016Y0079772D02*
D03*
X0076877Y0082315D02*
D03*
X0079724Y0047441D02*
D03*
X0067096Y0148040D02*
D03*
X0055709Y0137992D02*
D03*
X0067323Y0150984D02*
D03*
X0031496Y0167520D02*
D03*
X0060827Y0162008D02*
D03*
X0071457Y0169291D02*
D03*
X0069291Y0171063D02*
D03*
X0050591Y0155413D02*
D03*
X0023228Y0171260D02*
D03*
X0142323Y0251969D02*
D03*
X0146653Y0251378D02*
D03*
X0199803Y0107480D02*
D03*
X0189961Y0151575D02*
D03*
X0200000Y0112205D02*
D03*
X0199803Y0151181D02*
D03*
X0138201Y0163976D02*
D03*
X0134055Y0159982D02*
D03*
X0168504Y0241339D02*
D03*
X0168504Y0246457D02*
D03*
X0169488Y0250394D02*
D03*
X0113386Y0169882D02*
D03*
X0108071Y0169882D02*
D03*
X0170079Y0093504D02*
D03*
X0160236Y0093307D02*
D03*
X0150000Y0089764D02*
D03*
X0140157Y0089764D02*
D03*
X0130118Y0089961D02*
D03*
X0120079Y0089961D02*
D03*
X0178543Y0005315D02*
D03*
X0182087Y0005315D02*
D03*
X0178543Y0008563D02*
D03*
X0182087Y0008563D02*
D03*
X0182087Y0011811D02*
D03*
X0178543Y0011811D02*
D03*
X0146457Y0011024D02*
D03*
X0146457Y0007480D02*
D03*
X0143209Y0007480D02*
D03*
X0143209Y0011024D02*
D03*
X0139961Y0007480D02*
D03*
X0139961Y0011024D02*
D03*
X0112402Y0055118D02*
D03*
X0112598Y0051772D02*
D03*
X0109252Y0051772D02*
D03*
X0105709Y0051772D02*
D03*
X0109252Y0055118D02*
D03*
X0094095Y0043701D02*
D03*
X0078448Y0034347D02*
D03*
X0142348Y0159982D02*
D03*
X0138201Y0159982D02*
D03*
X0142348Y0163976D02*
D03*
X0134055Y0163976D02*
D03*
X0076378Y0139567D02*
D03*
X0083465Y0139764D02*
D03*
X0079921Y0139764D02*
D03*
X0122638Y0134449D02*
D03*
X0131299Y0134449D02*
D03*
X0126969Y0134449D02*
D03*
X0131299Y0130118D02*
D03*
X0126969Y0130118D02*
D03*
X0094685Y0050984D02*
D03*
X0094685Y0054331D02*
D03*
X0094685Y0057677D02*
D03*
X0098032Y0054331D02*
D03*
X0098032Y0050984D02*
D03*
X0033800Y0157696D02*
D03*
X0037963Y0157696D02*
D03*
X0042126Y0153956D02*
D03*
X0070079Y0096260D02*
D03*
X0079921Y0096063D02*
D03*
X0098032Y0057677D02*
D03*
X0132171Y0266535D02*
D03*
X0135630Y0266535D02*
D03*
X0135630Y0260236D02*
D03*
X0135630Y0263386D02*
D03*
X0135630Y0269685D02*
D03*
X0132171Y0269685D02*
D03*
X0120866Y0288189D02*
D03*
X0120866Y0284547D02*
D03*
X0120866Y0280906D02*
D03*
X0124606Y0280906D02*
D03*
X0124606Y0284547D02*
D03*
X0085433Y0321803D02*
D03*
X0081890Y0321803D02*
D03*
X0048228Y0278346D02*
D03*
X0051378Y0281496D02*
D03*
X0054134Y0284252D02*
D03*
X0056693Y0287008D02*
D03*
X0071663Y0322089D02*
D03*
X0071663Y0325632D02*
D03*
X0047584Y0074606D02*
D03*
X0047638Y0077953D02*
D03*
X0055118Y0071063D02*
D03*
X0056901Y0080130D02*
D03*
X0188386Y0310039D02*
D03*
X0165157Y0313386D02*
D03*
X0033858Y0026969D02*
D03*
X0178543Y0310236D02*
D03*
X0175591Y0310236D02*
D03*
X0130905Y0047441D02*
D03*
X0122638Y0130118D02*
D03*
X0124606Y0288189D02*
D03*
X0076378Y0143110D02*
D03*
X0083465Y0143110D02*
D03*
X0079921Y0143110D02*
D03*
X0027559Y0079134D02*
D03*
X0105905Y0055118D02*
D03*
X0033661Y0014961D02*
D03*
X0064382Y0068307D02*
D03*
X0064382Y0065354D02*
D03*
X0089764Y0203937D02*
D03*
X0133071Y0194095D02*
D03*
X0090945Y0305512D02*
D03*
X0090945Y0302362D02*
D03*
X0090945Y0287795D02*
D03*
X0090945Y0291339D02*
D03*
X0094882Y0284252D02*
D03*
X0094882Y0287795D02*
D03*
X0094882Y0291339D02*
D03*
X0094882Y0294882D02*
D03*
X0094882Y0302362D02*
D03*
X0094882Y0305512D02*
D03*
X0094882Y0308661D02*
D03*
X0094882Y0311811D02*
D03*
X0067524Y0322089D02*
D03*
X0063386Y0322089D02*
D03*
X0067524Y0325632D02*
D03*
X0063386Y0325632D02*
D03*
X0059252Y0289764D02*
D03*
X0085433Y0314567D02*
D03*
X0081890Y0314567D02*
D03*
X0085433Y0318185D02*
D03*
X0081890Y0318185D02*
D03*
X0067716Y0318110D02*
D03*
X0069685Y0285039D02*
D03*
X0042126Y0157696D02*
D03*
X0132171Y0263386D02*
D03*
X0132171Y0260236D02*
D03*
X0053347Y0004134D02*
D03*
X0055512Y0009449D02*
D03*
X0052559Y0038386D02*
D03*
X0047835Y0047835D02*
D03*
X0064370Y0020669D02*
D03*
X0064370Y0017717D02*
D03*
X0064370Y0023622D02*
D03*
X0047835Y0042717D02*
D03*
X0047835Y0034055D02*
D03*
X0050000Y0045275D02*
D03*
X0050000Y0036220D02*
D03*
X0077362Y0011417D02*
D03*
X0077362Y0014370D02*
D03*
X0062008Y0028937D02*
D03*
X0065157Y0029134D02*
D03*
X0048425Y0025787D02*
D03*
X0036811Y0071063D02*
D03*
X0034843Y0074606D02*
D03*
X0006102Y0052756D02*
D03*
X0078937Y0029921D02*
D03*
X0035630Y0033465D02*
D03*
X0126771Y-0006693D02*
D03*
X0085433Y0041339D02*
D03*
X0095866Y0000394D02*
D03*
X0094094Y0016732D02*
D03*
D116*
X0188386Y0319006D02*
D03*
X0187205Y0319006D02*
D03*
X0163189Y0319006D02*
D03*
X0162008Y0319006D02*
D03*
X0176181Y0319006D02*
D03*
X0172244Y0319006D02*
D03*
X0165157Y0319006D02*
D03*
X0184055Y0319006D02*
D03*
X0168307Y0319006D02*
D03*
X0182087Y0319006D02*
D03*
X0170276Y0319006D02*
D03*
X0180118Y0319006D02*
D03*
X0178150Y0319006D02*
D03*
X0174213Y0319006D02*
D03*
X0166339Y0319006D02*
D03*
X0185236Y0319006D02*
D03*
D117*
X0081102Y0295079D02*
D03*
X0061417Y0295079D02*
D03*
X0061417Y0297047D02*
D03*
X0061417Y0299016D02*
D03*
X0061417Y0300984D02*
D03*
X0081102Y0300984D02*
D03*
X0081102Y0299016D02*
D03*
X0081102Y0297047D02*
D03*
D118*
X0103150Y0026772D02*
D03*
D119*
X0108661Y0027756D02*
D03*
X0097638Y0027756D02*
D03*
X0097638Y0025787D02*
D03*
X0108661Y0029724D02*
D03*
X0108661Y0025787D02*
D03*
X0108661Y0023819D02*
D03*
X0097638Y0023819D02*
D03*
X0097638Y0029724D02*
D03*
D120*
X0092323Y0034646D02*
D03*
X0098425Y0017717D02*
D03*
X0044685Y0130118D02*
D03*
X0105905Y0017717D02*
D03*
X0052165Y0130118D02*
D03*
X0099803Y0034646D02*
D03*
D121*
X0071260Y0298031D02*
D03*
D122*
X0075197Y0268898D02*
D03*
X0050787Y0304331D02*
D03*
X0038976Y0304331D02*
D03*
X0027165Y0304331D02*
D03*
X0050787Y0292520D02*
D03*
X0038976Y0292520D02*
D03*
X0027165Y0292520D02*
D03*
X0075197Y0280709D02*
D03*
D123*
X0066339Y0290158D02*
D03*
X0070276Y0305906D02*
D03*
X0076181Y0290158D02*
D03*
X0074213Y0290158D02*
D03*
X0072244Y0290158D02*
D03*
X0070276Y0290158D02*
D03*
X0068307Y0290158D02*
D03*
X0066339Y0305906D02*
D03*
X0068307Y0305906D02*
D03*
X0072244Y0305906D02*
D03*
X0074213Y0305906D02*
D03*
X0076181Y0305906D02*
D03*
D124*
X0062795Y0156398D02*
D03*
X0054134Y0156398D02*
D03*
X0054134Y0148524D02*
D03*
X0062795Y0148524D02*
D03*
D125*
X0061811Y0157630D02*
D03*
X0055118Y0157630D02*
D03*
D126*
X0062207Y0154823D02*
D03*
X0062207Y0151673D02*
D03*
X0062207Y0153248D02*
D03*
X0054724Y0154823D02*
D03*
X0054724Y0153248D02*
D03*
D127*
X0049016Y0140945D02*
D03*
X0049016Y0136417D02*
D03*
X0057677Y0033268D02*
D03*
X0057677Y0026181D02*
D03*
X0057677Y0014764D02*
D03*
X0014961Y0019094D02*
D03*
X0014961Y0022638D02*
D03*
X0052953Y0136417D02*
D03*
X0027165Y0167520D02*
D03*
X0023228Y0167520D02*
D03*
X0053740Y0022638D02*
D03*
X0057677Y0022638D02*
D03*
X0053740Y0029724D02*
D03*
X0057677Y0029724D02*
D03*
X0053740Y0019094D02*
D03*
X0057677Y0019094D02*
D03*
X0053740Y0026181D02*
D03*
X0053740Y0033268D02*
D03*
X0053740Y0014764D02*
D03*
X0070276Y0147047D02*
D03*
X0074213Y0147047D02*
D03*
X0018898Y0022638D02*
D03*
X0018898Y0019094D02*
D03*
X0041732Y0037795D02*
D03*
X0045669Y0037795D02*
D03*
X0052953Y0140945D02*
D03*
D128*
X0047244Y0092913D02*
D03*
D129*
X0007874Y0092913D02*
D03*
X0007874Y0048917D02*
D03*
D130*
X0026969Y0092913D02*
D03*
X0026969Y0048917D02*
D03*
D131*
X0060256Y0044882D02*
D03*
X0053917Y0046850D02*
D03*
X0053917Y0042913D02*
D03*
X0053917Y0044882D02*
D03*
X0060256Y0046850D02*
D03*
X0060256Y0042913D02*
D03*
D132*
X0054921Y0075669D02*
D03*
X0054921Y0058346D02*
D03*
D133*
X0043307Y0050886D02*
D03*
D134*
X0023110Y0077008D02*
D03*
X0010630Y0076614D02*
D03*
X0023110Y0067008D02*
D03*
X0010630Y0067008D02*
D03*
X0010630Y0057402D02*
D03*
X0023110Y0057008D02*
D03*
D135*
X0036220Y0050197D02*
D03*
D136*
X0003347Y0062205D02*
D03*
X0003347Y0071811D02*
D03*
D137*
X0055118Y0147390D02*
D03*
X0061811Y0147390D02*
D03*
D138*
X0062957Y0150098D02*
D03*
D139*
X0053937Y0151673D02*
D03*
X0053937Y0150098D02*
D03*
D140*
X0060012Y0158071D02*
D03*
X0058437Y0158071D02*
D03*
X0056862Y0158071D02*
D03*
D141*
X0056862Y0147095D02*
D03*
X0058437Y0147095D02*
D03*
X0060012Y0147095D02*
D03*
D142*
X0050689Y0064842D02*
D03*
D143*
X0158189Y0337687D02*
D03*
D144*
X0137402Y0288676D02*
D03*
D145*
X0133268Y0303176D02*
D03*
X0141535Y0303176D02*
D03*
D146*
X0095472Y0160728D02*
D03*
X0106299Y0160728D02*
D03*
D147*
X0095472Y0151378D02*
D03*
X0106299Y0151378D02*
D03*
D148*
X0077756Y0163858D02*
D03*
X0077756Y0154528D02*
D03*
D149*
X0216535Y0321654D02*
X0216535Y0321654D01*
X0220866Y0321654D01*
X0216535Y0311024D02*
X0222441Y0311024D01*
X0222441Y0311024D01*
M02*
