G04*
G04 #@! TF.GenerationSoftware,Altium Limited,Altium Designer,25.8.1 (18)*
G04*
G04 Layer_Physical_Order=3*
G04 Layer_Color=16440176*
%FSAX25Y25*%
%MOIN*%
G70*
G04*
G04 #@! TF.SameCoordinates,BE805E25-8328-4095-8AD4-E1B6FE3B792C*
G04*
G04*
G04 #@! TF.FilePolarity,Positive*
G04*
G01*
G75*
%ADD67C,0.05906*%
%ADD107C,0.05118*%
%ADD112R,0.05118X0.05118*%
%ADD114C,0.02362*%
G36*
X0084256Y0346434D02*
X0084134Y0346140D01*
X0084134Y0345356D01*
X0084434Y0344633D01*
X0084987Y0344079D01*
X0085711Y0343779D01*
X0086494Y0343779D01*
X0087217Y0344079D01*
X0087598Y0344460D01*
X0088189Y0344216D01*
X0088189Y0313779D01*
X0083465Y0309055D01*
X0071653Y0309055D01*
X0065567Y0315142D01*
X0065567Y0319353D01*
X0065687Y0319473D01*
X0073135Y0319473D01*
X0073442Y0319534D01*
X0073669Y0319685D01*
X0077559Y0319685D01*
X0077559Y0329528D01*
X0052362Y0329528D01*
X0051968Y0329921D01*
X0044882Y0322835D01*
X0044818Y0309976D01*
X0022047Y0287205D01*
X0022047Y0172863D01*
X0021626Y0172441D01*
X0005512Y0172441D01*
X0005512Y0307874D01*
X0017103Y0319465D01*
X0017179Y0319471D01*
X0019304Y0319981D01*
X0021324Y0320817D01*
X0023187Y0321959D01*
X0024849Y0323379D01*
X0026269Y0325041D01*
X0027411Y0326905D01*
X0028247Y0328924D01*
X0028757Y0331049D01*
X0028763Y0331125D01*
X0031890Y0334252D01*
X0044662Y0347024D01*
X0048428Y0347024D01*
X0048823Y0346434D01*
X0048701Y0346140D01*
X0048701Y0345356D01*
X0049000Y0344633D01*
X0049554Y0344079D01*
X0050278Y0343779D01*
X0051061Y0343779D01*
X0051784Y0344079D01*
X0052338Y0344633D01*
X0052638Y0345356D01*
X0052638Y0346140D01*
X0052516Y0346434D01*
X0052911Y0347024D01*
X0060239Y0347024D01*
X0060634Y0346434D01*
X0060512Y0346140D01*
X0060512Y0345356D01*
X0060812Y0344633D01*
X0061365Y0344079D01*
X0062089Y0343779D01*
X0062872Y0343779D01*
X0063595Y0344079D01*
X0064149Y0344633D01*
X0064449Y0345356D01*
X0064449Y0346140D01*
X0064327Y0346434D01*
X0064722Y0347024D01*
X0072050Y0347024D01*
X0072445Y0346434D01*
X0072323Y0346140D01*
X0072323Y0345356D01*
X0072623Y0344633D01*
X0073176Y0344079D01*
X0073900Y0343779D01*
X0074683Y0343779D01*
X0075406Y0344079D01*
X0075960Y0344633D01*
X0076260Y0345356D01*
X0076260Y0346140D01*
X0076138Y0346434D01*
X0076533Y0347024D01*
X0083861Y0347024D01*
X0084256Y0346434D01*
X0084256Y0346434D02*
G37*
G36*
X0190551Y0325601D02*
X0190239Y0325361D01*
X0189797Y0324785D01*
X0189520Y0324115D01*
X0189425Y0323396D01*
X0189425Y0319065D01*
X0189520Y0318345D01*
X0189797Y0317675D01*
X0190112Y0317265D01*
X0190109Y0317031D01*
X0189762Y0316535D01*
X0188979Y0316535D01*
X0188255Y0316236D01*
X0187701Y0315682D01*
X0187402Y0314959D01*
X0187402Y0314175D01*
X0187701Y0313452D01*
X0188255Y0312898D01*
X0188979Y0312598D01*
X0189762Y0312598D01*
X0189961Y0312681D01*
X0190551Y0312286D01*
X0190551Y0307480D01*
X0186221Y0307480D01*
X0185645Y0308055D01*
X0185645Y0311024D01*
X0185630Y0311101D01*
X0185630Y0312008D01*
X0184449Y0312008D01*
X0183480Y0312977D01*
X0183480Y0324213D01*
X0183465Y0324290D01*
X0183465Y0325197D01*
X0182480Y0326181D01*
X0182283Y0325984D01*
X0182029Y0325984D01*
X0181803Y0326135D01*
X0181496Y0326197D01*
X0169882Y0326197D01*
X0169882Y0326197D01*
X0169575Y0326135D01*
X0169348Y0325984D01*
X0168504Y0325984D01*
X0168504Y0326378D01*
X0167913Y0325787D01*
X0167913Y0313143D01*
X0166755Y0311985D01*
X0166581Y0311724D01*
X0166520Y0311417D01*
X0166520Y0311024D01*
X0161614Y0311024D01*
X0161614Y0303346D01*
X0127165Y0268898D01*
X0127165Y0252362D01*
X0103937Y0228740D01*
X0103937Y0224606D01*
X0103347Y0224489D01*
X0103244Y0224737D01*
X0102690Y0225291D01*
X0101966Y0225590D01*
X0101183Y0225590D01*
X0100460Y0225291D01*
X0099906Y0224737D01*
X0099606Y0224014D01*
X0099606Y0223231D01*
X0099906Y0222507D01*
X0100460Y0221953D01*
X0101183Y0221654D01*
X0101966Y0221654D01*
X0102690Y0221953D01*
X0103244Y0222507D01*
X0103347Y0222755D01*
X0103937Y0222638D01*
X0103937Y0214973D01*
X0103791Y0214892D01*
X0103347Y0214792D01*
X0102887Y0215251D01*
X0102163Y0215551D01*
X0101380Y0215551D01*
X0100657Y0215251D01*
X0100103Y0214698D01*
X0099803Y0213974D01*
X0099803Y0213191D01*
X0100103Y0212468D01*
X0100657Y0211914D01*
X0101380Y0211614D01*
X0102163Y0211614D01*
X0102887Y0211914D01*
X0103347Y0212374D01*
X0103791Y0212274D01*
X0103937Y0212193D01*
X0103937Y0208661D01*
X0115242Y0197356D01*
X0115064Y0197178D01*
X0114764Y0196455D01*
X0114764Y0195671D01*
X0115064Y0194948D01*
X0115617Y0194394D01*
X0116341Y0194095D01*
X0117124Y0194095D01*
X0117323Y0194177D01*
X0117913Y0193782D01*
X0117913Y0192525D01*
X0117323Y0192072D01*
X0117121Y0192126D01*
X0116343Y0192126D01*
X0115593Y0191925D01*
X0114919Y0191536D01*
X0114369Y0190986D01*
X0113981Y0190313D01*
X0113779Y0189562D01*
X0113779Y0188785D01*
X0113981Y0188033D01*
X0114369Y0187360D01*
X0114919Y0186811D01*
X0115593Y0186422D01*
X0116343Y0186221D01*
X0117121Y0186221D01*
X0117323Y0186275D01*
X0117913Y0185821D01*
X0117913Y0168898D01*
X0117323Y0168307D01*
X0106496Y0168307D01*
X0105512Y0169291D01*
X0105512Y0182283D01*
X0091649Y0196146D01*
X0091629Y0196194D01*
X0091076Y0196748D01*
X0091028Y0196767D01*
X0086221Y0201575D01*
X0086221Y0222835D01*
X0093307Y0229921D01*
X0093307Y0244882D01*
X0099986Y0251561D01*
X0100460Y0251087D01*
X0101183Y0250787D01*
X0101966Y0250787D01*
X0102690Y0251087D01*
X0103244Y0251641D01*
X0103543Y0252364D01*
X0103543Y0253148D01*
X0103244Y0253871D01*
X0102770Y0254345D01*
X0113752Y0265326D01*
X0114315Y0264763D01*
X0114996Y0264370D01*
X0114837Y0263779D01*
X0114569Y0263779D01*
X0113846Y0263480D01*
X0113292Y0262926D01*
X0112992Y0262203D01*
X0112992Y0261420D01*
X0113292Y0260696D01*
X0113846Y0260142D01*
X0114569Y0259842D01*
X0115352Y0259842D01*
X0116076Y0260142D01*
X0116629Y0260696D01*
X0116929Y0261420D01*
X0116929Y0262203D01*
X0116629Y0262926D01*
X0116139Y0263416D01*
X0116140Y0263423D01*
X0116248Y0263791D01*
X0116351Y0263976D01*
X0117251Y0263976D01*
X0118252Y0264245D01*
X0119150Y0264763D01*
X0119883Y0265496D01*
X0120401Y0266394D01*
X0120669Y0267395D01*
X0120669Y0268432D01*
X0120401Y0269433D01*
X0119883Y0270331D01*
X0119319Y0270894D01*
X0148346Y0299921D01*
X0148228Y0328150D01*
X0152362Y0332283D01*
X0190551Y0332283D01*
X0190551Y0325601D01*
X0190551Y0325601D02*
G37*
G36*
X0182677Y0324213D02*
X0182677Y0312402D01*
X0184055Y0311024D01*
X0184843Y0311024D01*
X0184843Y0301575D01*
X0167717Y0301575D01*
X0167323Y0301969D01*
X0167323Y0311417D01*
X0168898Y0312992D01*
X0168898Y0324410D01*
X0169882Y0325394D01*
X0181496Y0325394D01*
X0182677Y0324213D01*
X0182677Y0324213D02*
G37*
G36*
X0133071Y0286417D02*
X0125787Y0279134D01*
X0111024Y0279134D01*
X0082284Y0250394D01*
X0082284Y0200394D01*
X0087994Y0194684D01*
X0088292Y0193964D01*
X0088846Y0193410D01*
X0089565Y0193112D01*
X0103150Y0179527D01*
X0103150Y0142520D01*
X0096850Y0136221D01*
X0075590Y0136221D01*
X0074213Y0137598D01*
X0074213Y0143701D01*
X0077559Y0147047D01*
X0077559Y0147244D01*
X0085827Y0147244D01*
X0088976Y0150394D01*
X0089764Y0150394D01*
X0089764Y0181496D01*
X0070079Y0201181D01*
X0070079Y0262205D01*
X0092323Y0284449D01*
X0092913Y0284204D01*
X0092913Y0283860D01*
X0093213Y0283137D01*
X0093767Y0282583D01*
X0094490Y0282283D01*
X0095274Y0282283D01*
X0095997Y0282583D01*
X0096551Y0283137D01*
X0096850Y0283860D01*
X0096850Y0284644D01*
X0096551Y0285367D01*
X0096280Y0285638D01*
X0096056Y0286024D01*
X0096280Y0286409D01*
X0096551Y0286680D01*
X0096850Y0287404D01*
X0096850Y0288187D01*
X0096619Y0288745D01*
X0100000Y0292126D01*
X0133071Y0292126D01*
X0133071Y0286417D01*
X0133071Y0286417D02*
G37*
G36*
X0074606Y0283268D02*
X0067994Y0276656D01*
X0067714Y0276772D01*
X0066931Y0276772D01*
X0066208Y0276472D01*
X0065654Y0275918D01*
X0065354Y0275195D01*
X0065354Y0274412D01*
X0065470Y0274132D01*
X0064173Y0272835D01*
X0064173Y0204724D01*
X0087205Y0181693D01*
X0087205Y0160827D01*
X0070669Y0144291D01*
X0070472Y0144488D01*
X0070472Y0131890D01*
X0084252Y0131890D01*
X0089567Y0126575D01*
X0089567Y0121768D01*
X0089042Y0121551D01*
X0088489Y0120997D01*
X0088189Y0120273D01*
X0088189Y0119490D01*
X0088489Y0118767D01*
X0089042Y0118213D01*
X0089567Y0117996D01*
X0089567Y0116142D01*
X0089468Y0116142D01*
X0088517Y0115887D01*
X0087664Y0115394D01*
X0086968Y0114698D01*
X0086475Y0113845D01*
X0086221Y0112894D01*
X0086221Y0111909D01*
X0086475Y0110958D01*
X0086968Y0110105D01*
X0087664Y0109409D01*
X0088517Y0108916D01*
X0089468Y0108661D01*
X0089567Y0108661D01*
X0089567Y0097047D01*
X0109435Y0077179D01*
X0108961Y0076706D01*
X0108661Y0075982D01*
X0108661Y0075199D01*
X0108961Y0074476D01*
X0109515Y0073922D01*
X0110238Y0073622D01*
X0111021Y0073622D01*
X0111745Y0073922D01*
X0112219Y0074396D01*
X0112795Y0073819D01*
X0119488Y0067126D01*
X0119488Y0053150D01*
X0112992Y0046654D01*
X0105315Y0046654D01*
X0103543Y0048425D01*
X0103543Y0058661D01*
X0101575Y0060630D01*
X0057874Y0060630D01*
X0048031Y0070472D01*
X0048031Y0072661D01*
X0048699Y0072938D01*
X0049253Y0073491D01*
X0049553Y0074215D01*
X0049553Y0074998D01*
X0049253Y0075721D01*
X0049126Y0075848D01*
X0049131Y0076662D01*
X0049307Y0076838D01*
X0049606Y0077561D01*
X0049606Y0078344D01*
X0049307Y0079068D01*
X0048753Y0079622D01*
X0048031Y0079920D01*
X0048031Y0093279D01*
X0048125Y0093373D01*
X0048425Y0094097D01*
X0048425Y0094880D01*
X0048125Y0095603D01*
X0048031Y0095697D01*
X0048031Y0108601D01*
X0048622Y0108888D01*
X0049468Y0108661D01*
X0050453Y0108661D01*
X0051404Y0108916D01*
X0052257Y0109409D01*
X0052953Y0110105D01*
X0053446Y0110958D01*
X0053701Y0111909D01*
X0053701Y0112894D01*
X0053446Y0113845D01*
X0052953Y0114698D01*
X0052257Y0115394D01*
X0051404Y0115887D01*
X0050453Y0116142D01*
X0049468Y0116142D01*
X0048622Y0115915D01*
X0048031Y0116202D01*
X0048031Y0118492D01*
X0048178Y0118573D01*
X0048622Y0118673D01*
X0049082Y0118213D01*
X0049805Y0117913D01*
X0050588Y0117913D01*
X0051312Y0118213D01*
X0051866Y0118767D01*
X0052165Y0119490D01*
X0052165Y0120273D01*
X0051866Y0120997D01*
X0051312Y0121551D01*
X0050588Y0121850D01*
X0049805Y0121850D01*
X0049082Y0121551D01*
X0048622Y0121091D01*
X0048178Y0121191D01*
X0048031Y0121272D01*
X0048031Y0155905D01*
X0064173Y0172047D01*
X0064173Y0180905D01*
X0043504Y0201575D01*
X0043504Y0276969D01*
X0058268Y0291732D01*
X0074606Y0291732D01*
X0074606Y0283268D01*
X0074606Y0283268D02*
G37*
G36*
X0073135Y0327741D02*
X0073135Y0320276D01*
X0065354Y0320276D01*
X0064764Y0319685D01*
X0064764Y0303379D01*
X0064436Y0303244D01*
X0063882Y0302690D01*
X0063583Y0301966D01*
X0063583Y0301183D01*
X0063882Y0300461D01*
X0055807Y0292028D01*
X0041142Y0277362D01*
X0041142Y0189961D01*
X0042323Y0188779D01*
X0052953Y0188779D01*
X0061811Y0179921D01*
X0061811Y0171260D01*
X0059449Y0168898D01*
X0049130Y0168898D01*
X0048913Y0169422D01*
X0048359Y0169976D01*
X0047636Y0170276D01*
X0046852Y0170276D01*
X0046129Y0169976D01*
X0045575Y0169422D01*
X0045358Y0168898D01*
X0032902Y0168898D01*
X0032611Y0169188D01*
X0031888Y0169488D01*
X0031104Y0169488D01*
X0030381Y0169188D01*
X0030090Y0168898D01*
X0027559Y0168898D01*
X0025197Y0171260D01*
X0025197Y0171651D01*
X0024897Y0172375D01*
X0024343Y0172929D01*
X0023620Y0173228D01*
X0023228Y0173228D01*
X0023228Y0173228D01*
X0023228Y0286024D01*
X0047244Y0310039D01*
X0047244Y0322441D01*
X0053150Y0328346D01*
X0072835Y0328346D01*
X0073135Y0327741D01*
X0073135Y0327741D02*
G37*
G36*
X0044094Y0162795D02*
X0044094Y0162404D01*
X0044394Y0161680D01*
X0044948Y0161126D01*
X0045079Y0161072D01*
X0045079Y0141548D01*
X0044488Y0141175D01*
X0044092Y0141339D01*
X0043309Y0141339D01*
X0042586Y0141039D01*
X0042032Y0140485D01*
X0041732Y0139762D01*
X0041732Y0138979D01*
X0042032Y0138255D01*
X0042586Y0137701D01*
X0043309Y0137402D01*
X0044092Y0137402D01*
X0044488Y0137566D01*
X0045079Y0137193D01*
X0045079Y0095894D01*
X0044788Y0095603D01*
X0044488Y0094880D01*
X0044488Y0094097D01*
X0044788Y0093373D01*
X0045079Y0093082D01*
X0045079Y0067520D01*
X0053740Y0058858D01*
X0057544Y0058858D01*
X0057677Y0058659D01*
X0057677Y0057876D01*
X0057977Y0057153D01*
X0058531Y0056599D01*
X0059254Y0056299D01*
X0060037Y0056299D01*
X0060761Y0056599D01*
X0061314Y0057153D01*
X0061614Y0057876D01*
X0061614Y0058659D01*
X0061747Y0058858D01*
X0100000Y0058858D01*
X0100000Y0052559D01*
X0100000Y0048622D01*
X0097835Y0046457D01*
X0093898Y0046457D01*
X0089764Y0042323D01*
X0087156Y0042323D01*
X0087102Y0042454D01*
X0086548Y0043007D01*
X0085825Y0043307D01*
X0085548Y0043307D01*
X0085154Y0043898D01*
X0085236Y0044097D01*
X0085236Y0044880D01*
X0084936Y0045603D01*
X0084383Y0046157D01*
X0083659Y0046457D01*
X0082876Y0046457D01*
X0082153Y0046157D01*
X0081599Y0045603D01*
X0081299Y0044880D01*
X0081299Y0044097D01*
X0081599Y0043373D01*
X0082059Y0042913D01*
X0081959Y0042469D01*
X0081878Y0042323D01*
X0065549Y0042323D01*
X0065549Y0042913D01*
X0066272Y0043213D01*
X0066826Y0043767D01*
X0067126Y0044490D01*
X0067126Y0045273D01*
X0066826Y0045997D01*
X0066272Y0046551D01*
X0065549Y0046850D01*
X0064766Y0046850D01*
X0064042Y0046551D01*
X0063489Y0045997D01*
X0063189Y0045273D01*
X0063189Y0044490D01*
X0063489Y0043767D01*
X0064042Y0043213D01*
X0064766Y0042913D01*
X0064765Y0042323D01*
X0049805Y0042323D01*
X0049803Y0042325D01*
X0049803Y0043108D01*
X0049936Y0043307D01*
X0050392Y0043307D01*
X0051115Y0043607D01*
X0051669Y0044160D01*
X0051968Y0044884D01*
X0051968Y0045667D01*
X0051669Y0046391D01*
X0051115Y0046944D01*
X0050392Y0047244D01*
X0049936Y0047244D01*
X0049803Y0047443D01*
X0049803Y0048226D01*
X0049503Y0048950D01*
X0048950Y0049503D01*
X0048226Y0049803D01*
X0047443Y0049803D01*
X0046720Y0049503D01*
X0046166Y0048950D01*
X0045866Y0048226D01*
X0045866Y0047443D01*
X0046166Y0046720D01*
X0046720Y0046166D01*
X0047443Y0045866D01*
X0047898Y0045866D01*
X0048031Y0045667D01*
X0048031Y0044884D01*
X0047899Y0044685D01*
X0047443Y0044685D01*
X0046720Y0044385D01*
X0046166Y0043832D01*
X0045866Y0043108D01*
X0045866Y0042325D01*
X0045865Y0042323D01*
X0036811Y0042323D01*
X0027756Y0051378D01*
X0027756Y0077165D01*
X0027951Y0077165D01*
X0028674Y0077465D01*
X0029228Y0078019D01*
X0029528Y0078742D01*
X0029528Y0079525D01*
X0029228Y0080249D01*
X0028674Y0080803D01*
X0027951Y0081102D01*
X0027756Y0081102D01*
X0027756Y0092765D01*
X0027887Y0092819D01*
X0028440Y0093373D01*
X0028740Y0094097D01*
X0028740Y0094880D01*
X0028440Y0095603D01*
X0027887Y0096157D01*
X0027756Y0096211D01*
X0027756Y0101951D01*
X0028247Y0103137D01*
X0028757Y0105262D01*
X0028929Y0107441D01*
X0028757Y0109620D01*
X0028247Y0111745D01*
X0027756Y0112931D01*
X0027756Y0118123D01*
X0028162Y0118292D01*
X0028716Y0118845D01*
X0029016Y0119569D01*
X0029016Y0120352D01*
X0028716Y0121076D01*
X0028162Y0121629D01*
X0027756Y0121798D01*
X0027756Y0152559D01*
X0023228Y0157087D01*
X0023228Y0163976D01*
X0042913Y0163976D01*
X0044094Y0162795D01*
X0044094Y0162795D02*
G37*
G36*
X0174016Y0166142D02*
X0174016Y0136141D01*
X0173425Y0135897D01*
X0172982Y0136340D01*
X0171860Y0136987D01*
X0170608Y0137323D01*
X0169313Y0137323D01*
X0168061Y0136987D01*
X0166939Y0136340D01*
X0166023Y0135423D01*
X0165375Y0134301D01*
X0165039Y0133049D01*
X0165039Y0131754D01*
X0165375Y0130502D01*
X0166023Y0129380D01*
X0166939Y0128464D01*
X0168061Y0127816D01*
X0168466Y0127707D01*
X0168466Y0127096D01*
X0168061Y0126988D01*
X0166939Y0126340D01*
X0166023Y0125423D01*
X0165375Y0124301D01*
X0165039Y0123049D01*
X0165039Y0121754D01*
X0165375Y0120502D01*
X0166023Y0119380D01*
X0166939Y0118464D01*
X0168061Y0117816D01*
X0169313Y0117480D01*
X0170608Y0117480D01*
X0171860Y0117816D01*
X0172982Y0118464D01*
X0173425Y0118906D01*
X0174016Y0118662D01*
X0174016Y0114136D01*
X0173481Y0113864D01*
X0173425Y0113881D01*
X0172953Y0114698D01*
X0172257Y0115394D01*
X0171404Y0115887D01*
X0170453Y0116142D01*
X0169468Y0116142D01*
X0168517Y0115887D01*
X0167664Y0115394D01*
X0166968Y0114698D01*
X0166475Y0113845D01*
X0166220Y0112894D01*
X0166220Y0111909D01*
X0166475Y0110958D01*
X0166968Y0110105D01*
X0167664Y0109409D01*
X0168517Y0108916D01*
X0169468Y0108661D01*
X0170453Y0108661D01*
X0171404Y0108916D01*
X0172257Y0109409D01*
X0172953Y0110105D01*
X0173425Y0110922D01*
X0173481Y0110940D01*
X0174016Y0110667D01*
X0174016Y0085039D01*
X0166142Y0077165D01*
X0166142Y-0022441D01*
X0164173Y-0024409D01*
X0158822Y-0024409D01*
X0158637Y-0023964D01*
X0158083Y-0023410D01*
X0157360Y-0023110D01*
X0156577Y-0023110D01*
X0155853Y-0023410D01*
X0155478Y-0023785D01*
X0152953Y-0021260D01*
X0152953Y-0019789D01*
X0153407Y-0019003D01*
X0153661Y-0018052D01*
X0153661Y-0017067D01*
X0153407Y-0016115D01*
X0152953Y-0015329D01*
X0152953Y0110104D01*
X0152954Y0110105D01*
X0153446Y0110958D01*
X0153701Y0111909D01*
X0153701Y0112894D01*
X0153446Y0113845D01*
X0152954Y0114698D01*
X0152953Y0114699D01*
X0152953Y0163386D01*
X0129921Y0186417D01*
X0129921Y0198031D01*
X0131299Y0199409D01*
X0140748Y0199409D01*
X0174016Y0166142D01*
X0174016Y0166142D02*
G37*
G36*
X0174016Y0128662D02*
X0174016Y0126141D01*
X0173425Y0125897D01*
X0172982Y0126340D01*
X0171860Y0126988D01*
X0171456Y0127096D01*
X0171456Y0127707D01*
X0171860Y0127816D01*
X0172982Y0128464D01*
X0173425Y0128906D01*
X0174016Y0128662D01*
X0174016Y0128662D02*
G37*
G36*
X0148228Y0163386D02*
X0148228Y0120273D01*
X0148228Y0115720D01*
X0147664Y0115394D01*
X0146968Y0114698D01*
X0146475Y0113845D01*
X0146221Y0112894D01*
X0146221Y0111909D01*
X0146475Y0110958D01*
X0146968Y0110105D01*
X0147664Y0109409D01*
X0148228Y0109083D01*
X0148228Y0090631D01*
X0148031Y0090155D01*
X0148031Y0089372D01*
X0148228Y0088897D01*
X0148228Y0001772D01*
X0138779Y0001772D01*
X0137795Y0002756D01*
X0137795Y0088779D01*
X0138386Y0088897D01*
X0138489Y0088649D01*
X0139042Y0088095D01*
X0139766Y0087795D01*
X0140549Y0087795D01*
X0141273Y0088095D01*
X0141826Y0088649D01*
X0142126Y0089372D01*
X0142126Y0090155D01*
X0141826Y0090879D01*
X0141273Y0091433D01*
X0140549Y0091732D01*
X0139766Y0091732D01*
X0139042Y0091433D01*
X0138489Y0090879D01*
X0138386Y0090631D01*
X0137795Y0090748D01*
X0137795Y0108742D01*
X0138307Y0109038D01*
X0138517Y0108916D01*
X0139468Y0108661D01*
X0140453Y0108661D01*
X0141404Y0108916D01*
X0142257Y0109409D01*
X0142954Y0110105D01*
X0143446Y0110958D01*
X0143701Y0111909D01*
X0143701Y0112894D01*
X0143446Y0113845D01*
X0142954Y0114698D01*
X0142257Y0115394D01*
X0141404Y0115887D01*
X0140453Y0116142D01*
X0139468Y0116142D01*
X0138517Y0115887D01*
X0138307Y0115765D01*
X0137795Y0116061D01*
X0137795Y0118898D01*
X0138386Y0119015D01*
X0138489Y0118767D01*
X0139042Y0118213D01*
X0139766Y0117913D01*
X0140549Y0117913D01*
X0141273Y0118213D01*
X0141826Y0118767D01*
X0142126Y0119490D01*
X0142126Y0120273D01*
X0141826Y0120997D01*
X0141273Y0121551D01*
X0140549Y0121850D01*
X0139766Y0121850D01*
X0139042Y0121551D01*
X0138489Y0120997D01*
X0138386Y0120749D01*
X0137795Y0120866D01*
X0137795Y0135827D01*
X0138187Y0135827D01*
X0138910Y0136126D01*
X0139464Y0136680D01*
X0139764Y0137404D01*
X0139764Y0138187D01*
X0139464Y0138910D01*
X0138910Y0139464D01*
X0138187Y0139764D01*
X0137795Y0139764D01*
X0137795Y0156299D01*
X0131890Y0156299D01*
X0131890Y0166535D01*
X0145079Y0166535D01*
X0148228Y0163386D01*
X0148228Y0163386D02*
G37*
%LPC*%
G36*
X0039368Y0312205D02*
X0038585Y0312205D01*
X0037861Y0311905D01*
X0037308Y0311351D01*
X0037008Y0310628D01*
X0037008Y0309845D01*
X0037308Y0309121D01*
X0037861Y0308567D01*
X0038585Y0308268D01*
X0039368Y0308268D01*
X0040091Y0308567D01*
X0040645Y0309121D01*
X0040945Y0309845D01*
X0040945Y0310628D01*
X0040645Y0311351D01*
X0040091Y0311905D01*
X0039368Y0312205D01*
X0039368Y0312205D02*
G37*
G36*
X0027557Y0312205D02*
X0026774Y0312205D01*
X0026050Y0311905D01*
X0025497Y0311351D01*
X0025197Y0310628D01*
X0025197Y0309845D01*
X0025497Y0309121D01*
X0026050Y0308567D01*
X0026774Y0308268D01*
X0027557Y0308268D01*
X0028280Y0308567D01*
X0028834Y0309121D01*
X0029134Y0309845D01*
X0029134Y0310628D01*
X0028834Y0311351D01*
X0028280Y0311905D01*
X0027557Y0312205D01*
X0027557Y0312205D02*
G37*
G36*
X0016945Y0180724D02*
X0013878Y0180724D01*
X0013878Y0177657D01*
X0016945Y0177657D01*
X0016945Y0180724D01*
X0016945Y0180724D02*
G37*
G36*
X0012894Y0180724D02*
X0009827Y0180724D01*
X0009827Y0177657D01*
X0012894Y0177657D01*
X0012894Y0180724D01*
X0012894Y0180724D02*
G37*
G36*
X0016945Y0176673D02*
X0013878Y0176673D01*
X0013878Y0173606D01*
X0016945Y0173606D01*
X0016945Y0176673D01*
X0016945Y0176673D02*
G37*
G36*
X0012894Y0176673D02*
X0009827Y0176673D01*
X0009827Y0173606D01*
X0012894Y0173606D01*
X0012894Y0176673D01*
X0012894Y0176673D02*
G37*
G36*
X0186986Y0325266D02*
X0186164Y0325266D01*
X0185404Y0324951D01*
X0184822Y0324370D01*
X0184508Y0323610D01*
X0184508Y0322788D01*
X0184822Y0322028D01*
X0185404Y0321446D01*
X0186164Y0321132D01*
X0186986Y0321132D01*
X0187746Y0321446D01*
X0188327Y0322028D01*
X0188642Y0322788D01*
X0188642Y0323610D01*
X0188327Y0324370D01*
X0187746Y0324951D01*
X0186986Y0325266D01*
X0186986Y0325266D02*
G37*
G36*
X0164230Y0325266D02*
X0163408Y0325266D01*
X0162648Y0324951D01*
X0162067Y0324370D01*
X0161752Y0323610D01*
X0161752Y0322788D01*
X0162067Y0322028D01*
X0162648Y0321446D01*
X0163408Y0321132D01*
X0164230Y0321132D01*
X0164990Y0321446D01*
X0165571Y0322028D01*
X0165886Y0322788D01*
X0165886Y0323610D01*
X0165571Y0324370D01*
X0164990Y0324951D01*
X0164230Y0325266D01*
X0164230Y0325266D02*
G37*
G36*
X0158189Y0326175D02*
X0157470Y0326081D01*
X0156799Y0325803D01*
X0156223Y0325361D01*
X0155782Y0324785D01*
X0155504Y0324115D01*
X0155409Y0323396D01*
X0155409Y0319065D01*
X0155504Y0318345D01*
X0155782Y0317675D01*
X0156223Y0317099D01*
X0156799Y0316658D01*
X0157470Y0316380D01*
X0158189Y0316285D01*
X0158431Y0316317D01*
X0158484Y0316231D01*
X0158633Y0315748D01*
X0158174Y0315288D01*
X0157874Y0314565D01*
X0157874Y0313782D01*
X0158174Y0313058D01*
X0158727Y0312504D01*
X0159451Y0312205D01*
X0160234Y0312205D01*
X0160958Y0312504D01*
X0161511Y0313058D01*
X0161811Y0313782D01*
X0161811Y0314565D01*
X0161511Y0315288D01*
X0160958Y0315842D01*
X0160234Y0316142D01*
X0159835Y0316142D01*
X0159731Y0316350D01*
X0159676Y0316732D01*
X0160154Y0317099D01*
X0160596Y0317675D01*
X0160874Y0318345D01*
X0160969Y0319065D01*
X0160969Y0323396D01*
X0160874Y0324115D01*
X0160596Y0324785D01*
X0160154Y0325361D01*
X0159579Y0325803D01*
X0158908Y0326081D01*
X0158189Y0326175D01*
X0158189Y0326175D02*
G37*
G36*
X0115352Y0254331D02*
X0114569Y0254331D01*
X0113846Y0254031D01*
X0113292Y0253477D01*
X0112992Y0252754D01*
X0112992Y0251971D01*
X0113292Y0251247D01*
X0113846Y0250693D01*
X0114569Y0250394D01*
X0115352Y0250394D01*
X0116076Y0250693D01*
X0116629Y0251247D01*
X0116929Y0251971D01*
X0116929Y0252754D01*
X0116629Y0253477D01*
X0116076Y0254031D01*
X0115352Y0254331D01*
X0115352Y0254331D02*
G37*
G36*
X0101769Y0243504D02*
X0100986Y0243504D01*
X0100263Y0243204D01*
X0099709Y0242651D01*
X0099410Y0241927D01*
X0099410Y0241144D01*
X0099709Y0240420D01*
X0100263Y0239867D01*
X0100986Y0239567D01*
X0101769Y0239567D01*
X0102493Y0239867D01*
X0103047Y0240420D01*
X0103347Y0241144D01*
X0103347Y0241927D01*
X0103047Y0242651D01*
X0102493Y0243204D01*
X0101769Y0243504D01*
X0101769Y0243504D02*
G37*
G36*
X0101966Y0234449D02*
X0101183Y0234449D01*
X0100460Y0234149D01*
X0099906Y0233595D01*
X0099606Y0232872D01*
X0099606Y0232089D01*
X0099906Y0231365D01*
X0100460Y0230812D01*
X0101183Y0230512D01*
X0101966Y0230512D01*
X0102690Y0230812D01*
X0103244Y0231365D01*
X0103543Y0232089D01*
X0103543Y0232872D01*
X0103244Y0233595D01*
X0102690Y0234149D01*
X0101966Y0234449D01*
X0101966Y0234449D02*
G37*
G36*
X0102951Y0205709D02*
X0102167Y0205709D01*
X0101444Y0205409D01*
X0100890Y0204855D01*
X0100591Y0204132D01*
X0100591Y0203349D01*
X0100890Y0202625D01*
X0101444Y0202071D01*
X0102167Y0201772D01*
X0102951Y0201772D01*
X0103674Y0202071D01*
X0104228Y0202625D01*
X0104528Y0203349D01*
X0104528Y0204132D01*
X0104228Y0204855D01*
X0103674Y0205409D01*
X0102951Y0205709D01*
X0102951Y0205709D02*
G37*
G36*
X0102754Y0197244D02*
X0101971Y0197244D01*
X0101247Y0196944D01*
X0100693Y0196391D01*
X0100394Y0195667D01*
X0100394Y0194884D01*
X0100693Y0194160D01*
X0101247Y0193607D01*
X0101971Y0193307D01*
X0102754Y0193307D01*
X0103477Y0193607D01*
X0104031Y0194160D01*
X0104331Y0194884D01*
X0104331Y0195667D01*
X0104031Y0196391D01*
X0103477Y0196944D01*
X0102754Y0197244D01*
X0102754Y0197244D02*
G37*
G36*
X0178935Y0312205D02*
X0178152Y0312205D01*
X0177428Y0311905D01*
X0177067Y0311544D01*
X0176706Y0311905D01*
X0175982Y0312205D01*
X0175199Y0312205D01*
X0174476Y0311905D01*
X0173922Y0311351D01*
X0173622Y0310628D01*
X0173622Y0309845D01*
X0173922Y0309121D01*
X0174476Y0308567D01*
X0175199Y0308268D01*
X0175982Y0308268D01*
X0176706Y0308567D01*
X0177067Y0308929D01*
X0177428Y0308567D01*
X0178152Y0308268D01*
X0178935Y0308268D01*
X0179658Y0308567D01*
X0180212Y0309121D01*
X0180512Y0309845D01*
X0180512Y0310628D01*
X0180212Y0311351D01*
X0179658Y0311905D01*
X0178935Y0312205D01*
X0178935Y0312205D02*
G37*
G36*
X0075244Y0180512D02*
X0074363Y0180512D01*
X0073511Y0180284D01*
X0072748Y0179843D01*
X0072125Y0179220D01*
X0071685Y0178457D01*
X0071457Y0177606D01*
X0071457Y0176725D01*
X0071685Y0175874D01*
X0072125Y0175111D01*
X0072748Y0174487D01*
X0073511Y0174047D01*
X0074363Y0173819D01*
X0075244Y0173819D01*
X0076095Y0174047D01*
X0076858Y0174487D01*
X0077481Y0175111D01*
X0077922Y0175874D01*
X0078150Y0176725D01*
X0078150Y0177606D01*
X0077922Y0178457D01*
X0077481Y0179220D01*
X0076858Y0179843D01*
X0076095Y0180284D01*
X0075244Y0180512D01*
X0075244Y0180512D02*
G37*
G36*
X0058211Y0164031D02*
X0057428Y0164031D01*
X0056704Y0163731D01*
X0056150Y0163178D01*
X0055851Y0162454D01*
X0055851Y0161671D01*
X0056150Y0160948D01*
X0056704Y0160394D01*
X0057428Y0160094D01*
X0058211Y0160094D01*
X0058934Y0160394D01*
X0059296Y0160755D01*
X0059712Y0160339D01*
X0060435Y0160039D01*
X0061218Y0160039D01*
X0061942Y0160339D01*
X0061988Y0160385D01*
X0062489Y0160051D01*
X0062402Y0159840D01*
X0062402Y0159057D01*
X0062701Y0158334D01*
X0063255Y0157780D01*
X0063978Y0157480D01*
X0064762Y0157480D01*
X0065485Y0157780D01*
X0066039Y0158334D01*
X0066339Y0159057D01*
X0066339Y0159840D01*
X0066039Y0160564D01*
X0065485Y0161118D01*
X0064762Y0161417D01*
X0063978Y0161417D01*
X0063255Y0161118D01*
X0063209Y0161071D01*
X0062708Y0161406D01*
X0062795Y0161616D01*
X0062795Y0162399D01*
X0062496Y0163123D01*
X0061942Y0163677D01*
X0061218Y0163976D01*
X0060435Y0163976D01*
X0059712Y0163677D01*
X0059350Y0163315D01*
X0058934Y0163731D01*
X0058211Y0164031D01*
X0058211Y0164031D02*
G37*
G36*
X0067714Y0152953D02*
X0066931Y0152953D01*
X0066208Y0152653D01*
X0065654Y0152099D01*
X0065354Y0151376D01*
X0065354Y0150593D01*
X0065654Y0149869D01*
X0065898Y0149626D01*
X0065428Y0149155D01*
X0065128Y0148432D01*
X0065128Y0147649D01*
X0065428Y0146925D01*
X0065981Y0146371D01*
X0066705Y0146072D01*
X0067488Y0146072D01*
X0068211Y0146371D01*
X0068765Y0146925D01*
X0069065Y0147649D01*
X0069065Y0148432D01*
X0068765Y0149155D01*
X0068521Y0149399D01*
X0068992Y0149869D01*
X0069291Y0150593D01*
X0069291Y0151376D01*
X0068992Y0152099D01*
X0068438Y0152653D01*
X0067714Y0152953D01*
X0067714Y0152953D02*
G37*
G36*
X0056100Y0139961D02*
X0055317Y0139961D01*
X0054594Y0139661D01*
X0054040Y0139107D01*
X0053740Y0138384D01*
X0053740Y0137601D01*
X0054040Y0136877D01*
X0054594Y0136323D01*
X0055317Y0136024D01*
X0056100Y0136024D01*
X0056824Y0136323D01*
X0057377Y0136877D01*
X0057677Y0137601D01*
X0057677Y0138384D01*
X0057377Y0139107D01*
X0056824Y0139661D01*
X0056100Y0139961D01*
X0056100Y0139961D02*
G37*
G36*
X0062203Y0133268D02*
X0061419Y0133268D01*
X0060696Y0132968D01*
X0060532Y0132804D01*
X0060367Y0132968D01*
X0059644Y0133268D01*
X0058860Y0133268D01*
X0058137Y0132968D01*
X0057583Y0132414D01*
X0057284Y0131691D01*
X0057284Y0130908D01*
X0057583Y0130184D01*
X0058137Y0129630D01*
X0058860Y0129331D01*
X0059644Y0129331D01*
X0060367Y0129630D01*
X0060532Y0129795D01*
X0060696Y0129630D01*
X0061419Y0129331D01*
X0062203Y0129331D01*
X0062926Y0129630D01*
X0063480Y0130184D01*
X0063779Y0130908D01*
X0063779Y0131691D01*
X0063480Y0132414D01*
X0062926Y0132968D01*
X0062203Y0133268D01*
X0062203Y0133268D02*
G37*
G36*
X0080304Y0121906D02*
X0079521Y0121906D01*
X0078797Y0121606D01*
X0078243Y0121052D01*
X0077944Y0120329D01*
X0077944Y0119546D01*
X0078243Y0118822D01*
X0078797Y0118268D01*
X0079521Y0117969D01*
X0080304Y0117969D01*
X0081027Y0118268D01*
X0081581Y0118822D01*
X0081881Y0119546D01*
X0081881Y0120329D01*
X0081581Y0121052D01*
X0081027Y0121606D01*
X0080304Y0121906D01*
X0080304Y0121906D02*
G37*
G36*
X0070274Y0121850D02*
X0069490Y0121850D01*
X0068767Y0121551D01*
X0068213Y0120997D01*
X0067913Y0120273D01*
X0067913Y0119490D01*
X0068213Y0118767D01*
X0068767Y0118213D01*
X0069490Y0117913D01*
X0070274Y0117913D01*
X0070997Y0118213D01*
X0071551Y0118767D01*
X0071850Y0119490D01*
X0071850Y0120273D01*
X0071551Y0120997D01*
X0070997Y0121551D01*
X0070274Y0121850D01*
X0070274Y0121850D02*
G37*
G36*
X0060628Y0121850D02*
X0059845Y0121850D01*
X0059121Y0121551D01*
X0058567Y0120997D01*
X0058268Y0120273D01*
X0058268Y0119490D01*
X0058567Y0118767D01*
X0059121Y0118213D01*
X0059845Y0117913D01*
X0060628Y0117913D01*
X0061351Y0118213D01*
X0061905Y0118767D01*
X0062205Y0119490D01*
X0062205Y0120273D01*
X0061905Y0120997D01*
X0061351Y0121551D01*
X0060628Y0121850D01*
X0060628Y0121850D02*
G37*
G36*
X0080453Y0116142D02*
X0079468Y0116142D01*
X0078517Y0115887D01*
X0077664Y0115394D01*
X0076968Y0114698D01*
X0076475Y0113845D01*
X0076221Y0112894D01*
X0076221Y0111909D01*
X0076475Y0110958D01*
X0076968Y0110105D01*
X0077664Y0109409D01*
X0078517Y0108916D01*
X0079468Y0108661D01*
X0080453Y0108661D01*
X0081404Y0108916D01*
X0082257Y0109409D01*
X0082954Y0110105D01*
X0083446Y0110958D01*
X0083701Y0111909D01*
X0083701Y0112894D01*
X0083446Y0113845D01*
X0082954Y0114698D01*
X0082257Y0115394D01*
X0081404Y0115887D01*
X0080453Y0116142D01*
X0080453Y0116142D02*
G37*
G36*
X0070453Y0116142D02*
X0069468Y0116142D01*
X0068517Y0115887D01*
X0067664Y0115394D01*
X0066968Y0114698D01*
X0066475Y0113845D01*
X0066220Y0112894D01*
X0066220Y0111909D01*
X0066475Y0110958D01*
X0066968Y0110105D01*
X0067664Y0109409D01*
X0068517Y0108916D01*
X0069468Y0108661D01*
X0070453Y0108661D01*
X0071404Y0108916D01*
X0072257Y0109409D01*
X0072953Y0110105D01*
X0073446Y0110958D01*
X0073701Y0111909D01*
X0073701Y0112894D01*
X0073446Y0113845D01*
X0072953Y0114698D01*
X0072257Y0115394D01*
X0071404Y0115887D01*
X0070453Y0116142D01*
X0070453Y0116142D02*
G37*
G36*
X0060453Y0116142D02*
X0059468Y0116142D01*
X0058517Y0115887D01*
X0057664Y0115394D01*
X0056968Y0114698D01*
X0056475Y0113845D01*
X0056221Y0112894D01*
X0056221Y0111909D01*
X0056475Y0110958D01*
X0056968Y0110105D01*
X0057664Y0109409D01*
X0058517Y0108916D01*
X0059468Y0108661D01*
X0060453Y0108661D01*
X0061404Y0108916D01*
X0062257Y0109409D01*
X0062954Y0110105D01*
X0063446Y0110958D01*
X0063701Y0111909D01*
X0063701Y0112894D01*
X0063446Y0113845D01*
X0062954Y0114698D01*
X0062257Y0115394D01*
X0061404Y0115887D01*
X0060453Y0116142D01*
X0060453Y0116142D02*
G37*
G36*
X0054919Y0104724D02*
X0054136Y0104724D01*
X0053412Y0104425D01*
X0052859Y0103871D01*
X0052559Y0103147D01*
X0052559Y0102364D01*
X0052859Y0101641D01*
X0053412Y0101087D01*
X0054136Y0100787D01*
X0054919Y0100787D01*
X0055643Y0101087D01*
X0056196Y0101641D01*
X0056496Y0102364D01*
X0056496Y0103147D01*
X0056196Y0103871D01*
X0055643Y0104425D01*
X0054919Y0104724D01*
X0054919Y0104724D02*
G37*
G36*
X0064368Y0098819D02*
X0063585Y0098819D01*
X0062861Y0098519D01*
X0062308Y0097965D01*
X0062008Y0097242D01*
X0062008Y0096459D01*
X0062308Y0095735D01*
X0062861Y0095182D01*
X0063585Y0094882D01*
X0064368Y0094882D01*
X0065091Y0095182D01*
X0065645Y0095735D01*
X0065945Y0096459D01*
X0065945Y0097242D01*
X0065645Y0097965D01*
X0065091Y0098519D01*
X0064368Y0098819D01*
X0064368Y0098819D02*
G37*
G36*
X0070470Y0098228D02*
X0069687Y0098228D01*
X0068964Y0097929D01*
X0068410Y0097375D01*
X0068110Y0096651D01*
X0068110Y0095868D01*
X0068410Y0095145D01*
X0068964Y0094591D01*
X0069687Y0094291D01*
X0070470Y0094291D01*
X0071194Y0094591D01*
X0071748Y0095145D01*
X0072047Y0095868D01*
X0072047Y0096651D01*
X0071748Y0097375D01*
X0071194Y0097929D01*
X0070470Y0098228D01*
X0070470Y0098228D02*
G37*
G36*
X0080313Y0098032D02*
X0079530Y0098032D01*
X0078806Y0097732D01*
X0078252Y0097178D01*
X0077953Y0096455D01*
X0077953Y0095671D01*
X0078252Y0094948D01*
X0078806Y0094394D01*
X0079530Y0094095D01*
X0080313Y0094095D01*
X0081036Y0094394D01*
X0081590Y0094948D01*
X0081890Y0095671D01*
X0081890Y0096455D01*
X0081590Y0097178D01*
X0081036Y0097732D01*
X0080313Y0098032D01*
X0080313Y0098032D02*
G37*
G36*
X0064101Y0090748D02*
X0063064Y0090748D01*
X0062063Y0090480D01*
X0061165Y0089961D01*
X0060432Y0089228D01*
X0059914Y0088331D01*
X0059646Y0087329D01*
X0059646Y0086293D01*
X0059914Y0085291D01*
X0060432Y0084394D01*
X0061165Y0083661D01*
X0062063Y0083142D01*
X0063064Y0082874D01*
X0064101Y0082874D01*
X0065102Y0083142D01*
X0066000Y0083661D01*
X0066733Y0084394D01*
X0067251Y0085291D01*
X0067520Y0086293D01*
X0067520Y0087329D01*
X0067251Y0088331D01*
X0066733Y0089228D01*
X0066000Y0089961D01*
X0065102Y0090480D01*
X0064101Y0090748D01*
X0064101Y0090748D02*
G37*
G36*
X0057293Y0082098D02*
X0056510Y0082098D01*
X0055786Y0081798D01*
X0055233Y0081245D01*
X0054933Y0080521D01*
X0054933Y0079738D01*
X0055233Y0079015D01*
X0055786Y0078461D01*
X0056510Y0078161D01*
X0057293Y0078161D01*
X0058016Y0078461D01*
X0058570Y0079015D01*
X0058870Y0079738D01*
X0058870Y0080521D01*
X0058570Y0081245D01*
X0058016Y0081798D01*
X0057293Y0082098D01*
X0057293Y0082098D02*
G37*
G36*
X0059644Y0077756D02*
X0058860Y0077756D01*
X0058137Y0077456D01*
X0057583Y0076903D01*
X0057284Y0076179D01*
X0057284Y0075396D01*
X0057583Y0074672D01*
X0058137Y0074119D01*
X0058860Y0073819D01*
X0059644Y0073819D01*
X0060367Y0074119D01*
X0060921Y0074672D01*
X0061221Y0075396D01*
X0061221Y0076179D01*
X0060921Y0076903D01*
X0060367Y0077456D01*
X0059644Y0077756D01*
X0059644Y0077756D02*
G37*
G36*
X0055510Y0073032D02*
X0054726Y0073032D01*
X0054003Y0072732D01*
X0053449Y0072178D01*
X0053150Y0071455D01*
X0053150Y0070671D01*
X0053449Y0069948D01*
X0054003Y0069394D01*
X0054726Y0069095D01*
X0055510Y0069095D01*
X0056233Y0069394D01*
X0056787Y0069948D01*
X0057087Y0070671D01*
X0057087Y0071455D01*
X0056787Y0072178D01*
X0056233Y0072732D01*
X0055510Y0073032D01*
X0055510Y0073032D02*
G37*
G36*
X0064773Y0070275D02*
X0063990Y0070275D01*
X0063267Y0069976D01*
X0062713Y0069422D01*
X0062413Y0068699D01*
X0062413Y0067915D01*
X0062713Y0067192D01*
X0063074Y0066831D01*
X0062713Y0066469D01*
X0062413Y0065746D01*
X0062413Y0064963D01*
X0062713Y0064239D01*
X0063267Y0063686D01*
X0063990Y0063386D01*
X0064773Y0063386D01*
X0065497Y0063686D01*
X0066050Y0064239D01*
X0066350Y0064963D01*
X0066350Y0065746D01*
X0066050Y0066469D01*
X0065689Y0066831D01*
X0066050Y0067192D01*
X0066350Y0067915D01*
X0066350Y0068699D01*
X0066050Y0069422D01*
X0065497Y0069976D01*
X0064773Y0070275D01*
X0064773Y0070275D02*
G37*
G36*
X0051179Y0312205D02*
X0050396Y0312205D01*
X0049672Y0311905D01*
X0049119Y0311351D01*
X0048819Y0310628D01*
X0048819Y0309845D01*
X0049119Y0309121D01*
X0049672Y0308567D01*
X0050396Y0308268D01*
X0051179Y0308268D01*
X0051903Y0308567D01*
X0052456Y0309121D01*
X0052756Y0309845D01*
X0052756Y0310628D01*
X0052456Y0311351D01*
X0051903Y0311905D01*
X0051179Y0312205D01*
X0051179Y0312205D02*
G37*
G36*
X0058677Y0180724D02*
X0055610Y0180724D01*
X0055610Y0177657D01*
X0058677Y0177657D01*
X0058677Y0180724D01*
X0058677Y0180724D02*
G37*
G36*
X0054626Y0180724D02*
X0051559Y0180724D01*
X0051559Y0177657D01*
X0054626Y0177657D01*
X0054626Y0180724D01*
X0054626Y0180724D02*
G37*
G36*
X0033563Y0180718D02*
X0033563Y0177657D01*
X0036624Y0177657D01*
X0036387Y0178539D01*
X0035919Y0179351D01*
X0035256Y0180013D01*
X0034445Y0180482D01*
X0033563Y0180718D01*
X0033563Y0180718D02*
G37*
G36*
X0032579Y0180718D02*
X0031697Y0180482D01*
X0030886Y0180013D01*
X0030223Y0179351D01*
X0029754Y0178539D01*
X0029518Y0177657D01*
X0032579Y0177657D01*
X0032579Y0180718D01*
X0032579Y0180718D02*
G37*
G36*
X0036624Y0176673D02*
X0033563Y0176673D01*
X0033563Y0173613D01*
X0034445Y0173849D01*
X0035256Y0174317D01*
X0035919Y0174980D01*
X0036387Y0175792D01*
X0036624Y0176673D01*
X0036624Y0176673D02*
G37*
G36*
X0032579Y0176673D02*
X0029518Y0176673D01*
X0029754Y0175792D01*
X0030223Y0174980D01*
X0030886Y0174317D01*
X0031697Y0173849D01*
X0032579Y0173613D01*
X0032579Y0176673D01*
X0032579Y0176673D02*
G37*
G36*
X0058677Y0176673D02*
X0055610Y0176673D01*
X0055610Y0173606D01*
X0058677Y0173606D01*
X0058677Y0176673D01*
X0058677Y0176673D02*
G37*
G36*
X0054626Y0176673D02*
X0051559Y0176673D01*
X0051559Y0173606D01*
X0054626Y0173606D01*
X0054626Y0176673D01*
X0054626Y0176673D02*
G37*
G36*
X0040352Y0121850D02*
X0039569Y0121850D01*
X0038846Y0121551D01*
X0038292Y0120997D01*
X0037992Y0120273D01*
X0037992Y0119490D01*
X0038292Y0118767D01*
X0038846Y0118213D01*
X0039569Y0117913D01*
X0040352Y0117913D01*
X0041076Y0118213D01*
X0041629Y0118767D01*
X0041929Y0119490D01*
X0041929Y0120273D01*
X0041629Y0120997D01*
X0041076Y0121551D01*
X0040352Y0121850D01*
X0040352Y0121850D02*
G37*
G36*
X0040453Y0116142D02*
X0039468Y0116142D01*
X0038517Y0115887D01*
X0037664Y0115394D01*
X0036968Y0114698D01*
X0036475Y0113845D01*
X0036220Y0112894D01*
X0036220Y0111909D01*
X0036475Y0110958D01*
X0036968Y0110105D01*
X0037664Y0109409D01*
X0038517Y0108916D01*
X0039468Y0108661D01*
X0040453Y0108661D01*
X0041404Y0108916D01*
X0042257Y0109409D01*
X0042954Y0110105D01*
X0043446Y0110958D01*
X0043701Y0111909D01*
X0043701Y0112894D01*
X0043446Y0113845D01*
X0042954Y0114698D01*
X0042257Y0115394D01*
X0041404Y0115887D01*
X0040453Y0116142D01*
X0040453Y0116142D02*
G37*
G36*
X0035234Y0076575D02*
X0034451Y0076575D01*
X0033727Y0076275D01*
X0033174Y0075721D01*
X0032874Y0074998D01*
X0032874Y0074215D01*
X0033174Y0073491D01*
X0033727Y0072938D01*
X0034451Y0072638D01*
X0034767Y0072638D01*
X0034903Y0072471D01*
X0035088Y0072047D01*
X0034843Y0071455D01*
X0034843Y0070671D01*
X0035142Y0069948D01*
X0035696Y0069394D01*
X0036419Y0069095D01*
X0037203Y0069095D01*
X0037926Y0069394D01*
X0038480Y0069948D01*
X0038780Y0070671D01*
X0038780Y0071455D01*
X0038480Y0072178D01*
X0037926Y0072732D01*
X0037203Y0073032D01*
X0036887Y0073032D01*
X0036750Y0073199D01*
X0036566Y0073622D01*
X0036811Y0074215D01*
X0036811Y0074998D01*
X0036511Y0075721D01*
X0035958Y0076275D01*
X0035234Y0076575D01*
X0035234Y0076575D02*
G37*
G36*
X0083856Y0052165D02*
X0083073Y0052165D01*
X0082349Y0051866D01*
X0081796Y0051312D01*
X0081496Y0050588D01*
X0081496Y0049805D01*
X0081796Y0049082D01*
X0082349Y0048528D01*
X0083073Y0048228D01*
X0083856Y0048228D01*
X0084580Y0048528D01*
X0085133Y0049082D01*
X0085433Y0049805D01*
X0085433Y0050588D01*
X0085133Y0051312D01*
X0084580Y0051866D01*
X0083856Y0052165D01*
X0083856Y0052165D02*
G37*
G36*
X0038384Y0050787D02*
X0037601Y0050787D01*
X0036877Y0050488D01*
X0036323Y0049934D01*
X0036024Y0049210D01*
X0036024Y0048427D01*
X0036323Y0047704D01*
X0036877Y0047150D01*
X0037601Y0046850D01*
X0038384Y0046850D01*
X0039107Y0047150D01*
X0039661Y0047704D01*
X0039961Y0048427D01*
X0039961Y0049210D01*
X0039661Y0049934D01*
X0039107Y0050488D01*
X0038384Y0050787D01*
X0038384Y0050787D02*
G37*
G36*
X0080116Y0049409D02*
X0079333Y0049409D01*
X0078609Y0049110D01*
X0078056Y0048556D01*
X0077756Y0047833D01*
X0077756Y0047049D01*
X0078056Y0046326D01*
X0078609Y0045772D01*
X0079333Y0045472D01*
X0080116Y0045472D01*
X0080840Y0045772D01*
X0081393Y0046326D01*
X0081693Y0047049D01*
X0081693Y0047833D01*
X0081393Y0048556D01*
X0080840Y0049110D01*
X0080116Y0049409D01*
X0080116Y0049409D02*
G37*
G36*
X0160431Y0121850D02*
X0159648Y0121850D01*
X0158924Y0121551D01*
X0158371Y0120997D01*
X0158071Y0120273D01*
X0158071Y0119490D01*
X0158371Y0118767D01*
X0158924Y0118213D01*
X0159648Y0117913D01*
X0160431Y0117913D01*
X0161154Y0118213D01*
X0161708Y0118767D01*
X0162008Y0119490D01*
X0162008Y0120273D01*
X0161708Y0120997D01*
X0161154Y0121551D01*
X0160431Y0121850D01*
X0160431Y0121850D02*
G37*
G36*
X0160453Y0116142D02*
X0159468Y0116142D01*
X0158517Y0115887D01*
X0157664Y0115394D01*
X0156968Y0114698D01*
X0156475Y0113845D01*
X0156220Y0112894D01*
X0156220Y0111909D01*
X0156475Y0110958D01*
X0156968Y0110105D01*
X0157664Y0109409D01*
X0158517Y0108916D01*
X0159468Y0108661D01*
X0160453Y0108661D01*
X0161404Y0108916D01*
X0162257Y0109409D01*
X0162953Y0110105D01*
X0163446Y0110958D01*
X0163701Y0111909D01*
X0163701Y0112894D01*
X0163446Y0113845D01*
X0162953Y0114698D01*
X0162257Y0115394D01*
X0161404Y0115887D01*
X0160453Y0116142D01*
X0160453Y0116142D02*
G37*
G36*
X0170470Y0095472D02*
X0169687Y0095472D01*
X0168964Y0095173D01*
X0168410Y0094619D01*
X0168110Y0093896D01*
X0168110Y0093112D01*
X0168410Y0092389D01*
X0168964Y0091835D01*
X0169687Y0091535D01*
X0170470Y0091535D01*
X0171194Y0091835D01*
X0171748Y0092389D01*
X0172047Y0093112D01*
X0172047Y0093896D01*
X0171748Y0094619D01*
X0171194Y0095173D01*
X0170470Y0095472D01*
X0170470Y0095472D02*
G37*
G36*
X0160628Y0095276D02*
X0159845Y0095276D01*
X0159121Y0094976D01*
X0158567Y0094422D01*
X0158268Y0093699D01*
X0158268Y0092915D01*
X0158567Y0092192D01*
X0159121Y0091638D01*
X0159845Y0091339D01*
X0160628Y0091339D01*
X0161351Y0091638D01*
X0161905Y0092192D01*
X0162205Y0092915D01*
X0162205Y0093699D01*
X0161905Y0094422D01*
X0161351Y0094976D01*
X0160628Y0095276D01*
X0160628Y0095276D02*
G37*
G36*
X0160442Y-0013606D02*
X0160413Y-0013606D01*
X0160413Y-0017067D01*
X0163874Y-0017067D01*
X0163874Y-0017039D01*
X0163605Y-0016033D01*
X0163084Y-0015132D01*
X0162348Y-0014396D01*
X0161447Y-0013876D01*
X0160442Y-0013606D01*
X0160442Y-0013606D02*
G37*
G36*
X0159429Y-0013606D02*
X0159401Y-0013606D01*
X0158396Y-0013876D01*
X0157494Y-0014396D01*
X0156758Y-0015132D01*
X0156238Y-0016033D01*
X0155968Y-0017039D01*
X0155968Y-0017067D01*
X0159429Y-0017067D01*
X0159429Y-0013606D01*
X0159429Y-0013606D02*
G37*
G36*
X0163874Y-0018051D02*
X0160413Y-0018051D01*
X0160413Y-0021512D01*
X0160442Y-0021512D01*
X0161447Y-0021242D01*
X0162348Y-0020722D01*
X0163084Y-0019986D01*
X0163605Y-0019085D01*
X0163874Y-0018079D01*
X0163874Y-0018051D01*
X0163874Y-0018051D02*
G37*
G36*
X0159429Y-0018051D02*
X0155968Y-0018051D01*
X0155968Y-0018079D01*
X0156238Y-0019085D01*
X0156758Y-0019986D01*
X0157494Y-0020722D01*
X0158396Y-0021242D01*
X0159401Y-0021512D01*
X0159429Y-0021512D01*
X0159429Y-0018051D01*
X0159429Y-0018051D02*
G37*
%LPD*%
D67*
X0159921Y-0017559D02*
D03*
D107*
X0033071Y0177165D02*
D03*
D112*
X0055118Y0177165D02*
D03*
X0013386Y0177165D02*
D03*
D114*
X0182677Y0304331D02*
D03*
X0170276Y0304331D02*
D03*
X0025984Y0157677D02*
D03*
X0029638Y0157696D02*
D03*
X0077016Y0079772D02*
D03*
X0076877Y0082315D02*
D03*
X0071457Y0169291D02*
D03*
X0069291Y0171063D02*
D03*
X0050591Y0155413D02*
D03*
X0138201Y0163976D02*
D03*
X0134055Y0159982D02*
D03*
X0113386Y0169882D02*
D03*
X0108071Y0169882D02*
D03*
X0146457Y0011024D02*
D03*
X0146457Y0007480D02*
D03*
X0143209Y0007480D02*
D03*
X0143209Y0011024D02*
D03*
X0139961Y0007480D02*
D03*
X0139961Y0011024D02*
D03*
X0112402Y0055118D02*
D03*
X0112598Y0051772D02*
D03*
X0109252Y0051772D02*
D03*
X0105709Y0051772D02*
D03*
X0109252Y0055118D02*
D03*
X0142348Y0159982D02*
D03*
X0138201Y0159982D02*
D03*
X0142348Y0163976D02*
D03*
X0134055Y0163976D02*
D03*
X0076378Y0139567D02*
D03*
X0083465Y0139764D02*
D03*
X0079921Y0139764D02*
D03*
X0094685Y0050984D02*
D03*
X0094685Y0054331D02*
D03*
X0094685Y0057677D02*
D03*
X0098032Y0054331D02*
D03*
X0098032Y0050984D02*
D03*
X0033800Y0157696D02*
D03*
X0037963Y0157696D02*
D03*
X0042126Y0153956D02*
D03*
X0098032Y0057677D02*
D03*
X0120866Y0288189D02*
D03*
X0120866Y0284547D02*
D03*
X0120866Y0280906D02*
D03*
X0124606Y0280906D02*
D03*
X0124606Y0284547D02*
D03*
X0085433Y0321803D02*
D03*
X0081890Y0321803D02*
D03*
X0048228Y0278346D02*
D03*
X0051378Y0281496D02*
D03*
X0054134Y0284252D02*
D03*
X0056693Y0287008D02*
D03*
X0071663Y0322089D02*
D03*
X0071663Y0325632D02*
D03*
X0188386Y0310039D02*
D03*
X0165157Y0313386D02*
D03*
X0124606Y0288189D02*
D03*
X0076378Y0143110D02*
D03*
X0083465Y0143110D02*
D03*
X0079921Y0143110D02*
D03*
X0105905Y0055118D02*
D03*
X0089764Y0203937D02*
D03*
X0133071Y0194095D02*
D03*
X0067524Y0322089D02*
D03*
X0063386Y0322089D02*
D03*
X0067524Y0325632D02*
D03*
X0063386Y0325632D02*
D03*
X0059252Y0289764D02*
D03*
X0085433Y0314567D02*
D03*
X0081890Y0314567D02*
D03*
X0085433Y0318185D02*
D03*
X0081890Y0318185D02*
D03*
X0067716Y0318110D02*
D03*
X0069685Y0285039D02*
D03*
X0042126Y0157696D02*
D03*
M02*
