%TF.GenerationSoftware,KiCad,Pcbnew,(7.0.0-0)*%
%TF.CreationDate,2023-03-31T14:52:11+11:00*%
%TF.ProjectId,Notecarrier-B,4e6f7465-6361-4727-9269-65722d422e6b,A*%
%TF.SameCoordinates,Original*%
%TF.FileFunction,Legend,Top*%
%TF.FilePolarity,Positive*%
%FSLAX46Y46*%
G04 Gerber Fmt 4.6, Leading zero omitted, Abs format (unit mm)*
G04 Created by KiCad (PCBNEW (7.0.0-0)) date 2023-03-31 14:52:11*
%MOMM*%
%LPD*%
G01*
G04 APERTURE LIST*
%ADD10C,0.195000*%
%ADD11C,0.160000*%
%ADD12C,0.125000*%
G04 APERTURE END LIST*
D10*
X142797500Y-91500000D02*
G75*
G03*
X142797500Y-91500000I-97500J0D01*
G01*
D11*
X135240476Y-88071142D02*
X135850000Y-88071142D01*
X135545238Y-88375904D02*
X135545238Y-87766380D01*
D12*
X112987809Y-59134523D02*
X113025904Y-58991666D01*
X113025904Y-58991666D02*
X113025904Y-58753571D01*
X113025904Y-58753571D02*
X112987809Y-58658333D01*
X112987809Y-58658333D02*
X112949714Y-58610714D01*
X112949714Y-58610714D02*
X112873523Y-58563095D01*
X112873523Y-58563095D02*
X112797333Y-58563095D01*
X112797333Y-58563095D02*
X112721142Y-58610714D01*
X112721142Y-58610714D02*
X112683047Y-58658333D01*
X112683047Y-58658333D02*
X112644952Y-58753571D01*
X112644952Y-58753571D02*
X112606857Y-58944047D01*
X112606857Y-58944047D02*
X112568761Y-59039285D01*
X112568761Y-59039285D02*
X112530666Y-59086904D01*
X112530666Y-59086904D02*
X112454476Y-59134523D01*
X112454476Y-59134523D02*
X112378285Y-59134523D01*
X112378285Y-59134523D02*
X112302095Y-59086904D01*
X112302095Y-59086904D02*
X112264000Y-59039285D01*
X112264000Y-59039285D02*
X112225904Y-58944047D01*
X112225904Y-58944047D02*
X112225904Y-58705952D01*
X112225904Y-58705952D02*
X112264000Y-58563095D01*
X113025904Y-58134523D02*
X112225904Y-58134523D01*
X112225904Y-58134523D02*
X112225904Y-57896428D01*
X112225904Y-57896428D02*
X112264000Y-57753571D01*
X112264000Y-57753571D02*
X112340190Y-57658333D01*
X112340190Y-57658333D02*
X112416380Y-57610714D01*
X112416380Y-57610714D02*
X112568761Y-57563095D01*
X112568761Y-57563095D02*
X112683047Y-57563095D01*
X112683047Y-57563095D02*
X112835428Y-57610714D01*
X112835428Y-57610714D02*
X112911619Y-57658333D01*
X112911619Y-57658333D02*
X112987809Y-57753571D01*
X112987809Y-57753571D02*
X113025904Y-57896428D01*
X113025904Y-57896428D02*
X113025904Y-58134523D01*
X112797333Y-57182142D02*
X112797333Y-56705952D01*
X113025904Y-57277380D02*
X112225904Y-56944047D01*
X112225904Y-56944047D02*
X113025904Y-56610714D01*
X127489000Y-58563095D02*
X127450904Y-58658333D01*
X127450904Y-58658333D02*
X127450904Y-58801190D01*
X127450904Y-58801190D02*
X127489000Y-58944047D01*
X127489000Y-58944047D02*
X127565190Y-59039285D01*
X127565190Y-59039285D02*
X127641380Y-59086904D01*
X127641380Y-59086904D02*
X127793761Y-59134523D01*
X127793761Y-59134523D02*
X127908047Y-59134523D01*
X127908047Y-59134523D02*
X128060428Y-59086904D01*
X128060428Y-59086904D02*
X128136619Y-59039285D01*
X128136619Y-59039285D02*
X128212809Y-58944047D01*
X128212809Y-58944047D02*
X128250904Y-58801190D01*
X128250904Y-58801190D02*
X128250904Y-58705952D01*
X128250904Y-58705952D02*
X128212809Y-58563095D01*
X128212809Y-58563095D02*
X128174714Y-58515476D01*
X128174714Y-58515476D02*
X127908047Y-58515476D01*
X127908047Y-58515476D02*
X127908047Y-58705952D01*
X128250904Y-58086904D02*
X127450904Y-58086904D01*
X127450904Y-58086904D02*
X128250904Y-57515476D01*
X128250904Y-57515476D02*
X127450904Y-57515476D01*
X128250904Y-57039285D02*
X127450904Y-57039285D01*
X127450904Y-57039285D02*
X127450904Y-56801190D01*
X127450904Y-56801190D02*
X127489000Y-56658333D01*
X127489000Y-56658333D02*
X127565190Y-56563095D01*
X127565190Y-56563095D02*
X127641380Y-56515476D01*
X127641380Y-56515476D02*
X127793761Y-56467857D01*
X127793761Y-56467857D02*
X127908047Y-56467857D01*
X127908047Y-56467857D02*
X128060428Y-56515476D01*
X128060428Y-56515476D02*
X128136619Y-56563095D01*
X128136619Y-56563095D02*
X128212809Y-56658333D01*
X128212809Y-56658333D02*
X128250904Y-56801190D01*
X128250904Y-56801190D02*
X128250904Y-57039285D01*
X127752571Y-97475000D02*
X127981142Y-98236904D01*
X127981142Y-98236904D02*
X128209714Y-97475000D01*
X127485904Y-97141666D02*
X128285904Y-96808333D01*
X128285904Y-96808333D02*
X127485904Y-96475000D01*
X128285904Y-96141666D02*
X127485904Y-96141666D01*
X127485904Y-95475000D02*
X127485904Y-95284524D01*
X127485904Y-95284524D02*
X127524000Y-95189286D01*
X127524000Y-95189286D02*
X127600190Y-95094048D01*
X127600190Y-95094048D02*
X127752571Y-95046429D01*
X127752571Y-95046429D02*
X128019238Y-95046429D01*
X128019238Y-95046429D02*
X128171619Y-95094048D01*
X128171619Y-95094048D02*
X128247809Y-95189286D01*
X128247809Y-95189286D02*
X128285904Y-95284524D01*
X128285904Y-95284524D02*
X128285904Y-95475000D01*
X128285904Y-95475000D02*
X128247809Y-95570238D01*
X128247809Y-95570238D02*
X128171619Y-95665476D01*
X128171619Y-95665476D02*
X128019238Y-95713095D01*
X128019238Y-95713095D02*
X127752571Y-95713095D01*
X127752571Y-95713095D02*
X127600190Y-95665476D01*
X127600190Y-95665476D02*
X127524000Y-95570238D01*
X127524000Y-95570238D02*
X127485904Y-95475000D01*
X110247333Y-98475000D02*
X110247333Y-97998810D01*
X110475904Y-98570238D02*
X109675904Y-98236905D01*
X109675904Y-98236905D02*
X110475904Y-97903572D01*
X109675904Y-97570238D02*
X110323523Y-97570238D01*
X110323523Y-97570238D02*
X110399714Y-97522619D01*
X110399714Y-97522619D02*
X110437809Y-97475000D01*
X110437809Y-97475000D02*
X110475904Y-97379762D01*
X110475904Y-97379762D02*
X110475904Y-97189286D01*
X110475904Y-97189286D02*
X110437809Y-97094048D01*
X110437809Y-97094048D02*
X110399714Y-97046429D01*
X110399714Y-97046429D02*
X110323523Y-96998810D01*
X110323523Y-96998810D02*
X109675904Y-96998810D01*
X109675904Y-96617857D02*
X110475904Y-95951191D01*
X109675904Y-95951191D02*
X110475904Y-96617857D01*
X109752095Y-95617857D02*
X109714000Y-95570238D01*
X109714000Y-95570238D02*
X109675904Y-95475000D01*
X109675904Y-95475000D02*
X109675904Y-95236905D01*
X109675904Y-95236905D02*
X109714000Y-95141667D01*
X109714000Y-95141667D02*
X109752095Y-95094048D01*
X109752095Y-95094048D02*
X109828285Y-95046429D01*
X109828285Y-95046429D02*
X109904476Y-95046429D01*
X109904476Y-95046429D02*
X110018761Y-95094048D01*
X110018761Y-95094048D02*
X110475904Y-95665476D01*
X110475904Y-95665476D02*
X110475904Y-95046429D01*
X120575904Y-58590476D02*
X120194952Y-58923809D01*
X120575904Y-59161904D02*
X119775904Y-59161904D01*
X119775904Y-59161904D02*
X119775904Y-58780952D01*
X119775904Y-58780952D02*
X119814000Y-58685714D01*
X119814000Y-58685714D02*
X119852095Y-58638095D01*
X119852095Y-58638095D02*
X119928285Y-58590476D01*
X119928285Y-58590476D02*
X120042571Y-58590476D01*
X120042571Y-58590476D02*
X120118761Y-58638095D01*
X120118761Y-58638095D02*
X120156857Y-58685714D01*
X120156857Y-58685714D02*
X120194952Y-58780952D01*
X120194952Y-58780952D02*
X120194952Y-59161904D01*
X120537809Y-58209523D02*
X120575904Y-58066666D01*
X120575904Y-58066666D02*
X120575904Y-57828571D01*
X120575904Y-57828571D02*
X120537809Y-57733333D01*
X120537809Y-57733333D02*
X120499714Y-57685714D01*
X120499714Y-57685714D02*
X120423523Y-57638095D01*
X120423523Y-57638095D02*
X120347333Y-57638095D01*
X120347333Y-57638095D02*
X120271142Y-57685714D01*
X120271142Y-57685714D02*
X120233047Y-57733333D01*
X120233047Y-57733333D02*
X120194952Y-57828571D01*
X120194952Y-57828571D02*
X120156857Y-58019047D01*
X120156857Y-58019047D02*
X120118761Y-58114285D01*
X120118761Y-58114285D02*
X120080666Y-58161904D01*
X120080666Y-58161904D02*
X120004476Y-58209523D01*
X120004476Y-58209523D02*
X119928285Y-58209523D01*
X119928285Y-58209523D02*
X119852095Y-58161904D01*
X119852095Y-58161904D02*
X119814000Y-58114285D01*
X119814000Y-58114285D02*
X119775904Y-58019047D01*
X119775904Y-58019047D02*
X119775904Y-57780952D01*
X119775904Y-57780952D02*
X119814000Y-57638095D01*
X119775904Y-57352380D02*
X119775904Y-56780952D01*
X120575904Y-57066666D02*
X119775904Y-57066666D01*
X104575904Y-59154761D02*
X105375904Y-58821428D01*
X105375904Y-58821428D02*
X104575904Y-58488095D01*
X105375904Y-58154761D02*
X104575904Y-58154761D01*
X104575904Y-58154761D02*
X105147333Y-57821428D01*
X105147333Y-57821428D02*
X104575904Y-57488095D01*
X104575904Y-57488095D02*
X105375904Y-57488095D01*
X105147333Y-57059523D02*
X105147333Y-56583333D01*
X105375904Y-57154761D02*
X104575904Y-56821428D01*
X104575904Y-56821428D02*
X105375904Y-56488095D01*
X105375904Y-56154761D02*
X104575904Y-56154761D01*
X105375904Y-55678571D02*
X104575904Y-55678571D01*
X104575904Y-55678571D02*
X105375904Y-55107143D01*
X105375904Y-55107143D02*
X104575904Y-55107143D01*
X107900904Y-58590476D02*
X107519952Y-58923809D01*
X107900904Y-59161904D02*
X107100904Y-59161904D01*
X107100904Y-59161904D02*
X107100904Y-58780952D01*
X107100904Y-58780952D02*
X107139000Y-58685714D01*
X107139000Y-58685714D02*
X107177095Y-58638095D01*
X107177095Y-58638095D02*
X107253285Y-58590476D01*
X107253285Y-58590476D02*
X107367571Y-58590476D01*
X107367571Y-58590476D02*
X107443761Y-58638095D01*
X107443761Y-58638095D02*
X107481857Y-58685714D01*
X107481857Y-58685714D02*
X107519952Y-58780952D01*
X107519952Y-58780952D02*
X107519952Y-59161904D01*
X107100904Y-58257142D02*
X107900904Y-57590476D01*
X107100904Y-57590476D02*
X107900904Y-58257142D01*
X112817333Y-98475000D02*
X112817333Y-97998810D01*
X113045904Y-98570238D02*
X112245904Y-98236905D01*
X112245904Y-98236905D02*
X113045904Y-97903572D01*
X112245904Y-97570238D02*
X112893523Y-97570238D01*
X112893523Y-97570238D02*
X112969714Y-97522619D01*
X112969714Y-97522619D02*
X113007809Y-97475000D01*
X113007809Y-97475000D02*
X113045904Y-97379762D01*
X113045904Y-97379762D02*
X113045904Y-97189286D01*
X113045904Y-97189286D02*
X113007809Y-97094048D01*
X113007809Y-97094048D02*
X112969714Y-97046429D01*
X112969714Y-97046429D02*
X112893523Y-96998810D01*
X112893523Y-96998810D02*
X112245904Y-96998810D01*
X112245904Y-96617857D02*
X113045904Y-95951191D01*
X112245904Y-95951191D02*
X113045904Y-96617857D01*
X112245904Y-95665476D02*
X112245904Y-95046429D01*
X112245904Y-95046429D02*
X112550666Y-95379762D01*
X112550666Y-95379762D02*
X112550666Y-95236905D01*
X112550666Y-95236905D02*
X112588761Y-95141667D01*
X112588761Y-95141667D02*
X112626857Y-95094048D01*
X112626857Y-95094048D02*
X112703047Y-95046429D01*
X112703047Y-95046429D02*
X112893523Y-95046429D01*
X112893523Y-95046429D02*
X112969714Y-95094048D01*
X112969714Y-95094048D02*
X113007809Y-95141667D01*
X113007809Y-95141667D02*
X113045904Y-95236905D01*
X113045904Y-95236905D02*
X113045904Y-95522619D01*
X113045904Y-95522619D02*
X113007809Y-95617857D01*
X113007809Y-95617857D02*
X112969714Y-95665476D01*
X109625904Y-59154761D02*
X109625904Y-58583333D01*
X110425904Y-58869047D02*
X109625904Y-58869047D01*
X109625904Y-58345237D02*
X110425904Y-57678571D01*
X109625904Y-57678571D02*
X110425904Y-58345237D01*
X117897333Y-99475000D02*
X117897333Y-98998810D01*
X118125904Y-99570238D02*
X117325904Y-99236905D01*
X117325904Y-99236905D02*
X118125904Y-98903572D01*
X117325904Y-98570238D02*
X117973523Y-98570238D01*
X117973523Y-98570238D02*
X118049714Y-98522619D01*
X118049714Y-98522619D02*
X118087809Y-98475000D01*
X118087809Y-98475000D02*
X118125904Y-98379762D01*
X118125904Y-98379762D02*
X118125904Y-98189286D01*
X118125904Y-98189286D02*
X118087809Y-98094048D01*
X118087809Y-98094048D02*
X118049714Y-98046429D01*
X118049714Y-98046429D02*
X117973523Y-97998810D01*
X117973523Y-97998810D02*
X117325904Y-97998810D01*
X117325904Y-97617857D02*
X118125904Y-96951191D01*
X117325904Y-96951191D02*
X118125904Y-97617857D01*
X117706857Y-96570238D02*
X117706857Y-96236905D01*
X118125904Y-96094048D02*
X118125904Y-96570238D01*
X118125904Y-96570238D02*
X117325904Y-96570238D01*
X117325904Y-96570238D02*
X117325904Y-96094048D01*
X118125904Y-95665476D02*
X117325904Y-95665476D01*
X117325904Y-95665476D02*
X118125904Y-95094048D01*
X118125904Y-95094048D02*
X117325904Y-95094048D01*
X124825904Y-59154761D02*
X125625904Y-58821428D01*
X125625904Y-58821428D02*
X124825904Y-58488095D01*
X125206857Y-57821428D02*
X125244952Y-57678571D01*
X125244952Y-57678571D02*
X125283047Y-57630952D01*
X125283047Y-57630952D02*
X125359238Y-57583333D01*
X125359238Y-57583333D02*
X125473523Y-57583333D01*
X125473523Y-57583333D02*
X125549714Y-57630952D01*
X125549714Y-57630952D02*
X125587809Y-57678571D01*
X125587809Y-57678571D02*
X125625904Y-57773809D01*
X125625904Y-57773809D02*
X125625904Y-58154761D01*
X125625904Y-58154761D02*
X124825904Y-58154761D01*
X124825904Y-58154761D02*
X124825904Y-57821428D01*
X124825904Y-57821428D02*
X124864000Y-57726190D01*
X124864000Y-57726190D02*
X124902095Y-57678571D01*
X124902095Y-57678571D02*
X124978285Y-57630952D01*
X124978285Y-57630952D02*
X125054476Y-57630952D01*
X125054476Y-57630952D02*
X125130666Y-57678571D01*
X125130666Y-57678571D02*
X125168761Y-57726190D01*
X125168761Y-57726190D02*
X125206857Y-57821428D01*
X125206857Y-57821428D02*
X125206857Y-58154761D01*
X125397333Y-57202380D02*
X125397333Y-56726190D01*
X125625904Y-57297618D02*
X124825904Y-56964285D01*
X124825904Y-56964285D02*
X125625904Y-56630952D01*
X124825904Y-56440475D02*
X124825904Y-55869047D01*
X125625904Y-56154761D02*
X124825904Y-56154761D01*
X122977333Y-99236905D02*
X122977333Y-98760715D01*
X123205904Y-99332143D02*
X122405904Y-98998810D01*
X122405904Y-98998810D02*
X123205904Y-98665477D01*
X122405904Y-98332143D02*
X123053523Y-98332143D01*
X123053523Y-98332143D02*
X123129714Y-98284524D01*
X123129714Y-98284524D02*
X123167809Y-98236905D01*
X123167809Y-98236905D02*
X123205904Y-98141667D01*
X123205904Y-98141667D02*
X123205904Y-97951191D01*
X123205904Y-97951191D02*
X123167809Y-97855953D01*
X123167809Y-97855953D02*
X123129714Y-97808334D01*
X123129714Y-97808334D02*
X123053523Y-97760715D01*
X123053523Y-97760715D02*
X122405904Y-97760715D01*
X122405904Y-97379762D02*
X123205904Y-96713096D01*
X122405904Y-96713096D02*
X123205904Y-97379762D01*
X122405904Y-96475000D02*
X122405904Y-95903572D01*
X123205904Y-96189286D02*
X122405904Y-96189286D01*
X122405904Y-95665476D02*
X123205904Y-94998810D01*
X122405904Y-94998810D02*
X123205904Y-95665476D01*
X120437333Y-99475000D02*
X120437333Y-98998810D01*
X120665904Y-99570238D02*
X119865904Y-99236905D01*
X119865904Y-99236905D02*
X120665904Y-98903572D01*
X119865904Y-98570238D02*
X120513523Y-98570238D01*
X120513523Y-98570238D02*
X120589714Y-98522619D01*
X120589714Y-98522619D02*
X120627809Y-98475000D01*
X120627809Y-98475000D02*
X120665904Y-98379762D01*
X120665904Y-98379762D02*
X120665904Y-98189286D01*
X120665904Y-98189286D02*
X120627809Y-98094048D01*
X120627809Y-98094048D02*
X120589714Y-98046429D01*
X120589714Y-98046429D02*
X120513523Y-97998810D01*
X120513523Y-97998810D02*
X119865904Y-97998810D01*
X119865904Y-97617857D02*
X120665904Y-96951191D01*
X119865904Y-96951191D02*
X120665904Y-97617857D01*
X120665904Y-95998810D02*
X120284952Y-96332143D01*
X120665904Y-96570238D02*
X119865904Y-96570238D01*
X119865904Y-96570238D02*
X119865904Y-96189286D01*
X119865904Y-96189286D02*
X119904000Y-96094048D01*
X119904000Y-96094048D02*
X119942095Y-96046429D01*
X119942095Y-96046429D02*
X120018285Y-95998810D01*
X120018285Y-95998810D02*
X120132571Y-95998810D01*
X120132571Y-95998810D02*
X120208761Y-96046429D01*
X120208761Y-96046429D02*
X120246857Y-96094048D01*
X120246857Y-96094048D02*
X120284952Y-96189286D01*
X120284952Y-96189286D02*
X120284952Y-96570238D01*
X119865904Y-95665476D02*
X120665904Y-94998810D01*
X119865904Y-94998810D02*
X120665904Y-95665476D01*
X112534523Y-77807380D02*
X112534523Y-76807380D01*
X112534523Y-76807380D02*
X113277380Y-77807380D01*
X113277380Y-77807380D02*
X113277380Y-76807380D01*
X114144047Y-76807380D02*
X114391666Y-76807380D01*
X114391666Y-76807380D02*
X114515476Y-76855000D01*
X114515476Y-76855000D02*
X114639285Y-76950238D01*
X114639285Y-76950238D02*
X114701190Y-77140714D01*
X114701190Y-77140714D02*
X114701190Y-77474047D01*
X114701190Y-77474047D02*
X114639285Y-77664523D01*
X114639285Y-77664523D02*
X114515476Y-77759761D01*
X114515476Y-77759761D02*
X114391666Y-77807380D01*
X114391666Y-77807380D02*
X114144047Y-77807380D01*
X114144047Y-77807380D02*
X114020238Y-77759761D01*
X114020238Y-77759761D02*
X113896428Y-77664523D01*
X113896428Y-77664523D02*
X113834524Y-77474047D01*
X113834524Y-77474047D02*
X113834524Y-77140714D01*
X113834524Y-77140714D02*
X113896428Y-76950238D01*
X113896428Y-76950238D02*
X114020238Y-76855000D01*
X114020238Y-76855000D02*
X114144047Y-76807380D01*
X115072619Y-76807380D02*
X115815476Y-76807380D01*
X115444048Y-77807380D02*
X115444048Y-76807380D01*
X116248809Y-77283571D02*
X116682143Y-77283571D01*
X116867857Y-77807380D02*
X116248809Y-77807380D01*
X116248809Y-77807380D02*
X116248809Y-76807380D01*
X116248809Y-76807380D02*
X116867857Y-76807380D01*
X118167856Y-77712142D02*
X118105952Y-77759761D01*
X118105952Y-77759761D02*
X117920237Y-77807380D01*
X117920237Y-77807380D02*
X117796428Y-77807380D01*
X117796428Y-77807380D02*
X117610714Y-77759761D01*
X117610714Y-77759761D02*
X117486904Y-77664523D01*
X117486904Y-77664523D02*
X117424999Y-77569285D01*
X117424999Y-77569285D02*
X117363095Y-77378809D01*
X117363095Y-77378809D02*
X117363095Y-77235952D01*
X117363095Y-77235952D02*
X117424999Y-77045476D01*
X117424999Y-77045476D02*
X117486904Y-76950238D01*
X117486904Y-76950238D02*
X117610714Y-76855000D01*
X117610714Y-76855000D02*
X117796428Y-76807380D01*
X117796428Y-76807380D02*
X117920237Y-76807380D01*
X117920237Y-76807380D02*
X118105952Y-76855000D01*
X118105952Y-76855000D02*
X118167856Y-76902619D01*
X118663095Y-77521666D02*
X119282142Y-77521666D01*
X118539285Y-77807380D02*
X118972618Y-76807380D01*
X118972618Y-76807380D02*
X119405952Y-77807380D01*
X120582142Y-77807380D02*
X120148809Y-77331190D01*
X119839285Y-77807380D02*
X119839285Y-76807380D01*
X119839285Y-76807380D02*
X120334523Y-76807380D01*
X120334523Y-76807380D02*
X120458333Y-76855000D01*
X120458333Y-76855000D02*
X120520238Y-76902619D01*
X120520238Y-76902619D02*
X120582142Y-76997857D01*
X120582142Y-76997857D02*
X120582142Y-77140714D01*
X120582142Y-77140714D02*
X120520238Y-77235952D01*
X120520238Y-77235952D02*
X120458333Y-77283571D01*
X120458333Y-77283571D02*
X120334523Y-77331190D01*
X120334523Y-77331190D02*
X119839285Y-77331190D01*
X121882142Y-77807380D02*
X121448809Y-77331190D01*
X121139285Y-77807380D02*
X121139285Y-76807380D01*
X121139285Y-76807380D02*
X121634523Y-76807380D01*
X121634523Y-76807380D02*
X121758333Y-76855000D01*
X121758333Y-76855000D02*
X121820238Y-76902619D01*
X121820238Y-76902619D02*
X121882142Y-76997857D01*
X121882142Y-76997857D02*
X121882142Y-77140714D01*
X121882142Y-77140714D02*
X121820238Y-77235952D01*
X121820238Y-77235952D02*
X121758333Y-77283571D01*
X121758333Y-77283571D02*
X121634523Y-77331190D01*
X121634523Y-77331190D02*
X121139285Y-77331190D01*
X122439285Y-77807380D02*
X122439285Y-76807380D01*
X123058333Y-77283571D02*
X123491667Y-77283571D01*
X123677381Y-77807380D02*
X123058333Y-77807380D01*
X123058333Y-77807380D02*
X123058333Y-76807380D01*
X123058333Y-76807380D02*
X123677381Y-76807380D01*
X124977380Y-77807380D02*
X124544047Y-77331190D01*
X124234523Y-77807380D02*
X124234523Y-76807380D01*
X124234523Y-76807380D02*
X124729761Y-76807380D01*
X124729761Y-76807380D02*
X124853571Y-76855000D01*
X124853571Y-76855000D02*
X124915476Y-76902619D01*
X124915476Y-76902619D02*
X124977380Y-76997857D01*
X124977380Y-76997857D02*
X124977380Y-77140714D01*
X124977380Y-77140714D02*
X124915476Y-77235952D01*
X124915476Y-77235952D02*
X124853571Y-77283571D01*
X124853571Y-77283571D02*
X124729761Y-77331190D01*
X124729761Y-77331190D02*
X124234523Y-77331190D01*
X125534523Y-77426428D02*
X126525000Y-77426428D01*
X127577381Y-77283571D02*
X127763095Y-77331190D01*
X127763095Y-77331190D02*
X127825000Y-77378809D01*
X127825000Y-77378809D02*
X127886904Y-77474047D01*
X127886904Y-77474047D02*
X127886904Y-77616904D01*
X127886904Y-77616904D02*
X127825000Y-77712142D01*
X127825000Y-77712142D02*
X127763095Y-77759761D01*
X127763095Y-77759761D02*
X127639285Y-77807380D01*
X127639285Y-77807380D02*
X127144047Y-77807380D01*
X127144047Y-77807380D02*
X127144047Y-76807380D01*
X127144047Y-76807380D02*
X127577381Y-76807380D01*
X127577381Y-76807380D02*
X127701190Y-76855000D01*
X127701190Y-76855000D02*
X127763095Y-76902619D01*
X127763095Y-76902619D02*
X127825000Y-76997857D01*
X127825000Y-76997857D02*
X127825000Y-77093095D01*
X127825000Y-77093095D02*
X127763095Y-77188333D01*
X127763095Y-77188333D02*
X127701190Y-77235952D01*
X127701190Y-77235952D02*
X127577381Y-77283571D01*
X127577381Y-77283571D02*
X127144047Y-77283571D01*
X115462809Y-59134523D02*
X115500904Y-58991666D01*
X115500904Y-58991666D02*
X115500904Y-58753571D01*
X115500904Y-58753571D02*
X115462809Y-58658333D01*
X115462809Y-58658333D02*
X115424714Y-58610714D01*
X115424714Y-58610714D02*
X115348523Y-58563095D01*
X115348523Y-58563095D02*
X115272333Y-58563095D01*
X115272333Y-58563095D02*
X115196142Y-58610714D01*
X115196142Y-58610714D02*
X115158047Y-58658333D01*
X115158047Y-58658333D02*
X115119952Y-58753571D01*
X115119952Y-58753571D02*
X115081857Y-58944047D01*
X115081857Y-58944047D02*
X115043761Y-59039285D01*
X115043761Y-59039285D02*
X115005666Y-59086904D01*
X115005666Y-59086904D02*
X114929476Y-59134523D01*
X114929476Y-59134523D02*
X114853285Y-59134523D01*
X114853285Y-59134523D02*
X114777095Y-59086904D01*
X114777095Y-59086904D02*
X114739000Y-59039285D01*
X114739000Y-59039285D02*
X114700904Y-58944047D01*
X114700904Y-58944047D02*
X114700904Y-58705952D01*
X114700904Y-58705952D02*
X114739000Y-58563095D01*
X115424714Y-57563095D02*
X115462809Y-57610714D01*
X115462809Y-57610714D02*
X115500904Y-57753571D01*
X115500904Y-57753571D02*
X115500904Y-57848809D01*
X115500904Y-57848809D02*
X115462809Y-57991666D01*
X115462809Y-57991666D02*
X115386619Y-58086904D01*
X115386619Y-58086904D02*
X115310428Y-58134523D01*
X115310428Y-58134523D02*
X115158047Y-58182142D01*
X115158047Y-58182142D02*
X115043761Y-58182142D01*
X115043761Y-58182142D02*
X114891380Y-58134523D01*
X114891380Y-58134523D02*
X114815190Y-58086904D01*
X114815190Y-58086904D02*
X114739000Y-57991666D01*
X114739000Y-57991666D02*
X114700904Y-57848809D01*
X114700904Y-57848809D02*
X114700904Y-57753571D01*
X114700904Y-57753571D02*
X114739000Y-57610714D01*
X114739000Y-57610714D02*
X114777095Y-57563095D01*
X115500904Y-56658333D02*
X115500904Y-57134523D01*
X115500904Y-57134523D02*
X114700904Y-57134523D01*
X107697333Y-98475000D02*
X107697333Y-97998810D01*
X107925904Y-98570238D02*
X107125904Y-98236905D01*
X107125904Y-98236905D02*
X107925904Y-97903572D01*
X107125904Y-97570238D02*
X107773523Y-97570238D01*
X107773523Y-97570238D02*
X107849714Y-97522619D01*
X107849714Y-97522619D02*
X107887809Y-97475000D01*
X107887809Y-97475000D02*
X107925904Y-97379762D01*
X107925904Y-97379762D02*
X107925904Y-97189286D01*
X107925904Y-97189286D02*
X107887809Y-97094048D01*
X107887809Y-97094048D02*
X107849714Y-97046429D01*
X107849714Y-97046429D02*
X107773523Y-96998810D01*
X107773523Y-96998810D02*
X107125904Y-96998810D01*
X107125904Y-96617857D02*
X107925904Y-95951191D01*
X107125904Y-95951191D02*
X107925904Y-96617857D01*
X107925904Y-95046429D02*
X107925904Y-95617857D01*
X107925904Y-95332143D02*
X107125904Y-95332143D01*
X107125904Y-95332143D02*
X107240190Y-95427381D01*
X107240190Y-95427381D02*
X107316380Y-95522619D01*
X107316380Y-95522619D02*
X107354476Y-95617857D01*
X104614000Y-97141667D02*
X104575904Y-97236905D01*
X104575904Y-97236905D02*
X104575904Y-97379762D01*
X104575904Y-97379762D02*
X104614000Y-97522619D01*
X104614000Y-97522619D02*
X104690190Y-97617857D01*
X104690190Y-97617857D02*
X104766380Y-97665476D01*
X104766380Y-97665476D02*
X104918761Y-97713095D01*
X104918761Y-97713095D02*
X105033047Y-97713095D01*
X105033047Y-97713095D02*
X105185428Y-97665476D01*
X105185428Y-97665476D02*
X105261619Y-97617857D01*
X105261619Y-97617857D02*
X105337809Y-97522619D01*
X105337809Y-97522619D02*
X105375904Y-97379762D01*
X105375904Y-97379762D02*
X105375904Y-97284524D01*
X105375904Y-97284524D02*
X105337809Y-97141667D01*
X105337809Y-97141667D02*
X105299714Y-97094048D01*
X105299714Y-97094048D02*
X105033047Y-97094048D01*
X105033047Y-97094048D02*
X105033047Y-97284524D01*
X105375904Y-96665476D02*
X104575904Y-96665476D01*
X104575904Y-96665476D02*
X105375904Y-96094048D01*
X105375904Y-96094048D02*
X104575904Y-96094048D01*
X105375904Y-95617857D02*
X104575904Y-95617857D01*
X104575904Y-95617857D02*
X104575904Y-95379762D01*
X104575904Y-95379762D02*
X104614000Y-95236905D01*
X104614000Y-95236905D02*
X104690190Y-95141667D01*
X104690190Y-95141667D02*
X104766380Y-95094048D01*
X104766380Y-95094048D02*
X104918761Y-95046429D01*
X104918761Y-95046429D02*
X105033047Y-95046429D01*
X105033047Y-95046429D02*
X105185428Y-95094048D01*
X105185428Y-95094048D02*
X105261619Y-95141667D01*
X105261619Y-95141667D02*
X105337809Y-95236905D01*
X105337809Y-95236905D02*
X105375904Y-95379762D01*
X105375904Y-95379762D02*
X105375904Y-95617857D01*
X117822333Y-59059523D02*
X117822333Y-58583333D01*
X118050904Y-59154761D02*
X117250904Y-58821428D01*
X117250904Y-58821428D02*
X118050904Y-58488095D01*
X117250904Y-58297618D02*
X117250904Y-57726190D01*
X118050904Y-58011904D02*
X117250904Y-58011904D01*
X117250904Y-57535713D02*
X117250904Y-56964285D01*
X118050904Y-57249999D02*
X117250904Y-57249999D01*
X118050904Y-56630951D02*
X117250904Y-56630951D01*
X117250904Y-56630951D02*
X118050904Y-56059523D01*
X118050904Y-56059523D02*
X117250904Y-56059523D01*
X141728571Y-81082380D02*
X141109523Y-81082380D01*
X141109523Y-81082380D02*
X141109523Y-80082380D01*
X142161904Y-81082380D02*
X142161904Y-80082380D01*
X142780952Y-81082380D02*
X142780952Y-80082380D01*
X142780952Y-80082380D02*
X143276190Y-80082380D01*
X143276190Y-80082380D02*
X143400000Y-80130000D01*
X143400000Y-80130000D02*
X143461905Y-80177619D01*
X143461905Y-80177619D02*
X143523809Y-80272857D01*
X143523809Y-80272857D02*
X143523809Y-80415714D01*
X143523809Y-80415714D02*
X143461905Y-80510952D01*
X143461905Y-80510952D02*
X143400000Y-80558571D01*
X143400000Y-80558571D02*
X143276190Y-80606190D01*
X143276190Y-80606190D02*
X142780952Y-80606190D01*
X144328571Y-80082380D02*
X144576190Y-80082380D01*
X144576190Y-80082380D02*
X144700000Y-80130000D01*
X144700000Y-80130000D02*
X144823809Y-80225238D01*
X144823809Y-80225238D02*
X144885714Y-80415714D01*
X144885714Y-80415714D02*
X144885714Y-80749047D01*
X144885714Y-80749047D02*
X144823809Y-80939523D01*
X144823809Y-80939523D02*
X144700000Y-81034761D01*
X144700000Y-81034761D02*
X144576190Y-81082380D01*
X144576190Y-81082380D02*
X144328571Y-81082380D01*
X144328571Y-81082380D02*
X144204762Y-81034761D01*
X144204762Y-81034761D02*
X144080952Y-80939523D01*
X144080952Y-80939523D02*
X144019048Y-80749047D01*
X144019048Y-80749047D02*
X144019048Y-80415714D01*
X144019048Y-80415714D02*
X144080952Y-80225238D01*
X144080952Y-80225238D02*
X144204762Y-80130000D01*
X144204762Y-80130000D02*
X144328571Y-80082380D01*
X115357333Y-98475000D02*
X115357333Y-97998810D01*
X115585904Y-98570238D02*
X114785904Y-98236905D01*
X114785904Y-98236905D02*
X115585904Y-97903572D01*
X114785904Y-97570238D02*
X115433523Y-97570238D01*
X115433523Y-97570238D02*
X115509714Y-97522619D01*
X115509714Y-97522619D02*
X115547809Y-97475000D01*
X115547809Y-97475000D02*
X115585904Y-97379762D01*
X115585904Y-97379762D02*
X115585904Y-97189286D01*
X115585904Y-97189286D02*
X115547809Y-97094048D01*
X115547809Y-97094048D02*
X115509714Y-97046429D01*
X115509714Y-97046429D02*
X115433523Y-96998810D01*
X115433523Y-96998810D02*
X114785904Y-96998810D01*
X114785904Y-96617857D02*
X115585904Y-95951191D01*
X114785904Y-95951191D02*
X115585904Y-96617857D01*
X115052571Y-95141667D02*
X115585904Y-95141667D01*
X114747809Y-95379762D02*
X115319238Y-95617857D01*
X115319238Y-95617857D02*
X115319238Y-94998810D01*
X143259523Y-92874714D02*
X143211904Y-92912809D01*
X143211904Y-92912809D02*
X143069047Y-92950904D01*
X143069047Y-92950904D02*
X142973809Y-92950904D01*
X142973809Y-92950904D02*
X142830952Y-92912809D01*
X142830952Y-92912809D02*
X142735714Y-92836619D01*
X142735714Y-92836619D02*
X142688095Y-92760428D01*
X142688095Y-92760428D02*
X142640476Y-92608047D01*
X142640476Y-92608047D02*
X142640476Y-92493761D01*
X142640476Y-92493761D02*
X142688095Y-92341380D01*
X142688095Y-92341380D02*
X142735714Y-92265190D01*
X142735714Y-92265190D02*
X142830952Y-92189000D01*
X142830952Y-92189000D02*
X142973809Y-92150904D01*
X142973809Y-92150904D02*
X143069047Y-92150904D01*
X143069047Y-92150904D02*
X143211904Y-92189000D01*
X143211904Y-92189000D02*
X143259523Y-92227095D01*
X143688095Y-92950904D02*
X143688095Y-92150904D01*
X143688095Y-92531857D02*
X144259523Y-92531857D01*
X144259523Y-92950904D02*
X144259523Y-92150904D01*
X145259523Y-92189000D02*
X145164285Y-92150904D01*
X145164285Y-92150904D02*
X145021428Y-92150904D01*
X145021428Y-92150904D02*
X144878571Y-92189000D01*
X144878571Y-92189000D02*
X144783333Y-92265190D01*
X144783333Y-92265190D02*
X144735714Y-92341380D01*
X144735714Y-92341380D02*
X144688095Y-92493761D01*
X144688095Y-92493761D02*
X144688095Y-92608047D01*
X144688095Y-92608047D02*
X144735714Y-92760428D01*
X144735714Y-92760428D02*
X144783333Y-92836619D01*
X144783333Y-92836619D02*
X144878571Y-92912809D01*
X144878571Y-92912809D02*
X145021428Y-92950904D01*
X145021428Y-92950904D02*
X145116666Y-92950904D01*
X145116666Y-92950904D02*
X145259523Y-92912809D01*
X145259523Y-92912809D02*
X145307142Y-92874714D01*
X145307142Y-92874714D02*
X145307142Y-92608047D01*
X145307142Y-92608047D02*
X145116666Y-92608047D01*
X122731857Y-59161904D02*
X122731857Y-58828571D01*
X123150904Y-58685714D02*
X123150904Y-59161904D01*
X123150904Y-59161904D02*
X122350904Y-59161904D01*
X122350904Y-59161904D02*
X122350904Y-58685714D01*
X123150904Y-58257142D02*
X122350904Y-58257142D01*
X122350904Y-58257142D02*
X123150904Y-57685714D01*
X123150904Y-57685714D02*
X122350904Y-57685714D01*
X125212571Y-98951191D02*
X125441142Y-99713095D01*
X125441142Y-99713095D02*
X125669714Y-98951191D01*
X124945904Y-98617857D02*
X125745904Y-98284524D01*
X125745904Y-98284524D02*
X124945904Y-97951191D01*
X124945904Y-97617857D02*
X125593523Y-97617857D01*
X125593523Y-97617857D02*
X125669714Y-97570238D01*
X125669714Y-97570238D02*
X125707809Y-97522619D01*
X125707809Y-97522619D02*
X125745904Y-97427381D01*
X125745904Y-97427381D02*
X125745904Y-97236905D01*
X125745904Y-97236905D02*
X125707809Y-97141667D01*
X125707809Y-97141667D02*
X125669714Y-97094048D01*
X125669714Y-97094048D02*
X125593523Y-97046429D01*
X125593523Y-97046429D02*
X124945904Y-97046429D01*
X125707809Y-96617857D02*
X125745904Y-96475000D01*
X125745904Y-96475000D02*
X125745904Y-96236905D01*
X125745904Y-96236905D02*
X125707809Y-96141667D01*
X125707809Y-96141667D02*
X125669714Y-96094048D01*
X125669714Y-96094048D02*
X125593523Y-96046429D01*
X125593523Y-96046429D02*
X125517333Y-96046429D01*
X125517333Y-96046429D02*
X125441142Y-96094048D01*
X125441142Y-96094048D02*
X125403047Y-96141667D01*
X125403047Y-96141667D02*
X125364952Y-96236905D01*
X125364952Y-96236905D02*
X125326857Y-96427381D01*
X125326857Y-96427381D02*
X125288761Y-96522619D01*
X125288761Y-96522619D02*
X125250666Y-96570238D01*
X125250666Y-96570238D02*
X125174476Y-96617857D01*
X125174476Y-96617857D02*
X125098285Y-96617857D01*
X125098285Y-96617857D02*
X125022095Y-96570238D01*
X125022095Y-96570238D02*
X124984000Y-96522619D01*
X124984000Y-96522619D02*
X124945904Y-96427381D01*
X124945904Y-96427381D02*
X124945904Y-96189286D01*
X124945904Y-96189286D02*
X124984000Y-96046429D01*
X125326857Y-95284524D02*
X125364952Y-95141667D01*
X125364952Y-95141667D02*
X125403047Y-95094048D01*
X125403047Y-95094048D02*
X125479238Y-95046429D01*
X125479238Y-95046429D02*
X125593523Y-95046429D01*
X125593523Y-95046429D02*
X125669714Y-95094048D01*
X125669714Y-95094048D02*
X125707809Y-95141667D01*
X125707809Y-95141667D02*
X125745904Y-95236905D01*
X125745904Y-95236905D02*
X125745904Y-95617857D01*
X125745904Y-95617857D02*
X124945904Y-95617857D01*
X124945904Y-95617857D02*
X124945904Y-95284524D01*
X124945904Y-95284524D02*
X124984000Y-95189286D01*
X124984000Y-95189286D02*
X125022095Y-95141667D01*
X125022095Y-95141667D02*
X125098285Y-95094048D01*
X125098285Y-95094048D02*
X125174476Y-95094048D01*
X125174476Y-95094048D02*
X125250666Y-95141667D01*
X125250666Y-95141667D02*
X125288761Y-95189286D01*
X125288761Y-95189286D02*
X125326857Y-95284524D01*
X125326857Y-95284524D02*
X125326857Y-95617857D01*
M02*
