M48
; DRILL file {KiCad (7.0.0-0)} date Friday, 31 March 2023 at 02:52:23 PM
; FORMAT={-:-/ absolute / inch / decimal}
; #@! TF.CreationDate,2023-03-31T14:52:23+11:00
; #@! TF.GenerationSoftware,Kicad,Pcbnew,(7.0.0-0)
; #@! TF.FileFunction,Plated,1,2,PTH
FMAT,2
INCH
; #@! TA.AperFunction,Plated,PTH,ViaDrill
T1C0.0100
; #@! TA.AperFunction,Plated,PTH,ViaDrill
T2C0.0118
; #@! TA.AperFunction,Plated,PTH,ComponentDrill
T3C0.0394
; #@! TA.AperFunction,Plated,PTH,ComponentDrill
T4C0.1457
%
G90
G05
T1
X3.776Y-2.5786
X3.8339Y-2.5776
X3.8781Y-2.5781
X3.8933Y-3.2825
X3.9016Y-3.3138
X3.9016Y-3.3537
X3.9027Y-3.3814
X3.9158Y-2.5185
X3.9197Y-2.5776
X3.9296Y-2.9129
X3.9304Y-3.2909
X3.9341Y-2.8081
X3.9388Y-2.9583
X3.9412Y-3.3734
X3.9539Y-2.5519
X3.9626Y-2.9376
X3.9714Y-3.2904
X3.9792Y-2.6799
X3.9896Y-2.8683
X3.9953Y-2.9179
X4.0005Y-2.5054
X4.0099Y-2.7444
X4.0149Y-3.2904
X4.0205Y-2.8982
X4.0352Y-3.372
X4.0545Y-3.2899
X4.0551Y-2.4902
X4.0555Y-3.0115
X4.0644Y-2.7003
X4.065Y-2.5394
X4.0684Y-3.1732
X4.0686Y-2.8205
X4.0712Y-3.3725
X4.0736Y-3.2239
X4.0791Y-2.8598
X4.1043Y-2.5
X4.1437Y-2.5394
X4.178Y-3.118
X4.1788Y-2.7024
X4.179Y-2.6827
X4.1791Y-2.722
X4.1811Y-3.295
X4.2183Y-3.2934
X4.2324Y-3.3715
X4.2572Y-3.2941
X4.2803Y-3.3715
X4.2913Y-2.6155
X4.3002Y-3.295
X4.3071Y-2.9764
X4.3217Y-3.0833
X4.3253Y-2.6512
X4.3255Y-2.6185
X4.3276Y-3.3712
X4.3311Y-2.7665
X4.3337Y-2.7998
X4.3346Y-2.9291
X4.335Y-2.6955
X4.335Y-2.8431
X4.335Y-3.0321
X4.3432Y-3.295
X4.3462Y-3.4384
X4.3465Y-3.4117
X4.3683Y-3.4244
X4.374Y-2.6596
X4.3791Y-3.1209
X4.4084Y-3.2938
X4.4086Y-3.0072
X4.4178Y-2.6955
X4.4178Y-2.9789
X4.4189Y-3.0428
X4.4213Y-2.79
X4.4213Y-2.9376
X4.4217Y-2.7575
X4.4217Y-2.8844
X4.4227Y-3.3703
X4.4252Y-2.8307
X4.4291Y-3.0758
X4.4315Y-2.911
X4.4385Y-3.2856
X4.4388Y-2.6572
X4.4498Y-2.8474
X4.4518Y-3.1328
X4.4518Y-3.1903
X4.4518Y-3.2471
X4.4522Y-2.727
X4.4581Y-3.077
X4.4687Y-3.3665
X4.494Y-3.3359
X4.4975Y-3.0376
X4.4979Y-3.4246
X4.5168Y-3.412
X4.5189Y-3.4385
X4.5265Y-3.2948
X4.5266Y-3.1278
X4.5266Y-3.1793
X4.5266Y-3.2389
X4.5276Y-3.3612
X4.567Y-3.0243
X4.5996Y-3.0032
X4.6006Y-3.0991
X4.6244Y-3.1693
X4.6451Y-3.138
X4.6506Y-3.2628
X4.6631Y-3.3164
X4.6651Y-3.1218
X4.6796Y-2.8185
X4.6796Y-2.8598
X4.6823Y-3.448
X4.6906Y-3.1248
X4.6953Y-2.8392
X4.6953Y-2.8805
X4.7099Y-3.191
X4.7119Y-3.0072
X4.7122Y-3.2694
X4.7138Y-3.0991
X4.7261Y-2.9759
X4.7484Y-3.1373
X4.7517Y-3.1032
X4.7534Y-2.9258
X4.7553Y-3.3495
X4.7599Y-2.5848
X4.763Y-3.4802
X4.7671Y-3.2623
X4.7785Y-3.1644
X4.7799Y-3.075
X4.7851Y-3.108
X4.794Y-2.8852
X4.7989Y-3.3509
X4.8011Y-2.9839
X4.8051Y-3.0279
X4.8055Y-2.7122
X4.8077Y-3.4495
X4.8129Y-3.0782
X4.8171Y-3.3047
X4.8231Y-3.4061
X4.8372Y-2.842
X4.8388Y-2.9462
X4.8546Y-3.4794
X4.8577Y-2.5448
X4.8796Y-3.3599
X4.881Y-2.7982
X4.8816Y-3.3854
X4.8816Y-3.3322
X4.8826Y-2.9024
X4.8941Y-3.5642
X4.9191Y-2.8659
X4.9226Y-3.1065
X4.9273Y-2.7519
X4.9287Y-3.3904
X4.9409Y-2.6762
X4.9449Y-3.3248
X4.9557Y-2.8293
X4.9705Y-3.5827
X4.9828Y-2.6964
X4.9902Y-3.622
X4.9935Y-3.4782
X4.9952Y-2.7898
X4.9953Y-3.3981
X5.0Y-3.1447
X5.0Y-3.1742
X5.0248Y-2.6565
X5.0293Y-2.7557
X5.0295Y-3.4301
X5.0431Y-3.0315
X5.0591Y-3.4646
X5.0689Y-3.5827
X5.128Y-3.5335
X5.1375Y-2.4913
X5.1378Y-2.4606
X5.1772Y-2.4606
X5.1772Y-2.4902
X5.2264Y-2.4902
X5.2657Y-2.5098
X5.4429Y-2.4902
X5.4724Y-2.628
X5.4823Y-2.5787
X5.4921Y-2.4606
X5.5118Y-2.5
T2
X3.985Y-3.3746
X4.9634Y-3.1937
X4.9989Y-2.6173
X5.0039Y-3.2276
X5.0075Y-3.2736
X5.0254Y-2.8277
X5.0295Y-2.6173
X5.0394Y-3.1988
X5.0394Y-3.248
X5.0594Y-3.2957
X5.1063Y-3.4016
X5.1278Y-2.8249
X5.1339Y-2.8591
X5.1398Y-2.8974
X5.1528Y-3.0547
X5.1531Y-3.1047
X5.1575Y-3.4055
X5.1634Y-2.9302
X5.1673Y-3.2136
X5.1703Y-3.4764
X5.2116Y-2.9035
X5.2756Y-2.8297
X5.2953Y-2.5295
X5.3307Y-3.5197
X5.3346Y-3.4252
X5.3445Y-3.376
X5.3466Y-3.3268
X5.3642Y-3.248
X5.4134Y-3.2972
X5.4724Y-2.5197
X5.4724Y-2.8139
X5.4724Y-2.8445
X5.4803Y-3.2913
X5.5118Y-2.4114
X5.5118Y-2.6378
X5.5512Y-2.8839
X5.5709Y-2.3917
X5.5778Y-3.1919
X5.622Y-3.4257
X5.657Y-3.4257
X5.6594Y-2.3917
T3
X4.1339Y-3.689
X4.1348Y-2.389
X4.2339Y-3.689
X4.2348Y-2.389
X4.3339Y-3.689
X4.3348Y-2.389
X4.4339Y-3.689
X4.4348Y-2.389
X4.5339Y-3.689
X4.5348Y-2.389
X4.6339Y-3.689
X4.6348Y-2.389
X4.7339Y-3.689
X4.7348Y-2.389
X4.8339Y-3.689
X4.8348Y-2.389
X4.9339Y-3.689
X4.9348Y-2.389
X5.0339Y-3.689
X5.0348Y-2.389
T4
X5.3429Y-3.037
T0
M30
