M48
;Layer_Color=9474304
;FILE_FORMAT=2:5
INCH,LZ
;TYPE=PLATED
T1F00S00C0.00787
T2F00S00C0.01968
T3F00S00C0.02800
T4F00S00C0.03937
T5F00S00C0.14567
;TYPE=NON_PLATED
T6F00S00C0.04331
T7F00S00C0.06299
T8F00S00C0.12992
%
T01
X0049649Y0012
X0069665
X029626Y003189
Y0035433
Y0038976
Y004252
Y0046063
Y0049606
Y005315
Y0056693
Y0060236
Y0063779
Y0067323
Y0070866
Y0074409
Y0077953
Y0081496
Y0085039
Y0088583
Y0092126
Y0095669
Y0099213
Y0102756
Y0106299
Y0109843
Y0113386
Y0116929
Y0120472
Y0124016
Y0127559
Y0131102
Y0134646
Y0138189
Y0141732
Y0145276
Y0148819
Y0152362
Y0155905
Y0159449
Y0162992
Y0166535
X0291071Y0145176
X0136821Y0146372
Y014947
X0134656Y0144542
X0137702Y016045
X0136872Y0162852
X0140945Y0157404
X0143096Y015575
X0175236Y0050197
X0080534Y0052137
X0073583Y0052165
X0066387Y0052165
X0060166
X0038803Y0050937
Y0034835
X0075787Y0035433
X0079646Y0162441
X0081123Y0164957
X008185Y0167215
X0079134
X0076417
X0077294Y0164957
X0100963Y0154797
X0118587Y0156377
X0119112Y0158969
X0120324Y0147222
X0122845Y0149113
X0126585
Y0141279
X0125347Y0139063
X0122937Y0138685
X0129823Y0140639
X0128657Y0142845
X0125408Y0169588
X0122942Y0169615
X0003179Y0170754
Y0167604
Y0164454
Y0173903
Y0177053
Y0180202
Y0183352
Y0186502
Y0189651
X0003164Y0192857
X0003179Y019595
X0003164Y0199156
Y0202306
Y0205455
Y0208605
Y0211755
Y0214904
X000315Y021811
Y022126
Y0224409
Y0227559
Y0230709
Y0233858
Y0237008
Y0240158
Y0243307
Y0246457
Y0249606
X0003135Y0252812
X0007874Y0252795
X0007777Y0249458
X0009213Y024674
X0012308Y0245281
X0015976Y0245126
X0019685Y0245295
X0023622
X0027559
X0031496
X0035433
X003937
X0042298Y0248397
X0042785Y0253061
X0042718Y0257857
X0042652Y0262742
X0042608Y0266764
Y0270985
X0034874Y0272688
X0035433Y0267795
Y0262795
Y0257795
Y0252795
X0031496
X0027559
X0023622
X0026861Y0256243
X0026852Y0260207
Y0265207
Y0270207
Y0275207
Y0280207
Y0285207
X0030315Y0286221
X0033282Y028617
Y0281616
X0033548Y0277152
X0040806Y0282302
X004146Y028617
X0044094Y0286221
X004723Y0286656
X0047244Y0290158
Y0293701
Y029685
X0043701Y0298425
X0040551
X0037008
X0033465
X0029921
X0026852Y0300207
X0023622Y0300295
X0019685
X0015748
X0011811
X0007874
X0003937
Y0305295
Y0310295
Y0315295
Y0320295
Y0325295
X0026852Y0295207
Y0290207
X0061024Y0283455
X0095272Y0296873
X0113189Y0296873
X0116535Y0293723
X0113189Y0290354
X0113189Y0303982
X0116431Y030081
X012588
X0129528Y0303982
X0129277Y0296873
X0125984Y0293723
X0129277Y0290354
X010751Y0316981
X0100394Y0324409
X0096457
X0091732
X0090158Y0327953
X0102362Y0327165
X0091959Y0316558
X0088651Y0185078
X008185Y018727
X0079134Y018727
X0076417Y0187346
X0077836Y0189349
X0080433Y018937
X0081102Y0181102
X0079134
X0077165
Y0179134
X0079134
X0081102
Y0177165
Y0175197
X0079134
X0077165
Y0177165
X0079134
Y0173228
X0081102
X0077165
X0066929Y0185335
X0015748Y0252795
X0178682Y0270669
X0179718Y0275319
Y0278469
Y0281633
X0179678Y0285188
X0179715Y0288914
X0174838Y0288209
X0174059Y0283689
X0187238Y0285188
X0187799Y0281681
X0188245Y0278469
X0188159Y0275343
X0192119Y0275319
X0211174Y027559
Y0280213
X0212813Y0306453
X0210132Y0313866
X0204697Y0320854
X0222973Y0316072
X0225015Y0301346
X0228784Y029626
X0238481Y0299393
X0235204Y0305449
X023714Y0307467
X0234572Y0310189
X0239365Y0319056
X0235579Y0324115
X0249639Y0298559
X0270592Y0290724
X0282328Y0291118
X0278582Y0295921
X0282172Y0300724
X0278633Y0305532
X0282574Y0310331
X0270087Y0310763
X0268701Y021
X0273491
X0258032Y0216636
X0255228Y0216059
X0248464Y0201633
X0238386Y0193307
X0243504Y0183465
Y0180709
Y0177953
X0258576Y0177996
X0259274Y0181008
X0257577Y0183739
X0136034Y0178493
X0132924Y0322632
X0158299Y0321391
X029626Y0320079
Y0323622
X0296654Y0327165
X029626Y0316535
Y0312992
Y0309449
X0296654Y0305906
X029626Y0302362
Y0298819
X0296654Y0295276
X029626Y0291732
Y0288189
Y0284646
Y0281102
Y0263386
Y0259842
Y0256299
Y0252756
Y0235039
Y0231496
Y0227953
Y0224409
Y0220866
Y0217323
Y0213779
Y0210236
Y0206693
Y020315
Y0199606
Y0196063
Y019252
Y0188976
Y0185433
Y018189
Y0330709
Y0334252
Y0337795
Y0341338
Y0344882
X0293307Y0345295
X028937
X0285433
X0281496
X0277559
X0273622
X0269685
X0265748
X0261811
X0257874
X0253937
X025
X0246063
X0242126
X0238189
X0234252
X0230315
X0226378
X0222441
X0218504
X0214567
X021063
X0206693
X0202756
X0198819
X0194882
X0190945
X0187008
X0183071
X0180118
X0172483Y0345331
X0169291Y0345295
X0165354
X0161417
X015748
X0153543
X0149606
X0145669
X0141732
X0137795
X0137462Y0341731
X0135827Y0338583
X0225434Y0333106
X024311Y032876
X013189Y0336614
X0127953
X0124016
X0120079
X0116142
X0115117Y0333133
X0112205Y0330709
X0108952Y0330194
X0105548Y0330017
X0102299Y0330105
X0102362Y0337795
Y0340551
X0102362Y0345295
X0098425
X0094488
X0090551
X0086614
X0082677
X007874
X0074803
X0070866
X0066929
X0062992
X0059055
X0055118
X0051181
X0047244
X0043307
X003937
X0035433
X0031496
X0027559
X0023622
X0019685
X0015748
X0011811
X0007874
X0003937
X0003937Y0340295
Y0335295
Y0330295
X0090158Y033189
Y0335433
Y033937
X0106299Y0337795
X0108885Y0339697
X0110236Y0342795
Y0345295
X0106299
X0114173
X011811
X0122047
X0125984
X0129921
T02
X0275236Y0141732
X0105127Y0155948
X0095351
Y0167704
X0105315
X0041064Y0138514
X0034626Y0129984
X0032173Y0192183
X0025648Y0208357
Y0216572
X0035633Y0222399
X0016142Y0231496
X0070687Y027664
X0070499Y0292121
X0053937Y0316142
X0095351Y0179134
X0105315Y0178493
X0232283Y0208032
X0256496Y0204528
X0256398Y0198228
T03
X0246496Y0167
X0101047Y0087083
Y0080709
X0062008Y0094842
X0066929Y0107283
X0028952Y0054968
X0046262Y0173182
X0054171Y0173223
X004697Y0198054
X0069663Y0235694
X0083499Y0253937
X0089804
X0211804Y028937
X0215741
X0277362Y0277143
X0285236Y0277362
Y0248235
X0277362
X0240969Y0201396
X0220472Y021752
T04
X0034626Y0005
X0044626
X0054626
X0064626
X0074626
X0084626
X0094626
X0104626
X0114626
X0124626
X0134626
X0144626
X0154626
X0164626
X0174626
X0184626
X0194626
X0204626
X0214626
X0224626
X0234626
X0244626
X0254626
X0264626
X0205236Y0042
X0195236
X0185236
X0175236
X0165236
X0155236
X0145236
X0135236
Y0122
X0145236
X0155236
X0165236
X0175236
X0185236
X0195236
X0205236
X0215236
X0225236
X0235236
X0245236
X0125236
X0115236
X0105236
X0095236
Y0042
X0105236
X0115236
X0125236
X0004626Y0045
Y0035
Y0055
Y0065
Y0075
Y0085
Y0095
Y0105
Y0115
Y0125
Y0135
Y0145
Y0155
X0284626Y0335
X0014626
T05
X0180308Y0174826
T06
X0140938Y0305731
T07
X0219678Y0305731
T08
X028248Y0017717
X0017717
X028248Y0387795
X0017717
M30
