G04*
G04 #@! TF.GenerationSoftware,Altium Limited,Altium Designer,26.4.1 (12)*
G04*
G04 Layer_Physical_Order=1*
G04 Layer_Color=255*
%FSAX25Y25*%
%MOIN*%
G70*
G04*
G04 #@! TF.SameCoordinates,FABC8FAD-0A80-49CE-8C30-7373FE94190F*
G04*
G04*
G04 #@! TF.FilePolarity,Positive*
G04*
G01*
G75*
%ADD11C,0.00787*%
%ADD14C,0.02362*%
%ADD17C,0.01181*%
%ADD18C,0.00591*%
%ADD58C,0.03937*%
%ADD132R,0.07087X0.04331*%
%ADD133R,0.04134X0.02559*%
%ADD134R,0.01181X0.03898*%
%ADD135R,0.02362X0.04331*%
%ADD136R,0.05906X0.02362*%
%ADD137R,0.02362X0.02756*%
G04:AMPARAMS|DCode=138|XSize=39.37mil|YSize=59.06mil|CornerRadius=9.84mil|HoleSize=0mil|Usage=FLASHONLY|Rotation=270.000|XOffset=0mil|YOffset=0mil|HoleType=Round|Shape=RoundedRectangle|*
%AMROUNDEDRECTD138*
21,1,0.03937,0.03937,0,0,270.0*
21,1,0.01968,0.05906,0,0,270.0*
1,1,0.01968,-0.01968,-0.00984*
1,1,0.01968,-0.01968,0.00984*
1,1,0.01968,0.01968,0.00984*
1,1,0.01968,0.01968,-0.00984*
%
%ADD138ROUNDEDRECTD138*%
%ADD139R,0.02953X0.03150*%
%ADD140R,0.02362X0.01968*%
%ADD141O,0.05512X0.01181*%
%ADD142O,0.01181X0.05512*%
G04:AMPARAMS|DCode=143|XSize=27.56mil|YSize=7.87mil|CornerRadius=1.97mil|HoleSize=0mil|Usage=FLASHONLY|Rotation=90.000|XOffset=0mil|YOffset=0mil|HoleType=Round|Shape=RoundedRectangle|*
%AMROUNDEDRECTD143*
21,1,0.02756,0.00394,0,0,90.0*
21,1,0.02362,0.00787,0,0,90.0*
1,1,0.00394,0.00197,0.01181*
1,1,0.00394,0.00197,-0.01181*
1,1,0.00394,-0.00197,-0.01181*
1,1,0.00394,-0.00197,0.01181*
%
%ADD143ROUNDEDRECTD143*%
G04:AMPARAMS|DCode=144|XSize=32.48mil|YSize=7.87mil|CornerRadius=1.97mil|HoleSize=0mil|Usage=FLASHONLY|Rotation=0.000|XOffset=0mil|YOffset=0mil|HoleType=Round|Shape=RoundedRectangle|*
%AMROUNDEDRECTD144*
21,1,0.03248,0.00394,0,0,0.0*
21,1,0.02854,0.00787,0,0,0.0*
1,1,0.00394,0.01427,-0.00197*
1,1,0.00394,-0.01427,-0.00197*
1,1,0.00394,-0.01427,0.00197*
1,1,0.00394,0.01427,0.00197*
%
%ADD144ROUNDEDRECTD144*%
G04:AMPARAMS|DCode=145|XSize=30.51mil|YSize=7.87mil|CornerRadius=1.97mil|HoleSize=0mil|Usage=FLASHONLY|Rotation=180.000|XOffset=0mil|YOffset=0mil|HoleType=Round|Shape=RoundedRectangle|*
%AMROUNDEDRECTD145*
21,1,0.03051,0.00394,0,0,180.0*
21,1,0.02657,0.00787,0,0,180.0*
1,1,0.00394,-0.01329,0.00197*
1,1,0.00394,0.01329,0.00197*
1,1,0.00394,0.01329,-0.00197*
1,1,0.00394,-0.01329,-0.00197*
%
%ADD145ROUNDEDRECTD145*%
G04:AMPARAMS|DCode=146|XSize=39.37mil|YSize=7.87mil|CornerRadius=1.97mil|HoleSize=0mil|Usage=FLASHONLY|Rotation=90.000|XOffset=0mil|YOffset=0mil|HoleType=Round|Shape=RoundedRectangle|*
%AMROUNDEDRECTD146*
21,1,0.03937,0.00394,0,0,90.0*
21,1,0.03543,0.00787,0,0,90.0*
1,1,0.00394,0.00197,0.01772*
1,1,0.00394,0.00197,-0.01772*
1,1,0.00394,-0.00197,-0.01772*
1,1,0.00394,-0.00197,0.01772*
%
%ADD146ROUNDEDRECTD146*%
G04:AMPARAMS|DCode=147|XSize=24.37mil|YSize=7.87mil|CornerRadius=1.97mil|HoleSize=0mil|Usage=FLASHONLY|Rotation=90.000|XOffset=0mil|YOffset=0mil|HoleType=Round|Shape=RoundedRectangle|*
%AMROUNDEDRECTD147*
21,1,0.02437,0.00394,0,0,90.0*
21,1,0.02043,0.00787,0,0,90.0*
1,1,0.00394,0.00197,0.01022*
1,1,0.00394,0.00197,-0.01022*
1,1,0.00394,-0.00197,-0.01022*
1,1,0.00394,-0.00197,0.01022*
%
%ADD147ROUNDEDRECTD147*%
G04:AMPARAMS|DCode=148|XSize=23.62mil|YSize=7.87mil|CornerRadius=1.97mil|HoleSize=0mil|Usage=FLASHONLY|Rotation=270.000|XOffset=0mil|YOffset=0mil|HoleType=Round|Shape=RoundedRectangle|*
%AMROUNDEDRECTD148*
21,1,0.02362,0.00394,0,0,270.0*
21,1,0.01968,0.00787,0,0,270.0*
1,1,0.00394,-0.00197,-0.00984*
1,1,0.00394,-0.00197,0.00984*
1,1,0.00394,0.00197,0.00984*
1,1,0.00394,0.00197,-0.00984*
%
%ADD148ROUNDEDRECTD148*%
G04:AMPARAMS|DCode=149|XSize=23.62mil|YSize=7.87mil|CornerRadius=1.97mil|HoleSize=0mil|Usage=FLASHONLY|Rotation=0.000|XOffset=0mil|YOffset=0mil|HoleType=Round|Shape=RoundedRectangle|*
%AMROUNDEDRECTD149*
21,1,0.02362,0.00394,0,0,0.0*
21,1,0.01968,0.00787,0,0,0.0*
1,1,0.00394,0.00984,-0.00197*
1,1,0.00394,-0.00984,-0.00197*
1,1,0.00394,-0.00984,0.00197*
1,1,0.00394,0.00984,0.00197*
%
%ADD149ROUNDEDRECTD149*%
G04:AMPARAMS|DCode=150|XSize=24.61mil|YSize=7.87mil|CornerRadius=1.97mil|HoleSize=0mil|Usage=FLASHONLY|Rotation=180.000|XOffset=0mil|YOffset=0mil|HoleType=Round|Shape=RoundedRectangle|*
%AMROUNDEDRECTD150*
21,1,0.02461,0.00394,0,0,180.0*
21,1,0.02067,0.00787,0,0,180.0*
1,1,0.00394,-0.01034,0.00197*
1,1,0.00394,0.01034,0.00197*
1,1,0.00394,0.01034,-0.00197*
1,1,0.00394,-0.01034,-0.00197*
%
%ADD150ROUNDEDRECTD150*%
G04:AMPARAMS|DCode=151|XSize=7.87mil|YSize=27.56mil|CornerRadius=1.97mil|HoleSize=0mil|Usage=FLASHONLY|Rotation=90.000|XOffset=0mil|YOffset=0mil|HoleType=Round|Shape=RoundedRectangle|*
%AMROUNDEDRECTD151*
21,1,0.00787,0.02362,0,0,90.0*
21,1,0.00394,0.02756,0,0,90.0*
1,1,0.00394,0.01181,0.00197*
1,1,0.00394,0.01181,-0.00197*
1,1,0.00394,-0.01181,-0.00197*
1,1,0.00394,-0.01181,0.00197*
%
%ADD151ROUNDEDRECTD151*%
G04:AMPARAMS|DCode=152|XSize=7.87mil|YSize=31.5mil|CornerRadius=1.97mil|HoleSize=0mil|Usage=FLASHONLY|Rotation=90.000|XOffset=0mil|YOffset=0mil|HoleType=Round|Shape=RoundedRectangle|*
%AMROUNDEDRECTD152*
21,1,0.00787,0.02756,0,0,90.0*
21,1,0.00394,0.03150,0,0,90.0*
1,1,0.00394,0.01378,0.00197*
1,1,0.00394,0.01378,-0.00197*
1,1,0.00394,-0.01378,-0.00197*
1,1,0.00394,-0.01378,0.00197*
%
%ADD152ROUNDEDRECTD152*%
G04:AMPARAMS|DCode=153|XSize=7.87mil|YSize=27.56mil|CornerRadius=1.97mil|HoleSize=0mil|Usage=FLASHONLY|Rotation=180.000|XOffset=0mil|YOffset=0mil|HoleType=Round|Shape=RoundedRectangle|*
%AMROUNDEDRECTD153*
21,1,0.00787,0.02362,0,0,180.0*
21,1,0.00394,0.02756,0,0,180.0*
1,1,0.00394,-0.00197,0.01181*
1,1,0.00394,0.00197,0.01181*
1,1,0.00394,0.00197,-0.01181*
1,1,0.00394,-0.00197,-0.01181*
%
%ADD153ROUNDEDRECTD153*%
%ADD154R,0.00984X0.01968*%
%ADD155R,0.01968X0.00984*%
%ADD156R,0.02362X0.00984*%
%ADD157R,0.01968X0.02362*%
%ADD158R,0.07874X0.03150*%
%ADD159R,0.02756X0.02756*%
%ADD160R,0.05512X0.01968*%
%ADD161R,0.02953X0.02756*%
%ADD162R,0.01772X0.07480*%
%ADD163R,0.03543X0.02756*%
%ADD164R,0.04724X0.02559*%
%ADD165R,0.01772X0.09449*%
%ADD166R,0.01772X0.11417*%
%ADD167R,0.02362X0.02362*%
G04:AMPARAMS|DCode=168|XSize=23.62mil|YSize=125.98mil|CornerRadius=5.91mil|HoleSize=0mil|Usage=FLASHONLY|Rotation=90.000|XOffset=0mil|YOffset=0mil|HoleType=Round|Shape=RoundedRectangle|*
%AMROUNDEDRECTD168*
21,1,0.02362,0.11417,0,0,90.0*
21,1,0.01181,0.12598,0,0,90.0*
1,1,0.01181,0.05709,0.00591*
1,1,0.01181,0.05709,-0.00591*
1,1,0.01181,-0.05709,-0.00591*
1,1,0.01181,-0.05709,0.00591*
%
%ADD168ROUNDEDRECTD168*%
%ADD169R,0.13386X0.05906*%
%ADD170R,0.13780X0.04724*%
%ADD171R,0.06102X0.01181*%
%ADD172R,0.10827X0.04724*%
%ADD173R,0.05906X0.07874*%
%ADD174R,0.02362X0.07087*%
%ADD175O,0.08268X0.03937*%
%ADD176O,0.07087X0.03937*%
%ADD177R,0.04528X0.01181*%
%ADD178O,0.05512X0.02362*%
%ADD179R,0.03150X0.02953*%
%ADD180R,0.01968X0.02362*%
%ADD181C,0.00945*%
%ADD182R,0.02756X0.02362*%
%ADD183R,0.02362X0.01968*%
%ADD184C,0.01968*%
%ADD185C,0.02953*%
%ADD186C,0.23622*%
%ADD187C,0.05906*%
%ADD188R,0.05906X0.05906*%
%ADD189R,0.05906X0.05906*%
%ADD190C,0.02362*%
G36*
X0267898Y0141551D02*
X0267898Y0139802D01*
X0267126Y0139764D01*
X0267126Y0139764D01*
X0261024Y0139764D01*
X0261024Y0139106D01*
X0250787Y0139106D01*
X0250787Y0139764D01*
X0244685Y0139764D01*
X0244307Y0140395D01*
X0244307Y0141180D01*
X0244916Y0141680D01*
X0245079Y0141648D01*
X0245924Y0141815D01*
X0246388Y0142126D01*
X0267384Y0142126D01*
X0267898Y0141551D01*
X0267898Y0141551D02*
G37*
G36*
X0192874Y0140000D02*
X0186969Y0140000D01*
X0186969Y0150039D01*
X0192874Y0150039D01*
X0192874Y0140000D01*
X0192874Y0140000D02*
G37*
G36*
X0182874Y0140000D02*
X0176969Y0140000D01*
X0176969Y0150039D01*
X0182874Y0150039D01*
X0182874Y0140000D01*
X0182874Y0140000D02*
G37*
G36*
X0172874Y0140000D02*
X0166969Y0140000D01*
X0166969Y0150039D01*
X0172874Y0150039D01*
X0172874Y0140000D01*
X0172874Y0140000D02*
G37*
G36*
X0162874Y0140000D02*
X0156968Y0140000D01*
X0156968Y0150039D01*
X0162874Y0150039D01*
X0162874Y0140000D01*
X0162874Y0140000D02*
G37*
G36*
X0152874Y0140000D02*
X0146968Y0140000D01*
X0146968Y0150039D01*
X0152874Y0150039D01*
X0152874Y0140000D01*
X0152874Y0140000D02*
G37*
G36*
X0142874Y0140000D02*
X0136969Y0140000D01*
X0136969Y0150039D01*
X0142874Y0150039D01*
X0142874Y0140000D01*
X0142874Y0140000D02*
G37*
G36*
X0132874Y0140000D02*
X0126969Y0140000D01*
X0126969Y0150039D01*
X0132874Y0150039D01*
X0132874Y0140000D01*
X0132874Y0140000D02*
G37*
G36*
X0122874Y0140000D02*
X0116969Y0140000D01*
X0116969Y0150039D01*
X0122874Y0150039D01*
X0122874Y0140000D01*
X0122874Y0140000D02*
G37*
G36*
X0112874Y0140000D02*
X0106968Y0140000D01*
X0106968Y0150039D01*
X0112874Y0150039D01*
X0112874Y0140000D01*
X0112874Y0140000D02*
G37*
G36*
X0102874Y0140000D02*
X0096969Y0140000D01*
X0096969Y0150039D01*
X0102874Y0150039D01*
X0102874Y0140000D01*
X0102874Y0140000D02*
G37*
G36*
X0092874Y0140000D02*
X0086968Y0140000D01*
X0086968Y0150039D01*
X0092874Y0150039D01*
X0092874Y0140000D01*
X0092874Y0140000D02*
G37*
G36*
X0082874Y0140000D02*
X0076968Y0140000D01*
X0076968Y0150039D01*
X0082874Y0150039D01*
X0082874Y0140000D01*
X0082874Y0140000D02*
G37*
G36*
X0072874Y0140000D02*
X0066969Y0140000D01*
X0066969Y0150039D01*
X0072874Y0150039D01*
X0072874Y0140000D01*
X0072874Y0140000D02*
G37*
G36*
X0062874Y0140000D02*
X0056968Y0140000D01*
X0056968Y0150039D01*
X0062874Y0150039D01*
X0062874Y0140000D01*
X0062874Y0140000D02*
G37*
G36*
X0052874Y0140000D02*
X0046968Y0140000D01*
X0046968Y0150039D01*
X0052874Y0150039D01*
X0052874Y0140000D01*
X0052874Y0140000D02*
G37*
G36*
X0042874Y0140000D02*
X0036968Y0140000D01*
X0036968Y0150039D01*
X0042874Y0150039D01*
X0042874Y0140000D01*
X0042874Y0140000D02*
G37*
G36*
X0095965Y0140291D02*
X0095907Y0140000D01*
X0096213Y0138464D01*
X0097083Y0137162D01*
X0098385Y0136291D01*
X0099921Y0135986D01*
X0101457Y0136291D01*
X0101569Y0136366D01*
X0105495Y0132440D01*
X0105193Y0131712D01*
X0092366Y0131712D01*
X0092269Y0131693D01*
X0092171Y0131693D01*
X0092079Y0131655D01*
X0091982Y0131636D01*
X0091900Y0131581D01*
X0091809Y0131543D01*
X0091739Y0131473D01*
X0091657Y0131418D01*
X0091602Y0131336D01*
X0091532Y0131266D01*
X0091389Y0131052D01*
X0091005Y0130795D01*
X0090551Y0130705D01*
X0090098Y0130795D01*
X0089548Y0131163D01*
X0089456Y0131201D01*
X0089373Y0131256D01*
X0088823Y0131889D01*
X0088655Y0132734D01*
X0088176Y0133450D01*
X0087460Y0133929D01*
X0086615Y0134097D01*
X0086431Y0134060D01*
X0082988Y0137503D01*
X0083630Y0138464D01*
X0083935Y0140000D01*
X0083877Y0140291D01*
X0083877Y0142126D01*
X0085965Y0142126D01*
X0085965Y0140291D01*
X0085907Y0140000D01*
X0086213Y0138464D01*
X0087083Y0137162D01*
X0088385Y0136291D01*
X0089921Y0135986D01*
X0091457Y0136291D01*
X0092760Y0137162D01*
X0093630Y0138464D01*
X0093935Y0140000D01*
X0093878Y0140291D01*
X0093878Y0142126D01*
X0095965Y0142126D01*
X0095965Y0140291D01*
X0095965Y0140291D02*
G37*
G36*
X0055965Y0140291D02*
X0055907Y0140000D01*
X0056213Y0138464D01*
X0057083Y0137162D01*
X0058230Y0136395D01*
X0058480Y0135531D01*
X0052378Y0129429D01*
X0051591Y0129755D01*
X0051591Y0130898D01*
X0045457Y0130898D01*
X0045457Y0129369D01*
X0045457Y0129118D01*
X0044891Y0128582D01*
X0028303Y0128582D01*
X0027899Y0129257D01*
X0028074Y0129585D01*
X0028879Y0132239D01*
X0029151Y0135000D01*
X0028879Y0137761D01*
X0028642Y0138541D01*
X0029111Y0139173D01*
X0031890Y0139173D01*
X0034843Y0142126D01*
X0035965Y0142126D01*
X0035965Y0140000D01*
X0035984Y0139903D01*
X0035984Y0136063D01*
X0043858Y0136063D01*
X0043858Y0139903D01*
X0043878Y0140000D01*
X0043878Y0142126D01*
X0045965Y0142126D01*
X0045965Y0140291D01*
X0045907Y0140000D01*
X0046213Y0138464D01*
X0047083Y0137162D01*
X0048385Y0136291D01*
X0049921Y0135986D01*
X0051457Y0136291D01*
X0052760Y0137162D01*
X0053630Y0138464D01*
X0053935Y0140000D01*
X0053878Y0140291D01*
X0053878Y0142126D01*
X0055965Y0142126D01*
X0055965Y0140291D01*
X0055965Y0140291D02*
G37*
G36*
X0261024Y0135236D02*
X0261867Y0135236D01*
X0261867Y0130807D01*
X0262035Y0129962D01*
X0262514Y0129246D01*
X0262882Y0128877D01*
X0262581Y0128150D01*
X0260236Y0128150D01*
X0257283Y0125197D01*
X0257283Y0121260D01*
X0258773Y0119770D01*
X0258472Y0119043D01*
X0249016Y0119043D01*
X0248478Y0118936D01*
X0248022Y0118631D01*
X0245266Y0115875D01*
X0244962Y0115419D01*
X0244855Y0114882D01*
X0244855Y0096251D01*
X0243307Y0094703D01*
X0242520Y0095030D01*
X0242520Y0104118D01*
X0242929Y0104118D01*
X0242929Y0108874D01*
X0242520Y0108874D01*
X0242520Y0111205D01*
X0243520Y0111205D01*
X0243520Y0115961D01*
X0242520Y0115961D01*
X0242520Y0118095D01*
X0244307Y0118095D01*
X0244307Y0127575D01*
X0242520Y0127575D01*
X0242520Y0135221D01*
X0244307Y0135221D01*
X0244307Y0135221D01*
X0244307Y0135221D01*
X0245088Y0135236D01*
X0250787Y0135236D01*
X0250787Y0135894D01*
X0261024Y0135894D01*
X0261024Y0135236D01*
X0261024Y0135236D02*
G37*
G36*
X0115965Y0140291D02*
X0115907Y0140000D01*
X0116213Y0138464D01*
X0117083Y0137162D01*
X0118385Y0136291D01*
X0119921Y0135986D01*
X0121457Y0136291D01*
X0121569Y0136366D01*
X0125251Y0132684D01*
X0124949Y0131956D01*
X0119952Y0131956D01*
X0113556Y0138353D01*
X0113630Y0138464D01*
X0113935Y0140000D01*
X0113877Y0140291D01*
X0113877Y0142126D01*
X0115965Y0142126D01*
X0115965Y0140291D01*
X0115965Y0140291D02*
G37*
G36*
X0105965Y0140291D02*
X0105907Y0140000D01*
X0106213Y0138464D01*
X0107083Y0137162D01*
X0108385Y0136291D01*
X0109921Y0135986D01*
X0111457Y0136291D01*
X0111569Y0136366D01*
X0116865Y0131069D01*
X0116564Y0130342D01*
X0111566Y0130342D01*
X0103556Y0138353D01*
X0103630Y0138464D01*
X0103935Y0140000D01*
X0103877Y0140291D01*
X0103877Y0142126D01*
X0105965Y0142126D01*
X0105965Y0140291D01*
X0105965Y0140291D02*
G37*
G36*
X0109991Y0127944D02*
X0110447Y0127639D01*
X0110984Y0127532D01*
X0133129Y0127532D01*
X0133151Y0127477D01*
X0133260Y0126745D01*
X0132691Y0126364D01*
X0132212Y0125648D01*
X0132044Y0124803D01*
X0132212Y0123958D01*
X0132646Y0123309D01*
X0132646Y0123228D01*
X0132646Y0123228D01*
X0132768Y0122614D01*
X0133117Y0122093D01*
X0135872Y0119337D01*
X0135872Y0119337D01*
X0136393Y0118989D01*
X0137008Y0118867D01*
X0137008Y0118867D01*
X0137616Y0118867D01*
X0137650Y0118816D01*
X0137230Y0118028D01*
X0135417Y0118028D01*
X0135417Y0115363D01*
X0137598Y0115363D01*
X0137598Y0114363D01*
X0135417Y0114363D01*
X0135417Y0113503D01*
X0134956Y0113175D01*
X0134073Y0113425D01*
X0133845Y0113766D01*
X0133128Y0114244D01*
X0132283Y0114412D01*
X0131890Y0114334D01*
X0131868Y0114335D01*
X0131122Y0114881D01*
X0131102Y0114919D01*
X0131102Y0118701D01*
X0131102Y0118701D01*
X0131102Y0123031D01*
X0123228Y0123031D01*
X0123228Y0123031D01*
X0123116Y0122940D01*
X0122441Y0123074D01*
X0121596Y0122906D01*
X0120900Y0122441D01*
X0116535Y0122441D01*
X0116535Y0121140D01*
X0115748Y0120791D01*
X0115748Y0122441D01*
X0113441Y0122441D01*
X0113287Y0122471D01*
X0109959Y0122471D01*
X0108999Y0122281D01*
X0108185Y0121737D01*
X0107641Y0120923D01*
X0107450Y0119963D01*
X0107453Y0119948D01*
X0106780Y0119342D01*
X0106496Y0119436D01*
X0106496Y0120866D01*
X0101378Y0120866D01*
X0101378Y0120413D01*
X0100591Y0120413D01*
X0100591Y0120866D01*
X0095473Y0120866D01*
X0095473Y0120413D01*
X0094685Y0120413D01*
X0094685Y0120866D01*
X0089567Y0120866D01*
X0089567Y0116239D01*
X0089548Y0116142D01*
X0089548Y0113802D01*
X0088756Y0113010D01*
X0087901Y0113269D01*
X0087866Y0113443D01*
X0087388Y0114160D01*
X0086672Y0114638D01*
X0086614Y0114650D01*
X0086614Y0116453D01*
X0086672Y0116464D01*
X0087388Y0116943D01*
X0087866Y0117659D01*
X0088034Y0118504D01*
X0087866Y0119349D01*
X0087388Y0120065D01*
X0086672Y0120544D01*
X0086614Y0120555D01*
X0086614Y0121832D01*
X0086820Y0122038D01*
X0086865Y0122105D01*
X0087388Y0122455D01*
X0087866Y0123171D01*
X0088034Y0124016D01*
X0087866Y0124861D01*
X0087388Y0125577D01*
X0086672Y0126056D01*
X0086614Y0126067D01*
X0086614Y0129681D01*
X0086615Y0129681D01*
X0087460Y0129849D01*
X0088176Y0130328D01*
X0088990Y0130329D01*
X0089706Y0129850D01*
X0090551Y0129682D01*
X0091396Y0129850D01*
X0092112Y0130329D01*
X0092366Y0130709D01*
X0107226Y0130709D01*
X0109991Y0127944D01*
X0109991Y0127944D02*
G37*
G36*
X0061795Y0132056D02*
X0061795Y0131898D01*
X0064862Y0131898D01*
X0064862Y0131398D01*
X0065362Y0131398D01*
X0065362Y0129118D01*
X0067929Y0129118D01*
X0067929Y0129118D01*
X0068647Y0129284D01*
X0069291Y0128816D01*
X0069291Y0124762D01*
X0069289Y0124762D01*
X0069289Y0124338D01*
X0067913Y0124338D01*
X0067913Y0125197D01*
X0061811Y0125197D01*
X0061811Y0124338D01*
X0053975Y0124338D01*
X0053736Y0125125D01*
X0053781Y0125156D01*
X0061008Y0132382D01*
X0061795Y0132056D01*
X0061795Y0132056D02*
G37*
G36*
X0084014Y0127124D02*
X0084613Y0126724D01*
X0084682Y0126400D01*
X0084714Y0125876D01*
X0084266Y0125577D01*
X0083787Y0124861D01*
X0083619Y0124016D01*
X0083668Y0123769D01*
X0083419Y0123494D01*
X0082664Y0123215D01*
X0081947Y0123693D01*
X0081102Y0123861D01*
X0080257Y0123693D01*
X0079541Y0123215D01*
X0079063Y0122498D01*
X0078931Y0121836D01*
X0077179Y0121836D01*
X0077179Y0122097D01*
X0075195Y0122097D01*
X0075195Y0123097D01*
X0077179Y0123097D01*
X0077179Y0124778D01*
X0077165Y0124778D01*
X0077165Y0128937D01*
X0077796Y0129315D01*
X0078559Y0129315D01*
X0078559Y0131550D01*
X0079286Y0131851D01*
X0084014Y0127124D01*
X0084014Y0127124D02*
G37*
G36*
X0270579Y0136642D02*
X0270969Y0136212D01*
X0270849Y0135000D01*
X0271121Y0132239D01*
X0271926Y0129585D01*
X0273234Y0127138D01*
X0274994Y0124994D01*
X0277138Y0123234D01*
X0279585Y0121926D01*
X0282239Y0121121D01*
X0283287Y0121018D01*
X0283287Y0115830D01*
X0282500Y0115504D01*
X0266283Y0131722D01*
X0266283Y0135236D01*
X0267126Y0135236D01*
X0267126Y0136757D01*
X0267898Y0136795D01*
X0267898Y0136795D01*
X0269579Y0136795D01*
X0269579Y0139173D01*
X0270579Y0139173D01*
X0270579Y0136642D01*
X0270579Y0136642D02*
G37*
G36*
X0104921Y0115551D02*
X0101575Y0112205D01*
X0096850Y0112205D01*
X0096850Y0110236D01*
X0093701Y0110236D01*
X0090158Y0106693D01*
X0086614Y0106693D01*
X0086614Y0109449D01*
X0090551Y0113386D01*
X0090551Y0116142D01*
X0104921Y0116142D01*
X0104921Y0115551D01*
X0104921Y0115551D02*
G37*
G36*
X0081496Y0108661D02*
X0081496Y0107874D01*
X0079528Y0105905D01*
X0073622Y0105905D01*
X0073622Y0111024D01*
X0079134Y0111024D01*
X0081496Y0108661D01*
X0081496Y0108661D02*
G37*
G36*
X0274188Y0113696D02*
X0273887Y0112969D01*
X0269614Y0112969D01*
X0269614Y0109606D01*
X0269614Y0106244D01*
X0276725Y0106244D01*
X0276725Y0105079D01*
X0261240Y0105079D01*
X0261240Y0105068D01*
X0260118Y0105068D01*
X0259158Y0104877D01*
X0258344Y0104333D01*
X0257800Y0103519D01*
X0257609Y0102559D01*
X0257800Y0101599D01*
X0258224Y0100964D01*
X0257882Y0100451D01*
X0257765Y0099862D01*
X0257180Y0099278D01*
X0257041Y0099185D01*
X0256290Y0098434D01*
X0255985Y0097979D01*
X0255878Y0097441D01*
X0255878Y0096653D01*
X0250940Y0096653D01*
X0250940Y0105693D01*
X0251862Y0105693D01*
X0251862Y0107874D01*
X0252862Y0107874D01*
X0252862Y0105693D01*
X0254346Y0105693D01*
X0254346Y0105709D01*
X0258268Y0105709D01*
X0258268Y0110039D01*
X0258268Y0110039D01*
X0258268Y0113583D01*
X0250581Y0113583D01*
X0250156Y0114272D01*
X0250739Y0114855D01*
X0273029Y0114855D01*
X0274188Y0113696D01*
X0274188Y0113696D02*
G37*
G36*
X0112205Y0105118D02*
X0111614Y0105118D01*
X0111614Y0106693D01*
X0112205Y0106693D01*
X0112205Y0105118D01*
X0112205Y0105118D02*
G37*
G36*
X0003234Y0127138D02*
X0004994Y0124994D01*
X0007138Y0123234D01*
X0009585Y0121926D01*
X0012239Y0121121D01*
X0015000Y0120849D01*
X0017761Y0121121D01*
X0018049Y0121209D01*
X0018454Y0120533D01*
X0013148Y0115227D01*
X0012713Y0114576D01*
X0012560Y0113807D01*
X0012560Y0108677D01*
X0010889Y0108677D01*
X0010252Y0109039D01*
X0010252Y0109465D01*
X0010252Y0113476D01*
X0006799Y0113476D01*
X0006799Y0109039D01*
X0007811Y0109039D01*
X0008449Y0108677D01*
X0008449Y0108252D01*
X0008449Y0104634D01*
X0010630Y0104634D01*
X0010630Y0104134D01*
X0011130Y0104134D01*
X0011130Y0099591D01*
X0012811Y0099591D01*
X0012811Y0099606D01*
X0017099Y0099606D01*
X0017099Y0098425D01*
X0017206Y0097887D01*
X0017511Y0097432D01*
X0017908Y0097035D01*
X0017871Y0096850D01*
X0018039Y0096005D01*
X0018518Y0095289D01*
X0019234Y0094811D01*
X0020079Y0094643D01*
X0020924Y0094811D01*
X0021640Y0095289D01*
X0022118Y0096005D01*
X0022287Y0096850D01*
X0022285Y0096860D01*
X0022374Y0097006D01*
X0022967Y0097466D01*
X0023228Y0097414D01*
X0031799Y0097414D01*
X0031903Y0097258D01*
X0032620Y0096779D01*
X0033465Y0096611D01*
X0034309Y0096779D01*
X0035026Y0097258D01*
X0035504Y0097974D01*
X0035672Y0098819D01*
X0035504Y0099664D01*
X0035026Y0100380D01*
X0034870Y0100484D01*
X0034870Y0115945D01*
X0039173Y0115945D01*
X0039469Y0115280D01*
X0039469Y0112992D01*
X0038780Y0112992D01*
X0038780Y0111039D01*
X0038764Y0111039D01*
X0038764Y0109949D01*
X0038779Y0109949D01*
X0038779Y0109842D01*
X0046851Y0109842D01*
X0046851Y0109949D01*
X0046866Y0109949D01*
X0046866Y0111039D01*
X0046850Y0111039D01*
X0046850Y0112402D01*
X0052264Y0112402D01*
X0052264Y0119095D01*
X0039469Y0119095D01*
X0039173Y0119760D01*
X0039173Y0123819D01*
X0039173Y0123819D01*
X0039266Y0124568D01*
X0045472Y0124568D01*
X0045472Y0120669D01*
X0051575Y0120669D01*
X0051575Y0121528D01*
X0061811Y0121528D01*
X0061811Y0120669D01*
X0061176Y0120303D01*
X0061024Y0120303D01*
X0060486Y0120196D01*
X0060030Y0119891D01*
X0058062Y0117923D01*
X0057757Y0117467D01*
X0057650Y0116929D01*
X0057650Y0101356D01*
X0057230Y0101088D01*
X0056881Y0101011D01*
X0053352Y0104540D01*
X0053389Y0104724D01*
X0053221Y0105569D01*
X0052742Y0106286D01*
X0052026Y0106764D01*
X0051181Y0106932D01*
X0050336Y0106764D01*
X0049620Y0106286D01*
X0049141Y0105569D01*
X0048973Y0104724D01*
X0049141Y0103879D01*
X0049620Y0103163D01*
X0050336Y0102685D01*
X0051181Y0102517D01*
X0051365Y0102553D01*
X0059422Y0094497D01*
X0059422Y0093118D01*
X0058634Y0092879D01*
X0058474Y0093119D01*
X0052959Y0098635D01*
X0052995Y0098819D01*
X0052827Y0099664D01*
X0052349Y0100380D01*
X0051632Y0100859D01*
X0050787Y0101027D01*
X0049942Y0100859D01*
X0049226Y0100380D01*
X0048748Y0099664D01*
X0048580Y0098819D01*
X0048748Y0097974D01*
X0049226Y0097258D01*
X0049942Y0096779D01*
X0050787Y0096611D01*
X0050972Y0096648D01*
X0056075Y0091544D01*
X0056075Y0084449D01*
X0056182Y0083911D01*
X0056487Y0083455D01*
X0063947Y0075995D01*
X0064403Y0075690D01*
X0064941Y0075583D01*
X0068504Y0075583D01*
X0068504Y0073425D01*
X0068504Y0068925D01*
X0060208Y0068925D01*
X0048218Y0080915D01*
X0047762Y0081219D01*
X0047224Y0081326D01*
X0046866Y0081326D01*
X0046866Y0081390D01*
X0046851Y0081390D01*
X0046851Y0081496D01*
X0038779Y0081496D01*
X0038779Y0081390D01*
X0038764Y0081390D01*
X0038764Y0080299D01*
X0038780Y0080299D01*
X0038780Y0077575D01*
X0038764Y0077575D01*
X0038764Y0076484D01*
X0038779Y0076484D01*
X0038779Y0076378D01*
X0042815Y0076378D01*
X0042815Y0075591D01*
X0038779Y0075591D01*
X0038779Y0075484D01*
X0038764Y0075484D01*
X0038764Y0074394D01*
X0038780Y0074394D01*
X0038780Y0071669D01*
X0038764Y0071669D01*
X0038764Y0070551D01*
X0038036Y0070250D01*
X0036838Y0071448D01*
X0036838Y0084055D01*
X0037402Y0084055D01*
X0037402Y0088386D01*
X0029528Y0088386D01*
X0029528Y0085452D01*
X0028170Y0084094D01*
X0024408Y0084094D01*
X0023640Y0083941D01*
X0022989Y0083506D01*
X0022669Y0083026D01*
X0021881Y0083202D01*
X0021881Y0087130D01*
X0024673Y0089922D01*
X0028345Y0089922D01*
X0029113Y0090075D01*
X0029764Y0090510D01*
X0030199Y0091161D01*
X0030352Y0091929D01*
X0030352Y0093898D01*
X0030199Y0094666D01*
X0029764Y0095317D01*
X0029113Y0095752D01*
X0028345Y0095905D01*
X0024408Y0095905D01*
X0023640Y0095752D01*
X0022989Y0095317D01*
X0022554Y0094666D01*
X0022401Y0093898D01*
X0022401Y0092191D01*
X0019895Y0089686D01*
X0019408Y0089865D01*
X0019132Y0090036D01*
X0018933Y0091036D01*
X0018324Y0091948D01*
X0017413Y0092557D01*
X0016337Y0092770D01*
X0015262Y0092557D01*
X0014350Y0091948D01*
X0013741Y0091036D01*
X0013527Y0089961D01*
X0013741Y0088885D01*
X0014350Y0087974D01*
X0015262Y0087365D01*
X0016337Y0087151D01*
X0017413Y0087365D01*
X0017883Y0087679D01*
X0018670Y0087258D01*
X0018670Y0080852D01*
X0017883Y0080432D01*
X0017413Y0080746D01*
X0016337Y0080959D01*
X0015262Y0080746D01*
X0014350Y0080137D01*
X0013741Y0079225D01*
X0013527Y0078150D01*
X0013741Y0077074D01*
X0014350Y0076163D01*
X0015262Y0075554D01*
X0016337Y0075340D01*
X0017413Y0075554D01*
X0017883Y0075868D01*
X0018670Y0075447D01*
X0018670Y0045079D01*
X0018670Y0045079D01*
X0018681Y0045020D01*
X0018681Y0038583D01*
X0018758Y0038199D01*
X0018975Y0037873D01*
X0019301Y0037655D01*
X0019685Y0037579D01*
X0022614Y0037579D01*
X0022700Y0037148D01*
X0023201Y0036399D01*
X0023724Y0036050D01*
X0023612Y0035225D01*
X0023478Y0035198D01*
X0022496Y0034542D01*
X0021840Y0033560D01*
X0021709Y0032902D01*
X0026801Y0032902D01*
X0026801Y0032402D01*
X0027301Y0032402D01*
X0027301Y0029375D01*
X0028706Y0029375D01*
X0028938Y0029034D01*
X0029056Y0028723D01*
X0029071Y0028612D01*
X0028669Y0028010D01*
X0028501Y0027165D01*
X0028669Y0026320D01*
X0028740Y0026181D01*
X0028740Y0026181D01*
X0028740Y0020839D01*
X0027953Y0020641D01*
X0026766Y0022862D01*
X0025006Y0025006D01*
X0022862Y0026766D01*
X0020415Y0028074D01*
X0017761Y0028879D01*
X0015000Y0029151D01*
X0013610Y0029014D01*
X0013336Y0029778D01*
X0014060Y0030261D01*
X0014716Y0031243D01*
X0014846Y0031902D01*
X0010845Y0031902D01*
X0010845Y0029375D01*
X0011162Y0029375D01*
X0011279Y0028587D01*
X0009585Y0028074D01*
X0007138Y0026766D01*
X0004994Y0025006D01*
X0003234Y0022862D01*
X0002192Y0020913D01*
X0001405Y0021110D01*
X0001405Y0038386D01*
X0001405Y0128890D01*
X0002192Y0129087D01*
X0003234Y0127138D01*
X0003234Y0127138D02*
G37*
G36*
X0032060Y0115847D02*
X0032060Y0100484D01*
X0031903Y0100380D01*
X0031799Y0100224D01*
X0024606Y0100224D01*
X0024606Y0108661D01*
X0025237Y0109039D01*
X0026272Y0109039D01*
X0026272Y0113976D01*
X0026772Y0113976D01*
X0026772Y0114476D01*
X0030724Y0114476D01*
X0030724Y0115387D01*
X0031311Y0115917D01*
X0032060Y0115847D01*
X0032060Y0115847D02*
G37*
G36*
X0083465Y0109917D02*
X0083465Y0105709D01*
X0085575Y0105709D01*
X0085591Y0105693D01*
X0085591Y0099960D01*
X0084804Y0099381D01*
X0084449Y0099452D01*
X0083604Y0099284D01*
X0083523Y0099230D01*
X0082874Y0098814D01*
X0082225Y0099230D01*
X0082144Y0099284D01*
X0081299Y0099452D01*
X0080454Y0099284D01*
X0079823Y0098862D01*
X0079191Y0099284D01*
X0078347Y0099452D01*
X0077502Y0099284D01*
X0077362Y0099191D01*
X0076575Y0099612D01*
X0076575Y0104902D01*
X0079528Y0104902D01*
X0079912Y0104978D01*
X0080237Y0105196D01*
X0080750Y0105709D01*
X0082677Y0105709D01*
X0082677Y0109917D01*
X0083071Y0110145D01*
X0083465Y0109917D01*
X0083465Y0109917D02*
G37*
G36*
X0113779Y0098819D02*
X0112205Y0098819D01*
X0112205Y0100787D01*
X0113779Y0100787D01*
X0113779Y0098819D01*
X0113779Y0098819D02*
G37*
G36*
X0104921Y0100197D02*
X0104921Y0098819D01*
X0097244Y0098819D01*
X0093701Y0102362D01*
X0093701Y0102953D01*
X0102165Y0102953D01*
X0104921Y0100197D01*
X0104921Y0100197D02*
G37*
G36*
X0061498Y0110759D02*
X0062503Y0110343D01*
X0063583Y0110201D01*
X0063751Y0110223D01*
X0064343Y0109704D01*
X0064343Y0098909D01*
X0063616Y0098607D01*
X0060460Y0101763D01*
X0060460Y0110563D01*
X0061247Y0110951D01*
X0061498Y0110759D01*
X0061498Y0110759D02*
G37*
G36*
X0276725Y0096605D02*
X0271682Y0091562D01*
X0260039Y0091562D01*
X0260039Y0092323D01*
X0259252Y0092323D01*
X0258465Y0092323D01*
X0258465Y0094760D01*
X0258581Y0094935D01*
X0258688Y0095472D01*
X0258688Y0096859D01*
X0258934Y0097105D01*
X0259074Y0097198D01*
X0259382Y0097506D01*
X0259921Y0097399D01*
X0260766Y0097567D01*
X0260815Y0097599D01*
X0262461Y0097599D01*
X0263229Y0097752D01*
X0263880Y0098187D01*
X0264079Y0098386D01*
X0276725Y0098386D01*
X0276725Y0096605D01*
X0276725Y0096605D02*
G37*
G36*
X0298425Y0096417D02*
X0283901Y0096417D01*
X0283901Y0113189D01*
X0283733Y0114034D01*
X0283666Y0114134D01*
X0284087Y0114921D01*
X0298425Y0114921D01*
X0298425Y0096417D01*
X0298425Y0096417D02*
G37*
G36*
X0092716Y0103050D02*
X0092697Y0102953D01*
X0092697Y0102362D01*
X0092716Y0102265D01*
X0092716Y0101378D01*
X0093266Y0101378D01*
X0095854Y0098790D01*
X0095628Y0098244D01*
X0094276Y0098244D01*
X0094276Y0096268D01*
X0096850Y0096268D01*
X0096850Y0095268D01*
X0094276Y0095268D01*
X0094276Y0093307D01*
X0093520Y0093307D01*
X0093520Y0095268D01*
X0090945Y0095268D01*
X0090945Y0095768D01*
X0090445Y0095768D01*
X0090445Y0098244D01*
X0089605Y0098244D01*
X0089605Y0105689D01*
X0090158Y0105689D01*
X0090541Y0105766D01*
X0090751Y0105905D01*
X0092716Y0105905D01*
X0092716Y0103050D01*
X0092716Y0103050D02*
G37*
G36*
X0106890Y0090354D02*
X0106890Y0089370D01*
X0104921Y0089370D01*
X0104921Y0091142D01*
X0106102Y0091142D01*
X0106890Y0090354D01*
X0106890Y0090354D02*
G37*
G36*
X0211913Y0092898D02*
X0219425Y0092898D01*
X0219425Y0092898D01*
X0219425Y0092898D01*
X0220139Y0092763D01*
X0220464Y0092081D01*
X0220401Y0091987D01*
X0220233Y0091142D01*
X0220401Y0090297D01*
X0220608Y0089988D01*
X0220187Y0089200D01*
X0216823Y0089200D01*
X0216719Y0089356D01*
X0216002Y0089835D01*
X0215158Y0090003D01*
X0214313Y0089835D01*
X0213596Y0089356D01*
X0213118Y0088640D01*
X0212950Y0087795D01*
X0213118Y0086950D01*
X0213596Y0086234D01*
X0214313Y0085756D01*
X0215158Y0085588D01*
X0216002Y0085756D01*
X0216719Y0086234D01*
X0217414Y0085931D01*
X0217642Y0085184D01*
X0217062Y0084476D01*
X0214067Y0084476D01*
X0213963Y0084632D01*
X0213246Y0085111D01*
X0212402Y0085279D01*
X0212217Y0085242D01*
X0205333Y0092126D01*
X0205660Y0092913D01*
X0211913Y0092913D01*
X0211913Y0092898D01*
X0211913Y0092898D02*
G37*
G36*
X0097350Y0087583D02*
X0099425Y0087583D01*
X0099425Y0087583D01*
X0100181Y0087583D01*
X0100181Y0087583D01*
X0101826Y0087583D01*
X0102127Y0086855D01*
X0099762Y0084490D01*
X0099327Y0083839D01*
X0099191Y0083157D01*
X0099064Y0083007D01*
X0098387Y0082610D01*
X0097835Y0082720D01*
X0096990Y0082551D01*
X0096941Y0082519D01*
X0095713Y0082519D01*
X0091377Y0086855D01*
X0091678Y0087583D01*
X0093520Y0087583D01*
X0093520Y0087583D01*
X0094276Y0087583D01*
X0094276Y0087583D01*
X0096350Y0087583D01*
X0096350Y0090059D01*
X0097350Y0090059D01*
X0097350Y0087583D01*
X0097350Y0087583D02*
G37*
G36*
X0139732Y0107875D02*
X0139732Y0107875D01*
X0139855Y0107260D01*
X0140203Y0106739D01*
X0140945Y0105997D01*
X0140945Y0104134D01*
X0145445Y0104134D01*
X0145445Y0096866D01*
X0144004Y0096866D01*
X0144004Y0094882D01*
X0143504Y0094882D01*
X0143504Y0094382D01*
X0141323Y0094382D01*
X0141323Y0094175D01*
X0140922Y0093907D01*
X0140345Y0093330D01*
X0140041Y0092874D01*
X0139934Y0092337D01*
X0139934Y0091614D01*
X0132992Y0084673D01*
X0127453Y0084673D01*
X0127348Y0084829D01*
X0126632Y0085307D01*
X0125787Y0085475D01*
X0124943Y0085307D01*
X0124226Y0084829D01*
X0123748Y0084113D01*
X0123580Y0083268D01*
X0123610Y0083116D01*
X0123110Y0082507D01*
X0112008Y0082507D01*
X0111470Y0082400D01*
X0111014Y0082096D01*
X0108473Y0079555D01*
X0106954Y0079555D01*
X0106308Y0080342D01*
X0106342Y0080512D01*
X0106342Y0081212D01*
X0110717Y0085588D01*
X0119685Y0085588D01*
X0120530Y0085756D01*
X0121246Y0086234D01*
X0122568Y0087556D01*
X0132057Y0087556D01*
X0132902Y0087724D01*
X0133618Y0088203D01*
X0137585Y0092169D01*
X0138063Y0092886D01*
X0138231Y0093730D01*
X0138231Y0101320D01*
X0138260Y0101363D01*
X0138428Y0102208D01*
X0138428Y0110039D01*
X0138260Y0110884D01*
X0138243Y0110910D01*
X0138664Y0111697D01*
X0139732Y0111697D01*
X0139732Y0107875D01*
X0139732Y0107875D02*
G37*
G36*
X0085591Y0094255D02*
X0085591Y0087795D01*
X0085744Y0087027D01*
X0086179Y0086376D01*
X0089911Y0082644D01*
X0089610Y0081917D01*
X0084082Y0081917D01*
X0084082Y0094320D01*
X0084241Y0094631D01*
X0084910Y0094785D01*
X0085591Y0094255D01*
X0085591Y0094255D02*
G37*
G36*
X0066526Y0091723D02*
X0066982Y0091418D01*
X0067520Y0091312D01*
X0068504Y0091312D01*
X0068504Y0089173D01*
X0068504Y0085236D01*
X0068504Y0081447D01*
X0068181Y0081226D01*
X0067716Y0081121D01*
X0062232Y0086606D01*
X0062232Y0094904D01*
X0062652Y0095171D01*
X0063001Y0095249D01*
X0066526Y0091723D01*
X0066526Y0091723D02*
G37*
G36*
X0267886Y0082677D02*
X0267126Y0082677D01*
X0267126Y0078740D01*
X0267126Y0076441D01*
X0266399Y0076140D01*
X0255333Y0087205D01*
X0255660Y0087992D01*
X0260039Y0087992D01*
X0260039Y0088753D01*
X0267886Y0088753D01*
X0267886Y0082677D01*
X0267886Y0082677D02*
G37*
G36*
X0298425Y0083702D02*
X0297304Y0082953D01*
X0299961Y0082953D01*
X0299961Y0080500D01*
X0300000Y0080500D01*
X0300000Y0079500D01*
X0299961Y0079500D01*
X0299961Y0077047D01*
X0297304Y0077047D01*
X0298425Y0076298D01*
X0298425Y0073956D01*
X0290212Y0073956D01*
X0289921Y0074014D01*
X0289235Y0073878D01*
X0288565Y0073878D01*
X0287183Y0075260D01*
X0287509Y0076047D01*
X0289421Y0076047D01*
X0289421Y0080000D01*
X0289421Y0083953D01*
X0285968Y0083953D01*
X0285968Y0083953D01*
X0285968Y0083953D01*
X0285219Y0084045D01*
X0283901Y0085363D01*
X0283901Y0088543D01*
X0298425Y0088543D01*
X0298425Y0083702D01*
X0298425Y0083702D02*
G37*
G36*
X0034028Y0070866D02*
X0034135Y0070328D01*
X0034440Y0069873D01*
X0038014Y0066298D01*
X0037713Y0065570D01*
X0034333Y0065570D01*
X0034284Y0065561D01*
X0034235Y0065566D01*
X0034094Y0065523D01*
X0033949Y0065494D01*
X0033908Y0065466D01*
X0033860Y0065452D01*
X0033746Y0065358D01*
X0033623Y0065276D01*
X0033596Y0065235D01*
X0033557Y0065203D01*
X0033488Y0065074D01*
X0033406Y0064951D01*
X0033396Y0064902D01*
X0033373Y0064858D01*
X0033221Y0064358D01*
X0033216Y0064309D01*
X0033197Y0064263D01*
X0033197Y0064115D01*
X0033183Y0063969D01*
X0033197Y0063921D01*
X0033197Y0063871D01*
X0033254Y0063735D01*
X0033296Y0063594D01*
X0033328Y0063555D01*
X0033347Y0063509D01*
X0033451Y0063405D01*
X0033545Y0063291D01*
X0033589Y0063268D01*
X0033624Y0063232D01*
X0033909Y0063042D01*
X0034165Y0062658D01*
X0034255Y0062205D01*
X0034165Y0061751D01*
X0033909Y0061367D01*
X0033524Y0061110D01*
X0033071Y0061020D01*
X0032985Y0061037D01*
X0032935Y0061037D01*
X0032888Y0061052D01*
X0032389Y0061526D01*
X0032289Y0061764D01*
X0032289Y0062098D01*
X0029026Y0062098D01*
X0029026Y0063099D01*
X0032289Y0063099D01*
X0032289Y0064189D01*
X0031995Y0064189D01*
X0031574Y0064976D01*
X0031763Y0065259D01*
X0031894Y0065917D01*
X0026801Y0065917D01*
X0026801Y0066417D01*
X0026301Y0066417D01*
X0026301Y0069444D01*
X0024636Y0069444D01*
X0023478Y0069214D01*
X0022669Y0068673D01*
X0021881Y0068947D01*
X0021881Y0073016D01*
X0022669Y0073244D01*
X0022978Y0072782D01*
X0023634Y0072343D01*
X0024408Y0072189D01*
X0025877Y0072189D01*
X0025877Y0075197D01*
X0026377Y0075197D01*
X0026377Y0075697D01*
X0030368Y0075697D01*
X0030368Y0076181D01*
X0030214Y0076955D01*
X0029776Y0077612D01*
X0029665Y0077686D01*
X0029665Y0078633D01*
X0029764Y0078699D01*
X0030199Y0079350D01*
X0030352Y0080118D01*
X0030352Y0082087D01*
X0030316Y0082266D01*
X0032105Y0084055D01*
X0034028Y0084055D01*
X0034028Y0070866D01*
X0034028Y0070866D02*
G37*
G36*
X0279485Y0092414D02*
X0279485Y0084449D01*
X0279653Y0083604D01*
X0280132Y0082888D01*
X0282044Y0080975D01*
X0282044Y0069882D01*
X0282044Y0068852D01*
X0281910Y0068699D01*
X0281257Y0068307D01*
X0280906Y0068377D01*
X0270696Y0068377D01*
X0270696Y0069095D01*
X0270589Y0069632D01*
X0270317Y0070039D01*
X0270293Y0070110D01*
X0270599Y0070888D01*
X0270892Y0070922D01*
X0271442Y0070555D01*
X0272287Y0070387D01*
X0273132Y0070555D01*
X0273848Y0071034D01*
X0274327Y0071750D01*
X0274495Y0072595D01*
X0274327Y0073440D01*
X0273942Y0074016D01*
X0274103Y0074529D01*
X0274291Y0074803D01*
X0275000Y0074803D01*
X0275000Y0078740D01*
X0275000Y0082677D01*
X0274240Y0082677D01*
X0274240Y0088198D01*
X0278758Y0092716D01*
X0279485Y0092414D01*
X0279485Y0092414D02*
G37*
G36*
X0288150Y0072874D02*
X0289921Y0072874D01*
X0289921Y0072953D01*
X0299961Y0072953D01*
X0299961Y0067047D01*
X0289921Y0067047D01*
X0289921Y0066969D01*
X0288150Y0066969D01*
X0285197Y0064016D01*
X0283465Y0064016D01*
X0283465Y0069921D01*
X0289921Y0069921D01*
X0289921Y0069921D01*
X0283465Y0069921D01*
X0283465Y0075827D01*
X0285197Y0075827D01*
X0288150Y0072874D01*
X0288150Y0072874D02*
G37*
G36*
X0090062Y0071610D02*
X0090467Y0071340D01*
X0091004Y0071233D01*
X0096433Y0071233D01*
X0096854Y0070446D01*
X0096779Y0070333D01*
X0096611Y0069488D01*
X0096779Y0068643D01*
X0096812Y0068594D01*
X0096812Y0066776D01*
X0093834Y0063799D01*
X0092986Y0064034D01*
X0092973Y0064051D01*
X0092506Y0064750D01*
X0092840Y0065474D01*
X0092985Y0065690D01*
X0093153Y0066535D01*
X0092985Y0067380D01*
X0092506Y0068097D01*
X0091790Y0068575D01*
X0090945Y0068743D01*
X0090100Y0068575D01*
X0089681Y0068295D01*
X0088894Y0068673D01*
X0088894Y0069504D01*
X0088894Y0069504D01*
X0088649Y0070190D01*
X0088623Y0070283D01*
X0088706Y0070699D01*
X0088706Y0071102D01*
X0088963Y0071273D01*
X0089085Y0071457D01*
X0090007Y0071644D01*
X0090062Y0071610D01*
X0090062Y0071610D02*
G37*
G36*
X0058062Y0065148D02*
X0058517Y0064844D01*
X0059055Y0064737D01*
X0065322Y0064737D01*
X0065648Y0063949D01*
X0061331Y0059632D01*
X0060598Y0059589D01*
X0060320Y0059735D01*
X0060301Y0059826D01*
X0060329Y0060015D01*
X0060701Y0060572D01*
X0060869Y0061417D01*
X0060701Y0062262D01*
X0060222Y0062978D01*
X0059506Y0063457D01*
X0058661Y0063625D01*
X0057816Y0063457D01*
X0057100Y0062978D01*
X0056996Y0062822D01*
X0054125Y0062822D01*
X0050206Y0066742D01*
X0049750Y0067046D01*
X0049213Y0067153D01*
X0041133Y0067153D01*
X0040525Y0067761D01*
X0040827Y0068488D01*
X0042315Y0068488D01*
X0042315Y0070079D01*
X0042815Y0070079D01*
X0042815Y0070472D01*
X0046851Y0070472D01*
X0046851Y0070579D01*
X0046866Y0070579D01*
X0046866Y0071669D01*
X0046850Y0071669D01*
X0046850Y0074394D01*
X0046866Y0074394D01*
X0046866Y0075315D01*
X0047594Y0075616D01*
X0058062Y0065148D01*
X0058062Y0065148D02*
G37*
G36*
X0299961Y0057047D02*
X0289921Y0057047D01*
X0289921Y0062953D01*
X0299961Y0062953D01*
X0299961Y0057047D01*
X0299961Y0057047D02*
G37*
G36*
X0039839Y0064567D02*
X0040014Y0064450D01*
X0040551Y0064343D01*
X0048631Y0064343D01*
X0052358Y0060615D01*
X0052375Y0060050D01*
X0052336Y0059966D01*
X0051897Y0059310D01*
X0051729Y0058465D01*
X0051897Y0057620D01*
X0052376Y0056903D01*
X0053092Y0056425D01*
X0053937Y0056257D01*
X0054782Y0056425D01*
X0054983Y0056559D01*
X0055512Y0056454D01*
X0056357Y0056622D01*
X0057073Y0057100D01*
X0057551Y0057816D01*
X0057720Y0058661D01*
X0057668Y0058921D01*
X0058098Y0059321D01*
X0058661Y0059209D01*
X0058669Y0059211D01*
X0059055Y0058894D01*
X0059055Y0057357D01*
X0050678Y0048980D01*
X0050135Y0049144D01*
X0050071Y0049467D01*
X0049593Y0050183D01*
X0048876Y0050662D01*
X0048031Y0050830D01*
X0047366Y0050697D01*
X0046866Y0051003D01*
X0046866Y0051984D01*
X0046850Y0051984D01*
X0046850Y0056693D01*
X0046850Y0061811D01*
X0038780Y0061811D01*
X0038780Y0058661D01*
X0038780Y0054384D01*
X0038280Y0054117D01*
X0037853Y0054402D01*
X0037008Y0054570D01*
X0036163Y0054402D01*
X0035447Y0053923D01*
X0035232Y0053602D01*
X0034630Y0053602D01*
X0034416Y0053923D01*
X0033699Y0054402D01*
X0032854Y0054570D01*
X0032697Y0054539D01*
X0032274Y0054964D01*
X0032274Y0056677D01*
X0032289Y0056677D01*
X0032289Y0057768D01*
X0032274Y0057768D01*
X0032274Y0057874D01*
X0029026Y0057874D01*
X0029026Y0058768D01*
X0032289Y0058768D01*
X0032289Y0058949D01*
X0029026Y0058949D01*
X0029026Y0059842D01*
X0032274Y0059842D01*
X0032274Y0059949D01*
X0032662Y0059949D01*
X0032789Y0060053D01*
X0033071Y0059997D01*
X0033916Y0060165D01*
X0034632Y0060644D01*
X0035111Y0061360D01*
X0035279Y0062205D01*
X0035111Y0063050D01*
X0034632Y0063766D01*
X0034181Y0064067D01*
X0034333Y0064567D01*
X0039839Y0064567D01*
X0039839Y0064567D02*
G37*
G36*
X0064215Y0052059D02*
X0064278Y0051740D01*
X0064757Y0051024D01*
X0065473Y0050546D01*
X0066318Y0050378D01*
X0067163Y0050546D01*
X0067716Y0050916D01*
X0068293Y0050721D01*
X0068504Y0050567D01*
X0068504Y0045094D01*
X0068488Y0045094D01*
X0068488Y0043102D01*
X0067552Y0043102D01*
X0067537Y0043099D01*
X0067275Y0043099D01*
X0067275Y0043099D01*
X0067275Y0043099D01*
X0067078Y0043018D01*
X0066340Y0042871D01*
X0066294Y0042852D01*
X0066244Y0042847D01*
X0066114Y0042778D01*
X0065978Y0042721D01*
X0065943Y0042686D01*
X0065899Y0042663D01*
X0065505Y0042339D01*
X0065474Y0042301D01*
X0065432Y0042273D01*
X0065350Y0042151D01*
X0065257Y0042037D01*
X0065242Y0041989D01*
X0065215Y0041948D01*
X0065186Y0041803D01*
X0065143Y0041662D01*
X0065148Y0041612D01*
X0065138Y0041564D01*
X0065138Y0039254D01*
X0064351Y0038688D01*
X0063583Y0038841D01*
X0062354Y0038597D01*
X0061312Y0037901D01*
X0060616Y0036859D01*
X0060371Y0035630D01*
X0060616Y0034401D01*
X0061312Y0033359D01*
X0062354Y0032663D01*
X0063583Y0032419D01*
X0064812Y0032663D01*
X0065853Y0033359D01*
X0066258Y0033965D01*
X0067232Y0034104D01*
X0072459Y0028877D01*
X0072157Y0028150D01*
X0068701Y0028150D01*
X0068701Y0028150D01*
X0067991Y0028150D01*
X0067991Y0028150D01*
X0060117Y0028150D01*
X0060117Y0023819D01*
X0067991Y0023819D01*
X0067991Y0023819D01*
X0068142Y0023779D01*
X0068701Y0023228D01*
X0068685Y0022457D01*
X0068685Y0022457D01*
X0068685Y0020948D01*
X0068007Y0020685D01*
X0068007Y0020685D01*
X0064554Y0020685D01*
X0064554Y0018504D01*
X0064054Y0018504D01*
X0064054Y0018004D01*
X0060005Y0018004D01*
X0059314Y0017751D01*
X0058739Y0018326D01*
X0058739Y0020063D01*
X0058755Y0020063D01*
X0058755Y0021744D01*
X0054802Y0021744D01*
X0054802Y0022744D01*
X0058755Y0022744D01*
X0058755Y0024425D01*
X0058739Y0024425D01*
X0058739Y0028150D01*
X0050865Y0028150D01*
X0050865Y0027991D01*
X0045079Y0027991D01*
X0045079Y0028150D01*
X0040043Y0028150D01*
X0038743Y0029450D01*
X0040178Y0030885D01*
X0040192Y0030906D01*
X0052264Y0030906D01*
X0052264Y0037598D01*
X0046850Y0037598D01*
X0046850Y0038961D01*
X0046866Y0038961D01*
X0046866Y0040051D01*
X0046851Y0040051D01*
X0046851Y0040158D01*
X0042815Y0040158D01*
X0042815Y0041051D01*
X0046866Y0041051D01*
X0046866Y0042020D01*
X0042815Y0042020D01*
X0042815Y0042913D01*
X0046851Y0042913D01*
X0046851Y0043020D01*
X0046866Y0043020D01*
X0046866Y0043479D01*
X0050275Y0043479D01*
X0050775Y0043578D01*
X0051198Y0043861D01*
X0058854Y0051517D01*
X0059238Y0051499D01*
X0059711Y0051261D01*
X0059765Y0050834D01*
X0059378Y0050254D01*
X0059210Y0049409D01*
X0059378Y0048565D01*
X0059856Y0047848D01*
X0060572Y0047370D01*
X0061417Y0047202D01*
X0062262Y0047370D01*
X0062978Y0047848D01*
X0063457Y0048565D01*
X0063625Y0049409D01*
X0063457Y0050254D01*
X0062978Y0050971D01*
X0062898Y0051024D01*
X0062854Y0051793D01*
X0063424Y0052299D01*
X0064215Y0052059D01*
X0064215Y0052059D02*
G37*
G36*
X0299961Y0047047D02*
X0289921Y0047047D01*
X0289921Y0052953D01*
X0299961Y0052953D01*
X0299961Y0047047D01*
X0299961Y0047047D02*
G37*
G36*
X0130092Y0064649D02*
X0130076Y0064567D01*
X0130244Y0063722D01*
X0130722Y0063006D01*
X0131439Y0062527D01*
X0131904Y0062435D01*
X0132283Y0062359D01*
X0132677Y0062402D01*
X0132677Y0062402D01*
X0136598Y0062402D01*
X0136598Y0062386D01*
X0138083Y0062386D01*
X0138083Y0064567D01*
X0139083Y0064567D01*
X0139083Y0062386D01*
X0139390Y0062386D01*
X0139629Y0061598D01*
X0139601Y0061580D01*
X0139250Y0061054D01*
X0139126Y0060433D01*
X0139126Y0058768D01*
X0140748Y0058768D01*
X0140748Y0058268D01*
X0141111Y0058268D01*
X0141111Y0056102D01*
X0141233Y0055488D01*
X0141248Y0055465D01*
X0141248Y0054580D01*
X0141369Y0054604D01*
X0141746Y0054857D01*
X0142102Y0054619D01*
X0142717Y0054497D01*
X0143387Y0054403D01*
X0143692Y0053948D01*
X0145877Y0051762D01*
X0146333Y0051458D01*
X0146870Y0051351D01*
X0148276Y0051351D01*
X0151605Y0048022D01*
X0152061Y0047718D01*
X0152599Y0047611D01*
X0156406Y0047611D01*
X0156708Y0046883D01*
X0154536Y0044712D01*
X0149204Y0044712D01*
X0145678Y0048237D01*
X0145223Y0048542D01*
X0144685Y0048649D01*
X0140551Y0048649D01*
X0140551Y0048649D01*
X0140431Y0048683D01*
X0139791Y0049268D01*
X0139791Y0052818D01*
X0139684Y0053355D01*
X0139379Y0053811D01*
X0138260Y0054931D01*
X0137804Y0055235D01*
X0137267Y0055342D01*
X0132025Y0055342D01*
X0131487Y0055235D01*
X0131031Y0054931D01*
X0124427Y0048326D01*
X0123525Y0048538D01*
X0123215Y0049002D01*
X0122498Y0049481D01*
X0122305Y0049519D01*
X0122046Y0050374D01*
X0122253Y0050581D01*
X0122558Y0051037D01*
X0122644Y0051470D01*
X0122821Y0051588D01*
X0123300Y0052305D01*
X0123468Y0053150D01*
X0123300Y0053995D01*
X0122821Y0054711D01*
X0122105Y0055189D01*
X0121260Y0055357D01*
X0120551Y0055216D01*
X0120369Y0055207D01*
X0119516Y0055536D01*
X0119278Y0055892D01*
X0118561Y0056370D01*
X0117717Y0056538D01*
X0116872Y0056370D01*
X0116155Y0055892D01*
X0115677Y0055176D01*
X0115509Y0054331D01*
X0115677Y0053486D01*
X0115687Y0053471D01*
X0115494Y0052630D01*
X0115411Y0052575D01*
X0114777Y0052152D01*
X0114299Y0051435D01*
X0114287Y0051378D01*
X0110189Y0047279D01*
X0109754Y0046628D01*
X0109601Y0045860D01*
X0109601Y0033864D01*
X0109622Y0033757D01*
X0109603Y0033661D01*
X0109771Y0032816D01*
X0109804Y0032768D01*
X0109804Y0031858D01*
X0109252Y0031299D01*
X0108098Y0031299D01*
X0108098Y0033071D01*
X0107991Y0033608D01*
X0107686Y0034064D01*
X0106899Y0034852D01*
X0106443Y0035156D01*
X0105905Y0035263D01*
X0105512Y0035263D01*
X0105512Y0036024D01*
X0098245Y0036024D01*
X0098032Y0036066D01*
X0097818Y0036024D01*
X0090158Y0036024D01*
X0090158Y0032102D01*
X0090158Y0031693D01*
X0089527Y0031315D01*
X0089083Y0031315D01*
X0089083Y0028839D01*
X0088083Y0028839D01*
X0088083Y0031315D01*
X0086008Y0031315D01*
X0086008Y0031315D01*
X0083965Y0031315D01*
X0083965Y0028839D01*
X0083464Y0028839D01*
X0083464Y0028339D01*
X0080890Y0028339D01*
X0080890Y0026371D01*
X0080890Y0026362D01*
X0080905Y0025581D01*
X0080905Y0023213D01*
X0080124Y0022863D01*
X0079740Y0023167D01*
X0079740Y0023910D01*
X0077559Y0023910D01*
X0077559Y0024409D01*
X0077059Y0024409D01*
X0077059Y0026394D01*
X0076361Y0026394D01*
X0066704Y0036052D01*
X0066651Y0036452D01*
X0066334Y0037218D01*
X0066142Y0037469D01*
X0066142Y0041564D01*
X0066535Y0041887D01*
X0067380Y0042055D01*
X0067471Y0042115D01*
X0067552Y0042099D01*
X0068488Y0042099D01*
X0068488Y0042035D01*
X0068504Y0042035D01*
X0068504Y0041929D01*
X0072539Y0041929D01*
X0076575Y0041929D01*
X0076575Y0042035D01*
X0076591Y0042035D01*
X0076591Y0042520D01*
X0077737Y0042520D01*
X0077810Y0042447D01*
X0077838Y0042405D01*
X0080686Y0039558D01*
X0081141Y0039253D01*
X0081679Y0039146D01*
X0089969Y0039146D01*
X0090739Y0038377D01*
X0091195Y0038072D01*
X0091732Y0037965D01*
X0098902Y0037965D01*
X0099440Y0038072D01*
X0099896Y0038377D01*
X0102174Y0040656D01*
X0102479Y0041111D01*
X0102586Y0041649D01*
X0102586Y0043284D01*
X0103374Y0043705D01*
X0103486Y0043630D01*
X0104331Y0043461D01*
X0105176Y0043630D01*
X0105892Y0044108D01*
X0106370Y0044824D01*
X0106538Y0045669D01*
X0106370Y0046514D01*
X0106338Y0046563D01*
X0106338Y0053499D01*
X0107993Y0055155D01*
X0108777Y0055077D01*
X0108872Y0054935D01*
X0109588Y0054456D01*
X0110433Y0054288D01*
X0111278Y0054456D01*
X0111994Y0054935D01*
X0112473Y0055651D01*
X0112641Y0056496D01*
X0112604Y0056680D01*
X0118298Y0062375D01*
X0126122Y0062375D01*
X0126659Y0062481D01*
X0127115Y0062786D01*
X0129366Y0065037D01*
X0130092Y0064649D01*
X0130092Y0064649D02*
G37*
G36*
X0035447Y0044896D02*
X0036163Y0044417D01*
X0037008Y0044249D01*
X0037853Y0044417D01*
X0038280Y0044702D01*
X0038780Y0044435D01*
X0038780Y0040945D01*
X0038780Y0037008D01*
X0039469Y0037008D01*
X0039469Y0031594D01*
X0037402Y0029528D01*
X0032677Y0029528D01*
X0032677Y0033225D01*
X0033522Y0033393D01*
X0034238Y0033872D01*
X0034717Y0034588D01*
X0034885Y0035433D01*
X0034717Y0036278D01*
X0034238Y0036994D01*
X0033522Y0037473D01*
X0032677Y0037641D01*
X0032677Y0038583D01*
X0032289Y0038583D01*
X0032289Y0038870D01*
X0032274Y0038870D01*
X0032274Y0038976D01*
X0029026Y0038976D01*
X0029026Y0039870D01*
X0032289Y0039870D01*
X0032289Y0040051D01*
X0029026Y0040051D01*
X0029026Y0040945D01*
X0032274Y0040945D01*
X0032274Y0041051D01*
X0032289Y0041051D01*
X0032289Y0042142D01*
X0032274Y0042142D01*
X0032274Y0043930D01*
X0032660Y0044247D01*
X0032679Y0044243D01*
X0033524Y0044411D01*
X0034240Y0044890D01*
X0034549Y0045352D01*
X0035140Y0045355D01*
X0035447Y0044896D01*
X0035447Y0044896D02*
G37*
G36*
X0288385Y0046291D02*
X0289921Y0045986D01*
X0290212Y0046044D01*
X0298425Y0046044D01*
X0298425Y0043956D01*
X0290212Y0043956D01*
X0289921Y0044014D01*
X0288385Y0043709D01*
X0287083Y0042838D01*
X0286213Y0041536D01*
X0285907Y0040000D01*
X0286213Y0038464D01*
X0287083Y0037162D01*
X0288385Y0036291D01*
X0289921Y0035986D01*
X0290212Y0036044D01*
X0298425Y0036044D01*
X0298425Y0031496D01*
X0269122Y0031496D01*
X0269122Y0033684D01*
X0269488Y0033985D01*
X0280906Y0033985D01*
X0281520Y0034107D01*
X0282041Y0034455D01*
X0282389Y0034976D01*
X0282511Y0035591D01*
X0282511Y0036772D01*
X0282389Y0037386D01*
X0282041Y0037907D01*
X0281520Y0038255D01*
X0281445Y0038270D01*
X0281445Y0039073D01*
X0281790Y0039141D01*
X0282506Y0039620D01*
X0285813Y0042927D01*
X0286292Y0043643D01*
X0286460Y0044488D01*
X0286460Y0046785D01*
X0287247Y0047052D01*
X0288385Y0046291D01*
X0288385Y0046291D02*
G37*
G36*
X0022334Y0064567D02*
X0022530Y0064311D01*
X0023147Y0063838D01*
X0023865Y0063541D01*
X0024251Y0063490D01*
X0024268Y0062983D01*
X0023949Y0062920D01*
X0023201Y0062419D01*
X0022700Y0061671D01*
X0022525Y0060787D01*
X0022700Y0059904D01*
X0023201Y0059155D01*
X0023949Y0058655D01*
X0024833Y0058479D01*
X0025262Y0058565D01*
X0025762Y0058154D01*
X0025762Y0056677D01*
X0025778Y0056677D01*
X0025778Y0055635D01*
X0025641Y0055635D01*
X0025142Y0055536D01*
X0024719Y0055253D01*
X0023697Y0054231D01*
X0023565Y0054205D01*
X0022848Y0053727D01*
X0022370Y0053010D01*
X0022202Y0052165D01*
X0022370Y0051320D01*
X0022848Y0050604D01*
X0022964Y0050527D01*
X0022845Y0050005D01*
X0022187Y0049874D01*
X0021470Y0049396D01*
X0020992Y0048680D01*
X0020824Y0047835D01*
X0020992Y0046990D01*
X0021470Y0046273D01*
X0022187Y0045795D01*
X0022478Y0045737D01*
X0022732Y0045177D01*
X0022595Y0044488D01*
X0022763Y0043643D01*
X0023242Y0042927D01*
X0023958Y0042448D01*
X0024803Y0042280D01*
X0025106Y0042341D01*
X0025554Y0041892D01*
X0025762Y0041754D01*
X0025762Y0040665D01*
X0025262Y0040254D01*
X0024833Y0040340D01*
X0023949Y0040164D01*
X0023201Y0039664D01*
X0022700Y0038915D01*
X0022634Y0038583D01*
X0019685Y0038583D01*
X0019685Y0064567D01*
X0022334Y0064567D01*
X0022334Y0064567D02*
G37*
G36*
X0115721Y0037975D02*
X0115721Y0019283D01*
X0113591Y0017153D01*
X0103018Y0017153D01*
X0102953Y0017913D01*
X0102953Y0017913D01*
X0102953Y0023031D01*
X0102585Y0023031D01*
X0102387Y0023455D01*
X0102894Y0024186D01*
X0103445Y0024186D01*
X0104004Y0023630D01*
X0106693Y0023630D01*
X0106693Y0023130D01*
X0107193Y0023130D01*
X0107193Y0020654D01*
X0109236Y0020654D01*
X0109236Y0020653D01*
X0111311Y0020653D01*
X0111311Y0023130D01*
X0111811Y0023130D01*
X0111811Y0023630D01*
X0114386Y0023630D01*
X0114386Y0025597D01*
X0114386Y0025606D01*
X0114386Y0025606D01*
X0114370Y0026378D01*
X0114370Y0026378D01*
X0114370Y0031299D01*
X0113818Y0031299D01*
X0113818Y0032768D01*
X0113851Y0032816D01*
X0114019Y0033661D01*
X0113851Y0034506D01*
X0113615Y0034859D01*
X0113615Y0037873D01*
X0114224Y0038372D01*
X0114370Y0038343D01*
X0114934Y0038456D01*
X0115721Y0037975D01*
X0115721Y0037975D02*
G37*
G36*
X0299961Y0037047D02*
X0289921Y0037047D01*
X0289921Y0042953D01*
X0299961Y0042953D01*
X0299961Y0037047D01*
X0299961Y0037047D02*
G37*
G36*
X0125089Y0039958D02*
X0125223Y0039555D01*
X0125189Y0039501D01*
X0124877Y0039034D01*
X0124709Y0038189D01*
X0124877Y0037344D01*
X0125356Y0036628D01*
X0126072Y0036149D01*
X0126917Y0035981D01*
X0127141Y0036026D01*
X0127672Y0035495D01*
X0128096Y0035212D01*
X0128595Y0035113D01*
X0130204Y0035113D01*
X0130875Y0034449D01*
X0130997Y0033834D01*
X0131235Y0033479D01*
X0130982Y0033101D01*
X0130921Y0032795D01*
X0130134Y0032873D01*
X0130134Y0033874D01*
X0128453Y0033874D01*
X0128453Y0031890D01*
X0127953Y0031890D01*
X0127953Y0031390D01*
X0125772Y0031390D01*
X0125772Y0029906D01*
X0125211Y0029358D01*
X0123296Y0029358D01*
X0122758Y0029251D01*
X0122302Y0028946D01*
X0122288Y0028932D01*
X0122047Y0028979D01*
X0121896Y0028949D01*
X0121287Y0029449D01*
X0121287Y0037213D01*
X0124204Y0040130D01*
X0125089Y0039958D01*
X0125089Y0039958D02*
G37*
G36*
X0211889Y0075188D02*
X0212345Y0074883D01*
X0212883Y0074776D01*
X0251386Y0074776D01*
X0253573Y0072590D01*
X0253557Y0072427D01*
X0253078Y0071711D01*
X0252910Y0070866D01*
X0253078Y0070021D01*
X0253557Y0069305D01*
X0253924Y0069060D01*
X0253919Y0068670D01*
X0253812Y0068188D01*
X0253392Y0067907D01*
X0253044Y0067386D01*
X0252922Y0066772D01*
X0252922Y0065591D01*
X0253044Y0064976D01*
X0253376Y0064479D01*
X0253078Y0064034D01*
X0252910Y0063189D01*
X0253064Y0062416D01*
X0253044Y0062386D01*
X0252922Y0061772D01*
X0252922Y0060590D01*
X0253044Y0059976D01*
X0253392Y0059455D01*
X0253913Y0059107D01*
X0254037Y0059083D01*
X0254037Y0058280D01*
X0253913Y0058255D01*
X0253392Y0057907D01*
X0253044Y0057386D01*
X0252922Y0056772D01*
X0252922Y0055590D01*
X0253044Y0054976D01*
X0253392Y0054455D01*
X0253913Y0054107D01*
X0254037Y0054083D01*
X0254037Y0053280D01*
X0253913Y0053255D01*
X0253392Y0052907D01*
X0253044Y0052386D01*
X0252922Y0051772D01*
X0252922Y0050591D01*
X0253044Y0049976D01*
X0253392Y0049455D01*
X0253913Y0049107D01*
X0254037Y0049082D01*
X0254037Y0048280D01*
X0253913Y0048255D01*
X0253392Y0047907D01*
X0253044Y0047386D01*
X0252922Y0046772D01*
X0252922Y0045591D01*
X0253044Y0044976D01*
X0253392Y0044455D01*
X0253913Y0044107D01*
X0254037Y0044082D01*
X0254037Y0043280D01*
X0253913Y0043255D01*
X0253392Y0042907D01*
X0253044Y0042386D01*
X0252922Y0041772D01*
X0252922Y0040591D01*
X0253044Y0039976D01*
X0253392Y0039455D01*
X0253913Y0039107D01*
X0254037Y0039083D01*
X0254037Y0038280D01*
X0253913Y0038255D01*
X0253392Y0037907D01*
X0253044Y0037386D01*
X0252922Y0036772D01*
X0252922Y0035591D01*
X0253044Y0034976D01*
X0253392Y0034455D01*
X0253913Y0034107D01*
X0254528Y0033985D01*
X0265945Y0033985D01*
X0266312Y0033684D01*
X0266312Y0031496D01*
X0250590Y0031496D01*
X0250590Y0072835D01*
X0194488Y0072835D01*
X0194488Y0014357D01*
X0193858Y0013976D01*
X0191763Y0013976D01*
X0191763Y0015945D01*
X0192323Y0015945D01*
X0192323Y0020866D01*
X0190158Y0020866D01*
X0189787Y0021561D01*
X0189849Y0021654D01*
X0192323Y0021654D01*
X0192323Y0026575D01*
X0187421Y0026575D01*
X0187421Y0029512D01*
X0187437Y0029512D01*
X0187437Y0030996D01*
X0185256Y0030996D01*
X0185256Y0031996D01*
X0187437Y0031996D01*
X0187437Y0032661D01*
X0187437Y0034146D01*
X0185256Y0034146D01*
X0185256Y0035146D01*
X0187437Y0035146D01*
X0187437Y0036630D01*
X0187421Y0036630D01*
X0187421Y0040551D01*
X0183484Y0040551D01*
X0183484Y0041142D01*
X0182909Y0041142D01*
X0182909Y0042413D01*
X0180925Y0042413D01*
X0180925Y0043413D01*
X0182909Y0043413D01*
X0182909Y0045063D01*
X0182909Y0046744D01*
X0180925Y0046744D01*
X0180925Y0047744D01*
X0182909Y0047744D01*
X0182909Y0049409D01*
X0185453Y0049409D01*
X0185453Y0049409D01*
X0185947Y0049815D01*
X0186221Y0049761D01*
X0187065Y0049929D01*
X0187782Y0050407D01*
X0188260Y0051124D01*
X0188428Y0051968D01*
X0188260Y0052813D01*
X0187782Y0053530D01*
X0187065Y0054008D01*
X0186221Y0054176D01*
X0186081Y0054149D01*
X0185456Y0054668D01*
X0185468Y0055299D01*
X0185468Y0055299D01*
X0185468Y0057374D01*
X0182992Y0057374D01*
X0182992Y0057874D01*
X0182492Y0057874D01*
X0182492Y0060449D01*
X0182449Y0060449D01*
X0182148Y0061176D01*
X0182686Y0061715D01*
X0182991Y0062170D01*
X0183098Y0062708D01*
X0183098Y0087375D01*
X0199702Y0087375D01*
X0211889Y0075188D01*
X0211889Y0075188D02*
G37*
G36*
X0105905Y0027953D02*
X0103543Y0025591D01*
X0102362Y0025591D01*
X0102362Y0027165D01*
X0103150Y0027165D01*
X0105118Y0029134D01*
X0105905Y0029134D01*
X0105905Y0027953D01*
X0105905Y0027953D02*
G37*
G36*
X0092146Y0027165D02*
X0092933Y0027165D01*
X0092933Y0025591D01*
X0091752Y0025591D01*
X0089390Y0027953D01*
X0089390Y0029134D01*
X0090177Y0029134D01*
X0092146Y0027165D01*
X0092146Y0027165D02*
G37*
G36*
X0092888Y0023455D02*
X0092691Y0023031D01*
X0092323Y0023031D01*
X0092323Y0017913D01*
X0092323Y0017913D01*
X0092258Y0017153D01*
X0085669Y0017153D01*
X0085132Y0017046D01*
X0084676Y0016741D01*
X0081592Y0013658D01*
X0081457Y0013748D01*
X0079921Y0014053D01*
X0078385Y0013748D01*
X0077083Y0012878D01*
X0076213Y0011575D01*
X0075907Y0010039D01*
X0075965Y0009749D01*
X0075965Y0007874D01*
X0073878Y0007874D01*
X0073878Y0009749D01*
X0073935Y0010039D01*
X0073630Y0011575D01*
X0072760Y0012878D01*
X0071457Y0013748D01*
X0070445Y0013949D01*
X0070522Y0014737D01*
X0073032Y0014737D01*
X0073569Y0014844D01*
X0074025Y0015148D01*
X0077381Y0018504D01*
X0079724Y0018504D01*
X0079724Y0021145D01*
X0079774Y0021277D01*
X0079785Y0021294D01*
X0080137Y0021392D01*
X0080890Y0020927D01*
X0080890Y0020653D01*
X0082964Y0020653D01*
X0082964Y0023130D01*
X0083965Y0023130D01*
X0083965Y0020653D01*
X0086039Y0020653D01*
X0086039Y0020654D01*
X0088083Y0020654D01*
X0088083Y0023130D01*
X0088583Y0023130D01*
X0088583Y0023630D01*
X0091271Y0023630D01*
X0091850Y0024186D01*
X0092382Y0024186D01*
X0092888Y0023455D01*
X0092888Y0023455D02*
G37*
G36*
X0161628Y0035644D02*
X0162344Y0035165D01*
X0163189Y0034997D01*
X0164034Y0035165D01*
X0164078Y0035195D01*
X0164787Y0034721D01*
X0164733Y0034449D01*
X0164855Y0033834D01*
X0165102Y0033465D01*
X0164855Y0033095D01*
X0164733Y0032480D01*
X0164855Y0031866D01*
X0165093Y0031510D01*
X0164840Y0031132D01*
X0164816Y0031012D01*
X0165701Y0031012D01*
X0165724Y0030997D01*
X0166339Y0030874D01*
X0168504Y0030874D01*
X0168504Y0030512D01*
X0169004Y0030512D01*
X0169004Y0028890D01*
X0170669Y0028890D01*
X0171290Y0029013D01*
X0171488Y0029146D01*
X0172177Y0028686D01*
X0173022Y0028518D01*
X0173642Y0028641D01*
X0174429Y0028187D01*
X0174429Y0025626D01*
X0174394Y0025626D01*
X0174394Y0023945D01*
X0176378Y0023945D01*
X0176378Y0022945D01*
X0174394Y0022945D01*
X0174394Y0021391D01*
X0174197Y0020685D01*
X0174197Y0020685D01*
X0173497Y0020472D01*
X0171122Y0020472D01*
X0170476Y0021260D01*
X0170515Y0021457D01*
X0170347Y0022302D01*
X0169868Y0023018D01*
X0169152Y0023496D01*
X0168307Y0023664D01*
X0167462Y0023496D01*
X0166746Y0023018D01*
X0166267Y0022302D01*
X0166099Y0021457D01*
X0166132Y0021294D01*
X0165632Y0020685D01*
X0164220Y0020685D01*
X0163799Y0021472D01*
X0163900Y0021623D01*
X0164023Y0022244D01*
X0164023Y0023909D01*
X0162402Y0023909D01*
X0162402Y0024909D01*
X0164023Y0024909D01*
X0164023Y0026575D01*
X0163900Y0027195D01*
X0163548Y0027722D01*
X0163405Y0027817D01*
X0163457Y0027895D01*
X0163625Y0028740D01*
X0163457Y0029585D01*
X0162978Y0030301D01*
X0162262Y0030780D01*
X0161417Y0030948D01*
X0160572Y0030780D01*
X0159856Y0030301D01*
X0159529Y0029812D01*
X0159083Y0029795D01*
X0158709Y0029845D01*
X0158683Y0029855D01*
X0158254Y0030498D01*
X0157538Y0030977D01*
X0156693Y0031145D01*
X0155848Y0030977D01*
X0155132Y0030498D01*
X0154983Y0030276D01*
X0154777Y0030235D01*
X0154486Y0030040D01*
X0154306Y0029934D01*
X0153552Y0030127D01*
X0153352Y0030328D01*
X0153389Y0030512D01*
X0153221Y0031357D01*
X0152742Y0032073D01*
X0152026Y0032552D01*
X0151464Y0032663D01*
X0151267Y0033478D01*
X0151561Y0033675D01*
X0152040Y0034391D01*
X0152208Y0035236D01*
X0152174Y0035406D01*
X0152820Y0036193D01*
X0161260Y0036193D01*
X0161628Y0035644D01*
X0161628Y0035644D02*
G37*
G36*
X0037809Y0024423D02*
X0038525Y0023945D01*
X0039370Y0023776D01*
X0039961Y0023292D01*
X0039961Y0023237D01*
X0039945Y0022457D01*
X0039945Y0022447D01*
X0039945Y0020480D01*
X0045094Y0020480D01*
X0045094Y0022447D01*
X0045094Y0022457D01*
X0045080Y0023190D01*
X0045115Y0023457D01*
X0045457Y0023798D01*
X0046244Y0023546D01*
X0046244Y0022547D01*
X0048425Y0022547D01*
X0048425Y0022047D01*
X0048925Y0022047D01*
X0048925Y0020063D01*
X0050606Y0020063D01*
X0050865Y0019383D01*
X0050865Y0016339D01*
X0056752Y0016339D01*
X0057942Y0015148D01*
X0058398Y0014844D01*
X0058936Y0014737D01*
X0059320Y0014737D01*
X0059398Y0013949D01*
X0058385Y0013748D01*
X0057083Y0012878D01*
X0056213Y0011575D01*
X0055907Y0010039D01*
X0055965Y0009749D01*
X0055965Y0007874D01*
X0053878Y0007874D01*
X0053878Y0009749D01*
X0053935Y0010039D01*
X0053630Y0011575D01*
X0052760Y0012878D01*
X0051457Y0013748D01*
X0049921Y0014053D01*
X0048385Y0013748D01*
X0047083Y0012878D01*
X0046213Y0011575D01*
X0045907Y0010039D01*
X0045965Y0009749D01*
X0045965Y0007874D01*
X0043878Y0007874D01*
X0043878Y0009749D01*
X0043935Y0010039D01*
X0043630Y0011575D01*
X0042760Y0012878D01*
X0041457Y0013748D01*
X0039921Y0014053D01*
X0038385Y0013748D01*
X0037083Y0012878D01*
X0036213Y0011575D01*
X0035907Y0010039D01*
X0035965Y0009749D01*
X0035965Y0007874D01*
X0027925Y0007874D01*
X0027520Y0008549D01*
X0028074Y0009585D01*
X0028879Y0012239D01*
X0029151Y0015000D01*
X0028941Y0017126D01*
X0029622Y0017913D01*
X0032661Y0017913D01*
X0032661Y0017898D01*
X0034146Y0017898D01*
X0034146Y0020079D01*
X0034646Y0020079D01*
X0034646Y0020579D01*
X0036630Y0020579D01*
X0036630Y0021835D01*
X0036630Y0023516D01*
X0034646Y0023516D01*
X0034646Y0024516D01*
X0036630Y0024516D01*
X0036630Y0024878D01*
X0036825Y0024951D01*
X0037417Y0025009D01*
X0037809Y0024423D01*
X0037809Y0024423D02*
G37*
G36*
X0174213Y0017426D02*
X0174213Y0015551D01*
X0179134Y0015551D01*
X0179134Y0015551D01*
X0179905Y0015535D01*
X0179905Y0015536D01*
X0182157Y0015536D01*
X0182458Y0014808D01*
X0181408Y0013758D01*
X0179921Y0014053D01*
X0178385Y0013748D01*
X0177083Y0012878D01*
X0176213Y0011575D01*
X0175907Y0010039D01*
X0175965Y0009749D01*
X0175965Y0007874D01*
X0173878Y0007874D01*
X0173878Y0009749D01*
X0173935Y0010039D01*
X0173630Y0011575D01*
X0172760Y0012878D01*
X0171457Y0013748D01*
X0171326Y0013774D01*
X0171326Y0015522D01*
X0172105Y0015677D01*
X0172821Y0016155D01*
X0173300Y0016872D01*
X0173425Y0017503D01*
X0174213Y0017426D01*
X0174213Y0017426D02*
G37*
G36*
X0192874Y0000000D02*
X0186969Y0000000D01*
X0186969Y0010039D01*
X0192874Y0010039D01*
X0192874Y0000000D01*
X0192874Y0000000D02*
G37*
G36*
X0182874Y0000000D02*
X0176969Y0000000D01*
X0176969Y0010039D01*
X0182874Y0010039D01*
X0182874Y0000000D01*
X0182874Y0000000D02*
G37*
G36*
X0172874Y0000000D02*
X0166969Y0000000D01*
X0166969Y0010039D01*
X0172874Y0010039D01*
X0172874Y0000000D01*
X0172874Y0000000D02*
G37*
G36*
X0162874Y0000000D02*
X0156968Y0000000D01*
X0156968Y0010039D01*
X0162874Y0010039D01*
X0162874Y0000000D01*
X0162874Y0000000D02*
G37*
G36*
X0152874Y0000000D02*
X0146968Y0000000D01*
X0146968Y0010039D01*
X0152874Y0010039D01*
X0152874Y0000000D01*
X0152874Y0000000D02*
G37*
G36*
X0142874Y0000000D02*
X0136969Y0000000D01*
X0136969Y0010039D01*
X0142874Y0010039D01*
X0142874Y0000000D01*
X0142874Y0000000D02*
G37*
G36*
X0132874Y0000000D02*
X0126969Y0000000D01*
X0126969Y0010039D01*
X0132874Y0010039D01*
X0132874Y0000000D01*
X0132874Y0000000D02*
G37*
G36*
X0122874Y0000000D02*
X0116969Y0000000D01*
X0116969Y0010039D01*
X0122874Y0010039D01*
X0122874Y0000000D01*
X0122874Y0000000D02*
G37*
G36*
X0112874Y0000000D02*
X0106968Y0000000D01*
X0106968Y0010039D01*
X0112874Y0010039D01*
X0112874Y0000000D01*
X0112874Y0000000D02*
G37*
G36*
X0102874Y0000000D02*
X0096969Y0000000D01*
X0096969Y0010039D01*
X0102874Y0010039D01*
X0102874Y0000000D01*
X0102874Y0000000D02*
G37*
G36*
X0092874Y0000000D02*
X0086968Y0000000D01*
X0086968Y0010039D01*
X0092874Y0010039D01*
X0092874Y0000000D01*
X0092874Y0000000D02*
G37*
G36*
X0082874Y0000000D02*
X0076968Y0000000D01*
X0076968Y0010039D01*
X0082874Y0010039D01*
X0082874Y0000000D01*
X0082874Y0000000D02*
G37*
G36*
X0072874Y0000000D02*
X0066969Y0000000D01*
X0066969Y0010039D01*
X0072874Y0010039D01*
X0072874Y0000000D01*
X0072874Y0000000D02*
G37*
G36*
X0062874Y0000000D02*
X0056968Y0000000D01*
X0056968Y0010039D01*
X0062874Y0010039D01*
X0062874Y0000000D01*
X0062874Y0000000D02*
G37*
G36*
X0052874Y0000000D02*
X0046968Y0000000D01*
X0046968Y0010039D01*
X0052874Y0010039D01*
X0052874Y0000000D01*
X0052874Y0000000D02*
G37*
G36*
X0042874Y0000000D02*
X0036968Y0000000D01*
X0036968Y0010039D01*
X0042874Y0010039D01*
X0042874Y0000000D01*
X0042874Y0000000D02*
G37*
%LPC*%
G36*
X0051591Y0133677D02*
X0049024Y0133677D01*
X0049024Y0131898D01*
X0051591Y0131898D01*
X0051591Y0133677D01*
X0051591Y0133677D02*
G37*
G36*
X0048024Y0133677D02*
X0045457Y0133677D01*
X0045457Y0131898D01*
X0048024Y0131898D01*
X0048024Y0133677D01*
X0048024Y0133677D02*
G37*
G36*
X0095473Y0126575D02*
X0095472Y0126575D01*
X0094685Y0126575D01*
X0094685Y0126575D01*
X0089567Y0126575D01*
X0089567Y0121653D01*
X0094270Y0121653D01*
X0094685Y0121653D01*
X0094685Y0121653D01*
X0095472Y0121654D01*
X0095473Y0121653D01*
X0095473Y0121653D01*
X0096206Y0121653D01*
X0099857Y0121653D01*
X0100591Y0121653D01*
X0100591Y0121653D01*
X0100591Y0121654D01*
X0101378Y0121653D01*
X0101378Y0121653D01*
X0101378Y0121653D01*
X0101793Y0121653D01*
X0106496Y0121653D01*
X0106496Y0126575D01*
X0101378Y0126575D01*
X0101378Y0126575D01*
X0100591Y0126575D01*
X0100591Y0126575D01*
X0100591Y0126575D01*
X0095473Y0126575D01*
X0095473Y0126575D01*
X0095473Y0126575D02*
G37*
G36*
X0064362Y0130898D02*
X0061795Y0130898D01*
X0061795Y0129118D01*
X0064362Y0129118D01*
X0064362Y0130898D01*
X0064362Y0130898D02*
G37*
G36*
X0268614Y0112969D02*
X0261224Y0112969D01*
X0261224Y0110106D01*
X0268614Y0110106D01*
X0268614Y0112969D01*
X0268614Y0112969D02*
G37*
G36*
X0268614Y0109106D02*
X0261224Y0109106D01*
X0261224Y0106244D01*
X0268614Y0106244D01*
X0268614Y0109106D01*
X0268614Y0109106D02*
G37*
G36*
X0010252Y0118913D02*
X0006799Y0118913D01*
X0006799Y0114476D01*
X0010252Y0114476D01*
X0010252Y0118913D01*
X0010252Y0118913D02*
G37*
G36*
X0005799Y0118913D02*
X0002347Y0118913D01*
X0002347Y0114476D01*
X0005799Y0114476D01*
X0005799Y0118913D01*
X0005799Y0118913D02*
G37*
G36*
X0005799Y0113476D02*
X0002347Y0113476D01*
X0002347Y0109039D01*
X0005799Y0109039D01*
X0005799Y0113476D01*
X0005799Y0113476D02*
G37*
G36*
X0046866Y0108949D02*
X0042815Y0108949D01*
X0038764Y0108949D01*
X0038764Y0107980D01*
X0042815Y0107980D01*
X0046866Y0107980D01*
X0046866Y0108949D01*
X0046866Y0108949D02*
G37*
G36*
X0010130Y0103634D02*
X0008449Y0103634D01*
X0008449Y0099591D01*
X0010130Y0099591D01*
X0010130Y0103634D01*
X0010130Y0103634D02*
G37*
G36*
X0046851Y0107087D02*
X0042815Y0107087D01*
X0038779Y0107087D01*
X0038779Y0106980D01*
X0038764Y0106980D01*
X0038764Y0105890D01*
X0038780Y0105890D01*
X0038780Y0103937D01*
X0038780Y0100000D01*
X0038780Y0095291D01*
X0038764Y0095291D01*
X0038764Y0094201D01*
X0038779Y0094201D01*
X0038779Y0094094D01*
X0042815Y0094094D01*
X0046851Y0094094D01*
X0046851Y0094201D01*
X0046866Y0094201D01*
X0046866Y0095291D01*
X0046850Y0095291D01*
X0046850Y0098032D01*
X0046850Y0101969D01*
X0046850Y0105890D01*
X0046866Y0105890D01*
X0046866Y0106980D01*
X0046851Y0106980D01*
X0046851Y0107087D01*
X0046851Y0107087D02*
G37*
G36*
X0008266Y0095921D02*
X0006798Y0095921D01*
X0006798Y0093413D01*
X0010289Y0093413D01*
X0010289Y0093898D01*
X0010136Y0094672D01*
X0009697Y0095328D01*
X0009041Y0095767D01*
X0008266Y0095921D01*
X0008266Y0095921D02*
G37*
G36*
X0005798Y0095921D02*
X0004329Y0095921D01*
X0003555Y0095767D01*
X0002899Y0095328D01*
X0002460Y0094672D01*
X0002306Y0093898D01*
X0002306Y0093413D01*
X0005798Y0093413D01*
X0005798Y0095921D01*
X0005798Y0095921D02*
G37*
G36*
X0010289Y0092413D02*
X0006798Y0092413D01*
X0006798Y0089906D01*
X0008266Y0089906D01*
X0009041Y0090060D01*
X0009697Y0090499D01*
X0010136Y0091155D01*
X0010289Y0091929D01*
X0010289Y0092413D01*
X0010289Y0092413D02*
G37*
G36*
X0005798Y0092413D02*
X0002306Y0092413D01*
X0002306Y0091929D01*
X0002460Y0091155D01*
X0002899Y0090499D01*
X0003555Y0090060D01*
X0004329Y0089906D01*
X0005798Y0089906D01*
X0005798Y0092413D01*
X0005798Y0092413D02*
G37*
G36*
X0046851Y0093307D02*
X0042815Y0093307D01*
X0038779Y0093307D01*
X0038779Y0093201D01*
X0038764Y0093201D01*
X0038764Y0092110D01*
X0038780Y0092110D01*
X0038780Y0089386D01*
X0038764Y0089386D01*
X0038764Y0088295D01*
X0038779Y0088295D01*
X0038779Y0088189D01*
X0042815Y0088189D01*
X0046851Y0088189D01*
X0046851Y0088295D01*
X0046866Y0088295D01*
X0046866Y0089386D01*
X0046850Y0089386D01*
X0046850Y0092110D01*
X0046866Y0092110D01*
X0046866Y0093201D01*
X0046851Y0093201D01*
X0046851Y0093307D01*
X0046851Y0093307D02*
G37*
G36*
X0046851Y0087402D02*
X0042815Y0087402D01*
X0038779Y0087402D01*
X0038779Y0087295D01*
X0038764Y0087295D01*
X0038764Y0086205D01*
X0038780Y0086205D01*
X0038780Y0083480D01*
X0038764Y0083480D01*
X0038764Y0082390D01*
X0038779Y0082390D01*
X0038779Y0082283D01*
X0042815Y0082283D01*
X0046851Y0082283D01*
X0046851Y0082390D01*
X0046866Y0082390D01*
X0046866Y0083480D01*
X0046850Y0083480D01*
X0046850Y0086205D01*
X0046866Y0086205D01*
X0046866Y0087295D01*
X0046851Y0087295D01*
X0046851Y0087402D01*
X0046851Y0087402D02*
G37*
G36*
X0008266Y0084110D02*
X0006798Y0084110D01*
X0006798Y0081602D01*
X0010289Y0081602D01*
X0010289Y0082087D01*
X0010136Y0082861D01*
X0009697Y0083517D01*
X0009041Y0083956D01*
X0008266Y0084110D01*
X0008266Y0084110D02*
G37*
G36*
X0005798Y0084110D02*
X0004329Y0084110D01*
X0003555Y0083956D01*
X0002899Y0083517D01*
X0002460Y0082861D01*
X0002306Y0082087D01*
X0002306Y0081602D01*
X0005798Y0081602D01*
X0005798Y0084110D01*
X0005798Y0084110D02*
G37*
G36*
X0010289Y0080602D02*
X0006298Y0080602D01*
X0002306Y0080602D01*
X0002306Y0080118D01*
X0002460Y0079344D01*
X0002899Y0078688D01*
X0002995Y0078623D01*
X0002995Y0077676D01*
X0002899Y0077612D01*
X0002460Y0076955D01*
X0002306Y0076181D01*
X0002306Y0075697D01*
X0006298Y0075697D01*
X0010289Y0075697D01*
X0010289Y0076181D01*
X0010136Y0076955D01*
X0009697Y0077612D01*
X0009601Y0077676D01*
X0009601Y0078623D01*
X0009697Y0078688D01*
X0010136Y0079344D01*
X0010289Y0080118D01*
X0010289Y0080602D01*
X0010289Y0080602D02*
G37*
G36*
X0010289Y0074697D02*
X0006798Y0074697D01*
X0006798Y0072189D01*
X0008266Y0072189D01*
X0009041Y0072343D01*
X0009697Y0072782D01*
X0010136Y0073438D01*
X0010289Y0074213D01*
X0010289Y0074697D01*
X0010289Y0074697D02*
G37*
G36*
X0005798Y0074697D02*
X0002306Y0074697D01*
X0002306Y0074213D01*
X0002460Y0073438D01*
X0002899Y0072782D01*
X0003555Y0072343D01*
X0004329Y0072189D01*
X0005798Y0072189D01*
X0005798Y0074697D01*
X0005798Y0074697D02*
G37*
G36*
X0011919Y0069444D02*
X0010845Y0069444D01*
X0010845Y0066917D01*
X0014846Y0066917D01*
X0014716Y0067576D01*
X0014060Y0068558D01*
X0013078Y0069214D01*
X0011919Y0069444D01*
X0011919Y0069444D02*
G37*
G36*
X0009844Y0069444D02*
X0008770Y0069444D01*
X0007611Y0069214D01*
X0006629Y0068558D01*
X0005973Y0067576D01*
X0005843Y0066917D01*
X0009844Y0066917D01*
X0009844Y0069444D01*
X0009844Y0069444D02*
G37*
G36*
X0014846Y0065917D02*
X0010845Y0065917D01*
X0010845Y0063391D01*
X0011919Y0063391D01*
X0013078Y0063621D01*
X0014060Y0064277D01*
X0014716Y0065259D01*
X0014846Y0065917D01*
X0014846Y0065917D02*
G37*
G36*
X0009844Y0065917D02*
X0005843Y0065917D01*
X0005973Y0065259D01*
X0006629Y0064277D01*
X0007611Y0063621D01*
X0008770Y0063391D01*
X0009844Y0063391D01*
X0009844Y0065917D01*
X0009844Y0065917D02*
G37*
G36*
X0011919Y0035428D02*
X0010845Y0035428D01*
X0010845Y0032902D01*
X0014846Y0032902D01*
X0014716Y0033560D01*
X0014060Y0034542D01*
X0013078Y0035198D01*
X0011919Y0035428D01*
X0011919Y0035428D02*
G37*
G36*
X0009844Y0035428D02*
X0008770Y0035428D01*
X0007611Y0035198D01*
X0006629Y0034542D01*
X0005973Y0033560D01*
X0005843Y0032902D01*
X0009844Y0032902D01*
X0009844Y0035428D01*
X0009844Y0035428D02*
G37*
G36*
X0026301Y0031902D02*
X0021709Y0031902D01*
X0021840Y0031243D01*
X0022496Y0030261D01*
X0023478Y0029605D01*
X0024636Y0029375D01*
X0026301Y0029375D01*
X0026301Y0031902D01*
X0026301Y0031902D02*
G37*
G36*
X0009844Y0031902D02*
X0005843Y0031902D01*
X0005973Y0031243D01*
X0006629Y0030261D01*
X0007611Y0029605D01*
X0008770Y0029375D01*
X0009844Y0029375D01*
X0009844Y0031902D01*
X0009844Y0031902D02*
G37*
G36*
X0030724Y0113476D02*
X0027272Y0113476D01*
X0027272Y0109039D01*
X0030724Y0109039D01*
X0030724Y0113476D01*
X0030724Y0113476D02*
G37*
G36*
X0093520Y0098244D02*
X0091445Y0098244D01*
X0091445Y0096268D01*
X0093520Y0096268D01*
X0093520Y0098244D01*
X0093520Y0098244D02*
G37*
G36*
X0143004Y0096866D02*
X0141323Y0096866D01*
X0141323Y0095382D01*
X0143004Y0095382D01*
X0143004Y0096866D01*
X0143004Y0096866D02*
G37*
G36*
X0293874Y0083953D02*
X0290421Y0083953D01*
X0290421Y0082953D01*
X0293874Y0082953D01*
X0293874Y0083953D01*
X0293874Y0083953D02*
G37*
G36*
X0293874Y0077047D02*
X0290421Y0077047D01*
X0290421Y0076047D01*
X0293874Y0076047D01*
X0293874Y0077047D01*
X0293874Y0077047D02*
G37*
G36*
X0030368Y0074697D02*
X0026877Y0074697D01*
X0026877Y0072189D01*
X0028345Y0072189D01*
X0029119Y0072343D01*
X0029776Y0072782D01*
X0030214Y0073438D01*
X0030368Y0074213D01*
X0030368Y0074697D01*
X0030368Y0074697D02*
G37*
G36*
X0028967Y0069444D02*
X0027301Y0069444D01*
X0027301Y0066917D01*
X0031894Y0066917D01*
X0031763Y0067576D01*
X0031107Y0068558D01*
X0030125Y0069214D01*
X0028967Y0069444D01*
X0028967Y0069444D02*
G37*
G36*
X0046866Y0069579D02*
X0043315Y0069579D01*
X0043315Y0068488D01*
X0046866Y0068488D01*
X0046866Y0069579D01*
X0046866Y0069579D02*
G37*
G36*
X0063554Y0020685D02*
X0060101Y0020685D01*
X0060101Y0019004D01*
X0063554Y0019004D01*
X0063554Y0020685D01*
X0063554Y0020685D02*
G37*
G36*
X0140248Y0057768D02*
X0139126Y0057768D01*
X0139126Y0056102D01*
X0139250Y0055482D01*
X0139601Y0054956D01*
X0140127Y0054604D01*
X0140248Y0054580D01*
X0140248Y0057768D01*
X0140248Y0057768D02*
G37*
G36*
X0076591Y0041035D02*
X0072539Y0041035D01*
X0068488Y0041035D01*
X0068488Y0040067D01*
X0072539Y0040067D01*
X0076591Y0040067D01*
X0076591Y0041035D01*
X0076591Y0041035D02*
G37*
G36*
X0076591Y0039067D02*
X0073039Y0039067D01*
X0073039Y0037976D01*
X0076591Y0037976D01*
X0076591Y0039067D01*
X0076591Y0039067D02*
G37*
G36*
X0072039Y0039067D02*
X0068488Y0039067D01*
X0068488Y0037976D01*
X0072039Y0037976D01*
X0072039Y0039067D01*
X0072039Y0039067D02*
G37*
G36*
X0082964Y0031315D02*
X0080890Y0031315D01*
X0080890Y0029339D01*
X0082964Y0029339D01*
X0082964Y0031315D01*
X0082964Y0031315D02*
G37*
G36*
X0079740Y0026394D02*
X0078059Y0026394D01*
X0078059Y0024909D01*
X0079740Y0024909D01*
X0079740Y0026394D01*
X0079740Y0026394D02*
G37*
G36*
X0106193Y0022630D02*
X0104118Y0022630D01*
X0104118Y0020654D01*
X0106193Y0020654D01*
X0106193Y0022630D01*
X0106193Y0022630D02*
G37*
G36*
X0114386Y0022630D02*
X0112311Y0022630D01*
X0112311Y0020653D01*
X0114386Y0020653D01*
X0114386Y0022630D01*
X0114386Y0022630D02*
G37*
G36*
X0127453Y0033874D02*
X0125772Y0033874D01*
X0125772Y0032390D01*
X0127453Y0032390D01*
X0127453Y0033874D01*
X0127453Y0033874D02*
G37*
G36*
X0185468Y0060449D02*
X0183492Y0060449D01*
X0183492Y0058374D01*
X0185468Y0058374D01*
X0185468Y0060449D01*
X0185468Y0060449D02*
G37*
G36*
X0091158Y0022630D02*
X0089083Y0022630D01*
X0089083Y0020654D01*
X0091158Y0020654D01*
X0091158Y0022630D01*
X0091158Y0022630D02*
G37*
G36*
X0168004Y0030012D02*
X0164816Y0030012D01*
X0164840Y0029891D01*
X0165192Y0029365D01*
X0165718Y0029013D01*
X0166339Y0028890D01*
X0168004Y0028890D01*
X0168004Y0030012D01*
X0168004Y0030012D02*
G37*
G36*
X0047925Y0021547D02*
X0046244Y0021547D01*
X0046244Y0020063D01*
X0047925Y0020063D01*
X0047925Y0021547D01*
X0047925Y0021547D02*
G37*
G36*
X0036630Y0019579D02*
X0035146Y0019579D01*
X0035146Y0017898D01*
X0036630Y0017898D01*
X0036630Y0019579D01*
X0036630Y0019579D02*
G37*
G36*
X0045094Y0019480D02*
X0043020Y0019480D01*
X0043020Y0017504D01*
X0045094Y0017504D01*
X0045094Y0019480D01*
X0045094Y0019480D02*
G37*
G36*
X0042020Y0019480D02*
X0039945Y0019480D01*
X0039945Y0017504D01*
X0042020Y0017504D01*
X0042020Y0019480D01*
X0042020Y0019480D02*
G37*
%LPD*%
D11*
X0258034Y0098191D02*
X0258080Y0098191D01*
X0257283Y0097441D02*
X0258034Y0098191D01*
X0259495Y0099606D02*
X0259921Y0099606D01*
X0258080Y0098191D02*
X0259495Y0099606D01*
X0128290Y0013976D02*
X0141552Y0013976D01*
X0128251Y0013937D02*
X0128290Y0013976D01*
X0124717Y0013937D02*
X0128251Y0013937D01*
X0124127Y0014528D02*
X0124717Y0013937D01*
X0123701Y0014528D02*
X0124127Y0014528D01*
X0141552Y0013976D02*
X0141841Y0013687D01*
X0148097Y0013687D01*
X0150551Y0016142D01*
X0125591Y0022835D02*
X0130315Y0018110D01*
X0144291Y0018110D01*
X0146653Y0020472D01*
X0145669Y0016732D02*
X0148228Y0019291D01*
X0124409Y0020469D02*
X0128146Y0016732D01*
X0126445Y0015354D02*
X0146850Y0015354D01*
X0149213Y0017717D01*
X0127953Y0027953D02*
X0136417Y0019488D01*
X0124426Y0017373D02*
X0126445Y0015354D01*
X0136417Y0019488D02*
X0143110Y0019488D01*
X0128146Y0016732D02*
X0145669Y0016732D01*
X0143110Y0019488D02*
X0144610Y0020988D01*
X0124426Y0017373D02*
X0124426Y0017390D01*
X0124409Y0020469D02*
X0124409Y0020472D01*
X0257283Y0095472D02*
X0257283Y0097441D01*
X0256496Y0094685D02*
X0257283Y0095472D01*
X0249535Y0110956D02*
X0249996Y0111417D01*
X0252362Y0111417D01*
X0249535Y0095008D02*
X0249535Y0110956D01*
X0244291Y0089764D02*
X0249535Y0095008D01*
X0256299Y0107874D02*
X0256299Y0107874D01*
X0256299Y0107874D02*
X0256299Y0111417D01*
X0247638Y0113740D02*
X0250157Y0116260D01*
X0247638Y0095059D02*
X0247638Y0113740D01*
X0250157Y0116260D02*
X0273611Y0116260D01*
X0249016Y0117638D02*
X0274182Y0117638D01*
X0246260Y0095669D02*
X0246260Y0114882D01*
X0249016Y0117638D01*
X0274182Y0117638D02*
X0279507Y0112312D01*
X0273611Y0116260D02*
X0278129Y0111741D01*
X0279507Y0095452D02*
X0279507Y0112312D01*
X0278129Y0096023D02*
X0278129Y0111741D01*
X0272264Y0090158D02*
X0278129Y0096023D01*
X0272835Y0088779D02*
X0279507Y0095452D01*
X0155315Y0028937D02*
X0156693Y0028937D01*
X0154527Y0028150D02*
X0155315Y0028937D01*
X0154527Y0024409D02*
X0154527Y0028150D01*
X0151575Y0062795D02*
X0153150Y0064370D01*
X0147244Y0068701D02*
X0149803Y0068701D01*
X0143701Y0065158D02*
X0147244Y0068701D01*
X0141732Y0065158D02*
X0143701Y0065158D01*
X0140157Y0066732D02*
X0141732Y0065158D01*
X0152559Y0070866D02*
X0158661Y0076968D01*
X0139370Y0070866D02*
X0152559Y0070866D01*
X0134843Y0075394D02*
X0139370Y0070866D01*
X0049213Y0065748D02*
X0053543Y0061417D01*
X0058661Y0061417D01*
X0031496Y0086220D02*
X0031496Y0086221D01*
X0031496Y0085433D02*
X0031496Y0086220D01*
X0027165Y0081102D02*
X0031496Y0085433D01*
X0026377Y0081102D02*
X0027165Y0081102D01*
X0040551Y0065748D02*
X0049213Y0065748D01*
X0035433Y0070866D02*
X0040551Y0065748D01*
X0035433Y0070866D02*
X0035433Y0086221D01*
X0033465Y0098819D02*
X0033465Y0098819D01*
X0033465Y0098819D02*
X0033465Y0117913D01*
X0023228Y0098819D02*
X0033465Y0098819D01*
X0023425Y0119882D02*
X0035236Y0119882D01*
X0018504Y0114961D02*
X0023425Y0119882D01*
X0018504Y0104134D02*
X0018504Y0114961D01*
X0037008Y0117913D02*
X0037008Y0118110D01*
X0035236Y0119882D02*
X0037008Y0118110D01*
X0033465Y0121850D02*
X0037008Y0121850D01*
X0037008Y0126575D02*
X0037008Y0126575D01*
X0037008Y0121850D02*
X0037008Y0126575D01*
X0033268Y0126575D02*
X0033465Y0126378D01*
X0150551Y0016142D02*
X0165762Y0016142D01*
X0148228Y0019291D02*
X0154724Y0019291D01*
X0146653Y0020472D02*
X0146653Y0024409D01*
X0144610Y0020988D02*
X0144610Y0024334D01*
X0149213Y0017717D02*
X0155905Y0017717D01*
X0121260Y0020472D02*
X0123622Y0022835D01*
X0121260Y0012233D02*
X0121260Y0020472D01*
X0119921Y0010894D02*
X0121260Y0012233D01*
X0119882Y0017205D02*
X0119882Y0037795D01*
X0113435Y0010758D02*
X0119882Y0017205D01*
X0118504Y0018110D02*
X0118504Y0038386D01*
X0114567Y0014173D02*
X0118504Y0018110D01*
X0117126Y0018701D02*
X0117126Y0039038D01*
X0114173Y0015748D02*
X0117126Y0018701D01*
X0119882Y0037795D02*
X0128271Y0046185D01*
X0118504Y0038386D02*
X0130240Y0050121D01*
X0117126Y0039038D02*
X0132025Y0053937D01*
X0137267Y0053937D02*
X0138386Y0052818D01*
X0138386Y0048865D02*
X0138386Y0052818D01*
X0137674Y0048153D02*
X0138386Y0048865D01*
X0132025Y0053937D02*
X0137267Y0053937D01*
X0182874Y0060827D02*
X0182992Y0060709D01*
X0182992Y0057874D02*
X0182992Y0060709D01*
X0177987Y0134286D02*
X0184207Y0134286D01*
X0175197Y0131496D02*
X0177987Y0134286D01*
X0175197Y0115748D02*
X0175197Y0131496D01*
X0177362Y0130512D02*
X0178917Y0130512D01*
X0179419Y0131014D01*
X0173819Y0115157D02*
X0173819Y0132283D01*
X0169921Y0136181D02*
X0173819Y0132283D01*
X0169921Y0136181D02*
X0169921Y0140000D01*
X0172441Y0114567D02*
X0172441Y0131496D01*
X0167874Y0136063D02*
X0172441Y0131496D01*
X0153858Y0136063D02*
X0167874Y0136063D01*
X0171063Y0113976D02*
X0171063Y0130905D01*
X0167283Y0134685D02*
X0171063Y0130905D01*
X0145236Y0134685D02*
X0167283Y0134685D01*
X0169685Y0113386D02*
X0169685Y0130275D01*
X0166653Y0133307D02*
X0169685Y0130275D01*
X0136614Y0133307D02*
X0166653Y0133307D01*
X0168307Y0112795D02*
X0168307Y0129705D01*
X0166083Y0131929D02*
X0168307Y0129705D01*
X0127992Y0131929D02*
X0166083Y0131929D01*
X0166929Y0112205D02*
X0166929Y0129134D01*
X0165512Y0130551D02*
X0166929Y0129134D01*
X0119370Y0130551D02*
X0165512Y0130551D01*
X0164567Y0112618D02*
X0165748Y0111437D01*
X0166929Y0112205D02*
X0173425Y0105709D01*
X0168307Y0112795D02*
X0174803Y0106299D01*
X0169685Y0113386D02*
X0176181Y0106890D01*
X0172441Y0114567D02*
X0178937Y0108071D01*
X0173819Y0115157D02*
X0180315Y0108661D01*
X0175197Y0115748D02*
X0181693Y0109252D01*
X0161811Y0113366D02*
X0161811Y0125984D01*
X0161811Y0113366D02*
X0170669Y0104508D01*
X0159646Y0113583D02*
X0159646Y0127756D01*
X0159646Y0113583D02*
X0169291Y0103937D01*
X0155118Y0116162D02*
X0155118Y0124409D01*
X0155118Y0116162D02*
X0167913Y0103366D01*
X0152756Y0116535D02*
X0166535Y0102756D01*
X0150394Y0116929D02*
X0165157Y0102165D01*
X0147638Y0117717D02*
X0163779Y0101575D01*
X0144488Y0042913D02*
X0145079Y0043504D01*
X0140462Y0042913D02*
X0144488Y0042913D01*
X0137902Y0040354D02*
X0140462Y0042913D01*
X0075195Y0122597D02*
X0077518Y0122597D01*
X0065748Y0097047D02*
X0065748Y0110624D01*
X0065748Y0097047D02*
X0067964Y0094831D01*
X0068504Y0096653D02*
X0072539Y0096653D01*
X0067323Y0097835D02*
X0068504Y0096653D01*
X0067323Y0097835D02*
X0067323Y0110250D01*
X0067964Y0094831D02*
X0072393Y0094831D01*
X0067520Y0092716D02*
X0072539Y0092716D01*
X0059055Y0101181D02*
X0067520Y0092716D01*
X0078543Y0128740D02*
X0078543Y0129134D01*
X0076181Y0131496D02*
X0078543Y0129134D01*
X0064862Y0128248D02*
X0064961Y0128150D01*
X0064862Y0128248D02*
X0064862Y0131398D01*
X0147638Y0091929D02*
X0148228Y0091339D01*
X0151181Y0091339D01*
X0144685Y0089764D02*
X0150984Y0089764D01*
X0143504Y0090945D02*
X0144685Y0089764D01*
X0145276Y0087402D02*
X0146063Y0088189D01*
X0149606Y0094488D02*
X0150394Y0093701D01*
X0151772Y0093701D01*
X0154921Y0091339D02*
X0157480Y0091339D01*
X0154331Y0090748D02*
X0154921Y0091339D01*
X0139370Y0085433D02*
X0141339Y0083465D01*
X0139370Y0085433D02*
X0141339Y0087402D01*
X0163976Y0047638D02*
X0163976Y0047835D01*
X0163189Y0046850D02*
X0163976Y0047638D01*
X0140678Y0045079D02*
X0141732Y0045079D01*
X0137922Y0042323D02*
X0140678Y0045079D01*
X0134646Y0042323D02*
X0137922Y0042323D01*
X0134646Y0040354D02*
X0137902Y0040354D01*
X0144685Y0047244D02*
X0148622Y0043307D01*
X0140551Y0047244D02*
X0144685Y0047244D01*
X0137598Y0044291D02*
X0140551Y0047244D01*
X0140638Y0041142D02*
X0146653Y0041142D01*
X0138386Y0035236D02*
X0138386Y0038889D01*
X0140638Y0041142D01*
X0146653Y0041142D02*
X0148819Y0038976D01*
X0151181Y0030512D02*
X0152559Y0029134D01*
X0146850Y0028150D02*
X0148031Y0028150D01*
X0143701Y0031299D02*
X0146850Y0028150D01*
X0142717Y0031299D02*
X0143701Y0031299D01*
X0145866Y0032283D02*
X0150591Y0027559D01*
X0145866Y0032283D02*
X0145866Y0032677D01*
X0140551Y0032981D02*
X0144578Y0037008D01*
X0140551Y0029921D02*
X0140551Y0032981D01*
X0140551Y0029921D02*
X0142717Y0027756D01*
X0143504Y0037905D02*
X0144772Y0039173D01*
X0139173Y0033552D02*
X0143504Y0037883D01*
X0143504Y0037905D01*
X0139173Y0029351D02*
X0139173Y0033552D01*
X0139173Y0029351D02*
X0140748Y0027776D01*
X0152559Y0024409D02*
X0152559Y0029134D01*
X0144578Y0037008D02*
X0145669Y0037008D01*
X0148622Y0024409D02*
X0148622Y0027559D01*
X0148031Y0028150D02*
X0148622Y0027559D01*
X0162795Y0037598D02*
X0163189Y0037205D01*
X0148228Y0037598D02*
X0162795Y0037598D01*
X0146653Y0039173D02*
X0148228Y0037598D01*
X0144772Y0039173D02*
X0146653Y0039173D01*
X0140748Y0024409D02*
X0140748Y0027776D01*
X0140748Y0024409D02*
X0140748Y0024409D01*
X0142717Y0024409D02*
X0142717Y0027756D01*
X0137598Y0034449D02*
X0138386Y0035236D01*
X0148622Y0043307D02*
X0155118Y0043307D01*
X0148819Y0038976D02*
X0159843Y0038976D01*
X0160827Y0039961D01*
X0158661Y0046850D02*
X0163189Y0046850D01*
X0155118Y0043307D02*
X0158661Y0046850D01*
X0164764Y0039173D02*
X0164764Y0043898D01*
X0163189Y0045472D02*
X0164764Y0043898D01*
X0159252Y0045472D02*
X0163189Y0045472D01*
X0154921Y0041142D02*
X0159252Y0045472D01*
X0174131Y0044367D02*
X0174253Y0044488D01*
X0173602Y0046850D02*
X0173996Y0047244D01*
X0173553Y0046850D02*
X0173602Y0046850D01*
X0172962Y0046260D02*
X0173553Y0046850D01*
X0168504Y0046260D02*
X0172962Y0046260D01*
X0173031Y0048228D02*
X0174823Y0050020D01*
X0168504Y0048228D02*
X0173031Y0048228D01*
X0134646Y0044291D02*
X0137598Y0044291D01*
X0134646Y0034449D02*
X0137598Y0034449D01*
X0149803Y0041142D02*
X0154921Y0041142D01*
X0094095Y0014173D02*
X0114567Y0014173D01*
X0085669Y0015748D02*
X0114173Y0015748D01*
X0160433Y0027756D02*
X0161417Y0028740D01*
X0160433Y0024409D02*
X0160433Y0027756D01*
X0150591Y0024409D02*
X0150591Y0027559D01*
X0164764Y0039173D02*
X0165551Y0038386D01*
X0168504Y0038386D01*
X0153740Y0053937D02*
X0155512Y0053937D01*
X0153740Y0051772D02*
X0156409Y0051772D01*
X0150591Y0054921D02*
X0153740Y0051772D01*
X0153169Y0050394D02*
X0156980Y0050394D01*
X0149429Y0054134D02*
X0153169Y0050394D01*
X0152599Y0049016D02*
X0160433Y0049016D01*
X0148858Y0052756D02*
X0152599Y0049016D01*
X0146870Y0052756D02*
X0148858Y0052756D01*
X0156409Y0051772D02*
X0159165Y0054527D01*
X0160433Y0049016D02*
X0163779Y0052362D01*
X0144685Y0054941D02*
X0146870Y0052756D01*
X0144685Y0054941D02*
X0144685Y0058268D01*
X0158948Y0052362D02*
X0160630Y0052362D01*
X0156980Y0050394D02*
X0158948Y0052362D01*
X0147441Y0054134D02*
X0149429Y0054134D01*
X0146653Y0054921D02*
X0147441Y0054134D01*
X0146653Y0054921D02*
X0146653Y0058268D01*
X0169685Y0056890D02*
X0170669Y0057874D01*
X0159165Y0054527D02*
X0163583Y0054527D01*
X0150591Y0054921D02*
X0150591Y0058268D01*
X0152634Y0055043D02*
X0153740Y0053937D01*
X0173996Y0047244D02*
X0176988Y0047244D01*
X0174823Y0050020D02*
X0174823Y0056808D01*
X0172244Y0050197D02*
X0173425Y0051378D01*
X0168504Y0050197D02*
X0172244Y0050197D01*
X0170669Y0052165D02*
X0172047Y0053543D01*
X0168504Y0052165D02*
X0170669Y0052165D01*
X0168504Y0042323D02*
X0176398Y0042323D01*
X0122047Y0026772D02*
X0122115Y0026772D01*
X0209626Y0134468D02*
X0214331Y0139173D01*
X0190321Y0127002D02*
X0190517Y0127002D01*
X0115453Y0098524D02*
X0115453Y0104132D01*
X0115453Y0098524D02*
X0116142Y0097835D01*
X0116142Y0094291D02*
X0116142Y0097835D01*
X0116142Y0094291D02*
X0118110Y0092323D01*
X0117027Y0101115D02*
X0117027Y0103382D01*
X0085925Y0056791D02*
X0086221Y0056496D01*
X0085827Y0061614D02*
X0085925Y0061516D01*
X0072539Y0051378D02*
X0081693Y0051378D01*
X0070177Y0131398D02*
X0070276Y0131496D01*
X0070471Y0131496D01*
X0071258Y0130709D01*
X0056573Y0018504D02*
X0058936Y0016142D01*
X0054802Y0018504D02*
X0056573Y0018504D01*
X0077756Y0020472D02*
X0077953Y0020472D01*
X0082284Y0047835D02*
X0082284Y0048031D01*
X0080905Y0049409D02*
X0082284Y0048031D01*
X0072539Y0049409D02*
X0080905Y0049409D01*
X0082284Y0051968D02*
X0082284Y0052165D01*
X0081693Y0051378D02*
X0082284Y0051968D01*
X0082284Y0043504D02*
X0082284Y0043701D01*
X0072539Y0047441D02*
X0078543Y0047441D01*
X0082284Y0043701D01*
X0094488Y0043504D02*
X0094488Y0043504D01*
X0094488Y0047835D02*
X0094488Y0052165D01*
X0081679Y0040551D02*
X0090551Y0040551D01*
X0078832Y0043398D02*
X0081679Y0040551D01*
X0090551Y0040551D02*
X0091732Y0039370D01*
X0076772Y0045472D02*
X0078832Y0043413D01*
X0072539Y0045472D02*
X0076772Y0045472D01*
X0078832Y0043398D02*
X0078832Y0043413D01*
X0090551Y0043307D02*
X0092913Y0040945D01*
X0086221Y0043504D02*
X0090551Y0043504D01*
X0090551Y0043307D02*
X0090551Y0043504D01*
X0086221Y0047835D02*
X0090551Y0047835D01*
X0090551Y0048031D01*
X0086221Y0052165D02*
X0090551Y0052165D01*
X0072539Y0053347D02*
X0078248Y0053347D01*
X0181659Y0122604D02*
X0182120Y0123065D01*
X0233360Y0144291D02*
X0237205Y0140447D01*
X0118602Y0102559D02*
X0118602Y0103543D01*
X0077362Y0020472D02*
X0077559Y0020472D01*
X0073032Y0016142D02*
X0077362Y0020472D01*
X0058936Y0016142D02*
X0073032Y0016142D01*
X0042815Y0077953D02*
X0047244Y0077953D01*
X0042815Y0079921D02*
X0047224Y0079921D01*
X0072736Y0069291D02*
X0075945Y0069291D01*
X0072539Y0069095D02*
X0072736Y0069291D01*
X0047224Y0079921D02*
X0059626Y0067520D01*
X0076122Y0067520D01*
X0059055Y0066142D02*
X0076692Y0066142D01*
X0047244Y0077953D02*
X0059055Y0066142D01*
X0269291Y0004035D02*
X0270079Y0004823D01*
X0264075Y0004035D02*
X0269291Y0004035D01*
X0270079Y0004823D02*
X0270079Y0004921D01*
X0118110Y0092126D02*
X0118110Y0092323D01*
X0118701Y0092913D01*
X0123524Y0092913D02*
X0124705Y0094095D01*
X0124803Y0094095D02*
X0125886Y0095177D01*
X0125886Y0095276D01*
X0131201Y0100000D02*
X0132283Y0101083D01*
X0130512Y0100000D02*
X0131201Y0100000D01*
X0125886Y0095276D02*
X0125886Y0095374D01*
X0089921Y0010000D02*
X0094095Y0014173D01*
X0079921Y0010000D02*
X0085669Y0015748D01*
X0134570Y0030437D02*
X0134646Y0030512D01*
X0160508Y0018625D02*
X0160630Y0018504D01*
X0160433Y0024409D02*
X0160508Y0024334D01*
X0160508Y0018625D02*
X0160508Y0024334D01*
X0183529Y0126333D02*
X0183628Y0126234D01*
X0192106Y0125034D02*
X0192683Y0125610D01*
X0190647Y0123195D02*
X0192880Y0123195D01*
X0194095Y0124409D01*
X0233543Y0139173D02*
X0233937Y0139173D01*
X0162402Y0058873D02*
X0162583Y0059055D01*
X0162402Y0058268D02*
X0162402Y0058873D01*
X0162583Y0059055D02*
X0164961Y0059055D01*
X0194291Y0126969D02*
X0194291Y0127342D01*
X0194095Y0124409D02*
X0194095Y0126772D01*
X0194291Y0126969D01*
X0192683Y0125610D02*
X0192683Y0127722D01*
X0223937Y0139173D02*
X0224331Y0139173D01*
X0222953Y0137953D02*
X0222953Y0138189D01*
X0223937Y0139173D01*
X0154527Y0058268D02*
X0154603Y0058343D01*
X0155118Y0100000D02*
X0155177Y0099941D01*
X0264961Y0145079D02*
X0270079Y0145079D01*
X0264075Y0145965D02*
X0264961Y0145079D01*
X0072539Y0073032D02*
X0072736Y0073228D01*
X0134570Y0050121D02*
X0134646Y0050197D01*
X0134646Y0048228D02*
X0134721Y0048153D01*
X0137674Y0048153D01*
X0180925Y0047244D02*
X0182677Y0047244D01*
X0180925Y0047244D02*
X0180925Y0047244D01*
X0176988Y0042913D02*
X0176988Y0043110D01*
X0177579Y0043701D01*
X0177579Y0043701D01*
X0178957Y0045079D01*
X0098528Y0040945D02*
X0099606Y0042023D01*
X0092913Y0040945D02*
X0098528Y0040945D01*
X0091732Y0039370D02*
X0098902Y0039370D01*
X0190714Y0127002D02*
X0191305Y0127593D01*
X0227579Y0099114D02*
X0228465Y0100000D01*
X0226496Y0099114D02*
X0227579Y0099114D01*
X0214331Y0139173D02*
X0214724Y0139173D01*
X0229528Y0131496D02*
X0234331Y0126693D01*
X0094488Y0047835D02*
X0094488Y0047835D01*
X0094488Y0043504D02*
X0094488Y0047835D01*
X0094685Y0047638D01*
X0269291Y0076772D02*
X0272835Y0076772D01*
X0247736Y0004035D02*
X0264075Y0004035D01*
X0259842Y0046181D02*
X0263386Y0046181D01*
X0152559Y0058268D02*
X0152634Y0058192D01*
X0152634Y0055043D02*
X0152634Y0058192D01*
X0251772Y0090158D02*
X0251772Y0090158D01*
X0252559Y0090945D02*
X0252559Y0094488D01*
X0251772Y0090158D02*
X0252559Y0090945D01*
X0109921Y0140000D02*
X0119370Y0130551D01*
X0134646Y0044291D02*
X0134646Y0044291D01*
X0269291Y0080709D02*
X0269291Y0090158D01*
X0257677Y0090158D02*
X0269291Y0090158D01*
X0215158Y0144291D02*
X0233360Y0144291D01*
X0197854Y0130905D02*
X0213957Y0130905D01*
X0198425Y0129528D02*
X0214527Y0129528D01*
X0213957Y0130905D02*
X0220866Y0137815D01*
X0214527Y0129528D02*
X0222953Y0137953D01*
X0194291Y0127342D02*
X0197854Y0130905D01*
X0213386Y0132283D02*
X0219291Y0138189D01*
X0195669Y0126772D02*
X0198425Y0129528D01*
X0192683Y0127722D02*
X0197244Y0132283D01*
X0213386Y0132283D01*
X0181659Y0124876D02*
X0181659Y0125034D01*
X0190517Y0123065D02*
X0190647Y0123195D01*
X0181659Y0120295D02*
X0181659Y0122604D01*
X0182120Y0123065D02*
X0190517Y0123065D01*
X0185596Y0119896D02*
X0185596Y0120669D01*
X0195669Y0120866D02*
X0195669Y0126772D01*
X0256496Y0094488D02*
X0256496Y0094685D01*
X0183628Y0119896D02*
X0183726Y0119798D01*
X0270079Y0010827D02*
X0270079Y0011024D01*
X0268602Y0012500D02*
X0270079Y0011024D01*
X0264075Y0012500D02*
X0267323Y0012500D01*
X0119921Y0140000D02*
X0127992Y0131929D01*
X0129921Y0140000D02*
X0136614Y0133307D01*
X0139921Y0140000D02*
X0145236Y0134685D01*
X0185596Y0126234D02*
X0185596Y0126378D01*
X0187368Y0126595D02*
X0188929Y0125034D01*
X0192106Y0125034D01*
X0189730Y0127593D02*
X0190321Y0127002D01*
X0183726Y0116142D02*
X0183726Y0119798D01*
X0179419Y0131014D02*
X0179691Y0130742D01*
X0179412Y0130464D02*
X0179691Y0130742D01*
X0182520Y0136063D02*
X0184646Y0138189D01*
X0125197Y0112008D02*
X0125197Y0112205D01*
X0120031Y0109476D02*
X0122665Y0109476D01*
X0125197Y0112008D01*
X0129134Y0116339D02*
X0129134Y0116535D01*
X0127165Y0114370D02*
X0129134Y0116339D01*
X0119736Y0111221D02*
X0121850Y0111221D01*
X0122441Y0111811D01*
X0118602Y0112205D02*
X0118602Y0113189D01*
X0122441Y0111811D02*
X0122441Y0113386D01*
X0123425Y0114370D02*
X0127165Y0114370D01*
X0122441Y0113386D02*
X0123425Y0114370D01*
X0117027Y0112402D02*
X0117027Y0113878D01*
X0124606Y0115748D02*
X0125197Y0116339D01*
X0125197Y0116535D01*
X0117027Y0113878D02*
X0118898Y0115748D01*
X0124606Y0115748D01*
X0129134Y0120866D02*
X0129134Y0120866D01*
X0125913Y0106327D02*
X0126378Y0106791D01*
X0120031Y0106327D02*
X0125913Y0106327D01*
X0129134Y0120669D02*
X0129134Y0120866D01*
X0128543Y0120079D02*
X0128543Y0120079D01*
X0125197Y0116535D02*
X0125197Y0116732D01*
X0128543Y0120079D02*
X0129134Y0120669D01*
X0125197Y0116732D02*
X0128543Y0120079D01*
X0168504Y0038386D02*
X0172040Y0038386D01*
X0100787Y0025591D02*
X0103445Y0025591D01*
X0105512Y0027657D01*
X0100787Y0027165D02*
X0103150Y0027165D01*
X0105512Y0027657D02*
X0105512Y0027756D01*
X0106219Y0028463D01*
X0100000Y0033071D02*
X0100787Y0032283D01*
X0100787Y0028740D02*
X0100787Y0032283D01*
X0103150Y0027165D02*
X0105512Y0029528D01*
X0106004Y0029528D02*
X0106693Y0028839D01*
X0105512Y0029528D02*
X0106004Y0029528D01*
X0110679Y0010758D02*
X0113435Y0010758D01*
X0109921Y0010000D02*
X0110679Y0010758D01*
X0100000Y0033858D02*
X0100000Y0033858D01*
X0098032Y0033858D02*
X0099606Y0033858D01*
X0100000Y0033858D01*
X0097638Y0033858D02*
X0097638Y0033858D01*
X0098032Y0033858D01*
X0097638Y0028740D02*
X0097638Y0028740D01*
X0097638Y0025591D02*
X0097638Y0027165D01*
X0097638Y0028740D01*
X0094488Y0028740D02*
X0096063Y0028740D01*
X0097638Y0028740D01*
X0097638Y0028740D02*
X0099213Y0028740D01*
X0099213Y0025591D02*
X0099213Y0027165D01*
X0096033Y0025560D02*
X0096063Y0025591D01*
X0096033Y0024686D02*
X0096033Y0025560D01*
X0099213Y0025591D02*
X0099243Y0025561D01*
X0097638Y0023228D02*
X0097638Y0025591D01*
X0099243Y0024686D02*
X0099243Y0025561D01*
X0094784Y0020472D02*
X0094784Y0023436D01*
X0096033Y0024686D01*
X0100492Y0020472D02*
X0100492Y0023436D01*
X0099243Y0024686D02*
X0100492Y0023436D01*
X0094488Y0030709D02*
X0094488Y0030709D01*
X0094488Y0028740D02*
X0094488Y0030709D01*
X0158465Y0020276D02*
X0158465Y0024409D01*
X0156421Y0024334D02*
X0156496Y0024409D01*
X0156421Y0020988D02*
X0156421Y0024334D01*
X0155905Y0017717D02*
X0158465Y0020276D01*
X0154724Y0019291D02*
X0156421Y0020988D01*
X0144610Y0024334D02*
X0144685Y0024409D01*
X0103937Y0118405D02*
X0105020Y0117323D01*
X0113878Y0111614D02*
X0113878Y0118504D01*
X0112303Y0111614D02*
X0112303Y0114469D01*
X0105020Y0117323D02*
X0109449Y0117323D01*
X0112303Y0114469D01*
X0072393Y0094831D02*
X0072539Y0094685D01*
X0072342Y0096850D02*
X0072539Y0096653D01*
X0106332Y0111811D02*
X0106922Y0111221D01*
X0105905Y0111811D02*
X0106332Y0111811D01*
X0106922Y0111221D02*
X0109496Y0111221D01*
X0113878Y0096555D02*
X0113878Y0099803D01*
X0113878Y0104132D01*
X0112100Y0107376D02*
X0112402Y0107677D01*
X0110726Y0104624D02*
X0111417Y0105315D01*
X0109496Y0104528D02*
X0110726Y0104528D01*
X0111417Y0105315D02*
X0111417Y0106496D01*
X0112008Y0107087D01*
X0112008Y0107283D01*
X0112303Y0106988D02*
X0112402Y0107087D01*
X0112303Y0104132D02*
X0112303Y0106988D01*
X0134646Y0042323D02*
X0134721Y0042248D01*
X0069671Y0112598D02*
X0085827Y0112598D01*
X0067323Y0110250D02*
X0069671Y0112598D01*
X0072539Y0075000D02*
X0072736Y0075197D01*
X0072736Y0071260D02*
X0075964Y0071260D01*
X0072539Y0071063D02*
X0072736Y0071260D01*
X0072539Y0076968D02*
X0072736Y0077165D01*
X0072736Y0075197D02*
X0075984Y0075197D01*
X0072736Y0077165D02*
X0075984Y0077165D01*
X0075984Y0075197D02*
X0079921Y0079134D01*
X0072539Y0078937D02*
X0072736Y0079134D01*
X0075984Y0079134D01*
X0079921Y0079134D02*
X0079921Y0079154D01*
X0105905Y0107874D02*
X0105933Y0107902D01*
X0109055Y0107902D01*
X0106102Y0102953D02*
X0106404Y0103254D01*
X0071258Y0122400D02*
X0071849Y0121809D01*
X0071258Y0122400D02*
X0071258Y0122597D01*
X0072539Y0059252D02*
X0072736Y0059055D01*
X0072520Y0076988D02*
X0072539Y0076968D01*
X0032251Y0035433D02*
X0032677Y0035433D01*
X0031661Y0036024D02*
X0032251Y0035433D01*
X0029222Y0036024D02*
X0031661Y0036024D01*
X0077559Y0024409D02*
X0077951Y0024802D01*
X0083366Y0028839D02*
X0083465Y0028839D01*
X0064054Y0025984D02*
X0070965Y0025984D01*
X0064447Y0018898D02*
X0070177Y0018898D01*
X0071260Y0019980D01*
X0068307Y0057284D02*
X0072539Y0057284D01*
X0071358Y0025591D02*
X0074016Y0025591D01*
X0070965Y0025984D02*
X0071260Y0025689D01*
X0071358Y0025591D01*
X0119921Y0010000D02*
X0119921Y0010894D01*
X0090945Y0090059D02*
X0094095Y0090059D01*
X0096850Y0090059D01*
X0099803Y0090059D02*
X0102756Y0090059D01*
X0097043Y0089867D02*
X0099611Y0089867D01*
X0096850Y0090059D02*
X0097043Y0089867D01*
X0094685Y0047638D02*
X0097244Y0047638D01*
X0098902Y0039370D02*
X0101181Y0041649D01*
X0134570Y0046185D02*
X0134646Y0046260D01*
X0072539Y0090748D02*
X0072638Y0090650D01*
X0077658Y0090650D01*
X0078347Y0097053D02*
X0078347Y0097244D01*
X0078347Y0097053D02*
X0079921Y0095478D01*
X0079921Y0083071D02*
X0079921Y0095478D01*
X0075984Y0077165D02*
X0081299Y0082480D01*
X0082677Y0081910D02*
X0082677Y0095472D01*
X0075984Y0079134D02*
X0079921Y0083071D01*
X0079921Y0079154D02*
X0082677Y0081910D01*
X0075964Y0071260D02*
X0083838Y0079134D01*
X0076692Y0066142D02*
X0085551Y0075000D01*
X0076122Y0067520D02*
X0084980Y0076378D01*
X0075945Y0069291D02*
X0084409Y0077756D01*
X0082677Y0057677D02*
X0084252Y0059252D01*
X0082480Y0057677D02*
X0082677Y0057677D01*
X0084252Y0059252D02*
X0084252Y0061614D01*
X0087402Y0061614D02*
X0087500Y0061516D01*
X0087500Y0060661D02*
X0087500Y0061516D01*
X0090551Y0052165D02*
X0091142Y0052756D01*
X0090551Y0048031D02*
X0092520Y0050000D01*
X0101181Y0041649D02*
X0101181Y0054528D01*
X0099606Y0042023D02*
X0099606Y0054921D01*
X0089859Y0056985D02*
X0092913Y0060039D01*
X0088284Y0056985D02*
X0089859Y0056985D01*
X0086811Y0057087D02*
X0088189Y0057087D01*
X0087500Y0060661D02*
X0088017Y0060144D01*
X0092520Y0052362D02*
X0092520Y0052362D01*
X0091142Y0052756D02*
X0091142Y0054370D01*
X0092520Y0050000D02*
X0092520Y0052362D01*
X0092520Y0052362D02*
X0092520Y0053799D01*
X0093838Y0055118D01*
X0097835Y0055118D01*
X0089069Y0060144D02*
X0089370Y0059842D01*
X0088017Y0060144D02*
X0089069Y0060144D01*
X0089153Y0054331D02*
X0092894Y0058071D01*
X0091142Y0054370D02*
X0093464Y0056693D01*
X0097441Y0056693D01*
X0114370Y0040551D02*
X0114764Y0040551D01*
X0106693Y0028839D02*
X0106693Y0033071D01*
X0105905Y0033858D02*
X0106693Y0033071D01*
X0103543Y0033858D02*
X0105905Y0033858D01*
X0099921Y0140000D02*
X0110984Y0128937D01*
X0165762Y0016142D02*
X0168307Y0018687D01*
X0168504Y0032480D02*
X0168579Y0032405D01*
X0169921Y0016378D02*
X0171260Y0017717D01*
X0169921Y0010000D02*
X0169921Y0016378D01*
X0168307Y0018687D02*
X0168307Y0021457D01*
X0171138Y0032405D02*
X0172818Y0030726D01*
X0168579Y0032405D02*
X0171138Y0032405D01*
X0172818Y0030726D02*
X0173022Y0030726D01*
X0173024Y0039370D02*
X0173228Y0039370D01*
X0172040Y0038386D02*
X0173024Y0039370D01*
X0096063Y0025591D02*
X0096063Y0027165D01*
X0088583Y0028839D02*
X0088602Y0028839D01*
X0089784Y0029528D02*
X0092146Y0027165D01*
X0094508Y0027165D01*
X0089784Y0027657D02*
X0091850Y0025591D01*
X0094508Y0025591D01*
X0064054Y0018504D02*
X0064447Y0018898D01*
X0060381Y0018724D02*
X0063834Y0018724D01*
X0064054Y0018504D01*
X0066237Y0052666D02*
X0066318Y0052585D01*
X0066237Y0055214D02*
X0068307Y0057284D01*
X0066237Y0052666D02*
X0066237Y0055214D01*
X0085925Y0056791D02*
X0085925Y0061516D01*
X0079232Y0054331D02*
X0089153Y0054331D01*
X0078248Y0053347D02*
X0079232Y0054331D01*
X0072539Y0055315D02*
X0076901Y0055315D01*
X0078082Y0056496D02*
X0078150Y0056496D01*
X0076901Y0055315D02*
X0078082Y0056496D01*
X0078969Y0056890D02*
X0081890Y0056890D01*
X0078150Y0056496D02*
X0078576Y0056496D01*
X0078969Y0056890D01*
X0122115Y0026772D02*
X0123296Y0027953D01*
X0142717Y0058268D02*
X0142717Y0062598D01*
X0176398Y0042323D02*
X0176594Y0042520D01*
X0176594Y0042913D01*
X0168504Y0044291D02*
X0168579Y0044367D01*
X0174131Y0044367D01*
X0205906Y0135039D02*
X0215158Y0144291D01*
X0193701Y0135039D02*
X0205906Y0135039D01*
X0180532Y0042913D02*
X0180925Y0042913D01*
X0182677Y0042913D01*
X0245079Y0143855D02*
X0245079Y0144095D01*
X0246949Y0145965D01*
X0264075Y0145965D01*
X0270079Y0004921D02*
X0270079Y0007087D01*
X0163779Y0019291D02*
X0163976Y0019291D01*
X0162402Y0020669D02*
X0162402Y0024409D01*
X0164567Y0018504D02*
X0164567Y0018701D01*
X0163976Y0019291D02*
X0164567Y0018701D01*
X0162402Y0020669D02*
X0163779Y0019291D01*
X0075195Y0122794D02*
X0075786Y0123384D01*
X0075195Y0122597D02*
X0075195Y0122794D01*
X0066962Y0044094D02*
X0067552Y0043504D01*
X0072539Y0043504D01*
X0066535Y0044094D02*
X0066962Y0044094D01*
X0092894Y0058071D02*
X0096850Y0058071D01*
X0092126Y0033858D02*
X0092716Y0033268D01*
X0092716Y0032480D02*
X0094488Y0030709D01*
X0092716Y0032480D02*
X0092716Y0033268D01*
X0087938Y0068307D02*
X0088090Y0068307D01*
X0087402Y0067770D02*
X0087938Y0068307D01*
X0087402Y0067520D02*
X0087402Y0067770D01*
X0191569Y0132908D02*
X0193701Y0135039D01*
X0047835Y0048425D02*
X0048031Y0048622D01*
X0042815Y0048425D02*
X0047835Y0048425D01*
X0089213Y0076378D02*
X0091575Y0074016D01*
X0085551Y0075000D02*
X0088642Y0075000D01*
X0091004Y0072638D01*
X0084980Y0076378D02*
X0089213Y0076378D01*
X0084409Y0077756D02*
X0089784Y0077756D01*
X0092146Y0075394D01*
X0123296Y0027953D02*
X0127953Y0027953D01*
X0128740Y0028543D02*
X0128740Y0028740D01*
X0127953Y0027953D02*
X0128150Y0027953D01*
X0130437Y0030437D02*
X0134570Y0030437D01*
X0128740Y0028740D02*
X0130437Y0030437D01*
X0128150Y0027953D02*
X0128740Y0028543D01*
X0127953Y0031890D02*
X0128543Y0032480D01*
X0134646Y0032480D01*
X0059646Y0019459D02*
X0059646Y0022244D01*
X0059646Y0022244D02*
X0059646Y0022244D01*
X0054802Y0022244D02*
X0059646Y0022244D01*
X0059646Y0019459D02*
X0060381Y0018724D01*
X0247736Y0012500D02*
X0264075Y0012500D01*
X0029026Y0036220D02*
X0029222Y0036024D01*
X0029026Y0036220D02*
X0029026Y0037402D01*
X0029026Y0061417D02*
X0029026Y0062598D01*
X0033019Y0062153D02*
X0033071Y0062205D01*
X0030896Y0061614D02*
X0030896Y0061692D01*
X0030699Y0061417D02*
X0030896Y0061614D01*
X0029026Y0061417D02*
X0030699Y0061417D01*
X0081890Y0056890D02*
X0081890Y0057087D01*
X0082480Y0057677D01*
X0110726Y0104528D02*
X0110726Y0104624D01*
X0064862Y0122933D02*
X0070922Y0122933D01*
X0071258Y0122597D01*
X0071258Y0130709D01*
X0048524Y0122933D02*
X0064862Y0122933D01*
X0073228Y0128740D02*
X0073228Y0134646D01*
X0073228Y0128740D02*
X0074409Y0127559D01*
X0074606Y0127559D01*
X0075197Y0126772D02*
X0075197Y0126969D01*
X0074606Y0127559D02*
X0075197Y0126969D01*
X0073228Y0134646D02*
X0073425Y0134843D01*
X0018504Y0098425D02*
X0018504Y0104134D01*
X0018504Y0098425D02*
X0020079Y0096850D01*
X0181693Y0092082D02*
X0182628Y0093018D01*
X0145078Y0108071D02*
X0145078Y0113682D01*
X0145078Y0108071D02*
X0146850Y0106299D01*
X0176929Y0136063D02*
X0182520Y0136063D01*
X0187795Y0118523D02*
X0188564Y0119291D01*
X0187795Y0114961D02*
X0187795Y0118523D01*
X0186024Y0113189D02*
X0187795Y0114961D01*
X0188569Y0094882D02*
X0191746Y0094882D01*
X0186614Y0092913D02*
X0186614Y0092927D01*
X0188569Y0094882D01*
X0182928Y0113878D02*
X0182933Y0113878D01*
X0183622Y0113189D01*
X0186024Y0113189D01*
X0182357Y0112500D02*
X0182362Y0112500D01*
X0181786Y0111122D02*
X0181791Y0111122D01*
X0083838Y0079134D02*
X0090354Y0079134D01*
X0092716Y0076772D01*
X0072539Y0073032D02*
X0075787Y0073032D01*
X0083268Y0080512D01*
X0090925Y0080512D01*
X0093287Y0078150D01*
X0154120Y0102165D02*
X0160841Y0102165D01*
X0209449Y0122047D02*
X0209449Y0127165D01*
X0182362Y0112500D02*
X0185433Y0109429D01*
X0185596Y0126378D02*
X0185793Y0126575D01*
X0079921Y0138583D02*
X0079921Y0140000D01*
X0079921Y0138583D02*
X0086615Y0131889D01*
X0064173Y0130709D02*
X0064862Y0131398D01*
X0176772Y0136221D02*
X0176929Y0136063D01*
X0181659Y0132331D02*
X0182236Y0132908D01*
X0191569Y0132908D01*
X0184207Y0134286D02*
X0189921Y0140000D01*
X0179921Y0123138D02*
X0181659Y0124876D01*
X0181659Y0127362D02*
X0181659Y0129154D01*
X0181659Y0129154D02*
X0181659Y0129154D01*
X0181659Y0129154D02*
X0181659Y0132331D01*
X0164567Y0112618D02*
X0164567Y0127953D01*
X0152756Y0116535D02*
X0152756Y0126772D01*
X0149921Y0140000D02*
X0153858Y0136063D01*
X0110984Y0128937D02*
X0158465Y0128937D01*
X0159646Y0127756D01*
X0165748Y0111417D02*
X0165748Y0111437D01*
X0155118Y0099606D02*
X0155512Y0100000D01*
X0229331Y0087598D02*
X0229528Y0087402D01*
X0182677Y0096457D02*
X0182677Y0096721D01*
X0177559Y0115349D02*
X0177559Y0120735D01*
X0177559Y0115349D02*
X0181786Y0111122D01*
X0177559Y0120735D02*
X0177690Y0120866D01*
X0179921Y0114936D02*
X0182357Y0112500D01*
X0179921Y0114936D02*
X0179921Y0123138D01*
X0181659Y0115146D02*
X0182928Y0113878D01*
X0181659Y0115146D02*
X0181659Y0120098D01*
X0183726Y0116142D02*
X0183825Y0116043D01*
X0182628Y0093018D02*
X0182628Y0093444D01*
X0156299Y0097047D02*
X0157087Y0097047D01*
X0155118Y0100000D02*
X0155610Y0100492D01*
X0155512Y0100000D02*
X0157087Y0098425D01*
X0157087Y0097047D02*
X0157087Y0098425D01*
X0154921Y0078937D02*
X0154921Y0084252D01*
X0157283Y0086614D02*
X0157933Y0086614D01*
X0154921Y0095669D02*
X0156299Y0097047D01*
X0154921Y0093701D02*
X0154921Y0095669D01*
X0153347Y0101392D02*
X0154120Y0102165D01*
X0153347Y0093701D02*
X0153347Y0101392D01*
X0150394Y0116929D02*
X0150394Y0124409D01*
X0147638Y0117717D02*
X0147638Y0126378D01*
X0148031Y0126772D01*
X0150197Y0086614D02*
X0151181Y0086614D01*
X0145093Y0092913D02*
X0146850Y0094671D01*
X0146850Y0106299D01*
X0157933Y0086614D02*
X0158071Y0086476D01*
X0158071Y0078543D02*
X0158071Y0086476D01*
X0160433Y0058268D02*
X0160433Y0061825D01*
X0160813Y0062205D01*
X0165354Y0062205D01*
X0167717Y0064567D02*
X0167717Y0068110D01*
X0174803Y0056828D02*
X0174823Y0056808D01*
X0165354Y0062205D02*
X0167717Y0064567D01*
X0167520Y0070276D02*
X0172047Y0074803D01*
X0166949Y0071653D02*
X0170669Y0075374D01*
X0166142Y0073032D02*
X0169291Y0076181D01*
X0160343Y0071653D02*
X0166949Y0071653D01*
X0159773Y0073032D02*
X0166142Y0073032D01*
X0162008Y0085039D02*
X0163779Y0086811D01*
X0158071Y0078543D02*
X0158661Y0077953D01*
X0159202Y0074409D02*
X0165571Y0074409D01*
X0167913Y0076752D01*
X0160841Y0102165D02*
X0162205Y0100801D01*
X0161614Y0090748D02*
X0162205Y0091339D01*
X0165748Y0111417D02*
X0172047Y0105118D01*
X0181791Y0111122D02*
X0183071Y0109843D01*
X0183071Y0100394D02*
X0183071Y0109843D01*
X0183071Y0100394D02*
X0186614Y0096850D01*
X0181693Y0097705D02*
X0182677Y0096721D01*
X0181693Y0097705D02*
X0181693Y0109252D01*
X0172047Y0074803D02*
X0172047Y0105118D01*
X0170669Y0075374D02*
X0170669Y0104508D01*
X0169291Y0076181D02*
X0169291Y0103937D01*
X0167913Y0076752D02*
X0167913Y0103366D01*
X0163779Y0086811D02*
X0163779Y0101575D01*
X0162205Y0091339D02*
X0162205Y0100801D01*
X0123622Y0022835D02*
X0125591Y0022835D01*
X0128271Y0046185D02*
X0134570Y0046185D01*
X0130240Y0050121D02*
X0134570Y0050121D01*
X0125787Y0083268D02*
X0133574Y0083268D01*
X0077518Y0122597D02*
X0077559Y0122638D01*
X0085827Y0123031D02*
X0085827Y0124016D01*
X0065748Y0110624D02*
X0072644Y0117520D01*
X0084842Y0117520D01*
X0085827Y0118504D01*
X0071849Y0121809D02*
X0072045Y0121809D01*
X0073423Y0120431D01*
X0079880Y0120431D01*
X0081102Y0121653D01*
X0081693Y0118898D02*
X0085827Y0123031D01*
X0059055Y0101181D02*
X0059055Y0116929D01*
X0061024Y0118898D01*
X0081693Y0118898D01*
X0060827Y0086024D02*
X0067913Y0078937D01*
X0072539Y0078937D01*
X0093287Y0078150D02*
X0109055Y0078150D01*
X0092716Y0076772D02*
X0109626Y0076772D01*
X0092146Y0075394D02*
X0110197Y0075394D01*
X0091575Y0074016D02*
X0110767Y0074016D01*
X0091004Y0072638D02*
X0111505Y0072638D01*
X0109449Y0070669D02*
X0116535Y0070669D01*
X0118307Y0069291D02*
X0121850Y0072835D01*
X0138178Y0068121D02*
X0138189Y0068110D01*
X0127933Y0069488D02*
X0134449Y0069488D01*
X0129134Y0072638D02*
X0130118Y0072638D01*
X0243721Y0091142D02*
X0247638Y0095059D01*
X0226181Y0087795D02*
X0228150Y0089764D01*
X0222047Y0095669D02*
X0225197Y0092520D01*
X0243110Y0092520D01*
X0228150Y0089764D02*
X0244291Y0089764D01*
X0243110Y0092520D02*
X0246260Y0095669D01*
X0272835Y0080709D02*
X0272835Y0088779D01*
X0269291Y0090158D02*
X0272264Y0090158D01*
X0159843Y0082087D02*
X0160827Y0081102D01*
X0160827Y0077165D02*
X0160827Y0081102D01*
X0160827Y0077165D02*
X0162205Y0075787D01*
X0165000Y0075787D01*
X0166535Y0077323D01*
X0166535Y0102756D01*
X0163779Y0078543D02*
X0165157Y0079921D01*
X0165157Y0102165D01*
X0158661Y0076968D02*
X0158661Y0077953D01*
X0222441Y0091142D02*
X0243721Y0091142D01*
X0215158Y0087795D02*
X0226181Y0087795D01*
X0177284Y0057874D02*
X0177284Y0060551D01*
X0180315Y0063583D02*
X0180315Y0108661D01*
X0178937Y0064153D02*
X0178937Y0108071D01*
X0174803Y0065866D02*
X0174803Y0106299D01*
X0174803Y0056828D02*
X0174803Y0060020D01*
X0179744Y0049620D02*
X0179744Y0060759D01*
X0178957Y0048833D02*
X0179744Y0049620D01*
X0178957Y0045079D02*
X0178957Y0048833D01*
X0178957Y0045079D02*
X0178957Y0045079D01*
X0061417Y0049409D02*
X0061417Y0052362D01*
X0068110Y0059055D01*
X0072736Y0059055D01*
X0051181Y0104724D02*
X0060827Y0095079D01*
X0060827Y0086024D02*
X0060827Y0095079D01*
X0022441Y0099606D02*
X0022441Y0104134D01*
X0022441Y0099606D02*
X0023228Y0098819D01*
X0185433Y0106102D02*
X0185433Y0109429D01*
X0185596Y0120669D02*
X0185793Y0120866D01*
X0195669Y0120866D01*
X0195669Y0111024D02*
X0195669Y0120866D01*
X0194095Y0112205D02*
X0194095Y0118504D01*
X0193307Y0119291D02*
X0194095Y0118504D01*
X0188564Y0119291D02*
X0193307Y0119291D01*
X0188583Y0113681D02*
X0190945Y0116043D01*
X0195669Y0099213D02*
X0196457Y0100000D01*
X0192913Y0100984D02*
X0195079Y0103150D01*
X0196457Y0100000D02*
X0196457Y0109055D01*
X0209449Y0122047D01*
X0195079Y0103150D02*
X0195079Y0110433D01*
X0195669Y0111024D01*
X0193701Y0111811D02*
X0194095Y0112205D01*
X0188583Y0105905D02*
X0188583Y0113681D01*
X0189764Y0102559D02*
X0191426Y0102559D01*
X0193701Y0104834D01*
X0193701Y0111811D01*
X0191746Y0094882D02*
X0195093Y0091535D01*
X0203937Y0091535D01*
X0212402Y0083071D01*
X0190157Y0092913D02*
X0192913Y0090158D01*
X0200855Y0090158D01*
X0181693Y0088779D02*
X0181693Y0092082D01*
X0181693Y0088779D02*
X0200284Y0088779D01*
X0212883Y0076181D01*
X0173425Y0051378D02*
X0173425Y0060590D01*
X0172047Y0053543D02*
X0172047Y0061161D01*
X0170669Y0057874D02*
X0170669Y0061732D01*
X0163583Y0054527D02*
X0169291Y0060236D01*
X0169291Y0062303D01*
X0176181Y0065295D02*
X0176181Y0106890D01*
X0173425Y0066436D02*
X0173425Y0105709D01*
X0171063Y0113976D02*
X0177559Y0107480D01*
X0177559Y0064724D02*
X0177559Y0107480D01*
X0179744Y0060759D02*
X0181693Y0062708D01*
X0177284Y0060551D02*
X0180315Y0063583D01*
X0174803Y0060020D02*
X0178937Y0064153D01*
X0173425Y0060590D02*
X0177559Y0064724D01*
X0172047Y0061161D02*
X0176181Y0065295D01*
X0170669Y0061732D02*
X0174803Y0065866D01*
X0169291Y0062303D02*
X0173425Y0066436D01*
X0181693Y0062708D02*
X0181693Y0088779D01*
X0219291Y0140624D02*
X0221581Y0142913D01*
X0220866Y0137815D02*
X0220866Y0140250D01*
X0222151Y0141535D01*
X0219291Y0138189D02*
X0219291Y0140624D01*
X0221581Y0142913D02*
X0229803Y0142913D01*
X0233543Y0139173D01*
X0226510Y0141535D02*
X0229528Y0138518D01*
X0222151Y0141535D02*
X0226510Y0141535D01*
X0229528Y0131496D02*
X0229528Y0138518D01*
X0237205Y0108858D02*
X0237205Y0140447D01*
X0228465Y0100000D02*
X0228465Y0100118D01*
X0237205Y0108858D01*
X0114659Y0044187D02*
X0114659Y0044974D01*
X0121260Y0051575D01*
X0121260Y0053150D01*
X0114764Y0040551D02*
X0121653Y0047441D01*
X0121653Y0047441D01*
X0138189Y0068110D02*
X0138189Y0068110D01*
X0142126Y0068110D01*
X0141915Y0092913D02*
X0145093Y0092913D01*
X0138477Y0080315D02*
X0139855Y0078937D01*
X0142126Y0068110D02*
X0142520Y0067716D01*
X0151772Y0081870D02*
X0151772Y0084252D01*
X0149803Y0077756D02*
X0153347Y0081299D01*
X0153347Y0084252D01*
X0150984Y0073228D02*
X0151181Y0073426D01*
X0140748Y0058268D02*
X0140748Y0061505D01*
X0138583Y0063670D02*
X0138583Y0064567D01*
X0138583Y0063670D02*
X0140748Y0061505D01*
X0154134Y0078150D02*
X0154921Y0078937D01*
X0118701Y0092913D02*
X0123524Y0092913D01*
X0118110Y0096063D02*
X0120124Y0098077D01*
X0120124Y0101037D01*
X0118602Y0102559D02*
X0120124Y0101037D01*
X0096850Y0058071D02*
X0109449Y0070669D01*
X0097441Y0056693D02*
X0110039Y0069291D01*
X0097835Y0055118D02*
X0110630Y0067913D01*
X0099606Y0054921D02*
X0111221Y0066535D01*
X0101181Y0054528D02*
X0111811Y0065158D01*
X0154527Y0058268D02*
X0154527Y0067787D01*
X0153150Y0064370D02*
X0153150Y0068357D01*
X0158465Y0058268D02*
X0158465Y0067826D01*
X0160914Y0070276D01*
X0167520Y0070276D01*
X0156496Y0058268D02*
X0156496Y0067806D01*
X0160343Y0071653D01*
X0154527Y0067787D02*
X0159773Y0073032D01*
X0153150Y0068357D02*
X0159202Y0074409D01*
X0151181Y0073425D02*
X0151181Y0073426D01*
X0145472Y0073228D02*
X0150984Y0073228D01*
X0139048Y0081693D02*
X0139638Y0081102D01*
X0125886Y0095374D02*
X0130512Y0100000D01*
X0141339Y0091032D02*
X0141339Y0092337D01*
X0141915Y0092913D01*
X0110433Y0056496D02*
X0117553Y0063617D01*
X0117553Y0063617D01*
X0117717Y0063779D01*
X0126122Y0063779D01*
X0111811Y0065158D02*
X0125551Y0065158D01*
X0111221Y0066535D02*
X0124980Y0066535D01*
X0110039Y0069291D02*
X0118307Y0069291D01*
X0116535Y0070669D02*
X0118898Y0073032D01*
X0110630Y0067913D02*
X0124409Y0067913D01*
X0129134Y0072638D01*
X0124980Y0066535D02*
X0127933Y0069488D01*
X0125551Y0065158D02*
X0128504Y0068110D01*
X0126122Y0063779D02*
X0129075Y0066732D01*
X0140157Y0066732D01*
X0128504Y0068110D02*
X0138189Y0068110D01*
X0137906Y0078937D02*
X0140071Y0076772D01*
X0133574Y0083268D02*
X0141339Y0091032D01*
X0139173Y0085433D02*
X0139370Y0085433D01*
X0134449Y0069488D02*
X0135630Y0070669D01*
X0139855Y0078937D02*
X0142717Y0078937D01*
X0149823Y0079921D02*
X0151772Y0081870D01*
X0148425Y0077756D02*
X0149803Y0077756D01*
X0140071Y0076772D02*
X0143898Y0076772D01*
X0153937Y0078347D02*
X0154134Y0078150D01*
X0154243Y0075590D02*
X0156496Y0077843D01*
X0156496Y0084252D01*
X0234842Y0078347D02*
X0253917Y0078347D01*
X0200855Y0090158D02*
X0210304Y0080709D01*
X0253740Y0080709D01*
X0135236Y0078937D02*
X0137906Y0078937D01*
X0110197Y0075394D02*
X0113149Y0078347D01*
X0134666Y0080315D02*
X0138477Y0080315D01*
X0109626Y0076772D02*
X0112579Y0079724D01*
X0134095Y0081693D02*
X0139048Y0081693D01*
X0109055Y0078150D02*
X0112008Y0081102D01*
X0133504Y0081102D01*
X0134095Y0081693D01*
X0112579Y0079724D02*
X0134075Y0079724D01*
X0134666Y0080315D01*
X0113149Y0078347D02*
X0134646Y0078347D01*
X0135236Y0078937D01*
X0110767Y0074016D02*
X0113523Y0076772D01*
X0136614Y0076772D01*
X0111505Y0072638D02*
X0114261Y0075394D01*
X0134843Y0075394D01*
X0142126Y0073032D02*
X0144685Y0075590D01*
X0154243Y0075590D01*
X0145276Y0087205D02*
X0147047Y0085433D01*
X0145276Y0087205D02*
X0145276Y0087402D01*
X0146063Y0088189D02*
X0151181Y0088189D01*
X0147047Y0085236D02*
X0147047Y0085433D01*
X0145276Y0083465D02*
X0147047Y0085236D01*
X0143307Y0090748D02*
X0143504Y0090945D01*
X0143307Y0085053D02*
X0143307Y0090748D01*
X0143307Y0085053D02*
X0143307Y0085053D01*
X0143307Y0081876D02*
X0143307Y0085053D01*
X0142534Y0081102D02*
X0143307Y0081876D01*
X0139638Y0081102D02*
X0142534Y0081102D01*
X0143898Y0076772D02*
X0147047Y0079921D01*
X0149823Y0079921D01*
X0148819Y0082087D02*
X0149606Y0082874D01*
X0149606Y0086024D01*
X0150197Y0086614D01*
X0082677Y0095472D02*
X0084449Y0097244D01*
X0077658Y0090650D02*
X0077756Y0090551D01*
X0081299Y0082480D02*
X0081299Y0097244D01*
X0106404Y0103254D02*
X0106404Y0105026D01*
X0107705Y0106327D01*
X0109055Y0106327D01*
X0064941Y0076988D02*
X0072520Y0076988D01*
X0057480Y0084449D02*
X0064941Y0076988D01*
X0057480Y0084449D02*
X0057480Y0092126D01*
X0050787Y0098819D02*
X0057480Y0092126D01*
X0183628Y0130742D02*
X0184415Y0131530D01*
X0183529Y0126333D02*
X0183529Y0131299D01*
X0185793Y0126575D02*
X0185990Y0126378D01*
X0187402Y0126378D01*
X0192140Y0131530D02*
X0194272Y0133661D01*
X0208819Y0133661D01*
X0190517Y0127002D02*
X0190517Y0131496D01*
X0190551Y0131530D01*
X0184415Y0131530D02*
X0190551Y0131530D01*
X0192140Y0131530D01*
X0257087Y0061221D02*
X0259803Y0061221D01*
X0257087Y0061221D02*
X0257283Y0061417D01*
X0212883Y0076181D02*
X0251969Y0076181D01*
X0255118Y0073032D01*
X0255118Y0070866D02*
X0255118Y0073032D01*
X0253917Y0078347D02*
X0257283Y0074980D01*
X0257283Y0066339D02*
X0257283Y0074980D01*
X0259842Y0041181D02*
X0260236Y0041181D01*
X0265394Y0041181D01*
X0267717Y0043504D01*
X0267717Y0068721D01*
X0267913Y0072638D02*
X0272244Y0072638D01*
X0229528Y0087402D02*
X0253150Y0087402D01*
X0219882Y0085433D02*
X0252953Y0085433D01*
X0212402Y0083071D02*
X0253366Y0083071D01*
X0253740Y0080709D02*
X0260630Y0073819D01*
X0253150Y0087402D02*
X0267913Y0072638D01*
X0253366Y0083071D02*
X0267717Y0068721D01*
X0260630Y0070866D02*
X0260630Y0073819D01*
X0252953Y0085433D02*
X0269291Y0069095D01*
X0269291Y0066535D02*
X0269291Y0069095D01*
X0267717Y0012598D02*
X0267717Y0038583D01*
X0267323Y0012500D02*
X0268602Y0012500D01*
X0159843Y0087503D02*
X0159843Y0088875D01*
X0159843Y0087503D02*
X0159843Y0087503D01*
X0159843Y0082087D02*
X0159843Y0087503D01*
X0158954Y0089764D02*
X0159843Y0088875D01*
X0157283Y0089764D02*
X0158954Y0089764D01*
D14*
X0264075Y0130807D02*
X0281693Y0113189D01*
X0281693Y0084449D02*
X0281693Y0113189D01*
X0284252Y0044488D02*
X0284252Y0064961D01*
X0284252Y0069882D02*
X0284252Y0081890D01*
X0284252Y0064961D02*
X0284252Y0066114D01*
X0284252Y0069882D01*
X0136221Y0102208D02*
X0136221Y0110039D01*
X0136024Y0102011D02*
X0136221Y0102208D01*
X0135630Y0110630D02*
X0136221Y0110039D01*
X0280945Y0041181D02*
X0284252Y0044488D01*
X0275590Y0041181D02*
X0280945Y0041181D01*
X0264075Y0130807D02*
X0264075Y0137500D01*
X0083465Y0028839D02*
X0088287Y0028839D01*
X0104134Y0080512D02*
X0104134Y0082126D01*
X0107087Y0080512D02*
X0107087Y0080867D01*
X0104134Y0082126D02*
X0109803Y0087795D01*
X0107087Y0080867D02*
X0110866Y0084646D01*
X0109803Y0087795D02*
X0119685Y0087795D01*
X0121653Y0089764D01*
X0110866Y0084646D02*
X0121260Y0084646D01*
X0123228Y0086614D01*
X0138976Y0091732D02*
X0139173Y0091929D01*
X0121653Y0089764D02*
X0132057Y0089764D01*
X0136024Y0093730D01*
X0136024Y0102011D01*
X0123228Y0086614D02*
X0133858Y0086614D01*
X0138976Y0091732D01*
X0281693Y0084449D02*
X0284252Y0081890D01*
D17*
X0020276Y0087795D02*
X0025394Y0092913D01*
X0020276Y0045079D02*
X0020276Y0087795D01*
X0020276Y0045079D02*
X0024803Y0040551D01*
X0050000Y0051968D02*
X0052756Y0054724D01*
X0048031Y0051968D02*
X0050000Y0051968D01*
X0046457Y0050394D02*
X0048031Y0051968D01*
X0025394Y0092913D02*
X0026377Y0092913D01*
X0020276Y0058268D02*
X0025984Y0058268D01*
X0029026Y0058661D02*
X0035630Y0058661D01*
X0035630Y0058661D01*
X0035827Y0058661D01*
X0039764Y0062598D01*
X0176890Y0057480D02*
X0177284Y0057874D01*
X0177382Y0036417D02*
X0178957Y0037992D01*
X0168504Y0036417D02*
X0177382Y0036417D01*
X0178957Y0037992D02*
X0179547Y0038583D01*
X0185256Y0038583D01*
X0179547Y0027559D02*
X0185256Y0027559D01*
X0178957Y0028150D02*
X0179547Y0027559D01*
X0131299Y0105905D02*
X0131299Y0105905D01*
X0126476Y0101083D02*
X0131299Y0105905D01*
X0132185Y0106791D02*
X0132283Y0106791D01*
X0131299Y0105905D02*
X0132185Y0106791D01*
X0129134Y0112205D02*
X0129134Y0112205D01*
X0118996Y0119882D02*
X0119754Y0120640D01*
X0122441Y0120866D02*
X0125197Y0120866D01*
X0189921Y0010000D02*
X0190157Y0010236D01*
X0179921Y0010000D02*
X0186221Y0016299D01*
X0186221Y0021063D01*
X0247736Y0137500D02*
X0264075Y0137500D01*
X0027006Y0058268D02*
X0027006Y0058268D01*
X0042815Y0050394D02*
X0046457Y0050394D01*
X0047244Y0062598D02*
X0048031Y0061811D01*
X0048031Y0051968D02*
X0048031Y0061811D01*
X0039764Y0062598D02*
X0047244Y0062598D01*
X0182992Y0051968D02*
X0186221Y0051968D01*
X0080020Y0108465D02*
X0080216Y0108268D01*
X0072539Y0108465D02*
X0080020Y0108465D01*
X0190157Y0010236D02*
X0190157Y0019193D01*
X0190059Y0024902D02*
X0190157Y0024902D01*
X0186221Y0021063D02*
X0190059Y0024902D01*
X0094882Y0124016D02*
X0097933Y0124016D01*
X0098032Y0124114D01*
X0101181Y0124016D02*
X0103839Y0124016D01*
X0103937Y0124114D01*
X0047244Y0051181D02*
X0048031Y0051968D01*
X0125394Y0100197D02*
X0126279Y0101083D01*
X0124588Y0099045D02*
X0125394Y0099851D01*
X0125394Y0100197D01*
X0110950Y0096383D02*
X0111024Y0096457D01*
X0102756Y0095768D02*
X0103371Y0096383D01*
X0105512Y0096063D02*
X0105662Y0096213D01*
X0105512Y0090899D02*
X0105512Y0096063D01*
X0098130Y0124016D02*
X0101181Y0124016D01*
X0098032Y0124114D02*
X0098130Y0124016D01*
X0092126Y0124114D02*
X0092224Y0124016D01*
X0094882Y0124016D01*
X0119754Y0120640D02*
X0122215Y0120640D01*
X0122441Y0120866D01*
X0168504Y0034449D02*
X0172658Y0034449D01*
X0182982Y0023534D02*
X0183071Y0023622D01*
X0180403Y0023534D02*
X0182982Y0023534D01*
X0180315Y0023445D02*
X0180403Y0023534D01*
X0182382Y0018110D02*
X0183071Y0018799D01*
X0183071Y0023622D01*
X0177579Y0028150D02*
X0178957Y0028150D01*
X0176004Y0029724D02*
X0176004Y0031102D01*
X0172658Y0034449D02*
X0176004Y0031102D01*
X0176004Y0029724D02*
X0177579Y0028150D01*
X0172835Y0021949D02*
X0172835Y0022047D01*
X0172835Y0021949D02*
X0175689Y0019094D01*
X0175787Y0019094D01*
X0176673Y0018110D02*
X0176673Y0018209D01*
X0175787Y0019094D02*
X0176673Y0018209D01*
X0131595Y0095276D02*
X0131595Y0095276D01*
X0103371Y0096383D02*
X0110950Y0096383D01*
X0111417Y0092323D02*
X0111516Y0092224D01*
X0114075Y0092224D01*
X0114173Y0092126D01*
X0107874Y0092372D02*
X0111368Y0092372D01*
X0111417Y0092323D01*
X0242372Y0122884D02*
X0242421Y0122835D01*
X0242323Y0127362D02*
X0242372Y0127313D01*
X0242372Y0122884D02*
X0242372Y0127313D01*
X0242471Y0135482D02*
X0242471Y0141880D01*
X0242421Y0141929D02*
X0242471Y0141880D01*
X0242471Y0135482D02*
X0242520Y0135433D01*
X0198425Y0125689D02*
X0199508Y0126772D01*
X0198425Y0122835D02*
X0198425Y0125689D01*
X0199508Y0126772D02*
X0199803Y0126772D01*
X0214390Y0126634D02*
X0217067Y0126634D01*
X0214331Y0126693D02*
X0214390Y0126634D01*
X0217067Y0126634D02*
X0217126Y0126575D01*
X0126279Y0101083D02*
X0126378Y0101083D01*
X0126476Y0101083D01*
X0242618Y0123031D02*
X0245669Y0123031D01*
X0242421Y0122835D02*
X0242618Y0123031D01*
X0025984Y0058268D02*
X0025984Y0058268D01*
X0025984Y0058268D02*
X0027006Y0058268D01*
X0229134Y0146457D02*
X0242323Y0146457D01*
X0219528Y0146457D02*
X0229134Y0146457D01*
X0198425Y0137500D02*
X0198425Y0141929D01*
X0198425Y0137500D02*
X0198721Y0137205D01*
X0200787Y0137205D01*
X0029026Y0039370D02*
X0029026Y0040551D01*
X0024803Y0040551D02*
X0029026Y0040551D01*
X0029026Y0058268D02*
X0029026Y0058661D01*
X0029026Y0059449D01*
X0027006Y0058268D02*
X0029026Y0058268D01*
X0198031Y0146457D02*
X0219528Y0146457D01*
X0141338Y0124115D02*
X0141339Y0124114D01*
X0123454Y0099045D02*
X0124588Y0099045D01*
X0141338Y0107875D02*
X0142913Y0106299D01*
X0190157Y0096850D02*
X0192005Y0096850D01*
X0141338Y0107875D02*
X0141338Y0118111D01*
X0137598Y0122638D02*
X0137598Y0124115D01*
X0137598Y0122638D02*
X0137992Y0122244D01*
X0141142Y0122244D01*
X0134252Y0123228D02*
X0134252Y0124803D01*
X0134252Y0123228D02*
X0137008Y0120472D01*
X0192005Y0096850D02*
X0192005Y0096850D01*
X0137008Y0120472D02*
X0138976Y0120472D01*
X0141338Y0118111D01*
X0198425Y0115354D02*
X0198425Y0122835D01*
X0141142Y0122244D02*
X0141339Y0122047D01*
X0141339Y0124114D01*
X0176378Y0057480D02*
X0176575Y0057480D01*
X0176890Y0057480D01*
X0176575Y0048228D02*
X0176575Y0057480D01*
X0159449Y0100000D02*
X0159449Y0100000D01*
X0159449Y0097047D02*
X0160039Y0096457D01*
X0159449Y0097047D02*
X0159449Y0100000D01*
X0192005Y0096850D02*
X0192005Y0096850D01*
X0198031Y0096850D01*
X0198425Y0097244D01*
X0132283Y0106791D02*
X0132283Y0112205D01*
X0129134Y0112205D02*
X0132283Y0112205D01*
X0132283Y0064567D02*
X0134646Y0064567D01*
X0123031Y0098228D02*
X0123031Y0098622D01*
X0123454Y0099045D01*
D18*
X0025394Y0047047D02*
X0025984Y0046457D01*
X0025394Y0047047D02*
X0025394Y0049803D01*
X0025984Y0046457D02*
X0029026Y0046457D01*
X0025394Y0049803D02*
X0025984Y0050394D01*
X0024409Y0053099D02*
X0025641Y0054331D01*
X0024409Y0052165D02*
X0024409Y0053099D01*
X0150984Y0089764D02*
X0150984Y0089764D01*
X0152392Y0089764D01*
X0153967Y0088189D02*
X0157480Y0088189D01*
X0152392Y0089764D02*
X0153967Y0088189D01*
X0126917Y0038096D02*
X0126917Y0038189D01*
X0130512Y0038386D02*
X0134646Y0038386D01*
X0127165Y0041732D02*
X0130512Y0038386D01*
X0042815Y0046457D02*
X0043110Y0046161D01*
X0042815Y0044488D02*
X0043110Y0044783D01*
X0045917Y0046161D02*
X0045917Y0046161D01*
X0043110Y0046161D02*
X0045917Y0046161D01*
X0029026Y0046457D02*
X0029028Y0046454D01*
X0025984Y0050394D02*
X0029026Y0050394D01*
X0032676Y0046454D02*
X0032679Y0046451D01*
X0029028Y0046454D02*
X0032676Y0046454D01*
X0029026Y0048425D02*
X0032067Y0048425D01*
X0032854Y0049213D01*
X0029026Y0052362D02*
X0032854Y0052362D01*
X0032854Y0049213D02*
X0032854Y0052362D01*
X0079705Y0062008D02*
X0081279Y0063583D01*
X0081102Y0065354D02*
X0083661Y0065354D01*
X0081279Y0063583D02*
X0083465Y0063583D01*
X0079134Y0063386D02*
X0081102Y0065354D01*
X0083465Y0063583D02*
X0083661Y0063779D01*
X0028730Y0042815D02*
X0029026Y0042520D01*
X0026476Y0042815D02*
X0028730Y0042815D01*
X0025641Y0054331D02*
X0029026Y0054331D01*
X0024803Y0044488D02*
X0026476Y0042815D01*
X0031594Y0020965D02*
X0032677Y0022047D01*
X0031398Y0020965D02*
X0031594Y0020965D01*
X0030709Y0020276D02*
X0031398Y0020965D01*
X0030709Y0020079D02*
X0030709Y0020276D01*
X0032677Y0025591D02*
X0034252Y0027165D01*
X0032677Y0022047D02*
X0032677Y0025591D01*
X0030709Y0027165D02*
X0030709Y0027165D01*
X0030709Y0024016D02*
X0030709Y0027165D01*
X0128595Y0036417D02*
X0134646Y0036417D01*
X0084252Y0067520D02*
X0084252Y0070472D01*
X0086024Y0067716D02*
X0086024Y0069321D01*
X0085827Y0067520D02*
X0086024Y0067716D01*
X0087795Y0063779D02*
X0088484Y0063779D01*
X0087992Y0065354D02*
X0088189Y0065551D01*
X0088484Y0063779D02*
X0088878Y0063386D01*
X0090748Y0063386D01*
X0090945Y0063189D01*
X0050275Y0044783D02*
X0067500Y0062008D01*
X0079705Y0062008D01*
X0049705Y0046161D02*
X0066929Y0063386D01*
X0045917Y0046161D02*
X0049705Y0046161D01*
X0043110Y0044783D02*
X0050275Y0044783D01*
X0066929Y0063386D02*
X0079134Y0063386D01*
X0126917Y0038096D02*
X0128595Y0036417D01*
X0086024Y0069321D02*
X0087402Y0070699D01*
X0087402Y0072835D01*
X0088189Y0065551D02*
X0089481Y0065551D01*
X0090465Y0066535D01*
X0090945Y0066535D01*
X0156693Y0093701D02*
X0159843Y0093701D01*
X0160039Y0093504D01*
D58*
X0029921Y0144095D02*
D03*
X0262205Y0123228D02*
D03*
X0239370Y0008661D02*
D03*
D132*
X0178957Y0037992D02*
D03*
X0178957Y0028150D02*
D03*
D133*
X0264075Y0137500D02*
D03*
X0247736Y0137500D02*
D03*
X0247736Y0145965D02*
D03*
X0264075Y0145965D02*
D03*
X0064862Y0122933D02*
D03*
X0048524Y0122933D02*
D03*
X0048524Y0131398D02*
D03*
X0064862Y0131398D02*
D03*
X0264075Y0004035D02*
D03*
X0247736Y0004035D02*
D03*
X0247736Y0012500D02*
D03*
X0264075Y0012500D02*
D03*
D134*
X0181659Y0126234D02*
D03*
X0185596Y0126234D02*
D03*
X0183628Y0126234D02*
D03*
X0181659Y0119896D02*
D03*
X0183628Y0119896D02*
D03*
X0185596Y0119896D02*
D03*
D135*
X0137598Y0114863D02*
D03*
X0141338Y0114863D02*
D03*
X0145078Y0114863D02*
D03*
X0145078Y0125296D02*
D03*
X0141338Y0125296D02*
D03*
X0137598Y0125296D02*
D03*
D136*
X0054802Y0025984D02*
D03*
X0054802Y0022244D02*
D03*
X0054802Y0018504D02*
D03*
X0064054Y0025984D02*
D03*
X0064054Y0018504D02*
D03*
D137*
X0270079Y0139173D02*
D03*
X0270079Y0145079D02*
D03*
X0270079Y0004921D02*
D03*
X0270079Y0010827D02*
D03*
D138*
X0026377Y0075197D02*
D03*
X0026377Y0092913D02*
D03*
X0026377Y0081102D02*
D03*
X0006298Y0081102D02*
D03*
X0006298Y0092913D02*
D03*
X0006298Y0075197D02*
D03*
D139*
X0177284Y0051968D02*
D03*
X0182992Y0051968D02*
D03*
X0094784Y0020472D02*
D03*
X0100492Y0020472D02*
D03*
X0131595Y0095276D02*
D03*
X0125886Y0095276D02*
D03*
X0085925Y0108268D02*
D03*
X0080216Y0108268D02*
D03*
X0118996Y0119882D02*
D03*
X0113287Y0119882D02*
D03*
X0176673Y0018110D02*
D03*
X0182382Y0018110D02*
D03*
X0182992Y0057874D02*
D03*
X0177284Y0057874D02*
D03*
D140*
X0033465Y0117913D02*
D03*
X0033465Y0121850D02*
D03*
X0048425Y0022047D02*
D03*
X0048425Y0025984D02*
D03*
X0190517Y0123065D02*
D03*
X0190517Y0127002D02*
D03*
X0269291Y0080709D02*
D03*
X0269291Y0076772D02*
D03*
X0107874Y0092372D02*
D03*
X0107874Y0096309D02*
D03*
X0127953Y0027953D02*
D03*
X0127953Y0031890D02*
D03*
X0185256Y0027559D02*
D03*
X0185256Y0031496D02*
D03*
X0185256Y0038583D02*
D03*
X0185256Y0034646D02*
D03*
X0143504Y0090945D02*
D03*
X0143504Y0094882D02*
D03*
X0077559Y0024409D02*
D03*
X0077559Y0020472D02*
D03*
X0186614Y0092913D02*
D03*
X0186614Y0096850D02*
D03*
X0190157Y0096850D02*
D03*
X0190157Y0092913D02*
D03*
X0037008Y0117913D02*
D03*
X0037008Y0121850D02*
D03*
D141*
X0168504Y0030512D02*
D03*
X0168504Y0032480D02*
D03*
X0168504Y0034449D02*
D03*
X0168504Y0036417D02*
D03*
X0168504Y0038386D02*
D03*
X0168504Y0040354D02*
D03*
X0168504Y0042323D02*
D03*
X0168504Y0044291D02*
D03*
X0168504Y0046260D02*
D03*
X0168504Y0048228D02*
D03*
X0168504Y0050197D02*
D03*
X0168504Y0052165D02*
D03*
X0134646Y0052165D02*
D03*
X0134646Y0050197D02*
D03*
X0134646Y0048228D02*
D03*
X0134646Y0046260D02*
D03*
X0134646Y0044291D02*
D03*
X0134646Y0042323D02*
D03*
X0134646Y0040354D02*
D03*
X0134646Y0038386D02*
D03*
X0134646Y0036417D02*
D03*
X0134646Y0034449D02*
D03*
X0134646Y0032480D02*
D03*
X0134646Y0030512D02*
D03*
D142*
X0162402Y0058268D02*
D03*
X0160433Y0058268D02*
D03*
X0158465Y0058268D02*
D03*
X0156496Y0058268D02*
D03*
X0154527Y0058268D02*
D03*
X0152559Y0058268D02*
D03*
X0150591Y0058268D02*
D03*
X0148622Y0058268D02*
D03*
X0146653Y0058268D02*
D03*
X0144685Y0058268D02*
D03*
X0142717Y0058268D02*
D03*
X0140748Y0058268D02*
D03*
X0140748Y0024409D02*
D03*
X0142717Y0024409D02*
D03*
X0144685Y0024409D02*
D03*
X0146653Y0024409D02*
D03*
X0148622Y0024409D02*
D03*
X0150591Y0024409D02*
D03*
X0152559Y0024409D02*
D03*
X0154527Y0024409D02*
D03*
X0156496Y0024409D02*
D03*
X0158465Y0024409D02*
D03*
X0160433Y0024409D02*
D03*
X0162402Y0024409D02*
D03*
D143*
X0110728Y0112205D02*
D03*
X0118602Y0112205D02*
D03*
X0118602Y0103543D02*
D03*
X0110728Y0103543D02*
D03*
D144*
X0109496Y0111221D02*
D03*
X0109496Y0104528D02*
D03*
D145*
X0119736Y0111221D02*
D03*
X0119736Y0104528D02*
D03*
D146*
X0115453Y0104132D02*
D03*
X0113878Y0104132D02*
D03*
X0112303Y0104132D02*
D03*
X0112303Y0111614D02*
D03*
X0113878Y0111614D02*
D03*
D147*
X0117027Y0103382D02*
D03*
D148*
X0115453Y0112402D02*
D03*
X0117027Y0112402D02*
D03*
D149*
X0109055Y0106327D02*
D03*
X0109055Y0107902D02*
D03*
X0109055Y0109476D02*
D03*
D150*
X0120031Y0109476D02*
D03*
X0120031Y0107902D02*
D03*
X0120031Y0106327D02*
D03*
D151*
X0150787Y0086614D02*
D03*
X0150787Y0088189D02*
D03*
X0157480Y0089764D02*
D03*
X0157480Y0091339D02*
D03*
X0157480Y0088189D02*
D03*
X0157480Y0086614D02*
D03*
X0150787Y0089764D02*
D03*
D152*
X0150984Y0091339D02*
D03*
D153*
X0151772Y0084055D02*
D03*
X0156496Y0084055D02*
D03*
X0154921Y0084055D02*
D03*
X0153347Y0084055D02*
D03*
X0153347Y0093898D02*
D03*
X0154921Y0093898D02*
D03*
X0156496Y0093898D02*
D03*
X0151772Y0093898D02*
D03*
D154*
X0084252Y0067520D02*
D03*
X0085827Y0067520D02*
D03*
X0087402Y0067520D02*
D03*
X0085827Y0061614D02*
D03*
X0084252Y0061614D02*
D03*
X0087402Y0061614D02*
D03*
D155*
X0087992Y0065354D02*
D03*
X0083661Y0063779D02*
D03*
X0083661Y0065354D02*
D03*
D156*
X0087795Y0063779D02*
D03*
D157*
X0252362Y0107874D02*
D03*
X0256299Y0107874D02*
D03*
D158*
X0097638Y0111811D02*
D03*
X0097638Y0103937D02*
D03*
D159*
X0241142Y0113583D02*
D03*
D160*
X0232992Y0094882D02*
D03*
X0215669Y0094882D02*
D03*
D161*
X0240453Y0106496D02*
D03*
D162*
X0242421Y0122835D02*
D03*
X0198425Y0122835D02*
D03*
D163*
X0234331Y0126693D02*
D03*
X0233937Y0139173D02*
D03*
X0224331Y0139173D02*
D03*
X0224331Y0126693D02*
D03*
X0214331Y0126693D02*
D03*
X0214724Y0139173D02*
D03*
D164*
X0226496Y0099114D02*
D03*
D165*
X0198425Y0102559D02*
D03*
D166*
X0242421Y0141929D02*
D03*
X0198425Y0141929D02*
D03*
D167*
X0229134Y0146457D02*
D03*
X0219528Y0146457D02*
D03*
D168*
X0275197Y0036181D02*
D03*
X0275197Y0041181D02*
D03*
X0275197Y0046181D02*
D03*
X0275197Y0051181D02*
D03*
X0275197Y0056181D02*
D03*
X0275197Y0066181D02*
D03*
X0260236Y0066181D02*
D03*
X0260236Y0061181D02*
D03*
X0260236Y0056181D02*
D03*
X0260236Y0051181D02*
D03*
X0260236Y0046181D02*
D03*
X0260236Y0036181D02*
D03*
X0275197Y0061181D02*
D03*
X0260236Y0041181D02*
D03*
D169*
X0290965Y0118858D02*
D03*
X0290965Y0092480D02*
D03*
D170*
X0269114Y0109606D02*
D03*
X0269114Y0101732D02*
D03*
D171*
X0072539Y0045472D02*
D03*
X0072539Y0047441D02*
D03*
X0072539Y0039567D02*
D03*
X0072539Y0043504D02*
D03*
X0072539Y0041535D02*
D03*
X0072539Y0049409D02*
D03*
X0072539Y0051378D02*
D03*
X0072539Y0055315D02*
D03*
X0072539Y0053347D02*
D03*
X0072539Y0057284D02*
D03*
X0072539Y0059252D02*
D03*
X0072539Y0071063D02*
D03*
X0072539Y0073032D02*
D03*
X0072539Y0069095D02*
D03*
X0042815Y0038583D02*
D03*
X0042815Y0040551D02*
D03*
X0042815Y0044488D02*
D03*
X0042815Y0042520D02*
D03*
X0042815Y0052362D02*
D03*
X0042815Y0054331D02*
D03*
X0042815Y0046457D02*
D03*
X0042815Y0050394D02*
D03*
X0042815Y0048425D02*
D03*
X0042815Y0056299D02*
D03*
X0042815Y0060236D02*
D03*
X0042815Y0058268D02*
D03*
X0042815Y0072047D02*
D03*
X0042815Y0074016D02*
D03*
X0042815Y0070079D02*
D03*
X0072539Y0080905D02*
D03*
X0072539Y0082874D02*
D03*
X0072539Y0075000D02*
D03*
X0072539Y0078937D02*
D03*
X0072539Y0076968D02*
D03*
X0072539Y0084842D02*
D03*
X0072539Y0086811D02*
D03*
X0072539Y0090748D02*
D03*
X0072539Y0088779D02*
D03*
X0072539Y0098622D02*
D03*
X0072539Y0100591D02*
D03*
X0072539Y0102559D02*
D03*
X0072539Y0092716D02*
D03*
X0072539Y0096653D02*
D03*
X0072539Y0094685D02*
D03*
X0072539Y0104528D02*
D03*
X0072539Y0106496D02*
D03*
X0072539Y0108465D02*
D03*
X0072539Y0110433D02*
D03*
X0042815Y0081890D02*
D03*
X0042815Y0083858D02*
D03*
X0042815Y0075984D02*
D03*
X0042815Y0079921D02*
D03*
X0042815Y0077953D02*
D03*
X0042815Y0085827D02*
D03*
X0042815Y0087795D02*
D03*
X0042815Y0091732D02*
D03*
X0042815Y0089764D02*
D03*
X0042815Y0099606D02*
D03*
X0042815Y0101575D02*
D03*
X0042815Y0093701D02*
D03*
X0042815Y0097638D02*
D03*
X0042815Y0095669D02*
D03*
X0042815Y0109449D02*
D03*
X0042815Y0111417D02*
D03*
X0042815Y0103543D02*
D03*
X0042815Y0107480D02*
D03*
X0042815Y0105512D02*
D03*
D172*
X0045866Y0034252D02*
D03*
X0045866Y0115748D02*
D03*
D173*
X0006299Y0113976D02*
D03*
X0026772Y0113976D02*
D03*
D174*
X0010630Y0104134D02*
D03*
X0014567Y0104134D02*
D03*
X0018504Y0104134D02*
D03*
X0022441Y0104134D02*
D03*
D175*
X0026801Y0066417D02*
D03*
X0026801Y0032402D02*
D03*
D03*
X0026801Y0066417D02*
D03*
D176*
X0010345Y0066417D02*
D03*
X0010345Y0032402D02*
D03*
X0010345Y0066417D02*
D03*
X0010345Y0032402D02*
D03*
D177*
X0029026Y0062598D02*
D03*
X0029026Y0036220D02*
D03*
X0029026Y0059449D02*
D03*
X0029026Y0040551D02*
D03*
X0029026Y0056299D02*
D03*
X0029026Y0042520D02*
D03*
X0029026Y0054331D02*
D03*
X0029026Y0044488D02*
D03*
X0029026Y0052362D02*
D03*
X0029026Y0046457D02*
D03*
X0029026Y0050394D02*
D03*
X0029026Y0048425D02*
D03*
X0029026Y0061417D02*
D03*
X0029026Y0058268D02*
D03*
X0029026Y0037402D02*
D03*
X0029026Y0039370D02*
D03*
D178*
X0010345Y0066417D02*
D03*
D179*
X0092126Y0124114D02*
D03*
X0092126Y0118405D02*
D03*
X0103937Y0118405D02*
D03*
X0103937Y0124114D02*
D03*
X0090945Y0095768D02*
D03*
X0090945Y0090059D02*
D03*
X0083465Y0028839D02*
D03*
X0083465Y0023130D02*
D03*
X0111811Y0028839D02*
D03*
X0111811Y0023130D02*
D03*
X0088583Y0023130D02*
D03*
X0088583Y0028839D02*
D03*
X0106693Y0023130D02*
D03*
X0106693Y0028839D02*
D03*
X0189764Y0024114D02*
D03*
X0189764Y0018406D02*
D03*
X0102756Y0090059D02*
D03*
X0102756Y0095768D02*
D03*
X0126378Y0101083D02*
D03*
X0126378Y0106791D02*
D03*
X0132283Y0101083D02*
D03*
X0132283Y0106791D02*
D03*
X0098032Y0124114D02*
D03*
X0098032Y0118405D02*
D03*
X0071260Y0025689D02*
D03*
X0071260Y0019980D02*
D03*
X0042520Y0019980D02*
D03*
X0042520Y0025689D02*
D03*
X0096850Y0090059D02*
D03*
X0096850Y0095768D02*
D03*
D180*
X0086221Y0056890D02*
D03*
X0082284Y0056890D02*
D03*
X0146850Y0106299D02*
D03*
X0142913Y0106299D02*
D03*
X0256496Y0094488D02*
D03*
X0252559Y0094488D02*
D03*
X0071260Y0126772D02*
D03*
X0075197Y0126772D02*
D03*
X0071258Y0122597D02*
D03*
X0075195Y0122597D02*
D03*
X0129134Y0112205D02*
D03*
X0125197Y0112205D02*
D03*
X0034646Y0024016D02*
D03*
X0030709Y0024016D02*
D03*
X0030709Y0020079D02*
D03*
X0034646Y0020079D02*
D03*
X0125197Y0120866D02*
D03*
X0129134Y0120866D02*
D03*
X0129134Y0116535D02*
D03*
X0125197Y0116535D02*
D03*
X0099606Y0033858D02*
D03*
X0103543Y0033858D02*
D03*
X0118110Y0092126D02*
D03*
X0114173Y0092126D02*
D03*
X0118110Y0096063D02*
D03*
X0114173Y0096063D02*
D03*
X0179691Y0130742D02*
D03*
X0183628Y0130742D02*
D03*
X0094488Y0043504D02*
D03*
X0090551Y0043504D02*
D03*
X0094488Y0052165D02*
D03*
X0090551Y0052165D02*
D03*
X0094488Y0047835D02*
D03*
X0090551Y0047835D02*
D03*
X0082284Y0043504D02*
D03*
X0086221Y0043504D02*
D03*
X0082284Y0052165D02*
D03*
X0086221Y0052165D02*
D03*
X0082284Y0047835D02*
D03*
X0086221Y0047835D02*
D03*
X0092126Y0033858D02*
D03*
X0096063Y0033858D02*
D03*
X0180315Y0023445D02*
D03*
X0176378Y0023445D02*
D03*
X0138583Y0064567D02*
D03*
X0134646Y0064567D02*
D03*
X0164567Y0018504D02*
D03*
X0160630Y0018504D02*
D03*
X0176988Y0047244D02*
D03*
X0180925Y0047244D02*
D03*
X0176988Y0042913D02*
D03*
X0180925Y0042913D02*
D03*
X0159449Y0100000D02*
D03*
X0155512Y0100000D02*
D03*
X0145276Y0083465D02*
D03*
X0141339Y0083465D02*
D03*
X0145276Y0087402D02*
D03*
X0141339Y0087402D02*
D03*
X0256299Y0111417D02*
D03*
X0252362Y0111417D02*
D03*
X0031496Y0086221D02*
D03*
X0035433Y0086221D02*
D03*
X0167717Y0064567D02*
D03*
X0163779Y0064567D02*
D03*
X0163779Y0068110D02*
D03*
X0167717Y0068110D02*
D03*
D181*
X0094488Y0025591D02*
D03*
X0096063Y0025591D02*
D03*
X0097638Y0025591D02*
D03*
X0096063Y0028740D02*
D03*
X0100787Y0028740D02*
D03*
X0100787Y0027165D02*
D03*
X0100787Y0025591D02*
D03*
X0099213Y0027165D02*
D03*
X0099213Y0025591D02*
D03*
X0097638Y0027165D02*
D03*
X0099213Y0028740D02*
D03*
X0097638Y0028740D02*
D03*
X0096063Y0027165D02*
D03*
X0094488Y0028740D02*
D03*
X0094488Y0027165D02*
D03*
D182*
X0257677Y0090158D02*
D03*
X0251772Y0090158D02*
D03*
X0076181Y0131496D02*
D03*
X0070276Y0131496D02*
D03*
D183*
X0272835Y0080709D02*
D03*
X0272835Y0076772D02*
D03*
D184*
X0264587Y0101732D02*
X0269114Y0101732D01*
X0259921Y0099606D02*
X0262461Y0099606D01*
X0264587Y0101732D01*
X0241535Y0113976D02*
X0244291Y0113976D01*
X0241142Y0113583D02*
X0241535Y0113976D01*
X0284252Y0069882D02*
X0290150Y0069882D01*
X0023500Y0122741D02*
X0023592Y0122741D01*
X0014567Y0104134D02*
X0014567Y0113807D01*
X0023500Y0122741D01*
X0027259Y0126472D02*
X0027362Y0126575D01*
X0027259Y0126408D02*
X0027259Y0126472D01*
X0023592Y0122741D02*
X0027259Y0126408D01*
X0027362Y0126575D02*
X0033268Y0126575D01*
X0037008Y0126575D02*
X0052362Y0126575D01*
X0033268Y0126575D02*
X0037008Y0126575D01*
X0111608Y0033864D02*
X0111811Y0033661D01*
X0111608Y0033864D02*
X0111608Y0045860D01*
X0139173Y0106699D02*
X0139173Y0106699D01*
X0139173Y0106699D02*
X0139173Y0110985D01*
X0137598Y0112559D02*
X0139173Y0110985D01*
X0137598Y0112559D02*
X0137598Y0114863D01*
X0042520Y0025689D02*
X0042815Y0025984D01*
X0048425Y0025984D01*
X0054802Y0025984D01*
X0039370Y0025984D02*
X0039445Y0025909D01*
X0042300Y0025909D01*
X0042520Y0025689D01*
X0035827Y0029528D02*
X0039370Y0025984D01*
X0033465Y0040157D02*
X0035827Y0037795D01*
X0035827Y0029528D02*
X0035827Y0037795D01*
X0031496Y0040157D02*
X0033465Y0040157D01*
X0106693Y0028839D02*
X0111811Y0028839D01*
X0098032Y0114173D02*
X0098032Y0118405D01*
X0092126Y0113779D02*
X0092126Y0118405D01*
X0091732Y0113386D02*
X0092126Y0113779D01*
X0103937Y0116142D02*
X0103937Y0118405D01*
X0095079Y0114961D02*
X0095079Y0118405D01*
X0092126Y0118405D02*
X0095079Y0118405D01*
X0098032Y0118405D01*
X0100984Y0114567D02*
X0100984Y0118405D01*
X0100787Y0114370D02*
X0100984Y0114567D01*
X0098032Y0118405D02*
X0100984Y0118405D01*
X0103937Y0118405D01*
X0090945Y0095768D02*
X0096850Y0095768D01*
X0102756Y0095768D01*
X0100591Y0103269D02*
X0100591Y0103347D01*
X0100591Y0103269D02*
X0104056Y0099803D01*
X0100000Y0103937D02*
X0100591Y0103347D01*
X0097638Y0103937D02*
X0100000Y0103937D01*
X0104056Y0099803D02*
X0112992Y0099803D01*
X0105905Y0087795D02*
X0105905Y0089948D01*
X0111811Y0033661D02*
X0111811Y0033661D01*
X0111811Y0028839D02*
X0111811Y0033661D01*
X0085925Y0108169D02*
X0085925Y0108268D01*
X0086445Y0107677D02*
X0087598Y0106524D01*
X0086417Y0107677D02*
X0086445Y0107677D01*
X0085925Y0108169D02*
X0086417Y0107677D01*
X0087598Y0087795D02*
X0094882Y0080512D01*
X0097835Y0080512D01*
X0101181Y0083071D02*
X0105905Y0087795D01*
X0101181Y0080512D02*
X0101181Y0083071D01*
X0092913Y0060039D02*
X0098819Y0065945D01*
X0098819Y0069488D01*
X0087402Y0037008D02*
X0106721Y0037008D01*
X0107874Y0038161D01*
X0104331Y0045669D02*
X0104331Y0054331D01*
X0085974Y0023179D02*
X0086024Y0023228D01*
X0083465Y0023130D02*
X0083514Y0023179D01*
X0085974Y0023179D01*
X0086024Y0023228D02*
X0086073Y0023179D01*
X0088534Y0023179D01*
X0088583Y0023130D01*
X0109252Y0023031D02*
X0109301Y0023081D01*
X0111762Y0023081D02*
X0111811Y0023130D01*
X0109301Y0023081D02*
X0111762Y0023081D01*
X0106693Y0023130D02*
X0106742Y0023081D01*
X0109203Y0023081D02*
X0109252Y0023031D01*
X0106742Y0023081D02*
X0109203Y0023081D01*
X0212992Y0094882D02*
X0215669Y0094882D01*
X0211614Y0093504D02*
X0212992Y0094882D01*
X0241142Y0111221D02*
X0241142Y0113583D01*
X0240502Y0103986D02*
X0240551Y0103937D01*
X0240502Y0103986D02*
X0240502Y0106447D01*
X0240453Y0106496D02*
X0240502Y0106447D01*
X0240453Y0106496D02*
X0243110Y0106496D01*
X0271850Y0048622D02*
X0271926Y0048547D01*
X0271926Y0046378D02*
X0271926Y0048547D01*
X0271926Y0046378D02*
X0272123Y0046181D01*
X0275590Y0046181D01*
X0271850Y0048729D02*
X0271962Y0048840D01*
X0271962Y0050984D01*
X0272159Y0051181D01*
X0275591Y0051181D01*
X0271850Y0048622D02*
X0271850Y0048729D01*
X0272198Y0061181D02*
X0275590Y0061181D01*
X0272001Y0059209D02*
X0272001Y0060984D01*
X0271926Y0059134D02*
X0272001Y0059209D01*
X0272001Y0060984D02*
X0272198Y0061181D01*
X0071260Y0019980D02*
X0071260Y0019980D01*
X0071260Y0019980D02*
X0071260Y0020472D01*
X0071260Y0019980D02*
X0071260Y0022441D01*
X0071260Y0022441D02*
X0071260Y0022441D01*
X0031357Y0062153D02*
X0033019Y0062153D01*
X0079134Y0134843D02*
X0085433Y0128543D01*
X0105512Y0128543D02*
X0109055Y0125000D01*
X0085433Y0128543D02*
X0105512Y0128543D01*
X0060630Y0134843D02*
X0073425Y0134843D01*
X0079134Y0134843D01*
X0052362Y0126575D02*
X0060630Y0134843D01*
X0109055Y0125000D02*
X0129724Y0125000D01*
X0131693Y0123031D01*
X0131693Y0117520D02*
X0131693Y0123031D01*
X0134350Y0114863D02*
X0137598Y0114863D01*
X0232992Y0094882D02*
X0237402Y0094882D01*
X0131693Y0117520D02*
X0132677Y0116535D01*
X0134350Y0114863D01*
X0107874Y0038161D02*
X0107874Y0049409D01*
X0116263Y0057799D01*
X0111608Y0045860D02*
X0116339Y0050590D01*
X0104331Y0054331D02*
X0110433Y0060433D01*
X0129134Y0095276D02*
X0131595Y0095276D01*
X0087598Y0087795D02*
X0087598Y0106524D01*
D185*
X0268287Y0102559D02*
X0269114Y0101732D01*
X0260118Y0102559D02*
X0268287Y0102559D01*
X0109959Y0119963D02*
X0113287Y0119963D01*
X0113287Y0119882D02*
X0113287Y0119963D01*
D186*
X0194488Y0075000D02*
D03*
D187*
X0300000Y0040000D02*
D03*
X0300000Y0050000D02*
D03*
X0300000Y0060000D02*
D03*
X0300000Y0070000D02*
D03*
X0300000Y0080000D02*
D03*
X0289921Y0040000D02*
D03*
X0289921Y0050000D02*
D03*
X0289921Y0060000D02*
D03*
X0289921Y0070000D02*
D03*
X0189921Y0150079D02*
D03*
X0179921Y0150079D02*
D03*
X0169921Y0150079D02*
D03*
X0159921Y0150079D02*
D03*
X0149921Y0150079D02*
D03*
X0139921Y0150079D02*
D03*
X0129921Y0150079D02*
D03*
X0119921Y0150079D02*
D03*
X0109921Y0150079D02*
D03*
X0099921Y0150079D02*
D03*
X0089921Y0150079D02*
D03*
X0079921Y0150079D02*
D03*
X0069921Y0150079D02*
D03*
X0059921Y0150079D02*
D03*
X0049921Y0150079D02*
D03*
X0039921Y0150079D02*
D03*
X0189921Y0140000D02*
D03*
X0179921Y0140000D02*
D03*
X0169921Y0140000D02*
D03*
X0159921Y0140000D02*
D03*
X0149921Y0140000D02*
D03*
X0139921Y0140000D02*
D03*
X0129921Y0140000D02*
D03*
X0119921Y0140000D02*
D03*
X0109921Y0140000D02*
D03*
X0099921Y0140000D02*
D03*
X0089921Y0140000D02*
D03*
X0079921Y0140000D02*
D03*
X0069921Y0140000D02*
D03*
X0059921Y0140000D02*
D03*
X0049921Y0140000D02*
D03*
X0179921Y0010039D02*
D03*
X0169921Y0010039D02*
D03*
X0159921Y0010039D02*
D03*
X0149921Y0010039D02*
D03*
X0139921Y0010039D02*
D03*
X0129921Y0010039D02*
D03*
X0119921Y0010039D02*
D03*
X0109921Y0010039D02*
D03*
X0099921Y0010039D02*
D03*
X0089921Y0010039D02*
D03*
X0079921Y0010039D02*
D03*
X0069921Y0010039D02*
D03*
X0059921Y0010039D02*
D03*
X0049921Y0010039D02*
D03*
X0039921Y0010039D02*
D03*
X0189921Y-0000039D02*
D03*
X0179921Y-0000039D02*
D03*
X0169921Y-0000039D02*
D03*
X0159921Y-0000039D02*
D03*
X0149921Y-0000039D02*
D03*
X0139921Y-0000039D02*
D03*
X0129921Y-0000039D02*
D03*
X0119921Y-0000039D02*
D03*
X0109921Y-0000039D02*
D03*
X0099921Y-0000039D02*
D03*
X0089921Y-0000039D02*
D03*
X0079921Y-0000039D02*
D03*
X0069921Y-0000039D02*
D03*
X0059921Y-0000039D02*
D03*
X0049921Y-0000039D02*
D03*
X0039921Y-0000039D02*
D03*
D188*
X0289921Y0080000D02*
D03*
D189*
X0039921Y0140000D02*
D03*
X0189921Y0010039D02*
D03*
D190*
X0259921Y0099606D02*
D03*
X0123701Y0014528D02*
D03*
X0124426Y0017390D02*
D03*
X0260118Y0102559D02*
D03*
X0290158Y0064921D02*
D03*
X0087402Y0083268D02*
D03*
X0096850Y0086811D02*
D03*
X0023031Y0047835D02*
D03*
X0024409Y0052165D02*
D03*
X0149803Y0065551D02*
D03*
X0053937Y0058465D02*
D03*
X0058661Y0061417D02*
D03*
X0052756Y0054724D02*
D03*
X0055512Y0058661D02*
D03*
X0029134Y0122835D02*
D03*
X0043110Y0122047D02*
D03*
X0037008Y0093701D02*
D03*
X0020079Y0093307D02*
D03*
X0002953Y0087205D02*
D03*
X0033465Y0098819D02*
D03*
X0114764Y0023228D02*
D03*
X0114370Y0036811D02*
D03*
X0117717Y0054331D02*
D03*
X0182874Y0060827D02*
D03*
X0177362Y0130512D02*
D03*
X0147638Y0091929D02*
D03*
X0154331Y0090748D02*
D03*
X0163976Y0047835D02*
D03*
X0151969Y0046457D02*
D03*
X0145669Y0037008D02*
D03*
X0141142Y0038583D02*
D03*
X0145079Y0043504D02*
D03*
X0162402Y0042913D02*
D03*
X0160827Y0039961D02*
D03*
X0174253Y0044488D02*
D03*
X0123228Y0037205D02*
D03*
X0150000Y0035236D02*
D03*
X0167126Y0054724D02*
D03*
X0149803Y0041142D02*
D03*
X0141732Y0045079D02*
D03*
X0154134Y0033661D02*
D03*
X0142717Y0031299D02*
D03*
X0124409Y0020472D02*
D03*
X0124921Y0010236D02*
D03*
X0151181Y0030512D02*
D03*
X0156693Y0028937D02*
D03*
X0155512Y0053937D02*
D03*
X0163779Y0052362D02*
D03*
X0169685Y0056890D02*
D03*
X0163189Y0037205D02*
D03*
X0126917Y0038189D02*
D03*
X0122047Y0026772D02*
D03*
X0036811Y0101969D02*
D03*
X0005512Y0108661D02*
D03*
X0026772Y0108268D02*
D03*
X0032854Y0052362D02*
D03*
X0032679Y0046451D02*
D03*
X0037008Y0046457D02*
D03*
X0037008Y0052362D02*
D03*
X0164961Y0059055D02*
D03*
X0182677Y0047244D02*
D03*
X0182677Y0042913D02*
D03*
X0185256Y0033071D02*
D03*
X0160630Y0052362D02*
D03*
X0209449Y0127165D02*
D03*
X0222047Y0095669D02*
D03*
X0209449Y0134646D02*
D03*
X0184646Y0138189D02*
D03*
X0271654Y0123228D02*
D03*
X0039370Y0025984D02*
D03*
X0098032Y0033858D02*
D03*
X0097638Y0023228D02*
D03*
X0094488Y0030709D02*
D03*
X0186221Y0051968D02*
D03*
X0105905Y0111811D02*
D03*
X0112402Y0107677D02*
D03*
X0109843Y0120079D02*
D03*
X0085827Y0118504D02*
D03*
X0085827Y0112598D02*
D03*
X0085827Y0124016D02*
D03*
X0105905Y0107874D02*
D03*
X0106102Y0102953D02*
D03*
X0024803Y0044488D02*
D03*
X0030709Y0027165D02*
D03*
X0034252Y0027165D02*
D03*
X0032677Y0035433D02*
D03*
X0033071Y0062205D02*
D03*
X0074016Y0025591D02*
D03*
X0084252Y0070472D02*
D03*
X0099611Y0089867D02*
D03*
X0094095Y0090059D02*
D03*
X0111024Y0096457D02*
D03*
X0107087Y0080512D02*
D03*
X0097244Y0047638D02*
D03*
X0127165Y0041732D02*
D03*
X0078347Y0097244D02*
D03*
X0097835Y0080512D02*
D03*
X0090945Y0063189D02*
D03*
X0089370Y0059842D02*
D03*
X0101181Y0080512D02*
D03*
X0104134Y0080512D02*
D03*
X0114370Y0040551D02*
D03*
X0116339Y0057874D02*
D03*
X0098819Y0069488D02*
D03*
X0094882Y0124016D02*
D03*
X0101181Y0124016D02*
D03*
X0122441Y0120866D02*
D03*
X0171260Y0017717D02*
D03*
X0183071Y0023622D02*
D03*
X0168307Y0021457D02*
D03*
X0168110Y0025984D02*
D03*
X0173022Y0030726D02*
D03*
X0173228Y0039370D02*
D03*
X0145866Y0032677D02*
D03*
X0104331Y0045669D02*
D03*
X0086024Y0023228D02*
D03*
X0109252Y0023031D02*
D03*
X0047638Y0018307D02*
D03*
X0037598Y0022244D02*
D03*
X0048031Y0048622D02*
D03*
X0048031Y0041535D02*
D03*
X0066535Y0044094D02*
D03*
X0066318Y0052585D02*
D03*
X0088189Y0057087D02*
D03*
X0078150Y0056496D02*
D03*
X0111811Y0033661D02*
D03*
X0151575Y0062795D02*
D03*
X0111417Y0092323D02*
D03*
X0211614Y0093504D02*
D03*
X0241142Y0111221D02*
D03*
X0242323Y0127362D02*
D03*
X0242520Y0135433D02*
D03*
X0199803Y0126772D02*
D03*
X0217126Y0126575D02*
D03*
X0245079Y0143855D02*
D03*
X0260039Y0112008D02*
D03*
X0260039Y0107677D02*
D03*
X0240551Y0103937D02*
D03*
X0260236Y0141732D02*
D03*
X0270079Y0007087D02*
D03*
X0193307Y0015748D02*
D03*
X0193307Y0019685D02*
D03*
X0193307Y0023622D02*
D03*
X0193307Y0027559D02*
D03*
X0193307Y0031496D02*
D03*
X0193307Y0051181D02*
D03*
X0193307Y0055118D02*
D03*
X0193307Y0062992D02*
D03*
X0161417Y0028740D02*
D03*
X0048425Y0070079D02*
D03*
X0048228Y0082284D02*
D03*
X0048031Y0087795D02*
D03*
X0048031Y0093701D02*
D03*
X0048031Y0108465D02*
D03*
X0037598Y0108465D02*
D03*
X0087402Y0072835D02*
D03*
X0088090Y0068307D02*
D03*
X0271850Y0048622D02*
D03*
X0193307Y0035433D02*
D03*
X0193307Y0039370D02*
D03*
X0193307Y0047244D02*
D03*
X0193307Y0043307D02*
D03*
X0002953Y0120866D02*
D03*
X0002756Y0125591D02*
D03*
X0009055Y0120276D02*
D03*
X0002953Y0098425D02*
D03*
X0002756Y0069685D02*
D03*
X0002756Y0064961D02*
D03*
X0002756Y0061024D02*
D03*
X0002756Y0057087D02*
D03*
X0002756Y0053150D02*
D03*
X0002756Y0049213D02*
D03*
X0002756Y0045276D02*
D03*
X0002756Y0041339D02*
D03*
X0002756Y0037402D02*
D03*
X0002756Y0033465D02*
D03*
X0002756Y0029528D02*
D03*
X0002756Y0025591D02*
D03*
X0044921Y0010236D02*
D03*
X0054921Y0010236D02*
D03*
X0064921Y0010236D02*
D03*
X0074921Y0010236D02*
D03*
X0084921Y0010236D02*
D03*
X0094921Y0010236D02*
D03*
X0104921Y0010236D02*
D03*
X0134921Y0010236D02*
D03*
X0144921Y0010236D02*
D03*
X0154921Y0010236D02*
D03*
X0164921Y0010236D02*
D03*
X0174921Y0010236D02*
D03*
X0184921Y0010236D02*
D03*
X0034921Y0010236D02*
D03*
X0030984Y0010236D02*
D03*
X0034921Y0139764D02*
D03*
X0174921Y0139764D02*
D03*
X0164921Y0139764D02*
D03*
X0144921Y0139764D02*
D03*
X0134921Y0139764D02*
D03*
X0124921Y0139764D02*
D03*
X0114921Y0139764D02*
D03*
X0104921Y0139764D02*
D03*
X0094921Y0139764D02*
D03*
X0074921Y0139764D02*
D03*
X0064921Y0139764D02*
D03*
X0054921Y0139764D02*
D03*
X0044921Y0139764D02*
D03*
X0212992Y0073819D02*
D03*
X0216929Y0073819D02*
D03*
X0220866Y0073819D02*
D03*
X0224803Y0073819D02*
D03*
X0228740Y0073819D02*
D03*
X0232677Y0073819D02*
D03*
X0236614Y0073819D02*
D03*
X0240551Y0073819D02*
D03*
X0244488Y0073819D02*
D03*
X0248425Y0073819D02*
D03*
X0251575Y0061024D02*
D03*
X0251575Y0057087D02*
D03*
X0251575Y0053150D02*
D03*
X0251575Y0049213D02*
D03*
X0251575Y0045276D02*
D03*
X0251575Y0041339D02*
D03*
X0251575Y0037402D02*
D03*
X0251575Y0033071D02*
D03*
X0257087Y0033071D02*
D03*
X0261024Y0033071D02*
D03*
X0264764Y0033071D02*
D03*
X0269882Y0033071D02*
D03*
X0273622Y0033071D02*
D03*
X0277559Y0033071D02*
D03*
X0281496Y0033071D02*
D03*
X0279528Y0078740D02*
D03*
X0271654Y0093898D02*
D03*
X0228346Y0118110D02*
D03*
X0212598Y0110236D02*
D03*
X0290158Y0044921D02*
D03*
X0290158Y0054921D02*
D03*
X0290158Y0074921D02*
D03*
X0297264Y0098662D02*
D03*
X0297264Y0102992D02*
D03*
X0297264Y0108110D02*
D03*
X0297264Y0112441D02*
D03*
X0281496Y0120276D02*
D03*
X0269488Y0135827D02*
D03*
X0251575Y0064961D02*
D03*
X0251575Y0068898D02*
D03*
X0271926Y0059134D02*
D03*
X0030118Y0133858D02*
D03*
X0071260Y0022441D02*
D03*
X0059646Y0022244D02*
D03*
X0090945Y0066535D02*
D03*
X0200787Y0137205D02*
D03*
X0066929Y0085039D02*
D03*
X0078543Y0128740D02*
D03*
X0010630Y0099213D02*
D03*
X0020079Y0096850D02*
D03*
X0012598Y0115748D02*
D03*
X0134252Y0124803D02*
D03*
X0086615Y0131889D02*
D03*
X0090551Y0131890D02*
D03*
X0064961Y0128150D02*
D03*
X0176772Y0136221D02*
D03*
X0164567Y0127953D02*
D03*
X0155118Y0124409D02*
D03*
X0148031Y0126772D02*
D03*
X0150394Y0124409D02*
D03*
X0152756Y0126772D02*
D03*
X0154921Y0139764D02*
D03*
X0157480Y0126772D02*
D03*
X0161811Y0125984D02*
D03*
X0229331Y0087598D02*
D03*
X0237402Y0094882D02*
D03*
X0182677Y0096457D02*
D03*
X0177690Y0120866D02*
D03*
X0183825Y0116043D02*
D03*
X0185433Y0106102D02*
D03*
X0198425Y0115354D02*
D03*
X0209055Y0073819D02*
D03*
X0182628Y0093444D02*
D03*
X0160039Y0096457D02*
D03*
X0160039Y0093504D02*
D03*
X0157087Y0097047D02*
D03*
X0193307Y0059055D02*
D03*
X0135630Y0110630D02*
D03*
X0141339Y0122047D02*
D03*
X0149606Y0094488D02*
D03*
X0132677Y0116535D02*
D03*
X0158661Y0077953D02*
D03*
X0161811Y0064567D02*
D03*
X0161614Y0090748D02*
D03*
X0162008Y0085039D02*
D03*
X0114659Y0044187D02*
D03*
X0125787Y0083268D02*
D03*
X0081102Y0121653D02*
D03*
X0077559Y0122638D02*
D03*
X0125787Y0072835D02*
D03*
X0121850Y0072835D02*
D03*
X0130118Y0072638D02*
D03*
X0266339Y0113976D02*
D03*
X0272244Y0113976D02*
D03*
X0162992Y0081890D02*
D03*
X0163779Y0078543D02*
D03*
X0081496Y0067716D02*
D03*
X0055118Y0030118D02*
D03*
X0222441Y0091142D02*
D03*
X0219882Y0085433D02*
D03*
X0212402Y0083071D02*
D03*
X0215158Y0087795D02*
D03*
X0061417Y0049409D02*
D03*
X0048228Y0101969D02*
D03*
X0050787Y0098819D02*
D03*
X0051181Y0104724D02*
D03*
X0195669Y0099213D02*
D03*
X0192913Y0100984D02*
D03*
X0190945Y0116043D02*
D03*
X0189764Y0102559D02*
D03*
X0191535Y0105905D02*
D03*
X0188583Y0105905D02*
D03*
X0198425Y0097244D02*
D03*
X0171063Y0069488D02*
D03*
X0044094Y0131299D02*
D03*
X0056299Y0125787D02*
D03*
X0116339Y0050590D02*
D03*
X0121260Y0053150D02*
D03*
X0121653Y0047441D02*
D03*
X0142717Y0062598D02*
D03*
X0142126Y0073032D02*
D03*
X0142520Y0067716D02*
D03*
X0148819Y0082087D02*
D03*
X0117717Y0100000D02*
D03*
X0110433Y0056496D02*
D03*
X0110433Y0060433D02*
D03*
X0149803Y0068701D02*
D03*
X0161811Y0068110D02*
D03*
X0151181Y0073425D02*
D03*
X0145472Y0073228D02*
D03*
X0129134Y0095276D02*
D03*
X0132283Y0112205D02*
D03*
X0138976Y0091732D02*
D03*
X0118898Y0073032D02*
D03*
X0132283Y0064567D02*
D03*
X0136614Y0076772D02*
D03*
X0139173Y0085433D02*
D03*
X0135630Y0070669D02*
D03*
X0139173Y0074410D02*
D03*
X0142717Y0078937D02*
D03*
X0148425Y0077756D02*
D03*
X0153937Y0078347D02*
D03*
X0234842Y0078347D02*
D03*
X0217717Y0080709D02*
D03*
X0066339Y0072047D02*
D03*
X0055905Y0119685D02*
D03*
X0062598Y0104528D02*
D03*
X0123031Y0098228D02*
D03*
X0277165Y0088386D02*
D03*
X0263189Y0082087D02*
D03*
X0274803Y0070079D02*
D03*
X0147047Y0085433D02*
D03*
X0080905Y0101181D02*
D03*
X0084449Y0097244D02*
D03*
X0077756Y0090551D02*
D03*
X0081299Y0097244D02*
D03*
X0187598Y0129331D02*
D03*
X0187402Y0126378D02*
D03*
X0271654Y0127756D02*
D03*
X0261024Y0093898D02*
D03*
X0255118Y0070866D02*
D03*
X0251575Y0072835D02*
D03*
X0255118Y0063189D02*
D03*
X0272287Y0072595D02*
D03*
X0263386Y0069488D02*
D03*
X0260630Y0070866D02*
D03*
X0260630Y0048031D02*
D03*
X0267717Y0038583D02*
D03*
M02*
