G04*
G04 #@! TF.GenerationSoftware,Altium Limited,Altium Designer,26.4.1 (12)*
G04*
G04 Layer_Color=32768*
%FSAX25Y25*%
%MOIN*%
G70*
G04*
G04 #@! TF.SameCoordinates,FABC8FAD-0A80-49CE-8C30-7373FE94190F*
G04*
G04*
G04 #@! TF.FilePolarity,Positive*
G04*
G01*
G75*
%ADD12C,0.01000*%
%ADD13C,0.00984*%
D12*
X-0011000Y0015000D02*
X0007504Y0015000D01*
X-0011000Y0135000D02*
X0007504Y0135000D01*
X-0026000Y0000000D02*
X0016394Y0000000D01*
X-0026000Y0150000D02*
X0013606Y0150000D01*
X0015000Y0133606D02*
X0015000Y0176000D01*
X0285000Y0142496D02*
X0285000Y0176000D01*
X0000000Y0135000D02*
X0000000Y0191000D01*
X0300000Y0032102D02*
X0300000Y0191000D01*
X0015000Y0205998D02*
X0015000Y0200000D01*
X0017999Y0200000D01*
X0018999Y0201000D01*
X0018999Y0204998D01*
X0017999Y0205998D01*
X0015000Y0205998D01*
X0020998Y0200000D02*
X0022997Y0200000D01*
X0021998Y0200000D01*
X0021998Y0203999D01*
X0020998Y0203999D01*
X0025996Y0200000D02*
X0025996Y0203999D01*
X0026996Y0203999D01*
X0027996Y0202999D01*
X0027996Y0200000D01*
X0027996Y0202999D01*
X0028995Y0203999D01*
X0029995Y0202999D01*
X0029995Y0200000D01*
X0034993Y0200000D02*
X0032994Y0200000D01*
X0031995Y0201000D01*
X0031995Y0202999D01*
X0032994Y0203999D01*
X0034993Y0203999D01*
X0035993Y0202999D01*
X0035993Y0201999D01*
X0031995Y0201999D01*
X0037993Y0200000D02*
X0037993Y0203999D01*
X0040992Y0203999D01*
X0041991Y0202999D01*
X0041991Y0200000D01*
X0043991Y0200000D02*
X0046990Y0200000D01*
X0047989Y0201000D01*
X0046990Y0201999D01*
X0044990Y0201999D01*
X0043991Y0202999D01*
X0044990Y0203999D01*
X0047989Y0203999D01*
X0049989Y0200000D02*
X0051988Y0200000D01*
X0050988Y0200000D01*
X0050988Y0203999D01*
X0049989Y0203999D01*
X0055987Y0200000D02*
X0057986Y0200000D01*
X0058986Y0201000D01*
X0058986Y0202999D01*
X0057986Y0203999D01*
X0055987Y0203999D01*
X0054987Y0202999D01*
X0054987Y0201000D01*
X0055987Y0200000D01*
X0060985Y0200000D02*
X0060985Y0203999D01*
X0063984Y0203999D01*
X0064984Y0202999D01*
X0064984Y0200000D01*
X0066983Y0200000D02*
X0069982Y0200000D01*
X0070982Y0201000D01*
X0069982Y0201999D01*
X0067983Y0201999D01*
X0066983Y0202999D01*
X0067983Y0203999D01*
X0070982Y0203999D01*
X0078979Y0200000D02*
X0080979Y0200000D01*
X0079979Y0200000D01*
X0079979Y0203999D01*
X0078979Y0203999D01*
X0083978Y0200000D02*
X0083978Y0203999D01*
X0086977Y0203999D01*
X0087976Y0202999D01*
X0087976Y0200000D01*
X0095974Y0200000D02*
X0095974Y0203999D01*
X0096974Y0203999D01*
X0097973Y0202999D01*
X0097973Y0200000D01*
X0097973Y0202999D01*
X0098973Y0203999D01*
X0099972Y0202999D01*
X0099972Y0200000D01*
X0101972Y0200000D02*
X0103971Y0200000D01*
X0102971Y0200000D01*
X0102971Y0203999D01*
X0101972Y0203999D01*
X0106970Y0200000D02*
X0108970Y0200000D01*
X0107970Y0200000D01*
X0107970Y0205998D01*
X0106970Y0205998D01*
X0111969Y0200000D02*
X0113968Y0200000D01*
X0112968Y0200000D01*
X0112968Y0205998D01*
X0111969Y0205998D01*
X0116967Y0200000D02*
X0118966Y0200000D01*
X0117967Y0200000D01*
X0117967Y0203999D01*
X0116967Y0203999D01*
X0121965Y0200000D02*
X0121965Y0203999D01*
X0122965Y0203999D01*
X0123965Y0202999D01*
X0123965Y0200000D01*
X0123965Y0202999D01*
X0124964Y0203999D01*
X0125964Y0202999D01*
X0125964Y0200000D01*
X0130963Y0200000D02*
X0128963Y0200000D01*
X0127963Y0201000D01*
X0127963Y0202999D01*
X0128963Y0203999D01*
X0130963Y0203999D01*
X0131962Y0202999D01*
X0131962Y0201999D01*
X0127963Y0201999D01*
X0134961Y0204998D02*
X0134961Y0203999D01*
X0133961Y0203999D01*
X0135961Y0203999D01*
X0134961Y0203999D01*
X0134961Y0201000D01*
X0135961Y0200000D01*
X0141959Y0200000D02*
X0139960Y0200000D01*
X0138960Y0201000D01*
X0138960Y0202999D01*
X0139960Y0203999D01*
X0141959Y0203999D01*
X0142959Y0202999D01*
X0142959Y0201999D01*
X0138960Y0201999D01*
X0144958Y0203999D02*
X0144958Y0200000D01*
X0144958Y0201999D01*
X0145958Y0202999D01*
X0146957Y0203999D01*
X0147957Y0203999D01*
X0150956Y0200000D02*
X0153955Y0200000D01*
X0154955Y0201000D01*
X0153955Y0201999D01*
X0151956Y0201999D01*
X0150956Y0202999D01*
X0151956Y0203999D01*
X0154955Y0203999D01*
X0164952Y0200000D02*
X0162952Y0200000D01*
X0162952Y0205998D01*
X0164952Y0205998D01*
X0167950Y0200000D02*
X0167950Y0203999D01*
X0168950Y0203999D01*
X0169950Y0202999D01*
X0169950Y0200000D01*
X0169950Y0202999D01*
X0170949Y0203999D01*
X0171949Y0202999D01*
X0171949Y0200000D01*
X0173949Y0200000D02*
X0173949Y0203999D01*
X0174948Y0203999D01*
X0175948Y0202999D01*
X0175948Y0200000D01*
X0175948Y0202999D01*
X0176948Y0203999D01*
X0177947Y0202999D01*
X0177947Y0200000D01*
X0179947Y0200000D02*
X0181946Y0200000D01*
X0181946Y0205998D01*
X0179947Y0205998D01*
D13*
X-0012000Y0021000D02*
X-0010000Y0015000D01*
X-0008000Y0021000D01*
X-0010000Y0135000D02*
X-0008000Y0129000D01*
X-0012000Y0129000D02*
X-0010000Y0135000D01*
X-0010000Y0015000D02*
X-0010000Y0056338D01*
X-0010000Y0089693D02*
X-0010000Y0135000D01*
X-0027000Y0006000D02*
X-0025000Y0000000D01*
X-0023000Y0006000D01*
X-0025000Y0150000D02*
X-0023000Y0144000D01*
X-0027000Y0144000D02*
X-0025000Y0150000D01*
X-0025000Y0000000D02*
X-0025000Y0056863D01*
X-0025000Y0089169D02*
X-0025000Y0150000D01*
X0015000Y0175000D02*
X0021000Y0177000D01*
X0015000Y0175000D02*
X0021000Y0173000D01*
X0279000Y0173000D02*
X0285000Y0175000D01*
X0279000Y0177000D02*
X0285000Y0175000D01*
X0015000Y0175000D02*
X0131338Y0175000D01*
X0164693Y0175000D02*
X0285000Y0175000D01*
X0000000Y0190000D02*
X0006000Y0192000D01*
X0000000Y0190000D02*
X0006000Y0188000D01*
X0294000Y0188000D02*
X0300000Y0190000D01*
X0294000Y0192000D02*
X0300000Y0190000D01*
X0000000Y0190000D02*
X0131338Y0190000D01*
X0164693Y0190000D02*
X0300000Y0190000D01*
X-0010065Y0058322D02*
X-0011115Y0059372D01*
X-0011115Y0061471D01*
X-0010065Y0062520D01*
X-0009016Y0062520D01*
X-0007966Y0061471D01*
X-0007966Y0060421D01*
X-0007966Y0061471D01*
X-0006917Y0062520D01*
X-0005867Y0062520D01*
X-0004818Y0061471D01*
X-0004818Y0059372D01*
X-0005867Y0058322D01*
X-0010065Y0064619D02*
X-0011115Y0065669D01*
X-0011115Y0067768D01*
X-0010065Y0068818D01*
X-0005867Y0068818D01*
X-0004818Y0067768D01*
X-0004818Y0065669D01*
X-0005867Y0064619D01*
X-0010065Y0064619D01*
X-0003768Y0071966D02*
X-0004818Y0073016D01*
X-0005867Y0073016D01*
X-0005867Y0071966D01*
X-0004818Y0071966D01*
X-0004818Y0073016D01*
X-0003768Y0071966D01*
X-0002719Y0070917D01*
X-0004818Y0080362D02*
X-0011115Y0080362D01*
X-0007966Y0077214D01*
X-0007966Y0081412D01*
X-0010065Y0083511D02*
X-0011115Y0084561D01*
X-0011115Y0086660D01*
X-0010065Y0087709D01*
X-0009016Y0087709D01*
X-0007966Y0086660D01*
X-0006917Y0087709D01*
X-0005867Y0087709D01*
X-0004818Y0086660D01*
X-0004818Y0084561D01*
X-0005867Y0083511D01*
X-0006917Y0083511D01*
X-0007966Y0084561D01*
X-0009016Y0083511D01*
X-0010065Y0083511D01*
X-0007966Y0084561D02*
X-0007966Y0086660D01*
X-0025065Y0058847D02*
X-0026115Y0059897D01*
X-0026115Y0061996D01*
X-0025065Y0063045D01*
X-0024016Y0063045D01*
X-0022966Y0061996D01*
X-0022966Y0060946D01*
X-0022966Y0061996D01*
X-0021917Y0063045D01*
X-0020867Y0063045D01*
X-0019818Y0061996D01*
X-0019818Y0059897D01*
X-0020867Y0058847D01*
X-0025065Y0065144D02*
X-0026115Y0066194D01*
X-0026115Y0068293D01*
X-0025065Y0069342D01*
X-0024016Y0069342D01*
X-0022966Y0068293D01*
X-0021917Y0069342D01*
X-0020867Y0069342D01*
X-0019818Y0068293D01*
X-0019818Y0066194D01*
X-0020867Y0065144D01*
X-0021917Y0065144D01*
X-0022966Y0066194D01*
X-0024016Y0065144D01*
X-0025065Y0065144D01*
X-0022966Y0066194D02*
X-0022966Y0068293D01*
X-0018768Y0072491D02*
X-0019818Y0073541D01*
X-0020867Y0073541D01*
X-0020867Y0072491D01*
X-0019818Y0072491D01*
X-0019818Y0073541D01*
X-0018768Y0072491D01*
X-0017719Y0071442D01*
X-0019818Y0077739D02*
X-0019818Y0079838D01*
X-0019818Y0078788D01*
X-0026115Y0078788D01*
X-0025065Y0077739D01*
X-0025065Y0082986D02*
X-0026115Y0084036D01*
X-0026115Y0086135D01*
X-0025065Y0087184D01*
X-0020867Y0087184D01*
X-0019818Y0086135D01*
X-0019818Y0084036D01*
X-0020867Y0082986D01*
X-0025065Y0082986D01*
X0137521Y0176115D02*
X0135422Y0175065D01*
X0133322Y0172966D01*
X0133322Y0170867D01*
X0134372Y0169818D01*
X0136471Y0169818D01*
X0137521Y0170867D01*
X0137521Y0171917D01*
X0136471Y0172966D01*
X0133322Y0172966D01*
X0139620Y0175065D02*
X0140669Y0176115D01*
X0142768Y0176115D01*
X0143818Y0175065D01*
X0143818Y0174016D01*
X0142768Y0172966D01*
X0143818Y0171917D01*
X0143818Y0170867D01*
X0142768Y0169818D01*
X0140669Y0169818D01*
X0139620Y0170867D01*
X0139620Y0171917D01*
X0140669Y0172966D01*
X0139620Y0174016D01*
X0139620Y0175065D01*
X0140669Y0172966D02*
X0142768Y0172966D01*
X0146966Y0168768D02*
X0148016Y0169818D01*
X0148016Y0170867D01*
X0146966Y0170867D01*
X0146966Y0169818D01*
X0148016Y0169818D01*
X0146966Y0168768D01*
X0145917Y0167719D01*
X0156412Y0176115D02*
X0152214Y0176115D01*
X0152214Y0172966D01*
X0154313Y0174016D01*
X0155362Y0174016D01*
X0156412Y0172966D01*
X0156412Y0170867D01*
X0155362Y0169818D01*
X0153263Y0169818D01*
X0152214Y0170867D01*
X0158511Y0175065D02*
X0159561Y0176115D01*
X0161660Y0176115D01*
X0162709Y0175065D01*
X0162709Y0174016D01*
X0161660Y0172966D01*
X0162709Y0171917D01*
X0162709Y0170867D01*
X0161660Y0169818D01*
X0159561Y0169818D01*
X0158511Y0170867D01*
X0158511Y0171917D01*
X0159561Y0172966D01*
X0158511Y0174016D01*
X0158511Y0175065D01*
X0159561Y0172966D02*
X0161660Y0172966D01*
X0133322Y0191115D02*
X0137521Y0191115D01*
X0137521Y0190065D01*
X0133322Y0185867D01*
X0133322Y0184818D01*
X0143818Y0191115D02*
X0141719Y0190065D01*
X0139620Y0187966D01*
X0139620Y0185867D01*
X0140669Y0184818D01*
X0142768Y0184818D01*
X0143818Y0185867D01*
X0143818Y0186917D01*
X0142768Y0187966D01*
X0139620Y0187966D01*
X0146966Y0183768D02*
X0148016Y0184818D01*
X0148016Y0185867D01*
X0146966Y0185867D01*
X0146966Y0184818D01*
X0148016Y0184818D01*
X0146966Y0183768D01*
X0145917Y0182719D01*
X0156412Y0184818D02*
X0152214Y0184818D01*
X0156412Y0189016D01*
X0156412Y0190065D01*
X0155362Y0191115D01*
X0153263Y0191115D01*
X0152214Y0190065D01*
X0158511Y0190065D02*
X0159561Y0191115D01*
X0161660Y0191115D01*
X0162709Y0190065D01*
X0162709Y0185867D01*
X0161660Y0184818D01*
X0159561Y0184818D01*
X0158511Y0185867D01*
X0158511Y0190065D01*
M02*
