G04*
G04 #@! TF.GenerationSoftware,Altium Limited,Altium Designer,26.4.1 (12)*
G04*
G04 Layer_Color=128*
%FSAX25Y25*%
%MOIN*%
G70*
G04*
G04 #@! TF.SameCoordinates,FABC8FAD-0A80-49CE-8C30-7373FE94190F*
G04*
G04*
G04 #@! TF.FilePolarity,Positive*
G04*
G01*
G75*
%ADD191C,0.00200*%
D191*
X0187205Y0075000D02*
X0201772Y0075000D01*
X0194488Y0067716D02*
X0194488Y0082284D01*
X0014566Y0089961D02*
X0018109Y0089961D01*
X0016337Y0088189D02*
X0016337Y0091732D01*
X0014566Y0078150D02*
X0018109Y0078150D01*
X0016337Y0076378D02*
X0016337Y0079921D01*
X0061417Y0035630D02*
X0065748Y0035630D01*
X0063583Y0033465D02*
X0063583Y0037795D01*
X0060433Y0114370D02*
X0066732Y0114370D01*
X0063583Y0111221D02*
X0063583Y0117520D01*
X0025620Y0032402D02*
X0027982Y0032402D01*
X0026801Y0031220D02*
X0026801Y0033583D01*
X0009163Y0066417D02*
X0011526Y0066417D01*
X0010345Y0065236D02*
X0010345Y0067598D01*
X0009163Y0032402D02*
X0011526Y0032402D01*
X0010345Y0031220D02*
X0010345Y0033583D01*
X0025620Y0066417D02*
X0027982Y0066417D01*
X0026801Y0065236D02*
X0026801Y0067598D01*
X0023553Y0060787D02*
X0026112Y0060787D01*
X0024833Y0059508D02*
X0024833Y0062067D01*
X0023553Y0038032D02*
X0026112Y0038032D01*
X0024833Y0036752D02*
X0024833Y0039311D01*
X0298228Y0040000D02*
X0301772Y0040000D01*
X0300000Y0038228D02*
X0300000Y0041772D01*
X0298228Y0050000D02*
X0301772Y0050000D01*
X0300000Y0048228D02*
X0300000Y0051772D01*
X0298228Y0060000D02*
X0301772Y0060000D01*
X0300000Y0058228D02*
X0300000Y0061772D01*
X0298228Y0070000D02*
X0301772Y0070000D01*
X0300000Y0068228D02*
X0300000Y0071772D01*
X0298228Y0080000D02*
X0301772Y0080000D01*
X0300000Y0078228D02*
X0300000Y0081772D01*
X0288150Y0040000D02*
X0291693Y0040000D01*
X0289921Y0038228D02*
X0289921Y0041772D01*
X0288150Y0050000D02*
X0291693Y0050000D01*
X0289921Y0048228D02*
X0289921Y0051772D01*
X0288150Y0060000D02*
X0291693Y0060000D01*
X0289921Y0058228D02*
X0289921Y0061772D01*
X0288150Y0080000D02*
X0291693Y0080000D01*
X0289921Y0078228D02*
X0289921Y0081772D01*
X0288150Y0070000D02*
X0291693Y0070000D01*
X0289921Y0068228D02*
X0289921Y0071772D01*
X0188150Y0150079D02*
X0191693Y0150079D01*
X0189921Y0148307D02*
X0189921Y0151850D01*
X0178150Y0150079D02*
X0181693Y0150079D01*
X0179921Y0148307D02*
X0179921Y0151850D01*
X0168150Y0150079D02*
X0171693Y0150079D01*
X0169921Y0148307D02*
X0169921Y0151850D01*
X0158150Y0150079D02*
X0161693Y0150079D01*
X0159921Y0148307D02*
X0159921Y0151850D01*
X0148150Y0150079D02*
X0151693Y0150079D01*
X0149921Y0148307D02*
X0149921Y0151850D01*
X0138150Y0150079D02*
X0141693Y0150079D01*
X0139921Y0148307D02*
X0139921Y0151850D01*
X0128150Y0150079D02*
X0131693Y0150079D01*
X0129921Y0148307D02*
X0129921Y0151850D01*
X0118150Y0150079D02*
X0121693Y0150079D01*
X0119921Y0148307D02*
X0119921Y0151850D01*
X0108150Y0150079D02*
X0111693Y0150079D01*
X0109921Y0148307D02*
X0109921Y0151850D01*
X0098150Y0150079D02*
X0101693Y0150079D01*
X0099921Y0148307D02*
X0099921Y0151850D01*
X0088150Y0150079D02*
X0091693Y0150079D01*
X0089921Y0148307D02*
X0089921Y0151850D01*
X0078150Y0150079D02*
X0081693Y0150079D01*
X0079921Y0148307D02*
X0079921Y0151850D01*
X0068150Y0150079D02*
X0071693Y0150079D01*
X0069921Y0148307D02*
X0069921Y0151850D01*
X0058150Y0150079D02*
X0061693Y0150079D01*
X0059921Y0148307D02*
X0059921Y0151850D01*
X0048150Y0150079D02*
X0051693Y0150079D01*
X0049921Y0148307D02*
X0049921Y0151850D01*
X0038150Y0150079D02*
X0041693Y0150079D01*
X0039921Y0148307D02*
X0039921Y0151850D01*
X0188150Y0140000D02*
X0191693Y0140000D01*
X0189921Y0138228D02*
X0189921Y0141772D01*
X0178150Y0140000D02*
X0181693Y0140000D01*
X0179921Y0138228D02*
X0179921Y0141772D01*
X0168150Y0140000D02*
X0171693Y0140000D01*
X0169921Y0138228D02*
X0169921Y0141772D01*
X0158150Y0140000D02*
X0161693Y0140000D01*
X0159921Y0138228D02*
X0159921Y0141772D01*
X0148150Y0140000D02*
X0151693Y0140000D01*
X0149921Y0138228D02*
X0149921Y0141772D01*
X0138150Y0140000D02*
X0141693Y0140000D01*
X0139921Y0138228D02*
X0139921Y0141772D01*
X0128150Y0140000D02*
X0131693Y0140000D01*
X0129921Y0138228D02*
X0129921Y0141772D01*
X0118150Y0140000D02*
X0121693Y0140000D01*
X0119921Y0138228D02*
X0119921Y0141772D01*
X0108150Y0140000D02*
X0111693Y0140000D01*
X0109921Y0138228D02*
X0109921Y0141772D01*
X0098150Y0140000D02*
X0101693Y0140000D01*
X0099921Y0138228D02*
X0099921Y0141772D01*
X0088150Y0140000D02*
X0091693Y0140000D01*
X0089921Y0138228D02*
X0089921Y0141772D01*
X0078150Y0140000D02*
X0081693Y0140000D01*
X0079921Y0138228D02*
X0079921Y0141772D01*
X0068150Y0140000D02*
X0071693Y0140000D01*
X0069921Y0138228D02*
X0069921Y0141772D01*
X0058150Y0140000D02*
X0061693Y0140000D01*
X0059921Y0138228D02*
X0059921Y0141772D01*
X0038150Y0140000D02*
X0041693Y0140000D01*
X0039921Y0138228D02*
X0039921Y0141772D01*
X0048150Y0140000D02*
X0051693Y0140000D01*
X0049921Y0138228D02*
X0049921Y0141772D01*
X0178150Y0010039D02*
X0181693Y0010039D01*
X0179921Y0008268D02*
X0179921Y0011811D01*
X0188150Y0010039D02*
X0191693Y0010039D01*
X0189921Y0008268D02*
X0189921Y0011811D01*
X0168150Y0010039D02*
X0171693Y0010039D01*
X0169921Y0008268D02*
X0169921Y0011811D01*
X0158150Y0010039D02*
X0161693Y0010039D01*
X0159921Y0008268D02*
X0159921Y0011811D01*
X0148150Y0010039D02*
X0151693Y0010039D01*
X0149921Y0008268D02*
X0149921Y0011811D01*
X0138150Y0010039D02*
X0141693Y0010039D01*
X0139921Y0008268D02*
X0139921Y0011811D01*
X0128150Y0010039D02*
X0131693Y0010039D01*
X0129921Y0008268D02*
X0129921Y0011811D01*
X0118150Y0010039D02*
X0121693Y0010039D01*
X0119921Y0008268D02*
X0119921Y0011811D01*
X0108150Y0010039D02*
X0111693Y0010039D01*
X0109921Y0008268D02*
X0109921Y0011811D01*
X0098150Y0010039D02*
X0101693Y0010039D01*
X0099921Y0008268D02*
X0099921Y0011811D01*
X0088150Y0010039D02*
X0091693Y0010039D01*
X0089921Y0008268D02*
X0089921Y0011811D01*
X0078150Y0010039D02*
X0081693Y0010039D01*
X0079921Y0008268D02*
X0079921Y0011811D01*
X0068150Y0010039D02*
X0071693Y0010039D01*
X0069921Y0008268D02*
X0069921Y0011811D01*
X0058150Y0010039D02*
X0061693Y0010039D01*
X0059921Y0008268D02*
X0059921Y0011811D01*
X0048150Y0010039D02*
X0051693Y0010039D01*
X0049921Y0008268D02*
X0049921Y0011811D01*
X0038150Y0010039D02*
X0041693Y0010039D01*
X0039921Y0008268D02*
X0039921Y0011811D01*
X0188150Y-0000039D02*
X0191693Y-0000039D01*
X0189921Y-0001811D02*
X0189921Y0001732D01*
X0178150Y-0000039D02*
X0181693Y-0000039D01*
X0179921Y-0001811D02*
X0179921Y0001732D01*
X0168150Y-0000039D02*
X0171693Y-0000039D01*
X0169921Y-0001811D02*
X0169921Y0001732D01*
X0158150Y-0000039D02*
X0161693Y-0000039D01*
X0159921Y-0001811D02*
X0159921Y0001732D01*
X0148150Y-0000039D02*
X0151693Y-0000039D01*
X0149921Y-0001811D02*
X0149921Y0001732D01*
X0138150Y-0000039D02*
X0141693Y-0000039D01*
X0139921Y-0001811D02*
X0139921Y0001732D01*
X0128150Y-0000039D02*
X0131693Y-0000039D01*
X0129921Y-0001811D02*
X0129921Y0001732D01*
X0118150Y-0000039D02*
X0121693Y-0000039D01*
X0119921Y-0001811D02*
X0119921Y0001732D01*
X0108150Y-0000039D02*
X0111693Y-0000039D01*
X0109921Y-0001811D02*
X0109921Y0001732D01*
X0098150Y-0000039D02*
X0101693Y-0000039D01*
X0099921Y-0001811D02*
X0099921Y0001732D01*
X0088150Y-0000039D02*
X0091693Y-0000039D01*
X0089921Y-0001811D02*
X0089921Y0001732D01*
X0078150Y-0000039D02*
X0081693Y-0000039D01*
X0079921Y-0001811D02*
X0079921Y0001732D01*
X0068150Y-0000039D02*
X0071693Y-0000039D01*
X0069921Y-0001811D02*
X0069921Y0001732D01*
X0058150Y-0000039D02*
X0061693Y-0000039D01*
X0059921Y-0001811D02*
X0059921Y0001732D01*
X0048150Y-0000039D02*
X0051693Y-0000039D01*
X0049921Y-0001811D02*
X0049921Y0001732D01*
X0038150Y-0000039D02*
X0041693Y-0000039D01*
X0039921Y-0001811D02*
X0039921Y0001732D01*
X0008504Y0015000D02*
X0021496Y0015000D01*
X0015000Y0008504D02*
X0015000Y0021496D01*
X0008504Y0135000D02*
X0021496Y0135000D01*
X0015000Y0128504D02*
X0015000Y0141496D01*
X0278504Y0015000D02*
X0291496Y0015000D01*
X0285000Y0008504D02*
X0285000Y0021496D01*
X0278504Y0135000D02*
X0291496Y0135000D01*
X0285000Y0128504D02*
X0285000Y0141496D01*
X0259331Y0099606D02*
X0260512Y0099606D01*
X0259921Y0099016D02*
X0259921Y0100197D01*
X0123110Y0014528D02*
X0124291Y0014528D01*
X0123701Y0013937D02*
X0123701Y0015118D01*
X0123836Y0017390D02*
X0125017Y0017390D01*
X0124426Y0016799D02*
X0124426Y0017980D01*
X0259528Y0102559D02*
X0260709Y0102559D01*
X0260118Y0101969D02*
X0260118Y0103150D01*
X0289567Y0064921D02*
X0290748Y0064921D01*
X0290158Y0064331D02*
X0290158Y0065512D01*
X0086811Y0083268D02*
X0087992Y0083268D01*
X0087402Y0082677D02*
X0087402Y0083858D01*
X0096260Y0086811D02*
X0097441Y0086811D01*
X0096850Y0086221D02*
X0096850Y0087402D01*
X0022441Y0047835D02*
X0023622Y0047835D01*
X0023031Y0047244D02*
X0023031Y0048425D01*
X0023819Y0052165D02*
X0025000Y0052165D01*
X0024409Y0051575D02*
X0024409Y0052756D01*
X0149213Y0065551D02*
X0150394Y0065551D01*
X0149803Y0064961D02*
X0149803Y0066142D01*
X0053347Y0058465D02*
X0054528Y0058465D01*
X0053937Y0057874D02*
X0053937Y0059055D01*
X0058071Y0061417D02*
X0059252Y0061417D01*
X0058661Y0060827D02*
X0058661Y0062008D01*
X0052165Y0054724D02*
X0053347Y0054724D01*
X0052756Y0054134D02*
X0052756Y0055315D01*
X0054921Y0058661D02*
X0056102Y0058661D01*
X0055512Y0058071D02*
X0055512Y0059252D01*
X0028543Y0122835D02*
X0029724Y0122835D01*
X0029134Y0122244D02*
X0029134Y0123425D01*
X0042520Y0122047D02*
X0043701Y0122047D01*
X0043110Y0121457D02*
X0043110Y0122638D01*
X0036417Y0093701D02*
X0037598Y0093701D01*
X0037008Y0093110D02*
X0037008Y0094291D01*
X0019488Y0093307D02*
X0020669Y0093307D01*
X0020079Y0092716D02*
X0020079Y0093898D01*
X0002362Y0087205D02*
X0003543Y0087205D01*
X0002953Y0086614D02*
X0002953Y0087795D01*
X0032874Y0098819D02*
X0034055Y0098819D01*
X0033465Y0098228D02*
X0033465Y0099410D01*
X0114173Y0023228D02*
X0115354Y0023228D01*
X0114764Y0022638D02*
X0114764Y0023819D01*
X0113779Y0036811D02*
X0114961Y0036811D01*
X0114370Y0036220D02*
X0114370Y0037402D01*
X0117126Y0054331D02*
X0118307Y0054331D01*
X0117717Y0053740D02*
X0117717Y0054921D01*
X0182283Y0060827D02*
X0183465Y0060827D01*
X0182874Y0060236D02*
X0182874Y0061417D01*
X0176772Y0130512D02*
X0177953Y0130512D01*
X0177362Y0129921D02*
X0177362Y0131102D01*
X0147047Y0091929D02*
X0148228Y0091929D01*
X0147638Y0091339D02*
X0147638Y0092520D01*
X0153740Y0090748D02*
X0154921Y0090748D01*
X0154331Y0090158D02*
X0154331Y0091339D01*
X0163385Y0047835D02*
X0164567Y0047835D01*
X0163976Y0047244D02*
X0163976Y0048425D01*
X0151378Y0046457D02*
X0152559Y0046457D01*
X0151969Y0045866D02*
X0151969Y0047047D01*
X0145079Y0037008D02*
X0146260Y0037008D01*
X0145669Y0036417D02*
X0145669Y0037598D01*
X0140551Y0038583D02*
X0141732Y0038583D01*
X0141142Y0037992D02*
X0141142Y0039173D01*
X0144488Y0043504D02*
X0145669Y0043504D01*
X0145079Y0042913D02*
X0145079Y0044094D01*
X0161811Y0042913D02*
X0162992Y0042913D01*
X0162402Y0042323D02*
X0162402Y0043504D01*
X0160236Y0039961D02*
X0161417Y0039961D01*
X0160827Y0039370D02*
X0160827Y0040551D01*
X0173662Y0044488D02*
X0174844Y0044488D01*
X0174253Y0043898D02*
X0174253Y0045079D01*
X0122638Y0037205D02*
X0123819Y0037205D01*
X0123228Y0036614D02*
X0123228Y0037795D01*
X0149409Y0035236D02*
X0150591Y0035236D01*
X0150000Y0034646D02*
X0150000Y0035827D01*
X0166535Y0054724D02*
X0167717Y0054724D01*
X0167126Y0054134D02*
X0167126Y0055315D01*
X0149213Y0041142D02*
X0150394Y0041142D01*
X0149803Y0040551D02*
X0149803Y0041732D01*
X0141142Y0045079D02*
X0142323Y0045079D01*
X0141732Y0044488D02*
X0141732Y0045669D01*
X0153543Y0033661D02*
X0154724Y0033661D01*
X0154134Y0033071D02*
X0154134Y0034252D01*
X0142126Y0031299D02*
X0143307Y0031299D01*
X0142717Y0030709D02*
X0142717Y0031890D01*
X0123819Y0020472D02*
X0125000Y0020472D01*
X0124409Y0019882D02*
X0124409Y0021063D01*
X0124331Y0010236D02*
X0125512Y0010236D01*
X0124921Y0009646D02*
X0124921Y0010827D01*
X0150591Y0030512D02*
X0151772Y0030512D01*
X0151181Y0029921D02*
X0151181Y0031102D01*
X0156102Y0028937D02*
X0157283Y0028937D01*
X0156693Y0028346D02*
X0156693Y0029528D01*
X0154921Y0053937D02*
X0156102Y0053937D01*
X0155512Y0053347D02*
X0155512Y0054528D01*
X0163189Y0052362D02*
X0164370Y0052362D01*
X0163779Y0051772D02*
X0163779Y0052953D01*
X0169095Y0056890D02*
X0170276Y0056890D01*
X0169685Y0056299D02*
X0169685Y0057480D01*
X0162598Y0037205D02*
X0163779Y0037205D01*
X0163189Y0036614D02*
X0163189Y0037795D01*
X0126326Y0038189D02*
X0127507Y0038189D01*
X0126917Y0037598D02*
X0126917Y0038780D01*
X0121457Y0026772D02*
X0122638Y0026772D01*
X0122047Y0026181D02*
X0122047Y0027362D01*
X0036220Y0101969D02*
X0037402Y0101969D01*
X0036811Y0101378D02*
X0036811Y0102559D01*
X0004921Y0108661D02*
X0006102Y0108661D01*
X0005512Y0108071D02*
X0005512Y0109252D01*
X0026181Y0108268D02*
X0027362Y0108268D01*
X0026772Y0107677D02*
X0026772Y0108858D01*
X0032264Y0052362D02*
X0033445Y0052362D01*
X0032854Y0051772D02*
X0032854Y0052953D01*
X0032088Y0046451D02*
X0033270Y0046451D01*
X0032679Y0045860D02*
X0032679Y0047041D01*
X0036417Y0046457D02*
X0037598Y0046457D01*
X0037008Y0045866D02*
X0037008Y0047047D01*
X0036417Y0052362D02*
X0037598Y0052362D01*
X0037008Y0051772D02*
X0037008Y0052953D01*
X0164370Y0059055D02*
X0165551Y0059055D01*
X0164961Y0058465D02*
X0164961Y0059646D01*
X0182087Y0047244D02*
X0183268Y0047244D01*
X0182677Y0046654D02*
X0182677Y0047835D01*
X0182087Y0042913D02*
X0183268Y0042913D01*
X0182677Y0042323D02*
X0182677Y0043504D01*
X0184665Y0033071D02*
X0185846Y0033071D01*
X0185256Y0032480D02*
X0185256Y0033661D01*
X0160039Y0052362D02*
X0161221Y0052362D01*
X0160630Y0051772D02*
X0160630Y0052953D01*
X0208858Y0127165D02*
X0210039Y0127165D01*
X0209449Y0126575D02*
X0209449Y0127756D01*
X0221457Y0095669D02*
X0222638Y0095669D01*
X0222047Y0095079D02*
X0222047Y0096260D01*
X0208858Y0134646D02*
X0210039Y0134646D01*
X0209449Y0134055D02*
X0209449Y0135236D01*
X0184055Y0138189D02*
X0185236Y0138189D01*
X0184646Y0137598D02*
X0184646Y0138779D01*
X0271063Y0123228D02*
X0272244Y0123228D01*
X0271654Y0122638D02*
X0271654Y0123819D01*
X0038780Y0025984D02*
X0039961Y0025984D01*
X0039370Y0025394D02*
X0039370Y0026575D01*
X0097441Y0033858D02*
X0098622Y0033858D01*
X0098032Y0033268D02*
X0098032Y0034449D01*
X0097047Y0023228D02*
X0098228Y0023228D01*
X0097638Y0022638D02*
X0097638Y0023819D01*
X0093898Y0030709D02*
X0095079Y0030709D01*
X0094488Y0030118D02*
X0094488Y0031299D01*
X0185630Y0051968D02*
X0186811Y0051968D01*
X0186221Y0051378D02*
X0186221Y0052559D01*
X0105315Y0111811D02*
X0106496Y0111811D01*
X0105905Y0111221D02*
X0105905Y0112402D01*
X0111811Y0107677D02*
X0112992Y0107677D01*
X0112402Y0107087D02*
X0112402Y0108268D01*
X0109252Y0120079D02*
X0110433Y0120079D01*
X0109843Y0119488D02*
X0109843Y0120669D01*
X0085236Y0118504D02*
X0086417Y0118504D01*
X0085827Y0117913D02*
X0085827Y0119095D01*
X0085236Y0112598D02*
X0086417Y0112598D01*
X0085827Y0112008D02*
X0085827Y0113189D01*
X0085236Y0124016D02*
X0086417Y0124016D01*
X0085827Y0123425D02*
X0085827Y0124606D01*
X0105315Y0107874D02*
X0106496Y0107874D01*
X0105905Y0107283D02*
X0105905Y0108465D01*
X0105512Y0102953D02*
X0106693Y0102953D01*
X0106102Y0102362D02*
X0106102Y0103543D01*
X0024213Y0044488D02*
X0025394Y0044488D01*
X0024803Y0043898D02*
X0024803Y0045079D01*
X0030118Y0027165D02*
X0031299Y0027165D01*
X0030709Y0026575D02*
X0030709Y0027756D01*
X0033661Y0027165D02*
X0034843Y0027165D01*
X0034252Y0026575D02*
X0034252Y0027756D01*
X0032087Y0035433D02*
X0033268Y0035433D01*
X0032677Y0034843D02*
X0032677Y0036024D01*
X0032480Y0062205D02*
X0033661Y0062205D01*
X0033071Y0061614D02*
X0033071Y0062795D01*
X0073425Y0025591D02*
X0074606Y0025591D01*
X0074016Y0025000D02*
X0074016Y0026181D01*
X0083661Y0070472D02*
X0084842Y0070472D01*
X0084252Y0069882D02*
X0084252Y0071063D01*
X0099020Y0089867D02*
X0100201Y0089867D01*
X0099611Y0089276D02*
X0099611Y0090457D01*
X0093504Y0090059D02*
X0094685Y0090059D01*
X0094095Y0089468D02*
X0094095Y0090650D01*
X0110433Y0096457D02*
X0111614Y0096457D01*
X0111024Y0095866D02*
X0111024Y0097047D01*
X0106496Y0080512D02*
X0107677Y0080512D01*
X0107087Y0079921D02*
X0107087Y0081102D01*
X0096653Y0047638D02*
X0097835Y0047638D01*
X0097244Y0047047D02*
X0097244Y0048228D01*
X0126575Y0041732D02*
X0127756Y0041732D01*
X0127165Y0041142D02*
X0127165Y0042323D01*
X0077756Y0097244D02*
X0078937Y0097244D01*
X0078347Y0096653D02*
X0078347Y0097835D01*
X0097244Y0080512D02*
X0098425Y0080512D01*
X0097835Y0079921D02*
X0097835Y0081102D01*
X0090354Y0063189D02*
X0091535Y0063189D01*
X0090945Y0062598D02*
X0090945Y0063779D01*
X0088779Y0059842D02*
X0089961Y0059842D01*
X0089370Y0059252D02*
X0089370Y0060433D01*
X0100591Y0080512D02*
X0101772Y0080512D01*
X0101181Y0079921D02*
X0101181Y0081102D01*
X0103543Y0080512D02*
X0104724Y0080512D01*
X0104134Y0079921D02*
X0104134Y0081102D01*
X0113779Y0040551D02*
X0114961Y0040551D01*
X0114370Y0039961D02*
X0114370Y0041142D01*
X0115748Y0057874D02*
X0116929Y0057874D01*
X0116339Y0057284D02*
X0116339Y0058465D01*
X0098228Y0069488D02*
X0099410Y0069488D01*
X0098819Y0068898D02*
X0098819Y0070079D01*
X0094291Y0124016D02*
X0095472Y0124016D01*
X0094882Y0123425D02*
X0094882Y0124606D01*
X0100591Y0124016D02*
X0101772Y0124016D01*
X0101181Y0123425D02*
X0101181Y0124606D01*
X0121850Y0120866D02*
X0123031Y0120866D01*
X0122441Y0120276D02*
X0122441Y0121457D01*
X0170669Y0017717D02*
X0171850Y0017717D01*
X0171260Y0017126D02*
X0171260Y0018307D01*
X0182480Y0023622D02*
X0183661Y0023622D01*
X0183071Y0023031D02*
X0183071Y0024213D01*
X0167717Y0021457D02*
X0168898Y0021457D01*
X0168307Y0020866D02*
X0168307Y0022047D01*
X0167520Y0025984D02*
X0168701Y0025984D01*
X0168110Y0025394D02*
X0168110Y0026575D01*
X0172431Y0030726D02*
X0173612Y0030726D01*
X0173022Y0030135D02*
X0173022Y0031316D01*
X0172638Y0039370D02*
X0173819Y0039370D01*
X0173228Y0038780D02*
X0173228Y0039961D01*
X0145276Y0032677D02*
X0146457Y0032677D01*
X0145866Y0032087D02*
X0145866Y0033268D01*
X0103740Y0045669D02*
X0104921Y0045669D01*
X0104331Y0045079D02*
X0104331Y0046260D01*
X0085433Y0023228D02*
X0086614Y0023228D01*
X0086024Y0022638D02*
X0086024Y0023819D01*
X0108661Y0023031D02*
X0109843Y0023031D01*
X0109252Y0022441D02*
X0109252Y0023622D01*
X0047047Y0018307D02*
X0048228Y0018307D01*
X0047638Y0017717D02*
X0047638Y0018898D01*
X0037008Y0022244D02*
X0038189Y0022244D01*
X0037598Y0021654D02*
X0037598Y0022835D01*
X0047441Y0048622D02*
X0048622Y0048622D01*
X0048031Y0048031D02*
X0048031Y0049213D01*
X0047441Y0041535D02*
X0048622Y0041535D01*
X0048031Y0040945D02*
X0048031Y0042126D01*
X0065945Y0044094D02*
X0067126Y0044094D01*
X0066535Y0043504D02*
X0066535Y0044685D01*
X0065727Y0052585D02*
X0066909Y0052585D01*
X0066318Y0051995D02*
X0066318Y0053176D01*
X0087598Y0057087D02*
X0088779Y0057087D01*
X0088189Y0056496D02*
X0088189Y0057677D01*
X0077559Y0056496D02*
X0078740Y0056496D01*
X0078150Y0055905D02*
X0078150Y0057087D01*
X0111221Y0033661D02*
X0112402Y0033661D01*
X0111811Y0033071D02*
X0111811Y0034252D01*
X0150984Y0062795D02*
X0152165Y0062795D01*
X0151575Y0062205D02*
X0151575Y0063386D01*
X0110827Y0092323D02*
X0112008Y0092323D01*
X0111417Y0091732D02*
X0111417Y0092913D01*
X0211024Y0093504D02*
X0212205Y0093504D01*
X0211614Y0092913D02*
X0211614Y0094095D01*
X0240551Y0111221D02*
X0241732Y0111221D01*
X0241142Y0110630D02*
X0241142Y0111811D01*
X0241732Y0127362D02*
X0242913Y0127362D01*
X0242323Y0126772D02*
X0242323Y0127953D01*
X0241929Y0135433D02*
X0243110Y0135433D01*
X0242520Y0134843D02*
X0242520Y0136024D01*
X0199213Y0126772D02*
X0200394Y0126772D01*
X0199803Y0126181D02*
X0199803Y0127362D01*
X0216535Y0126575D02*
X0217717Y0126575D01*
X0217126Y0125984D02*
X0217126Y0127165D01*
X0244488Y0143855D02*
X0245669Y0143855D01*
X0245079Y0143265D02*
X0245079Y0144446D01*
X0259449Y0112008D02*
X0260630Y0112008D01*
X0260039Y0111417D02*
X0260039Y0112598D01*
X0259449Y0107677D02*
X0260630Y0107677D01*
X0260039Y0107087D02*
X0260039Y0108268D01*
X0239961Y0103937D02*
X0241142Y0103937D01*
X0240551Y0103347D02*
X0240551Y0104528D01*
X0259646Y0141732D02*
X0260827Y0141732D01*
X0260236Y0141142D02*
X0260236Y0142323D01*
X0269488Y0007087D02*
X0270669Y0007087D01*
X0270079Y0006496D02*
X0270079Y0007677D01*
X0192717Y0015748D02*
X0193898Y0015748D01*
X0193307Y0015157D02*
X0193307Y0016339D01*
X0192717Y0019685D02*
X0193898Y0019685D01*
X0193307Y0019094D02*
X0193307Y0020276D01*
X0192717Y0023622D02*
X0193898Y0023622D01*
X0193307Y0023031D02*
X0193307Y0024213D01*
X0192717Y0027559D02*
X0193898Y0027559D01*
X0193307Y0026969D02*
X0193307Y0028150D01*
X0192717Y0031496D02*
X0193898Y0031496D01*
X0193307Y0030906D02*
X0193307Y0032087D01*
X0192717Y0051181D02*
X0193898Y0051181D01*
X0193307Y0050591D02*
X0193307Y0051772D01*
X0192717Y0055118D02*
X0193898Y0055118D01*
X0193307Y0054528D02*
X0193307Y0055709D01*
X0192717Y0062992D02*
X0193898Y0062992D01*
X0193307Y0062402D02*
X0193307Y0063583D01*
X0160827Y0028740D02*
X0162008Y0028740D01*
X0161417Y0028150D02*
X0161417Y0029331D01*
X0047835Y0070079D02*
X0049016Y0070079D01*
X0048425Y0069488D02*
X0048425Y0070669D01*
X0047638Y0082284D02*
X0048819Y0082284D01*
X0048228Y0081693D02*
X0048228Y0082874D01*
X0047441Y0087795D02*
X0048622Y0087795D01*
X0048031Y0087205D02*
X0048031Y0088386D01*
X0047441Y0093701D02*
X0048622Y0093701D01*
X0048031Y0093110D02*
X0048031Y0094291D01*
X0047441Y0108465D02*
X0048622Y0108465D01*
X0048031Y0107874D02*
X0048031Y0109055D01*
X0037008Y0108465D02*
X0038189Y0108465D01*
X0037598Y0107874D02*
X0037598Y0109055D01*
X0086811Y0072835D02*
X0087992Y0072835D01*
X0087402Y0072244D02*
X0087402Y0073425D01*
X0087500Y0068307D02*
X0088681Y0068307D01*
X0088090Y0067716D02*
X0088090Y0068898D01*
X0271260Y0048622D02*
X0272441Y0048622D01*
X0271850Y0048031D02*
X0271850Y0049213D01*
X0192717Y0035433D02*
X0193898Y0035433D01*
X0193307Y0034843D02*
X0193307Y0036024D01*
X0192717Y0039370D02*
X0193898Y0039370D01*
X0193307Y0038780D02*
X0193307Y0039961D01*
X0192717Y0047244D02*
X0193898Y0047244D01*
X0193307Y0046654D02*
X0193307Y0047835D01*
X0192717Y0043307D02*
X0193898Y0043307D01*
X0193307Y0042717D02*
X0193307Y0043898D01*
X0002362Y0120866D02*
X0003543Y0120866D01*
X0002953Y0120276D02*
X0002953Y0121457D01*
X0002165Y0125591D02*
X0003347Y0125591D01*
X0002756Y0125000D02*
X0002756Y0126181D01*
X0008465Y0120276D02*
X0009646Y0120276D01*
X0009055Y0119685D02*
X0009055Y0120866D01*
X0002362Y0098425D02*
X0003543Y0098425D01*
X0002953Y0097835D02*
X0002953Y0099016D01*
X0002165Y0069685D02*
X0003347Y0069685D01*
X0002756Y0069095D02*
X0002756Y0070276D01*
X0002165Y0064961D02*
X0003347Y0064961D01*
X0002756Y0064370D02*
X0002756Y0065551D01*
X0002165Y0061024D02*
X0003347Y0061024D01*
X0002756Y0060433D02*
X0002756Y0061614D01*
X0002165Y0057087D02*
X0003347Y0057087D01*
X0002756Y0056496D02*
X0002756Y0057677D01*
X0002165Y0053150D02*
X0003347Y0053150D01*
X0002756Y0052559D02*
X0002756Y0053740D01*
X0002165Y0049213D02*
X0003347Y0049213D01*
X0002756Y0048622D02*
X0002756Y0049803D01*
X0002165Y0045276D02*
X0003347Y0045276D01*
X0002756Y0044685D02*
X0002756Y0045866D01*
X0002165Y0041339D02*
X0003347Y0041339D01*
X0002756Y0040748D02*
X0002756Y0041929D01*
X0002165Y0037402D02*
X0003347Y0037402D01*
X0002756Y0036811D02*
X0002756Y0037992D01*
X0002165Y0033465D02*
X0003347Y0033465D01*
X0002756Y0032874D02*
X0002756Y0034055D01*
X0002165Y0029528D02*
X0003347Y0029528D01*
X0002756Y0028937D02*
X0002756Y0030118D01*
X0002165Y0025591D02*
X0003347Y0025591D01*
X0002756Y0025000D02*
X0002756Y0026181D01*
X0044331Y0010236D02*
X0045512Y0010236D01*
X0044921Y0009646D02*
X0044921Y0010827D01*
X0054331Y0010236D02*
X0055512Y0010236D01*
X0054921Y0009646D02*
X0054921Y0010827D01*
X0064331Y0010236D02*
X0065512Y0010236D01*
X0064921Y0009646D02*
X0064921Y0010827D01*
X0074331Y0010236D02*
X0075512Y0010236D01*
X0074921Y0009646D02*
X0074921Y0010827D01*
X0084331Y0010236D02*
X0085512Y0010236D01*
X0084921Y0009646D02*
X0084921Y0010827D01*
X0094331Y0010236D02*
X0095512Y0010236D01*
X0094921Y0009646D02*
X0094921Y0010827D01*
X0104331Y0010236D02*
X0105512Y0010236D01*
X0104921Y0009646D02*
X0104921Y0010827D01*
X0134331Y0010236D02*
X0135512Y0010236D01*
X0134921Y0009646D02*
X0134921Y0010827D01*
X0144331Y0010236D02*
X0145512Y0010236D01*
X0144921Y0009646D02*
X0144921Y0010827D01*
X0154331Y0010236D02*
X0155512Y0010236D01*
X0154921Y0009646D02*
X0154921Y0010827D01*
X0164331Y0010236D02*
X0165512Y0010236D01*
X0164921Y0009646D02*
X0164921Y0010827D01*
X0174331Y0010236D02*
X0175512Y0010236D01*
X0174921Y0009646D02*
X0174921Y0010827D01*
X0184331Y0010236D02*
X0185512Y0010236D01*
X0184921Y0009646D02*
X0184921Y0010827D01*
X0034331Y0010236D02*
X0035512Y0010236D01*
X0034921Y0009646D02*
X0034921Y0010827D01*
X0030394Y0010236D02*
X0031575Y0010236D01*
X0030984Y0009646D02*
X0030984Y0010827D01*
X0034331Y0139764D02*
X0035512Y0139764D01*
X0034921Y0139173D02*
X0034921Y0140354D01*
X0174331Y0139764D02*
X0175512Y0139764D01*
X0174921Y0139173D02*
X0174921Y0140354D01*
X0164331Y0139764D02*
X0165512Y0139764D01*
X0164921Y0139173D02*
X0164921Y0140354D01*
X0144331Y0139764D02*
X0145512Y0139764D01*
X0144921Y0139173D02*
X0144921Y0140354D01*
X0134331Y0139764D02*
X0135512Y0139764D01*
X0134921Y0139173D02*
X0134921Y0140354D01*
X0124331Y0139764D02*
X0125512Y0139764D01*
X0124921Y0139173D02*
X0124921Y0140354D01*
X0114331Y0139764D02*
X0115512Y0139764D01*
X0114921Y0139173D02*
X0114921Y0140354D01*
X0104331Y0139764D02*
X0105512Y0139764D01*
X0104921Y0139173D02*
X0104921Y0140354D01*
X0094331Y0139764D02*
X0095512Y0139764D01*
X0094921Y0139173D02*
X0094921Y0140354D01*
X0074331Y0139764D02*
X0075512Y0139764D01*
X0074921Y0139173D02*
X0074921Y0140354D01*
X0064331Y0139764D02*
X0065512Y0139764D01*
X0064921Y0139173D02*
X0064921Y0140354D01*
X0054331Y0139764D02*
X0055512Y0139764D01*
X0054921Y0139173D02*
X0054921Y0140354D01*
X0044331Y0139764D02*
X0045512Y0139764D01*
X0044921Y0139173D02*
X0044921Y0140354D01*
X0212402Y0073819D02*
X0213583Y0073819D01*
X0212992Y0073228D02*
X0212992Y0074409D01*
X0216339Y0073819D02*
X0217520Y0073819D01*
X0216929Y0073228D02*
X0216929Y0074409D01*
X0220276Y0073819D02*
X0221457Y0073819D01*
X0220866Y0073228D02*
X0220866Y0074409D01*
X0224213Y0073819D02*
X0225394Y0073819D01*
X0224803Y0073228D02*
X0224803Y0074409D01*
X0228150Y0073819D02*
X0229331Y0073819D01*
X0228740Y0073228D02*
X0228740Y0074409D01*
X0232087Y0073819D02*
X0233268Y0073819D01*
X0232677Y0073228D02*
X0232677Y0074409D01*
X0236024Y0073819D02*
X0237205Y0073819D01*
X0236614Y0073228D02*
X0236614Y0074409D01*
X0239961Y0073819D02*
X0241142Y0073819D01*
X0240551Y0073228D02*
X0240551Y0074409D01*
X0243898Y0073819D02*
X0245079Y0073819D01*
X0244488Y0073228D02*
X0244488Y0074409D01*
X0247835Y0073819D02*
X0249016Y0073819D01*
X0248425Y0073228D02*
X0248425Y0074409D01*
X0250984Y0061024D02*
X0252165Y0061024D01*
X0251575Y0060433D02*
X0251575Y0061614D01*
X0250984Y0057087D02*
X0252165Y0057087D01*
X0251575Y0056496D02*
X0251575Y0057677D01*
X0250984Y0053150D02*
X0252165Y0053150D01*
X0251575Y0052559D02*
X0251575Y0053740D01*
X0250984Y0049213D02*
X0252165Y0049213D01*
X0251575Y0048622D02*
X0251575Y0049803D01*
X0250984Y0045276D02*
X0252165Y0045276D01*
X0251575Y0044685D02*
X0251575Y0045866D01*
X0250984Y0041339D02*
X0252165Y0041339D01*
X0251575Y0040748D02*
X0251575Y0041929D01*
X0250984Y0037402D02*
X0252165Y0037402D01*
X0251575Y0036811D02*
X0251575Y0037992D01*
X0250984Y0033071D02*
X0252165Y0033071D01*
X0251575Y0032480D02*
X0251575Y0033661D01*
X0256496Y0033071D02*
X0257677Y0033071D01*
X0257087Y0032480D02*
X0257087Y0033661D01*
X0260433Y0033071D02*
X0261614Y0033071D01*
X0261024Y0032480D02*
X0261024Y0033661D01*
X0264173Y0033071D02*
X0265354Y0033071D01*
X0264764Y0032480D02*
X0264764Y0033661D01*
X0269291Y0033071D02*
X0270472Y0033071D01*
X0269882Y0032480D02*
X0269882Y0033661D01*
X0273031Y0033071D02*
X0274213Y0033071D01*
X0273622Y0032480D02*
X0273622Y0033661D01*
X0276969Y0033071D02*
X0278150Y0033071D01*
X0277559Y0032480D02*
X0277559Y0033661D01*
X0280906Y0033071D02*
X0282087Y0033071D01*
X0281496Y0032480D02*
X0281496Y0033661D01*
X0278937Y0078740D02*
X0280118Y0078740D01*
X0279528Y0078150D02*
X0279528Y0079331D01*
X0271063Y0093898D02*
X0272244Y0093898D01*
X0271654Y0093307D02*
X0271654Y0094488D01*
X0227756Y0118110D02*
X0228937Y0118110D01*
X0228346Y0117520D02*
X0228346Y0118701D01*
X0212008Y0110236D02*
X0213189Y0110236D01*
X0212598Y0109646D02*
X0212598Y0110827D01*
X0289567Y0044921D02*
X0290748Y0044921D01*
X0290158Y0044331D02*
X0290158Y0045512D01*
X0289567Y0054921D02*
X0290748Y0054921D01*
X0290158Y0054331D02*
X0290158Y0055512D01*
X0289567Y0074921D02*
X0290748Y0074921D01*
X0290158Y0074331D02*
X0290158Y0075512D01*
X0296673Y0098662D02*
X0297854Y0098662D01*
X0297264Y0098071D02*
X0297264Y0099252D01*
X0296673Y0102992D02*
X0297854Y0102992D01*
X0297264Y0102402D02*
X0297264Y0103583D01*
X0296673Y0108110D02*
X0297854Y0108110D01*
X0297264Y0107520D02*
X0297264Y0108701D01*
X0296673Y0112441D02*
X0297854Y0112441D01*
X0297264Y0111850D02*
X0297264Y0113031D01*
X0280906Y0120276D02*
X0282087Y0120276D01*
X0281496Y0119685D02*
X0281496Y0120866D01*
X0268898Y0135827D02*
X0270079Y0135827D01*
X0269488Y0135236D02*
X0269488Y0136417D01*
X0250984Y0064961D02*
X0252165Y0064961D01*
X0251575Y0064370D02*
X0251575Y0065551D01*
X0250984Y0068898D02*
X0252165Y0068898D01*
X0251575Y0068307D02*
X0251575Y0069488D01*
X0271335Y0059134D02*
X0272516Y0059134D01*
X0271926Y0058543D02*
X0271926Y0059724D01*
X0029528Y0133858D02*
X0030709Y0133858D01*
X0030118Y0133268D02*
X0030118Y0134449D01*
X0070669Y0022441D02*
X0071850Y0022441D01*
X0071260Y0021850D02*
X0071260Y0023031D01*
X0059055Y0022244D02*
X0060236Y0022244D01*
X0059646Y0021654D02*
X0059646Y0022835D01*
X0090354Y0066535D02*
X0091535Y0066535D01*
X0090945Y0065945D02*
X0090945Y0067126D01*
X0200197Y0137205D02*
X0201378Y0137205D01*
X0200787Y0136614D02*
X0200787Y0137795D01*
X0066339Y0085039D02*
X0067520Y0085039D01*
X0066929Y0084449D02*
X0066929Y0085630D01*
X0077953Y0128740D02*
X0079134Y0128740D01*
X0078543Y0128150D02*
X0078543Y0129331D01*
X0010039Y0099213D02*
X0011220Y0099213D01*
X0010630Y0098622D02*
X0010630Y0099803D01*
X0019488Y0096850D02*
X0020669Y0096850D01*
X0020079Y0096260D02*
X0020079Y0097441D01*
X0012008Y0115748D02*
X0013189Y0115748D01*
X0012598Y0115157D02*
X0012598Y0116339D01*
X0133661Y0124803D02*
X0134843Y0124803D01*
X0134252Y0124213D02*
X0134252Y0125394D01*
X0086024Y0131889D02*
X0087205Y0131889D01*
X0086615Y0131299D02*
X0086615Y0132480D01*
X0089961Y0131890D02*
X0091142Y0131890D01*
X0090551Y0131299D02*
X0090551Y0132480D01*
X0064370Y0128150D02*
X0065551Y0128150D01*
X0064961Y0127559D02*
X0064961Y0128740D01*
X0176181Y0136221D02*
X0177362Y0136221D01*
X0176772Y0135630D02*
X0176772Y0136811D01*
X0163976Y0127953D02*
X0165157Y0127953D01*
X0164567Y0127362D02*
X0164567Y0128543D01*
X0154528Y0124409D02*
X0155709Y0124409D01*
X0155118Y0123819D02*
X0155118Y0125000D01*
X0147441Y0126772D02*
X0148622Y0126772D01*
X0148031Y0126181D02*
X0148031Y0127362D01*
X0149803Y0124409D02*
X0150984Y0124409D01*
X0150394Y0123819D02*
X0150394Y0125000D01*
X0152165Y0126772D02*
X0153347Y0126772D01*
X0152756Y0126181D02*
X0152756Y0127362D01*
X0154331Y0139764D02*
X0155512Y0139764D01*
X0154921Y0139173D02*
X0154921Y0140354D01*
X0156890Y0126772D02*
X0158071Y0126772D01*
X0157480Y0126181D02*
X0157480Y0127362D01*
X0161221Y0125984D02*
X0162402Y0125984D01*
X0161811Y0125394D02*
X0161811Y0126575D01*
X0228740Y0087598D02*
X0229921Y0087598D01*
X0229331Y0087008D02*
X0229331Y0088189D01*
X0236811Y0094882D02*
X0237992Y0094882D01*
X0237402Y0094291D02*
X0237402Y0095472D01*
X0182087Y0096457D02*
X0183268Y0096457D01*
X0182677Y0095866D02*
X0182677Y0097047D01*
X0177100Y0120866D02*
X0178281Y0120866D01*
X0177690Y0120276D02*
X0177690Y0121457D01*
X0183234Y0116043D02*
X0184415Y0116043D01*
X0183825Y0115453D02*
X0183825Y0116634D01*
X0184843Y0106102D02*
X0186024Y0106102D01*
X0185433Y0105512D02*
X0185433Y0106693D01*
X0197835Y0115354D02*
X0199016Y0115354D01*
X0198425Y0114764D02*
X0198425Y0115945D01*
X0208465Y0073819D02*
X0209646Y0073819D01*
X0209055Y0073228D02*
X0209055Y0074409D01*
X0182037Y0093444D02*
X0183219Y0093444D01*
X0182628Y0092853D02*
X0182628Y0094034D01*
X0159449Y0096457D02*
X0160630Y0096457D01*
X0160039Y0095866D02*
X0160039Y0097047D01*
X0159449Y0093504D02*
X0160630Y0093504D01*
X0160039Y0092913D02*
X0160039Y0094095D01*
X0156496Y0097047D02*
X0157677Y0097047D01*
X0157087Y0096457D02*
X0157087Y0097638D01*
X0192717Y0059055D02*
X0193898Y0059055D01*
X0193307Y0058465D02*
X0193307Y0059646D01*
X0135039Y0110630D02*
X0136221Y0110630D01*
X0135630Y0110039D02*
X0135630Y0111221D01*
X0140748Y0122047D02*
X0141929Y0122047D01*
X0141339Y0121457D02*
X0141339Y0122638D01*
X0149016Y0094488D02*
X0150197Y0094488D01*
X0149606Y0093898D02*
X0149606Y0095079D01*
X0132087Y0116535D02*
X0133268Y0116535D01*
X0132677Y0115945D02*
X0132677Y0117126D01*
X0158071Y0077953D02*
X0159252Y0077953D01*
X0158661Y0077362D02*
X0158661Y0078543D01*
X0161221Y0064567D02*
X0162402Y0064567D01*
X0161811Y0063976D02*
X0161811Y0065158D01*
X0161024Y0090748D02*
X0162205Y0090748D01*
X0161614Y0090158D02*
X0161614Y0091339D01*
X0161417Y0085039D02*
X0162598Y0085039D01*
X0162008Y0084449D02*
X0162008Y0085630D01*
X0114069Y0044187D02*
X0115250Y0044187D01*
X0114659Y0043596D02*
X0114659Y0044777D01*
X0125197Y0083268D02*
X0126378Y0083268D01*
X0125787Y0082677D02*
X0125787Y0083858D01*
X0080512Y0121653D02*
X0081693Y0121653D01*
X0081102Y0121063D02*
X0081102Y0122244D01*
X0076968Y0122638D02*
X0078150Y0122638D01*
X0077559Y0122047D02*
X0077559Y0123228D01*
X0125197Y0072835D02*
X0126378Y0072835D01*
X0125787Y0072244D02*
X0125787Y0073425D01*
X0121260Y0072835D02*
X0122441Y0072835D01*
X0121850Y0072244D02*
X0121850Y0073425D01*
X0129528Y0072638D02*
X0130709Y0072638D01*
X0130118Y0072047D02*
X0130118Y0073228D01*
X0265748Y0113976D02*
X0266929Y0113976D01*
X0266339Y0113386D02*
X0266339Y0114567D01*
X0271654Y0113976D02*
X0272835Y0113976D01*
X0272244Y0113386D02*
X0272244Y0114567D01*
X0162402Y0081890D02*
X0163583Y0081890D01*
X0162992Y0081299D02*
X0162992Y0082480D01*
X0163189Y0078543D02*
X0164370Y0078543D01*
X0163779Y0077953D02*
X0163779Y0079134D01*
X0080905Y0067716D02*
X0082087Y0067716D01*
X0081496Y0067126D02*
X0081496Y0068307D01*
X0054528Y0030118D02*
X0055709Y0030118D01*
X0055118Y0029528D02*
X0055118Y0030709D01*
X0221850Y0091142D02*
X0223031Y0091142D01*
X0222441Y0090551D02*
X0222441Y0091732D01*
X0219291Y0085433D02*
X0220472Y0085433D01*
X0219882Y0084842D02*
X0219882Y0086024D01*
X0211811Y0083071D02*
X0212992Y0083071D01*
X0212402Y0082480D02*
X0212402Y0083661D01*
X0214567Y0087795D02*
X0215748Y0087795D01*
X0215158Y0087205D02*
X0215158Y0088386D01*
X0060827Y0049409D02*
X0062008Y0049409D01*
X0061417Y0048819D02*
X0061417Y0050000D01*
X0047638Y0101969D02*
X0048819Y0101969D01*
X0048228Y0101378D02*
X0048228Y0102559D01*
X0050197Y0098819D02*
X0051378Y0098819D01*
X0050787Y0098228D02*
X0050787Y0099410D01*
X0050591Y0104724D02*
X0051772Y0104724D01*
X0051181Y0104134D02*
X0051181Y0105315D01*
X0195079Y0099213D02*
X0196260Y0099213D01*
X0195669Y0098622D02*
X0195669Y0099803D01*
X0192323Y0100984D02*
X0193504Y0100984D01*
X0192913Y0100394D02*
X0192913Y0101575D01*
X0190354Y0116043D02*
X0191535Y0116043D01*
X0190945Y0115453D02*
X0190945Y0116634D01*
X0189173Y0102559D02*
X0190354Y0102559D01*
X0189764Y0101969D02*
X0189764Y0103150D01*
X0190945Y0105905D02*
X0192126Y0105905D01*
X0191535Y0105315D02*
X0191535Y0106496D01*
X0187992Y0105905D02*
X0189173Y0105905D01*
X0188583Y0105315D02*
X0188583Y0106496D01*
X0197835Y0097244D02*
X0199016Y0097244D01*
X0198425Y0096653D02*
X0198425Y0097835D01*
X0170472Y0069488D02*
X0171653Y0069488D01*
X0171063Y0068898D02*
X0171063Y0070079D01*
X0043504Y0131299D02*
X0044685Y0131299D01*
X0044094Y0130709D02*
X0044094Y0131890D01*
X0055709Y0125787D02*
X0056890Y0125787D01*
X0056299Y0125197D02*
X0056299Y0126378D01*
X0115748Y0050590D02*
X0116929Y0050590D01*
X0116339Y0050000D02*
X0116339Y0051181D01*
X0120669Y0053150D02*
X0121850Y0053150D01*
X0121260Y0052559D02*
X0121260Y0053740D01*
X0121063Y0047441D02*
X0122244Y0047441D01*
X0121653Y0046850D02*
X0121653Y0048031D01*
X0142126Y0062598D02*
X0143307Y0062598D01*
X0142717Y0062008D02*
X0142717Y0063189D01*
X0141535Y0073032D02*
X0142717Y0073032D01*
X0142126Y0072441D02*
X0142126Y0073622D01*
X0141929Y0067716D02*
X0143110Y0067716D01*
X0142520Y0067126D02*
X0142520Y0068307D01*
X0148228Y0082087D02*
X0149409Y0082087D01*
X0148819Y0081496D02*
X0148819Y0082677D01*
X0117126Y0100000D02*
X0118307Y0100000D01*
X0117717Y0099410D02*
X0117717Y0100591D01*
X0109843Y0056496D02*
X0111024Y0056496D01*
X0110433Y0055905D02*
X0110433Y0057087D01*
X0109843Y0060433D02*
X0111024Y0060433D01*
X0110433Y0059842D02*
X0110433Y0061024D01*
X0149213Y0068701D02*
X0150394Y0068701D01*
X0149803Y0068110D02*
X0149803Y0069291D01*
X0161221Y0068110D02*
X0162402Y0068110D01*
X0161811Y0067520D02*
X0161811Y0068701D01*
X0150591Y0073425D02*
X0151772Y0073425D01*
X0151181Y0072835D02*
X0151181Y0074016D01*
X0144882Y0073228D02*
X0146063Y0073228D01*
X0145472Y0072638D02*
X0145472Y0073819D01*
X0128543Y0095276D02*
X0129724Y0095276D01*
X0129134Y0094685D02*
X0129134Y0095866D01*
X0131693Y0112205D02*
X0132874Y0112205D01*
X0132283Y0111614D02*
X0132283Y0112795D01*
X0138386Y0091732D02*
X0139567Y0091732D01*
X0138976Y0091142D02*
X0138976Y0092323D01*
X0118307Y0073032D02*
X0119488Y0073032D01*
X0118898Y0072441D02*
X0118898Y0073622D01*
X0131693Y0064567D02*
X0132874Y0064567D01*
X0132283Y0063976D02*
X0132283Y0065158D01*
X0136024Y0076772D02*
X0137205Y0076772D01*
X0136614Y0076181D02*
X0136614Y0077362D01*
X0138583Y0085433D02*
X0139764Y0085433D01*
X0139173Y0084842D02*
X0139173Y0086024D01*
X0135039Y0070669D02*
X0136221Y0070669D01*
X0135630Y0070079D02*
X0135630Y0071260D01*
X0138583Y0074410D02*
X0139764Y0074410D01*
X0139173Y0073819D02*
X0139173Y0075000D01*
X0142126Y0078937D02*
X0143307Y0078937D01*
X0142717Y0078347D02*
X0142717Y0079528D01*
X0147835Y0077756D02*
X0149016Y0077756D01*
X0148425Y0077165D02*
X0148425Y0078347D01*
X0153347Y0078347D02*
X0154528Y0078347D01*
X0153937Y0077756D02*
X0153937Y0078937D01*
X0234252Y0078347D02*
X0235433Y0078347D01*
X0234842Y0077756D02*
X0234842Y0078937D01*
X0217126Y0080709D02*
X0218307Y0080709D01*
X0217717Y0080118D02*
X0217717Y0081299D01*
X0065748Y0072047D02*
X0066929Y0072047D01*
X0066339Y0071457D02*
X0066339Y0072638D01*
X0055315Y0119685D02*
X0056496Y0119685D01*
X0055905Y0119095D02*
X0055905Y0120276D01*
X0062008Y0104528D02*
X0063189Y0104528D01*
X0062598Y0103937D02*
X0062598Y0105118D01*
X0122441Y0098228D02*
X0123622Y0098228D01*
X0123031Y0097638D02*
X0123031Y0098819D01*
X0276575Y0088386D02*
X0277756Y0088386D01*
X0277165Y0087795D02*
X0277165Y0088976D01*
X0262598Y0082087D02*
X0263779Y0082087D01*
X0263189Y0081496D02*
X0263189Y0082677D01*
X0274213Y0070079D02*
X0275394Y0070079D01*
X0274803Y0069488D02*
X0274803Y0070669D01*
X0146457Y0085433D02*
X0147638Y0085433D01*
X0147047Y0084842D02*
X0147047Y0086024D01*
X0080315Y0101181D02*
X0081496Y0101181D01*
X0080905Y0100591D02*
X0080905Y0101772D01*
X0083858Y0097244D02*
X0085039Y0097244D01*
X0084449Y0096653D02*
X0084449Y0097835D01*
X0077165Y0090551D02*
X0078347Y0090551D01*
X0077756Y0089961D02*
X0077756Y0091142D01*
X0080709Y0097244D02*
X0081890Y0097244D01*
X0081299Y0096653D02*
X0081299Y0097835D01*
X0187008Y0129331D02*
X0188189Y0129331D01*
X0187598Y0128740D02*
X0187598Y0129921D01*
X0186811Y0126378D02*
X0187992Y0126378D01*
X0187402Y0125787D02*
X0187402Y0126969D01*
X0271063Y0127756D02*
X0272244Y0127756D01*
X0271654Y0127165D02*
X0271654Y0128347D01*
X0260433Y0093898D02*
X0261614Y0093898D01*
X0261024Y0093307D02*
X0261024Y0094488D01*
X0254528Y0070866D02*
X0255709Y0070866D01*
X0255118Y0070276D02*
X0255118Y0071457D01*
X0250984Y0072835D02*
X0252165Y0072835D01*
X0251575Y0072244D02*
X0251575Y0073425D01*
X0254528Y0063189D02*
X0255709Y0063189D01*
X0255118Y0062598D02*
X0255118Y0063779D01*
X0271696Y0072595D02*
X0272877Y0072595D01*
X0272287Y0072004D02*
X0272287Y0073186D01*
X0262795Y0069488D02*
X0263976Y0069488D01*
X0263386Y0068898D02*
X0263386Y0070079D01*
X0260039Y0070866D02*
X0261221Y0070866D01*
X0260630Y0070276D02*
X0260630Y0071457D01*
X0260039Y0048031D02*
X0261221Y0048031D01*
X0260630Y0047441D02*
X0260630Y0048622D01*
X0267126Y0038583D02*
X0268307Y0038583D01*
X0267717Y0037992D02*
X0267717Y0039173D01*
M02*
