G04*
G04 #@! TF.GenerationSoftware,Altium Limited,Altium Designer,26.4.1 (12)*
G04*
G04 Layer_Color=16711935*
%FSAX25Y25*%
%MOIN*%
G70*
G04*
G04 #@! TF.SameCoordinates,FABC8FAD-0A80-49CE-8C30-7373FE94190F*
G04*
G04*
G04 #@! TF.FilePolarity,Negative*
G04*
G01*
G75*
%ADD118O,0.09055X0.04724*%
%ADD119O,0.07874X0.04724*%
%ADD127C,0.24410*%
%ADD128C,0.00787*%
%ADD129C,0.06693*%
%ADD130R,0.06693X0.06693*%
%ADD131R,0.06693X0.06693*%
G36*
X0193268Y0140000D02*
X0186575Y0140000D01*
X0186575Y0150039D01*
X0193268Y0150039D01*
X0193268Y0140000D01*
X0193268Y0140000D02*
G37*
G36*
X0183268Y0140000D02*
X0176575Y0140000D01*
X0176575Y0150039D01*
X0183268Y0150039D01*
X0183268Y0140000D01*
X0183268Y0140000D02*
G37*
G36*
X0173268Y0140000D02*
X0166575Y0140000D01*
X0166575Y0150039D01*
X0173268Y0150039D01*
X0173268Y0140000D01*
X0173268Y0140000D02*
G37*
G36*
X0163268Y0140000D02*
X0156575Y0140000D01*
X0156575Y0150039D01*
X0163268Y0150039D01*
X0163268Y0140000D01*
X0163268Y0140000D02*
G37*
G36*
X0153268Y0140000D02*
X0146575Y0140000D01*
X0146575Y0150039D01*
X0153268Y0150039D01*
X0153268Y0140000D01*
X0153268Y0140000D02*
G37*
G36*
X0143268Y0140000D02*
X0136575Y0140000D01*
X0136575Y0150039D01*
X0143268Y0150039D01*
X0143268Y0140000D01*
X0143268Y0140000D02*
G37*
G36*
X0133268Y0140000D02*
X0126575Y0140000D01*
X0126575Y0150039D01*
X0133268Y0150039D01*
X0133268Y0140000D01*
X0133268Y0140000D02*
G37*
G36*
X0123268Y0140000D02*
X0116575Y0140000D01*
X0116575Y0150039D01*
X0123268Y0150039D01*
X0123268Y0140000D01*
X0123268Y0140000D02*
G37*
G36*
X0113268Y0140000D02*
X0106575Y0140000D01*
X0106575Y0150039D01*
X0113268Y0150039D01*
X0113268Y0140000D01*
X0113268Y0140000D02*
G37*
G36*
X0103268Y0140000D02*
X0096575Y0140000D01*
X0096575Y0150039D01*
X0103268Y0150039D01*
X0103268Y0140000D01*
X0103268Y0140000D02*
G37*
G36*
X0093268Y0140000D02*
X0086575Y0140000D01*
X0086575Y0150039D01*
X0093268Y0150039D01*
X0093268Y0140000D01*
X0093268Y0140000D02*
G37*
G36*
X0083268Y0140000D02*
X0076575Y0140000D01*
X0076575Y0150039D01*
X0083268Y0150039D01*
X0083268Y0140000D01*
X0083268Y0140000D02*
G37*
G36*
X0073268Y0140000D02*
X0066575Y0140000D01*
X0066575Y0150039D01*
X0073268Y0150039D01*
X0073268Y0140000D01*
X0073268Y0140000D02*
G37*
G36*
X0063268Y0140000D02*
X0056575Y0140000D01*
X0056575Y0150039D01*
X0063268Y0150039D01*
X0063268Y0140000D01*
X0063268Y0140000D02*
G37*
G36*
X0053268Y0140000D02*
X0046575Y0140000D01*
X0046575Y0150039D01*
X0053268Y0150039D01*
X0053268Y0140000D01*
X0053268Y0140000D02*
G37*
G36*
X0043268Y0140000D02*
X0036575Y0140000D01*
X0036575Y0150039D01*
X0043268Y0150039D01*
X0043268Y0140000D01*
X0043268Y0140000D02*
G37*
G36*
X0299961Y0076653D02*
X0289921Y0076653D01*
X0289921Y0083346D01*
X0299961Y0083346D01*
X0299961Y0076653D01*
X0299961Y0076653D02*
G37*
G36*
X0299961Y0066654D02*
X0289921Y0066654D01*
X0289921Y0073347D01*
X0299961Y0073347D01*
X0299961Y0066654D01*
X0299961Y0066654D02*
G37*
G36*
X0299961Y0056653D02*
X0289921Y0056653D01*
X0289921Y0063346D01*
X0299961Y0063346D01*
X0299961Y0056653D01*
X0299961Y0056653D02*
G37*
G36*
X0299961Y0046654D02*
X0289921Y0046654D01*
X0289921Y0053347D01*
X0299961Y0053347D01*
X0299961Y0046654D01*
X0299961Y0046654D02*
G37*
G36*
X0299961Y0036654D02*
X0289921Y0036654D01*
X0289921Y0043347D01*
X0299961Y0043347D01*
X0299961Y0036654D01*
X0299961Y0036654D02*
G37*
G36*
X0193268Y0000000D02*
X0186575Y0000000D01*
X0186575Y0010039D01*
X0193268Y0010039D01*
X0193268Y0000000D01*
X0193268Y0000000D02*
G37*
G36*
X0183268Y0000000D02*
X0176575Y0000000D01*
X0176575Y0010039D01*
X0183268Y0010039D01*
X0183268Y0000000D01*
X0183268Y0000000D02*
G37*
G36*
X0173268Y0000000D02*
X0166575Y0000000D01*
X0166575Y0010039D01*
X0173268Y0010039D01*
X0173268Y0000000D01*
X0173268Y0000000D02*
G37*
G36*
X0163268Y0000000D02*
X0156575Y0000000D01*
X0156575Y0010039D01*
X0163268Y0010039D01*
X0163268Y0000000D01*
X0163268Y0000000D02*
G37*
G36*
X0153268Y0000000D02*
X0146575Y0000000D01*
X0146575Y0010039D01*
X0153268Y0010039D01*
X0153268Y0000000D01*
X0153268Y0000000D02*
G37*
G36*
X0143268Y0000000D02*
X0136575Y0000000D01*
X0136575Y0010039D01*
X0143268Y0010039D01*
X0143268Y0000000D01*
X0143268Y0000000D02*
G37*
G36*
X0133268Y0000000D02*
X0126575Y0000000D01*
X0126575Y0010039D01*
X0133268Y0010039D01*
X0133268Y0000000D01*
X0133268Y0000000D02*
G37*
G36*
X0123268Y0000000D02*
X0116575Y0000000D01*
X0116575Y0010039D01*
X0123268Y0010039D01*
X0123268Y0000000D01*
X0123268Y0000000D02*
G37*
G36*
X0113268Y0000000D02*
X0106575Y0000000D01*
X0106575Y0010039D01*
X0113268Y0010039D01*
X0113268Y0000000D01*
X0113268Y0000000D02*
G37*
G36*
X0103268Y0000000D02*
X0096575Y0000000D01*
X0096575Y0010039D01*
X0103268Y0010039D01*
X0103268Y0000000D01*
X0103268Y0000000D02*
G37*
G36*
X0093268Y0000000D02*
X0086575Y0000000D01*
X0086575Y0010039D01*
X0093268Y0010039D01*
X0093268Y0000000D01*
X0093268Y0000000D02*
G37*
G36*
X0083268Y0000000D02*
X0076575Y0000000D01*
X0076575Y0010039D01*
X0083268Y0010039D01*
X0083268Y0000000D01*
X0083268Y0000000D02*
G37*
G36*
X0073268Y0000000D02*
X0066575Y0000000D01*
X0066575Y0010039D01*
X0073268Y0010039D01*
X0073268Y0000000D01*
X0073268Y0000000D02*
G37*
G36*
X0063268Y0000000D02*
X0056575Y0000000D01*
X0056575Y0010039D01*
X0063268Y0010039D01*
X0063268Y0000000D01*
X0063268Y0000000D02*
G37*
G36*
X0053268Y0000000D02*
X0046575Y0000000D01*
X0046575Y0010039D01*
X0053268Y0010039D01*
X0053268Y0000000D01*
X0053268Y0000000D02*
G37*
G36*
X0043268Y0000000D02*
X0036575Y0000000D01*
X0036575Y0010039D01*
X0043268Y0010039D01*
X0043268Y0000000D01*
X0043268Y0000000D02*
G37*
D118*
X0026801Y0032402D02*
D03*
X0026801Y0066417D02*
D03*
D119*
X0010345Y0066417D02*
D03*
X0010345Y0032402D02*
D03*
D127*
X0194488Y0075000D02*
D03*
D128*
X0016337Y0089961D02*
D03*
X0016337Y0078150D02*
D03*
X0063583Y0035630D02*
D03*
X0063583Y0114370D02*
D03*
X0024833Y0060787D02*
D03*
X0024833Y0038032D02*
D03*
X0015000Y0015000D02*
D03*
X0015000Y0135000D02*
D03*
X0285000Y0015000D02*
D03*
X0285000Y0135000D02*
D03*
D129*
X0300000Y0040000D02*
D03*
X0300000Y0050000D02*
D03*
X0300000Y0060000D02*
D03*
X0300000Y0070000D02*
D03*
X0300000Y0080000D02*
D03*
X0289921Y0040000D02*
D03*
X0289921Y0050000D02*
D03*
X0289921Y0060000D02*
D03*
X0289921Y0070000D02*
D03*
X0189921Y0150079D02*
D03*
X0179921Y0150079D02*
D03*
X0169921Y0150079D02*
D03*
X0159921Y0150079D02*
D03*
X0149921Y0150079D02*
D03*
X0139921Y0150079D02*
D03*
X0129921Y0150079D02*
D03*
X0119921Y0150079D02*
D03*
X0109921Y0150079D02*
D03*
X0099921Y0150079D02*
D03*
X0089921Y0150079D02*
D03*
X0079921Y0150079D02*
D03*
X0069921Y0150079D02*
D03*
X0059921Y0150079D02*
D03*
X0049921Y0150079D02*
D03*
X0039921Y0150079D02*
D03*
X0189921Y0140000D02*
D03*
X0179921Y0140000D02*
D03*
X0169921Y0140000D02*
D03*
X0159921Y0140000D02*
D03*
X0149921Y0140000D02*
D03*
X0139921Y0140000D02*
D03*
X0129921Y0140000D02*
D03*
X0119921Y0140000D02*
D03*
X0109921Y0140000D02*
D03*
X0099921Y0140000D02*
D03*
X0089921Y0140000D02*
D03*
X0079921Y0140000D02*
D03*
X0069921Y0140000D02*
D03*
X0059921Y0140000D02*
D03*
X0049921Y0140000D02*
D03*
X0179921Y0010039D02*
D03*
X0169921Y0010039D02*
D03*
X0159921Y0010039D02*
D03*
X0149921Y0010039D02*
D03*
X0139921Y0010039D02*
D03*
X0129921Y0010039D02*
D03*
X0119921Y0010039D02*
D03*
X0109921Y0010039D02*
D03*
X0099921Y0010039D02*
D03*
X0089921Y0010039D02*
D03*
X0079921Y0010039D02*
D03*
X0069921Y0010039D02*
D03*
X0059921Y0010039D02*
D03*
X0049921Y0010039D02*
D03*
X0039921Y0010039D02*
D03*
X0189921Y-0000039D02*
D03*
X0179921Y-0000039D02*
D03*
X0169921Y-0000039D02*
D03*
X0159921Y-0000039D02*
D03*
X0149921Y-0000039D02*
D03*
X0139921Y-0000039D02*
D03*
X0129921Y-0000039D02*
D03*
X0119921Y-0000039D02*
D03*
X0109921Y-0000039D02*
D03*
X0099921Y-0000039D02*
D03*
X0089921Y-0000039D02*
D03*
X0079921Y-0000039D02*
D03*
X0069921Y-0000039D02*
D03*
X0059921Y-0000039D02*
D03*
X0049921Y-0000039D02*
D03*
X0039921Y-0000039D02*
D03*
D130*
X0289921Y0080000D02*
D03*
D131*
X0039921Y0140000D02*
D03*
X0189921Y0010039D02*
D03*
M02*
