G04*
G04 #@! TF.GenerationSoftware,Altium Limited,Altium Designer,26.2.0 (7)*
G04*
G04 Layer_Color=0*
%FSAX25Y25*%
%MOIN*%
G70*
G04*
G04 #@! TF.SameCoordinates,6F588426-EFF3-43FE-91C9-25BE94872BC7*
G04*
G04*
G04 #@! TF.FilePolarity,Positive*
G04*
G01*
G75*
%ADD16C,0.01000*%
%ADD191C,0.00500*%
%ADD192C,0.00700*%
G36*
X0316411Y-0191320D02*
X0317156Y-0191498D01*
X0317863Y-0191791D01*
X0318516Y-0192192D01*
X0318643Y-0192300D01*
X0318643Y-0192300D01*
X0318901Y-0192521D01*
X0318912Y-0192509D01*
X0318901Y-0192521D01*
X0319097Y-0192688D01*
X0319097Y-0192688D01*
X0319099Y-0192687D01*
X0319099Y-0192687D01*
X0350190Y-0223779D01*
X0350190Y-0223779D01*
X0350190Y-0223779D01*
X0350189Y-0223780D01*
X0350189Y-0223781D01*
X0350340Y-0223957D01*
X0350340Y-0223958D01*
X0350686Y-0224362D01*
X0351086Y-0225015D01*
X0351379Y-0225722D01*
X0351557Y-0226467D01*
X0351617Y-0227230D01*
X0351557Y-0227993D01*
X0351379Y-0228737D01*
X0351086Y-0229445D01*
X0350686Y-0230098D01*
X0350577Y-0230225D01*
X0350576Y-0230225D01*
X0350355Y-0230484D01*
X0350355Y-0230484D01*
X0350189Y-0230679D01*
X0350188Y-0230679D01*
X0350190Y-0230681D01*
X0350190Y-0230681D01*
X0319099Y-0261772D01*
X0319099Y-0261772D01*
X0319074Y-0261797D01*
X0319070Y-0261794D01*
X0318865Y-0261968D01*
X0318875Y-0261980D01*
X0318865Y-0261968D01*
X0318515Y-0262268D01*
X0317868Y-0262664D01*
X0317768Y-0262706D01*
X0317172Y-0262953D01*
X0317172Y-0262953D01*
X0317164Y-0262956D01*
X0316660Y-0263077D01*
X0316660Y-0248569D01*
X0320148Y-0248569D01*
X0320151Y-0248568D01*
X0320153Y-0248564D01*
X0320153Y-0242083D01*
X0327860Y-0242083D01*
X0327863Y-0242082D01*
X0327865Y-0242078D01*
X0327865Y-0235488D01*
X0330919Y-0235488D01*
X0330932Y-0235530D01*
X0330932Y-0235530D01*
X0330922Y-0235533D01*
X0330987Y-0235691D01*
X0330987Y-0235691D01*
X0331158Y-0236103D01*
X0331207Y-0236184D01*
X0331207Y-0236184D01*
X0331368Y-0236446D01*
X0331453Y-0236586D01*
X0331453Y-0236586D01*
X0331486Y-0236638D01*
X0331529Y-0236689D01*
X0331535Y-0236685D01*
X0331535Y-0236685D01*
X0331529Y-0236689D01*
X0331600Y-0236772D01*
X0331601Y-0236771D01*
X0331601Y-0236771D01*
X0331600Y-0236772D01*
X0331663Y-0236846D01*
X0331663Y-0236846D01*
X0331663Y-0236846D01*
X0331663Y-0236846D01*
X0331663Y-0236846D01*
X0331720Y-0236912D01*
X0331720Y-0236912D01*
X0331773Y-0236975D01*
X0331773Y-0236975D01*
X0331823Y-0237033D01*
X0331819Y-0237036D01*
X0331867Y-0237094D01*
X0331879Y-0237082D01*
X0331879Y-0237082D01*
X0331879Y-0237082D01*
X0331879Y-0237082D01*
X0331879Y-0237082D01*
X0331871Y-0237089D01*
X0332324Y-0237476D01*
X0332845Y-0237795D01*
X0333409Y-0238029D01*
X0334002Y-0238172D01*
X0334607Y-0238219D01*
X0334607Y-0238208D01*
X0334607Y-0238208D01*
X0334645Y-0238208D01*
X0334645Y-0238208D01*
X0334645Y-0238208D01*
X0334645Y-0238208D01*
X0334645Y-0238208D01*
X0334645Y-0238216D01*
X0334855Y-0238200D01*
X0334855Y-0238200D01*
X0335216Y-0238172D01*
X0335804Y-0238030D01*
X0336060Y-0237924D01*
X0336060Y-0237924D01*
X0336060Y-0237924D01*
X0336365Y-0237798D01*
X0336569Y-0237673D01*
X0336887Y-0237478D01*
X0337342Y-0237089D01*
X0337335Y-0237082D01*
X0337335Y-0237082D01*
X0337335Y-0237082D01*
X0337342Y-0237089D01*
X0337543Y-0236854D01*
X0337544Y-0236854D01*
X0337544Y-0236854D01*
X0337544Y-0236854D01*
X0337544Y-0236854D01*
X0337544Y-0236853D01*
X0337735Y-0236629D01*
X0337771Y-0236570D01*
X0337765Y-0236566D01*
X0337771Y-0236570D01*
X0337949Y-0236280D01*
X0337949Y-0236280D01*
X0338058Y-0236103D01*
X0338289Y-0235544D01*
X0338430Y-0234955D01*
X0338446Y-0234760D01*
X0338444Y-0234760D01*
X0338446Y-0234760D01*
X0338464Y-0234525D01*
X0338462Y-0234524D01*
X0338464Y-0234525D01*
X0338478Y-0234346D01*
X0338478Y-0234346D01*
X0338478Y-0234346D01*
X0338470Y-0234248D01*
X0338465Y-0234248D01*
X0338465Y-0234248D01*
X0338470Y-0234248D01*
X0338431Y-0233744D01*
X0338289Y-0233156D01*
X0338058Y-0232597D01*
X0337742Y-0232082D01*
X0337585Y-0231898D01*
X0337352Y-0231625D01*
X0337342Y-0231616D01*
X0337343Y-0231615D01*
X0337341Y-0231613D01*
X0336957Y-0231285D01*
X0336957Y-0231285D01*
X0336957Y-0231285D01*
X0336954Y-0231289D01*
X0336957Y-0231285D01*
X0336874Y-0231214D01*
X0336525Y-0231000D01*
X0336525Y-0231000D01*
X0336355Y-0230896D01*
X0335799Y-0230666D01*
X0335418Y-0230575D01*
X0335418Y-0230576D01*
X0335418Y-0230575D01*
X0335214Y-0230526D01*
X0335011Y-0230510D01*
X0335011Y-0230510D01*
X0335011Y-0230510D01*
X0334785Y-0230492D01*
X0334785Y-0230494D01*
X0334785Y-0230494D01*
X0334785Y-0230492D01*
X0334607Y-0230478D01*
X0334606Y-0230478D01*
X0334606Y-0230489D01*
X0334606Y-0230478D01*
X0334003Y-0230526D01*
X0333413Y-0230667D01*
X0332853Y-0230899D01*
X0332336Y-0231216D01*
X0331874Y-0231610D01*
X0331870Y-0231616D01*
X0331878Y-0231623D01*
X0331878Y-0231623D01*
X0331870Y-0231616D01*
X0331478Y-0232076D01*
X0331382Y-0232232D01*
X0331383Y-0232234D01*
X0331382Y-0232232D01*
X0331255Y-0232438D01*
X0331255Y-0232438D01*
X0331160Y-0232594D01*
X0331160Y-0232594D01*
X0331156Y-0232601D01*
X0331098Y-0232740D01*
X0331100Y-0232741D01*
X0331098Y-0232740D01*
X0331044Y-0232872D01*
X0331043Y-0232874D01*
X0331043Y-0232874D01*
X0331042Y-0232875D01*
X0330991Y-0233000D01*
X0330939Y-0233124D01*
X0330947Y-0233127D01*
X0330909Y-0233251D01*
X0325640Y-0233251D01*
X0325636Y-0233253D01*
X0325635Y-0233256D01*
X0325635Y-0239848D01*
X0320152Y-0239848D01*
X0320152Y-0228734D01*
X0330704Y-0228734D01*
X0330707Y-0228733D01*
X0330709Y-0228729D01*
X0330709Y-0220956D01*
X0331012Y-0220883D01*
X0331280Y-0220772D01*
X0331280Y-0220772D01*
X0331282Y-0220771D01*
X0331560Y-0220656D01*
X0331633Y-0220611D01*
X0331632Y-0220610D01*
X0331630Y-0220606D01*
X0331630Y-0220606D01*
X0331632Y-0220610D01*
X0331633Y-0220611D01*
X0331633Y-0220611D01*
X0331633Y-0220611D01*
X0331909Y-0220442D01*
X0331909Y-0220442D01*
X0332073Y-0220341D01*
X0332186Y-0220245D01*
X0332184Y-0220243D01*
X0332186Y-0220245D01*
X0332535Y-0219947D01*
X0332527Y-0219939D01*
X0332527Y-0219939D01*
X0332527Y-0219939D01*
X0332535Y-0219946D01*
X0332666Y-0219792D01*
X0332666Y-0219792D01*
X0332909Y-0219508D01*
X0332901Y-0219502D01*
X0332901Y-0219502D01*
X0332909Y-0219508D01*
X0332929Y-0219484D01*
X0333077Y-0219242D01*
X0333078Y-0219242D01*
X0333078Y-0219241D01*
X0333078Y-0219241D01*
X0333078Y-0219241D01*
X0333238Y-0218981D01*
X0333237Y-0218980D01*
X0333252Y-0218957D01*
X0333369Y-0218673D01*
X0333369Y-0218673D01*
X0333370Y-0218671D01*
X0333484Y-0218397D01*
X0333609Y-0217874D01*
X0333602Y-0217872D01*
X0333602Y-0217872D01*
X0333610Y-0217874D01*
X0333624Y-0217813D01*
X0333654Y-0217430D01*
X0333672Y-0217209D01*
X0333672Y-0217209D01*
X0333660Y-0217209D01*
X0333660Y-0217209D01*
X0333660Y-0217209D01*
X0333672Y-0217209D01*
X0333665Y-0217123D01*
X0333665Y-0217123D01*
X0333649Y-0216921D01*
X0333649Y-0216920D01*
X0333649Y-0216920D01*
X0333649Y-0216920D01*
X0333649Y-0216920D01*
X0333649Y-0216919D01*
X0333624Y-0216600D01*
X0333483Y-0216015D01*
X0333292Y-0215553D01*
X0333292Y-0215553D01*
X0333253Y-0215458D01*
X0333013Y-0215066D01*
X0333013Y-0215066D01*
X0332935Y-0214939D01*
X0332536Y-0214472D01*
X0332536Y-0214472D01*
X0332536Y-0214472D01*
X0332152Y-0214144D01*
X0332152Y-0214144D01*
X0332152Y-0214144D01*
X0332151Y-0214145D01*
X0332149Y-0214148D01*
X0332149Y-0214148D01*
X0332151Y-0214145D01*
X0332152Y-0214144D01*
X0332068Y-0214072D01*
X0331717Y-0213857D01*
X0331717Y-0213857D01*
X0331549Y-0213754D01*
X0330993Y-0213524D01*
X0330623Y-0213435D01*
X0330623Y-0213435D01*
X0330408Y-0213383D01*
X0330207Y-0213367D01*
X0330207Y-0213368D01*
X0330207Y-0213367D01*
X0329978Y-0213349D01*
X0329977Y-0213350D01*
X0329978Y-0213349D01*
X0329799Y-0213335D01*
X0329799Y-0213335D01*
X0329799Y-0213335D01*
X0329799Y-0213335D01*
X0329729Y-0213341D01*
X0329729Y-0213341D01*
X0329362Y-0213370D01*
X0329362Y-0213372D01*
X0329362Y-0213370D01*
X0329194Y-0213383D01*
X0328608Y-0213524D01*
X0328052Y-0213754D01*
X0327539Y-0214069D01*
X0327406Y-0214183D01*
X0327406Y-0214183D01*
X0327406Y-0214183D01*
X0327406Y-0214183D01*
X0327407Y-0214184D01*
X0327407Y-0214184D01*
X0327406Y-0214183D01*
X0327406Y-0214183D01*
X0327085Y-0214456D01*
X0327071Y-0214473D01*
X0327071Y-0214473D01*
X0327054Y-0214487D01*
X0326665Y-0214943D01*
X0326352Y-0215453D01*
X0326123Y-0216007D01*
X0326089Y-0216147D01*
X0326089Y-0216147D01*
X0326006Y-0216493D01*
X0326011Y-0216494D01*
X0326011Y-0216494D01*
X0326006Y-0216493D01*
X0325982Y-0216592D01*
X0325972Y-0216726D01*
X0325972Y-0216726D01*
X0325957Y-0216910D01*
X0325957Y-0216911D01*
X0325957Y-0216911D01*
X0325957Y-0216912D01*
X0325945Y-0217069D01*
X0325948Y-0217069D01*
X0325945Y-0217069D01*
X0325934Y-0217209D01*
X0325934Y-0217209D01*
X0325934Y-0217209D01*
X0325936Y-0217231D01*
X0325946Y-0217231D01*
X0325946Y-0217231D01*
X0325936Y-0217231D01*
X0325949Y-0217399D01*
X0325965Y-0217605D01*
X0325965Y-0217605D01*
X0325982Y-0217820D01*
X0326122Y-0218405D01*
X0326353Y-0218961D01*
X0326354Y-0218962D01*
X0326354Y-0218963D01*
X0326593Y-0219353D01*
X0326595Y-0219351D01*
X0326593Y-0219353D01*
X0326670Y-0219479D01*
X0326825Y-0219660D01*
X0326825Y-0219660D01*
X0326825Y-0219660D01*
X0327069Y-0219947D01*
X0327078Y-0219939D01*
X0327078Y-0219939D01*
X0327078Y-0219939D01*
X0327070Y-0219947D01*
X0327246Y-0220097D01*
X0327520Y-0220331D01*
X0327526Y-0220323D01*
X0327520Y-0220332D01*
X0327529Y-0220339D01*
X0327926Y-0220583D01*
X0327926Y-0220583D01*
X0328054Y-0220661D01*
X0328482Y-0220838D01*
X0328482Y-0226504D01*
X0317930Y-0226504D01*
X0317926Y-0226505D01*
X0317925Y-0226509D01*
X0317925Y-0231930D01*
X0312893Y-0231930D01*
X0312893Y-0219313D01*
X0319270Y-0219313D01*
X0319274Y-0219312D01*
X0319275Y-0219308D01*
X0319275Y-0206873D01*
X0319629Y-0206788D01*
X0319840Y-0206700D01*
X0319840Y-0206700D01*
X0320189Y-0206556D01*
X0320711Y-0206236D01*
X0321175Y-0205840D01*
X0321174Y-0205838D01*
X0321187Y-0205827D01*
X0321577Y-0205371D01*
X0321891Y-0204859D01*
X0322035Y-0204511D01*
X0322035Y-0204511D01*
X0322121Y-0204303D01*
X0322234Y-0203830D01*
X0322230Y-0203830D01*
X0322235Y-0203830D01*
X0322262Y-0203715D01*
X0322278Y-0203517D01*
X0322277Y-0203517D01*
X0322278Y-0203517D01*
X0322296Y-0203288D01*
X0322295Y-0203288D01*
X0322296Y-0203288D01*
X0322310Y-0203101D01*
X0322310Y-0203101D01*
X0322311Y-0203101D01*
X0322311Y-0203101D01*
X0322300Y-0202970D01*
X0322296Y-0202970D01*
X0322300Y-0202970D01*
X0322288Y-0202819D01*
X0322289Y-0202819D01*
X0322288Y-0202818D01*
X0322288Y-0202818D01*
X0322288Y-0202818D01*
X0322274Y-0202640D01*
X0322274Y-0202640D01*
X0322262Y-0202484D01*
X0322246Y-0202418D01*
X0322246Y-0202418D01*
X0322121Y-0201898D01*
X0321892Y-0201345D01*
X0321580Y-0200835D01*
X0321551Y-0200802D01*
X0321551Y-0200802D01*
X0321188Y-0200376D01*
X0321174Y-0200364D01*
X0321174Y-0200364D01*
X0321164Y-0200352D01*
X0320705Y-0199961D01*
X0320191Y-0199646D01*
X0319634Y-0199415D01*
X0319048Y-0199274D01*
X0318765Y-0199252D01*
X0318765Y-0199252D01*
X0318765Y-0199252D01*
X0318764Y-0199251D01*
X0318764Y-0199252D01*
X0318446Y-0199227D01*
X0318446Y-0199227D01*
X0318446Y-0199227D01*
X0318446Y-0199227D01*
X0318369Y-0199233D01*
X0318369Y-0199233D01*
X0318152Y-0199250D01*
X0318151Y-0199249D01*
X0318151Y-0199250D01*
X0318151Y-0199250D01*
X0318151Y-0199250D01*
X0318150Y-0199250D01*
X0317839Y-0199274D01*
X0317253Y-0199415D01*
X0316965Y-0199534D01*
X0316965Y-0199534D01*
X0316965Y-0199534D01*
X0316965Y-0199534D01*
X0316695Y-0199646D01*
X0316425Y-0199811D01*
X0316425Y-0199812D01*
X0316425Y-0199812D01*
X0316424Y-0199812D01*
X0316424Y-0199812D01*
X0316176Y-0199964D01*
X0315710Y-0200362D01*
X0315709Y-0200363D01*
X0315709Y-0200363D01*
X0315441Y-0200677D01*
X0315441Y-0200677D01*
X0315311Y-0200829D01*
X0315128Y-0201128D01*
X0315128Y-0201128D01*
X0314993Y-0201349D01*
X0314762Y-0201906D01*
X0314663Y-0202319D01*
X0314665Y-0202319D01*
X0314663Y-0202319D01*
X0314621Y-0202492D01*
X0314605Y-0202702D01*
X0314606Y-0202702D01*
X0314605Y-0202702D01*
X0314587Y-0202926D01*
X0314587Y-0202926D01*
X0314587Y-0202926D01*
X0314574Y-0203101D01*
X0314574Y-0203101D01*
X0314574Y-0203101D01*
X0314574Y-0203101D01*
X0314585Y-0203241D01*
X0314585Y-0203241D01*
X0314621Y-0203707D01*
X0314733Y-0204173D01*
X0314737Y-0204172D01*
X0314733Y-0204173D01*
X0314762Y-0204293D01*
X0314995Y-0204856D01*
X0315314Y-0205377D01*
X0315709Y-0205839D01*
X0315717Y-0205831D01*
X0315717Y-0205831D01*
X0315717Y-0205831D01*
X0315725Y-0205839D01*
X0315718Y-0205847D01*
X0315849Y-0205959D01*
X0315850Y-0205958D01*
X0315850Y-0205958D01*
X0315849Y-0205959D01*
X0316019Y-0206104D01*
X0316019Y-0206104D01*
X0316174Y-0206237D01*
X0316581Y-0206486D01*
X0316581Y-0206486D01*
X0316704Y-0206561D01*
X0317039Y-0206700D01*
X0317039Y-0217076D01*
X0310670Y-0217076D01*
X0310667Y-0217078D01*
X0310666Y-0217081D01*
X0310666Y-0234162D01*
X0310667Y-0234166D01*
X0310670Y-0234167D01*
X0317925Y-0234167D01*
X0317925Y-0246348D01*
X0313036Y-0246348D01*
X0313036Y-0237986D01*
X0313035Y-0237982D01*
X0313031Y-0237981D01*
X0304647Y-0237981D01*
X0304647Y-0216180D01*
X0304815Y-0216129D01*
X0304814Y-0216128D01*
X0304815Y-0216129D01*
X0305044Y-0216059D01*
X0305080Y-0216040D01*
X0305074Y-0216027D01*
X0305074Y-0216027D01*
X0305242Y-0215958D01*
X0305242Y-0215958D01*
X0305310Y-0215930D01*
X0305377Y-0215889D01*
X0305376Y-0215887D01*
X0305377Y-0215889D01*
X0305490Y-0215820D01*
X0305490Y-0215820D01*
X0305594Y-0215756D01*
X0305594Y-0215756D01*
X0305594Y-0215756D01*
X0305595Y-0215755D01*
X0305595Y-0215755D01*
X0305595Y-0215755D01*
X0305694Y-0215694D01*
X0305694Y-0215694D01*
X0305791Y-0215635D01*
X0305791Y-0215635D01*
X0305828Y-0215613D01*
X0305878Y-0215570D01*
X0305878Y-0215570D01*
X0305960Y-0215500D01*
X0305960Y-0215500D01*
X0306041Y-0215431D01*
X0306041Y-0215431D01*
X0306041Y-0215431D01*
X0306041Y-0215431D01*
X0306042Y-0215430D01*
X0306122Y-0215361D01*
X0306122Y-0215361D01*
X0306122Y-0215361D01*
X0306205Y-0215291D01*
X0306202Y-0215288D01*
X0306202Y-0215288D01*
X0306205Y-0215291D01*
X0306291Y-0215218D01*
X0306284Y-0215210D01*
X0306284Y-0215210D01*
X0306284Y-0215210D01*
X0306284Y-0215210D01*
X0306307Y-0215187D01*
X0306307Y-0215187D01*
X0306307Y-0215187D01*
X0306307Y-0215187D01*
X0306307Y-0215187D01*
X0306312Y-0215193D01*
X0306599Y-0214857D01*
X0306599Y-0214857D01*
X0306684Y-0214757D01*
X0306795Y-0214576D01*
X0306794Y-0214576D01*
X0306794Y-0214576D01*
X0306795Y-0214576D01*
X0306962Y-0214304D01*
X0306962Y-0214304D01*
X0307007Y-0214230D01*
X0307105Y-0213993D01*
X0307105Y-0213993D01*
X0307239Y-0213670D01*
X0307375Y-0213103D01*
X0307365Y-0213102D01*
X0307365Y-0213102D01*
X0307376Y-0213103D01*
X0307380Y-0213085D01*
X0307410Y-0212699D01*
X0307410Y-0212699D01*
X0307410Y-0212699D01*
X0307410Y-0212699D01*
X0307427Y-0212481D01*
X0307427Y-0212480D01*
X0307428Y-0212480D01*
X0307428Y-0212480D01*
X0307416Y-0212330D01*
X0307413Y-0212331D01*
X0307416Y-0212330D01*
X0307398Y-0212101D01*
X0307398Y-0212101D01*
X0307380Y-0211871D01*
X0307239Y-0211285D01*
X0307125Y-0211009D01*
X0307125Y-0211009D01*
X0307124Y-0211007D01*
X0307008Y-0210728D01*
X0306822Y-0210424D01*
X0306821Y-0210424D01*
X0306821Y-0210424D01*
X0306822Y-0210424D01*
X0306690Y-0210209D01*
X0306292Y-0209743D01*
X0306292Y-0209743D01*
X0306292Y-0209743D01*
X0306291Y-0209741D01*
X0306161Y-0209631D01*
X0305824Y-0209343D01*
X0305642Y-0209231D01*
X0305641Y-0209232D01*
X0305641Y-0209232D01*
X0305642Y-0209231D01*
X0305306Y-0209026D01*
X0304750Y-0208795D01*
X0304307Y-0208689D01*
X0304307Y-0208689D01*
X0304164Y-0208655D01*
X0303950Y-0208638D01*
X0303950Y-0208638D01*
X0303950Y-0208638D01*
X0303730Y-0208620D01*
X0303730Y-0208622D01*
X0303730Y-0208620D01*
X0303555Y-0208607D01*
X0303555Y-0208607D01*
X0303555Y-0208607D01*
X0303555Y-0208607D01*
X0303479Y-0208613D01*
X0303479Y-0208613D01*
X0302952Y-0208654D01*
X0302367Y-0208794D01*
X0302193Y-0208867D01*
X0302193Y-0208867D01*
X0301826Y-0209018D01*
X0301826Y-0209018D01*
X0301808Y-0209026D01*
X0301526Y-0209199D01*
X0301526Y-0209199D01*
X0301525Y-0209199D01*
X0301525Y-0209199D01*
X0301282Y-0209348D01*
X0301214Y-0209407D01*
X0301214Y-0209407D01*
X0300819Y-0209743D01*
X0300827Y-0209751D01*
X0300827Y-0209751D01*
X0300827Y-0209751D01*
X0300819Y-0209744D01*
X0300431Y-0210198D01*
X0300313Y-0210391D01*
X0300313Y-0210391D01*
X0300111Y-0210721D01*
X0299879Y-0211281D01*
X0299737Y-0211871D01*
X0299729Y-0211976D01*
X0299734Y-0211976D01*
X0299729Y-0211976D01*
X0299705Y-0212277D01*
X0299705Y-0212277D01*
X0299689Y-0212480D01*
X0299689Y-0212480D01*
X0299689Y-0212480D01*
X0299689Y-0212480D01*
X0299697Y-0212576D01*
X0299737Y-0213085D01*
X0299825Y-0213450D01*
X0299825Y-0213449D01*
X0299825Y-0213449D01*
X0299825Y-0213450D01*
X0299878Y-0213672D01*
X0299969Y-0213893D01*
X0299970Y-0213893D01*
X0299970Y-0213893D01*
X0299969Y-0213893D01*
X0300096Y-0214198D01*
X0300104Y-0214194D01*
X0300096Y-0214198D01*
X0300112Y-0214237D01*
X0300256Y-0214472D01*
X0300256Y-0214473D01*
X0300256Y-0214473D01*
X0300256Y-0214473D01*
X0300437Y-0214768D01*
X0300442Y-0214774D01*
X0300442Y-0214774D01*
X0300820Y-0215217D01*
X0300827Y-0215210D01*
X0300827Y-0215210D01*
X0300827Y-0215210D01*
X0300820Y-0215217D01*
X0300918Y-0215301D01*
X0300918Y-0215301D01*
X0301134Y-0215485D01*
X0301135Y-0215484D01*
X0301134Y-0215485D01*
X0301274Y-0215605D01*
X0301302Y-0215622D01*
X0301302Y-0215622D01*
X0301463Y-0215721D01*
X0301463Y-0215721D01*
X0301612Y-0215812D01*
X0301754Y-0215899D01*
X0301754Y-0215899D01*
X0301796Y-0215925D01*
X0301904Y-0215969D01*
X0301906Y-0215966D01*
X0301904Y-0215969D01*
X0302061Y-0216034D01*
X0302061Y-0216034D01*
X0302226Y-0216103D01*
X0302226Y-0216104D01*
X0302417Y-0216162D01*
X0302417Y-0228632D01*
X0295537Y-0228632D01*
X0295520Y-0228559D01*
X0295453Y-0228399D01*
X0295453Y-0228399D01*
X0295319Y-0228074D01*
X0295319Y-0228074D01*
X0295283Y-0227986D01*
X0295077Y-0227651D01*
X0295077Y-0227651D01*
X0294963Y-0227465D01*
X0294569Y-0227004D01*
X0294569Y-0227004D01*
X0294565Y-0226999D01*
X0294103Y-0226605D01*
X0293586Y-0226288D01*
X0293025Y-0226056D01*
X0292435Y-0225914D01*
X0292140Y-0225891D01*
X0292139Y-0225891D01*
X0292139Y-0225891D01*
X0292139Y-0225891D01*
X0292138Y-0225891D01*
X0291833Y-0225867D01*
X0291833Y-0225867D01*
X0291833Y-0225867D01*
X0291833Y-0225867D01*
X0291763Y-0225872D01*
X0291229Y-0225915D01*
X0290642Y-0226055D01*
X0290632Y-0226060D01*
X0290636Y-0226070D01*
X0290636Y-0226070D01*
X0290632Y-0226060D01*
X0290082Y-0226288D01*
X0289562Y-0226606D01*
X0289098Y-0227002D01*
X0289097Y-0227004D01*
X0289096Y-0227004D01*
X0288767Y-0227390D01*
X0288767Y-0227390D01*
X0288698Y-0227470D01*
X0288419Y-0227926D01*
X0288419Y-0227926D01*
X0288380Y-0227991D01*
X0288149Y-0228547D01*
X0288018Y-0229094D01*
X0288027Y-0229096D01*
X0288018Y-0229094D01*
X0288009Y-0229131D01*
X0287980Y-0229504D01*
X0287980Y-0229504D01*
X0287962Y-0229734D01*
X0287962Y-0229735D01*
X0287961Y-0229735D01*
X0287963Y-0229757D01*
X0287973Y-0229757D01*
X0287963Y-0229757D01*
X0287978Y-0229942D01*
X0287978Y-0229942D01*
X0287997Y-0230187D01*
X0287997Y-0230187D01*
X0288010Y-0230346D01*
X0288150Y-0230932D01*
X0288306Y-0231309D01*
X0288308Y-0231308D01*
X0288308Y-0231308D01*
X0288306Y-0231309D01*
X0288381Y-0231488D01*
X0288698Y-0232006D01*
X0289092Y-0232467D01*
X0289097Y-0232471D01*
X0289097Y-0232471D01*
X0289106Y-0232481D01*
X0289561Y-0232870D01*
X0290072Y-0233183D01*
X0290503Y-0233361D01*
X0290504Y-0233358D01*
X0290504Y-0233358D01*
X0290503Y-0233361D01*
X0290627Y-0233413D01*
X0291078Y-0233521D01*
X0291078Y-0233521D01*
X0291217Y-0233555D01*
X0291399Y-0233569D01*
X0291399Y-0233567D01*
X0291399Y-0233567D01*
X0291399Y-0233569D01*
X0291637Y-0233588D01*
X0291637Y-0233588D01*
X0291833Y-0233603D01*
X0291833Y-0233603D01*
X0291833Y-0233603D01*
X0291833Y-0233603D01*
X0292020Y-0233588D01*
X0292020Y-0233587D01*
X0292020Y-0233588D01*
X0292251Y-0233570D01*
X0292251Y-0233569D01*
X0292251Y-0233570D01*
X0292449Y-0233555D01*
X0292555Y-0233529D01*
X0292555Y-0233529D01*
X0293039Y-0233413D01*
X0293057Y-0233405D01*
X0293053Y-0233396D01*
X0293057Y-0233405D01*
X0293594Y-0233183D01*
X0294104Y-0232870D01*
X0294560Y-0232481D01*
X0294568Y-0232471D01*
X0294568Y-0232471D01*
X0294579Y-0232462D01*
X0294966Y-0232008D01*
X0295278Y-0231499D01*
X0295507Y-0230947D01*
X0295527Y-0230862D01*
X0302417Y-0230862D01*
X0302417Y-0240213D01*
X0302418Y-0240216D01*
X0302421Y-0240218D01*
X0310801Y-0240218D01*
X0310801Y-0248564D01*
X0310802Y-0248568D01*
X0310806Y-0248569D01*
X0314367Y-0248569D01*
X0314367Y-0248600D01*
X0314367Y-0248600D01*
X0314367Y-0248600D01*
X0314368Y-0248601D01*
X0314369Y-0248603D01*
X0314369Y-0248603D01*
X0314369Y-0248603D01*
X0314370Y-0248604D01*
X0314372Y-0248604D01*
X0314372Y-0248604D01*
X0314372Y-0248604D01*
X0314373Y-0248604D01*
X0314373Y-0248604D01*
X0314373Y-0248604D01*
X0314374Y-0248604D01*
X0314374Y-0248604D01*
X0314374Y-0248604D01*
X0314374Y-0248604D01*
X0314374Y-0248604D01*
X0314374Y-0248604D01*
X0314374Y-0248604D01*
X0314374Y-0248604D01*
X0314375Y-0248604D01*
X0314375Y-0248604D01*
X0314375Y-0248604D01*
X0314375Y-0248604D01*
X0314375Y-0248604D01*
X0314375Y-0248604D01*
X0314375Y-0248604D01*
X0314376Y-0248604D01*
X0314376Y-0248604D01*
X0314376Y-0248604D01*
X0314376Y-0248604D01*
X0314376Y-0248604D01*
X0314376Y-0248604D01*
X0314376Y-0248604D01*
X0314376Y-0248604D01*
X0314376Y-0248604D01*
X0314377Y-0248604D01*
X0314377Y-0248604D01*
X0314377Y-0248604D01*
X0314377Y-0248604D01*
X0314377Y-0248604D01*
X0314377Y-0248604D01*
X0314377Y-0248604D01*
X0314377Y-0248604D01*
X0314377Y-0248604D01*
X0314378Y-0248604D01*
X0314378Y-0248604D01*
X0314378Y-0248604D01*
X0314378Y-0248604D01*
X0314378Y-0248604D01*
X0314378Y-0248604D01*
X0314378Y-0248604D01*
X0314378Y-0248604D01*
X0314378Y-0248604D01*
X0314378Y-0248604D01*
X0314378Y-0248604D01*
X0314378Y-0248604D01*
X0314379Y-0248604D01*
X0314379Y-0248604D01*
X0314379Y-0248604D01*
X0314379Y-0248604D01*
X0314379Y-0248604D01*
X0314379Y-0248604D01*
X0314379Y-0248604D01*
X0314379Y-0248604D01*
X0314379Y-0248604D01*
X0314379Y-0248604D01*
X0314380Y-0248604D01*
X0314380Y-0248604D01*
X0314380Y-0248604D01*
X0314380Y-0248604D01*
X0314380Y-0248604D01*
X0314380Y-0248604D01*
X0314380Y-0248604D01*
X0314380Y-0248604D01*
X0314380Y-0248604D01*
X0314380Y-0248604D01*
X0314380Y-0248604D01*
X0314380Y-0248604D01*
X0314380Y-0248604D01*
X0314380Y-0248604D01*
X0314380Y-0248604D01*
X0314380Y-0248604D01*
X0314381Y-0248604D01*
X0314381Y-0248604D01*
X0314381Y-0248604D01*
X0314381Y-0248604D01*
X0314381Y-0248604D01*
X0314381Y-0248604D01*
X0314381Y-0248604D01*
X0314381Y-0248604D01*
X0314381Y-0248604D01*
X0314381Y-0248604D01*
X0314381Y-0248604D01*
X0314381Y-0248604D01*
X0314381Y-0248604D01*
X0314381Y-0248604D01*
X0314381Y-0248604D01*
X0314381Y-0248604D01*
X0314381Y-0248604D01*
X0314381Y-0248604D01*
X0314381Y-0248604D01*
X0314381Y-0248604D01*
X0314382Y-0248604D01*
X0314382Y-0248604D01*
X0314382Y-0248604D01*
X0314382Y-0248604D01*
X0314382Y-0248604D01*
X0314382Y-0248604D01*
X0314382Y-0248604D01*
X0314382Y-0248604D01*
X0314382Y-0248604D01*
X0314382Y-0248604D01*
X0314382Y-0248604D01*
X0314382Y-0248604D01*
X0314382Y-0248604D01*
X0314382Y-0248604D01*
X0314382Y-0248604D01*
X0314382Y-0248604D01*
X0314382Y-0248604D01*
X0314382Y-0248604D01*
X0314382Y-0248604D01*
X0314382Y-0248604D01*
X0314382Y-0248604D01*
X0314382Y-0248604D01*
X0314383Y-0248604D01*
X0314383Y-0248604D01*
X0314383Y-0248604D01*
X0314383Y-0248604D01*
X0314383Y-0248604D01*
X0314383Y-0248604D01*
X0314383Y-0248604D01*
X0314383Y-0248604D01*
X0314383Y-0248604D01*
X0314383Y-0263015D01*
X0314132Y-0262954D01*
X0314110Y-0262946D01*
X0314110Y-0262946D01*
X0313803Y-0262818D01*
X0313796Y-0262835D01*
X0313803Y-0262818D01*
X0313423Y-0262661D01*
X0312777Y-0262265D01*
X0312422Y-0261962D01*
X0312411Y-0261975D01*
X0312422Y-0261962D01*
X0312199Y-0261772D01*
X0312198Y-0261771D01*
X0312197Y-0261772D01*
X0312197Y-0261772D01*
X0312197Y-0261772D01*
X0281104Y-0230681D01*
X0281106Y-0230679D01*
X0280939Y-0230484D01*
X0280939Y-0230484D01*
X0280610Y-0230098D01*
X0280210Y-0229445D01*
X0279917Y-0228738D01*
X0279738Y-0227993D01*
X0279678Y-0227230D01*
X0279738Y-0226466D01*
X0279917Y-0225722D01*
X0280210Y-0225014D01*
X0280610Y-0224361D01*
X0280718Y-0224234D01*
X0280718Y-0224235D01*
X0280939Y-0223976D01*
X0280939Y-0223976D01*
X0281106Y-0223780D01*
X0281106Y-0223780D01*
X0281105Y-0223779D01*
X0312197Y-0192687D01*
X0312197Y-0192687D01*
X0312198Y-0192688D01*
X0312199Y-0192688D01*
X0312388Y-0192526D01*
X0312388Y-0192526D01*
X0312780Y-0192192D01*
X0313433Y-0191791D01*
X0314140Y-0191498D01*
X0314885Y-0191320D01*
X0315648Y-0191260D01*
X0316411Y-0191320D01*
X0316411Y-0191320D02*
G37*
G36*
X0318445Y-0201479D02*
X0318446Y-0201479D01*
X0318860Y-0201534D01*
X0318981Y-0201584D01*
X0318981Y-0201583D01*
X0319158Y-0201657D01*
X0319164Y-0201644D01*
X0319164Y-0201644D01*
X0319158Y-0201657D01*
X0319250Y-0201695D01*
X0319325Y-0201752D01*
X0319325Y-0201752D01*
X0319590Y-0201956D01*
X0319593Y-0201953D01*
X0319593Y-0201953D01*
X0319602Y-0201963D01*
X0319600Y-0201966D01*
X0319851Y-0202294D01*
X0319960Y-0202556D01*
X0319975Y-0202551D01*
X0319960Y-0202557D01*
X0320011Y-0202678D01*
X0320020Y-0202748D01*
X0320031Y-0202746D01*
X0320020Y-0202748D01*
X0320036Y-0202869D01*
X0320036Y-0202869D01*
X0320048Y-0202959D01*
X0320048Y-0202959D01*
X0320058Y-0203034D01*
X0320069Y-0203034D01*
X0320058Y-0203034D01*
X0320066Y-0203101D01*
X0320066Y-0203101D01*
X0320066Y-0203101D01*
X0320066Y-0203101D01*
X0320058Y-0203167D01*
X0320069Y-0203167D01*
X0320058Y-0203167D01*
X0320047Y-0203245D01*
X0320063Y-0203247D01*
X0320047Y-0203245D01*
X0320035Y-0203340D01*
X0320037Y-0203340D01*
X0320035Y-0203340D01*
X0320019Y-0203464D01*
X0320019Y-0203464D01*
X0320011Y-0203524D01*
X0319961Y-0203643D01*
X0319961Y-0203643D01*
X0319851Y-0203908D01*
X0319818Y-0203952D01*
X0319818Y-0203951D01*
X0319601Y-0204234D01*
X0319588Y-0204244D01*
X0319593Y-0204249D01*
X0319593Y-0204249D01*
X0319593Y-0204249D01*
X0319590Y-0204246D01*
X0319590Y-0204246D01*
X0319350Y-0204431D01*
X0319359Y-0204443D01*
X0319359Y-0204443D01*
X0319350Y-0204431D01*
X0319250Y-0204507D01*
X0319166Y-0204542D01*
X0319172Y-0204554D01*
X0319166Y-0204542D01*
X0318861Y-0204668D01*
X0318587Y-0204704D01*
X0318587Y-0204704D01*
X0318445Y-0204723D01*
X0318445Y-0204723D01*
X0318445Y-0204724D01*
X0318445Y-0204724D01*
X0318405Y-0204718D01*
X0318405Y-0204725D01*
X0318405Y-0204718D01*
X0318337Y-0204710D01*
X0318336Y-0204724D01*
X0318337Y-0204709D01*
X0318255Y-0204699D01*
X0318253Y-0204716D01*
X0318255Y-0204699D01*
X0318022Y-0204668D01*
X0317634Y-0204507D01*
X0317597Y-0204479D01*
X0317592Y-0204487D01*
X0317597Y-0204479D01*
X0317440Y-0204359D01*
X0317429Y-0204372D01*
X0317429Y-0204372D01*
X0317440Y-0204359D01*
X0317296Y-0204248D01*
X0317294Y-0204246D01*
X0317292Y-0204249D01*
X0317281Y-0204238D01*
X0317285Y-0204234D01*
X0317187Y-0204106D01*
X0317041Y-0203915D01*
X0317022Y-0203870D01*
X0317022Y-0203870D01*
X0316880Y-0203526D01*
X0316872Y-0203470D01*
X0316862Y-0203473D01*
X0316872Y-0203470D01*
X0316849Y-0203297D01*
X0316849Y-0203297D01*
X0316835Y-0203188D01*
X0316822Y-0203188D01*
X0316835Y-0203188D01*
X0316823Y-0203101D01*
X0316823Y-0203101D01*
X0316820Y-0203101D01*
X0316820Y-0203101D01*
X0316823Y-0203101D01*
X0316824Y-0203100D01*
X0316820Y-0203100D01*
X0316824Y-0203100D01*
X0316834Y-0203017D01*
X0316832Y-0203017D01*
X0316834Y-0203017D01*
X0316848Y-0202911D01*
X0316848Y-0202911D01*
X0316871Y-0202740D01*
X0316860Y-0202737D01*
X0316871Y-0202740D01*
X0316879Y-0202676D01*
X0317041Y-0202287D01*
X0317140Y-0202158D01*
X0317140Y-0202158D01*
X0317295Y-0201956D01*
X0317294Y-0201956D01*
X0317294Y-0201956D01*
X0317438Y-0201845D01*
X0317430Y-0201835D01*
X0317438Y-0201845D01*
X0317592Y-0201727D01*
X0317587Y-0201718D01*
X0317587Y-0201718D01*
X0317593Y-0201727D01*
X0317634Y-0201695D01*
X0317997Y-0201545D01*
X0317997Y-0201545D01*
X0318022Y-0201534D01*
X0318202Y-0201510D01*
X0318200Y-0201493D01*
X0318202Y-0201510D01*
X0318303Y-0201497D01*
X0318303Y-0201497D01*
X0318380Y-0201487D01*
X0318379Y-0201476D01*
X0318379Y-0201476D01*
X0318380Y-0201487D01*
X0318445Y-0201478D01*
X0318445Y-0201478D01*
X0318445Y-0201475D01*
X0318445Y-0201479D01*
X0318445Y-0201479D02*
G37*
G36*
X0303949Y-0210903D02*
X0303949Y-0210903D01*
X0303970Y-0210906D01*
X0304069Y-0210947D01*
X0304074Y-0210933D01*
X0304069Y-0210947D01*
X0304163Y-0210986D01*
X0304170Y-0210969D01*
X0304163Y-0210986D01*
X0304249Y-0211021D01*
X0304249Y-0211021D01*
X0304335Y-0211057D01*
X0304339Y-0211050D01*
X0304339Y-0211050D01*
X0304335Y-0211057D01*
X0304366Y-0211069D01*
X0304420Y-0211111D01*
X0304420Y-0211111D01*
X0304514Y-0211183D01*
X0304705Y-0211330D01*
X0304705Y-0211330D01*
X0304835Y-0211499D01*
X0304927Y-0211619D01*
X0304936Y-0211614D01*
X0304927Y-0211619D01*
X0304965Y-0211668D01*
X0304986Y-0211719D01*
X0304991Y-0211716D01*
X0304985Y-0211719D01*
X0305026Y-0211817D01*
X0305026Y-0211817D01*
X0305067Y-0211916D01*
X0305083Y-0211910D01*
X0305083Y-0211910D01*
X0305067Y-0211916D01*
X0305128Y-0212064D01*
X0305183Y-0212480D01*
X0305183Y-0212480D01*
X0305183Y-0212480D01*
X0305156Y-0212685D01*
X0305156Y-0212685D01*
X0305139Y-0212811D01*
X0305139Y-0212811D01*
X0305129Y-0212888D01*
X0305122Y-0212906D01*
X0305122Y-0212906D01*
X0305089Y-0212985D01*
X0305103Y-0212989D01*
X0305089Y-0212985D01*
X0305058Y-0213060D01*
X0305074Y-0213067D01*
X0305074Y-0213067D01*
X0305058Y-0213060D01*
X0305026Y-0213137D01*
X0304992Y-0213219D01*
X0304992Y-0213219D01*
X0304965Y-0213284D01*
X0304944Y-0213312D01*
X0304944Y-0213312D01*
X0304944Y-0213312D01*
X0304944Y-0213312D01*
X0304944Y-0213312D01*
X0304705Y-0213624D01*
X0304705Y-0213624D01*
X0304677Y-0213645D01*
X0304683Y-0213652D01*
X0304677Y-0213645D01*
X0304493Y-0213786D01*
X0304503Y-0213800D01*
X0304503Y-0213800D01*
X0304493Y-0213786D01*
X0304391Y-0213864D01*
X0304394Y-0213871D01*
X0304394Y-0213871D01*
X0304391Y-0213864D01*
X0304368Y-0213882D01*
X0304291Y-0213914D01*
X0304291Y-0213914D01*
X0304191Y-0213955D01*
X0304198Y-0213972D01*
X0304198Y-0213972D01*
X0304191Y-0213955D01*
X0304081Y-0214001D01*
X0304081Y-0214001D01*
X0303972Y-0214046D01*
X0303686Y-0214083D01*
X0303688Y-0214099D01*
X0303688Y-0214099D01*
X0303686Y-0214083D01*
X0303555Y-0214101D01*
X0303555Y-0214101D01*
X0303555Y-0214104D01*
X0303555Y-0214100D01*
X0303552Y-0214100D01*
X0303291Y-0214066D01*
X0303288Y-0214082D01*
X0303291Y-0214066D01*
X0303184Y-0214052D01*
X0303184Y-0214052D01*
X0303146Y-0214047D01*
X0303100Y-0214028D01*
X0303098Y-0214037D01*
X0303100Y-0214028D01*
X0303028Y-0213998D01*
X0303028Y-0213998D01*
X0302958Y-0213969D01*
X0302888Y-0213940D01*
X0302888Y-0213940D01*
X0302815Y-0213910D01*
X0302815Y-0213910D01*
X0302751Y-0213883D01*
X0302736Y-0213872D01*
X0302733Y-0213877D01*
X0302736Y-0213872D01*
X0302652Y-0213807D01*
X0302651Y-0213807D01*
X0302412Y-0213624D01*
X0302412Y-0213624D01*
X0302182Y-0213324D01*
X0302182Y-0213324D01*
X0302152Y-0213286D01*
X0302123Y-0213215D01*
X0302123Y-0213215D01*
X0302084Y-0213120D01*
X0302047Y-0213030D01*
X0302047Y-0213030D01*
X0302008Y-0212938D01*
X0302008Y-0212938D01*
X0301989Y-0212890D01*
X0301981Y-0212829D01*
X0301970Y-0212831D01*
X0301981Y-0212829D01*
X0301935Y-0212480D01*
X0301934Y-0212480D01*
X0301936Y-0212468D01*
X0301936Y-0212468D01*
X0301982Y-0212115D01*
X0301972Y-0212113D01*
X0301982Y-0212115D01*
X0301989Y-0212062D01*
X0302041Y-0211938D01*
X0302026Y-0211933D01*
X0302041Y-0211938D01*
X0302091Y-0211817D01*
X0302075Y-0211810D01*
X0302091Y-0211817D01*
X0302139Y-0211701D01*
X0302132Y-0211697D01*
X0302139Y-0211700D01*
X0302153Y-0211667D01*
X0302217Y-0211584D01*
X0302217Y-0211584D01*
X0302217Y-0211584D01*
X0302217Y-0211584D01*
X0302217Y-0211584D01*
X0302412Y-0211330D01*
X0302412Y-0211330D01*
X0302619Y-0211171D01*
X0302609Y-0211157D01*
X0302609Y-0211157D01*
X0302619Y-0211171D01*
X0302713Y-0211099D01*
X0302713Y-0211099D01*
X0302752Y-0211069D01*
X0302793Y-0211052D01*
X0302792Y-0211050D01*
X0302793Y-0211052D01*
X0302793Y-0211052D01*
X0302793Y-0211052D01*
X0302869Y-0211021D01*
X0302869Y-0211021D01*
X0302939Y-0210991D01*
X0303009Y-0210963D01*
X0303007Y-0210956D01*
X0303009Y-0210963D01*
X0303082Y-0210932D01*
X0303078Y-0210921D01*
X0303082Y-0210933D01*
X0303148Y-0210905D01*
X0303161Y-0210903D01*
X0303161Y-0210904D01*
X0303260Y-0210890D01*
X0303257Y-0210876D01*
X0303260Y-0210890D01*
X0303555Y-0210852D01*
X0303555Y-0210851D01*
X0303556Y-0210851D01*
X0303949Y-0210903D01*
X0303949Y-0210903D02*
G37*
G36*
X0302792Y-0211050D02*
X0302789Y-0211044D01*
X0302789Y-0211044D01*
X0302792Y-0211050D01*
X0302792Y-0211050D02*
G37*
G36*
X0304951Y-0213316D02*
X0304951Y-0213316D01*
X0304944Y-0213312D01*
X0304951Y-0213316D01*
X0304951Y-0213316D02*
G37*
G36*
X0300451Y-0214767D02*
X0300445Y-0214771D01*
X0300451Y-0214767D01*
X0300451Y-0214767D01*
X0300451Y-0214767D02*
G37*
G36*
X0300442Y-0214774D02*
X0300442Y-0214774D01*
X0300445Y-0214771D01*
X0300442Y-0214774D01*
X0300442Y-0214774D02*
G37*
G36*
X0330129Y-0215624D02*
X0330129Y-0215624D01*
X0330214Y-0215636D01*
X0330289Y-0215667D01*
X0330289Y-0215666D01*
X0330392Y-0215709D01*
X0330484Y-0215747D01*
X0330484Y-0215747D01*
X0330573Y-0215784D01*
X0330577Y-0215777D01*
X0330573Y-0215784D01*
X0330609Y-0215799D01*
X0330661Y-0215838D01*
X0330661Y-0215838D01*
X0330758Y-0215913D01*
X0330768Y-0215899D01*
X0330768Y-0215899D01*
X0330758Y-0215913D01*
X0330949Y-0216059D01*
X0330949Y-0216059D01*
X0331091Y-0216244D01*
X0331105Y-0216234D01*
X0331091Y-0216244D01*
X0331196Y-0216381D01*
X0331196Y-0216381D01*
X0331208Y-0216397D01*
X0331249Y-0216498D01*
X0331250Y-0216498D01*
X0331249Y-0216498D01*
X0331296Y-0216610D01*
X0331312Y-0216603D01*
X0331312Y-0216603D01*
X0331296Y-0216610D01*
X0331371Y-0216792D01*
X0331426Y-0217210D01*
X0331426Y-0217210D01*
X0331426Y-0217210D01*
X0331391Y-0217474D01*
X0331407Y-0217477D01*
X0331407Y-0217477D01*
X0331391Y-0217474D01*
X0331375Y-0217597D01*
X0331375Y-0217597D01*
X0331372Y-0217618D01*
X0331344Y-0217688D01*
X0331344Y-0217688D01*
X0331310Y-0217769D01*
X0331326Y-0217775D01*
X0331326Y-0217775D01*
X0331310Y-0217769D01*
X0331278Y-0217846D01*
X0331245Y-0217927D01*
X0331245Y-0217927D01*
X0331209Y-0218014D01*
X0331212Y-0218016D01*
X0331209Y-0218014D01*
X0331209Y-0218014D01*
X0331140Y-0218104D01*
X0331140Y-0218104D01*
X0330949Y-0218353D01*
X0330950Y-0218354D01*
X0330948Y-0218356D01*
X0330887Y-0218403D01*
X0330895Y-0218412D01*
X0330887Y-0218403D01*
X0330740Y-0218516D01*
X0330745Y-0218523D01*
X0330740Y-0218516D01*
X0330610Y-0218615D01*
X0330222Y-0218776D01*
X0330165Y-0218784D01*
X0330165Y-0218784D01*
X0330025Y-0218802D01*
X0330027Y-0218820D01*
X0330025Y-0218802D01*
X0329934Y-0218814D01*
X0329936Y-0218830D01*
X0329934Y-0218814D01*
X0329862Y-0218824D01*
X0329862Y-0218834D01*
X0329862Y-0218824D01*
X0329799Y-0218832D01*
X0329799Y-0218832D01*
X0329799Y-0218835D01*
X0329794Y-0218835D01*
X0329794Y-0218831D01*
X0329384Y-0218777D01*
X0329145Y-0218678D01*
X0329138Y-0218694D01*
X0329145Y-0218678D01*
X0328996Y-0218616D01*
X0328977Y-0218602D01*
X0328974Y-0218608D01*
X0328977Y-0218602D01*
X0328832Y-0218491D01*
X0328655Y-0218355D01*
X0328655Y-0218354D01*
X0328652Y-0218357D01*
X0328652Y-0218357D01*
X0328652Y-0218357D01*
X0328655Y-0218354D01*
X0328655Y-0218354D01*
X0328614Y-0218301D01*
X0328610Y-0218305D01*
X0328614Y-0218301D01*
X0328614Y-0218301D01*
X0328614Y-0218301D01*
X0328466Y-0218108D01*
X0328466Y-0218108D01*
X0328393Y-0218013D01*
X0328367Y-0217950D01*
X0328356Y-0217955D01*
X0328356Y-0217955D01*
X0328367Y-0217950D01*
X0328232Y-0217625D01*
X0328194Y-0217331D01*
X0328193Y-0217331D01*
X0328177Y-0217210D01*
X0328177Y-0217210D01*
X0328177Y-0217210D01*
X0328177Y-0217210D01*
X0328185Y-0217153D01*
X0328175Y-0217153D01*
X0328175Y-0217153D01*
X0328185Y-0217153D01*
X0328196Y-0217068D01*
X0328180Y-0217067D01*
X0328196Y-0217068D01*
X0328233Y-0216787D01*
X0328394Y-0216398D01*
X0328449Y-0216327D01*
X0328437Y-0216319D01*
X0328437Y-0216319D01*
X0328449Y-0216327D01*
X0328653Y-0216060D01*
X0328655Y-0216059D01*
X0328656Y-0216060D01*
X0328810Y-0215942D01*
X0328799Y-0215928D01*
X0328799Y-0215928D01*
X0328810Y-0215942D01*
X0328915Y-0215861D01*
X0328915Y-0215861D01*
X0328993Y-0215801D01*
X0328991Y-0215797D01*
X0328993Y-0215801D01*
X0328996Y-0215798D01*
X0329072Y-0215767D01*
X0329072Y-0215767D01*
X0329145Y-0215737D01*
X0329138Y-0215722D01*
X0329145Y-0215737D01*
X0329217Y-0215707D01*
X0329217Y-0215707D01*
X0329289Y-0215677D01*
X0329289Y-0215677D01*
X0329368Y-0215645D01*
X0329368Y-0215645D01*
X0329392Y-0215635D01*
X0329464Y-0215625D01*
X0329462Y-0215614D01*
X0329462Y-0215614D01*
X0329464Y-0215626D01*
X0329799Y-0215581D01*
X0329799Y-0215581D01*
X0329800Y-0215581D01*
X0330129Y-0215624D01*
X0330129Y-0215624D02*
G37*
G36*
X0302226Y-0216103D02*
X0302226Y-0216103D01*
X0302228Y-0216100D01*
X0302226Y-0216103D01*
X0302226Y-0216103D02*
G37*
G36*
X0328606Y-0218309D02*
X0328606Y-0218309D01*
X0328610Y-0218305D01*
X0328606Y-0218309D01*
X0328606Y-0218309D02*
G37*
G36*
X0288771Y-0227393D02*
X0288767Y-0227390D01*
X0288767Y-0227390D01*
X0288771Y-0227393D01*
X0288771Y-0227393D02*
G37*
G36*
X0291854Y-0228109D02*
X0291854Y-0228115D01*
X0291921Y-0228123D01*
X0291921Y-0228111D01*
X0291921Y-0228123D01*
X0291998Y-0228134D01*
X0291998Y-0228134D01*
X0292095Y-0228146D01*
X0292097Y-0228132D01*
X0292095Y-0228146D01*
X0292233Y-0228165D01*
X0292233Y-0228165D01*
X0292255Y-0228168D01*
X0292637Y-0228326D01*
X0292965Y-0228578D01*
X0292975Y-0228591D01*
X0292980Y-0228587D01*
X0292980Y-0228587D01*
X0292980Y-0228587D01*
X0292977Y-0228590D01*
X0292980Y-0228592D01*
X0293037Y-0228667D01*
X0293047Y-0228658D01*
X0293047Y-0228658D01*
X0293037Y-0228667D01*
X0293193Y-0228870D01*
X0293203Y-0228863D01*
X0293203Y-0228863D01*
X0293193Y-0228870D01*
X0293239Y-0228930D01*
X0293400Y-0229317D01*
X0293423Y-0229493D01*
X0293423Y-0229493D01*
X0293442Y-0229640D01*
X0293455Y-0229639D01*
X0293442Y-0229640D01*
X0293454Y-0229735D01*
X0293454Y-0229735D01*
X0293458Y-0229735D01*
X0293458Y-0229760D01*
X0293451Y-0229760D01*
X0293443Y-0229821D01*
X0293443Y-0229821D01*
X0293434Y-0229892D01*
X0293451Y-0229894D01*
X0293434Y-0229892D01*
X0293422Y-0229981D01*
X0293426Y-0229982D01*
X0293422Y-0229981D01*
X0293399Y-0230159D01*
X0293260Y-0230495D01*
X0293269Y-0230500D01*
X0293260Y-0230495D01*
X0293238Y-0230547D01*
X0293155Y-0230655D01*
X0293168Y-0230664D01*
X0293155Y-0230655D01*
X0293063Y-0230775D01*
X0293075Y-0230785D01*
X0293063Y-0230775D01*
X0292978Y-0230886D01*
X0292977Y-0230887D01*
X0292980Y-0230889D01*
X0292980Y-0230889D01*
X0292980Y-0230889D01*
X0292977Y-0230886D01*
X0292974Y-0230889D01*
X0292763Y-0231051D01*
X0292773Y-0231065D01*
X0292763Y-0231051D01*
X0292637Y-0231148D01*
X0292249Y-0231309D01*
X0291934Y-0231350D01*
X0291934Y-0231350D01*
X0291833Y-0231364D01*
X0291833Y-0231364D01*
X0291833Y-0231364D01*
X0291833Y-0231364D01*
X0291773Y-0231356D01*
X0291772Y-0231366D01*
X0291773Y-0231356D01*
X0291417Y-0231309D01*
X0291303Y-0231261D01*
X0291303Y-0231261D01*
X0291028Y-0231148D01*
X0290692Y-0230890D01*
X0290689Y-0230886D01*
X0290686Y-0230889D01*
X0290686Y-0230889D01*
X0290686Y-0230889D01*
X0290680Y-0230883D01*
X0290683Y-0230880D01*
X0290595Y-0230765D01*
X0290595Y-0230765D01*
X0290497Y-0230638D01*
X0290485Y-0230646D01*
X0290485Y-0230646D01*
X0290497Y-0230637D01*
X0290428Y-0230547D01*
X0290285Y-0230201D01*
X0290285Y-0230201D01*
X0290267Y-0230160D01*
X0290250Y-0230029D01*
X0290235Y-0230032D01*
X0290250Y-0230029D01*
X0290237Y-0229931D01*
X0290220Y-0229933D01*
X0290237Y-0229931D01*
X0290227Y-0229856D01*
X0290212Y-0229857D01*
X0290212Y-0229857D01*
X0290227Y-0229856D01*
X0290219Y-0229792D01*
X0290219Y-0229792D01*
X0290211Y-0229735D01*
X0290211Y-0229735D01*
X0290212Y-0229735D01*
X0290212Y-0229733D01*
X0290212Y-0229733D01*
X0290212Y-0229733D01*
X0290267Y-0229318D01*
X0290391Y-0229018D01*
X0290391Y-0229018D01*
X0290428Y-0228929D01*
X0290505Y-0228828D01*
X0290500Y-0228825D01*
X0290505Y-0228828D01*
X0290688Y-0228590D01*
X0290689Y-0228589D01*
X0290686Y-0228587D01*
X0290686Y-0228587D01*
X0290686Y-0228587D01*
X0290686Y-0228587D01*
X0290686Y-0228587D01*
X0290686Y-0228587D01*
X0290691Y-0228591D01*
X0290703Y-0228575D01*
X0290760Y-0228532D01*
X0291028Y-0228326D01*
X0291153Y-0228274D01*
X0291153Y-0228274D01*
X0291373Y-0228183D01*
X0291373Y-0228183D01*
X0291410Y-0228168D01*
X0291512Y-0228154D01*
X0291509Y-0228140D01*
X0291512Y-0228154D01*
X0291615Y-0228141D01*
X0291615Y-0228141D01*
X0291698Y-0228130D01*
X0291697Y-0228118D01*
X0291698Y-0228130D01*
X0291769Y-0228120D01*
X0291769Y-0228118D01*
X0291769Y-0228120D01*
X0291833Y-0228112D01*
X0291833Y-0228112D01*
X0291833Y-0228109D01*
X0291833Y-0228109D01*
X0291854Y-0228109D01*
X0291854Y-0228109D02*
G37*
G36*
X0291998Y-0228134D02*
X0291998Y-0228134D01*
X0292000Y-0228117D01*
X0291998Y-0228134D01*
X0291998Y-0228134D02*
G37*
G36*
X0334613Y-0232721D02*
X0334613Y-0232726D01*
X0334673Y-0232734D01*
X0334674Y-0232723D01*
X0334673Y-0232734D01*
X0334741Y-0232743D01*
X0334743Y-0232727D01*
X0334741Y-0232743D01*
X0334824Y-0232754D01*
X0334827Y-0232736D01*
X0334824Y-0232754D01*
X0335029Y-0232781D01*
X0335414Y-0232940D01*
X0335497Y-0233004D01*
X0335505Y-0232992D01*
X0335505Y-0232992D01*
X0335497Y-0233004D01*
X0335638Y-0233112D01*
X0335639Y-0233111D01*
X0335638Y-0233112D01*
X0335750Y-0233198D01*
X0335757Y-0233207D01*
X0335761Y-0233203D01*
X0335761Y-0233203D01*
X0335757Y-0233207D01*
X0335780Y-0233236D01*
X0335786Y-0233230D01*
X0335780Y-0233236D01*
X0335814Y-0233281D01*
X0335825Y-0233272D01*
X0335825Y-0233272D01*
X0335814Y-0233281D01*
X0335853Y-0233332D01*
X0335900Y-0233392D01*
X0335900Y-0233392D01*
X0336010Y-0233536D01*
X0336159Y-0233895D01*
X0336159Y-0233895D01*
X0336174Y-0233931D01*
X0336188Y-0234041D01*
X0336203Y-0234038D01*
X0336188Y-0234041D01*
X0336206Y-0234177D01*
X0336206Y-0234177D01*
X0336228Y-0234346D01*
X0336232Y-0234346D01*
X0336232Y-0234360D01*
X0336227Y-0234360D01*
X0336189Y-0234651D01*
X0336204Y-0234654D01*
X0336189Y-0234651D01*
X0336173Y-0234775D01*
X0336063Y-0235039D01*
X0336009Y-0235170D01*
X0335997Y-0235185D01*
X0335997Y-0235185D01*
X0335931Y-0235271D01*
X0335944Y-0235279D01*
X0335931Y-0235271D01*
X0335879Y-0235338D01*
X0335879Y-0235338D01*
X0335835Y-0235396D01*
X0335840Y-0235401D01*
X0335835Y-0235396D01*
X0335795Y-0235448D01*
X0335795Y-0235448D01*
X0335757Y-0235497D01*
X0335757Y-0235496D01*
X0335713Y-0235531D01*
X0335720Y-0235539D01*
X0335713Y-0235531D01*
X0335577Y-0235635D01*
X0335502Y-0235692D01*
X0335502Y-0235692D01*
X0335441Y-0235739D01*
X0335441Y-0235739D01*
X0335411Y-0235762D01*
X0335382Y-0235774D01*
X0335385Y-0235781D01*
X0335382Y-0235774D01*
X0335322Y-0235799D01*
X0335328Y-0235811D01*
X0335322Y-0235799D01*
X0335263Y-0235823D01*
X0335263Y-0235823D01*
X0335206Y-0235847D01*
X0335213Y-0235863D01*
X0335213Y-0235863D01*
X0335206Y-0235847D01*
X0335148Y-0235871D01*
X0335086Y-0235896D01*
X0335090Y-0235908D01*
X0335086Y-0235896D01*
X0335018Y-0235924D01*
X0335018Y-0235924D01*
X0335013Y-0235927D01*
X0334934Y-0235937D01*
X0334934Y-0235937D01*
X0334606Y-0235980D01*
X0334280Y-0235937D01*
X0334278Y-0235950D01*
X0334280Y-0235937D01*
X0334201Y-0235927D01*
X0334173Y-0235915D01*
X0334173Y-0235915D01*
X0334088Y-0235880D01*
X0334083Y-0235895D01*
X0334088Y-0235880D01*
X0334009Y-0235847D01*
X0333927Y-0235813D01*
X0333920Y-0235827D01*
X0333927Y-0235813D01*
X0333839Y-0235777D01*
X0333835Y-0235784D01*
X0333835Y-0235784D01*
X0333839Y-0235777D01*
X0333809Y-0235765D01*
X0333462Y-0235498D01*
X0333461Y-0235498D01*
X0333459Y-0235500D01*
X0333459Y-0235500D01*
X0333459Y-0235500D01*
X0333464Y-0235495D01*
X0333450Y-0235485D01*
X0333422Y-0235449D01*
X0333422Y-0235449D01*
X0333368Y-0235378D01*
X0333356Y-0235389D01*
X0333368Y-0235378D01*
X0333310Y-0235303D01*
X0333310Y-0235303D01*
X0333245Y-0235218D01*
X0333245Y-0235218D01*
X0333202Y-0235162D01*
X0333180Y-0235109D01*
X0333171Y-0235114D01*
X0333180Y-0235109D01*
X0333121Y-0234967D01*
X0333050Y-0234795D01*
X0333043Y-0234797D01*
X0333050Y-0234795D01*
X0333041Y-0234774D01*
X0333020Y-0234611D01*
X0333005Y-0234613D01*
X0333020Y-0234611D01*
X0333000Y-0234463D01*
X0332985Y-0234464D01*
X0333000Y-0234463D01*
X0332985Y-0234346D01*
X0332985Y-0234346D01*
X0332985Y-0234346D01*
X0332994Y-0234282D01*
X0332994Y-0234282D01*
X0333040Y-0233932D01*
X0333201Y-0233544D01*
X0333223Y-0233515D01*
X0333216Y-0233511D01*
X0333223Y-0233515D01*
X0333306Y-0233407D01*
X0333292Y-0233397D01*
X0333306Y-0233407D01*
X0333365Y-0233330D01*
X0333365Y-0233330D01*
X0333415Y-0233265D01*
X0333407Y-0233257D01*
X0333407Y-0233257D01*
X0333415Y-0233265D01*
X0333452Y-0233216D01*
X0333463Y-0233208D01*
X0333459Y-0233203D01*
X0333459Y-0233203D01*
X0333459Y-0233203D01*
X0333465Y-0233209D01*
X0333484Y-0233184D01*
X0333591Y-0233102D01*
X0333805Y-0232938D01*
X0333915Y-0232892D01*
X0333915Y-0232892D01*
X0334094Y-0232818D01*
X0334090Y-0232804D01*
X0334094Y-0232818D01*
X0334185Y-0232781D01*
X0334222Y-0232776D01*
X0334222Y-0232776D01*
X0334324Y-0232762D01*
X0334321Y-0232746D01*
X0334324Y-0232762D01*
X0334409Y-0232751D01*
X0334407Y-0232733D01*
X0334409Y-0232751D01*
X0334482Y-0232741D01*
X0334481Y-0232726D01*
X0334482Y-0232741D01*
X0334546Y-0232733D01*
X0334546Y-0232733D01*
X0334606Y-0232725D01*
X0334606Y-0232725D01*
X0334606Y-0232721D01*
X0334613Y-0232721D01*
X0334613Y-0232721D02*
G37*
D16*
X-0280600Y0403022D02*
X-0281599Y0404022D01*
X-0283599Y0404022D01*
X-0284598Y0403022D01*
X-0284598Y0399023D01*
X-0283599Y0398024D01*
X-0281599Y0398024D01*
X-0280600Y0399023D01*
X-0277601Y0398024D02*
X-0275601Y0398024D01*
X-0274602Y0399023D01*
X-0274602Y0401023D01*
X-0275601Y0402022D01*
X-0277601Y0402022D01*
X-0278600Y0401023D01*
X-0278600Y0399023D01*
X-0277601Y0398024D01*
X-0272602Y0396024D02*
X-0272602Y0402022D01*
X-0269603Y0402022D01*
X-0268604Y0401023D01*
X-0268604Y0399023D01*
X-0269603Y0398024D01*
X-0272602Y0398024D01*
X-0266604Y0402022D02*
X-0266604Y0399023D01*
X-0265605Y0398024D01*
X-0262606Y0398024D01*
X-0262606Y0397024D01*
X-0263605Y0396024D01*
X-0264605Y0396024D01*
X-0262606Y0398024D02*
X-0262606Y0402022D01*
X-0260606Y0402022D02*
X-0260606Y0398024D01*
X-0260606Y0400023D01*
X-0259607Y0401023D01*
X-0258607Y0402022D01*
X-0257607Y0402022D01*
X-0254608Y0398024D02*
X-0252609Y0398024D01*
X-0253608Y0398024D01*
X-0253608Y0402022D01*
X-0254608Y0402022D01*
X-0247610Y0396024D02*
X-0246611Y0396024D01*
X-0245611Y0397024D01*
X-0245611Y0402022D01*
X-0248610Y0402022D01*
X-0249610Y0401023D01*
X-0249610Y0399023D01*
X-0248610Y0398024D01*
X-0245611Y0398024D01*
X-0243612Y0404022D02*
X-0243612Y0398024D01*
X-0243612Y0401023D01*
X-0242612Y0402022D01*
X-0240613Y0402022D01*
X-0239613Y0401023D01*
X-0239613Y0398024D01*
X-0236614Y0403022D02*
X-0236614Y0402022D01*
X-0237614Y0402022D01*
X-0235614Y0402022D01*
X-0236614Y0402022D01*
X-0236614Y0399023D01*
X-0235614Y0398024D01*
X-0226617Y0398024D02*
X-0226617Y0400023D01*
X-0222619Y0400023D01*
X-0210622Y0398024D02*
X-0214621Y0398024D01*
X-0210622Y0402022D01*
X-0210622Y0403022D01*
X-0211622Y0404022D01*
X-0213621Y0404022D01*
X-0214621Y0403022D01*
X-0208623Y0403022D02*
X-0207623Y0404022D01*
X-0205624Y0404022D01*
X-0204624Y0403022D01*
X-0204624Y0399023D01*
X-0205624Y0398024D01*
X-0207623Y0398024D01*
X-0208623Y0399023D01*
X-0208623Y0403022D01*
X-0198626Y0398024D02*
X-0202625Y0398024D01*
X-0198626Y0402022D01*
X-0198626Y0403022D01*
X-0199626Y0404022D01*
X-0201625Y0404022D01*
X-0202625Y0403022D01*
X-0196627Y0403022D02*
X-0195627Y0404022D01*
X-0193628Y0404022D01*
X-0192628Y0403022D01*
X-0192628Y0402022D01*
X-0193628Y0401023D01*
X-0194628Y0401023D01*
X-0193628Y0401023D01*
X-0192628Y0400023D01*
X-0192628Y0399023D01*
X-0193628Y0398024D01*
X-0195627Y0398024D01*
X-0196627Y0399023D01*
X-0184631Y0404022D02*
X-0184631Y0398024D01*
X-0181632Y0398024D01*
X-0180632Y0399023D01*
X-0180632Y0400023D01*
X-0181632Y0401023D01*
X-0184631Y0401023D01*
X-0181632Y0401023D01*
X-0180632Y0402022D01*
X-0180632Y0403022D01*
X-0181632Y0404022D01*
X-0184631Y0404022D01*
X-0178633Y0398024D02*
X-0176633Y0398024D01*
X-0177633Y0398024D01*
X-0177633Y0404022D01*
X-0178633Y0404022D01*
X-0173634Y0402022D02*
X-0173634Y0399023D01*
X-0172635Y0398024D01*
X-0169636Y0398024D01*
X-0169636Y0402022D01*
X-0164637Y0398024D02*
X-0166637Y0398024D01*
X-0167636Y0399023D01*
X-0167636Y0401023D01*
X-0166637Y0402022D01*
X-0164637Y0402022D01*
X-0163638Y0401023D01*
X-0163638Y0400023D01*
X-0167636Y0400023D01*
X-0161638Y0398024D02*
X-0158639Y0398024D01*
X-0157640Y0399023D01*
X-0158639Y0400023D01*
X-0160639Y0400023D01*
X-0161638Y0401023D01*
X-0160639Y0402022D01*
X-0157640Y0402022D01*
X-0149642Y0404022D02*
X-0147643Y0404022D01*
X-0148643Y0404022D01*
X-0148643Y0398024D01*
X-0149642Y0398024D01*
X-0147643Y0398024D01*
X-0144644Y0398024D02*
X-0144644Y0402022D01*
X-0141645Y0402022D01*
X-0140645Y0401023D01*
X-0140645Y0398024D01*
X-0134647Y0402022D02*
X-0137646Y0402022D01*
X-0138646Y0401023D01*
X-0138646Y0399023D01*
X-0137646Y0398024D01*
X-0134647Y0398024D01*
X-0132648Y0398024D02*
X-0132648Y0399023D01*
X-0131648Y0399023D01*
X-0131648Y0398024D01*
X-0132648Y0398024D01*
X0439272Y-0296693D02*
X0441271Y-0296693D01*
X0440271Y-0296693D01*
X0440271Y-0290695D01*
X0439272Y-0291694D01*
X0444270Y-0291694D02*
X0445270Y-0290695D01*
X0447269Y-0290695D01*
X0448269Y-0291694D01*
X0448269Y-0295693D01*
X0447269Y-0296693D01*
X0445270Y-0296693D01*
X0444270Y-0295693D01*
X0444270Y-0291694D01*
X0450268Y-0291694D02*
X0451268Y-0290695D01*
X0453267Y-0290695D01*
X0454267Y-0291694D01*
X0454267Y-0295693D01*
X0453267Y-0296693D01*
X0451268Y-0296693D01*
X0450268Y-0295693D01*
X0450268Y-0291694D01*
X0460265Y-0290695D02*
X0456266Y-0290695D01*
X0456266Y-0293694D01*
X0458265Y-0292694D01*
X0459265Y-0292694D01*
X0460265Y-0293694D01*
X0460265Y-0295693D01*
X0459265Y-0296693D01*
X0457266Y-0296693D01*
X0456266Y-0295693D01*
X0465263Y-0296693D02*
X0465263Y-0290695D01*
X0462264Y-0293694D01*
X0466263Y-0293694D01*
X0471261Y-0296693D02*
X0471261Y-0290695D01*
X0468262Y-0293694D01*
X0472261Y-0293694D01*
X0480258Y-0296693D02*
X0480258Y-0290695D01*
X0484257Y-0296693D01*
X0484257Y-0290695D01*
X0487256Y-0296693D02*
X0489255Y-0296693D01*
X0490255Y-0295693D01*
X0490255Y-0293694D01*
X0489255Y-0292694D01*
X0487256Y-0292694D01*
X0486256Y-0293694D01*
X0486256Y-0295693D01*
X0487256Y-0296693D01*
X0493254Y-0291694D02*
X0493254Y-0292694D01*
X0492254Y-0292694D01*
X0494254Y-0292694D01*
X0493254Y-0292694D01*
X0493254Y-0295693D01*
X0494254Y-0296693D01*
X0500252Y-0296693D02*
X0498252Y-0296693D01*
X0497253Y-0295693D01*
X0497253Y-0293694D01*
X0498252Y-0292694D01*
X0500252Y-0292694D01*
X0501252Y-0293694D01*
X0501252Y-0294694D01*
X0497253Y-0294694D01*
X0507250Y-0292694D02*
X0504251Y-0292694D01*
X0503251Y-0293694D01*
X0503251Y-0295693D01*
X0504251Y-0296693D01*
X0507250Y-0296693D01*
X0510249Y-0292694D02*
X0512248Y-0292694D01*
X0513248Y-0293694D01*
X0513248Y-0296693D01*
X0510249Y-0296693D01*
X0509249Y-0295693D01*
X0510249Y-0294694D01*
X0513248Y-0294694D01*
X0515247Y-0292694D02*
X0515247Y-0296693D01*
X0515247Y-0294694D01*
X0516247Y-0293694D01*
X0517246Y-0292694D01*
X0518246Y-0292694D01*
X0521245Y-0292694D02*
X0521245Y-0296693D01*
X0521245Y-0294694D01*
X0522245Y-0293694D01*
X0523244Y-0292694D01*
X0524244Y-0292694D01*
X0527243Y-0296693D02*
X0529243Y-0296693D01*
X0528243Y-0296693D01*
X0528243Y-0292694D01*
X0527243Y-0292694D01*
X0535241Y-0296693D02*
X0533241Y-0296693D01*
X0532241Y-0295693D01*
X0532241Y-0293694D01*
X0533241Y-0292694D01*
X0535241Y-0292694D01*
X0536240Y-0293694D01*
X0536240Y-0294694D01*
X0532241Y-0294694D01*
X0538240Y-0292694D02*
X0538240Y-0296693D01*
X0538240Y-0294694D01*
X0539239Y-0293694D01*
X0540239Y-0292694D01*
X0541239Y-0292694D01*
X0544238Y-0293694D02*
X0548236Y-0293694D01*
X0554234Y-0291694D02*
X0553235Y-0290695D01*
X0551235Y-0290695D01*
X0550236Y-0291694D01*
X0550236Y-0295693D01*
X0551235Y-0296693D01*
X0553235Y-0296693D01*
X0554234Y-0295693D01*
X0556234Y-0290695D02*
X0560232Y-0296693D01*
X0560232Y-0290695D02*
X0556234Y-0296693D01*
X0568230Y-0296693D02*
X0568230Y-0290695D01*
X0571229Y-0290695D01*
X0572229Y-0291694D01*
X0572229Y-0293694D01*
X0571229Y-0294694D01*
X0568230Y-0294694D01*
X0570229Y-0294694D02*
X0572229Y-0296693D01*
X0577227Y-0296693D02*
X0575228Y-0296693D01*
X0574228Y-0295693D01*
X0574228Y-0293694D01*
X0575228Y-0292694D01*
X0577227Y-0292694D01*
X0578227Y-0293694D01*
X0578227Y-0294694D01*
X0574228Y-0294694D01*
X0580226Y-0292694D02*
X0582225Y-0296693D01*
X0584225Y-0292694D01*
X0586224Y-0296693D02*
X0586224Y-0295693D01*
X0587224Y-0295693D01*
X0587224Y-0296693D01*
X0586224Y-0296693D01*
X0597221Y-0296693D02*
X0599220Y-0296693D01*
X0598220Y-0296693D01*
X0598220Y-0290695D01*
X0597221Y-0291694D01*
X0602219Y-0290695D02*
X0606218Y-0290695D01*
X0606218Y-0291694D01*
X0602219Y-0295693D01*
X0602219Y-0296693D01*
X0767028Y-0297677D02*
X0767028Y-0293678D01*
X0769027Y-0291679D01*
X0771026Y-0293678D01*
X0771026Y-0297677D01*
X0771026Y-0294678D01*
X0767028Y-0294678D01*
X0776025Y-0297677D02*
X0776025Y-0291679D01*
X0773026Y-0294678D01*
X0777024Y-0294678D01*
X0431459Y-0227900D02*
X0427461Y-0227900D01*
X0427461Y-0233898D01*
X0431459Y-0233898D01*
X0427461Y-0230899D02*
X0429460Y-0230899D01*
X0433459Y-0233898D02*
X0433459Y-0232898D01*
X0434458Y-0232898D01*
X0434458Y-0233898D01*
X0433459Y-0233898D01*
X0448454Y-0228899D02*
X0447454Y-0227900D01*
X0445455Y-0227900D01*
X0444455Y-0228899D01*
X0444455Y-0229899D01*
X0445455Y-0230899D01*
X0447454Y-0230899D01*
X0448454Y-0231898D01*
X0448454Y-0232898D01*
X0447454Y-0233898D01*
X0445455Y-0233898D01*
X0444455Y-0232898D01*
X0451453Y-0228899D02*
X0451453Y-0229899D01*
X0450453Y-0229899D01*
X0452453Y-0229899D01*
X0451453Y-0229899D01*
X0451453Y-0232898D01*
X0452453Y-0233898D01*
X0456451Y-0229899D02*
X0458451Y-0229899D01*
X0459450Y-0230899D01*
X0459450Y-0233898D01*
X0456451Y-0233898D01*
X0455451Y-0232898D01*
X0456451Y-0231898D01*
X0459450Y-0231898D01*
X0461450Y-0233898D02*
X0461450Y-0229899D01*
X0464449Y-0229899D01*
X0465448Y-0230899D01*
X0465448Y-0233898D01*
X0467448Y-0233898D02*
X0469447Y-0233898D01*
X0468447Y-0233898D01*
X0468447Y-0229899D01*
X0467448Y-0229899D01*
X0472446Y-0233898D02*
X0475445Y-0233898D01*
X0476445Y-0232898D01*
X0475445Y-0231898D01*
X0473446Y-0231898D01*
X0472446Y-0230899D01*
X0473446Y-0229899D01*
X0476445Y-0229899D01*
X0478444Y-0227900D02*
X0478444Y-0233898D01*
X0478444Y-0230899D01*
X0479444Y-0229899D01*
X0481443Y-0229899D01*
X0482443Y-0230899D01*
X0482443Y-0233898D01*
X0485442Y-0229899D02*
X0487441Y-0229899D01*
X0488441Y-0230899D01*
X0488441Y-0233898D01*
X0485442Y-0233898D01*
X0484442Y-0232898D01*
X0485442Y-0231898D01*
X0488441Y-0231898D01*
X0431459Y-0209582D02*
X0430460Y-0208582D01*
X0428460Y-0208582D01*
X0427461Y-0209582D01*
X0427461Y-0210581D01*
X0428460Y-0211581D01*
X0430460Y-0211581D01*
X0431459Y-0212581D01*
X0431459Y-0213580D01*
X0430460Y-0214580D01*
X0428460Y-0214580D01*
X0427461Y-0213580D01*
X0433459Y-0214580D02*
X0433459Y-0213580D01*
X0434458Y-0213580D01*
X0434458Y-0214580D01*
X0433459Y-0214580D01*
X0438457Y-0208582D02*
X0438457Y-0212581D01*
X0440456Y-0214580D01*
X0442456Y-0212581D01*
X0442456Y-0208582D01*
X0445455Y-0210581D02*
X0447454Y-0210581D01*
X0448454Y-0211581D01*
X0448454Y-0214580D01*
X0445455Y-0214580D01*
X0444455Y-0213580D01*
X0445455Y-0212581D01*
X0448454Y-0212581D01*
X0452453Y-0216579D02*
X0453452Y-0216579D01*
X0454452Y-0215580D01*
X0454452Y-0210581D01*
X0451453Y-0210581D01*
X0450453Y-0211581D01*
X0450453Y-0213580D01*
X0451453Y-0214580D01*
X0454452Y-0214580D01*
X0456451Y-0208582D02*
X0456451Y-0214580D01*
X0456451Y-0211581D01*
X0457451Y-0210581D01*
X0459450Y-0210581D01*
X0460450Y-0211581D01*
X0460450Y-0214580D01*
X0462449Y-0214580D02*
X0464449Y-0214580D01*
X0463449Y-0214580D01*
X0463449Y-0210581D01*
X0462449Y-0210581D01*
D191*
X0422539Y-0242559D02*
X0422539Y-0189016D01*
X0368405Y-0242559D02*
X0818405Y-0242559D01*
X0518405Y-0279016D02*
X0518405Y-0249016D01*
X0728405Y-0309016D02*
X0728405Y-0279016D01*
X0368405Y-0309016D02*
X0368405Y-0189016D01*
X0818405Y-0309016D02*
X0818405Y-0189016D01*
X0518405Y-0189016D02*
X0818405Y-0189016D01*
X0518405Y-0249016D02*
X0518405Y-0189016D01*
X0368405Y-0189016D02*
X0518405Y-0189016D01*
X0368405Y-0221745D02*
X0518405Y-0221745D01*
X0368405Y-0279016D02*
X0818405Y-0279016D01*
X0368405Y-0309016D02*
X0818405Y-0309016D01*
X0368405Y-0202480D02*
X0518012Y-0202480D01*
X0262106Y-0189016D02*
X0368405Y-0189016D01*
X0262106Y-0309016D02*
X0262106Y-0189016D01*
X0262106Y-0309016D02*
X0368405Y-0309016D01*
X0550886Y-0328976D02*
X0550886Y-0308976D01*
X0263386Y-0328976D02*
X0263386Y-0308976D01*
X-0024114Y-0328976D02*
X-0024114Y-0308976D01*
X-0311614Y-0138976D02*
X-0291614Y-0138976D01*
X-0311614Y0051024D02*
X-0291614Y0051024D01*
X-0311614Y0241024D02*
X-0291614Y0241024D01*
X-0311614Y-0328976D02*
X-0311614Y0431024D01*
X0818386Y-0138976D02*
X0838386Y-0138976D01*
X0818386Y0051024D02*
X0838386Y0051024D01*
X0818386Y0241024D02*
X0838386Y0241024D01*
X0550886Y0411024D02*
X0550886Y0431024D01*
X0263386Y0411024D02*
X0263386Y0431024D01*
X-0024114Y0411024D02*
X-0024114Y0431024D01*
X-0291614Y0411024D02*
X0818386Y0411024D01*
X0818386Y-0308976D02*
X0818386Y0411024D01*
X-0291614Y-0308976D02*
X0818386Y-0308976D01*
X-0291614Y-0308976D02*
X-0291614Y0411024D01*
X-0311614Y0431024D02*
X0838386Y0431024D01*
X0838386Y-0328976D02*
X0838386Y0431024D01*
X-0311614Y-0328976D02*
X0838386Y-0328976D01*
X0373405Y-0283823D02*
X0373405Y-0288322D01*
X0373405Y-0283823D02*
X0374905Y-0283823D01*
X0375548Y-0284038D01*
X0375976Y-0284466D01*
X0376191Y-0284895D01*
X0376405Y-0285537D01*
X0376405Y-0286609D01*
X0376191Y-0287251D01*
X0375976Y-0287680D01*
X0375548Y-0288108D01*
X0374905Y-0288322D01*
X0373405Y-0288322D01*
X0380197Y-0283823D02*
X0377412Y-0283823D01*
X0377412Y-0288322D01*
X0380197Y-0288322D01*
X0377412Y-0285966D02*
X0379126Y-0285966D01*
X0383946Y-0284466D02*
X0383518Y-0284038D01*
X0382875Y-0283823D01*
X0382018Y-0283823D01*
X0381375Y-0284038D01*
X0380947Y-0284466D01*
X0380947Y-0284895D01*
X0381161Y-0285323D01*
X0381375Y-0285537D01*
X0381804Y-0285752D01*
X0383089Y-0286180D01*
X0383518Y-0286394D01*
X0383732Y-0286609D01*
X0383946Y-0287037D01*
X0383946Y-0287680D01*
X0383518Y-0288108D01*
X0382875Y-0288322D01*
X0382018Y-0288322D01*
X0381375Y-0288108D01*
X0380947Y-0287680D01*
X0384953Y-0283823D02*
X0384953Y-0288322D01*
X0389109Y-0284895D02*
X0388895Y-0284466D01*
X0388467Y-0284038D01*
X0388038Y-0283823D01*
X0387181Y-0283823D01*
X0386753Y-0284038D01*
X0386324Y-0284466D01*
X0386110Y-0284895D01*
X0385896Y-0285537D01*
X0385896Y-0286609D01*
X0386110Y-0287251D01*
X0386324Y-0287680D01*
X0386753Y-0288108D01*
X0387181Y-0288322D01*
X0388038Y-0288322D01*
X0388467Y-0288108D01*
X0388895Y-0287680D01*
X0389109Y-0287251D01*
X0389109Y-0286609D01*
X0388038Y-0286609D02*
X0389109Y-0286609D01*
X0390138Y-0283823D02*
X0390138Y-0288322D01*
X0390138Y-0283823D02*
X0393137Y-0288322D01*
X0393137Y-0283823D02*
X0393137Y-0288322D01*
X0397915Y-0283823D02*
X0397915Y-0288322D01*
X0397915Y-0283823D02*
X0399414Y-0283823D01*
X0400057Y-0284038D01*
X0400485Y-0284466D01*
X0400700Y-0284895D01*
X0400914Y-0285537D01*
X0400914Y-0286609D01*
X0400700Y-0287251D01*
X0400485Y-0287680D01*
X0400057Y-0288108D01*
X0399414Y-0288322D01*
X0397915Y-0288322D01*
X0403206Y-0283823D02*
X0402778Y-0284038D01*
X0402349Y-0284466D01*
X0402135Y-0284895D01*
X0401921Y-0285537D01*
X0401921Y-0286609D01*
X0402135Y-0287251D01*
X0402349Y-0287680D01*
X0402778Y-0288108D01*
X0403206Y-0288322D01*
X0404063Y-0288322D01*
X0404492Y-0288108D01*
X0404920Y-0287680D01*
X0405134Y-0287251D01*
X0405349Y-0286609D01*
X0405349Y-0285537D01*
X0405134Y-0284895D01*
X0404920Y-0284466D01*
X0404492Y-0284038D01*
X0404063Y-0283823D01*
X0403206Y-0283823D01*
X0409612Y-0284895D02*
X0409398Y-0284466D01*
X0408969Y-0284038D01*
X0408541Y-0283823D01*
X0407684Y-0283823D01*
X0407255Y-0284038D01*
X0406827Y-0284466D01*
X0406613Y-0284895D01*
X0406398Y-0285537D01*
X0406398Y-0286609D01*
X0406613Y-0287251D01*
X0406827Y-0287680D01*
X0407255Y-0288108D01*
X0407684Y-0288322D01*
X0408541Y-0288322D01*
X0408969Y-0288108D01*
X0409398Y-0287680D01*
X0409612Y-0287251D01*
X0410876Y-0283823D02*
X0410876Y-0287037D01*
X0411090Y-0287680D01*
X0411519Y-0288108D01*
X0412161Y-0288322D01*
X0412590Y-0288322D01*
X0413233Y-0288108D01*
X0413661Y-0287680D01*
X0413875Y-0287037D01*
X0413875Y-0283823D01*
X0415118Y-0283823D02*
X0415118Y-0288322D01*
X0415118Y-0283823D02*
X0416832Y-0288322D01*
X0418546Y-0283823D02*
X0416832Y-0288322D01*
X0418546Y-0283823D02*
X0418546Y-0288322D01*
X0422616Y-0283823D02*
X0419831Y-0283823D01*
X0419831Y-0288322D01*
X0422616Y-0288322D01*
X0419831Y-0285966D02*
X0421545Y-0285966D01*
X0423366Y-0283823D02*
X0423366Y-0288322D01*
X0423366Y-0283823D02*
X0426366Y-0288322D01*
X0426366Y-0283823D02*
X0426366Y-0288322D01*
X0429108Y-0283823D02*
X0429108Y-0288322D01*
X0427608Y-0283823D02*
X0430608Y-0283823D01*
X0373405Y-0290422D02*
X0373405Y-0294921D01*
X0373405Y-0290422D02*
X0376405Y-0294921D01*
X0376405Y-0290422D02*
X0376405Y-0294921D01*
X0381075Y-0294921D02*
X0379361Y-0290422D01*
X0377647Y-0294921D01*
X0378290Y-0293422D02*
X0380433Y-0293422D01*
X0382125Y-0290422D02*
X0382125Y-0294921D01*
X0382125Y-0290422D02*
X0383839Y-0294921D01*
X0385553Y-0290422D02*
X0383839Y-0294921D01*
X0385553Y-0290422D02*
X0385553Y-0294921D01*
X0389623Y-0290422D02*
X0386838Y-0290422D01*
X0386838Y-0294921D01*
X0389623Y-0294921D01*
X0386838Y-0292565D02*
X0388552Y-0292565D01*
X0390587Y-0291922D02*
X0390373Y-0292136D01*
X0390587Y-0292350D01*
X0390802Y-0292136D01*
X0390587Y-0291922D01*
X0390587Y-0294493D02*
X0390373Y-0294707D01*
X0390587Y-0294921D01*
X0390802Y-0294707D01*
X0390587Y-0294493D01*
X0430460Y-0194411D02*
X0430031Y-0193983D01*
X0429389Y-0193769D01*
X0428532Y-0193769D01*
X0427889Y-0193983D01*
X0427461Y-0194411D01*
X0427461Y-0194840D01*
X0427675Y-0195268D01*
X0427889Y-0195483D01*
X0428317Y-0195697D01*
X0429603Y-0196125D01*
X0430031Y-0196340D01*
X0430246Y-0196554D01*
X0430460Y-0196982D01*
X0430460Y-0197625D01*
X0430031Y-0198054D01*
X0429389Y-0198268D01*
X0428532Y-0198268D01*
X0427889Y-0198054D01*
X0427461Y-0197625D01*
X0431467Y-0193769D02*
X0431467Y-0198268D01*
X0435623Y-0194840D02*
X0435409Y-0194411D01*
X0434980Y-0193983D01*
X0434552Y-0193769D01*
X0433695Y-0193769D01*
X0433266Y-0193983D01*
X0432838Y-0194411D01*
X0432624Y-0194840D01*
X0432409Y-0195483D01*
X0432409Y-0196554D01*
X0432624Y-0197196D01*
X0432838Y-0197625D01*
X0433266Y-0198054D01*
X0433695Y-0198268D01*
X0434552Y-0198268D01*
X0434980Y-0198054D01*
X0435409Y-0197625D01*
X0435623Y-0197196D01*
X0435623Y-0196554D01*
X0434552Y-0196554D02*
X0435623Y-0196554D01*
X0436652Y-0193769D02*
X0436652Y-0198268D01*
X0436652Y-0193769D02*
X0439651Y-0198268D01*
X0439651Y-0193769D02*
X0439651Y-0198268D01*
X0444321Y-0198268D02*
X0442607Y-0193769D01*
X0440893Y-0198268D01*
X0441536Y-0196768D02*
X0443679Y-0196768D01*
X0446871Y-0193769D02*
X0446871Y-0198268D01*
X0445371Y-0193769D02*
X0448370Y-0193769D01*
X0448906Y-0193769D02*
X0448906Y-0196982D01*
X0449120Y-0197625D01*
X0449549Y-0198054D01*
X0450191Y-0198268D01*
X0450620Y-0198268D01*
X0451263Y-0198054D01*
X0451691Y-0197625D01*
X0451905Y-0196982D01*
X0451905Y-0193769D01*
X0453148Y-0193769D02*
X0453148Y-0198268D01*
X0453148Y-0193769D02*
X0455076Y-0193769D01*
X0455719Y-0193983D01*
X0455933Y-0194197D01*
X0456147Y-0194626D01*
X0456147Y-0195054D01*
X0455933Y-0195483D01*
X0455719Y-0195697D01*
X0455076Y-0195911D01*
X0453148Y-0195911D01*
X0454648Y-0195911D02*
X0456147Y-0198268D01*
X0459939Y-0193769D02*
X0457154Y-0193769D01*
X0457154Y-0198268D01*
X0459939Y-0198268D01*
X0457154Y-0195911D02*
X0458868Y-0195911D01*
X0733405Y-0284517D02*
X0733405Y-0289016D01*
X0733405Y-0284517D02*
X0736191Y-0284517D01*
X0733405Y-0286659D02*
X0735119Y-0286659D01*
X0737990Y-0284517D02*
X0737562Y-0284731D01*
X0737133Y-0285159D01*
X0736919Y-0285588D01*
X0736705Y-0286231D01*
X0736705Y-0287302D01*
X0736919Y-0287945D01*
X0737133Y-0288373D01*
X0737562Y-0288802D01*
X0737990Y-0289016D01*
X0738847Y-0289016D01*
X0739276Y-0288802D01*
X0739704Y-0288373D01*
X0739918Y-0287945D01*
X0740133Y-0287302D01*
X0740133Y-0286231D01*
X0739918Y-0285588D01*
X0739704Y-0285159D01*
X0739276Y-0284731D01*
X0738847Y-0284517D01*
X0737990Y-0284517D01*
X0741182Y-0284517D02*
X0741182Y-0289016D01*
X0741182Y-0284517D02*
X0743111Y-0284517D01*
X0743753Y-0284731D01*
X0743967Y-0284945D01*
X0744182Y-0285374D01*
X0744182Y-0285802D01*
X0743967Y-0286231D01*
X0743753Y-0286445D01*
X0743111Y-0286659D01*
X0741182Y-0286659D01*
X0742682Y-0286659D02*
X0744182Y-0289016D01*
X0745189Y-0284517D02*
X0745189Y-0289016D01*
X0745189Y-0284517D02*
X0746903Y-0289016D01*
X0748617Y-0284517D02*
X0746903Y-0289016D01*
X0748617Y-0284517D02*
X0748617Y-0289016D01*
X0753330Y-0289016D02*
X0751616Y-0284517D01*
X0749902Y-0289016D01*
X0750545Y-0287516D02*
X0752687Y-0287516D01*
X0755879Y-0284517D02*
X0755879Y-0289016D01*
X0754380Y-0284517D02*
X0757379Y-0284517D01*
X0758129Y-0286016D02*
X0757914Y-0286231D01*
X0758129Y-0286445D01*
X0758343Y-0286231D01*
X0758129Y-0286016D01*
X0758129Y-0288587D02*
X0757914Y-0288802D01*
X0758129Y-0289016D01*
X0758343Y-0288802D01*
X0758129Y-0288587D01*
X0375770Y-0233898D02*
X0374056Y-0229399D01*
X0372342Y-0233898D01*
X0372985Y-0232398D02*
X0375128Y-0232398D01*
X0380034Y-0230470D02*
X0379819Y-0230041D01*
X0379391Y-0229613D01*
X0378962Y-0229399D01*
X0378105Y-0229399D01*
X0377677Y-0229613D01*
X0377249Y-0230041D01*
X0377034Y-0230470D01*
X0376820Y-0231113D01*
X0376820Y-0232184D01*
X0377034Y-0232826D01*
X0377249Y-0233255D01*
X0377677Y-0233683D01*
X0378105Y-0233898D01*
X0378962Y-0233898D01*
X0379391Y-0233683D01*
X0379819Y-0233255D01*
X0380034Y-0232826D01*
X0384511Y-0230470D02*
X0384297Y-0230041D01*
X0383869Y-0229613D01*
X0383440Y-0229399D01*
X0382583Y-0229399D01*
X0382155Y-0229613D01*
X0381726Y-0230041D01*
X0381512Y-0230470D01*
X0381298Y-0231113D01*
X0381298Y-0232184D01*
X0381512Y-0232826D01*
X0381726Y-0233255D01*
X0382155Y-0233683D01*
X0382583Y-0233898D01*
X0383440Y-0233898D01*
X0383869Y-0233683D01*
X0384297Y-0233255D01*
X0384511Y-0232826D01*
X0388560Y-0229399D02*
X0385775Y-0229399D01*
X0385775Y-0233898D01*
X0388560Y-0233898D01*
X0385775Y-0231541D02*
X0387489Y-0231541D01*
X0389310Y-0231755D02*
X0391238Y-0231755D01*
X0391881Y-0231541D01*
X0392095Y-0231327D01*
X0392310Y-0230898D01*
X0392310Y-0230256D01*
X0392095Y-0229827D01*
X0391881Y-0229613D01*
X0391238Y-0229399D01*
X0389310Y-0229399D01*
X0389310Y-0233898D01*
X0394816Y-0229399D02*
X0394816Y-0233898D01*
X0393317Y-0229399D02*
X0396316Y-0229399D01*
X0398137Y-0229399D02*
X0397708Y-0229613D01*
X0397280Y-0230041D01*
X0397066Y-0230470D01*
X0396851Y-0231113D01*
X0396851Y-0232184D01*
X0397066Y-0232826D01*
X0397280Y-0233255D01*
X0397708Y-0233683D01*
X0398137Y-0233898D01*
X0398994Y-0233898D01*
X0399422Y-0233683D01*
X0399851Y-0233255D01*
X0400065Y-0232826D01*
X0400279Y-0232184D01*
X0400279Y-0231113D01*
X0400065Y-0230470D01*
X0399851Y-0230041D01*
X0399422Y-0229613D01*
X0398994Y-0229399D01*
X0398137Y-0229399D01*
X0401329Y-0229399D02*
X0401329Y-0233898D01*
X0401329Y-0229399D02*
X0403257Y-0229399D01*
X0403900Y-0229613D01*
X0404114Y-0229827D01*
X0404328Y-0230256D01*
X0404328Y-0230684D01*
X0404114Y-0231113D01*
X0403900Y-0231327D01*
X0403257Y-0231541D01*
X0401329Y-0231541D01*
X0402829Y-0231541D02*
X0404328Y-0233898D01*
X0405550Y-0230898D02*
X0405335Y-0231113D01*
X0405550Y-0231327D01*
X0405764Y-0231113D01*
X0405550Y-0230898D01*
X0405550Y-0233469D02*
X0405335Y-0233683D01*
X0405550Y-0233898D01*
X0405764Y-0233683D01*
X0405550Y-0233469D01*
X0524905Y-0194517D02*
X0524905Y-0199016D01*
X0523405Y-0194517D02*
X0526405Y-0194517D01*
X0526940Y-0194517D02*
X0526940Y-0199016D01*
X0529383Y-0194517D02*
X0529383Y-0199016D01*
X0527883Y-0194517D02*
X0530882Y-0194517D01*
X0531418Y-0194517D02*
X0531418Y-0199016D01*
X0533989Y-0199016D01*
X0537267Y-0194517D02*
X0534482Y-0194517D01*
X0534482Y-0199016D01*
X0537267Y-0199016D01*
X0534482Y-0196659D02*
X0536196Y-0196659D01*
X0538231Y-0196016D02*
X0538017Y-0196231D01*
X0538231Y-0196445D01*
X0538445Y-0196231D01*
X0538231Y-0196016D01*
X0538231Y-0198587D02*
X0538017Y-0198802D01*
X0538231Y-0199016D01*
X0538445Y-0198802D01*
X0538231Y-0198587D01*
X0375770Y-0214409D02*
X0374056Y-0209910D01*
X0372342Y-0214409D01*
X0372985Y-0212910D02*
X0375128Y-0212910D01*
X0376820Y-0209910D02*
X0376820Y-0213124D01*
X0377034Y-0213767D01*
X0377463Y-0214195D01*
X0378105Y-0214409D01*
X0378534Y-0214409D01*
X0379177Y-0214195D01*
X0379605Y-0213767D01*
X0379819Y-0213124D01*
X0379819Y-0209910D01*
X0382562Y-0209910D02*
X0382562Y-0214409D01*
X0381062Y-0209910D02*
X0384061Y-0209910D01*
X0384597Y-0209910D02*
X0384597Y-0214409D01*
X0387596Y-0209910D02*
X0387596Y-0214409D01*
X0384597Y-0212053D02*
X0387596Y-0212053D01*
X0390124Y-0209910D02*
X0389696Y-0210125D01*
X0389267Y-0210553D01*
X0389053Y-0210982D01*
X0388839Y-0211624D01*
X0388839Y-0212696D01*
X0389053Y-0213338D01*
X0389267Y-0213767D01*
X0389696Y-0214195D01*
X0390124Y-0214409D01*
X0390981Y-0214409D01*
X0391410Y-0214195D01*
X0391838Y-0213767D01*
X0392053Y-0213338D01*
X0392267Y-0212696D01*
X0392267Y-0211624D01*
X0392053Y-0210982D01*
X0391838Y-0210553D01*
X0391410Y-0210125D01*
X0390981Y-0209910D01*
X0390124Y-0209910D01*
X0393317Y-0209910D02*
X0393317Y-0214409D01*
X0393317Y-0209910D02*
X0395245Y-0209910D01*
X0395887Y-0210125D01*
X0396102Y-0210339D01*
X0396316Y-0210767D01*
X0396316Y-0211196D01*
X0396102Y-0211624D01*
X0395887Y-0211839D01*
X0395245Y-0212053D01*
X0393317Y-0212053D01*
X0394816Y-0212053D02*
X0396316Y-0214409D01*
X0397537Y-0211410D02*
X0397323Y-0211624D01*
X0397537Y-0211839D01*
X0397751Y-0211624D01*
X0397537Y-0211410D01*
X0397537Y-0213981D02*
X0397323Y-0214195D01*
X0397537Y-0214409D01*
X0397751Y-0214195D01*
X0397537Y-0213981D01*
D192*
X0269390Y-0265277D02*
X0269390Y-0271772D01*
X0269390Y-0265277D02*
X0272173Y-0265277D01*
X0273101Y-0265586D01*
X0273410Y-0265896D01*
X0273720Y-0266514D01*
X0273720Y-0267133D01*
X0273410Y-0267751D01*
X0273101Y-0268060D01*
X0272173Y-0268370D01*
X0269390Y-0268370D02*
X0272173Y-0268370D01*
X0273101Y-0268679D01*
X0273410Y-0268988D01*
X0273720Y-0269607D01*
X0273720Y-0270535D01*
X0273410Y-0271153D01*
X0273101Y-0271462D01*
X0272173Y-0271772D01*
X0269390Y-0271772D01*
X0275482Y-0267442D02*
X0277338Y-0271772D01*
X0279194Y-0267442D02*
X0277338Y-0271772D01*
X0276719Y-0273009D01*
X0276101Y-0273627D01*
X0275482Y-0273937D01*
X0275173Y-0273937D01*
X0281204Y-0265277D02*
X0281204Y-0270535D01*
X0281513Y-0271462D01*
X0282132Y-0271772D01*
X0282750Y-0271772D01*
X0280276Y-0267442D02*
X0282441Y-0267442D01*
X0283678Y-0269298D02*
X0287389Y-0269298D01*
X0287389Y-0268679D01*
X0287080Y-0268060D01*
X0286771Y-0267751D01*
X0286152Y-0267442D01*
X0285224Y-0267442D01*
X0284606Y-0267751D01*
X0283987Y-0268370D01*
X0283678Y-0269298D01*
X0283678Y-0269916D01*
X0283987Y-0270844D01*
X0284606Y-0271462D01*
X0285224Y-0271772D01*
X0286152Y-0271772D01*
X0286771Y-0271462D01*
X0287389Y-0270844D01*
X0293884Y-0265277D02*
X0293884Y-0271772D01*
X0297595Y-0271772D01*
X0302018Y-0267442D02*
X0302018Y-0271772D01*
X0302018Y-0268370D02*
X0301399Y-0267751D01*
X0300781Y-0267442D01*
X0299853Y-0267442D01*
X0299234Y-0267751D01*
X0298616Y-0268370D01*
X0298306Y-0269298D01*
X0298306Y-0269916D01*
X0298616Y-0270844D01*
X0299234Y-0271462D01*
X0299853Y-0271772D01*
X0300781Y-0271772D01*
X0301399Y-0271462D01*
X0302018Y-0270844D01*
X0303750Y-0265277D02*
X0303750Y-0271772D01*
X0303750Y-0268370D02*
X0304368Y-0267751D01*
X0304987Y-0267442D01*
X0305914Y-0267442D01*
X0306533Y-0267751D01*
X0307152Y-0268370D01*
X0307461Y-0269298D01*
X0307461Y-0269916D01*
X0307152Y-0270844D01*
X0306533Y-0271462D01*
X0305914Y-0271772D01*
X0304987Y-0271772D01*
X0304368Y-0271462D01*
X0303750Y-0270844D01*
X0318595Y-0266823D02*
X0318285Y-0266205D01*
X0317667Y-0265586D01*
X0317048Y-0265277D01*
X0315811Y-0265277D01*
X0315193Y-0265586D01*
X0314574Y-0266205D01*
X0314265Y-0266823D01*
X0313955Y-0267751D01*
X0313955Y-0269298D01*
X0314265Y-0270225D01*
X0314574Y-0270844D01*
X0315193Y-0271462D01*
X0315811Y-0271772D01*
X0317048Y-0271772D01*
X0317667Y-0271462D01*
X0318285Y-0270844D01*
X0318595Y-0270225D01*
X0318595Y-0269298D01*
X0317048Y-0269298D02*
X0318595Y-0269298D01*
X0320079Y-0267442D02*
X0320079Y-0271772D01*
X0320079Y-0269298D02*
X0320388Y-0268370D01*
X0321007Y-0267751D01*
X0321625Y-0267442D01*
X0322553Y-0267442D01*
X0323141Y-0267442D02*
X0323141Y-0270535D01*
X0323450Y-0271462D01*
X0324069Y-0271772D01*
X0324996Y-0271772D01*
X0325615Y-0271462D01*
X0326543Y-0270535D01*
X0326543Y-0267442D02*
X0326543Y-0271772D01*
X0328244Y-0267442D02*
X0328244Y-0273937D01*
X0328244Y-0268370D02*
X0328862Y-0267751D01*
X0329481Y-0267442D01*
X0330409Y-0267442D01*
X0331027Y-0267751D01*
X0331646Y-0268370D01*
X0331955Y-0269298D01*
X0331955Y-0269916D01*
X0331646Y-0270844D01*
X0331027Y-0271462D01*
X0330409Y-0271772D01*
X0329481Y-0271772D01*
X0328862Y-0271462D01*
X0328244Y-0270844D01*
X0337058Y-0267442D02*
X0337058Y-0271772D01*
X0337058Y-0268370D02*
X0336439Y-0267751D01*
X0335821Y-0267442D01*
X0334893Y-0267442D01*
X0334275Y-0267751D01*
X0333656Y-0268370D01*
X0333347Y-0269298D01*
X0333347Y-0269916D01*
X0333656Y-0270844D01*
X0334275Y-0271462D01*
X0334893Y-0271772D01*
X0335821Y-0271772D01*
X0336439Y-0271462D01*
X0337058Y-0270844D01*
X0347604Y-0265277D02*
X0347604Y-0271772D01*
X0347604Y-0268370D02*
X0346986Y-0267751D01*
X0346367Y-0267442D01*
X0345439Y-0267442D01*
X0344821Y-0267751D01*
X0344202Y-0268370D01*
X0343893Y-0269298D01*
X0343893Y-0269916D01*
X0344202Y-0270844D01*
X0344821Y-0271462D01*
X0345439Y-0271772D01*
X0346367Y-0271772D01*
X0346986Y-0271462D01*
X0347604Y-0270844D01*
X0349645Y-0271153D02*
X0349336Y-0271462D01*
X0349645Y-0271772D01*
X0349955Y-0271462D01*
X0349645Y-0271153D01*
X0352923Y-0267442D02*
X0352305Y-0267751D01*
X0351686Y-0268370D01*
X0351377Y-0269298D01*
X0351377Y-0269916D01*
X0351686Y-0270844D01*
X0352305Y-0271462D01*
X0352923Y-0271772D01*
X0353851Y-0271772D01*
X0354470Y-0271462D01*
X0355088Y-0270844D01*
X0355398Y-0269916D01*
X0355398Y-0269298D01*
X0355088Y-0268370D01*
X0354470Y-0267751D01*
X0353851Y-0267442D01*
X0352923Y-0267442D01*
X0357130Y-0271153D02*
X0356820Y-0271462D01*
X0357130Y-0271772D01*
X0357439Y-0271462D01*
X0357130Y-0271153D01*
X0360408Y-0267442D02*
X0359789Y-0267751D01*
X0359171Y-0268370D01*
X0358861Y-0269298D01*
X0358861Y-0269916D01*
X0359171Y-0270844D01*
X0359789Y-0271462D01*
X0360408Y-0271772D01*
X0361336Y-0271772D01*
X0361954Y-0271462D01*
X0362573Y-0270844D01*
X0362882Y-0269916D01*
X0362882Y-0269298D01*
X0362573Y-0268370D01*
X0361954Y-0267751D01*
X0361336Y-0267442D01*
X0360408Y-0267442D01*
X0364614Y-0271153D02*
X0364305Y-0271462D01*
X0364614Y-0271772D01*
X0364923Y-0271462D01*
X0364614Y-0271153D01*
X0269390Y-0275277D02*
X0269390Y-0281772D01*
X0269390Y-0275277D02*
X0271864Y-0281772D01*
X0274338Y-0275277D02*
X0271864Y-0281772D01*
X0274338Y-0275277D02*
X0274338Y-0281772D01*
X0276194Y-0279297D02*
X0279905Y-0279297D01*
X0279905Y-0278679D01*
X0279596Y-0278060D01*
X0279286Y-0277751D01*
X0278668Y-0277442D01*
X0277740Y-0277442D01*
X0277121Y-0277751D01*
X0276503Y-0278370D01*
X0276194Y-0279297D01*
X0276194Y-0279916D01*
X0276503Y-0280844D01*
X0277121Y-0281462D01*
X0277740Y-0281772D01*
X0278668Y-0281772D01*
X0279286Y-0281462D01*
X0279905Y-0280844D01*
X0285008Y-0275277D02*
X0285008Y-0281772D01*
X0285008Y-0278370D02*
X0284389Y-0277751D01*
X0283771Y-0277442D01*
X0282843Y-0277442D01*
X0282224Y-0277751D01*
X0281606Y-0278370D01*
X0281297Y-0279297D01*
X0281297Y-0279916D01*
X0281606Y-0280844D01*
X0282224Y-0281462D01*
X0282843Y-0281772D01*
X0283771Y-0281772D01*
X0284389Y-0281462D01*
X0285008Y-0280844D01*
X0290451Y-0277442D02*
X0290451Y-0281772D01*
X0290451Y-0278370D02*
X0289832Y-0277751D01*
X0289214Y-0277442D01*
X0288286Y-0277442D01*
X0287667Y-0277751D01*
X0287049Y-0278370D01*
X0286740Y-0279297D01*
X0286740Y-0279916D01*
X0287049Y-0280844D01*
X0287667Y-0281462D01*
X0288286Y-0281772D01*
X0289214Y-0281772D01*
X0289832Y-0281462D01*
X0290451Y-0280844D01*
X0292183Y-0277442D02*
X0292183Y-0281772D01*
X0292183Y-0279297D02*
X0292492Y-0278370D01*
X0293111Y-0277751D01*
X0293729Y-0277442D01*
X0294657Y-0277442D01*
X0298647Y-0278370D02*
X0298337Y-0277751D01*
X0297410Y-0277442D01*
X0296482Y-0277442D01*
X0295554Y-0277751D01*
X0295245Y-0278370D01*
X0295554Y-0278988D01*
X0296172Y-0279297D01*
X0297719Y-0279607D01*
X0298337Y-0279916D01*
X0298647Y-0280535D01*
X0298647Y-0280844D01*
X0298337Y-0281462D01*
X0297410Y-0281772D01*
X0296482Y-0281772D01*
X0295554Y-0281462D01*
X0295245Y-0280844D01*
X0300007Y-0275277D02*
X0300007Y-0281772D01*
X0303100Y-0277442D02*
X0300007Y-0280535D01*
X0301244Y-0279297D02*
X0303409Y-0281772D01*
X0308141Y-0277442D02*
X0308141Y-0281772D01*
X0308141Y-0278370D02*
X0307523Y-0277751D01*
X0306904Y-0277442D01*
X0305976Y-0277442D01*
X0305358Y-0277751D01*
X0304739Y-0278370D01*
X0304430Y-0279297D01*
X0304430Y-0279916D01*
X0304739Y-0280844D01*
X0305358Y-0281462D01*
X0305976Y-0281772D01*
X0306904Y-0281772D01*
X0307523Y-0281462D01*
X0308141Y-0280844D01*
X0318687Y-0276205D02*
X0318378Y-0275586D01*
X0317450Y-0275277D01*
X0316832Y-0275277D01*
X0315904Y-0275586D01*
X0315285Y-0276514D01*
X0314976Y-0278060D01*
X0314976Y-0279607D01*
X0315285Y-0280844D01*
X0315904Y-0281462D01*
X0316832Y-0281772D01*
X0317141Y-0281772D01*
X0318069Y-0281462D01*
X0318687Y-0280844D01*
X0318997Y-0279916D01*
X0318997Y-0279607D01*
X0318687Y-0278679D01*
X0318069Y-0278060D01*
X0317141Y-0277751D01*
X0316832Y-0277751D01*
X0315904Y-0278060D01*
X0315285Y-0278679D01*
X0314976Y-0279607D01*
X0324440Y-0277442D02*
X0324131Y-0278370D01*
X0323512Y-0278988D01*
X0322584Y-0279297D01*
X0322275Y-0279297D01*
X0321347Y-0278988D01*
X0320728Y-0278370D01*
X0320419Y-0277442D01*
X0320419Y-0277133D01*
X0320728Y-0276205D01*
X0321347Y-0275586D01*
X0322275Y-0275277D01*
X0322584Y-0275277D01*
X0323512Y-0275586D01*
X0324131Y-0276205D01*
X0324440Y-0277442D01*
X0324440Y-0278988D01*
X0324131Y-0280535D01*
X0323512Y-0281462D01*
X0322584Y-0281772D01*
X0321966Y-0281772D01*
X0321038Y-0281462D01*
X0320728Y-0280844D01*
X0326203Y-0282699D02*
X0330532Y-0275277D01*
X0330965Y-0276514D02*
X0331584Y-0276205D01*
X0332512Y-0275277D01*
X0332512Y-0281772D01*
X0269390Y-0286514D02*
X0270008Y-0286205D01*
X0270936Y-0285277D01*
X0270936Y-0291772D01*
X0276008Y-0285277D02*
X0275080Y-0285586D01*
X0274462Y-0286514D01*
X0274152Y-0288060D01*
X0274152Y-0288988D01*
X0274462Y-0290535D01*
X0275080Y-0291462D01*
X0276008Y-0291772D01*
X0276627Y-0291772D01*
X0277554Y-0291462D01*
X0278173Y-0290535D01*
X0278482Y-0288988D01*
X0278482Y-0288060D01*
X0278173Y-0286514D01*
X0277554Y-0285586D01*
X0276627Y-0285277D01*
X0276008Y-0285277D01*
X0281791Y-0285277D02*
X0280864Y-0285586D01*
X0280245Y-0286514D01*
X0279936Y-0288060D01*
X0279936Y-0288988D01*
X0280245Y-0290535D01*
X0280864Y-0291462D01*
X0281791Y-0291772D01*
X0282410Y-0291772D01*
X0283338Y-0291462D01*
X0283956Y-0290535D01*
X0284266Y-0288988D01*
X0284266Y-0288060D01*
X0283956Y-0286514D01*
X0283338Y-0285586D01*
X0282410Y-0285277D01*
X0281791Y-0285277D01*
X0287575Y-0285277D02*
X0286647Y-0285586D01*
X0286028Y-0286514D01*
X0285719Y-0288060D01*
X0285719Y-0288988D01*
X0286028Y-0290535D01*
X0286647Y-0291462D01*
X0287575Y-0291772D01*
X0288193Y-0291772D01*
X0289121Y-0291462D01*
X0289740Y-0290535D01*
X0290049Y-0288988D01*
X0290049Y-0288060D01*
X0289740Y-0286514D01*
X0289121Y-0285586D01*
X0288193Y-0285277D01*
X0287575Y-0285277D01*
X0293358Y-0285277D02*
X0292430Y-0285586D01*
X0291812Y-0286514D01*
X0291502Y-0288060D01*
X0291502Y-0288988D01*
X0291812Y-0290535D01*
X0292430Y-0291462D01*
X0293358Y-0291772D01*
X0293977Y-0291772D01*
X0294904Y-0291462D01*
X0295523Y-0290535D01*
X0295832Y-0288988D01*
X0295832Y-0288060D01*
X0295523Y-0286514D01*
X0294904Y-0285586D01*
X0293977Y-0285277D01*
X0293358Y-0285277D01*
X0306719Y-0285277D02*
X0302389Y-0291772D01*
X0302389Y-0285277D02*
X0306719Y-0285277D01*
X0302389Y-0291772D02*
X0306719Y-0291772D01*
X0311883Y-0287442D02*
X0311883Y-0291772D01*
X0311883Y-0288370D02*
X0311265Y-0287751D01*
X0310646Y-0287442D01*
X0309718Y-0287442D01*
X0309100Y-0287751D01*
X0308481Y-0288370D01*
X0308172Y-0289298D01*
X0308172Y-0289916D01*
X0308481Y-0290844D01*
X0309100Y-0291462D01*
X0309718Y-0291772D01*
X0310646Y-0291772D01*
X0311265Y-0291462D01*
X0311883Y-0290844D01*
X0317326Y-0287442D02*
X0317326Y-0292390D01*
X0317017Y-0293318D01*
X0316708Y-0293627D01*
X0316090Y-0293936D01*
X0315162Y-0293936D01*
X0314543Y-0293627D01*
X0317326Y-0288370D02*
X0316708Y-0287751D01*
X0316090Y-0287442D01*
X0315162Y-0287442D01*
X0314543Y-0287751D01*
X0313925Y-0288370D01*
X0313615Y-0289298D01*
X0313615Y-0289916D01*
X0313925Y-0290844D01*
X0314543Y-0291462D01*
X0315162Y-0291772D01*
X0316090Y-0291772D01*
X0316708Y-0291462D01*
X0317326Y-0290844D01*
X0319058Y-0287442D02*
X0319058Y-0291772D01*
X0319058Y-0289298D02*
X0319368Y-0288370D01*
X0319986Y-0287751D01*
X0320605Y-0287442D01*
X0321533Y-0287442D01*
X0322120Y-0289298D02*
X0325832Y-0289298D01*
X0325832Y-0288679D01*
X0325522Y-0288060D01*
X0325213Y-0287751D01*
X0324594Y-0287442D01*
X0323667Y-0287442D01*
X0323048Y-0287751D01*
X0322429Y-0288370D01*
X0322120Y-0289298D01*
X0322120Y-0289916D01*
X0322429Y-0290844D01*
X0323048Y-0291462D01*
X0323667Y-0291772D01*
X0324594Y-0291772D01*
X0325213Y-0291462D01*
X0325832Y-0290844D01*
X0327223Y-0285277D02*
X0327223Y-0291772D01*
X0327223Y-0288370D02*
X0327842Y-0287751D01*
X0328460Y-0287442D01*
X0329388Y-0287442D01*
X0330007Y-0287751D01*
X0330625Y-0288370D01*
X0330934Y-0289298D01*
X0330934Y-0289916D01*
X0330625Y-0290844D01*
X0330007Y-0291462D01*
X0329388Y-0291772D01*
X0328460Y-0291772D01*
X0327842Y-0291462D01*
X0327223Y-0290844D01*
X0274029Y-0296823D02*
X0273720Y-0296205D01*
X0273101Y-0295586D01*
X0272482Y-0295277D01*
X0271245Y-0295277D01*
X0270627Y-0295586D01*
X0270008Y-0296205D01*
X0269699Y-0296823D01*
X0269390Y-0297751D01*
X0269390Y-0299297D01*
X0269699Y-0300225D01*
X0270008Y-0300844D01*
X0270627Y-0301462D01*
X0271245Y-0301772D01*
X0272482Y-0301772D01*
X0273101Y-0301462D01*
X0273720Y-0300844D01*
X0274029Y-0300225D01*
X0275853Y-0297442D02*
X0275853Y-0301772D01*
X0275853Y-0299297D02*
X0276163Y-0298370D01*
X0276781Y-0297751D01*
X0277400Y-0297442D01*
X0278328Y-0297442D01*
X0280462Y-0297442D02*
X0279843Y-0297751D01*
X0279224Y-0298370D01*
X0278915Y-0299297D01*
X0278915Y-0299916D01*
X0279224Y-0300844D01*
X0279843Y-0301462D01*
X0280462Y-0301772D01*
X0281389Y-0301772D01*
X0282008Y-0301462D01*
X0282626Y-0300844D01*
X0282936Y-0299916D01*
X0282936Y-0299297D01*
X0282626Y-0298370D01*
X0282008Y-0297751D01*
X0281389Y-0297442D01*
X0280462Y-0297442D01*
X0288070Y-0297442D02*
X0288070Y-0301772D01*
X0288070Y-0298370D02*
X0287451Y-0297751D01*
X0286832Y-0297442D01*
X0285905Y-0297442D01*
X0285286Y-0297751D01*
X0284668Y-0298370D01*
X0284358Y-0299297D01*
X0284358Y-0299916D01*
X0284668Y-0300844D01*
X0285286Y-0301462D01*
X0285905Y-0301772D01*
X0286832Y-0301772D01*
X0287451Y-0301462D01*
X0288070Y-0300844D01*
X0290729Y-0295277D02*
X0290729Y-0300535D01*
X0291039Y-0301462D01*
X0291657Y-0301772D01*
X0292276Y-0301772D01*
X0289802Y-0297442D02*
X0291966Y-0297442D01*
X0293822Y-0295277D02*
X0294131Y-0295586D01*
X0294441Y-0295277D01*
X0294131Y-0294968D01*
X0293822Y-0295277D01*
X0294131Y-0297442D02*
X0294131Y-0301772D01*
X0299296Y-0297442D02*
X0299296Y-0301772D01*
X0299296Y-0298370D02*
X0298678Y-0297751D01*
X0298059Y-0297442D01*
X0297131Y-0297442D01*
X0296513Y-0297751D01*
X0295894Y-0298370D01*
X0295585Y-0299297D01*
X0295585Y-0299916D01*
X0295894Y-0300844D01*
X0296513Y-0301462D01*
X0297131Y-0301772D01*
X0298059Y-0301772D01*
X0298678Y-0301462D01*
X0299296Y-0300844D01*
X0695585Y-0322476D02*
X0695585Y-0315479D01*
X0692086Y-0318977D01*
X0696751Y-0318977D01*
X0405086Y-0316645D02*
X0406252Y-0315479D01*
X0408585Y-0315479D01*
X0409751Y-0316645D01*
X0409751Y-0317811D01*
X0408585Y-0318977D01*
X0407418Y-0318977D01*
X0408585Y-0318977D01*
X0409751Y-0320144D01*
X0409751Y-0321310D01*
X0408585Y-0322476D01*
X0406252Y-0322476D01*
X0405086Y-0321310D01*
X0121751Y-0322476D02*
X0117086Y-0322476D01*
X0121751Y-0317811D01*
X0121751Y-0316645D01*
X0120585Y-0315479D01*
X0118252Y-0315479D01*
X0117086Y-0316645D01*
X-0168914Y-0316811D02*
X-0168248Y-0316478D01*
X-0167248Y-0315478D01*
X-0167248Y-0322476D01*
X0695418Y0424522D02*
X0692086Y0419856D01*
X0697085Y0419856D01*
X0695418Y0424522D02*
X0695418Y0417524D01*
X0405752Y0424522D02*
X0409418Y0424522D01*
X0407419Y0421856D01*
X0408418Y0421856D01*
X0409085Y0421523D01*
X0409418Y0421189D01*
X0409751Y0420190D01*
X0409751Y0419523D01*
X0409418Y0418523D01*
X0408752Y0417857D01*
X0407752Y0417524D01*
X0406752Y0417524D01*
X0405752Y0417857D01*
X0405419Y0418190D01*
X0405086Y0418857D01*
X0117419Y0422856D02*
X0117419Y0423189D01*
X0117752Y0423856D01*
X0118086Y0424189D01*
X0118752Y0424522D01*
X0120085Y0424522D01*
X0120752Y0424189D01*
X0121085Y0423856D01*
X0121418Y0423189D01*
X0121418Y0422522D01*
X0121085Y0421856D01*
X0120418Y0420856D01*
X0117086Y0417524D01*
X0121751Y0417524D01*
X-0168914Y0423189D02*
X-0168248Y0423522D01*
X-0167248Y0424522D01*
X-0167248Y0417524D01*
X-0304114Y-0235278D02*
X-0304114Y-0242276D01*
X-0304114Y-0235278D02*
X-0301781Y-0235278D01*
X-0300782Y-0235611D01*
X-0300115Y-0236278D01*
X-0299782Y-0236944D01*
X-0299449Y-0237944D01*
X-0299449Y-0239610D01*
X-0299782Y-0240610D01*
X-0300115Y-0241277D01*
X-0300782Y-0241943D01*
X-0301781Y-0242276D01*
X-0304114Y-0242276D01*
X-0299115Y-0047944D02*
X-0299449Y-0047278D01*
X-0300115Y-0046611D01*
X-0300782Y-0046278D01*
X-0302115Y-0046278D01*
X-0302781Y-0046611D01*
X-0303448Y-0047278D01*
X-0303781Y-0047944D01*
X-0304114Y-0048944D01*
X-0304114Y-0050610D01*
X-0303781Y-0051610D01*
X-0303448Y-0052277D01*
X-0302781Y-0052943D01*
X-0302115Y-0053276D01*
X-0300782Y-0053276D01*
X-0300115Y-0052943D01*
X-0299449Y-0052277D01*
X-0299115Y-0051610D01*
X-0304114Y0144722D02*
X-0304114Y0137724D01*
X-0304114Y0144722D02*
X-0301115Y0144722D01*
X-0300115Y0144389D01*
X-0299782Y0144056D01*
X-0299449Y0143389D01*
X-0299449Y0142722D01*
X-0299782Y0142056D01*
X-0300115Y0141723D01*
X-0301115Y0141390D01*
X-0304114Y0141390D02*
X-0301115Y0141390D01*
X-0300115Y0141056D01*
X-0299782Y0140723D01*
X-0299449Y0140056D01*
X-0299449Y0139057D01*
X-0299782Y0138390D01*
X-0300115Y0138057D01*
X-0301115Y0137724D01*
X-0304114Y0137724D01*
X-0298782Y0326924D02*
X-0301448Y0333922D01*
X-0304114Y0326924D01*
X-0303114Y0329256D02*
X-0299782Y0329256D01*
X0825886Y0144722D02*
X0825886Y0137724D01*
X0825886Y0144722D02*
X0828885Y0144722D01*
X0829885Y0144389D01*
X0830218Y0144056D01*
X0830551Y0143389D01*
X0830551Y0142722D01*
X0830218Y0142056D01*
X0829885Y0141723D01*
X0828885Y0141390D01*
X0825886Y0141390D02*
X0828885Y0141390D01*
X0829885Y0141056D01*
X0830218Y0140723D01*
X0830551Y0140056D01*
X0830551Y0139057D01*
X0830218Y0138390D01*
X0829885Y0138057D01*
X0828885Y0137724D01*
X0825886Y0137724D01*
X0831218Y0326924D02*
X0828552Y0333922D01*
X0825886Y0326924D01*
X0826886Y0329256D02*
X0830218Y0329256D01*
X0830511Y-0047944D02*
X0830177Y-0047278D01*
X0829511Y-0046611D01*
X0828844Y-0046278D01*
X0827511Y-0046278D01*
X0826845Y-0046611D01*
X0826178Y-0047278D01*
X0825845Y-0047944D01*
X0825512Y-0048944D01*
X0825512Y-0050610D01*
X0825845Y-0051610D01*
X0826178Y-0052277D01*
X0826845Y-0052943D01*
X0827511Y-0053276D01*
X0828844Y-0053276D01*
X0829511Y-0052943D01*
X0830177Y-0052277D01*
X0830511Y-0051610D01*
X0825512Y-0235278D02*
X0825512Y-0242276D01*
X0825512Y-0235278D02*
X0827845Y-0235278D01*
X0828844Y-0235611D01*
X0829511Y-0236278D01*
X0829844Y-0236944D01*
X0830177Y-0237944D01*
X0830177Y-0239610D01*
X0829844Y-0240610D01*
X0829511Y-0241277D01*
X0828844Y-0241943D01*
X0827845Y-0242276D01*
X0825512Y-0242276D01*
M02*
