G04*
G04 #@! TF.GenerationSoftware,Altium Limited,Altium Designer,26.2.0 (7)*
G04*
G04 Layer_Color=8388736*
%FSAX25Y25*%
%MOIN*%
G70*
G04*
G04 #@! TF.SameCoordinates,6F588426-EFF3-43FE-91C9-25BE94872BC7*
G04*
G04*
G04 #@! TF.FilePolarity,Positive*
G04*
G01*
G75*
%ADD16C,0.01000*%
D16*
X-0039849Y-0258230D02*
X-0040849Y-0257230D01*
X-0042848Y-0257230D01*
X-0043848Y-0258230D01*
X-0043848Y-0259230D01*
X-0042848Y-0260229D01*
X-0041848Y-0260229D01*
X-0042848Y-0260229D01*
X-0043848Y-0261229D01*
X-0043848Y-0262229D01*
X-0042848Y-0263228D01*
X-0040849Y-0263228D01*
X-0039849Y-0262229D01*
X-0045847Y-0258230D02*
X-0046847Y-0257230D01*
X-0048846Y-0257230D01*
X-0049846Y-0258230D01*
X-0049846Y-0262229D01*
X-0048846Y-0263228D01*
X-0046847Y-0263228D01*
X-0045847Y-0262229D01*
X-0045847Y-0258230D01*
X-0051845Y-0258230D02*
X-0052845Y-0257230D01*
X-0054844Y-0257230D01*
X-0055844Y-0258230D01*
X-0055844Y-0262229D01*
X-0054844Y-0263228D01*
X-0052845Y-0263228D01*
X-0051845Y-0262229D01*
X-0051845Y-0258230D01*
X-0057843Y-0263228D02*
X-0059842Y-0263228D01*
X-0058843Y-0263228D01*
X-0058843Y-0257230D01*
X-0057843Y-0258230D01*
X-0062841Y-0260229D02*
X-0066840Y-0260229D01*
X-0068840Y-0258230D02*
X-0069839Y-0257230D01*
X-0071839Y-0257230D01*
X-0072838Y-0258230D01*
X-0072838Y-0262229D01*
X-0071839Y-0263228D01*
X-0069839Y-0263228D01*
X-0068840Y-0262229D01*
X-0068840Y-0258230D01*
X-0074838Y-0263228D02*
X-0076837Y-0263228D01*
X-0075837Y-0263228D01*
X-0075837Y-0257230D01*
X-0074838Y-0258230D01*
X-0079836Y-0258230D02*
X-0080836Y-0257230D01*
X-0082835Y-0257230D01*
X-0083835Y-0258230D01*
X-0083835Y-0259230D01*
X-0082835Y-0260229D01*
X-0083835Y-0261229D01*
X-0083835Y-0262229D01*
X-0082835Y-0263228D01*
X-0080836Y-0263228D01*
X-0079836Y-0262229D01*
X-0079836Y-0261229D01*
X-0080836Y-0260229D01*
X-0079836Y-0259230D01*
X-0079836Y-0258230D01*
X-0080836Y-0260229D02*
X-0082835Y-0260229D01*
X-0085834Y-0260229D02*
X-0089833Y-0260229D01*
X-0091832Y-0258230D02*
X-0092832Y-0257230D01*
X-0094831Y-0257230D01*
X-0095831Y-0258230D01*
X-0095831Y-0262229D01*
X-0094831Y-0263228D01*
X-0092832Y-0263228D01*
X-0091832Y-0262229D01*
X-0091832Y-0258230D01*
X-0097830Y-0258230D02*
X-0098830Y-0257230D01*
X-0100829Y-0257230D01*
X-0101829Y-0258230D01*
X-0101829Y-0262229D01*
X-0100829Y-0263228D01*
X-0098830Y-0263228D01*
X-0097830Y-0262229D01*
X-0097830Y-0258230D01*
X-0103828Y-0263228D02*
X-0105828Y-0263228D01*
X-0104828Y-0263228D01*
X-0104828Y-0257230D01*
X-0103828Y-0258230D01*
X-0038865Y-0216575D02*
X-0038865Y-0212576D01*
X-0040864Y-0210577D01*
X-0042863Y-0212576D01*
X-0042863Y-0216575D01*
X-0042863Y-0213576D01*
X-0038865Y-0213576D01*
X-0044863Y-0216575D02*
X-0047862Y-0216575D01*
X-0048861Y-0215575D01*
X-0047862Y-0214576D01*
X-0045862Y-0214576D01*
X-0044863Y-0213576D01*
X-0045862Y-0212576D01*
X-0048861Y-0212576D01*
X-0050861Y-0216575D02*
X-0053860Y-0216575D01*
X-0054860Y-0215575D01*
X-0053860Y-0214576D01*
X-0051860Y-0214576D01*
X-0050861Y-0213576D01*
X-0051860Y-0212576D01*
X-0054860Y-0212576D01*
X-0059858Y-0216575D02*
X-0057859Y-0216575D01*
X-0056859Y-0215575D01*
X-0056859Y-0213576D01*
X-0057859Y-0212576D01*
X-0059858Y-0212576D01*
X-0060857Y-0213576D01*
X-0060857Y-0214576D01*
X-0056859Y-0214576D01*
X-0062857Y-0216575D02*
X-0062857Y-0212576D01*
X-0063857Y-0212576D01*
X-0064856Y-0213576D01*
X-0064856Y-0216575D01*
X-0064856Y-0213576D01*
X-0065856Y-0212576D01*
X-0066856Y-0213576D01*
X-0066856Y-0216575D01*
X-0068855Y-0210577D02*
X-0068855Y-0216575D01*
X-0071854Y-0216575D01*
X-0072854Y-0215575D01*
X-0072854Y-0214576D01*
X-0072854Y-0213576D01*
X-0071854Y-0212576D01*
X-0068855Y-0212576D01*
X-0074853Y-0216575D02*
X-0076852Y-0216575D01*
X-0075853Y-0216575D01*
X-0075853Y-0210577D01*
X-0074853Y-0210577D01*
X-0079851Y-0212576D02*
X-0079851Y-0215575D01*
X-0080851Y-0216575D01*
X-0083850Y-0216575D01*
X-0083850Y-0217575D01*
X-0082850Y-0218574D01*
X-0081851Y-0218574D01*
X-0083850Y-0216575D02*
X-0083850Y-0212576D01*
X-0095846Y-0210577D02*
X-0095846Y-0216575D01*
X-0092847Y-0216575D01*
X-0091847Y-0215575D01*
X-0091847Y-0213576D01*
X-0092847Y-0212576D01*
X-0095846Y-0212576D01*
X-0097846Y-0212576D02*
X-0097846Y-0216575D01*
X-0097846Y-0214576D01*
X-0098845Y-0213576D01*
X-0099845Y-0212576D01*
X-0100845Y-0212576D01*
X-0104843Y-0212576D02*
X-0106843Y-0212576D01*
X-0107842Y-0213576D01*
X-0107842Y-0216575D01*
X-0104843Y-0216575D01*
X-0103844Y-0215575D01*
X-0104843Y-0214576D01*
X-0107842Y-0214576D01*
X-0109842Y-0212576D02*
X-0109842Y-0215575D01*
X-0110841Y-0216575D01*
X-0111841Y-0215575D01*
X-0112841Y-0216575D01*
X-0113840Y-0215575D01*
X-0113840Y-0212576D01*
X-0115840Y-0216575D02*
X-0117839Y-0216575D01*
X-0116839Y-0216575D01*
X-0116839Y-0212576D01*
X-0115840Y-0212576D01*
X-0120838Y-0216575D02*
X-0120838Y-0212576D01*
X-0123837Y-0212576D01*
X-0124837Y-0213576D01*
X-0124837Y-0216575D01*
X-0128835Y-0218574D02*
X-0129835Y-0218574D01*
X-0130835Y-0217575D01*
X-0130835Y-0212576D01*
X-0127836Y-0212576D01*
X-0126836Y-0213576D01*
X-0126836Y-0215575D01*
X-0127836Y-0216575D01*
X-0130835Y-0216575D01*
X-0142831Y-0212576D02*
X-0139832Y-0212576D01*
X-0138832Y-0213576D01*
X-0138832Y-0215575D01*
X-0139832Y-0216575D01*
X-0142831Y-0216575D01*
X-0145830Y-0216575D02*
X-0147829Y-0216575D01*
X-0148829Y-0215575D01*
X-0148829Y-0213576D01*
X-0147829Y-0212576D01*
X-0145830Y-0212576D01*
X-0144830Y-0213576D01*
X-0144830Y-0215575D01*
X-0145830Y-0216575D01*
X-0150828Y-0216575D02*
X-0150828Y-0212576D01*
X-0151828Y-0212576D01*
X-0152828Y-0213576D01*
X-0152828Y-0216575D01*
X-0152828Y-0213576D01*
X-0153827Y-0212576D01*
X-0154827Y-0213576D01*
X-0154827Y-0216575D01*
X-0156826Y-0216575D02*
X-0156826Y-0212576D01*
X-0157826Y-0212576D01*
X-0158826Y-0213576D01*
X-0158826Y-0216575D01*
X-0158826Y-0213576D01*
X-0159826Y-0212576D01*
X-0160825Y-0213576D01*
X-0160825Y-0216575D01*
X-0165824Y-0216575D02*
X-0163824Y-0216575D01*
X-0162824Y-0215575D01*
X-0162824Y-0213576D01*
X-0163824Y-0212576D01*
X-0165824Y-0212576D01*
X-0166823Y-0213576D01*
X-0166823Y-0214576D01*
X-0162824Y-0214576D01*
X-0168823Y-0216575D02*
X-0168823Y-0212576D01*
X-0171822Y-0212576D01*
X-0172821Y-0213576D01*
X-0172821Y-0216575D01*
X-0175820Y-0211576D02*
X-0175820Y-0212576D01*
X-0174821Y-0212576D01*
X-0176820Y-0212576D01*
X-0175820Y-0212576D01*
X-0175820Y-0215575D01*
X-0176820Y-0216575D01*
X-0179819Y-0216575D02*
X-0182818Y-0216575D01*
X-0183818Y-0215575D01*
X-0182818Y-0214576D01*
X-0180819Y-0214576D01*
X-0179819Y-0213576D01*
X-0180819Y-0212576D01*
X-0183818Y-0212576D01*
X-0191815Y-0213576D02*
X-0195814Y-0213576D01*
X-0203811Y-0210577D02*
X-0203811Y-0216575D01*
X-0206810Y-0216575D01*
X-0207810Y-0215575D01*
X-0207810Y-0214576D01*
X-0206810Y-0213576D01*
X-0203811Y-0213576D01*
X-0206810Y-0213576D01*
X-0207810Y-0212576D01*
X-0207810Y-0211576D01*
X-0206810Y-0210577D01*
X-0203811Y-0210577D01*
X-0212808Y-0210577D02*
X-0210809Y-0210577D01*
X-0209809Y-0211576D01*
X-0209809Y-0215575D01*
X-0210809Y-0216575D01*
X-0212808Y-0216575D01*
X-0213808Y-0215575D01*
X-0213808Y-0211576D01*
X-0212808Y-0210577D01*
X-0215807Y-0210577D02*
X-0219806Y-0210577D01*
X-0217807Y-0210577D01*
X-0217807Y-0216575D01*
X-0221805Y-0210577D02*
X-0225804Y-0210577D01*
X-0223805Y-0210577D01*
X-0223805Y-0216575D01*
X-0230802Y-0210577D02*
X-0228803Y-0210577D01*
X-0227803Y-0211576D01*
X-0227803Y-0215575D01*
X-0228803Y-0216575D01*
X-0230802Y-0216575D01*
X-0231802Y-0215575D01*
X-0231802Y-0211576D01*
X-0230802Y-0210577D01*
X-0233802Y-0216575D02*
X-0233802Y-0210577D01*
X-0235801Y-0212576D01*
X-0237800Y-0210577D01*
X-0237800Y-0216575D01*
M02*
