G04*
G04 #@! TF.GenerationSoftware,Altium Limited,Altium Designer,26.4.1 (12)*
G04*
G04 Layer_Color=8388736*
%FSAX25Y25*%
%MOIN*%
G70*
G04*
G04 #@! TF.SameCoordinates,FABC8FAD-0A80-49CE-8C30-7373FE94190F*
G04*
G04*
G04 #@! TF.FilePolarity,Negative*
G04*
G01*
G75*
%ADD74R,0.07874X0.05118*%
%ADD75R,0.04921X0.03347*%
%ADD76R,0.01968X0.04685*%
%ADD77R,0.03150X0.05118*%
%ADD78R,0.06693X0.03150*%
%ADD79R,0.02756X0.03150*%
G04:AMPARAMS|DCode=80|XSize=47.24mil|YSize=66.93mil|CornerRadius=13.78mil|HoleSize=0mil|Usage=FLASHONLY|Rotation=270.000|XOffset=0mil|YOffset=0mil|HoleType=Round|Shape=RoundedRectangle|*
%AMROUNDEDRECTD80*
21,1,0.04724,0.03937,0,0,270.0*
21,1,0.01968,0.06693,0,0,270.0*
1,1,0.02756,-0.01968,-0.00984*
1,1,0.02756,-0.01968,0.00984*
1,1,0.02756,0.01968,0.00984*
1,1,0.02756,0.01968,-0.00984*
%
%ADD80ROUNDEDRECTD80*%
%ADD81R,0.03740X0.03937*%
%ADD82R,0.02756X0.02362*%
%ADD83O,0.06299X0.01968*%
%ADD84O,0.01968X0.06299*%
G04:AMPARAMS|DCode=85|XSize=31.5mil|YSize=11.81mil|CornerRadius=3.94mil|HoleSize=0mil|Usage=FLASHONLY|Rotation=90.000|XOffset=0mil|YOffset=0mil|HoleType=Round|Shape=RoundedRectangle|*
%AMROUNDEDRECTD85*
21,1,0.03150,0.00394,0,0,90.0*
21,1,0.02362,0.01181,0,0,90.0*
1,1,0.00787,0.00197,0.01181*
1,1,0.00787,0.00197,-0.01181*
1,1,0.00787,-0.00197,-0.01181*
1,1,0.00787,-0.00197,0.01181*
%
%ADD85ROUNDEDRECTD85*%
G04:AMPARAMS|DCode=86|XSize=36.42mil|YSize=11.81mil|CornerRadius=3.94mil|HoleSize=0mil|Usage=FLASHONLY|Rotation=0.000|XOffset=0mil|YOffset=0mil|HoleType=Round|Shape=RoundedRectangle|*
%AMROUNDEDRECTD86*
21,1,0.03642,0.00394,0,0,0.0*
21,1,0.02854,0.01181,0,0,0.0*
1,1,0.00787,0.01427,-0.00197*
1,1,0.00787,-0.01427,-0.00197*
1,1,0.00787,-0.01427,0.00197*
1,1,0.00787,0.01427,0.00197*
%
%ADD86ROUNDEDRECTD86*%
G04:AMPARAMS|DCode=87|XSize=34.45mil|YSize=11.81mil|CornerRadius=3.94mil|HoleSize=0mil|Usage=FLASHONLY|Rotation=180.000|XOffset=0mil|YOffset=0mil|HoleType=Round|Shape=RoundedRectangle|*
%AMROUNDEDRECTD87*
21,1,0.03445,0.00394,0,0,180.0*
21,1,0.02657,0.01181,0,0,180.0*
1,1,0.00787,-0.01329,0.00197*
1,1,0.00787,0.01329,0.00197*
1,1,0.00787,0.01329,-0.00197*
1,1,0.00787,-0.01329,-0.00197*
%
%ADD87ROUNDEDRECTD87*%
G04:AMPARAMS|DCode=88|XSize=43.31mil|YSize=11.81mil|CornerRadius=3.94mil|HoleSize=0mil|Usage=FLASHONLY|Rotation=90.000|XOffset=0mil|YOffset=0mil|HoleType=Round|Shape=RoundedRectangle|*
%AMROUNDEDRECTD88*
21,1,0.04331,0.00394,0,0,90.0*
21,1,0.03543,0.01181,0,0,90.0*
1,1,0.00787,0.00197,0.01772*
1,1,0.00787,0.00197,-0.01772*
1,1,0.00787,-0.00197,-0.01772*
1,1,0.00787,-0.00197,0.01772*
%
%ADD88ROUNDEDRECTD88*%
G04:AMPARAMS|DCode=89|XSize=28.31mil|YSize=11.81mil|CornerRadius=3.94mil|HoleSize=0mil|Usage=FLASHONLY|Rotation=90.000|XOffset=0mil|YOffset=0mil|HoleType=Round|Shape=RoundedRectangle|*
%AMROUNDEDRECTD89*
21,1,0.02831,0.00394,0,0,90.0*
21,1,0.02043,0.01181,0,0,90.0*
1,1,0.00787,0.00197,0.01022*
1,1,0.00787,0.00197,-0.01022*
1,1,0.00787,-0.00197,-0.01022*
1,1,0.00787,-0.00197,0.01022*
%
%ADD89ROUNDEDRECTD89*%
G04:AMPARAMS|DCode=90|XSize=27.56mil|YSize=11.81mil|CornerRadius=3.94mil|HoleSize=0mil|Usage=FLASHONLY|Rotation=270.000|XOffset=0mil|YOffset=0mil|HoleType=Round|Shape=RoundedRectangle|*
%AMROUNDEDRECTD90*
21,1,0.02756,0.00394,0,0,270.0*
21,1,0.01968,0.01181,0,0,270.0*
1,1,0.00787,-0.00197,-0.00984*
1,1,0.00787,-0.00197,0.00984*
1,1,0.00787,0.00197,0.00984*
1,1,0.00787,0.00197,-0.00984*
%
%ADD90ROUNDEDRECTD90*%
G04:AMPARAMS|DCode=91|XSize=27.56mil|YSize=11.81mil|CornerRadius=3.94mil|HoleSize=0mil|Usage=FLASHONLY|Rotation=0.000|XOffset=0mil|YOffset=0mil|HoleType=Round|Shape=RoundedRectangle|*
%AMROUNDEDRECTD91*
21,1,0.02756,0.00394,0,0,0.0*
21,1,0.01968,0.01181,0,0,0.0*
1,1,0.00787,0.00984,-0.00197*
1,1,0.00787,-0.00984,-0.00197*
1,1,0.00787,-0.00984,0.00197*
1,1,0.00787,0.00984,0.00197*
%
%ADD91ROUNDEDRECTD91*%
G04:AMPARAMS|DCode=92|XSize=28.54mil|YSize=11.81mil|CornerRadius=3.94mil|HoleSize=0mil|Usage=FLASHONLY|Rotation=180.000|XOffset=0mil|YOffset=0mil|HoleType=Round|Shape=RoundedRectangle|*
%AMROUNDEDRECTD92*
21,1,0.02854,0.00394,0,0,180.0*
21,1,0.02067,0.01181,0,0,180.0*
1,1,0.00787,-0.01034,0.00197*
1,1,0.00787,0.01034,0.00197*
1,1,0.00787,0.01034,-0.00197*
1,1,0.00787,-0.01034,-0.00197*
%
%ADD92ROUNDEDRECTD92*%
G04:AMPARAMS|DCode=93|XSize=11.81mil|YSize=31.5mil|CornerRadius=3.94mil|HoleSize=0mil|Usage=FLASHONLY|Rotation=90.000|XOffset=0mil|YOffset=0mil|HoleType=Round|Shape=RoundedRectangle|*
%AMROUNDEDRECTD93*
21,1,0.01181,0.02362,0,0,90.0*
21,1,0.00394,0.03150,0,0,90.0*
1,1,0.00787,0.01181,0.00197*
1,1,0.00787,0.01181,-0.00197*
1,1,0.00787,-0.01181,-0.00197*
1,1,0.00787,-0.01181,0.00197*
%
%ADD93ROUNDEDRECTD93*%
G04:AMPARAMS|DCode=94|XSize=11.81mil|YSize=35.43mil|CornerRadius=3.94mil|HoleSize=0mil|Usage=FLASHONLY|Rotation=90.000|XOffset=0mil|YOffset=0mil|HoleType=Round|Shape=RoundedRectangle|*
%AMROUNDEDRECTD94*
21,1,0.01181,0.02756,0,0,90.0*
21,1,0.00394,0.03543,0,0,90.0*
1,1,0.00787,0.01378,0.00197*
1,1,0.00787,0.01378,-0.00197*
1,1,0.00787,-0.01378,-0.00197*
1,1,0.00787,-0.01378,0.00197*
%
%ADD94ROUNDEDRECTD94*%
G04:AMPARAMS|DCode=95|XSize=11.81mil|YSize=31.5mil|CornerRadius=3.94mil|HoleSize=0mil|Usage=FLASHONLY|Rotation=180.000|XOffset=0mil|YOffset=0mil|HoleType=Round|Shape=RoundedRectangle|*
%AMROUNDEDRECTD95*
21,1,0.01181,0.02362,0,0,180.0*
21,1,0.00394,0.03150,0,0,180.0*
1,1,0.00787,-0.00197,0.01181*
1,1,0.00787,0.00197,0.01181*
1,1,0.00787,0.00197,-0.01181*
1,1,0.00787,-0.00197,-0.01181*
%
%ADD95ROUNDEDRECTD95*%
%ADD96R,0.01772X0.02756*%
%ADD97R,0.02756X0.01772*%
%ADD98R,0.03150X0.01772*%
%ADD99R,0.02362X0.02756*%
%ADD100R,0.08661X0.03937*%
%ADD101R,0.03543X0.03543*%
%ADD102R,0.06299X0.02756*%
%ADD103R,0.03740X0.03543*%
%ADD104R,0.02559X0.08268*%
%ADD105R,0.04331X0.03543*%
%ADD106R,0.05512X0.03347*%
%ADD107R,0.02559X0.10236*%
%ADD108R,0.02559X0.12205*%
%ADD109R,0.03150X0.03150*%
G04:AMPARAMS|DCode=110|XSize=31.5mil|YSize=133.86mil|CornerRadius=9.84mil|HoleSize=0mil|Usage=FLASHONLY|Rotation=90.000|XOffset=0mil|YOffset=0mil|HoleType=Round|Shape=RoundedRectangle|*
%AMROUNDEDRECTD110*
21,1,0.03150,0.11417,0,0,90.0*
21,1,0.01181,0.13386,0,0,90.0*
1,1,0.01968,0.05709,0.00591*
1,1,0.01968,0.05709,-0.00591*
1,1,0.01968,-0.05709,-0.00591*
1,1,0.01968,-0.05709,0.00591*
%
%ADD110ROUNDEDRECTD110*%
%ADD111C,0.08661*%
%ADD112R,0.14173X0.06693*%
%ADD113R,0.14567X0.05512*%
%ADD114R,0.06890X0.01968*%
%ADD115R,0.11614X0.05512*%
%ADD116R,0.06693X0.08661*%
%ADD117R,0.03150X0.07874*%
%ADD118O,0.09055X0.04724*%
%ADD119O,0.07874X0.04724*%
%ADD120R,0.05315X0.01968*%
%ADD121O,0.06299X0.03150*%
%ADD122R,0.03937X0.03740*%
%ADD123R,0.02362X0.02756*%
%ADD124C,0.01339*%
%ADD125R,0.03150X0.02756*%
%ADD126R,0.02756X0.02362*%
%ADD127C,0.24410*%
%ADD128C,0.00787*%
%ADD129C,0.06693*%
%ADD130R,0.06693X0.06693*%
%ADD131R,0.06693X0.06693*%
G36*
X0043268Y0010039D02*
X0043268Y0000000D01*
X0036575Y0000000D01*
X0036575Y0010039D01*
X0043268Y0010039D01*
X0043268Y0010039D02*
G37*
G36*
X0053268Y0010039D02*
X0053268Y0000000D01*
X0046575Y0000000D01*
X0046575Y0010039D01*
X0053268Y0010039D01*
X0053268Y0010039D02*
G37*
G36*
X0063268Y0010039D02*
X0063268Y0000000D01*
X0056575Y0000000D01*
X0056575Y0010039D01*
X0063268Y0010039D01*
X0063268Y0010039D02*
G37*
G36*
X0073268Y0010039D02*
X0073268Y0000000D01*
X0066575Y0000000D01*
X0066575Y0010039D01*
X0073268Y0010039D01*
X0073268Y0010039D02*
G37*
G36*
X0083268Y0010039D02*
X0083268Y0000000D01*
X0076575Y0000000D01*
X0076575Y0010039D01*
X0083268Y0010039D01*
X0083268Y0010039D02*
G37*
G36*
X0093268Y0010039D02*
X0093268Y0000000D01*
X0086575Y0000000D01*
X0086575Y0010039D01*
X0093268Y0010039D01*
X0093268Y0010039D02*
G37*
G36*
X0103268Y0010039D02*
X0103268Y0000000D01*
X0096575Y0000000D01*
X0096575Y0010039D01*
X0103268Y0010039D01*
X0103268Y0010039D02*
G37*
G36*
X0113268Y0010039D02*
X0113268Y0000000D01*
X0106575Y0000000D01*
X0106575Y0010039D01*
X0113268Y0010039D01*
X0113268Y0010039D02*
G37*
G36*
X0123268Y0010039D02*
X0123268Y0000000D01*
X0116575Y0000000D01*
X0116575Y0010039D01*
X0123268Y0010039D01*
X0123268Y0010039D02*
G37*
G36*
X0036575Y0140000D02*
X0036575Y0150039D01*
X0043268Y0150039D01*
X0043268Y0140000D01*
X0036575Y0140000D01*
X0036575Y0140000D02*
G37*
G36*
X0046575Y0140000D02*
X0046575Y0150039D01*
X0053268Y0150039D01*
X0053268Y0140000D01*
X0046575Y0140000D01*
X0046575Y0140000D02*
G37*
G36*
X0056575Y0140000D02*
X0056575Y0150039D01*
X0063268Y0150039D01*
X0063268Y0140000D01*
X0056575Y0140000D01*
X0056575Y0140000D02*
G37*
G36*
X0066575Y0140000D02*
X0066575Y0150039D01*
X0073268Y0150039D01*
X0073268Y0140000D01*
X0066575Y0140000D01*
X0066575Y0140000D02*
G37*
G36*
X0076575Y0140000D02*
X0076575Y0150039D01*
X0083268Y0150039D01*
X0083268Y0140000D01*
X0076575Y0140000D01*
X0076575Y0140000D02*
G37*
G36*
X0086575Y0140000D02*
X0086575Y0150039D01*
X0093268Y0150039D01*
X0093268Y0140000D01*
X0086575Y0140000D01*
X0086575Y0140000D02*
G37*
G36*
X0096575Y0140000D02*
X0096575Y0150039D01*
X0103268Y0150039D01*
X0103268Y0140000D01*
X0096575Y0140000D01*
X0096575Y0140000D02*
G37*
G36*
X0106575Y0140000D02*
X0106575Y0150039D01*
X0113268Y0150039D01*
X0113268Y0140000D01*
X0106575Y0140000D01*
X0106575Y0140000D02*
G37*
G36*
X0116575Y0140000D02*
X0116575Y0150039D01*
X0123268Y0150039D01*
X0123268Y0140000D01*
X0116575Y0140000D01*
X0116575Y0140000D02*
G37*
G36*
X0133268Y0010039D02*
X0133268Y0000000D01*
X0126575Y0000000D01*
X0126575Y0010039D01*
X0133268Y0010039D01*
X0133268Y0010039D02*
G37*
G36*
X0143268Y0010039D02*
X0143268Y0000000D01*
X0136575Y0000000D01*
X0136575Y0010039D01*
X0143268Y0010039D01*
X0143268Y0010039D02*
G37*
G36*
X0153268Y0010039D02*
X0153268Y0000000D01*
X0146575Y0000000D01*
X0146575Y0010039D01*
X0153268Y0010039D01*
X0153268Y0010039D02*
G37*
G36*
X0163268Y0010039D02*
X0163268Y0000000D01*
X0156575Y0000000D01*
X0156575Y0010039D01*
X0163268Y0010039D01*
X0163268Y0010039D02*
G37*
G36*
X0173268Y0010039D02*
X0173268Y0000000D01*
X0166575Y0000000D01*
X0166575Y0010039D01*
X0173268Y0010039D01*
X0173268Y0010039D02*
G37*
G36*
X0126575Y0140000D02*
X0126575Y0150039D01*
X0133268Y0150039D01*
X0133268Y0140000D01*
X0126575Y0140000D01*
X0126575Y0140000D02*
G37*
G36*
X0136575Y0140000D02*
X0136575Y0150039D01*
X0143268Y0150039D01*
X0143268Y0140000D01*
X0136575Y0140000D01*
X0136575Y0140000D02*
G37*
G36*
X0146575Y0140000D02*
X0146575Y0150039D01*
X0153268Y0150039D01*
X0153268Y0140000D01*
X0146575Y0140000D01*
X0146575Y0140000D02*
G37*
G36*
X0156575Y0140000D02*
X0156575Y0150039D01*
X0163268Y0150039D01*
X0163268Y0140000D01*
X0156575Y0140000D01*
X0156575Y0140000D02*
G37*
G36*
X0166575Y0140000D02*
X0166575Y0150039D01*
X0173268Y0150039D01*
X0173268Y0140000D01*
X0166575Y0140000D01*
X0166575Y0140000D02*
G37*
G36*
X0299961Y0056653D02*
X0289921Y0056653D01*
X0289921Y0063346D01*
X0299961Y0063346D01*
X0299961Y0056653D01*
X0299961Y0056653D02*
G37*
G36*
X0299961Y0046654D02*
X0289921Y0046654D01*
X0289921Y0053347D01*
X0299961Y0053347D01*
X0299961Y0046654D01*
X0299961Y0046654D02*
G37*
G36*
X0299961Y0036654D02*
X0289921Y0036654D01*
X0289921Y0043347D01*
X0299961Y0043347D01*
X0299961Y0036654D01*
X0299961Y0036654D02*
G37*
G36*
X0193268Y0000000D02*
X0186575Y0000000D01*
X0186575Y0010039D01*
X0193268Y0010039D01*
X0193268Y0000000D01*
X0193268Y0000000D02*
G37*
G36*
X0183268Y0000000D02*
X0176575Y0000000D01*
X0176575Y0010039D01*
X0183268Y0010039D01*
X0183268Y0000000D01*
X0183268Y0000000D02*
G37*
G36*
X0176575Y0140000D02*
X0176575Y0150039D01*
X0183268Y0150039D01*
X0183268Y0140000D01*
X0176575Y0140000D01*
X0176575Y0140000D02*
G37*
G36*
X0186575Y0140000D02*
X0186575Y0150039D01*
X0193268Y0150039D01*
X0193268Y0140000D01*
X0186575Y0140000D01*
X0186575Y0140000D02*
G37*
G36*
X0289921Y0073347D02*
X0299961Y0073347D01*
X0299961Y0066654D01*
X0289921Y0066654D01*
X0289921Y0073347D01*
X0289921Y0073347D02*
G37*
G36*
X0289921Y0083346D02*
X0299961Y0083346D01*
X0299961Y0076653D01*
X0289921Y0076653D01*
X0289921Y0083346D01*
X0289921Y0083346D02*
G37*
D74*
X0178957Y0037992D02*
D03*
X0178957Y0028150D02*
D03*
D75*
X0264075Y0137500D02*
D03*
X0247736Y0137500D02*
D03*
X0247736Y0145965D02*
D03*
X0264075Y0145965D02*
D03*
X0064862Y0122933D02*
D03*
X0048524Y0122933D02*
D03*
X0048524Y0131398D02*
D03*
X0064862Y0131398D02*
D03*
X0264075Y0004035D02*
D03*
X0247736Y0004035D02*
D03*
X0247736Y0012500D02*
D03*
X0264075Y0012500D02*
D03*
D76*
X0181659Y0126234D02*
D03*
X0185596Y0126234D02*
D03*
X0183628Y0126234D02*
D03*
X0181659Y0119896D02*
D03*
X0183628Y0119896D02*
D03*
X0185596Y0119896D02*
D03*
D77*
X0137598Y0114863D02*
D03*
X0141338Y0114863D02*
D03*
X0145078Y0114863D02*
D03*
X0145078Y0125296D02*
D03*
X0141338Y0125296D02*
D03*
X0137598Y0125296D02*
D03*
D78*
X0054802Y0025984D02*
D03*
X0054802Y0022244D02*
D03*
X0054802Y0018504D02*
D03*
X0064054Y0025984D02*
D03*
X0064054Y0018504D02*
D03*
D79*
X0270079Y0139173D02*
D03*
X0270079Y0145079D02*
D03*
X0270079Y0004921D02*
D03*
X0270079Y0010827D02*
D03*
D80*
X0026377Y0075197D02*
D03*
X0026377Y0092913D02*
D03*
X0026377Y0081102D02*
D03*
X0006298Y0081102D02*
D03*
X0006298Y0092913D02*
D03*
X0006298Y0075197D02*
D03*
D81*
X0177284Y0051968D02*
D03*
X0182992Y0051968D02*
D03*
X0094784Y0020472D02*
D03*
X0100492Y0020472D02*
D03*
X0131595Y0095276D02*
D03*
X0125886Y0095276D02*
D03*
X0085925Y0108268D02*
D03*
X0080216Y0108268D02*
D03*
X0118996Y0119882D02*
D03*
X0113287Y0119882D02*
D03*
X0176673Y0018110D02*
D03*
X0182382Y0018110D02*
D03*
X0182992Y0057874D02*
D03*
X0177284Y0057874D02*
D03*
D82*
X0033465Y0117913D02*
D03*
X0033465Y0121850D02*
D03*
X0048425Y0022047D02*
D03*
X0048425Y0025984D02*
D03*
X0190517Y0123065D02*
D03*
X0190517Y0127002D02*
D03*
X0269291Y0080709D02*
D03*
X0269291Y0076772D02*
D03*
X0107874Y0092372D02*
D03*
X0107874Y0096309D02*
D03*
X0127953Y0027953D02*
D03*
X0127953Y0031890D02*
D03*
X0185256Y0027559D02*
D03*
X0185256Y0031496D02*
D03*
X0185256Y0038583D02*
D03*
X0185256Y0034646D02*
D03*
X0143504Y0090945D02*
D03*
X0143504Y0094882D02*
D03*
X0077559Y0024409D02*
D03*
X0077559Y0020472D02*
D03*
X0186614Y0092913D02*
D03*
X0186614Y0096850D02*
D03*
X0190157Y0096850D02*
D03*
X0190157Y0092913D02*
D03*
X0037008Y0117913D02*
D03*
X0037008Y0121850D02*
D03*
D83*
X0168504Y0030512D02*
D03*
X0168504Y0032480D02*
D03*
X0168504Y0034449D02*
D03*
X0168504Y0036417D02*
D03*
X0168504Y0038386D02*
D03*
X0168504Y0040354D02*
D03*
X0168504Y0042323D02*
D03*
X0168504Y0044291D02*
D03*
X0168504Y0046260D02*
D03*
X0168504Y0048228D02*
D03*
X0168504Y0050197D02*
D03*
X0168504Y0052165D02*
D03*
X0134646Y0052165D02*
D03*
X0134646Y0050197D02*
D03*
X0134646Y0048228D02*
D03*
X0134646Y0046260D02*
D03*
X0134646Y0044291D02*
D03*
X0134646Y0042323D02*
D03*
X0134646Y0040354D02*
D03*
X0134646Y0038386D02*
D03*
X0134646Y0036417D02*
D03*
X0134646Y0034449D02*
D03*
X0134646Y0032480D02*
D03*
X0134646Y0030512D02*
D03*
D84*
X0162402Y0058268D02*
D03*
X0160433Y0058268D02*
D03*
X0158465Y0058268D02*
D03*
X0156496Y0058268D02*
D03*
X0154527Y0058268D02*
D03*
X0152559Y0058268D02*
D03*
X0150591Y0058268D02*
D03*
X0148622Y0058268D02*
D03*
X0146653Y0058268D02*
D03*
X0144685Y0058268D02*
D03*
X0142717Y0058268D02*
D03*
X0140748Y0058268D02*
D03*
X0140748Y0024409D02*
D03*
X0142717Y0024409D02*
D03*
X0144685Y0024409D02*
D03*
X0146653Y0024409D02*
D03*
X0148622Y0024409D02*
D03*
X0150591Y0024409D02*
D03*
X0152559Y0024409D02*
D03*
X0154527Y0024409D02*
D03*
X0156496Y0024409D02*
D03*
X0158465Y0024409D02*
D03*
X0160433Y0024409D02*
D03*
X0162402Y0024409D02*
D03*
D85*
X0110728Y0112205D02*
D03*
X0118602Y0112205D02*
D03*
X0118602Y0103543D02*
D03*
X0110728Y0103543D02*
D03*
D86*
X0109496Y0111221D02*
D03*
X0109496Y0104528D02*
D03*
D87*
X0119736Y0111221D02*
D03*
X0119736Y0104528D02*
D03*
D88*
X0115453Y0104132D02*
D03*
X0113878Y0104132D02*
D03*
X0112303Y0104132D02*
D03*
X0112303Y0111614D02*
D03*
X0113878Y0111614D02*
D03*
D89*
X0117027Y0103382D02*
D03*
D90*
X0115453Y0112402D02*
D03*
X0117027Y0112402D02*
D03*
D91*
X0109055Y0106327D02*
D03*
X0109055Y0107902D02*
D03*
X0109055Y0109476D02*
D03*
D92*
X0120031Y0109476D02*
D03*
X0120031Y0107902D02*
D03*
X0120031Y0106327D02*
D03*
D93*
X0150787Y0086614D02*
D03*
X0150787Y0088189D02*
D03*
X0157480Y0089764D02*
D03*
X0157480Y0091339D02*
D03*
X0157480Y0088189D02*
D03*
X0157480Y0086614D02*
D03*
X0150787Y0089764D02*
D03*
D94*
X0150984Y0091339D02*
D03*
D95*
X0151772Y0084055D02*
D03*
X0156496Y0084055D02*
D03*
X0154921Y0084055D02*
D03*
X0153347Y0084055D02*
D03*
X0153347Y0093898D02*
D03*
X0154921Y0093898D02*
D03*
X0156496Y0093898D02*
D03*
X0151772Y0093898D02*
D03*
D96*
X0084252Y0067520D02*
D03*
X0085827Y0067520D02*
D03*
X0087402Y0067520D02*
D03*
X0085827Y0061614D02*
D03*
X0084252Y0061614D02*
D03*
X0087402Y0061614D02*
D03*
D97*
X0087992Y0065354D02*
D03*
X0083661Y0063779D02*
D03*
X0083661Y0065354D02*
D03*
D98*
X0087795Y0063779D02*
D03*
D99*
X0252362Y0107874D02*
D03*
X0256299Y0107874D02*
D03*
D100*
X0097638Y0111811D02*
D03*
X0097638Y0103937D02*
D03*
D101*
X0241142Y0113583D02*
D03*
D102*
X0232992Y0094882D02*
D03*
X0215669Y0094882D02*
D03*
D103*
X0240453Y0106496D02*
D03*
D104*
X0242421Y0122835D02*
D03*
X0198425Y0122835D02*
D03*
D105*
X0234331Y0126693D02*
D03*
X0233937Y0139173D02*
D03*
X0224331Y0139173D02*
D03*
X0224331Y0126693D02*
D03*
X0214331Y0126693D02*
D03*
X0214724Y0139173D02*
D03*
D106*
X0226496Y0099114D02*
D03*
D107*
X0198425Y0102559D02*
D03*
D108*
X0242421Y0141929D02*
D03*
X0198425Y0141929D02*
D03*
D109*
X0229134Y0146457D02*
D03*
X0219528Y0146457D02*
D03*
D110*
X0275197Y0036181D02*
D03*
X0275197Y0041181D02*
D03*
X0275197Y0046181D02*
D03*
X0275197Y0051181D02*
D03*
X0275197Y0056181D02*
D03*
X0275197Y0066181D02*
D03*
X0260236Y0066181D02*
D03*
X0260236Y0061181D02*
D03*
X0260236Y0056181D02*
D03*
X0260236Y0051181D02*
D03*
X0260236Y0046181D02*
D03*
X0260236Y0036181D02*
D03*
X0275197Y0061181D02*
D03*
X0260236Y0041181D02*
D03*
D111*
X0029921Y0144095D02*
D03*
X0262205Y0123228D02*
D03*
X0239370Y0008661D02*
D03*
D112*
X0290965Y0118858D02*
D03*
X0290965Y0092480D02*
D03*
D113*
X0269114Y0109606D02*
D03*
X0269114Y0101732D02*
D03*
D114*
X0072539Y0045472D02*
D03*
X0072539Y0047441D02*
D03*
X0072539Y0039567D02*
D03*
X0072539Y0043504D02*
D03*
X0072539Y0041535D02*
D03*
X0072539Y0049409D02*
D03*
X0072539Y0051378D02*
D03*
X0072539Y0055315D02*
D03*
X0072539Y0053347D02*
D03*
X0072539Y0057284D02*
D03*
X0072539Y0059252D02*
D03*
X0072539Y0071063D02*
D03*
X0072539Y0073032D02*
D03*
X0072539Y0069095D02*
D03*
X0042815Y0038583D02*
D03*
X0042815Y0040551D02*
D03*
X0042815Y0044488D02*
D03*
X0042815Y0042520D02*
D03*
X0042815Y0052362D02*
D03*
X0042815Y0054331D02*
D03*
X0042815Y0046457D02*
D03*
X0042815Y0050394D02*
D03*
X0042815Y0048425D02*
D03*
X0042815Y0056299D02*
D03*
X0042815Y0060236D02*
D03*
X0042815Y0058268D02*
D03*
X0042815Y0072047D02*
D03*
X0042815Y0074016D02*
D03*
X0042815Y0070079D02*
D03*
X0072539Y0080905D02*
D03*
X0072539Y0082874D02*
D03*
X0072539Y0075000D02*
D03*
X0072539Y0078937D02*
D03*
X0072539Y0076968D02*
D03*
X0072539Y0084842D02*
D03*
X0072539Y0086811D02*
D03*
X0072539Y0090748D02*
D03*
X0072539Y0088779D02*
D03*
X0072539Y0098622D02*
D03*
X0072539Y0100591D02*
D03*
X0072539Y0102559D02*
D03*
X0072539Y0092716D02*
D03*
X0072539Y0096653D02*
D03*
X0072539Y0094685D02*
D03*
X0072539Y0104528D02*
D03*
X0072539Y0106496D02*
D03*
X0072539Y0108465D02*
D03*
X0072539Y0110433D02*
D03*
X0042815Y0081890D02*
D03*
X0042815Y0083858D02*
D03*
X0042815Y0075984D02*
D03*
X0042815Y0079921D02*
D03*
X0042815Y0077953D02*
D03*
X0042815Y0085827D02*
D03*
X0042815Y0087795D02*
D03*
X0042815Y0091732D02*
D03*
X0042815Y0089764D02*
D03*
X0042815Y0099606D02*
D03*
X0042815Y0101575D02*
D03*
X0042815Y0093701D02*
D03*
X0042815Y0097638D02*
D03*
X0042815Y0095669D02*
D03*
X0042815Y0109449D02*
D03*
X0042815Y0111417D02*
D03*
X0042815Y0103543D02*
D03*
X0042815Y0107480D02*
D03*
X0042815Y0105512D02*
D03*
D115*
X0045866Y0034252D02*
D03*
X0045866Y0115748D02*
D03*
D116*
X0006299Y0113976D02*
D03*
X0026772Y0113976D02*
D03*
D117*
X0010630Y0104134D02*
D03*
X0014567Y0104134D02*
D03*
X0018504Y0104134D02*
D03*
X0022441Y0104134D02*
D03*
D118*
X0026801Y0066417D02*
D03*
X0026801Y0032402D02*
D03*
D03*
X0026801Y0066417D02*
D03*
D119*
X0010345Y0066417D02*
D03*
X0010345Y0032402D02*
D03*
X0010345Y0066417D02*
D03*
X0010345Y0032402D02*
D03*
D120*
X0029026Y0062598D02*
D03*
X0029026Y0036220D02*
D03*
X0029026Y0059449D02*
D03*
X0029026Y0040551D02*
D03*
X0029026Y0056299D02*
D03*
X0029026Y0042520D02*
D03*
X0029026Y0054331D02*
D03*
X0029026Y0044488D02*
D03*
X0029026Y0052362D02*
D03*
X0029026Y0046457D02*
D03*
X0029026Y0050394D02*
D03*
X0029026Y0048425D02*
D03*
X0029026Y0061417D02*
D03*
X0029026Y0058268D02*
D03*
X0029026Y0037402D02*
D03*
X0029026Y0039370D02*
D03*
D121*
X0010345Y0066417D02*
D03*
D122*
X0092126Y0124114D02*
D03*
X0092126Y0118405D02*
D03*
X0103937Y0118405D02*
D03*
X0103937Y0124114D02*
D03*
X0090945Y0095768D02*
D03*
X0090945Y0090059D02*
D03*
X0083465Y0028839D02*
D03*
X0083465Y0023130D02*
D03*
X0111811Y0028839D02*
D03*
X0111811Y0023130D02*
D03*
X0088583Y0023130D02*
D03*
X0088583Y0028839D02*
D03*
X0106693Y0023130D02*
D03*
X0106693Y0028839D02*
D03*
X0189764Y0024114D02*
D03*
X0189764Y0018406D02*
D03*
X0102756Y0090059D02*
D03*
X0102756Y0095768D02*
D03*
X0126378Y0101083D02*
D03*
X0126378Y0106791D02*
D03*
X0132283Y0101083D02*
D03*
X0132283Y0106791D02*
D03*
X0098032Y0124114D02*
D03*
X0098032Y0118405D02*
D03*
X0071260Y0025689D02*
D03*
X0071260Y0019980D02*
D03*
X0042520Y0019980D02*
D03*
X0042520Y0025689D02*
D03*
X0096850Y0090059D02*
D03*
X0096850Y0095768D02*
D03*
D123*
X0086221Y0056890D02*
D03*
X0082284Y0056890D02*
D03*
X0146850Y0106299D02*
D03*
X0142913Y0106299D02*
D03*
X0256496Y0094488D02*
D03*
X0252559Y0094488D02*
D03*
X0071260Y0126772D02*
D03*
X0075197Y0126772D02*
D03*
X0071258Y0122597D02*
D03*
X0075195Y0122597D02*
D03*
X0129134Y0112205D02*
D03*
X0125197Y0112205D02*
D03*
X0034646Y0024016D02*
D03*
X0030709Y0024016D02*
D03*
X0030709Y0020079D02*
D03*
X0034646Y0020079D02*
D03*
X0125197Y0120866D02*
D03*
X0129134Y0120866D02*
D03*
X0129134Y0116535D02*
D03*
X0125197Y0116535D02*
D03*
X0099606Y0033858D02*
D03*
X0103543Y0033858D02*
D03*
X0118110Y0092126D02*
D03*
X0114173Y0092126D02*
D03*
X0118110Y0096063D02*
D03*
X0114173Y0096063D02*
D03*
X0179691Y0130742D02*
D03*
X0183628Y0130742D02*
D03*
X0094488Y0043504D02*
D03*
X0090551Y0043504D02*
D03*
X0094488Y0052165D02*
D03*
X0090551Y0052165D02*
D03*
X0094488Y0047835D02*
D03*
X0090551Y0047835D02*
D03*
X0082284Y0043504D02*
D03*
X0086221Y0043504D02*
D03*
X0082284Y0052165D02*
D03*
X0086221Y0052165D02*
D03*
X0082284Y0047835D02*
D03*
X0086221Y0047835D02*
D03*
X0092126Y0033858D02*
D03*
X0096063Y0033858D02*
D03*
X0180315Y0023445D02*
D03*
X0176378Y0023445D02*
D03*
X0138583Y0064567D02*
D03*
X0134646Y0064567D02*
D03*
X0164567Y0018504D02*
D03*
X0160630Y0018504D02*
D03*
X0176988Y0047244D02*
D03*
X0180925Y0047244D02*
D03*
X0176988Y0042913D02*
D03*
X0180925Y0042913D02*
D03*
X0159449Y0100000D02*
D03*
X0155512Y0100000D02*
D03*
X0145276Y0083465D02*
D03*
X0141339Y0083465D02*
D03*
X0145276Y0087402D02*
D03*
X0141339Y0087402D02*
D03*
X0256299Y0111417D02*
D03*
X0252362Y0111417D02*
D03*
X0031496Y0086221D02*
D03*
X0035433Y0086221D02*
D03*
X0167717Y0064567D02*
D03*
X0163779Y0064567D02*
D03*
X0163779Y0068110D02*
D03*
X0167717Y0068110D02*
D03*
D124*
X0094488Y0025591D02*
D03*
X0096063Y0025591D02*
D03*
X0097638Y0025591D02*
D03*
X0096063Y0028740D02*
D03*
X0100787Y0028740D02*
D03*
X0100787Y0027165D02*
D03*
X0100787Y0025591D02*
D03*
X0099213Y0027165D02*
D03*
X0099213Y0025591D02*
D03*
X0097638Y0027165D02*
D03*
X0099213Y0028740D02*
D03*
X0097638Y0028740D02*
D03*
X0096063Y0027165D02*
D03*
X0094488Y0028740D02*
D03*
X0094488Y0027165D02*
D03*
D125*
X0257677Y0090158D02*
D03*
X0251772Y0090158D02*
D03*
X0076181Y0131496D02*
D03*
X0070276Y0131496D02*
D03*
D126*
X0272835Y0080709D02*
D03*
X0272835Y0076772D02*
D03*
D127*
X0194488Y0075000D02*
D03*
D128*
X0016337Y0089961D02*
D03*
X0016337Y0078150D02*
D03*
X0063583Y0035630D02*
D03*
X0063583Y0114370D02*
D03*
X0024833Y0060787D02*
D03*
X0024833Y0038032D02*
D03*
X0015000Y0015000D02*
D03*
X0015000Y0135000D02*
D03*
X0285000Y0015000D02*
D03*
X0285000Y0135000D02*
D03*
D129*
X0300000Y0040000D02*
D03*
X0300000Y0050000D02*
D03*
X0300000Y0060000D02*
D03*
X0300000Y0070000D02*
D03*
X0300000Y0080000D02*
D03*
X0289921Y0040000D02*
D03*
X0289921Y0050000D02*
D03*
X0289921Y0060000D02*
D03*
X0289921Y0070000D02*
D03*
X0189921Y0150079D02*
D03*
X0179921Y0150079D02*
D03*
X0169921Y0150079D02*
D03*
X0159921Y0150079D02*
D03*
X0149921Y0150079D02*
D03*
X0139921Y0150079D02*
D03*
X0129921Y0150079D02*
D03*
X0119921Y0150079D02*
D03*
X0109921Y0150079D02*
D03*
X0099921Y0150079D02*
D03*
X0089921Y0150079D02*
D03*
X0079921Y0150079D02*
D03*
X0069921Y0150079D02*
D03*
X0059921Y0150079D02*
D03*
X0049921Y0150079D02*
D03*
X0039921Y0150079D02*
D03*
X0189921Y0140000D02*
D03*
X0179921Y0140000D02*
D03*
X0169921Y0140000D02*
D03*
X0159921Y0140000D02*
D03*
X0149921Y0140000D02*
D03*
X0139921Y0140000D02*
D03*
X0129921Y0140000D02*
D03*
X0119921Y0140000D02*
D03*
X0109921Y0140000D02*
D03*
X0099921Y0140000D02*
D03*
X0089921Y0140000D02*
D03*
X0079921Y0140000D02*
D03*
X0069921Y0140000D02*
D03*
X0059921Y0140000D02*
D03*
X0049921Y0140000D02*
D03*
X0179921Y0010039D02*
D03*
X0169921Y0010039D02*
D03*
X0159921Y0010039D02*
D03*
X0149921Y0010039D02*
D03*
X0139921Y0010039D02*
D03*
X0129921Y0010039D02*
D03*
X0119921Y0010039D02*
D03*
X0109921Y0010039D02*
D03*
X0099921Y0010039D02*
D03*
X0089921Y0010039D02*
D03*
X0079921Y0010039D02*
D03*
X0069921Y0010039D02*
D03*
X0059921Y0010039D02*
D03*
X0049921Y0010039D02*
D03*
X0039921Y0010039D02*
D03*
X0189921Y-0000039D02*
D03*
X0179921Y-0000039D02*
D03*
X0169921Y-0000039D02*
D03*
X0159921Y-0000039D02*
D03*
X0149921Y-0000039D02*
D03*
X0139921Y-0000039D02*
D03*
X0129921Y-0000039D02*
D03*
X0119921Y-0000039D02*
D03*
X0109921Y-0000039D02*
D03*
X0099921Y-0000039D02*
D03*
X0089921Y-0000039D02*
D03*
X0079921Y-0000039D02*
D03*
X0069921Y-0000039D02*
D03*
X0059921Y-0000039D02*
D03*
X0049921Y-0000039D02*
D03*
X0039921Y-0000039D02*
D03*
D130*
X0289921Y0080000D02*
D03*
D131*
X0039921Y0140000D02*
D03*
X0189921Y0010039D02*
D03*
M02*
