G04*
G04 #@! TF.GenerationSoftware,Altium Limited,Altium Designer,21.5.0 (25)*
G04*
G04 Layer_Color=16777215*
%FSLAX25Y25*%
%MOIN*%
G70*
G04*
G04 #@! TF.SameCoordinates,B52814C9-DCD9-4C92-8852-15DF41944D51*
G04*
G04*
G04 #@! TF.FilePolarity,Positive*
G04*
G01*
G75*
%ADD12C,0.01000*%
%ADD13C,0.00787*%
G36*
X834811Y-1486D02*
X834178D01*
Y-595D01*
X834811D01*
Y-1486D01*
D02*
G37*
G36*
X817902Y-6905D02*
X817306D01*
Y-6337D01*
X817297Y-6346D01*
X817287Y-6365D01*
X817273Y-6388D01*
X817255Y-6416D01*
X817236Y-6448D01*
X817186Y-6522D01*
X817121Y-6601D01*
X817042Y-6688D01*
X816955Y-6767D01*
X816858Y-6841D01*
X816853D01*
X816844Y-6850D01*
X816830Y-6855D01*
X816811Y-6869D01*
X816788Y-6882D01*
X816756Y-6896D01*
X816687Y-6924D01*
X816599Y-6956D01*
X816497Y-6984D01*
X816391Y-7002D01*
X816276Y-7012D01*
X816248D01*
X816211Y-7007D01*
X816165Y-7002D01*
X816109Y-6993D01*
X816040Y-6979D01*
X815966Y-6961D01*
X815883Y-6933D01*
X815800Y-6901D01*
X815707Y-6859D01*
X815610Y-6808D01*
X815513Y-6748D01*
X815416Y-6679D01*
X815319Y-6596D01*
X815222Y-6499D01*
X815130Y-6388D01*
X815125Y-6379D01*
X815111Y-6360D01*
X815084Y-6323D01*
X815056Y-6273D01*
X815019Y-6208D01*
X814977Y-6129D01*
X814936Y-6037D01*
X814890Y-5931D01*
X814843Y-5815D01*
X814802Y-5681D01*
X814760Y-5538D01*
X814723Y-5376D01*
X814695Y-5210D01*
X814672Y-5025D01*
X814654Y-4831D01*
X814649Y-4623D01*
Y-4614D01*
Y-4591D01*
Y-4549D01*
X814654Y-4494D01*
Y-4425D01*
X814659Y-4351D01*
X814668Y-4263D01*
X814677Y-4166D01*
X814686Y-4064D01*
X814700Y-3963D01*
X814737Y-3741D01*
X814792Y-3519D01*
X814825Y-3408D01*
X814862Y-3306D01*
X814866Y-3302D01*
X814871Y-3283D01*
X814885Y-3256D01*
X814899Y-3219D01*
X814922Y-3173D01*
X814950Y-3122D01*
X814977Y-3062D01*
X815014Y-3002D01*
X815097Y-2868D01*
X815194Y-2734D01*
X815305Y-2609D01*
X815370Y-2549D01*
X815435Y-2498D01*
X815439Y-2493D01*
X815453Y-2489D01*
X815472Y-2475D01*
X815499Y-2456D01*
X815532Y-2438D01*
X815573Y-2415D01*
X815619Y-2392D01*
X815670Y-2364D01*
X815726Y-2341D01*
X815786Y-2318D01*
X815924Y-2276D01*
X815994Y-2258D01*
X816072Y-2244D01*
X816151Y-2239D01*
X816229Y-2235D01*
X816262D01*
X816285Y-2239D01*
X816312D01*
X816345Y-2244D01*
X816419Y-2253D01*
X816511Y-2276D01*
X816608Y-2304D01*
X816710Y-2346D01*
X816811Y-2401D01*
X816816D01*
X816825Y-2410D01*
X816839Y-2420D01*
X816858Y-2433D01*
X816904Y-2470D01*
X816969Y-2521D01*
X817038Y-2586D01*
X817112Y-2669D01*
X817190Y-2761D01*
X817260Y-2868D01*
Y-595D01*
X817902D01*
Y-6905D01*
D02*
G37*
G36*
X837624Y-2239D02*
X837652D01*
X837726Y-2248D01*
X837814Y-2262D01*
X837906Y-2286D01*
X838003Y-2313D01*
X838100Y-2355D01*
X838105D01*
X838114Y-2359D01*
X838123Y-2369D01*
X838142Y-2378D01*
X838193Y-2401D01*
X838248Y-2438D01*
X838317Y-2484D01*
X838387Y-2540D01*
X838451Y-2600D01*
X838516Y-2669D01*
X838525Y-2678D01*
X838544Y-2701D01*
X838572Y-2743D01*
X838604Y-2803D01*
X838641Y-2872D01*
X838682Y-2955D01*
X838719Y-3052D01*
X838752Y-3163D01*
Y-3168D01*
X838756Y-3177D01*
X838761Y-3196D01*
X838766Y-3219D01*
X838770Y-3251D01*
X838775Y-3293D01*
X838784Y-3339D01*
X838793Y-3394D01*
X838798Y-3459D01*
X838807Y-3528D01*
X838812Y-3602D01*
X838816Y-3685D01*
X838821Y-3778D01*
X838826Y-3879D01*
X838830Y-3986D01*
Y-4101D01*
Y-6905D01*
X838197D01*
Y-4124D01*
Y-4120D01*
Y-4101D01*
Y-4078D01*
Y-4041D01*
X838193Y-3999D01*
Y-3953D01*
X838188Y-3898D01*
Y-3842D01*
X838174Y-3722D01*
X838160Y-3602D01*
X838137Y-3487D01*
X838123Y-3436D01*
X838110Y-3390D01*
Y-3385D01*
X838105Y-3380D01*
X838091Y-3353D01*
X838073Y-3306D01*
X838045Y-3256D01*
X838003Y-3200D01*
X837957Y-3140D01*
X837902Y-3080D01*
X837837Y-3029D01*
X837828Y-3025D01*
X837805Y-3011D01*
X837768Y-2988D01*
X837717Y-2965D01*
X837657Y-2942D01*
X837583Y-2918D01*
X837504Y-2905D01*
X837417Y-2900D01*
X837375D01*
X837343Y-2905D01*
X837301Y-2909D01*
X837259Y-2918D01*
X837209Y-2928D01*
X837153Y-2942D01*
X837098Y-2960D01*
X837038Y-2983D01*
X836978Y-3011D01*
X836918Y-3043D01*
X836858Y-3085D01*
X836798Y-3131D01*
X836742Y-3182D01*
X836687Y-3242D01*
X836682Y-3246D01*
X836677Y-3256D01*
X836664Y-3279D01*
X836645Y-3306D01*
X836627Y-3348D01*
X836604Y-3394D01*
X836576Y-3450D01*
X836553Y-3514D01*
X836530Y-3593D01*
X836502Y-3676D01*
X836479Y-3773D01*
X836460Y-3879D01*
X836442Y-3995D01*
X836432Y-4124D01*
X836423Y-4263D01*
X836419Y-4411D01*
Y-6905D01*
X835786D01*
Y-2336D01*
X836359D01*
Y-2983D01*
X836363Y-2978D01*
X836368Y-2965D01*
X836382Y-2946D01*
X836396Y-2923D01*
X836414Y-2891D01*
X836437Y-2854D01*
X836497Y-2771D01*
X836571Y-2683D01*
X836654Y-2590D01*
X836751Y-2503D01*
X836858Y-2424D01*
X836862D01*
X836871Y-2415D01*
X836890Y-2406D01*
X836913Y-2396D01*
X836941Y-2378D01*
X836973Y-2364D01*
X837015Y-2346D01*
X837056Y-2327D01*
X837158Y-2295D01*
X837273Y-2262D01*
X837407Y-2244D01*
X837546Y-2235D01*
X837597D01*
X837624Y-2239D01*
D02*
G37*
G36*
X813919Y-2239D02*
X813947Y-2244D01*
X813984Y-2248D01*
X814021Y-2253D01*
X814067Y-2267D01*
X814164Y-2295D01*
X814275Y-2341D01*
X814330Y-2369D01*
X814390Y-2401D01*
X814455Y-2438D01*
X814515Y-2484D01*
X814298Y-3205D01*
X814293D01*
X814289Y-3196D01*
X814275Y-3191D01*
X814256Y-3177D01*
X814210Y-3149D01*
X814150Y-3117D01*
X814081Y-3089D01*
X814002Y-3062D01*
X813919Y-3043D01*
X813836Y-3034D01*
X813804D01*
X813762Y-3043D01*
X813711Y-3052D01*
X813656Y-3071D01*
X813591Y-3094D01*
X813527Y-3131D01*
X813462Y-3177D01*
X813453Y-3182D01*
X813434Y-3205D01*
X813406Y-3237D01*
X813369Y-3279D01*
X813332Y-3339D01*
X813296Y-3404D01*
X813259Y-3482D01*
X813231Y-3574D01*
Y-3579D01*
X813226Y-3593D01*
X813222Y-3621D01*
X813212Y-3653D01*
X813203Y-3695D01*
X813194Y-3741D01*
X813180Y-3796D01*
X813171Y-3856D01*
X813162Y-3926D01*
X813148Y-3999D01*
X813138Y-4078D01*
X813129Y-4161D01*
X813115Y-4332D01*
X813111Y-4517D01*
Y-6905D01*
X812478D01*
Y-2336D01*
X813051D01*
Y-3034D01*
X813055Y-3029D01*
X813060Y-3011D01*
X813074Y-2988D01*
X813088Y-2955D01*
X813106Y-2918D01*
X813129Y-2872D01*
X813180Y-2771D01*
X813245Y-2664D01*
X813309Y-2558D01*
X813346Y-2507D01*
X813379Y-2466D01*
X813416Y-2424D01*
X813448Y-2392D01*
X813457Y-2387D01*
X813480Y-2369D01*
X813517Y-2341D01*
X813568Y-2313D01*
X813633Y-2286D01*
X813702Y-2258D01*
X813781Y-2239D01*
X813864Y-2235D01*
X813896D01*
X813919Y-2239D01*
D02*
G37*
G36*
X829563Y-6905D02*
X828994D01*
Y-6240D01*
X828990Y-6245D01*
X828985Y-6259D01*
X828971Y-6277D01*
X828957Y-6305D01*
X828934Y-6337D01*
X828907Y-6374D01*
X828846Y-6457D01*
X828768Y-6554D01*
X828680Y-6651D01*
X828583Y-6739D01*
X828472Y-6822D01*
X828468D01*
X828458Y-6832D01*
X828444Y-6841D01*
X828421Y-6850D01*
X828394Y-6864D01*
X828361Y-6882D01*
X828320Y-6901D01*
X828278Y-6915D01*
X828181Y-6952D01*
X828066Y-6984D01*
X827941Y-7002D01*
X827802Y-7012D01*
X827761D01*
X827728Y-7007D01*
X827691Y-7002D01*
X827645Y-6998D01*
X827594Y-6993D01*
X827544Y-6984D01*
X827423Y-6956D01*
X827294Y-6910D01*
X827229Y-6887D01*
X827169Y-6855D01*
X827105Y-6818D01*
X827045Y-6776D01*
X827040Y-6771D01*
X827031Y-6767D01*
X827017Y-6753D01*
X826994Y-6735D01*
X826971Y-6707D01*
X826938Y-6679D01*
X826874Y-6610D01*
X826804Y-6522D01*
X826735Y-6420D01*
X826675Y-6300D01*
X826647Y-6236D01*
X826624Y-6171D01*
Y-6166D01*
X826620Y-6152D01*
X826615Y-6134D01*
X826610Y-6102D01*
X826601Y-6065D01*
X826592Y-6023D01*
X826583Y-5968D01*
X826573Y-5908D01*
X826564Y-5843D01*
X826555Y-5769D01*
X826546Y-5686D01*
X826536Y-5598D01*
X826532Y-5501D01*
X826527Y-5399D01*
X826523Y-5288D01*
Y-5173D01*
Y-2336D01*
X827156D01*
Y-4877D01*
Y-4887D01*
Y-4910D01*
Y-4942D01*
Y-4993D01*
Y-5048D01*
X827160Y-5113D01*
Y-5187D01*
X827165Y-5261D01*
X827174Y-5418D01*
X827183Y-5575D01*
X827192Y-5649D01*
X827202Y-5714D01*
X827211Y-5774D01*
X827225Y-5824D01*
Y-5829D01*
X827229Y-5834D01*
X827239Y-5861D01*
X827257Y-5908D01*
X827285Y-5958D01*
X827317Y-6019D01*
X827363Y-6083D01*
X827419Y-6148D01*
X827484Y-6203D01*
X827493Y-6208D01*
X827516Y-6226D01*
X827557Y-6250D01*
X827613Y-6273D01*
X827678Y-6300D01*
X827752Y-6323D01*
X827835Y-6342D01*
X827923Y-6346D01*
X827941D01*
X827969Y-6342D01*
X827996D01*
X828038Y-6333D01*
X828084Y-6328D01*
X828135Y-6314D01*
X828186Y-6300D01*
X828246Y-6282D01*
X828306Y-6254D01*
X828371Y-6226D01*
X828431Y-6189D01*
X828495Y-6148D01*
X828555Y-6097D01*
X828615Y-6037D01*
X828671Y-5972D01*
X828675Y-5968D01*
X828680Y-5958D01*
X828694Y-5935D01*
X828712Y-5908D01*
X828731Y-5871D01*
X828749Y-5824D01*
X828773Y-5769D01*
X828800Y-5704D01*
X828823Y-5626D01*
X828846Y-5543D01*
X828865Y-5446D01*
X828883Y-5335D01*
X828902Y-5219D01*
X828916Y-5085D01*
X828920Y-4942D01*
X828925Y-4789D01*
Y-2336D01*
X829563D01*
Y-6905D01*
D02*
G37*
G36*
X834811D02*
X834178D01*
Y-2336D01*
X834811D01*
Y-6905D01*
D02*
G37*
G36*
X833180D02*
X832547D01*
Y-595D01*
X833180D01*
Y-6905D01*
D02*
G37*
G36*
X810145Y-2239D02*
X810196D01*
X810251Y-2244D01*
X810316Y-2253D01*
X810385Y-2262D01*
X810533Y-2290D01*
X810685Y-2327D01*
X810838Y-2382D01*
X810907Y-2420D01*
X810972Y-2456D01*
X810976Y-2461D01*
X810986Y-2466D01*
X811004Y-2480D01*
X811027Y-2498D01*
X811083Y-2544D01*
X811152Y-2609D01*
X811226Y-2688D01*
X811295Y-2780D01*
X811355Y-2886D01*
X811378Y-2946D01*
X811397Y-3006D01*
Y-3011D01*
X811401Y-3020D01*
X811406Y-3039D01*
X811411Y-3066D01*
X811420Y-3103D01*
X811425Y-3145D01*
X811434Y-3191D01*
X811443Y-3246D01*
X811452Y-3311D01*
X811461Y-3385D01*
X811466Y-3464D01*
X811475Y-3547D01*
X811480Y-3639D01*
X811485Y-3741D01*
X811489Y-3847D01*
Y-3963D01*
Y-4993D01*
Y-4997D01*
Y-5007D01*
Y-5021D01*
Y-5039D01*
Y-5067D01*
Y-5094D01*
Y-5168D01*
Y-5252D01*
Y-5353D01*
X811494Y-5459D01*
Y-5570D01*
X811498Y-5806D01*
X811503Y-5917D01*
Y-6028D01*
X811508Y-6129D01*
X811512Y-6222D01*
X811522Y-6300D01*
Y-6333D01*
X811526Y-6360D01*
Y-6365D01*
Y-6374D01*
X811531Y-6388D01*
X811535Y-6407D01*
X811540Y-6434D01*
X811545Y-6462D01*
X811563Y-6536D01*
X811586Y-6619D01*
X811614Y-6707D01*
X811651Y-6808D01*
X811692Y-6905D01*
X811032D01*
Y-6901D01*
X811027Y-6896D01*
X811022Y-6882D01*
X811013Y-6864D01*
X811009Y-6841D01*
X810995Y-6813D01*
X810976Y-6748D01*
X810953Y-6665D01*
X810930Y-6573D01*
X810912Y-6467D01*
X810898Y-6346D01*
X810893Y-6351D01*
X810884Y-6360D01*
X810865Y-6379D01*
X810842Y-6402D01*
X810815Y-6430D01*
X810778Y-6462D01*
X810741Y-6494D01*
X810695Y-6531D01*
X810598Y-6614D01*
X810482Y-6698D01*
X810362Y-6776D01*
X810233Y-6845D01*
X810228D01*
X810219Y-6855D01*
X810200Y-6859D01*
X810172Y-6873D01*
X810140Y-6882D01*
X810103Y-6896D01*
X810062Y-6915D01*
X810015Y-6929D01*
X809904Y-6961D01*
X809784Y-6984D01*
X809655Y-7002D01*
X809516Y-7012D01*
X809489D01*
X809461Y-7007D01*
X809419D01*
X809369Y-7002D01*
X809313Y-6993D01*
X809248Y-6984D01*
X809179Y-6966D01*
X809105Y-6947D01*
X809031Y-6924D01*
X808953Y-6896D01*
X808874Y-6864D01*
X808800Y-6822D01*
X808722Y-6776D01*
X808652Y-6721D01*
X808583Y-6661D01*
X808578Y-6656D01*
X808569Y-6642D01*
X808551Y-6624D01*
X808528Y-6596D01*
X808505Y-6559D01*
X808472Y-6517D01*
X808445Y-6467D01*
X808412Y-6411D01*
X808380Y-6346D01*
X808348Y-6273D01*
X808315Y-6194D01*
X808292Y-6111D01*
X808269Y-6019D01*
X808251Y-5922D01*
X808241Y-5820D01*
X808237Y-5709D01*
Y-5704D01*
Y-5690D01*
Y-5672D01*
X808241Y-5640D01*
Y-5607D01*
X808246Y-5566D01*
X808251Y-5520D01*
X808255Y-5473D01*
X808278Y-5362D01*
X808306Y-5247D01*
X808343Y-5122D01*
X808398Y-5007D01*
Y-5002D01*
X808408Y-4993D01*
X808417Y-4979D01*
X808426Y-4956D01*
X808463Y-4900D01*
X808514Y-4831D01*
X808578Y-4757D01*
X808652Y-4679D01*
X808740Y-4600D01*
X808842Y-4531D01*
X808846D01*
X808856Y-4522D01*
X808874Y-4512D01*
X808897Y-4503D01*
X808925Y-4489D01*
X808962Y-4471D01*
X809008Y-4452D01*
X809059Y-4434D01*
X809114Y-4411D01*
X809179Y-4392D01*
X809248Y-4369D01*
X809327Y-4346D01*
X809410Y-4328D01*
X809503Y-4309D01*
X809600Y-4291D01*
X809706Y-4272D01*
X809715D01*
X809738Y-4267D01*
X809780Y-4263D01*
X809835Y-4254D01*
X809895Y-4240D01*
X809969Y-4231D01*
X810052Y-4212D01*
X810140Y-4198D01*
X810325Y-4157D01*
X810514Y-4110D01*
X810607Y-4087D01*
X810695Y-4060D01*
X810773Y-4032D01*
X810847Y-4004D01*
X810852Y-3810D01*
Y-3805D01*
Y-3792D01*
Y-3764D01*
X810847Y-3732D01*
Y-3695D01*
X810842Y-3653D01*
X810828Y-3551D01*
X810810Y-3441D01*
X810778Y-3334D01*
X810736Y-3233D01*
X810713Y-3186D01*
X810681Y-3149D01*
X810676Y-3145D01*
X810671Y-3136D01*
X810658Y-3122D01*
X810634Y-3108D01*
X810611Y-3085D01*
X810579Y-3062D01*
X810542Y-3039D01*
X810501Y-3011D01*
X810454Y-2983D01*
X810399Y-2960D01*
X810339Y-2937D01*
X810274Y-2914D01*
X810200Y-2900D01*
X810126Y-2886D01*
X810038Y-2877D01*
X809951Y-2872D01*
X809909D01*
X809877Y-2877D01*
X809840D01*
X809798Y-2881D01*
X809701Y-2895D01*
X809595Y-2918D01*
X809484Y-2951D01*
X809378Y-2997D01*
X809332Y-3025D01*
X809285Y-3057D01*
X809281D01*
X809276Y-3066D01*
X809267Y-3076D01*
X809248Y-3094D01*
X809230Y-3117D01*
X809212Y-3140D01*
X809188Y-3173D01*
X809165Y-3214D01*
X809138Y-3256D01*
X809114Y-3306D01*
X809087Y-3362D01*
X809059Y-3427D01*
X809036Y-3496D01*
X809008Y-3570D01*
X808985Y-3653D01*
X808967Y-3745D01*
X808343Y-3644D01*
Y-3635D01*
X808348Y-3611D01*
X808357Y-3574D01*
X808371Y-3524D01*
X808385Y-3464D01*
X808408Y-3394D01*
X808431Y-3316D01*
X808458Y-3233D01*
X808491Y-3149D01*
X808532Y-3057D01*
X808574Y-2969D01*
X808625Y-2881D01*
X808680Y-2794D01*
X808740Y-2715D01*
X808805Y-2641D01*
X808879Y-2572D01*
X808883Y-2567D01*
X808897Y-2558D01*
X808920Y-2540D01*
X808957Y-2521D01*
X808999Y-2493D01*
X809050Y-2466D01*
X809110Y-2433D01*
X809179Y-2401D01*
X809258Y-2373D01*
X809346Y-2341D01*
X809443Y-2313D01*
X809544Y-2286D01*
X809660Y-2267D01*
X809780Y-2248D01*
X809909Y-2239D01*
X810048Y-2235D01*
X810103D01*
X810145Y-2239D01*
D02*
G37*
G36*
X801718Y-599D02*
X801769D01*
X801824Y-604D01*
X801889Y-609D01*
X801958Y-618D01*
X802110Y-641D01*
X802263Y-673D01*
X802415Y-719D01*
X802489Y-747D01*
X802554Y-779D01*
X802559D01*
X802568Y-789D01*
X802586Y-798D01*
X802610Y-816D01*
X802642Y-835D01*
X802674Y-858D01*
X802753Y-918D01*
X802845Y-1001D01*
X802891Y-1047D01*
X802938Y-1098D01*
X802984Y-1154D01*
X803030Y-1218D01*
X803076Y-1283D01*
X803118Y-1352D01*
X803122Y-1357D01*
X803127Y-1371D01*
X803136Y-1389D01*
X803155Y-1422D01*
X803168Y-1459D01*
X803187Y-1500D01*
X803210Y-1551D01*
X803229Y-1606D01*
X803252Y-1666D01*
X803270Y-1731D01*
X803307Y-1874D01*
X803330Y-2036D01*
X803335Y-2119D01*
X803339Y-2207D01*
Y-2212D01*
Y-2225D01*
Y-2248D01*
X803335Y-2281D01*
Y-2318D01*
X803330Y-2364D01*
X803326Y-2415D01*
X803316Y-2466D01*
X803293Y-2590D01*
X803261Y-2720D01*
X803215Y-2858D01*
X803150Y-2992D01*
Y-2997D01*
X803141Y-3006D01*
X803132Y-3025D01*
X803113Y-3048D01*
X803095Y-3080D01*
X803071Y-3112D01*
X803011Y-3191D01*
X802938Y-3279D01*
X802845Y-3376D01*
X802739Y-3468D01*
X802614Y-3551D01*
X802619D01*
X802633Y-3561D01*
X802656Y-3570D01*
X802688Y-3584D01*
X802725Y-3602D01*
X802771Y-3625D01*
X802822Y-3648D01*
X802873Y-3681D01*
X802928Y-3718D01*
X802988Y-3759D01*
X803044Y-3805D01*
X803104Y-3856D01*
X803164Y-3912D01*
X803219Y-3972D01*
X803275Y-4036D01*
X803326Y-4110D01*
X803330Y-4115D01*
X803335Y-4129D01*
X803349Y-4152D01*
X803367Y-4180D01*
X803386Y-4217D01*
X803409Y-4263D01*
X803432Y-4318D01*
X803460Y-4378D01*
X803483Y-4448D01*
X803506Y-4522D01*
X803529Y-4600D01*
X803547Y-4683D01*
X803566Y-4776D01*
X803580Y-4873D01*
X803584Y-4974D01*
X803589Y-5081D01*
Y-5085D01*
Y-5104D01*
Y-5136D01*
X803584Y-5178D01*
X803580Y-5229D01*
X803575Y-5284D01*
X803570Y-5349D01*
X803561Y-5423D01*
X803547Y-5496D01*
X803533Y-5580D01*
X803492Y-5746D01*
X803464Y-5834D01*
X803432Y-5922D01*
X803395Y-6005D01*
X803353Y-6088D01*
X803349Y-6092D01*
X803344Y-6106D01*
X803330Y-6129D01*
X803312Y-6157D01*
X803289Y-6194D01*
X803256Y-6236D01*
X803224Y-6277D01*
X803187Y-6328D01*
X803095Y-6430D01*
X802988Y-6531D01*
X802864Y-6628D01*
X802799Y-6674D01*
X802725Y-6712D01*
X802720D01*
X802707Y-6721D01*
X802683Y-6730D01*
X802656Y-6744D01*
X802614Y-6758D01*
X802568Y-6771D01*
X802508Y-6790D01*
X802448Y-6808D01*
X802374Y-6827D01*
X802291Y-6845D01*
X802203Y-6859D01*
X802110Y-6873D01*
X802004Y-6887D01*
X801893Y-6896D01*
X801778Y-6901D01*
X801653Y-6905D01*
X799685D01*
Y-595D01*
X801676D01*
X801718Y-599D01*
D02*
G37*
G36*
X831327Y-2336D02*
X831970D01*
Y-2937D01*
X831327D01*
Y-5612D01*
Y-5616D01*
Y-5626D01*
Y-5649D01*
Y-5672D01*
Y-5700D01*
X831332Y-5732D01*
X831337Y-5811D01*
X831341Y-5889D01*
X831351Y-5968D01*
X831364Y-6037D01*
X831374Y-6065D01*
X831383Y-6088D01*
X831388Y-6092D01*
X831397Y-6111D01*
X831420Y-6134D01*
X831452Y-6162D01*
X831494Y-6194D01*
X831545Y-6217D01*
X831609Y-6236D01*
X831688Y-6240D01*
X831729D01*
X831762Y-6236D01*
X831803D01*
X831849Y-6226D01*
X831909Y-6222D01*
X831970Y-6213D01*
X832057Y-6896D01*
X832053D01*
X832043Y-6901D01*
X832030D01*
X832011Y-6905D01*
X831965Y-6919D01*
X831900Y-6929D01*
X831826Y-6943D01*
X831748Y-6956D01*
X831665Y-6961D01*
X831581Y-6966D01*
X831526D01*
X831498Y-6961D01*
X831466Y-6956D01*
X831392Y-6947D01*
X831304Y-6933D01*
X831217Y-6910D01*
X831129Y-6878D01*
X831046Y-6836D01*
X831036Y-6832D01*
X831013Y-6813D01*
X830976Y-6785D01*
X830935Y-6744D01*
X830888Y-6693D01*
X830842Y-6633D01*
X830801Y-6559D01*
X830768Y-6481D01*
Y-6476D01*
X830764Y-6471D01*
Y-6453D01*
X830759Y-6434D01*
X830750Y-6407D01*
X830745Y-6370D01*
X830741Y-6328D01*
X830731Y-6282D01*
X830727Y-6222D01*
X830718Y-6157D01*
X830713Y-6083D01*
X830708Y-6000D01*
X830704Y-5908D01*
X830699Y-5806D01*
X830694Y-5690D01*
Y-5570D01*
Y-2937D01*
X830228D01*
Y-2336D01*
X830694D01*
Y-1204D01*
X831327Y-738D01*
Y-2336D01*
D02*
G37*
G36*
X841408Y-2239D02*
X841459Y-2244D01*
X841524Y-2253D01*
X841593Y-2267D01*
X841676Y-2286D01*
X841764Y-2313D01*
X841856Y-2346D01*
X841953Y-2382D01*
X842055Y-2433D01*
X842157Y-2493D01*
X842258Y-2563D01*
X842360Y-2646D01*
X842457Y-2743D01*
X842549Y-2849D01*
X842554Y-2858D01*
X842572Y-2877D01*
X842596Y-2914D01*
X842623Y-2965D01*
X842660Y-3025D01*
X842702Y-3103D01*
X842748Y-3196D01*
X842794Y-3297D01*
X842836Y-3417D01*
X842882Y-3547D01*
X842924Y-3695D01*
X842961Y-3852D01*
X842988Y-4023D01*
X843016Y-4207D01*
X843030Y-4406D01*
X843034Y-4619D01*
Y-4822D01*
X840239D01*
Y-4831D01*
X840244Y-4854D01*
Y-4896D01*
X840249Y-4947D01*
X840258Y-5011D01*
X840267Y-5085D01*
X840281Y-5168D01*
X840300Y-5256D01*
X840341Y-5446D01*
X840369Y-5543D01*
X840401Y-5640D01*
X840443Y-5732D01*
X840484Y-5824D01*
X840535Y-5908D01*
X840590Y-5986D01*
X840595Y-5991D01*
X840604Y-6005D01*
X840623Y-6023D01*
X840646Y-6046D01*
X840678Y-6074D01*
X840715Y-6111D01*
X840757Y-6143D01*
X840808Y-6180D01*
X840863Y-6217D01*
X840919Y-6250D01*
X840983Y-6282D01*
X841053Y-6314D01*
X841126Y-6337D01*
X841200Y-6356D01*
X841284Y-6370D01*
X841367Y-6374D01*
X841399D01*
X841436Y-6370D01*
X841482Y-6360D01*
X841542Y-6346D01*
X841607Y-6323D01*
X841681Y-6296D01*
X841759Y-6259D01*
X841838Y-6208D01*
X841921Y-6143D01*
X842004Y-6069D01*
X842087Y-5977D01*
X842166Y-5871D01*
X842203Y-5811D01*
X842235Y-5746D01*
X842272Y-5677D01*
X842305Y-5603D01*
X842332Y-5520D01*
X842360Y-5436D01*
X843016Y-5533D01*
Y-5543D01*
X843007Y-5566D01*
X842997Y-5603D01*
X842984Y-5654D01*
X842965Y-5714D01*
X842942Y-5787D01*
X842914Y-5861D01*
X842877Y-5949D01*
X842840Y-6037D01*
X842799Y-6125D01*
X842748Y-6217D01*
X842693Y-6310D01*
X842633Y-6402D01*
X842568Y-6485D01*
X842499Y-6568D01*
X842420Y-6642D01*
X842415Y-6647D01*
X842402Y-6656D01*
X842379Y-6674D01*
X842346Y-6698D01*
X842305Y-6730D01*
X842254Y-6758D01*
X842194Y-6795D01*
X842129Y-6827D01*
X842055Y-6859D01*
X841977Y-6896D01*
X841889Y-6924D01*
X841796Y-6952D01*
X841695Y-6979D01*
X841588Y-6998D01*
X841478Y-7007D01*
X841362Y-7012D01*
X841325D01*
X841284Y-7007D01*
X841228Y-7002D01*
X841163Y-6993D01*
X841085Y-6979D01*
X840997Y-6961D01*
X840905Y-6938D01*
X840803Y-6905D01*
X840697Y-6864D01*
X840590Y-6818D01*
X840484Y-6758D01*
X840378Y-6688D01*
X840272Y-6610D01*
X840170Y-6517D01*
X840073Y-6411D01*
X840069Y-6402D01*
X840050Y-6383D01*
X840027Y-6346D01*
X839995Y-6300D01*
X839958Y-6236D01*
X839916Y-6157D01*
X839874Y-6069D01*
X839828Y-5968D01*
X839782Y-5847D01*
X839740Y-5718D01*
X839699Y-5575D01*
X839662Y-5418D01*
X839630Y-5252D01*
X839606Y-5067D01*
X839588Y-4873D01*
X839583Y-4665D01*
Y-4660D01*
Y-4651D01*
Y-4637D01*
Y-4614D01*
Y-4586D01*
X839588Y-4549D01*
Y-4512D01*
X839593Y-4471D01*
X839597Y-4369D01*
X839611Y-4258D01*
X839625Y-4134D01*
X839643Y-3995D01*
X839671Y-3852D01*
X839703Y-3704D01*
X839745Y-3551D01*
X839791Y-3404D01*
X839847Y-3256D01*
X839916Y-3117D01*
X839990Y-2983D01*
X840078Y-2858D01*
X840082Y-2849D01*
X840101Y-2831D01*
X840129Y-2803D01*
X840166Y-2761D01*
X840216Y-2715D01*
X840276Y-2660D01*
X840346Y-2604D01*
X840424Y-2544D01*
X840507Y-2489D01*
X840604Y-2433D01*
X840711Y-2378D01*
X840821Y-2332D01*
X840942Y-2290D01*
X841066Y-2262D01*
X841200Y-2239D01*
X841339Y-2235D01*
X841371D01*
X841408Y-2239D01*
D02*
G37*
G36*
X823349Y-488D02*
X823400D01*
X823460Y-498D01*
X823529Y-502D01*
X823607Y-516D01*
X823695Y-530D01*
X823792Y-553D01*
X823889Y-576D01*
X823991Y-609D01*
X824097Y-645D01*
X824208Y-692D01*
X824314Y-742D01*
X824425Y-802D01*
X824531Y-872D01*
X824536Y-876D01*
X824555Y-890D01*
X824587Y-913D01*
X824624Y-946D01*
X824670Y-983D01*
X824725Y-1034D01*
X824790Y-1094D01*
X824855Y-1158D01*
X824924Y-1232D01*
X824998Y-1315D01*
X825072Y-1408D01*
X825146Y-1509D01*
X825220Y-1620D01*
X825289Y-1740D01*
X825358Y-1865D01*
X825423Y-1999D01*
X825428Y-2008D01*
X825437Y-2031D01*
X825455Y-2073D01*
X825474Y-2128D01*
X825502Y-2202D01*
X825529Y-2286D01*
X825557Y-2382D01*
X825589Y-2493D01*
X825622Y-2618D01*
X825649Y-2752D01*
X825677Y-2895D01*
X825705Y-3052D01*
X825723Y-3214D01*
X825742Y-3385D01*
X825751Y-3565D01*
X825756Y-3755D01*
Y-3759D01*
Y-3768D01*
Y-3792D01*
Y-3815D01*
Y-3852D01*
X825751Y-3889D01*
Y-3935D01*
X825747Y-3986D01*
X825742Y-4046D01*
X825737Y-4106D01*
X825728Y-4175D01*
X825723Y-4244D01*
X825700Y-4402D01*
X825677Y-4568D01*
X825640Y-4743D01*
X825599Y-4928D01*
X825548Y-5122D01*
X825488Y-5312D01*
X825414Y-5501D01*
X825331Y-5690D01*
X825229Y-5871D01*
X825118Y-6042D01*
Y-6046D01*
X825109Y-6051D01*
X825100Y-6065D01*
X825086Y-6083D01*
X825044Y-6129D01*
X824989Y-6194D01*
X824920Y-6268D01*
X824836Y-6346D01*
X824739Y-6434D01*
X824624Y-6527D01*
X824499Y-6619D01*
X824360Y-6707D01*
X824208Y-6785D01*
X824046Y-6859D01*
X823871Y-6924D01*
X823686Y-6970D01*
X823589Y-6989D01*
X823487Y-7002D01*
X823386Y-7007D01*
X823279Y-7012D01*
X823229D01*
X823201Y-7007D01*
X823168D01*
X823131Y-7002D01*
X823090Y-6998D01*
X822993Y-6979D01*
X822882Y-6961D01*
X822757Y-6929D01*
X822619Y-6887D01*
X822476Y-6836D01*
X822328Y-6767D01*
X822171Y-6688D01*
X822018Y-6591D01*
X821940Y-6536D01*
X821866Y-6476D01*
X821792Y-6411D01*
X821718Y-6342D01*
X821644Y-6268D01*
X821570Y-6189D01*
X821501Y-6106D01*
X821436Y-6014D01*
Y-6009D01*
X821431Y-6005D01*
X821422Y-5991D01*
X821408Y-5972D01*
X821394Y-5949D01*
X821376Y-5922D01*
X821358Y-5889D01*
X821339Y-5852D01*
X821288Y-5764D01*
X821237Y-5663D01*
X821182Y-5538D01*
X821122Y-5404D01*
X821062Y-5252D01*
X821006Y-5085D01*
X820955Y-4905D01*
X820905Y-4716D01*
X820868Y-4508D01*
X820835Y-4295D01*
X820817Y-4069D01*
X820808Y-3833D01*
Y-3829D01*
Y-3815D01*
Y-3792D01*
Y-3764D01*
X820812Y-3722D01*
Y-3681D01*
X820817Y-3625D01*
Y-3565D01*
X820821Y-3501D01*
X820831Y-3431D01*
X820835Y-3357D01*
X820845Y-3279D01*
X820868Y-3103D01*
X820895Y-2918D01*
X820932Y-2720D01*
X820979Y-2517D01*
X821039Y-2313D01*
X821108Y-2105D01*
X821187Y-1902D01*
X821284Y-1708D01*
X821390Y-1523D01*
X821515Y-1352D01*
Y-1348D01*
X821524Y-1343D01*
X821547Y-1315D01*
X821589Y-1274D01*
X821644Y-1218D01*
X821713Y-1149D01*
X821796Y-1075D01*
X821893Y-1001D01*
X822004Y-918D01*
X822124Y-835D01*
X822258Y-756D01*
X822406Y-687D01*
X822563Y-618D01*
X822730Y-562D01*
X822905Y-521D01*
X823090Y-493D01*
X823187Y-488D01*
X823284Y-484D01*
X823316D01*
X823349Y-488D01*
D02*
G37*
G36*
X806024Y-2239D02*
X806075Y-2244D01*
X806139Y-2253D01*
X806213Y-2267D01*
X806296Y-2286D01*
X806389Y-2309D01*
X806486Y-2341D01*
X806583Y-2382D01*
X806689Y-2433D01*
X806795Y-2489D01*
X806901Y-2558D01*
X807003Y-2641D01*
X807105Y-2734D01*
X807202Y-2840D01*
X807206Y-2844D01*
X807225Y-2868D01*
X807248Y-2905D01*
X807280Y-2951D01*
X807317Y-3015D01*
X807364Y-3089D01*
X807405Y-3177D01*
X807456Y-3283D01*
X807502Y-3399D01*
X807548Y-3528D01*
X807590Y-3672D01*
X807627Y-3824D01*
X807659Y-3995D01*
X807682Y-4175D01*
X807701Y-4369D01*
X807705Y-4577D01*
Y-4582D01*
Y-4591D01*
Y-4609D01*
Y-4632D01*
Y-4660D01*
X807701Y-4693D01*
Y-4734D01*
X807696Y-4780D01*
X807691Y-4882D01*
X807678Y-4997D01*
X807664Y-5127D01*
X807645Y-5270D01*
X807618Y-5418D01*
X807585Y-5566D01*
X807544Y-5718D01*
X807493Y-5871D01*
X807437Y-6019D01*
X807373Y-6162D01*
X807294Y-6291D01*
X807206Y-6411D01*
X807202Y-6416D01*
X807183Y-6439D01*
X807156Y-6467D01*
X807119Y-6504D01*
X807068Y-6550D01*
X807008Y-6601D01*
X806943Y-6656D01*
X806864Y-6712D01*
X806777Y-6767D01*
X806684Y-6822D01*
X806578Y-6873D01*
X806467Y-6919D01*
X806347Y-6956D01*
X806222Y-6984D01*
X806088Y-7007D01*
X805950Y-7012D01*
X805917D01*
X805876Y-7007D01*
X805825Y-7002D01*
X805760Y-6993D01*
X805686Y-6979D01*
X805603Y-6961D01*
X805511Y-6938D01*
X805414Y-6905D01*
X805312Y-6864D01*
X805206Y-6818D01*
X805104Y-6758D01*
X804998Y-6688D01*
X804892Y-6610D01*
X804790Y-6517D01*
X804693Y-6411D01*
X804688Y-6402D01*
X804670Y-6383D01*
X804647Y-6346D01*
X804615Y-6296D01*
X804578Y-6236D01*
X804536Y-6157D01*
X804490Y-6065D01*
X804444Y-5958D01*
X804397Y-5843D01*
X804351Y-5709D01*
X804310Y-5561D01*
X804273Y-5399D01*
X804240Y-5229D01*
X804217Y-5039D01*
X804199Y-4840D01*
X804194Y-4623D01*
Y-4619D01*
Y-4609D01*
Y-4595D01*
Y-4572D01*
Y-4545D01*
X804199Y-4508D01*
Y-4471D01*
X804203Y-4429D01*
X804208Y-4332D01*
X804222Y-4217D01*
X804236Y-4092D01*
X804254Y-3958D01*
X804282Y-3815D01*
X804314Y-3667D01*
X804356Y-3519D01*
X804402Y-3371D01*
X804457Y-3228D01*
X804527Y-3089D01*
X804601Y-2960D01*
X804688Y-2840D01*
X804693Y-2831D01*
X804712Y-2812D01*
X804739Y-2785D01*
X804776Y-2743D01*
X804827Y-2701D01*
X804887Y-2651D01*
X804957Y-2595D01*
X805035Y-2535D01*
X805118Y-2480D01*
X805215Y-2424D01*
X805321Y-2373D01*
X805432Y-2327D01*
X805552Y-2290D01*
X805677Y-2262D01*
X805811Y-2239D01*
X805950Y-2235D01*
X805982D01*
X806024Y-2239D01*
D02*
G37*
G36*
X814312Y-11486D02*
X813679D01*
Y-10595D01*
X814312D01*
Y-11486D01*
D02*
G37*
G36*
X865312Y-10488D02*
X865358D01*
X865418Y-10493D01*
X865483Y-10502D01*
X865552Y-10511D01*
X865626Y-10521D01*
X865709Y-10535D01*
X865876Y-10571D01*
X866042Y-10627D01*
X866125Y-10659D01*
X866208Y-10696D01*
X866213Y-10701D01*
X866227Y-10706D01*
X866250Y-10719D01*
X866278Y-10733D01*
X866315Y-10756D01*
X866356Y-10784D01*
X866403Y-10816D01*
X866458Y-10849D01*
X866569Y-10937D01*
X866684Y-11038D01*
X866800Y-11158D01*
X866911Y-11297D01*
X866915Y-11301D01*
X866924Y-11315D01*
X866938Y-11338D01*
X866957Y-11366D01*
X866980Y-11408D01*
X867008Y-11454D01*
X867035Y-11509D01*
X867068Y-11574D01*
X867100Y-11643D01*
X867132Y-11722D01*
X867169Y-11810D01*
X867202Y-11907D01*
X867239Y-12008D01*
X867271Y-12115D01*
X867299Y-12230D01*
X867327Y-12355D01*
X866712Y-12563D01*
Y-12558D01*
X866707Y-12540D01*
X866698Y-12512D01*
X866689Y-12475D01*
X866680Y-12433D01*
X866661Y-12382D01*
X866647Y-12323D01*
X866624Y-12262D01*
X866583Y-12133D01*
X866527Y-12004D01*
X866467Y-11879D01*
X866435Y-11819D01*
X866398Y-11768D01*
Y-11763D01*
X866389Y-11754D01*
X866379Y-11740D01*
X866366Y-11727D01*
X866319Y-11676D01*
X866264Y-11616D01*
X866190Y-11551D01*
X866107Y-11482D01*
X866005Y-11412D01*
X865894Y-11352D01*
X865890D01*
X865880Y-11348D01*
X865862Y-11338D01*
X865839Y-11329D01*
X865811Y-11315D01*
X865774Y-11306D01*
X865737Y-11292D01*
X865691Y-11274D01*
X865589Y-11246D01*
X865469Y-11223D01*
X865340Y-11204D01*
X865201Y-11200D01*
X865146D01*
X865109Y-11204D01*
X865058Y-11209D01*
X865003Y-11214D01*
X864938Y-11223D01*
X864869Y-11232D01*
X864795Y-11251D01*
X864716Y-11269D01*
X864638Y-11288D01*
X864555Y-11315D01*
X864471Y-11348D01*
X864388Y-11385D01*
X864310Y-11426D01*
X864231Y-11477D01*
X864226Y-11482D01*
X864213Y-11491D01*
X864194Y-11505D01*
X864162Y-11528D01*
X864129Y-11556D01*
X864088Y-11592D01*
X864046Y-11634D01*
X863995Y-11685D01*
X863945Y-11740D01*
X863894Y-11805D01*
X863838Y-11874D01*
X863783Y-11948D01*
X863727Y-12036D01*
X863677Y-12124D01*
X863626Y-12221D01*
X863575Y-12327D01*
X863570Y-12332D01*
X863566Y-12355D01*
X863552Y-12387D01*
X863538Y-12429D01*
X863520Y-12484D01*
X863496Y-12553D01*
X863473Y-12632D01*
X863455Y-12720D01*
X863432Y-12817D01*
X863409Y-12923D01*
X863386Y-13039D01*
X863367Y-13163D01*
X863353Y-13293D01*
X863339Y-13436D01*
X863335Y-13579D01*
X863330Y-13732D01*
Y-13736D01*
Y-13745D01*
Y-13764D01*
Y-13787D01*
Y-13815D01*
X863335Y-13852D01*
Y-13893D01*
X863339Y-13939D01*
X863344Y-13990D01*
X863349Y-14046D01*
X863358Y-14166D01*
X863376Y-14300D01*
X863395Y-14443D01*
X863423Y-14595D01*
X863459Y-14753D01*
X863501Y-14910D01*
X863552Y-15067D01*
X863612Y-15219D01*
X863681Y-15367D01*
X863764Y-15506D01*
X863857Y-15630D01*
X863861Y-15635D01*
X863880Y-15658D01*
X863912Y-15690D01*
X863954Y-15727D01*
X864005Y-15778D01*
X864069Y-15829D01*
X864143Y-15885D01*
X864226Y-15945D01*
X864324Y-16005D01*
X864425Y-16060D01*
X864541Y-16111D01*
X864661Y-16162D01*
X864795Y-16199D01*
X864933Y-16231D01*
X865081Y-16250D01*
X865234Y-16259D01*
X865275D01*
X865303Y-16254D01*
X865340D01*
X865386Y-16250D01*
X865432Y-16245D01*
X865488Y-16236D01*
X865548Y-16226D01*
X865612Y-16213D01*
X865756Y-16180D01*
X865903Y-16134D01*
X866061Y-16069D01*
X866065Y-16065D01*
X866079Y-16060D01*
X866102Y-16051D01*
X866130Y-16032D01*
X866167Y-16014D01*
X866208Y-15995D01*
X866255Y-15968D01*
X866305Y-15940D01*
X866412Y-15871D01*
X866527Y-15792D01*
X866638Y-15704D01*
X866740Y-15607D01*
Y-14429D01*
X865220D01*
Y-13685D01*
X867410Y-13681D01*
Y-16028D01*
X867405Y-16032D01*
X867387Y-16051D01*
X867359Y-16074D01*
X867322Y-16106D01*
X867276Y-16148D01*
X867220Y-16194D01*
X867160Y-16250D01*
X867091Y-16305D01*
X867017Y-16360D01*
X866934Y-16425D01*
X866846Y-16485D01*
X866758Y-16545D01*
X866564Y-16665D01*
X866467Y-16716D01*
X866366Y-16767D01*
X866361Y-16771D01*
X866342Y-16776D01*
X866315Y-16790D01*
X866273Y-16804D01*
X866222Y-16822D01*
X866167Y-16845D01*
X866102Y-16869D01*
X866028Y-16887D01*
X865945Y-16910D01*
X865862Y-16933D01*
X865769Y-16956D01*
X865672Y-16975D01*
X865474Y-17003D01*
X865368Y-17007D01*
X865261Y-17012D01*
X865229D01*
X865187Y-17007D01*
X865132D01*
X865067Y-16998D01*
X864989Y-16993D01*
X864906Y-16979D01*
X864809Y-16966D01*
X864707Y-16942D01*
X864596Y-16919D01*
X864485Y-16887D01*
X864370Y-16850D01*
X864254Y-16808D01*
X864139Y-16758D01*
X864023Y-16698D01*
X863908Y-16633D01*
X863903Y-16628D01*
X863880Y-16614D01*
X863852Y-16591D01*
X863811Y-16564D01*
X863760Y-16522D01*
X863704Y-16476D01*
X863640Y-16416D01*
X863570Y-16351D01*
X863496Y-16277D01*
X863418Y-16199D01*
X863339Y-16106D01*
X863261Y-16009D01*
X863187Y-15898D01*
X863108Y-15783D01*
X863039Y-15663D01*
X862970Y-15529D01*
X862965Y-15519D01*
X862956Y-15496D01*
X862938Y-15455D01*
X862914Y-15399D01*
X862891Y-15330D01*
X862859Y-15242D01*
X862831Y-15145D01*
X862799Y-15034D01*
X862766Y-14914D01*
X862734Y-14780D01*
X862702Y-14637D01*
X862679Y-14485D01*
X862656Y-14323D01*
X862637Y-14147D01*
X862628Y-13967D01*
X862623Y-13782D01*
Y-13778D01*
Y-13769D01*
Y-13755D01*
Y-13736D01*
Y-13713D01*
X862628Y-13681D01*
Y-13648D01*
Y-13607D01*
X862632Y-13519D01*
X862642Y-13413D01*
X862651Y-13297D01*
X862665Y-13168D01*
X862683Y-13034D01*
X862706Y-12886D01*
X862734Y-12738D01*
X862771Y-12586D01*
X862808Y-12433D01*
X862854Y-12276D01*
X862910Y-12128D01*
X862970Y-11981D01*
X862974Y-11971D01*
X862984Y-11948D01*
X863007Y-11907D01*
X863035Y-11856D01*
X863067Y-11791D01*
X863108Y-11717D01*
X863159Y-11639D01*
X863215Y-11551D01*
X863275Y-11458D01*
X863344Y-11366D01*
X863418Y-11274D01*
X863501Y-11181D01*
X863589Y-11089D01*
X863681Y-11001D01*
X863778Y-10923D01*
X863880Y-10849D01*
X863885Y-10844D01*
X863908Y-10835D01*
X863935Y-10816D01*
X863982Y-10793D01*
X864032Y-10766D01*
X864097Y-10733D01*
X864176Y-10701D01*
X864259Y-10664D01*
X864351Y-10632D01*
X864453Y-10599D01*
X864564Y-10567D01*
X864679Y-10539D01*
X864804Y-10516D01*
X864938Y-10498D01*
X865072Y-10488D01*
X865215Y-10484D01*
X865271D01*
X865312Y-10488D01*
D02*
G37*
G36*
X846463Y-12239D02*
X846490Y-12244D01*
X846527Y-12248D01*
X846564Y-12253D01*
X846610Y-12267D01*
X846707Y-12295D01*
X846818Y-12341D01*
X846874Y-12369D01*
X846934Y-12401D01*
X846999Y-12438D01*
X847058Y-12484D01*
X846841Y-13205D01*
X846837D01*
X846832Y-13196D01*
X846818Y-13191D01*
X846800Y-13177D01*
X846754Y-13149D01*
X846694Y-13117D01*
X846624Y-13089D01*
X846546Y-13062D01*
X846463Y-13043D01*
X846379Y-13034D01*
X846347D01*
X846305Y-13043D01*
X846255Y-13052D01*
X846199Y-13071D01*
X846134Y-13094D01*
X846070Y-13131D01*
X846005Y-13177D01*
X845996Y-13182D01*
X845977Y-13205D01*
X845950Y-13237D01*
X845913Y-13279D01*
X845876Y-13339D01*
X845839Y-13404D01*
X845802Y-13482D01*
X845774Y-13575D01*
Y-13579D01*
X845770Y-13593D01*
X845765Y-13621D01*
X845756Y-13653D01*
X845746Y-13695D01*
X845737Y-13741D01*
X845723Y-13796D01*
X845714Y-13856D01*
X845705Y-13926D01*
X845691Y-13999D01*
X845682Y-14078D01*
X845673Y-14161D01*
X845659Y-14332D01*
X845654Y-14517D01*
Y-16905D01*
X845021D01*
Y-12336D01*
X845594D01*
Y-13034D01*
X845599Y-13029D01*
X845603Y-13011D01*
X845617Y-12988D01*
X845631Y-12955D01*
X845649Y-12918D01*
X845673Y-12872D01*
X845723Y-12771D01*
X845788Y-12664D01*
X845853Y-12558D01*
X845890Y-12507D01*
X845922Y-12466D01*
X845959Y-12424D01*
X845991Y-12392D01*
X846000Y-12387D01*
X846024Y-12369D01*
X846061Y-12341D01*
X846111Y-12313D01*
X846176Y-12286D01*
X846245Y-12258D01*
X846324Y-12239D01*
X846407Y-12235D01*
X846439D01*
X846463Y-12239D01*
D02*
G37*
G36*
X828782D02*
X828810Y-12244D01*
X828846Y-12248D01*
X828883Y-12253D01*
X828930Y-12267D01*
X829027Y-12295D01*
X829138Y-12341D01*
X829193Y-12369D01*
X829253Y-12401D01*
X829318Y-12438D01*
X829378Y-12484D01*
X829161Y-13205D01*
X829156D01*
X829151Y-13196D01*
X829138Y-13191D01*
X829119Y-13177D01*
X829073Y-13149D01*
X829013Y-13117D01*
X828944Y-13089D01*
X828865Y-13062D01*
X828782Y-13043D01*
X828699Y-13034D01*
X828666D01*
X828625Y-13043D01*
X828574Y-13052D01*
X828518Y-13071D01*
X828454Y-13094D01*
X828389Y-13131D01*
X828324Y-13177D01*
X828315Y-13182D01*
X828297Y-13205D01*
X828269Y-13237D01*
X828232Y-13279D01*
X828195Y-13339D01*
X828158Y-13404D01*
X828121Y-13482D01*
X828093Y-13575D01*
Y-13579D01*
X828089Y-13593D01*
X828084Y-13621D01*
X828075Y-13653D01*
X828066Y-13695D01*
X828057Y-13741D01*
X828043Y-13796D01*
X828033Y-13856D01*
X828024Y-13926D01*
X828010Y-13999D01*
X828001Y-14078D01*
X827992Y-14161D01*
X827978Y-14332D01*
X827973Y-14517D01*
Y-16905D01*
X827340D01*
Y-12336D01*
X827913D01*
Y-13034D01*
X827918Y-13029D01*
X827923Y-13011D01*
X827936Y-12988D01*
X827950Y-12955D01*
X827969Y-12919D01*
X827992Y-12872D01*
X828043Y-12771D01*
X828107Y-12664D01*
X828172Y-12558D01*
X828209Y-12507D01*
X828241Y-12466D01*
X828278Y-12424D01*
X828311Y-12392D01*
X828320Y-12387D01*
X828343Y-12369D01*
X828380Y-12341D01*
X828431Y-12313D01*
X828495Y-12286D01*
X828565Y-12258D01*
X828643Y-12239D01*
X828726Y-12235D01*
X828759D01*
X828782Y-12239D01*
D02*
G37*
G36*
X853577Y-16905D02*
X852894D01*
Y-13930D01*
X850205D01*
Y-16905D01*
X849521D01*
Y-10595D01*
X850205D01*
Y-13186D01*
X852894D01*
Y-10595D01*
X853577D01*
Y-16905D01*
D02*
G37*
G36*
X835384Y-12239D02*
X835435Y-12244D01*
X835490Y-12253D01*
X835555Y-12267D01*
X835629Y-12281D01*
X835703Y-12299D01*
X835781Y-12323D01*
X835864Y-12355D01*
X835947Y-12387D01*
X836031Y-12429D01*
X836109Y-12479D01*
X836188Y-12535D01*
X836266Y-12600D01*
X836271Y-12604D01*
X836285Y-12618D01*
X836303Y-12637D01*
X836331Y-12669D01*
X836363Y-12706D01*
X836400Y-12752D01*
X836437Y-12808D01*
X836479Y-12868D01*
X836525Y-12942D01*
X836567Y-13020D01*
X836608Y-13113D01*
X836650Y-13209D01*
X836691Y-13311D01*
X836724Y-13427D01*
X836756Y-13551D01*
X836779Y-13681D01*
X836165Y-13792D01*
Y-13787D01*
X836160Y-13773D01*
X836155Y-13750D01*
X836146Y-13718D01*
X836137Y-13676D01*
X836123Y-13634D01*
X836109Y-13588D01*
X836091Y-13533D01*
X836044Y-13422D01*
X835989Y-13307D01*
X835924Y-13200D01*
X835887Y-13149D01*
X835846Y-13103D01*
X835841Y-13099D01*
X835837Y-13094D01*
X835823Y-13080D01*
X835804Y-13066D01*
X835758Y-13029D01*
X835698Y-12988D01*
X835619Y-12946D01*
X835527Y-12909D01*
X835425Y-12881D01*
X835370Y-12877D01*
X835310Y-12872D01*
X835291D01*
X835264Y-12877D01*
X835231D01*
X835194Y-12886D01*
X835148Y-12895D01*
X835093Y-12909D01*
X835037Y-12923D01*
X834977Y-12946D01*
X834917Y-12974D01*
X834853Y-13006D01*
X834788Y-13048D01*
X834719Y-13094D01*
X834654Y-13149D01*
X834594Y-13214D01*
X834534Y-13288D01*
X834529Y-13293D01*
X834520Y-13307D01*
X834506Y-13334D01*
X834488Y-13367D01*
X834464Y-13413D01*
X834437Y-13468D01*
X834409Y-13533D01*
X834381Y-13607D01*
X834354Y-13695D01*
X834326Y-13792D01*
X834298Y-13903D01*
X834275Y-14023D01*
X834256Y-14152D01*
X834243Y-14291D01*
X834233Y-14443D01*
X834229Y-14609D01*
Y-14614D01*
Y-14619D01*
Y-14633D01*
Y-14651D01*
Y-14697D01*
X834233Y-14762D01*
X834238Y-14840D01*
X834243Y-14928D01*
X834252Y-15025D01*
X834266Y-15127D01*
X834280Y-15238D01*
X834298Y-15349D01*
X834326Y-15459D01*
X834354Y-15570D01*
X834386Y-15681D01*
X834423Y-15783D01*
X834469Y-15875D01*
X834520Y-15958D01*
X834525Y-15963D01*
X834534Y-15977D01*
X834552Y-15995D01*
X834575Y-16023D01*
X834603Y-16055D01*
X834640Y-16088D01*
X834677Y-16129D01*
X834728Y-16166D01*
X834779Y-16203D01*
X834834Y-16240D01*
X834899Y-16277D01*
X834963Y-16309D01*
X835037Y-16337D01*
X835111Y-16356D01*
X835194Y-16370D01*
X835277Y-16374D01*
X835314D01*
X835338Y-16370D01*
X835370Y-16365D01*
X835407Y-16360D01*
X835490Y-16342D01*
X835587Y-16309D01*
X835638Y-16286D01*
X835689Y-16259D01*
X835740Y-16226D01*
X835795Y-16189D01*
X835841Y-16148D01*
X835892Y-16102D01*
X835897Y-16097D01*
X835901Y-16088D01*
X835915Y-16074D01*
X835934Y-16051D01*
X835952Y-16018D01*
X835980Y-15981D01*
X836003Y-15940D01*
X836031Y-15889D01*
X836058Y-15834D01*
X836086Y-15769D01*
X836114Y-15700D01*
X836141Y-15621D01*
X836165Y-15533D01*
X836188Y-15441D01*
X836206Y-15344D01*
X836220Y-15238D01*
X836844Y-15335D01*
Y-15344D01*
X836839Y-15372D01*
X836830Y-15413D01*
X836821Y-15469D01*
X836807Y-15538D01*
X836784Y-15617D01*
X836761Y-15704D01*
X836733Y-15797D01*
X836701Y-15898D01*
X836664Y-16000D01*
X836617Y-16102D01*
X836567Y-16208D01*
X836511Y-16309D01*
X836446Y-16407D01*
X836377Y-16499D01*
X836298Y-16582D01*
X836294Y-16587D01*
X836280Y-16601D01*
X836257Y-16624D01*
X836220Y-16647D01*
X836178Y-16684D01*
X836132Y-16716D01*
X836072Y-16758D01*
X836007Y-16795D01*
X835938Y-16836D01*
X835855Y-16878D01*
X835772Y-16910D01*
X835680Y-16942D01*
X835582Y-16970D01*
X835481Y-16993D01*
X835375Y-17007D01*
X835264Y-17012D01*
X835231D01*
X835194Y-17007D01*
X835139Y-17003D01*
X835079Y-16993D01*
X835005Y-16979D01*
X834922Y-16961D01*
X834834Y-16938D01*
X834742Y-16905D01*
X834645Y-16864D01*
X834543Y-16818D01*
X834441Y-16758D01*
X834340Y-16688D01*
X834238Y-16610D01*
X834141Y-16517D01*
X834049Y-16411D01*
X834044Y-16402D01*
X834030Y-16383D01*
X834007Y-16346D01*
X833975Y-16296D01*
X833938Y-16236D01*
X833901Y-16157D01*
X833859Y-16065D01*
X833813Y-15958D01*
X833771Y-15843D01*
X833725Y-15709D01*
X833688Y-15561D01*
X833651Y-15399D01*
X833619Y-15228D01*
X833596Y-15039D01*
X833582Y-14840D01*
X833577Y-14623D01*
Y-14619D01*
Y-14609D01*
Y-14591D01*
Y-14572D01*
Y-14545D01*
X833582Y-14508D01*
Y-14471D01*
X833587Y-14429D01*
X833591Y-14327D01*
X833601Y-14217D01*
X833619Y-14087D01*
X833637Y-13953D01*
X833661Y-13810D01*
X833693Y-13662D01*
X833734Y-13514D01*
X833776Y-13367D01*
X833832Y-13223D01*
X833896Y-13085D01*
X833970Y-12955D01*
X834053Y-12835D01*
X834058Y-12831D01*
X834076Y-12808D01*
X834104Y-12780D01*
X834141Y-12743D01*
X834187Y-12697D01*
X834247Y-12646D01*
X834312Y-12590D01*
X834386Y-12535D01*
X834474Y-12479D01*
X834566Y-12424D01*
X834668Y-12373D01*
X834779Y-12327D01*
X834894Y-12290D01*
X835019Y-12262D01*
X835148Y-12239D01*
X835287Y-12235D01*
X835342D01*
X835384Y-12239D01*
D02*
G37*
G36*
X873323Y-16905D02*
X872663D01*
Y-11625D01*
X871156Y-16905D01*
X870537D01*
X869045Y-11537D01*
Y-16905D01*
X868384D01*
Y-10595D01*
X869415D01*
X870639Y-15067D01*
X870884Y-16000D01*
Y-15995D01*
X870889Y-15981D01*
X870893Y-15963D01*
X870902Y-15935D01*
X870912Y-15898D01*
X870921Y-15852D01*
X870939Y-15801D01*
X870953Y-15741D01*
X870972Y-15672D01*
X870990Y-15598D01*
X871013Y-15515D01*
X871041Y-15427D01*
X871069Y-15326D01*
X871096Y-15219D01*
X871129Y-15108D01*
X871161Y-14988D01*
X872399Y-10595D01*
X873323D01*
Y-16905D01*
D02*
G37*
G36*
X804624Y-16905D02*
X803963D01*
Y-11625D01*
X802457Y-16905D01*
X801838D01*
X800346Y-11537D01*
Y-16905D01*
X799685D01*
Y-10595D01*
X800715D01*
X801940Y-15067D01*
X802184Y-16000D01*
Y-15995D01*
X802189Y-15981D01*
X802194Y-15963D01*
X802203Y-15935D01*
X802212Y-15898D01*
X802221Y-15852D01*
X802240Y-15801D01*
X802254Y-15741D01*
X802272Y-15672D01*
X802291Y-15598D01*
X802314Y-15515D01*
X802341Y-15427D01*
X802369Y-15326D01*
X802397Y-15219D01*
X802429Y-15108D01*
X802462Y-14988D01*
X803700Y-10595D01*
X804624D01*
Y-16905D01*
D02*
G37*
G36*
X876548Y-16905D02*
X875910D01*
Y-11971D01*
X875906Y-11976D01*
X875901Y-11981D01*
X875887Y-11999D01*
X875869Y-12017D01*
X875846Y-12041D01*
X875823Y-12068D01*
X875753Y-12133D01*
X875670Y-12216D01*
X875568Y-12304D01*
X875453Y-12401D01*
X875319Y-12503D01*
X875314Y-12507D01*
X875301Y-12517D01*
X875282Y-12530D01*
X875254Y-12544D01*
X875222Y-12567D01*
X875185Y-12595D01*
X875144Y-12623D01*
X875097Y-12655D01*
X874991Y-12720D01*
X874876Y-12785D01*
X874760Y-12849D01*
X874640Y-12905D01*
Y-12156D01*
X874644Y-12151D01*
X874663Y-12142D01*
X874691Y-12124D01*
X874728Y-12101D01*
X874774Y-12073D01*
X874825Y-12036D01*
X874885Y-11999D01*
X874949Y-11953D01*
X875023Y-11902D01*
X875097Y-11847D01*
X875250Y-11717D01*
X875407Y-11579D01*
X875564Y-11422D01*
X875568Y-11417D01*
X875582Y-11403D01*
X875601Y-11380D01*
X875629Y-11348D01*
X875666Y-11306D01*
X875702Y-11260D01*
X875744Y-11209D01*
X875786Y-11154D01*
X875832Y-11089D01*
X875883Y-11024D01*
X875975Y-10881D01*
X876063Y-10729D01*
X876100Y-10650D01*
X876132Y-10571D01*
X876548D01*
Y-16905D01*
D02*
G37*
G36*
X861602D02*
X860877D01*
Y-16023D01*
X861602D01*
Y-16905D01*
D02*
G37*
G36*
X856340Y-12239D02*
X856391D01*
X856446Y-12244D01*
X856511Y-12253D01*
X856580Y-12262D01*
X856728Y-12290D01*
X856881Y-12327D01*
X857033Y-12382D01*
X857102Y-12420D01*
X857167Y-12456D01*
X857172Y-12461D01*
X857181Y-12466D01*
X857199Y-12479D01*
X857222Y-12498D01*
X857278Y-12544D01*
X857347Y-12609D01*
X857421Y-12687D01*
X857491Y-12780D01*
X857551Y-12886D01*
X857574Y-12946D01*
X857592Y-13006D01*
Y-13011D01*
X857597Y-13020D01*
X857601Y-13039D01*
X857606Y-13066D01*
X857615Y-13103D01*
X857620Y-13145D01*
X857629Y-13191D01*
X857638Y-13247D01*
X857648Y-13311D01*
X857657Y-13385D01*
X857661Y-13464D01*
X857671Y-13547D01*
X857675Y-13639D01*
X857680Y-13741D01*
X857685Y-13847D01*
Y-13963D01*
Y-14993D01*
Y-14997D01*
Y-15007D01*
Y-15021D01*
Y-15039D01*
Y-15067D01*
Y-15094D01*
Y-15168D01*
Y-15251D01*
Y-15353D01*
X857689Y-15459D01*
Y-15570D01*
X857694Y-15806D01*
X857698Y-15917D01*
Y-16028D01*
X857703Y-16129D01*
X857708Y-16222D01*
X857717Y-16300D01*
Y-16333D01*
X857722Y-16360D01*
Y-16365D01*
Y-16374D01*
X857726Y-16388D01*
X857731Y-16407D01*
X857735Y-16434D01*
X857740Y-16462D01*
X857758Y-16536D01*
X857782Y-16619D01*
X857809Y-16707D01*
X857846Y-16808D01*
X857888Y-16905D01*
X857227D01*
Y-16901D01*
X857222Y-16896D01*
X857218Y-16882D01*
X857209Y-16864D01*
X857204Y-16841D01*
X857190Y-16813D01*
X857172Y-16748D01*
X857149Y-16665D01*
X857125Y-16573D01*
X857107Y-16467D01*
X857093Y-16346D01*
X857088Y-16351D01*
X857079Y-16360D01*
X857061Y-16379D01*
X857038Y-16402D01*
X857010Y-16430D01*
X856973Y-16462D01*
X856936Y-16494D01*
X856890Y-16531D01*
X856793Y-16614D01*
X856677Y-16698D01*
X856557Y-16776D01*
X856428Y-16845D01*
X856423D01*
X856414Y-16855D01*
X856396Y-16859D01*
X856368Y-16873D01*
X856336Y-16882D01*
X856299Y-16896D01*
X856257Y-16915D01*
X856211Y-16929D01*
X856100Y-16961D01*
X855980Y-16984D01*
X855850Y-17003D01*
X855712Y-17012D01*
X855684D01*
X855656Y-17007D01*
X855615D01*
X855564Y-17003D01*
X855509Y-16993D01*
X855444Y-16984D01*
X855375Y-16966D01*
X855301Y-16947D01*
X855227Y-16924D01*
X855148Y-16896D01*
X855070Y-16864D01*
X854996Y-16822D01*
X854917Y-16776D01*
X854848Y-16721D01*
X854778Y-16661D01*
X854774Y-16656D01*
X854765Y-16642D01*
X854746Y-16624D01*
X854723Y-16596D01*
X854700Y-16559D01*
X854668Y-16517D01*
X854640Y-16467D01*
X854608Y-16411D01*
X854575Y-16346D01*
X854543Y-16273D01*
X854511Y-16194D01*
X854488Y-16111D01*
X854464Y-16018D01*
X854446Y-15921D01*
X854437Y-15820D01*
X854432Y-15709D01*
Y-15704D01*
Y-15690D01*
Y-15672D01*
X854437Y-15640D01*
Y-15607D01*
X854441Y-15566D01*
X854446Y-15519D01*
X854451Y-15473D01*
X854474Y-15362D01*
X854501Y-15247D01*
X854538Y-15122D01*
X854594Y-15007D01*
Y-15002D01*
X854603Y-14993D01*
X854612Y-14979D01*
X854622Y-14956D01*
X854658Y-14900D01*
X854709Y-14831D01*
X854774Y-14757D01*
X854848Y-14679D01*
X854936Y-14600D01*
X855037Y-14531D01*
X855042D01*
X855051Y-14522D01*
X855070Y-14512D01*
X855093Y-14503D01*
X855120Y-14489D01*
X855157Y-14471D01*
X855204Y-14452D01*
X855254Y-14434D01*
X855310Y-14411D01*
X855375Y-14392D01*
X855444Y-14369D01*
X855522Y-14346D01*
X855606Y-14327D01*
X855698Y-14309D01*
X855795Y-14291D01*
X855901Y-14272D01*
X855910D01*
X855933Y-14267D01*
X855975Y-14263D01*
X856031Y-14254D01*
X856091Y-14240D01*
X856164Y-14231D01*
X856248Y-14212D01*
X856336Y-14198D01*
X856520Y-14157D01*
X856710Y-14110D01*
X856802Y-14087D01*
X856890Y-14060D01*
X856968Y-14032D01*
X857042Y-14004D01*
X857047Y-13810D01*
Y-13805D01*
Y-13792D01*
Y-13764D01*
X857042Y-13732D01*
Y-13695D01*
X857038Y-13653D01*
X857024Y-13551D01*
X857005Y-13441D01*
X856973Y-13334D01*
X856931Y-13233D01*
X856908Y-13186D01*
X856876Y-13149D01*
X856871Y-13145D01*
X856867Y-13136D01*
X856853Y-13122D01*
X856830Y-13108D01*
X856807Y-13085D01*
X856774Y-13062D01*
X856737Y-13039D01*
X856696Y-13011D01*
X856650Y-12983D01*
X856594Y-12960D01*
X856534Y-12937D01*
X856470Y-12914D01*
X856396Y-12900D01*
X856322Y-12886D01*
X856234Y-12877D01*
X856146Y-12872D01*
X856104D01*
X856072Y-12877D01*
X856035D01*
X855994Y-12881D01*
X855897Y-12895D01*
X855790Y-12918D01*
X855679Y-12951D01*
X855573Y-12997D01*
X855527Y-13025D01*
X855481Y-13057D01*
X855476D01*
X855472Y-13066D01*
X855462Y-13076D01*
X855444Y-13094D01*
X855425Y-13117D01*
X855407Y-13140D01*
X855384Y-13172D01*
X855361Y-13214D01*
X855333Y-13256D01*
X855310Y-13307D01*
X855282Y-13362D01*
X855254Y-13427D01*
X855231Y-13496D01*
X855204Y-13570D01*
X855180Y-13653D01*
X855162Y-13745D01*
X854538Y-13644D01*
Y-13634D01*
X854543Y-13611D01*
X854552Y-13575D01*
X854566Y-13524D01*
X854580Y-13464D01*
X854603Y-13394D01*
X854626Y-13316D01*
X854654Y-13233D01*
X854686Y-13149D01*
X854728Y-13057D01*
X854769Y-12969D01*
X854820Y-12881D01*
X854876Y-12794D01*
X854936Y-12715D01*
X855000Y-12641D01*
X855074Y-12572D01*
X855079Y-12567D01*
X855093Y-12558D01*
X855116Y-12540D01*
X855153Y-12521D01*
X855194Y-12493D01*
X855245Y-12466D01*
X855305Y-12433D01*
X855375Y-12401D01*
X855453Y-12373D01*
X855541Y-12341D01*
X855638Y-12313D01*
X855739Y-12286D01*
X855855Y-12267D01*
X855975Y-12248D01*
X856104Y-12239D01*
X856243Y-12235D01*
X856299D01*
X856340Y-12239D01*
D02*
G37*
G36*
X838026Y-14203D02*
X839528Y-12336D01*
X840350D01*
X838918Y-14037D01*
X840493Y-16905D01*
X839713D01*
X838470Y-14568D01*
X838026Y-15094D01*
Y-16905D01*
X837393D01*
Y-10595D01*
X838026D01*
Y-14203D01*
D02*
G37*
G36*
X831434Y-12239D02*
X831485D01*
X831540Y-12244D01*
X831605Y-12253D01*
X831674Y-12262D01*
X831822Y-12290D01*
X831974Y-12327D01*
X832127Y-12382D01*
X832196Y-12420D01*
X832261Y-12456D01*
X832265Y-12461D01*
X832275Y-12466D01*
X832293Y-12479D01*
X832316Y-12498D01*
X832372Y-12544D01*
X832441Y-12609D01*
X832515Y-12687D01*
X832584Y-12780D01*
X832644Y-12886D01*
X832667Y-12946D01*
X832686Y-13006D01*
Y-13011D01*
X832690Y-13020D01*
X832695Y-13039D01*
X832700Y-13066D01*
X832709Y-13103D01*
X832713Y-13145D01*
X832723Y-13191D01*
X832732Y-13247D01*
X832741Y-13311D01*
X832750Y-13385D01*
X832755Y-13464D01*
X832764Y-13547D01*
X832769Y-13639D01*
X832773Y-13741D01*
X832778Y-13847D01*
Y-13963D01*
Y-14993D01*
Y-14997D01*
Y-15007D01*
Y-15021D01*
Y-15039D01*
Y-15067D01*
Y-15094D01*
Y-15168D01*
Y-15251D01*
Y-15353D01*
X832783Y-15459D01*
Y-15570D01*
X832787Y-15806D01*
X832792Y-15917D01*
Y-16028D01*
X832797Y-16129D01*
X832801Y-16222D01*
X832810Y-16300D01*
Y-16333D01*
X832815Y-16360D01*
Y-16365D01*
Y-16374D01*
X832820Y-16388D01*
X832824Y-16407D01*
X832829Y-16434D01*
X832833Y-16462D01*
X832852Y-16536D01*
X832875Y-16619D01*
X832903Y-16707D01*
X832940Y-16808D01*
X832981Y-16905D01*
X832321D01*
Y-16901D01*
X832316Y-16896D01*
X832312Y-16882D01*
X832302Y-16864D01*
X832298Y-16841D01*
X832284Y-16813D01*
X832265Y-16748D01*
X832242Y-16665D01*
X832219Y-16573D01*
X832201Y-16467D01*
X832187Y-16346D01*
X832182Y-16351D01*
X832173Y-16360D01*
X832154Y-16379D01*
X832131Y-16402D01*
X832104Y-16430D01*
X832067Y-16462D01*
X832030Y-16494D01*
X831983Y-16531D01*
X831886Y-16614D01*
X831771Y-16698D01*
X831651Y-16776D01*
X831522Y-16845D01*
X831517D01*
X831508Y-16855D01*
X831489Y-16859D01*
X831461Y-16873D01*
X831429Y-16882D01*
X831392Y-16896D01*
X831351Y-16915D01*
X831304Y-16929D01*
X831193Y-16961D01*
X831073Y-16984D01*
X830944Y-17003D01*
X830805Y-17012D01*
X830778D01*
X830750Y-17007D01*
X830708D01*
X830657Y-17003D01*
X830602Y-16993D01*
X830537Y-16984D01*
X830468Y-16966D01*
X830394Y-16947D01*
X830320Y-16924D01*
X830242Y-16896D01*
X830163Y-16864D01*
X830089Y-16822D01*
X830011Y-16776D01*
X829941Y-16721D01*
X829872Y-16661D01*
X829867Y-16656D01*
X829858Y-16642D01*
X829840Y-16624D01*
X829817Y-16596D01*
X829794Y-16559D01*
X829761Y-16517D01*
X829733Y-16467D01*
X829701Y-16411D01*
X829669Y-16346D01*
X829636Y-16273D01*
X829604Y-16194D01*
X829581Y-16111D01*
X829558Y-16018D01*
X829539Y-15921D01*
X829530Y-15820D01*
X829526Y-15709D01*
Y-15704D01*
Y-15690D01*
Y-15672D01*
X829530Y-15640D01*
Y-15607D01*
X829535Y-15566D01*
X829539Y-15519D01*
X829544Y-15473D01*
X829567Y-15362D01*
X829595Y-15247D01*
X829632Y-15122D01*
X829687Y-15007D01*
Y-15002D01*
X829697Y-14993D01*
X829706Y-14979D01*
X829715Y-14956D01*
X829752Y-14900D01*
X829803Y-14831D01*
X829867Y-14757D01*
X829941Y-14679D01*
X830029Y-14600D01*
X830131Y-14531D01*
X830136D01*
X830145Y-14522D01*
X830163Y-14512D01*
X830186Y-14503D01*
X830214Y-14489D01*
X830251Y-14471D01*
X830297Y-14452D01*
X830348Y-14434D01*
X830403Y-14411D01*
X830468Y-14392D01*
X830537Y-14369D01*
X830616Y-14346D01*
X830699Y-14327D01*
X830791Y-14309D01*
X830888Y-14291D01*
X830995Y-14272D01*
X831004D01*
X831027Y-14267D01*
X831069Y-14263D01*
X831124Y-14254D01*
X831184Y-14240D01*
X831258Y-14231D01*
X831341Y-14212D01*
X831429Y-14198D01*
X831614Y-14157D01*
X831803Y-14110D01*
X831896Y-14087D01*
X831983Y-14060D01*
X832062Y-14032D01*
X832136Y-14004D01*
X832141Y-13810D01*
Y-13805D01*
Y-13792D01*
Y-13764D01*
X832136Y-13732D01*
Y-13695D01*
X832131Y-13653D01*
X832117Y-13551D01*
X832099Y-13441D01*
X832067Y-13334D01*
X832025Y-13233D01*
X832002Y-13186D01*
X831970Y-13149D01*
X831965Y-13145D01*
X831960Y-13136D01*
X831946Y-13122D01*
X831923Y-13108D01*
X831900Y-13085D01*
X831868Y-13062D01*
X831831Y-13039D01*
X831789Y-13011D01*
X831743Y-12983D01*
X831688Y-12960D01*
X831628Y-12937D01*
X831563Y-12914D01*
X831489Y-12900D01*
X831415Y-12886D01*
X831327Y-12877D01*
X831240Y-12872D01*
X831198D01*
X831166Y-12877D01*
X831129D01*
X831087Y-12881D01*
X830990Y-12895D01*
X830884Y-12918D01*
X830773Y-12951D01*
X830667Y-12997D01*
X830621Y-13025D01*
X830574Y-13057D01*
X830570D01*
X830565Y-13066D01*
X830556Y-13076D01*
X830537Y-13094D01*
X830519Y-13117D01*
X830500Y-13140D01*
X830477Y-13172D01*
X830454Y-13214D01*
X830427Y-13256D01*
X830403Y-13307D01*
X830376Y-13362D01*
X830348Y-13427D01*
X830325Y-13496D01*
X830297Y-13570D01*
X830274Y-13653D01*
X830256Y-13745D01*
X829632Y-13644D01*
Y-13634D01*
X829636Y-13611D01*
X829646Y-13575D01*
X829660Y-13524D01*
X829673Y-13464D01*
X829697Y-13394D01*
X829720Y-13316D01*
X829747Y-13233D01*
X829780Y-13149D01*
X829821Y-13057D01*
X829863Y-12969D01*
X829914Y-12881D01*
X829969Y-12794D01*
X830029Y-12715D01*
X830094Y-12641D01*
X830168Y-12572D01*
X830172Y-12567D01*
X830186Y-12558D01*
X830209Y-12540D01*
X830246Y-12521D01*
X830288Y-12493D01*
X830339Y-12466D01*
X830399Y-12433D01*
X830468Y-12401D01*
X830547Y-12373D01*
X830634Y-12341D01*
X830731Y-12313D01*
X830833Y-12286D01*
X830949Y-12267D01*
X831069Y-12248D01*
X831198Y-12239D01*
X831337Y-12235D01*
X831392D01*
X831434Y-12239D01*
D02*
G37*
G36*
X826735Y-11338D02*
X825021D01*
Y-16905D01*
X824337D01*
Y-11338D01*
X822633D01*
Y-10595D01*
X826735D01*
Y-11338D01*
D02*
G37*
G36*
X815897Y-16905D02*
X815264D01*
Y-10595D01*
X815897D01*
Y-16905D01*
D02*
G37*
G36*
X814312D02*
X813679D01*
Y-12336D01*
X814312D01*
Y-16905D01*
D02*
G37*
G36*
X859440Y-12336D02*
X860082D01*
Y-12937D01*
X859440D01*
Y-15612D01*
Y-15617D01*
Y-15626D01*
Y-15649D01*
Y-15672D01*
Y-15700D01*
X859445Y-15732D01*
X859449Y-15811D01*
X859454Y-15889D01*
X859463Y-15968D01*
X859477Y-16037D01*
X859486Y-16065D01*
X859496Y-16088D01*
X859500Y-16092D01*
X859509Y-16111D01*
X859533Y-16134D01*
X859565Y-16162D01*
X859606Y-16194D01*
X859657Y-16217D01*
X859722Y-16236D01*
X859801Y-16240D01*
X859842D01*
X859874Y-16236D01*
X859916D01*
X859962Y-16226D01*
X860022Y-16222D01*
X860082Y-16213D01*
X860170Y-16896D01*
X860166D01*
X860156Y-16901D01*
X860142D01*
X860124Y-16905D01*
X860078Y-16919D01*
X860013Y-16929D01*
X859939Y-16942D01*
X859861Y-16956D01*
X859777Y-16961D01*
X859694Y-16966D01*
X859639D01*
X859611Y-16961D01*
X859579Y-16956D01*
X859505Y-16947D01*
X859417Y-16933D01*
X859329Y-16910D01*
X859241Y-16878D01*
X859158Y-16836D01*
X859149Y-16832D01*
X859126Y-16813D01*
X859089Y-16785D01*
X859047Y-16744D01*
X859001Y-16693D01*
X858955Y-16633D01*
X858913Y-16559D01*
X858881Y-16480D01*
Y-16476D01*
X858877Y-16471D01*
Y-16453D01*
X858872Y-16434D01*
X858863Y-16407D01*
X858858Y-16370D01*
X858853Y-16328D01*
X858844Y-16282D01*
X858840Y-16222D01*
X858830Y-16157D01*
X858826Y-16083D01*
X858821Y-16000D01*
X858816Y-15908D01*
X858812Y-15806D01*
X858807Y-15690D01*
Y-15570D01*
Y-12937D01*
X858341D01*
Y-12336D01*
X858807D01*
Y-11204D01*
X859440Y-10738D01*
Y-12336D01*
D02*
G37*
G36*
X842605Y-12239D02*
X842656Y-12244D01*
X842720Y-12253D01*
X842790Y-12267D01*
X842873Y-12286D01*
X842961Y-12313D01*
X843053Y-12346D01*
X843150Y-12382D01*
X843252Y-12433D01*
X843353Y-12493D01*
X843455Y-12563D01*
X843557Y-12646D01*
X843654Y-12743D01*
X843746Y-12849D01*
X843751Y-12858D01*
X843769Y-12877D01*
X843792Y-12914D01*
X843820Y-12965D01*
X843857Y-13025D01*
X843898Y-13103D01*
X843945Y-13196D01*
X843991Y-13297D01*
X844032Y-13417D01*
X844079Y-13547D01*
X844120Y-13695D01*
X844157Y-13852D01*
X844185Y-14023D01*
X844213Y-14207D01*
X844226Y-14406D01*
X844231Y-14619D01*
Y-14822D01*
X841436D01*
Y-14831D01*
X841441Y-14854D01*
Y-14896D01*
X841445Y-14947D01*
X841455Y-15011D01*
X841464Y-15085D01*
X841478Y-15168D01*
X841496Y-15256D01*
X841538Y-15446D01*
X841565Y-15543D01*
X841598Y-15640D01*
X841639Y-15732D01*
X841681Y-15824D01*
X841732Y-15908D01*
X841787Y-15986D01*
X841792Y-15991D01*
X841801Y-16005D01*
X841819Y-16023D01*
X841842Y-16046D01*
X841875Y-16074D01*
X841912Y-16111D01*
X841953Y-16143D01*
X842004Y-16180D01*
X842060Y-16217D01*
X842115Y-16250D01*
X842180Y-16282D01*
X842249Y-16314D01*
X842323Y-16337D01*
X842397Y-16356D01*
X842480Y-16370D01*
X842563Y-16374D01*
X842596D01*
X842633Y-16370D01*
X842679Y-16360D01*
X842739Y-16346D01*
X842803Y-16323D01*
X842877Y-16296D01*
X842956Y-16259D01*
X843034Y-16208D01*
X843118Y-16143D01*
X843201Y-16069D01*
X843284Y-15977D01*
X843363Y-15871D01*
X843400Y-15811D01*
X843432Y-15746D01*
X843469Y-15677D01*
X843501Y-15603D01*
X843529Y-15519D01*
X843557Y-15436D01*
X844213Y-15533D01*
Y-15543D01*
X844203Y-15566D01*
X844194Y-15603D01*
X844180Y-15653D01*
X844162Y-15713D01*
X844139Y-15788D01*
X844111Y-15861D01*
X844074Y-15949D01*
X844037Y-16037D01*
X843995Y-16125D01*
X843945Y-16217D01*
X843889Y-16309D01*
X843829Y-16402D01*
X843764Y-16485D01*
X843695Y-16568D01*
X843617Y-16642D01*
X843612Y-16647D01*
X843598Y-16656D01*
X843575Y-16675D01*
X843543Y-16698D01*
X843501Y-16730D01*
X843450Y-16758D01*
X843390Y-16795D01*
X843326Y-16827D01*
X843252Y-16859D01*
X843173Y-16896D01*
X843085Y-16924D01*
X842993Y-16952D01*
X842891Y-16979D01*
X842785Y-16998D01*
X842674Y-17007D01*
X842559Y-17012D01*
X842522D01*
X842480Y-17007D01*
X842425Y-17003D01*
X842360Y-16993D01*
X842281Y-16979D01*
X842194Y-16961D01*
X842101Y-16938D01*
X842000Y-16905D01*
X841893Y-16864D01*
X841787Y-16818D01*
X841681Y-16758D01*
X841575Y-16688D01*
X841468Y-16610D01*
X841367Y-16517D01*
X841270Y-16411D01*
X841265Y-16402D01*
X841247Y-16383D01*
X841224Y-16346D01*
X841191Y-16300D01*
X841154Y-16236D01*
X841113Y-16157D01*
X841071Y-16069D01*
X841025Y-15968D01*
X840979Y-15847D01*
X840937Y-15718D01*
X840895Y-15575D01*
X840858Y-15418D01*
X840826Y-15251D01*
X840803Y-15067D01*
X840785Y-14873D01*
X840780Y-14665D01*
Y-14660D01*
Y-14651D01*
Y-14637D01*
Y-14614D01*
Y-14586D01*
X840785Y-14549D01*
Y-14512D01*
X840789Y-14471D01*
X840794Y-14369D01*
X840808Y-14258D01*
X840821Y-14133D01*
X840840Y-13995D01*
X840868Y-13852D01*
X840900Y-13704D01*
X840942Y-13551D01*
X840988Y-13404D01*
X841043Y-13256D01*
X841113Y-13117D01*
X841187Y-12983D01*
X841274Y-12858D01*
X841279Y-12849D01*
X841297Y-12831D01*
X841325Y-12803D01*
X841362Y-12761D01*
X841413Y-12715D01*
X841473Y-12660D01*
X841542Y-12604D01*
X841621Y-12544D01*
X841704Y-12489D01*
X841801Y-12433D01*
X841907Y-12378D01*
X842018Y-12332D01*
X842138Y-12290D01*
X842263Y-12262D01*
X842397Y-12239D01*
X842535Y-12235D01*
X842568D01*
X842605Y-12239D01*
D02*
G37*
G36*
X818498Y-12239D02*
X818548Y-12244D01*
X818613Y-12253D01*
X818682Y-12267D01*
X818766Y-12286D01*
X818853Y-12313D01*
X818946Y-12346D01*
X819043Y-12382D01*
X819145Y-12433D01*
X819246Y-12493D01*
X819348Y-12563D01*
X819449Y-12646D01*
X819546Y-12743D01*
X819639Y-12849D01*
X819643Y-12858D01*
X819662Y-12877D01*
X819685Y-12914D01*
X819713Y-12965D01*
X819750Y-13025D01*
X819791Y-13103D01*
X819837Y-13196D01*
X819884Y-13297D01*
X819925Y-13417D01*
X819971Y-13547D01*
X820013Y-13695D01*
X820050Y-13852D01*
X820078Y-14023D01*
X820105Y-14207D01*
X820119Y-14406D01*
X820124Y-14619D01*
Y-14822D01*
X817329D01*
Y-14831D01*
X817333Y-14854D01*
Y-14896D01*
X817338Y-14947D01*
X817347Y-15011D01*
X817356Y-15085D01*
X817370Y-15168D01*
X817389Y-15256D01*
X817430Y-15446D01*
X817458Y-15543D01*
X817490Y-15640D01*
X817532Y-15732D01*
X817574Y-15824D01*
X817624Y-15908D01*
X817680Y-15986D01*
X817685Y-15991D01*
X817694Y-16005D01*
X817712Y-16023D01*
X817735Y-16046D01*
X817768Y-16074D01*
X817805Y-16111D01*
X817846Y-16143D01*
X817897Y-16180D01*
X817953Y-16217D01*
X818008Y-16250D01*
X818073Y-16282D01*
X818142Y-16314D01*
X818216Y-16337D01*
X818290Y-16356D01*
X818373Y-16370D01*
X818456Y-16374D01*
X818488D01*
X818525Y-16370D01*
X818572Y-16360D01*
X818632Y-16346D01*
X818696Y-16323D01*
X818770Y-16296D01*
X818849Y-16259D01*
X818927Y-16208D01*
X819011Y-16143D01*
X819094Y-16069D01*
X819177Y-15977D01*
X819255Y-15871D01*
X819292Y-15811D01*
X819325Y-15746D01*
X819362Y-15677D01*
X819394Y-15603D01*
X819422Y-15519D01*
X819449Y-15436D01*
X820105Y-15533D01*
Y-15543D01*
X820096Y-15566D01*
X820087Y-15603D01*
X820073Y-15653D01*
X820055Y-15714D01*
X820032Y-15788D01*
X820004Y-15861D01*
X819967Y-15949D01*
X819930Y-16037D01*
X819888Y-16125D01*
X819837Y-16217D01*
X819782Y-16309D01*
X819722Y-16402D01*
X819657Y-16485D01*
X819588Y-16568D01*
X819510Y-16642D01*
X819505Y-16647D01*
X819491Y-16656D01*
X819468Y-16675D01*
X819436Y-16698D01*
X819394Y-16730D01*
X819343Y-16758D01*
X819283Y-16795D01*
X819218Y-16827D01*
X819145Y-16859D01*
X819066Y-16896D01*
X818978Y-16924D01*
X818886Y-16952D01*
X818784Y-16979D01*
X818678Y-16998D01*
X818567Y-17007D01*
X818451Y-17012D01*
X818414D01*
X818373Y-17007D01*
X818318Y-17003D01*
X818253Y-16993D01*
X818174Y-16979D01*
X818087Y-16961D01*
X817994Y-16938D01*
X817892Y-16905D01*
X817786Y-16864D01*
X817680Y-16818D01*
X817574Y-16758D01*
X817467Y-16688D01*
X817361Y-16610D01*
X817260Y-16517D01*
X817163Y-16411D01*
X817158Y-16402D01*
X817139Y-16383D01*
X817116Y-16346D01*
X817084Y-16300D01*
X817047Y-16236D01*
X817005Y-16157D01*
X816964Y-16069D01*
X816918Y-15968D01*
X816871Y-15847D01*
X816830Y-15718D01*
X816788Y-15575D01*
X816751Y-15418D01*
X816719Y-15252D01*
X816696Y-15067D01*
X816677Y-14873D01*
X816673Y-14665D01*
Y-14660D01*
Y-14651D01*
Y-14637D01*
Y-14614D01*
Y-14586D01*
X816677Y-14549D01*
Y-14512D01*
X816682Y-14471D01*
X816687Y-14369D01*
X816700Y-14258D01*
X816714Y-14133D01*
X816733Y-13995D01*
X816761Y-13852D01*
X816793Y-13704D01*
X816835Y-13551D01*
X816881Y-13404D01*
X816936Y-13256D01*
X817005Y-13117D01*
X817079Y-12983D01*
X817167Y-12858D01*
X817172Y-12849D01*
X817190Y-12831D01*
X817218Y-12803D01*
X817255Y-12761D01*
X817306Y-12715D01*
X817366Y-12660D01*
X817435Y-12604D01*
X817514Y-12544D01*
X817597Y-12489D01*
X817694Y-12433D01*
X817800Y-12378D01*
X817911Y-12332D01*
X818031Y-12290D01*
X818156Y-12262D01*
X818290Y-12239D01*
X818428Y-12235D01*
X818461D01*
X818498Y-12239D01*
D02*
G37*
G36*
X810288Y-12854D02*
X810293Y-12849D01*
X810297Y-12840D01*
X810306Y-12826D01*
X810325Y-12803D01*
X810367Y-12747D01*
X810417Y-12678D01*
X810487Y-12604D01*
X810565Y-12530D01*
X810648Y-12456D01*
X810741Y-12392D01*
X810745D01*
X810755Y-12387D01*
X810768Y-12378D01*
X810787Y-12369D01*
X810810Y-12355D01*
X810838Y-12341D01*
X810912Y-12313D01*
X810995Y-12286D01*
X811092Y-12258D01*
X811198Y-12239D01*
X811314Y-12235D01*
X811355D01*
X811388Y-12239D01*
X811425Y-12244D01*
X811471Y-12249D01*
X811522Y-12258D01*
X811577Y-12267D01*
X811702Y-12299D01*
X811766Y-12318D01*
X811836Y-12346D01*
X811905Y-12378D01*
X811974Y-12410D01*
X812039Y-12452D01*
X812108Y-12498D01*
X812113Y-12503D01*
X812122Y-12512D01*
X812145Y-12526D01*
X812168Y-12549D01*
X812201Y-12577D01*
X812233Y-12609D01*
X812274Y-12651D01*
X812316Y-12697D01*
X812362Y-12747D01*
X812409Y-12808D01*
X812455Y-12872D01*
X812506Y-12946D01*
X812552Y-13025D01*
X812598Y-13108D01*
X812644Y-13200D01*
X812686Y-13297D01*
X812690Y-13302D01*
X812695Y-13320D01*
X812704Y-13353D01*
X812718Y-13394D01*
X812737Y-13445D01*
X812755Y-13505D01*
X812774Y-13579D01*
X812797Y-13658D01*
X812815Y-13750D01*
X812834Y-13847D01*
X812852Y-13953D01*
X812871Y-14069D01*
X812884Y-14189D01*
X812894Y-14318D01*
X812903Y-14452D01*
Y-14591D01*
Y-14595D01*
Y-14605D01*
Y-14619D01*
Y-14642D01*
Y-14669D01*
X812898Y-14702D01*
Y-14739D01*
X812894Y-14780D01*
X812889Y-14882D01*
X812875Y-14993D01*
X812861Y-15118D01*
X812843Y-15252D01*
X812815Y-15395D01*
X812783Y-15538D01*
X812746Y-15690D01*
X812695Y-15838D01*
X812640Y-15986D01*
X812575Y-16125D01*
X812501Y-16259D01*
X812413Y-16383D01*
X812409Y-16388D01*
X812390Y-16411D01*
X812362Y-16443D01*
X812325Y-16480D01*
X812279Y-16531D01*
X812224Y-16582D01*
X812164Y-16637D01*
X812090Y-16698D01*
X812011Y-16758D01*
X811923Y-16813D01*
X811831Y-16864D01*
X811729Y-16915D01*
X811623Y-16952D01*
X811512Y-16984D01*
X811397Y-17003D01*
X811277Y-17012D01*
X811244D01*
X811221Y-17007D01*
X811193D01*
X811161Y-17003D01*
X811083Y-16989D01*
X810990Y-16970D01*
X810893Y-16942D01*
X810791Y-16901D01*
X810690Y-16845D01*
X810685D01*
X810681Y-16836D01*
X810667Y-16827D01*
X810648Y-16813D01*
X810598Y-16771D01*
X810537Y-16716D01*
X810468Y-16647D01*
X810390Y-16559D01*
X810316Y-16457D01*
X810242Y-16337D01*
Y-16905D01*
X809650D01*
Y-10595D01*
X810288D01*
Y-12854D01*
D02*
G37*
G36*
X807225Y-12239D02*
X807276Y-12244D01*
X807340Y-12253D01*
X807414Y-12267D01*
X807498Y-12286D01*
X807590Y-12309D01*
X807687Y-12341D01*
X807784Y-12382D01*
X807890Y-12433D01*
X807996Y-12489D01*
X808103Y-12558D01*
X808204Y-12641D01*
X808306Y-12734D01*
X808403Y-12840D01*
X808408Y-12844D01*
X808426Y-12868D01*
X808449Y-12905D01*
X808482Y-12951D01*
X808519Y-13015D01*
X808565Y-13089D01*
X808606Y-13177D01*
X808657Y-13283D01*
X808703Y-13399D01*
X808749Y-13528D01*
X808791Y-13671D01*
X808828Y-13824D01*
X808860Y-13995D01*
X808883Y-14175D01*
X808902Y-14369D01*
X808907Y-14577D01*
Y-14582D01*
Y-14591D01*
Y-14609D01*
Y-14633D01*
Y-14660D01*
X808902Y-14693D01*
Y-14734D01*
X808897Y-14780D01*
X808893Y-14882D01*
X808879Y-14998D01*
X808865Y-15127D01*
X808846Y-15270D01*
X808819Y-15418D01*
X808786Y-15566D01*
X808745Y-15718D01*
X808694Y-15871D01*
X808639Y-16018D01*
X808574Y-16162D01*
X808495Y-16291D01*
X808408Y-16411D01*
X808403Y-16416D01*
X808385Y-16439D01*
X808357Y-16467D01*
X808320Y-16504D01*
X808269Y-16550D01*
X808209Y-16601D01*
X808144Y-16656D01*
X808066Y-16712D01*
X807978Y-16767D01*
X807885Y-16822D01*
X807779Y-16873D01*
X807668Y-16919D01*
X807548Y-16956D01*
X807423Y-16984D01*
X807290Y-17007D01*
X807151Y-17012D01*
X807119D01*
X807077Y-17007D01*
X807026Y-17003D01*
X806962Y-16993D01*
X806888Y-16979D01*
X806804Y-16961D01*
X806712Y-16938D01*
X806615Y-16905D01*
X806513Y-16864D01*
X806407Y-16818D01*
X806306Y-16758D01*
X806199Y-16688D01*
X806093Y-16610D01*
X805991Y-16517D01*
X805894Y-16411D01*
X805890Y-16402D01*
X805871Y-16383D01*
X805848Y-16346D01*
X805816Y-16296D01*
X805779Y-16236D01*
X805737Y-16157D01*
X805691Y-16065D01*
X805645Y-15958D01*
X805599Y-15843D01*
X805552Y-15709D01*
X805511Y-15561D01*
X805474Y-15399D01*
X805442Y-15228D01*
X805418Y-15039D01*
X805400Y-14840D01*
X805395Y-14623D01*
Y-14619D01*
Y-14609D01*
Y-14595D01*
Y-14572D01*
Y-14545D01*
X805400Y-14508D01*
Y-14471D01*
X805405Y-14429D01*
X805409Y-14332D01*
X805423Y-14217D01*
X805437Y-14092D01*
X805455Y-13958D01*
X805483Y-13815D01*
X805515Y-13667D01*
X805557Y-13519D01*
X805603Y-13371D01*
X805659Y-13228D01*
X805728Y-13089D01*
X805802Y-12960D01*
X805890Y-12840D01*
X805894Y-12831D01*
X805913Y-12812D01*
X805941Y-12785D01*
X805978Y-12743D01*
X806028Y-12701D01*
X806088Y-12651D01*
X806158Y-12595D01*
X806236Y-12535D01*
X806319Y-12480D01*
X806416Y-12424D01*
X806523Y-12373D01*
X806633Y-12327D01*
X806754Y-12290D01*
X806878Y-12262D01*
X807012Y-12239D01*
X807151Y-12235D01*
X807183D01*
X807225Y-12239D01*
D02*
G37*
%LPC*%
G36*
X816276Y-2872D02*
X816257D01*
X816238Y-2877D01*
X816206D01*
X816174Y-2886D01*
X816132Y-2895D01*
X816086Y-2909D01*
X816040Y-2923D01*
X815984Y-2946D01*
X815929Y-2974D01*
X815874Y-3011D01*
X815814Y-3052D01*
X815758Y-3099D01*
X815698Y-3159D01*
X815643Y-3223D01*
X815587Y-3297D01*
X815582Y-3302D01*
X815573Y-3316D01*
X815559Y-3343D01*
X815541Y-3376D01*
X815522Y-3422D01*
X815495Y-3478D01*
X815472Y-3547D01*
X815444Y-3621D01*
X815416Y-3709D01*
X815393Y-3810D01*
X815365Y-3916D01*
X815347Y-4036D01*
X815328Y-4171D01*
X815314Y-4309D01*
X815305Y-4462D01*
X815301Y-4628D01*
Y-4632D01*
Y-4637D01*
Y-4651D01*
Y-4665D01*
Y-4711D01*
X815305Y-4771D01*
X815310Y-4845D01*
X815319Y-4933D01*
X815328Y-5025D01*
X815338Y-5127D01*
X815356Y-5229D01*
X815375Y-5339D01*
X815398Y-5450D01*
X815430Y-5556D01*
X815462Y-5663D01*
X815504Y-5764D01*
X815550Y-5857D01*
X815606Y-5945D01*
X815610Y-5949D01*
X815619Y-5963D01*
X815638Y-5986D01*
X815661Y-6009D01*
X815689Y-6046D01*
X815726Y-6078D01*
X815763Y-6120D01*
X815809Y-6157D01*
X815860Y-6199D01*
X815915Y-6240D01*
X815975Y-6273D01*
X816035Y-6305D01*
X816105Y-6333D01*
X816174Y-6356D01*
X816248Y-6370D01*
X816322Y-6374D01*
X816340D01*
X816359Y-6370D01*
X816391D01*
X816423Y-6360D01*
X816465Y-6351D01*
X816511Y-6342D01*
X816562Y-6323D01*
X816613Y-6300D01*
X816668Y-6273D01*
X816728Y-6240D01*
X816784Y-6199D01*
X816844Y-6152D01*
X816904Y-6097D01*
X816964Y-6037D01*
X817019Y-5963D01*
X817024Y-5958D01*
X817033Y-5945D01*
X817047Y-5922D01*
X817066Y-5884D01*
X817089Y-5843D01*
X817116Y-5787D01*
X817139Y-5727D01*
X817172Y-5654D01*
X817200Y-5570D01*
X817223Y-5478D01*
X817250Y-5376D01*
X817273Y-5265D01*
X817292Y-5141D01*
X817306Y-5011D01*
X817315Y-4868D01*
X817320Y-4716D01*
Y-4711D01*
Y-4706D01*
Y-4693D01*
Y-4674D01*
Y-4623D01*
X817315Y-4559D01*
X817310Y-4480D01*
X817306Y-4388D01*
X817297Y-4286D01*
X817283Y-4180D01*
X817264Y-4069D01*
X817246Y-3953D01*
X817223Y-3833D01*
X817195Y-3718D01*
X817158Y-3607D01*
X817116Y-3501D01*
X817070Y-3404D01*
X817019Y-3316D01*
X817015Y-3311D01*
X817005Y-3297D01*
X816987Y-3274D01*
X816969Y-3246D01*
X816936Y-3214D01*
X816904Y-3177D01*
X816862Y-3136D01*
X816816Y-3094D01*
X816765Y-3052D01*
X816710Y-3011D01*
X816645Y-2974D01*
X816580Y-2942D01*
X816511Y-2914D01*
X816437Y-2891D01*
X816359Y-2877D01*
X816276Y-2872D01*
D02*
G37*
G36*
X810847Y-4614D02*
X810842D01*
X810828Y-4623D01*
X810810Y-4632D01*
X810782Y-4642D01*
X810745Y-4660D01*
X810699Y-4674D01*
X810648Y-4697D01*
X810584Y-4716D01*
X810514Y-4739D01*
X810440Y-4762D01*
X810353Y-4785D01*
X810260Y-4813D01*
X810159Y-4836D01*
X810048Y-4859D01*
X809932Y-4882D01*
X809807Y-4905D01*
X809803D01*
X809789Y-4910D01*
X809770D01*
X809743Y-4919D01*
X809710Y-4924D01*
X809674Y-4933D01*
X809586Y-4951D01*
X809493Y-4974D01*
X809401Y-5002D01*
X809313Y-5034D01*
X809276Y-5048D01*
X809244Y-5067D01*
X809239Y-5071D01*
X809216Y-5081D01*
X809188Y-5104D01*
X809156Y-5131D01*
X809114Y-5168D01*
X809073Y-5210D01*
X809036Y-5261D01*
X808999Y-5316D01*
X808994Y-5325D01*
X808985Y-5344D01*
X808971Y-5376D01*
X808957Y-5423D01*
X808939Y-5478D01*
X808925Y-5543D01*
X808916Y-5612D01*
X808911Y-5690D01*
Y-5695D01*
Y-5704D01*
Y-5723D01*
X808916Y-5746D01*
Y-5774D01*
X808920Y-5806D01*
X808934Y-5880D01*
X808962Y-5963D01*
X808994Y-6051D01*
X809045Y-6134D01*
X809073Y-6176D01*
X809110Y-6213D01*
X809114D01*
X809119Y-6222D01*
X809133Y-6231D01*
X809147Y-6245D01*
X809193Y-6273D01*
X809258Y-6310D01*
X809336Y-6346D01*
X809433Y-6374D01*
X809544Y-6397D01*
X809674Y-6407D01*
X809706D01*
X809729Y-6402D01*
X809761D01*
X809794Y-6397D01*
X809877Y-6383D01*
X809974Y-6365D01*
X810075Y-6333D01*
X810182Y-6291D01*
X810288Y-6231D01*
X810293D01*
X810302Y-6222D01*
X810316Y-6213D01*
X810334Y-6199D01*
X810385Y-6162D01*
X810445Y-6106D01*
X810514Y-6037D01*
X810584Y-5958D01*
X810653Y-5866D01*
X810708Y-5760D01*
Y-5755D01*
X810713Y-5746D01*
X810722Y-5727D01*
X810732Y-5704D01*
X810741Y-5672D01*
X810755Y-5635D01*
X810764Y-5593D01*
X810778Y-5543D01*
X810791Y-5483D01*
X810805Y-5418D01*
X810815Y-5349D01*
X810824Y-5270D01*
X810833Y-5187D01*
X810842Y-5099D01*
X810847Y-5002D01*
Y-4900D01*
Y-4614D01*
D02*
G37*
G36*
X801505Y-1338D02*
X800369D01*
Y-3246D01*
X801589D01*
X801630Y-3242D01*
X801727Y-3237D01*
X801829Y-3233D01*
X801930Y-3219D01*
X802027Y-3205D01*
X802069Y-3196D01*
X802106Y-3186D01*
X802110D01*
X802120Y-3182D01*
X802134Y-3177D01*
X802152Y-3168D01*
X802198Y-3149D01*
X802258Y-3117D01*
X802323Y-3076D01*
X802392Y-3025D01*
X802457Y-2960D01*
X802517Y-2886D01*
Y-2881D01*
X802522Y-2877D01*
X802531Y-2863D01*
X802540Y-2849D01*
X802549Y-2826D01*
X802563Y-2798D01*
X802591Y-2734D01*
X802619Y-2651D01*
X802642Y-2549D01*
X802660Y-2433D01*
X802665Y-2304D01*
Y-2299D01*
Y-2290D01*
Y-2272D01*
Y-2248D01*
X802660Y-2221D01*
Y-2184D01*
X802647Y-2105D01*
X802633Y-2018D01*
X802610Y-1925D01*
X802577Y-1828D01*
X802531Y-1740D01*
Y-1736D01*
X802526Y-1731D01*
X802508Y-1703D01*
X802480Y-1662D01*
X802439Y-1616D01*
X802388Y-1565D01*
X802332Y-1514D01*
X802263Y-1463D01*
X802184Y-1426D01*
X802180D01*
X802175Y-1422D01*
X802161Y-1417D01*
X802143Y-1412D01*
X802115Y-1408D01*
X802087Y-1398D01*
X802050Y-1389D01*
X802004Y-1380D01*
X801954Y-1375D01*
X801898Y-1366D01*
X801833Y-1357D01*
X801764Y-1352D01*
X801686Y-1348D01*
X801598Y-1343D01*
X801505Y-1338D01*
D02*
G37*
G36*
X801658Y-3990D02*
X800369D01*
Y-6162D01*
X801723D01*
X801759Y-6157D01*
X801796D01*
X801893Y-6152D01*
X801995Y-6143D01*
X802097Y-6129D01*
X802198Y-6111D01*
X802240Y-6102D01*
X802281Y-6088D01*
X802286D01*
X802295Y-6083D01*
X802309Y-6074D01*
X802328Y-6065D01*
X802383Y-6037D01*
X802448Y-6000D01*
X802517Y-5945D01*
X802591Y-5884D01*
X802660Y-5806D01*
X802725Y-5718D01*
Y-5714D01*
X802730Y-5704D01*
X802739Y-5690D01*
X802748Y-5672D01*
X802762Y-5644D01*
X802776Y-5616D01*
X802790Y-5580D01*
X802804Y-5543D01*
X802831Y-5446D01*
X802859Y-5339D01*
X802878Y-5215D01*
X802882Y-5076D01*
Y-5071D01*
Y-5062D01*
Y-5039D01*
Y-5016D01*
X802878Y-4984D01*
X802873Y-4947D01*
X802864Y-4863D01*
X802845Y-4771D01*
X802822Y-4669D01*
X802785Y-4568D01*
X802734Y-4471D01*
Y-4466D01*
X802730Y-4462D01*
X802720Y-4448D01*
X802707Y-4429D01*
X802674Y-4388D01*
X802628Y-4332D01*
X802573Y-4272D01*
X802503Y-4212D01*
X802425Y-4157D01*
X802337Y-4106D01*
X802332D01*
X802328Y-4101D01*
X802309Y-4096D01*
X802291Y-4087D01*
X802263Y-4078D01*
X802231Y-4069D01*
X802194Y-4060D01*
X802147Y-4046D01*
X802097Y-4036D01*
X802041Y-4027D01*
X801977Y-4018D01*
X801907Y-4009D01*
X801829Y-3999D01*
X801746Y-3995D01*
X801658Y-3990D01*
D02*
G37*
G36*
X841334Y-2872D02*
X841293D01*
X841265Y-2877D01*
X841228Y-2881D01*
X841182Y-2891D01*
X841136Y-2900D01*
X841085Y-2918D01*
X841029Y-2937D01*
X840969Y-2960D01*
X840909Y-2988D01*
X840849Y-3020D01*
X840785Y-3062D01*
X840724Y-3112D01*
X840664Y-3163D01*
X840604Y-3228D01*
X840600Y-3233D01*
X840590Y-3246D01*
X840577Y-3265D01*
X840558Y-3293D01*
X840535Y-3330D01*
X840507Y-3371D01*
X840480Y-3422D01*
X840452Y-3482D01*
X840420Y-3547D01*
X840392Y-3616D01*
X840364Y-3695D01*
X840341Y-3782D01*
X840318Y-3875D01*
X840300Y-3972D01*
X840286Y-4073D01*
X840276Y-4184D01*
X842369D01*
Y-4180D01*
Y-4157D01*
X842365Y-4129D01*
X842360Y-4087D01*
X842351Y-4036D01*
X842342Y-3981D01*
X842332Y-3921D01*
X842318Y-3852D01*
X842286Y-3709D01*
X842245Y-3561D01*
X842184Y-3422D01*
X842152Y-3357D01*
X842115Y-3302D01*
X842111Y-3297D01*
X842101Y-3283D01*
X842083Y-3260D01*
X842060Y-3233D01*
X842027Y-3200D01*
X841990Y-3168D01*
X841949Y-3126D01*
X841903Y-3085D01*
X841847Y-3048D01*
X841787Y-3006D01*
X841722Y-2974D01*
X841653Y-2937D01*
X841584Y-2914D01*
X841505Y-2891D01*
X841422Y-2877D01*
X841334Y-2872D01*
D02*
G37*
G36*
X823289Y-1200D02*
X823256D01*
X823215Y-1204D01*
X823159Y-1209D01*
X823095Y-1218D01*
X823016Y-1232D01*
X822933Y-1255D01*
X822840Y-1278D01*
X822739Y-1315D01*
X822637Y-1357D01*
X822531Y-1408D01*
X822425Y-1472D01*
X822318Y-1546D01*
X822212Y-1634D01*
X822110Y-1731D01*
X822013Y-1847D01*
X822009Y-1856D01*
X821990Y-1879D01*
X821967Y-1916D01*
X821935Y-1967D01*
X821898Y-2036D01*
X821856Y-2124D01*
X821810Y-2221D01*
X821764Y-2336D01*
X821718Y-2470D01*
X821672Y-2618D01*
X821630Y-2780D01*
X821593Y-2960D01*
X821561Y-3159D01*
X821538Y-3371D01*
X821519Y-3598D01*
X821515Y-3842D01*
Y-3847D01*
Y-3856D01*
Y-3870D01*
Y-3893D01*
Y-3921D01*
X821519Y-3953D01*
Y-3990D01*
X821524Y-4036D01*
X821528Y-4134D01*
X821542Y-4244D01*
X821556Y-4374D01*
X821579Y-4508D01*
X821607Y-4651D01*
X821639Y-4799D01*
X821681Y-4947D01*
X821732Y-5099D01*
X821792Y-5247D01*
X821856Y-5390D01*
X821935Y-5529D01*
X822027Y-5654D01*
X822032Y-5663D01*
X822050Y-5681D01*
X822078Y-5714D01*
X822120Y-5755D01*
X822171Y-5801D01*
X822231Y-5857D01*
X822295Y-5917D01*
X822374Y-5972D01*
X822462Y-6032D01*
X822559Y-6092D01*
X822660Y-6148D01*
X822771Y-6194D01*
X822887Y-6236D01*
X823011Y-6268D01*
X823141Y-6286D01*
X823275Y-6296D01*
X823307D01*
X823349Y-6291D01*
X823400Y-6286D01*
X823464Y-6277D01*
X823538Y-6263D01*
X823626Y-6240D01*
X823714Y-6213D01*
X823811Y-6180D01*
X823912Y-6139D01*
X824019Y-6083D01*
X824125Y-6023D01*
X824231Y-5949D01*
X824337Y-5861D01*
X824439Y-5764D01*
X824536Y-5649D01*
X824541Y-5640D01*
X824559Y-5616D01*
X824582Y-5580D01*
X824615Y-5529D01*
X824656Y-5459D01*
X824698Y-5376D01*
X824744Y-5279D01*
X824795Y-5164D01*
X824841Y-5039D01*
X824887Y-4896D01*
X824929Y-4739D01*
X824970Y-4568D01*
X825003Y-4383D01*
X825026Y-4180D01*
X825044Y-3967D01*
X825049Y-3736D01*
Y-3732D01*
Y-3727D01*
Y-3699D01*
Y-3658D01*
X825044Y-3598D01*
X825040Y-3528D01*
X825035Y-3445D01*
X825026Y-3353D01*
X825016Y-3251D01*
X825003Y-3140D01*
X824984Y-3025D01*
X824966Y-2905D01*
X824938Y-2780D01*
X824906Y-2655D01*
X824873Y-2526D01*
X824832Y-2401D01*
X824786Y-2281D01*
Y-2276D01*
X824776Y-2258D01*
X824762Y-2235D01*
X824749Y-2198D01*
X824725Y-2156D01*
X824698Y-2110D01*
X824670Y-2055D01*
X824633Y-1999D01*
X824592Y-1939D01*
X824545Y-1874D01*
X824499Y-1810D01*
X824444Y-1745D01*
X824384Y-1676D01*
X824319Y-1616D01*
X824250Y-1551D01*
X824176Y-1496D01*
X824171Y-1491D01*
X824157Y-1482D01*
X824134Y-1468D01*
X824106Y-1449D01*
X824065Y-1426D01*
X824023Y-1403D01*
X823972Y-1375D01*
X823912Y-1348D01*
X823848Y-1320D01*
X823778Y-1292D01*
X823709Y-1269D01*
X823631Y-1246D01*
X823547Y-1228D01*
X823464Y-1214D01*
X823376Y-1204D01*
X823289Y-1200D01*
D02*
G37*
G36*
X805931Y-2872D02*
X805913D01*
X805890Y-2877D01*
X805857D01*
X805816Y-2886D01*
X805770Y-2895D01*
X805719Y-2909D01*
X805663Y-2928D01*
X805608Y-2951D01*
X805543Y-2978D01*
X805478Y-3015D01*
X805414Y-3057D01*
X805349Y-3108D01*
X805285Y-3168D01*
X805220Y-3233D01*
X805160Y-3311D01*
X805155Y-3316D01*
X805146Y-3330D01*
X805132Y-3357D01*
X805109Y-3394D01*
X805086Y-3441D01*
X805063Y-3496D01*
X805030Y-3561D01*
X805003Y-3639D01*
X804975Y-3727D01*
X804947Y-3824D01*
X804920Y-3930D01*
X804896Y-4046D01*
X804873Y-4175D01*
X804859Y-4314D01*
X804850Y-4462D01*
X804846Y-4623D01*
Y-4628D01*
Y-4632D01*
Y-4646D01*
Y-4660D01*
Y-4706D01*
X804850Y-4766D01*
X804855Y-4840D01*
X804864Y-4928D01*
X804873Y-5021D01*
X804887Y-5122D01*
X804901Y-5229D01*
X804924Y-5335D01*
X804947Y-5446D01*
X804980Y-5556D01*
X805017Y-5663D01*
X805058Y-5764D01*
X805109Y-5857D01*
X805164Y-5945D01*
X805169Y-5949D01*
X805178Y-5963D01*
X805197Y-5986D01*
X805224Y-6009D01*
X805252Y-6046D01*
X805294Y-6078D01*
X805335Y-6120D01*
X805386Y-6157D01*
X805442Y-6199D01*
X805502Y-6240D01*
X805566Y-6273D01*
X805640Y-6305D01*
X805714Y-6333D01*
X805793Y-6356D01*
X805876Y-6370D01*
X805964Y-6374D01*
X805982D01*
X806005Y-6370D01*
X806038Y-6365D01*
X806079Y-6360D01*
X806121Y-6351D01*
X806172Y-6337D01*
X806227Y-6319D01*
X806287Y-6296D01*
X806347Y-6268D01*
X806412Y-6231D01*
X806476Y-6189D01*
X806541Y-6143D01*
X806606Y-6083D01*
X806670Y-6019D01*
X806730Y-5940D01*
X806735Y-5935D01*
X806744Y-5922D01*
X806758Y-5894D01*
X806781Y-5857D01*
X806804Y-5811D01*
X806832Y-5755D01*
X806864Y-5686D01*
X806892Y-5612D01*
X806925Y-5524D01*
X806952Y-5427D01*
X806980Y-5316D01*
X807003Y-5201D01*
X807026Y-5071D01*
X807040Y-4933D01*
X807049Y-4780D01*
X807054Y-4623D01*
Y-4619D01*
Y-4614D01*
Y-4600D01*
Y-4586D01*
Y-4540D01*
X807049Y-4480D01*
X807045Y-4406D01*
X807036Y-4323D01*
X807026Y-4226D01*
X807012Y-4129D01*
X806999Y-4023D01*
X806975Y-3912D01*
X806948Y-3805D01*
X806920Y-3695D01*
X806878Y-3588D01*
X806837Y-3487D01*
X806786Y-3394D01*
X806730Y-3306D01*
X806726Y-3302D01*
X806717Y-3288D01*
X806698Y-3265D01*
X806670Y-3237D01*
X806643Y-3205D01*
X806601Y-3168D01*
X806560Y-3131D01*
X806509Y-3089D01*
X806453Y-3048D01*
X806393Y-3011D01*
X806329Y-2974D01*
X806259Y-2942D01*
X806181Y-2914D01*
X806102Y-2891D01*
X806019Y-2877D01*
X805931Y-2872D01*
D02*
G37*
G36*
X857042Y-14614D02*
X857038D01*
X857024Y-14623D01*
X857005Y-14633D01*
X856978Y-14642D01*
X856941Y-14660D01*
X856894Y-14674D01*
X856844Y-14697D01*
X856779Y-14716D01*
X856710Y-14739D01*
X856636Y-14762D01*
X856548Y-14785D01*
X856456Y-14813D01*
X856354Y-14836D01*
X856243Y-14859D01*
X856128Y-14882D01*
X856003Y-14905D01*
X855998D01*
X855984Y-14910D01*
X855966D01*
X855938Y-14919D01*
X855906Y-14923D01*
X855869Y-14933D01*
X855781Y-14951D01*
X855689Y-14974D01*
X855596Y-15002D01*
X855509Y-15034D01*
X855472Y-15048D01*
X855439Y-15067D01*
X855435Y-15071D01*
X855412Y-15081D01*
X855384Y-15104D01*
X855351Y-15131D01*
X855310Y-15168D01*
X855268Y-15210D01*
X855231Y-15261D01*
X855194Y-15316D01*
X855190Y-15326D01*
X855180Y-15344D01*
X855167Y-15376D01*
X855153Y-15423D01*
X855134Y-15478D01*
X855120Y-15543D01*
X855111Y-15612D01*
X855107Y-15690D01*
Y-15695D01*
Y-15704D01*
Y-15723D01*
X855111Y-15746D01*
Y-15774D01*
X855116Y-15806D01*
X855130Y-15880D01*
X855157Y-15963D01*
X855190Y-16051D01*
X855241Y-16134D01*
X855268Y-16175D01*
X855305Y-16213D01*
X855310D01*
X855315Y-16222D01*
X855328Y-16231D01*
X855342Y-16245D01*
X855388Y-16273D01*
X855453Y-16309D01*
X855532Y-16346D01*
X855629Y-16374D01*
X855739Y-16397D01*
X855869Y-16407D01*
X855901D01*
X855924Y-16402D01*
X855957D01*
X855989Y-16397D01*
X856072Y-16383D01*
X856169Y-16365D01*
X856271Y-16333D01*
X856377Y-16291D01*
X856483Y-16231D01*
X856488D01*
X856497Y-16222D01*
X856511Y-16213D01*
X856530Y-16199D01*
X856580Y-16162D01*
X856640Y-16106D01*
X856710Y-16037D01*
X856779Y-15958D01*
X856848Y-15866D01*
X856904Y-15760D01*
Y-15755D01*
X856908Y-15746D01*
X856918Y-15727D01*
X856927Y-15704D01*
X856936Y-15672D01*
X856950Y-15635D01*
X856959Y-15593D01*
X856973Y-15543D01*
X856987Y-15483D01*
X857001Y-15418D01*
X857010Y-15349D01*
X857019Y-15270D01*
X857028Y-15187D01*
X857038Y-15099D01*
X857042Y-15002D01*
Y-14900D01*
Y-14614D01*
D02*
G37*
G36*
X832136D02*
X832131D01*
X832117Y-14623D01*
X832099Y-14633D01*
X832071Y-14642D01*
X832034Y-14660D01*
X831988Y-14674D01*
X831937Y-14697D01*
X831873Y-14716D01*
X831803Y-14739D01*
X831729Y-14762D01*
X831642Y-14785D01*
X831549Y-14813D01*
X831448Y-14836D01*
X831337Y-14859D01*
X831221Y-14882D01*
X831096Y-14905D01*
X831092D01*
X831078Y-14910D01*
X831059D01*
X831032Y-14919D01*
X830999Y-14923D01*
X830962Y-14933D01*
X830875Y-14951D01*
X830782Y-14974D01*
X830690Y-15002D01*
X830602Y-15034D01*
X830565Y-15048D01*
X830533Y-15067D01*
X830528Y-15071D01*
X830505Y-15081D01*
X830477Y-15104D01*
X830445Y-15131D01*
X830403Y-15168D01*
X830362Y-15210D01*
X830325Y-15261D01*
X830288Y-15316D01*
X830283Y-15326D01*
X830274Y-15344D01*
X830260Y-15376D01*
X830246Y-15423D01*
X830228Y-15478D01*
X830214Y-15543D01*
X830205Y-15612D01*
X830200Y-15690D01*
Y-15695D01*
Y-15704D01*
Y-15723D01*
X830205Y-15746D01*
Y-15774D01*
X830209Y-15806D01*
X830223Y-15880D01*
X830251Y-15963D01*
X830283Y-16051D01*
X830334Y-16134D01*
X830362Y-16175D01*
X830399Y-16213D01*
X830403D01*
X830408Y-16222D01*
X830422Y-16231D01*
X830436Y-16245D01*
X830482Y-16273D01*
X830547Y-16309D01*
X830625Y-16346D01*
X830722Y-16374D01*
X830833Y-16397D01*
X830962Y-16407D01*
X830995D01*
X831018Y-16402D01*
X831050D01*
X831083Y-16397D01*
X831166Y-16383D01*
X831263Y-16365D01*
X831364Y-16333D01*
X831471Y-16291D01*
X831577Y-16231D01*
X831581D01*
X831591Y-16222D01*
X831605Y-16213D01*
X831623Y-16199D01*
X831674Y-16162D01*
X831734Y-16106D01*
X831803Y-16037D01*
X831873Y-15958D01*
X831942Y-15866D01*
X831997Y-15760D01*
Y-15755D01*
X832002Y-15746D01*
X832011Y-15727D01*
X832020Y-15704D01*
X832030Y-15672D01*
X832043Y-15635D01*
X832053Y-15593D01*
X832067Y-15543D01*
X832080Y-15483D01*
X832094Y-15418D01*
X832104Y-15349D01*
X832113Y-15270D01*
X832122Y-15187D01*
X832131Y-15099D01*
X832136Y-15002D01*
Y-14900D01*
Y-14614D01*
D02*
G37*
G36*
X842531Y-12872D02*
X842489D01*
X842462Y-12877D01*
X842425Y-12881D01*
X842379Y-12891D01*
X842332Y-12900D01*
X842281Y-12918D01*
X842226Y-12937D01*
X842166Y-12960D01*
X842106Y-12988D01*
X842046Y-13020D01*
X841981Y-13062D01*
X841921Y-13113D01*
X841861Y-13163D01*
X841801Y-13228D01*
X841796Y-13233D01*
X841787Y-13247D01*
X841773Y-13265D01*
X841755Y-13293D01*
X841732Y-13330D01*
X841704Y-13371D01*
X841676Y-13422D01*
X841648Y-13482D01*
X841616Y-13547D01*
X841588Y-13616D01*
X841561Y-13695D01*
X841538Y-13782D01*
X841514Y-13875D01*
X841496Y-13972D01*
X841482Y-14073D01*
X841473Y-14184D01*
X843566D01*
Y-14180D01*
Y-14157D01*
X843561Y-14129D01*
X843557Y-14087D01*
X843547Y-14037D01*
X843538Y-13981D01*
X843529Y-13921D01*
X843515Y-13852D01*
X843483Y-13709D01*
X843441Y-13561D01*
X843381Y-13422D01*
X843349Y-13357D01*
X843312Y-13302D01*
X843307Y-13297D01*
X843298Y-13283D01*
X843279Y-13260D01*
X843256Y-13233D01*
X843224Y-13200D01*
X843187Y-13168D01*
X843145Y-13126D01*
X843099Y-13085D01*
X843044Y-13048D01*
X842984Y-13006D01*
X842919Y-12974D01*
X842850Y-12937D01*
X842780Y-12914D01*
X842702Y-12891D01*
X842619Y-12877D01*
X842531Y-12872D01*
D02*
G37*
G36*
X818424Y-12872D02*
X818382D01*
X818355Y-12877D01*
X818318Y-12881D01*
X818271Y-12891D01*
X818225Y-12900D01*
X818174Y-12919D01*
X818119Y-12937D01*
X818059Y-12960D01*
X817999Y-12988D01*
X817939Y-13020D01*
X817874Y-13062D01*
X817814Y-13113D01*
X817754Y-13163D01*
X817694Y-13228D01*
X817689Y-13233D01*
X817680Y-13247D01*
X817666Y-13265D01*
X817648Y-13293D01*
X817624Y-13330D01*
X817597Y-13371D01*
X817569Y-13422D01*
X817541Y-13482D01*
X817509Y-13547D01*
X817481Y-13616D01*
X817454Y-13695D01*
X817430Y-13782D01*
X817407Y-13875D01*
X817389Y-13972D01*
X817375Y-14073D01*
X817366Y-14184D01*
X819459D01*
Y-14180D01*
Y-14157D01*
X819454Y-14129D01*
X819449Y-14087D01*
X819440Y-14037D01*
X819431Y-13981D01*
X819422Y-13921D01*
X819408Y-13852D01*
X819376Y-13709D01*
X819334Y-13561D01*
X819274Y-13422D01*
X819242Y-13357D01*
X819205Y-13302D01*
X819200Y-13297D01*
X819191Y-13283D01*
X819172Y-13260D01*
X819149Y-13233D01*
X819117Y-13200D01*
X819080Y-13168D01*
X819038Y-13126D01*
X818992Y-13085D01*
X818937Y-13048D01*
X818876Y-13006D01*
X818812Y-12974D01*
X818742Y-12937D01*
X818673Y-12914D01*
X818595Y-12891D01*
X818511Y-12877D01*
X818424Y-12872D01*
D02*
G37*
G36*
X811240D02*
X811221D01*
X811203Y-12877D01*
X811175D01*
X811138Y-12886D01*
X811101Y-12895D01*
X811055Y-12909D01*
X811004Y-12928D01*
X810953Y-12951D01*
X810898Y-12979D01*
X810838Y-13015D01*
X810778Y-13057D01*
X810718Y-13108D01*
X810658Y-13168D01*
X810598Y-13237D01*
X810537Y-13316D01*
X810533Y-13320D01*
X810524Y-13334D01*
X810510Y-13362D01*
X810491Y-13399D01*
X810468Y-13445D01*
X810440Y-13501D01*
X810413Y-13565D01*
X810385Y-13639D01*
X810357Y-13727D01*
X810330Y-13819D01*
X810302Y-13926D01*
X810279Y-14037D01*
X810260Y-14161D01*
X810246Y-14295D01*
X810237Y-14438D01*
X810233Y-14591D01*
Y-14600D01*
Y-14623D01*
Y-14660D01*
Y-14706D01*
X810237Y-14766D01*
Y-14836D01*
X810242Y-14910D01*
X810246Y-14988D01*
X810265Y-15164D01*
X810283Y-15339D01*
X810302Y-15427D01*
X810316Y-15506D01*
X810334Y-15584D01*
X810357Y-15653D01*
Y-15658D01*
X810362Y-15667D01*
X810371Y-15686D01*
X810380Y-15709D01*
X810394Y-15741D01*
X810413Y-15774D01*
X810450Y-15852D01*
X810505Y-15940D01*
X810565Y-16028D01*
X810639Y-16111D01*
X810722Y-16189D01*
X810727D01*
X810732Y-16199D01*
X810745Y-16208D01*
X810764Y-16217D01*
X810815Y-16250D01*
X810879Y-16282D01*
X810958Y-16314D01*
X811046Y-16346D01*
X811143Y-16365D01*
X811249Y-16374D01*
X811267D01*
X811286Y-16370D01*
X811314Y-16365D01*
X811351Y-16360D01*
X811388Y-16351D01*
X811434Y-16337D01*
X811485Y-16319D01*
X811535Y-16296D01*
X811591Y-16268D01*
X811651Y-16231D01*
X811711Y-16189D01*
X811771Y-16139D01*
X811831Y-16079D01*
X811887Y-16014D01*
X811946Y-15935D01*
X811951Y-15931D01*
X811960Y-15917D01*
X811974Y-15889D01*
X811993Y-15852D01*
X812016Y-15806D01*
X812043Y-15751D01*
X812071Y-15681D01*
X812099Y-15607D01*
X812127Y-15519D01*
X812154Y-15423D01*
X812182Y-15312D01*
X812205Y-15196D01*
X812224Y-15067D01*
X812238Y-14928D01*
X812247Y-14776D01*
X812251Y-14619D01*
Y-14614D01*
Y-14609D01*
Y-14595D01*
Y-14577D01*
Y-14531D01*
X812247Y-14471D01*
X812242Y-14397D01*
X812238Y-14309D01*
X812228Y-14217D01*
X812214Y-14115D01*
X812201Y-14009D01*
X812177Y-13898D01*
X812154Y-13792D01*
X812127Y-13681D01*
X812094Y-13575D01*
X812053Y-13473D01*
X812007Y-13380D01*
X811956Y-13297D01*
X811951Y-13293D01*
X811942Y-13279D01*
X811928Y-13256D01*
X811905Y-13233D01*
X811877Y-13200D01*
X811840Y-13163D01*
X811803Y-13126D01*
X811757Y-13085D01*
X811706Y-13043D01*
X811656Y-13006D01*
X811595Y-12969D01*
X811531Y-12937D01*
X811461Y-12909D01*
X811392Y-12891D01*
X811318Y-12877D01*
X811240Y-12872D01*
D02*
G37*
G36*
X807133D02*
X807114D01*
X807091Y-12877D01*
X807059D01*
X807017Y-12886D01*
X806971Y-12895D01*
X806920Y-12909D01*
X806864Y-12928D01*
X806809Y-12951D01*
X806744Y-12979D01*
X806680Y-13015D01*
X806615Y-13057D01*
X806550Y-13108D01*
X806486Y-13168D01*
X806421Y-13233D01*
X806361Y-13311D01*
X806356Y-13316D01*
X806347Y-13330D01*
X806333Y-13357D01*
X806310Y-13394D01*
X806287Y-13441D01*
X806264Y-13496D01*
X806232Y-13561D01*
X806204Y-13639D01*
X806176Y-13727D01*
X806148Y-13824D01*
X806121Y-13930D01*
X806098Y-14046D01*
X806075Y-14175D01*
X806061Y-14314D01*
X806051Y-14461D01*
X806047Y-14623D01*
Y-14628D01*
Y-14633D01*
Y-14646D01*
Y-14660D01*
Y-14706D01*
X806051Y-14766D01*
X806056Y-14840D01*
X806065Y-14928D01*
X806075Y-15021D01*
X806088Y-15122D01*
X806102Y-15228D01*
X806125Y-15335D01*
X806148Y-15446D01*
X806181Y-15556D01*
X806218Y-15663D01*
X806259Y-15764D01*
X806310Y-15857D01*
X806366Y-15945D01*
X806370Y-15949D01*
X806379Y-15963D01*
X806398Y-15986D01*
X806426Y-16009D01*
X806453Y-16046D01*
X806495Y-16079D01*
X806536Y-16120D01*
X806587Y-16157D01*
X806643Y-16199D01*
X806703Y-16240D01*
X806767Y-16273D01*
X806841Y-16305D01*
X806915Y-16333D01*
X806994Y-16356D01*
X807077Y-16370D01*
X807165Y-16374D01*
X807183D01*
X807206Y-16370D01*
X807239Y-16365D01*
X807280Y-16360D01*
X807322Y-16351D01*
X807373Y-16337D01*
X807428Y-16319D01*
X807488Y-16296D01*
X807548Y-16268D01*
X807613Y-16231D01*
X807678Y-16189D01*
X807742Y-16143D01*
X807807Y-16083D01*
X807872Y-16018D01*
X807932Y-15940D01*
X807936Y-15935D01*
X807946Y-15921D01*
X807959Y-15894D01*
X807983Y-15857D01*
X808006Y-15811D01*
X808033Y-15755D01*
X808066Y-15686D01*
X808093Y-15612D01*
X808126Y-15524D01*
X808154Y-15427D01*
X808181Y-15316D01*
X808204Y-15201D01*
X808227Y-15071D01*
X808241Y-14933D01*
X808251Y-14780D01*
X808255Y-14623D01*
Y-14619D01*
Y-14614D01*
Y-14600D01*
Y-14586D01*
Y-14540D01*
X808251Y-14480D01*
X808246Y-14406D01*
X808237Y-14323D01*
X808227Y-14226D01*
X808214Y-14129D01*
X808200Y-14023D01*
X808177Y-13912D01*
X808149Y-13805D01*
X808121Y-13695D01*
X808080Y-13588D01*
X808038Y-13487D01*
X807987Y-13394D01*
X807932Y-13307D01*
X807927Y-13302D01*
X807918Y-13288D01*
X807899Y-13265D01*
X807872Y-13237D01*
X807844Y-13205D01*
X807802Y-13168D01*
X807761Y-13131D01*
X807710Y-13089D01*
X807654Y-13048D01*
X807594Y-13011D01*
X807530Y-12974D01*
X807460Y-12942D01*
X807382Y-12914D01*
X807303Y-12891D01*
X807220Y-12877D01*
X807133Y-12872D01*
D02*
G37*
%LPD*%
D12*
X18189Y41697D02*
G03*
X23308Y46815I0J5118D01*
G01*
X23308Y71307D02*
G03*
X18189Y76425I-5118J-0D01*
G01*
X268701Y35504D02*
G03*
X273819Y30384I5119J-1D01*
G01*
Y168686D02*
G03*
X268701Y163567I0J-5118D01*
G01*
X240158Y208661D02*
G03*
X259842Y228346I0J19685D01*
G01*
X35433D02*
G03*
X55118Y208661I19685J0D01*
G01*
X266498Y267717D02*
G03*
X259842Y261061I0J-6656D01*
G01*
X0Y19685D02*
G03*
X19685Y0I19685J0D01*
G01*
X275590D02*
G03*
X295276Y19685I0J19685D01*
G01*
Y248031D02*
G03*
X275590Y267717I-19685J0D01*
G01*
X19685D02*
G03*
X0Y248031I0J-19685D01*
G01*
Y19685D02*
Y41697D01*
X-0Y76425D02*
X0Y248031D01*
X268701Y35504D02*
Y163567D01*
X273819Y168686D02*
X295276D01*
Y19685D02*
Y30384D01*
X273819D02*
X295276D01*
X295276Y168685D02*
X295276Y248031D01*
X266498Y267717D02*
X275590D01*
X259842Y228346D02*
Y261061D01*
X55118Y208661D02*
X240158D01*
X35433Y228346D02*
Y267717D01*
X19685D02*
X35433D01*
X19685Y0D02*
X275590D01*
D13*
X0Y41697D02*
X18189D01*
X0Y76425D02*
X18189D01*
X23307Y46815D02*
Y71307D01*
M02*
