G04*
G04 #@! TF.GenerationSoftware,Altium Limited,Altium Designer,21.5.0 (25)*
G04*
G04 Layer_Physical_Order=1*
G04 Layer_Color=255*
%FSLAX25Y25*%
%MOIN*%
G70*
G04*
G04 #@! TF.SameCoordinates,B52814C9-DCD9-4C92-8852-15DF41944D51*
G04*
G04*
G04 #@! TF.FilePolarity,Positive*
G04*
G01*
G75*
%ADD12C,0.01000*%
%ADD17R,0.04134X0.03740*%
%ADD18R,0.03937X0.03937*%
%ADD19R,0.01968X0.01378*%
%ADD20O,0.09843X0.03937*%
%ADD21R,0.09843X0.03937*%
%ADD33C,0.03937*%
%ADD34C,0.00700*%
%ADD35C,0.02000*%
%ADD36R,0.06299X0.06299*%
%ADD37C,0.06299*%
%ADD38R,0.06299X0.06299*%
%ADD39C,0.02362*%
%ADD40C,0.03150*%
G36*
X292727Y171588D02*
X292373Y171234D01*
X273819Y171235D01*
X273757Y171222D01*
X273694Y171231D01*
X273192Y171207D01*
X273009Y171161D01*
X272820Y171161D01*
X271836Y170965D01*
X271604Y170869D01*
X271357Y170820D01*
X270430Y170436D01*
X270222Y170297D01*
X269990Y170200D01*
X269156Y169643D01*
X268978Y169465D01*
X268769Y169326D01*
X268060Y168616D01*
X267920Y168408D01*
X267743Y168230D01*
X267186Y167396D01*
X267090Y167164D01*
X266950Y166955D01*
X266566Y166028D01*
X266517Y165782D01*
X266421Y165550D01*
X266225Y164566D01*
X266225Y164377D01*
X266179Y164193D01*
X266155Y163692D01*
X266164Y163629D01*
X266152Y163567D01*
Y36267D01*
X266063D01*
Y28370D01*
X264850Y26950D01*
X263562Y24848D01*
X262619Y22571D01*
X262043Y20174D01*
X261850Y17717D01*
X262043Y15259D01*
X262619Y12862D01*
X263562Y10585D01*
X264850Y8483D01*
X266063Y7063D01*
Y2549D01*
X258815D01*
X258526Y3049D01*
X258863Y3632D01*
X259125Y4611D01*
Y5625D01*
X258863Y6604D01*
X258356Y7482D01*
X257639Y8199D01*
X256762Y8705D01*
X255782Y8968D01*
X254769D01*
X253790Y8705D01*
X252912Y8199D01*
X252195Y7482D01*
X251688Y6604D01*
X251426Y5625D01*
Y4611D01*
X251688Y3632D01*
X252025Y3049D01*
X251736Y2549D01*
X248815D01*
X248526Y3049D01*
X248863Y3632D01*
X249125Y4611D01*
Y5625D01*
X248863Y6604D01*
X248356Y7482D01*
X247639Y8199D01*
X246761Y8705D01*
X245782Y8968D01*
X244769D01*
X243790Y8705D01*
X242912Y8199D01*
X242195Y7482D01*
X241688Y6604D01*
X241426Y5625D01*
Y4611D01*
X241688Y3632D01*
X242025Y3049D01*
X241736Y2549D01*
X238815D01*
X238526Y3049D01*
X238863Y3632D01*
X239125Y4611D01*
Y5625D01*
X238863Y6604D01*
X238356Y7482D01*
X237639Y8199D01*
X236761Y8705D01*
X235782Y8968D01*
X234769D01*
X233790Y8705D01*
X232912Y8199D01*
X232195Y7482D01*
X231688Y6604D01*
X231426Y5625D01*
Y4611D01*
X231688Y3632D01*
X232025Y3049D01*
X231736Y2549D01*
X228815D01*
X228526Y3049D01*
X228863Y3632D01*
X229125Y4611D01*
Y5625D01*
X228863Y6604D01*
X228356Y7482D01*
X227639Y8199D01*
X226762Y8705D01*
X225782Y8968D01*
X224769D01*
X223790Y8705D01*
X223554Y8569D01*
X219119Y13005D01*
X218723Y13270D01*
X218254Y13363D01*
X72052D01*
X71681Y13734D01*
X70989Y14021D01*
X70241D01*
X69550Y13734D01*
X69020Y13205D01*
X68734Y12514D01*
Y11765D01*
X69020Y11074D01*
X69550Y10545D01*
X70241Y10258D01*
X70989D01*
X71681Y10545D01*
X72052Y10916D01*
X217747D01*
X221824Y6839D01*
X221688Y6604D01*
X221426Y5625D01*
Y4611D01*
X221688Y3632D01*
X222025Y3049D01*
X221736Y2549D01*
X218815D01*
X218526Y3049D01*
X218863Y3632D01*
X219125Y4611D01*
Y5625D01*
X218863Y6604D01*
X218356Y7482D01*
X217639Y8199D01*
X216761Y8705D01*
X215782Y8968D01*
X214769D01*
X213790Y8705D01*
X212912Y8199D01*
X212195Y7482D01*
X211688Y6604D01*
X211426Y5625D01*
Y4611D01*
X211688Y3632D01*
X212025Y3049D01*
X211736Y2549D01*
X208815D01*
X208526Y3049D01*
X208863Y3632D01*
X209125Y4611D01*
Y5625D01*
X208863Y6604D01*
X208356Y7482D01*
X207639Y8199D01*
X206762Y8705D01*
X205782Y8968D01*
X204769D01*
X203790Y8705D01*
X202912Y8199D01*
X202195Y7482D01*
X201688Y6604D01*
X201426Y5625D01*
Y4611D01*
X201688Y3632D01*
X202025Y3049D01*
X201736Y2549D01*
X198815D01*
X198526Y3049D01*
X198863Y3632D01*
X199125Y4611D01*
Y5625D01*
X198863Y6604D01*
X198356Y7482D01*
X197639Y8199D01*
X196762Y8705D01*
X195782Y8968D01*
X194769D01*
X193790Y8705D01*
X192912Y8199D01*
X192195Y7482D01*
X191688Y6604D01*
X191426Y5625D01*
Y4611D01*
X191688Y3632D01*
X192025Y3049D01*
X191736Y2549D01*
X188815D01*
X188526Y3049D01*
X188863Y3632D01*
X189125Y4611D01*
Y5625D01*
X188863Y6604D01*
X188356Y7482D01*
X187639Y8199D01*
X186761Y8705D01*
X185782Y8968D01*
X184769D01*
X183790Y8705D01*
X182912Y8199D01*
X182195Y7482D01*
X181688Y6604D01*
X181426Y5625D01*
Y4611D01*
X181688Y3632D01*
X182025Y3049D01*
X181736Y2549D01*
X178815D01*
X178526Y3049D01*
X178863Y3632D01*
X179125Y4611D01*
Y5625D01*
X178863Y6604D01*
X178356Y7482D01*
X177639Y8199D01*
X176761Y8705D01*
X175782Y8968D01*
X174769D01*
X173790Y8705D01*
X172912Y8199D01*
X172195Y7482D01*
X171688Y6604D01*
X171426Y5625D01*
Y4611D01*
X171688Y3632D01*
X172025Y3049D01*
X171736Y2549D01*
X168815D01*
X168526Y3049D01*
X168863Y3632D01*
X169125Y4611D01*
Y5625D01*
X168863Y6604D01*
X168356Y7482D01*
X167639Y8199D01*
X166762Y8705D01*
X165782Y8968D01*
X164769D01*
X163790Y8705D01*
X162912Y8199D01*
X162195Y7482D01*
X161688Y6604D01*
X161426Y5625D01*
Y4611D01*
X161688Y3632D01*
X162025Y3049D01*
X161736Y2549D01*
X158815D01*
X158526Y3049D01*
X158863Y3632D01*
X159125Y4611D01*
Y5625D01*
X158863Y6604D01*
X158356Y7482D01*
X157639Y8199D01*
X156762Y8705D01*
X155782Y8968D01*
X154769D01*
X153790Y8705D01*
X152912Y8199D01*
X152195Y7482D01*
X151688Y6604D01*
X151426Y5625D01*
Y4611D01*
X151688Y3632D01*
X152025Y3049D01*
X151736Y2549D01*
X148815D01*
X148526Y3049D01*
X148863Y3632D01*
X149125Y4611D01*
Y5625D01*
X148863Y6604D01*
X148356Y7482D01*
X147639Y8199D01*
X146762Y8705D01*
X145782Y8968D01*
X144769D01*
X143790Y8705D01*
X142912Y8199D01*
X142195Y7482D01*
X141688Y6604D01*
X141426Y5625D01*
Y4611D01*
X141688Y3632D01*
X142025Y3049D01*
X141736Y2549D01*
X138815D01*
X138526Y3049D01*
X138863Y3632D01*
X139125Y4611D01*
Y5625D01*
X138863Y6604D01*
X138356Y7482D01*
X137639Y8199D01*
X136761Y8705D01*
X135782Y8968D01*
X134769D01*
X133790Y8705D01*
X132912Y8199D01*
X132195Y7482D01*
X131688Y6604D01*
X131426Y5625D01*
Y4611D01*
X131688Y3632D01*
X132025Y3049D01*
X131736Y2549D01*
X128815D01*
X128526Y3049D01*
X128863Y3632D01*
X129125Y4611D01*
Y5625D01*
X128863Y6604D01*
X128356Y7482D01*
X127639Y8199D01*
X126761Y8705D01*
X125782Y8968D01*
X124769D01*
X123790Y8705D01*
X122912Y8199D01*
X122195Y7482D01*
X121688Y6604D01*
X121426Y5625D01*
Y4611D01*
X121688Y3632D01*
X122025Y3049D01*
X121736Y2549D01*
X118815D01*
X118526Y3049D01*
X118863Y3632D01*
X119125Y4611D01*
Y5625D01*
X118863Y6604D01*
X118356Y7482D01*
X117639Y8199D01*
X116762Y8705D01*
X115782Y8968D01*
X114769D01*
X113790Y8705D01*
X112912Y8199D01*
X112195Y7482D01*
X111688Y6604D01*
X111426Y5625D01*
Y4611D01*
X111688Y3632D01*
X112025Y3049D01*
X111736Y2549D01*
X109161D01*
X108872Y3049D01*
X109142Y3516D01*
X109425Y4572D01*
Y4618D01*
X101126D01*
Y4572D01*
X101409Y3516D01*
X101679Y3049D01*
X101390Y2549D01*
X98815D01*
X98526Y3049D01*
X98863Y3632D01*
X99125Y4611D01*
Y5625D01*
X98863Y6604D01*
X98356Y7482D01*
X97639Y8199D01*
X96762Y8705D01*
X95782Y8968D01*
X94769D01*
X93790Y8705D01*
X92912Y8199D01*
X92195Y7482D01*
X91688Y6604D01*
X91426Y5625D01*
Y4611D01*
X91688Y3632D01*
X92025Y3049D01*
X91736Y2549D01*
X88815D01*
X88526Y3049D01*
X88863Y3632D01*
X89125Y4611D01*
Y5625D01*
X88863Y6604D01*
X88356Y7482D01*
X87639Y8199D01*
X86761Y8705D01*
X85782Y8968D01*
X84769D01*
X83790Y8705D01*
X82912Y8199D01*
X82195Y7482D01*
X81688Y6604D01*
X81426Y5625D01*
Y4611D01*
X81688Y3632D01*
X82025Y3049D01*
X81736Y2549D01*
X78815D01*
X78526Y3049D01*
X78863Y3632D01*
X79125Y4611D01*
Y5625D01*
X78863Y6604D01*
X78356Y7482D01*
X77639Y8199D01*
X76762Y8705D01*
X75782Y8968D01*
X74769D01*
X73790Y8705D01*
X72912Y8199D01*
X72195Y7482D01*
X71688Y6604D01*
X71426Y5625D01*
Y4611D01*
X71688Y3632D01*
X72025Y3049D01*
X71736Y2549D01*
X68815D01*
X68526Y3049D01*
X68863Y3632D01*
X69125Y4611D01*
Y5625D01*
X68863Y6604D01*
X68356Y7482D01*
X67639Y8199D01*
X66761Y8705D01*
X65782Y8968D01*
X64769D01*
X63790Y8705D01*
X62912Y8199D01*
X62195Y7482D01*
X61688Y6604D01*
X61426Y5625D01*
Y4611D01*
X61688Y3632D01*
X62025Y3049D01*
X61736Y2549D01*
X58815D01*
X58526Y3049D01*
X58863Y3632D01*
X59125Y4611D01*
Y5625D01*
X58863Y6604D01*
X58356Y7482D01*
X57639Y8199D01*
X56761Y8705D01*
X55782Y8968D01*
X54769D01*
X53790Y8705D01*
X52912Y8199D01*
X52195Y7482D01*
X51688Y6604D01*
X51426Y5625D01*
Y4611D01*
X51688Y3632D01*
X52025Y3049D01*
X51736Y2549D01*
X49125D01*
Y8968D01*
X41426D01*
Y2549D01*
X23328D01*
X23229Y3049D01*
X24848Y3720D01*
X26950Y5008D01*
X28824Y6609D01*
X30425Y8483D01*
X31713Y10585D01*
X32657Y12862D01*
X33232Y15259D01*
X33426Y17717D01*
X33232Y20174D01*
X32657Y22571D01*
X31713Y24848D01*
X30425Y26950D01*
X28824Y28824D01*
X26950Y30425D01*
X24848Y31713D01*
X22571Y32657D01*
X20174Y33232D01*
X17717Y33426D01*
X15259Y33232D01*
X14701Y33098D01*
X13441D01*
X13163Y33514D01*
X13351Y33966D01*
X13544Y35433D01*
X13351Y36900D01*
X12784Y38268D01*
X12453Y38700D01*
X12674Y39148D01*
X18189D01*
X18251Y39160D01*
X18314Y39151D01*
X18815Y39176D01*
X18999Y39222D01*
X19188Y39222D01*
X20172Y39417D01*
X20404Y39513D01*
X20650Y39562D01*
X21577Y39946D01*
X21786Y40086D01*
X22018Y40182D01*
X22852Y40739D01*
X23030Y40917D01*
X23238Y41056D01*
X23948Y41766D01*
X24087Y41974D01*
X24265Y42152D01*
X24823Y42986D01*
X24919Y43218D01*
X25058Y43427D01*
X25442Y44354D01*
X25491Y44600D01*
X25587Y44832D01*
X25783Y45816D01*
X25783Y46005D01*
X25829Y46188D01*
X25854Y46690D01*
X25844Y46753D01*
X25857Y46815D01*
X25856Y71307D01*
X25844Y71369D01*
X25853Y71432D01*
X25828Y71934D01*
X25782Y72117D01*
Y72306D01*
X25587Y73290D01*
X25491Y73522D01*
X25442Y73768D01*
X25058Y74695D01*
X24918Y74904D01*
X24822Y75136D01*
X24265Y75970D01*
X24087Y76148D01*
X23948Y76356D01*
X23238Y77066D01*
X23030Y77205D01*
X22852Y77383D01*
X22018Y77940D01*
X21786Y78036D01*
X21577Y78176D01*
X20650Y78560D01*
X20404Y78609D01*
X20172Y78705D01*
X19188Y78900D01*
X18999D01*
X18816Y78946D01*
X18314Y78971D01*
X18251Y78962D01*
X18189Y78974D01*
X2549D01*
X2549Y197716D01*
X3049Y197842D01*
X3865Y196778D01*
X5039Y195877D01*
X6407Y195311D01*
X7874Y195118D01*
X9341Y195311D01*
X10709Y195877D01*
X11883Y196778D01*
X12784Y197952D01*
X13351Y199320D01*
X13544Y200787D01*
X13351Y202255D01*
X12784Y203622D01*
X12111Y204500D01*
X12357Y205000D01*
X280735D01*
X280835Y204500D01*
X280474Y204351D01*
X279945Y203821D01*
X279659Y203130D01*
Y202382D01*
X279945Y201690D01*
X279964Y201672D01*
X279773Y201210D01*
X279610D01*
Y200021D01*
X281594D01*
Y199021D01*
X279610D01*
Y198185D01*
X278312D01*
X276112Y200386D01*
X275715Y200651D01*
X275247Y200744D01*
X275207D01*
Y200910D01*
X271839D01*
X271600Y201311D01*
Y201463D01*
X269033D01*
Y198592D01*
X268533D01*
Y198092D01*
X265466D01*
Y195722D01*
X265466D01*
X265766Y195454D01*
Y190314D01*
X271300D01*
Y190620D01*
X271839D01*
Y190455D01*
X275207D01*
Y190620D01*
X277717D01*
X279724Y188613D01*
Y188387D01*
X280010Y187695D01*
X280539Y187166D01*
X281230Y186880D01*
X281979D01*
X282670Y187166D01*
X283199Y187695D01*
X283486Y188387D01*
Y189135D01*
X283199Y189826D01*
X283071Y189955D01*
X283278Y190455D01*
X283278D01*
Y190620D01*
X284180D01*
X285898Y188903D01*
Y188378D01*
X286184Y187686D01*
X286713Y187157D01*
X287405Y186871D01*
X288153D01*
X288844Y187157D01*
X289373Y187686D01*
X289660Y188378D01*
Y189126D01*
X289373Y189818D01*
X288844Y190347D01*
X288153Y190633D01*
X287628D01*
X285552Y192709D01*
X285155Y192974D01*
X285009Y193003D01*
X284903Y193534D01*
X284909Y193537D01*
X285494Y194123D01*
X285759Y194520D01*
X285853Y194988D01*
Y199856D01*
X285759Y200324D01*
X285494Y200721D01*
X283421Y202794D01*
Y203130D01*
X283135Y203821D01*
X282606Y204351D01*
X282245Y204500D01*
X282344Y205000D01*
X292727D01*
X292727Y171588D01*
D02*
G37*
G36*
X810149Y-2239D02*
X810186Y-2244D01*
X810233Y-2248D01*
X810283Y-2258D01*
X810339Y-2267D01*
X810464Y-2299D01*
X810528Y-2318D01*
X810598Y-2346D01*
X810667Y-2378D01*
X810736Y-2410D01*
X810801Y-2452D01*
X810870Y-2498D01*
X810875Y-2503D01*
X810884Y-2512D01*
X810907Y-2526D01*
X810930Y-2549D01*
X810962Y-2577D01*
X810995Y-2609D01*
X811036Y-2651D01*
X811078Y-2697D01*
X811124Y-2747D01*
X811170Y-2808D01*
X811217Y-2872D01*
X811267Y-2946D01*
X811314Y-3025D01*
X811360Y-3108D01*
X811406Y-3200D01*
X811448Y-3297D01*
X811452Y-3302D01*
X811457Y-3320D01*
X811466Y-3353D01*
X811480Y-3394D01*
X811498Y-3445D01*
X811517Y-3505D01*
X811535Y-3579D01*
X811558Y-3658D01*
X811577Y-3750D01*
X811595Y-3847D01*
X811614Y-3953D01*
X811632Y-4069D01*
X811646Y-4189D01*
X811656Y-4314D01*
X811665Y-4448D01*
Y-4586D01*
Y-4591D01*
Y-4600D01*
Y-4614D01*
Y-4637D01*
Y-4665D01*
X811660Y-4697D01*
Y-4734D01*
X811656Y-4780D01*
X811651Y-4877D01*
X811637Y-4988D01*
X811623Y-5113D01*
X811605Y-5247D01*
X811577Y-5390D01*
X811545Y-5538D01*
X811508Y-5686D01*
X811457Y-5838D01*
X811401Y-5986D01*
X811337Y-6125D01*
X811263Y-6259D01*
X811175Y-6383D01*
X811170Y-6388D01*
X811152Y-6411D01*
X811124Y-6443D01*
X811087Y-6481D01*
X811041Y-6531D01*
X810986Y-6582D01*
X810921Y-6638D01*
X810847Y-6698D01*
X810768Y-6758D01*
X810681Y-6813D01*
X810584Y-6864D01*
X810487Y-6915D01*
X810380Y-6952D01*
X810265Y-6984D01*
X810149Y-7002D01*
X810029Y-7012D01*
X810001D01*
X809978Y-7007D01*
X809955D01*
X809923Y-7002D01*
X809849Y-6993D01*
X809766Y-6975D01*
X809674Y-6947D01*
X809577Y-6915D01*
X809479Y-6864D01*
X809475D01*
X809470Y-6855D01*
X809456Y-6850D01*
X809438Y-6836D01*
X809392Y-6799D01*
X809332Y-6753D01*
X809262Y-6693D01*
X809193Y-6619D01*
X809119Y-6536D01*
X809045Y-6439D01*
Y-8657D01*
X808412D01*
Y-2336D01*
X808999D01*
Y-2932D01*
X809004Y-2928D01*
X809008Y-2914D01*
X809022Y-2895D01*
X809036Y-2872D01*
X809054Y-2840D01*
X809082Y-2808D01*
X809138Y-2729D01*
X809207Y-2641D01*
X809285Y-2554D01*
X809378Y-2470D01*
X809424Y-2433D01*
X809470Y-2401D01*
X809475D01*
X809484Y-2392D01*
X809498Y-2387D01*
X809516Y-2373D01*
X809544Y-2364D01*
X809572Y-2350D01*
X809646Y-2318D01*
X809733Y-2286D01*
X809835Y-2262D01*
X809951Y-2244D01*
X810075Y-2235D01*
X810117D01*
X810149Y-2239D01*
D02*
G37*
G36*
X831558Y-2239D02*
X831586Y-2244D01*
X831623Y-2248D01*
X831660Y-2253D01*
X831706Y-2267D01*
X831803Y-2295D01*
X831914Y-2341D01*
X831970Y-2369D01*
X832030Y-2401D01*
X832094Y-2438D01*
X832154Y-2484D01*
X831937Y-3205D01*
X831933D01*
X831928Y-3196D01*
X831914Y-3191D01*
X831896Y-3177D01*
X831849Y-3149D01*
X831789Y-3117D01*
X831720Y-3089D01*
X831642Y-3062D01*
X831558Y-3043D01*
X831475Y-3034D01*
X831443D01*
X831401Y-3043D01*
X831351Y-3052D01*
X831295Y-3071D01*
X831230Y-3094D01*
X831166Y-3131D01*
X831101Y-3177D01*
X831092Y-3182D01*
X831073Y-3205D01*
X831046Y-3237D01*
X831009Y-3279D01*
X830972Y-3339D01*
X830935Y-3404D01*
X830898Y-3482D01*
X830870Y-3574D01*
Y-3579D01*
X830865Y-3593D01*
X830861Y-3621D01*
X830852Y-3653D01*
X830842Y-3695D01*
X830833Y-3741D01*
X830819Y-3796D01*
X830810Y-3856D01*
X830801Y-3926D01*
X830787Y-3999D01*
X830778Y-4078D01*
X830768Y-4161D01*
X830754Y-4332D01*
X830750Y-4517D01*
Y-6905D01*
X830117D01*
Y-2336D01*
X830690D01*
Y-3034D01*
X830694Y-3029D01*
X830699Y-3011D01*
X830713Y-2988D01*
X830727Y-2955D01*
X830745Y-2918D01*
X830768Y-2872D01*
X830819Y-2771D01*
X830884Y-2664D01*
X830949Y-2558D01*
X830986Y-2507D01*
X831018Y-2466D01*
X831055Y-2424D01*
X831087Y-2392D01*
X831096Y-2387D01*
X831120Y-2369D01*
X831157Y-2341D01*
X831207Y-2313D01*
X831272Y-2286D01*
X831341Y-2258D01*
X831420Y-2239D01*
X831503Y-2235D01*
X831535D01*
X831558Y-2239D01*
D02*
G37*
G36*
X824134Y-6979D02*
Y-6984D01*
X824129Y-6989D01*
X824125Y-7002D01*
X824120Y-7021D01*
X824106Y-7063D01*
X824088Y-7127D01*
X824065Y-7197D01*
X824037Y-7280D01*
X824005Y-7372D01*
X823972Y-7469D01*
X823903Y-7672D01*
X823866Y-7774D01*
X823829Y-7871D01*
X823792Y-7964D01*
X823755Y-8047D01*
X823723Y-8121D01*
X823691Y-8185D01*
Y-8190D01*
X823681Y-8199D01*
X823677Y-8213D01*
X823663Y-8236D01*
X823631Y-8287D01*
X823584Y-8356D01*
X823529Y-8426D01*
X823469Y-8499D01*
X823400Y-8569D01*
X823326Y-8624D01*
X823316Y-8629D01*
X823289Y-8643D01*
X823247Y-8666D01*
X823192Y-8689D01*
X823122Y-8716D01*
X823044Y-8735D01*
X822956Y-8754D01*
X822864Y-8758D01*
X822831D01*
X822794Y-8754D01*
X822744Y-8744D01*
X822683Y-8735D01*
X822614Y-8721D01*
X822540Y-8698D01*
X822457Y-8666D01*
X822388Y-7936D01*
X822392D01*
X822397Y-7940D01*
X822425Y-7945D01*
X822462Y-7959D01*
X822513Y-7968D01*
X822568Y-7982D01*
X822628Y-7996D01*
X822688Y-8000D01*
X822744Y-8005D01*
X822776D01*
X822813Y-8000D01*
X822864Y-7996D01*
X822914Y-7987D01*
X822970Y-7968D01*
X823025Y-7950D01*
X823076Y-7922D01*
X823081Y-7917D01*
X823099Y-7908D01*
X823122Y-7885D01*
X823155Y-7857D01*
X823187Y-7825D01*
X823224Y-7779D01*
X823261Y-7728D01*
X823293Y-7668D01*
Y-7663D01*
X823298Y-7659D01*
X823302Y-7649D01*
X823307Y-7631D01*
X823316Y-7612D01*
X823326Y-7585D01*
X823335Y-7548D01*
X823353Y-7506D01*
X823367Y-7455D01*
X823390Y-7391D01*
X823413Y-7317D01*
X823441Y-7233D01*
X823469Y-7136D01*
X823506Y-7026D01*
X823543Y-6901D01*
X822124Y-2336D01*
X822808D01*
X823589Y-4974D01*
Y-4979D01*
X823594Y-4997D01*
X823603Y-5025D01*
X823612Y-5062D01*
X823626Y-5108D01*
X823644Y-5159D01*
X823658Y-5224D01*
X823677Y-5293D01*
X823700Y-5367D01*
X823718Y-5450D01*
X823741Y-5538D01*
X823765Y-5630D01*
X823815Y-5824D01*
X823862Y-6032D01*
Y-6028D01*
X823866Y-6009D01*
X823871Y-5982D01*
X823880Y-5940D01*
X823889Y-5894D01*
X823903Y-5838D01*
X823917Y-5774D01*
X823935Y-5704D01*
X823949Y-5626D01*
X823972Y-5543D01*
X824014Y-5372D01*
X824060Y-5182D01*
X824116Y-4993D01*
X824920Y-2336D01*
X825557D01*
X824134Y-6979D01*
D02*
G37*
G36*
X820147Y-2239D02*
X820198D01*
X820253Y-2244D01*
X820318Y-2253D01*
X820387Y-2262D01*
X820535Y-2290D01*
X820688Y-2327D01*
X820840Y-2382D01*
X820909Y-2420D01*
X820974Y-2456D01*
X820979Y-2461D01*
X820988Y-2466D01*
X821006Y-2480D01*
X821029Y-2498D01*
X821085Y-2544D01*
X821154Y-2609D01*
X821228Y-2688D01*
X821297Y-2780D01*
X821358Y-2886D01*
X821381Y-2946D01*
X821399Y-3006D01*
Y-3011D01*
X821404Y-3020D01*
X821408Y-3039D01*
X821413Y-3066D01*
X821422Y-3103D01*
X821427Y-3145D01*
X821436Y-3191D01*
X821445Y-3246D01*
X821455Y-3311D01*
X821464Y-3385D01*
X821468Y-3464D01*
X821478Y-3547D01*
X821482Y-3639D01*
X821487Y-3741D01*
X821491Y-3847D01*
Y-3963D01*
Y-4993D01*
Y-4997D01*
Y-5007D01*
Y-5021D01*
Y-5039D01*
Y-5067D01*
Y-5094D01*
Y-5168D01*
Y-5252D01*
Y-5353D01*
X821496Y-5459D01*
Y-5570D01*
X821501Y-5806D01*
X821505Y-5917D01*
Y-6028D01*
X821510Y-6129D01*
X821515Y-6222D01*
X821524Y-6300D01*
Y-6333D01*
X821528Y-6360D01*
Y-6365D01*
Y-6374D01*
X821533Y-6388D01*
X821538Y-6407D01*
X821542Y-6434D01*
X821547Y-6462D01*
X821565Y-6536D01*
X821589Y-6619D01*
X821616Y-6707D01*
X821653Y-6808D01*
X821695Y-6905D01*
X821034D01*
Y-6901D01*
X821029Y-6896D01*
X821025Y-6882D01*
X821016Y-6864D01*
X821011Y-6841D01*
X820997Y-6813D01*
X820979Y-6748D01*
X820955Y-6665D01*
X820932Y-6573D01*
X820914Y-6467D01*
X820900Y-6346D01*
X820895Y-6351D01*
X820886Y-6360D01*
X820868Y-6379D01*
X820845Y-6402D01*
X820817Y-6430D01*
X820780Y-6462D01*
X820743Y-6494D01*
X820697Y-6531D01*
X820600Y-6614D01*
X820484Y-6698D01*
X820364Y-6776D01*
X820235Y-6845D01*
X820230D01*
X820221Y-6855D01*
X820203Y-6859D01*
X820175Y-6873D01*
X820142Y-6882D01*
X820105Y-6896D01*
X820064Y-6915D01*
X820018Y-6929D01*
X819907Y-6961D01*
X819787Y-6984D01*
X819657Y-7002D01*
X819519Y-7012D01*
X819491D01*
X819463Y-7007D01*
X819422D01*
X819371Y-7002D01*
X819315Y-6993D01*
X819251Y-6984D01*
X819181Y-6966D01*
X819108Y-6947D01*
X819034Y-6924D01*
X818955Y-6896D01*
X818876Y-6864D01*
X818803Y-6822D01*
X818724Y-6776D01*
X818655Y-6721D01*
X818585Y-6661D01*
X818581Y-6656D01*
X818572Y-6642D01*
X818553Y-6624D01*
X818530Y-6596D01*
X818507Y-6559D01*
X818475Y-6517D01*
X818447Y-6467D01*
X818414Y-6411D01*
X818382Y-6346D01*
X818350Y-6273D01*
X818318Y-6194D01*
X818294Y-6111D01*
X818271Y-6019D01*
X818253Y-5922D01*
X818244Y-5820D01*
X818239Y-5709D01*
Y-5704D01*
Y-5690D01*
Y-5672D01*
X818244Y-5640D01*
Y-5607D01*
X818248Y-5566D01*
X818253Y-5520D01*
X818257Y-5473D01*
X818281Y-5362D01*
X818308Y-5247D01*
X818345Y-5122D01*
X818401Y-5007D01*
Y-5002D01*
X818410Y-4993D01*
X818419Y-4979D01*
X818428Y-4956D01*
X818465Y-4900D01*
X818516Y-4831D01*
X818581Y-4757D01*
X818655Y-4679D01*
X818742Y-4600D01*
X818844Y-4531D01*
X818849D01*
X818858Y-4522D01*
X818876Y-4512D01*
X818900Y-4503D01*
X818927Y-4489D01*
X818964Y-4471D01*
X819011Y-4452D01*
X819061Y-4434D01*
X819117Y-4411D01*
X819181Y-4392D01*
X819251Y-4369D01*
X819329Y-4346D01*
X819412Y-4328D01*
X819505Y-4309D01*
X819602Y-4291D01*
X819708Y-4272D01*
X819717D01*
X819740Y-4267D01*
X819782Y-4263D01*
X819837Y-4254D01*
X819897Y-4240D01*
X819971Y-4231D01*
X820055Y-4212D01*
X820142Y-4198D01*
X820327Y-4157D01*
X820517Y-4110D01*
X820609Y-4087D01*
X820697Y-4060D01*
X820775Y-4032D01*
X820849Y-4004D01*
X820854Y-3810D01*
Y-3805D01*
Y-3792D01*
Y-3764D01*
X820849Y-3732D01*
Y-3695D01*
X820845Y-3653D01*
X820831Y-3551D01*
X820812Y-3441D01*
X820780Y-3334D01*
X820738Y-3233D01*
X820715Y-3186D01*
X820683Y-3149D01*
X820678Y-3145D01*
X820674Y-3136D01*
X820660Y-3122D01*
X820637Y-3108D01*
X820614Y-3085D01*
X820581Y-3062D01*
X820544Y-3039D01*
X820503Y-3011D01*
X820457Y-2983D01*
X820401Y-2960D01*
X820341Y-2937D01*
X820276Y-2914D01*
X820203Y-2900D01*
X820129Y-2886D01*
X820041Y-2877D01*
X819953Y-2872D01*
X819911D01*
X819879Y-2877D01*
X819842D01*
X819800Y-2881D01*
X819703Y-2895D01*
X819597Y-2918D01*
X819486Y-2951D01*
X819380Y-2997D01*
X819334Y-3025D01*
X819288Y-3057D01*
X819283D01*
X819279Y-3066D01*
X819269Y-3076D01*
X819251Y-3094D01*
X819232Y-3117D01*
X819214Y-3140D01*
X819191Y-3173D01*
X819168Y-3214D01*
X819140Y-3256D01*
X819117Y-3306D01*
X819089Y-3362D01*
X819061Y-3427D01*
X819038Y-3496D01*
X819011Y-3570D01*
X818987Y-3653D01*
X818969Y-3745D01*
X818345Y-3644D01*
Y-3635D01*
X818350Y-3611D01*
X818359Y-3574D01*
X818373Y-3524D01*
X818387Y-3464D01*
X818410Y-3394D01*
X818433Y-3316D01*
X818461Y-3233D01*
X818493Y-3149D01*
X818535Y-3057D01*
X818576Y-2969D01*
X818627Y-2881D01*
X818682Y-2794D01*
X818742Y-2715D01*
X818807Y-2641D01*
X818881Y-2572D01*
X818886Y-2567D01*
X818900Y-2558D01*
X818923Y-2540D01*
X818960Y-2521D01*
X819001Y-2493D01*
X819052Y-2466D01*
X819112Y-2433D01*
X819181Y-2401D01*
X819260Y-2373D01*
X819348Y-2341D01*
X819445Y-2313D01*
X819546Y-2286D01*
X819662Y-2267D01*
X819782Y-2248D01*
X819911Y-2239D01*
X820050Y-2235D01*
X820105D01*
X820147Y-2239D01*
D02*
G37*
G36*
X815171Y-6162D02*
X817721D01*
Y-6905D01*
X814487D01*
Y-595D01*
X815171D01*
Y-6162D01*
D02*
G37*
G36*
X803788Y-1338D02*
X802074D01*
Y-6905D01*
X801390D01*
Y-1338D01*
X799685D01*
Y-595D01*
X803788D01*
Y-1338D01*
D02*
G37*
G36*
X827701Y-2239D02*
X827752Y-2244D01*
X827816Y-2253D01*
X827886Y-2267D01*
X827969Y-2286D01*
X828057Y-2313D01*
X828149Y-2346D01*
X828246Y-2382D01*
X828347Y-2433D01*
X828449Y-2493D01*
X828551Y-2563D01*
X828652Y-2646D01*
X828749Y-2743D01*
X828842Y-2849D01*
X828846Y-2858D01*
X828865Y-2877D01*
X828888Y-2914D01*
X828916Y-2965D01*
X828953Y-3025D01*
X828994Y-3103D01*
X829041Y-3196D01*
X829087Y-3297D01*
X829128Y-3417D01*
X829175Y-3547D01*
X829216Y-3695D01*
X829253Y-3852D01*
X829281Y-4023D01*
X829309Y-4207D01*
X829322Y-4406D01*
X829327Y-4619D01*
Y-4822D01*
X826532Y-4822D01*
Y-4831D01*
X826536Y-4854D01*
Y-4896D01*
X826541Y-4947D01*
X826550Y-5011D01*
X826560Y-5085D01*
X826573Y-5168D01*
X826592Y-5256D01*
X826633Y-5446D01*
X826661Y-5543D01*
X826694Y-5640D01*
X826735Y-5732D01*
X826777Y-5824D01*
X826828Y-5908D01*
X826883Y-5986D01*
X826888Y-5991D01*
X826897Y-6005D01*
X826915Y-6023D01*
X826938Y-6046D01*
X826971Y-6074D01*
X827008Y-6111D01*
X827049Y-6143D01*
X827100Y-6180D01*
X827156Y-6217D01*
X827211Y-6250D01*
X827276Y-6282D01*
X827345Y-6314D01*
X827419Y-6337D01*
X827493Y-6356D01*
X827576Y-6370D01*
X827659Y-6374D01*
X827691D01*
X827728Y-6370D01*
X827775Y-6360D01*
X827835Y-6346D01*
X827899Y-6323D01*
X827973Y-6296D01*
X828052Y-6259D01*
X828130Y-6208D01*
X828214Y-6143D01*
X828297Y-6069D01*
X828380Y-5977D01*
X828458Y-5871D01*
X828495Y-5811D01*
X828528Y-5746D01*
X828565Y-5677D01*
X828597Y-5603D01*
X828625Y-5520D01*
X828652Y-5436D01*
X829309Y-5533D01*
Y-5543D01*
X829299Y-5566D01*
X829290Y-5603D01*
X829276Y-5654D01*
X829258Y-5714D01*
X829235Y-5787D01*
X829207Y-5861D01*
X829170Y-5949D01*
X829133Y-6037D01*
X829091Y-6125D01*
X829041Y-6217D01*
X828985Y-6310D01*
X828925Y-6402D01*
X828860Y-6485D01*
X828791Y-6568D01*
X828712Y-6642D01*
X828708Y-6647D01*
X828694Y-6656D01*
X828671Y-6674D01*
X828639Y-6698D01*
X828597Y-6730D01*
X828546Y-6758D01*
X828486Y-6795D01*
X828421Y-6827D01*
X828347Y-6859D01*
X828269Y-6896D01*
X828181Y-6924D01*
X828089Y-6952D01*
X827987Y-6979D01*
X827881Y-6998D01*
X827770Y-7007D01*
X827654Y-7012D01*
X827618D01*
X827576Y-7007D01*
X827520Y-7002D01*
X827456Y-6993D01*
X827377Y-6979D01*
X827289Y-6961D01*
X827197Y-6938D01*
X827096Y-6905D01*
X826989Y-6864D01*
X826883Y-6818D01*
X826777Y-6758D01*
X826670Y-6688D01*
X826564Y-6610D01*
X826463Y-6517D01*
X826365Y-6411D01*
X826361Y-6402D01*
X826342Y-6383D01*
X826319Y-6346D01*
X826287Y-6300D01*
X826250Y-6236D01*
X826208Y-6157D01*
X826167Y-6069D01*
X826121Y-5968D01*
X826075Y-5847D01*
X826033Y-5718D01*
X825991Y-5575D01*
X825954Y-5418D01*
X825922Y-5252D01*
X825899Y-5067D01*
X825880Y-4873D01*
X825876Y-4665D01*
Y-4660D01*
Y-4651D01*
Y-4637D01*
Y-4614D01*
Y-4586D01*
X825880Y-4549D01*
Y-4512D01*
X825885Y-4471D01*
X825890Y-4369D01*
X825904Y-4258D01*
X825917Y-4134D01*
X825936Y-3995D01*
X825964Y-3852D01*
X825996Y-3704D01*
X826038Y-3551D01*
X826084Y-3404D01*
X826139Y-3256D01*
X826208Y-3117D01*
X826282Y-2983D01*
X826370Y-2858D01*
X826375Y-2849D01*
X826393Y-2831D01*
X826421Y-2803D01*
X826458Y-2761D01*
X826509Y-2715D01*
X826569Y-2660D01*
X826638Y-2604D01*
X826717Y-2544D01*
X826800Y-2489D01*
X826897Y-2433D01*
X827003Y-2378D01*
X827114Y-2332D01*
X827234Y-2290D01*
X827359Y-2262D01*
X827493Y-2239D01*
X827631Y-2235D01*
X827664D01*
X827701Y-2239D01*
D02*
G37*
G36*
X805978D02*
X806028Y-2244D01*
X806093Y-2253D01*
X806167Y-2267D01*
X806250Y-2286D01*
X806343Y-2309D01*
X806439Y-2341D01*
X806536Y-2382D01*
X806643Y-2433D01*
X806749Y-2489D01*
X806855Y-2558D01*
X806957Y-2641D01*
X807059Y-2734D01*
X807156Y-2840D01*
X807160Y-2844D01*
X807179Y-2868D01*
X807202Y-2905D01*
X807234Y-2951D01*
X807271Y-3015D01*
X807317Y-3089D01*
X807359Y-3177D01*
X807410Y-3283D01*
X807456Y-3399D01*
X807502Y-3528D01*
X807544Y-3672D01*
X807581Y-3824D01*
X807613Y-3995D01*
X807636Y-4175D01*
X807654Y-4369D01*
X807659Y-4577D01*
Y-4582D01*
Y-4591D01*
Y-4609D01*
Y-4632D01*
Y-4660D01*
X807654Y-4693D01*
Y-4734D01*
X807650Y-4780D01*
X807645Y-4882D01*
X807631Y-4997D01*
X807618Y-5127D01*
X807599Y-5270D01*
X807571Y-5418D01*
X807539Y-5566D01*
X807498Y-5718D01*
X807447Y-5871D01*
X807391Y-6019D01*
X807327Y-6162D01*
X807248Y-6291D01*
X807160Y-6411D01*
X807156Y-6416D01*
X807137Y-6439D01*
X807109Y-6467D01*
X807072Y-6504D01*
X807022Y-6550D01*
X806962Y-6601D01*
X806897Y-6656D01*
X806818Y-6712D01*
X806730Y-6767D01*
X806638Y-6822D01*
X806532Y-6873D01*
X806421Y-6919D01*
X806301Y-6956D01*
X806176Y-6984D01*
X806042Y-7007D01*
X805904Y-7012D01*
X805871D01*
X805830Y-7007D01*
X805779Y-7002D01*
X805714Y-6993D01*
X805640Y-6979D01*
X805557Y-6961D01*
X805465Y-6938D01*
X805368Y-6905D01*
X805266Y-6864D01*
X805160Y-6818D01*
X805058Y-6758D01*
X804952Y-6688D01*
X804846Y-6610D01*
X804744Y-6517D01*
X804647Y-6411D01*
X804642Y-6402D01*
X804624Y-6383D01*
X804601Y-6346D01*
X804568Y-6296D01*
X804531Y-6236D01*
X804490Y-6157D01*
X804444Y-6065D01*
X804397Y-5958D01*
X804351Y-5843D01*
X804305Y-5709D01*
X804263Y-5561D01*
X804226Y-5399D01*
X804194Y-5229D01*
X804171Y-5039D01*
X804153Y-4840D01*
X804148Y-4623D01*
Y-4619D01*
Y-4609D01*
Y-4595D01*
Y-4572D01*
Y-4545D01*
X804153Y-4508D01*
Y-4471D01*
X804157Y-4429D01*
X804162Y-4332D01*
X804176Y-4217D01*
X804189Y-4092D01*
X804208Y-3958D01*
X804236Y-3815D01*
X804268Y-3667D01*
X804310Y-3519D01*
X804356Y-3371D01*
X804411Y-3228D01*
X804481Y-3089D01*
X804554Y-2960D01*
X804642Y-2840D01*
X804647Y-2831D01*
X804665Y-2812D01*
X804693Y-2785D01*
X804730Y-2743D01*
X804781Y-2701D01*
X804841Y-2651D01*
X804910Y-2595D01*
X804989Y-2535D01*
X805072Y-2480D01*
X805169Y-2424D01*
X805275Y-2373D01*
X805386Y-2327D01*
X805506Y-2290D01*
X805631Y-2262D01*
X805765Y-2239D01*
X805904Y-2235D01*
X805936D01*
X805978Y-2239D01*
D02*
G37*
G36*
X814312Y-11486D02*
X813679D01*
Y-10595D01*
X814312D01*
Y-11486D01*
D02*
G37*
G36*
X865312Y-10488D02*
X865358D01*
X865418Y-10493D01*
X865483Y-10502D01*
X865552Y-10511D01*
X865626Y-10521D01*
X865709Y-10535D01*
X865876Y-10571D01*
X866042Y-10627D01*
X866125Y-10659D01*
X866208Y-10696D01*
X866213Y-10701D01*
X866227Y-10706D01*
X866250Y-10719D01*
X866278Y-10733D01*
X866315Y-10756D01*
X866356Y-10784D01*
X866403Y-10816D01*
X866458Y-10849D01*
X866569Y-10937D01*
X866684Y-11038D01*
X866800Y-11158D01*
X866911Y-11297D01*
X866915Y-11301D01*
X866924Y-11315D01*
X866938Y-11338D01*
X866957Y-11366D01*
X866980Y-11408D01*
X867008Y-11454D01*
X867035Y-11509D01*
X867068Y-11574D01*
X867100Y-11643D01*
X867132Y-11722D01*
X867169Y-11810D01*
X867202Y-11907D01*
X867239Y-12008D01*
X867271Y-12115D01*
X867299Y-12230D01*
X867327Y-12355D01*
X866712Y-12563D01*
Y-12558D01*
X866707Y-12540D01*
X866698Y-12512D01*
X866689Y-12475D01*
X866680Y-12433D01*
X866661Y-12382D01*
X866647Y-12323D01*
X866624Y-12262D01*
X866583Y-12133D01*
X866527Y-12004D01*
X866467Y-11879D01*
X866435Y-11819D01*
X866398Y-11768D01*
Y-11763D01*
X866389Y-11754D01*
X866379Y-11740D01*
X866366Y-11727D01*
X866319Y-11676D01*
X866264Y-11616D01*
X866190Y-11551D01*
X866107Y-11482D01*
X866005Y-11412D01*
X865894Y-11352D01*
X865890D01*
X865880Y-11348D01*
X865862Y-11338D01*
X865839Y-11329D01*
X865811Y-11315D01*
X865774Y-11306D01*
X865737Y-11292D01*
X865691Y-11274D01*
X865589Y-11246D01*
X865469Y-11223D01*
X865340Y-11204D01*
X865201Y-11200D01*
X865146D01*
X865109Y-11204D01*
X865058Y-11209D01*
X865003Y-11214D01*
X864938Y-11223D01*
X864869Y-11232D01*
X864795Y-11251D01*
X864716Y-11269D01*
X864638Y-11288D01*
X864555Y-11315D01*
X864471Y-11348D01*
X864388Y-11385D01*
X864310Y-11426D01*
X864231Y-11477D01*
X864226Y-11482D01*
X864213Y-11491D01*
X864194Y-11505D01*
X864162Y-11528D01*
X864129Y-11556D01*
X864088Y-11592D01*
X864046Y-11634D01*
X863995Y-11685D01*
X863945Y-11740D01*
X863894Y-11805D01*
X863838Y-11874D01*
X863783Y-11948D01*
X863727Y-12036D01*
X863677Y-12124D01*
X863626Y-12221D01*
X863575Y-12327D01*
X863570Y-12332D01*
X863566Y-12355D01*
X863552Y-12387D01*
X863538Y-12429D01*
X863520Y-12484D01*
X863496Y-12553D01*
X863473Y-12632D01*
X863455Y-12720D01*
X863432Y-12817D01*
X863409Y-12923D01*
X863386Y-13039D01*
X863367Y-13163D01*
X863353Y-13293D01*
X863339Y-13436D01*
X863335Y-13579D01*
X863330Y-13732D01*
Y-13736D01*
Y-13745D01*
Y-13764D01*
Y-13787D01*
Y-13815D01*
X863335Y-13852D01*
Y-13893D01*
X863339Y-13939D01*
X863344Y-13990D01*
X863349Y-14046D01*
X863358Y-14166D01*
X863376Y-14300D01*
X863395Y-14443D01*
X863423Y-14595D01*
X863459Y-14753D01*
X863501Y-14910D01*
X863552Y-15067D01*
X863612Y-15219D01*
X863681Y-15367D01*
X863764Y-15506D01*
X863857Y-15630D01*
X863861Y-15635D01*
X863880Y-15658D01*
X863912Y-15690D01*
X863954Y-15727D01*
X864005Y-15778D01*
X864069Y-15829D01*
X864143Y-15885D01*
X864226Y-15945D01*
X864324Y-16005D01*
X864425Y-16060D01*
X864541Y-16111D01*
X864661Y-16162D01*
X864795Y-16199D01*
X864933Y-16231D01*
X865081Y-16250D01*
X865234Y-16259D01*
X865275D01*
X865303Y-16254D01*
X865340D01*
X865386Y-16250D01*
X865432Y-16245D01*
X865488Y-16236D01*
X865548Y-16226D01*
X865612Y-16213D01*
X865756Y-16180D01*
X865903Y-16134D01*
X866061Y-16069D01*
X866065Y-16065D01*
X866079Y-16060D01*
X866102Y-16051D01*
X866130Y-16032D01*
X866167Y-16014D01*
X866208Y-15995D01*
X866255Y-15968D01*
X866305Y-15940D01*
X866412Y-15871D01*
X866527Y-15792D01*
X866638Y-15704D01*
X866740Y-15607D01*
Y-14429D01*
X865220D01*
Y-13685D01*
X867410Y-13681D01*
Y-16028D01*
X867405Y-16032D01*
X867387Y-16051D01*
X867359Y-16074D01*
X867322Y-16106D01*
X867276Y-16148D01*
X867220Y-16194D01*
X867160Y-16250D01*
X867091Y-16305D01*
X867017Y-16360D01*
X866934Y-16425D01*
X866846Y-16485D01*
X866758Y-16545D01*
X866564Y-16665D01*
X866467Y-16716D01*
X866366Y-16767D01*
X866361Y-16771D01*
X866342Y-16776D01*
X866315Y-16790D01*
X866273Y-16804D01*
X866222Y-16822D01*
X866167Y-16845D01*
X866102Y-16869D01*
X866028Y-16887D01*
X865945Y-16910D01*
X865862Y-16933D01*
X865769Y-16956D01*
X865672Y-16975D01*
X865474Y-17003D01*
X865368Y-17007D01*
X865261Y-17012D01*
X865229D01*
X865187Y-17007D01*
X865132D01*
X865067Y-16998D01*
X864989Y-16993D01*
X864906Y-16979D01*
X864809Y-16966D01*
X864707Y-16942D01*
X864596Y-16919D01*
X864485Y-16887D01*
X864370Y-16850D01*
X864254Y-16808D01*
X864139Y-16758D01*
X864023Y-16698D01*
X863908Y-16633D01*
X863903Y-16628D01*
X863880Y-16614D01*
X863852Y-16591D01*
X863811Y-16564D01*
X863760Y-16522D01*
X863704Y-16476D01*
X863640Y-16416D01*
X863570Y-16351D01*
X863496Y-16277D01*
X863418Y-16199D01*
X863339Y-16106D01*
X863261Y-16009D01*
X863187Y-15898D01*
X863108Y-15783D01*
X863039Y-15663D01*
X862970Y-15529D01*
X862965Y-15519D01*
X862956Y-15496D01*
X862938Y-15455D01*
X862914Y-15399D01*
X862891Y-15330D01*
X862859Y-15242D01*
X862831Y-15145D01*
X862799Y-15034D01*
X862766Y-14914D01*
X862734Y-14780D01*
X862702Y-14637D01*
X862679Y-14485D01*
X862656Y-14323D01*
X862637Y-14147D01*
X862628Y-13967D01*
X862623Y-13782D01*
Y-13778D01*
Y-13769D01*
Y-13755D01*
Y-13736D01*
Y-13713D01*
X862628Y-13681D01*
Y-13648D01*
Y-13607D01*
X862632Y-13519D01*
X862642Y-13413D01*
X862651Y-13297D01*
X862665Y-13168D01*
X862683Y-13034D01*
X862706Y-12886D01*
X862734Y-12738D01*
X862771Y-12586D01*
X862808Y-12433D01*
X862854Y-12276D01*
X862910Y-12128D01*
X862970Y-11981D01*
X862974Y-11971D01*
X862984Y-11948D01*
X863007Y-11907D01*
X863035Y-11856D01*
X863067Y-11791D01*
X863108Y-11717D01*
X863159Y-11639D01*
X863215Y-11551D01*
X863275Y-11458D01*
X863344Y-11366D01*
X863418Y-11274D01*
X863501Y-11181D01*
X863589Y-11089D01*
X863681Y-11001D01*
X863778Y-10923D01*
X863880Y-10849D01*
X863885Y-10844D01*
X863908Y-10835D01*
X863935Y-10816D01*
X863982Y-10793D01*
X864032Y-10766D01*
X864097Y-10733D01*
X864176Y-10701D01*
X864259Y-10664D01*
X864351Y-10632D01*
X864453Y-10599D01*
X864564Y-10567D01*
X864679Y-10539D01*
X864804Y-10516D01*
X864938Y-10498D01*
X865072Y-10488D01*
X865215Y-10484D01*
X865271D01*
X865312Y-10488D01*
D02*
G37*
G36*
X846463Y-12239D02*
X846490Y-12244D01*
X846527Y-12248D01*
X846564Y-12253D01*
X846610Y-12267D01*
X846707Y-12295D01*
X846818Y-12341D01*
X846874Y-12369D01*
X846934Y-12401D01*
X846999Y-12438D01*
X847058Y-12484D01*
X846841Y-13205D01*
X846837D01*
X846832Y-13196D01*
X846818Y-13191D01*
X846800Y-13177D01*
X846754Y-13149D01*
X846694Y-13117D01*
X846624Y-13089D01*
X846546Y-13062D01*
X846463Y-13043D01*
X846379Y-13034D01*
X846347D01*
X846305Y-13043D01*
X846255Y-13052D01*
X846199Y-13071D01*
X846134Y-13094D01*
X846070Y-13131D01*
X846005Y-13177D01*
X845996Y-13182D01*
X845977Y-13205D01*
X845950Y-13237D01*
X845913Y-13279D01*
X845876Y-13339D01*
X845839Y-13404D01*
X845802Y-13482D01*
X845774Y-13575D01*
Y-13579D01*
X845770Y-13593D01*
X845765Y-13621D01*
X845756Y-13653D01*
X845746Y-13695D01*
X845737Y-13741D01*
X845723Y-13796D01*
X845714Y-13856D01*
X845705Y-13926D01*
X845691Y-13999D01*
X845682Y-14078D01*
X845673Y-14161D01*
X845659Y-14332D01*
X845654Y-14517D01*
Y-16905D01*
X845021D01*
Y-12336D01*
X845594D01*
Y-13034D01*
X845599Y-13029D01*
X845603Y-13011D01*
X845617Y-12988D01*
X845631Y-12955D01*
X845649Y-12918D01*
X845673Y-12872D01*
X845723Y-12771D01*
X845788Y-12664D01*
X845853Y-12558D01*
X845890Y-12507D01*
X845922Y-12466D01*
X845959Y-12424D01*
X845991Y-12392D01*
X846000Y-12387D01*
X846024Y-12369D01*
X846061Y-12341D01*
X846111Y-12313D01*
X846176Y-12286D01*
X846245Y-12258D01*
X846324Y-12239D01*
X846407Y-12235D01*
X846439D01*
X846463Y-12239D01*
D02*
G37*
G36*
X828782D02*
X828810Y-12244D01*
X828846Y-12248D01*
X828883Y-12253D01*
X828930Y-12267D01*
X829027Y-12295D01*
X829138Y-12341D01*
X829193Y-12369D01*
X829253Y-12401D01*
X829318Y-12438D01*
X829378Y-12484D01*
X829161Y-13205D01*
X829156D01*
X829151Y-13196D01*
X829138Y-13191D01*
X829119Y-13177D01*
X829073Y-13149D01*
X829013Y-13117D01*
X828944Y-13089D01*
X828865Y-13062D01*
X828782Y-13043D01*
X828699Y-13034D01*
X828666D01*
X828625Y-13043D01*
X828574Y-13052D01*
X828518Y-13071D01*
X828454Y-13094D01*
X828389Y-13131D01*
X828324Y-13177D01*
X828315Y-13182D01*
X828297Y-13205D01*
X828269Y-13237D01*
X828232Y-13279D01*
X828195Y-13339D01*
X828158Y-13404D01*
X828121Y-13482D01*
X828093Y-13575D01*
Y-13579D01*
X828089Y-13593D01*
X828084Y-13621D01*
X828075Y-13653D01*
X828066Y-13695D01*
X828057Y-13741D01*
X828043Y-13796D01*
X828033Y-13856D01*
X828024Y-13926D01*
X828010Y-13999D01*
X828001Y-14078D01*
X827992Y-14161D01*
X827978Y-14332D01*
X827973Y-14517D01*
Y-16905D01*
X827340D01*
Y-12336D01*
X827913D01*
Y-13034D01*
X827918Y-13029D01*
X827923Y-13011D01*
X827936Y-12988D01*
X827950Y-12955D01*
X827969Y-12919D01*
X827992Y-12872D01*
X828043Y-12771D01*
X828107Y-12664D01*
X828172Y-12558D01*
X828209Y-12507D01*
X828241Y-12466D01*
X828278Y-12424D01*
X828311Y-12392D01*
X828320Y-12387D01*
X828343Y-12369D01*
X828380Y-12341D01*
X828431Y-12313D01*
X828495Y-12286D01*
X828565Y-12258D01*
X828643Y-12239D01*
X828726Y-12235D01*
X828759D01*
X828782Y-12239D01*
D02*
G37*
G36*
X853577Y-16905D02*
X852894D01*
Y-13930D01*
X850205D01*
Y-16905D01*
X849521D01*
Y-10595D01*
X850205D01*
Y-13186D01*
X852894D01*
Y-10595D01*
X853577D01*
Y-16905D01*
D02*
G37*
G36*
X835384Y-12239D02*
X835435Y-12244D01*
X835490Y-12253D01*
X835555Y-12267D01*
X835629Y-12281D01*
X835703Y-12299D01*
X835781Y-12323D01*
X835864Y-12355D01*
X835947Y-12387D01*
X836031Y-12429D01*
X836109Y-12479D01*
X836188Y-12535D01*
X836266Y-12600D01*
X836271Y-12604D01*
X836285Y-12618D01*
X836303Y-12637D01*
X836331Y-12669D01*
X836363Y-12706D01*
X836400Y-12752D01*
X836437Y-12808D01*
X836479Y-12868D01*
X836525Y-12942D01*
X836567Y-13020D01*
X836608Y-13113D01*
X836650Y-13209D01*
X836691Y-13311D01*
X836724Y-13427D01*
X836756Y-13551D01*
X836779Y-13681D01*
X836165Y-13792D01*
Y-13787D01*
X836160Y-13773D01*
X836155Y-13750D01*
X836146Y-13718D01*
X836137Y-13676D01*
X836123Y-13634D01*
X836109Y-13588D01*
X836091Y-13533D01*
X836044Y-13422D01*
X835989Y-13307D01*
X835924Y-13200D01*
X835887Y-13149D01*
X835846Y-13103D01*
X835841Y-13099D01*
X835837Y-13094D01*
X835823Y-13080D01*
X835804Y-13066D01*
X835758Y-13029D01*
X835698Y-12988D01*
X835619Y-12946D01*
X835527Y-12909D01*
X835425Y-12881D01*
X835370Y-12877D01*
X835310Y-12872D01*
X835291D01*
X835264Y-12877D01*
X835231D01*
X835194Y-12886D01*
X835148Y-12895D01*
X835093Y-12909D01*
X835037Y-12923D01*
X834977Y-12946D01*
X834917Y-12974D01*
X834853Y-13006D01*
X834788Y-13048D01*
X834719Y-13094D01*
X834654Y-13149D01*
X834594Y-13214D01*
X834534Y-13288D01*
X834529Y-13293D01*
X834520Y-13307D01*
X834506Y-13334D01*
X834488Y-13367D01*
X834464Y-13413D01*
X834437Y-13468D01*
X834409Y-13533D01*
X834381Y-13607D01*
X834354Y-13695D01*
X834326Y-13792D01*
X834298Y-13903D01*
X834275Y-14023D01*
X834256Y-14152D01*
X834243Y-14291D01*
X834233Y-14443D01*
X834229Y-14609D01*
Y-14614D01*
Y-14619D01*
Y-14633D01*
Y-14651D01*
Y-14697D01*
X834233Y-14762D01*
X834238Y-14840D01*
X834243Y-14928D01*
X834252Y-15025D01*
X834266Y-15127D01*
X834280Y-15238D01*
X834298Y-15349D01*
X834326Y-15459D01*
X834354Y-15570D01*
X834386Y-15681D01*
X834423Y-15783D01*
X834469Y-15875D01*
X834520Y-15958D01*
X834525Y-15963D01*
X834534Y-15977D01*
X834552Y-15995D01*
X834575Y-16023D01*
X834603Y-16055D01*
X834640Y-16088D01*
X834677Y-16129D01*
X834728Y-16166D01*
X834779Y-16203D01*
X834834Y-16240D01*
X834899Y-16277D01*
X834963Y-16309D01*
X835037Y-16337D01*
X835111Y-16356D01*
X835194Y-16370D01*
X835277Y-16374D01*
X835314D01*
X835338Y-16370D01*
X835370Y-16365D01*
X835407Y-16360D01*
X835490Y-16342D01*
X835587Y-16309D01*
X835638Y-16286D01*
X835689Y-16259D01*
X835740Y-16226D01*
X835795Y-16189D01*
X835841Y-16148D01*
X835892Y-16102D01*
X835897Y-16097D01*
X835901Y-16088D01*
X835915Y-16074D01*
X835934Y-16051D01*
X835952Y-16018D01*
X835980Y-15981D01*
X836003Y-15940D01*
X836031Y-15889D01*
X836058Y-15834D01*
X836086Y-15769D01*
X836114Y-15700D01*
X836141Y-15621D01*
X836165Y-15533D01*
X836188Y-15441D01*
X836206Y-15344D01*
X836220Y-15238D01*
X836844Y-15335D01*
Y-15344D01*
X836839Y-15372D01*
X836830Y-15413D01*
X836821Y-15469D01*
X836807Y-15538D01*
X836784Y-15617D01*
X836761Y-15704D01*
X836733Y-15797D01*
X836701Y-15898D01*
X836664Y-16000D01*
X836617Y-16102D01*
X836567Y-16208D01*
X836511Y-16309D01*
X836446Y-16407D01*
X836377Y-16499D01*
X836298Y-16582D01*
X836294Y-16587D01*
X836280Y-16601D01*
X836257Y-16624D01*
X836220Y-16647D01*
X836178Y-16684D01*
X836132Y-16716D01*
X836072Y-16758D01*
X836007Y-16795D01*
X835938Y-16836D01*
X835855Y-16878D01*
X835772Y-16910D01*
X835680Y-16942D01*
X835582Y-16970D01*
X835481Y-16993D01*
X835375Y-17007D01*
X835264Y-17012D01*
X835231D01*
X835194Y-17007D01*
X835139Y-17003D01*
X835079Y-16993D01*
X835005Y-16979D01*
X834922Y-16961D01*
X834834Y-16938D01*
X834742Y-16905D01*
X834645Y-16864D01*
X834543Y-16818D01*
X834441Y-16758D01*
X834340Y-16688D01*
X834238Y-16610D01*
X834141Y-16517D01*
X834049Y-16411D01*
X834044Y-16402D01*
X834030Y-16383D01*
X834007Y-16346D01*
X833975Y-16296D01*
X833938Y-16236D01*
X833901Y-16157D01*
X833859Y-16065D01*
X833813Y-15958D01*
X833771Y-15843D01*
X833725Y-15709D01*
X833688Y-15561D01*
X833651Y-15399D01*
X833619Y-15228D01*
X833596Y-15039D01*
X833582Y-14840D01*
X833577Y-14623D01*
Y-14619D01*
Y-14609D01*
Y-14591D01*
Y-14572D01*
Y-14545D01*
X833582Y-14508D01*
Y-14471D01*
X833587Y-14429D01*
X833591Y-14327D01*
X833601Y-14217D01*
X833619Y-14087D01*
X833637Y-13953D01*
X833661Y-13810D01*
X833693Y-13662D01*
X833734Y-13514D01*
X833776Y-13367D01*
X833832Y-13223D01*
X833896Y-13085D01*
X833970Y-12955D01*
X834053Y-12835D01*
X834058Y-12831D01*
X834076Y-12808D01*
X834104Y-12780D01*
X834141Y-12743D01*
X834187Y-12697D01*
X834247Y-12646D01*
X834312Y-12590D01*
X834386Y-12535D01*
X834474Y-12479D01*
X834566Y-12424D01*
X834668Y-12373D01*
X834779Y-12327D01*
X834894Y-12290D01*
X835019Y-12262D01*
X835148Y-12239D01*
X835287Y-12235D01*
X835342D01*
X835384Y-12239D01*
D02*
G37*
G36*
X804624Y-16905D02*
X803963D01*
Y-11625D01*
X802457Y-16905D01*
X801838D01*
X800346Y-11537D01*
Y-16905D01*
X799685D01*
Y-10595D01*
X800715D01*
X801940Y-15067D01*
X802184Y-16000D01*
Y-15995D01*
X802189Y-15981D01*
X802194Y-15963D01*
X802203Y-15935D01*
X802212Y-15898D01*
X802221Y-15852D01*
X802240Y-15801D01*
X802254Y-15741D01*
X802272Y-15672D01*
X802291Y-15598D01*
X802314Y-15515D01*
X802341Y-15427D01*
X802369Y-15326D01*
X802397Y-15219D01*
X802429Y-15108D01*
X802462Y-14988D01*
X803700Y-10595D01*
X804624D01*
Y-16905D01*
D02*
G37*
G36*
X873466Y-16162D02*
X876017D01*
Y-16905D01*
X872783D01*
Y-10595D01*
X873466D01*
Y-16162D01*
D02*
G37*
G36*
X872131Y-11338D02*
X870417D01*
Y-16905D01*
X869734D01*
Y-11338D01*
X868029D01*
Y-10595D01*
X872131D01*
Y-11338D01*
D02*
G37*
G36*
X861602Y-16905D02*
X860877D01*
Y-16023D01*
X861602D01*
Y-16905D01*
D02*
G37*
G36*
X856340Y-12239D02*
X856391D01*
X856446Y-12244D01*
X856511Y-12253D01*
X856580Y-12262D01*
X856728Y-12290D01*
X856881Y-12327D01*
X857033Y-12382D01*
X857102Y-12420D01*
X857167Y-12456D01*
X857172Y-12461D01*
X857181Y-12466D01*
X857199Y-12479D01*
X857222Y-12498D01*
X857278Y-12544D01*
X857347Y-12609D01*
X857421Y-12687D01*
X857491Y-12780D01*
X857551Y-12886D01*
X857574Y-12946D01*
X857592Y-13006D01*
Y-13011D01*
X857597Y-13020D01*
X857601Y-13039D01*
X857606Y-13066D01*
X857615Y-13103D01*
X857620Y-13145D01*
X857629Y-13191D01*
X857638Y-13247D01*
X857648Y-13311D01*
X857657Y-13385D01*
X857661Y-13464D01*
X857671Y-13547D01*
X857675Y-13639D01*
X857680Y-13741D01*
X857685Y-13847D01*
Y-13963D01*
Y-14993D01*
Y-14997D01*
Y-15007D01*
Y-15021D01*
Y-15039D01*
Y-15067D01*
Y-15094D01*
Y-15168D01*
Y-15251D01*
Y-15353D01*
X857689Y-15459D01*
Y-15570D01*
X857694Y-15806D01*
X857698Y-15917D01*
Y-16028D01*
X857703Y-16129D01*
X857708Y-16222D01*
X857717Y-16300D01*
Y-16333D01*
X857722Y-16360D01*
Y-16365D01*
Y-16374D01*
X857726Y-16388D01*
X857731Y-16407D01*
X857735Y-16434D01*
X857740Y-16462D01*
X857758Y-16536D01*
X857782Y-16619D01*
X857809Y-16707D01*
X857846Y-16808D01*
X857888Y-16905D01*
X857227D01*
Y-16901D01*
X857222Y-16896D01*
X857218Y-16882D01*
X857209Y-16864D01*
X857204Y-16841D01*
X857190Y-16813D01*
X857172Y-16748D01*
X857149Y-16665D01*
X857125Y-16573D01*
X857107Y-16467D01*
X857093Y-16346D01*
X857088Y-16351D01*
X857079Y-16360D01*
X857061Y-16379D01*
X857038Y-16402D01*
X857010Y-16430D01*
X856973Y-16462D01*
X856936Y-16494D01*
X856890Y-16531D01*
X856793Y-16614D01*
X856677Y-16698D01*
X856557Y-16776D01*
X856428Y-16845D01*
X856423D01*
X856414Y-16855D01*
X856396Y-16859D01*
X856368Y-16873D01*
X856336Y-16882D01*
X856299Y-16896D01*
X856257Y-16915D01*
X856211Y-16929D01*
X856100Y-16961D01*
X855980Y-16984D01*
X855850Y-17003D01*
X855712Y-17012D01*
X855684D01*
X855656Y-17007D01*
X855615D01*
X855564Y-17003D01*
X855509Y-16993D01*
X855444Y-16984D01*
X855375Y-16966D01*
X855301Y-16947D01*
X855227Y-16924D01*
X855148Y-16896D01*
X855070Y-16864D01*
X854996Y-16822D01*
X854917Y-16776D01*
X854848Y-16721D01*
X854778Y-16661D01*
X854774Y-16656D01*
X854765Y-16642D01*
X854746Y-16624D01*
X854723Y-16596D01*
X854700Y-16559D01*
X854668Y-16517D01*
X854640Y-16467D01*
X854608Y-16411D01*
X854575Y-16346D01*
X854543Y-16273D01*
X854511Y-16194D01*
X854488Y-16111D01*
X854464Y-16018D01*
X854446Y-15921D01*
X854437Y-15820D01*
X854432Y-15709D01*
Y-15704D01*
Y-15690D01*
Y-15672D01*
X854437Y-15640D01*
Y-15607D01*
X854441Y-15566D01*
X854446Y-15519D01*
X854451Y-15473D01*
X854474Y-15362D01*
X854501Y-15247D01*
X854538Y-15122D01*
X854594Y-15007D01*
Y-15002D01*
X854603Y-14993D01*
X854612Y-14979D01*
X854622Y-14956D01*
X854658Y-14900D01*
X854709Y-14831D01*
X854774Y-14757D01*
X854848Y-14679D01*
X854936Y-14600D01*
X855037Y-14531D01*
X855042D01*
X855051Y-14522D01*
X855070Y-14512D01*
X855093Y-14503D01*
X855120Y-14489D01*
X855157Y-14471D01*
X855204Y-14452D01*
X855254Y-14434D01*
X855310Y-14411D01*
X855375Y-14392D01*
X855444Y-14369D01*
X855522Y-14346D01*
X855606Y-14327D01*
X855698Y-14309D01*
X855795Y-14291D01*
X855901Y-14272D01*
X855910D01*
X855933Y-14267D01*
X855975Y-14263D01*
X856031Y-14254D01*
X856091Y-14240D01*
X856164Y-14231D01*
X856248Y-14212D01*
X856336Y-14198D01*
X856520Y-14157D01*
X856710Y-14110D01*
X856802Y-14087D01*
X856890Y-14060D01*
X856968Y-14032D01*
X857042Y-14004D01*
X857047Y-13810D01*
Y-13805D01*
Y-13792D01*
Y-13764D01*
X857042Y-13732D01*
Y-13695D01*
X857038Y-13653D01*
X857024Y-13551D01*
X857005Y-13441D01*
X856973Y-13334D01*
X856931Y-13233D01*
X856908Y-13186D01*
X856876Y-13149D01*
X856871Y-13145D01*
X856867Y-13136D01*
X856853Y-13122D01*
X856830Y-13108D01*
X856807Y-13085D01*
X856774Y-13062D01*
X856737Y-13039D01*
X856696Y-13011D01*
X856650Y-12983D01*
X856594Y-12960D01*
X856534Y-12937D01*
X856470Y-12914D01*
X856396Y-12900D01*
X856322Y-12886D01*
X856234Y-12877D01*
X856146Y-12872D01*
X856104D01*
X856072Y-12877D01*
X856035D01*
X855994Y-12881D01*
X855897Y-12895D01*
X855790Y-12918D01*
X855679Y-12951D01*
X855573Y-12997D01*
X855527Y-13025D01*
X855481Y-13057D01*
X855476D01*
X855472Y-13066D01*
X855462Y-13076D01*
X855444Y-13094D01*
X855425Y-13117D01*
X855407Y-13140D01*
X855384Y-13172D01*
X855361Y-13214D01*
X855333Y-13256D01*
X855310Y-13307D01*
X855282Y-13362D01*
X855254Y-13427D01*
X855231Y-13496D01*
X855204Y-13570D01*
X855180Y-13653D01*
X855162Y-13745D01*
X854538Y-13644D01*
Y-13634D01*
X854543Y-13611D01*
X854552Y-13575D01*
X854566Y-13524D01*
X854580Y-13464D01*
X854603Y-13394D01*
X854626Y-13316D01*
X854654Y-13233D01*
X854686Y-13149D01*
X854728Y-13057D01*
X854769Y-12969D01*
X854820Y-12881D01*
X854876Y-12794D01*
X854936Y-12715D01*
X855000Y-12641D01*
X855074Y-12572D01*
X855079Y-12567D01*
X855093Y-12558D01*
X855116Y-12540D01*
X855153Y-12521D01*
X855194Y-12493D01*
X855245Y-12466D01*
X855305Y-12433D01*
X855375Y-12401D01*
X855453Y-12373D01*
X855541Y-12341D01*
X855638Y-12313D01*
X855739Y-12286D01*
X855855Y-12267D01*
X855975Y-12248D01*
X856104Y-12239D01*
X856243Y-12235D01*
X856299D01*
X856340Y-12239D01*
D02*
G37*
G36*
X838026Y-14203D02*
X839528Y-12336D01*
X840350D01*
X838918Y-14037D01*
X840493Y-16905D01*
X839713D01*
X838470Y-14568D01*
X838026Y-15094D01*
Y-16905D01*
X837393D01*
Y-10595D01*
X838026D01*
Y-14203D01*
D02*
G37*
G36*
X831434Y-12239D02*
X831485D01*
X831540Y-12244D01*
X831605Y-12253D01*
X831674Y-12262D01*
X831822Y-12290D01*
X831974Y-12327D01*
X832127Y-12382D01*
X832196Y-12420D01*
X832261Y-12456D01*
X832265Y-12461D01*
X832275Y-12466D01*
X832293Y-12479D01*
X832316Y-12498D01*
X832372Y-12544D01*
X832441Y-12609D01*
X832515Y-12687D01*
X832584Y-12780D01*
X832644Y-12886D01*
X832667Y-12946D01*
X832686Y-13006D01*
Y-13011D01*
X832690Y-13020D01*
X832695Y-13039D01*
X832700Y-13066D01*
X832709Y-13103D01*
X832713Y-13145D01*
X832723Y-13191D01*
X832732Y-13247D01*
X832741Y-13311D01*
X832750Y-13385D01*
X832755Y-13464D01*
X832764Y-13547D01*
X832769Y-13639D01*
X832773Y-13741D01*
X832778Y-13847D01*
Y-13963D01*
Y-14993D01*
Y-14997D01*
Y-15007D01*
Y-15021D01*
Y-15039D01*
Y-15067D01*
Y-15094D01*
Y-15168D01*
Y-15251D01*
Y-15353D01*
X832783Y-15459D01*
Y-15570D01*
X832787Y-15806D01*
X832792Y-15917D01*
Y-16028D01*
X832797Y-16129D01*
X832801Y-16222D01*
X832810Y-16300D01*
Y-16333D01*
X832815Y-16360D01*
Y-16365D01*
Y-16374D01*
X832820Y-16388D01*
X832824Y-16407D01*
X832829Y-16434D01*
X832833Y-16462D01*
X832852Y-16536D01*
X832875Y-16619D01*
X832903Y-16707D01*
X832940Y-16808D01*
X832981Y-16905D01*
X832321D01*
Y-16901D01*
X832316Y-16896D01*
X832312Y-16882D01*
X832302Y-16864D01*
X832298Y-16841D01*
X832284Y-16813D01*
X832265Y-16748D01*
X832242Y-16665D01*
X832219Y-16573D01*
X832201Y-16467D01*
X832187Y-16346D01*
X832182Y-16351D01*
X832173Y-16360D01*
X832154Y-16379D01*
X832131Y-16402D01*
X832104Y-16430D01*
X832067Y-16462D01*
X832030Y-16494D01*
X831983Y-16531D01*
X831886Y-16614D01*
X831771Y-16698D01*
X831651Y-16776D01*
X831522Y-16845D01*
X831517D01*
X831508Y-16855D01*
X831489Y-16859D01*
X831461Y-16873D01*
X831429Y-16882D01*
X831392Y-16896D01*
X831351Y-16915D01*
X831304Y-16929D01*
X831193Y-16961D01*
X831073Y-16984D01*
X830944Y-17003D01*
X830805Y-17012D01*
X830778D01*
X830750Y-17007D01*
X830708D01*
X830657Y-17003D01*
X830602Y-16993D01*
X830537Y-16984D01*
X830468Y-16966D01*
X830394Y-16947D01*
X830320Y-16924D01*
X830242Y-16896D01*
X830163Y-16864D01*
X830089Y-16822D01*
X830011Y-16776D01*
X829941Y-16721D01*
X829872Y-16661D01*
X829867Y-16656D01*
X829858Y-16642D01*
X829840Y-16624D01*
X829817Y-16596D01*
X829794Y-16559D01*
X829761Y-16517D01*
X829733Y-16467D01*
X829701Y-16411D01*
X829669Y-16346D01*
X829636Y-16273D01*
X829604Y-16194D01*
X829581Y-16111D01*
X829558Y-16018D01*
X829539Y-15921D01*
X829530Y-15820D01*
X829526Y-15709D01*
Y-15704D01*
Y-15690D01*
Y-15672D01*
X829530Y-15640D01*
Y-15607D01*
X829535Y-15566D01*
X829539Y-15519D01*
X829544Y-15473D01*
X829567Y-15362D01*
X829595Y-15247D01*
X829632Y-15122D01*
X829687Y-15007D01*
Y-15002D01*
X829697Y-14993D01*
X829706Y-14979D01*
X829715Y-14956D01*
X829752Y-14900D01*
X829803Y-14831D01*
X829867Y-14757D01*
X829941Y-14679D01*
X830029Y-14600D01*
X830131Y-14531D01*
X830136D01*
X830145Y-14522D01*
X830163Y-14512D01*
X830186Y-14503D01*
X830214Y-14489D01*
X830251Y-14471D01*
X830297Y-14452D01*
X830348Y-14434D01*
X830403Y-14411D01*
X830468Y-14392D01*
X830537Y-14369D01*
X830616Y-14346D01*
X830699Y-14327D01*
X830791Y-14309D01*
X830888Y-14291D01*
X830995Y-14272D01*
X831004D01*
X831027Y-14267D01*
X831069Y-14263D01*
X831124Y-14254D01*
X831184Y-14240D01*
X831258Y-14231D01*
X831341Y-14212D01*
X831429Y-14198D01*
X831614Y-14157D01*
X831803Y-14110D01*
X831896Y-14087D01*
X831983Y-14060D01*
X832062Y-14032D01*
X832136Y-14004D01*
X832141Y-13810D01*
Y-13805D01*
Y-13792D01*
Y-13764D01*
X832136Y-13732D01*
Y-13695D01*
X832131Y-13653D01*
X832117Y-13551D01*
X832099Y-13441D01*
X832067Y-13334D01*
X832025Y-13233D01*
X832002Y-13186D01*
X831970Y-13149D01*
X831965Y-13145D01*
X831960Y-13136D01*
X831946Y-13122D01*
X831923Y-13108D01*
X831900Y-13085D01*
X831868Y-13062D01*
X831831Y-13039D01*
X831789Y-13011D01*
X831743Y-12983D01*
X831688Y-12960D01*
X831628Y-12937D01*
X831563Y-12914D01*
X831489Y-12900D01*
X831415Y-12886D01*
X831327Y-12877D01*
X831240Y-12872D01*
X831198D01*
X831166Y-12877D01*
X831129D01*
X831087Y-12881D01*
X830990Y-12895D01*
X830884Y-12918D01*
X830773Y-12951D01*
X830667Y-12997D01*
X830621Y-13025D01*
X830574Y-13057D01*
X830570D01*
X830565Y-13066D01*
X830556Y-13076D01*
X830537Y-13094D01*
X830519Y-13117D01*
X830500Y-13140D01*
X830477Y-13172D01*
X830454Y-13214D01*
X830427Y-13256D01*
X830403Y-13307D01*
X830376Y-13362D01*
X830348Y-13427D01*
X830325Y-13496D01*
X830297Y-13570D01*
X830274Y-13653D01*
X830256Y-13745D01*
X829632Y-13644D01*
Y-13634D01*
X829636Y-13611D01*
X829646Y-13575D01*
X829660Y-13524D01*
X829673Y-13464D01*
X829697Y-13394D01*
X829720Y-13316D01*
X829747Y-13233D01*
X829780Y-13149D01*
X829821Y-13057D01*
X829863Y-12969D01*
X829914Y-12881D01*
X829969Y-12794D01*
X830029Y-12715D01*
X830094Y-12641D01*
X830168Y-12572D01*
X830172Y-12567D01*
X830186Y-12558D01*
X830209Y-12540D01*
X830246Y-12521D01*
X830288Y-12493D01*
X830339Y-12466D01*
X830399Y-12433D01*
X830468Y-12401D01*
X830547Y-12373D01*
X830634Y-12341D01*
X830731Y-12313D01*
X830833Y-12286D01*
X830949Y-12267D01*
X831069Y-12248D01*
X831198Y-12239D01*
X831337Y-12235D01*
X831392D01*
X831434Y-12239D01*
D02*
G37*
G36*
X826735Y-11338D02*
X825021D01*
Y-16905D01*
X824337D01*
Y-11338D01*
X822633D01*
Y-10595D01*
X826735D01*
Y-11338D01*
D02*
G37*
G36*
X815897Y-16905D02*
X815264D01*
Y-10595D01*
X815897D01*
Y-16905D01*
D02*
G37*
G36*
X814312D02*
X813679D01*
Y-12336D01*
X814312D01*
Y-16905D01*
D02*
G37*
G36*
X859440Y-12336D02*
X860082D01*
Y-12937D01*
X859440D01*
Y-15612D01*
Y-15617D01*
Y-15626D01*
Y-15649D01*
Y-15672D01*
Y-15700D01*
X859445Y-15732D01*
X859449Y-15811D01*
X859454Y-15889D01*
X859463Y-15968D01*
X859477Y-16037D01*
X859486Y-16065D01*
X859496Y-16088D01*
X859500Y-16092D01*
X859509Y-16111D01*
X859533Y-16134D01*
X859565Y-16162D01*
X859606Y-16194D01*
X859657Y-16217D01*
X859722Y-16236D01*
X859801Y-16240D01*
X859842D01*
X859874Y-16236D01*
X859916D01*
X859962Y-16226D01*
X860022Y-16222D01*
X860082Y-16213D01*
X860170Y-16896D01*
X860166D01*
X860156Y-16901D01*
X860142D01*
X860124Y-16905D01*
X860078Y-16919D01*
X860013Y-16929D01*
X859939Y-16942D01*
X859861Y-16956D01*
X859777Y-16961D01*
X859694Y-16966D01*
X859639D01*
X859611Y-16961D01*
X859579Y-16956D01*
X859505Y-16947D01*
X859417Y-16933D01*
X859329Y-16910D01*
X859241Y-16878D01*
X859158Y-16836D01*
X859149Y-16832D01*
X859126Y-16813D01*
X859089Y-16785D01*
X859047Y-16744D01*
X859001Y-16693D01*
X858955Y-16633D01*
X858913Y-16559D01*
X858881Y-16480D01*
Y-16476D01*
X858877Y-16471D01*
Y-16453D01*
X858872Y-16434D01*
X858863Y-16407D01*
X858858Y-16370D01*
X858853Y-16328D01*
X858844Y-16282D01*
X858840Y-16222D01*
X858830Y-16157D01*
X858826Y-16083D01*
X858821Y-16000D01*
X858816Y-15908D01*
X858812Y-15806D01*
X858807Y-15690D01*
Y-15570D01*
Y-12937D01*
X858341D01*
Y-12336D01*
X858807D01*
Y-11204D01*
X859440Y-10738D01*
Y-12336D01*
D02*
G37*
G36*
X842605Y-12239D02*
X842656Y-12244D01*
X842720Y-12253D01*
X842790Y-12267D01*
X842873Y-12286D01*
X842961Y-12313D01*
X843053Y-12346D01*
X843150Y-12382D01*
X843252Y-12433D01*
X843353Y-12493D01*
X843455Y-12563D01*
X843557Y-12646D01*
X843654Y-12743D01*
X843746Y-12849D01*
X843751Y-12858D01*
X843769Y-12877D01*
X843792Y-12914D01*
X843820Y-12965D01*
X843857Y-13025D01*
X843898Y-13103D01*
X843945Y-13196D01*
X843991Y-13297D01*
X844032Y-13417D01*
X844079Y-13547D01*
X844120Y-13695D01*
X844157Y-13852D01*
X844185Y-14023D01*
X844213Y-14207D01*
X844226Y-14406D01*
X844231Y-14619D01*
Y-14822D01*
X841436D01*
Y-14831D01*
X841441Y-14854D01*
Y-14896D01*
X841445Y-14947D01*
X841455Y-15011D01*
X841464Y-15085D01*
X841478Y-15168D01*
X841496Y-15256D01*
X841538Y-15446D01*
X841565Y-15543D01*
X841598Y-15640D01*
X841639Y-15732D01*
X841681Y-15824D01*
X841732Y-15908D01*
X841787Y-15986D01*
X841792Y-15991D01*
X841801Y-16005D01*
X841819Y-16023D01*
X841842Y-16046D01*
X841875Y-16074D01*
X841912Y-16111D01*
X841953Y-16143D01*
X842004Y-16180D01*
X842060Y-16217D01*
X842115Y-16250D01*
X842180Y-16282D01*
X842249Y-16314D01*
X842323Y-16337D01*
X842397Y-16356D01*
X842480Y-16370D01*
X842563Y-16374D01*
X842596D01*
X842633Y-16370D01*
X842679Y-16360D01*
X842739Y-16346D01*
X842803Y-16323D01*
X842877Y-16296D01*
X842956Y-16259D01*
X843034Y-16208D01*
X843118Y-16143D01*
X843201Y-16069D01*
X843284Y-15977D01*
X843363Y-15871D01*
X843400Y-15811D01*
X843432Y-15746D01*
X843469Y-15677D01*
X843501Y-15603D01*
X843529Y-15519D01*
X843557Y-15436D01*
X844213Y-15533D01*
Y-15543D01*
X844203Y-15566D01*
X844194Y-15603D01*
X844180Y-15653D01*
X844162Y-15713D01*
X844139Y-15788D01*
X844111Y-15861D01*
X844074Y-15949D01*
X844037Y-16037D01*
X843995Y-16125D01*
X843945Y-16217D01*
X843889Y-16309D01*
X843829Y-16402D01*
X843764Y-16485D01*
X843695Y-16568D01*
X843617Y-16642D01*
X843612Y-16647D01*
X843598Y-16656D01*
X843575Y-16675D01*
X843543Y-16698D01*
X843501Y-16730D01*
X843450Y-16758D01*
X843390Y-16795D01*
X843326Y-16827D01*
X843252Y-16859D01*
X843173Y-16896D01*
X843085Y-16924D01*
X842993Y-16952D01*
X842891Y-16979D01*
X842785Y-16998D01*
X842674Y-17007D01*
X842559Y-17012D01*
X842522D01*
X842480Y-17007D01*
X842425Y-17003D01*
X842360Y-16993D01*
X842281Y-16979D01*
X842194Y-16961D01*
X842101Y-16938D01*
X842000Y-16905D01*
X841893Y-16864D01*
X841787Y-16818D01*
X841681Y-16758D01*
X841575Y-16688D01*
X841468Y-16610D01*
X841367Y-16517D01*
X841270Y-16411D01*
X841265Y-16402D01*
X841247Y-16383D01*
X841224Y-16346D01*
X841191Y-16300D01*
X841154Y-16236D01*
X841113Y-16157D01*
X841071Y-16069D01*
X841025Y-15968D01*
X840979Y-15847D01*
X840937Y-15718D01*
X840895Y-15575D01*
X840858Y-15418D01*
X840826Y-15251D01*
X840803Y-15067D01*
X840785Y-14873D01*
X840780Y-14665D01*
Y-14660D01*
Y-14651D01*
Y-14637D01*
Y-14614D01*
Y-14586D01*
X840785Y-14549D01*
Y-14512D01*
X840789Y-14471D01*
X840794Y-14369D01*
X840808Y-14258D01*
X840821Y-14133D01*
X840840Y-13995D01*
X840868Y-13852D01*
X840900Y-13704D01*
X840942Y-13551D01*
X840988Y-13404D01*
X841043Y-13256D01*
X841113Y-13117D01*
X841187Y-12983D01*
X841274Y-12858D01*
X841279Y-12849D01*
X841297Y-12831D01*
X841325Y-12803D01*
X841362Y-12761D01*
X841413Y-12715D01*
X841473Y-12660D01*
X841542Y-12604D01*
X841621Y-12544D01*
X841704Y-12489D01*
X841801Y-12433D01*
X841907Y-12378D01*
X842018Y-12332D01*
X842138Y-12290D01*
X842263Y-12262D01*
X842397Y-12239D01*
X842535Y-12235D01*
X842568D01*
X842605Y-12239D01*
D02*
G37*
G36*
X818498Y-12239D02*
X818548Y-12244D01*
X818613Y-12253D01*
X818682Y-12267D01*
X818766Y-12286D01*
X818853Y-12313D01*
X818946Y-12346D01*
X819043Y-12382D01*
X819145Y-12433D01*
X819246Y-12493D01*
X819348Y-12563D01*
X819449Y-12646D01*
X819546Y-12743D01*
X819639Y-12849D01*
X819643Y-12858D01*
X819662Y-12877D01*
X819685Y-12914D01*
X819713Y-12965D01*
X819750Y-13025D01*
X819791Y-13103D01*
X819837Y-13196D01*
X819884Y-13297D01*
X819925Y-13417D01*
X819971Y-13547D01*
X820013Y-13695D01*
X820050Y-13852D01*
X820078Y-14023D01*
X820105Y-14207D01*
X820119Y-14406D01*
X820124Y-14619D01*
Y-14822D01*
X817329D01*
Y-14831D01*
X817333Y-14854D01*
Y-14896D01*
X817338Y-14947D01*
X817347Y-15011D01*
X817356Y-15085D01*
X817370Y-15168D01*
X817389Y-15256D01*
X817430Y-15446D01*
X817458Y-15543D01*
X817490Y-15640D01*
X817532Y-15732D01*
X817574Y-15824D01*
X817624Y-15908D01*
X817680Y-15986D01*
X817685Y-15991D01*
X817694Y-16005D01*
X817712Y-16023D01*
X817735Y-16046D01*
X817768Y-16074D01*
X817805Y-16111D01*
X817846Y-16143D01*
X817897Y-16180D01*
X817953Y-16217D01*
X818008Y-16250D01*
X818073Y-16282D01*
X818142Y-16314D01*
X818216Y-16337D01*
X818290Y-16356D01*
X818373Y-16370D01*
X818456Y-16374D01*
X818488D01*
X818525Y-16370D01*
X818572Y-16360D01*
X818632Y-16346D01*
X818696Y-16323D01*
X818770Y-16296D01*
X818849Y-16259D01*
X818927Y-16208D01*
X819011Y-16143D01*
X819094Y-16069D01*
X819177Y-15977D01*
X819255Y-15871D01*
X819292Y-15811D01*
X819325Y-15746D01*
X819362Y-15677D01*
X819394Y-15603D01*
X819422Y-15519D01*
X819449Y-15436D01*
X820105Y-15533D01*
Y-15543D01*
X820096Y-15566D01*
X820087Y-15603D01*
X820073Y-15653D01*
X820055Y-15714D01*
X820032Y-15788D01*
X820004Y-15861D01*
X819967Y-15949D01*
X819930Y-16037D01*
X819888Y-16125D01*
X819837Y-16217D01*
X819782Y-16309D01*
X819722Y-16402D01*
X819657Y-16485D01*
X819588Y-16568D01*
X819510Y-16642D01*
X819505Y-16647D01*
X819491Y-16656D01*
X819468Y-16675D01*
X819436Y-16698D01*
X819394Y-16730D01*
X819343Y-16758D01*
X819283Y-16795D01*
X819218Y-16827D01*
X819145Y-16859D01*
X819066Y-16896D01*
X818978Y-16924D01*
X818886Y-16952D01*
X818784Y-16979D01*
X818678Y-16998D01*
X818567Y-17007D01*
X818451Y-17012D01*
X818414D01*
X818373Y-17007D01*
X818318Y-17003D01*
X818253Y-16993D01*
X818174Y-16979D01*
X818087Y-16961D01*
X817994Y-16938D01*
X817892Y-16905D01*
X817786Y-16864D01*
X817680Y-16818D01*
X817574Y-16758D01*
X817467Y-16688D01*
X817361Y-16610D01*
X817260Y-16517D01*
X817163Y-16411D01*
X817158Y-16402D01*
X817139Y-16383D01*
X817116Y-16346D01*
X817084Y-16300D01*
X817047Y-16236D01*
X817005Y-16157D01*
X816964Y-16069D01*
X816918Y-15968D01*
X816871Y-15847D01*
X816830Y-15718D01*
X816788Y-15575D01*
X816751Y-15418D01*
X816719Y-15252D01*
X816696Y-15067D01*
X816677Y-14873D01*
X816673Y-14665D01*
Y-14660D01*
Y-14651D01*
Y-14637D01*
Y-14614D01*
Y-14586D01*
X816677Y-14549D01*
Y-14512D01*
X816682Y-14471D01*
X816687Y-14369D01*
X816700Y-14258D01*
X816714Y-14133D01*
X816733Y-13995D01*
X816761Y-13852D01*
X816793Y-13704D01*
X816835Y-13551D01*
X816881Y-13404D01*
X816936Y-13256D01*
X817005Y-13117D01*
X817079Y-12983D01*
X817167Y-12858D01*
X817172Y-12849D01*
X817190Y-12831D01*
X817218Y-12803D01*
X817255Y-12761D01*
X817306Y-12715D01*
X817366Y-12660D01*
X817435Y-12604D01*
X817514Y-12544D01*
X817597Y-12489D01*
X817694Y-12433D01*
X817800Y-12378D01*
X817911Y-12332D01*
X818031Y-12290D01*
X818156Y-12262D01*
X818290Y-12239D01*
X818428Y-12235D01*
X818461D01*
X818498Y-12239D01*
D02*
G37*
G36*
X810288Y-12854D02*
X810293Y-12849D01*
X810297Y-12840D01*
X810306Y-12826D01*
X810325Y-12803D01*
X810367Y-12747D01*
X810417Y-12678D01*
X810487Y-12604D01*
X810565Y-12530D01*
X810648Y-12456D01*
X810741Y-12392D01*
X810745D01*
X810755Y-12387D01*
X810768Y-12378D01*
X810787Y-12369D01*
X810810Y-12355D01*
X810838Y-12341D01*
X810912Y-12313D01*
X810995Y-12286D01*
X811092Y-12258D01*
X811198Y-12239D01*
X811314Y-12235D01*
X811355D01*
X811388Y-12239D01*
X811425Y-12244D01*
X811471Y-12249D01*
X811522Y-12258D01*
X811577Y-12267D01*
X811702Y-12299D01*
X811766Y-12318D01*
X811836Y-12346D01*
X811905Y-12378D01*
X811974Y-12410D01*
X812039Y-12452D01*
X812108Y-12498D01*
X812113Y-12503D01*
X812122Y-12512D01*
X812145Y-12526D01*
X812168Y-12549D01*
X812201Y-12577D01*
X812233Y-12609D01*
X812274Y-12651D01*
X812316Y-12697D01*
X812362Y-12747D01*
X812409Y-12808D01*
X812455Y-12872D01*
X812506Y-12946D01*
X812552Y-13025D01*
X812598Y-13108D01*
X812644Y-13200D01*
X812686Y-13297D01*
X812690Y-13302D01*
X812695Y-13320D01*
X812704Y-13353D01*
X812718Y-13394D01*
X812737Y-13445D01*
X812755Y-13505D01*
X812774Y-13579D01*
X812797Y-13658D01*
X812815Y-13750D01*
X812834Y-13847D01*
X812852Y-13953D01*
X812871Y-14069D01*
X812884Y-14189D01*
X812894Y-14318D01*
X812903Y-14452D01*
Y-14591D01*
Y-14595D01*
Y-14605D01*
Y-14619D01*
Y-14642D01*
Y-14669D01*
X812898Y-14702D01*
Y-14739D01*
X812894Y-14780D01*
X812889Y-14882D01*
X812875Y-14993D01*
X812861Y-15118D01*
X812843Y-15252D01*
X812815Y-15395D01*
X812783Y-15538D01*
X812746Y-15690D01*
X812695Y-15838D01*
X812640Y-15986D01*
X812575Y-16125D01*
X812501Y-16259D01*
X812413Y-16383D01*
X812409Y-16388D01*
X812390Y-16411D01*
X812362Y-16443D01*
X812325Y-16480D01*
X812279Y-16531D01*
X812224Y-16582D01*
X812164Y-16637D01*
X812090Y-16698D01*
X812011Y-16758D01*
X811923Y-16813D01*
X811831Y-16864D01*
X811729Y-16915D01*
X811623Y-16952D01*
X811512Y-16984D01*
X811397Y-17003D01*
X811277Y-17012D01*
X811244D01*
X811221Y-17007D01*
X811193D01*
X811161Y-17003D01*
X811083Y-16989D01*
X810990Y-16970D01*
X810893Y-16942D01*
X810791Y-16901D01*
X810690Y-16845D01*
X810685D01*
X810681Y-16836D01*
X810667Y-16827D01*
X810648Y-16813D01*
X810598Y-16771D01*
X810537Y-16716D01*
X810468Y-16647D01*
X810390Y-16559D01*
X810316Y-16457D01*
X810242Y-16337D01*
Y-16905D01*
X809650D01*
Y-10595D01*
X810288D01*
Y-12854D01*
D02*
G37*
G36*
X807225Y-12239D02*
X807276Y-12244D01*
X807340Y-12253D01*
X807414Y-12267D01*
X807498Y-12286D01*
X807590Y-12309D01*
X807687Y-12341D01*
X807784Y-12382D01*
X807890Y-12433D01*
X807996Y-12489D01*
X808103Y-12558D01*
X808204Y-12641D01*
X808306Y-12734D01*
X808403Y-12840D01*
X808408Y-12844D01*
X808426Y-12868D01*
X808449Y-12905D01*
X808482Y-12951D01*
X808519Y-13015D01*
X808565Y-13089D01*
X808606Y-13177D01*
X808657Y-13283D01*
X808703Y-13399D01*
X808749Y-13528D01*
X808791Y-13671D01*
X808828Y-13824D01*
X808860Y-13995D01*
X808883Y-14175D01*
X808902Y-14369D01*
X808907Y-14577D01*
Y-14582D01*
Y-14591D01*
Y-14609D01*
Y-14633D01*
Y-14660D01*
X808902Y-14693D01*
Y-14734D01*
X808897Y-14780D01*
X808893Y-14882D01*
X808879Y-14998D01*
X808865Y-15127D01*
X808846Y-15270D01*
X808819Y-15418D01*
X808786Y-15566D01*
X808745Y-15718D01*
X808694Y-15871D01*
X808639Y-16018D01*
X808574Y-16162D01*
X808495Y-16291D01*
X808408Y-16411D01*
X808403Y-16416D01*
X808385Y-16439D01*
X808357Y-16467D01*
X808320Y-16504D01*
X808269Y-16550D01*
X808209Y-16601D01*
X808144Y-16656D01*
X808066Y-16712D01*
X807978Y-16767D01*
X807885Y-16822D01*
X807779Y-16873D01*
X807668Y-16919D01*
X807548Y-16956D01*
X807423Y-16984D01*
X807290Y-17007D01*
X807151Y-17012D01*
X807119D01*
X807077Y-17007D01*
X807026Y-17003D01*
X806962Y-16993D01*
X806888Y-16979D01*
X806804Y-16961D01*
X806712Y-16938D01*
X806615Y-16905D01*
X806513Y-16864D01*
X806407Y-16818D01*
X806306Y-16758D01*
X806199Y-16688D01*
X806093Y-16610D01*
X805991Y-16517D01*
X805894Y-16411D01*
X805890Y-16402D01*
X805871Y-16383D01*
X805848Y-16346D01*
X805816Y-16296D01*
X805779Y-16236D01*
X805737Y-16157D01*
X805691Y-16065D01*
X805645Y-15958D01*
X805599Y-15843D01*
X805552Y-15709D01*
X805511Y-15561D01*
X805474Y-15399D01*
X805442Y-15228D01*
X805418Y-15039D01*
X805400Y-14840D01*
X805395Y-14623D01*
Y-14619D01*
Y-14609D01*
Y-14595D01*
Y-14572D01*
Y-14545D01*
X805400Y-14508D01*
Y-14471D01*
X805405Y-14429D01*
X805409Y-14332D01*
X805423Y-14217D01*
X805437Y-14092D01*
X805455Y-13958D01*
X805483Y-13815D01*
X805515Y-13667D01*
X805557Y-13519D01*
X805603Y-13371D01*
X805659Y-13228D01*
X805728Y-13089D01*
X805802Y-12960D01*
X805890Y-12840D01*
X805894Y-12831D01*
X805913Y-12812D01*
X805941Y-12785D01*
X805978Y-12743D01*
X806028Y-12701D01*
X806088Y-12651D01*
X806158Y-12595D01*
X806236Y-12535D01*
X806319Y-12480D01*
X806416Y-12424D01*
X806523Y-12373D01*
X806633Y-12327D01*
X806754Y-12290D01*
X806878Y-12262D01*
X807012Y-12239D01*
X807151Y-12235D01*
X807183D01*
X807225Y-12239D01*
D02*
G37*
%LPC*%
G36*
X268033Y201463D02*
X265466D01*
Y199092D01*
X268033D01*
Y201463D01*
D02*
G37*
G36*
X25822Y199268D02*
X25776D01*
Y195618D01*
X29425D01*
Y195664D01*
X29142Y196720D01*
X28596Y197666D01*
X27823Y198439D01*
X26877Y198985D01*
X25822Y199268D01*
D02*
G37*
G36*
X24776D02*
X24729D01*
X23674Y198985D01*
X22728Y198439D01*
X21955Y197666D01*
X21409Y196720D01*
X21126Y195664D01*
Y195618D01*
X24776D01*
Y199268D01*
D02*
G37*
G36*
X29425Y194618D02*
X25776D01*
Y190969D01*
X25822D01*
X26877Y191251D01*
X27823Y191798D01*
X28596Y192570D01*
X29142Y193516D01*
X29425Y194572D01*
Y194618D01*
D02*
G37*
G36*
X24776D02*
X21126D01*
Y194572D01*
X21409Y193516D01*
X21955Y192570D01*
X22728Y191798D01*
X23674Y191251D01*
X24729Y190969D01*
X24776D01*
Y194618D01*
D02*
G37*
G36*
X25822Y189268D02*
X25776D01*
Y185618D01*
X29425D01*
Y185664D01*
X29142Y186720D01*
X28596Y187666D01*
X27823Y188439D01*
X26877Y188985D01*
X25822Y189268D01*
D02*
G37*
G36*
X24776D02*
X24729D01*
X23674Y188985D01*
X22728Y188439D01*
X21955Y187666D01*
X21409Y186720D01*
X21126Y185664D01*
Y185618D01*
X24776D01*
Y189268D01*
D02*
G37*
G36*
X29425Y184618D02*
X25776D01*
Y180968D01*
X25822D01*
X26877Y181251D01*
X27823Y181798D01*
X28596Y182570D01*
X29142Y183516D01*
X29425Y184572D01*
Y184618D01*
D02*
G37*
G36*
X24776D02*
X21126D01*
Y184572D01*
X21409Y183516D01*
X21955Y182570D01*
X22728Y181798D01*
X23674Y181251D01*
X24729Y180968D01*
X24776D01*
Y184618D01*
D02*
G37*
G36*
X276881Y181802D02*
X271544D01*
Y180357D01*
X270137D01*
X269766Y180729D01*
X269075Y181015D01*
X268326D01*
X267635Y180729D01*
X267106Y180199D01*
X266819Y179508D01*
Y178760D01*
X267106Y178068D01*
X267635Y177539D01*
X268326Y177253D01*
X269075D01*
X269766Y177539D01*
X270137Y177910D01*
X271544D01*
Y176465D01*
X276881D01*
Y181802D01*
D02*
G37*
G36*
X283874Y182102D02*
X281406D01*
Y179634D01*
X283874D01*
Y182102D01*
D02*
G37*
G36*
X280406D02*
X277937D01*
Y179634D01*
X280406D01*
Y182102D01*
D02*
G37*
G36*
X283874Y178634D02*
X281406D01*
Y176165D01*
X283874D01*
Y178634D01*
D02*
G37*
G36*
X280406D02*
X277937D01*
Y176165D01*
X280406D01*
Y178634D01*
D02*
G37*
G36*
X29425Y179268D02*
X25776D01*
Y175618D01*
X29425D01*
Y179268D01*
D02*
G37*
G36*
X24776D02*
X21126D01*
Y175618D01*
X24776D01*
Y179268D01*
D02*
G37*
G36*
X29425Y174618D02*
X25776D01*
Y170968D01*
X29425D01*
Y174618D01*
D02*
G37*
G36*
X24776D02*
X21126D01*
Y170968D01*
X24776D01*
Y174618D01*
D02*
G37*
G36*
X118502Y137724D02*
X107259D01*
Y136279D01*
X104006D01*
X103635Y136651D01*
X102943Y136937D01*
X102195D01*
X101503Y136651D01*
X100974Y136121D01*
X100688Y135430D01*
Y134682D01*
X100974Y133990D01*
X101503Y133461D01*
X102195Y133175D01*
X102943D01*
X103635Y133461D01*
X104006Y133832D01*
X107259D01*
Y132387D01*
X118502D01*
Y137724D01*
D02*
G37*
G36*
X176857Y138050D02*
X174404D01*
Y135556D01*
X179785D01*
X179749Y135831D01*
X179450Y136553D01*
X178974Y137173D01*
X178354Y137649D01*
X177632Y137948D01*
X176857Y138050D01*
D02*
G37*
G36*
X173404D02*
X170951D01*
X170177Y137948D01*
X169455Y137649D01*
X168834Y137173D01*
X168359Y136553D01*
X168059Y135831D01*
X168023Y135556D01*
X173404D01*
Y138050D01*
D02*
G37*
G36*
X179785Y134556D02*
X174404D01*
Y132062D01*
X176857D01*
X177632Y132164D01*
X178354Y132463D01*
X178974Y132939D01*
X179450Y133559D01*
X179749Y134281D01*
X179785Y134556D01*
D02*
G37*
G36*
X173404D02*
X168023D01*
X168059Y134281D01*
X168359Y133559D01*
X168834Y132939D01*
X169455Y132463D01*
X170177Y132164D01*
X170951Y132062D01*
X173404D01*
Y134556D01*
D02*
G37*
G36*
X115833Y127747D02*
X109928D01*
X109231Y127656D01*
X108582Y127387D01*
X108025Y126959D01*
X107597Y126401D01*
X107546Y126279D01*
X104006D01*
X103635Y126651D01*
X102943Y126937D01*
X102195D01*
X101503Y126651D01*
X100974Y126121D01*
X100688Y125430D01*
Y124682D01*
X100974Y123990D01*
X101503Y123461D01*
X102195Y123175D01*
X102943D01*
X103635Y123461D01*
X104006Y123832D01*
X107546D01*
X107597Y123710D01*
X108025Y123152D01*
X108582Y122725D01*
X109231Y122456D01*
X109928Y122364D01*
X115833D01*
X116530Y122456D01*
X117179Y122725D01*
X117737Y123152D01*
X118164Y123710D01*
X118433Y124359D01*
X118525Y125056D01*
X118433Y125752D01*
X118164Y126401D01*
X117737Y126959D01*
X117179Y127387D01*
X116530Y127656D01*
X115833Y127747D01*
D02*
G37*
G36*
X176857D02*
X170951D01*
X170255Y127656D01*
X169606Y127387D01*
X169048Y126959D01*
X168621Y126401D01*
X168352Y125752D01*
X168260Y125056D01*
X168352Y124359D01*
X168621Y123710D01*
X169048Y123152D01*
X169606Y122725D01*
X170255Y122456D01*
X170951Y122364D01*
X176857D01*
X177554Y122456D01*
X178203Y122725D01*
X178760Y123152D01*
X179188Y123710D01*
X179457Y124359D01*
X179549Y125056D01*
X179457Y125752D01*
X179188Y126401D01*
X178760Y126959D01*
X178203Y127387D01*
X177554Y127656D01*
X176857Y127747D01*
D02*
G37*
G36*
X115833Y118050D02*
X113381D01*
Y115556D01*
X118762D01*
X118726Y115831D01*
X118426Y116553D01*
X117951Y117173D01*
X117331Y117649D01*
X116608Y117948D01*
X115833Y118050D01*
D02*
G37*
G36*
X176857Y117747D02*
X170951D01*
X170255Y117656D01*
X169606Y117387D01*
X169048Y116959D01*
X168621Y116402D01*
X168352Y115752D01*
X168260Y115056D01*
X168352Y114359D01*
X168621Y113710D01*
X169048Y113153D01*
X169606Y112725D01*
X170255Y112456D01*
X170951Y112364D01*
X176857D01*
X177554Y112456D01*
X178203Y112725D01*
X178760Y113153D01*
X178891Y113322D01*
X184545D01*
X184901Y113175D01*
X185650D01*
X186341Y113461D01*
X186870Y113990D01*
X187157Y114682D01*
Y115430D01*
X186870Y116121D01*
X186341Y116650D01*
X185650Y116937D01*
X184901D01*
X184545Y116789D01*
X178891D01*
X178760Y116959D01*
X178203Y117387D01*
X177554Y117656D01*
X176857Y117747D01*
D02*
G37*
G36*
X118762Y114556D02*
X113381D01*
Y112062D01*
X115833D01*
X116608Y112164D01*
X117331Y112463D01*
X117951Y112939D01*
X118426Y113559D01*
X118726Y114281D01*
X118762Y114556D01*
D02*
G37*
G36*
X112381Y118050D02*
X109928D01*
X109153Y117948D01*
X108431Y117649D01*
X107811Y117173D01*
X107516Y116789D01*
X102569D01*
X101906Y116657D01*
X101343Y116281D01*
X100968Y115719D01*
X100836Y115056D01*
X100968Y114392D01*
X101343Y113830D01*
X101906Y113454D01*
X102569Y113322D01*
X107516D01*
X107811Y112939D01*
X108431Y112463D01*
X109153Y112164D01*
X109928Y112062D01*
X112381D01*
Y115056D01*
Y118050D01*
D02*
G37*
G36*
X115833Y107747D02*
X109928D01*
X109231Y107656D01*
X108582Y107387D01*
X108025Y106959D01*
X107894Y106789D01*
X103300D01*
X102943Y106937D01*
X102195D01*
X101503Y106650D01*
X100974Y106121D01*
X100688Y105430D01*
Y104682D01*
X100974Y103990D01*
X101503Y103461D01*
X102195Y103175D01*
X102943D01*
X103300Y103322D01*
X107894D01*
X108025Y103153D01*
X108582Y102725D01*
X109231Y102456D01*
X109928Y102364D01*
X115833D01*
X116530Y102456D01*
X117179Y102725D01*
X117737Y103153D01*
X118164Y103710D01*
X118433Y104359D01*
X118525Y105056D01*
X118433Y105752D01*
X118164Y106402D01*
X117737Y106959D01*
X117179Y107387D01*
X116530Y107656D01*
X115833Y107747D01*
D02*
G37*
G36*
X176857D02*
X170951D01*
X170255Y107656D01*
X169606Y107387D01*
X169048Y106959D01*
X168621Y106402D01*
X168352Y105752D01*
X168260Y105056D01*
X168352Y104359D01*
X168621Y103710D01*
X169048Y103153D01*
X169606Y102725D01*
X170255Y102456D01*
X170951Y102364D01*
X176857D01*
X177554Y102456D01*
X178203Y102725D01*
X178760Y103153D01*
X179188Y103710D01*
X179457Y104359D01*
X179549Y105056D01*
X179457Y105752D01*
X179188Y106402D01*
X178760Y106959D01*
X178203Y107387D01*
X177554Y107656D01*
X176857Y107747D01*
D02*
G37*
G36*
X115833Y97747D02*
X109928D01*
X109231Y97656D01*
X108582Y97387D01*
X108025Y96959D01*
X107597Y96402D01*
X107483Y96126D01*
X104159D01*
X103635Y96650D01*
X102943Y96937D01*
X102195D01*
X101503Y96650D01*
X100974Y96121D01*
X100688Y95430D01*
Y94682D01*
X100974Y93990D01*
X101503Y93461D01*
X102195Y93175D01*
X102943D01*
X103635Y93461D01*
X104159Y93985D01*
X107483D01*
X107597Y93710D01*
X108025Y93152D01*
X108582Y92725D01*
X109231Y92456D01*
X109928Y92364D01*
X115833D01*
X116530Y92456D01*
X117179Y92725D01*
X117737Y93152D01*
X118164Y93710D01*
X118433Y94359D01*
X118525Y95056D01*
X118433Y95752D01*
X118164Y96402D01*
X117737Y96959D01*
X117179Y97387D01*
X116530Y97656D01*
X115833Y97747D01*
D02*
G37*
G36*
X176857D02*
X170951D01*
X170255Y97656D01*
X169606Y97387D01*
X169048Y96959D01*
X168621Y96402D01*
X168352Y95752D01*
X168260Y95056D01*
X168352Y94359D01*
X168621Y93710D01*
X169048Y93152D01*
X169606Y92725D01*
X170255Y92456D01*
X170951Y92364D01*
X176857D01*
X177554Y92456D01*
X178203Y92725D01*
X178760Y93152D01*
X179188Y93710D01*
X179457Y94359D01*
X179549Y95056D01*
X179457Y95752D01*
X179188Y96402D01*
X178760Y96959D01*
X178203Y97387D01*
X177554Y97656D01*
X176857Y97747D01*
D02*
G37*
G36*
Y87747D02*
X170951D01*
X170255Y87656D01*
X169606Y87387D01*
X169048Y86959D01*
X168621Y86401D01*
X168352Y85752D01*
X168260Y85056D01*
X168352Y84359D01*
X168621Y83710D01*
X169048Y83153D01*
X169606Y82725D01*
X170255Y82456D01*
X170951Y82364D01*
X176857D01*
X177554Y82456D01*
X178203Y82725D01*
X178760Y83153D01*
X178891Y83322D01*
X184545D01*
X184901Y83175D01*
X185650D01*
X186341Y83461D01*
X186870Y83990D01*
X187157Y84682D01*
Y85430D01*
X186870Y86121D01*
X186341Y86651D01*
X185650Y86937D01*
X184901D01*
X184545Y86789D01*
X178891D01*
X178760Y86959D01*
X178203Y87387D01*
X177554Y87656D01*
X176857Y87747D01*
D02*
G37*
G36*
X115833D02*
X109928D01*
X109231Y87656D01*
X108582Y87387D01*
X108025Y86959D01*
X107597Y86401D01*
X107328Y85752D01*
X107236Y85056D01*
X107328Y84359D01*
X107597Y83710D01*
X108025Y83153D01*
X108582Y82725D01*
X109231Y82456D01*
X109928Y82364D01*
X115833D01*
X116530Y82456D01*
X117179Y82725D01*
X117737Y83153D01*
X118164Y83710D01*
X118433Y84359D01*
X118525Y85056D01*
X118433Y85752D01*
X118164Y86401D01*
X117737Y86959D01*
X117179Y87387D01*
X116530Y87656D01*
X115833Y87747D01*
D02*
G37*
G36*
X259842Y41103D02*
X258375Y40910D01*
X257008Y40343D01*
X255833Y39442D01*
X254932Y38268D01*
X254366Y36900D01*
X254173Y35433D01*
X254366Y33966D01*
X254932Y32598D01*
X255833Y31424D01*
X257008Y30523D01*
X258375Y29956D01*
X259842Y29763D01*
X261310Y29956D01*
X262677Y30523D01*
X263852Y31424D01*
X264753Y32598D01*
X265319Y33966D01*
X265512Y35433D01*
X265319Y36900D01*
X264753Y38268D01*
X263852Y39442D01*
X262677Y40343D01*
X261310Y40910D01*
X259842Y41103D01*
D02*
G37*
G36*
X105822Y9268D02*
X105776D01*
Y5618D01*
X109425D01*
Y5664D01*
X109142Y6720D01*
X108596Y7666D01*
X107824Y8439D01*
X106877Y8985D01*
X105822Y9268D01*
D02*
G37*
G36*
X104776D02*
X104729D01*
X103674Y8985D01*
X102728Y8439D01*
X101955Y7666D01*
X101409Y6720D01*
X101126Y5664D01*
Y5618D01*
X104776D01*
Y9268D01*
D02*
G37*
G36*
X809997Y-2840D02*
X809978D01*
X809960Y-2844D01*
X809932Y-2849D01*
X809900Y-2854D01*
X809858Y-2863D01*
X809817Y-2877D01*
X809766Y-2900D01*
X809715Y-2923D01*
X809660Y-2955D01*
X809600Y-2992D01*
X809540Y-3039D01*
X809479Y-3089D01*
X809419Y-3154D01*
X809359Y-3223D01*
X809299Y-3306D01*
X809295Y-3311D01*
X809285Y-3330D01*
X809272Y-3353D01*
X809253Y-3394D01*
X809225Y-3441D01*
X809202Y-3501D01*
X809175Y-3570D01*
X809147Y-3648D01*
X809114Y-3736D01*
X809087Y-3838D01*
X809064Y-3949D01*
X809041Y-4069D01*
X809017Y-4198D01*
X809004Y-4341D01*
X808994Y-4489D01*
X808990Y-4651D01*
Y-4656D01*
Y-4660D01*
Y-4674D01*
Y-4688D01*
Y-4734D01*
X808994Y-4794D01*
X808999Y-4868D01*
X809004Y-4956D01*
X809013Y-5048D01*
X809027Y-5145D01*
X809041Y-5252D01*
X809064Y-5358D01*
X809087Y-5469D01*
X809114Y-5575D01*
X809147Y-5681D01*
X809188Y-5783D01*
X809235Y-5875D01*
X809285Y-5958D01*
X809290Y-5963D01*
X809299Y-5977D01*
X809318Y-5995D01*
X809336Y-6023D01*
X809369Y-6055D01*
X809401Y-6088D01*
X809443Y-6129D01*
X809484Y-6166D01*
X809535Y-6203D01*
X809590Y-6240D01*
X809650Y-6277D01*
X809710Y-6310D01*
X809780Y-6337D01*
X809849Y-6356D01*
X809923Y-6370D01*
X810001Y-6374D01*
X810020D01*
X810038Y-6370D01*
X810071Y-6365D01*
X810103Y-6360D01*
X810145Y-6351D01*
X810191Y-6337D01*
X810242Y-6319D01*
X810293Y-6296D01*
X810353Y-6268D01*
X810408Y-6231D01*
X810468Y-6189D01*
X810528Y-6143D01*
X810593Y-6083D01*
X810648Y-6019D01*
X810708Y-5940D01*
X810713Y-5935D01*
X810722Y-5922D01*
X810736Y-5894D01*
X810755Y-5857D01*
X810778Y-5811D01*
X810805Y-5755D01*
X810833Y-5686D01*
X810861Y-5607D01*
X810888Y-5520D01*
X810916Y-5423D01*
X810944Y-5312D01*
X810967Y-5192D01*
X810986Y-5062D01*
X810999Y-4919D01*
X811009Y-4766D01*
X811013Y-4600D01*
Y-4595D01*
Y-4591D01*
Y-4577D01*
Y-4559D01*
Y-4512D01*
X811009Y-4452D01*
X811004Y-4378D01*
X810999Y-4295D01*
X810990Y-4198D01*
X810976Y-4096D01*
X810962Y-3990D01*
X810939Y-3884D01*
X810916Y-3773D01*
X810888Y-3662D01*
X810856Y-3556D01*
X810815Y-3454D01*
X810768Y-3362D01*
X810718Y-3274D01*
X810713Y-3270D01*
X810704Y-3256D01*
X810690Y-3233D01*
X810667Y-3205D01*
X810634Y-3173D01*
X810602Y-3136D01*
X810561Y-3099D01*
X810519Y-3057D01*
X810468Y-3015D01*
X810413Y-2978D01*
X810353Y-2942D01*
X810288Y-2909D01*
X810223Y-2881D01*
X810149Y-2858D01*
X810075Y-2844D01*
X809997Y-2840D01*
D02*
G37*
G36*
X820849Y-4614D02*
X820845D01*
X820831Y-4623D01*
X820812Y-4632D01*
X820785Y-4642D01*
X820748Y-4660D01*
X820701Y-4674D01*
X820651Y-4697D01*
X820586Y-4716D01*
X820517Y-4739D01*
X820443Y-4762D01*
X820355Y-4785D01*
X820263Y-4813D01*
X820161Y-4836D01*
X820050Y-4859D01*
X819934Y-4882D01*
X819810Y-4905D01*
X819805D01*
X819791Y-4910D01*
X819773D01*
X819745Y-4919D01*
X819713Y-4924D01*
X819676Y-4933D01*
X819588Y-4951D01*
X819496Y-4974D01*
X819403Y-5002D01*
X819315Y-5034D01*
X819279Y-5048D01*
X819246Y-5067D01*
X819242Y-5071D01*
X819218Y-5081D01*
X819191Y-5104D01*
X819158Y-5131D01*
X819117Y-5168D01*
X819075Y-5210D01*
X819038Y-5261D01*
X819001Y-5316D01*
X818997Y-5325D01*
X818987Y-5344D01*
X818974Y-5376D01*
X818960Y-5423D01*
X818941Y-5478D01*
X818927Y-5543D01*
X818918Y-5612D01*
X818913Y-5690D01*
Y-5695D01*
Y-5704D01*
Y-5723D01*
X818918Y-5746D01*
Y-5774D01*
X818923Y-5806D01*
X818937Y-5880D01*
X818964Y-5963D01*
X818997Y-6051D01*
X819048Y-6134D01*
X819075Y-6176D01*
X819112Y-6213D01*
X819117D01*
X819121Y-6222D01*
X819135Y-6231D01*
X819149Y-6245D01*
X819195Y-6273D01*
X819260Y-6310D01*
X819339Y-6346D01*
X819436Y-6374D01*
X819546Y-6397D01*
X819676Y-6407D01*
X819708D01*
X819731Y-6402D01*
X819764D01*
X819796Y-6397D01*
X819879Y-6383D01*
X819976Y-6365D01*
X820078Y-6333D01*
X820184Y-6291D01*
X820290Y-6231D01*
X820295D01*
X820304Y-6222D01*
X820318Y-6213D01*
X820336Y-6199D01*
X820387Y-6162D01*
X820447Y-6106D01*
X820517Y-6037D01*
X820586Y-5958D01*
X820655Y-5866D01*
X820711Y-5760D01*
Y-5755D01*
X820715Y-5746D01*
X820724Y-5727D01*
X820734Y-5704D01*
X820743Y-5672D01*
X820757Y-5635D01*
X820766Y-5593D01*
X820780Y-5543D01*
X820794Y-5483D01*
X820808Y-5418D01*
X820817Y-5349D01*
X820826Y-5270D01*
X820835Y-5187D01*
X820845Y-5099D01*
X820849Y-5002D01*
Y-4900D01*
Y-4614D01*
D02*
G37*
G36*
X827627Y-2872D02*
X827585D01*
X827557Y-2877D01*
X827520Y-2881D01*
X827474Y-2891D01*
X827428Y-2900D01*
X827377Y-2918D01*
X827322Y-2937D01*
X827262Y-2960D01*
X827202Y-2988D01*
X827142Y-3020D01*
X827077Y-3062D01*
X827017Y-3112D01*
X826957Y-3163D01*
X826897Y-3228D01*
X826892Y-3233D01*
X826883Y-3246D01*
X826869Y-3265D01*
X826851Y-3293D01*
X826828Y-3330D01*
X826800Y-3371D01*
X826772Y-3422D01*
X826744Y-3482D01*
X826712Y-3547D01*
X826684Y-3616D01*
X826657Y-3695D01*
X826633Y-3782D01*
X826610Y-3875D01*
X826592Y-3972D01*
X826578Y-4073D01*
X826569Y-4184D01*
X828662Y-4184D01*
Y-4180D01*
Y-4157D01*
X828657Y-4129D01*
X828652Y-4087D01*
X828643Y-4036D01*
X828634Y-3981D01*
X828625Y-3921D01*
X828611Y-3852D01*
X828578Y-3709D01*
X828537Y-3561D01*
X828477Y-3422D01*
X828444Y-3357D01*
X828408Y-3302D01*
X828403Y-3297D01*
X828394Y-3283D01*
X828375Y-3260D01*
X828352Y-3233D01*
X828320Y-3200D01*
X828283Y-3168D01*
X828241Y-3126D01*
X828195Y-3085D01*
X828140Y-3048D01*
X828080Y-3006D01*
X828015Y-2974D01*
X827946Y-2937D01*
X827876Y-2914D01*
X827798Y-2891D01*
X827715Y-2877D01*
X827627Y-2872D01*
D02*
G37*
G36*
X805885D02*
X805867D01*
X805844Y-2877D01*
X805811D01*
X805770Y-2886D01*
X805723Y-2895D01*
X805673Y-2909D01*
X805617Y-2928D01*
X805562Y-2951D01*
X805497Y-2978D01*
X805432Y-3015D01*
X805368Y-3057D01*
X805303Y-3108D01*
X805238Y-3168D01*
X805174Y-3233D01*
X805114Y-3311D01*
X805109Y-3316D01*
X805100Y-3330D01*
X805086Y-3357D01*
X805063Y-3394D01*
X805040Y-3441D01*
X805017Y-3496D01*
X804984Y-3561D01*
X804957Y-3639D01*
X804929Y-3727D01*
X804901Y-3824D01*
X804873Y-3930D01*
X804850Y-4046D01*
X804827Y-4175D01*
X804813Y-4314D01*
X804804Y-4462D01*
X804799Y-4623D01*
Y-4628D01*
Y-4632D01*
Y-4646D01*
Y-4660D01*
Y-4706D01*
X804804Y-4766D01*
X804809Y-4840D01*
X804818Y-4928D01*
X804827Y-5021D01*
X804841Y-5122D01*
X804855Y-5229D01*
X804878Y-5335D01*
X804901Y-5446D01*
X804933Y-5556D01*
X804970Y-5663D01*
X805012Y-5764D01*
X805063Y-5857D01*
X805118Y-5945D01*
X805123Y-5949D01*
X805132Y-5963D01*
X805151Y-5986D01*
X805178Y-6009D01*
X805206Y-6046D01*
X805247Y-6078D01*
X805289Y-6120D01*
X805340Y-6157D01*
X805395Y-6199D01*
X805455Y-6240D01*
X805520Y-6273D01*
X805594Y-6305D01*
X805668Y-6333D01*
X805746Y-6356D01*
X805830Y-6370D01*
X805917Y-6374D01*
X805936D01*
X805959Y-6370D01*
X805991Y-6365D01*
X806033Y-6360D01*
X806075Y-6351D01*
X806125Y-6337D01*
X806181Y-6319D01*
X806241Y-6296D01*
X806301Y-6268D01*
X806366Y-6231D01*
X806430Y-6189D01*
X806495Y-6143D01*
X806560Y-6083D01*
X806624Y-6019D01*
X806684Y-5940D01*
X806689Y-5935D01*
X806698Y-5922D01*
X806712Y-5894D01*
X806735Y-5857D01*
X806758Y-5811D01*
X806786Y-5755D01*
X806818Y-5686D01*
X806846Y-5612D01*
X806878Y-5524D01*
X806906Y-5427D01*
X806934Y-5316D01*
X806957Y-5201D01*
X806980Y-5071D01*
X806994Y-4933D01*
X807003Y-4780D01*
X807008Y-4623D01*
Y-4619D01*
Y-4614D01*
Y-4600D01*
Y-4586D01*
Y-4540D01*
X807003Y-4480D01*
X806999Y-4406D01*
X806989Y-4323D01*
X806980Y-4226D01*
X806966Y-4129D01*
X806952Y-4023D01*
X806929Y-3912D01*
X806901Y-3805D01*
X806874Y-3695D01*
X806832Y-3588D01*
X806791Y-3487D01*
X806740Y-3394D01*
X806684Y-3306D01*
X806680Y-3302D01*
X806670Y-3288D01*
X806652Y-3265D01*
X806624Y-3237D01*
X806597Y-3205D01*
X806555Y-3168D01*
X806513Y-3131D01*
X806463Y-3089D01*
X806407Y-3048D01*
X806347Y-3011D01*
X806282Y-2974D01*
X806213Y-2942D01*
X806135Y-2914D01*
X806056Y-2891D01*
X805973Y-2877D01*
X805885Y-2872D01*
D02*
G37*
G36*
X857042Y-14614D02*
X857038D01*
X857024Y-14623D01*
X857005Y-14633D01*
X856978Y-14642D01*
X856941Y-14660D01*
X856894Y-14674D01*
X856844Y-14697D01*
X856779Y-14716D01*
X856710Y-14739D01*
X856636Y-14762D01*
X856548Y-14785D01*
X856456Y-14813D01*
X856354Y-14836D01*
X856243Y-14859D01*
X856128Y-14882D01*
X856003Y-14905D01*
X855998D01*
X855984Y-14910D01*
X855966D01*
X855938Y-14919D01*
X855906Y-14923D01*
X855869Y-14933D01*
X855781Y-14951D01*
X855689Y-14974D01*
X855596Y-15002D01*
X855509Y-15034D01*
X855472Y-15048D01*
X855439Y-15067D01*
X855435Y-15071D01*
X855412Y-15081D01*
X855384Y-15104D01*
X855351Y-15131D01*
X855310Y-15168D01*
X855268Y-15210D01*
X855231Y-15261D01*
X855194Y-15316D01*
X855190Y-15326D01*
X855180Y-15344D01*
X855167Y-15376D01*
X855153Y-15423D01*
X855134Y-15478D01*
X855120Y-15543D01*
X855111Y-15612D01*
X855107Y-15690D01*
Y-15695D01*
Y-15704D01*
Y-15723D01*
X855111Y-15746D01*
Y-15774D01*
X855116Y-15806D01*
X855130Y-15880D01*
X855157Y-15963D01*
X855190Y-16051D01*
X855241Y-16134D01*
X855268Y-16175D01*
X855305Y-16213D01*
X855310D01*
X855315Y-16222D01*
X855328Y-16231D01*
X855342Y-16245D01*
X855388Y-16273D01*
X855453Y-16309D01*
X855532Y-16346D01*
X855629Y-16374D01*
X855739Y-16397D01*
X855869Y-16407D01*
X855901D01*
X855924Y-16402D01*
X855957D01*
X855989Y-16397D01*
X856072Y-16383D01*
X856169Y-16365D01*
X856271Y-16333D01*
X856377Y-16291D01*
X856483Y-16231D01*
X856488D01*
X856497Y-16222D01*
X856511Y-16213D01*
X856530Y-16199D01*
X856580Y-16162D01*
X856640Y-16106D01*
X856710Y-16037D01*
X856779Y-15958D01*
X856848Y-15866D01*
X856904Y-15760D01*
Y-15755D01*
X856908Y-15746D01*
X856918Y-15727D01*
X856927Y-15704D01*
X856936Y-15672D01*
X856950Y-15635D01*
X856959Y-15593D01*
X856973Y-15543D01*
X856987Y-15483D01*
X857001Y-15418D01*
X857010Y-15349D01*
X857019Y-15270D01*
X857028Y-15187D01*
X857038Y-15099D01*
X857042Y-15002D01*
Y-14900D01*
Y-14614D01*
D02*
G37*
G36*
X832136D02*
X832131D01*
X832117Y-14623D01*
X832099Y-14633D01*
X832071Y-14642D01*
X832034Y-14660D01*
X831988Y-14674D01*
X831937Y-14697D01*
X831873Y-14716D01*
X831803Y-14739D01*
X831729Y-14762D01*
X831642Y-14785D01*
X831549Y-14813D01*
X831448Y-14836D01*
X831337Y-14859D01*
X831221Y-14882D01*
X831096Y-14905D01*
X831092D01*
X831078Y-14910D01*
X831059D01*
X831032Y-14919D01*
X830999Y-14923D01*
X830962Y-14933D01*
X830875Y-14951D01*
X830782Y-14974D01*
X830690Y-15002D01*
X830602Y-15034D01*
X830565Y-15048D01*
X830533Y-15067D01*
X830528Y-15071D01*
X830505Y-15081D01*
X830477Y-15104D01*
X830445Y-15131D01*
X830403Y-15168D01*
X830362Y-15210D01*
X830325Y-15261D01*
X830288Y-15316D01*
X830283Y-15326D01*
X830274Y-15344D01*
X830260Y-15376D01*
X830246Y-15423D01*
X830228Y-15478D01*
X830214Y-15543D01*
X830205Y-15612D01*
X830200Y-15690D01*
Y-15695D01*
Y-15704D01*
Y-15723D01*
X830205Y-15746D01*
Y-15774D01*
X830209Y-15806D01*
X830223Y-15880D01*
X830251Y-15963D01*
X830283Y-16051D01*
X830334Y-16134D01*
X830362Y-16175D01*
X830399Y-16213D01*
X830403D01*
X830408Y-16222D01*
X830422Y-16231D01*
X830436Y-16245D01*
X830482Y-16273D01*
X830547Y-16309D01*
X830625Y-16346D01*
X830722Y-16374D01*
X830833Y-16397D01*
X830962Y-16407D01*
X830995D01*
X831018Y-16402D01*
X831050D01*
X831083Y-16397D01*
X831166Y-16383D01*
X831263Y-16365D01*
X831364Y-16333D01*
X831471Y-16291D01*
X831577Y-16231D01*
X831581D01*
X831591Y-16222D01*
X831605Y-16213D01*
X831623Y-16199D01*
X831674Y-16162D01*
X831734Y-16106D01*
X831803Y-16037D01*
X831873Y-15958D01*
X831942Y-15866D01*
X831997Y-15760D01*
Y-15755D01*
X832002Y-15746D01*
X832011Y-15727D01*
X832020Y-15704D01*
X832030Y-15672D01*
X832043Y-15635D01*
X832053Y-15593D01*
X832067Y-15543D01*
X832080Y-15483D01*
X832094Y-15418D01*
X832104Y-15349D01*
X832113Y-15270D01*
X832122Y-15187D01*
X832131Y-15099D01*
X832136Y-15002D01*
Y-14900D01*
Y-14614D01*
D02*
G37*
G36*
X842531Y-12872D02*
X842489D01*
X842462Y-12877D01*
X842425Y-12881D01*
X842379Y-12891D01*
X842332Y-12900D01*
X842281Y-12918D01*
X842226Y-12937D01*
X842166Y-12960D01*
X842106Y-12988D01*
X842046Y-13020D01*
X841981Y-13062D01*
X841921Y-13113D01*
X841861Y-13163D01*
X841801Y-13228D01*
X841796Y-13233D01*
X841787Y-13247D01*
X841773Y-13265D01*
X841755Y-13293D01*
X841732Y-13330D01*
X841704Y-13371D01*
X841676Y-13422D01*
X841648Y-13482D01*
X841616Y-13547D01*
X841588Y-13616D01*
X841561Y-13695D01*
X841538Y-13782D01*
X841514Y-13875D01*
X841496Y-13972D01*
X841482Y-14073D01*
X841473Y-14184D01*
X843566D01*
Y-14180D01*
Y-14157D01*
X843561Y-14129D01*
X843557Y-14087D01*
X843547Y-14037D01*
X843538Y-13981D01*
X843529Y-13921D01*
X843515Y-13852D01*
X843483Y-13709D01*
X843441Y-13561D01*
X843381Y-13422D01*
X843349Y-13357D01*
X843312Y-13302D01*
X843307Y-13297D01*
X843298Y-13283D01*
X843279Y-13260D01*
X843256Y-13233D01*
X843224Y-13200D01*
X843187Y-13168D01*
X843145Y-13126D01*
X843099Y-13085D01*
X843044Y-13048D01*
X842984Y-13006D01*
X842919Y-12974D01*
X842850Y-12937D01*
X842780Y-12914D01*
X842702Y-12891D01*
X842619Y-12877D01*
X842531Y-12872D01*
D02*
G37*
G36*
X818424Y-12872D02*
X818382D01*
X818355Y-12877D01*
X818318Y-12881D01*
X818271Y-12891D01*
X818225Y-12900D01*
X818174Y-12919D01*
X818119Y-12937D01*
X818059Y-12960D01*
X817999Y-12988D01*
X817939Y-13020D01*
X817874Y-13062D01*
X817814Y-13113D01*
X817754Y-13163D01*
X817694Y-13228D01*
X817689Y-13233D01*
X817680Y-13247D01*
X817666Y-13265D01*
X817648Y-13293D01*
X817624Y-13330D01*
X817597Y-13371D01*
X817569Y-13422D01*
X817541Y-13482D01*
X817509Y-13547D01*
X817481Y-13616D01*
X817454Y-13695D01*
X817430Y-13782D01*
X817407Y-13875D01*
X817389Y-13972D01*
X817375Y-14073D01*
X817366Y-14184D01*
X819459D01*
Y-14180D01*
Y-14157D01*
X819454Y-14129D01*
X819449Y-14087D01*
X819440Y-14037D01*
X819431Y-13981D01*
X819422Y-13921D01*
X819408Y-13852D01*
X819376Y-13709D01*
X819334Y-13561D01*
X819274Y-13422D01*
X819242Y-13357D01*
X819205Y-13302D01*
X819200Y-13297D01*
X819191Y-13283D01*
X819172Y-13260D01*
X819149Y-13233D01*
X819117Y-13200D01*
X819080Y-13168D01*
X819038Y-13126D01*
X818992Y-13085D01*
X818937Y-13048D01*
X818876Y-13006D01*
X818812Y-12974D01*
X818742Y-12937D01*
X818673Y-12914D01*
X818595Y-12891D01*
X818511Y-12877D01*
X818424Y-12872D01*
D02*
G37*
G36*
X811240D02*
X811221D01*
X811203Y-12877D01*
X811175D01*
X811138Y-12886D01*
X811101Y-12895D01*
X811055Y-12909D01*
X811004Y-12928D01*
X810953Y-12951D01*
X810898Y-12979D01*
X810838Y-13015D01*
X810778Y-13057D01*
X810718Y-13108D01*
X810658Y-13168D01*
X810598Y-13237D01*
X810537Y-13316D01*
X810533Y-13320D01*
X810524Y-13334D01*
X810510Y-13362D01*
X810491Y-13399D01*
X810468Y-13445D01*
X810440Y-13501D01*
X810413Y-13565D01*
X810385Y-13639D01*
X810357Y-13727D01*
X810330Y-13819D01*
X810302Y-13926D01*
X810279Y-14037D01*
X810260Y-14161D01*
X810246Y-14295D01*
X810237Y-14438D01*
X810233Y-14591D01*
Y-14600D01*
Y-14623D01*
Y-14660D01*
Y-14706D01*
X810237Y-14766D01*
Y-14836D01*
X810242Y-14910D01*
X810246Y-14988D01*
X810265Y-15164D01*
X810283Y-15339D01*
X810302Y-15427D01*
X810316Y-15506D01*
X810334Y-15584D01*
X810357Y-15653D01*
Y-15658D01*
X810362Y-15667D01*
X810371Y-15686D01*
X810380Y-15709D01*
X810394Y-15741D01*
X810413Y-15774D01*
X810450Y-15852D01*
X810505Y-15940D01*
X810565Y-16028D01*
X810639Y-16111D01*
X810722Y-16189D01*
X810727D01*
X810732Y-16199D01*
X810745Y-16208D01*
X810764Y-16217D01*
X810815Y-16250D01*
X810879Y-16282D01*
X810958Y-16314D01*
X811046Y-16346D01*
X811143Y-16365D01*
X811249Y-16374D01*
X811267D01*
X811286Y-16370D01*
X811314Y-16365D01*
X811351Y-16360D01*
X811388Y-16351D01*
X811434Y-16337D01*
X811485Y-16319D01*
X811535Y-16296D01*
X811591Y-16268D01*
X811651Y-16231D01*
X811711Y-16189D01*
X811771Y-16139D01*
X811831Y-16079D01*
X811887Y-16014D01*
X811946Y-15935D01*
X811951Y-15931D01*
X811960Y-15917D01*
X811974Y-15889D01*
X811993Y-15852D01*
X812016Y-15806D01*
X812043Y-15751D01*
X812071Y-15681D01*
X812099Y-15607D01*
X812127Y-15519D01*
X812154Y-15423D01*
X812182Y-15312D01*
X812205Y-15196D01*
X812224Y-15067D01*
X812238Y-14928D01*
X812247Y-14776D01*
X812251Y-14619D01*
Y-14614D01*
Y-14609D01*
Y-14595D01*
Y-14577D01*
Y-14531D01*
X812247Y-14471D01*
X812242Y-14397D01*
X812238Y-14309D01*
X812228Y-14217D01*
X812214Y-14115D01*
X812201Y-14009D01*
X812177Y-13898D01*
X812154Y-13792D01*
X812127Y-13681D01*
X812094Y-13575D01*
X812053Y-13473D01*
X812007Y-13380D01*
X811956Y-13297D01*
X811951Y-13293D01*
X811942Y-13279D01*
X811928Y-13256D01*
X811905Y-13233D01*
X811877Y-13200D01*
X811840Y-13163D01*
X811803Y-13126D01*
X811757Y-13085D01*
X811706Y-13043D01*
X811656Y-13006D01*
X811595Y-12969D01*
X811531Y-12937D01*
X811461Y-12909D01*
X811392Y-12891D01*
X811318Y-12877D01*
X811240Y-12872D01*
D02*
G37*
G36*
X807133D02*
X807114D01*
X807091Y-12877D01*
X807059D01*
X807017Y-12886D01*
X806971Y-12895D01*
X806920Y-12909D01*
X806864Y-12928D01*
X806809Y-12951D01*
X806744Y-12979D01*
X806680Y-13015D01*
X806615Y-13057D01*
X806550Y-13108D01*
X806486Y-13168D01*
X806421Y-13233D01*
X806361Y-13311D01*
X806356Y-13316D01*
X806347Y-13330D01*
X806333Y-13357D01*
X806310Y-13394D01*
X806287Y-13441D01*
X806264Y-13496D01*
X806232Y-13561D01*
X806204Y-13639D01*
X806176Y-13727D01*
X806148Y-13824D01*
X806121Y-13930D01*
X806098Y-14046D01*
X806075Y-14175D01*
X806061Y-14314D01*
X806051Y-14461D01*
X806047Y-14623D01*
Y-14628D01*
Y-14633D01*
Y-14646D01*
Y-14660D01*
Y-14706D01*
X806051Y-14766D01*
X806056Y-14840D01*
X806065Y-14928D01*
X806075Y-15021D01*
X806088Y-15122D01*
X806102Y-15228D01*
X806125Y-15335D01*
X806148Y-15446D01*
X806181Y-15556D01*
X806218Y-15663D01*
X806259Y-15764D01*
X806310Y-15857D01*
X806366Y-15945D01*
X806370Y-15949D01*
X806379Y-15963D01*
X806398Y-15986D01*
X806426Y-16009D01*
X806453Y-16046D01*
X806495Y-16079D01*
X806536Y-16120D01*
X806587Y-16157D01*
X806643Y-16199D01*
X806703Y-16240D01*
X806767Y-16273D01*
X806841Y-16305D01*
X806915Y-16333D01*
X806994Y-16356D01*
X807077Y-16370D01*
X807165Y-16374D01*
X807183D01*
X807206Y-16370D01*
X807239Y-16365D01*
X807280Y-16360D01*
X807322Y-16351D01*
X807373Y-16337D01*
X807428Y-16319D01*
X807488Y-16296D01*
X807548Y-16268D01*
X807613Y-16231D01*
X807678Y-16189D01*
X807742Y-16143D01*
X807807Y-16083D01*
X807872Y-16018D01*
X807932Y-15940D01*
X807936Y-15935D01*
X807946Y-15921D01*
X807959Y-15894D01*
X807983Y-15857D01*
X808006Y-15811D01*
X808033Y-15755D01*
X808066Y-15686D01*
X808093Y-15612D01*
X808126Y-15524D01*
X808154Y-15427D01*
X808181Y-15316D01*
X808204Y-15201D01*
X808227Y-15071D01*
X808241Y-14933D01*
X808251Y-14780D01*
X808255Y-14623D01*
Y-14619D01*
Y-14614D01*
Y-14600D01*
Y-14586D01*
Y-14540D01*
X808251Y-14480D01*
X808246Y-14406D01*
X808237Y-14323D01*
X808227Y-14226D01*
X808214Y-14129D01*
X808200Y-14023D01*
X808177Y-13912D01*
X808149Y-13805D01*
X808121Y-13695D01*
X808080Y-13588D01*
X808038Y-13487D01*
X807987Y-13394D01*
X807932Y-13307D01*
X807927Y-13302D01*
X807918Y-13288D01*
X807899Y-13265D01*
X807872Y-13237D01*
X807844Y-13205D01*
X807802Y-13168D01*
X807761Y-13131D01*
X807710Y-13089D01*
X807654Y-13048D01*
X807594Y-13011D01*
X807530Y-12974D01*
X807460Y-12942D01*
X807382Y-12914D01*
X807303Y-12891D01*
X807220Y-12877D01*
X807133Y-12872D01*
D02*
G37*
%LPD*%
D12*
X268701Y179134D02*
X274213D01*
X277686Y197081D02*
X277806Y196962D01*
X277558Y197209D02*
X277686Y197081D01*
X277806Y196962D02*
X281594D01*
X275247Y199521D02*
X277558Y197209D01*
Y197209D02*
Y197209D01*
X278224Y191844D02*
X281306Y188761D01*
X281605D01*
X275007Y194403D02*
X277686Y197081D01*
X273523Y199521D02*
X275247D01*
X273523Y194403D02*
X275007D01*
X273523Y191844D02*
Y194403D01*
X269573Y191844D02*
X273523D01*
X268533Y192884D02*
X269573Y191844D01*
X273523D02*
X273523Y191844D01*
X278224D01*
X281540Y202756D02*
X281729D01*
X284629Y199856D01*
Y194988D02*
Y199856D01*
X284043Y194403D02*
X284629Y194988D01*
X281594Y194403D02*
X284043D01*
X70615Y12139D02*
X218254D01*
X225276Y5118D01*
X102569Y135056D02*
X112881D01*
X102569Y125056D02*
X112881D01*
X269903Y197222D02*
X271778D01*
X268533Y198592D02*
X269903Y197222D01*
X271778D02*
X272039Y196962D01*
X273523D01*
X284687Y191844D02*
X287779Y188752D01*
X281594Y191844D02*
X284687D01*
D17*
X268533Y198592D02*
D03*
Y192884D02*
D03*
D18*
X280906Y179134D02*
D03*
X274213D02*
D03*
D19*
X281594Y199521D02*
D03*
Y196962D02*
D03*
Y194403D02*
D03*
Y191844D02*
D03*
X273523Y191844D02*
D03*
Y194403D02*
D03*
Y196962D02*
D03*
Y199521D02*
D03*
D20*
X173904Y85056D02*
D03*
Y95056D02*
D03*
Y105056D02*
D03*
Y115056D02*
D03*
Y125056D02*
D03*
Y135056D02*
D03*
X112881Y85056D02*
D03*
Y95056D02*
D03*
Y105056D02*
D03*
Y115056D02*
D03*
Y125056D02*
D03*
D21*
Y135056D02*
D03*
D33*
X259842Y35433D02*
D03*
X7874D02*
D03*
Y200787D02*
D03*
D34*
X102569Y95056D02*
X112881D01*
D35*
X102569Y105056D02*
X112881D01*
X102569Y115056D02*
X112881D01*
X173904Y85056D02*
X185276D01*
X173904Y115056D02*
X185276D01*
D36*
X45276Y5118D02*
D03*
D37*
X55276D02*
D03*
X65276D02*
D03*
X75276D02*
D03*
X85276D02*
D03*
X105276D02*
D03*
X115276D02*
D03*
X125276D02*
D03*
X95276D02*
D03*
X135276D02*
D03*
X145276D02*
D03*
X155276D02*
D03*
X165276D02*
D03*
X175276D02*
D03*
X185276D02*
D03*
X195276D02*
D03*
X205276D02*
D03*
X215276D02*
D03*
X225276D02*
D03*
X235276D02*
D03*
X245276D02*
D03*
X255276D02*
D03*
X25276Y195118D02*
D03*
Y185118D02*
D03*
D38*
Y175118D02*
D03*
D39*
X268701Y179134D02*
D03*
X281540Y202756D02*
D03*
X281605Y188761D02*
D03*
X102569Y135056D02*
D03*
Y125056D02*
D03*
Y95056D02*
D03*
X287779Y188752D02*
D03*
X70615Y12139D02*
D03*
X102569Y105056D02*
D03*
Y115056D02*
D03*
X185276Y85056D02*
D03*
Y115056D02*
D03*
D40*
X120571Y191929D02*
D03*
X108268Y167323D02*
D03*
X255906D02*
D03*
Y68898D02*
D03*
Y19685D02*
D03*
X243602Y191929D02*
D03*
X231299Y167323D02*
D03*
X243602Y142717D02*
D03*
X231299Y118110D02*
D03*
X243602Y93504D02*
D03*
X231299Y68898D02*
D03*
X243602Y44291D02*
D03*
X231299Y19685D02*
D03*
X218996Y191929D02*
D03*
X206693Y167323D02*
D03*
X218996Y142717D02*
D03*
X206693Y118110D02*
D03*
X218996Y93504D02*
D03*
X206693Y68898D02*
D03*
X218996Y44291D02*
D03*
X206693Y19685D02*
D03*
X194390Y191929D02*
D03*
X182087Y167323D02*
D03*
X194390Y142717D02*
D03*
Y93504D02*
D03*
X182087Y24685D02*
D03*
X169783Y191929D02*
D03*
X157480Y167323D02*
D03*
X169783Y142717D02*
D03*
X157480Y118110D02*
D03*
Y68898D02*
D03*
X169783Y44291D02*
D03*
X157480Y24685D02*
D03*
X145177Y191929D02*
D03*
X132874Y167323D02*
D03*
X145177Y142717D02*
D03*
X132874Y68898D02*
D03*
X145177Y44291D02*
D03*
X132874Y19685D02*
D03*
X120571Y142717D02*
D03*
Y93504D02*
D03*
X108268Y68898D02*
D03*
X120571Y44291D02*
D03*
X108268Y19685D02*
D03*
X95965Y191929D02*
D03*
X83661Y167323D02*
D03*
X95965Y142717D02*
D03*
X83661Y118110D02*
D03*
Y68898D02*
D03*
X95965Y44291D02*
D03*
X83661Y19685D02*
D03*
X71358Y191929D02*
D03*
X59055Y167323D02*
D03*
X71358Y142717D02*
D03*
X59055Y118110D02*
D03*
X71358Y93504D02*
D03*
X59055Y68898D02*
D03*
Y19685D02*
D03*
X46752Y191929D02*
D03*
X34449Y167323D02*
D03*
Y68898D02*
D03*
X46752Y44291D02*
D03*
X9843Y167323D02*
D03*
X22146Y142717D02*
D03*
X9843Y118110D02*
D03*
X22146Y93504D02*
D03*
X47142Y76670D02*
D03*
X57087Y110236D02*
D03*
X47244Y118110D02*
D03*
X49213Y90551D02*
D03*
X47244Y102362D02*
D03*
X49213Y137795D02*
D03*
X47244Y125984D02*
D03*
M02*
