M48
;Layer_Color=9474304
;FILE_FORMAT=2:5
INCH,LZ
;TYPE=PLATED
T1F00S00C0.01181
T2F00S00C0.01575
T3F00S00C0.03937
;TYPE=NON_PLATED
T4F00S00C0.13386
%
T01
X0070615Y0012139
X0102569Y0095056
Y0105056
Y0115056
X0185276
Y0085056
X0281605Y0188761
X0287779Y0188752
X028154Y0202756
X0268701Y0179134
X0102569Y0135056
Y0125056
T02
X0059055Y0019685
X0083661
X0108268
X0095965Y0044291
X0108268Y0068898
X0083661
X0059055
X0047142Y007667
X0049213Y0090551
X0047244Y0102362
X0057087Y0110236
X0071358Y0093504
X0022146
X0034449Y0068898
X0046752Y0044291
X0120571
X0145177
X0169783
X0182087Y0024685
X015748
X0132874Y0019685
Y0068898
X015748
X0206693
X0231299
X0255906
X0243602Y0093504
X0218996
X019439
X0218996Y0044291
X0243602
X0255906Y0019685
X0231299
X0206693
X0120571Y0093504
Y0142717
X0145177
X0169783
X019439
X0218996
X0243602
X0255906Y0167323
X0231299
X0206693
X0182087
X015748
X0132874
X0120571Y0191929
X0145177
X0169783
X019439
X0218996
X0243602
X0231299Y011811
X0206693
X015748
X0083661
X0059055
X0047244
Y0125984
X0049213Y0137795
X0071358Y0142717
X0095965
X0108268Y0167323
X0083661
X0059055
X0034449
X0009843
X0022146Y0142717
X0009843Y011811
X0046752Y0191929
X0071358
X0095965
T03
X0045276Y0005118
X0055276
X0065276
X0075276
X0085276
X0095276
X0105276
X0115276
X0125276
X0135276
X0145276
X0155276
X0165276
X0175276
X0185276
X0195276
X0205276
X0215276
X0225276
X0235276
X0245276
X0255276
X0025276Y0175118
Y0185118
Y0195118
T04
X0017717Y0017717
X0277559
Y025
X0017717
M30
